# Blender 5.0.1
# www.blender.org
mtllib predvest.mtl
o sloup
v -0.133217 2.601068 0.056988
v -0.133217 2.287885 0.056988
v 0.133217 2.287885 0.056988
v 0.133217 2.601068 0.056988
v -0.133217 2.601068 0.063740
v -0.133217 2.601068 0.056988
v 0.133217 2.601068 0.056988
v 0.133217 2.601068 0.063740
v -0.133217 2.287885 0.063740
v -0.133217 2.601068 0.063740
v -0.026679 1.913179 -0.052494
v -0.026679 1.913179 -0.108691
v 0.025428 1.913179 -0.108607
v 0.133217 2.601068 0.063740
v 0.025428 1.913179 -0.052409
v 0.133217 2.287885 0.063740
v -0.026679 2.030199 -0.052494
v 0.025428 2.030199 -0.052409
v 0.025428 2.030199 -0.108607
v -0.133217 2.287885 0.056988
v -0.026679 2.030199 -0.108691
v -0.133217 2.287885 0.063740
v -0.026679 1.913179 -0.052494
v 0.025428 1.913179 -0.052409
v 0.025428 2.030199 -0.052409
v 0.133217 2.287885 0.063740
v -0.026679 2.030199 -0.052494
v 0.133217 2.287885 0.056988
v 0.025428 1.913179 -0.052409
v 0.025428 1.913179 -0.108607
v 0.025428 2.030199 -0.108607
v -0.133217 2.601068 0.056988
v 0.025428 2.030199 -0.052409
v -0.133217 2.601068 0.063740
v 0.025428 1.913179 -0.108607
v -0.026679 1.913179 -0.108691
v -0.026679 2.030199 -0.108691
v -0.133217 2.287885 0.063740
v 0.025428 2.030199 -0.108607
v -0.133217 2.287885 0.056988
v -0.026679 1.913179 -0.108691
v -0.026679 1.913179 -0.052494
v -0.026679 2.030199 -0.052494
v 0.133217 2.287885 0.063740
v -0.026679 2.030199 -0.108691
v 0.133217 2.601068 0.063740
v 0.005521 -0.000002 -0.055595
v 0.005521 2.563762 -0.055595
v 0.005521 2.660410 0.055596
v 0.133217 2.601068 0.056988
v 0.005521 -0.000002 0.055595
v 0.133217 2.287885 0.056988
v 0.005521 2.563762 -0.055595
v -0.005521 2.563762 -0.055595
v -0.005521 2.660410 0.055596
v -0.024727 1.953685 -0.091283
v 0.005521 2.660410 0.055596
v 0.087907 1.953685 -0.091283
v -0.005521 2.563762 -0.055595
v -0.005521 -0.000002 -0.055595
v -0.005521 -0.000002 0.055595
v -0.024727 1.953685 -0.066981
v -0.005521 2.660410 0.055596
v 0.087907 1.953685 -0.066981
v -0.033126 2.569010 -0.049479
v -0.033126 -0.000002 -0.049479
v 0.033126 2.569010 -0.049479
v 0.033126 -0.000002 -0.049479
v -0.024727 1.972495 -0.054830
v 0.087907 1.972495 -0.054830
v 0.033126 -0.000002 -0.055656
v -0.033126 -0.000002 -0.055656
v 0.033126 2.563762 -0.055656
v -0.033126 2.563762 -0.055656
v -0.024727 1.991305 -0.066981
v 0.087907 1.991305 -0.066981
v 0.033126 2.569010 -0.049479
v 0.033126 -0.000002 -0.049479
v 0.033126 2.563762 -0.055656
v 0.033126 -0.000002 -0.055656
v -0.024727 1.991305 -0.091283
v 0.087907 1.972495 -0.103433
v -0.033126 2.569010 -0.049479
v 0.033126 2.569010 -0.049479
v -0.033126 2.563762 -0.055656
v 0.033126 2.563762 -0.055656
v 0.087907 1.991305 -0.091283
v -0.024727 1.972495 -0.103433
v -0.033126 -0.000002 -0.049479
v -0.033126 2.569010 -0.049479
v -0.033126 -0.000002 -0.055656
v -0.033126 2.563762 -0.055656
v 0.118195 0.382149 -0.055698
v 0.118195 0.415647 -0.055698
v -0.033126 2.660410 0.055656
v -0.033126 -0.000002 0.055656
v 0.033126 2.660410 0.055656
v 0.033126 -0.000002 0.055656
v -0.118195 0.415647 -0.055698
v -0.118195 0.382149 -0.055698
v 0.033126 -0.000002 0.049479
v -0.033126 -0.000002 0.049479
v 0.033126 2.654972 0.049479
v -0.033126 2.654972 0.049479
v -0.109316 0.405611 -0.055698
v 0.109316 0.405611 -0.055698
v 0.033126 2.660410 0.055656
v 0.033126 -0.000002 0.055656
v 0.033126 2.654972 0.049479
v 0.033126 -0.000002 0.049479
v -0.109316 0.372113 -0.055698
v 0.109316 0.372113 -0.055698
v -0.033126 2.660410 0.055656
v 0.033126 2.660410 0.055656
v -0.033126 2.654972 0.049479
v 0.033126 2.654972 0.049479
v 0.118195 0.603057 -0.055698
v 0.118195 0.636554 -0.055698
v -0.033126 -0.000002 0.055656
v -0.033126 2.660410 0.055656
v -0.033126 -0.000002 0.049479
v -0.033126 2.654972 0.049479
v -0.118195 0.636554 -0.055698
v -0.118195 0.603057 -0.055698
v -0.109316 0.626519 -0.055698
v 0.109316 0.626519 -0.055698
v -0.109316 0.593021 -0.055698
v 0.109316 0.593021 -0.055698
v 0.118195 0.823964 -0.055698
v 0.118195 0.857463 -0.055698
v -0.118195 0.857463 -0.055698
v -0.118195 0.823964 -0.055698
v -0.109316 0.847427 -0.055698
v 0.109316 0.847427 -0.055698
v -0.109316 0.813928 -0.055698
v 0.109316 0.813928 -0.055698
v 0.118195 1.044872 -0.055698
v 0.118195 1.078371 -0.055698
v -0.118195 1.078371 -0.055698
v -0.118195 1.044872 -0.055698
v -0.109316 1.068335 -0.055698
v 0.109316 1.068335 -0.055698
v -0.109316 1.034836 -0.055698
v 0.109316 1.034836 -0.055698
v 0.118195 1.265780 -0.055698
v 0.118195 1.299278 -0.055698
v -0.118195 1.299278 -0.055698
v -0.118195 1.265780 -0.055698
v -0.109316 1.289243 -0.055698
v 0.109316 1.289243 -0.055698
v -0.109316 1.255744 -0.055698
v 0.109316 1.255744 -0.055698
v 0.118195 1.486688 -0.055698
v 0.118195 1.520186 -0.055698
v -0.118195 1.520186 -0.055698
v -0.118195 1.486688 -0.055698
v -0.109316 1.510151 -0.055698
v 0.109316 1.510151 -0.055698
v -0.109316 1.476653 -0.055698
v 0.109316 1.476653 -0.055698
v 0.118195 1.707596 -0.055698
v 0.118195 1.741094 -0.055698
v -0.118195 1.741094 -0.055698
v -0.118195 1.707596 -0.055698
v -0.109316 1.731059 -0.055698
v 0.109316 1.731059 -0.055698
v -0.109316 1.697561 -0.055698
v 0.109316 1.697561 -0.055698
v 0.118195 0.382149 -0.055698
v 0.118195 0.415647 -0.055698
v -0.118195 0.382149 -0.055698
v -0.118195 0.415647 -0.055698
v -0.109316 0.405611 -0.055698
v 0.109316 0.405611 -0.055698
v 0.109316 0.372113 -0.055698
v -0.109316 0.372113 -0.055698
v 0.118195 0.603057 -0.055698
v 0.118195 0.636554 -0.055698
v -0.118195 0.603057 -0.055698
v -0.118195 0.636554 -0.055698
v -0.109316 0.626519 -0.055698
v 0.109316 0.626519 -0.055698
v 0.109316 0.593021 -0.055698
v -0.109316 0.593021 -0.055698
v 0.118195 0.823964 -0.055698
v 0.118195 0.857463 -0.055698
v -0.118195 0.823964 -0.055698
v -0.118195 0.857463 -0.055698
v -0.109316 0.847427 -0.055698
v 0.109316 0.847427 -0.055698
v 0.109316 0.813928 -0.055698
v -0.109316 0.813928 -0.055698
v 0.118195 1.044872 -0.055698
v 0.118195 1.078371 -0.055698
v -0.118195 1.044872 -0.055698
v -0.118195 1.078371 -0.055698
v -0.109316 1.068335 -0.055698
v 0.109316 1.068335 -0.055698
v 0.109316 1.034836 -0.055698
v -0.109316 1.034836 -0.055698
v 0.118195 1.265780 -0.055698
v 0.118195 1.299278 -0.055698
v -0.118195 1.265780 -0.055698
v -0.118195 1.299278 -0.055698
v -0.109316 1.289243 -0.055698
v 0.109316 1.289243 -0.055698
v 0.109316 1.255744 -0.055698
v -0.109316 1.255744 -0.055698
v 0.118195 1.486688 -0.055698
v 0.118195 1.520186 -0.055698
v -0.118195 1.486688 -0.055698
v -0.118195 1.520186 -0.055698
v -0.109316 1.510151 -0.055698
v 0.109316 1.510151 -0.055698
v 0.109316 1.476653 -0.055698
v -0.109316 1.476653 -0.055698
v 0.118195 1.707596 -0.055698
v 0.118195 1.741094 -0.055698
v -0.118195 1.707596 -0.055698
v -0.118195 1.741094 -0.055698
v -0.109316 1.731059 -0.055698
v 0.109316 1.731059 -0.055698
v 0.109316 1.697561 -0.055698
v -0.109316 1.697561 -0.055698
vn -0.0000 -1.0000 -0.0000
vn -0.0000 1.0000 -0.0000
vn -0.0016 -0.0000 1.0000
vn 1.0000 -0.0000 -0.0000
vn 0.0016 -0.0000 -1.0000
vn -1.0000 -0.0000 -0.0000
vn -0.0000 0.7547 -0.6560
vn -0.0000 -0.0000 1.0000
vn -0.0000 -0.0000 -1.0000
vn -0.0000 0.7621 -0.6474
vn -0.0000 0.7506 -0.6608
vn -0.0000 0.5426 -0.8400
vn -0.0000 0.5426 0.8400
vn -0.0000 -0.5426 0.8400
vn -0.0000 -0.5426 -0.8400
vt 0.810732 0.053523
vt 0.810732 0.061391
vt 0.802569 0.061379
vt 0.802569 0.053511
vt 0.819142 0.061379
vt 0.810979 0.061391
vt 0.810979 0.053523
vt 0.819142 0.053511
vt 0.802569 0.044686
vt 0.802569 0.036523
vt 0.820901 0.036523
vt 0.820901 0.044686
vt 0.816053 0.109200
vt 0.785320 0.109200
vt 0.785320 0.173287
vt 0.816053 0.173287
vt 0.802569 0.053180
vt 0.802569 0.045017
vt 0.820901 0.045017
vt 0.820901 0.053180
vt 0.785292 0.109200
vt 0.816024 0.109200
vt 0.816024 0.173287
vt 0.785292 0.173287
vt 0.846083 0.072625
vt 0.846083 0.098798
vt 0.823492 0.099784
vt 0.823492 0.072625
vt 0.797297 0.047235
vt 0.792035 0.047235
vt 0.792035 0.045108
vt 0.797297 0.045108
vt 0.819931 0.073612
vt 0.819931 0.099784
vt 0.797340 0.099784
vt 0.797340 0.072625
vt 0.904353 0.084516
vt 0.904353 0.101437
vt 0.892207 0.084516
vt 0.892207 0.101437
vt 0.906970 0.084559
vt 0.919116 0.084559
vt 0.906970 0.101437
vt 0.919116 0.101437
vt 0.786249 0.023191
vt 0.858382 0.023191
vt 0.786396 0.026643
vt 0.858382 0.026643
vt 0.796158 0.039300
vt 0.796158 0.040718
vt 0.793527 0.039300
vt 0.793527 0.040718
vt 0.786249 0.027187
vt 0.858382 0.027187
vt 0.786249 0.030639
vt 0.858234 0.030639
vt 0.895846 0.071347
vt 0.895846 0.012822
vt 0.922852 0.071347
vt 0.922852 0.012822
vt 0.877444 0.083808
vt 0.889590 0.083808
vt 0.877444 0.101437
vt 0.889590 0.101437
vt 0.786249 0.015199
vt 0.860948 0.015199
vt 0.786401 0.018651
vt 0.860948 0.018651
vt 0.798921 0.039300
vt 0.798921 0.040718
vt 0.796290 0.039300
vt 0.796290 0.040718
vt 0.786249 0.019195
vt 0.860948 0.019195
vt 0.786249 0.022647
vt 0.860795 0.022647
vt 0.834291 0.142167
vt 0.846168 0.142167
vt 0.846168 0.142481
vt 0.834291 0.142481
vt 0.833809 0.142575
vt 0.833809 0.142261
vt 0.846651 0.142575
vt 0.846651 0.142261
vt 0.834291 0.140095
vt 0.846168 0.140095
vt 0.846168 0.140409
vt 0.834291 0.140409
vt 0.833809 0.140503
vt 0.833809 0.140189
vt 0.846651 0.140503
vt 0.846651 0.140189
vt 0.834291 0.138022
vt 0.846168 0.138022
vt 0.846168 0.138337
vt 0.834291 0.138337
vt 0.833809 0.138431
vt 0.833809 0.138116
vt 0.846651 0.138431
vt 0.846651 0.138116
vt 0.834291 0.135950
vt 0.846168 0.135950
vt 0.846168 0.136264
vt 0.834291 0.136264
vt 0.833809 0.136359
vt 0.833809 0.136044
vt 0.846651 0.136359
vt 0.846651 0.136044
vt 0.834291 0.133878
vt 0.846168 0.133878
vt 0.846168 0.134192
vt 0.834291 0.134192
vt 0.833809 0.134286
vt 0.833809 0.133972
vt 0.846651 0.134286
vt 0.846651 0.133972
vt 0.834291 0.131806
vt 0.846168 0.131806
vt 0.846168 0.132120
vt 0.834291 0.132120
vt 0.833809 0.132214
vt 0.833809 0.131900
vt 0.846651 0.132214
vt 0.846651 0.131900
vt 0.834291 0.129734
vt 0.846168 0.129734
vt 0.846168 0.130048
vt 0.834291 0.130048
vt 0.833809 0.130142
vt 0.833809 0.129828
vt 0.846651 0.130142
vt 0.846651 0.129828
vt 0.826873 0.045560
vt 0.829682 0.038960
vt 0.835300 0.038960
vt 0.838109 0.045560
vt 0.835300 0.052159
vt 0.829682 0.052159
vt 0.579296 0.514517
vt 0.579296 0.519198
vt 0.591339 0.514517
vt 0.591339 0.519198
vt 0.559296 0.494773
vt 0.559296 0.991314
vt 0.777541 0.991314
vt 0.777541 0.494773
vt 0.547164 0.534790
vt 0.547164 0.498578
vt 0.572802 0.498578
vt 0.572802 0.534790
s 0
usemtl main
f 11/1/1 12/2/1 13/3/1
f 13/3/1 15/4/1 11/1/1
f 17/5/2 18/6/2 19/7/2
f 19/7/2 21/8/2 17/5/2
f 23/9/3 24/10/3 25/11/3
f 25/11/3 27/12/3 23/9/3
f 29/13/4 30/14/4 31/15/4
f 31/15/4 33/16/4 29/13/4
f 35/17/5 36/18/5 37/19/5
f 37/19/5 39/20/5 35/17/5
f 41/21/6 42/22/6 43/23/6
f 43/23/6 45/24/6 41/21/6
f 47/25/4 48/26/4 49/27/4
f 49/27/4 51/28/4 47/25/4
f 53/29/7 54/30/7 55/31/7
f 55/31/7 57/32/7 53/29/7
f 59/33/6 60/34/6 61/35/6
f 61/35/6 63/36/6 59/33/6
f 65/37/8 66/38/8 67/39/8
f 68/40/8 67/39/8 66/38/8
f 71/41/9 72/42/9 73/43/9
f 74/44/9 73/43/9 72/42/9
f 77/45/4 78/46/4 79/47/4
f 80/48/4 79/47/4 78/46/4
f 83/49/10 84/50/10 85/51/10
f 86/52/10 85/51/10 84/50/10
f 89/53/6 90/54/6 91/55/6
f 92/56/6 91/55/6 90/54/6
f 95/57/8 96/58/8 97/59/8
f 98/60/8 97/59/8 96/58/8
f 101/61/9 102/62/9 103/63/9
f 104/64/9 103/63/9 102/62/9
f 107/65/4 108/66/4 109/67/4
f 110/68/4 109/67/4 108/66/4
f 113/69/11 114/70/11 115/71/11
f 116/72/11 115/71/11 114/70/11
f 119/73/6 120/74/6 121/75/6
f 122/76/6 121/75/6 120/74/6
f 224/77/8 223/78/8 222/79/8
f 222/79/8 221/80/8 224/77/8
f 220/81/8 219/82/8 224/77/8
f 224/77/8 221/80/8 220/81/8
f 218/83/8 223/78/8 217/84/8
f 223/78/8 218/83/8 222/79/8
f 216/85/8 215/86/8 214/87/8
f 214/87/8 213/88/8 216/85/8
f 212/89/8 211/90/8 216/85/8
f 216/85/8 213/88/8 212/89/8
f 210/91/8 215/86/8 209/92/8
f 215/86/8 210/91/8 214/87/8
f 208/93/8 207/94/8 206/95/8
f 206/95/8 205/96/8 208/93/8
f 204/97/8 203/98/8 208/93/8
f 208/93/8 205/96/8 204/97/8
f 202/99/8 207/94/8 201/100/8
f 207/94/8 202/99/8 206/95/8
f 200/101/8 199/102/8 198/103/8
f 198/103/8 197/104/8 200/101/8
f 196/105/8 195/106/8 200/101/8
f 200/101/8 197/104/8 196/105/8
f 194/107/8 199/102/8 193/108/8
f 199/102/8 194/107/8 198/103/8
f 192/109/8 191/110/8 190/111/8
f 190/111/8 189/112/8 192/109/8
f 188/113/8 187/114/8 192/109/8
f 192/109/8 189/112/8 188/113/8
f 186/115/8 191/110/8 185/116/8
f 191/110/8 186/115/8 190/111/8
f 184/117/8 183/118/8 182/119/8
f 182/119/8 181/120/8 184/117/8
f 180/121/8 179/122/8 184/117/8
f 184/117/8 181/120/8 180/121/8
f 178/123/8 183/118/8 177/124/8
f 183/118/8 178/123/8 182/119/8
f 176/125/8 175/126/8 174/127/8
f 174/127/8 173/128/8 176/125/8
f 172/129/8 171/130/8 176/125/8
f 176/125/8 173/128/8 172/129/8
f 170/131/8 175/126/8 169/132/8
f 175/126/8 170/131/8 174/127/8
f 168/78/9 167/77/9 166/79/9
f 165/80/9 166/79/9 167/77/9
f 164/82/9 163/81/9 167/77/9
f 165/80/9 167/77/9 163/81/9
f 168/78/9 162/83/9 161/84/9
f 162/83/9 168/78/9 166/79/9
f 160/86/9 159/85/9 158/87/9
f 157/88/9 158/87/9 159/85/9
f 156/90/9 155/89/9 159/85/9
f 157/88/9 159/85/9 155/89/9
f 160/86/9 154/91/9 153/92/9
f 154/91/9 160/86/9 158/87/9
f 152/94/9 151/93/9 150/95/9
f 149/96/9 150/95/9 151/93/9
f 148/98/9 147/97/9 151/93/9
f 149/96/9 151/93/9 147/97/9
f 152/94/9 146/99/9 145/100/9
f 146/99/9 152/94/9 150/95/9
f 144/102/9 143/101/9 142/103/9
f 141/104/9 142/103/9 143/101/9
f 140/106/9 139/105/9 143/101/9
f 141/104/9 143/101/9 139/105/9
f 144/102/9 138/107/9 137/108/9
f 138/107/9 144/102/9 142/103/9
f 136/110/9 135/109/9 134/111/9
f 133/112/9 134/111/9 135/109/9
f 132/114/9 131/113/9 135/109/9
f 133/112/9 135/109/9 131/113/9
f 136/110/9 130/115/9 129/116/9
f 130/115/9 136/110/9 134/111/9
f 128/118/9 127/117/9 126/119/9
f 125/120/9 126/119/9 127/117/9
f 124/122/9 123/121/9 127/117/9
f 125/120/9 127/117/9 123/121/9
f 128/118/9 118/123/9 117/124/9
f 118/123/9 128/118/9 126/119/9
f 112/126/9 111/125/9 106/127/9
f 105/128/9 106/127/9 111/125/9
f 100/130/9 99/129/9 111/125/9
f 105/128/9 111/125/9 99/129/9
f 112/126/9 94/131/9 93/132/9
f 94/131/9 112/126/9 106/127/9
f 88/133/12 87/134/12 82/133/12
f 88/133/12 81/134/12 87/134/12
f 81/134/2 76/135/2 87/134/2
f 81/134/2 75/135/2 76/135/2
f 75/135/13 70/136/13 76/135/13
f 75/135/13 69/136/13 70/136/13
f 69/136/14 64/137/14 70/136/14
f 69/136/14 62/137/14 64/137/14
f 62/137/1 58/138/1 64/137/1
f 62/137/1 56/138/1 58/138/1
f 56/138/15 82/133/15 58/138/15
f 56/138/15 88/133/15 82/133/15
f 52/139/4 50/140/4 46/140/4
f 46/140/4 44/139/4 52/139/4
f 40/141/6 38/141/6 34/142/6
f 34/142/6 32/142/6 40/141/6
f 28/139/1 26/139/1 22/141/1
f 22/141/1 20/141/1 28/139/1
f 16/143/8 14/144/8 10/145/8
f 10/145/8 9/146/8 16/143/8
f 8/140/2 7/140/2 6/142/2
f 6/142/2 5/142/2 8/140/2
f 4/147/9 3/148/9 2/149/9
f 2/149/9 1/150/9 4/147/9
o stit
v 0.087791 2.647868 0.111304
v -0.088944 2.667258 0.098778
v -0.088944 2.647868 0.111304
v -0.097392 2.601340 0.141196
v 0.087791 2.667258 0.098778
v -0.097392 2.613528 0.087875
v -0.097392 2.626335 0.068153
v -0.088944 2.667258 0.073728
v -0.097392 2.647055 0.060621
v -0.097392 2.667776 0.068153
v 0.087791 2.667258 0.073728
v -0.097392 2.680583 0.087875
v -0.097392 2.692771 0.141196
v -0.088944 2.647868 0.061202
v -0.097392 2.647055 0.141053
v -0.080971 2.601340 0.141196
v 0.087791 2.647868 0.061202
v -0.097392 2.601340 0.141196
v -0.080971 2.613528 0.087875
v -0.088944 2.628478 0.073728
v -0.097392 2.626335 0.068153
v -0.097392 2.613528 0.087875
v 0.087791 2.628478 0.073728
v -0.080971 2.626335 0.068153
v -0.080971 2.626335 0.068153
v -0.088944 2.628478 0.098778
v -0.097392 2.626335 0.068153
v -0.080971 2.647055 0.060621
v 0.087791 2.628478 0.098778
v -0.097392 2.667776 0.068153
v -0.097392 2.647055 0.060621
v -0.080971 2.667776 0.068153
v -0.080971 2.667776 0.068153
v -0.097392 2.667776 0.068153
v -0.080971 2.680583 0.087875
v -0.097392 2.692771 0.141196
v 0.097393 2.647055 0.141053
v 0.097393 2.680583 0.087875
v 0.097393 2.692771 0.141196
v -0.097392 2.680583 0.087875
v 0.097393 2.667776 0.068153
v -0.080971 2.692771 0.141196
v -0.080971 2.601340 0.141196
v 0.097393 2.647055 0.060621
v -0.080971 2.613528 0.087875
v -0.080971 2.626335 0.068153
v 0.097393 2.626335 0.068153
v -0.080971 2.647055 0.060621
v -0.080971 2.667776 0.068153
v 0.097393 2.613528 0.087875
v -0.080971 2.692771 0.141196
v -0.080971 2.680583 0.087875
v 0.097393 2.601340 0.141196
v -0.080971 2.647055 0.141053
v 0.097393 2.692771 0.141196
v 0.081466 2.680583 0.087875
v 0.081466 2.692771 0.141196
v 0.051605 2.741564 0.015270
v 0.097393 2.680583 0.087875
v 0.051604 2.647756 0.104914
v 0.038019 2.647756 0.104914
v 0.081466 2.667776 0.068153
v 0.038019 2.741564 0.015270
v 0.051605 2.724533 -0.007041
v 0.097393 2.667776 0.068153
v 0.051605 2.741564 0.015270
v 0.097393 2.667776 0.068153
v 0.081466 2.647055 0.060621
v 0.081466 2.667776 0.068153
v 0.038019 2.741564 0.015270
v 0.097393 2.647055 0.060621
v 0.038019 2.724533 -0.007041
v 0.051604 2.630724 0.082603
v 0.081466 2.626335 0.068153
v 0.051605 2.724533 -0.007041
v 0.038019 2.724533 -0.007041
v 0.097393 2.626335 0.068153
v 0.038019 2.630724 0.082603
v 0.097393 2.626335 0.068153
v 0.081466 2.613528 0.087875
v 0.081466 2.626335 0.068153
v 0.051604 2.647756 0.104914
v 0.097393 2.613528 0.087875
v 0.051604 2.630724 0.082603
v 0.038019 2.630724 0.082603
v 0.081466 2.601340 0.141196
v 0.038019 2.647756 0.104914
v 0.051605 2.741564 0.015270
v 0.097393 2.601340 0.141196
v 0.051605 2.724533 -0.007041
v 0.081466 2.647055 0.141053
v 0.081466 2.692771 0.141196
v 0.081466 2.680583 0.087875
v 0.051604 2.630724 0.082603
v 0.051604 2.647756 0.104914
v 0.081466 2.667776 0.068153
v 0.038019 2.630724 0.082603
v 0.038019 2.724533 -0.007041
v 0.081466 2.647055 0.060621
v 0.038019 2.741564 0.015270
v 0.038019 2.647756 0.104914
v 0.081466 2.626335 0.068153
v 0.279973 2.533598 0.141744
v 0.213756 2.434498 0.141744
v 0.081466 2.613528 0.087875
v 0.114656 2.368280 0.141744
v -0.002241 2.345028 0.141744
v 0.081466 2.601340 0.141196
v 0.100133 2.385466 0.141569
v 0.100133 2.412841 0.114346
v 0.100133 2.915372 0.141569
v 0.100133 2.887996 0.114346
v -0.119138 2.368280 0.141744
v -0.218239 2.434498 0.141744
v 0.100133 2.915372 0.141569
v 0.122123 2.915372 0.141569
v 0.122123 2.385466 0.141569
v 0.100133 2.915372 0.141569
v 0.122123 2.385466 0.141569
v 0.100133 2.385466 0.141569
v 0.100133 2.412841 0.114346
v 0.100133 2.385466 0.141569
v 0.100133 2.915372 0.141569
v -0.284456 2.533598 0.141744
v 0.100133 2.887996 0.114346
v -0.307708 2.650495 0.141744
v -0.099977 2.385466 0.141569
v -0.099977 2.915372 0.141569
v -0.099977 2.412841 0.114346
v -0.099977 2.887996 0.114346
v -0.284456 2.767392 0.141744
v -0.218239 2.866492 0.141744
v -0.099977 2.915372 0.141569
v -0.121967 2.385466 0.141569
v -0.121967 2.915372 0.141569
v -0.099977 2.915372 0.141569
v -0.099977 2.385466 0.141569
v -0.121967 2.385466 0.141569
v -0.099977 2.412841 0.114346
v -0.099977 2.915372 0.141569
v -0.099977 2.385466 0.141569
v -0.119138 2.932709 0.141744
v -0.002241 2.955961 0.141744
v -0.099977 2.887996 0.114346
v -0.099930 2.413472 0.141569
v -0.099930 2.413472 0.114345
v 0.099930 2.413472 0.141569
v 0.099930 2.413472 0.114346
v 0.114656 2.932709 0.141744
v 0.213756 2.866492 0.141744
v 0.099930 2.413472 0.141569
v 0.099930 2.391482 0.141569
v -0.099930 2.391482 0.141569
v 0.099930 2.413472 0.141569
v -0.099930 2.391482 0.141569
v -0.099930 2.413472 0.141569
v -0.099930 2.413472 0.114345
v -0.099930 2.413472 0.141569
v 0.099930 2.413472 0.141569
v 0.279973 2.767392 0.141744
v 0.099930 2.413472 0.114346
v -0.002241 2.650495 0.141744
v -0.099930 2.887524 0.141481
v 0.099930 2.887524 0.141482
v -0.099930 2.887524 0.114258
v 0.099930 2.887524 0.114258
v 0.303225 2.650495 0.141744
v 0.279973 2.533598 0.141744
v 0.099930 2.887524 0.141482
v -0.099930 2.909514 0.141481
v 0.099930 2.909514 0.141482
v 0.099930 2.887524 0.141482
v -0.099930 2.887524 0.141481
v -0.099930 2.909514 0.141481
v -0.099930 2.887524 0.114258
v 0.099930 2.887524 0.141482
v -0.099930 2.887524 0.141481
v 0.213756 2.434498 0.141744
v 0.114656 2.368280 0.141744
v 0.099930 2.887524 0.114258
v -0.002241 2.650495 0.141744
v 0.303225 2.650495 0.141744
v 0.279973 2.767392 0.141744
v -0.002241 2.345028 0.141744
v -0.119138 2.368280 0.141744
v 0.213756 2.866492 0.141744
v -0.218239 2.434498 0.141744
v -0.284456 2.533598 0.141744
v 0.114656 2.932709 0.141744
v -0.307708 2.650495 0.141744
v -0.284456 2.767392 0.141744
v -0.002241 2.955961 0.141744
v -0.218239 2.866492 0.141744
v -0.119138 2.932709 0.141744
vn -0.0000 0.5426 0.8400
vn -0.0000 1.0000 -0.0000
vn -0.0000 0.5426 -0.8400
vn -0.0000 -0.5426 -0.8400
vn -0.0000 -1.0000 -0.0000
vn -0.0000 -0.5426 0.8400
vn 1.0000 -0.0000 -0.0000
vn -0.0000 0.9749 -0.2228
vn -0.0000 0.8387 -0.5446
vn -0.0000 0.3416 -0.9398
vn -0.0000 -0.3416 -0.9398
vn -0.0000 -0.8387 -0.5446
vn -0.0000 -0.9749 -0.2228
vn -1.0000 -0.0000 -0.0000
vn -0.0000 -0.0000 -1.0000
vn -0.0000 -0.0000 1.0000
vn -0.0000 -0.7949 0.6068
vn -0.0000 -0.6909 -0.7230
vn -0.0000 0.7949 -0.6068
vn -0.0000 0.6909 0.7230
vt 0.812495 0.063050
vt 0.837208 0.011042
vt 0.812495 0.011042
vt 0.837208 0.063050
vt 0.787782 0.011042
vt 0.787782 0.063050
vt 0.799677 0.116024
vt 0.791167 0.143201
vt 0.788074 0.115951
vt 0.794418 0.153279
vt 0.799677 0.157129
vt 0.804936 0.153279
vt 0.808186 0.143201
vt 0.811280 0.115951
vt 0.804643 0.164319
vt 0.792548 0.162506
vt 0.804643 0.162506
vt 0.792548 0.164319
vt 0.788074 0.162506
vt 0.788074 0.164319
vt 0.823710 0.166242
vt 0.818451 0.164430
vt 0.823710 0.164430
vt 0.818451 0.166242
vt 0.813193 0.164430
vt 0.813193 0.166242
vt 0.829761 0.164319
vt 0.825288 0.162506
vt 0.829761 0.162506
vt 0.825288 0.164319
vt 0.813193 0.162506
vt 0.813193 0.164319
vt 0.824795 0.071452
vt 0.836398 0.071379
vt 0.833304 0.098628
vt 0.830054 0.108707
vt 0.824795 0.112557
vt 0.819536 0.108707
vt 0.816286 0.098628
vt 0.813193 0.071379
vt 0.879604 0.132873
vt 0.921430 0.141513
vt 0.879603 0.300118
vt 0.921430 0.291478
vt 0.877657 0.005473
vt 0.905454 0.005462
vt 0.905471 0.114957
vt 0.877674 0.114950
vt 0.905473 0.005473
vt 0.877675 0.114952
vt 0.877675 0.005473
vt 0.905473 0.114952
vt 0.877664 0.005776
vt 0.904746 0.005776
vt 0.877664 0.055786
vt 0.904746 0.055786
vt 0.904707 0.055729
vt 0.879136 0.055729
vt 0.879136 0.005719
vt 0.904707 0.005719
vt 0.877629 0.005776
vt 0.904712 0.005776
vt 0.904712 0.055786
vt 0.877630 0.055786
vt 0.904746 0.005747
vt 0.904746 0.055758
vt 0.877664 0.005747
vt 0.877664 0.055758
vt 0.879102 0.055758
vt 0.904673 0.005747
vt 0.904673 0.055758
vt 0.879102 0.005747
vt 0.904678 0.005776
vt 0.877595 0.055786
vt 0.877595 0.005776
vt 0.904678 0.055786
vt 0.395263 0.742143
vt 0.270029 0.742143
vt 0.279827 0.833174
vt 0.306310 0.912280
vt 0.345349 0.967067
vt 0.395263 0.988613
vt 0.447003 0.962768
vt 0.484001 0.906907
vt 0.508334 0.828231
vt 0.516867 0.741499
vt 0.509301 0.653477
vt 0.485290 0.575445
vt 0.444854 0.516360
vt 0.392576 0.492235
vt 0.342555 0.512277
vt 0.303623 0.572006
vt 0.278322 0.651972
vt 0.003656 0.732772
vt 0.130573 0.755576
vt 0.013317 0.823587
vt 0.038441 0.904502
vt 0.078506 0.964988
vt 0.130573 0.986636
vt 0.182468 0.964476
vt 0.223227 0.906130
vt 0.246204 0.821963
vt 0.255016 0.732772
vt 0.244673 0.643148
vt 0.218624 0.567129
vt 0.179142 0.512570
vt 0.130573 0.492610
vt 0.082004 0.513518
vt 0.042454 0.566587
vt 0.016702 0.644121
vt 0.904234 0.078278
vt 0.901450 0.100549
vt 0.879179 0.100549
vt 0.879179 0.078278
vt 0.881963 0.051831
vt 0.901450 0.051135
vt 0.898667 0.073406
vt 0.879179 0.074103
vt 0.890315 0.058095
vt 0.890315 0.063663
vt 0.884747 0.063663
vt 0.884747 0.058095
vt 0.879179 0.094982
vt 0.893099 0.074798
vt 0.893099 0.058095
vt 0.890315 0.074798
vt 0.799677 0.071452
vt 0.791167 0.098628
vt 0.788074 0.071379
vt 0.794418 0.108707
vt 0.799677 0.112557
vt 0.804936 0.108707
vt 0.808186 0.098628
vt 0.811280 0.071379
vt 0.829761 0.162392
vt 0.817666 0.160523
vt 0.829761 0.160523
vt 0.817666 0.162392
vt 0.813193 0.160523
vt 0.813193 0.162392
vt 0.798592 0.166298
vt 0.793333 0.164430
vt 0.798592 0.164430
vt 0.793333 0.166298
vt 0.788074 0.164430
vt 0.788074 0.166298
vt 0.804643 0.162392
vt 0.800169 0.160523
vt 0.804643 0.160523
vt 0.800169 0.162392
vt 0.788074 0.160523
vt 0.788074 0.162392
vt 0.824795 0.116024
vt 0.836398 0.115951
vt 0.833304 0.143201
vt 0.830054 0.153279
vt 0.824795 0.157129
vt 0.819536 0.153279
vt 0.816286 0.143201
vt 0.813193 0.115951
s 0
usemtl main
f 225/151/16 226/152/16 227/153/16
f 225/151/16 229/154/16 226/152/16
f 229/154/17 232/152/17 226/152/17
f 229/154/17 235/154/17 232/152/17
f 235/154/18 238/153/18 232/152/18
f 235/154/18 241/151/18 238/153/18
f 241/151/19 244/155/19 238/153/19
f 241/151/19 247/156/19 244/155/19
f 247/156/20 250/155/20 244/155/20
f 247/156/20 253/156/20 250/155/20
f 253/156/21 227/153/21 250/155/21
f 253/156/21 225/151/21 227/153/21
f 261/157/22 262/158/22 263/159/22
f 261/157/22 265/160/22 262/158/22
f 261/157/22 268/161/22 265/160/22
f 261/157/22 271/162/22 268/161/22
f 261/157/22 274/163/22 271/162/22
f 261/157/22 277/164/22 274/163/22
f 279/165/23 280/166/23 281/167/23
f 279/165/23 283/168/23 280/166/23
f 283/168/24 286/169/24 280/166/24
f 283/168/24 289/170/24 286/169/24
f 291/171/25 292/172/25 293/173/25
f 291/171/25 295/174/25 292/172/25
f 295/174/26 298/175/26 292/172/26
f 295/174/26 301/176/26 298/175/26
f 303/177/27 304/178/27 305/179/27
f 303/177/27 307/180/27 304/178/27
f 307/180/28 310/181/28 304/178/28
f 307/180/28 313/182/28 310/181/28
f 315/183/29 316/184/29 317/185/29
f 315/183/29 317/185/29 320/186/29
f 315/183/29 320/186/29 323/187/29
f 315/183/29 323/187/29 326/188/29
f 315/183/29 326/188/29 329/189/29
f 315/183/29 329/189/29 332/190/29
f 333/191/22 334/192/22 335/193/22
f 336/194/22 335/193/22 334/192/22
f 339/195/30 340/196/30 341/197/30
f 342/195/30 343/197/30 344/198/30
f 345/192/29 346/191/29 347/193/29
f 347/193/29 349/194/29 345/192/29
f 351/191/29 352/193/29 353/192/29
f 354/194/29 353/192/29 352/193/29
f 357/199/30 358/200/30 359/201/30
f 360/199/30 361/202/30 362/200/30
f 363/192/22 364/193/22 365/191/22
f 364/193/22 363/192/22 368/194/22
f 369/203/20 370/204/20 371/205/20
f 372/206/20 371/205/20 370/204/20
f 375/207/30 376/208/30 377/209/30
f 378/207/30 379/209/30 380/210/30
f 381/211/17 382/212/17 383/213/17
f 383/213/17 385/214/17 381/211/17
f 387/215/17 388/216/17 389/217/17
f 390/218/17 389/217/17 388/216/17
f 393/219/30 394/220/30 395/221/30
f 396/219/30 397/222/30 398/220/30
f 399/223/20 400/224/20 401/225/20
f 400/224/20 399/223/20 404/226/20
f 405/227/31 406/228/31 407/229/31
f 405/227/31 407/229/31 410/230/31
f 405/227/31 410/230/31 413/231/31
f 405/227/31 413/231/31 416/232/31
f 405/227/31 416/232/31 418/233/31
f 405/227/31 418/233/31 417/234/31
f 405/227/31 417/234/31 415/235/31
f 405/227/31 415/235/31 414/236/31
f 405/227/31 414/236/31 412/237/31
f 405/227/31 412/237/31 411/238/31
f 405/227/31 411/238/31 409/239/31
f 405/227/31 409/239/31 408/240/31
f 405/227/31 408/240/31 403/241/31
f 405/227/31 403/241/31 402/242/31
f 405/227/31 402/242/31 392/243/31
f 405/227/31 392/243/31 406/228/31
f 391/244/30 386/245/30 384/246/30
f 384/246/30 386/245/30 374/247/30
f 374/247/30 386/245/30 373/248/30
f 373/248/30 386/245/30 367/249/30
f 367/249/30 386/245/30 366/250/30
f 366/250/30 386/245/30 356/251/30
f 356/251/30 386/245/30 355/252/30
f 355/252/30 386/245/30 350/253/30
f 350/253/30 386/245/30 348/254/30
f 348/254/30 386/245/30 338/255/30
f 338/255/30 386/245/30 337/256/30
f 337/256/30 386/245/30 331/257/30
f 331/257/30 386/245/30 330/258/30
f 330/258/30 386/245/30 328/259/30
f 328/259/30 386/245/30 327/260/30
f 327/260/30 386/245/30 391/244/30
f 325/261/29 324/262/29 322/263/29
f 322/263/29 321/264/29 325/261/29
f 319/265/22 318/266/22 314/267/22
f 314/267/22 312/268/22 319/265/22
f 311/269/32 309/270/32 308/271/32
f 308/271/32 306/272/32 311/269/32
f 302/264/33 300/273/33 299/274/33
f 299/274/33 297/275/33 302/264/33
f 296/269/34 294/270/34 290/270/34
f 290/270/34 288/269/34 296/269/34
f 287/275/35 285/274/35 284/276/35
f 284/276/35 282/269/35 287/275/35
f 278/277/22 276/278/22 275/279/22
f 278/277/22 273/280/22 276/278/22
f 278/277/22 272/281/22 273/280/22
f 278/277/22 270/282/22 272/281/22
f 278/277/22 269/283/22 270/282/22
f 278/277/22 267/284/22 269/283/22
f 266/285/23 264/286/23 260/287/23
f 266/285/23 259/288/23 264/286/23
f 259/288/24 258/289/24 264/286/24
f 259/288/24 257/290/24 258/289/24
f 256/291/25 255/292/25 254/293/25
f 256/291/25 252/294/25 255/292/25
f 252/294/26 251/295/26 255/292/26
f 252/294/26 249/296/26 251/295/26
f 248/297/27 246/298/27 245/299/27
f 248/297/27 243/300/27 246/298/27
f 243/300/28 242/301/28 246/298/28
f 243/300/28 240/302/28 242/301/28
f 239/303/29 237/304/29 236/305/29
f 239/303/29 236/305/29 234/306/29
f 239/303/29 234/306/29 233/307/29
f 239/303/29 233/307/29 231/308/29
f 239/303/29 231/308/29 230/309/29
f 239/303/29 230/309/29 228/310/29
o tahlo_3
v 0.047347 2.023912 0.014013
v 0.047347 2.728513 0.032718
v 0.047347 2.729292 0.003387
v 0.060933 2.728513 0.032718
v 0.047347 2.024691 -0.015318
v 0.060933 2.023912 0.014013
v 0.060933 2.023912 0.014013
v 0.060933 2.024691 -0.015318
v 0.060933 2.729292 0.003387
v 0.047347 2.023912 0.014013
v 0.060933 2.728513 0.032718
v 0.047347 2.728513 0.032718
v 0.047347 2.024691 -0.015318
v 0.047347 2.729292 0.003387
v 0.060933 2.729292 0.003387
v 0.060933 2.729292 0.003387
v 0.060933 2.024691 -0.015318
v 0.060933 2.728513 0.032718
v 0.047347 2.729292 0.003387
v 0.047347 2.728513 0.032718
vn -1.0000 -0.0000 -0.0000
vn 1.0000 -0.0000 -0.0000
vn -0.0000 0.0265 -0.9996
vn -0.0000 0.9996 0.0265
vn -0.0000 -0.0265 0.9996
vt 0.787344 0.006556
vt 0.787345 0.094819
vt 0.834844 0.094819
vt 0.834844 0.006556
vt 0.784893 0.007049
vt 0.784893 0.094573
vt 0.834844 0.094573
vt 0.834844 0.007049
s 0
usemtl main
f 419/311/36 420/312/36 421/313/36
f 421/313/36 423/314/36 419/311/36
f 425/311/37 426/314/37 427/313/37
f 427/313/37 429/312/37 425/311/37
f 431/315/38 432/316/38 433/317/38
f 433/317/38 435/318/38 431/315/38
f 437/313/39 438/312/39 436/312/39
f 436/312/39 434/313/39 437/313/39
f 430/316/40 428/315/40 424/318/40
f 424/318/40 422/317/40 430/316/40
o zavazi
v 0.072157 2.109746 0.253709
v 0.072157 2.046806 0.043241
v 0.072157 1.998630 0.061276
v 0.028391 1.946592 -0.270549
v 0.072157 2.061570 0.271744
v 0.075151 1.974615 -0.176842
v 0.028391 1.906111 -0.255394
v 0.075151 1.934134 -0.161686
v 0.072157 1.948621 0.030575
v 0.072157 2.019651 -0.192157
v 0.072157 1.906010 -0.111916
v 0.028391 1.906111 -0.255394
v 0.075151 1.974615 -0.176842
v 0.028391 1.946592 -0.270549
v 0.028391 1.906111 -0.255394
v 0.028391 1.873413 -0.515255
v 0.028391 1.832931 -0.500100
v 0.072157 1.931570 -0.156316
v 0.072157 1.956964 -0.241826
v 0.072157 1.911130 -0.224667
v 0.028391 1.873413 -0.515255
v 0.028391 1.906111 -0.255394
v 0.023057 1.957225 0.018612
v 0.023057 2.020838 0.052888
v 0.072157 1.901503 -0.427286
v 0.072157 1.855668 -0.410127
v 0.023057 1.981655 0.052888
v 0.023057 1.965944 -0.024129
v 0.023057 2.020838 0.052888
v 0.023057 1.957225 0.018612
v 0.094420 1.998630 0.061276
v 0.094420 2.046806 0.043241
v 0.094420 2.109746 0.253709
v 0.023057 1.965944 -0.024129
v 0.094420 2.061570 0.271744
v 0.023057 2.045268 0.018612
v 0.094420 1.948621 0.030575
v 0.023057 2.020838 0.052888
v 0.023057 1.965944 -0.024129
v 0.023057 2.036549 -0.024129
v 0.094420 1.906010 -0.111916
v 0.094420 2.019651 -0.192157
v 0.023057 2.045268 0.018612
v 0.023057 1.965944 -0.024129
v 0.023057 2.001246 -0.043151
v 0.094420 1.931570 -0.156316
v 0.023057 2.036549 -0.024129
v 0.023057 1.965944 -0.024129
v 0.079873 1.965944 -0.024129
v 0.094420 1.911130 -0.224667
v 0.094420 1.956964 -0.241826
v 0.023057 1.957225 0.018612
v 0.079873 1.957225 0.018612
v 0.023057 1.981655 0.052888
v 0.079873 1.981655 0.052888
v 0.094420 1.855668 -0.410127
v 0.094420 1.901503 -0.427286
v 0.023057 2.020838 0.052888
v 0.079873 2.020838 0.052888
v 0.023057 2.045268 0.018612
v 0.094420 2.109746 0.253709
v 0.072157 2.046806 0.043241
v 0.072157 2.109746 0.253709
v 0.079873 2.045268 0.018612
v 0.023057 2.036549 -0.024129
v 0.094420 2.046806 0.043241
v 0.094420 1.998630 0.061276
v 0.072157 2.061570 0.271744
v 0.072157 1.998630 0.061276
v 0.072157 2.061570 0.271744
v 0.094420 1.998630 0.061276
v 0.094420 2.061570 0.271744
v 0.094420 2.061570 0.271744
v 0.072157 2.109746 0.253709
v 0.072157 2.061570 0.271744
v 0.072157 2.109746 0.253709
v 0.094420 2.061570 0.271744
v 0.094420 2.109746 0.253709
v 0.094420 1.948621 0.030575
v 0.072157 1.998630 0.061276
v 0.072157 1.948621 0.030575
v 0.072157 1.998630 0.061276
v 0.094420 1.948621 0.030575
v 0.094420 1.998630 0.061276
v 0.094420 2.046806 0.043241
v 0.072157 2.019651 -0.192157
v 0.072157 2.046806 0.043241
v 0.079873 2.036549 -0.024129
v 0.023057 2.001246 -0.043151
v 0.094420 2.019651 -0.192157
v 0.094420 1.906010 -0.111916
v 0.072157 1.948621 0.030575
v 0.072157 1.906010 -0.111916
v 0.072157 1.948621 0.030575
v 0.094420 1.906010 -0.111916
v 0.094420 1.948621 0.030575
v 0.094420 1.931570 -0.156316
v 0.072157 1.906010 -0.111916
v 0.072157 1.931570 -0.156316
v 0.072157 1.906010 -0.111916
v 0.094420 1.931570 -0.156316
v 0.094420 1.906010 -0.111916
v 0.079873 2.001246 -0.043151
v 0.072157 1.956964 -0.241826
v 0.094420 1.956964 -0.241826
v 0.094420 1.911130 -0.224667
v 0.072157 1.931570 -0.156316
v 0.072157 1.911130 -0.224667
v 0.072157 1.931570 -0.156316
v 0.094420 1.911130 -0.224667
v 0.094420 1.931570 -0.156316
v 0.094420 1.901503 -0.427286
v 0.072157 1.855668 -0.410127
v 0.072157 1.901503 -0.427286
v 0.072157 1.855668 -0.410127
v 0.094420 1.901503 -0.427286
v 0.094420 1.855668 -0.410127
v 0.094420 1.956964 -0.241826
v 0.072157 1.901503 -0.427286
v 0.072157 1.956964 -0.241826
v 0.072157 1.901503 -0.427286
v 0.094420 1.956964 -0.241826
v 0.094420 1.901503 -0.427286
v 0.094420 1.855668 -0.410127
v 0.072157 1.911130 -0.224667
v 0.072157 1.855668 -0.410127
v 0.072157 1.911130 -0.224667
v 0.094420 1.855668 -0.410127
v 0.094420 1.911130 -0.224667
v -0.003631 1.868881 -0.452091
v -0.003631 1.895252 -0.363908
v -0.003631 1.920243 -0.452593
v -0.003631 1.962060 -0.419220
v -0.003631 1.978358 -0.364720
v -0.003631 1.962912 -0.309910
v -0.003631 1.921623 -0.275725
v -0.003631 1.870260 -0.275224
v -0.003631 1.828444 -0.308597
v -0.003631 1.812145 -0.363097
v -0.003631 1.827591 -0.417907
v 0.057292 1.868881 -0.452091
v -0.003631 1.868881 -0.452091
v 0.057292 1.920243 -0.452593
v -0.003631 1.920243 -0.452593
v 0.028391 1.946592 -0.270549
v 0.028391 1.906111 -0.255394
v 0.057292 1.962060 -0.419220
v 0.075151 1.974615 -0.176842
v 0.075151 1.934134 -0.161686
v -0.003631 1.962060 -0.419220
v 0.075151 1.974615 -0.176842
v 0.028391 1.906111 -0.255394
v 0.057292 1.978358 -0.364720
v 0.028391 1.946592 -0.270549
v 0.028391 1.873413 -0.515255
v -0.003631 1.978358 -0.364720
v 0.028391 1.906111 -0.255394
v 0.028391 1.832931 -0.500100
v 0.057292 1.962912 -0.309910
v 0.028391 1.906111 -0.255394
v 0.028391 1.873413 -0.515255
v -0.003631 1.962912 -0.309910
v 0.057292 1.827591 -0.417907
v 0.057292 1.812145 -0.363097
v 0.057292 1.921623 -0.275725
v 0.057292 1.828444 -0.308597
v 0.057292 1.870260 -0.275224
v -0.003631 1.921623 -0.275725
v 0.057292 1.921623 -0.275725
v 0.057292 1.962912 -0.309910
v 0.057292 1.870260 -0.275224
v 0.057292 1.978358 -0.364720
v 0.057292 1.962060 -0.419220
v -0.003631 1.870260 -0.275224
v 0.057292 1.868881 -0.452091
v 0.057292 1.895252 -0.363908
v 0.057292 1.828444 -0.308597
v 0.057292 1.920243 -0.452593
v -0.003631 1.827591 -0.417907
v -0.003631 1.828444 -0.308597
v 0.057292 1.827591 -0.417907
v -0.003631 1.812145 -0.363097
v 0.057292 1.812145 -0.363097
vn -1.0000 -0.0000 -0.0000
vn 1.0000 -0.0000 -0.0000
vn -0.0000 0.9581 -0.2865
vn -0.0000 -0.9581 0.2865
vn -0.0000 0.3506 0.9365
vn -0.0000 -0.5232 0.8522
vn -0.0000 0.9934 -0.1146
vn -0.0000 -0.8667 -0.4989
vn -0.0000 0.6210 -0.7838
vn -0.0000 -0.3506 -0.9365
vn -0.0000 -0.0098 -1.0000
vn -0.0000 0.6238 -0.7816
vn -0.0000 0.9625 0.2712
vn -0.0000 0.6377 0.7703
vn -0.0000 0.0098 1.0000
vn -0.0000 -0.6238 0.7816
vn -0.0000 -0.9625 -0.2712
vn -0.0000 -0.6377 -0.7703
vn 0.9018 -0.1515 -0.4047
vn -0.0000 0.4743 -0.8803
vn -0.0000 0.9798 -0.1999
vn -0.0000 0.8143 0.5804
vn -0.0000 -0.0000 1.0000
vn -0.0000 -0.8143 0.5804
vn -0.0000 -0.9798 -0.1999
vn -0.0000 -0.4743 -0.8803
vn -0.9018 0.1515 0.4047
vt 0.886887 0.005918
vt 0.886887 0.054539
vt 0.899997 0.050606
vt 0.899997 0.006149
vt 0.913818 0.063881
vt 0.878077 0.104631
vt 0.913818 0.096799
vt 0.902409 0.104961
vt 0.891196 0.122833
vt 0.902736 0.122833
vt 0.891196 0.165677
vt 0.902736 0.165677
vt 0.885574 0.098947
vt 0.884871 0.076383
vt 0.876328 0.098757
vt 0.893580 0.077048
vt 0.895057 0.076763
vt 0.874850 0.099422
vt 0.882185 0.076763
vt 0.887723 0.099422
vt 0.898203 0.065190
vt 0.885331 0.065190
vt 0.887935 0.044011
vt 0.900807 0.044011
vt 0.900156 0.048429
vt 0.887284 0.048429
vt 0.900807 0.044394
vt 0.887935 0.044394
vt 0.886416 0.033019
vt 0.899288 0.033019
vt 0.899288 0.005488
vt 0.886416 0.005488
vt 0.822661 0.043016
vt 0.803728 0.043016
vt 0.819045 0.063462
vt 0.809578 0.076098
vt 0.797877 0.076098
vt 0.788410 0.063462
vt 0.784794 0.043016
vt 0.788410 0.022570
vt 0.797877 0.009934
vt 0.809578 0.009934
vt 0.819045 0.022570
vt 0.810539 0.069118
vt 0.810539 0.064349
vt 0.809152 0.069118
vt 0.809152 0.064349
vt 0.805523 0.069118
vt 0.805523 0.064349
vt 0.801036 0.069118
vt 0.801036 0.064349
vt 0.797406 0.069118
vt 0.797406 0.064349
vt 0.796020 0.069118
vt 0.796020 0.064349
vt 0.902630 0.119399
vt 0.890396 0.149484
vt 0.890396 0.119399
vt 0.902630 0.149484
vt 0.902630 0.166310
vt 0.890396 0.166310
vt 0.808329 0.055808
vt 0.808329 0.051360
vt 0.805942 0.055808
vt 0.805942 0.051360
vt 0.802536 0.055808
vt 0.802536 0.051360
vt 0.800675 0.055808
vt 0.800675 0.051360
vt 0.801761 0.055808
vt 0.801761 0.051360
vt 0.804976 0.055808
vt 0.804976 0.051360
vt 0.807899 0.055808
vt 0.807899 0.051360
s 0
usemtl main
f 439/319/41 440/320/41 441/321/41
f 441/321/41 443/322/41 439/319/41
f 441/321/41 440/320/41 447/323/41
f 448/324/41 449/325/41 440/320/41
f 447/323/41 440/320/41 449/325/41
f 449/325/41 448/324/41 456/326/41
f 457/327/41 458/328/41 448/324/41
f 456/326/41 448/324/41 458/328/41
f 463/329/41 464/330/41 457/327/41
f 458/328/41 457/327/41 464/330/41
f 469/321/42 470/320/42 471/319/42
f 471/319/42 473/322/42 469/321/42
f 475/323/42 470/320/42 469/321/42
f 470/320/42 479/325/42 480/324/42
f 479/325/42 470/320/42 475/323/42
f 484/326/42 480/324/42 479/325/42
f 480/324/42 488/328/42 489/327/42
f 488/328/42 480/324/42 484/326/42
f 489/327/42 494/330/42 495/329/42
f 494/330/42 489/327/42 488/328/42
f 499/331/43 500/332/43 501/333/43
f 500/332/43 499/331/43 504/334/43
f 505/335/44 506/336/44 507/337/44
f 508/336/44 509/335/44 510/338/44
f 511/338/45 512/336/45 513/336/45
f 514/336/45 515/338/45 516/338/45
f 517/339/46 518/337/46 519/340/46
f 520/337/46 521/339/46 522/335/46
f 523/335/47 524/341/47 525/337/47
f 524/341/47 523/335/47 528/342/47
f 529/343/44 530/340/44 531/344/44
f 532/340/44 533/343/44 534/339/44
f 535/345/48 536/344/48 537/346/48
f 538/344/48 539/345/48 540/343/48
f 528/342/49 542/347/49 524/341/49
f 542/347/49 528/342/49 543/348/49
f 544/348/44 545/346/44 546/347/44
f 547/346/44 548/348/44 549/345/44
f 550/349/50 551/350/50 552/350/50
f 553/350/50 554/349/50 555/349/50
f 556/348/43 557/350/43 558/347/43
f 559/350/43 560/348/43 561/349/43
f 562/349/44 563/347/44 564/350/44
f 565/347/44 566/349/44 567/348/44
f 568/351/41 569/352/41 570/353/41
f 570/353/41 569/352/41 571/354/41
f 571/354/41 569/352/41 572/355/41
f 572/355/41 569/352/41 573/356/41
f 573/356/41 569/352/41 574/357/41
f 574/357/41 569/352/41 575/358/41
f 575/358/41 569/352/41 576/359/41
f 576/359/41 569/352/41 577/360/41
f 577/360/41 569/352/41 578/361/41
f 578/361/41 569/352/41 568/351/41
f 579/362/51 580/363/51 581/364/51
f 581/364/51 580/363/51 582/365/51
f 581/364/52 582/365/52 585/366/52
f 585/366/52 582/365/52 588/367/52
f 585/366/43 588/367/43 591/368/43
f 591/368/43 588/367/43 594/369/43
f 591/368/53 594/369/53 597/370/53
f 597/370/53 594/369/53 600/371/53
f 597/370/54 600/371/54 603/372/54
f 603/372/54 600/371/54 606/373/54
f 603/372/55 606/373/55 609/370/55
f 609/370/55 606/373/55 612/371/55
f 609/370/56 612/371/56 615/368/56
f 615/368/56 612/371/56 618/369/56
f 615/368/44 618/369/44 621/366/44
f 621/366/44 618/369/44 620/367/44
f 621/366/57 620/367/57 619/364/57
f 619/364/57 620/367/57 617/365/57
f 619/364/58 617/365/58 579/362/58
f 579/362/58 617/365/58 580/363/58
f 616/353/42 614/352/42 613/351/42
f 611/354/42 614/352/42 616/353/42
f 610/355/42 614/352/42 611/354/42
f 608/356/42 614/352/42 610/355/42
f 607/357/42 614/352/42 608/356/42
f 605/358/42 614/352/42 607/357/42
f 604/359/42 614/352/42 605/358/42
f 602/360/42 614/352/42 604/359/42
f 601/361/42 614/352/42 602/360/42
f 613/351/42 614/352/42 601/361/42
f 599/374/42 598/375/42 596/376/42
f 595/375/42 593/374/42 592/377/42
f 590/375/59 589/378/59 587/379/59
f 586/378/59 584/375/59 583/377/59
f 541/380/60 527/381/60 526/382/60
f 526/382/60 527/381/60 503/383/60
f 526/382/61 503/383/61 502/384/61
f 502/384/61 503/383/61 498/385/61
f 502/384/62 498/385/62 497/386/62
f 497/386/62 498/385/62 496/387/62
f 497/386/63 496/387/63 493/388/63
f 493/388/63 496/387/63 492/389/63
f 493/388/64 492/389/64 491/390/64
f 491/390/64 492/389/64 490/391/64
f 491/390/65 490/391/65 487/392/65
f 487/392/65 490/391/65 486/393/65
f 487/392/66 486/393/66 541/380/66
f 541/380/66 486/393/66 527/381/66
f 485/383/41 483/381/41 482/393/41
f 481/385/41 478/383/41 477/393/41
f 476/387/41 474/385/41 472/393/41
f 468/391/41 467/387/41 466/393/41
f 465/389/41 462/387/41 461/391/41
f 460/375/41 459/374/41 455/376/41
f 454/374/41 453/375/41 452/377/41
f 451/378/67 450/375/67 446/379/67
f 445/375/67 444/378/67 442/377/67
o tahlo_2
v 0.094584 1.845485 -0.336448
v 0.094584 1.909064 -0.342647
v 0.094584 1.907848 -0.358262
v 0.103994 -0.302799 -0.072998
v 0.094584 1.844269 -0.352063
v 0.103795 1.853340 -0.340961
v 0.100598 1.845485 -0.336448
v 0.100597 1.844269 -0.352063
v 0.100598 1.907848 -0.358262
v 0.091933 -0.303820 -0.071970
v 0.100598 1.909064 -0.342647
v 0.097726 1.852427 -0.352679
v 0.094584 1.845485 -0.336448
v 0.094584 1.844269 -0.352063
v 0.100597 1.844269 -0.352063
v 0.091656 1.853340 -0.340961
v 0.100598 1.845485 -0.336448
v 0.097247 -0.304252 -0.084171
v 0.094584 1.844269 -0.352063
v 0.094584 1.907848 -0.358262
v 0.100598 1.907848 -0.358262
v 0.100598 1.909064 -0.342647
v 0.100597 1.844269 -0.352063
v 0.100598 1.845485 -0.336448
v 0.094584 1.907848 -0.358262
v 0.094584 1.909064 -0.342647
v 0.100598 1.909064 -0.342647
v 0.094584 1.845485 -0.336448
v 0.100598 1.907848 -0.358262
v 0.094584 1.909064 -0.342647
vn -1.0000 -0.0000 -0.0000
vn 1.0000 -0.0000 -0.0000
vn -0.0000 -0.9970 0.0776
vn -0.0000 -0.0970 -0.9953
vn -0.0000 0.9970 -0.0777
vn -0.0000 0.0970 0.9953
vn -0.8883 -0.0565 -0.4557
vn -0.9163 -0.0497 -0.3974
vn -0.0000 0.1237 0.9923
vn 0.0739 0.1230 0.9896
vn 0.8883 -0.0566 -0.4557
vn 0.8580 -0.0637 -0.5098
vt 0.939704 0.029863
vt 0.940043 0.358936
vt 0.990662 0.358936
vt 0.989749 0.027531
vt 0.796486 0.023133
vt 0.843289 0.030327
vt 0.846404 0.023133
vt 0.793371 0.030327
vt 0.843289 0.015940
vt 0.793371 0.015940
s 0
usemtl main
f 622/394/68 623/395/68 624/396/68
f 624/396/68 626/397/68 622/394/68
f 628/394/69 629/397/69 630/396/69
f 630/396/69 632/395/69 628/394/69
f 634/394/70 635/397/70 636/397/70
f 636/397/70 638/394/70 634/394/70
f 640/397/71 641/396/71 642/396/71
f 642/396/71 644/397/71 640/397/71
f 646/396/72 647/395/72 648/395/72
f 648/395/72 650/396/72 646/396/72
f 651/395/73 649/394/73 645/394/73
f 645/394/73 643/395/73 651/395/73
f 639/398/74 637/399/74 633/400/74
f 639/398/75 631/401/75 637/399/75
f 631/401/76 627/402/76 637/399/76
f 631/401/77 625/403/77 627/402/77
f 625/403/78 633/400/78 627/402/78
f 625/403/79 639/398/79 633/400/79
o tahlo_1
v 0.094114 2.013308 0.236750
v 0.094114 2.077009 0.241109
v 0.094114 2.077864 0.225464
v 0.121852 1.993512 0.199506
v 0.094114 2.014163 0.221105
v 0.132978 1.991872 0.229505
v 0.100128 2.013308 0.236750
v 0.100128 2.014163 0.221105
v 0.100128 2.077864 0.225464
v 0.121852 1.990232 0.259504
v 0.100128 2.077009 0.241109
v 0.094989 1.989553 0.271930
v 0.094114 2.013308 0.236750
v 0.094114 2.014163 0.221105
v 0.100128 2.014163 0.221105
v 0.068127 1.990232 0.259504
v 0.100128 2.013308 0.236750
v 0.057000 1.991872 0.229505
v 0.094114 2.014163 0.221105
v 0.094114 2.077864 0.225464
v 0.100128 2.077864 0.225464
v 0.068127 1.993512 0.199506
v 0.100128 2.014163 0.221105
v 0.094989 1.994191 0.187080
v 0.094114 2.077864 0.225464
v 0.094114 2.077009 0.241109
v 0.100128 2.077009 0.241109
v 0.094989 2.004470 0.230367
v 0.100128 2.077864 0.225464
v 0.121852 1.670844 0.176245
v 0.094114 2.077009 0.241109
v 0.094114 2.013308 0.236750
v 0.100128 2.013308 0.236750
v 0.121852 1.993512 0.199506
v 0.100128 2.077009 0.241109
v 0.132978 1.669204 0.206245
v 0.097256 -0.007990 0.084917
v 0.091187 2.015584 0.235179
v 0.097256 2.016226 0.223440
v 0.132978 1.991872 0.229505
v 0.091186 -0.008631 0.096657
v 0.121852 1.667564 0.236244
v 0.121852 1.990232 0.259504
v 0.103326 2.015584 0.235179
v 0.094989 1.666885 0.248669
v 0.094989 1.989553 0.271930
v 0.103325 -0.008631 0.096657
v 0.068127 1.667564 0.236244
v 0.068127 1.990232 0.259504
v 0.057000 1.669204 0.206245
v 0.057000 1.991872 0.229505
v 0.068127 1.670844 0.176245
v 0.094989 1.994191 0.187080
v 0.068127 1.993512 0.199506
v 0.094989 1.652076 0.205072
v 0.068127 1.670844 0.176245
v 0.094989 1.671523 0.163819
v 0.094989 1.671523 0.163819
v 0.057000 1.669204 0.206245
v 0.121852 1.670844 0.176245
v 0.132978 1.669204 0.206245
v 0.068127 1.667564 0.236244
v 0.121852 1.667564 0.236244
v 0.094989 1.666885 0.248669
vn -1.0000 -0.0000 -0.0000
vn 1.0000 -0.0000 -0.0000
vn -0.0000 -0.9985 -0.0546
vn -0.0000 0.0683 -0.9977
vn -0.0000 0.9985 0.0546
vn -0.0000 -0.0683 0.9977
vn -0.8886 0.0313 -0.4577
vn 0.8886 0.0313 -0.4577
vn -0.1718 -0.8911 -0.4201
vn -0.4078 -0.8909 -0.2000
vn -0.4063 -0.9081 0.1011
vn -0.1702 -0.9331 0.3169
vn 0.1702 -0.9331 0.3169
vn 0.4063 -0.9081 0.1010
vn 0.4078 -0.8909 -0.2000
vn 0.1718 -0.8911 -0.4201
vn -0.4203 0.0652 -0.9050
vn -0.9377 0.0250 -0.3465
vn -0.9377 -0.0250 0.3465
vn -0.9377 -0.0250 0.3464
vn -0.4203 -0.0652 0.9050
vn 0.4203 -0.0652 0.9050
vn 0.9377 -0.0250 0.3464
vn 0.9377 0.0250 -0.3464
vn 0.4203 0.0652 -0.9050
vn -0.1304 0.9646 -0.2291
vn -0.3128 0.9476 -0.0642
vn -0.3138 0.9346 0.1675
vn -0.1313 0.9331 0.3349
vn 0.1313 0.9331 0.3349
vn 0.3138 0.9346 0.1675
vn 0.3128 0.9476 -0.0642
vn 0.1304 0.9646 -0.2291
vt 0.940460 0.022538
vt 0.940357 0.360248
vt 0.989157 0.360248
vt 0.988146 0.020146
vt 0.821261 0.022774
vt 0.816371 0.034067
vt 0.821261 0.022773
vt 0.816371 0.011479
vt 0.816371 0.011480
vt 0.791363 0.142293
vt 0.795412 0.127170
vt 0.791363 0.120907
vt 0.797090 0.142293
vt 0.795412 0.157415
vt 0.791363 0.163678
vt 0.787313 0.157415
vt 0.785635 0.142293
vt 0.787313 0.127170
vt 0.784506 0.007651
vt 0.810366 0.051170
vt 0.810366 0.009893
vt 0.784506 0.048927
vt 0.810366 0.090851
vt 0.784506 0.088608
vt 0.810366 0.124144
vt 0.784506 0.121902
vt 0.810366 0.171809
vt 0.784506 0.169567
vt 0.791363 0.142885
vt 0.791363 0.121498
vt 0.795412 0.127763
vt 0.797090 0.142885
vt 0.795412 0.158007
vt 0.791363 0.164271
vt 0.787313 0.158007
vt 0.785635 0.142885
vt 0.787313 0.127763
s 0
usemtl main
f 652/404/80 653/405/80 654/406/80
f 654/406/80 656/407/80 652/404/80
f 658/404/81 659/407/81 660/406/81
f 660/406/81 662/405/81 658/404/81
f 664/404/82 665/407/82 666/407/82
f 666/407/82 668/404/82 664/404/82
f 670/407/83 671/406/83 672/406/83
f 672/406/83 674/407/83 670/407/83
f 676/406/84 677/405/84 678/405/84
f 678/405/84 680/406/84 676/406/84
f 682/405/85 683/404/85 684/404/85
f 684/404/85 686/405/85 682/405/85
f 688/408/86 689/409/86 690/410/86
f 688/408/86 692/409/86 689/409/86
f 692/409/85 695/411/85 689/409/85
f 692/409/85 698/412/85 695/411/85
f 698/412/87 690/410/87 695/411/87
f 698/412/87 688/408/87 690/410/87
f 706/413/88 707/414/88 708/415/88
f 706/413/89 710/416/89 707/414/89
f 706/413/90 713/417/90 710/416/90
f 706/413/91 715/418/91 713/417/91
f 706/413/92 714/419/92 715/418/92
f 706/413/93 712/420/93 714/419/93
f 706/413/94 711/421/94 712/420/94
f 706/413/95 708/415/95 711/421/95
f 709/422/96 705/423/96 704/424/96
f 709/422/96 703/425/96 705/423/96
f 703/425/97 702/426/97 705/423/97
f 703/425/97 701/427/97 702/426/97
f 701/427/98 700/428/98 702/426/98
f 701/427/99 699/429/99 700/428/99
f 699/429/100 697/430/100 700/428/100
f 699/429/100 696/431/100 697/430/100
f 696/431/101 694/428/101 697/430/101
f 696/431/101 693/429/101 694/428/101
f 693/429/102 691/426/102 694/428/102
f 693/429/102 687/427/102 691/426/102
f 687/427/103 685/423/103 691/426/103
f 687/427/103 681/425/103 685/423/103
f 681/425/104 704/424/104 685/423/104
f 681/425/104 709/422/104 704/424/104
f 679/432/105 675/433/105 673/434/105
f 679/432/106 673/434/106 669/435/106
f 679/432/107 669/435/107 667/436/107
f 679/432/108 667/436/108 663/437/108
f 679/432/109 663/437/109 661/438/109
f 679/432/110 661/438/110 657/439/110
f 679/432/111 657/439/111 655/440/111
f 679/432/112 655/440/112 675/433/112
