# generated by tools/objdedupe/dedupe.py -- do not hand-edit.
# Re-run the tool after touching azd_1svet.obj, azd_2svet.obj, azd_3svet.obj, azd_4svet.obj, azd_5svet.obj, azd_6svet.obj.
o 30_6svet_S_pruhy
v 0.073281 2.825083 0.338108
vt 0.735498 0.323378
vn -0.000000 -0.000000 1.000000
v 0.078463 2.841031 0.338108
vt 0.743424 0.347905
v 0.080216 2.857710 0.338108
vt 0.746105 0.373553
v 0.053675 2.798097 0.338108
vt 0.705512 0.281879
v 0.064896 2.810560 0.338108
vt 0.722674 0.301044
v 0.024788 2.781419 0.338108
vt 0.661332 0.256231
v 0.040108 2.788240 0.338108
vt 0.684762 0.266720
v -0.008385 2.777932 0.338108
vt 0.610596 0.250869
v 0.008385 2.777932 0.338108
vt 0.636244 0.250869
v -0.040108 2.788240 0.338108
vt 0.562078 0.266720
v -0.024788 2.781419 0.338108
vt 0.585509 0.256231
v -0.064896 2.810560 0.338108
vt 0.524167 0.301044
v -0.053675 2.798097 0.338108
vt 0.541328 0.281879
v -0.078463 2.841031 0.338108
vt 0.503417 0.347905
v -0.073281 2.825083 0.338108
vt 0.511343 0.323378
v -0.078463 2.874388 0.338108
vt 0.503417 0.399201
v -0.080216 2.857710 0.338108
vt 0.500736 0.373553
v -0.064896 2.904860 0.338108
vt 0.524167 0.446062
v -0.073281 2.890337 0.338108
vt 0.511343 0.423728
v -0.040108 2.927179 0.338108
vt 0.562078 0.480386
v -0.053675 2.917322 0.338108
vt 0.541328 0.465227
v -0.008385 2.937487 0.338108
vt 0.610596 0.496237
v -0.024788 2.934000 0.338108
vt 0.585509 0.490875
v 0.024788 2.934000 0.338108
vt 0.661332 0.490875
v 0.008385 2.937487 0.338108
vt 0.636244 0.496237
v 0.053675 2.917322 0.338108
vt 0.705512 0.465227
v 0.040108 2.927179 0.338108
vt 0.684762 0.480386
v 0.073281 2.890337 0.338108
vt 0.735498 0.423728
v 0.064896 2.904860 0.338108
vt 0.722674 0.446062
v 0.078463 2.874388 0.338108
vt 0.743424 0.399201
f 1/1/1 2/2/1 3/3/1
f 4/4/1 5/5/1 1/1/1
f 6/6/1 7/7/1 4/4/1
f 6/6/1 4/4/1 1/1/1
f 8/8/1 9/9/1 6/6/1
f 10/10/1 11/11/1 8/8/1
f 10/10/1 8/8/1 6/6/1
f 10/10/1 6/6/1 1/1/1
f 12/12/1 13/13/1 10/10/1
f 14/14/1 15/15/1 12/12/1
f 14/14/1 12/12/1 10/10/1
f 16/16/1 17/17/1 14/14/1
f 18/18/1 19/19/1 16/16/1
f 18/18/1 16/16/1 14/14/1
f 18/18/1 14/14/1 10/10/1
f 20/20/1 21/21/1 18/18/1
f 22/22/1 23/23/1 20/20/1
f 22/22/1 20/20/1 18/18/1
f 24/24/1 25/25/1 22/22/1
f 26/26/1 27/27/1 24/24/1
f 26/26/1 24/24/1 22/22/1
f 26/26/1 22/22/1 18/18/1
f 26/26/1 18/18/1 10/10/1
f 26/26/1 10/10/1 1/1/1
f 28/28/1 29/29/1 26/26/1
f 28/28/1 26/26/1 1/1/1
f 28/28/1 1/1/1 3/3/1
f 28/28/1 3/3/1 30/30/1
