# generated by tools/objdedupe/dedupe.py -- do not hand-edit.
# Re-run the tool after touching azd_1svet.obj, azd_2svet.obj, azd_3svet.obj, azd_4svet.obj, azd_5svet.obj, azd_6svet.obj.
o bila_2svet_S_typ2
v 0.073281 3.048134 0.338097
vt 0.761781 0.824246
vn -0.000000 -0.000000 1.000000
v 0.078463 3.064082 0.338097
vt 0.753855 0.848772
v 0.080216 3.080761 0.338097
vt 0.751174 0.874420
v 0.053675 3.021149 0.338097
vt 0.791767 0.782746
v 0.064896 3.033611 0.338097
vt 0.774605 0.801911
v 0.024788 3.004470 0.338097
vt 0.835947 0.757098
v 0.040108 3.011292 0.338097
vt 0.812517 0.767588
v -0.008385 3.000984 0.338097
vt 0.886683 0.751736
v 0.008385 3.000984 0.338097
vt 0.861035 0.751736
v -0.040108 3.011292 0.338097
vt 0.935201 0.767588
v -0.024788 3.004470 0.338097
vt 0.911770 0.757098
v -0.064896 3.033611 0.338097
vt 0.973112 0.801911
v -0.053675 3.021149 0.338097
vt 0.955950 0.782746
v -0.078463 3.064082 0.338097
vt 0.993862 0.848772
v -0.073281 3.048134 0.338097
vt 0.985936 0.824245
v -0.078463 3.097439 0.338097
vt 0.993862 0.900068
v -0.080216 3.080761 0.338097
vt 0.996543 0.874420
v -0.064896 3.127911 0.338097
vt 0.973112 0.946930
v -0.073281 3.113388 0.338097
vt 0.985936 0.924596
v -0.040108 3.150230 0.338097
vt 0.935201 0.981253
v -0.053675 3.140373 0.338097
vt 0.955950 0.966095
v -0.008385 3.160538 0.338097
vt 0.886683 0.997105
v -0.024788 3.157051 0.338097
vt 0.911770 0.991743
v 0.024788 3.157051 0.338097
vt 0.835947 0.991743
v 0.008385 3.160538 0.338097
vt 0.861035 0.997105
v 0.053675 3.140373 0.338097
vt 0.791767 0.966095
v 0.040108 3.150230 0.338097
vt 0.812517 0.981253
v 0.073281 3.113388 0.338097
vt 0.761781 0.924596
v 0.064896 3.127911 0.338097
vt 0.774605 0.946930
v 0.078463 3.097439 0.338097
vt 0.753855 0.900068
f 1/1/1 2/2/1 3/3/1
f 4/4/1 5/5/1 1/1/1
f 6/6/1 7/7/1 4/4/1
f 6/6/1 4/4/1 1/1/1
f 8/8/1 9/9/1 6/6/1
f 10/10/1 11/11/1 8/8/1
f 10/10/1 8/8/1 6/6/1
f 10/10/1 6/6/1 1/1/1
f 12/12/1 13/13/1 10/10/1
f 14/14/1 15/15/1 12/12/1
f 14/14/1 12/12/1 10/10/1
f 16/16/1 17/17/1 14/14/1
f 18/18/1 19/19/1 16/16/1
f 18/18/1 16/16/1 14/14/1
f 18/18/1 14/14/1 10/10/1
f 20/20/1 21/21/1 18/18/1
f 22/22/1 23/23/1 20/20/1
f 22/22/1 20/20/1 18/18/1
f 24/24/1 25/25/1 22/22/1
f 26/26/1 27/27/1 24/24/1
f 26/26/1 24/24/1 22/22/1
f 26/26/1 22/22/1 18/18/1
f 26/26/1 18/18/1 10/10/1
f 26/26/1 10/10/1 1/1/1
f 28/28/1 29/29/1 26/26/1
f 28/28/1 26/26/1 1/1/1
f 28/28/1 1/1/1 3/3/1
f 28/28/1 3/3/1 30/30/1
