# generated by tools/objdedupe/dedupe.py -- do not hand-edit.
# Re-run the tool after touching azd_1svet.obj, azd_2svet.obj, azd_3svet.obj, azd_4svet.obj, azd_5svet.obj, azd_6svet.obj.
o ind50_5svet_RL
v -0.009270 2.473483 0.154500
vt 0.621000 0.274000
vn -1.000000 -0.000000 -0.000000
v -0.009270 2.473174 -0.055805
vt 0.573000 0.274000
v -0.009270 2.454634 -0.055805
vt 0.573000 0.207000
v -0.009270 2.454943 0.154500
vt 0.621000 0.207000
vn -0.000000 -0.000000 -1.000000
v 0.009270 2.473174 -0.055805
v 0.009270 2.454634 -0.055805
vn 1.000000 -0.000000 -0.000000
v 0.009270 2.473483 0.154500
v 0.009270 2.454943 0.154500
vn -0.000000 1.000000 -0.001500
vn -0.000000 -1.000000 0.001500
v 0.000000 2.472741 0.000000
vt 0.597000 0.274000
vn -0.000000 1.000000 -0.000000
v 0.038007 2.472741 0.031889
vt 0.603000 0.274000
v 0.049564 2.472741 0.000000
vt 0.609000 0.274000
v 0.008590 2.472741 0.048822
vt 0.598000 0.274000
v -0.024782 2.472741 0.042951
vt 0.593000 0.274000
v -0.046597 2.472741 0.016933
vt 0.587000 0.274000
v -0.046597 2.472741 -0.016933
vt 0.582000 0.274000
v -0.024782 2.472741 -0.042951
vt 0.577000 0.274000
v 0.008590 2.472741 -0.048822
vt 0.571000 0.274000
v 0.038007 2.472741 -0.031889
vt 0.614000 0.274000
vt 0.619000 0.274000
v 0.038007 2.454201 0.031889
vt 0.603000 0.207000
vn 0.940200 -0.000000 0.340700
v 0.049564 2.454201 0.000000
vt 0.609000 0.207000
v 0.008590 2.454201 0.048822
vt 0.598000 0.207000
vn 0.498900 -0.000000 0.866700
v -0.024782 2.454201 0.042951
vt 0.593000 0.207000
vn -0.173300 -0.000000 0.984900
v -0.046597 2.454201 0.016933
vt 0.587000 0.207000
vn -0.766300 -0.000000 0.642500
v -0.046597 2.454201 -0.016933
vt 0.582000 0.207000
v -0.024782 2.454201 -0.042951
vt 0.577000 0.207000
vn -0.766300 -0.000000 -0.642500
v 0.008590 2.454201 -0.048822
vt 0.571000 0.207000
vn -0.173300 -0.000000 -0.984900
v 0.038007 2.454201 -0.031889
vt 0.614000 0.207000
vn 0.498900 -0.000000 -0.866700
vt 0.619000 0.207000
vn 0.940200 -0.000000 -0.340700
v 0.000000 2.454201 0.000000
vt 0.597000 0.207000
vn -0.000000 -1.000000 -0.000000
v -0.100734 2.609505 0.154500
vt 0.392000 1.000000
vn -0.000000 -0.000000 1.000000
v 0.100734 2.309713 0.154500
vt 0.696000 0.551000
v 0.100734 2.609628 0.154500
vt 0.696000 1.000000
v -0.100734 2.309589 0.154500
vt 0.392000 0.551000
vt 0.638000 0.546000
vt 0.402000 0.546000
vt 0.402000 0.192000
vt 0.638000 0.192000
f 1/1/1 2/2/1 3/3/1
f 3/3/1 4/4/1 1/1/1
f 2/1/2 5/2/2 6/3/2
f 6/3/2 3/4/2 2/1/2
f 5/1/3 7/2/3 8/3/3
f 8/3/3 6/4/3 5/1/3
f 5/1/4 2/2/4 1/3/4
f 1/3/4 7/4/4 5/1/4
f 6/2/5 8/3/5 4/4/5
f 4/4/5 3/1/5 6/2/5
f 9/5/6 10/6/6 11/7/6
f 9/5/6 12/8/6 10/6/6
f 9/5/6 13/9/6 12/8/6
f 9/5/6 14/10/6 13/9/6
f 9/5/6 15/11/6 14/10/6
f 9/5/6 16/12/6 15/11/6
f 9/5/6 17/13/6 16/12/6
f 9/5/6 18/14/6 17/15/6
f 9/5/6 11/7/6 18/14/6
f 19/16/7 20/17/7 11/7/7
f 19/16/7 11/7/7 10/6/7
f 21/18/8 19/16/8 10/6/8
f 21/18/8 10/6/8 12/8/8
f 22/19/9 21/18/9 12/8/9
f 22/19/9 12/8/9 13/9/9
f 23/20/10 22/19/10 13/9/10
f 23/20/10 13/9/10 14/10/10
f 24/21/1 23/20/1 14/10/1
f 24/21/1 14/10/1 15/11/1
f 25/22/11 24/21/11 15/11/11
f 25/22/11 15/11/11 16/12/11
f 26/23/12 25/22/12 16/12/12
f 26/23/12 16/12/12 17/13/12
f 27/24/13 26/25/13 17/15/13
f 27/24/13 17/15/13 18/14/13
f 20/17/14 27/24/14 18/14/14
f 20/17/14 18/14/14 11/7/14
f 28/26/15 20/17/15 19/16/15
f 28/26/15 19/16/15 21/18/15
f 28/26/15 21/18/15 22/19/15
f 28/26/15 22/19/15 23/20/15
f 28/26/15 23/20/15 24/21/15
f 28/26/15 24/21/15 25/22/15
f 28/26/15 25/22/15 26/23/15
f 28/26/15 26/25/15 27/24/15
f 28/26/15 27/24/15 20/17/15
f 29/27/16 30/28/16 31/29/16
f 29/27/16 32/30/16 30/28/16
f 29/31/2 31/32/2 30/33/2
f 30/33/2 32/34/2 29/31/2
