# generated by tools/objdedupe/dedupe.py -- do not hand-edit.
# Re-run the tool after touching azd_1svet.obj, azd_2svet.obj, azd_3svet.obj, azd_4svet.obj, azd_5svet.obj, azd_6svet.obj.
o ind50_4svet_S
v -0.100734 2.650540 0.241020
vt 0.392000 1.000000
vn -0.000000 -0.000000 1.000000
v 0.100734 2.350748 0.241020
vt 0.696000 0.551000
v 0.100734 2.650602 0.241020
vt 0.696000 1.000000
v -0.100734 2.350624 0.241020
vt 0.392000 0.551000
vt 0.638000 0.546000
vn -0.000000 -0.000000 -1.000000
vt 0.402000 0.546000
vt 0.402000 0.192000
vt 0.638000 0.192000
v -0.009270 2.504383 0.241020
vt 0.486000 0.531000
vn -1.000000 -0.000000 -0.000000
v -0.009270 2.504074 -0.055805
vt 0.419000 0.531000
v -0.009270 2.485534 -0.055805
vt 0.419000 0.464000
v -0.009270 2.485843 0.241020
vt 0.486000 0.464000
v 0.009270 2.504074 -0.055805
v 0.009270 2.485534 -0.055805
vn 1.000000 -0.000000 -0.000000
v 0.009270 2.504383 0.241020
v 0.009270 2.485843 0.241020
vn -0.000000 1.000000 -0.001000
vn -0.000000 -1.000000 0.001000
v -0.000000 2.503641 0.000000
vt 0.452000 0.531000
vn -0.000000 1.000000 -0.000000
v 0.038007 2.503641 0.031889
vt 0.461000 0.531000
v 0.049564 2.503641 0.000000
vt 0.469000 0.531000
v 0.008590 2.503641 0.048822
vt 0.454000 0.531000
v -0.024782 2.503641 0.042951
vt 0.447000 0.531000
v -0.046597 2.503641 0.016934
vt 0.439000 0.531000
v -0.046597 2.503641 -0.016933
vt 0.432000 0.531000
v -0.024782 2.503641 -0.042951
vt 0.424000 0.531000
v 0.008590 2.503641 -0.048822
vt 0.417000 0.531000
v 0.038007 2.503641 -0.031888
vt 0.476000 0.531000
vt 0.484000 0.531000
v 0.038007 2.485101 0.031889
vt 0.461000 0.464000
vn 0.940200 -0.000000 0.340700
v 0.049564 2.485101 0.000000
vt 0.469000 0.464000
v 0.008590 2.485101 0.048822
vt 0.454000 0.464000
vn 0.498900 -0.000000 0.866700
v -0.024782 2.485101 0.042951
vt 0.447000 0.464000
vn -0.173300 -0.000000 0.984900
v -0.046597 2.485101 0.016934
vt 0.439000 0.464000
vn -0.766300 -0.000000 0.642500
v -0.046597 2.485101 -0.016933
vt 0.432000 0.464000
v -0.024782 2.485101 -0.042951
vt 0.424000 0.464000
vn -0.766300 -0.000000 -0.642500
v 0.008590 2.485101 -0.048822
vt 0.417000 0.464000
vn -0.173300 -0.000000 -0.984900
v 0.038007 2.485101 -0.031888
vt 0.476000 0.464000
vn 0.498900 -0.000000 -0.866700
vt 0.484000 0.464000
vn 0.940200 -0.000000 -0.340700
v -0.000000 2.485101 0.000000
vt 0.452000 0.464000
vn -0.000000 -1.000000 -0.000000
f 1/1/1 2/2/1 3/3/1
f 1/1/1 4/4/1 2/2/1
f 1/5/2 3/6/2 2/7/2
f 2/7/2 4/8/2 1/5/2
f 5/9/3 6/10/3 7/11/3
f 7/11/3 8/12/3 5/9/3
f 6/9/2 9/10/2 10/11/2
f 10/11/2 7/12/2 6/9/2
f 9/9/4 11/10/4 12/11/4
f 12/11/4 10/12/4 9/9/4
f 9/9/5 6/10/5 5/11/5
f 5/11/5 11/12/5 9/9/5
f 10/10/6 12/11/6 8/12/6
f 8/12/6 7/9/6 10/10/6
f 13/13/7 14/14/7 15/15/7
f 13/13/7 16/16/7 14/14/7
f 13/13/7 17/17/7 16/16/7
f 13/13/7 18/18/7 17/17/7
f 13/13/7 19/19/7 18/18/7
f 13/13/7 20/20/7 19/19/7
f 13/13/7 21/21/7 20/20/7
f 13/13/7 22/22/7 21/23/7
f 13/13/7 15/15/7 22/22/7
f 23/24/8 24/25/8 15/15/8
f 23/24/8 15/15/8 14/14/8
f 25/26/9 23/24/9 14/14/9
f 25/26/9 14/14/9 16/16/9
f 26/27/10 25/26/10 16/16/10
f 26/27/10 16/16/10 17/17/10
f 27/28/11 26/27/11 17/17/11
f 27/28/11 17/17/11 18/18/11
f 28/29/3 27/28/3 18/18/3
f 28/29/3 18/18/3 19/19/3
f 29/30/12 28/29/12 19/19/12
f 29/30/12 19/19/12 20/20/12
f 30/31/13 29/30/13 20/20/13
f 30/31/13 20/20/13 21/21/13
f 31/32/14 30/33/14 21/23/14
f 31/32/14 21/23/14 22/22/14
f 24/25/15 31/32/15 22/22/15
f 24/25/15 22/22/15 15/15/15
f 32/34/16 24/25/16 23/24/16
f 32/34/16 23/24/16 25/26/16
f 32/34/16 25/26/16 26/27/16
f 32/34/16 26/27/16 27/28/16
f 32/34/16 27/28/16 28/29/16
f 32/34/16 28/29/16 29/30/16
f 32/34/16 29/30/16 30/31/16
f 32/34/16 30/33/16 31/32/16
f 32/34/16 31/32/16 24/25/16
