# generated by tools/objdedupe/dedupe.py -- do not hand-edit.
# Re-run the tool after touching azd_1svet.obj, azd_2svet.obj, azd_3svet.obj, azd_4svet.obj, azd_5svet.obj, azd_6svet.obj.
o odjezd_2svet
v -0.037698 2.571498 0.139050
vt 0.639000 0.885000
vn -1.000000 -0.000000 -0.000000
v -0.037698 2.571498 0.128544
v -0.037698 1.115490 0.128544
vt 0.639000 0.218000
v -0.037698 1.115490 0.139050
v 0.037698 2.571498 0.128544
vt 0.678000 0.885000
vn 1.000000 -0.000000 -0.000000
v 0.037698 2.571498 0.139050
v 0.037698 1.115490 0.139050
vt 0.678000 0.218000
v 0.037698 1.115490 0.128544
vn -0.000000 -0.000000 1.000000
f 1/1/1 2/1/1 3/2/1
f 3/2/1 4/2/1 1/1/1
f 5/3/2 6/3/2 7/4/2
f 7/4/2 8/4/2 5/3/2
f 1/1/3 4/2/3 6/3/3
f 4/2/3 7/4/3 6/3/3
