# generated by tools/objdedupe/dedupe.py -- do not hand-edit.
# Re-run the tool after touching azd_1svet.obj, azd_2svet.obj, azd_3svet.obj, azd_4svet.obj, azd_5svet.obj, azd_6svet.obj.
o odjezd_3svet_L
v -0.160186 3.042105 0.046721
vt 0.818000 0.327000
vn 0.001600 -0.000000 1.000000
v -0.424381 3.042105 0.047154
vt 0.818000 0.229000
v -0.424381 2.934326 0.047154
vt 0.870000 0.229000
v -0.160186 2.934326 0.046721
vt 0.870000 0.327000
v -0.037698 2.367558 0.139050
vt 0.639000 0.771000
vn -1.000000 -0.000000 -0.000000
v -0.037698 2.367558 0.128544
v -0.037698 1.115490 0.128544
vt 0.639000 0.218000
v -0.037698 1.115490 0.139050
v 0.037698 2.367558 0.128544
vt 0.678000 0.771000
vn 1.000000 -0.000000 -0.000000
v 0.037698 2.367558 0.139050
v 0.037698 1.115490 0.139050
vt 0.678000 0.218000
v 0.037698 1.115490 0.128544
vn -0.000000 -0.000000 1.000000
f 1/1/1 2/2/1 3/3/1
f 3/3/1 4/4/1 1/1/1
f 5/5/2 6/5/2 7/6/2
f 7/6/2 8/6/2 5/5/2
f 9/7/3 10/7/3 11/8/3
f 11/8/3 12/8/3 9/7/3
f 10/7/4 5/5/4 8/6/4
f 8/6/4 11/8/4 10/7/4
