# generated by tools/objdedupe/dedupe.py -- do not hand-edit.
# Re-run the tool after touching azd_1svet.obj, azd_2svet.obj, azd_3svet.obj, azd_4svet.obj, azd_5svet.obj, azd_6svet.obj.
o pruh_spodni_4svet_S_typ2_pruhy
v 0.142214 3.021898 0.333771
vt 0.012005 0.824246
vn -0.000100 -0.000000 1.000000
v 0.144098 3.027697 0.333771
vt 0.004079 0.848772
v 0.144736 3.033762 0.333771
vt 0.001398 0.874420
v 0.135084 3.012084 0.333771
vt 0.041991 0.782746
vn -0.000000 -0.000000 1.000000
v 0.139165 3.016616 0.333771
vt 0.024829 0.801911
v 0.124580 3.006020 0.333771
vt 0.086171 0.757098
v 0.130151 3.008500 0.333771
vt 0.062741 0.767588
v 0.112517 3.004752 0.333771
vt 0.136907 0.751736
v 0.118615 3.004752 0.333771
vt 0.111259 0.751736
v 0.100981 3.008500 0.333771
vt 0.185425 0.767588
v 0.106552 3.006020 0.333771
vt 0.161994 0.757098
v 0.091967 3.016616 0.333771
vt 0.223337 0.801911
v 0.096048 3.012084 0.333771
vt 0.206175 0.782746
v 0.087034 3.027697 0.333771
vt 0.244086 0.848772
v 0.088918 3.021898 0.333771
vt 0.236161 0.824245
v 0.087034 3.039827 0.333771
vt 0.244086 0.900068
v 0.086396 3.033762 0.333771
vt 0.246767 0.874420
v 0.091967 3.050907 0.333771
vt 0.223337 0.946930
v 0.088918 3.045626 0.333771
vt 0.236161 0.924596
v 0.100981 3.059023 0.333771
vt 0.185425 0.981253
v 0.096048 3.055439 0.333771
vt 0.206175 0.966095
v 0.112517 3.062772 0.333771
vt 0.136907 0.997105
v 0.106552 3.061504 0.333771
vt 0.161994 0.991743
v 0.124580 3.061504 0.333771
vt 0.086171 0.991743
v 0.118615 3.062772 0.333771
vt 0.111259 0.997105
v 0.135084 3.055439 0.333771
vt 0.041991 0.966095
v 0.130151 3.059023 0.333771
vt 0.062741 0.981253
v 0.142214 3.045626 0.333771
vt 0.012005 0.924596
v 0.139165 3.050907 0.333771
vt 0.024829 0.946930
v 0.144098 3.039827 0.333771
vt 0.004079 0.900068
v -0.087064 3.021898 0.333771
v -0.085180 3.027697 0.333771
v -0.084542 3.033762 0.333771
v -0.094194 3.012085 0.333771
v -0.090113 3.016617 0.333771
v -0.104698 3.006020 0.333771
v -0.099127 3.008501 0.333771
v -0.116761 3.004752 0.333771
v -0.110663 3.004752 0.333771
v -0.128297 3.008501 0.333771
v -0.122726 3.006020 0.333771
v -0.137311 3.016617 0.333771
v -0.133230 3.012085 0.333771
v -0.142244 3.027697 0.333771
v -0.140360 3.021898 0.333771
v -0.142244 3.039827 0.333771
v -0.142882 3.033762 0.333771
v -0.137311 3.050908 0.333771
v -0.140360 3.045626 0.333771
v -0.128297 3.059024 0.333771
v -0.133230 3.055439 0.333771
v -0.116761 3.062772 0.333771
v -0.122726 3.061504 0.333771
v -0.104698 3.061504 0.333771
v -0.110663 3.062772 0.333771
v -0.094194 3.055439 0.333771
v -0.099127 3.059024 0.333771
v -0.087064 3.045626 0.333771
v -0.090113 3.050908 0.333771
v -0.085180 3.039827 0.333771
v -0.008578 3.021898 0.333771
v -0.006694 3.027697 0.333771
v -0.006056 3.033762 0.333771
v -0.015708 3.012085 0.333771
v -0.011627 3.016617 0.333771
v -0.026212 3.006020 0.333771
v -0.020641 3.008501 0.333771
v -0.038275 3.004752 0.333771
v -0.032177 3.004752 0.333771
v -0.049811 3.008501 0.333771
v -0.044240 3.006020 0.333771
v -0.058825 3.016617 0.333771
v -0.054744 3.012085 0.333771
v -0.063758 3.027697 0.333771
v -0.061874 3.021898 0.333771
v -0.063758 3.039827 0.333771
v -0.064396 3.033762 0.333771
v -0.058825 3.050908 0.333771
v -0.061874 3.045626 0.333771
v -0.049811 3.059024 0.333771
v -0.054744 3.055439 0.333771
v -0.038275 3.062772 0.333771
v -0.044240 3.061504 0.333771
v -0.026212 3.061504 0.333771
v -0.032177 3.062772 0.333771
v -0.015708 3.055439 0.333771
v -0.020641 3.059024 0.333771
v -0.008578 3.045626 0.333771
v -0.011627 3.050908 0.333771
v -0.006694 3.039827 0.333771
v 0.065582 3.021898 0.333771
v 0.067466 3.027697 0.333771
v 0.068104 3.033762 0.333771
v 0.058452 3.012085 0.333771
v 0.062533 3.016617 0.333771
v 0.047948 3.006020 0.333771
v 0.053519 3.008501 0.333771
v 0.035885 3.004752 0.333771
v 0.041983 3.004752 0.333771
v 0.024349 3.008501 0.333771
v 0.029920 3.006020 0.333771
v 0.015335 3.016617 0.333771
v 0.019416 3.012085 0.333771
v 0.010402 3.027697 0.333771
v 0.012286 3.021898 0.333771
v 0.010402 3.039827 0.333771
v 0.009764 3.033762 0.333771
v 0.015335 3.050908 0.333771
v 0.012286 3.045626 0.333771
v 0.024349 3.059024 0.333771
v 0.019416 3.055439 0.333771
v 0.035885 3.062772 0.333771
v 0.029920 3.061504 0.333771
v 0.047948 3.061504 0.333771
v 0.041983 3.062772 0.333771
v 0.058452 3.055439 0.333771
v 0.053519 3.059024 0.333771
v 0.065582 3.045626 0.333771
v 0.062533 3.050908 0.333771
v 0.067466 3.039827 0.333771
f 1/1/1 2/2/1 3/3/1
f 4/4/2 5/5/2 1/1/2
f 6/6/2 7/7/2 4/4/2
f 6/6/2 4/4/2 1/1/2
f 8/8/2 9/9/2 6/6/2
f 10/10/2 11/11/2 8/8/2
f 10/10/2 8/8/2 6/6/2
f 10/10/2 6/6/2 1/1/2
f 12/12/2 13/13/2 10/10/2
f 14/14/2 15/15/2 12/12/2
f 14/14/2 12/12/2 10/10/2
f 16/16/2 17/17/2 14/14/2
f 18/18/2 19/19/2 16/16/2
f 18/18/2 16/16/2 14/14/2
f 18/18/2 14/14/2 10/10/2
f 20/20/2 21/21/2 18/18/2
f 22/22/2 23/23/2 20/20/2
f 22/22/2 20/20/2 18/18/2
f 24/24/2 25/25/2 22/22/2
f 26/26/2 27/27/2 24/24/2
f 26/26/2 24/24/2 22/22/2
f 26/26/2 22/22/2 18/18/2
f 26/26/2 18/18/2 10/10/2
f 26/26/2 10/10/2 1/1/2
f 28/28/2 29/29/2 26/26/2
f 28/28/2 26/26/2 1/1/2
f 28/28/2 1/1/2 3/3/2
f 28/28/1 3/3/1 30/30/1
f 31/1/1 32/2/1 33/3/1
f 34/4/2 35/5/2 31/1/2
f 36/6/2 37/7/2 34/4/2
f 36/6/2 34/4/2 31/1/2
f 38/8/2 39/9/2 36/6/2
f 40/10/2 41/11/2 38/8/2
f 40/10/2 38/8/2 36/6/2
f 40/10/2 36/6/2 31/1/2
f 42/12/2 43/13/2 40/10/2
f 44/14/2 45/15/2 42/12/2
f 44/14/2 42/12/2 40/10/2
f 46/16/2 47/17/2 44/14/2
f 48/18/2 49/19/2 46/16/2
f 48/18/2 46/16/2 44/14/2
f 48/18/2 44/14/2 40/10/2
f 50/20/2 51/21/2 48/18/2
f 52/22/2 53/23/2 50/20/2
f 52/22/2 50/20/2 48/18/2
f 54/24/2 55/25/2 52/22/2
f 56/26/2 57/27/2 54/24/2
f 56/26/2 54/24/2 52/22/2
f 56/26/2 52/22/2 48/18/2
f 56/26/2 48/18/2 40/10/2
f 56/26/2 40/10/2 31/1/2
f 58/28/2 59/29/2 56/26/2
f 58/28/2 56/26/2 31/1/2
f 58/28/2 31/1/2 33/3/2
f 58/28/1 33/3/1 60/30/1
f 61/1/1 62/2/1 63/3/1
f 64/4/2 65/5/2 61/1/2
f 66/6/2 67/7/2 64/4/2
f 66/6/2 64/4/2 61/1/2
f 68/8/2 69/9/2 66/6/2
f 70/10/2 71/11/2 68/8/2
f 70/10/2 68/8/2 66/6/2
f 70/10/2 66/6/2 61/1/2
f 72/12/2 73/13/2 70/10/2
f 74/14/2 75/15/2 72/12/2
f 74/14/2 72/12/2 70/10/2
f 76/16/2 77/17/2 74/14/2
f 78/18/2 79/19/2 76/16/2
f 78/18/2 76/16/2 74/14/2
f 78/18/2 74/14/2 70/10/2
f 80/20/2 81/21/2 78/18/2
f 82/22/2 83/23/2 80/20/2
f 82/22/2 80/20/2 78/18/2
f 84/24/2 85/25/2 82/22/2
f 86/26/2 87/27/2 84/24/2
f 86/26/2 84/24/2 82/22/2
f 86/26/2 82/22/2 78/18/2
f 86/26/2 78/18/2 70/10/2
f 86/26/2 70/10/2 61/1/2
f 88/28/2 89/29/2 86/26/2
f 88/28/2 86/26/2 61/1/2
f 88/28/2 61/1/2 63/3/2
f 88/28/1 63/3/1 90/30/1
f 91/1/1 92/2/1 93/3/1
f 94/4/2 95/5/2 91/1/2
f 96/6/2 97/7/2 94/4/2
f 96/6/2 94/4/2 91/1/2
f 98/8/2 99/9/2 96/6/2
f 100/10/2 101/11/2 98/8/2
f 100/10/2 98/8/2 96/6/2
f 100/10/2 96/6/2 91/1/2
f 102/12/2 103/13/2 100/10/2
f 104/14/2 105/15/2 102/12/2
f 104/14/2 102/12/2 100/10/2
f 106/16/2 107/17/2 104/14/2
f 108/18/2 109/19/2 106/16/2
f 108/18/2 106/16/2 104/14/2
f 108/18/2 104/14/2 100/10/2
f 110/20/2 111/21/2 108/18/2
f 112/22/2 113/23/2 110/20/2
f 112/22/2 110/20/2 108/18/2
f 114/24/2 115/25/2 112/22/2
f 116/26/2 117/27/2 114/24/2
f 116/26/2 114/24/2 112/22/2
f 116/26/2 112/22/2 108/18/2
f 116/26/2 108/18/2 100/10/2
f 116/26/2 100/10/2 91/1/2
f 118/28/2 119/29/2 116/26/2
f 118/28/2 116/26/2 91/1/2
f 118/28/2 91/1/2 93/3/2
f 118/28/1 93/3/1 120/30/1
