# generated by tools/objdedupe/dedupe.py -- do not hand-edit.
# Re-run the tool after touching azd_1svet.obj, azd_2svet.obj, azd_3svet.obj, azd_4svet.obj, azd_5svet.obj, azd_6svet.obj.
o skupinove_2svet_R
v 0.265122 2.907999 0.037698
vt 0.926000 0.426000
vn -0.000000 -0.000000 -1.000000
v 0.319506 2.907999 0.037698
vt 0.873000 0.426000
v 0.319506 2.687373 0.037698
vt 0.873000 0.373000
v 0.265122 2.687373 0.037698
vt 0.926000 0.373000
v 0.199614 2.834457 0.042642
vt 0.946000 0.550000
v 0.385014 2.834457 0.042642
vt 0.986000 0.550000
v 0.385014 2.649057 0.042642
vt 0.986000 0.507000
v 0.199614 2.649057 0.042642
vt 0.946000 0.507000
vt 0.593000 0.289000
vn -0.000000 -0.000000 1.000000
vt 0.510000 0.289000
vt 0.510000 0.208000
vt 0.593000 0.208000
f 1/1/1 2/2/1 3/3/1
f 3/3/1 4/4/1 1/1/1
f 5/5/1 6/6/1 7/7/1
f 7/7/1 8/8/1 5/5/1
f 6/9/2 5/10/2 8/11/2
f 8/11/2 7/12/2 6/9/2
