# generated by tools/objdedupe/dedupe.py -- do not hand-edit.
# Re-run the tool after touching azd_1svet.obj, azd_2svet.obj, azd_3svet.obj, azd_4svet.obj, azd_5svet.obj, azd_6svet.obj.
o stit_6svet_S_pruhy
v 0.034979 2.942298 0.331310
vt 0.411000 0.078000
vn -0.195800 -0.980600 -0.000000
v 0.034979 2.942298 0.643956
vt 0.247000 0.078000
v -0.000000 2.949282 0.643956
vt 0.247000 0.081000
v -0.000000 2.949282 0.331310
vt 0.411000 0.081000
vn 0.195800 0.980600 -0.000000
v 0.064705 2.922460 0.331310
vt 0.411000 0.070000
vn -0.555100 -0.831800 -0.000000
v 0.064705 2.922460 0.643956
vt 0.247000 0.070000
vn 0.555100 0.831800 -0.000000
v 0.084542 2.892735 0.331310
vt 0.411000 0.058000
vn -0.831800 -0.555100 -0.000000
v 0.084542 2.892735 0.643956
vt 0.247000 0.058000
vn 0.831800 0.555100 -0.000000
v 0.091464 2.857756 0.331310
vt 0.411000 0.044000
vn -0.981000 -0.194100 -0.000000
v 0.091464 2.857756 0.643956
vt 0.247000 0.044000
vn 0.981000 0.194100 -0.000000
v 0.084542 2.822406 0.331310
vt 0.411000 0.030000
vn -0.981400 0.192200 -0.000000
v 0.084542 2.822406 0.394223
vt 0.372000 0.030000
vn 0.981400 -0.192200 -0.000000
v 0.064705 2.793051 0.331310
vt 0.411000 0.018000
vn -0.830000 0.557800 0.001400
v 0.064705 2.792928 0.379638
vt 0.381000 0.018000
vn -0.828500 0.559900 -0.000000
vn 0.828500 -0.559900 -0.001400
vn 0.829600 -0.558300 -0.000000
v 0.034979 2.773213 0.331310
vt 0.411000 0.010000
vn -0.558700 0.829400 0.005300
v 0.034979 2.772966 0.369873
vt 0.387000 0.010000
vn -0.555100 0.831800 0.002100
vn 0.555100 -0.831800 -0.005300
vn 0.558000 -0.829900 -0.002100
v -0.000000 2.766230 0.331310
vt 0.411000 0.007000
vn -0.190900 0.981600 0.001700
v -0.000000 2.766168 0.366413
vt 0.391000 0.007000
vn -0.195800 0.980600 0.006300
vn 0.195800 -0.980600 -0.001700
vn 0.191400 -0.981500 -0.006300
v -0.034979 2.773213 0.331310
vn 0.191400 0.981500 0.006300
v -0.034979 2.772966 0.369873
vn 0.195800 0.980600 0.001700
vn -0.195800 -0.980600 -0.006300
vn -0.190900 -0.981600 -0.001700
v -0.064705 2.793051 0.331310
vn 0.558000 0.829900 0.002100
v -0.064705 2.792928 0.379638
vn 0.555100 0.831800 0.005300
vn -0.555100 -0.831800 -0.002100
vn -0.558700 -0.829400 -0.005300
v -0.084542 2.822406 0.331310
vn 0.829600 0.558300 -0.000000
v -0.084542 2.822406 0.394223
vn 0.828500 0.559900 0.001400
vn -0.828500 -0.559900 -0.000000
vn -0.830000 -0.557800 -0.001400
v -0.091464 2.857756 0.331310
vn 0.981400 0.192200 -0.000000
v -0.091464 2.857756 0.643956
vn -0.981400 -0.192200 -0.000000
v -0.084542 2.892735 0.331310
vn 0.981000 -0.194100 -0.000000
v -0.084542 2.892735 0.643956
vn -0.981000 0.194100 -0.000000
v -0.064705 2.922460 0.331310
vn 0.831800 -0.555100 -0.000000
v -0.064705 2.922460 0.643956
vn -0.831800 0.555100 -0.000000
v -0.034979 2.942298 0.331310
vn 0.555100 -0.831800 -0.000000
v -0.034979 2.942298 0.643956
vn -0.555100 0.831800 -0.000000
vn 0.195800 -0.980600 -0.000000
vn -0.195800 0.980600 -0.000000
v 0.159629 2.756651 0.332484
vt 0.402000 0.258000
vn -0.000000 -0.000000 1.000000
v -0.159629 2.756651 0.332484
vt 0.230000 0.258000
v -0.159629 2.584847 0.332484
vt 0.230000 0.173000
v 0.159629 2.584847 0.332484
vt 0.402000 0.173000
v -0.172422 2.751583 0.331310
vt 0.524000 0.514000
vn -1.000000 -0.000000 -0.000000
v -0.172422 2.751583 0.266358
vt 0.485000 0.514000
v -0.172422 2.580768 0.266358
vt 0.485000 0.487000
v -0.172422 2.580768 0.331310
vt 0.524000 0.487000
vt 0.590000 0.522000
vn -0.000000 -0.000000 -1.000000
v 0.172422 2.751583 0.266358
vt 0.418000 0.522000
v 0.172422 2.580768 0.266358
vt 0.419000 0.418000
vt 0.590000 0.418000
vn 1.000000 -0.000000 -0.000000
v 0.172422 2.751583 0.331310
v 0.172422 2.580768 0.331310
vt 0.590000 0.515000
vn -0.000000 1.000000 -0.000000
vt 0.419000 0.515000
vt 0.419000 0.496000
vt 0.590000 0.496000
vn -0.000000 -1.000000 -0.000000
v 0.094307 2.756898 0.331310
vn -0.073800 -0.997300 -0.000000
v 0.094307 2.756898 0.569178
v -0.000000 2.763882 0.569178
v -0.000000 2.763882 0.331310
vn 0.073800 0.997300 -0.000000
v 0.151039 2.745280 0.331310
vn -0.386300 -0.921200 -0.047100
v 0.151039 2.733105 0.569178
vn -0.200600 -0.979700 -0.000000
vn 0.200400 0.978400 0.050100
vn 0.386800 0.922200 -0.000000
v 0.168158 2.713577 0.331310
vn -0.879700 -0.475000 -0.024300
v 0.168158 2.701402 0.569178
vn 0.879700 0.475000 0.024300
v 0.175203 2.672356 0.331310
vn -0.971800 -0.235700 -0.000000
v 0.175203 2.672356 0.569178
vn -0.985700 -0.168500 -0.008600
vn 0.985700 0.168500 -0.000000
vn 0.971800 0.235700 0.012100
v 0.169208 2.637006 0.331310
vn -0.985900 0.167200 -0.000000
v 0.169208 2.637006 0.394223
vn 0.985900 -0.167200 -0.000000
v 0.167478 2.607651 0.331310
vn -0.998300 0.058500 0.000100
v 0.167478 2.607528 0.379638
vn -0.998300 0.058800 -0.000000
vn 0.998300 -0.058800 -0.000200
vn 0.998300 -0.058600 -0.000000
v 0.149556 2.580892 0.331310
vn -0.831900 0.554900 0.002700
v 0.149556 2.580706 0.369873
vn -0.830900 0.556500 0.001400
vn 0.830900 -0.556500 -0.002700
vn 0.831700 -0.555200 -0.001400
v -0.000000 2.580830 0.331310
vn 0.000400 1.000000 0.001800
v -0.000000 2.580768 0.366413
vn -0.000400 1.000000 0.004800
vn 0.000400 -1.000000 -0.001800
vn -0.000300 -1.000000 -0.004800
v -0.149556 2.580892 0.331310
vn -0.000300 1.000000 0.004800
v -0.149556 2.580706 0.369873
vn -0.000400 -1.000000 -0.004800
v -0.167725 2.607651 0.331310
vn 0.828200 0.560500 0.001400
v -0.167725 2.607528 0.379638
vn 0.827300 0.561700 0.002700
vn -0.827300 -0.561700 -0.001400
vn -0.828400 -0.560200 -0.002700
v -0.169208 2.637006 0.331310
vn 0.998700 0.050300 -0.000000
v -0.169208 2.637006 0.394223
vn 0.998700 0.050500 0.000100
vn -0.998700 -0.050500 -0.000000
vn -0.998700 -0.050200 -0.000100
v -0.175203 2.672356 0.331310
vn 0.985900 0.167200 -0.000000
v -0.175203 2.672356 0.569178
vn -0.985900 -0.167200 -0.000000
v -0.168158 2.713577 0.331310
vn 0.971800 -0.235700 -0.012100
v -0.168158 2.701402 0.569178
vn 0.985700 -0.168500 -0.000000
vn -0.985700 0.168500 0.008600
vn -0.971800 0.235700 -0.000000
v -0.151039 2.745280 0.331310
vn 0.879700 -0.475000 -0.024300
v -0.151039 2.733105 0.569178
vn -0.879700 0.475000 0.024300
v -0.094307 2.756898 0.331310
vn 0.386800 -0.922200 -0.000000
v -0.094307 2.756898 0.569178
vn 0.200400 -0.978400 -0.050100
vn -0.200600 0.979700 -0.000000
vn -0.386300 0.921200 0.047100
vn 0.073800 -0.997300 -0.000000
vn -0.073800 0.997300 -0.000000
v 0.184288 2.764932 0.331248
vt 0.412000 0.438000
vn 0.000200 -0.000000 1.000000
v -0.184288 2.764932 0.331310
vt 0.220000 0.438000
v -0.184288 2.470208 0.331310
vt 0.220000 0.279000
v 0.184288 2.470208 0.331248
vt 0.412000 0.279000
vn 0.000200 0.000400 1.000000
v -0.095110 2.427813 0.331310
vt 0.263000 0.267000
vn 0.000300 -0.000700 1.000000
v 0.095110 2.427813 0.331248
vt 0.367000 0.267000
vt 0.212000 0.435000
vn -0.000200 -0.000000 -1.000000
vt 0.003000 0.435000
vt 0.003000 0.279000
vt 0.212000 0.279000
vn -0.000200 0.000400 -1.000000
vt 0.052000 0.267000
vn -0.000300 -0.000700 -1.000000
vt 0.166000 0.267000
v 0.092700 2.764932 0.210924
vt 0.470000 0.522000
v 0.092700 2.765056 0.331248
v 0.092700 2.579718 0.331248
vt 0.418000 0.440000
v 0.092700 2.579718 0.210924
vt 0.470000 0.440000
v -0.092700 2.765056 0.331310
v -0.092700 2.765056 0.210862
vt 0.532000 0.522000
v -0.092700 2.579718 0.210924
vt 0.532000 0.440000
v -0.092700 2.579718 0.331310
vt 0.590000 0.440000
vn 0.000300 -0.000000 -1.000000
vn -0.000000 -0.000300 -1.000000
vt 0.533000 0.393000
vt 0.471000 0.393000
v 0.034979 3.127698 0.331310
v 0.034979 3.127698 0.643956
v -0.000000 3.134681 0.643956
v -0.000000 3.134681 0.331310
v 0.064705 3.107860 0.331310
v 0.064705 3.107860 0.643956
v 0.084542 3.078135 0.331310
v 0.084542 3.078135 0.643956
v 0.091464 3.043156 0.331310
v 0.091464 3.043156 0.643956
v 0.084542 3.007806 0.331310
v 0.084542 3.007806 0.394223
v 0.064705 2.978451 0.331310
v 0.064705 2.978328 0.379638
v 0.034979 2.958613 0.331310
v 0.034979 2.958366 0.369873
v -0.000000 2.951630 0.331310
v -0.000000 2.951568 0.366413
v -0.034979 2.958613 0.331310
v -0.034979 2.958366 0.369873
v -0.064705 2.978451 0.331310
v -0.064705 2.978328 0.379638
v -0.084542 3.007806 0.331310
v -0.084542 3.007806 0.394223
v -0.091464 3.043156 0.331310
v -0.091464 3.043156 0.643956
v -0.084542 3.078135 0.331310
v -0.084542 3.078135 0.643956
v -0.064705 3.107860 0.331310
v -0.064705 3.107860 0.643956
v -0.034979 3.127698 0.331310
v -0.034979 3.127698 0.643956
v 0.034979 3.313098 0.331310
v 0.034979 3.313098 0.643956
v -0.000000 3.320082 0.643956
v -0.000000 3.320082 0.331310
v 0.064705 3.293260 0.331310
v 0.064705 3.293260 0.643956
v 0.084542 3.263596 0.331310
vn -0.831200 -0.555900 -0.000000
v 0.084542 3.263596 0.643956
vn -0.831300 -0.555900 -0.000000
vn 0.831200 0.555900 -0.000000
vn 0.831300 0.555900 -0.000000
v 0.091464 3.228556 0.331310
vn -0.981000 -0.193800 -0.000000
v 0.091464 3.228556 0.643956
vn 0.981000 0.193800 -0.000000
v 0.084542 3.193268 0.331310
vn -0.981300 0.192500 -0.000000
v 0.084542 3.193268 0.394223
vn 0.981300 -0.192500 -0.000000
v 0.064705 3.163851 0.331310
vn -0.830500 0.557000 0.001400
v 0.064705 3.163728 0.379638
vn -0.829100 0.559100 -0.000000
vn 0.829100 -0.559100 -0.001400
vn 0.830200 -0.557500 -0.000000
v 0.034979 3.144013 0.331310
v 0.034979 3.143766 0.369873
v -0.000000 3.137030 0.331310
v -0.000000 3.136968 0.366413
vn 0.195800 -0.980700 -0.001700
v -0.034979 3.144013 0.331310
v -0.034979 3.143766 0.369873
vn 0.195800 0.980700 0.001700
v -0.064705 3.163851 0.331310
v -0.064705 3.163728 0.379638
v -0.084542 3.193268 0.331310
vn 0.830200 0.557500 -0.000000
v -0.084542 3.193268 0.394223
vn 0.829100 0.559100 0.001400
vn -0.829100 -0.559100 -0.000000
vn -0.830500 -0.557000 -0.001400
v -0.091464 3.228556 0.331310
vn 0.981300 0.192500 -0.000000
v -0.091464 3.228556 0.643956
vn -0.981300 -0.192500 -0.000000
v -0.084542 3.263596 0.331310
vn 0.981000 -0.193800 -0.000000
v -0.084542 3.263596 0.643956
vn -0.981000 0.193800 -0.000000
v -0.064705 3.293260 0.331310
vn 0.831300 -0.555900 -0.000000
v -0.064705 3.293260 0.643956
vn 0.831200 -0.555900 -0.000000
vn -0.831300 0.555900 -0.000000
vn -0.831200 0.555900 -0.000000
v -0.034979 3.313098 0.331310
v -0.034979 3.313098 0.643956
v 0.034979 3.498498 0.331310
v 0.034979 3.498498 0.643957
v -0.000000 3.505481 0.643957
v -0.000000 3.505481 0.331310
v 0.064705 3.478660 0.331310
v 0.064705 3.478660 0.643957
v 0.084542 3.448997 0.331310
v 0.084542 3.448997 0.643957
v 0.091464 3.413956 0.331310
v 0.091464 3.413956 0.643957
v 0.084542 3.378606 0.331310
v 0.084542 3.378606 0.394223
v 0.064705 3.349251 0.331310
v 0.064705 3.349128 0.379638
v 0.034979 3.329413 0.331310
v 0.034979 3.329166 0.369874
v -0.000000 3.322430 0.331310
vn -0.191000 0.981600 0.001700
v -0.000000 3.322368 0.366413
v -0.034979 3.329413 0.331310
v -0.034979 3.329166 0.369874
vn -0.191000 -0.981600 -0.001700
v -0.064705 3.349251 0.331310
v -0.064705 3.349128 0.379638
v -0.084542 3.378606 0.331310
v -0.084542 3.378606 0.394223
v -0.091464 3.413956 0.331310
v -0.091464 3.413956 0.643957
v -0.084542 3.448997 0.331310
v -0.084542 3.448997 0.643957
v -0.064705 3.478660 0.331310
v -0.064705 3.478660 0.643957
v -0.034979 3.498498 0.331310
v -0.034979 3.498498 0.643957
v 0.034979 3.683898 0.331310
v 0.034979 3.683898 0.643957
v -0.000000 3.690881 0.643957
v -0.000000 3.690881 0.331310
v 0.064705 3.664060 0.331310
v 0.064705 3.664060 0.643957
v 0.084542 3.634396 0.331310
v 0.084542 3.634396 0.643957
v 0.091464 3.599356 0.331310
v 0.091464 3.599356 0.643957
v 0.084542 3.564068 0.331310
vn -0.981600 0.190900 0.000200
v 0.084542 3.564006 0.394223
vn 0.981300 -0.192500 -0.000200
v 0.064705 3.534651 0.331310
v 0.064705 3.534528 0.379638
vn -0.829100 0.559100 0.000500
vn 0.829800 -0.558100 -0.000500
v 0.034979 3.514813 0.331310
vn -0.557200 0.830400 0.004000
v 0.034979 3.514628 0.369874
vn 0.555100 -0.831800 -0.004000
vn 0.556800 -0.830700 -0.002100
v -0.000000 3.507830 0.331310
vn -0.190800 0.981600 -0.000000
v -0.000000 3.507830 0.366413
vn -0.195800 0.980600 0.004700
vn 0.195800 -0.980700 -0.000000
vn 0.191200 -0.981500 -0.004700
v -0.034979 3.514813 0.331310
vn 0.191200 0.981500 0.004700
v -0.034979 3.514628 0.369874
vn 0.195800 0.980700 -0.000000
vn -0.195800 -0.980600 -0.004700
vn -0.190800 -0.981600 -0.000000
v -0.064705 3.534651 0.331310
vn 0.556800 0.830700 0.002100
v -0.064705 3.534528 0.379638
vn 0.555100 0.831800 0.004000
vn -0.557200 -0.830400 -0.004000
v -0.084542 3.564006 0.331310
v -0.084542 3.564006 0.394223
v -0.091464 3.599356 0.331310
v -0.091464 3.599356 0.643957
v -0.084542 3.634396 0.331310
v -0.084542 3.634396 0.643957
v -0.064705 3.664060 0.331310
v -0.064705 3.664060 0.643957
v -0.034979 3.683898 0.331310
v -0.034979 3.683898 0.643957
v 0.034979 3.869236 0.331310
v 0.034979 3.869236 0.643957
v -0.000000 3.876220 0.643957
v -0.000000 3.876220 0.331310
v 0.064705 3.849399 0.331310
v 0.064705 3.849399 0.643957
v 0.084542 3.819735 0.331310
v 0.084542 3.819735 0.643957
v 0.091464 3.784632 0.331310
vn -0.981100 -0.193500 -0.000000
v 0.091464 3.784632 0.643957
vn 0.981100 0.193500 -0.000000
v 0.084542 3.749468 0.331310
vn -0.981200 0.193100 -0.000000
v 0.084542 3.749468 0.394223
vn 0.981200 -0.193100 -0.000000
v 0.064705 3.720051 0.331310
v 0.064705 3.719928 0.379638
v 0.034979 3.700213 0.331310
v 0.034979 3.699966 0.369874
v -0.000000 3.693230 0.331310
v -0.000000 3.693168 0.366413
v -0.034979 3.700213 0.331310
v -0.034979 3.699966 0.369874
v -0.064705 3.720051 0.331310
v -0.064705 3.719928 0.379638
v -0.084542 3.749468 0.331310
v -0.084542 3.749468 0.394223
v -0.091464 3.784632 0.331310
vn 0.981200 0.193100 -0.000000
v -0.091464 3.784632 0.643957
vn -0.981200 -0.193100 -0.000000
v -0.084542 3.819735 0.331310
vn 0.981100 -0.193500 -0.000000
v -0.084542 3.819735 0.643957
vn -0.981100 0.193500 -0.000000
v -0.064705 3.849399 0.331310
v -0.064705 3.849399 0.643957
v -0.034979 3.869236 0.331310
v -0.034979 3.869236 0.643957
v 0.095110 4.029731 0.331310
vt 0.367000 0.996000
vn -0.000000 -0.001400 1.000000
v -0.095110 4.029731 0.331310
vt 0.263000 0.996000
v -0.184288 3.986904 0.331249
vt 0.220000 0.984000
v 0.184288 3.986904 0.331249
vt 0.412000 0.984000
vn -0.000000 0.000100 1.000000
vt 0.220000 0.338000
vt 0.412000 0.338000
vt 0.166000 0.996000
vn -0.000000 0.001400 -1.000000
vt 0.052000 0.996000
vt 0.003000 0.984000
vt 0.212000 0.984000
vt 0.003000 0.338000
vn -0.000200 -0.000100 -1.000000
vt 0.212000 0.338000
v 0.092700 3.877394 0.210924
vt 0.471000 0.950000
v 0.092700 3.877394 0.331249
vt 0.418000 0.950000
v -0.092700 3.877394 0.331249
vt 0.590000 0.950000
v -0.092700 3.877394 0.210739
vt 0.533000 0.950000
vn 0.001000 -0.000000 -1.000000
vn 0.000300 -0.000100 -1.000000
vt 0.533000 0.995000
vt 0.471000 0.995000
f 1/1/1 2/2/1 3/3/1
f 1/1/1 3/3/1 4/4/1
f 1/1/2 4/4/2 2/2/2
f 2/2/2 4/4/2 3/3/2
f 5/5/3 6/6/3 2/2/3
f 5/5/3 2/2/3 1/1/3
f 6/6/4 5/5/4 1/1/4
f 1/1/4 2/2/4 6/6/4
f 7/7/5 8/8/5 6/6/5
f 7/7/5 6/6/5 5/5/5
f 8/8/6 7/7/6 5/5/6
f 8/8/6 5/5/6 6/6/6
f 9/9/7 10/10/7 8/8/7
f 9/9/7 8/8/7 7/7/7
f 10/10/8 9/9/8 7/7/8
f 10/10/8 7/7/8 8/8/8
f 11/11/9 12/12/9 10/10/9
f 11/11/9 10/10/9 9/9/9
f 12/12/10 11/11/10 9/9/10
f 12/12/10 9/9/10 10/10/10
f 13/13/11 14/14/11 12/12/11
f 13/13/12 12/12/12 11/11/12
f 14/14/13 13/13/13 11/11/13
f 14/14/14 11/11/14 12/12/14
f 15/15/15 16/16/15 14/14/15
f 15/15/16 14/14/16 13/13/16
f 16/16/17 15/15/17 13/13/17
f 16/16/18 13/13/18 14/14/18
f 17/17/19 18/18/19 16/16/19
f 17/17/20 16/16/20 15/15/20
f 18/18/21 17/17/21 15/15/21
f 18/18/22 15/15/22 16/16/22
f 19/15/23 20/16/23 18/18/23
f 19/15/24 18/18/24 17/17/24
f 20/16/25 19/15/25 17/17/25
f 20/16/26 17/17/26 18/18/26
f 21/13/27 22/14/27 20/16/27
f 21/13/28 20/16/28 19/15/28
f 22/14/29 21/13/29 19/15/29
f 22/14/30 19/15/30 20/16/30
f 23/11/31 24/12/31 22/14/31
f 23/11/32 22/14/32 21/13/32
f 24/12/33 23/11/33 21/13/33
f 24/12/34 21/13/34 22/14/34
f 25/9/35 26/10/35 24/12/35
f 25/9/35 24/12/35 23/11/35
f 26/10/36 25/9/36 23/11/36
f 26/10/36 23/11/36 24/12/36
f 27/7/37 28/8/37 26/10/37
f 27/7/37 26/10/37 25/9/37
f 28/8/38 27/7/38 25/9/38
f 28/8/38 25/9/38 26/10/38
f 29/5/39 30/6/39 28/8/39
f 29/5/39 28/8/39 27/7/39
f 30/6/40 29/5/40 27/7/40
f 30/6/40 27/7/40 28/8/40
f 31/1/41 32/2/41 30/6/41
f 31/1/41 30/6/41 29/5/41
f 32/2/42 31/1/42 29/5/42
f 32/2/42 29/5/42 30/6/42
f 4/4/43 3/3/43 32/2/43
f 4/4/43 32/2/43 31/1/43
f 3/3/44 4/4/44 31/1/44
f 3/3/44 31/1/44 32/2/44
f 33/19/45 34/20/45 35/21/45
f 35/21/45 36/22/45 33/19/45
f 37/23/46 38/24/46 39/25/46
f 39/25/46 40/26/46 37/23/46
f 38/27/47 41/28/47 42/29/47
f 42/29/47 39/30/47 38/27/47
f 41/23/48 43/24/48 44/25/48
f 44/25/48 42/26/48 41/23/48
f 41/31/49 38/32/49 37/33/49
f 37/33/49 43/34/49 41/31/49
f 42/32/50 44/33/50 40/34/50
f 40/34/50 39/31/50 42/32/50
f 45/1/51 46/2/51 47/3/51
f 45/1/51 47/3/51 48/4/51
f 46/2/52 45/1/52 48/4/52
f 46/2/52 48/4/52 47/3/52
f 49/5/53 50/6/53 46/2/53
f 49/5/54 46/2/54 45/1/54
f 50/6/55 49/5/55 45/1/55
f 50/6/56 45/1/56 46/2/56
f 51/7/57 52/8/57 50/6/57
f 51/7/57 50/6/57 49/5/57
f 52/8/58 51/7/58 49/5/58
f 52/8/58 49/5/58 50/6/58
f 53/9/59 54/10/59 52/8/59
f 53/9/60 52/8/60 51/7/60
f 54/10/61 53/9/61 51/7/61
f 54/10/62 51/7/62 52/8/62
f 55/11/63 56/12/63 54/10/63
f 55/11/63 54/10/63 53/9/63
f 56/12/64 55/11/64 53/9/64
f 56/12/64 53/9/64 54/10/64
f 57/13/65 58/14/65 56/12/65
f 57/13/66 56/12/66 55/11/66
f 58/14/67 57/13/67 55/11/67
f 58/14/68 55/11/68 56/12/68
f 59/15/69 60/16/69 58/14/69
f 59/15/70 58/14/70 57/13/70
f 60/16/71 59/15/71 57/13/71
f 60/16/72 57/13/72 58/14/72
f 61/17/73 62/18/73 60/16/73
f 61/17/74 60/16/74 59/15/74
f 62/18/75 61/17/75 59/15/75
f 62/18/76 59/15/76 60/16/76
f 63/15/77 64/16/77 62/18/77
f 63/15/73 62/18/73 61/17/73
f 64/16/78 63/15/78 61/17/78
f 64/16/75 61/17/75 62/18/75
f 65/13/79 66/14/79 64/16/79
f 65/13/80 64/16/80 63/15/80
f 66/14/81 65/13/81 63/15/81
f 66/14/82 63/15/82 64/16/82
f 67/11/83 68/12/83 66/14/83
f 67/11/84 66/14/84 65/13/84
f 68/12/85 67/11/85 65/13/85
f 68/12/86 65/13/86 66/14/86
f 69/9/87 70/10/87 68/12/87
f 69/9/87 68/12/87 67/11/87
f 70/10/88 69/9/88 67/11/88
f 70/10/88 67/11/88 68/12/88
f 71/7/89 72/8/89 70/10/89
f 71/7/90 70/10/90 69/9/90
f 72/8/91 71/7/91 69/9/91
f 72/8/92 69/9/92 70/10/92
f 73/5/93 74/6/93 72/8/93
f 73/5/93 72/8/93 71/7/93
f 74/6/94 73/5/94 71/7/94
f 74/6/94 71/7/94 72/8/94
f 75/1/95 76/2/95 74/6/95
f 75/1/96 74/6/96 73/5/96
f 76/2/97 75/1/97 73/5/97
f 76/2/98 73/5/98 74/6/98
f 48/4/99 47/3/99 76/2/99
f 48/4/99 76/2/99 75/1/99
f 47/3/100 48/4/100 75/1/100
f 47/3/100 75/1/100 76/2/100
f 77/35/101 78/36/101 79/37/101
f 79/37/101 80/38/101 77/35/101
f 80/38/102 79/37/102 81/39/102
f 81/39/103 82/40/103 80/38/103
f 78/41/104 77/42/104 80/43/104
f 80/43/104 79/44/104 78/41/104
f 79/44/105 80/43/105 82/45/105
f 82/45/106 81/46/106 79/44/106
f 83/47/48 84/28/48 85/48/48
f 85/48/48 86/49/48 83/47/48
f 87/27/46 88/50/46 89/51/46
f 89/51/46 90/52/46 87/27/46
f 88/50/107 83/47/107 86/49/107
f 86/49/108 89/51/108 88/50/108
f 90/53/50 89/51/50 86/49/50
f 86/49/50 85/54/50 90/53/50
f 91/1/1 92/2/1 93/3/1
f 91/1/1 93/3/1 94/4/1
f 92/2/2 91/1/2 94/4/2
f 92/2/2 94/4/2 93/3/2
f 95/5/3 96/6/3 92/2/3
f 95/5/3 92/2/3 91/1/3
f 96/6/4 95/5/4 91/1/4
f 96/6/4 91/1/4 92/2/4
f 97/7/5 98/8/5 96/6/5
f 97/7/5 96/6/5 95/5/5
f 98/8/6 97/7/6 95/5/6
f 98/8/6 95/5/6 96/6/6
f 99/9/7 100/10/7 98/8/7
f 99/9/7 98/8/7 97/7/7
f 100/10/8 99/9/8 97/7/8
f 100/10/8 97/7/8 98/8/8
f 101/11/9 102/12/9 100/10/9
f 101/11/9 100/10/9 99/9/9
f 102/12/10 101/11/10 99/9/10
f 102/12/10 99/9/10 100/10/10
f 103/13/11 104/14/11 102/12/11
f 103/13/12 102/12/12 101/11/12
f 104/14/13 103/13/13 101/11/13
f 104/14/14 101/11/14 102/12/14
f 105/15/15 106/16/15 104/14/15
f 105/15/16 104/14/16 103/13/16
f 106/16/17 105/15/17 103/13/17
f 106/16/18 103/13/18 104/14/18
f 107/17/19 108/18/19 106/16/19
f 107/17/20 106/16/20 105/15/20
f 108/18/21 107/17/21 105/15/21
f 108/18/22 105/15/22 106/16/22
f 109/15/23 110/16/23 108/18/23
f 109/15/24 108/18/24 107/17/24
f 110/16/25 109/15/25 107/17/25
f 110/16/26 107/17/26 108/18/26
f 111/13/27 112/14/27 110/16/27
f 111/13/28 110/16/28 109/15/28
f 112/14/29 111/13/29 109/15/29
f 112/14/30 109/15/30 110/16/30
f 113/11/31 114/12/31 112/14/31
f 113/11/32 112/14/32 111/13/32
f 114/12/33 113/11/33 111/13/33
f 114/12/34 111/13/34 112/14/34
f 115/9/35 116/10/35 114/12/35
f 115/9/35 114/12/35 113/11/35
f 116/10/36 115/9/36 113/11/36
f 116/10/36 113/11/36 114/12/36
f 117/7/37 118/8/37 116/10/37
f 117/7/37 116/10/37 115/9/37
f 118/8/38 117/7/38 115/9/38
f 118/8/38 115/9/38 116/10/38
f 119/5/39 120/6/39 118/8/39
f 119/5/39 118/8/39 117/7/39
f 120/6/40 119/5/40 117/7/40
f 120/6/40 117/7/40 118/8/40
f 121/1/41 122/2/41 120/6/41
f 121/1/41 120/6/41 119/5/41
f 122/2/42 121/1/42 119/5/42
f 122/2/42 119/5/42 120/6/42
f 94/4/43 93/3/43 122/2/43
f 94/4/43 122/2/43 121/1/43
f 93/3/44 94/4/44 121/1/44
f 93/3/44 121/1/44 122/2/44
f 123/1/1 124/2/1 125/3/1
f 123/1/1 125/3/1 126/4/1
f 124/2/2 123/1/2 126/4/2
f 124/2/2 126/4/2 125/3/2
f 127/5/3 128/6/3 124/2/3
f 127/5/3 124/2/3 123/1/3
f 128/6/4 127/5/4 123/1/4
f 128/6/4 123/1/4 124/2/4
f 129/7/109 130/8/109 128/6/109
f 129/7/110 128/6/110 127/5/110
f 130/8/111 129/7/111 127/5/111
f 130/8/112 127/5/112 128/6/112
f 131/9/113 132/10/113 130/8/113
f 131/9/113 130/8/113 129/7/113
f 132/10/114 131/9/114 129/7/114
f 132/10/114 129/7/114 130/8/114
f 133/11/115 134/12/115 132/10/115
f 133/11/115 132/10/115 131/9/115
f 134/12/116 133/11/116 131/9/116
f 134/12/116 131/9/116 132/10/116
f 135/13/117 136/14/117 134/12/117
f 135/13/118 134/12/118 133/11/118
f 136/14/119 135/13/119 133/11/119
f 136/14/120 133/11/120 134/12/120
f 137/15/15 138/16/15 136/14/15
f 137/15/16 136/14/16 135/13/16
f 138/16/17 137/15/17 135/13/17
f 138/16/18 135/13/18 136/14/18
f 139/17/19 140/18/19 138/16/19
f 139/17/20 138/16/20 137/15/20
f 140/18/121 139/17/121 137/15/121
f 140/18/22 137/15/22 138/16/22
f 141/15/23 142/16/23 140/18/23
f 141/15/122 140/18/122 139/17/122
f 142/16/25 141/15/25 139/17/25
f 142/16/26 139/17/26 140/18/26
f 143/13/27 144/14/27 142/16/27
f 143/13/28 142/16/28 141/15/28
f 144/14/29 143/13/29 141/15/29
f 144/14/30 141/15/30 142/16/30
f 145/11/123 146/12/123 144/14/123
f 145/11/124 144/14/124 143/13/124
f 146/12/125 145/11/125 143/13/125
f 146/12/126 143/13/126 144/14/126
f 147/9/127 148/10/127 146/12/127
f 147/9/127 146/12/127 145/11/127
f 148/10/128 147/9/128 145/11/128
f 148/10/128 145/11/128 146/12/128
f 149/7/129 150/8/129 148/10/129
f 149/7/129 148/10/129 147/9/129
f 150/8/130 149/7/130 147/9/130
f 150/8/130 147/9/130 148/10/130
f 151/5/131 152/6/131 150/8/131
f 151/5/132 150/8/132 149/7/132
f 152/6/133 151/5/133 149/7/133
f 152/6/134 149/7/134 150/8/134
f 153/1/41 154/2/41 152/6/41
f 153/1/41 152/6/41 151/5/41
f 154/2/42 153/1/42 151/5/42
f 154/2/42 151/5/42 152/6/42
f 126/4/43 125/3/43 154/2/43
f 126/4/43 154/2/43 153/1/43
f 125/3/44 126/4/44 153/1/44
f 125/3/44 153/1/44 154/2/44
f 155/1/1 156/2/1 157/3/1
f 155/1/1 157/3/1 158/4/1
f 156/2/2 155/1/2 158/4/2
f 156/2/2 158/4/2 157/3/2
f 159/5/3 160/6/3 156/2/3
f 159/5/3 156/2/3 155/1/3
f 160/6/4 159/5/4 155/1/4
f 160/6/4 155/1/4 156/2/4
f 161/7/109 162/8/109 160/6/109
f 161/7/110 160/6/110 159/5/110
f 162/8/111 161/7/111 159/5/111
f 162/8/112 159/5/112 160/6/112
f 163/9/113 164/10/113 162/8/113
f 163/9/113 162/8/113 161/7/113
f 164/10/114 163/9/114 161/7/114
f 164/10/114 161/7/114 162/8/114
f 165/11/9 166/12/9 164/10/9
f 165/11/9 164/10/9 163/9/9
f 166/12/10 165/11/10 163/9/10
f 166/12/10 163/9/10 164/10/10
f 167/13/11 168/14/11 166/12/11
f 167/13/12 166/12/12 165/11/12
f 168/14/13 167/13/13 165/11/13
f 168/14/14 165/11/14 166/12/14
f 169/15/15 170/16/15 168/14/15
f 169/15/16 168/14/16 167/13/16
f 170/16/17 169/15/17 167/13/17
f 170/16/18 167/13/18 168/14/18
f 171/17/135 172/18/135 170/16/135
f 171/17/20 170/16/20 169/15/20
f 172/18/21 171/17/21 169/15/21
f 172/18/22 169/15/22 170/16/22
f 173/15/23 174/16/23 172/18/23
f 173/15/24 172/18/24 171/17/24
f 174/16/25 173/15/25 171/17/25
f 174/16/136 171/17/136 172/18/136
f 175/13/27 176/14/27 174/16/27
f 175/13/28 174/16/28 173/15/28
f 176/14/29 175/13/29 173/15/29
f 176/14/30 173/15/30 174/16/30
f 177/11/31 178/12/31 176/14/31
f 177/11/32 176/14/32 175/13/32
f 178/12/33 177/11/33 175/13/33
f 178/12/34 175/13/34 176/14/34
f 179/9/35 180/10/35 178/12/35
f 179/9/35 178/12/35 177/11/35
f 180/10/36 179/9/36 177/11/36
f 180/10/36 177/11/36 178/12/36
f 181/7/129 182/8/129 180/10/129
f 181/7/129 180/10/129 179/9/129
f 182/8/130 181/7/130 179/9/130
f 182/8/130 179/9/130 180/10/130
f 183/5/131 184/6/131 182/8/131
f 183/5/132 182/8/132 181/7/132
f 184/6/133 183/5/133 181/7/133
f 184/6/134 181/7/134 182/8/134
f 185/1/41 186/2/41 184/6/41
f 185/1/41 184/6/41 183/5/41
f 186/2/42 185/1/42 183/5/42
f 186/2/42 183/5/42 184/6/42
f 158/4/43 157/3/43 186/2/43
f 158/4/43 186/2/43 185/1/43
f 157/3/44 158/4/44 185/1/44
f 157/3/44 185/1/44 186/2/44
f 187/1/1 188/2/1 189/3/1
f 187/1/1 189/3/1 190/4/1
f 188/2/2 187/1/2 190/4/2
f 188/2/2 190/4/2 189/3/2
f 191/5/3 192/6/3 188/2/3
f 191/5/3 188/2/3 187/1/3
f 192/6/4 191/5/4 187/1/4
f 192/6/4 187/1/4 188/2/4
f 193/7/110 194/8/110 192/6/110
f 193/7/110 192/6/110 191/5/110
f 194/8/112 193/7/112 191/5/112
f 194/8/112 191/5/112 192/6/112
f 195/9/113 196/10/113 194/8/113
f 195/9/113 194/8/113 193/7/113
f 196/10/114 195/9/114 193/7/114
f 196/10/114 193/7/114 194/8/114
f 197/11/137 198/12/137 196/10/137
f 197/11/115 196/10/115 195/9/115
f 198/12/138 197/11/138 195/9/138
f 198/12/10 195/9/10 196/10/10
f 199/13/11 200/14/11 198/12/11
f 199/13/139 198/12/139 197/11/139
f 200/14/119 199/13/119 197/11/119
f 200/14/140 197/11/140 198/12/140
f 201/15/141 202/16/141 200/14/141
f 201/15/16 200/14/16 199/13/16
f 202/16/142 201/15/142 199/13/142
f 202/16/143 199/13/143 200/14/143
f 203/17/144 204/18/144 202/16/144
f 203/17/145 202/16/145 201/15/145
f 204/18/146 203/17/146 201/15/146
f 204/18/147 201/15/147 202/16/147
f 205/15/148 206/16/148 204/18/148
f 205/15/149 204/18/149 203/17/149
f 206/16/150 205/15/150 203/17/150
f 206/16/151 203/17/151 204/18/151
f 207/13/152 208/14/152 206/16/152
f 207/13/153 206/16/153 205/15/153
f 208/14/29 207/13/29 205/15/29
f 208/14/154 205/15/154 206/16/154
f 209/11/31 210/12/31 208/14/31
f 209/11/32 208/14/32 207/13/32
f 210/12/33 209/11/33 207/13/33
f 210/12/34 207/13/34 208/14/34
f 211/9/35 212/10/35 210/12/35
f 211/9/35 210/12/35 209/11/35
f 212/10/36 211/9/36 209/11/36
f 212/10/36 209/11/36 210/12/36
f 213/7/129 214/8/129 212/10/129
f 213/7/129 212/10/129 211/9/129
f 214/8/130 213/7/130 211/9/130
f 214/8/130 211/9/130 212/10/130
f 215/5/131 216/6/131 214/8/131
f 215/5/131 214/8/131 213/7/131
f 216/6/133 215/5/133 213/7/133
f 216/6/133 213/7/133 214/8/133
f 217/1/41 218/2/41 216/6/41
f 217/1/41 216/6/41 215/5/41
f 218/2/42 217/1/42 215/5/42
f 218/2/42 215/5/42 216/6/42
f 190/4/43 189/3/43 218/2/43
f 190/4/43 218/2/43 217/1/43
f 189/3/44 190/4/44 217/1/44
f 189/3/44 217/1/44 218/2/44
f 219/1/1 220/2/1 221/3/1
f 219/1/1 221/3/1 222/4/1
f 220/2/2 219/1/2 222/4/2
f 220/2/2 222/4/2 221/3/2
f 223/5/3 224/6/3 220/2/3
f 223/5/3 220/2/3 219/1/3
f 224/6/4 223/5/4 219/1/4
f 224/6/4 219/1/4 220/2/4
f 225/7/110 226/8/110 224/6/110
f 225/7/109 224/6/109 223/5/109
f 226/8/112 225/7/112 223/5/112
f 226/8/111 223/5/111 224/6/111
f 227/9/155 228/10/155 226/8/155
f 227/9/155 226/8/155 225/7/155
f 228/10/156 227/9/156 225/7/156
f 228/10/156 225/7/156 226/8/156
f 229/11/157 230/12/157 228/10/157
f 229/11/157 228/10/157 227/9/157
f 230/12/158 229/11/158 227/9/158
f 230/12/158 227/9/158 228/10/158
f 231/13/117 232/14/117 230/12/117
f 231/13/118 230/12/118 229/11/118
f 232/14/119 231/13/119 229/11/119
f 232/14/120 229/11/120 230/12/120
f 233/15/15 234/16/15 232/14/15
f 233/15/16 232/14/16 231/13/16
f 234/16/17 233/15/17 231/13/17
f 234/16/18 231/13/18 232/14/18
f 235/17/19 236/18/19 234/16/19
f 235/17/20 234/16/20 233/15/20
f 236/18/21 235/17/21 233/15/21
f 236/18/22 233/15/22 234/16/22
f 237/15/23 238/16/23 236/18/23
f 237/15/24 236/18/24 235/17/24
f 238/16/25 237/15/25 235/17/25
f 238/16/26 235/17/26 236/18/26
f 239/13/27 240/14/27 238/16/27
f 239/13/28 238/16/28 237/15/28
f 240/14/29 239/13/29 237/15/29
f 240/14/30 237/15/30 238/16/30
f 241/11/123 242/12/123 240/14/123
f 241/11/124 240/14/124 239/13/124
f 242/12/125 241/11/125 239/13/125
f 242/12/126 239/13/126 240/14/126
f 243/9/159 244/10/159 242/12/159
f 243/9/159 242/12/159 241/11/159
f 244/10/160 243/9/160 241/11/160
f 244/10/160 241/11/160 242/12/160
f 245/7/161 246/8/161 244/10/161
f 245/7/161 244/10/161 243/9/161
f 246/8/162 245/7/162 243/9/162
f 246/8/162 243/9/162 244/10/162
f 247/5/132 248/6/132 246/8/132
f 247/5/131 246/8/131 245/7/131
f 248/6/134 247/5/134 245/7/134
f 248/6/133 245/7/133 246/8/133
f 249/1/41 250/2/41 248/6/41
f 249/1/41 248/6/41 247/5/41
f 250/2/42 249/1/42 247/5/42
f 250/2/42 247/5/42 248/6/42
f 222/4/43 221/3/43 250/2/43
f 222/4/43 250/2/43 249/1/43
f 221/3/44 222/4/44 249/1/44
f 221/3/44 249/1/44 250/2/44
f 251/55/163 252/56/163 253/57/163
f 253/57/163 254/58/163 251/55/163
f 254/58/164 253/57/164 78/59/164
f 78/59/101 77/60/101 254/58/101
f 252/61/165 251/62/165 254/63/165
f 254/63/165 253/64/165 252/61/165
f 253/64/47 254/63/47 77/65/47
f 77/65/166 78/66/166 253/64/166
f 255/67/48 256/68/48 84/48/48
f 84/48/48 83/49/48 255/67/48
f 257/69/46 258/70/46 88/51/46
f 88/51/46 87/52/46 257/69/46
f 258/70/167 255/67/167 83/49/167
f 83/49/168 88/51/168 258/70/168
f 257/71/49 256/72/49 255/67/49
f 255/67/49 258/70/49 257/71/49
