# generated by tools/objdedupe/dedupe.py -- do not hand-edit.
# Re-run the tool after touching azd_1svet.obj, azd_2svet.obj, azd_3svet.obj, azd_4svet.obj, azd_5svet.obj, azd_6svet.obj.
o stit_5svet_S_3pruhy
v 0.159629 2.756651 0.332484
vt 0.402000 0.258000
vn -0.000000 -0.000000 1.000000
v -0.159629 2.756651 0.332484
vt 0.230000 0.258000
v -0.159629 2.584847 0.332484
vt 0.230000 0.173000
v 0.159629 2.584847 0.332484
vt 0.402000 0.173000
v -0.172422 2.751583 0.331310
vt 0.524000 0.514000
vn -1.000000 -0.000000 -0.000000
v -0.172422 2.751583 0.266358
vt 0.485000 0.514000
v -0.172422 2.580768 0.266358
vt 0.485000 0.487000
v -0.172422 2.580768 0.331310
vt 0.524000 0.487000
vt 0.590000 0.521000
vn -0.000000 -0.000000 -1.000000
v 0.172422 2.751583 0.266358
vt 0.419000 0.521000
v 0.172422 2.580768 0.266358
vt 0.419000 0.418000
vt 0.590000 0.418000
vn 1.000000 -0.000000 -0.000000
v 0.172422 2.751583 0.331310
v 0.172422 2.580768 0.331310
vt 0.590000 0.515000
vn -0.000000 1.000000 -0.000000
vt 0.419000 0.515000
vt 0.419000 0.496000
vt 0.590000 0.496000
vn -0.000000 -1.000000 -0.000000
v 0.094307 2.756898 0.331310
vt 0.411000 0.078000
vn -0.073800 -0.997300 -0.000000
v 0.094307 2.756898 0.569178
vt 0.247000 0.078000
v -0.000000 2.763882 0.569178
vt 0.247000 0.081000
v -0.000000 2.763882 0.331310
vt 0.411000 0.081000
vn 0.073800 0.997300 -0.000000
v 0.151039 2.745280 0.331310
vt 0.411000 0.070000
vn -0.386300 -0.921200 -0.047100
v 0.151039 2.733105 0.569178
vt 0.247000 0.070000
vn -0.200600 -0.979700 -0.000000
vn 0.200400 0.978400 0.050100
vn 0.386800 0.922200 -0.000000
v 0.168158 2.713577 0.331310
vt 0.411000 0.058000
vn -0.879700 -0.475000 -0.024300
v 0.168158 2.701402 0.569178
vt 0.247000 0.058000
vn 0.879700 0.475000 0.024300
v 0.175203 2.672356 0.331310
vt 0.411000 0.044000
vn -0.971800 -0.235700 -0.000000
v 0.175203 2.672356 0.569178
vt 0.247000 0.044000
vn -0.985700 -0.168500 -0.008600
vn 0.985700 0.168500 -0.000000
vn 0.971800 0.235700 0.012100
v 0.169208 2.637006 0.331310
vt 0.411000 0.030000
vn -0.985900 0.167200 -0.000000
v 0.169208 2.637006 0.394223
vt 0.372000 0.030000
vn 0.985900 -0.167200 -0.000000
v 0.167478 2.607651 0.331310
vt 0.411000 0.018000
vn -0.998300 0.058500 0.000100
v 0.167478 2.607528 0.379638
vt 0.381000 0.018000
vn -0.998300 0.058800 -0.000000
vn 0.998300 -0.058800 -0.000200
vn 0.998300 -0.058600 -0.000000
v 0.149556 2.580892 0.331310
vt 0.411000 0.010000
vn -0.831900 0.554900 0.002700
v 0.149556 2.580706 0.369873
vt 0.387000 0.010000
vn -0.830900 0.556500 0.001400
vn 0.830900 -0.556500 -0.002700
vn 0.831700 -0.555200 -0.001400
v -0.000000 2.580830 0.331310
vt 0.411000 0.007000
vn 0.000400 1.000000 0.001800
v -0.000000 2.580768 0.366413
vt 0.391000 0.007000
vn -0.000400 1.000000 0.004800
vn 0.000400 -1.000000 -0.001800
vn -0.000300 -1.000000 -0.004800
v -0.149556 2.580892 0.331310
vn -0.000300 1.000000 0.004800
v -0.149556 2.580706 0.369873
vn -0.000400 -1.000000 -0.004800
v -0.167725 2.607651 0.331310
vn 0.828200 0.560500 0.001400
v -0.167725 2.607528 0.379638
vn 0.827300 0.561700 0.002700
vn -0.827300 -0.561700 -0.001400
vn -0.828400 -0.560200 -0.002700
v -0.169208 2.637006 0.331310
vn 0.998700 0.050300 -0.000000
v -0.169208 2.637006 0.394223
vn 0.998700 0.050500 0.000100
vn -0.998700 -0.050500 -0.000000
vn -0.998700 -0.050200 -0.000100
v -0.175203 2.672356 0.331310
vn 0.985900 0.167200 -0.000000
v -0.175203 2.672356 0.569178
vn -0.985900 -0.167200 -0.000000
v -0.168158 2.713577 0.331310
vn 0.971800 -0.235700 -0.012100
v -0.168158 2.701402 0.569178
vn 0.985700 -0.168500 -0.000000
vn -0.985700 0.168500 0.008600
vn -0.971800 0.235700 -0.000000
v -0.151039 2.745280 0.331310
vn 0.879700 -0.475000 -0.024300
v -0.151039 2.733105 0.569178
vn -0.879700 0.475000 0.024300
v -0.094307 2.756898 0.331310
vn 0.386800 -0.922200 -0.000000
v -0.094307 2.756898 0.569178
vn 0.200400 -0.978400 -0.050100
vn -0.200600 0.979700 -0.000000
vn -0.386300 0.921200 0.047100
vn 0.073800 -0.997300 -0.000000
vn -0.073800 0.997300 -0.000000
v 0.184288 2.764932 0.331248
vt 0.412000 0.438000
vn 0.000200 -0.000000 1.000000
v -0.184288 2.764932 0.331310
vt 0.220000 0.438000
v -0.184288 2.470208 0.331310
vt 0.220000 0.279000
v 0.184288 2.470208 0.331248
vt 0.412000 0.279000
vn 0.000200 0.000400 1.000000
v -0.095110 2.427813 0.331310
vt 0.263000 0.267000
vn 0.000300 -0.000700 1.000000
v 0.095110 2.427813 0.331248
vt 0.367000 0.267000
vt 0.212000 0.435000
vn -0.000200 -0.000000 -1.000000
vt 0.003000 0.435000
vt 0.003000 0.279000
vt 0.212000 0.279000
vn -0.000200 0.000400 -1.000000
vt 0.052000 0.267000
vn -0.000300 -0.000700 -1.000000
vt 0.166000 0.267000
v 0.092700 2.764932 0.210924
vt 0.470000 0.522000
v 0.092700 2.765056 0.331248
v 0.092700 2.579718 0.331248
vt 0.418000 0.440000
v 0.092700 2.579718 0.210924
vt 0.470000 0.440000
v -0.092700 2.765056 0.331310
v -0.092700 2.765056 0.210862
vt 0.532000 0.522000
v -0.092700 2.579718 0.210924
vt 0.532000 0.440000
v -0.092700 2.579718 0.331310
vt 0.590000 0.440000
vn 0.000300 -0.000000 -1.000000
vn -0.000000 -0.000300 -1.000000
vt 0.533000 0.393000
vt 0.471000 0.393000
v 0.159629 2.942051 0.332484
v -0.159629 2.942051 0.332484
v -0.159629 2.770247 0.332484
v 0.159629 2.770247 0.332484
v -0.172422 2.936983 0.331310
v -0.172422 2.936983 0.266358
v -0.172422 2.766168 0.266358
v -0.172422 2.766168 0.331310
v 0.172422 2.936983 0.266359
v 0.172422 2.766168 0.266358
v 0.172422 2.936983 0.331310
v 0.172422 2.766168 0.331310
v 0.094307 2.942298 0.331310
v 0.094307 2.942298 0.569178
v -0.000000 2.949282 0.569178
v -0.000000 2.949282 0.331310
v 0.151039 2.930680 0.331310
v 0.151039 2.918505 0.569178
v 0.168158 2.898977 0.331310
v 0.168158 2.886802 0.569178
v 0.175203 2.857756 0.331310
v 0.175203 2.857756 0.569178
v 0.169208 2.822406 0.331310
v 0.169208 2.822406 0.394223
v 0.167478 2.793051 0.331310
v 0.167478 2.792928 0.379638
v 0.149556 2.766292 0.331310
v 0.149556 2.766106 0.369873
v -0.000000 2.766230 0.331310
v -0.000000 2.766168 0.366413
v -0.149556 2.766292 0.331310
v -0.149556 2.766106 0.369873
v -0.167725 2.793051 0.331310
v -0.167725 2.792928 0.379638
v -0.169208 2.822406 0.331310
v -0.169208 2.822406 0.394223
v -0.175203 2.857756 0.331310
v -0.175203 2.857756 0.569178
v -0.168158 2.898977 0.331310
v -0.168158 2.886802 0.569178
v -0.151039 2.930680 0.331310
v -0.151039 2.918505 0.569178
v -0.094307 2.942298 0.331310
v -0.094307 2.942298 0.569178
v 0.034979 3.127698 0.331310
vn -0.195800 -0.980600 -0.000000
v 0.034979 3.127698 0.643956
v -0.000000 3.134681 0.643956
v -0.000000 3.134681 0.331310
vn 0.195800 0.980600 -0.000000
v 0.064705 3.107860 0.331310
vn -0.555100 -0.831800 -0.000000
v 0.064705 3.107860 0.643956
vn 0.555100 0.831800 -0.000000
v 0.084542 3.078135 0.331310
vn -0.831800 -0.555100 -0.000000
v 0.084542 3.078135 0.643956
vn 0.831800 0.555100 -0.000000
v 0.091464 3.043156 0.331310
vn -0.981000 -0.194100 -0.000000
v 0.091464 3.043156 0.643956
vn 0.981000 0.194100 -0.000000
v 0.084542 3.007806 0.331310
vn -0.981400 0.192200 -0.000000
v 0.084542 3.007806 0.394223
vn 0.981400 -0.192200 -0.000000
v 0.064705 2.978451 0.331310
vn -0.830000 0.557800 0.001400
v 0.064705 2.978328 0.379638
vn -0.828500 0.559900 -0.000000
vn 0.828500 -0.559900 -0.001400
vn 0.829600 -0.558300 -0.000000
v 0.034979 2.958613 0.331310
vn -0.558700 0.829400 0.005300
v 0.034979 2.958366 0.369873
vn -0.555100 0.831800 0.002100
vn 0.555100 -0.831800 -0.005300
vn 0.558000 -0.829900 -0.002100
v -0.000000 2.951630 0.331310
vn -0.190900 0.981600 0.001700
v -0.000000 2.951568 0.366413
vn -0.195800 0.980600 0.006300
vn 0.195800 -0.980600 -0.001700
vn 0.191400 -0.981500 -0.006300
v -0.034979 2.958613 0.331310
vn 0.191400 0.981500 0.006300
v -0.034979 2.958366 0.369873
vn 0.195800 0.980600 0.001700
vn -0.195800 -0.980600 -0.006300
vn -0.190900 -0.981600 -0.001700
v -0.064705 2.978451 0.331310
vn 0.558000 0.829900 0.002100
v -0.064705 2.978328 0.379638
vn 0.555100 0.831800 0.005300
vn -0.555100 -0.831800 -0.002100
vn -0.558700 -0.829400 -0.005300
v -0.084542 3.007806 0.331310
vn 0.829600 0.558300 -0.000000
v -0.084542 3.007806 0.394223
vn 0.828500 0.559900 0.001400
vn -0.828500 -0.559900 -0.000000
vn -0.830000 -0.557800 -0.001400
v -0.091464 3.043156 0.331310
vn 0.981400 0.192200 -0.000000
v -0.091464 3.043156 0.643956
vn -0.981400 -0.192200 -0.000000
v -0.084542 3.078135 0.331310
vn 0.981000 -0.194100 -0.000000
v -0.084542 3.078135 0.643956
vn -0.981000 0.194100 -0.000000
v -0.064705 3.107860 0.331310
vn 0.831800 -0.555100 -0.000000
v -0.064705 3.107860 0.643956
vn -0.831800 0.555100 -0.000000
v -0.034979 3.127698 0.331310
vn 0.555100 -0.831800 -0.000000
v -0.034979 3.127698 0.643956
vn -0.555100 0.831800 -0.000000
vn 0.195800 -0.980600 -0.000000
vn -0.195800 0.980600 -0.000000
v 0.034979 3.313098 0.331310
v 0.034979 3.313098 0.643956
v -0.000000 3.320082 0.643956
v -0.000000 3.320082 0.331310
v 0.064705 3.293260 0.331310
v 0.064705 3.293260 0.643956
v 0.084542 3.263596 0.331310
vn -0.831200 -0.555900 -0.000000
v 0.084542 3.263596 0.643956
vn -0.831300 -0.555900 -0.000000
vn 0.831200 0.555900 -0.000000
vn 0.831300 0.555900 -0.000000
v 0.091464 3.228556 0.331310
vn -0.981000 -0.193800 -0.000000
v 0.091464 3.228556 0.643956
vn 0.981000 0.193800 -0.000000
v 0.084542 3.193268 0.331310
vn -0.981300 0.192500 -0.000000
v 0.084542 3.193268 0.394223
vn 0.981300 -0.192500 -0.000000
v 0.064705 3.163851 0.331310
vn -0.830500 0.557000 0.001400
v 0.064705 3.163728 0.379638
vn -0.829100 0.559100 -0.000000
vn 0.829100 -0.559100 -0.001400
vn 0.830200 -0.557500 -0.000000
v 0.034979 3.144013 0.331310
v 0.034979 3.143766 0.369873
v -0.000000 3.137030 0.331310
v -0.000000 3.136968 0.366413
vn 0.195800 -0.980700 -0.001700
v -0.034979 3.144013 0.331310
v -0.034979 3.143766 0.369873
vn 0.195800 0.980700 0.001700
v -0.064705 3.163851 0.331310
v -0.064705 3.163728 0.379638
v -0.084542 3.193268 0.331310
vn 0.830200 0.557500 -0.000000
v -0.084542 3.193268 0.394223
vn 0.829100 0.559100 0.001400
vn -0.829100 -0.559100 -0.000000
vn -0.830500 -0.557000 -0.001400
v -0.091464 3.228556 0.331310
vn 0.981300 0.192500 -0.000000
v -0.091464 3.228556 0.643956
vn -0.981300 -0.192500 -0.000000
v -0.084542 3.263596 0.331310
vn 0.981000 -0.193800 -0.000000
v -0.084542 3.263596 0.643956
vn -0.981000 0.193800 -0.000000
v -0.064705 3.293260 0.331310
vn 0.831300 -0.555900 -0.000000
v -0.064705 3.293260 0.643956
vn 0.831200 -0.555900 -0.000000
vn -0.831300 0.555900 -0.000000
vn -0.831200 0.555900 -0.000000
v -0.034979 3.313098 0.331310
v -0.034979 3.313098 0.643956
v 0.034979 3.498498 0.331310
v 0.034979 3.498498 0.643957
v -0.000000 3.505481 0.643957
v -0.000000 3.505481 0.331310
v 0.064705 3.478660 0.331310
v 0.064705 3.478660 0.643957
v 0.084542 3.448997 0.331310
v 0.084542 3.448997 0.643957
v 0.091464 3.413956 0.331310
v 0.091464 3.413956 0.643957
v 0.084542 3.378606 0.331310
v 0.084542 3.378606 0.394223
v 0.064705 3.349251 0.331310
v 0.064705 3.349128 0.379638
v 0.034979 3.329413 0.331310
v 0.034979 3.329166 0.369874
v -0.000000 3.322430 0.331310
vn -0.191000 0.981600 0.001700
v -0.000000 3.322368 0.366413
v -0.034979 3.329413 0.331310
v -0.034979 3.329166 0.369874
vn -0.191000 -0.981600 -0.001700
v -0.064705 3.349251 0.331310
v -0.064705 3.349128 0.379638
v -0.084542 3.378606 0.331310
v -0.084542 3.378606 0.394223
v -0.091464 3.413956 0.331310
v -0.091464 3.413956 0.643957
v -0.084542 3.448997 0.331310
v -0.084542 3.448997 0.643957
v -0.064705 3.478660 0.331310
v -0.064705 3.478660 0.643957
v -0.034979 3.498498 0.331310
v -0.034979 3.498498 0.643957
v 0.034979 3.683898 0.331310
v 0.034979 3.683898 0.643957
v -0.000000 3.690881 0.643957
v -0.000000 3.690881 0.331310
v 0.064705 3.664060 0.331310
v 0.064705 3.664060 0.643957
v 0.084542 3.634396 0.331310
v 0.084542 3.634396 0.643957
v 0.091464 3.599356 0.331310
v 0.091464 3.599356 0.643957
v 0.084542 3.564068 0.331310
vn -0.981600 0.190900 0.000200
v 0.084542 3.564006 0.394223
vn 0.981300 -0.192500 -0.000200
v 0.064705 3.534651 0.331310
v 0.064705 3.534528 0.379638
vn -0.829100 0.559100 0.000500
vn 0.829800 -0.558100 -0.000500
v 0.034979 3.514813 0.331310
vn -0.557200 0.830400 0.004000
v 0.034979 3.514628 0.369874
vn 0.555100 -0.831800 -0.004000
vn 0.556800 -0.830700 -0.002100
v -0.000000 3.507830 0.331310
vn -0.190800 0.981600 -0.000000
v -0.000000 3.507830 0.366413
vn -0.195800 0.980600 0.004700
vn 0.195800 -0.980700 -0.000000
vn 0.191200 -0.981500 -0.004700
v -0.034979 3.514813 0.331310
vn 0.191200 0.981500 0.004700
v -0.034979 3.514628 0.369874
vn 0.195800 0.980700 -0.000000
vn -0.195800 -0.980600 -0.004700
vn -0.190800 -0.981600 -0.000000
v -0.064705 3.534651 0.331310
vn 0.556800 0.830700 0.002100
v -0.064705 3.534528 0.379638
vn 0.555100 0.831800 0.004000
vn -0.557200 -0.830400 -0.004000
v -0.084542 3.564006 0.331310
v -0.084542 3.564006 0.394223
v -0.091464 3.599356 0.331310
v -0.091464 3.599356 0.643957
v -0.084542 3.634396 0.331310
v -0.084542 3.634396 0.643957
v -0.064705 3.664060 0.331310
v -0.064705 3.664060 0.643957
v -0.034979 3.683898 0.331310
v -0.034979 3.683898 0.643957
v 0.034979 3.869236 0.331310
v 0.034979 3.869236 0.643957
v -0.000000 3.876220 0.643957
v -0.000000 3.876220 0.331310
v 0.064705 3.849399 0.331310
v 0.064705 3.849399 0.643957
v 0.084542 3.819735 0.331310
v 0.084542 3.819735 0.643957
v 0.091464 3.784632 0.331310
vn -0.981100 -0.193500 -0.000000
v 0.091464 3.784632 0.643957
vn 0.981100 0.193500 -0.000000
v 0.084542 3.749468 0.331310
vn -0.981200 0.193100 -0.000000
v 0.084542 3.749468 0.394223
vn 0.981200 -0.193100 -0.000000
v 0.064705 3.720051 0.331310
v 0.064705 3.719928 0.379638
v 0.034979 3.700213 0.331310
v 0.034979 3.699966 0.369874
v -0.000000 3.693230 0.331310
v -0.000000 3.693168 0.366413
v -0.034979 3.700213 0.331310
v -0.034979 3.699966 0.369874
v -0.064705 3.720051 0.331310
v -0.064705 3.719928 0.379638
v -0.084542 3.749468 0.331310
v -0.084542 3.749468 0.394223
v -0.091464 3.784632 0.331310
vn 0.981200 0.193100 -0.000000
v -0.091464 3.784632 0.643957
vn -0.981200 -0.193100 -0.000000
v -0.084542 3.819735 0.331310
vn 0.981100 -0.193500 -0.000000
v -0.084542 3.819735 0.643957
vn -0.981100 0.193500 -0.000000
v -0.064705 3.849399 0.331310
v -0.064705 3.849399 0.643957
v -0.034979 3.869236 0.331310
v -0.034979 3.869236 0.643957
v 0.095110 4.029731 0.331310
vt 0.367000 0.996000
vn -0.000000 -0.001400 1.000000
v -0.095110 4.029731 0.331310
vt 0.263000 0.996000
v -0.184288 3.986904 0.331249
vt 0.220000 0.984000
v 0.184288 3.986904 0.331249
vt 0.412000 0.984000
vn -0.000000 0.000100 1.000000
vt 0.220000 0.338000
vt 0.412000 0.338000
vt 0.166000 0.996000
vn -0.000000 0.001400 -1.000000
vt 0.052000 0.996000
vt 0.003000 0.984000
vt 0.212000 0.984000
vt 0.003000 0.338000
vn -0.000200 -0.000100 -1.000000
vt 0.212000 0.338000
v 0.092700 3.877394 0.210924
vt 0.471000 0.950000
v 0.092700 3.877394 0.331249
vt 0.418000 0.950000
v -0.092700 3.877394 0.331249
vt 0.590000 0.950000
v -0.092700 3.877394 0.210739
vt 0.533000 0.950000
vn 0.001000 -0.000000 -1.000000
vn 0.000300 -0.000100 -1.000000
vt 0.533000 0.995000
vt 0.471000 0.995000
f 1/1/1 2/2/1 3/3/1
f 3/3/1 4/4/1 1/1/1
f 5/5/2 6/6/2 7/7/2
f 7/7/2 8/8/2 5/5/2
f 6/9/3 9/10/3 10/11/3
f 10/11/3 7/12/3 6/9/3
f 9/5/4 11/6/4 12/7/4
f 12/7/4 10/8/4 9/5/4
f 9/13/5 6/14/5 5/15/5
f 5/15/5 11/16/5 9/13/5
f 10/14/6 12/15/6 8/16/6
f 8/16/6 7/13/6 10/14/6
f 13/17/7 14/18/7 15/19/7
f 13/17/7 15/19/7 16/20/7
f 14/18/8 13/17/8 16/20/8
f 14/18/8 16/20/8 15/19/8
f 17/21/9 18/22/9 14/18/9
f 17/21/10 14/18/10 13/17/10
f 18/22/11 17/21/11 13/17/11
f 18/22/12 13/17/12 14/18/12
f 19/23/13 20/24/13 18/22/13
f 19/23/13 18/22/13 17/21/13
f 20/24/14 19/23/14 17/21/14
f 20/24/14 17/21/14 18/22/14
f 21/25/15 22/26/15 20/24/15
f 21/25/16 20/24/16 19/23/16
f 22/26/17 21/25/17 19/23/17
f 22/26/18 19/23/18 20/24/18
f 23/27/19 24/28/19 22/26/19
f 23/27/19 22/26/19 21/25/19
f 24/28/20 23/27/20 21/25/20
f 24/28/20 21/25/20 22/26/20
f 25/29/21 26/30/21 24/28/21
f 25/29/22 24/28/22 23/27/22
f 26/30/23 25/29/23 23/27/23
f 26/30/24 23/27/24 24/28/24
f 27/31/25 28/32/25 26/30/25
f 27/31/26 26/30/26 25/29/26
f 28/32/27 27/31/27 25/29/27
f 28/32/28 25/29/28 26/30/28
f 29/33/29 30/34/29 28/32/29
f 29/33/30 28/32/30 27/31/30
f 30/34/31 29/33/31 27/31/31
f 30/34/32 27/31/32 28/32/32
f 31/31/33 32/32/33 30/34/33
f 31/31/29 30/34/29 29/33/29
f 32/32/34 31/31/34 29/33/34
f 32/32/31 29/33/31 30/34/31
f 33/29/35 34/30/35 32/32/35
f 33/29/36 32/32/36 31/31/36
f 34/30/37 33/29/37 31/31/37
f 34/30/38 31/31/38 32/32/38
f 35/27/39 36/28/39 34/30/39
f 35/27/40 34/30/40 33/29/40
f 36/28/41 35/27/41 33/29/41
f 36/28/42 33/29/42 34/30/42
f 37/25/43 38/26/43 36/28/43
f 37/25/43 36/28/43 35/27/43
f 38/26/44 37/25/44 35/27/44
f 38/26/44 35/27/44 36/28/44
f 39/23/45 40/24/45 38/26/45
f 39/23/46 38/26/46 37/25/46
f 40/24/47 39/23/47 37/25/47
f 40/24/48 37/25/48 38/26/48
f 41/21/49 42/22/49 40/24/49
f 41/21/49 40/24/49 39/23/49
f 42/22/50 41/21/50 39/23/50
f 42/22/50 39/23/50 40/24/50
f 43/17/51 44/18/51 42/22/51
f 43/17/52 42/22/52 41/21/52
f 44/18/53 43/17/53 41/21/53
f 44/18/54 41/21/54 42/22/54
f 16/20/55 15/19/55 44/18/55
f 16/20/55 44/18/55 43/17/55
f 15/19/56 16/20/56 43/17/56
f 15/19/56 43/17/56 44/18/56
f 45/35/57 46/36/57 47/37/57
f 47/37/57 48/38/57 45/35/57
f 48/38/58 47/37/58 49/39/58
f 49/39/59 50/40/59 48/38/59
f 46/41/60 45/42/60 48/43/60
f 48/43/60 47/44/60 46/41/60
f 47/44/61 48/43/61 50/45/61
f 50/45/62 49/46/62 47/44/62
f 51/47/4 52/10/4 53/48/4
f 53/48/4 54/49/4 51/47/4
f 55/9/2 56/50/2 57/51/2
f 57/51/2 58/52/2 55/9/2
f 56/50/63 51/47/63 54/49/63
f 54/49/64 57/51/64 56/50/64
f 58/53/6 57/51/6 54/49/6
f 54/49/6 53/54/6 58/53/6
f 59/1/1 60/2/1 61/3/1
f 61/3/1 62/4/1 59/1/1
f 63/5/2 64/6/2 65/7/2
f 65/7/2 66/8/2 63/5/2
f 64/9/3 67/10/3 68/11/3
f 68/11/3 65/12/3 64/9/3
f 67/5/4 69/6/4 70/7/4
f 70/7/4 68/8/4 67/5/4
f 67/13/5 64/14/5 63/15/5
f 63/15/5 69/16/5 67/13/5
f 68/14/6 70/15/6 66/16/6
f 66/16/6 65/13/6 68/14/6
f 71/17/7 72/18/7 73/19/7
f 71/17/7 73/19/7 74/20/7
f 72/18/8 71/17/8 74/20/8
f 72/18/8 74/20/8 73/19/8
f 75/21/9 76/22/9 72/18/9
f 75/21/10 72/18/10 71/17/10
f 76/22/11 75/21/11 71/17/11
f 76/22/12 71/17/12 72/18/12
f 77/23/13 78/24/13 76/22/13
f 77/23/13 76/22/13 75/21/13
f 78/24/14 77/23/14 75/21/14
f 78/24/14 75/21/14 76/22/14
f 79/25/15 80/26/15 78/24/15
f 79/25/16 78/24/16 77/23/16
f 80/26/17 79/25/17 77/23/17
f 80/26/18 77/23/18 78/24/18
f 81/27/19 82/28/19 80/26/19
f 81/27/19 80/26/19 79/25/19
f 82/28/20 81/27/20 79/25/20
f 82/28/20 79/25/20 80/26/20
f 83/29/21 84/30/21 82/28/21
f 83/29/22 82/28/22 81/27/22
f 84/30/23 83/29/23 81/27/23
f 84/30/24 81/27/24 82/28/24
f 85/31/25 86/32/25 84/30/25
f 85/31/26 84/30/26 83/29/26
f 86/32/27 85/31/27 83/29/27
f 86/32/28 83/29/28 84/30/28
f 87/33/29 88/34/29 86/32/29
f 87/33/30 86/32/30 85/31/30
f 88/34/31 87/33/31 85/31/31
f 88/34/32 85/31/32 86/32/32
f 89/31/33 90/32/33 88/34/33
f 89/31/29 88/34/29 87/33/29
f 90/32/34 89/31/34 87/33/34
f 90/32/31 87/33/31 88/34/31
f 91/29/35 92/30/35 90/32/35
f 91/29/36 90/32/36 89/31/36
f 92/30/37 91/29/37 89/31/37
f 92/30/38 89/31/38 90/32/38
f 93/27/39 94/28/39 92/30/39
f 93/27/40 92/30/40 91/29/40
f 94/28/41 93/27/41 91/29/41
f 94/28/42 91/29/42 92/30/42
f 95/25/43 96/26/43 94/28/43
f 95/25/43 94/28/43 93/27/43
f 96/26/44 95/25/44 93/27/44
f 96/26/44 93/27/44 94/28/44
f 97/23/45 98/24/45 96/26/45
f 97/23/46 96/26/46 95/25/46
f 98/24/47 97/23/47 95/25/47
f 98/24/48 95/25/48 96/26/48
f 99/21/49 100/22/49 98/24/49
f 99/21/49 98/24/49 97/23/49
f 100/22/50 99/21/50 97/23/50
f 100/22/50 97/23/50 98/24/50
f 101/17/51 102/18/51 100/22/51
f 101/17/52 100/22/52 99/21/52
f 102/18/53 101/17/53 99/21/53
f 102/18/54 99/21/54 100/22/54
f 74/20/55 73/19/55 102/18/55
f 74/20/55 102/18/55 101/17/55
f 73/19/56 74/20/56 101/17/56
f 73/19/56 101/17/56 102/18/56
f 103/17/65 104/18/65 105/19/65
f 103/17/65 105/19/65 106/20/65
f 104/18/66 103/17/66 106/20/66
f 104/18/66 106/20/66 105/19/66
f 107/21/67 108/22/67 104/18/67
f 107/21/67 104/18/67 103/17/67
f 108/22/68 107/21/68 103/17/68
f 108/22/68 103/17/68 104/18/68
f 109/23/69 110/24/69 108/22/69
f 109/23/69 108/22/69 107/21/69
f 110/24/70 109/23/70 107/21/70
f 110/24/70 107/21/70 108/22/70
f 111/25/71 112/26/71 110/24/71
f 111/25/71 110/24/71 109/23/71
f 112/26/72 111/25/72 109/23/72
f 112/26/72 109/23/72 110/24/72
f 113/27/73 114/28/73 112/26/73
f 113/27/73 112/26/73 111/25/73
f 114/28/74 113/27/74 111/25/74
f 114/28/74 111/25/74 112/26/74
f 115/29/75 116/30/75 114/28/75
f 115/29/76 114/28/76 113/27/76
f 116/30/77 115/29/77 113/27/77
f 116/30/78 113/27/78 114/28/78
f 117/31/79 118/32/79 116/30/79
f 117/31/80 116/30/80 115/29/80
f 118/32/81 117/31/81 115/29/81
f 118/32/82 115/29/82 116/30/82
f 119/33/83 120/34/83 118/32/83
f 119/33/84 118/32/84 117/31/84
f 120/34/85 119/33/85 117/31/85
f 120/34/86 117/31/86 118/32/86
f 121/31/87 122/32/87 120/34/87
f 121/31/88 120/34/88 119/33/88
f 122/32/89 121/31/89 119/33/89
f 122/32/90 119/33/90 120/34/90
f 123/29/91 124/30/91 122/32/91
f 123/29/92 122/32/92 121/31/92
f 124/30/93 123/29/93 121/31/93
f 124/30/94 121/31/94 122/32/94
f 125/27/95 126/28/95 124/30/95
f 125/27/96 124/30/96 123/29/96
f 126/28/97 125/27/97 123/29/97
f 126/28/98 123/29/98 124/30/98
f 127/25/99 128/26/99 126/28/99
f 127/25/99 126/28/99 125/27/99
f 128/26/100 127/25/100 125/27/100
f 128/26/100 125/27/100 126/28/100
f 129/23/101 130/24/101 128/26/101
f 129/23/101 128/26/101 127/25/101
f 130/24/102 129/23/102 127/25/102
f 130/24/102 127/25/102 128/26/102
f 131/21/103 132/22/103 130/24/103
f 131/21/103 130/24/103 129/23/103
f 132/22/104 131/21/104 129/23/104
f 132/22/104 129/23/104 130/24/104
f 133/17/105 134/18/105 132/22/105
f 133/17/105 132/22/105 131/21/105
f 134/18/106 133/17/106 131/21/106
f 134/18/106 131/21/106 132/22/106
f 106/20/107 105/19/107 134/18/107
f 106/20/107 134/18/107 133/17/107
f 105/19/108 106/20/108 133/17/108
f 105/19/108 133/17/108 134/18/108
f 135/17/65 136/18/65 137/19/65
f 135/17/65 137/19/65 138/20/65
f 136/18/66 135/17/66 138/20/66
f 136/18/66 138/20/66 137/19/66
f 139/21/67 140/22/67 136/18/67
f 139/21/67 136/18/67 135/17/67
f 140/22/68 139/21/68 135/17/68
f 140/22/68 135/17/68 136/18/68
f 141/23/109 142/24/109 140/22/109
f 141/23/110 140/22/110 139/21/110
f 142/24/111 141/23/111 139/21/111
f 142/24/112 139/21/112 140/22/112
f 143/25/113 144/26/113 142/24/113
f 143/25/113 142/24/113 141/23/113
f 144/26/114 143/25/114 141/23/114
f 144/26/114 141/23/114 142/24/114
f 145/27/115 146/28/115 144/26/115
f 145/27/115 144/26/115 143/25/115
f 146/28/116 145/27/116 143/25/116
f 146/28/116 143/25/116 144/26/116
f 147/29/117 148/30/117 146/28/117
f 147/29/118 146/28/118 145/27/118
f 148/30/119 147/29/119 145/27/119
f 148/30/120 145/27/120 146/28/120
f 149/31/79 150/32/79 148/30/79
f 149/31/80 148/30/80 147/29/80
f 150/32/81 149/31/81 147/29/81
f 150/32/82 147/29/82 148/30/82
f 151/33/83 152/34/83 150/32/83
f 151/33/84 150/32/84 149/31/84
f 152/34/121 151/33/121 149/31/121
f 152/34/86 149/31/86 150/32/86
f 153/31/87 154/32/87 152/34/87
f 153/31/122 152/34/122 151/33/122
f 154/32/89 153/31/89 151/33/89
f 154/32/90 151/33/90 152/34/90
f 155/29/91 156/30/91 154/32/91
f 155/29/92 154/32/92 153/31/92
f 156/30/93 155/29/93 153/31/93
f 156/30/94 153/31/94 154/32/94
f 157/27/123 158/28/123 156/30/123
f 157/27/124 156/30/124 155/29/124
f 158/28/125 157/27/125 155/29/125
f 158/28/126 155/29/126 156/30/126
f 159/25/127 160/26/127 158/28/127
f 159/25/127 158/28/127 157/27/127
f 160/26/128 159/25/128 157/27/128
f 160/26/128 157/27/128 158/28/128
f 161/23/129 162/24/129 160/26/129
f 161/23/129 160/26/129 159/25/129
f 162/24/130 161/23/130 159/25/130
f 162/24/130 159/25/130 160/26/130
f 163/21/131 164/22/131 162/24/131
f 163/21/132 162/24/132 161/23/132
f 164/22/133 163/21/133 161/23/133
f 164/22/134 161/23/134 162/24/134
f 165/17/105 166/18/105 164/22/105
f 165/17/105 164/22/105 163/21/105
f 166/18/106 165/17/106 163/21/106
f 166/18/106 163/21/106 164/22/106
f 138/20/107 137/19/107 166/18/107
f 138/20/107 166/18/107 165/17/107
f 137/19/108 138/20/108 165/17/108
f 137/19/108 165/17/108 166/18/108
f 167/17/65 168/18/65 169/19/65
f 167/17/65 169/19/65 170/20/65
f 168/18/66 167/17/66 170/20/66
f 168/18/66 170/20/66 169/19/66
f 171/21/67 172/22/67 168/18/67
f 171/21/67 168/18/67 167/17/67
f 172/22/68 171/21/68 167/17/68
f 172/22/68 167/17/68 168/18/68
f 173/23/109 174/24/109 172/22/109
f 173/23/110 172/22/110 171/21/110
f 174/24/111 173/23/111 171/21/111
f 174/24/112 171/21/112 172/22/112
f 175/25/113 176/26/113 174/24/113
f 175/25/113 174/24/113 173/23/113
f 176/26/114 175/25/114 173/23/114
f 176/26/114 173/23/114 174/24/114
f 177/27/73 178/28/73 176/26/73
f 177/27/73 176/26/73 175/25/73
f 178/28/74 177/27/74 175/25/74
f 178/28/74 175/25/74 176/26/74
f 179/29/75 180/30/75 178/28/75
f 179/29/76 178/28/76 177/27/76
f 180/30/77 179/29/77 177/27/77
f 180/30/78 177/27/78 178/28/78
f 181/31/79 182/32/79 180/30/79
f 181/31/80 180/30/80 179/29/80
f 182/32/81 181/31/81 179/29/81
f 182/32/82 179/29/82 180/30/82
f 183/33/135 184/34/135 182/32/135
f 183/33/84 182/32/84 181/31/84
f 184/34/85 183/33/85 181/31/85
f 184/34/86 181/31/86 182/32/86
f 185/31/87 186/32/87 184/34/87
f 185/31/88 184/34/88 183/33/88
f 186/32/89 185/31/89 183/33/89
f 186/32/136 183/33/136 184/34/136
f 187/29/91 188/30/91 186/32/91
f 187/29/92 186/32/92 185/31/92
f 188/30/93 187/29/93 185/31/93
f 188/30/94 185/31/94 186/32/94
f 189/27/95 190/28/95 188/30/95
f 189/27/96 188/30/96 187/29/96
f 190/28/97 189/27/97 187/29/97
f 190/28/98 187/29/98 188/30/98
f 191/25/99 192/26/99 190/28/99
f 191/25/99 190/28/99 189/27/99
f 192/26/100 191/25/100 189/27/100
f 192/26/100 189/27/100 190/28/100
f 193/23/129 194/24/129 192/26/129
f 193/23/129 192/26/129 191/25/129
f 194/24/130 193/23/130 191/25/130
f 194/24/130 191/25/130 192/26/130
f 195/21/131 196/22/131 194/24/131
f 195/21/132 194/24/132 193/23/132
f 196/22/133 195/21/133 193/23/133
f 196/22/134 193/23/134 194/24/134
f 197/17/105 198/18/105 196/22/105
f 197/17/105 196/22/105 195/21/105
f 198/18/106 197/17/106 195/21/106
f 198/18/106 195/21/106 196/22/106
f 170/20/107 169/19/107 198/18/107
f 170/20/107 198/18/107 197/17/107
f 169/19/108 170/20/108 197/17/108
f 169/19/108 197/17/108 198/18/108
f 199/17/65 200/18/65 201/19/65
f 199/17/65 201/19/65 202/20/65
f 200/18/66 199/17/66 202/20/66
f 200/18/66 202/20/66 201/19/66
f 203/21/67 204/22/67 200/18/67
f 203/21/67 200/18/67 199/17/67
f 204/22/68 203/21/68 199/17/68
f 204/22/68 199/17/68 200/18/68
f 205/23/110 206/24/110 204/22/110
f 205/23/110 204/22/110 203/21/110
f 206/24/112 205/23/112 203/21/112
f 206/24/112 203/21/112 204/22/112
f 207/25/113 208/26/113 206/24/113
f 207/25/113 206/24/113 205/23/113
f 208/26/114 207/25/114 205/23/114
f 208/26/114 205/23/114 206/24/114
f 209/27/137 210/28/137 208/26/137
f 209/27/115 208/26/115 207/25/115
f 210/28/138 209/27/138 207/25/138
f 210/28/74 207/25/74 208/26/74
f 211/29/75 212/30/75 210/28/75
f 211/29/139 210/28/139 209/27/139
f 212/30/119 211/29/119 209/27/119
f 212/30/140 209/27/140 210/28/140
f 213/31/141 214/32/141 212/30/141
f 213/31/80 212/30/80 211/29/80
f 214/32/142 213/31/142 211/29/142
f 214/32/143 211/29/143 212/30/143
f 215/33/144 216/34/144 214/32/144
f 215/33/145 214/32/145 213/31/145
f 216/34/146 215/33/146 213/31/146
f 216/34/147 213/31/147 214/32/147
f 217/31/148 218/32/148 216/34/148
f 217/31/149 216/34/149 215/33/149
f 218/32/150 217/31/150 215/33/150
f 218/32/151 215/33/151 216/34/151
f 219/29/152 220/30/152 218/32/152
f 219/29/153 218/32/153 217/31/153
f 220/30/93 219/29/93 217/31/93
f 220/30/154 217/31/154 218/32/154
f 221/27/95 222/28/95 220/30/95
f 221/27/96 220/30/96 219/29/96
f 222/28/97 221/27/97 219/29/97
f 222/28/98 219/29/98 220/30/98
f 223/25/99 224/26/99 222/28/99
f 223/25/99 222/28/99 221/27/99
f 224/26/100 223/25/100 221/27/100
f 224/26/100 221/27/100 222/28/100
f 225/23/129 226/24/129 224/26/129
f 225/23/129 224/26/129 223/25/129
f 226/24/130 225/23/130 223/25/130
f 226/24/130 223/25/130 224/26/130
f 227/21/131 228/22/131 226/24/131
f 227/21/131 226/24/131 225/23/131
f 228/22/133 227/21/133 225/23/133
f 228/22/133 225/23/133 226/24/133
f 229/17/105 230/18/105 228/22/105
f 229/17/105 228/22/105 227/21/105
f 230/18/106 229/17/106 227/21/106
f 230/18/106 227/21/106 228/22/106
f 202/20/107 201/19/107 230/18/107
f 202/20/107 230/18/107 229/17/107
f 201/19/108 202/20/108 229/17/108
f 201/19/108 229/17/108 230/18/108
f 231/17/65 232/18/65 233/19/65
f 231/17/65 233/19/65 234/20/65
f 232/18/66 231/17/66 234/20/66
f 232/18/66 234/20/66 233/19/66
f 235/21/67 236/22/67 232/18/67
f 235/21/67 232/18/67 231/17/67
f 236/22/68 235/21/68 231/17/68
f 236/22/68 231/17/68 232/18/68
f 237/23/110 238/24/110 236/22/110
f 237/23/109 236/22/109 235/21/109
f 238/24/112 237/23/112 235/21/112
f 238/24/111 235/21/111 236/22/111
f 239/25/155 240/26/155 238/24/155
f 239/25/155 238/24/155 237/23/155
f 240/26/156 239/25/156 237/23/156
f 240/26/156 237/23/156 238/24/156
f 241/27/157 242/28/157 240/26/157
f 241/27/157 240/26/157 239/25/157
f 242/28/158 241/27/158 239/25/158
f 242/28/158 239/25/158 240/26/158
f 243/29/117 244/30/117 242/28/117
f 243/29/118 242/28/118 241/27/118
f 244/30/119 243/29/119 241/27/119
f 244/30/120 241/27/120 242/28/120
f 245/31/79 246/32/79 244/30/79
f 245/31/80 244/30/80 243/29/80
f 246/32/81 245/31/81 243/29/81
f 246/32/82 243/29/82 244/30/82
f 247/33/83 248/34/83 246/32/83
f 247/33/84 246/32/84 245/31/84
f 248/34/85 247/33/85 245/31/85
f 248/34/86 245/31/86 246/32/86
f 249/31/87 250/32/87 248/34/87
f 249/31/88 248/34/88 247/33/88
f 250/32/89 249/31/89 247/33/89
f 250/32/90 247/33/90 248/34/90
f 251/29/91 252/30/91 250/32/91
f 251/29/92 250/32/92 249/31/92
f 252/30/93 251/29/93 249/31/93
f 252/30/94 249/31/94 250/32/94
f 253/27/123 254/28/123 252/30/123
f 253/27/124 252/30/124 251/29/124
f 254/28/125 253/27/125 251/29/125
f 254/28/126 251/29/126 252/30/126
f 255/25/159 256/26/159 254/28/159
f 255/25/159 254/28/159 253/27/159
f 256/26/160 255/25/160 253/27/160
f 256/26/160 253/27/160 254/28/160
f 257/23/161 258/24/161 256/26/161
f 257/23/161 256/26/161 255/25/161
f 258/24/162 257/23/162 255/25/162
f 258/24/162 255/25/162 256/26/162
f 259/21/132 260/22/132 258/24/132
f 259/21/131 258/24/131 257/23/131
f 260/22/134 259/21/134 257/23/134
f 260/22/133 257/23/133 258/24/133
f 261/17/105 262/18/105 260/22/105
f 261/17/105 260/22/105 259/21/105
f 262/18/106 261/17/106 259/21/106
f 262/18/106 259/21/106 260/22/106
f 234/20/107 233/19/107 262/18/107
f 234/20/107 262/18/107 261/17/107
f 233/19/108 234/20/108 261/17/108
f 233/19/108 261/17/108 262/18/108
f 263/55/163 264/56/163 265/57/163
f 265/57/163 266/58/163 263/55/163
f 266/58/164 265/57/164 46/59/164
f 46/59/57 45/60/57 266/58/57
f 264/61/165 263/62/165 266/63/165
f 266/63/165 265/64/165 264/61/165
f 265/64/3 266/63/3 45/65/3
f 45/65/166 46/66/166 265/64/166
f 267/67/4 268/68/4 52/48/4
f 52/48/4 51/49/4 267/67/4
f 269/69/2 270/70/2 56/51/2
f 56/51/2 55/52/2 269/69/2
f 270/70/167 267/67/167 51/49/167
f 51/49/168 56/51/168 270/70/168
f 269/71/5 268/72/5 267/67/5
f 267/67/5 270/70/5 269/71/5
