# generated by tools/objdedupe/dedupe.py -- do not hand-edit.
# Re-run the tool after touching azd_1svet.obj, azd_2svet.obj, azd_3svet.obj, azd_4svet.obj, azd_5svet.obj, azd_6svet.obj.
o stit_6svet_S
v 0.034979 2.958366 0.329456
vt 0.411000 0.078000
vn -0.195800 -0.980600 -0.000000
v 0.034979 2.958366 0.642041
vt 0.247000 0.078000
v -0.000000 2.965350 0.642041
vt 0.247000 0.081000
v -0.000000 2.965350 0.329394
vt 0.411000 0.081000
vn 0.195800 0.980600 -0.000000
v 0.064705 2.938528 0.329456
vt 0.411000 0.070000
vn -0.555100 -0.831800 -0.000000
v 0.064705 2.938528 0.642041
vt 0.247000 0.070000
vn 0.555100 0.831800 -0.000000
v 0.084542 2.908803 0.329456
vt 0.411000 0.058000
vn -0.831800 -0.555100 -0.000000
v 0.084542 2.908803 0.642041
vt 0.247000 0.058000
vn 0.831800 0.555100 -0.000000
v 0.091464 2.873824 0.329394
vt 0.411000 0.044000
vn -0.981000 -0.194100 -0.000000
v 0.091464 2.873824 0.642041
vt 0.247000 0.044000
vn 0.981000 0.194100 -0.000000
v 0.084542 2.838474 0.329456
vt 0.411000 0.030000
vn -0.981400 0.192200 -0.000000
v 0.084542 2.838474 0.392369
vt 0.372000 0.030000
vn 0.981400 -0.192200 -0.000000
v 0.064705 2.809119 0.329456
vt 0.411000 0.018000
vn -0.830000 0.557800 0.001400
v 0.064705 2.808995 0.377784
vt 0.381000 0.018000
vn -0.828500 0.559900 -0.000000
vn 0.828500 -0.559900 -0.001400
vn 0.829600 -0.558300 -0.000000
v 0.034979 2.789281 0.329456
vt 0.411000 0.010000
vn -0.558700 0.829400 0.005300
v 0.034979 2.789034 0.368019
vt 0.387000 0.010000
vn -0.555100 0.831800 0.002100
vn 0.555100 -0.831800 -0.005300
vn 0.558000 -0.829900 -0.002100
v -0.000000 2.782298 0.329456
vt 0.411000 0.007000
vn -0.190900 0.981600 0.001700
v -0.000000 2.782236 0.364559
vt 0.391000 0.007000
vn -0.195800 0.980600 0.006300
vn 0.195800 -0.980600 -0.001700
vn 0.191400 -0.981500 -0.006300
v -0.034979 2.789281 0.329456
vn 0.191400 0.981500 0.006300
v -0.034979 2.789034 0.368019
vn 0.195800 0.980600 0.001700
vn -0.195800 -0.980600 -0.006300
vn -0.190900 -0.981600 -0.001700
v -0.064705 2.809119 0.329456
vn 0.558000 0.829900 0.002100
v -0.064705 2.808995 0.377784
vn 0.555100 0.831800 0.005300
vn -0.555100 -0.831800 -0.002100
vn -0.558700 -0.829400 -0.005300
v -0.084542 2.838474 0.329456
vn 0.829600 0.558300 -0.000000
v -0.084542 2.838474 0.392369
vn 0.828500 0.559900 0.001400
vn -0.828500 -0.559900 -0.000000
vn -0.830000 -0.557800 -0.001400
v -0.091464 2.873824 0.329394
vn 0.981400 0.192200 -0.000000
v -0.091464 2.873824 0.642041
vn -0.981400 -0.192200 -0.000000
v -0.084542 2.908803 0.329456
vn 0.981000 -0.194100 -0.000000
v -0.084542 2.908803 0.642041
vn -0.981000 0.194100 -0.000000
v -0.064705 2.938528 0.329456
vn 0.831800 -0.555100 -0.000000
v -0.064705 2.938528 0.642041
vn -0.831800 0.555100 -0.000000
v -0.034979 2.958366 0.329456
vn 0.555100 -0.831800 -0.000000
v -0.034979 2.958366 0.642041
vn -0.555100 0.831800 -0.000000
vn 0.195800 -0.980600 -0.000000
vn -0.195800 0.980600 -0.000000
v 0.034979 3.143766 0.329456
v 0.034979 3.143766 0.642041
v -0.000000 3.150749 0.642041
v -0.000000 3.150749 0.329394
v 0.064705 3.123929 0.329456
v 0.064705 3.123929 0.642041
v 0.084542 3.094203 0.329456
v 0.084542 3.094203 0.642041
v 0.091464 3.059224 0.329394
v 0.091464 3.059224 0.642041
v 0.084542 3.023874 0.329456
v 0.084542 3.023874 0.392369
v 0.064705 2.994519 0.329456
v 0.064705 2.994396 0.377784
v 0.034979 2.974682 0.329456
v 0.034979 2.974434 0.368019
v -0.000000 2.967698 0.329456
v -0.000000 2.967636 0.364559
v -0.034979 2.974682 0.329456
v -0.034979 2.974434 0.368019
v -0.064705 2.994519 0.329456
v -0.064705 2.994396 0.377784
v -0.084542 3.023874 0.329456
v -0.084542 3.023874 0.392369
v -0.091464 3.059224 0.329394
v -0.091464 3.059224 0.642041
v -0.084542 3.094203 0.329456
v -0.084542 3.094203 0.642041
v -0.064705 3.123929 0.329456
v -0.064705 3.123929 0.642041
v -0.034979 3.143766 0.329456
v -0.034979 3.143766 0.642041
v 0.034979 3.329166 0.329456
v 0.034979 3.329166 0.642041
v -0.000000 3.336150 0.642041
v -0.000000 3.336150 0.329395
v 0.064705 3.309328 0.329456
v 0.064705 3.309328 0.642041
v 0.084542 3.279664 0.329456
vn -0.831200 -0.555900 -0.000000
v 0.084542 3.279664 0.642041
vn -0.831300 -0.555900 -0.000000
vn 0.831200 0.555900 -0.000000
vn 0.831300 0.555900 -0.000000
v 0.091464 3.244624 0.329394
vn -0.981000 -0.193800 -0.000000
v 0.091464 3.244624 0.642041
vn 0.981000 0.193800 -0.000000
v 0.084542 3.209336 0.329456
vn -0.981300 0.192500 -0.000000
v 0.084542 3.209336 0.392369
vn 0.981300 -0.192500 -0.000000
v 0.064705 3.179919 0.329456
vn -0.830500 0.557000 0.001400
v 0.064705 3.179796 0.377784
vn -0.829100 0.559100 -0.000000
vn 0.829100 -0.559100 -0.001400
vn 0.830200 -0.557500 -0.000000
v 0.034979 3.160081 0.329456
v 0.034979 3.159834 0.368019
vn 0.558000 -0.829800 -0.002100
v -0.000000 3.153098 0.329456
v -0.000000 3.153036 0.364559
vn 0.195800 -0.980700 -0.001700
v -0.034979 3.160081 0.329456
v -0.034979 3.159834 0.368019
vn 0.195800 0.980700 0.001700
v -0.064705 3.179919 0.329456
v -0.064705 3.179796 0.377784
v -0.084542 3.209336 0.329456
vn 0.830200 0.557500 -0.000000
v -0.084542 3.209336 0.392369
vn 0.829100 0.559100 0.001400
vn -0.829100 -0.559100 -0.000000
vn -0.830500 -0.557000 -0.001400
v -0.091464 3.244624 0.329394
vn 0.981300 0.192500 -0.000000
v -0.091464 3.244624 0.642041
vn -0.981300 -0.192500 -0.000000
v -0.084542 3.279664 0.329456
vn 0.981000 -0.193800 -0.000000
v -0.084542 3.279664 0.642041
vn -0.981000 0.193800 -0.000000
v -0.064705 3.309328 0.329456
vn 0.831300 -0.555900 -0.000000
v -0.064705 3.309328 0.642041
vn 0.831200 -0.555900 -0.000000
vn -0.831300 0.555900 -0.000000
vn -0.831200 0.555900 -0.000000
v -0.034979 3.329166 0.329456
v -0.034979 3.329166 0.642041
v 0.034979 3.514566 0.329456
v 0.034979 3.514566 0.642041
v -0.000000 3.521549 0.642041
v -0.000000 3.521549 0.329395
v 0.064705 3.494728 0.329456
v 0.064705 3.494728 0.642041
v 0.084542 3.465065 0.329456
v 0.084542 3.465065 0.642041
v 0.091464 3.430024 0.329395
v 0.091464 3.430024 0.642041
v 0.084542 3.394674 0.329456
v 0.084542 3.394674 0.392369
v 0.064705 3.365319 0.329456
v 0.064705 3.365196 0.377784
v 0.034979 3.345481 0.329456
v 0.034979 3.345234 0.368020
v -0.000000 3.338498 0.329456
v -0.000000 3.338436 0.364559
v -0.034979 3.345481 0.329456
v -0.034979 3.345234 0.368020
v -0.064705 3.365319 0.329456
v -0.064705 3.365196 0.377784
vn -0.558700 -0.829300 -0.005300
v -0.084542 3.394674 0.329456
v -0.084542 3.394674 0.392369
v -0.091464 3.430024 0.329395
v -0.091464 3.430024 0.642041
vn -0.981400 -0.192100 -0.000000
v -0.084542 3.465065 0.329456
v -0.084542 3.465065 0.642041
v -0.064705 3.494728 0.329456
v -0.064705 3.494728 0.642041
v -0.034979 3.514566 0.329456
v -0.034979 3.514566 0.642041
v 0.034979 3.699966 0.329456
v 0.034979 3.699966 0.642041
v -0.000000 3.706949 0.642041
v -0.000000 3.706949 0.329395
v 0.064705 3.680129 0.329456
v 0.064705 3.680129 0.642041
v 0.084542 3.650464 0.329456
v 0.084542 3.650464 0.642041
v 0.091464 3.615424 0.329395
v 0.091464 3.615424 0.642041
v 0.084542 3.580136 0.329456
vn -0.981600 0.190900 0.000200
v 0.084542 3.580074 0.392369
vn 0.981300 -0.192500 -0.000200
v 0.064705 3.550719 0.329456
v 0.064705 3.550596 0.377784
vn -0.829100 0.559100 0.000500
vn 0.829800 -0.558100 -0.000500
v 0.034979 3.530881 0.329456
vn -0.557200 0.830400 0.004000
v 0.034979 3.530696 0.368020
vn 0.555100 -0.831800 -0.004000
vn 0.556800 -0.830700 -0.002100
v -0.000000 3.523898 0.329456
vn -0.190800 0.981600 -0.000000
v -0.000000 3.523898 0.364559
vn -0.195800 0.980600 0.004700
vn 0.191200 -0.981500 -0.004700
v -0.034979 3.530881 0.329456
vn 0.191200 0.981500 0.004700
v -0.034979 3.530696 0.368020
vn -0.195800 -0.980600 -0.004700
vn -0.190800 -0.981600 -0.000000
v -0.064705 3.550719 0.329456
vn 0.556800 0.830700 0.002100
v -0.064705 3.550596 0.377784
vn 0.555100 0.831800 0.004000
vn -0.557200 -0.830400 -0.004000
v -0.084542 3.580074 0.329456
v -0.084542 3.580074 0.392369
v -0.091464 3.615424 0.329395
v -0.091464 3.615424 0.642041
v -0.084542 3.650464 0.329456
v -0.084542 3.650464 0.642041
v -0.064705 3.680129 0.329456
v -0.064705 3.680129 0.642041
v -0.034979 3.699966 0.329456
v -0.034979 3.699966 0.642041
v 0.034979 3.885304 0.329456
v 0.034979 3.885304 0.642041
v -0.000000 3.892288 0.642041
v -0.000000 3.892288 0.329395
v 0.064705 3.865467 0.329456
v 0.064705 3.865467 0.642041
v 0.084542 3.835803 0.329456
v 0.084542 3.835803 0.642041
v 0.091464 3.800700 0.329395
vn -0.981100 -0.193500 -0.000000
v 0.091464 3.800700 0.642041
vn 0.981100 0.193500 -0.000000
v 0.084542 3.765536 0.329456
vn -0.981200 0.193100 -0.000000
v 0.084542 3.765536 0.392369
vn 0.981200 -0.193100 -0.000000
v 0.064705 3.736119 0.329456
v 0.064705 3.735996 0.377784
v 0.034979 3.716281 0.329456
v 0.034979 3.716034 0.368020
v -0.000000 3.709298 0.329456
v -0.000000 3.709236 0.364559
v -0.034979 3.716281 0.329456
v -0.034979 3.716034 0.368020
v -0.064705 3.736119 0.329456
v -0.064705 3.735996 0.377784
v -0.084542 3.765536 0.329456
v -0.084542 3.765536 0.392369
v -0.091464 3.800700 0.329395
vn 0.981200 0.193100 -0.000000
v -0.091464 3.800700 0.642041
vn -0.981200 -0.193100 -0.000000
v -0.084542 3.835803 0.329456
vn 0.981100 -0.193500 -0.000000
v -0.084542 3.835803 0.642041
vn -0.981100 0.193500 -0.000000
v -0.064705 3.865467 0.329456
v -0.064705 3.865467 0.642041
v -0.034979 3.885304 0.329456
v -0.034979 3.885304 0.642041
v 0.095110 4.045799 0.329271
vt 0.367000 0.996000
vn 0.001600 -0.007700 1.000000
v -0.095110 4.045799 0.329580
vt 0.263000 0.996000
v -0.184288 4.002972 0.329395
vt 0.220000 0.984000
vn -0.000200 0.004000 1.000000
v 0.184288 4.002972 0.329456
vt 0.412000 0.984000
vn -0.000200 -0.000000 1.000000
v -0.184288 2.671676 0.329456
vt 0.220000 0.279000
vn 0.000200 -0.000000 1.000000
v 0.184288 2.671676 0.329394
vt 0.412000 0.279000
vn 0.000200 0.000400 1.000000
v -0.095110 2.629281 0.329456
vt 0.263000 0.267000
vn 0.000300 -0.000700 1.000000
v 0.095110 2.629281 0.329394
vt 0.367000 0.267000
vt 0.166000 0.996000
vn -0.001600 -0.007700 -1.000000
vt 0.052000 0.996000
vt 0.003000 0.984000
vn 0.000200 0.004000 -1.000000
vt 0.212000 0.984000
vn 0.000200 -0.000000 -1.000000
vt 0.003000 0.279000
vn -0.000200 -0.000000 -1.000000
vt 0.212000 0.279000
vn -0.000200 0.000400 -1.000000
vt 0.052000 0.267000
vn -0.000300 -0.000700 -1.000000
vt 0.166000 0.267000
v 0.092700 3.893462 0.209070
vt 0.471000 0.950000
vn 1.000000 -0.000000 -0.000000
v 0.092700 3.893462 0.329518
vt 0.418000 0.950000
v 0.092700 2.781186 0.329333
vt 0.418000 0.440000
v 0.092700 2.781186 0.209070
vt 0.471000 0.440000
v -0.092700 3.893462 0.329518
vt 0.590000 0.950000
vn -1.000000 -0.000000 -0.000000
v -0.092700 3.893462 0.209070
vt 0.533000 0.950000
v -0.092700 2.781186 0.209070
vt 0.533000 0.440000
v -0.092700 2.781186 0.329333
vt 0.590000 0.440000
vn -0.000000 -0.000000 -1.000000
vt 0.533000 0.995000
vn -0.000000 1.000000 -0.000000
vt 0.471000 0.995000
vt 0.533000 0.393000
vn -0.000000 -1.000000 -0.000000
vt 0.471000 0.393000
f 1/1/1 2/2/1 3/3/1
f 1/1/1 3/3/1 4/4/1
f 1/1/2 4/4/2 2/2/2
f 2/2/2 4/4/2 3/3/2
f 5/5/3 6/6/3 2/2/3
f 5/5/3 2/2/3 1/1/3
f 6/6/4 5/5/4 1/1/4
f 1/1/4 2/2/4 6/6/4
f 7/7/5 8/8/5 6/6/5
f 7/7/5 6/6/5 5/5/5
f 8/8/6 7/7/6 5/5/6
f 8/8/6 5/5/6 6/6/6
f 9/9/7 10/10/7 8/8/7
f 9/9/7 8/8/7 7/7/7
f 10/10/8 9/9/8 7/7/8
f 10/10/8 7/7/8 8/8/8
f 11/11/9 12/12/9 10/10/9
f 11/11/9 10/10/9 9/9/9
f 12/12/10 11/11/10 9/9/10
f 12/12/10 9/9/10 10/10/10
f 13/13/11 14/14/11 12/12/11
f 13/13/12 12/12/12 11/11/12
f 14/14/13 13/13/13 11/11/13
f 14/14/14 11/11/14 12/12/14
f 15/15/15 16/16/15 14/14/15
f 15/15/16 14/14/16 13/13/16
f 16/16/17 15/15/17 13/13/17
f 16/16/18 13/13/18 14/14/18
f 17/17/19 18/18/19 16/16/19
f 17/17/20 16/16/20 15/15/20
f 18/18/21 17/17/21 15/15/21
f 18/18/22 15/15/22 16/16/22
f 19/15/23 20/16/23 18/18/23
f 19/15/24 18/18/24 17/17/24
f 20/16/25 19/15/25 17/17/25
f 20/16/26 17/17/26 18/18/26
f 21/13/27 22/14/27 20/16/27
f 21/13/28 20/16/28 19/15/28
f 22/14/29 21/13/29 19/15/29
f 22/14/30 19/15/30 20/16/30
f 23/11/31 24/12/31 22/14/31
f 23/11/32 22/14/32 21/13/32
f 24/12/33 23/11/33 21/13/33
f 24/12/34 21/13/34 22/14/34
f 25/9/35 26/10/35 24/12/35
f 25/9/35 24/12/35 23/11/35
f 26/10/36 25/9/36 23/11/36
f 26/10/36 23/11/36 24/12/36
f 27/7/37 28/8/37 26/10/37
f 27/7/37 26/10/37 25/9/37
f 28/8/38 27/7/38 25/9/38
f 28/8/38 25/9/38 26/10/38
f 29/5/39 30/6/39 28/8/39
f 29/5/39 28/8/39 27/7/39
f 30/6/40 29/5/40 27/7/40
f 30/6/40 27/7/40 28/8/40
f 31/1/41 32/2/41 30/6/41
f 31/1/41 30/6/41 29/5/41
f 32/2/42 31/1/42 29/5/42
f 32/2/42 29/5/42 30/6/42
f 4/4/43 3/3/43 32/2/43
f 4/4/43 32/2/43 31/1/43
f 3/3/44 4/4/44 31/1/44
f 3/3/44 31/1/44 32/2/44
f 33/1/1 34/2/1 35/3/1
f 33/1/1 35/3/1 36/4/1
f 34/2/2 33/1/2 36/4/2
f 34/2/2 36/4/2 35/3/2
f 37/5/3 38/6/3 34/2/3
f 37/5/3 34/2/3 33/1/3
f 38/6/4 37/5/4 33/1/4
f 38/6/4 33/1/4 34/2/4
f 39/7/5 40/8/5 38/6/5
f 39/7/5 38/6/5 37/5/5
f 40/8/6 39/7/6 37/5/6
f 40/8/6 37/5/6 38/6/6
f 41/9/7 42/10/7 40/8/7
f 41/9/7 40/8/7 39/7/7
f 42/10/8 41/9/8 39/7/8
f 42/10/8 39/7/8 40/8/8
f 43/11/9 44/12/9 42/10/9
f 43/11/9 42/10/9 41/9/9
f 44/12/10 43/11/10 41/9/10
f 44/12/10 41/9/10 42/10/10
f 45/13/11 46/14/11 44/12/11
f 45/13/12 44/12/12 43/11/12
f 46/14/13 45/13/13 43/11/13
f 46/14/14 43/11/14 44/12/14
f 47/15/15 48/16/15 46/14/15
f 47/15/16 46/14/16 45/13/16
f 48/16/17 47/15/17 45/13/17
f 48/16/18 45/13/18 46/14/18
f 49/17/19 50/18/19 48/16/19
f 49/17/20 48/16/20 47/15/20
f 50/18/21 49/17/21 47/15/21
f 50/18/22 47/15/22 48/16/22
f 51/15/23 52/16/23 50/18/23
f 51/15/24 50/18/24 49/17/24
f 52/16/25 51/15/25 49/17/25
f 52/16/26 49/17/26 50/18/26
f 53/13/27 54/14/27 52/16/27
f 53/13/28 52/16/28 51/15/28
f 54/14/29 53/13/29 51/15/29
f 54/14/30 51/15/30 52/16/30
f 55/11/31 56/12/31 54/14/31
f 55/11/32 54/14/32 53/13/32
f 56/12/33 55/11/33 53/13/33
f 56/12/34 53/13/34 54/14/34
f 57/9/35 58/10/35 56/12/35
f 57/9/35 56/12/35 55/11/35
f 58/10/36 57/9/36 55/11/36
f 58/10/36 55/11/36 56/12/36
f 59/7/37 60/8/37 58/10/37
f 59/7/37 58/10/37 57/9/37
f 60/8/38 59/7/38 57/9/38
f 60/8/38 57/9/38 58/10/38
f 61/5/39 62/6/39 60/8/39
f 61/5/39 60/8/39 59/7/39
f 62/6/40 61/5/40 59/7/40
f 62/6/40 59/7/40 60/8/40
f 63/1/41 64/2/41 62/6/41
f 63/1/41 62/6/41 61/5/41
f 64/2/42 63/1/42 61/5/42
f 64/2/42 61/5/42 62/6/42
f 36/4/43 35/3/43 64/2/43
f 36/4/43 64/2/43 63/1/43
f 35/3/44 36/4/44 63/1/44
f 35/3/44 63/1/44 64/2/44
f 65/1/1 66/2/1 67/3/1
f 65/1/1 67/3/1 68/4/1
f 66/2/2 65/1/2 68/4/2
f 66/2/2 68/4/2 67/3/2
f 69/5/3 70/6/3 66/2/3
f 69/5/3 66/2/3 65/1/3
f 70/6/4 69/5/4 65/1/4
f 70/6/4 65/1/4 66/2/4
f 71/7/45 72/8/45 70/6/45
f 71/7/46 70/6/46 69/5/46
f 72/8/47 71/7/47 69/5/47
f 72/8/48 69/5/48 70/6/48
f 73/9/49 74/10/49 72/8/49
f 73/9/49 72/8/49 71/7/49
f 74/10/50 73/9/50 71/7/50
f 74/10/50 71/7/50 72/8/50
f 75/11/51 76/12/51 74/10/51
f 75/11/51 74/10/51 73/9/51
f 76/12/52 75/11/52 73/9/52
f 76/12/52 73/9/52 74/10/52
f 77/13/53 78/14/53 76/12/53
f 77/13/54 76/12/54 75/11/54
f 78/14/55 77/13/55 75/11/55
f 78/14/56 75/11/56 76/12/56
f 79/15/15 80/16/15 78/14/15
f 79/15/16 78/14/16 77/13/16
f 80/16/17 79/15/17 77/13/17
f 80/16/57 77/13/57 78/14/57
f 81/17/19 82/18/19 80/16/19
f 81/17/20 80/16/20 79/15/20
f 82/18/58 81/17/58 79/15/58
f 82/18/22 79/15/22 80/16/22
f 83/15/23 84/16/23 82/18/23
f 83/15/59 82/18/59 81/17/59
f 84/16/25 83/15/25 81/17/25
f 84/16/26 81/17/26 82/18/26
f 85/13/27 86/14/27 84/16/27
f 85/13/28 84/16/28 83/15/28
f 86/14/29 85/13/29 83/15/29
f 86/14/30 83/15/30 84/16/30
f 87/11/60 88/12/60 86/14/60
f 87/11/61 86/14/61 85/13/61
f 88/12/62 87/11/62 85/13/62
f 88/12/63 85/13/63 86/14/63
f 89/9/64 90/10/64 88/12/64
f 89/9/64 88/12/64 87/11/64
f 90/10/65 89/9/65 87/11/65
f 90/10/65 87/11/65 88/12/65
f 91/7/66 92/8/66 90/10/66
f 91/7/66 90/10/66 89/9/66
f 92/8/67 91/7/67 89/9/67
f 92/8/67 89/9/67 90/10/67
f 93/5/68 94/6/68 92/8/68
f 93/5/69 92/8/69 91/7/69
f 94/6/70 93/5/70 91/7/70
f 94/6/71 91/7/71 92/8/71
f 95/1/41 96/2/41 94/6/41
f 95/1/41 94/6/41 93/5/41
f 96/2/42 95/1/42 93/5/42
f 96/2/42 93/5/42 94/6/42
f 68/4/43 67/3/43 96/2/43
f 68/4/43 96/2/43 95/1/43
f 67/3/44 68/4/44 95/1/44
f 67/3/44 95/1/44 96/2/44
f 97/1/1 98/2/1 99/3/1
f 97/1/1 99/3/1 100/4/1
f 98/2/2 97/1/2 100/4/2
f 98/2/2 100/4/2 99/3/2
f 101/5/3 102/6/3 98/2/3
f 101/5/3 98/2/3 97/1/3
f 102/6/4 101/5/4 97/1/4
f 102/6/4 97/1/4 98/2/4
f 103/7/45 104/8/45 102/6/45
f 103/7/45 102/6/45 101/5/45
f 104/8/47 103/7/47 101/5/47
f 104/8/47 101/5/47 102/6/47
f 105/9/49 106/10/49 104/8/49
f 105/9/49 104/8/49 103/7/49
f 106/10/50 105/9/50 103/7/50
f 106/10/50 103/7/50 104/8/50
f 107/11/9 108/12/9 106/10/9
f 107/11/9 106/10/9 105/9/9
f 108/12/10 107/11/10 105/9/10
f 108/12/10 105/9/10 106/10/10
f 109/13/11 110/14/11 108/12/11
f 109/13/12 108/12/12 107/11/12
f 110/14/13 109/13/13 107/11/13
f 110/14/14 107/11/14 108/12/14
f 111/15/15 112/16/15 110/14/15
f 111/15/16 110/14/16 109/13/16
f 112/16/17 111/15/17 109/13/17
f 112/16/18 109/13/18 110/14/18
f 113/17/19 114/18/19 112/16/19
f 113/17/20 112/16/20 111/15/20
f 114/18/21 113/17/21 111/15/21
f 114/18/22 111/15/22 112/16/22
f 115/15/23 116/16/23 114/18/23
f 115/15/24 114/18/24 113/17/24
f 116/16/25 115/15/25 113/17/25
f 116/16/26 113/17/26 114/18/26
f 117/13/27 118/14/27 116/16/27
f 117/13/28 116/16/28 115/15/28
f 118/14/29 117/13/29 115/15/29
f 118/14/72 115/15/72 116/16/72
f 119/11/31 120/12/31 118/14/31
f 119/11/32 118/14/32 117/13/32
f 120/12/33 119/11/33 117/13/33
f 120/12/34 117/13/34 118/14/34
f 121/9/35 122/10/35 120/12/35
f 121/9/35 120/12/35 119/11/35
f 122/10/36 121/9/36 119/11/36
f 122/10/73 119/11/73 120/12/73
f 123/7/66 124/8/66 122/10/66
f 123/7/66 122/10/66 121/9/66
f 124/8/67 123/7/67 121/9/67
f 124/8/67 121/9/67 122/10/67
f 125/5/69 126/6/69 124/8/69
f 125/5/69 124/8/69 123/7/69
f 126/6/71 125/5/71 123/7/71
f 126/6/71 123/7/71 124/8/71
f 127/1/41 128/2/41 126/6/41
f 127/1/41 126/6/41 125/5/41
f 128/2/42 127/1/42 125/5/42
f 128/2/42 125/5/42 126/6/42
f 100/4/43 99/3/43 128/2/43
f 100/4/43 128/2/43 127/1/43
f 99/3/44 100/4/44 127/1/44
f 99/3/44 127/1/44 128/2/44
f 129/1/1 130/2/1 131/3/1
f 129/1/1 131/3/1 132/4/1
f 130/2/2 129/1/2 132/4/2
f 130/2/2 132/4/2 131/3/2
f 133/5/3 134/6/3 130/2/3
f 133/5/3 130/2/3 129/1/3
f 134/6/4 133/5/4 129/1/4
f 134/6/4 129/1/4 130/2/4
f 135/7/46 136/8/46 134/6/46
f 135/7/45 134/6/45 133/5/45
f 136/8/48 135/7/48 133/5/48
f 136/8/47 133/5/47 134/6/47
f 137/9/49 138/10/49 136/8/49
f 137/9/49 136/8/49 135/7/49
f 138/10/50 137/9/50 135/7/50
f 138/10/50 135/7/50 136/8/50
f 139/11/74 140/12/74 138/10/74
f 139/11/51 138/10/51 137/9/51
f 140/12/75 139/11/75 137/9/75
f 140/12/10 137/9/10 138/10/10
f 141/13/11 142/14/11 140/12/11
f 141/13/76 140/12/76 139/11/76
f 142/14/55 141/13/55 139/11/55
f 142/14/77 139/11/77 140/12/77
f 143/15/78 144/16/78 142/14/78
f 143/15/16 142/14/16 141/13/16
f 144/16/79 143/15/79 141/13/79
f 144/16/80 141/13/80 142/14/80
f 145/17/81 146/18/81 144/16/81
f 145/17/82 144/16/82 143/15/82
f 146/18/43 145/17/43 143/15/43
f 146/18/83 143/15/83 144/16/83
f 147/15/84 148/16/84 146/18/84
f 147/15/2 146/18/2 145/17/2
f 148/16/85 147/15/85 145/17/85
f 148/16/86 145/17/86 146/18/86
f 149/13/87 150/14/87 148/16/87
f 149/13/88 148/16/88 147/15/88
f 150/14/29 149/13/29 147/15/29
f 150/14/89 147/15/89 148/16/89
f 151/11/31 152/12/31 150/14/31
f 151/11/32 150/14/32 149/13/32
f 152/12/33 151/11/33 149/13/33
f 152/12/34 149/13/34 150/14/34
f 153/9/35 154/10/35 152/12/35
f 153/9/35 152/12/35 151/11/35
f 154/10/36 153/9/36 151/11/36
f 154/10/36 151/11/36 152/12/36
f 155/7/66 156/8/66 154/10/66
f 155/7/66 154/10/66 153/9/66
f 156/8/67 155/7/67 153/9/67
f 156/8/67 153/9/67 154/10/67
f 157/5/69 158/6/69 156/8/69
f 157/5/68 156/8/68 155/7/68
f 158/6/71 157/5/71 155/7/71
f 158/6/70 155/7/70 156/8/70
f 159/1/41 160/2/41 158/6/41
f 159/1/41 158/6/41 157/5/41
f 160/2/42 159/1/42 157/5/42
f 160/2/42 157/5/42 158/6/42
f 132/4/43 131/3/43 160/2/43
f 132/4/43 160/2/43 159/1/43
f 131/3/44 132/4/44 159/1/44
f 131/3/44 159/1/44 160/2/44
f 161/1/1 162/2/1 163/3/1
f 161/1/1 163/3/1 164/4/1
f 162/2/2 161/1/2 164/4/2
f 162/2/2 164/4/2 163/3/2
f 165/5/3 166/6/3 162/2/3
f 165/5/3 162/2/3 161/1/3
f 166/6/4 165/5/4 161/1/4
f 166/6/4 161/1/4 162/2/4
f 167/7/46 168/8/46 166/6/46
f 167/7/46 166/6/46 165/5/46
f 168/8/48 167/7/48 165/5/48
f 168/8/48 165/5/48 166/6/48
f 169/9/90 170/10/90 168/8/90
f 169/9/90 168/8/90 167/7/90
f 170/10/91 169/9/91 167/7/91
f 170/10/91 167/7/91 168/8/91
f 171/11/92 172/12/92 170/10/92
f 171/11/92 170/10/92 169/9/92
f 172/12/93 171/11/93 169/9/93
f 172/12/93 169/9/93 170/10/93
f 173/13/53 174/14/53 172/12/53
f 173/13/54 172/12/54 171/11/54
f 174/14/55 173/13/55 171/11/55
f 174/14/56 171/11/56 172/12/56
f 175/15/15 176/16/15 174/14/15
f 175/15/16 174/14/16 173/13/16
f 176/16/17 175/15/17 173/13/17
f 176/16/18 173/13/18 174/14/18
f 177/17/19 178/18/19 176/16/19
f 177/17/20 176/16/20 175/15/20
f 178/18/21 177/17/21 175/15/21
f 178/18/22 175/15/22 176/16/22
f 179/15/23 180/16/23 178/18/23
f 179/15/24 178/18/24 177/17/24
f 180/16/25 179/15/25 177/17/25
f 180/16/26 177/17/26 178/18/26
f 181/13/27 182/14/27 180/16/27
f 181/13/28 180/16/28 179/15/28
f 182/14/29 181/13/29 179/15/29
f 182/14/30 179/15/30 180/16/30
f 183/11/60 184/12/60 182/14/60
f 183/11/61 182/14/61 181/13/61
f 184/12/62 183/11/62 181/13/62
f 184/12/63 181/13/63 182/14/63
f 185/9/94 186/10/94 184/12/94
f 185/9/94 184/12/94 183/11/94
f 186/10/95 185/9/95 183/11/95
f 186/10/95 183/11/95 184/12/95
f 187/7/96 188/8/96 186/10/96
f 187/7/96 186/10/96 185/9/96
f 188/8/97 187/7/97 185/9/97
f 188/8/97 185/9/97 186/10/97
f 189/5/68 190/6/68 188/8/68
f 189/5/68 188/8/68 187/7/68
f 190/6/70 189/5/70 187/7/70
f 190/6/70 187/7/70 188/8/70
f 191/1/41 192/2/41 190/6/41
f 191/1/41 190/6/41 189/5/41
f 192/2/42 191/1/42 189/5/42
f 192/2/42 189/5/42 190/6/42
f 164/4/43 163/3/43 192/2/43
f 164/4/43 192/2/43 191/1/43
f 163/3/44 164/4/44 191/1/44
f 163/3/44 191/1/44 192/2/44
f 193/19/98 194/20/98 195/21/98
f 195/21/99 196/22/99 193/19/99
f 196/22/100 195/21/100 197/23/100
f 197/23/101 198/24/101 196/22/101
f 198/24/102 197/23/102 199/25/102
f 199/25/103 200/26/103 198/24/103
f 194/27/104 193/28/104 196/29/104
f 196/29/105 195/30/105 194/27/105
f 195/30/106 196/29/106 198/31/106
f 198/31/107 197/32/107 195/30/107
f 197/32/108 198/31/108 200/33/108
f 200/33/109 199/34/109 197/32/109
f 201/35/110 202/36/110 203/37/110
f 203/37/110 204/38/110 201/35/110
f 205/39/111 206/40/111 207/41/111
f 207/41/111 208/42/111 205/39/111
f 206/40/112 201/35/112 204/38/112
f 204/38/112 207/41/112 206/40/112
f 205/43/113 202/44/113 201/35/113
f 201/35/113 206/40/113 205/43/113
f 208/45/114 207/41/114 204/38/114
f 204/38/114 203/46/114 208/45/114
