# generated by tools/objdedupe/dedupe.py -- do not hand-edit.
# Re-run the tool after touching azd_1svet.obj, azd_2svet.obj, azd_3svet.obj, azd_4svet.obj, azd_5svet.obj, azd_6svet.obj.
o stit_2svet_S
v 0.184288 2.988277 0.331310
vt 0.412000 0.336000
vn -0.000200 0.000600 1.000000
v -0.184288 2.988277 0.331248
vt 0.220000 0.336000
v -0.184288 2.879200 0.331310
vt 0.220000 0.279000
vn 0.000200 -0.000600 1.000000
v 0.184288 2.879200 0.331248
vt 0.412000 0.279000
vn 0.000200 0.000400 1.000000
v -0.095110 2.836806 0.331310
vt 0.263000 0.267000
vn 0.000300 -0.000700 1.000000
v 0.095110 2.836806 0.331248
vt 0.367000 0.267000
vt 0.212000 0.333000
vn 0.000200 0.000600 -1.000000
vt 0.003000 0.333000
vt 0.003000 0.279000
vn -0.000200 -0.000600 -1.000000
vt 0.212000 0.279000
vn -0.000200 0.000400 -1.000000
vt 0.052000 0.267000
vn -0.000300 -0.000700 -1.000000
vt 0.166000 0.267000
v -0.092700 2.988710 0.331310
vt 0.533000 0.393000
vn -0.000300 -1.000000 -0.000000
v -0.092700 2.988710 0.210924
vt 0.533000 0.440000
v 0.092700 2.988648 0.210924
vt 0.471000 0.440000
vn -0.000000 -1.000000 0.000500
v 0.092700 2.988710 0.331248
vt 0.471000 0.393000
v 0.034979 3.165334 0.331310
vt 0.411000 0.078000
vn -0.195800 -0.980600 -0.000000
v 0.034979 3.165334 0.643895
vt 0.247000 0.078000
v -0.000000 3.172318 0.643895
vt 0.247000 0.081000
v -0.000000 3.172318 0.331248
vt 0.411000 0.081000
vn 0.195800 0.980600 -0.000000
v 0.064705 3.145496 0.331310
vt 0.411000 0.070000
vn -0.555100 -0.831800 -0.000000
v 0.064705 3.145496 0.643895
vt 0.247000 0.070000
vn 0.555100 0.831800 -0.000000
v 0.084542 3.115833 0.331310
vt 0.411000 0.058000
vn -0.831200 -0.555900 -0.000000
v 0.084542 3.115833 0.643895
vt 0.247000 0.058000
vn 0.831200 0.555900 -0.000000
v 0.091464 3.080792 0.331248
vt 0.411000 0.044000
vn -0.981000 -0.193800 -0.000000
v 0.091464 3.080792 0.643895
vt 0.247000 0.044000
vn 0.981000 0.193800 -0.000000
v 0.084542 3.045504 0.331310
vt 0.411000 0.030000
vn -0.981300 0.192500 -0.000000
v 0.084542 3.045504 0.394223
vt 0.372000 0.030000
vn 0.981300 -0.192500 -0.000000
v 0.064705 3.016087 0.331310
vt 0.411000 0.018000
vn -0.830500 0.557000 0.001400
v 0.064705 3.015964 0.379638
vt 0.381000 0.018000
vn -0.829100 0.559100 -0.000000
vn 0.829100 -0.559100 -0.001400
vn 0.830200 -0.557500 -0.000000
v 0.034979 2.996249 0.331310
vt 0.411000 0.010000
vn -0.557200 0.830400 0.004000
v 0.034979 2.996064 0.369873
vt 0.387000 0.010000
vn -0.555100 0.831800 0.002100
vn 0.555100 -0.831800 -0.004000
vn 0.556800 -0.830700 -0.002100
v -0.000000 2.989266 0.331310
vt 0.411000 0.007000
vn -0.190800 0.981600 -0.000000
v -0.000000 2.989266 0.366413
vt 0.391000 0.007000
vn -0.195800 0.980600 0.004700
vn 0.195800 -0.980600 -0.000000
vn 0.191200 -0.981500 -0.004700
v -0.034979 2.996249 0.331310
vn 0.191200 0.981500 0.004700
v -0.034979 2.996064 0.369873
vn -0.195800 -0.980600 -0.004700
vn -0.190800 -0.981600 -0.000000
v -0.064705 3.016087 0.331310
vn 0.556800 0.830700 0.002100
v -0.064705 3.015964 0.379638
vn 0.555100 0.831800 0.004000
vn -0.555100 -0.831800 -0.002100
vn -0.557200 -0.830400 -0.004000
v -0.084542 3.045504 0.331310
vn 0.830200 0.557500 -0.000000
v -0.084542 3.045504 0.394223
vn 0.829100 0.559100 0.001400
vn -0.829100 -0.559100 -0.000000
vn -0.830500 -0.557000 -0.001400
v -0.091464 3.080792 0.331248
vn 0.981300 0.192500 -0.000000
v -0.091464 3.080792 0.643895
vn -0.981300 -0.192500 -0.000000
v -0.084542 3.115833 0.331310
vn 0.981000 -0.193800 -0.000000
v -0.084542 3.115833 0.643895
vn -0.981000 0.193800 -0.000000
v -0.064705 3.145496 0.331310
vn 0.831200 -0.555900 -0.000000
v -0.064705 3.145496 0.643895
vn -0.831200 0.555900 -0.000000
v -0.034979 3.165334 0.331310
vn 0.555100 -0.831800 -0.000000
v -0.034979 3.165334 0.643895
vn -0.555100 0.831800 -0.000000
vn -0.195800 0.980600 -0.000000
v 0.034979 3.350672 0.331310
v 0.034979 3.350672 0.643895
v -0.000000 3.357656 0.643895
v -0.000000 3.357656 0.331249
v 0.064705 3.330835 0.331310
v 0.064705 3.330835 0.643895
v 0.084542 3.301171 0.331310
vn -0.831300 -0.555900 -0.000000
v 0.084542 3.301171 0.643895
vn 0.831300 0.555900 -0.000000
v 0.091464 3.266130 0.331249
v 0.091464 3.266130 0.643895
v 0.084542 3.230904 0.331310
vn -0.981200 0.192800 -0.000000
v 0.084542 3.230904 0.394223
vn 0.981200 -0.192800 -0.000000
v 0.064705 3.201487 0.331310
v 0.064705 3.201364 0.379638
v 0.034979 3.181649 0.331310
v 0.034979 3.181464 0.369873
v -0.000000 3.174666 0.331310
v -0.000000 3.174666 0.366413
v -0.034979 3.181649 0.331310
v -0.034979 3.181464 0.369873
v -0.064705 3.201487 0.331310
v -0.064705 3.201364 0.379638
v -0.084542 3.230904 0.331310
v -0.084542 3.230904 0.394223
v -0.091464 3.266130 0.331249
vn 0.981200 0.192800 -0.000000
v -0.091464 3.266130 0.643895
vn -0.981200 -0.192800 -0.000000
v -0.084542 3.301171 0.331310
v -0.084542 3.301171 0.643895
v -0.064705 3.330835 0.331310
v -0.064705 3.330835 0.643895
vn 0.831300 -0.555900 -0.000000
vn -0.831300 0.555900 -0.000000
v -0.034979 3.350672 0.331310
v -0.034979 3.350672 0.643895
v 0.095110 3.511105 0.331125
vt 0.367000 0.996000
vn 0.001600 -0.007700 1.000000
v -0.095110 3.511105 0.331434
vt 0.263000 0.996000
v -0.184288 3.468278 0.331249
vt 0.220000 0.984000
vn -0.000200 0.004000 1.000000
v 0.184288 3.468278 0.331310
vt 0.412000 0.984000
vn -0.000200 -0.000000 1.000000
vt 0.220000 0.734000
vt 0.412000 0.734000
vt 0.166000 0.996000
vn -0.001600 -0.007700 -1.000000
vt 0.052000 0.996000
vt 0.003000 0.984000
vn 0.000200 0.004000 -1.000000
vt 0.212000 0.984000
vn 0.000200 -0.000000 -1.000000
vt 0.003000 0.727000
vt 0.212000 0.727000
v 0.092700 3.358768 0.210924
vt 0.471000 0.950000
vn 1.000000 -0.000000 -0.000000
v 0.092700 3.358768 0.331249
vt 0.418000 0.950000
vt 0.418000 0.780000
vt 0.470000 0.780000
v -0.092700 3.358768 0.331310
vt 0.590000 0.950000
vn -1.000000 -0.000000 -0.000000
v -0.092700 3.358768 0.210924
vt 0.533000 0.950000
vt 0.532000 0.780000
vt 0.590000 0.780000
vn -0.000000 -0.000000 -1.000000
vt 0.533000 0.995000
vn -0.000000 1.000000 -0.000000
vt 0.471000 0.995000
f 1/1/1 2/2/1 3/3/1
f 3/3/2 4/4/2 1/1/2
f 4/4/3 3/3/3 5/5/3
f 5/5/4 6/6/4 4/4/4
f 2/7/5 1/8/5 4/9/5
f 4/9/6 3/10/6 2/7/6
f 3/10/7 4/9/7 6/11/7
f 6/11/8 5/12/8 3/10/8
f 7/13/9 8/14/9 9/15/9
f 9/15/10 10/16/10 7/13/10
f 11/17/11 12/18/11 13/19/11
f 11/17/11 13/19/11 14/20/11
f 12/18/12 11/17/12 14/20/12
f 12/18/12 14/20/12 13/19/12
f 15/21/13 16/22/13 12/18/13
f 15/21/13 12/18/13 11/17/13
f 16/22/14 15/21/14 11/17/14
f 16/22/14 11/17/14 12/18/14
f 17/23/15 18/24/15 16/22/15
f 17/23/15 16/22/15 15/21/15
f 18/24/16 17/23/16 15/21/16
f 18/24/16 15/21/16 16/22/16
f 19/25/17 20/26/17 18/24/17
f 19/25/17 18/24/17 17/23/17
f 20/26/18 19/25/18 17/23/18
f 20/26/18 17/23/18 18/24/18
f 21/27/19 22/28/19 20/26/19
f 21/27/19 20/26/19 19/25/19
f 22/28/20 21/27/20 19/25/20
f 22/28/20 19/25/20 20/26/20
f 23/29/21 24/30/21 22/28/21
f 23/29/22 22/28/22 21/27/22
f 24/30/23 23/29/23 21/27/23
f 24/30/24 21/27/24 22/28/24
f 25/31/25 26/32/25 24/30/25
f 25/31/26 24/30/26 23/29/26
f 26/32/27 25/31/27 23/29/27
f 26/32/28 23/29/28 24/30/28
f 27/33/29 28/34/29 26/32/29
f 27/33/30 26/32/30 25/31/30
f 28/34/31 27/33/31 25/31/31
f 28/34/32 25/31/32 26/32/32
f 29/31/33 30/32/33 28/34/33
f 29/31/12 28/34/12 27/33/12
f 30/32/34 29/31/34 27/33/34
f 30/32/35 27/33/35 28/34/35
f 31/29/36 32/30/36 30/32/36
f 31/29/37 30/32/37 29/31/37
f 32/30/38 31/29/38 29/31/38
f 32/30/39 29/31/39 30/32/39
f 33/27/40 34/28/40 32/30/40
f 33/27/41 32/30/41 31/29/41
f 34/28/42 33/27/42 31/29/42
f 34/28/43 31/29/43 32/30/43
f 35/25/44 36/26/44 34/28/44
f 35/25/44 34/28/44 33/27/44
f 36/26/45 35/25/45 33/27/45
f 36/26/45 33/27/45 34/28/45
f 37/23/46 38/24/46 36/26/46
f 37/23/46 36/26/46 35/25/46
f 38/24/47 37/23/47 35/25/47
f 38/24/47 35/25/47 36/26/47
f 39/21/48 40/22/48 38/24/48
f 39/21/48 38/24/48 37/23/48
f 40/22/49 39/21/49 37/23/49
f 40/22/49 37/23/49 38/24/49
f 41/17/50 42/18/50 40/22/50
f 41/17/50 40/22/50 39/21/50
f 42/18/51 41/17/51 39/21/51
f 42/18/51 39/21/51 40/22/51
f 14/20/31 13/19/31 42/18/31
f 14/20/31 42/18/31 41/17/31
f 13/19/52 14/20/52 41/17/52
f 13/19/52 41/17/52 42/18/52
f 43/17/11 44/18/11 45/19/11
f 43/17/11 45/19/11 46/20/11
f 44/18/12 43/17/12 46/20/12
f 44/18/12 46/20/12 45/19/12
f 47/21/13 48/22/13 44/18/13
f 47/21/13 44/18/13 43/17/13
f 48/22/14 47/21/14 43/17/14
f 48/22/14 43/17/14 44/18/14
f 49/23/53 50/24/53 48/22/53
f 49/23/15 48/22/15 47/21/15
f 50/24/54 49/23/54 47/21/54
f 50/24/16 47/21/16 48/22/16
f 51/25/17 52/26/17 50/24/17
f 51/25/17 50/24/17 49/23/17
f 52/26/18 51/25/18 49/23/18
f 52/26/18 49/23/18 50/24/18
f 53/27/55 54/28/55 52/26/55
f 53/27/55 52/26/55 51/25/55
f 54/28/56 53/27/56 51/25/56
f 54/28/56 51/25/56 52/26/56
f 55/29/21 56/30/21 54/28/21
f 55/29/22 54/28/22 53/27/22
f 56/30/23 55/29/23 53/27/23
f 56/30/24 53/27/24 54/28/24
f 57/31/25 58/32/25 56/30/25
f 57/31/26 56/30/26 55/29/26
f 58/32/27 57/31/27 55/29/27
f 58/32/28 55/29/28 56/30/28
f 59/33/29 60/34/29 58/32/29
f 59/33/30 58/32/30 57/31/30
f 60/34/31 59/33/31 57/31/31
f 60/34/32 57/31/32 58/32/32
f 61/31/33 62/32/33 60/34/33
f 61/31/12 60/34/12 59/33/12
f 62/32/34 61/31/34 59/33/34
f 62/32/35 59/33/35 60/34/35
f 63/29/36 64/30/36 62/32/36
f 63/29/37 62/32/37 61/31/37
f 64/30/38 63/29/38 61/31/38
f 64/30/39 61/31/39 62/32/39
f 65/27/40 66/28/40 64/30/40
f 65/27/41 64/30/41 63/29/41
f 66/28/42 65/27/42 63/29/42
f 66/28/43 63/29/43 64/30/43
f 67/25/57 68/26/57 66/28/57
f 67/25/57 66/28/57 65/27/57
f 68/26/58 67/25/58 65/27/58
f 68/26/58 65/27/58 66/28/58
f 69/23/46 70/24/46 68/26/46
f 69/23/46 68/26/46 67/25/46
f 70/24/47 69/23/47 67/25/47
f 70/24/47 67/25/47 68/26/47
f 71/21/48 72/22/48 70/24/48
f 71/21/59 70/24/59 69/23/59
f 72/22/49 71/21/49 69/23/49
f 72/22/60 69/23/60 70/24/60
f 73/17/50 74/18/50 72/22/50
f 73/17/50 72/22/50 71/21/50
f 74/18/51 73/17/51 71/21/51
f 74/18/51 71/21/51 72/22/51
f 46/20/31 45/19/31 74/18/31
f 46/20/31 74/18/31 73/17/31
f 45/19/52 46/20/52 73/17/52
f 45/19/52 73/17/52 74/18/52
f 75/35/61 76/36/61 77/37/61
f 77/37/62 78/38/62 75/35/62
f 78/38/63 77/37/63 2/39/63
f 2/39/63 1/40/63 78/38/63
f 76/41/64 75/42/64 78/43/64
f 78/43/65 77/44/65 76/41/65
f 77/44/66 78/43/66 1/45/66
f 1/45/66 2/46/66 77/44/66
f 79/47/67 80/48/67 10/49/67
f 10/49/67 9/50/67 79/47/67
f 81/51/68 82/52/68 8/53/68
f 8/53/68 7/54/68 81/51/68
f 82/52/69 79/47/69 9/50/69
f 9/50/69 8/53/69 82/52/69
f 81/55/70 80/56/70 79/47/70
f 79/47/70 82/52/70 81/55/70
