# generated by tools/objdedupe/dedupe.py -- do not hand-edit.
# Re-run the tool after touching azd_1svet.obj, azd_2svet.obj, azd_3svet.obj, azd_4svet.obj, azd_5svet.obj, azd_6svet.obj.
o stit_3svet_S
v 0.184288 2.985187 0.329456
vt 0.412000 0.337000
vn -0.000200 0.000600 1.000000
v -0.184288 2.985187 0.329394
vt 0.220000 0.337000
v -0.184288 2.876110 0.329456
vt 0.220000 0.279000
vn 0.000200 -0.000600 1.000000
v 0.184288 2.876110 0.329394
vt 0.412000 0.279000
vn 0.000200 0.000400 1.000000
v -0.095110 2.833715 0.329456
vt 0.263000 0.267000
vn 0.000300 -0.000700 1.000000
v 0.095110 2.833715 0.329394
vt 0.367000 0.267000
vt 0.212000 0.334000
vn 0.000200 0.000600 -1.000000
vt 0.003000 0.334000
vt 0.003000 0.279000
vn -0.000200 -0.000600 -1.000000
vt 0.212000 0.279000
vn -0.000200 0.000400 -1.000000
vt 0.052000 0.267000
vn -0.000300 -0.000700 -1.000000
vt 0.166000 0.267000
v -0.092700 2.985620 0.329456
vt 0.533000 0.393000
vn -0.000000 -1.000000 -0.000000
v -0.092700 2.985620 0.209070
vt 0.533000 0.440000
v 0.092700 2.985620 0.209070
vt 0.471000 0.440000
v 0.092700 2.985620 0.329394
vt 0.471000 0.393000
v 0.034979 3.162244 0.329456
vt 0.411000 0.078000
vn -0.195800 -0.980600 -0.000000
v 0.034979 3.162244 0.642041
vt 0.247000 0.078000
v -0.000000 3.169228 0.642041
vt 0.247000 0.081000
v -0.000000 3.169228 0.329394
vt 0.411000 0.081000
vn 0.195800 0.980600 -0.000000
v 0.064705 3.142406 0.329456
vt 0.411000 0.070000
vn -0.555100 -0.831800 -0.000000
v 0.064705 3.142406 0.642041
vt 0.247000 0.070000
vn 0.555100 0.831800 -0.000000
v 0.084542 3.112742 0.329456
vt 0.411000 0.058000
vn -0.831200 -0.555900 -0.000000
v 0.084542 3.112742 0.642041
vt 0.247000 0.058000
vn -0.831300 -0.555900 -0.000000
vn 0.831200 0.555900 -0.000000
vn 0.831300 0.555900 -0.000000
v 0.091464 3.077702 0.329394
vt 0.411000 0.044000
vn -0.981000 -0.193800 -0.000000
v 0.091464 3.077702 0.642041
vt 0.247000 0.044000
vn 0.981000 0.193800 -0.000000
v 0.084542 3.042414 0.329456
vt 0.411000 0.030000
vn -0.981300 0.192500 -0.000000
v 0.084542 3.042414 0.392369
vt 0.372000 0.030000
vn 0.981300 -0.192500 -0.000000
v 0.064705 3.012997 0.329456
vt 0.411000 0.018000
vn -0.830500 0.557000 0.001400
v 0.064705 3.012873 0.377784
vt 0.381000 0.018000
vn -0.829100 0.559100 -0.000000
vn 0.829100 -0.559100 -0.001400
vn 0.830200 -0.557500 -0.000000
v 0.034979 2.993159 0.329456
vt 0.411000 0.010000
vn -0.557200 0.830400 0.004000
v 0.034979 2.992974 0.368019
vt 0.387000 0.010000
vn -0.555100 0.831800 0.002100
vn 0.555100 -0.831800 -0.004000
vn 0.556800 -0.830700 -0.002100
v -0.000000 2.986176 0.329456
vt 0.411000 0.007000
vn -0.190800 0.981600 -0.000000
v -0.000000 2.986176 0.364559
vt 0.391000 0.007000
vn -0.195800 0.980600 0.004700
vn 0.195800 -0.980600 -0.000000
vn 0.191200 -0.981500 -0.004700
v -0.034979 2.993159 0.329456
vn 0.191200 0.981500 0.004700
v -0.034979 2.992974 0.368019
vn -0.195800 -0.980600 -0.004700
vn -0.190800 -0.981600 -0.000000
v -0.064705 3.012997 0.329456
vn 0.556800 0.830700 0.002100
v -0.064705 3.012873 0.377784
vn 0.555100 0.831800 0.004000
vn -0.555100 -0.831800 -0.002100
vn -0.557200 -0.830400 -0.004000
v -0.084542 3.042414 0.329456
vn 0.830200 0.557500 -0.000000
v -0.084542 3.042414 0.392369
vn 0.829100 0.559100 0.001400
vn -0.829100 -0.559100 -0.000000
vn -0.830500 -0.557000 -0.001400
v -0.091464 3.077702 0.329394
vn 0.981300 0.192500 -0.000000
v -0.091464 3.077702 0.642041
vn -0.981300 -0.192500 -0.000000
v -0.084542 3.112742 0.329456
vn 0.981000 -0.193800 -0.000000
v -0.084542 3.112742 0.642041
vn -0.981000 0.193800 -0.000000
v -0.064705 3.142406 0.329456
vn 0.831300 -0.555900 -0.000000
v -0.064705 3.142406 0.642041
vn 0.831200 -0.555900 -0.000000
vn -0.831300 0.555900 -0.000000
vn -0.831200 0.555900 -0.000000
v -0.034979 3.162244 0.329456
vn 0.555100 -0.831800 -0.000000
v -0.034979 3.162244 0.642041
vn -0.555100 0.831800 -0.000000
vn -0.195800 0.980600 -0.000000
v 0.034979 3.347644 0.329456
v 0.034979 3.347644 0.642041
v -0.000000 3.354627 0.642041
v -0.000000 3.354627 0.329395
v 0.064705 3.327806 0.329456
v 0.064705 3.327806 0.642041
v 0.084542 3.298142 0.329456
v 0.084542 3.298142 0.642041
v 0.091464 3.263102 0.329395
v 0.091464 3.263102 0.642041
v 0.084542 3.227814 0.329456
v 0.084542 3.227814 0.392369
v 0.064705 3.198397 0.329456
v 0.064705 3.198273 0.377784
v 0.034979 3.178559 0.329456
v 0.034979 3.178374 0.368019
v -0.000000 3.171576 0.329456
v -0.000000 3.171576 0.364559
v -0.034979 3.178559 0.329456
v -0.034979 3.178374 0.368019
v -0.064705 3.198397 0.329456
v -0.064705 3.198273 0.377784
v -0.084542 3.227814 0.329456
v -0.084542 3.227814 0.392369
v -0.091464 3.263102 0.329395
v -0.091464 3.263102 0.642041
v -0.084542 3.298142 0.329456
v -0.084542 3.298142 0.642041
v -0.064705 3.327806 0.329456
v -0.064705 3.327806 0.642041
v -0.034979 3.347644 0.329456
v -0.034979 3.347644 0.642041
v 0.034979 3.532982 0.329456
v 0.034979 3.532982 0.642041
v -0.000000 3.539966 0.642041
v -0.000000 3.539966 0.329395
v 0.064705 3.513144 0.329456
v 0.064705 3.513144 0.642041
v 0.084542 3.483480 0.329456
v 0.084542 3.483480 0.642041
v 0.091464 3.448440 0.329395
v 0.091464 3.448440 0.642041
v 0.084542 3.413214 0.329456
vn -0.981200 0.192800 -0.000000
v 0.084542 3.413214 0.392369
vn 0.981200 -0.192800 -0.000000
v 0.064705 3.383797 0.329456
v 0.064705 3.383673 0.377784
v 0.034979 3.363959 0.329456
v 0.034979 3.363774 0.368020
v -0.000000 3.356976 0.329456
v -0.000000 3.356976 0.364559
vn 0.195800 -0.980700 -0.000000
v -0.034979 3.363959 0.329456
v -0.034979 3.363774 0.368020
vn 0.195800 0.980700 -0.000000
v -0.064705 3.383797 0.329456
v -0.064705 3.383673 0.377784
v -0.084542 3.413214 0.329456
v -0.084542 3.413214 0.392369
v -0.091464 3.448440 0.329395
vn 0.981200 0.192800 -0.000000
v -0.091464 3.448440 0.642041
vn -0.981200 -0.192800 -0.000000
v -0.084542 3.483480 0.329456
v -0.084542 3.483480 0.642041
v -0.064705 3.513144 0.329456
v -0.064705 3.513144 0.642041
v -0.034979 3.532982 0.329456
v -0.034979 3.532982 0.642041
v 0.095110 3.693415 0.329271
vt 0.367000 0.996000
vn 0.001600 -0.007700 1.000000
v -0.095110 3.693415 0.329580
vt 0.263000 0.996000
v -0.184288 3.650588 0.329395
vt 0.220000 0.984000
vn -0.000200 0.004000 1.000000
v 0.184288 3.650588 0.329456
vt 0.412000 0.984000
vn -0.000200 -0.000000 1.000000
vt 0.220000 0.636000
vt 0.412000 0.636000
vt 0.166000 0.996000
vn -0.001600 -0.007700 -1.000000
vt 0.052000 0.996000
vt 0.003000 0.984000
vn 0.000200 0.004000 -1.000000
vt 0.212000 0.984000
vn 0.000200 -0.000000 -1.000000
vt 0.003000 0.630000
vt 0.212000 0.630000
v 0.092700 3.541078 0.209070
vt 0.471000 0.950000
vn 1.000000 -0.000000 -0.000000
v 0.092700 3.541078 0.329395
vt 0.418000 0.950000
vt 0.418000 0.695000
vt 0.470000 0.695000
v -0.092700 3.541078 0.329456
vt 0.590000 0.950000
vn -1.000000 -0.000000 -0.000000
v -0.092700 3.541078 0.209070
vt 0.533000 0.950000
vt 0.532000 0.695000
vt 0.590000 0.695000
vn -0.000000 -0.000000 -1.000000
vt 0.533000 0.995000
vn -0.000000 1.000000 -0.000000
vt 0.471000 0.995000
f 1/1/1 2/2/1 3/3/1
f 3/3/2 4/4/2 1/1/2
f 4/4/3 3/3/3 5/5/3
f 5/5/4 6/6/4 4/4/4
f 2/7/5 1/8/5 4/9/5
f 4/9/6 3/10/6 2/7/6
f 3/10/7 4/9/7 6/11/7
f 6/11/8 5/12/8 3/10/8
f 7/13/9 8/14/9 9/15/9
f 9/15/9 10/16/9 7/13/9
f 11/17/10 12/18/10 13/19/10
f 11/17/10 13/19/10 14/20/10
f 12/18/11 11/17/11 14/20/11
f 12/18/11 14/20/11 13/19/11
f 15/21/12 16/22/12 12/18/12
f 15/21/12 12/18/12 11/17/12
f 16/22/13 15/21/13 11/17/13
f 16/22/13 11/17/13 12/18/13
f 17/23/14 18/24/14 16/22/14
f 17/23/15 16/22/15 15/21/15
f 18/24/16 17/23/16 15/21/16
f 18/24/17 15/21/17 16/22/17
f 19/25/18 20/26/18 18/24/18
f 19/25/18 18/24/18 17/23/18
f 20/26/19 19/25/19 17/23/19
f 20/26/19 17/23/19 18/24/19
f 21/27/20 22/28/20 20/26/20
f 21/27/20 20/26/20 19/25/20
f 22/28/21 21/27/21 19/25/21
f 22/28/21 19/25/21 20/26/21
f 23/29/22 24/30/22 22/28/22
f 23/29/23 22/28/23 21/27/23
f 24/30/24 23/29/24 21/27/24
f 24/30/25 21/27/25 22/28/25
f 25/31/26 26/32/26 24/30/26
f 25/31/27 24/30/27 23/29/27
f 26/32/28 25/31/28 23/29/28
f 26/32/29 23/29/29 24/30/29
f 27/33/30 28/34/30 26/32/30
f 27/33/31 26/32/31 25/31/31
f 28/34/32 27/33/32 25/31/32
f 28/34/33 25/31/33 26/32/33
f 29/31/34 30/32/34 28/34/34
f 29/31/11 28/34/11 27/33/11
f 30/32/35 29/31/35 27/33/35
f 30/32/36 27/33/36 28/34/36
f 31/29/37 32/30/37 30/32/37
f 31/29/38 30/32/38 29/31/38
f 32/30/39 31/29/39 29/31/39
f 32/30/40 29/31/40 30/32/40
f 33/27/41 34/28/41 32/30/41
f 33/27/42 32/30/42 31/29/42
f 34/28/43 33/27/43 31/29/43
f 34/28/44 31/29/44 32/30/44
f 35/25/45 36/26/45 34/28/45
f 35/25/45 34/28/45 33/27/45
f 36/26/46 35/25/46 33/27/46
f 36/26/46 33/27/46 34/28/46
f 37/23/47 38/24/47 36/26/47
f 37/23/47 36/26/47 35/25/47
f 38/24/48 37/23/48 35/25/48
f 38/24/48 35/25/48 36/26/48
f 39/21/49 40/22/49 38/24/49
f 39/21/50 38/24/50 37/23/50
f 40/22/51 39/21/51 37/23/51
f 40/22/52 37/23/52 38/24/52
f 41/17/53 42/18/53 40/22/53
f 41/17/53 40/22/53 39/21/53
f 42/18/54 41/17/54 39/21/54
f 42/18/54 39/21/54 40/22/54
f 14/20/32 13/19/32 42/18/32
f 14/20/32 42/18/32 41/17/32
f 13/19/55 14/20/55 41/17/55
f 13/19/55 41/17/55 42/18/55
f 43/17/10 44/18/10 45/19/10
f 43/17/10 45/19/10 46/20/10
f 44/18/11 43/17/11 46/20/11
f 44/18/11 46/20/11 45/19/11
f 47/21/12 48/22/12 44/18/12
f 47/21/12 44/18/12 43/17/12
f 48/22/13 47/21/13 43/17/13
f 48/22/13 43/17/13 44/18/13
f 49/23/14 50/24/14 48/22/14
f 49/23/15 48/22/15 47/21/15
f 50/24/16 49/23/16 47/21/16
f 50/24/17 47/21/17 48/22/17
f 51/25/18 52/26/18 50/24/18
f 51/25/18 50/24/18 49/23/18
f 52/26/19 51/25/19 49/23/19
f 52/26/19 49/23/19 50/24/19
f 53/27/20 54/28/20 52/26/20
f 53/27/20 52/26/20 51/25/20
f 54/28/21 53/27/21 51/25/21
f 54/28/21 51/25/21 52/26/21
f 55/29/22 56/30/22 54/28/22
f 55/29/23 54/28/23 53/27/23
f 56/30/24 55/29/24 53/27/24
f 56/30/25 53/27/25 54/28/25
f 57/31/26 58/32/26 56/30/26
f 57/31/27 56/30/27 55/29/27
f 58/32/28 57/31/28 55/29/28
f 58/32/29 55/29/29 56/30/29
f 59/33/30 60/34/30 58/32/30
f 59/33/31 58/32/31 57/31/31
f 60/34/32 59/33/32 57/31/32
f 60/34/33 57/31/33 58/32/33
f 61/31/34 62/32/34 60/34/34
f 61/31/11 60/34/11 59/33/11
f 62/32/35 61/31/35 59/33/35
f 62/32/36 59/33/36 60/34/36
f 63/29/37 64/30/37 62/32/37
f 63/29/38 62/32/38 61/31/38
f 64/30/39 63/29/39 61/31/39
f 64/30/40 61/31/40 62/32/40
f 65/27/41 66/28/41 64/30/41
f 65/27/42 64/30/42 63/29/42
f 66/28/43 65/27/43 63/29/43
f 66/28/44 63/29/44 64/30/44
f 67/25/45 68/26/45 66/28/45
f 67/25/45 66/28/45 65/27/45
f 68/26/46 67/25/46 65/27/46
f 68/26/46 65/27/46 66/28/46
f 69/23/47 70/24/47 68/26/47
f 69/23/47 68/26/47 67/25/47
f 70/24/48 69/23/48 67/25/48
f 70/24/48 67/25/48 68/26/48
f 71/21/49 72/22/49 70/24/49
f 71/21/50 70/24/50 69/23/50
f 72/22/51 71/21/51 69/23/51
f 72/22/52 69/23/52 70/24/52
f 73/17/53 74/18/53 72/22/53
f 73/17/53 72/22/53 71/21/53
f 74/18/54 73/17/54 71/21/54
f 74/18/54 71/21/54 72/22/54
f 46/20/32 45/19/32 74/18/32
f 46/20/32 74/18/32 73/17/32
f 45/19/55 46/20/55 73/17/55
f 45/19/55 73/17/55 74/18/55
f 75/17/10 76/18/10 77/19/10
f 75/17/10 77/19/10 78/20/10
f 76/18/11 75/17/11 78/20/11
f 76/18/11 78/20/11 77/19/11
f 79/21/12 80/22/12 76/18/12
f 79/21/12 76/18/12 75/17/12
f 80/22/13 79/21/13 75/17/13
f 80/22/13 75/17/13 76/18/13
f 81/23/14 82/24/14 80/22/14
f 81/23/15 80/22/15 79/21/15
f 82/24/16 81/23/16 79/21/16
f 82/24/17 79/21/17 80/22/17
f 83/25/18 84/26/18 82/24/18
f 83/25/18 82/24/18 81/23/18
f 84/26/19 83/25/19 81/23/19
f 84/26/19 81/23/19 82/24/19
f 85/27/56 86/28/56 84/26/56
f 85/27/56 84/26/56 83/25/56
f 86/28/57 85/27/57 83/25/57
f 86/28/57 83/25/57 84/26/57
f 87/29/22 88/30/22 86/28/22
f 87/29/23 86/28/23 85/27/23
f 88/30/24 87/29/24 85/27/24
f 88/30/25 85/27/25 86/28/25
f 89/31/26 90/32/26 88/30/26
f 89/31/27 88/30/27 87/29/27
f 90/32/28 89/31/28 87/29/28
f 90/32/29 87/29/29 88/30/29
f 91/33/30 92/34/30 90/32/30
f 91/33/31 90/32/31 89/31/31
f 92/34/58 91/33/58 89/31/58
f 92/34/33 89/31/33 90/32/33
f 93/31/34 94/32/34 92/34/34
f 93/31/59 92/34/59 91/33/59
f 94/32/35 93/31/35 91/33/35
f 94/32/36 91/33/36 92/34/36
f 95/29/37 96/30/37 94/32/37
f 95/29/38 94/32/38 93/31/38
f 96/30/39 95/29/39 93/31/39
f 96/30/40 93/31/40 94/32/40
f 97/27/41 98/28/41 96/30/41
f 97/27/42 96/30/42 95/29/42
f 98/28/43 97/27/43 95/29/43
f 98/28/44 95/29/44 96/30/44
f 99/25/60 100/26/60 98/28/60
f 99/25/60 98/28/60 97/27/60
f 100/26/61 99/25/61 97/27/61
f 100/26/61 97/27/61 98/28/61
f 101/23/47 102/24/47 100/26/47
f 101/23/47 100/26/47 99/25/47
f 102/24/48 101/23/48 99/25/48
f 102/24/48 99/25/48 100/26/48
f 103/21/49 104/22/49 102/24/49
f 103/21/50 102/24/50 101/23/50
f 104/22/51 103/21/51 101/23/51
f 104/22/52 101/23/52 102/24/52
f 105/17/53 106/18/53 104/22/53
f 105/17/53 104/22/53 103/21/53
f 106/18/54 105/17/54 103/21/54
f 106/18/54 103/21/54 104/22/54
f 78/20/32 77/19/32 106/18/32
f 78/20/32 106/18/32 105/17/32
f 77/19/55 78/20/55 105/17/55
f 77/19/55 105/17/55 106/18/55
f 107/35/62 108/36/62 109/37/62
f 109/37/63 110/38/63 107/35/63
f 110/38/64 109/37/64 2/39/64
f 2/39/64 1/40/64 110/38/64
f 108/41/65 107/42/65 110/43/65
f 110/43/66 109/44/66 108/41/66
f 109/44/67 110/43/67 1/45/67
f 1/45/67 2/46/67 109/44/67
f 111/47/68 112/48/68 10/49/68
f 10/49/68 9/50/68 111/47/68
f 113/51/69 114/52/69 8/53/69
f 8/53/69 7/54/69 113/51/69
f 114/52/70 111/47/70 9/50/70
f 9/50/70 8/53/70 114/52/70
f 113/55/71 112/56/71 111/47/71
f 111/47/71 114/52/71 113/55/71
