# generated by tools/objdedupe/dedupe.py -- do not hand-edit.
# Re-run the tool after touching azd_1svet.obj, azd_2svet.obj, azd_3svet.obj, azd_4svet.obj, azd_5svet.obj, azd_6svet.obj.
o stit_5svet_S_2pruhy
v 0.159629 2.958119 0.330630
vt 0.402000 0.258000
vn -0.000000 -0.000000 1.000000
v -0.159629 2.958119 0.330630
vt 0.230000 0.258000
v -0.159629 2.786315 0.330630
vt 0.230000 0.173000
v 0.159629 2.786315 0.330630
vt 0.402000 0.173000
v -0.172422 2.953051 0.329456
vt 0.524000 0.514000
vn -1.000000 -0.000000 -0.000000
v -0.172422 2.953051 0.264504
vt 0.485000 0.514000
v -0.172422 2.782236 0.264504
vt 0.485000 0.487000
v -0.172422 2.782236 0.329456
vt 0.524000 0.487000
vt 0.590000 0.521000
vn -0.000000 -0.000000 -1.000000
v 0.172422 2.953051 0.264504
vt 0.419000 0.521000
v 0.172422 2.782236 0.264504
vt 0.419000 0.418000
vt 0.590000 0.418000
vn 1.000000 -0.000000 -0.000000
v 0.172422 2.953051 0.329456
v 0.172422 2.782236 0.329456
vt 0.590000 0.515000
vn -0.000000 1.000000 -0.000000
vt 0.419000 0.515000
vt 0.419000 0.496000
vt 0.590000 0.496000
vn -0.000000 -1.000000 -0.000000
v 0.094307 2.958366 0.329456
vt 0.411000 0.078000
vn -0.073800 -0.997300 -0.000000
v 0.094307 2.958366 0.567324
vt 0.247000 0.078000
v -0.000000 2.965350 0.567324
vt 0.247000 0.081000
v -0.000000 2.965350 0.329456
vt 0.411000 0.081000
vn 0.073800 0.997300 -0.000000
v 0.151039 2.946748 0.329456
vt 0.411000 0.070000
vn -0.386300 -0.921200 -0.047100
v 0.151039 2.934573 0.567324
vt 0.247000 0.070000
vn -0.200600 -0.979700 -0.000000
vn 0.200400 0.978400 0.050100
vn 0.386800 0.922200 -0.000000
v 0.168158 2.915045 0.329456
vt 0.411000 0.058000
vn -0.879700 -0.475000 -0.024300
v 0.168158 2.902870 0.567324
vt 0.247000 0.058000
vn 0.879700 0.475000 0.024300
v 0.175203 2.873824 0.329456
vt 0.411000 0.044000
vn -0.971800 -0.235700 -0.000000
v 0.175203 2.873824 0.567324
vt 0.247000 0.044000
vn -0.985700 -0.168500 -0.008600
vn 0.985700 0.168500 -0.000000
vn 0.971800 0.235700 0.012100
v 0.169208 2.838474 0.329456
vt 0.411000 0.030000
vn -0.985900 0.167200 -0.000000
v 0.169208 2.838474 0.392369
vt 0.372000 0.030000
vn 0.985900 -0.167200 -0.000000
v 0.167478 2.809119 0.329456
vt 0.411000 0.018000
vn -0.998300 0.058500 0.000100
v 0.167478 2.808995 0.377784
vt 0.381000 0.018000
vn -0.998300 0.058800 -0.000000
vn 0.998300 -0.058800 -0.000200
vn 0.998300 -0.058600 -0.000000
v 0.149556 2.782360 0.329456
vt 0.411000 0.010000
vn -0.831900 0.554900 0.002700
v 0.149556 2.782175 0.368019
vt 0.387000 0.010000
vn -0.830900 0.556500 0.001400
vn 0.830900 -0.556500 -0.002700
vn 0.831700 -0.555200 -0.001400
v -0.000000 2.782298 0.329456
vt 0.411000 0.007000
vn 0.000400 1.000000 0.001800
v -0.000000 2.782236 0.364559
vt 0.391000 0.007000
vn -0.000400 1.000000 0.004800
vn 0.000400 -1.000000 -0.001800
vn -0.000300 -1.000000 -0.004800
v -0.149556 2.782360 0.329456
vn -0.000300 1.000000 0.004800
v -0.149556 2.782175 0.368019
vn -0.000400 -1.000000 -0.004800
v -0.167725 2.809119 0.329456
vn 0.828200 0.560500 0.001400
v -0.167725 2.808995 0.377784
vn 0.827300 0.561700 0.002700
vn -0.827300 -0.561700 -0.001400
vn -0.828400 -0.560200 -0.002700
v -0.169208 2.838474 0.329456
vn 0.998700 0.050300 -0.000000
v -0.169208 2.838474 0.392369
vn 0.998700 0.050500 0.000100
vn -0.998700 -0.050500 -0.000000
vn -0.998700 -0.050200 -0.000100
v -0.175203 2.873824 0.329456
vn 0.985900 0.167200 -0.000000
v -0.175203 2.873824 0.567324
vn -0.985900 -0.167200 -0.000000
v -0.168158 2.915045 0.329456
vn 0.971800 -0.235700 -0.012100
v -0.168158 2.902870 0.567324
vn 0.985700 -0.168500 -0.000000
vn -0.985700 0.168500 0.008600
vn -0.971800 0.235700 -0.000000
v -0.151039 2.946748 0.329456
vn 0.879700 -0.475000 -0.024300
v -0.151039 2.934573 0.567324
vn -0.879700 0.475000 0.024300
v -0.094307 2.958366 0.329456
vn 0.386800 -0.922200 -0.000000
v -0.094307 2.958366 0.567324
vn 0.200400 -0.978400 -0.050100
vn -0.200600 0.979700 -0.000000
vn -0.386300 0.921200 0.047100
vn 0.073800 -0.997300 -0.000000
vn -0.073800 0.997300 -0.000000
v 0.034979 3.143766 0.329456
vn -0.195800 -0.980600 -0.000000
v 0.034979 3.143766 0.642102
v -0.000000 3.150749 0.642102
v -0.000000 3.150749 0.329456
vn 0.195800 0.980600 -0.000000
v 0.064705 3.123929 0.329456
vn -0.555100 -0.831800 -0.000000
v 0.064705 3.123929 0.642102
vn 0.555100 0.831800 -0.000000
v 0.084542 3.094203 0.329456
vn -0.831800 -0.555100 -0.000000
v 0.084542 3.094203 0.642102
vn 0.831800 0.555100 -0.000000
v 0.091464 3.059224 0.329456
vn -0.981000 -0.194100 -0.000000
v 0.091464 3.059224 0.642102
vn 0.981000 0.194100 -0.000000
v 0.084542 3.023874 0.329456
vn -0.981400 0.192200 -0.000000
v 0.084542 3.023874 0.392369
vn 0.981400 -0.192200 -0.000000
v 0.064705 2.994519 0.329456
vn -0.830000 0.557800 0.001400
v 0.064705 2.994396 0.377784
vn -0.828500 0.559900 -0.000000
vn 0.828500 -0.559900 -0.001400
vn 0.829600 -0.558300 -0.000000
v 0.034979 2.974682 0.329456
vn -0.558700 0.829400 0.005300
v 0.034979 2.974434 0.368019
vn -0.555100 0.831800 0.002100
vn 0.555100 -0.831800 -0.005300
vn 0.558000 -0.829900 -0.002100
v -0.000000 2.967698 0.329456
vn -0.190900 0.981600 0.001700
v -0.000000 2.967636 0.364559
vn -0.195800 0.980600 0.006300
vn 0.195800 -0.980600 -0.001700
vn 0.191400 -0.981500 -0.006300
v -0.034979 2.974682 0.329456
vn 0.191400 0.981500 0.006300
v -0.034979 2.974434 0.368019
vn 0.195800 0.980600 0.001700
vn -0.195800 -0.980600 -0.006300
vn -0.190900 -0.981600 -0.001700
v -0.064705 2.994519 0.329456
vn 0.558000 0.829900 0.002100
v -0.064705 2.994396 0.377784
vn 0.555100 0.831800 0.005300
vn -0.555100 -0.831800 -0.002100
vn -0.558700 -0.829400 -0.005300
v -0.084542 3.023874 0.329456
vn 0.829600 0.558300 -0.000000
v -0.084542 3.023874 0.392369
vn 0.828500 0.559900 0.001400
vn -0.828500 -0.559900 -0.000000
vn -0.830000 -0.557800 -0.001400
v -0.091464 3.059224 0.329456
vn 0.981400 0.192200 -0.000000
v -0.091464 3.059224 0.642102
vn -0.981400 -0.192200 -0.000000
v -0.084542 3.094203 0.329456
vn 0.981000 -0.194100 -0.000000
v -0.084542 3.094203 0.642102
vn -0.981000 0.194100 -0.000000
v -0.064705 3.123929 0.329456
vn 0.831800 -0.555100 -0.000000
v -0.064705 3.123929 0.642102
vn -0.831800 0.555100 -0.000000
v -0.034979 3.143766 0.329456
vn 0.555100 -0.831800 -0.000000
v -0.034979 3.143766 0.642102
vn -0.555100 0.831800 -0.000000
vn 0.195800 -0.980600 -0.000000
vn -0.195800 0.980600 -0.000000
v 0.034979 3.329166 0.329456
v 0.034979 3.329166 0.642102
v -0.000000 3.336150 0.642102
v -0.000000 3.336150 0.329456
v 0.064705 3.309328 0.329456
v 0.064705 3.309328 0.642102
v 0.084542 3.279664 0.329456
vn -0.831200 -0.555900 -0.000000
v 0.084542 3.279664 0.642102
vn -0.831300 -0.555900 -0.000000
vn 0.831200 0.555900 -0.000000
vn 0.831300 0.555900 -0.000000
v 0.091464 3.244624 0.329456
vn -0.981000 -0.193800 -0.000000
v 0.091464 3.244624 0.642102
vn 0.981000 0.193800 -0.000000
v 0.084542 3.209336 0.329456
vn -0.981300 0.192500 -0.000000
v 0.084542 3.209336 0.392369
vn 0.981300 -0.192500 -0.000000
v 0.064705 3.179919 0.329456
vn -0.830500 0.557000 0.001400
v 0.064705 3.179796 0.377784
vn -0.829100 0.559100 -0.000000
vn 0.829100 -0.559100 -0.001400
vn 0.830200 -0.557500 -0.000000
v 0.034979 3.160081 0.329456
v 0.034979 3.159834 0.368019
vn 0.558000 -0.829800 -0.002100
v -0.000000 3.153098 0.329456
v -0.000000 3.153036 0.364559
vn 0.195800 -0.980700 -0.001700
v -0.034979 3.160081 0.329456
v -0.034979 3.159834 0.368019
vn 0.195800 0.980700 0.001700
v -0.064705 3.179919 0.329456
v -0.064705 3.179796 0.377784
v -0.084542 3.209336 0.329456
vn 0.830200 0.557500 -0.000000
v -0.084542 3.209336 0.392369
vn 0.829100 0.559100 0.001400
vn -0.829100 -0.559100 -0.000000
vn -0.830500 -0.557000 -0.001400
v -0.091464 3.244624 0.329456
vn 0.981300 0.192500 -0.000000
v -0.091464 3.244624 0.642102
vn -0.981300 -0.192500 -0.000000
v -0.084542 3.279664 0.329456
vn 0.981000 -0.193800 -0.000000
v -0.084542 3.279664 0.642102
vn -0.981000 0.193800 -0.000000
v -0.064705 3.309328 0.329456
vn 0.831300 -0.555900 -0.000000
v -0.064705 3.309328 0.642102
vn 0.831200 -0.555900 -0.000000
vn -0.831300 0.555900 -0.000000
vn -0.831200 0.555900 -0.000000
v -0.034979 3.329166 0.329456
v -0.034979 3.329166 0.642102
v 0.034979 3.514566 0.329456
v 0.034979 3.514566 0.642103
v -0.000000 3.521549 0.642103
v -0.000000 3.521549 0.329456
v 0.064705 3.494728 0.329456
v 0.064705 3.494728 0.642103
v 0.084542 3.465065 0.329456
v 0.084542 3.465065 0.642103
v 0.091464 3.430024 0.329456
v 0.091464 3.430024 0.642103
v 0.084542 3.394674 0.329456
v 0.084542 3.394674 0.392369
v 0.064705 3.365319 0.329456
v 0.064705 3.365196 0.377784
v 0.034979 3.345481 0.329456
v 0.034979 3.345234 0.368020
v -0.000000 3.338498 0.329456
v -0.000000 3.338436 0.364559
v -0.034979 3.345481 0.329456
v -0.034979 3.345234 0.368020
v -0.064705 3.365319 0.329456
v -0.064705 3.365196 0.377784
vn -0.558700 -0.829300 -0.005300
v -0.084542 3.394674 0.329456
v -0.084542 3.394674 0.392369
v -0.091464 3.430024 0.329456
v -0.091464 3.430024 0.642103
vn -0.981400 -0.192100 -0.000000
v -0.084542 3.465065 0.329456
v -0.084542 3.465065 0.642103
v -0.064705 3.494728 0.329456
v -0.064705 3.494728 0.642103
v -0.034979 3.514566 0.329456
v -0.034979 3.514566 0.642103
v 0.034979 3.699966 0.329456
v 0.034979 3.699966 0.642103
v -0.000000 3.706949 0.642103
v -0.000000 3.706949 0.329456
v 0.064705 3.680129 0.329456
v 0.064705 3.680129 0.642103
v 0.084542 3.650464 0.329456
v 0.084542 3.650464 0.642103
v 0.091464 3.615424 0.329456
v 0.091464 3.615424 0.642103
v 0.084542 3.580136 0.329456
vn -0.981600 0.190900 0.000200
v 0.084542 3.580074 0.392369
vn 0.981300 -0.192500 -0.000200
v 0.064705 3.550719 0.329456
v 0.064705 3.550596 0.377784
vn -0.829100 0.559100 0.000500
vn 0.829800 -0.558100 -0.000500
v 0.034979 3.530881 0.329456
vn -0.557200 0.830400 0.004000
v 0.034979 3.530696 0.368020
vn 0.555100 -0.831800 -0.004000
vn 0.556800 -0.830700 -0.002100
v -0.000000 3.523898 0.329456
vn -0.190800 0.981600 -0.000000
v -0.000000 3.523898 0.364559
vn -0.195800 0.980600 0.004700
vn 0.191200 -0.981500 -0.004700
v -0.034979 3.530881 0.329456
vn 0.191200 0.981500 0.004700
v -0.034979 3.530696 0.368020
vn -0.195800 -0.980600 -0.004700
vn -0.190800 -0.981600 -0.000000
v -0.064705 3.550719 0.329456
vn 0.556800 0.830700 0.002100
v -0.064705 3.550596 0.377784
vn 0.555100 0.831800 0.004000
vn -0.557200 -0.830400 -0.004000
v -0.084542 3.580074 0.329456
v -0.084542 3.580074 0.392369
v -0.091464 3.615424 0.329456
v -0.091464 3.615424 0.642103
v -0.084542 3.650464 0.329456
v -0.084542 3.650464 0.642103
v -0.064705 3.680129 0.329456
v -0.064705 3.680129 0.642103
v -0.034979 3.699966 0.329456
v -0.034979 3.699966 0.642103
v 0.034979 3.885304 0.329456
v 0.034979 3.885304 0.642103
v -0.000000 3.892288 0.642103
v -0.000000 3.892288 0.329456
v 0.064705 3.865467 0.329456
v 0.064705 3.865467 0.642103
v 0.084542 3.835803 0.329456
v 0.084542 3.835803 0.642103
v 0.091464 3.800700 0.329456
vn -0.981100 -0.193500 -0.000000
v 0.091464 3.800700 0.642103
vn 0.981100 0.193500 -0.000000
v 0.084542 3.765536 0.329456
vn -0.981200 0.193100 -0.000000
v 0.084542 3.765536 0.392369
vn 0.981200 -0.193100 -0.000000
v 0.064705 3.736119 0.329456
v 0.064705 3.735996 0.377784
v 0.034979 3.716281 0.329456
v 0.034979 3.716034 0.368020
v -0.000000 3.709298 0.329456
v -0.000000 3.709236 0.364559
v -0.034979 3.716281 0.329456
v -0.034979 3.716034 0.368020
v -0.064705 3.736119 0.329456
v -0.064705 3.735996 0.377784
v -0.084542 3.765536 0.329456
v -0.084542 3.765536 0.392369
v -0.091464 3.800700 0.329456
vn 0.981200 0.193100 -0.000000
v -0.091464 3.800700 0.642103
vn -0.981200 -0.193100 -0.000000
v -0.084542 3.835803 0.329456
vn 0.981100 -0.193500 -0.000000
v -0.084542 3.835803 0.642103
vn -0.981100 0.193500 -0.000000
v -0.064705 3.865467 0.329456
v -0.064705 3.865467 0.642103
v -0.034979 3.885304 0.329456
v -0.034979 3.885304 0.642103
v 0.095110 4.045799 0.329456
vt 0.367000 0.996000
vn -0.000000 -0.001400 1.000000
v -0.095110 4.045799 0.329456
vt 0.263000 0.996000
v -0.184288 4.002972 0.329395
vt 0.220000 0.984000
v 0.184288 4.002972 0.329395
vt 0.412000 0.984000
v -0.184288 2.671676 0.329456
vt 0.220000 0.279000
vn 0.000200 -0.000000 1.000000
v 0.184288 2.671676 0.329394
vt 0.412000 0.279000
vn 0.000200 0.000400 1.000000
v -0.095110 2.629281 0.329456
vt 0.263000 0.267000
vn 0.000300 -0.000700 1.000000
v 0.095110 2.629281 0.329394
vt 0.367000 0.267000
vt 0.166000 0.996000
vn -0.000000 0.001400 -1.000000
vt 0.052000 0.996000
vt 0.003000 0.984000
vt 0.212000 0.984000
vt 0.003000 0.279000
vn -0.000200 -0.000000 -1.000000
vt 0.212000 0.279000
vn -0.000200 0.000400 -1.000000
vt 0.052000 0.267000
vn -0.000300 -0.000700 -1.000000
vt 0.166000 0.267000
v 0.092700 3.893462 0.209070
vt 0.471000 0.950000
vn 1.000000 0.009300 -0.000000
v 0.092700 3.893462 0.329395
vt 0.418000 0.950000
v 0.103082 2.781186 0.329394
vt 0.418000 0.440000
vn 0.996300 -0.000000 -0.086000
v 0.092700 2.781186 0.209070
vt 0.471000 0.440000
v -0.092700 3.893462 0.329395
vt 0.590000 0.950000
v -0.092700 3.893462 0.208885
vt 0.533000 0.950000
v -0.092700 2.781186 0.209070
vt 0.533000 0.440000
v -0.092700 2.781186 0.329456
vt 0.590000 0.440000
vn 0.001000 -0.000000 -1.000000
vn -0.000000 -0.000200 -1.000000
vt 0.533000 0.995000
vt 0.471000 0.995000
vt 0.533000 0.393000
vt 0.471000 0.393000
f 1/1/1 2/2/1 3/3/1
f 3/3/1 4/4/1 1/1/1
f 5/5/2 6/6/2 7/7/2
f 7/7/2 8/8/2 5/5/2
f 6/9/3 9/10/3 10/11/3
f 10/11/3 7/12/3 6/9/3
f 9/5/4 11/6/4 12/7/4
f 12/7/4 10/8/4 9/5/4
f 9/13/5 6/14/5 5/15/5
f 5/15/5 11/16/5 9/13/5
f 10/14/6 12/15/6 8/16/6
f 8/16/6 7/13/6 10/14/6
f 13/17/7 14/18/7 15/19/7
f 13/17/7 15/19/7 16/20/7
f 14/18/8 13/17/8 16/20/8
f 14/18/8 16/20/8 15/19/8
f 17/21/9 18/22/9 14/18/9
f 17/21/10 14/18/10 13/17/10
f 18/22/11 17/21/11 13/17/11
f 18/22/12 13/17/12 14/18/12
f 19/23/13 20/24/13 18/22/13
f 19/23/13 18/22/13 17/21/13
f 20/24/14 19/23/14 17/21/14
f 20/24/14 17/21/14 18/22/14
f 21/25/15 22/26/15 20/24/15
f 21/25/16 20/24/16 19/23/16
f 22/26/17 21/25/17 19/23/17
f 22/26/18 19/23/18 20/24/18
f 23/27/19 24/28/19 22/26/19
f 23/27/19 22/26/19 21/25/19
f 24/28/20 23/27/20 21/25/20
f 24/28/20 21/25/20 22/26/20
f 25/29/21 26/30/21 24/28/21
f 25/29/22 24/28/22 23/27/22
f 26/30/23 25/29/23 23/27/23
f 26/30/24 23/27/24 24/28/24
f 27/31/25 28/32/25 26/30/25
f 27/31/26 26/30/26 25/29/26
f 28/32/27 27/31/27 25/29/27
f 28/32/28 25/29/28 26/30/28
f 29/33/29 30/34/29 28/32/29
f 29/33/30 28/32/30 27/31/30
f 30/34/31 29/33/31 27/31/31
f 30/34/32 27/31/32 28/32/32
f 31/31/33 32/32/33 30/34/33
f 31/31/29 30/34/29 29/33/29
f 32/32/34 31/31/34 29/33/34
f 32/32/31 29/33/31 30/34/31
f 33/29/35 34/30/35 32/32/35
f 33/29/36 32/32/36 31/31/36
f 34/30/37 33/29/37 31/31/37
f 34/30/38 31/31/38 32/32/38
f 35/27/39 36/28/39 34/30/39
f 35/27/40 34/30/40 33/29/40
f 36/28/41 35/27/41 33/29/41
f 36/28/42 33/29/42 34/30/42
f 37/25/43 38/26/43 36/28/43
f 37/25/43 36/28/43 35/27/43
f 38/26/44 37/25/44 35/27/44
f 38/26/44 35/27/44 36/28/44
f 39/23/45 40/24/45 38/26/45
f 39/23/46 38/26/46 37/25/46
f 40/24/47 39/23/47 37/25/47
f 40/24/48 37/25/48 38/26/48
f 41/21/49 42/22/49 40/24/49
f 41/21/49 40/24/49 39/23/49
f 42/22/50 41/21/50 39/23/50
f 42/22/50 39/23/50 40/24/50
f 43/17/51 44/18/51 42/22/51
f 43/17/52 42/22/52 41/21/52
f 44/18/53 43/17/53 41/21/53
f 44/18/54 41/21/54 42/22/54
f 16/20/55 15/19/55 44/18/55
f 16/20/55 44/18/55 43/17/55
f 15/19/56 16/20/56 43/17/56
f 15/19/56 43/17/56 44/18/56
f 45/17/57 46/18/57 47/19/57
f 45/17/57 47/19/57 48/20/57
f 46/18/58 45/17/58 48/20/58
f 46/18/58 48/20/58 47/19/58
f 49/21/59 50/22/59 46/18/59
f 49/21/59 46/18/59 45/17/59
f 50/22/60 49/21/60 45/17/60
f 50/22/60 45/17/60 46/18/60
f 51/23/61 52/24/61 50/22/61
f 51/23/61 50/22/61 49/21/61
f 52/24/62 51/23/62 49/21/62
f 52/24/62 49/21/62 50/22/62
f 53/25/63 54/26/63 52/24/63
f 53/25/63 52/24/63 51/23/63
f 54/26/64 53/25/64 51/23/64
f 54/26/64 51/23/64 52/24/64
f 55/27/65 56/28/65 54/26/65
f 55/27/65 54/26/65 53/25/65
f 56/28/66 55/27/66 53/25/66
f 56/28/66 53/25/66 54/26/66
f 57/29/67 58/30/67 56/28/67
f 57/29/68 56/28/68 55/27/68
f 58/30/69 57/29/69 55/27/69
f 58/30/70 55/27/70 56/28/70
f 59/31/71 60/32/71 58/30/71
f 59/31/72 58/30/72 57/29/72
f 60/32/73 59/31/73 57/29/73
f 60/32/74 57/29/74 58/30/74
f 61/33/75 62/34/75 60/32/75
f 61/33/76 60/32/76 59/31/76
f 62/34/77 61/33/77 59/31/77
f 62/34/78 59/31/78 60/32/78
f 63/31/79 64/32/79 62/34/79
f 63/31/80 62/34/80 61/33/80
f 64/32/81 63/31/81 61/33/81
f 64/32/82 61/33/82 62/34/82
f 65/29/83 66/30/83 64/32/83
f 65/29/84 64/32/84 63/31/84
f 66/30/85 65/29/85 63/31/85
f 66/30/86 63/31/86 64/32/86
f 67/27/87 68/28/87 66/30/87
f 67/27/88 66/30/88 65/29/88
f 68/28/89 67/27/89 65/29/89
f 68/28/90 65/29/90 66/30/90
f 69/25/91 70/26/91 68/28/91
f 69/25/91 68/28/91 67/27/91
f 70/26/92 69/25/92 67/27/92
f 70/26/92 67/27/92 68/28/92
f 71/23/93 72/24/93 70/26/93
f 71/23/93 70/26/93 69/25/93
f 72/24/94 71/23/94 69/25/94
f 72/24/94 69/25/94 70/26/94
f 73/21/95 74/22/95 72/24/95
f 73/21/95 72/24/95 71/23/95
f 74/22/96 73/21/96 71/23/96
f 74/22/96 71/23/96 72/24/96
f 75/17/97 76/18/97 74/22/97
f 75/17/97 74/22/97 73/21/97
f 76/18/98 75/17/98 73/21/98
f 76/18/98 73/21/98 74/22/98
f 48/20/99 47/19/99 76/18/99
f 48/20/99 76/18/99 75/17/99
f 47/19/100 48/20/100 75/17/100
f 47/19/100 75/17/100 76/18/100
f 77/17/57 78/18/57 79/19/57
f 77/17/57 79/19/57 80/20/57
f 78/18/58 77/17/58 80/20/58
f 78/18/58 80/20/58 79/19/58
f 81/21/59 82/22/59 78/18/59
f 81/21/59 78/18/59 77/17/59
f 82/22/60 81/21/60 77/17/60
f 82/22/60 77/17/60 78/18/60
f 83/23/101 84/24/101 82/22/101
f 83/23/102 82/22/102 81/21/102
f 84/24/103 83/23/103 81/21/103
f 84/24/104 81/21/104 82/22/104
f 85/25/105 86/26/105 84/24/105
f 85/25/105 84/24/105 83/23/105
f 86/26/106 85/25/106 83/23/106
f 86/26/106 83/23/106 84/24/106
f 87/27/107 88/28/107 86/26/107
f 87/27/107 86/26/107 85/25/107
f 88/28/108 87/27/108 85/25/108
f 88/28/108 85/25/108 86/26/108
f 89/29/109 90/30/109 88/28/109
f 89/29/110 88/28/110 87/27/110
f 90/30/111 89/29/111 87/27/111
f 90/30/112 87/27/112 88/28/112
f 91/31/71 92/32/71 90/30/71
f 91/31/72 90/30/72 89/29/72
f 92/32/73 91/31/73 89/29/73
f 92/32/113 89/29/113 90/30/113
f 93/33/75 94/34/75 92/32/75
f 93/33/76 92/32/76 91/31/76
f 94/34/114 93/33/114 91/31/114
f 94/34/78 91/31/78 92/32/78
f 95/31/79 96/32/79 94/34/79
f 95/31/115 94/34/115 93/33/115
f 96/32/81 95/31/81 93/33/81
f 96/32/82 93/33/82 94/34/82
f 97/29/83 98/30/83 96/32/83
f 97/29/84 96/32/84 95/31/84
f 98/30/85 97/29/85 95/31/85
f 98/30/86 95/31/86 96/32/86
f 99/27/116 100/28/116 98/30/116
f 99/27/117 98/30/117 97/29/117
f 100/28/118 99/27/118 97/29/118
f 100/28/119 97/29/119 98/30/119
f 101/25/120 102/26/120 100/28/120
f 101/25/120 100/28/120 99/27/120
f 102/26/121 101/25/121 99/27/121
f 102/26/121 99/27/121 100/28/121
f 103/23/122 104/24/122 102/26/122
f 103/23/122 102/26/122 101/25/122
f 104/24/123 103/23/123 101/25/123
f 104/24/123 101/25/123 102/26/123
f 105/21/124 106/22/124 104/24/124
f 105/21/125 104/24/125 103/23/125
f 106/22/126 105/21/126 103/23/126
f 106/22/127 103/23/127 104/24/127
f 107/17/97 108/18/97 106/22/97
f 107/17/97 106/22/97 105/21/97
f 108/18/98 107/17/98 105/21/98
f 108/18/98 105/21/98 106/22/98
f 80/20/99 79/19/99 108/18/99
f 80/20/99 108/18/99 107/17/99
f 79/19/100 80/20/100 107/17/100
f 79/19/100 107/17/100 108/18/100
f 109/17/57 110/18/57 111/19/57
f 109/17/57 111/19/57 112/20/57
f 110/18/58 109/17/58 112/20/58
f 110/18/58 112/20/58 111/19/58
f 113/21/59 114/22/59 110/18/59
f 113/21/59 110/18/59 109/17/59
f 114/22/60 113/21/60 109/17/60
f 114/22/60 109/17/60 110/18/60
f 115/23/101 116/24/101 114/22/101
f 115/23/102 114/22/102 113/21/102
f 116/24/103 115/23/103 113/21/103
f 116/24/104 113/21/104 114/22/104
f 117/25/105 118/26/105 116/24/105
f 117/25/105 116/24/105 115/23/105
f 118/26/106 117/25/106 115/23/106
f 118/26/106 115/23/106 116/24/106
f 119/27/65 120/28/65 118/26/65
f 119/27/65 118/26/65 117/25/65
f 120/28/66 119/27/66 117/25/66
f 120/28/66 117/25/66 118/26/66
f 121/29/67 122/30/67 120/28/67
f 121/29/68 120/28/68 119/27/68
f 122/30/69 121/29/69 119/27/69
f 122/30/70 119/27/70 120/28/70
f 123/31/71 124/32/71 122/30/71
f 123/31/72 122/30/72 121/29/72
f 124/32/73 123/31/73 121/29/73
f 124/32/74 121/29/74 122/30/74
f 125/33/75 126/34/75 124/32/75
f 125/33/76 124/32/76 123/31/76
f 126/34/77 125/33/77 123/31/77
f 126/34/78 123/31/78 124/32/78
f 127/31/79 128/32/79 126/34/79
f 127/31/80 126/34/80 125/33/80
f 128/32/81 127/31/81 125/33/81
f 128/32/82 125/33/82 126/34/82
f 129/29/83 130/30/83 128/32/83
f 129/29/84 128/32/84 127/31/84
f 130/30/85 129/29/85 127/31/85
f 130/30/128 127/31/128 128/32/128
f 131/27/87 132/28/87 130/30/87
f 131/27/88 130/30/88 129/29/88
f 132/28/89 131/27/89 129/29/89
f 132/28/90 129/29/90 130/30/90
f 133/25/91 134/26/91 132/28/91
f 133/25/91 132/28/91 131/27/91
f 134/26/92 133/25/92 131/27/92
f 134/26/129 131/27/129 132/28/129
f 135/23/122 136/24/122 134/26/122
f 135/23/122 134/26/122 133/25/122
f 136/24/123 135/23/123 133/25/123
f 136/24/123 133/25/123 134/26/123
f 137/21/124 138/22/124 136/24/124
f 137/21/125 136/24/125 135/23/125
f 138/22/126 137/21/126 135/23/126
f 138/22/127 135/23/127 136/24/127
f 139/17/97 140/18/97 138/22/97
f 139/17/97 138/22/97 137/21/97
f 140/18/98 139/17/98 137/21/98
f 140/18/98 137/21/98 138/22/98
f 112/20/99 111/19/99 140/18/99
f 112/20/99 140/18/99 139/17/99
f 111/19/100 112/20/100 139/17/100
f 111/19/100 139/17/100 140/18/100
f 141/17/57 142/18/57 143/19/57
f 141/17/57 143/19/57 144/20/57
f 142/18/58 141/17/58 144/20/58
f 142/18/58 144/20/58 143/19/58
f 145/21/59 146/22/59 142/18/59
f 145/21/59 142/18/59 141/17/59
f 146/22/60 145/21/60 141/17/60
f 146/22/60 141/17/60 142/18/60
f 147/23/102 148/24/102 146/22/102
f 147/23/101 146/22/101 145/21/101
f 148/24/104 147/23/104 145/21/104
f 148/24/103 145/21/103 146/22/103
f 149/25/105 150/26/105 148/24/105
f 149/25/105 148/24/105 147/23/105
f 150/26/106 149/25/106 147/23/106
f 150/26/106 147/23/106 148/24/106
f 151/27/130 152/28/130 150/26/130
f 151/27/107 150/26/107 149/25/107
f 152/28/131 151/27/131 149/25/131
f 152/28/66 149/25/66 150/26/66
f 153/29/67 154/30/67 152/28/67
f 153/29/132 152/28/132 151/27/132
f 154/30/111 153/29/111 151/27/111
f 154/30/133 151/27/133 152/28/133
f 155/31/134 156/32/134 154/30/134
f 155/31/72 154/30/72 153/29/72
f 156/32/135 155/31/135 153/29/135
f 156/32/136 153/29/136 154/30/136
f 157/33/137 158/34/137 156/32/137
f 157/33/138 156/32/138 155/31/138
f 158/34/99 157/33/99 155/31/99
f 158/34/139 155/31/139 156/32/139
f 159/31/140 160/32/140 158/34/140
f 159/31/58 158/34/58 157/33/58
f 160/32/141 159/31/141 157/33/141
f 160/32/142 157/33/142 158/34/142
f 161/29/143 162/30/143 160/32/143
f 161/29/144 160/32/144 159/31/144
f 162/30/85 161/29/85 159/31/85
f 162/30/145 159/31/145 160/32/145
f 163/27/87 164/28/87 162/30/87
f 163/27/88 162/30/88 161/29/88
f 164/28/89 163/27/89 161/29/89
f 164/28/90 161/29/90 162/30/90
f 165/25/91 166/26/91 164/28/91
f 165/25/91 164/28/91 163/27/91
f 166/26/92 165/25/92 163/27/92
f 166/26/92 163/27/92 164/28/92
f 167/23/122 168/24/122 166/26/122
f 167/23/122 166/26/122 165/25/122
f 168/24/123 167/23/123 165/25/123
f 168/24/123 165/25/123 166/26/123
f 169/21/125 170/22/125 168/24/125
f 169/21/124 168/24/124 167/23/124
f 170/22/127 169/21/127 167/23/127
f 170/22/126 167/23/126 168/24/126
f 171/17/97 172/18/97 170/22/97
f 171/17/97 170/22/97 169/21/97
f 172/18/98 171/17/98 169/21/98
f 172/18/98 169/21/98 170/22/98
f 144/20/99 143/19/99 172/18/99
f 144/20/99 172/18/99 171/17/99
f 143/19/100 144/20/100 171/17/100
f 143/19/100 171/17/100 172/18/100
f 173/17/57 174/18/57 175/19/57
f 173/17/57 175/19/57 176/20/57
f 174/18/58 173/17/58 176/20/58
f 174/18/58 176/20/58 175/19/58
f 177/21/59 178/22/59 174/18/59
f 177/21/59 174/18/59 173/17/59
f 178/22/60 177/21/60 173/17/60
f 178/22/60 173/17/60 174/18/60
f 179/23/102 180/24/102 178/22/102
f 179/23/102 178/22/102 177/21/102
f 180/24/104 179/23/104 177/21/104
f 180/24/104 177/21/104 178/22/104
f 181/25/146 182/26/146 180/24/146
f 181/25/146 180/24/146 179/23/146
f 182/26/147 181/25/147 179/23/147
f 182/26/147 179/23/147 180/24/147
f 183/27/148 184/28/148 182/26/148
f 183/27/148 182/26/148 181/25/148
f 184/28/149 183/27/149 181/25/149
f 184/28/149 181/25/149 182/26/149
f 185/29/109 186/30/109 184/28/109
f 185/29/110 184/28/110 183/27/110
f 186/30/111 185/29/111 183/27/111
f 186/30/112 183/27/112 184/28/112
f 187/31/71 188/32/71 186/30/71
f 187/31/72 186/30/72 185/29/72
f 188/32/73 187/31/73 185/29/73
f 188/32/74 185/29/74 186/30/74
f 189/33/75 190/34/75 188/32/75
f 189/33/76 188/32/76 187/31/76
f 190/34/77 189/33/77 187/31/77
f 190/34/78 187/31/78 188/32/78
f 191/31/79 192/32/79 190/34/79
f 191/31/80 190/34/80 189/33/80
f 192/32/81 191/31/81 189/33/81
f 192/32/82 189/33/82 190/34/82
f 193/29/83 194/30/83 192/32/83
f 193/29/84 192/32/84 191/31/84
f 194/30/85 193/29/85 191/31/85
f 194/30/86 191/31/86 192/32/86
f 195/27/116 196/28/116 194/30/116
f 195/27/117 194/30/117 193/29/117
f 196/28/118 195/27/118 193/29/118
f 196/28/119 193/29/119 194/30/119
f 197/25/150 198/26/150 196/28/150
f 197/25/150 196/28/150 195/27/150
f 198/26/151 197/25/151 195/27/151
f 198/26/151 195/27/151 196/28/151
f 199/23/152 200/24/152 198/26/152
f 199/23/152 198/26/152 197/25/152
f 200/24/153 199/23/153 197/25/153
f 200/24/153 197/25/153 198/26/153
f 201/21/124 202/22/124 200/24/124
f 201/21/124 200/24/124 199/23/124
f 202/22/126 201/21/126 199/23/126
f 202/22/126 199/23/126 200/24/126
f 203/17/97 204/18/97 202/22/97
f 203/17/97 202/22/97 201/21/97
f 204/18/98 203/17/98 201/21/98
f 204/18/98 201/21/98 202/22/98
f 176/20/99 175/19/99 204/18/99
f 176/20/99 204/18/99 203/17/99
f 175/19/100 176/20/100 203/17/100
f 175/19/100 203/17/100 204/18/100
f 205/35/154 206/36/154 207/37/154
f 207/37/154 208/38/154 205/35/154
f 208/38/1 207/37/1 209/39/1
f 209/39/155 210/40/155 208/38/155
f 210/40/156 209/39/156 211/41/156
f 211/41/157 212/42/157 210/40/157
f 206/43/158 205/44/158 208/45/158
f 208/45/158 207/46/158 206/43/158
f 207/46/3 208/45/3 210/47/3
f 210/47/159 209/48/159 207/46/159
f 209/48/160 210/47/160 212/49/160
f 212/49/161 211/50/161 209/48/161
f 213/51/162 214/52/162 215/53/162
f 215/53/163 216/54/163 213/51/163
f 217/55/2 218/56/2 219/57/2
f 219/57/2 220/58/2 217/55/2
f 218/56/164 213/51/164 216/54/164
f 216/54/165 219/57/165 218/56/165
f 217/59/5 214/60/5 213/51/5
f 213/51/5 218/56/5 217/59/5
f 220/61/6 219/57/6 216/54/6
f 216/54/6 215/62/6 220/61/6
