# generated by tools/objdedupe/dedupe.py -- do not hand-edit.
# Re-run the tool after touching azd_1svet.obj, azd_2svet.obj, azd_3svet.obj, azd_4svet.obj, azd_5svet.obj, azd_6svet.obj.
o stit_4svet_S_pruhy
v 0.159629 3.164531 0.332485
vt 0.402000 0.258000
vn -0.000000 -0.000000 1.000000
v -0.159629 3.164531 0.332485
vt 0.230000 0.258000
v -0.159629 2.992727 0.332484
vt 0.230000 0.173000
v 0.159629 2.992727 0.332484
vt 0.402000 0.173000
v -0.172422 3.159463 0.331310
vt 0.524000 0.514000
vn -1.000000 -0.000000 -0.000000
v -0.172422 3.159463 0.266358
vt 0.485000 0.514000
v -0.172422 2.988648 0.266358
vt 0.485000 0.487000
v -0.172422 2.988648 0.331310
vt 0.524000 0.487000
vt 0.590000 0.521000
vn -0.000000 -0.000000 -1.000000
v 0.172422 3.159463 0.266359
vt 0.418000 0.521000
v 0.172422 2.988648 0.266359
vt 0.419000 0.418000
vt 0.590000 0.418000
vn 1.000000 -0.000000 -0.000000
v 0.172422 3.159463 0.331310
v 0.172422 2.988648 0.331310
vt 0.590000 0.515000
vn -0.000000 1.000000 -0.000000
vt 0.419000 0.515000
vt 0.419000 0.496000
vt 0.590000 0.496000
vn -0.000000 -1.000000 -0.000000
v 0.094307 3.164778 0.331310
vt 0.411000 0.078000
vn -0.073800 -0.997300 -0.000000
v 0.094307 3.164778 0.569178
vt 0.247000 0.078000
v -0.000000 3.171762 0.569178
vt 0.247000 0.081000
v -0.000000 3.171762 0.331310
vt 0.411000 0.081000
vn 0.073800 0.997300 -0.000000
v 0.151039 3.153160 0.331310
vt 0.411000 0.070000
vn -0.386300 -0.921200 -0.047100
v 0.151039 3.140985 0.569178
vt 0.247000 0.070000
vn -0.200600 -0.979700 -0.000000
vn 0.200400 0.978400 0.050100
vn 0.386800 0.922200 -0.000000
v 0.168158 3.121456 0.331310
vt 0.411000 0.058000
vn -0.879700 -0.475000 -0.024300
v 0.168158 3.109282 0.569178
vt 0.247000 0.058000
vn 0.879700 0.475000 0.024300
v 0.175203 3.080236 0.331310
vt 0.411000 0.044000
vn -0.971800 -0.235700 -0.000000
v 0.175203 3.080236 0.569178
vt 0.247000 0.044000
vn -0.985700 -0.168500 -0.008600
vn 0.985700 0.168500 -0.000000
vn 0.971800 0.235700 0.012100
v 0.169208 3.044886 0.331310
vt 0.411000 0.030000
vn -0.985900 0.167200 -0.000000
v 0.169208 3.044886 0.394223
vt 0.372000 0.030000
vn 0.985900 -0.167200 -0.000000
v 0.167478 3.015531 0.331310
vt 0.411000 0.018000
vn -0.998300 0.058500 0.000100
v 0.167478 3.015408 0.379638
vt 0.381000 0.018000
vn -0.998300 0.058800 -0.000000
vn 0.998300 -0.058800 -0.000200
vn 0.998300 -0.058600 -0.000000
v 0.149556 2.988772 0.331310
vt 0.411000 0.010000
vn -0.831900 0.554900 0.002700
v 0.149556 2.988586 0.369873
vt 0.387000 0.010000
vn -0.830900 0.556500 0.001400
vn 0.830900 -0.556500 -0.002700
vn 0.831700 -0.555200 -0.001400
v -0.000000 2.988710 0.331310
vt 0.411000 0.007000
vn 0.000400 1.000000 0.001800
v -0.000000 2.988648 0.366413
vt 0.391000 0.007000
vn -0.000400 1.000000 0.004800
vn 0.000400 -1.000000 -0.001800
vn -0.000300 -1.000000 -0.004800
v -0.149556 2.988772 0.331310
vn -0.000300 1.000000 0.004800
v -0.149556 2.988586 0.369873
vn -0.000400 -1.000000 -0.004800
v -0.167725 3.015531 0.331310
vn 0.828200 0.560500 0.001400
v -0.167725 3.015408 0.379638
vn 0.827300 0.561700 0.002700
vn -0.827300 -0.561700 -0.001400
vn -0.828400 -0.560200 -0.002700
v -0.169208 3.044886 0.331310
vn 0.998700 0.050300 -0.000000
v -0.169208 3.044886 0.394223
vn 0.998700 0.050500 0.000100
vn -0.998700 -0.050500 -0.000000
vn -0.998700 -0.050200 -0.000100
v -0.175203 3.080236 0.331310
vn 0.985900 0.167200 -0.000000
v -0.175203 3.080236 0.569178
vn -0.985900 -0.167200 -0.000000
v -0.168158 3.121456 0.331310
vn 0.971800 -0.235700 -0.012100
v -0.168158 3.109282 0.569178
vn 0.985700 -0.168500 -0.000000
vn -0.985700 0.168500 0.008600
vn -0.971800 0.235700 -0.000000
v -0.151039 3.153160 0.331310
vn 0.879700 -0.475000 -0.024300
v -0.151039 3.140985 0.569178
vn -0.879700 0.475000 0.024300
v -0.094307 3.164778 0.331310
vn 0.386800 -0.922200 -0.000000
v -0.094307 3.164778 0.569178
vn 0.200400 -0.978400 -0.050100
vn -0.200600 0.979700 -0.000000
vn -0.386300 0.921200 0.047100
vn 0.073800 -0.997300 -0.000000
vn -0.073800 0.997300 -0.000000
v 0.184288 3.172812 0.331310
vt 0.412000 0.439000
vn -0.000200 0.000200 1.000000
v -0.184288 3.172812 0.331248
vt 0.220000 0.439000
v -0.184288 2.878397 0.331310
vt 0.220000 0.279000
vn 0.000200 -0.000200 1.000000
v 0.184288 2.878397 0.331248
vt 0.412000 0.279000
vn 0.000200 0.000400 1.000000
v -0.095110 2.836002 0.331310
vt 0.263000 0.267000
vn 0.000300 -0.000700 1.000000
v 0.095110 2.836002 0.331248
vt 0.367000 0.267000
vt 0.212000 0.433000
vn 0.000200 0.000200 -1.000000
vt 0.003000 0.433000
vt 0.003000 0.279000
vn -0.000200 -0.000200 -1.000000
vt 0.212000 0.279000
vn -0.000200 0.000400 -1.000000
vt 0.052000 0.267000
vn -0.000300 -0.000700 -1.000000
vt 0.166000 0.267000
v -0.092700 2.987969 0.331310
vt 0.533000 0.393000
vn 0.000300 -1.000000 -0.000000
v -0.092700 2.987969 0.210924
vt 0.533000 0.440000
v 0.092700 2.988030 0.210924
vt 0.471000 0.440000
vn -0.000000 -1.000000 -0.000500
v 0.092700 2.987969 0.331310
vt 0.471000 0.393000
v 0.034979 3.350178 0.331310
vn -0.195800 -0.980600 -0.000000
v 0.034979 3.350178 0.643895
v -0.000000 3.357162 0.643895
v -0.000000 3.357162 0.331249
vn 0.195800 0.980600 -0.000000
v 0.064705 3.330341 0.331310
vn -0.555100 -0.831800 -0.000000
v 0.064705 3.330341 0.643895
vn 0.555100 0.831800 -0.000000
v 0.084542 3.300676 0.331310
vn -0.831300 -0.555900 -0.000000
v 0.084542 3.300676 0.643895
vn -0.831200 -0.555900 -0.000000
vn 0.831300 0.555900 -0.000000
vn 0.831200 0.555900 -0.000000
v 0.091464 3.265636 0.331249
vn -0.981000 -0.193800 -0.000000
v 0.091464 3.265636 0.643895
vn 0.981000 0.193800 -0.000000
v 0.084542 3.230348 0.331310
vn -0.981600 0.190900 0.000200
v 0.084542 3.230286 0.394223
vn -0.981300 0.192500 -0.000000
vn 0.981300 -0.192500 -0.000200
vn 0.981400 -0.192200 -0.000000
v 0.064705 3.200931 0.331310
vn -0.830000 0.557800 0.001400
v 0.064705 3.200807 0.379638
vn -0.829100 0.559100 0.000600
vn 0.829100 -0.559100 -0.001400
vn 0.829800 -0.558100 -0.000500
v 0.034979 3.181093 0.331310
vn -0.558700 0.829400 0.005300
v 0.034979 3.180846 0.369873
vn -0.555100 0.831800 0.002100
vn 0.555100 -0.831800 -0.005300
vn 0.558000 -0.829900 -0.002100
v -0.000000 3.174110 0.331310
vn -0.190900 0.981600 0.001700
v -0.000000 3.174048 0.366413
vn -0.195800 0.980600 0.006300
vn 0.195800 -0.980600 -0.001700
vn 0.191400 -0.981500 -0.006300
v -0.034979 3.181093 0.331310
vn 0.191400 0.981500 0.006300
v -0.034979 3.180846 0.369873
vn 0.195800 0.980600 0.001700
vn -0.195800 -0.980600 -0.006300
vn -0.190900 -0.981600 -0.001700
v -0.064705 3.200931 0.331310
vn 0.558000 0.829900 0.002100
v -0.064705 3.200807 0.379638
vn 0.555100 0.831800 0.005300
vn -0.555100 -0.831800 -0.002100
vn -0.558700 -0.829400 -0.005300
v -0.084542 3.230286 0.331310
vn 0.829600 0.558300 -0.000000
v -0.084542 3.230286 0.394223
vn 0.828500 0.559900 0.001400
vn -0.828500 -0.559900 -0.000000
vn -0.830000 -0.557800 -0.001400
v -0.091464 3.265636 0.331249
vn 0.981400 0.192200 -0.000000
v -0.091464 3.265636 0.643895
vn -0.981400 -0.192200 -0.000000
vn -0.981400 -0.192100 -0.000000
v -0.084542 3.300676 0.331310
vn 0.981000 -0.193800 -0.000000
v -0.084542 3.300676 0.643895
vn -0.981000 0.193800 -0.000000
v -0.064705 3.330341 0.331310
vn 0.831200 -0.555900 -0.000000
v -0.064705 3.330341 0.643895
vn 0.831300 -0.555900 -0.000000
vn -0.831200 0.555900 -0.000000
vn -0.831300 0.555900 -0.000000
v -0.034979 3.350178 0.331310
vn 0.555100 -0.831800 -0.000000
v -0.034979 3.350178 0.643895
vn -0.555100 0.831800 -0.000000
vn 0.195800 -0.980600 -0.000000
vn -0.195800 0.980600 -0.000000
v 0.034979 3.535578 0.331310
v 0.034979 3.535578 0.643895
v -0.000000 3.542561 0.643895
v -0.000000 3.542561 0.331249
v 0.064705 3.515740 0.331310
v 0.064705 3.515740 0.643895
v 0.084542 3.486076 0.331310
v 0.084542 3.486076 0.643895
v 0.091464 3.451036 0.331249
v 0.091464 3.451036 0.643895
v 0.084542 3.415686 0.331310
vn -0.981400 0.192200 -0.000000
v 0.084542 3.415686 0.394223
v 0.064705 3.386331 0.331310
v 0.064705 3.386208 0.379638
vn -0.828600 0.559900 -0.000000
vn 0.828500 -0.559900 -0.001400
vn 0.829600 -0.558300 -0.000000
v 0.034979 3.366493 0.331310
v 0.034979 3.366246 0.369874
v -0.000000 3.359510 0.331310
v -0.000000 3.359448 0.366413
v -0.034979 3.366493 0.331310
v -0.034979 3.366246 0.369874
v -0.064705 3.386331 0.331310
v -0.064705 3.386208 0.379638
v -0.084542 3.415686 0.331310
v -0.084542 3.415686 0.394223
vn -0.828600 -0.559900 -0.000000
v -0.091464 3.451036 0.331249
v -0.091464 3.451036 0.643895
v -0.084542 3.486076 0.331310
v -0.084542 3.486076 0.643895
v -0.064705 3.515740 0.331310
v -0.064705 3.515740 0.643895
v -0.034979 3.535578 0.331310
v -0.034979 3.535578 0.643895
v 0.034979 3.720978 0.331310
v 0.034979 3.720978 0.643895
v -0.000000 3.727962 0.643895
v -0.000000 3.727962 0.331249
v 0.064705 3.701140 0.331310
v 0.064705 3.701140 0.643895
v 0.084542 3.671476 0.331310
v 0.084542 3.671476 0.643895
v 0.091464 3.636436 0.331249
v 0.091464 3.636436 0.643895
v 0.084542 3.601148 0.331310
v 0.084542 3.601148 0.394223
vn 0.981300 -0.192500 -0.000000
v 0.064705 3.571731 0.331310
vn -0.830500 0.557000 0.001400
v 0.064705 3.571608 0.379638
vn -0.829100 0.559100 -0.000000
vn 0.830200 -0.557500 -0.000000
v 0.034979 3.551893 0.331310
vn -0.557200 0.830400 0.004000
v 0.034979 3.551708 0.369874
vn 0.555100 -0.831800 -0.004000
vn 0.556800 -0.830700 -0.002100
v -0.000000 3.544910 0.331310
vn -0.190800 0.981600 -0.000000
v -0.000000 3.544910 0.366413
vn -0.195800 0.980600 0.004700
vn 0.191200 -0.981500 -0.004700
v -0.034979 3.551893 0.331310
vn 0.191200 0.981500 0.004700
v -0.034979 3.551708 0.369874
vn -0.195800 -0.980600 -0.004700
vn -0.190800 -0.981600 -0.000000
v -0.064705 3.571731 0.331310
vn 0.556800 0.830700 0.002100
v -0.064705 3.571608 0.379638
vn 0.555100 0.831800 0.004000
vn -0.557200 -0.830400 -0.004000
v -0.084542 3.601148 0.331310
vn 0.830200 0.557500 -0.000000
v -0.084542 3.601148 0.394223
vn 0.829100 0.559100 0.001400
vn -0.829100 -0.559100 -0.000000
vn -0.830500 -0.557000 -0.001400
v -0.091464 3.636436 0.331249
vn 0.981300 0.192500 -0.000000
v -0.091464 3.636436 0.643895
vn -0.981300 -0.192500 -0.000000
v -0.084542 3.671476 0.331310
v -0.084542 3.671476 0.643895
v -0.064705 3.701140 0.331310
v -0.064705 3.701140 0.643895
v -0.034979 3.720978 0.331310
v -0.034979 3.720978 0.643895
v 0.034979 3.906316 0.331310
v 0.034979 3.906316 0.643895
v -0.000000 3.913300 0.643895
v -0.000000 3.913300 0.331249
v 0.064705 3.886479 0.331310
v 0.064705 3.886479 0.643895
v 0.084542 3.856814 0.331310
v 0.084542 3.856814 0.643895
v 0.091464 3.821712 0.331249
vn -0.981100 -0.193500 -0.000000
v 0.091464 3.821712 0.643895
vn 0.981100 0.193500 -0.000000
v 0.084542 3.786548 0.331310
vn -0.981200 0.193100 -0.000000
v 0.084542 3.786548 0.394223
vn 0.981200 -0.193100 -0.000000
v 0.064705 3.757131 0.331310
v 0.064705 3.757007 0.379638
v 0.034979 3.737293 0.331310
v 0.034979 3.737046 0.369874
v -0.000000 3.730310 0.331310
vn -0.191000 0.981600 0.001700
v -0.000000 3.730248 0.366413
v -0.034979 3.737293 0.331310
v -0.034979 3.737046 0.369874
vn -0.191000 -0.981600 -0.001700
v -0.064705 3.757131 0.331310
v -0.064705 3.757007 0.379638
v -0.084542 3.786486 0.331310
vn 0.830100 0.557700 -0.000500
v -0.084542 3.786548 0.394223
vn -0.828500 -0.559900 0.000600
v -0.091464 3.821712 0.331249
vn 0.981200 0.193100 -0.000000
v -0.091464 3.821712 0.643895
vn 0.981200 0.192800 -0.000200
vn -0.981200 -0.192800 -0.000000
vn -0.980900 -0.194400 0.000200
v -0.084542 3.856814 0.331310
vn 0.981100 -0.193500 -0.000000
v -0.084542 3.856814 0.643895
vn -0.981100 0.193500 -0.000000
v -0.064705 3.886479 0.331310
v -0.064705 3.886479 0.643895
v -0.034979 3.906316 0.331310
v -0.034979 3.906316 0.643895
v 0.095110 4.066811 0.331125
vt 0.367000 0.996000
vn 0.001600 -0.007700 1.000000
v -0.095110 4.066811 0.331434
vt 0.263000 0.996000
v -0.184288 4.023983 0.331249
vt 0.220000 0.984000
vn -0.000200 0.004000 1.000000
v 0.184288 4.023983 0.331310
vt 0.412000 0.984000
vn -0.000200 -0.000000 1.000000
vt 0.220000 0.538000
vt 0.412000 0.538000
vt 0.166000 0.996000
vn -0.001600 -0.007700 -1.000000
vt 0.052000 0.996000
vt 0.003000 0.984000
vn 0.000200 0.004000 -1.000000
vt 0.212000 0.984000
vn 0.000200 -0.000000 -1.000000
vt 0.003000 0.532000
vt 0.212000 0.532000
v 0.092700 3.914474 0.210924
vt 0.471000 0.950000
v 0.092700 3.914474 0.331249
vt 0.418000 0.950000
vt 0.470000 0.521000
v -0.092700 3.914474 0.331249
vt 0.590000 0.950000
v -0.092700 3.914474 0.210924
vt 0.533000 0.950000
vt 0.532000 0.521000
vt 0.533000 0.995000
vt 0.471000 0.995000
f 1/1/1 2/2/1 3/3/1
f 3/3/1 4/4/1 1/1/1
f 5/5/2 6/6/2 7/7/2
f 7/7/2 8/8/2 5/5/2
f 6/9/3 9/10/3 10/11/3
f 10/11/3 7/12/3 6/9/3
f 9/5/4 11/6/4 12/7/4
f 12/7/4 10/8/4 9/5/4
f 9/13/5 6/14/5 5/15/5
f 5/15/5 11/16/5 9/13/5
f 10/14/6 12/15/6 8/16/6
f 8/16/6 7/13/6 10/14/6
f 13/17/7 14/18/7 15/19/7
f 13/17/7 15/19/7 16/20/7
f 14/18/8 13/17/8 16/20/8
f 14/18/8 16/20/8 15/19/8
f 17/21/9 18/22/9 14/18/9
f 17/21/10 14/18/10 13/17/10
f 18/22/11 17/21/11 13/17/11
f 18/22/12 13/17/12 14/18/12
f 19/23/13 20/24/13 18/22/13
f 19/23/13 18/22/13 17/21/13
f 20/24/14 19/23/14 17/21/14
f 20/24/14 17/21/14 18/22/14
f 21/25/15 22/26/15 20/24/15
f 21/25/16 20/24/16 19/23/16
f 22/26/17 21/25/17 19/23/17
f 22/26/18 19/23/18 20/24/18
f 23/27/19 24/28/19 22/26/19
f 23/27/19 22/26/19 21/25/19
f 24/28/20 23/27/20 21/25/20
f 24/28/20 21/25/20 22/26/20
f 25/29/21 26/30/21 24/28/21
f 25/29/22 24/28/22 23/27/22
f 26/30/23 25/29/23 23/27/23
f 26/30/24 23/27/24 24/28/24
f 27/31/25 28/32/25 26/30/25
f 27/31/26 26/30/26 25/29/26
f 28/32/27 27/31/27 25/29/27
f 28/32/28 25/29/28 26/30/28
f 29/33/29 30/34/29 28/32/29
f 29/33/30 28/32/30 27/31/30
f 30/34/31 29/33/31 27/31/31
f 30/34/32 27/31/32 28/32/32
f 31/31/33 32/32/33 30/34/33
f 31/31/29 30/34/29 29/33/29
f 32/32/34 31/31/34 29/33/34
f 32/32/31 29/33/31 30/34/31
f 33/29/35 34/30/35 32/32/35
f 33/29/36 32/32/36 31/31/36
f 34/30/37 33/29/37 31/31/37
f 34/30/38 31/31/38 32/32/38
f 35/27/39 36/28/39 34/30/39
f 35/27/40 34/30/40 33/29/40
f 36/28/41 35/27/41 33/29/41
f 36/28/42 33/29/42 34/30/42
f 37/25/43 38/26/43 36/28/43
f 37/25/43 36/28/43 35/27/43
f 38/26/44 37/25/44 35/27/44
f 38/26/44 35/27/44 36/28/44
f 39/23/45 40/24/45 38/26/45
f 39/23/46 38/26/46 37/25/46
f 40/24/47 39/23/47 37/25/47
f 40/24/48 37/25/48 38/26/48
f 41/21/49 42/22/49 40/24/49
f 41/21/49 40/24/49 39/23/49
f 42/22/50 41/21/50 39/23/50
f 42/22/50 39/23/50 40/24/50
f 43/17/51 44/18/51 42/22/51
f 43/17/52 42/22/52 41/21/52
f 44/18/53 43/17/53 41/21/53
f 44/18/54 41/21/54 42/22/54
f 16/20/55 15/19/55 44/18/55
f 16/20/55 44/18/55 43/17/55
f 15/19/56 16/20/56 43/17/56
f 15/19/56 43/17/56 44/18/56
f 45/35/57 46/36/57 47/37/57
f 47/37/58 48/38/58 45/35/58
f 48/38/59 47/37/59 49/39/59
f 49/39/60 50/40/60 48/38/60
f 46/41/61 45/42/61 48/43/61
f 48/43/62 47/44/62 46/41/62
f 47/44/63 48/43/63 50/45/63
f 50/45/64 49/46/64 47/44/64
f 51/47/65 52/48/65 53/49/65
f 53/49/66 54/50/66 51/47/66
f 55/17/67 56/18/67 57/19/67
f 55/17/67 57/19/67 58/20/67
f 56/18/68 55/17/68 58/20/68
f 56/18/68 58/20/68 57/19/68
f 59/21/69 60/22/69 56/18/69
f 59/21/69 56/18/69 55/17/69
f 60/22/70 59/21/70 55/17/70
f 60/22/70 55/17/70 56/18/70
f 61/23/71 62/24/71 60/22/71
f 61/23/72 60/22/72 59/21/72
f 62/24/73 61/23/73 59/21/73
f 62/24/74 59/21/74 60/22/74
f 63/25/75 64/26/75 62/24/75
f 63/25/75 62/24/75 61/23/75
f 64/26/76 63/25/76 61/23/76
f 64/26/76 61/23/76 62/24/76
f 65/27/77 66/28/77 64/26/77
f 65/27/78 64/26/78 63/25/78
f 66/28/79 65/27/79 63/25/79
f 66/28/80 63/25/80 64/26/80
f 67/29/81 68/30/81 66/28/81
f 67/29/82 66/28/82 65/27/82
f 68/30/83 67/29/83 65/27/83
f 68/30/84 65/27/84 66/28/84
f 69/31/85 70/32/85 68/30/85
f 69/31/86 68/30/86 67/29/86
f 70/32/87 69/31/87 67/29/87
f 70/32/88 67/29/88 68/30/88
f 71/33/89 72/34/89 70/32/89
f 71/33/90 70/32/90 69/31/90
f 72/34/91 71/33/91 69/31/91
f 72/34/92 69/31/92 70/32/92
f 73/31/93 74/32/93 72/34/93
f 73/31/94 72/34/94 71/33/94
f 74/32/95 73/31/95 71/33/95
f 74/32/96 71/33/96 72/34/96
f 75/29/97 76/30/97 74/32/97
f 75/29/98 74/32/98 73/31/98
f 76/30/99 75/29/99 73/31/99
f 76/30/100 73/31/100 74/32/100
f 77/27/101 78/28/101 76/30/101
f 77/27/102 76/30/102 75/29/102
f 78/28/103 77/27/103 75/29/103
f 78/28/104 75/29/104 76/30/104
f 79/25/105 80/26/105 78/28/105
f 79/25/105 78/28/105 77/27/105
f 80/26/106 79/25/106 77/27/106
f 80/26/107 77/27/107 78/28/107
f 81/23/108 82/24/108 80/26/108
f 81/23/108 80/26/108 79/25/108
f 82/24/109 81/23/109 79/25/109
f 82/24/109 79/25/109 80/26/109
f 83/21/110 84/22/110 82/24/110
f 83/21/111 82/24/111 81/23/111
f 84/22/112 83/21/112 81/23/112
f 84/22/113 81/23/113 82/24/113
f 85/17/114 86/18/114 84/22/114
f 85/17/114 84/22/114 83/21/114
f 86/18/115 85/17/115 83/21/115
f 86/18/115 83/21/115 84/22/115
f 58/20/116 57/19/116 86/18/116
f 58/20/116 86/18/116 85/17/116
f 57/19/117 58/20/117 85/17/117
f 57/19/117 85/17/117 86/18/117
f 87/17/67 88/18/67 89/19/67
f 87/17/67 89/19/67 90/20/67
f 88/18/68 87/17/68 90/20/68
f 88/18/68 90/20/68 89/19/68
f 91/21/69 92/22/69 88/18/69
f 91/21/69 88/18/69 87/17/69
f 92/22/70 91/21/70 87/17/70
f 92/22/70 87/17/70 88/18/70
f 93/23/71 94/24/71 92/22/71
f 93/23/72 92/22/72 91/21/72
f 94/24/73 93/23/73 91/21/73
f 94/24/74 91/21/74 92/22/74
f 95/25/75 96/26/75 94/24/75
f 95/25/75 94/24/75 93/23/75
f 96/26/76 95/25/76 93/23/76
f 96/26/76 93/23/76 94/24/76
f 97/27/118 98/28/118 96/26/118
f 97/27/118 96/26/118 95/25/118
f 98/28/80 97/27/80 95/25/80
f 98/28/80 95/25/80 96/26/80
f 99/29/81 100/30/81 98/28/81
f 99/29/119 98/28/119 97/27/119
f 100/30/120 99/29/120 97/27/120
f 100/30/121 97/27/121 98/28/121
f 101/31/85 102/32/85 100/30/85
f 101/31/86 100/30/86 99/29/86
f 102/32/87 101/31/87 99/29/87
f 102/32/88 99/29/88 100/30/88
f 103/33/89 104/34/89 102/32/89
f 103/33/90 102/32/90 101/31/90
f 104/34/91 103/33/91 101/31/91
f 104/34/92 101/31/92 102/32/92
f 105/31/93 106/32/93 104/34/93
f 105/31/94 104/34/94 103/33/94
f 106/32/95 105/31/95 103/33/95
f 106/32/96 103/33/96 104/34/96
f 107/29/97 108/30/97 106/32/97
f 107/29/98 106/32/98 105/31/98
f 108/30/99 107/29/99 105/31/99
f 108/30/100 105/31/100 106/32/100
f 109/27/101 110/28/101 108/30/101
f 109/27/102 108/30/102 107/29/102
f 110/28/122 109/27/122 107/29/122
f 110/28/104 107/29/104 108/30/104
f 111/25/105 112/26/105 110/28/105
f 111/25/105 110/28/105 109/27/105
f 112/26/106 111/25/106 109/27/106
f 112/26/106 109/27/106 110/28/106
f 113/23/108 114/24/108 112/26/108
f 113/23/108 112/26/108 111/25/108
f 114/24/109 113/23/109 111/25/109
f 114/24/109 111/25/109 112/26/109
f 115/21/110 116/22/110 114/24/110
f 115/21/111 114/24/111 113/23/111
f 116/22/112 115/21/112 113/23/112
f 116/22/113 113/23/113 114/24/113
f 117/17/114 118/18/114 116/22/114
f 117/17/114 116/22/114 115/21/114
f 118/18/115 117/17/115 115/21/115
f 118/18/115 115/21/115 116/22/115
f 90/20/116 89/19/116 118/18/116
f 90/20/116 118/18/116 117/17/116
f 89/19/117 90/20/117 117/17/117
f 89/19/117 117/17/117 118/18/117
f 119/17/67 120/18/67 121/19/67
f 119/17/67 121/19/67 122/20/67
f 120/18/68 119/17/68 122/20/68
f 120/18/68 122/20/68 121/19/68
f 123/21/69 124/22/69 120/18/69
f 123/21/69 120/18/69 119/17/69
f 124/22/70 123/21/70 119/17/70
f 124/22/70 119/17/70 120/18/70
f 125/23/71 126/24/71 124/22/71
f 125/23/72 124/22/72 123/21/72
f 126/24/73 125/23/73 123/21/73
f 126/24/74 123/21/74 124/22/74
f 127/25/75 128/26/75 126/24/75
f 127/25/75 126/24/75 125/23/75
f 128/26/76 127/25/76 125/23/76
f 128/26/76 125/23/76 126/24/76
f 129/27/78 130/28/78 128/26/78
f 129/27/78 128/26/78 127/25/78
f 130/28/123 129/27/123 127/25/123
f 130/28/123 127/25/123 128/26/123
f 131/29/124 132/30/124 130/28/124
f 131/29/125 130/28/125 129/27/125
f 132/30/83 131/29/83 129/27/83
f 132/30/126 129/27/126 130/28/126
f 133/31/127 134/32/127 132/30/127
f 133/31/86 132/30/86 131/29/86
f 134/32/128 133/31/128 131/29/128
f 134/32/129 131/29/129 132/30/129
f 135/33/130 136/34/130 134/32/130
f 135/33/131 134/32/131 133/31/131
f 136/34/116 135/33/116 133/31/116
f 136/34/132 133/31/132 134/32/132
f 137/31/133 138/32/133 136/34/133
f 137/31/68 136/34/68 135/33/68
f 138/32/134 137/31/134 135/33/134
f 138/32/135 135/33/135 136/34/135
f 139/29/136 140/30/136 138/32/136
f 139/29/137 138/32/137 137/31/137
f 140/30/99 139/29/99 137/31/99
f 140/30/138 137/31/138 138/32/138
f 141/27/139 142/28/139 140/30/139
f 141/27/140 140/30/140 139/29/140
f 142/28/141 141/27/141 139/29/141
f 142/28/142 139/29/142 140/30/142
f 143/25/143 144/26/143 142/28/143
f 143/25/143 142/28/143 141/27/143
f 144/26/144 143/25/144 141/27/144
f 144/26/144 141/27/144 142/28/144
f 145/23/108 146/24/108 144/26/108
f 145/23/108 144/26/108 143/25/108
f 146/24/109 145/23/109 143/25/109
f 146/24/109 143/25/109 144/26/109
f 147/21/110 148/22/110 146/24/110
f 147/21/111 146/24/111 145/23/111
f 148/22/112 147/21/112 145/23/112
f 148/22/113 145/23/113 146/24/113
f 149/17/114 150/18/114 148/22/114
f 149/17/114 148/22/114 147/21/114
f 150/18/115 149/17/115 147/21/115
f 150/18/115 147/21/115 148/22/115
f 122/20/116 121/19/116 150/18/116
f 122/20/116 150/18/116 149/17/116
f 121/19/117 122/20/117 149/17/117
f 121/19/117 149/17/117 150/18/117
f 151/17/67 152/18/67 153/19/67
f 151/17/67 153/19/67 154/20/67
f 152/18/68 151/17/68 154/20/68
f 152/18/68 154/20/68 153/19/68
f 155/21/69 156/22/69 152/18/69
f 155/21/69 152/18/69 151/17/69
f 156/22/70 155/21/70 151/17/70
f 156/22/70 151/17/70 152/18/70
f 157/23/71 158/24/71 156/22/71
f 157/23/71 156/22/71 155/21/71
f 158/24/73 157/23/73 155/21/73
f 158/24/73 155/21/73 156/22/73
f 159/25/145 160/26/145 158/24/145
f 159/25/145 158/24/145 157/23/145
f 160/26/146 159/25/146 157/23/146
f 160/26/146 157/23/146 158/24/146
f 161/27/147 162/28/147 160/26/147
f 161/27/147 160/26/147 159/25/147
f 162/28/148 161/27/148 159/25/148
f 162/28/148 159/25/148 160/26/148
f 163/29/124 164/30/124 162/28/124
f 163/29/125 162/28/125 161/27/125
f 164/30/83 163/29/83 161/27/83
f 164/30/126 161/27/126 162/28/126
f 165/31/85 166/32/85 164/30/85
f 165/31/86 164/30/86 163/29/86
f 166/32/87 165/31/87 163/29/87
f 166/32/88 163/29/88 164/30/88
f 167/33/149 168/34/149 166/32/149
f 167/33/90 166/32/90 165/31/90
f 168/34/91 167/33/91 165/31/91
f 168/34/92 165/31/92 166/32/92
f 169/31/93 170/32/93 168/34/93
f 169/31/94 168/34/94 167/33/94
f 170/32/95 169/31/95 167/33/95
f 170/32/150 167/33/150 168/34/150
f 171/29/97 172/30/97 170/32/97
f 171/29/98 170/32/98 169/31/98
f 172/30/99 171/29/99 169/31/99
f 172/30/100 169/31/100 170/32/100
f 173/27/151 174/28/151 172/30/151
f 173/27/102 172/30/102 171/29/102
f 174/28/152 173/27/152 171/29/152
f 174/28/142 171/29/142 172/30/142
f 175/25/153 176/26/153 174/28/153
f 175/25/154 174/28/154 173/27/154
f 176/26/155 175/25/155 173/27/155
f 176/26/156 173/27/156 174/28/156
f 177/23/157 178/24/157 176/26/157
f 177/23/157 176/26/157 175/25/157
f 178/24/158 177/23/158 175/25/158
f 178/24/158 175/25/158 176/26/158
f 179/21/111 180/22/111 178/24/111
f 179/21/111 178/24/111 177/23/111
f 180/22/113 179/21/113 177/23/113
f 180/22/113 177/23/113 178/24/113
f 181/17/114 182/18/114 180/22/114
f 181/17/114 180/22/114 179/21/114
f 182/18/115 181/17/115 179/21/115
f 182/18/115 179/21/115 180/22/115
f 154/20/116 153/19/116 182/18/116
f 154/20/116 182/18/116 181/17/116
f 153/19/117 154/20/117 181/17/117
f 153/19/117 181/17/117 182/18/117
f 183/51/159 184/52/159 185/53/159
f 185/53/160 186/54/160 183/51/160
f 186/54/161 185/53/161 46/55/161
f 46/55/161 45/56/161 186/54/161
f 184/57/162 183/58/162 186/59/162
f 186/59/163 185/60/163 184/57/163
f 185/60/164 186/59/164 45/61/164
f 45/61/164 46/62/164 185/60/164
f 187/63/4 188/64/4 54/10/4
f 54/10/4 53/65/4 187/63/4
f 189/66/2 190/67/2 52/68/2
f 52/68/2 51/9/2 189/66/2
f 190/67/3 187/63/3 53/65/3
f 53/65/3 52/68/3 190/67/3
f 189/69/5 188/70/5 187/63/5
f 187/63/5 190/67/5 189/69/5
