# generated by tools/objdedupe/dedupe.py -- do not hand-edit.
# Re-run the tool after touching azd_1svet.obj, azd_2svet.obj, azd_3svet.obj, azd_4svet.obj, azd_5svet.obj, azd_6svet.obj.
o stit_1svet_S
v 0.184288 2.988092 0.335327
vt 0.412000 0.336000
vn -0.000000 0.001100 1.000000
v -0.184288 2.988092 0.335327
vt 0.220000 0.336000
v -0.184288 2.879014 0.335451
vt 0.220000 0.279000
v 0.184288 2.879014 0.335451
vt 0.412000 0.279000
vn -0.000000 -0.000000 1.000000
v -0.095110 2.836620 0.335451
vt 0.263000 0.267000
v 0.095110 2.836620 0.335451
vt 0.367000 0.267000
vt 0.212000 0.333000
vn -0.000000 -0.001100 -1.000000
vt 0.003000 0.333000
vt 0.003000 0.279000
vt 0.212000 0.279000
vn -0.000000 -0.000000 -1.000000
vt 0.052000 0.267000
vt 0.166000 0.267000
v -0.092700 2.988524 0.332794
vt 0.533000 0.393000
vn -0.000000 -1.000000 -0.000000
v -0.092700 2.988524 0.210924
vt 0.533000 0.440000
v 0.092700 2.988524 0.210924
vt 0.471000 0.440000
v 0.092700 2.988524 0.332794
vt 0.471000 0.393000
v 0.034979 3.165334 0.334957
vt 0.411000 0.078000
vn -0.195800 -0.980600 -0.000000
v 0.034979 3.165334 0.643895
vt 0.247000 0.078000
v -0.000000 3.172318 0.643895
vt 0.247000 0.081000
v -0.000000 3.172318 0.334957
vt 0.411000 0.081000
vn 0.195800 0.980600 -0.000000
v 0.064705 3.145496 0.334957
vt 0.411000 0.070000
vn -0.555100 -0.831800 -0.000000
v 0.064705 3.145496 0.643895
vt 0.247000 0.070000
vn 0.555100 0.831800 -0.000000
v 0.084542 3.115832 0.334957
vt 0.411000 0.058000
vn -0.831200 -0.555900 -0.000000
v 0.084542 3.115832 0.643895
vt 0.247000 0.058000
vn -0.831300 -0.555900 -0.000000
vn 0.831200 0.555900 -0.000000
vn 0.831300 0.555900 -0.000000
v 0.091464 3.080792 0.334957
vt 0.411000 0.044000
vn -0.981000 -0.193800 -0.000000
v 0.091464 3.080792 0.643895
vt 0.247000 0.044000
vn 0.981000 0.193800 -0.000000
v 0.084542 3.045504 0.334956
vt 0.411000 0.030000
vn -0.981300 0.192500 -0.000000
v 0.084542 3.045504 0.394223
vt 0.372000 0.030000
vn 0.981300 -0.192500 -0.000000
v 0.064705 3.016087 0.334956
vt 0.411000 0.018000
vn -0.830500 0.557000 0.001500
v 0.064705 3.015963 0.379638
vt 0.381000 0.018000
vn -0.829100 0.559100 -0.000000
vn 0.829100 -0.559100 -0.001500
vn 0.830200 -0.557500 -0.000000
v 0.034979 2.996249 0.334956
vt 0.411000 0.010000
vn -0.557300 0.830300 0.004400
v 0.034979 2.996064 0.369873
vt 0.387000 0.010000
vn -0.555100 0.831800 0.002300
vn 0.555100 -0.831800 -0.004400
vn 0.556800 -0.830600 -0.002300
v -0.000000 2.989266 0.334956
vt 0.411000 0.007000
vn -0.190800 0.981600 -0.000000
v -0.000000 2.989266 0.366413
vt 0.391000 0.007000
vn -0.195800 0.980600 0.005200
vn 0.195800 -0.980600 -0.000000
vn 0.191300 -0.981500 -0.005200
v -0.034979 2.996249 0.334956
vn 0.191300 0.981500 0.005200
v -0.034979 2.996064 0.369873
vn -0.195800 -0.980600 -0.005200
vn -0.190800 -0.981600 -0.000000
v -0.064705 3.016087 0.334956
vn 0.556800 0.830600 0.002300
v -0.064705 3.015963 0.379638
vn 0.555100 0.831800 0.004400
vn -0.555100 -0.831800 -0.002300
vn -0.557300 -0.830300 -0.004400
v -0.084542 3.045504 0.334956
vn 0.830200 0.557500 -0.000000
v -0.084542 3.045504 0.394223
vn 0.829100 0.559100 0.001500
vn -0.829100 -0.559100 -0.000000
vn -0.830500 -0.557000 -0.001500
v -0.091464 3.080792 0.334957
vn 0.981300 0.192500 -0.000000
v -0.091464 3.080792 0.643895
vn -0.981300 -0.192500 -0.000000
v -0.084542 3.115832 0.334957
vn 0.981000 -0.193800 -0.000000
v -0.084542 3.115832 0.643895
vn -0.981000 0.193800 -0.000000
v -0.064705 3.145496 0.334957
vn 0.831300 -0.555900 -0.000000
v -0.064705 3.145496 0.643895
vn 0.831200 -0.555900 -0.000000
vn -0.831300 0.555900 -0.000000
vn -0.831200 0.555900 -0.000000
v -0.034979 3.165334 0.334957
vn 0.555100 -0.831800 -0.000000
v -0.034979 3.165334 0.643895
vn -0.555100 0.831800 -0.000000
vn -0.195800 0.980600 -0.000000
v 0.095110 3.325767 0.334524
vt 0.367000 0.996000
vn 0.001300 0.007400 1.000000
v -0.095110 3.325767 0.334771
vt 0.263000 0.996000
v -0.184288 3.282939 0.335204
vt 0.220000 0.984000
vn -0.000000 0.015900 0.999900
v 0.184288 3.282939 0.335204
vt 0.412000 0.984000
vn -0.000000 0.000400 1.000000
vt 0.220000 0.832000
vt 0.412000 0.832000
vt 0.166000 0.996000
vn -0.001300 -0.018600 -0.999800
vt 0.052000 0.996000
vt 0.003000 0.984000
vn -0.000000 -0.010100 -0.999900
vt 0.212000 0.984000
vn -0.000000 -0.000400 -1.000000
vt 0.003000 0.827000
vt 0.212000 0.827000
v 0.092700 3.173430 0.210924
vt 0.471000 0.950000
vn 1.000000 -0.000000 -0.000000
v 0.092700 3.173430 0.332855
vt 0.418000 0.950000
vt 0.418000 0.863000
vt 0.470000 0.863000
v -0.092700 3.173430 0.332855
vt 0.590000 0.950000
vn -1.000000 -0.000000 -0.000000
v -0.092700 3.173430 0.210924
vt 0.533000 0.950000
vt 0.532000 0.863000
vt 0.590000 0.863000
vt 0.533000 0.995000
vn -0.000000 1.000000 -0.000000
vt 0.471000 0.995000
f 1/1/1 2/2/1 3/3/1
f 3/3/1 4/4/1 1/1/1
f 4/4/2 3/3/2 5/5/2
f 5/5/2 6/6/2 4/4/2
f 2/7/3 1/8/3 4/9/3
f 4/9/3 3/10/3 2/7/3
f 3/10/4 4/9/4 6/11/4
f 6/11/4 5/12/4 3/10/4
f 7/13/5 8/14/5 9/15/5
f 9/15/5 10/16/5 7/13/5
f 11/17/6 12/18/6 13/19/6
f 11/17/6 13/19/6 14/20/6
f 12/18/7 11/17/7 14/20/7
f 12/18/7 14/20/7 13/19/7
f 15/21/8 16/22/8 12/18/8
f 15/21/8 12/18/8 11/17/8
f 16/22/9 15/21/9 11/17/9
f 16/22/9 11/17/9 12/18/9
f 17/23/10 18/24/10 16/22/10
f 17/23/11 16/22/11 15/21/11
f 18/24/12 17/23/12 15/21/12
f 18/24/13 15/21/13 16/22/13
f 19/25/14 20/26/14 18/24/14
f 19/25/14 18/24/14 17/23/14
f 20/26/15 19/25/15 17/23/15
f 20/26/15 17/23/15 18/24/15
f 21/27/16 22/28/16 20/26/16
f 21/27/16 20/26/16 19/25/16
f 22/28/17 21/27/17 19/25/17
f 22/28/17 19/25/17 20/26/17
f 23/29/18 24/30/18 22/28/18
f 23/29/19 22/28/19 21/27/19
f 24/30/20 23/29/20 21/27/20
f 24/30/21 21/27/21 22/28/21
f 25/31/22 26/32/22 24/30/22
f 25/31/23 24/30/23 23/29/23
f 26/32/24 25/31/24 23/29/24
f 26/32/25 23/29/25 24/30/25
f 27/33/26 28/34/26 26/32/26
f 27/33/27 26/32/27 25/31/27
f 28/34/28 27/33/28 25/31/28
f 28/34/29 25/31/29 26/32/29
f 29/31/30 30/32/30 28/34/30
f 29/31/7 28/34/7 27/33/7
f 30/32/31 29/31/31 27/33/31
f 30/32/32 27/33/32 28/34/32
f 31/29/33 32/30/33 30/32/33
f 31/29/34 30/32/34 29/31/34
f 32/30/35 31/29/35 29/31/35
f 32/30/36 29/31/36 30/32/36
f 33/27/37 34/28/37 32/30/37
f 33/27/38 32/30/38 31/29/38
f 34/28/39 33/27/39 31/29/39
f 34/28/40 31/29/40 32/30/40
f 35/25/41 36/26/41 34/28/41
f 35/25/41 34/28/41 33/27/41
f 36/26/42 35/25/42 33/27/42
f 36/26/42 33/27/42 34/28/42
f 37/23/43 38/24/43 36/26/43
f 37/23/43 36/26/43 35/25/43
f 38/24/44 37/23/44 35/25/44
f 38/24/44 35/25/44 36/26/44
f 39/21/45 40/22/45 38/24/45
f 39/21/46 38/24/46 37/23/46
f 40/22/47 39/21/47 37/23/47
f 40/22/48 37/23/48 38/24/48
f 41/17/49 42/18/49 40/22/49
f 41/17/49 40/22/49 39/21/49
f 42/18/50 41/17/50 39/21/50
f 42/18/50 39/21/50 40/22/50
f 14/20/28 13/19/28 42/18/28
f 14/20/28 42/18/28 41/17/28
f 13/19/51 14/20/51 41/17/51
f 13/19/51 41/17/51 42/18/51
f 43/35/52 44/36/52 45/37/52
f 45/37/53 46/38/53 43/35/53
f 46/38/54 45/37/54 2/39/54
f 2/39/54 1/40/54 46/38/54
f 44/41/55 43/42/55 46/43/55
f 46/43/56 45/44/56 44/41/56
f 45/44/57 46/43/57 1/45/57
f 1/45/57 2/46/57 45/44/57
f 47/47/58 48/48/58 10/49/58
f 10/49/58 9/50/58 47/47/58
f 49/51/59 50/52/59 8/53/59
f 8/53/59 7/54/59 49/51/59
f 50/52/4 47/47/4 9/50/4
f 9/50/4 8/53/4 50/52/4
f 49/55/60 48/56/60 47/47/60
f 47/47/60 50/52/60 49/55/60
