# generated by tools/objdedupe/dedupe.py -- do not hand-edit.
# Re-run the tool after touching azd_1svet.obj, azd_2svet.obj, azd_3svet.obj, azd_4svet.obj, azd_5svet.obj, azd_6svet.obj.
o stit_4svet_S
v 0.184288 3.170338 0.329456
vt 0.412000 0.439000
vn -0.000200 0.000200 1.000000
v -0.184288 3.170338 0.329394
vt 0.220000 0.439000
v -0.184288 2.875860 0.329456
vt 0.220000 0.279000
vn 0.000200 -0.000200 1.000000
v 0.184288 2.875860 0.329394
vt 0.412000 0.279000
vn 0.000200 0.000400 1.000000
v -0.095110 2.833466 0.329456
vt 0.263000 0.267000
vn 0.000300 -0.000700 1.000000
v 0.095110 2.833466 0.329394
vt 0.367000 0.267000
vt 0.212000 0.433000
vn 0.000200 0.000200 -1.000000
vt 0.003000 0.433000
vt 0.003000 0.279000
vn -0.000200 -0.000200 -1.000000
vt 0.212000 0.279000
vn -0.000200 0.000400 -1.000000
vt 0.052000 0.267000
vn -0.000300 -0.000700 -1.000000
vt 0.166000 0.267000
v -0.092700 2.985494 0.329456
vt 0.533000 0.393000
vn 0.000300 -1.000000 -0.000000
v -0.092700 2.985494 0.209070
vt 0.533000 0.440000
v 0.092700 2.985556 0.209070
vt 0.471000 0.440000
vn -0.000000 -1.000000 -0.000500
v 0.092700 2.985494 0.329394
vt 0.471000 0.393000
v 0.034979 3.162242 0.329456
vt 0.411000 0.078000
vn -0.195800 -0.980600 -0.000000
v 0.034979 3.162242 0.642041
vt 0.247000 0.078000
v -0.000000 3.169225 0.642041
vt 0.247000 0.081000
v -0.000000 3.169225 0.329394
vt 0.411000 0.081000
vn 0.195800 0.980600 -0.000000
v 0.064705 3.142404 0.329456
vt 0.411000 0.070000
vn -0.555100 -0.831800 -0.000000
v 0.064705 3.142404 0.642041
vt 0.247000 0.070000
vn 0.555100 0.831800 -0.000000
v 0.084542 3.112740 0.329456
vt 0.411000 0.058000
vn -0.831300 -0.555900 -0.000000
v 0.084542 3.112740 0.642041
vt 0.247000 0.058000
vn 0.831300 0.555900 -0.000000
v 0.091464 3.077699 0.329394
vt 0.411000 0.044000
vn -0.981000 -0.193800 -0.000000
v 0.091464 3.077699 0.642041
vt 0.247000 0.044000
vn 0.981000 0.193800 -0.000000
v 0.084542 3.042411 0.329456
vt 0.411000 0.030000
vn -0.981300 0.192500 -0.000000
v 0.084542 3.042411 0.392369
vt 0.372000 0.030000
vn 0.981300 -0.192500 -0.000000
v 0.064705 3.012995 0.329456
vt 0.411000 0.018000
vn -0.830500 0.557000 0.001400
v 0.064705 3.012871 0.377784
vt 0.381000 0.018000
vn -0.829100 0.559100 -0.000000
vn 0.829100 -0.559100 -0.001400
vn 0.830200 -0.557500 -0.000000
v 0.034979 2.993157 0.329456
vt 0.411000 0.010000
vn -0.557200 0.830400 0.004000
v 0.034979 2.992972 0.368019
vt 0.387000 0.010000
vn -0.555100 0.831800 0.002100
vn 0.555100 -0.831800 -0.004000
vn 0.556800 -0.830700 -0.002100
v -0.000000 2.986174 0.329456
vt 0.411000 0.007000
vn -0.190800 0.981600 -0.000000
v -0.000000 2.986174 0.364559
vt 0.391000 0.007000
vn -0.195800 0.980600 0.004700
vn 0.195800 -0.980600 -0.000000
vn 0.191200 -0.981500 -0.004700
v -0.034979 2.993157 0.329456
vn 0.191200 0.981500 0.004700
v -0.034979 2.992972 0.368019
vn -0.195800 -0.980600 -0.004700
vn -0.190800 -0.981600 -0.000000
v -0.064705 3.012995 0.329456
vn 0.556800 0.830700 0.002100
v -0.064705 3.012871 0.377784
vn 0.555100 0.831800 0.004000
vn -0.555100 -0.831800 -0.002100
vn -0.557200 -0.830400 -0.004000
v -0.084542 3.042411 0.329456
vn 0.830200 0.557500 -0.000000
v -0.084542 3.042411 0.392369
vn 0.829100 0.559100 0.001400
vn -0.829100 -0.559100 -0.000000
vn -0.830500 -0.557000 -0.001400
v -0.091464 3.077699 0.329394
vn 0.981300 0.192500 -0.000000
v -0.091464 3.077699 0.642041
vn -0.981300 -0.192500 -0.000000
v -0.084542 3.112740 0.329456
vn 0.981000 -0.193800 -0.000000
v -0.084542 3.112740 0.642041
vn -0.981000 0.193800 -0.000000
v -0.064705 3.142404 0.329456
vn 0.831300 -0.555900 -0.000000
v -0.064705 3.142404 0.642041
vn -0.831300 0.555900 -0.000000
v -0.034979 3.162242 0.329456
vn 0.555100 -0.831800 -0.000000
v -0.034979 3.162242 0.642041
vn -0.555100 0.831800 -0.000000
vn -0.195800 0.980600 -0.000000
v 0.034979 3.347642 0.329456
v 0.034979 3.347642 0.642041
v -0.000000 3.354625 0.642041
v -0.000000 3.354625 0.329394
v 0.064705 3.327804 0.329456
v 0.064705 3.327804 0.642041
v 0.084542 3.298140 0.329456
vn -0.831200 -0.555900 -0.000000
v 0.084542 3.298140 0.642041
vn 0.831200 0.555900 -0.000000
v 0.091464 3.263099 0.329394
v 0.091464 3.263099 0.642041
v 0.084542 3.227812 0.329456
v 0.084542 3.227812 0.392369
v 0.064705 3.198395 0.329456
v 0.064705 3.198271 0.377784
v 0.034979 3.178557 0.329456
v 0.034979 3.178372 0.368019
v -0.000000 3.171573 0.329456
v -0.000000 3.171573 0.364559
v -0.034979 3.178557 0.329456
v -0.034979 3.178372 0.368019
v -0.064705 3.198395 0.329456
v -0.064705 3.198271 0.377784
v -0.084542 3.227812 0.329456
v -0.084542 3.227812 0.392369
v -0.091464 3.263099 0.329394
v -0.091464 3.263099 0.642041
v -0.084542 3.298140 0.329456
v -0.084542 3.298140 0.642041
v -0.064705 3.327804 0.329456
v -0.064705 3.327804 0.642041
vn 0.831200 -0.555900 -0.000000
vn -0.831200 0.555900 -0.000000
v -0.034979 3.347642 0.329456
v -0.034979 3.347642 0.642041
v 0.034979 3.533042 0.329456
v 0.034979 3.533042 0.642041
v -0.000000 3.540025 0.642041
v -0.000000 3.540025 0.329394
v 0.064705 3.513204 0.329456
v 0.064705 3.513204 0.642041
v 0.084542 3.483540 0.329456
v 0.084542 3.483540 0.642041
v 0.091464 3.448499 0.329394
v 0.091464 3.448499 0.642041
v 0.084542 3.413212 0.329456
v 0.084542 3.413212 0.392369
v 0.064705 3.383795 0.329456
v 0.064705 3.383671 0.377784
v 0.034979 3.363957 0.329456
v 0.034979 3.363772 0.368019
v -0.000000 3.356974 0.329456
v -0.000000 3.356974 0.364559
v -0.034979 3.363957 0.329456
v -0.034979 3.363772 0.368019
v -0.064705 3.383795 0.329456
v -0.064705 3.383671 0.377784
v -0.084542 3.413212 0.329456
v -0.084542 3.413212 0.392369
v -0.091464 3.448499 0.329394
v -0.091464 3.448499 0.642041
v -0.084542 3.483540 0.329456
v -0.084542 3.483540 0.642041
v -0.064705 3.513204 0.329456
v -0.064705 3.513204 0.642041
v -0.034979 3.533042 0.329456
v -0.034979 3.533042 0.642041
v 0.034979 3.718380 0.329456
v 0.034979 3.718380 0.642041
v -0.000000 3.725363 0.642041
v -0.000000 3.725363 0.329395
v 0.064705 3.698542 0.329456
v 0.064705 3.698542 0.642041
v 0.084542 3.668878 0.329456
v 0.084542 3.668878 0.642041
v 0.091464 3.633837 0.329394
v 0.091464 3.633837 0.642041
v 0.084542 3.598611 0.329456
vn -0.981200 0.192800 -0.000000
v 0.084542 3.598611 0.392369
vn 0.981200 -0.192800 -0.000000
v 0.064705 3.569195 0.329456
v 0.064705 3.569071 0.377784
v 0.034979 3.549357 0.329456
v 0.034979 3.549171 0.368019
v -0.000000 3.542374 0.329456
v -0.000000 3.542374 0.364559
v -0.034979 3.549357 0.329456
v -0.034979 3.549171 0.368019
v -0.064705 3.569195 0.329456
v -0.064705 3.569071 0.377784
v -0.084542 3.598611 0.329456
v -0.084542 3.598611 0.392369
v -0.091464 3.633837 0.329394
vn 0.981200 0.192800 -0.000000
v -0.091464 3.633837 0.642041
vn -0.981200 -0.192800 -0.000000
v -0.084542 3.668878 0.329456
v -0.084542 3.668878 0.642041
v -0.064705 3.698542 0.329456
v -0.064705 3.698542 0.642041
v -0.034979 3.718380 0.329456
v -0.034979 3.718380 0.642041
v 0.095110 3.878813 0.329271
vt 0.367000 0.996000
vn 0.001600 -0.007700 1.000000
v -0.095110 3.878813 0.329580
vt 0.263000 0.996000
v -0.184288 3.835985 0.329394
vt 0.220000 0.984000
vn -0.000200 0.004000 1.000000
v 0.184288 3.835985 0.329456
vt 0.412000 0.984000
vn -0.000200 -0.000000 1.000000
vt 0.220000 0.636000
vt 0.412000 0.636000
vt 0.166000 0.996000
vn -0.001600 -0.007700 -1.000000
vt 0.052000 0.996000
vt 0.003000 0.984000
vn 0.000200 0.004000 -1.000000
vt 0.212000 0.984000
vn 0.000200 -0.000000 -1.000000
vt 0.003000 0.630000
vt 0.212000 0.630000
v 0.092700 3.726476 0.209070
vt 0.471000 0.950000
vn 1.000000 -0.000000 -0.000000
v 0.092700 3.726476 0.329395
vt 0.418000 0.950000
vt 0.418000 0.608000
vt 0.470000 0.608000
v -0.092700 3.726476 0.329456
vt 0.590000 0.950000
vn -1.000000 -0.000000 -0.000000
v -0.092700 3.726476 0.209070
vt 0.533000 0.950000
vt 0.532000 0.608000
vt 0.590000 0.608000
vn -0.000000 -0.000000 -1.000000
vt 0.533000 0.995000
vn -0.000000 1.000000 -0.000000
vt 0.471000 0.995000
f 1/1/1 2/2/1 3/3/1
f 3/3/2 4/4/2 1/1/2
f 4/4/3 3/3/3 5/5/3
f 5/5/4 6/6/4 4/4/4
f 2/7/5 1/8/5 4/9/5
f 4/9/6 3/10/6 2/7/6
f 3/10/7 4/9/7 6/11/7
f 6/11/8 5/12/8 3/10/8
f 7/13/9 8/14/9 9/15/9
f 9/15/10 10/16/10 7/13/10
f 11/17/11 12/18/11 13/19/11
f 11/17/11 13/19/11 14/20/11
f 12/18/12 11/17/12 14/20/12
f 12/18/12 14/20/12 13/19/12
f 15/21/13 16/22/13 12/18/13
f 15/21/13 12/18/13 11/17/13
f 16/22/14 15/21/14 11/17/14
f 16/22/14 11/17/14 12/18/14
f 17/23/15 18/24/15 16/22/15
f 17/23/15 16/22/15 15/21/15
f 18/24/16 17/23/16 15/21/16
f 18/24/16 15/21/16 16/22/16
f 19/25/17 20/26/17 18/24/17
f 19/25/17 18/24/17 17/23/17
f 20/26/18 19/25/18 17/23/18
f 20/26/18 17/23/18 18/24/18
f 21/27/19 22/28/19 20/26/19
f 21/27/19 20/26/19 19/25/19
f 22/28/20 21/27/20 19/25/20
f 22/28/20 19/25/20 20/26/20
f 23/29/21 24/30/21 22/28/21
f 23/29/22 22/28/22 21/27/22
f 24/30/23 23/29/23 21/27/23
f 24/30/24 21/27/24 22/28/24
f 25/31/25 26/32/25 24/30/25
f 25/31/26 24/30/26 23/29/26
f 26/32/27 25/31/27 23/29/27
f 26/32/28 23/29/28 24/30/28
f 27/33/29 28/34/29 26/32/29
f 27/33/30 26/32/30 25/31/30
f 28/34/31 27/33/31 25/31/31
f 28/34/32 25/31/32 26/32/32
f 29/31/33 30/32/33 28/34/33
f 29/31/12 28/34/12 27/33/12
f 30/32/34 29/31/34 27/33/34
f 30/32/35 27/33/35 28/34/35
f 31/29/36 32/30/36 30/32/36
f 31/29/37 30/32/37 29/31/37
f 32/30/38 31/29/38 29/31/38
f 32/30/39 29/31/39 30/32/39
f 33/27/40 34/28/40 32/30/40
f 33/27/41 32/30/41 31/29/41
f 34/28/42 33/27/42 31/29/42
f 34/28/43 31/29/43 32/30/43
f 35/25/44 36/26/44 34/28/44
f 35/25/44 34/28/44 33/27/44
f 36/26/45 35/25/45 33/27/45
f 36/26/45 33/27/45 34/28/45
f 37/23/46 38/24/46 36/26/46
f 37/23/46 36/26/46 35/25/46
f 38/24/47 37/23/47 35/25/47
f 38/24/47 35/25/47 36/26/47
f 39/21/48 40/22/48 38/24/48
f 39/21/48 38/24/48 37/23/48
f 40/22/49 39/21/49 37/23/49
f 40/22/49 37/23/49 38/24/49
f 41/17/50 42/18/50 40/22/50
f 41/17/50 40/22/50 39/21/50
f 42/18/51 41/17/51 39/21/51
f 42/18/51 39/21/51 40/22/51
f 14/20/31 13/19/31 42/18/31
f 14/20/31 42/18/31 41/17/31
f 13/19/52 14/20/52 41/17/52
f 13/19/52 41/17/52 42/18/52
f 43/17/11 44/18/11 45/19/11
f 43/17/11 45/19/11 46/20/11
f 44/18/12 43/17/12 46/20/12
f 44/18/12 46/20/12 45/19/12
f 47/21/13 48/22/13 44/18/13
f 47/21/13 44/18/13 43/17/13
f 48/22/14 47/21/14 43/17/14
f 48/22/14 43/17/14 44/18/14
f 49/23/53 50/24/53 48/22/53
f 49/23/15 48/22/15 47/21/15
f 50/24/54 49/23/54 47/21/54
f 50/24/16 47/21/16 48/22/16
f 51/25/17 52/26/17 50/24/17
f 51/25/17 50/24/17 49/23/17
f 52/26/18 51/25/18 49/23/18
f 52/26/18 49/23/18 50/24/18
f 53/27/19 54/28/19 52/26/19
f 53/27/19 52/26/19 51/25/19
f 54/28/20 53/27/20 51/25/20
f 54/28/20 51/25/20 52/26/20
f 55/29/21 56/30/21 54/28/21
f 55/29/22 54/28/22 53/27/22
f 56/30/23 55/29/23 53/27/23
f 56/30/24 53/27/24 54/28/24
f 57/31/25 58/32/25 56/30/25
f 57/31/26 56/30/26 55/29/26
f 58/32/27 57/31/27 55/29/27
f 58/32/28 55/29/28 56/30/28
f 59/33/29 60/34/29 58/32/29
f 59/33/30 58/32/30 57/31/30
f 60/34/31 59/33/31 57/31/31
f 60/34/32 57/31/32 58/32/32
f 61/31/33 62/32/33 60/34/33
f 61/31/12 60/34/12 59/33/12
f 62/32/34 61/31/34 59/33/34
f 62/32/35 59/33/35 60/34/35
f 63/29/36 64/30/36 62/32/36
f 63/29/37 62/32/37 61/31/37
f 64/30/38 63/29/38 61/31/38
f 64/30/39 61/31/39 62/32/39
f 65/27/40 66/28/40 64/30/40
f 65/27/41 64/30/41 63/29/41
f 66/28/42 65/27/42 63/29/42
f 66/28/43 63/29/43 64/30/43
f 67/25/44 68/26/44 66/28/44
f 67/25/44 66/28/44 65/27/44
f 68/26/45 67/25/45 65/27/45
f 68/26/45 65/27/45 66/28/45
f 69/23/46 70/24/46 68/26/46
f 69/23/46 68/26/46 67/25/46
f 70/24/47 69/23/47 67/25/47
f 70/24/47 67/25/47 68/26/47
f 71/21/48 72/22/48 70/24/48
f 71/21/55 70/24/55 69/23/55
f 72/22/49 71/21/49 69/23/49
f 72/22/56 69/23/56 70/24/56
f 73/17/50 74/18/50 72/22/50
f 73/17/50 72/22/50 71/21/50
f 74/18/51 73/17/51 71/21/51
f 74/18/51 71/21/51 72/22/51
f 46/20/31 45/19/31 74/18/31
f 46/20/31 74/18/31 73/17/31
f 45/19/52 46/20/52 73/17/52
f 45/19/52 73/17/52 74/18/52
f 75/17/11 76/18/11 77/19/11
f 75/17/11 77/19/11 78/20/11
f 76/18/12 75/17/12 78/20/12
f 76/18/12 78/20/12 77/19/12
f 79/21/13 80/22/13 76/18/13
f 79/21/13 76/18/13 75/17/13
f 80/22/14 79/21/14 75/17/14
f 80/22/14 75/17/14 76/18/14
f 81/23/53 82/24/53 80/22/53
f 81/23/15 80/22/15 79/21/15
f 82/24/54 81/23/54 79/21/54
f 82/24/16 79/21/16 80/22/16
f 83/25/17 84/26/17 82/24/17
f 83/25/17 82/24/17 81/23/17
f 84/26/18 83/25/18 81/23/18
f 84/26/18 81/23/18 82/24/18
f 85/27/19 86/28/19 84/26/19
f 85/27/19 84/26/19 83/25/19
f 86/28/20 85/27/20 83/25/20
f 86/28/20 83/25/20 84/26/20
f 87/29/21 88/30/21 86/28/21
f 87/29/22 86/28/22 85/27/22
f 88/30/23 87/29/23 85/27/23
f 88/30/24 85/27/24 86/28/24
f 89/31/25 90/32/25 88/30/25
f 89/31/26 88/30/26 87/29/26
f 90/32/27 89/31/27 87/29/27
f 90/32/28 87/29/28 88/30/28
f 91/33/29 92/34/29 90/32/29
f 91/33/30 90/32/30 89/31/30
f 92/34/31 91/33/31 89/31/31
f 92/34/32 89/31/32 90/32/32
f 93/31/33 94/32/33 92/34/33
f 93/31/12 92/34/12 91/33/12
f 94/32/34 93/31/34 91/33/34
f 94/32/35 91/33/35 92/34/35
f 95/29/36 96/30/36 94/32/36
f 95/29/37 94/32/37 93/31/37
f 96/30/38 95/29/38 93/31/38
f 96/30/39 93/31/39 94/32/39
f 97/27/40 98/28/40 96/30/40
f 97/27/41 96/30/41 95/29/41
f 98/28/42 97/27/42 95/29/42
f 98/28/43 95/29/43 96/30/43
f 99/25/44 100/26/44 98/28/44
f 99/25/44 98/28/44 97/27/44
f 100/26/45 99/25/45 97/27/45
f 100/26/45 97/27/45 98/28/45
f 101/23/46 102/24/46 100/26/46
f 101/23/46 100/26/46 99/25/46
f 102/24/47 101/23/47 99/25/47
f 102/24/47 99/25/47 100/26/47
f 103/21/48 104/22/48 102/24/48
f 103/21/55 102/24/55 101/23/55
f 104/22/49 103/21/49 101/23/49
f 104/22/56 101/23/56 102/24/56
f 105/17/50 106/18/50 104/22/50
f 105/17/50 104/22/50 103/21/50
f 106/18/51 105/17/51 103/21/51
f 106/18/51 103/21/51 104/22/51
f 78/20/31 77/19/31 106/18/31
f 78/20/31 106/18/31 105/17/31
f 77/19/52 78/20/52 105/17/52
f 77/19/52 105/17/52 106/18/52
f 107/17/11 108/18/11 109/19/11
f 107/17/11 109/19/11 110/20/11
f 108/18/12 107/17/12 110/20/12
f 108/18/12 110/20/12 109/19/12
f 111/21/13 112/22/13 108/18/13
f 111/21/13 108/18/13 107/17/13
f 112/22/14 111/21/14 107/17/14
f 112/22/14 107/17/14 108/18/14
f 113/23/53 114/24/53 112/22/53
f 113/23/15 112/22/15 111/21/15
f 114/24/54 113/23/54 111/21/54
f 114/24/16 111/21/16 112/22/16
f 115/25/17 116/26/17 114/24/17
f 115/25/17 114/24/17 113/23/17
f 116/26/18 115/25/18 113/23/18
f 116/26/18 113/23/18 114/24/18
f 117/27/57 118/28/57 116/26/57
f 117/27/57 116/26/57 115/25/57
f 118/28/58 117/27/58 115/25/58
f 118/28/58 115/25/58 116/26/58
f 119/29/21 120/30/21 118/28/21
f 119/29/22 118/28/22 117/27/22
f 120/30/23 119/29/23 117/27/23
f 120/30/24 117/27/24 118/28/24
f 121/31/25 122/32/25 120/30/25
f 121/31/26 120/30/26 119/29/26
f 122/32/27 121/31/27 119/29/27
f 122/32/28 119/29/28 120/30/28
f 123/33/29 124/34/29 122/32/29
f 123/33/30 122/32/30 121/31/30
f 124/34/31 123/33/31 121/31/31
f 124/34/32 121/31/32 122/32/32
f 125/31/33 126/32/33 124/34/33
f 125/31/12 124/34/12 123/33/12
f 126/32/34 125/31/34 123/33/34
f 126/32/35 123/33/35 124/34/35
f 127/29/36 128/30/36 126/32/36
f 127/29/37 126/32/37 125/31/37
f 128/30/38 127/29/38 125/31/38
f 128/30/39 125/31/39 126/32/39
f 129/27/40 130/28/40 128/30/40
f 129/27/41 128/30/41 127/29/41
f 130/28/42 129/27/42 127/29/42
f 130/28/43 127/29/43 128/30/43
f 131/25/59 132/26/59 130/28/59
f 131/25/59 130/28/59 129/27/59
f 132/26/60 131/25/60 129/27/60
f 132/26/60 129/27/60 130/28/60
f 133/23/46 134/24/46 132/26/46
f 133/23/46 132/26/46 131/25/46
f 134/24/47 133/23/47 131/25/47
f 134/24/47 131/25/47 132/26/47
f 135/21/48 136/22/48 134/24/48
f 135/21/55 134/24/55 133/23/55
f 136/22/49 135/21/49 133/23/49
f 136/22/56 133/23/56 134/24/56
f 137/17/50 138/18/50 136/22/50
f 137/17/50 136/22/50 135/21/50
f 138/18/51 137/17/51 135/21/51
f 138/18/51 135/21/51 136/22/51
f 110/20/31 109/19/31 138/18/31
f 110/20/31 138/18/31 137/17/31
f 109/19/52 110/20/52 137/17/52
f 109/19/52 137/17/52 138/18/52
f 139/35/61 140/36/61 141/37/61
f 141/37/62 142/38/62 139/35/62
f 142/38/63 141/37/63 2/39/63
f 2/39/63 1/40/63 142/38/63
f 140/41/64 139/42/64 142/43/64
f 142/43/65 141/44/65 140/41/65
f 141/44/66 142/43/66 1/45/66
f 1/45/66 2/46/66 141/44/66
f 143/47/67 144/48/67 10/49/67
f 10/49/67 9/50/67 143/47/67
f 145/51/68 146/52/68 8/53/68
f 8/53/68 7/54/68 145/51/68
f 146/52/69 143/47/69 9/50/69
f 9/50/69 8/53/69 146/52/69
f 145/55/70 144/56/70 143/47/70
f 143/47/70 146/52/70 145/55/70
