# generated by tools/objdedupe/dedupe.py -- do not hand-edit.
# Re-run the tool after touching azd_1svet.obj, azd_2svet.obj, azd_3svet.obj, azd_4svet.obj, azd_5svet.obj, azd_6svet.obj.
o stit_5svet_S
v 0.184288 3.170340 0.329456
vt 0.412000 0.439000
vn -0.000200 0.000200 1.000000
v -0.184288 3.170340 0.329394
vt 0.220000 0.439000
v -0.184288 2.875925 0.329456
vt 0.220000 0.279000
vn 0.000200 -0.000200 1.000000
v 0.184288 2.875925 0.329394
vt 0.412000 0.279000
vn 0.000200 0.000400 1.000000
v -0.095110 2.833530 0.329456
vt 0.263000 0.267000
vn 0.000300 -0.000700 1.000000
v 0.095110 2.833530 0.329394
vt 0.367000 0.267000
vt 0.212000 0.433000
vn 0.000200 0.000200 -1.000000
vt 0.003000 0.433000
vt 0.003000 0.279000
vn -0.000200 -0.000200 -1.000000
vt 0.212000 0.279000
vn -0.000200 0.000400 -1.000000
vt 0.052000 0.267000
vn -0.000300 -0.000700 -1.000000
vt 0.166000 0.267000
v -0.092700 2.985496 0.329456
vt 0.533000 0.393000
vn 0.000300 -1.000000 -0.000000
v -0.092700 2.985496 0.209070
vt 0.533000 0.440000
v 0.092700 2.985558 0.209070
vt 0.471000 0.440000
vn -0.000000 -1.000000 -0.000500
v 0.092700 2.985496 0.329456
vt 0.471000 0.393000
v 0.034979 3.162306 0.329456
vt 0.411000 0.078000
vn -0.195800 -0.980700 -0.000000
v 0.034979 3.162306 0.642041
vt 0.247000 0.078000
v -0.000000 3.169289 0.642041
vt 0.247000 0.081000
vn -0.195800 -0.980600 -0.000000
v -0.000000 3.169289 0.329394
vt 0.411000 0.081000
vn 0.195800 0.980700 -0.000000
vn 0.195800 0.980600 -0.000000
v 0.064705 3.142468 0.329456
vt 0.411000 0.070000
vn -0.555100 -0.831800 -0.000000
v 0.064705 3.142468 0.642041
vt 0.247000 0.070000
vn 0.555100 0.831800 -0.000000
v 0.084542 3.112742 0.329456
vt 0.411000 0.058000
vn -0.831800 -0.555100 -0.000000
v 0.084542 3.112742 0.642041
vt 0.247000 0.058000
vn 0.831800 0.555100 -0.000000
v 0.091464 3.077764 0.329394
vt 0.411000 0.044000
vn -0.981000 -0.194100 -0.000000
v 0.091464 3.077764 0.642041
vt 0.247000 0.044000
vn 0.981000 0.194100 -0.000000
v 0.084542 3.042414 0.329456
vt 0.411000 0.030000
vn -0.981400 0.192200 -0.000000
v 0.084542 3.042414 0.392369
vt 0.372000 0.030000
vn 0.981400 -0.192200 -0.000000
v 0.064705 3.013059 0.329456
vt 0.411000 0.018000
vn -0.830000 0.557800 0.001400
v 0.064705 3.012935 0.377784
vt 0.381000 0.018000
vn -0.828500 0.559900 -0.000000
vn 0.828500 -0.559900 -0.001400
vn 0.829600 -0.558300 -0.000000
v 0.034979 2.993221 0.329456
vt 0.411000 0.010000
vn -0.558700 0.829400 0.005300
v 0.034979 2.992974 0.368019
vt 0.387000 0.010000
vn -0.555100 0.831800 0.002100
vn 0.555100 -0.831800 -0.005300
vn 0.558000 -0.829900 -0.002100
v -0.000000 2.986238 0.329456
vt 0.411000 0.007000
vn -0.190900 0.981600 0.001700
v -0.000000 2.986176 0.364559
vt 0.391000 0.007000
vn -0.195800 0.980600 0.006300
vn 0.195800 -0.980600 -0.001700
vn 0.191400 -0.981500 -0.006300
v -0.034979 2.993221 0.329456
vn 0.191400 0.981500 0.006300
v -0.034979 2.992974 0.368019
vn 0.195800 0.980600 0.001700
vn -0.195800 -0.980600 -0.006300
vn -0.190900 -0.981600 -0.001700
v -0.064705 3.013059 0.329456
vn 0.558000 0.829900 0.002100
v -0.064705 3.012935 0.377784
vn 0.555100 0.831800 0.005300
vn -0.555100 -0.831800 -0.002100
vn -0.558700 -0.829400 -0.005300
v -0.084542 3.042414 0.329456
vn 0.829600 0.558300 -0.000000
v -0.084542 3.042414 0.392369
vn 0.828500 0.559900 0.001400
vn -0.828500 -0.559900 -0.000000
vn -0.830000 -0.557800 -0.001400
v -0.091464 3.077764 0.329394
vn 0.981400 0.192200 -0.000000
v -0.091464 3.077764 0.642041
vn -0.981400 -0.192200 -0.000000
v -0.084542 3.112742 0.329456
vn 0.981000 -0.194100 -0.000000
v -0.084542 3.112742 0.642041
vn -0.981000 0.194100 -0.000000
v -0.064705 3.142468 0.329456
vn 0.831800 -0.555100 -0.000000
v -0.064705 3.142468 0.642041
vn -0.831800 0.555100 -0.000000
v -0.034979 3.162306 0.329456
vn 0.555100 -0.831800 -0.000000
v -0.034979 3.162306 0.642041
vn -0.555100 0.831800 -0.000000
vn 0.195800 -0.980600 -0.000000
vn 0.195800 -0.980700 -0.000000
vn -0.195800 0.980600 -0.000000
vn -0.195800 0.980700 -0.000000
v 0.034979 3.347706 0.329456
v 0.034979 3.347706 0.642041
v -0.000000 3.354689 0.642041
v -0.000000 3.354689 0.329395
v 0.064705 3.327868 0.329456
v 0.064705 3.327868 0.642041
v 0.084542 3.298204 0.329456
vn -0.831200 -0.555900 -0.000000
v 0.084542 3.298204 0.642041
vn -0.831300 -0.555900 -0.000000
vn 0.831200 0.555900 -0.000000
vn 0.831300 0.555900 -0.000000
v 0.091464 3.263164 0.329395
vn -0.981000 -0.193800 -0.000000
v 0.091464 3.263164 0.642041
vn 0.981000 0.193800 -0.000000
v 0.084542 3.227876 0.329456
vn -0.981600 0.190900 0.000200
v 0.084542 3.227814 0.392369
vn -0.981300 0.192500 -0.000000
vn 0.981300 -0.192500 -0.000200
v 0.064705 3.198459 0.329456
v 0.064705 3.198336 0.377784
vn -0.829100 0.559100 0.000600
vn 0.829100 -0.559100 -0.001400
vn 0.829800 -0.558100 -0.000500
v 0.034979 3.178621 0.329456
v 0.034979 3.178374 0.368019
v -0.000000 3.171638 0.329456
v -0.000000 3.171576 0.364559
vn 0.195800 -0.980700 -0.001700
v -0.034979 3.178621 0.329456
v -0.034979 3.178374 0.368019
vn 0.195800 0.980700 0.001700
v -0.064705 3.198459 0.329456
v -0.064705 3.198336 0.377784
v -0.084542 3.227814 0.329456
v -0.084542 3.227814 0.392369
v -0.091464 3.263164 0.329395
v -0.091464 3.263164 0.642041
vn 0.981400 0.192100 -0.000000
v -0.084542 3.298204 0.329456
vn 0.981000 -0.193800 -0.000000
v -0.084542 3.298204 0.642041
vn -0.981000 0.193800 -0.000000
v -0.064705 3.327868 0.329456
vn 0.831300 -0.555900 -0.000000
v -0.064705 3.327868 0.642041
vn 0.831200 -0.555900 -0.000000
vn -0.831300 0.555900 -0.000000
vn -0.831200 0.555900 -0.000000
v -0.034979 3.347706 0.329456
v -0.034979 3.347706 0.642041
v 0.034979 3.533106 0.329456
v 0.034979 3.533106 0.642041
v -0.000000 3.540089 0.642041
v -0.000000 3.540089 0.329395
v 0.064705 3.513268 0.329456
v 0.064705 3.513268 0.642041
v 0.084542 3.483604 0.329456
v 0.084542 3.483604 0.642041
v 0.091464 3.448564 0.329395
v 0.091464 3.448564 0.642041
v 0.084542 3.413214 0.329456
v 0.084542 3.413214 0.392369
v 0.064705 3.383859 0.329456
v 0.064705 3.383735 0.377784
v 0.034979 3.364021 0.329456
v 0.034979 3.363774 0.368020
v -0.000000 3.357038 0.329456
vn -0.191000 0.981600 0.001700
v -0.000000 3.356976 0.364559
v -0.034979 3.364021 0.329456
v -0.034979 3.363774 0.368020
vn -0.191000 -0.981600 -0.001700
v -0.064705 3.383859 0.329456
v -0.064705 3.383735 0.377784
v -0.084542 3.413214 0.329456
v -0.084542 3.413214 0.392369
v -0.091464 3.448564 0.329395
v -0.091464 3.448564 0.642041
v -0.084542 3.483604 0.329456
v -0.084542 3.483604 0.642041
v -0.064705 3.513268 0.329456
v -0.064705 3.513268 0.642041
v -0.034979 3.533106 0.329456
v -0.034979 3.533106 0.642041
v 0.034979 3.718506 0.329456
v 0.034979 3.718506 0.642041
v -0.000000 3.725489 0.642041
v -0.000000 3.725489 0.329395
v 0.064705 3.698668 0.329456
v 0.064705 3.698668 0.642041
v 0.084542 3.669004 0.329456
v 0.084542 3.669004 0.642041
v 0.091464 3.633964 0.329395
v 0.091464 3.633964 0.642041
v 0.084542 3.598676 0.329456
v 0.084542 3.598676 0.392369
vn 0.981300 -0.192500 -0.000000
v 0.064705 3.569259 0.329456
vn -0.830500 0.557000 0.001400
v 0.064705 3.569135 0.377784
vn -0.829100 0.559100 -0.000000
vn 0.830200 -0.557500 -0.000000
v 0.034979 3.549421 0.329456
vn -0.557200 0.830400 0.004000
v 0.034979 3.549236 0.368020
vn 0.555100 -0.831800 -0.004000
vn 0.556800 -0.830700 -0.002100
v -0.000000 3.542438 0.329456
vn -0.190800 0.981600 -0.000000
v -0.000000 3.542438 0.364559
vn -0.195800 0.980600 0.004700
vn 0.191200 -0.981500 -0.004700
v -0.034979 3.549421 0.329456
vn 0.191200 0.981500 0.004700
v -0.034979 3.549236 0.368020
vn -0.195800 -0.980600 -0.004700
vn -0.190800 -0.981600 -0.000000
v -0.064705 3.569259 0.329456
vn 0.556800 0.830700 0.002100
v -0.064705 3.569135 0.377784
vn 0.555100 0.831800 0.004000
vn -0.557200 -0.830400 -0.004000
v -0.084542 3.598676 0.329456
vn 0.830200 0.557500 -0.000000
v -0.084542 3.598676 0.392369
vn 0.829100 0.559100 0.001400
vn -0.829100 -0.559100 -0.000000
vn -0.830500 -0.557000 -0.001400
v -0.091464 3.633964 0.329395
vn 0.981300 0.192500 -0.000000
v -0.091464 3.633964 0.642041
vn -0.981300 -0.192500 -0.000000
v -0.084542 3.669004 0.329456
v -0.084542 3.669004 0.642041
v -0.064705 3.698668 0.329456
v -0.064705 3.698668 0.642041
v -0.034979 3.718506 0.329456
v -0.034979 3.718506 0.642041
v 0.034979 3.903844 0.329456
v 0.034979 3.903844 0.642041
v -0.000000 3.910828 0.642041
v -0.000000 3.910828 0.329395
v 0.064705 3.884007 0.329456
v 0.064705 3.884007 0.642041
v 0.084542 3.854342 0.329456
v 0.084542 3.854342 0.642041
v 0.091464 3.819240 0.329395
vn -0.981100 -0.193500 -0.000000
v 0.091464 3.819240 0.642041
vn 0.981100 0.193500 -0.000000
v 0.084542 3.784076 0.329456
vn -0.981200 0.193100 -0.000000
v 0.084542 3.784076 0.392369
vn 0.981200 -0.193100 -0.000000
v 0.064705 3.754659 0.329456
v 0.064705 3.754535 0.377784
v 0.034979 3.734821 0.329456
v 0.034979 3.734574 0.368020
v -0.000000 3.727838 0.329456
v -0.000000 3.727776 0.364559
v -0.034979 3.734821 0.329456
v -0.034979 3.734574 0.368020
v -0.064705 3.754659 0.329456
v -0.064705 3.754535 0.377784
v -0.084542 3.784014 0.329456
vn 0.830000 0.557700 -0.000500
v -0.084542 3.784076 0.392369
vn -0.828500 -0.559900 0.000600
v -0.091464 3.819240 0.329395
vn 0.981200 0.193100 -0.000000
v -0.091464 3.819240 0.642041
vn 0.981200 0.192800 -0.000200
vn -0.981200 -0.192800 -0.000000
vn -0.980900 -0.194400 0.000200
v -0.084542 3.854342 0.329456
vn 0.981100 -0.193500 -0.000000
v -0.084542 3.854342 0.642041
vn -0.981100 0.193500 -0.000000
v -0.064705 3.884007 0.329456
v -0.064705 3.884007 0.642041
v -0.034979 3.903844 0.329456
v -0.034979 3.903844 0.642041
v 0.095110 4.064339 0.329271
vt 0.367000 0.996000
vn 0.001600 -0.007700 1.000000
v -0.095110 4.064339 0.329580
vt 0.263000 0.996000
v -0.184288 4.021512 0.329395
vt 0.220000 0.984000
vn -0.000200 0.004000 1.000000
v 0.184288 4.021512 0.329456
vt 0.412000 0.984000
vn -0.000200 -0.000000 1.000000
vt 0.220000 0.538000
vt 0.412000 0.538000
vt 0.166000 0.996000
vn -0.001600 -0.007700 -1.000000
vt 0.052000 0.996000
vt 0.003000 0.984000
vn 0.000200 0.004000 -1.000000
vt 0.212000 0.984000
vn 0.000200 -0.000000 -1.000000
vt 0.003000 0.532000
vt 0.212000 0.532000
v 0.092700 3.912002 0.209070
vt 0.471000 0.950000
vn 1.000000 -0.000000 -0.000000
v 0.092700 3.912002 0.329395
vt 0.418000 0.950000
vt 0.418000 0.521000
vt 0.470000 0.521000
v -0.092700 3.912002 0.329395
vt 0.590000 0.950000
vn -1.000000 -0.000000 -0.000000
v -0.092700 3.912002 0.209070
vt 0.533000 0.950000
vt 0.532000 0.521000
vt 0.590000 0.521000
vn -0.000000 -0.000000 -1.000000
vt 0.533000 0.995000
vn -0.000000 1.000000 -0.000000
vt 0.471000 0.995000
f 1/1/1 2/2/1 3/3/1
f 3/3/2 4/4/2 1/1/2
f 4/4/3 3/3/3 5/5/3
f 5/5/4 6/6/4 4/4/4
f 2/7/5 1/8/5 4/9/5
f 4/9/6 3/10/6 2/7/6
f 3/10/7 4/9/7 6/11/7
f 6/11/8 5/12/8 3/10/8
f 7/13/9 8/14/9 9/15/9
f 9/15/10 10/16/10 7/13/10
f 11/17/11 12/18/11 13/19/11
f 11/17/12 13/19/12 14/20/12
f 12/18/13 11/17/13 14/20/13
f 12/18/14 14/20/14 13/19/14
f 15/21/15 16/22/15 12/18/15
f 15/21/15 12/18/15 11/17/15
f 16/22/16 15/21/16 11/17/16
f 16/22/16 11/17/16 12/18/16
f 17/23/17 18/24/17 16/22/17
f 17/23/17 16/22/17 15/21/17
f 18/24/18 17/23/18 15/21/18
f 18/24/18 15/21/18 16/22/18
f 19/25/19 20/26/19 18/24/19
f 19/25/19 18/24/19 17/23/19
f 20/26/20 19/25/20 17/23/20
f 20/26/20 17/23/20 18/24/20
f 21/27/21 22/28/21 20/26/21
f 21/27/21 20/26/21 19/25/21
f 22/28/22 21/27/22 19/25/22
f 22/28/22 19/25/22 20/26/22
f 23/29/23 24/30/23 22/28/23
f 23/29/24 22/28/24 21/27/24
f 24/30/25 23/29/25 21/27/25
f 24/30/26 21/27/26 22/28/26
f 25/31/27 26/32/27 24/30/27
f 25/31/28 24/30/28 23/29/28
f 26/32/29 25/31/29 23/29/29
f 26/32/30 23/29/30 24/30/30
f 27/33/31 28/34/31 26/32/31
f 27/33/32 26/32/32 25/31/32
f 28/34/33 27/33/33 25/31/33
f 28/34/34 25/31/34 26/32/34
f 29/31/35 30/32/35 28/34/35
f 29/31/36 28/34/36 27/33/36
f 30/32/37 29/31/37 27/33/37
f 30/32/38 27/33/38 28/34/38
f 31/29/39 32/30/39 30/32/39
f 31/29/40 30/32/40 29/31/40
f 32/30/41 31/29/41 29/31/41
f 32/30/42 29/31/42 30/32/42
f 33/27/43 34/28/43 32/30/43
f 33/27/44 32/30/44 31/29/44
f 34/28/45 33/27/45 31/29/45
f 34/28/46 31/29/46 32/30/46
f 35/25/47 36/26/47 34/28/47
f 35/25/47 34/28/47 33/27/47
f 36/26/48 35/25/48 33/27/48
f 36/26/48 33/27/48 34/28/48
f 37/23/49 38/24/49 36/26/49
f 37/23/49 36/26/49 35/25/49
f 38/24/50 37/23/50 35/25/50
f 38/24/50 35/25/50 36/26/50
f 39/21/51 40/22/51 38/24/51
f 39/21/51 38/24/51 37/23/51
f 40/22/52 39/21/52 37/23/52
f 40/22/52 37/23/52 38/24/52
f 41/17/53 42/18/53 40/22/53
f 41/17/53 40/22/53 39/21/53
f 42/18/54 41/17/54 39/21/54
f 42/18/54 39/21/54 40/22/54
f 14/20/55 13/19/55 42/18/55
f 14/20/56 42/18/56 41/17/56
f 13/19/57 14/20/57 41/17/57
f 13/19/58 41/17/58 42/18/58
f 43/17/12 44/18/12 45/19/12
f 43/17/12 45/19/12 46/20/12
f 44/18/14 43/17/14 46/20/14
f 44/18/14 46/20/14 45/19/14
f 47/21/15 48/22/15 44/18/15
f 47/21/15 44/18/15 43/17/15
f 48/22/16 47/21/16 43/17/16
f 48/22/16 43/17/16 44/18/16
f 49/23/59 50/24/59 48/22/59
f 49/23/60 48/22/60 47/21/60
f 50/24/61 49/23/61 47/21/61
f 50/24/62 47/21/62 48/22/62
f 51/25/63 52/26/63 50/24/63
f 51/25/63 50/24/63 49/23/63
f 52/26/64 51/25/64 49/23/64
f 52/26/64 49/23/64 50/24/64
f 53/27/65 54/28/65 52/26/65
f 53/27/66 52/26/66 51/25/66
f 54/28/67 53/27/67 51/25/67
f 54/28/22 51/25/22 52/26/22
f 55/29/23 56/30/23 54/28/23
f 55/29/68 54/28/68 53/27/68
f 56/30/69 55/29/69 53/27/69
f 56/30/70 53/27/70 54/28/70
f 57/31/27 58/32/27 56/30/27
f 57/31/28 56/30/28 55/29/28
f 58/32/29 57/31/29 55/29/29
f 58/32/30 55/29/30 56/30/30
f 59/33/31 60/34/31 58/32/31
f 59/33/32 58/32/32 57/31/32
f 60/34/71 59/33/71 57/31/71
f 60/34/34 57/31/34 58/32/34
f 61/31/35 62/32/35 60/34/35
f 61/31/72 60/34/72 59/33/72
f 62/32/37 61/31/37 59/33/37
f 62/32/38 59/33/38 60/34/38
f 63/29/39 64/30/39 62/32/39
f 63/29/40 62/32/40 61/31/40
f 64/30/41 63/29/41 61/31/41
f 64/30/42 61/31/42 62/32/42
f 65/27/43 66/28/43 64/30/43
f 65/27/44 64/30/44 63/29/44
f 66/28/45 65/27/45 63/29/45
f 66/28/46 63/29/46 64/30/46
f 67/25/47 68/26/47 66/28/47
f 67/25/73 66/28/73 65/27/73
f 68/26/48 67/25/48 65/27/48
f 68/26/48 65/27/48 66/28/48
f 69/23/74 70/24/74 68/26/74
f 69/23/74 68/26/74 67/25/74
f 70/24/75 69/23/75 67/25/75
f 70/24/75 67/25/75 68/26/75
f 71/21/76 72/22/76 70/24/76
f 71/21/77 70/24/77 69/23/77
f 72/22/78 71/21/78 69/23/78
f 72/22/79 69/23/79 70/24/79
f 73/17/53 74/18/53 72/22/53
f 73/17/53 72/22/53 71/21/53
f 74/18/54 73/17/54 71/21/54
f 74/18/54 71/21/54 72/22/54
f 46/20/55 45/19/55 74/18/55
f 46/20/55 74/18/55 73/17/55
f 45/19/57 46/20/57 73/17/57
f 45/19/57 73/17/57 74/18/57
f 75/17/12 76/18/12 77/19/12
f 75/17/12 77/19/12 78/20/12
f 76/18/14 75/17/14 78/20/14
f 76/18/14 78/20/14 77/19/14
f 79/21/15 80/22/15 76/18/15
f 79/21/15 76/18/15 75/17/15
f 80/22/16 79/21/16 75/17/16
f 80/22/16 75/17/16 76/18/16
f 81/23/59 82/24/59 80/22/59
f 81/23/60 80/22/60 79/21/60
f 82/24/61 81/23/61 79/21/61
f 82/24/62 79/21/62 80/22/62
f 83/25/63 84/26/63 82/24/63
f 83/25/63 82/24/63 81/23/63
f 84/26/64 83/25/64 81/23/64
f 84/26/64 81/23/64 82/24/64
f 85/27/21 86/28/21 84/26/21
f 85/27/21 84/26/21 83/25/21
f 86/28/22 85/27/22 83/25/22
f 86/28/22 83/25/22 84/26/22
f 87/29/23 88/30/23 86/28/23
f 87/29/24 86/28/24 85/27/24
f 88/30/25 87/29/25 85/27/25
f 88/30/26 85/27/26 86/28/26
f 89/31/27 90/32/27 88/30/27
f 89/31/28 88/30/28 87/29/28
f 90/32/29 89/31/29 87/29/29
f 90/32/30 87/29/30 88/30/30
f 91/33/80 92/34/80 90/32/80
f 91/33/32 90/32/32 89/31/32
f 92/34/33 91/33/33 89/31/33
f 92/34/34 89/31/34 90/32/34
f 93/31/35 94/32/35 92/34/35
f 93/31/36 92/34/36 91/33/36
f 94/32/37 93/31/37 91/33/37
f 94/32/81 91/33/81 92/34/81
f 95/29/39 96/30/39 94/32/39
f 95/29/40 94/32/40 93/31/40
f 96/30/41 95/29/41 93/31/41
f 96/30/42 93/31/42 94/32/42
f 97/27/43 98/28/43 96/30/43
f 97/27/44 96/30/44 95/29/44
f 98/28/45 97/27/45 95/29/45
f 98/28/46 95/29/46 96/30/46
f 99/25/47 100/26/47 98/28/47
f 99/25/47 98/28/47 97/27/47
f 100/26/48 99/25/48 97/27/48
f 100/26/48 97/27/48 98/28/48
f 101/23/74 102/24/74 100/26/74
f 101/23/74 100/26/74 99/25/74
f 102/24/75 101/23/75 99/25/75
f 102/24/75 99/25/75 100/26/75
f 103/21/76 104/22/76 102/24/76
f 103/21/77 102/24/77 101/23/77
f 104/22/78 103/21/78 101/23/78
f 104/22/79 101/23/79 102/24/79
f 105/17/53 106/18/53 104/22/53
f 105/17/53 104/22/53 103/21/53
f 106/18/54 105/17/54 103/21/54
f 106/18/54 103/21/54 104/22/54
f 78/20/55 77/19/55 106/18/55
f 78/20/55 106/18/55 105/17/55
f 77/19/57 78/20/57 105/17/57
f 77/19/57 105/17/57 106/18/57
f 107/17/12 108/18/12 109/19/12
f 107/17/12 109/19/12 110/20/12
f 108/18/14 107/17/14 110/20/14
f 108/18/14 110/20/14 109/19/14
f 111/21/15 112/22/15 108/18/15
f 111/21/15 108/18/15 107/17/15
f 112/22/16 111/21/16 107/17/16
f 112/22/16 107/17/16 108/18/16
f 113/23/60 114/24/60 112/22/60
f 113/23/60 112/22/60 111/21/60
f 114/24/62 113/23/62 111/21/62
f 114/24/62 111/21/62 112/22/62
f 115/25/63 116/26/63 114/24/63
f 115/25/63 114/24/63 113/23/63
f 116/26/64 115/25/64 113/23/64
f 116/26/64 113/23/64 114/24/64
f 117/27/66 118/28/66 116/26/66
f 117/27/66 116/26/66 115/25/66
f 118/28/82 117/27/82 115/25/82
f 118/28/82 115/25/82 116/26/82
f 119/29/83 120/30/83 118/28/83
f 119/29/84 118/28/84 117/27/84
f 120/30/69 119/29/69 117/27/69
f 120/30/85 117/27/85 118/28/85
f 121/31/86 122/32/86 120/30/86
f 121/31/28 120/30/28 119/29/28
f 122/32/87 121/31/87 119/29/87
f 122/32/88 119/29/88 120/30/88
f 123/33/89 124/34/89 122/32/89
f 123/33/90 122/32/90 121/31/90
f 124/34/55 123/33/55 121/31/55
f 124/34/91 121/31/91 122/32/91
f 125/31/92 126/32/92 124/34/92
f 125/31/14 124/34/14 123/33/14
f 126/32/93 125/31/93 123/33/93
f 126/32/94 123/33/94 124/34/94
f 127/29/95 128/30/95 126/32/95
f 127/29/96 126/32/96 125/31/96
f 128/30/41 127/29/41 125/31/41
f 128/30/97 125/31/97 126/32/97
f 129/27/98 130/28/98 128/30/98
f 129/27/99 128/30/99 127/29/99
f 130/28/100 129/27/100 127/29/100
f 130/28/101 127/29/101 128/30/101
f 131/25/102 132/26/102 130/28/102
f 131/25/102 130/28/102 129/27/102
f 132/26/103 131/25/103 129/27/103
f 132/26/103 129/27/103 130/28/103
f 133/23/74 134/24/74 132/26/74
f 133/23/74 132/26/74 131/25/74
f 134/24/75 133/23/75 131/25/75
f 134/24/75 131/25/75 132/26/75
f 135/21/76 136/22/76 134/24/76
f 135/21/76 134/24/76 133/23/76
f 136/22/78 135/21/78 133/23/78
f 136/22/78 133/23/78 134/24/78
f 137/17/53 138/18/53 136/22/53
f 137/17/53 136/22/53 135/21/53
f 138/18/54 137/17/54 135/21/54
f 138/18/54 135/21/54 136/22/54
f 110/20/55 109/19/55 138/18/55
f 110/20/55 138/18/55 137/17/55
f 109/19/57 110/20/57 137/17/57
f 109/19/57 137/17/57 138/18/57
f 139/17/12 140/18/12 141/19/12
f 139/17/12 141/19/12 142/20/12
f 140/18/14 139/17/14 142/20/14
f 140/18/14 142/20/14 141/19/14
f 143/21/15 144/22/15 140/18/15
f 143/21/15 140/18/15 139/17/15
f 144/22/16 143/21/16 139/17/16
f 144/22/16 139/17/16 140/18/16
f 145/23/60 146/24/60 144/22/60
f 145/23/60 144/22/60 143/21/60
f 146/24/62 145/23/62 143/21/62
f 146/24/62 143/21/62 144/22/62
f 147/25/104 148/26/104 146/24/104
f 147/25/104 146/24/104 145/23/104
f 148/26/105 147/25/105 145/23/105
f 148/26/105 145/23/105 146/24/105
f 149/27/106 150/28/106 148/26/106
f 149/27/106 148/26/106 147/25/106
f 150/28/107 149/27/107 147/25/107
f 150/28/107 147/25/107 148/26/107
f 151/29/83 152/30/83 150/28/83
f 151/29/84 150/28/84 149/27/84
f 152/30/69 151/29/69 149/27/69
f 152/30/85 149/27/85 150/28/85
f 153/31/27 154/32/27 152/30/27
f 153/31/28 152/30/28 151/29/28
f 154/32/29 153/31/29 151/29/29
f 154/32/30 151/29/30 152/30/30
f 155/33/31 156/34/31 154/32/31
f 155/33/32 154/32/32 153/31/32
f 156/34/33 155/33/33 153/31/33
f 156/34/34 153/31/34 154/32/34
f 157/31/35 158/32/35 156/34/35
f 157/31/36 156/34/36 155/33/36
f 158/32/37 157/31/37 155/33/37
f 158/32/38 155/33/38 156/34/38
f 159/29/39 160/30/39 158/32/39
f 159/29/40 158/32/40 157/31/40
f 160/30/41 159/29/41 157/31/41
f 160/30/42 157/31/42 158/32/42
f 161/27/108 162/28/108 160/30/108
f 161/27/44 160/30/44 159/29/44
f 162/28/109 161/27/109 159/29/109
f 162/28/101 159/29/101 160/30/101
f 163/25/110 164/26/110 162/28/110
f 163/25/111 162/28/111 161/27/111
f 164/26/112 163/25/112 161/27/112
f 164/26/113 161/27/113 162/28/113
f 165/23/114 166/24/114 164/26/114
f 165/23/114 164/26/114 163/25/114
f 166/24/115 165/23/115 163/25/115
f 166/24/115 163/25/115 164/26/115
f 167/21/76 168/22/76 166/24/76
f 167/21/76 166/24/76 165/23/76
f 168/22/78 167/21/78 165/23/78
f 168/22/78 165/23/78 166/24/78
f 169/17/53 170/18/53 168/22/53
f 169/17/53 168/22/53 167/21/53
f 170/18/54 169/17/54 167/21/54
f 170/18/54 167/21/54 168/22/54
f 142/20/55 141/19/55 170/18/55
f 142/20/55 170/18/55 169/17/55
f 141/19/57 142/20/57 169/17/57
f 141/19/57 169/17/57 170/18/57
f 171/35/116 172/36/116 173/37/116
f 173/37/117 174/38/117 171/35/117
f 174/38/118 173/37/118 2/39/118
f 2/39/118 1/40/118 174/38/118
f 172/41/119 171/42/119 174/43/119
f 174/43/120 173/44/120 172/41/120
f 173/44/121 174/43/121 1/45/121
f 1/45/121 2/46/121 173/44/121
f 175/47/122 176/48/122 10/49/122
f 10/49/122 9/50/122 175/47/122
f 177/51/123 178/52/123 8/53/123
f 8/53/123 7/54/123 177/51/123
f 178/52/124 175/47/124 9/50/124
f 9/50/124 8/53/124 178/52/124
f 177/55/125 176/56/125 175/47/125
f 175/47/125 178/52/125 177/55/125
