# generated by tools/objdedupe/dedupe.py -- do not hand-edit.
# Re-run the tool after touching azd_1svet.obj, azd_2svet.obj, azd_3svet.obj, azd_4svet.obj, azd_5svet.obj, azd_6svet.obj.
o stozar_4svet_S_ind
v -0.011557 0.710267 -0.128544
vt 0.820000 0.786000
vn -0.970300 -0.241900 -0.000000
v 0.000000 0.663917 0.000000
vt 0.843000 0.681000
v -0.011557 0.710267 0.128544
vt 0.820000 0.583000
v 0.011557 0.710267 -0.128544
vt 0.816000 0.782000
vn 0.970300 -0.241900 -0.000000
v 0.011557 0.710267 0.128544
vt 0.816000 0.579000
vt 0.839000 0.676000
vn -0.000000 -0.000000 1.000000
v 0.011557 0.726892 -0.128544
vt 0.801000 0.782000
vn -0.000000 1.000000 -0.000000
vn -0.000000 -0.000000 -1.000000
v -0.011557 0.726892 0.128544
vt 0.805000 0.583000
v -0.011557 0.726892 -0.128544
vt 0.805000 0.786000
vn -0.000000 -0.940700 -0.339200
vn -0.000000 -0.940700 0.339200
v 0.011557 0.726892 0.128544
vt 0.801000 0.579000
v -0.011557 2.545727 -0.128544
v 0.000000 2.499377 0.000000
v -0.011557 2.545727 0.128544
v 0.011557 2.545727 -0.128544
v 0.011557 2.545727 0.128544
v 0.011557 2.562352 -0.128544
v -0.011557 2.562352 -0.128544
v -0.011557 2.562352 0.128544
v 0.011557 2.562352 0.128544
v -0.011557 2.341726 -0.128544
v 0.000000 2.295376 0.000000
v -0.011557 2.341726 0.128544
v 0.011557 2.341726 -0.128544
v 0.011557 2.341726 0.128544
v 0.011557 2.358350 -0.128544
v -0.011557 2.358350 -0.128544
v -0.011557 2.358350 0.128544
v 0.011557 2.358350 0.128544
v -0.036895 2.366940 0.137876
vt 0.596000 0.885000
vn -1.000000 -0.000000 -0.000000
v -0.036895 2.366940 0.128544
v -0.036895 0.912106 0.128544
vt 0.596000 0.218000
v -0.036895 0.912106 0.137876
vt 0.946000 0.782000
v 0.036895 2.366940 0.128544
vt 0.986000 0.782000
v 0.036895 0.912106 0.128544
vt 0.986000 0.276000
vt 0.946000 0.276000
vt 0.635000 0.885000
vn 1.000000 -0.000000 -0.000000
v 0.036895 2.366940 0.137876
v 0.036895 0.912106 0.137876
vt 0.635000 0.218000
vn -0.000000 -1.000000 -0.000000
v -0.021939 2.564515 0.054693
vt 0.507000 0.340000
vn -0.848900 -0.000000 0.528500
v -0.055991 2.564515 0.000000
vt 0.491000 0.324000
v -0.055991 2.552155 0.000000
vt 0.489000 0.330000
v -0.021939 2.552155 0.054693
vt 0.505000 0.346000
vn -0.848900 -0.000000 -0.528500
v -0.021939 2.564515 -0.054693
vt 0.474000 0.340000
v -0.021939 2.552155 -0.054693
vt 0.472000 0.346000
v -0.084851 2.558335 -0.070081
vt 0.469000 0.311000
vn -0.237600 -0.000000 0.971400
v 0.084851 2.558335 -0.070081
vt 0.469000 0.390000
vn 0.237600 -0.000000 0.971400
v 0.021939 2.564515 -0.054693
vt 0.474000 0.360000
v 0.021939 2.552155 -0.054693
vt 0.472000 0.366000
vn 0.848900 -0.000000 -0.528500
v 0.055991 2.564515 0.000000
vt 0.491000 0.376000
v 0.055991 2.552155 0.000000
vt 0.489000 0.382000
vn 0.848900 -0.000000 0.528500
v 0.021939 2.564515 0.054693
vt 0.507000 0.360000
v 0.021939 2.552155 0.054693
vt 0.505000 0.366000
v 0.058895 2.580459 -0.234654
vt 0.418000 0.378000
vn -0.000000 0.891800 0.452400
v -0.058895 2.580459 -0.234654
vt 0.418000 0.323000
v -0.084851 2.569644 -0.213333
vt 0.425000 0.311000
v 0.084851 2.569644 -0.213333
vt 0.425000 0.390000
vn -0.000000 0.996900 0.078700
vn -0.000000 0.928000 -0.372700
vn -0.000000 -0.891800 -0.452400
vn -0.000000 -0.928000 -0.372700
v -0.011557 2.749482 -0.128544
v 0.000000 2.703132 0.000000
v -0.011557 2.749482 0.128544
v 0.011557 2.749482 -0.128544
v 0.011557 2.749482 0.128544
v 0.011557 2.766168 -0.128544
v -0.011557 2.766168 -0.128544
v 0.011557 2.766168 0.128544
v -0.011557 2.766168 0.128544
v -0.011557 2.137662 -0.128544
v 0.000000 2.091312 0.000000
v -0.011557 2.137662 0.128544
v 0.011557 2.137662 -0.128544
v 0.011557 2.137662 0.128544
v 0.011557 2.154348 -0.128544
v -0.011557 2.154348 0.128544
v 0.011557 2.154348 0.128544
v -0.011557 2.154348 -0.128544
v -0.011557 1.933722 -0.128544
v 0.000000 1.887372 0.000000
v -0.011557 1.933722 0.128544
v 0.011557 1.933722 -0.128544
v 0.011557 1.933722 0.128544
v -0.011557 1.950408 0.128544
v 0.011557 1.950408 0.128544
v 0.011557 1.950408 -0.128544
v -0.011557 1.950408 -0.128544
v -0.011557 1.729782 -0.128544
v 0.000000 1.683432 0.000000
v -0.011557 1.729782 0.128544
v 0.011557 1.729782 -0.128544
v 0.011557 1.729782 0.128544
v 0.011557 1.746468 -0.128544
v -0.011557 1.746468 -0.128544
v -0.011557 1.746468 0.128544
v 0.011557 1.746468 0.128544
v -0.011557 1.525842 -0.128544
v 0.000000 1.479492 0.000000
v -0.011557 1.525842 0.128544
v 0.011557 1.525842 -0.128544
v 0.011557 1.525842 0.128544
v 0.011557 1.542528 -0.128544
v -0.011557 1.542528 -0.128544
v -0.011557 1.542528 0.128544
v 0.011557 1.542528 0.128544
v -0.011557 0.914022 -0.128544
v 0.000000 0.867672 0.000000
v -0.011557 0.914022 0.128544
v 0.011557 0.914022 -0.128544
v 0.011557 0.914022 0.128544
v -0.011557 0.930708 0.128544
v 0.011557 0.930708 0.128544
v 0.011557 0.930708 -0.128544
v -0.011557 0.930708 -0.128544
v -0.011557 0.506142 -0.128544
v 0.000000 0.459792 0.000000
v -0.011557 0.506142 0.128544
v 0.011557 0.506142 -0.128544
v 0.011557 0.506142 0.128544
v 0.011557 0.522828 -0.128544
v -0.011557 0.522828 0.128544
v 0.011557 0.522828 0.128544
v -0.011557 0.522828 -0.128544
v -0.011557 1.321902 -0.128544
v 0.000000 1.275552 0.000000
v -0.011557 1.321902 0.128544
v 0.011557 1.321902 -0.128544
v 0.011557 1.321902 0.128544
v -0.011557 1.338588 0.128544
v 0.011557 1.338588 0.128544
v 0.011557 1.338588 -0.128544
v -0.011557 1.338588 -0.128544
v -0.011557 1.117962 -0.128544
v 0.000000 1.071612 0.000000
v -0.011557 1.117962 0.128544
v 0.011557 1.117962 -0.128544
v 0.011557 1.117962 0.128544
v -0.011557 1.134648 0.128544
v 0.011557 1.134648 0.128544
v 0.011557 1.134648 -0.128544
v -0.011557 1.134648 -0.128544
v -0.011557 3.361302 -0.128543
v 0.000000 3.314952 0.000001
v -0.011557 3.361302 0.128545
v 0.011557 3.361302 -0.128543
v 0.011557 3.361302 0.128545
v 0.011557 3.377988 -0.128543
v -0.011557 3.377988 -0.128543
v -0.011557 3.377988 0.128545
v 0.011557 3.377988 0.128545
v -0.011557 3.157362 -0.128543
v 0.000000 3.111012 0.000000
v -0.011557 3.157362 0.128544
v 0.011557 3.157362 -0.128543
v 0.011557 3.157362 0.128544
v 0.011557 3.174048 -0.128543
v -0.011557 3.174048 -0.128543
v -0.011557 3.174048 0.128544
v 0.011557 3.174048 0.128544
v -0.011557 2.953422 -0.128544
v 0.000000 2.907072 0.000000
v -0.011557 2.953422 0.128544
v 0.011557 2.953422 -0.128544
v 0.011557 2.953422 0.128544
v 0.011557 2.970108 -0.128544
v -0.011557 2.970108 0.128544
v -0.011557 2.970108 -0.128544
v 0.011557 2.970108 0.128544
v 0.077435 0.251032 0.000000
vt 0.822000 0.207000
v -0.077435 0.251032 0.106049
vt 0.640000 0.012000
v 0.077435 0.251032 0.106049
vt 0.822000 0.012000
v -0.077435 0.251032 0.000000
vt 0.640000 0.207000
v -0.077435 0.251032 -0.106049
v 0.077435 0.251032 -0.106049
vt 0.011000 0.236000
v -0.077435 0.063592 0.106049
vt 0.203000 0.123000
vt 0.205000 0.232000
v -0.077435 0.063592 -0.106049
vt 0.011000 0.125000
v 0.077435 0.063592 -0.106049
v 0.077435 0.063592 0.106049
v -0.053395 0.288050 0.025709
vt 0.134000 0.259000
vn -0.581400 0.813600 -0.000000
v -0.053395 0.288050 -0.025709
vt 0.086000 0.259000
v -0.077435 0.270869 -0.025709
vt 0.086000 0.249000
v -0.077435 0.270869 0.025709
vt 0.134000 0.249000
vt 0.810000 0.991000
v 0.053395 0.288050 -0.025709
vt 0.904000 0.991000
v 0.077435 0.270869 -0.025709
vt 0.912000 0.979000
vt 0.801000 0.979000
vt 0.086000 0.256000
vn 0.581400 0.813600 -0.000000
v 0.053395 0.288050 0.025709
vt 0.134000 0.257000
v 0.077435 0.270869 0.025709
v -0.052654 0.071317 0.093689
vt 0.644000 0.092000
v -0.052654 0.071317 -0.093689
vt 0.635000 0.092000
v -0.052654 0.024535 -0.076138
vt 0.635000 0.057000
v -0.052654 0.024535 0.076138
vt 0.644000 0.057000
vn -0.000000 -0.351300 -0.936300
v 0.052654 0.071317 -0.093689
vt 0.823000 0.092000
v 0.052654 0.024535 -0.076138
vt 0.823000 0.057000
v 0.052654 0.071317 0.093689
vt 0.814000 0.092000
v 0.052654 0.024535 0.076138
vt 0.814000 0.057000
vn -0.000000 -0.351300 0.936300
v -0.077435 0.023360 -0.025709
vt 0.082000 0.088000
v -0.077435 0.023360 0.025709
vt 0.130000 0.088000
v 0.077435 0.023360 -0.025709
vt 0.912000 0.852000
vt 0.801000 0.852000
v 0.077435 0.023360 0.025709
vt 0.927000 0.960000
vt 0.801000 0.960000
vt 0.801000 0.791000
vt 0.927000 0.791000
vt 0.507000 0.305000
vt 0.507000 0.210000
vt 0.417000 0.210000
vt 0.417000 0.305000
v -0.088250 0.024720 0.076756
vt 0.592000 0.043000
v -0.088250 0.024720 -0.076756
vt 0.443000 0.043000
v -0.088250 0.012360 -0.076756
v -0.088250 0.012360 0.076756
v 0.088250 0.024720 -0.076756
vt 0.443000 0.162000
v 0.088250 0.012360 -0.076756
v 0.088250 0.024720 0.076756
vt 0.592000 0.162000
v 0.088250 0.012360 0.076756
v -0.109571 0.012360 0.134291
vt 0.621000 0.003000
v -0.109571 0.012360 -0.134291
vt 0.420000 0.003000
v -0.109571 0.000000 -0.134291
v -0.109571 -0.000000 0.134291
v 0.109571 0.012360 -0.134291
vt 0.420000 0.205000
v 0.109571 0.000000 -0.134291
v 0.109571 0.012360 0.134291
vt 0.621000 0.205000
v 0.109571 -0.000000 0.134291
v 0.000000 3.771716 0.271859
vt 0.201000 0.029000
v 0.000000 3.771716 0.233543
vt 0.231000 0.029000
v 0.000000 3.738282 0.233543
vt 0.231000 0.007000
v 0.000000 3.738282 0.271859
vt 0.201000 0.007000
v 0.021568 2.900954 -0.055681
vt 0.035000 0.064000
vn 0.523300 -0.000000 -0.852100
v 0.048637 2.900954 -0.039057
vt 0.022000 0.061000
v 0.048637 2.781927 -0.039057
vt 0.022000 0.016000
v 0.021568 2.781927 -0.055681
vt 0.035000 0.019000
vn 0.817300 -0.000000 -0.576300
v 0.062233 2.900954 -0.019776
vt 0.008000 0.057000
v 0.062233 2.781927 -0.019776
vt 0.008000 0.012000
vt 0.917000 0.457000
vn 0.995200 -0.000000 0.098300
v 0.055558 2.900954 0.047772
vt 0.908000 0.492000
v 0.055558 2.781927 0.047772
vt 0.849000 0.475000
vt 0.857000 0.442000
vt 0.911000 0.473000
v -0.055620 2.900954 0.047772
vt 0.902000 0.496000
v -0.055620 2.781927 0.047772
vt 0.836000 0.473000
vt 0.845000 0.449000
vn -0.995200 -0.000000 0.098300
v -0.062294 2.900954 -0.019776
v -0.062294 2.781927 -0.019776
vt 0.075000 0.057000
vn -0.817300 -0.000000 -0.576300
v -0.048698 2.900954 -0.039057
vt 0.062000 0.061000
v -0.048698 2.781927 -0.039057
vt 0.062000 0.016000
vt 0.075000 0.012000
vn -0.523300 -0.000000 -0.852100
v -0.021630 2.900954 -0.055681
vt 0.048000 0.064000
v -0.021630 2.781927 -0.055681
vt 0.048000 0.019000
vt 0.918000 0.452000
vt 0.920000 0.447000
vt 0.859000 0.436000
vt 0.860000 0.431000
v 0.024473 2.898235 0.026513
vt 0.907000 0.487000
vn 0.964700 -0.246800 0.092100
v 0.024473 2.987103 0.264504
vt 0.908000 0.680000
v 0.006736 2.917763 0.264504
vt 0.864000 0.670000
vn 0.985000 -0.150000 0.085700
v 0.006736 2.781741 0.026513
vt 0.842000 0.468000
v 0.039799 2.987103 0.264504
v 0.039799 2.917763 0.264504
v 0.039799 2.987103 0.330198
vt 0.903000 0.708000
v 0.039799 2.917763 0.330198
vt 0.858000 0.698000
v -0.039861 2.987103 0.330198
v -0.039861 2.987103 0.264504
v -0.039861 2.917763 0.264504
v -0.039861 2.917763 0.330198
v -0.024596 2.987103 0.264504
v -0.006798 2.917763 0.264504
vn -0.987000 -0.150800 0.056300
v -0.024596 2.898235 0.026513
v -0.006798 2.781741 0.026513
vn -0.959000 -0.246200 0.140700
vt 0.908000 0.669000
vn -0.000000 0.936800 -0.349800
vt 0.892000 0.669000
vt 0.890000 0.516000
vt 0.906000 0.516000
vt 0.860000 0.663000
vn -0.000000 -0.868200 0.496200
vt 0.838000 0.499000
vt 0.844000 0.499000
vt 0.867000 0.662000
v 0.000000 3.830055 0.295096
vt 0.188000 0.050000
v -0.013596 3.830055 0.271550
vt 0.197000 0.050000
v -0.027192 3.830055 0.295096
v 0.013534 3.830055 0.271550
v 0.027130 3.830055 0.295096
v 0.013534 3.830055 0.318641
vt 0.179000 0.050000
v -0.013596 3.830055 0.318641
v -0.013596 3.722461 0.271550
vt 0.197000 0.008000
vn -0.866000 -0.000000 -0.500100
v -0.027192 3.722461 0.295096
vt 0.188000 0.008000
vn -0.866000 -0.000000 -0.500000
v 0.013534 3.722461 0.271550
v 0.027130 3.722461 0.295096
vn 0.866000 -0.000000 -0.500100
vn 0.866000 -0.000000 -0.500000
v 0.013534 3.722461 0.318641
vt 0.179000 0.008000
vn 0.866000 -0.000000 0.500000
vn 0.866000 -0.000000 0.500100
vn -0.866000 -0.000000 0.500000
v -0.013596 3.722461 0.318641
vn -0.866000 -0.000000 0.500100
v 0.000000 3.814173 0.289348
vt 0.190000 0.043000
vn 0.380400 0.924800 -0.003500
v 0.015326 3.807869 0.289348
vt 0.190000 0.040000
v 0.015326 3.807621 0.223778
vt 0.233000 0.040000
vn 0.380500 0.924800 -0.003500
v 0.000000 3.813925 0.223099
vt 0.234000 0.042000
vn 0.923700 0.383000 -0.001500
v 0.021630 3.792666 0.289348
vt 0.190000 0.036000
v 0.021630 3.792419 0.225447
vt 0.233000 0.036000
vn 0.923800 0.382900 -0.001400
vn 0.922400 -0.386200 0.001500
v 0.015265 3.777463 0.289348
vt 0.190000 0.032000
v 0.015265 3.777216 0.227116
vt 0.233000 0.032000
vn 0.922500 -0.386100 0.001500
vn 0.381700 -0.924300 0.003700
v 0.000000 3.771159 0.289348
vt 0.190000 0.029000
v 0.000000 3.770912 0.227795
vt 0.233000 0.029000
vn 0.381800 -0.924200 0.003700
vn -0.381700 -0.924300 0.003700
v -0.015265 3.777463 0.289348
v -0.015265 3.777216 0.227116
vn -0.381900 -0.924200 0.003700
vn -0.923700 -0.383000 0.001500
v -0.021568 3.792666 0.289348
v -0.021568 3.792419 0.225447
vn -0.923800 -0.382900 0.001500
vn -0.922400 0.386200 -0.001500
v -0.015203 3.807869 0.289348
v -0.015203 3.807621 0.223778
vn -0.922500 0.386100 -0.001500
vn -0.383000 0.923700 -0.003400
vn -0.383100 0.923700 -0.003500
v 0.015326 3.774991 0.106111
vt 0.888000 0.270000
vn 0.383200 0.890300 -0.246100
v 0.000000 3.781110 0.104381
vt 0.875000 0.270000
vt 0.875000 0.428000
vn 0.377900 0.892200 -0.247400
vt 0.888000 0.428000
v 0.021630 3.760283 0.110314
vt 0.901000 0.270000
vn 0.924600 0.367200 -0.101800
vn 0.922700 0.371200 -0.103600
vt 0.901000 0.428000
v 0.015265 3.745574 0.114454
vt 0.915000 0.270000
vn 0.923100 -0.370400 0.103400
vn 0.921400 -0.374200 0.105100
vt 0.915000 0.428000
v 0.000000 3.739518 0.116185
vt 0.928000 0.270000
vn 0.381400 -0.890000 0.250000
vn 0.379000 -0.890800 0.250600
vt 0.928000 0.428000
v -0.015265 3.745574 0.114454
vn -0.381400 -0.889900 0.250300
vn -0.379000 -0.890900 0.250200
v -0.021568 3.760283 0.110314
vn -0.924400 -0.367200 0.103100
vn -0.922700 -0.371200 0.103600
v -0.015203 3.774991 0.106111
vn -0.923300 0.370100 -0.103300
vn -0.921400 0.374400 -0.103800
vn -0.385900 0.889000 -0.246500
vn -0.380600 0.891300 -0.246400
v 0.015265 3.748046 0.051789
vt 0.888000 0.218000
vn 0.377100 0.829500 -0.412000
v 0.000000 3.753114 0.048019
vt 0.875000 0.218000
vn 0.377600 0.829400 -0.411800
v 0.021630 3.735872 0.061059
vt 0.901000 0.218000
vn 0.920800 0.348900 -0.174100
vn 0.922300 0.346200 -0.171600
v 0.015265 3.723635 0.070267
vt 0.915000 0.218000
vn 0.921000 -0.349000 0.173000
vn 0.920700 -0.349600 0.173600
v 0.000000 3.718629 0.074037
vt 0.928000 0.218000
vn 0.374200 -0.830600 0.412400
vn 0.376000 -0.830200 0.411500
v -0.015265 3.723635 0.070267
vn -0.374200 -0.830900 0.411800
vn -0.376000 -0.830000 0.412100
v -0.021568 3.735872 0.061059
vn -0.922400 -0.345900 0.171800
vn -0.922100 -0.346800 0.171900
v -0.015265 3.748046 0.051789
vn -0.922100 0.346600 -0.171800
vn -0.921000 0.349400 -0.172200
vn -0.377100 0.829900 -0.411200
vn -0.380200 0.828400 -0.411500
v 0.015265 3.693539 0.002102
vt 0.888000 0.165000
vn 0.375100 0.624300 -0.685300
v 0.000000 3.696876 -0.003213
vt 0.875000 0.165000
vn 0.376300 0.624200 -0.684700
v 0.021568 3.685504 0.015142
vt 0.901000 0.165000
vn 0.922400 0.260300 -0.285500
vn 0.921000 0.261900 -0.288500
v 0.015265 3.677471 0.028120
vt 0.915000 0.165000
vn 0.921900 -0.261700 0.285800
vn 0.921000 -0.262600 0.287700
v 0.000000 3.674133 0.033496
vt 0.928000 0.165000
vn 0.377400 -0.624400 0.683900
vn 0.374100 -0.624600 0.685500
v -0.015265 3.677471 0.028120
vn -0.377400 -0.623700 0.684500
vn -0.374200 -0.625300 0.684900
v -0.021630 3.685504 0.015142
vn -0.920600 -0.263400 0.288500
vn -0.922300 -0.259800 0.286200
v -0.015265 3.693601 0.002102
vn -0.921300 0.262500 -0.286700
vn -0.922400 0.260400 -0.285300
vn -0.372800 0.625500 -0.685400
vn -0.376300 0.623900 -0.684900
v 0.015265 3.633902 -0.011989
vt 0.888000 0.112000
vn 0.380600 0.217500 -0.898800
v 0.000000 3.635076 -0.018169
vt 0.875000 0.112000
vn 0.362600 0.214300 -0.907000
v 0.021568 3.631059 0.003029
vt 0.901000 0.112000
vn 0.924300 0.087700 -0.371400
vn 0.916800 0.086700 -0.389800
v 0.015265 3.628278 0.018046
vt 0.915000 0.112000
vn 0.924300 -0.082900 0.372600
vn 0.915300 -0.080800 0.394600
v 0.000000 3.627104 0.024288
vt 0.928000 0.112000
vn 0.384100 -0.185200 0.904500
vn 0.361500 -0.179200 0.915000
v -0.015265 3.628278 0.018046
vn -0.384100 -0.177400 0.906100
vn -0.362500 -0.187000 0.913000
v -0.021630 3.631121 0.003029
vn -0.923100 -0.077100 0.376700
vn -0.914800 -0.087800 0.394300
v -0.015265 3.633902 -0.011989
vn -0.922900 0.083700 -0.375700
vn -0.916200 0.092100 -0.390100
vn -0.380700 0.212400 -0.900000
vn -0.362400 0.219200 -0.905900
v 0.015203 3.498621 -0.011989
vt 0.888000 0.007000
vn 0.376600 -0.000000 -0.926400
v 0.000000 3.498621 -0.018169
vt 0.875000 0.007000
vn 0.375300 -0.000200 -0.926900
v 0.021568 3.498621 0.003029
vt 0.901000 0.007000
vn 0.920700 -0.000400 -0.390300
vn 0.922100 -0.000000 -0.387000
v 0.015203 3.498621 0.018046
vt 0.915000 0.007000
vn 0.920700 -0.000000 0.390300
vn 0.922100 -0.000400 0.387000
v 0.000000 3.498621 0.024288
vt 0.928000 0.007000
vn 0.379800 -0.000200 0.925100
vn 0.378500 -0.000000 0.925600
v -0.015326 3.498621 0.018046
vn -0.377200 -0.000000 0.926100
vn -0.378500 0.000200 0.925600
v -0.021630 3.498621 0.003029
vn -0.922100 0.000400 0.387000
vn -0.920700 -0.000000 0.390300
v -0.015326 3.498621 -0.011989
vn -0.922100 -0.000000 -0.387000
vn -0.920700 0.000400 -0.390200
vn -0.374000 0.000200 -0.927400
vn -0.375300 -0.000000 -0.926900
v 0.000000 3.504740 0.000001
vt 0.103000 0.044000
v -0.036091 3.504740 -0.036152
vt 0.093000 0.052000
v -0.051047 3.504740 0.000001
vt 0.102000 0.055000
v 0.000000 3.504740 -0.051108
vt 0.091000 0.043000
v 0.036029 3.504740 -0.036152
vt 0.095000 0.036000
v 0.050985 3.504740 0.000001
vt 0.102000 0.033000
v 0.036029 3.504740 0.035968
vt 0.110000 0.037000
v 0.000000 3.504740 0.050924
vt 0.112000 0.044000
v -0.036091 3.504740 0.035968
vt 0.109000 0.052000
v -0.030591 3.415315 -0.030652
vt 0.103000 0.009000
vn -0.921200 -0.080200 -0.380700
v -0.043260 3.415315 0.000001
vt 0.126000 0.010000
vt 0.126000 0.060000
vn -0.921100 -0.080100 -0.381000
vt 0.099000 0.059000
v 0.000000 3.415315 -0.043321
vt 0.094000 0.007000
vn -0.381400 -0.080100 -0.920900
vn -0.381600 -0.080200 -0.920800
vt 0.088000 0.057000
v 0.030529 3.415315 -0.030652
vn 0.382100 -0.080200 -0.920700
vn 0.382100 -0.080100 -0.920600
v 0.043198 3.415315 0.000001
vn 0.921200 -0.080100 -0.380700
vn 0.921100 -0.080200 -0.381000
v 0.030529 3.415315 0.030468
vt 0.149000 0.009000
vn 0.920400 -0.080100 0.382700
vt 0.154000 0.059000
v 0.000000 3.415315 0.043137
vt 0.159000 0.007000
vn 0.382100 -0.080100 0.920700
vn 0.382100 -0.080200 0.920600
vt 0.165000 0.057000
v -0.030591 3.415315 0.030468
vn -0.381400 -0.080200 0.920900
vn -0.381600 -0.080100 0.920900
vn -0.920400 -0.080100 0.382700
v -0.030591 0.247200 -0.030653
vt 0.946000 0.006000
vn -0.924200 -0.000000 -0.382000
v -0.043260 0.247200 0.000000
vt 0.965000 0.006000
vt 0.965000 0.996000
vt 0.946000 0.996000
v 0.000000 0.247200 -0.043322
vt 0.938000 0.006000
vn -0.382600 -0.000000 -0.923900
vt 0.938000 0.996000
v 0.030529 0.247200 -0.030653
vn 0.383300 -0.000000 -0.923600
v 0.043198 0.247200 0.000000
vn 0.924200 -0.000000 -0.382000
v 0.030529 0.247200 0.030467
vt 0.985000 0.006000
vn 0.923400 -0.000000 0.384000
vt 0.985000 0.996000
v 0.000000 0.247200 0.043136
vt 0.993000 0.006000
vn 0.383300 -0.000000 0.923600
vt 0.993000 0.996000
v -0.030591 0.247200 0.030467
vn -0.382600 -0.000000 0.923900
vn -0.923400 -0.000000 0.384000
f 1/1/1 2/2/1 3/3/1
f 4/4/2 5/5/2 2/6/2
f 1/1/3 4/4/3 6/7/3
f 1/1/4 3/3/4 4/4/4
f 3/3/4 5/5/4 4/4/4
f 5/5/5 3/3/5 7/8/5
f 1/1/5 8/9/5 6/7/5
f 1/1/6 4/4/6 2/2/6
f 2/6/7 5/5/7 3/3/7
f 5/5/3 9/10/3 7/8/3
f 10/1/1 11/2/1 12/3/1
f 13/4/2 14/5/2 11/6/2
f 15/7/3 16/9/3 10/1/3
f 10/1/3 13/4/3 15/7/3
f 13/4/4 10/1/4 12/3/4
f 12/3/4 14/5/4 13/4/4
f 17/8/5 18/10/5 14/5/5
f 11/2/6 10/1/6 13/4/6
f 11/6/7 14/5/7 12/3/7
f 17/8/3 12/3/3 14/5/3
f 19/1/1 20/2/1 21/3/1
f 22/4/2 23/5/2 20/6/2
f 24/7/3 25/9/3 19/1/3
f 19/1/3 22/4/3 24/7/3
f 22/4/4 19/1/4 21/3/4
f 21/3/4 23/5/4 22/4/4
f 23/5/5 21/3/5 26/8/5
f 26/8/5 27/10/5 23/5/5
f 20/2/6 19/1/6 22/4/6
f 20/6/7 23/5/7 21/3/7
f 28/11/8 29/11/8 30/12/8
f 30/12/8 31/12/8 28/11/8
f 29/13/5 32/14/5 33/15/5
f 33/15/5 30/16/5 29/13/5
f 32/17/9 34/17/9 35/18/9
f 35/18/9 33/18/9 32/17/9
f 34/17/3 28/11/3 31/12/3
f 31/12/3 35/18/3 34/17/3
f 32/17/4 29/11/4 28/11/4
f 28/11/4 34/17/4 32/17/4
f 33/18/10 35/18/10 31/12/10
f 31/12/10 30/12/10 33/18/10
f 36/19/11 37/20/11 38/21/11
f 38/21/11 39/22/11 36/19/11
f 37/20/12 40/23/12 41/24/12
f 41/24/12 38/21/12 37/20/12
f 42/25/13 41/24/13 40/23/13
f 43/26/14 44/27/14 45/28/14
f 44/27/15 46/29/15 47/30/15
f 47/30/15 45/28/15 44/27/15
f 46/29/16 48/31/16 49/32/16
f 49/32/16 47/30/16 46/29/16
f 48/31/3 36/19/3 39/22/3
f 39/22/3 49/32/3 48/31/3
f 50/33/17 51/34/17 52/35/17
f 53/36/18 52/35/18 42/25/18
f 42/25/18 43/26/18 53/36/18
f 43/26/19 42/25/19 40/23/19
f 40/23/19 44/27/19 43/26/19
f 44/27/4 40/23/4 37/20/4
f 37/20/4 46/29/4 44/27/4
f 46/29/4 37/20/4 36/19/4
f 36/19/4 48/31/4 46/29/4
f 50/33/20 53/36/20 52/35/20
f 43/26/21 45/28/21 41/24/21
f 41/24/21 42/25/21 43/26/21
f 45/28/10 47/30/10 38/21/10
f 38/21/10 41/24/10 45/28/10
f 47/30/10 49/32/10 39/22/10
f 39/22/10 38/21/10 47/30/10
f 54/1/1 55/2/1 56/3/1
f 57/4/2 58/5/2 55/6/2
f 57/4/4 54/1/4 56/3/4
f 56/3/4 58/5/4 57/4/4
f 59/7/5 57/4/5 54/1/5
f 54/1/5 60/9/5 59/7/5
f 55/2/6 54/1/6 57/4/6
f 55/6/7 58/5/7 56/3/7
f 58/5/3 61/10/3 62/8/3
f 62/8/3 56/3/3 58/5/3
f 63/1/1 64/2/1 65/3/1
f 66/4/2 67/5/2 64/6/2
f 63/1/3 66/4/3 68/7/3
f 66/4/4 63/1/4 65/3/4
f 65/3/4 67/5/4 66/4/4
f 67/5/5 65/3/5 69/8/5
f 69/8/5 70/10/5 67/5/5
f 63/1/5 71/9/5 68/7/5
f 64/2/6 63/1/6 66/4/6
f 64/6/7 67/5/7 65/3/7
f 72/1/1 73/2/1 74/3/1
f 75/4/2 76/5/2 73/6/2
f 75/4/4 72/1/4 74/3/4
f 74/3/4 76/5/4 75/4/4
f 76/5/5 74/3/5 77/8/5
f 77/8/5 78/10/5 76/5/5
f 79/7/5 75/4/5 72/1/5
f 72/1/5 80/9/5 79/7/5
f 73/2/6 72/1/6 75/4/6
f 73/6/7 76/5/7 74/3/7
f 81/1/1 82/2/1 83/3/1
f 84/4/2 85/5/2 82/6/2
f 86/7/3 87/9/3 81/1/3
f 81/1/3 84/4/3 86/7/3
f 84/4/4 81/1/4 83/3/4
f 83/3/4 85/5/4 84/4/4
f 85/5/5 83/3/5 88/8/5
f 88/8/5 89/10/5 85/5/5
f 82/2/6 81/1/6 84/4/6
f 82/6/7 85/5/7 83/3/7
f 90/1/1 91/2/1 92/3/1
f 93/4/2 94/5/2 91/6/2
f 95/7/3 96/9/3 90/1/3
f 90/1/3 93/4/3 95/7/3
f 93/4/4 90/1/4 92/3/4
f 92/3/4 94/5/4 93/4/4
f 94/5/5 92/3/5 97/8/5
f 97/8/5 98/10/5 94/5/5
f 91/2/6 90/1/6 93/4/6
f 91/6/7 94/5/7 92/3/7
f 99/1/1 100/2/1 101/3/1
f 102/4/2 103/5/2 100/6/2
f 102/4/4 99/1/4 101/3/4
f 101/3/4 103/5/4 102/4/4
f 103/5/5 101/3/5 104/8/5
f 104/8/5 105/10/5 103/5/5
f 106/7/5 102/4/5 99/1/5
f 99/1/5 107/9/5 106/7/5
f 100/2/6 99/1/6 102/4/6
f 100/6/7 103/5/7 101/3/7
f 108/1/1 109/2/1 110/3/1
f 111/4/2 112/5/2 109/6/2
f 108/1/3 111/4/3 113/7/3
f 111/4/4 108/1/4 110/3/4
f 110/3/4 112/5/4 111/4/4
f 114/8/5 115/10/5 112/5/5
f 108/1/5 116/9/5 113/7/5
f 109/2/6 108/1/6 111/4/6
f 109/6/7 112/5/7 110/3/7
f 114/8/3 110/3/3 112/5/3
f 117/1/1 118/2/1 119/3/1
f 120/4/2 121/5/2 118/6/2
f 120/4/4 117/1/4 119/3/4
f 119/3/4 121/5/4 120/4/4
f 121/5/5 119/3/5 122/8/5
f 122/8/5 123/10/5 121/5/5
f 124/7/5 120/4/5 117/1/5
f 117/1/5 125/9/5 124/7/5
f 118/2/6 117/1/6 120/4/6
f 118/6/7 121/5/7 119/3/7
f 126/1/1 127/2/1 128/3/1
f 129/4/2 130/5/2 127/6/2
f 129/4/4 126/1/4 128/3/4
f 128/3/4 130/5/4 129/4/4
f 130/5/5 128/3/5 131/8/5
f 131/8/5 132/10/5 130/5/5
f 133/7/5 129/4/5 126/1/5
f 126/1/5 134/9/5 133/7/5
f 127/2/6 126/1/6 129/4/6
f 127/6/7 130/5/7 128/3/7
f 135/1/1 136/2/1 137/3/1
f 138/4/2 139/5/2 136/6/2
f 140/7/3 141/9/3 135/1/3
f 135/1/3 138/4/3 140/7/3
f 138/4/4 135/1/4 137/3/4
f 137/3/4 139/5/4 138/4/4
f 139/5/5 137/3/5 142/8/5
f 136/2/6 135/1/6 138/4/6
f 136/6/7 139/5/7 137/3/7
f 139/5/3 143/10/3 142/8/3
f 144/1/1 145/2/1 146/3/1
f 147/4/2 148/5/2 145/6/2
f 149/7/3 150/9/3 144/1/3
f 144/1/3 147/4/3 149/7/3
f 147/4/4 144/1/4 146/3/4
f 146/3/4 148/5/4 147/4/4
f 148/5/5 146/3/5 151/8/5
f 145/2/6 144/1/6 147/4/6
f 145/6/7 148/5/7 146/3/7
f 148/5/3 152/10/3 151/8/3
f 153/1/1 154/2/1 155/3/1
f 156/4/2 157/5/2 154/6/2
f 153/1/3 156/4/3 158/7/3
f 156/4/4 153/1/4 155/3/4
f 155/3/4 157/5/4 156/4/4
f 157/5/5 155/3/5 159/8/5
f 153/1/5 160/9/5 158/7/5
f 154/2/6 153/1/6 156/4/6
f 154/6/7 157/5/7 155/3/7
f 157/5/3 161/10/3 159/8/3
f 162/37/4 163/38/4 164/39/4
f 162/37/4 165/40/4 163/38/4
f 166/38/4 162/37/4 167/39/4
f 166/38/4 165/40/4 162/37/4
f 166/41/8 168/42/8 163/43/8
f 166/41/8 169/44/8 168/42/8
f 170/44/9 164/43/9 171/42/9
f 170/44/9 167/41/9 164/43/9
f 172/45/22 173/46/22 174/47/22
f 174/47/22 175/48/22 172/45/22
f 173/49/5 176/50/5 177/51/5
f 177/51/5 174/52/5 173/49/5
f 176/53/23 178/54/23 179/48/23
f 179/48/23 177/47/23 176/53/23
f 178/50/3 172/49/3 175/52/3
f 175/52/3 179/51/3 178/50/3
f 180/55/8 181/56/8 182/57/8
f 182/57/8 183/58/8 180/55/8
f 181/56/24 184/59/24 185/60/24
f 185/60/24 182/57/24 181/56/24
f 184/59/9 186/61/9 187/62/9
f 187/62/9 185/60/9 184/59/9
f 186/61/25 180/55/25 183/58/25
f 183/58/25 187/62/25 186/61/25
f 175/48/8 174/47/8 188/63/8
f 188/63/8 189/64/8 175/48/8
f 174/52/5 177/51/5 190/65/5
f 190/65/5 188/66/5 174/52/5
f 177/47/9 179/48/9 191/64/9
f 191/64/9 190/63/9 177/47/9
f 179/51/3 175/52/3 189/66/3
f 189/66/3 191/65/3 179/51/3
f 176/53/4 173/46/4 172/45/4
f 172/45/4 178/54/4 176/53/4
f 166/67/5 167/68/5 170/69/5
f 170/69/5 169/70/5 166/67/5
f 164/67/3 163/68/3 168/69/3
f 168/69/3 171/70/3 164/67/3
f 170/71/10 171/72/10 168/73/10
f 168/73/10 169/74/10 170/71/10
f 192/75/8 193/76/8 194/76/8
f 194/76/8 195/75/8 192/75/8
f 193/76/5 196/77/5 197/77/5
f 197/77/5 194/76/5 193/76/5
f 196/77/9 198/78/9 199/78/9
f 199/78/9 197/77/9 196/77/9
f 198/78/3 192/75/3 195/75/3
f 195/75/3 199/78/3 198/78/3
f 196/77/4 193/76/4 192/75/4
f 192/75/4 198/78/4 196/77/4
f 200/79/8 201/80/8 202/80/8
f 202/80/8 203/79/8 200/79/8
f 201/80/5 204/81/5 205/81/5
f 205/81/5 202/80/5 201/80/5
f 204/81/9 206/82/9 207/82/9
f 207/82/9 205/81/9 204/81/9
f 206/82/3 200/79/3 203/79/3
f 203/79/3 207/82/3 206/82/3
f 204/81/4 201/80/4 200/79/4
f 200/79/4 206/82/4 204/81/4
f 208/83/8 209/84/8 210/85/8
f 210/85/8 211/86/8 208/83/8
f 209/84/9 208/83/9 211/86/9
f 211/86/9 210/85/9 209/84/9
f 212/87/26 213/88/26 214/89/26
f 214/89/26 215/90/26 212/87/26
f 213/88/27 216/91/27 217/92/27
f 217/92/27 214/89/27 213/88/27
f 216/93/28 218/94/28 219/95/28
f 219/95/28 217/96/28 216/93/28
f 218/97/3 220/98/3 221/99/3
f 221/99/3 219/100/3 218/97/3
f 220/94/29 222/93/29 223/96/29
f 223/96/29 221/95/29 220/94/29
f 222/101/30 224/102/30 225/103/30
f 225/103/30 223/104/30 222/101/30
f 224/102/31 226/105/31 227/106/31
f 227/106/31 225/103/31 224/102/31
f 226/105/5 212/87/5 215/90/5
f 215/90/5 227/106/5 226/105/5
f 220/94/4 218/94/4 216/93/4
f 216/93/4 222/93/4 220/94/4
f 222/93/4 216/93/4 213/107/4
f 213/107/4 224/107/4 222/93/4
f 224/107/4 213/107/4 212/108/4
f 212/108/4 226/108/4 224/107/4
f 221/95/10 223/96/10 217/96/10
f 217/96/10 219/95/10 221/95/10
f 223/96/10 225/109/10 214/109/10
f 214/109/10 217/96/10 223/96/10
f 225/109/10 227/110/10 215/110/10
f 215/110/10 214/109/10 225/109/10
f 228/111/32 229/112/32 230/113/32
f 230/113/33 231/114/33 228/111/33
f 229/112/5 232/112/5 233/113/5
f 233/113/5 230/113/5 229/112/5
f 232/112/9 234/115/9 235/116/9
f 235/116/9 233/113/9 232/112/9
f 236/115/8 237/112/8 238/113/8
f 238/113/8 239/116/8 236/115/8
f 237/112/5 240/112/5 241/113/5
f 241/113/5 238/113/5 237/112/5
f 240/112/34 242/111/34 243/114/34
f 243/114/35 241/113/35 240/112/35
f 240/117/36 229/118/36 228/119/36
f 228/119/36 242/120/36 240/117/36
f 239/116/10 238/113/10 233/113/10
f 233/113/10 235/116/10 239/116/10
f 241/121/37 243/122/37 231/123/37
f 231/123/37 230/124/37 241/121/37
f 244/125/4 245/126/4 246/125/4
f 244/125/4 247/126/4 245/126/4
f 244/125/4 248/125/4 247/126/4
f 244/125/4 249/127/4 248/125/4
f 244/125/4 250/127/4 249/127/4
f 244/125/4 246/125/4 250/127/4
f 251/128/38 252/129/38 246/125/38
f 251/128/39 246/125/39 245/126/39
f 253/128/5 251/128/5 245/126/5
f 253/128/5 245/126/5 247/126/5
f 254/129/40 253/128/40 247/126/40
f 254/129/41 247/126/41 248/125/41
f 255/130/42 254/129/42 248/125/42
f 255/130/43 248/125/43 249/127/43
f 252/129/44 256/130/44 250/127/44
f 252/129/45 250/127/45 246/125/45
f 257/131/46 258/132/46 259/133/46
f 259/133/47 260/134/47 257/131/47
f 258/132/48 261/135/48 262/136/48
f 262/136/49 259/133/49 258/132/49
f 261/135/50 263/137/50 264/138/50
f 264/138/51 262/136/51 261/135/51
f 263/137/52 265/139/52 266/140/52
f 266/140/53 264/138/53 263/137/53
f 265/139/54 267/137/54 268/138/54
f 268/138/55 266/140/55 265/139/55
f 267/137/56 269/135/56 270/136/56
f 270/136/57 268/138/57 267/137/57
f 269/135/58 271/132/58 272/133/58
f 272/133/59 270/136/59 269/135/59
f 271/132/60 257/131/60 260/134/60
f 260/134/61 272/133/61 271/132/61
f 273/141/62 274/142/62 260/143/62
f 273/141/63 260/143/63 259/144/63
f 275/145/64 273/141/64 259/144/64
f 275/145/65 259/144/65 262/146/65
f 276/147/66 275/145/66 262/146/66
f 276/147/67 262/146/67 264/148/67
f 277/149/68 276/147/68 264/148/68
f 277/149/69 264/148/69 266/150/69
f 278/147/70 277/149/70 266/150/70
f 278/147/71 266/150/71 268/148/71
f 279/145/72 278/147/72 268/148/72
f 279/145/73 268/148/73 270/146/73
f 280/141/74 279/145/74 270/146/74
f 280/141/75 270/146/75 272/144/75
f 274/142/76 280/141/76 272/144/76
f 274/142/77 272/144/77 260/143/77
f 281/151/78 282/152/78 274/142/78
f 281/151/79 274/142/79 273/141/79
f 283/153/80 281/151/80 273/141/80
f 283/153/81 273/141/81 275/145/81
f 284/154/82 283/153/82 275/145/82
f 284/154/83 275/145/83 276/147/83
f 285/155/84 284/154/84 276/147/84
f 285/155/85 276/147/85 277/149/85
f 286/154/86 285/155/86 277/149/86
f 286/154/87 277/149/87 278/147/87
f 287/153/88 286/154/88 278/147/88
f 287/153/89 278/147/89 279/145/89
f 288/151/90 287/153/90 279/145/90
f 288/151/91 279/145/91 280/141/91
f 282/152/92 288/151/92 280/141/92
f 282/152/93 280/141/93 274/142/93
f 289/156/94 290/157/94 282/152/94
f 289/156/95 282/152/95 281/151/95
f 291/158/96 289/156/96 281/151/96
f 291/158/97 281/151/97 283/153/97
f 292/159/98 291/158/98 283/153/98
f 292/159/99 283/153/99 284/154/99
f 293/160/100 292/159/100 284/154/100
f 293/160/101 284/154/101 285/155/101
f 294/159/102 293/160/102 285/155/102
f 294/159/103 285/155/103 286/154/103
f 295/158/104 294/159/104 286/154/104
f 295/158/105 286/154/105 287/153/105
f 296/156/106 295/158/106 287/153/106
f 296/156/107 287/153/107 288/151/107
f 290/157/108 296/156/108 288/151/108
f 290/157/109 288/151/109 282/152/109
f 297/161/110 298/162/110 290/157/110
f 297/161/111 290/157/111 289/156/111
f 299/163/112 297/161/112 289/156/112
f 299/163/113 289/156/113 291/158/113
f 300/164/114 299/163/114 291/158/114
f 300/164/115 291/158/115 292/159/115
f 301/165/116 300/164/116 292/159/116
f 301/165/117 292/159/117 293/160/117
f 302/164/118 301/165/118 293/160/118
f 302/164/119 293/160/119 294/159/119
f 303/163/120 302/164/120 294/159/120
f 303/163/121 294/159/121 295/158/121
f 304/161/122 303/163/122 295/158/122
f 304/161/123 295/158/123 296/156/123
f 298/162/124 304/161/124 296/156/124
f 298/162/125 296/156/125 290/157/125
f 305/166/126 306/167/126 298/162/126
f 305/166/127 298/162/127 297/161/127
f 307/168/128 305/166/128 297/161/128
f 307/168/129 297/161/129 299/163/129
f 308/169/130 307/168/130 299/163/130
f 308/169/131 299/163/131 300/164/131
f 309/170/132 308/169/132 300/164/132
f 309/170/133 300/164/133 301/165/133
f 310/169/134 309/170/134 301/165/134
f 310/169/135 301/165/135 302/164/135
f 311/168/136 310/169/136 302/164/136
f 311/168/137 302/164/137 303/163/137
f 312/166/138 311/168/138 303/163/138
f 312/166/139 303/163/139 304/161/139
f 306/167/140 312/166/140 304/161/140
f 306/167/141 304/161/141 298/162/141
f 313/171/4 314/172/4 315/173/4
f 313/171/4 316/174/4 314/172/4
f 313/171/4 317/175/4 316/174/4
f 313/171/4 318/176/4 317/175/4
f 313/171/4 319/177/4 318/176/4
f 313/171/4 320/178/4 319/177/4
f 313/171/4 321/179/4 320/178/4
f 313/171/4 315/173/4 321/179/4
f 322/180/142 323/181/142 315/182/142
f 322/180/143 315/182/143 314/183/143
f 324/184/144 322/180/144 314/183/144
f 324/184/145 314/183/145 316/185/145
f 325/180/146 324/184/146 316/185/146
f 325/180/147 316/185/147 317/183/147
f 326/181/148 325/180/148 317/183/148
f 326/181/149 317/183/149 318/182/149
f 327/186/150 326/181/150 318/182/150
f 327/186/150 318/182/150 319/187/150
f 328/188/151 327/186/151 319/187/151
f 328/188/152 319/187/152 320/189/152
f 329/186/153 328/188/153 320/189/153
f 329/186/154 320/189/154 321/187/154
f 323/181/155 329/186/155 321/187/155
f 323/181/155 321/187/155 315/182/155
f 330/190/156 331/191/156 323/192/156
f 330/190/156 323/192/156 322/193/156
f 332/194/157 330/190/157 322/193/157
f 332/194/157 322/193/157 324/195/157
f 333/190/158 332/194/158 324/195/158
f 333/190/158 324/195/158 325/193/158
f 334/191/159 333/190/159 325/193/159
f 334/191/159 325/193/159 326/192/159
f 335/196/160 334/191/160 326/192/160
f 335/196/160 326/192/160 327/197/160
f 336/198/161 335/196/161 327/197/161
f 336/198/161 327/197/161 328/199/161
f 337/196/162 336/198/162 328/199/162
f 337/196/162 328/199/162 329/197/162
f 331/191/163 337/196/163 329/197/163
f 331/191/163 329/197/163 323/192/163
