# generated by tools/objdedupe/dedupe.py -- do not hand-edit.
# Re-run the tool after touching azd_1svet.obj, azd_2svet.obj, azd_3svet.obj, azd_4svet.obj, azd_5svet.obj, azd_6svet.obj.
o stozar_3svet_S
v -0.011557 0.710267 -0.128544
vt 0.820000 0.786000
vn -0.970300 -0.241900 -0.000000
v 0.000000 0.663917 0.000000
vt 0.843000 0.681000
v -0.011557 0.710267 0.128544
vt 0.820000 0.583000
v 0.011557 0.710267 -0.128544
vt 0.816000 0.782000
vn 0.970300 -0.241900 -0.000000
v 0.011557 0.710267 0.128544
vt 0.816000 0.579000
vt 0.839000 0.676000
vn -0.000000 -0.000000 1.000000
v 0.011557 0.726892 -0.128544
vt 0.801000 0.782000
vn -0.000000 1.000000 -0.000000
vn -0.000000 -0.000000 -1.000000
v -0.011557 0.726892 0.128544
vt 0.805000 0.583000
v -0.011557 0.726892 -0.128544
vt 0.805000 0.786000
vn -0.000000 -0.940700 -0.339200
vn -0.000000 -0.940700 0.339200
v 0.011557 0.726892 0.128544
vt 0.801000 0.579000
v -0.011557 0.914207 -0.128544
v 0.000000 0.867857 0.000000
v -0.011557 0.914207 0.128544
v 0.011557 0.914207 -0.128544
v 0.011557 0.914207 0.128544
v 0.011557 0.930832 -0.128544
v -0.011557 0.930832 -0.128544
v -0.011557 0.930832 0.128544
v 0.011557 0.930832 0.128544
v -0.011557 2.341726 -0.128544
v 0.000000 2.295376 0.000000
v -0.011557 2.341726 0.128544
v 0.011557 2.341726 -0.128544
v 0.011557 2.341726 0.128544
v 0.011557 2.358350 -0.128544
v -0.011557 2.358350 -0.128544
v -0.011557 2.358350 0.128544
v 0.011557 2.358350 0.128544
v -0.036895 2.570880 0.137876
vt 0.596000 0.885000
vn -1.000000 -0.000000 -0.000000
v -0.036895 2.570880 0.128544
v -0.036895 1.116046 0.128544
vt 0.596000 0.218000
v -0.036895 1.116046 0.137876
vt 0.946000 0.782000
v 0.036895 2.570880 0.128544
vt 0.986000 0.782000
v 0.036895 1.116046 0.128544
vt 0.986000 0.276000
vt 0.946000 0.276000
vt 0.635000 0.885000
vn 1.000000 -0.000000 -0.000000
v 0.036895 2.570880 0.137876
v 0.036895 1.116046 0.137876
vt 0.635000 0.218000
vn -0.000000 -1.000000 -0.000000
v -0.021939 2.360698 0.054693
vt 0.507000 0.340000
vn -0.848900 -0.000000 0.528500
v -0.055991 2.360698 0.000000
vt 0.491000 0.324000
v -0.055991 2.348338 0.000000
vt 0.489000 0.330000
v -0.021939 2.348338 0.054693
vt 0.505000 0.346000
vn -0.848900 -0.000000 -0.528500
v -0.021939 2.360698 -0.054693
vt 0.474000 0.340000
v -0.021939 2.348338 -0.054693
vt 0.472000 0.346000
v -0.084851 2.354518 -0.070081
vt 0.469000 0.311000
vn -0.237600 -0.000000 0.971400
v 0.084851 2.354518 -0.070081
vt 0.469000 0.390000
vn 0.237600 -0.000000 0.971400
v 0.021939 2.360698 -0.054693
vt 0.474000 0.360000
v 0.021939 2.348338 -0.054693
vt 0.472000 0.366000
vn 0.848900 -0.000000 -0.528500
v 0.055991 2.360698 0.000000
vt 0.491000 0.376000
v 0.055991 2.348338 0.000000
vt 0.489000 0.382000
vn 0.848900 -0.000000 0.528500
v 0.021939 2.360698 0.054693
vt 0.507000 0.360000
v 0.021939 2.348338 0.054693
vt 0.505000 0.366000
v 0.084851 2.365889 -0.213333
vt 0.425000 0.390000
vn -0.000000 0.996900 0.079100
v -0.084851 2.365889 -0.213333
vt 0.425000 0.311000
vn -0.000000 0.928000 -0.372700
v 0.058895 2.376704 -0.234654
vt 0.418000 0.378000
vn -0.000000 -0.891800 -0.452400
v -0.058895 2.376704 -0.234654
vt 0.418000 0.323000
vn -0.000000 -0.928000 -0.372700
v -0.011557 2.545542 -0.128544
v 0.000000 2.499192 0.000000
v -0.011557 2.545542 0.128544
v 0.011557 2.545542 -0.128544
v 0.011557 2.545542 0.128544
v 0.011557 2.562228 -0.128544
v -0.011557 2.562228 0.128544
v 0.011557 2.562228 0.128544
v -0.011557 2.562228 -0.128544
v -0.011557 2.137662 -0.128544
v 0.000000 2.091312 0.000000
v -0.011557 2.137662 0.128544
v 0.011557 2.137662 -0.128544
v 0.011557 2.137662 0.128544
v 0.011557 2.154348 -0.128544
v -0.011557 2.154348 0.128544
v 0.011557 2.154348 0.128544
v -0.011557 2.154348 -0.128544
v -0.011557 1.933722 -0.128544
v 0.000000 1.887372 0.000000
v -0.011557 1.933722 0.128544
v 0.011557 1.933722 -0.128544
v 0.011557 1.933722 0.128544
v 0.011557 1.950408 -0.128544
v -0.011557 1.950408 0.128544
v 0.011557 1.950408 0.128544
v -0.011557 1.950408 -0.128544
v -0.011557 1.729782 -0.128544
v 0.000000 1.683432 0.000000
v -0.011557 1.729782 0.128544
v 0.011557 1.729782 -0.128544
v 0.011557 1.729782 0.128544
v 0.011557 1.746468 -0.128544
v -0.011557 1.746468 -0.128544
v -0.011557 1.746468 0.128544
v 0.011557 1.746468 0.128544
v -0.011557 1.525842 -0.128544
v 0.000000 1.479492 0.000000
v -0.011557 1.525842 0.128544
v 0.011557 1.525842 -0.128544
v 0.011557 1.525842 0.128544
v 0.011557 1.542528 -0.128544
v -0.011557 1.542528 -0.128544
v -0.011557 1.542528 0.128544
v 0.011557 1.542528 0.128544
v -0.011557 0.506142 -0.128544
v 0.000000 0.459792 0.000000
v -0.011557 0.506142 0.128544
v 0.011557 0.506142 -0.128544
v 0.011557 0.506142 0.128544
v 0.011557 0.522828 -0.128544
v -0.011557 0.522828 -0.128544
v -0.011557 0.522828 0.128544
v 0.011557 0.522828 0.128544
v -0.011557 1.321902 -0.128544
v 0.000000 1.275552 0.000000
v -0.011557 1.321902 0.128544
v 0.011557 1.321902 -0.128544
v 0.011557 1.321902 0.128544
v 0.011557 1.338588 -0.128544
v -0.011557 1.338588 0.128544
v 0.011557 1.338588 0.128544
v -0.011557 1.338588 -0.128544
v -0.011557 1.117962 -0.128544
v 0.000000 1.071612 0.000000
v -0.011557 1.117962 0.128544
v 0.011557 1.117962 -0.128544
v 0.011557 1.117962 0.128544
v 0.011557 1.134648 -0.128544
v -0.011557 1.134648 0.128544
v 0.011557 1.134648 0.128544
v -0.011557 1.134648 -0.128544
v -0.011557 3.157362 -0.128543
v 0.000000 3.111012 0.000000
v -0.011557 3.157362 0.128544
v 0.011557 3.157362 -0.128543
v 0.011557 3.157362 0.128544
v -0.011557 3.174048 0.128544
v 0.011557 3.174048 -0.128543
v -0.011557 3.174048 -0.128543
v 0.011557 3.174048 0.128544
v -0.011557 2.953422 -0.128544
v 0.000000 2.907072 0.000000
v -0.011557 2.953422 0.128544
v 0.011557 2.953422 -0.128544
v 0.011557 2.953422 0.128544
v 0.011557 2.970108 -0.128544
v -0.011557 2.970108 -0.128544
v -0.011557 2.970108 0.128544
v 0.011557 2.970108 0.128544
v -0.011557 2.749482 -0.128544
v 0.000000 2.703132 0.000000
v -0.011557 2.749482 0.128544
v 0.011557 2.749482 -0.128544
v 0.011557 2.749482 0.128544
v 0.011557 2.766168 -0.128544
v -0.011557 2.766168 0.128544
v -0.011557 2.766168 -0.128544
v 0.011557 2.766168 0.128544
v 0.077435 0.251032 0.000000
vt 0.822000 0.207000
v -0.077435 0.251032 0.106049
vt 0.640000 0.012000
v 0.077435 0.251032 0.106049
vt 0.822000 0.012000
v -0.077435 0.251032 0.000000
vt 0.640000 0.207000
v -0.077435 0.251032 -0.106049
v 0.077435 0.251032 -0.106049
vt 0.011000 0.236000
v -0.077435 0.063592 0.106049
vt 0.203000 0.123000
vt 0.205000 0.232000
v -0.077435 0.063592 -0.106049
vt 0.011000 0.125000
v 0.077435 0.063592 -0.106049
v 0.077435 0.063592 0.106049
v -0.053395 0.288050 0.025709
vt 0.134000 0.259000
vn -0.581400 0.813600 -0.000000
v -0.053395 0.288050 -0.025709
vt 0.086000 0.259000
v -0.077435 0.270869 -0.025709
vt 0.086000 0.249000
v -0.077435 0.270869 0.025709
vt 0.134000 0.249000
vt 0.810000 0.991000
v 0.053395 0.288050 -0.025709
vt 0.904000 0.991000
v 0.077435 0.270869 -0.025709
vt 0.912000 0.979000
vt 0.801000 0.979000
vt 0.086000 0.256000
vn 0.581400 0.813600 -0.000000
v 0.053395 0.288050 0.025709
vt 0.134000 0.257000
v 0.077435 0.270869 0.025709
v -0.052654 0.071317 0.093689
vt 0.644000 0.092000
v -0.052654 0.071317 -0.093689
vt 0.635000 0.092000
v -0.052654 0.024535 -0.076138
vt 0.635000 0.057000
v -0.052654 0.024535 0.076138
vt 0.644000 0.057000
vn -0.000000 -0.351300 -0.936300
v 0.052654 0.071317 -0.093689
vt 0.823000 0.092000
v 0.052654 0.024535 -0.076138
vt 0.823000 0.057000
v 0.052654 0.071317 0.093689
vt 0.814000 0.092000
v 0.052654 0.024535 0.076138
vt 0.814000 0.057000
vn -0.000000 -0.351300 0.936300
v -0.077435 0.023360 -0.025709
vt 0.082000 0.088000
v -0.077435 0.023360 0.025709
vt 0.130000 0.088000
v 0.077435 0.023360 -0.025709
vt 0.912000 0.852000
vt 0.801000 0.852000
v 0.077435 0.023360 0.025709
vt 0.927000 0.960000
vt 0.801000 0.960000
vt 0.801000 0.791000
vt 0.927000 0.791000
vt 0.507000 0.305000
vt 0.507000 0.210000
vt 0.417000 0.210000
vt 0.417000 0.305000
v -0.088250 0.024720 0.076756
vt 0.592000 0.043000
v -0.088250 0.024720 -0.076756
vt 0.443000 0.043000
v -0.088250 0.012360 -0.076756
v -0.088250 0.012360 0.076756
v 0.088250 0.024720 -0.076756
vt 0.443000 0.162000
v 0.088250 0.012360 -0.076756
v 0.088250 0.024720 0.076756
vt 0.592000 0.162000
v 0.088250 0.012360 0.076756
v -0.109571 0.012360 0.134291
vt 0.621000 0.003000
v -0.109571 0.012360 -0.134291
vt 0.420000 0.003000
v -0.109571 0.000000 -0.134291
v -0.109571 -0.000000 0.134291
v 0.109571 0.012360 -0.134291
vt 0.420000 0.205000
v 0.109571 0.000000 -0.134291
v 0.109571 0.012360 0.134291
vt 0.621000 0.205000
v 0.109571 -0.000000 0.134291
v 0.000000 3.586316 0.271859
vt 0.201000 0.029000
v 0.000000 3.586316 0.233543
vt 0.231000 0.029000
v 0.000000 3.552882 0.233543
vt 0.231000 0.007000
v 0.000000 3.552882 0.271859
vt 0.201000 0.007000
v 0.021568 2.900954 -0.055681
vt 0.035000 0.064000
vn 0.523300 -0.000000 -0.852100
v 0.048637 2.900954 -0.039057
vt 0.022000 0.061000
v 0.048637 2.781927 -0.039057
vt 0.022000 0.016000
v 0.021568 2.781927 -0.055681
vt 0.035000 0.019000
vn 0.817300 -0.000000 -0.576300
v 0.062233 2.900954 -0.019776
vt 0.008000 0.057000
v 0.062233 2.781927 -0.019776
vt 0.008000 0.012000
vt 0.917000 0.457000
vn 0.995200 -0.000000 0.098300
v 0.055558 2.900954 0.047772
vt 0.908000 0.492000
v 0.055558 2.781927 0.047772
vt 0.849000 0.475000
vt 0.857000 0.442000
vt 0.911000 0.473000
v -0.055620 2.900954 0.047772
vt 0.902000 0.496000
v -0.055620 2.781927 0.047772
vt 0.836000 0.473000
vt 0.845000 0.449000
vn -0.995200 -0.000000 0.098300
v -0.062294 2.900954 -0.019776
v -0.062294 2.781927 -0.019776
vt 0.075000 0.057000
vn -0.817300 -0.000000 -0.576300
v -0.048698 2.900954 -0.039057
vt 0.062000 0.061000
v -0.048698 2.781927 -0.039057
vt 0.062000 0.016000
vt 0.075000 0.012000
vn -0.523300 -0.000000 -0.852100
v -0.021630 2.900954 -0.055681
vt 0.048000 0.064000
v -0.021630 2.781927 -0.055681
vt 0.048000 0.019000
vt 0.918000 0.452000
vt 0.920000 0.447000
vt 0.859000 0.436000
vt 0.860000 0.431000
v 0.024473 2.898235 0.026513
vt 0.907000 0.487000
vn 0.964700 -0.246800 0.092100
v 0.024473 2.987103 0.264504
vt 0.908000 0.680000
v 0.006736 2.917763 0.264504
vt 0.864000 0.670000
vn 0.985000 -0.150000 0.085700
v 0.006736 2.781741 0.026513
vt 0.842000 0.468000
v 0.039799 2.987103 0.264504
v 0.039799 2.917763 0.264504
v 0.039799 2.987103 0.330198
vt 0.903000 0.708000
v 0.039799 2.917763 0.330198
vt 0.858000 0.698000
v -0.039861 2.987103 0.330198
v -0.039861 2.987103 0.264504
v -0.039861 2.917763 0.264504
v -0.039861 2.917763 0.330198
v -0.024596 2.987103 0.264504
v -0.006798 2.917763 0.264504
vn -0.987000 -0.150800 0.056300
v -0.024596 2.898235 0.026513
v -0.006798 2.781741 0.026513
vn -0.959000 -0.246200 0.140700
vt 0.908000 0.669000
vn -0.000000 0.936800 -0.349800
vt 0.892000 0.669000
vt 0.890000 0.516000
vt 0.906000 0.516000
vt 0.860000 0.663000
vn -0.000000 -0.868200 0.496200
vt 0.838000 0.499000
vt 0.844000 0.499000
vt 0.867000 0.662000
v 0.000000 3.644655 0.295096
vt 0.188000 0.050000
v -0.013596 3.644655 0.271550
vt 0.197000 0.050000
v -0.027192 3.644655 0.295096
v 0.013534 3.644655 0.271550
v 0.027130 3.644655 0.295096
v 0.013534 3.644655 0.318641
vt 0.179000 0.050000
v -0.013596 3.644655 0.318641
v -0.013596 3.537061 0.271550
vt 0.197000 0.008000
vn -0.866000 -0.000000 -0.500100
v -0.027192 3.537061 0.295096
vt 0.188000 0.008000
v 0.013534 3.537061 0.271550
v 0.027130 3.537061 0.295096
vn 0.866000 -0.000000 -0.500100
v 0.013534 3.537061 0.318641
vt 0.179000 0.008000
vn 0.866000 -0.000000 0.500000
vn 0.866000 -0.000000 0.500100
vn -0.866000 -0.000000 0.500000
v -0.013596 3.537061 0.318641
vn -0.866000 -0.000000 0.500100
v 0.000000 3.628772 0.289348
vt 0.190000 0.043000
vn 0.380400 0.924800 -0.003500
v 0.015326 3.622468 0.289348
vt 0.190000 0.040000
v 0.015326 3.622221 0.223778
vt 0.233000 0.040000
vn 0.380500 0.924800 -0.003500
v 0.000000 3.628525 0.223099
vt 0.234000 0.042000
vn 0.923700 0.383000 -0.001500
v 0.021630 3.607266 0.289348
vt 0.190000 0.036000
v 0.021630 3.607019 0.225447
vt 0.233000 0.036000
vn 0.923800 0.382900 -0.001400
vn 0.922400 -0.386200 0.001500
v 0.015265 3.592063 0.289348
vt 0.190000 0.032000
v 0.015265 3.591816 0.227116
vt 0.233000 0.032000
vn 0.922500 -0.386100 0.001500
vn 0.381700 -0.924300 0.003700
v 0.000000 3.585759 0.289348
vt 0.190000 0.029000
v 0.000000 3.585512 0.227795
vt 0.233000 0.029000
vn 0.381800 -0.924200 0.003700
vn -0.381700 -0.924300 0.003700
v -0.015265 3.592063 0.289348
v -0.015265 3.591816 0.227116
vn -0.381900 -0.924200 0.003700
vn -0.923800 -0.383000 0.001500
v -0.021568 3.607266 0.289348
v -0.021568 3.607019 0.225447
vn -0.923800 -0.382900 0.001500
vn -0.922400 0.386200 -0.001500
v -0.015203 3.622468 0.289348
v -0.015203 3.622221 0.223778
vn -0.922500 0.386100 -0.001500
vn -0.383000 0.923700 -0.003400
vn -0.383100 0.923700 -0.003500
v 0.015326 3.589591 0.106111
vt 0.888000 0.270000
vn 0.383200 0.890300 -0.246100
v 0.000000 3.595709 0.104381
vt 0.875000 0.270000
vt 0.875000 0.428000
vn 0.377900 0.892200 -0.247400
vt 0.888000 0.428000
v 0.021630 3.574883 0.110314
vt 0.901000 0.270000
vn 0.924600 0.367100 -0.101800
vn 0.922700 0.371200 -0.103600
vt 0.901000 0.428000
v 0.015265 3.560174 0.114454
vt 0.915000 0.270000
vn 0.923100 -0.370400 0.103400
vn 0.921400 -0.374200 0.105100
vt 0.915000 0.428000
v 0.000000 3.554118 0.116185
vt 0.928000 0.270000
vn 0.381500 -0.890000 0.249900
vn 0.379000 -0.890800 0.250600
vt 0.928000 0.428000
v -0.015265 3.560174 0.114454
vn -0.381500 -0.889800 0.250300
vn -0.379000 -0.890900 0.250200
v -0.021568 3.574945 0.110314
vn -0.924900 -0.365900 0.102800
vn -0.922800 -0.371200 0.103400
v -0.015203 3.589653 0.106111
vn -0.923200 0.370100 -0.103100
vn -0.921400 0.374400 -0.103600
vn -0.382700 0.890400 -0.246400
vn -0.380600 0.891300 -0.246400
v 0.015265 3.562647 0.051789
vt 0.888000 0.218000
vn 0.377100 0.829500 -0.412000
v 0.000000 3.567714 0.048019
vt 0.875000 0.218000
vn 0.377600 0.829400 -0.411800
v 0.021630 3.550472 0.061059
vt 0.901000 0.218000
vn 0.920800 0.348900 -0.174100
vn 0.922300 0.346200 -0.171600
v 0.015265 3.538235 0.070267
vt 0.915000 0.218000
vn 0.921000 -0.349000 0.173000
vn 0.920700 -0.349600 0.173600
v 0.000000 3.533230 0.074037
vt 0.928000 0.218000
vn 0.374200 -0.830600 0.412400
vn 0.376100 -0.830200 0.411500
v -0.015265 3.538235 0.070267
vn -0.374200 -0.830900 0.411800
vn -0.376000 -0.830000 0.412100
v -0.021568 3.550472 0.061059
vn -0.922400 -0.345900 0.171700
vn -0.922500 -0.345600 0.171700
v -0.015265 3.562647 0.051789
vn -0.922200 0.346400 -0.172100
vn -0.921000 0.349300 -0.172600
vn -0.377100 0.829500 -0.412000
vn -0.377300 0.829400 -0.412000
v 0.015265 3.508139 0.002102
vt 0.888000 0.165000
vn 0.375100 0.624300 -0.685300
v 0.000000 3.511476 -0.003213
vt 0.875000 0.165000
vn 0.376300 0.624200 -0.684700
v 0.021568 3.500105 0.015142
vt 0.901000 0.165000
vn 0.922400 0.260300 -0.285500
vn 0.921000 0.261900 -0.288500
v 0.015265 3.492071 0.028120
vt 0.915000 0.165000
vn 0.921900 -0.261700 0.285800
vn 0.921000 -0.262600 0.287700
v 0.000000 3.488734 0.033496
vt 0.928000 0.165000
vn 0.377400 -0.624400 0.683900
vn 0.374100 -0.624600 0.685500
v -0.015265 3.492071 0.028120
vn -0.377500 -0.623700 0.684500
vn -0.374100 -0.625300 0.684900
v -0.021630 3.500105 0.015142
vn -0.920600 -0.263400 0.288500
vn -0.922300 -0.259800 0.286200
v -0.015265 3.508201 0.002102
vn -0.921300 0.262500 -0.286700
vn -0.922400 0.260400 -0.285300
vn -0.372800 0.625500 -0.685400
vn -0.376300 0.624000 -0.684900
v 0.015265 3.448502 -0.011989
vt 0.888000 0.112000
vn 0.380600 0.217500 -0.898800
v 0.000000 3.449676 -0.018169
vt 0.875000 0.112000
vn 0.362600 0.214300 -0.907000
v 0.021568 3.445659 0.003029
vt 0.901000 0.112000
vn 0.924300 0.087700 -0.371400
vn 0.916800 0.086700 -0.389800
v 0.015265 3.442878 0.018046
vt 0.915000 0.112000
vn 0.924300 -0.082900 0.372600
vn 0.915300 -0.080800 0.394600
v 0.000000 3.441704 0.024288
vt 0.928000 0.112000
vn 0.384100 -0.185200 0.904500
vn 0.361500 -0.179200 0.915000
v -0.015265 3.442878 0.018046
vn -0.384100 -0.177400 0.906100
vn -0.362500 -0.187000 0.913000
v -0.021630 3.445721 0.003029
vn -0.923100 -0.077100 0.376700
vn -0.914800 -0.087800 0.394300
v -0.015265 3.448502 -0.011989
vn -0.922900 0.083700 -0.375700
vn -0.916200 0.092100 -0.390100
vn -0.380700 0.212400 -0.900000
vn -0.362400 0.219200 -0.905900
v 0.015203 3.294682 -0.011989
vt 0.888000 0.007000
vn 0.376600 -0.000000 -0.926400
v 0.000000 3.294682 -0.018169
vt 0.875000 0.007000
vn 0.375300 -0.000200 -0.926900
v 0.021568 3.294682 0.003029
vt 0.901000 0.007000
vn 0.920700 -0.000400 -0.390300
vn 0.922100 -0.000000 -0.387000
v 0.015203 3.294682 0.018046
vt 0.915000 0.007000
vn 0.920700 -0.000000 0.390300
vn 0.922100 -0.000400 0.387000
v 0.000000 3.294682 0.024288
vt 0.928000 0.007000
vn 0.379800 -0.000200 0.925100
vn 0.378500 -0.000000 0.925600
v -0.015326 3.294682 0.018046
vn -0.377200 -0.000000 0.926100
vn -0.378500 0.000200 0.925600
v -0.021630 3.294682 0.003029
vn -0.922100 0.000400 0.387000
vn -0.920700 -0.000000 0.390300
v -0.015326 3.294682 -0.011989
vn -0.922100 -0.000000 -0.387000
vn -0.920700 0.000400 -0.390200
vn -0.374000 0.000200 -0.927400
vn -0.375300 -0.000000 -0.926900
v 0.000000 3.300800 0.000001
vt 0.103000 0.044000
v -0.036091 3.300800 -0.036152
vt 0.093000 0.052000
v -0.051047 3.300800 0.000001
vt 0.102000 0.055000
v 0.000000 3.300800 -0.051108
vt 0.091000 0.043000
v 0.036029 3.300800 -0.036152
vt 0.095000 0.036000
v 0.050985 3.300800 0.000001
vt 0.102000 0.033000
v 0.036029 3.300800 0.035968
vt 0.110000 0.037000
v 0.000000 3.300800 0.050924
vt 0.112000 0.044000
v -0.036091 3.300800 0.035968
vt 0.109000 0.052000
v -0.030591 3.211375 -0.030652
vt 0.103000 0.009000
vn -0.921200 -0.080200 -0.380700
v -0.043260 3.211375 0.000001
vt 0.126000 0.010000
vt 0.126000 0.060000
vn -0.921100 -0.080100 -0.381000
vt 0.099000 0.059000
v 0.000000 3.211375 -0.043321
vt 0.094000 0.007000
vn -0.381400 -0.080100 -0.920900
vn -0.381600 -0.080200 -0.920800
vt 0.088000 0.057000
v 0.030529 3.211375 -0.030652
vn 0.382100 -0.080200 -0.920700
vn 0.382100 -0.080100 -0.920600
v 0.043198 3.211375 0.000001
vn 0.921200 -0.080100 -0.380700
vn 0.921100 -0.080200 -0.381000
v 0.030529 3.211375 0.030468
vt 0.149000 0.009000
vn 0.920400 -0.080100 0.382700
vt 0.154000 0.059000
v 0.000000 3.211375 0.043137
vt 0.159000 0.007000
vn 0.382100 -0.080100 0.920700
vn 0.382100 -0.080200 0.920600
vt 0.165000 0.057000
v -0.030591 3.211375 0.030468
vn -0.381400 -0.080200 0.920900
vn -0.381600 -0.080100 0.920900
vn -0.920400 -0.080100 0.382700
v -0.030591 0.247200 -0.030653
vt 0.946000 0.006000
vn -0.924200 -0.000000 -0.382000
v -0.043260 0.247200 0.000000
vt 0.965000 0.006000
vt 0.965000 0.996000
vt 0.946000 0.996000
v 0.000000 0.247200 -0.043322
vt 0.938000 0.006000
vn -0.382600 -0.000000 -0.923900
vt 0.938000 0.996000
v 0.030529 0.247200 -0.030653
vn 0.383300 -0.000000 -0.923600
v 0.043198 0.247200 0.000000
vn 0.924200 -0.000000 -0.382000
v 0.030529 0.247200 0.030467
vt 0.985000 0.006000
vn 0.923400 -0.000000 0.384000
vt 0.985000 0.996000
v 0.000000 0.247200 0.043136
vt 0.993000 0.006000
vn 0.383300 -0.000000 0.923600
vt 0.993000 0.996000
v -0.030591 0.247200 0.030467
vn -0.382600 -0.000000 0.923900
vn -0.923400 -0.000000 0.384000
f 1/1/1 2/2/1 3/3/1
f 4/4/2 5/5/2 2/6/2
f 1/1/3 4/4/3 6/7/3
f 1/1/4 3/3/4 4/4/4
f 3/3/4 5/5/4 4/4/4
f 5/5/5 3/3/5 7/8/5
f 1/1/5 8/9/5 6/7/5
f 1/1/6 4/4/6 2/2/6
f 2/6/7 5/5/7 3/3/7
f 5/5/3 9/10/3 7/8/3
f 10/1/1 11/2/1 12/3/1
f 13/4/2 14/5/2 11/6/2
f 15/7/3 16/9/3 10/1/3
f 10/1/3 13/4/3 15/7/3
f 13/4/4 10/1/4 12/3/4
f 12/3/4 14/5/4 13/4/4
f 17/8/5 18/10/5 14/5/5
f 11/2/6 10/1/6 13/4/6
f 11/6/7 14/5/7 12/3/7
f 17/8/3 12/3/3 14/5/3
f 19/1/1 20/2/1 21/3/1
f 22/4/2 23/5/2 20/6/2
f 24/7/3 25/9/3 19/1/3
f 19/1/3 22/4/3 24/7/3
f 22/4/4 19/1/4 21/3/4
f 21/3/4 23/5/4 22/4/4
f 23/5/5 21/3/5 26/8/5
f 26/8/5 27/10/5 23/5/5
f 20/2/6 19/1/6 22/4/6
f 20/6/7 23/5/7 21/3/7
f 28/11/8 29/11/8 30/12/8
f 30/12/8 31/12/8 28/11/8
f 29/13/5 32/14/5 33/15/5
f 33/15/5 30/16/5 29/13/5
f 32/17/9 34/17/9 35/18/9
f 35/18/9 33/18/9 32/17/9
f 34/17/3 28/11/3 31/12/3
f 31/12/3 35/18/3 34/17/3
f 32/17/4 29/11/4 28/11/4
f 28/11/4 34/17/4 32/17/4
f 33/18/10 35/18/10 31/12/10
f 31/12/10 30/12/10 33/18/10
f 36/19/11 37/20/11 38/21/11
f 38/21/11 39/22/11 36/19/11
f 37/20/12 40/23/12 41/24/12
f 41/24/12 38/21/12 37/20/12
f 42/25/13 41/24/13 40/23/13
f 43/26/14 44/27/14 45/28/14
f 44/27/15 46/29/15 47/30/15
f 47/30/15 45/28/15 44/27/15
f 46/29/16 48/31/16 49/32/16
f 49/32/16 47/30/16 46/29/16
f 48/31/3 36/19/3 39/22/3
f 39/22/3 49/32/3 48/31/3
f 50/33/17 51/34/17 42/25/17
f 42/25/17 43/26/17 50/33/17
f 43/26/18 42/25/18 40/23/18
f 40/23/18 44/27/18 43/26/18
f 44/27/4 40/23/4 37/20/4
f 37/20/4 46/29/4 44/27/4
f 46/29/4 37/20/4 36/19/4
f 36/19/4 48/31/4 46/29/4
f 52/35/19 50/33/19 51/34/19
f 51/34/19 53/36/19 52/35/19
f 43/26/20 45/28/20 41/24/20
f 41/24/20 42/25/20 43/26/20
f 45/28/10 47/30/10 38/21/10
f 38/21/10 41/24/10 45/28/10
f 47/30/10 49/32/10 39/22/10
f 39/22/10 38/21/10 47/30/10
f 54/1/1 55/2/1 56/3/1
f 57/4/2 58/5/2 55/6/2
f 54/1/3 57/4/3 59/7/3
f 57/4/4 54/1/4 56/3/4
f 56/3/4 58/5/4 57/4/4
f 58/5/5 56/3/5 60/8/5
f 60/8/5 61/10/5 58/5/5
f 54/1/5 62/9/5 59/7/5
f 55/2/6 54/1/6 57/4/6
f 55/6/7 58/5/7 56/3/7
f 63/1/1 64/2/1 65/3/1
f 66/4/2 67/5/2 64/6/2
f 63/1/3 66/4/3 68/7/3
f 66/4/4 63/1/4 65/3/4
f 65/3/4 67/5/4 66/4/4
f 67/5/5 65/3/5 69/8/5
f 69/8/5 70/10/5 67/5/5
f 63/1/5 71/9/5 68/7/5
f 64/2/6 63/1/6 66/4/6
f 64/6/7 67/5/7 65/3/7
f 72/1/1 73/2/1 74/3/1
f 75/4/2 76/5/2 73/6/2
f 72/1/3 75/4/3 77/7/3
f 75/4/4 72/1/4 74/3/4
f 74/3/4 76/5/4 75/4/4
f 76/5/5 74/3/5 78/8/5
f 78/8/5 79/10/5 76/5/5
f 72/1/5 80/9/5 77/7/5
f 73/2/6 72/1/6 75/4/6
f 73/6/7 76/5/7 74/3/7
f 81/1/1 82/2/1 83/3/1
f 84/4/2 85/5/2 82/6/2
f 86/7/3 87/9/3 81/1/3
f 81/1/3 84/4/3 86/7/3
f 84/4/4 81/1/4 83/3/4
f 83/3/4 85/5/4 84/4/4
f 85/5/5 83/3/5 88/8/5
f 88/8/5 89/10/5 85/5/5
f 82/2/6 81/1/6 84/4/6
f 82/6/7 85/5/7 83/3/7
f 90/1/1 91/2/1 92/3/1
f 93/4/2 94/5/2 91/6/2
f 95/7/3 96/9/3 90/1/3
f 90/1/3 93/4/3 95/7/3
f 93/4/4 90/1/4 92/3/4
f 92/3/4 94/5/4 93/4/4
f 94/5/5 92/3/5 97/8/5
f 97/8/5 98/10/5 94/5/5
f 91/2/6 90/1/6 93/4/6
f 91/6/7 94/5/7 92/3/7
f 99/1/1 100/2/1 101/3/1
f 102/4/2 103/5/2 100/6/2
f 104/7/3 105/9/3 99/1/3
f 99/1/3 102/4/3 104/7/3
f 102/4/4 99/1/4 101/3/4
f 101/3/4 103/5/4 102/4/4
f 103/5/5 101/3/5 106/8/5
f 100/2/6 99/1/6 102/4/6
f 100/6/7 103/5/7 101/3/7
f 103/5/3 107/10/3 106/8/3
f 108/1/1 109/2/1 110/3/1
f 111/4/2 112/5/2 109/6/2
f 108/1/3 111/4/3 113/7/3
f 111/4/4 108/1/4 110/3/4
f 110/3/4 112/5/4 111/4/4
f 112/5/5 110/3/5 114/8/5
f 114/8/5 115/10/5 112/5/5
f 108/1/5 116/9/5 113/7/5
f 109/2/6 108/1/6 111/4/6
f 109/6/7 112/5/7 110/3/7
f 117/1/1 118/2/1 119/3/1
f 120/4/2 121/5/2 118/6/2
f 117/1/3 120/4/3 122/7/3
f 120/4/4 117/1/4 119/3/4
f 119/3/4 121/5/4 120/4/4
f 121/5/5 119/3/5 123/8/5
f 123/8/5 124/10/5 121/5/5
f 117/1/5 125/9/5 122/7/5
f 118/2/6 117/1/6 120/4/6
f 118/6/7 121/5/7 119/3/7
f 126/1/1 127/2/1 128/3/1
f 129/4/2 130/5/2 127/6/2
f 129/4/4 126/1/4 128/3/4
f 128/3/4 130/5/4 129/4/4
f 130/5/5 128/3/5 131/8/5
f 132/7/5 129/4/5 126/1/5
f 126/1/5 133/9/5 132/7/5
f 127/2/6 126/1/6 129/4/6
f 127/6/7 130/5/7 128/3/7
f 130/5/3 134/10/3 131/8/3
f 135/1/1 136/2/1 137/3/1
f 138/4/2 139/5/2 136/6/2
f 140/7/3 141/9/3 135/1/3
f 135/1/3 138/4/3 140/7/3
f 138/4/4 135/1/4 137/3/4
f 137/3/4 139/5/4 138/4/4
f 139/5/5 137/3/5 142/8/5
f 136/2/6 135/1/6 138/4/6
f 136/6/7 139/5/7 137/3/7
f 139/5/3 143/10/3 142/8/3
f 144/1/1 145/2/1 146/3/1
f 147/4/2 148/5/2 145/6/2
f 144/1/3 147/4/3 149/7/3
f 147/4/4 144/1/4 146/3/4
f 146/3/4 148/5/4 147/4/4
f 148/5/5 146/3/5 150/8/5
f 144/1/5 151/9/5 149/7/5
f 145/2/6 144/1/6 147/4/6
f 145/6/7 148/5/7 146/3/7
f 148/5/3 152/10/3 150/8/3
f 153/37/4 154/38/4 155/39/4
f 153/37/4 156/40/4 154/38/4
f 157/38/4 153/37/4 158/39/4
f 157/38/4 156/40/4 153/37/4
f 157/41/8 159/42/8 154/43/8
f 157/41/8 160/44/8 159/42/8
f 161/44/9 155/43/9 162/42/9
f 161/44/9 158/41/9 155/43/9
f 163/45/21 164/46/21 165/47/21
f 165/47/21 166/48/21 163/45/21
f 164/49/5 167/50/5 168/51/5
f 168/51/5 165/52/5 164/49/5
f 167/53/22 169/54/22 170/48/22
f 170/48/22 168/47/22 167/53/22
f 169/50/3 163/49/3 166/52/3
f 166/52/3 170/51/3 169/50/3
f 171/55/8 172/56/8 173/57/8
f 173/57/8 174/58/8 171/55/8
f 172/56/23 175/59/23 176/60/23
f 176/60/23 173/57/23 172/56/23
f 175/59/9 177/61/9 178/62/9
f 178/62/9 176/60/9 175/59/9
f 177/61/24 171/55/24 174/58/24
f 174/58/24 178/62/24 177/61/24
f 166/48/8 165/47/8 179/63/8
f 179/63/8 180/64/8 166/48/8
f 165/52/5 168/51/5 181/65/5
f 181/65/5 179/66/5 165/52/5
f 168/47/9 170/48/9 182/64/9
f 182/64/9 181/63/9 168/47/9
f 170/51/3 166/52/3 180/66/3
f 180/66/3 182/65/3 170/51/3
f 167/53/4 164/46/4 163/45/4
f 163/45/4 169/54/4 167/53/4
f 157/67/5 158/68/5 161/69/5
f 161/69/5 160/70/5 157/67/5
f 155/67/3 154/68/3 159/69/3
f 159/69/3 162/70/3 155/67/3
f 161/71/10 162/72/10 159/73/10
f 159/73/10 160/74/10 161/71/10
f 183/75/8 184/76/8 185/76/8
f 185/76/8 186/75/8 183/75/8
f 184/76/5 187/77/5 188/77/5
f 188/77/5 185/76/5 184/76/5
f 187/77/9 189/78/9 190/78/9
f 190/78/9 188/77/9 187/77/9
f 189/78/3 183/75/3 186/75/3
f 186/75/3 190/78/3 189/78/3
f 187/77/4 184/76/4 183/75/4
f 183/75/4 189/78/4 187/77/4
f 191/79/8 192/80/8 193/80/8
f 193/80/8 194/79/8 191/79/8
f 192/80/5 195/81/5 196/81/5
f 196/81/5 193/80/5 192/80/5
f 195/81/9 197/82/9 198/82/9
f 198/82/9 196/81/9 195/81/9
f 197/82/3 191/79/3 194/79/3
f 194/79/3 198/82/3 197/82/3
f 195/81/4 192/80/4 191/79/4
f 191/79/4 197/82/4 195/81/4
f 199/83/8 200/84/8 201/85/8
f 201/85/8 202/86/8 199/83/8
f 200/84/9 199/83/9 202/86/9
f 202/86/9 201/85/9 200/84/9
f 203/87/25 204/88/25 205/89/25
f 205/89/25 206/90/25 203/87/25
f 204/88/26 207/91/26 208/92/26
f 208/92/26 205/89/26 204/88/26
f 207/93/27 209/94/27 210/95/27
f 210/95/27 208/96/27 207/93/27
f 209/97/3 211/98/3 212/99/3
f 212/99/3 210/100/3 209/97/3
f 211/94/28 213/93/28 214/96/28
f 214/96/28 212/95/28 211/94/28
f 213/101/29 215/102/29 216/103/29
f 216/103/29 214/104/29 213/101/29
f 215/102/30 217/105/30 218/106/30
f 218/106/30 216/103/30 215/102/30
f 217/105/5 203/87/5 206/90/5
f 206/90/5 218/106/5 217/105/5
f 211/94/4 209/94/4 207/93/4
f 207/93/4 213/93/4 211/94/4
f 213/93/4 207/93/4 204/107/4
f 204/107/4 215/107/4 213/93/4
f 215/107/4 204/107/4 203/108/4
f 203/108/4 217/108/4 215/107/4
f 212/95/10 214/96/10 208/96/10
f 208/96/10 210/95/10 212/95/10
f 214/96/10 216/109/10 205/109/10
f 205/109/10 208/96/10 214/96/10
f 216/109/10 218/110/10 206/110/10
f 206/110/10 205/109/10 216/109/10
f 219/111/31 220/112/31 221/113/31
f 221/113/32 222/114/32 219/111/32
f 220/112/5 223/112/5 224/113/5
f 224/113/5 221/113/5 220/112/5
f 223/112/9 225/115/9 226/116/9
f 226/116/9 224/113/9 223/112/9
f 227/115/8 228/112/8 229/113/8
f 229/113/8 230/116/8 227/115/8
f 228/112/5 231/112/5 232/113/5
f 232/113/5 229/113/5 228/112/5
f 231/112/33 233/111/33 234/114/33
f 234/114/34 232/113/34 231/112/34
f 231/117/35 220/118/35 219/119/35
f 219/119/35 233/120/35 231/117/35
f 230/116/10 229/113/10 224/113/10
f 224/113/10 226/116/10 230/116/10
f 232/121/36 234/122/36 222/123/36
f 222/123/36 221/124/36 232/121/36
f 235/125/4 236/126/4 237/125/4
f 235/125/4 238/126/4 236/126/4
f 235/125/4 239/125/4 238/126/4
f 235/125/4 240/127/4 239/125/4
f 235/125/4 241/127/4 240/127/4
f 235/125/4 237/125/4 241/127/4
f 242/128/37 243/129/37 237/125/37
f 242/128/37 237/125/37 236/126/37
f 244/128/5 242/128/5 236/126/5
f 244/128/5 236/126/5 238/126/5
f 245/129/38 244/128/38 238/126/38
f 245/129/38 238/126/38 239/125/38
f 246/130/39 245/129/39 239/125/39
f 246/130/40 239/125/40 240/127/40
f 243/129/41 247/130/41 241/127/41
f 243/129/42 241/127/42 237/125/42
f 248/131/43 249/132/43 250/133/43
f 250/133/44 251/134/44 248/131/44
f 249/132/45 252/135/45 253/136/45
f 253/136/46 250/133/46 249/132/46
f 252/135/47 254/137/47 255/138/47
f 255/138/48 253/136/48 252/135/48
f 254/137/49 256/139/49 257/140/49
f 257/140/50 255/138/50 254/137/50
f 256/139/51 258/137/51 259/138/51
f 259/138/52 257/140/52 256/139/52
f 258/137/53 260/135/53 261/136/53
f 261/136/54 259/138/54 258/137/54
f 260/135/55 262/132/55 263/133/55
f 263/133/56 261/136/56 260/135/56
f 262/132/57 248/131/57 251/134/57
f 251/134/58 263/133/58 262/132/58
f 264/141/59 265/142/59 251/143/59
f 264/141/60 251/143/60 250/144/60
f 266/145/61 264/141/61 250/144/61
f 266/145/62 250/144/62 253/146/62
f 267/147/63 266/145/63 253/146/63
f 267/147/64 253/146/64 255/148/64
f 268/149/65 267/147/65 255/148/65
f 268/149/66 255/148/66 257/150/66
f 269/147/67 268/149/67 257/150/67
f 269/147/68 257/150/68 259/148/68
f 270/145/69 269/147/69 259/148/69
f 270/145/70 259/148/70 261/146/70
f 271/141/71 270/145/71 261/146/71
f 271/141/72 261/146/72 263/144/72
f 265/142/73 271/141/73 263/144/73
f 265/142/74 263/144/74 251/143/74
f 272/151/75 273/152/75 265/142/75
f 272/151/76 265/142/76 264/141/76
f 274/153/77 272/151/77 264/141/77
f 274/153/78 264/141/78 266/145/78
f 275/154/79 274/153/79 266/145/79
f 275/154/80 266/145/80 267/147/80
f 276/155/81 275/154/81 267/147/81
f 276/155/82 267/147/82 268/149/82
f 277/154/83 276/155/83 268/149/83
f 277/154/84 268/149/84 269/147/84
f 278/153/85 277/154/85 269/147/85
f 278/153/86 269/147/86 270/145/86
f 279/151/87 278/153/87 270/145/87
f 279/151/88 270/145/88 271/141/88
f 273/152/89 279/151/89 271/141/89
f 273/152/90 271/141/90 265/142/90
f 280/156/91 281/157/91 273/152/91
f 280/156/92 273/152/92 272/151/92
f 282/158/93 280/156/93 272/151/93
f 282/158/94 272/151/94 274/153/94
f 283/159/95 282/158/95 274/153/95
f 283/159/96 274/153/96 275/154/96
f 284/160/97 283/159/97 275/154/97
f 284/160/98 275/154/98 276/155/98
f 285/159/99 284/160/99 276/155/99
f 285/159/100 276/155/100 277/154/100
f 286/158/101 285/159/101 277/154/101
f 286/158/102 277/154/102 278/153/102
f 287/156/103 286/158/103 278/153/103
f 287/156/104 278/153/104 279/151/104
f 281/157/105 287/156/105 279/151/105
f 281/157/106 279/151/106 273/152/106
f 288/161/107 289/162/107 281/157/107
f 288/161/108 281/157/108 280/156/108
f 290/163/109 288/161/109 280/156/109
f 290/163/110 280/156/110 282/158/110
f 291/164/111 290/163/111 282/158/111
f 291/164/112 282/158/112 283/159/112
f 292/165/113 291/164/113 283/159/113
f 292/165/114 283/159/114 284/160/114
f 293/164/115 292/165/115 284/160/115
f 293/164/116 284/160/116 285/159/116
f 294/163/117 293/164/117 285/159/117
f 294/163/118 285/159/118 286/158/118
f 295/161/119 294/163/119 286/158/119
f 295/161/120 286/158/120 287/156/120
f 289/162/121 295/161/121 287/156/121
f 289/162/122 287/156/122 281/157/122
f 296/166/123 297/167/123 289/162/123
f 296/166/124 289/162/124 288/161/124
f 298/168/125 296/166/125 288/161/125
f 298/168/126 288/161/126 290/163/126
f 299/169/127 298/168/127 290/163/127
f 299/169/128 290/163/128 291/164/128
f 300/170/129 299/169/129 291/164/129
f 300/170/130 291/164/130 292/165/130
f 301/169/131 300/170/131 292/165/131
f 301/169/132 292/165/132 293/164/132
f 302/168/133 301/169/133 293/164/133
f 302/168/134 293/164/134 294/163/134
f 303/166/135 302/168/135 294/163/135
f 303/166/136 294/163/136 295/161/136
f 297/167/137 303/166/137 295/161/137
f 297/167/138 295/161/138 289/162/138
f 304/171/4 305/172/4 306/173/4
f 304/171/4 307/174/4 305/172/4
f 304/171/4 308/175/4 307/174/4
f 304/171/4 309/176/4 308/175/4
f 304/171/4 310/177/4 309/176/4
f 304/171/4 311/178/4 310/177/4
f 304/171/4 312/179/4 311/178/4
f 304/171/4 306/173/4 312/179/4
f 313/180/139 314/181/139 306/182/139
f 313/180/140 306/182/140 305/183/140
f 315/184/141 313/180/141 305/183/141
f 315/184/142 305/183/142 307/185/142
f 316/180/143 315/184/143 307/185/143
f 316/180/144 307/185/144 308/183/144
f 317/181/145 316/180/145 308/183/145
f 317/181/146 308/183/146 309/182/146
f 318/186/147 317/181/147 309/182/147
f 318/186/147 309/182/147 310/187/147
f 319/188/148 318/186/148 310/187/148
f 319/188/149 310/187/149 311/189/149
f 320/186/150 319/188/150 311/189/150
f 320/186/151 311/189/151 312/187/151
f 314/181/152 320/186/152 312/187/152
f 314/181/152 312/187/152 306/182/152
f 321/190/153 322/191/153 314/192/153
f 321/190/153 314/192/153 313/193/153
f 323/194/154 321/190/154 313/193/154
f 323/194/154 313/193/154 315/195/154
f 324/190/155 323/194/155 315/195/155
f 324/190/155 315/195/155 316/193/155
f 325/191/156 324/190/156 316/193/156
f 325/191/156 316/193/156 317/192/156
f 326/196/157 325/191/157 317/192/157
f 326/196/157 317/192/157 318/197/157
f 327/198/158 326/196/158 318/197/158
f 327/198/158 318/197/158 319/199/158
f 328/196/159 327/198/159 319/199/159
f 328/196/159 319/199/159 320/197/159
f 322/191/160 328/196/160 320/197/160
f 322/191/160 320/197/160 314/192/160
