# generated by tools/objdedupe/dedupe.py -- do not hand-edit.
# Re-run the tool after touching azd_1svet.obj, azd_2svet.obj, azd_3svet.obj, azd_4svet.obj, azd_5svet.obj, azd_6svet.obj.
o stozar_2svet_S
v -0.011557 0.710267 -0.128544
vt 0.820000 0.786000
vn -0.970300 -0.241900 -0.000000
v 0.000000 0.663917 0.000000
vt 0.843000 0.681000
v -0.011557 0.710267 0.128544
vt 0.820000 0.583000
v 0.011557 0.710267 -0.128544
vt 0.816000 0.782000
vn 0.970300 -0.241900 -0.000000
v 0.011557 0.710267 0.128544
vt 0.816000 0.579000
vt 0.839000 0.676000
vn -0.000000 1.000000 -0.000000
v -0.011557 0.726892 0.128544
vt 0.805000 0.583000
vn -0.000000 -0.000000 -1.000000
v 0.011557 0.726892 0.128544
vt 0.801000 0.579000
v 0.011557 0.726892 -0.128544
vt 0.801000 0.782000
v -0.011557 0.726892 -0.128544
vt 0.805000 0.786000
vn -0.000000 -0.940700 -0.339200
vn -0.000000 -0.940700 0.339200
vn -0.000000 -0.000000 1.000000
v -0.011557 0.914207 -0.128544
v 0.000000 0.867857 0.000000
v -0.011557 0.914207 0.128544
v 0.011557 0.914207 -0.128544
v 0.011557 0.914207 0.128544
v 0.011557 0.930832 -0.128544
v -0.011557 0.930832 0.128544
v -0.011557 0.930832 -0.128544
v 0.011557 0.930832 0.128544
v -0.011557 2.341726 -0.128544
v 0.000000 2.295376 0.000000
v -0.011557 2.341726 0.128544
v 0.011557 2.341726 -0.128544
v 0.011557 2.341726 0.128544
v -0.011557 2.358350 0.128544
v 0.011557 2.358350 0.128544
v 0.011557 2.358350 -0.128544
v -0.011557 2.358350 -0.128544
v -0.036895 2.570880 0.137876
vt 0.596000 0.885000
vn -1.000000 -0.000000 -0.000000
v -0.036895 2.570880 0.128544
v -0.036895 1.116046 0.128544
vt 0.596000 0.218000
v -0.036895 1.116046 0.137876
vt 0.946000 0.782000
v 0.036895 2.570880 0.128544
vt 0.986000 0.782000
v 0.036895 1.116046 0.128544
vt 0.986000 0.276000
vt 0.946000 0.276000
vt 0.635000 0.885000
vn 1.000000 -0.000000 -0.000000
v 0.036895 2.570880 0.137876
v 0.036895 1.116046 0.137876
vt 0.635000 0.218000
vn -0.000000 -1.000000 -0.000000
v -0.021939 2.360698 0.054693
vt 0.507000 0.340000
vn -0.848900 -0.000000 0.528500
v -0.055991 2.360698 0.000000
vt 0.491000 0.324000
v -0.055991 2.348338 0.000000
vt 0.489000 0.330000
v -0.021939 2.348338 0.054693
vt 0.505000 0.346000
vn -0.848900 -0.000000 -0.528500
v -0.021939 2.360698 -0.054693
vt 0.474000 0.340000
v -0.021939 2.348338 -0.054693
vt 0.472000 0.346000
v -0.084851 2.354518 -0.070081
vt 0.469000 0.311000
vn -0.237600 -0.000000 0.971400
v 0.084851 2.354518 -0.070081
vt 0.469000 0.390000
vn 0.237600 -0.000000 0.971400
v 0.021939 2.360698 -0.054693
vt 0.474000 0.360000
v 0.021939 2.348338 -0.054693
vt 0.472000 0.366000
vn 0.848900 -0.000000 -0.528500
v 0.055991 2.360698 0.000000
vt 0.491000 0.376000
v 0.055991 2.348338 0.000000
vt 0.489000 0.382000
vn 0.848900 -0.000000 0.528500
v 0.021939 2.360698 0.054693
vt 0.507000 0.360000
v 0.021939 2.348338 0.054693
vt 0.505000 0.366000
vn -0.000000 0.928000 -0.372700
v 0.058895 2.376704 -0.234654
vt 0.418000 0.378000
vn -0.000000 -0.891800 -0.452400
v 0.084851 2.365889 -0.213333
vt 0.425000 0.390000
v -0.084851 2.365889 -0.213333
vt 0.425000 0.311000
v -0.058895 2.376704 -0.234654
vt 0.418000 0.323000
vn -0.000000 -0.996900 -0.079100
vn -0.000000 -0.928000 -0.372700
v -0.011557 2.545542 -0.128544
v 0.000000 2.499192 0.000000
v -0.011557 2.545542 0.128544
v 0.011557 2.545542 -0.128544
v 0.011557 2.545542 0.128544
v 0.011557 2.562228 -0.128544
v -0.011557 2.562228 -0.128544
v -0.011557 2.562228 0.128544
v 0.011557 2.562228 0.128544
v -0.011557 2.137662 -0.128544
v 0.000000 2.091312 0.000000
v -0.011557 2.137662 0.128544
v 0.011557 2.137662 -0.128544
v 0.011557 2.137662 0.128544
v -0.011557 2.154348 0.128544
v 0.011557 2.154348 0.128544
v 0.011557 2.154348 -0.128544
v -0.011557 2.154348 -0.128544
v -0.011557 1.933722 -0.128544
v 0.000000 1.887372 0.000000
v -0.011557 1.933722 0.128544
v 0.011557 1.933722 -0.128544
v 0.011557 1.933722 0.128544
v 0.011557 1.950408 -0.128544
v -0.011557 1.950408 0.128544
v 0.011557 1.950408 0.128544
v -0.011557 1.950408 -0.128544
v -0.011557 1.729782 -0.128544
v 0.000000 1.683432 0.000000
v -0.011557 1.729782 0.128544
v 0.011557 1.729782 -0.128544
v 0.011557 1.729782 0.128544
v -0.011557 1.746468 0.128544
v 0.011557 1.746468 0.128544
v 0.011557 1.746468 -0.128544
v -0.011557 1.746468 -0.128544
v -0.011557 1.525842 -0.128544
v 0.000000 1.479492 0.000000
v -0.011557 1.525842 0.128544
v 0.011557 1.525842 -0.128544
v 0.011557 1.525842 0.128544
v 0.011557 1.542528 -0.128544
v -0.011557 1.542528 -0.128544
v -0.011557 1.542528 0.128544
v 0.011557 1.542528 0.128544
v -0.011557 0.506142 -0.128544
v 0.000000 0.459792 0.000000
v -0.011557 0.506142 0.128544
v 0.011557 0.506142 -0.128544
v 0.011557 0.506142 0.128544
v 0.011557 0.522828 -0.128544
v -0.011557 0.522828 0.128544
v -0.011557 0.522828 -0.128544
v 0.011557 0.522828 0.128544
v -0.011557 1.321902 -0.128544
v 0.000000 1.275552 0.000000
v -0.011557 1.321902 0.128544
v 0.011557 1.321902 -0.128544
v 0.011557 1.321902 0.128544
v 0.011557 1.338588 -0.128544
v -0.011557 1.338588 0.128544
v 0.011557 1.338588 0.128544
v -0.011557 1.338588 -0.128544
v -0.011557 1.117962 -0.128544
v 0.000000 1.071612 0.000000
v -0.011557 1.117962 0.128544
v 0.011557 1.117962 -0.128544
v 0.011557 1.117962 0.128544
v 0.011557 1.134648 -0.128544
v -0.011557 1.134648 0.128544
v 0.011557 1.134648 0.128544
v -0.011557 1.134648 -0.128544
v -0.011557 2.953422 -0.128544
v 0.000000 2.907072 0.000000
v -0.011557 2.953422 0.128544
v 0.011557 2.953422 -0.128544
v 0.011557 2.953422 0.128544
v 0.011557 2.970108 -0.128544
v -0.011557 2.970108 0.128544
v -0.011557 2.970108 -0.128544
v 0.011557 2.970108 0.128544
v -0.011557 2.749482 -0.128544
v 0.000000 2.703132 0.000000
v -0.011557 2.749482 0.128544
v 0.011557 2.749482 -0.128544
v 0.011557 2.749482 0.128544
v 0.011557 2.766168 -0.128544
v -0.011557 2.766168 -0.128544
v -0.011557 2.766168 0.128544
v 0.011557 2.766168 0.128544
v 0.077435 0.251032 0.000000
vt 0.822000 0.207000
v -0.077435 0.251032 0.106049
vt 0.640000 0.012000
v 0.077435 0.251032 0.106049
vt 0.822000 0.012000
v -0.077435 0.251032 0.000000
vt 0.640000 0.207000
v -0.077435 0.251032 -0.106049
v 0.077435 0.251032 -0.106049
vt 0.011000 0.236000
v -0.077435 0.063592 0.106049
vt 0.203000 0.123000
vt 0.205000 0.232000
v -0.077435 0.063592 -0.106049
vt 0.011000 0.125000
v 0.077435 0.063592 -0.106049
v 0.077435 0.063592 0.106049
v -0.053395 0.288050 0.025709
vt 0.134000 0.259000
vn -0.581400 0.813600 -0.000000
v -0.053395 0.288050 -0.025709
vt 0.086000 0.259000
v -0.077435 0.270869 -0.025709
vt 0.086000 0.249000
v -0.077435 0.270869 0.025709
vt 0.134000 0.249000
vt 0.810000 0.991000
v 0.053395 0.288050 -0.025709
vt 0.904000 0.991000
v 0.077435 0.270869 -0.025709
vt 0.912000 0.979000
vt 0.801000 0.979000
vt 0.086000 0.256000
vn 0.581400 0.813600 -0.000000
v 0.053395 0.288050 0.025709
vt 0.134000 0.257000
v 0.077435 0.270869 0.025709
v -0.052654 0.071317 0.093689
vt 0.644000 0.092000
v -0.052654 0.071317 -0.093689
vt 0.635000 0.092000
v -0.052654 0.024535 -0.076138
vt 0.635000 0.057000
v -0.052654 0.024535 0.076138
vt 0.644000 0.057000
vn -0.000000 -0.351300 -0.936300
v 0.052654 0.071317 -0.093689
vt 0.823000 0.092000
v 0.052654 0.024535 -0.076138
vt 0.823000 0.057000
v 0.052654 0.071317 0.093689
vt 0.814000 0.092000
v 0.052654 0.024535 0.076138
vt 0.814000 0.057000
vn -0.000000 -0.351300 0.936300
v -0.077435 0.023360 -0.025709
vt 0.082000 0.088000
v -0.077435 0.023360 0.025709
vt 0.130000 0.088000
v 0.077435 0.023360 -0.025709
vt 0.912000 0.852000
vt 0.801000 0.852000
v 0.077435 0.023360 0.025709
vt 0.927000 0.960000
vt 0.801000 0.960000
vt 0.801000 0.791000
vt 0.927000 0.791000
vt 0.507000 0.305000
vt 0.507000 0.210000
vt 0.417000 0.210000
vt 0.417000 0.305000
v -0.088250 0.024720 0.076756
vt 0.592000 0.043000
v -0.088250 0.024720 -0.076756
vt 0.443000 0.043000
v -0.088250 0.012360 -0.076756
v -0.088250 0.012360 0.076756
v 0.088250 0.024720 -0.076756
vt 0.443000 0.162000
v 0.088250 0.012360 -0.076756
v 0.088250 0.024720 0.076756
vt 0.592000 0.162000
v 0.088250 0.012360 0.076756
v -0.109571 0.012360 0.134291
vt 0.621000 0.003000
v -0.109571 0.012360 -0.134291
vt 0.420000 0.003000
v -0.109571 0.000000 -0.134291
v -0.109571 -0.000000 0.134291
v 0.109571 0.012360 -0.134291
vt 0.420000 0.205000
v 0.109571 0.000000 -0.134291
v 0.109571 0.012360 0.134291
vt 0.621000 0.205000
v 0.109571 -0.000000 0.134291
v 0.000000 3.400916 0.271859
vt 0.201000 0.029000
v 0.000000 3.400916 0.233543
vt 0.231000 0.029000
v 0.000000 3.367482 0.233543
vt 0.231000 0.007000
v 0.000000 3.367482 0.271859
vt 0.201000 0.007000
v 0.021568 2.900954 -0.055681
vt 0.035000 0.064000
vn 0.523300 -0.000000 -0.852100
v 0.048637 2.900954 -0.039057
vt 0.022000 0.061000
v 0.048637 2.781927 -0.039057
vt 0.022000 0.016000
v 0.021568 2.781927 -0.055681
vt 0.035000 0.019000
vn 0.817300 -0.000000 -0.576300
v 0.062233 2.900954 -0.019776
vt 0.008000 0.057000
v 0.062233 2.781927 -0.019776
vt 0.008000 0.012000
vt 0.917000 0.457000
vn 0.995200 -0.000000 0.098300
v 0.055558 2.900954 0.047772
vt 0.908000 0.492000
v 0.055558 2.781927 0.047772
vt 0.849000 0.475000
vt 0.857000 0.442000
vt 0.911000 0.473000
v -0.055620 2.900954 0.047772
vt 0.902000 0.496000
v -0.055620 2.781927 0.047772
vt 0.836000 0.473000
vt 0.845000 0.449000
vn -0.995200 -0.000000 0.098300
v -0.062294 2.900954 -0.019776
v -0.062294 2.781927 -0.019776
vt 0.075000 0.057000
vn -0.817300 -0.000000 -0.576300
v -0.048698 2.900954 -0.039057
vt 0.062000 0.061000
v -0.048698 2.781927 -0.039057
vt 0.062000 0.016000
vt 0.075000 0.012000
vn -0.523300 -0.000000 -0.852100
v -0.021630 2.900954 -0.055681
vt 0.048000 0.064000
v -0.021630 2.781927 -0.055681
vt 0.048000 0.019000
vt 0.918000 0.452000
vt 0.920000 0.447000
vt 0.859000 0.436000
vt 0.860000 0.431000
v 0.024473 2.898235 0.026513
vt 0.907000 0.487000
vn 0.964700 -0.246800 0.092100
v 0.024473 2.987103 0.264504
vt 0.908000 0.680000
v 0.006736 2.917763 0.264504
vt 0.864000 0.670000
vn 0.985000 -0.150000 0.085700
v 0.006736 2.781741 0.026513
vt 0.842000 0.468000
v 0.039799 2.987103 0.264504
v 0.039799 2.917763 0.264504
v 0.039799 2.987103 0.330198
vt 0.903000 0.708000
v 0.039799 2.917763 0.330198
vt 0.858000 0.698000
v -0.039861 2.987103 0.330198
v -0.039861 2.987103 0.264504
v -0.039861 2.917763 0.264504
v -0.039861 2.917763 0.330198
v -0.024596 2.987103 0.264504
v -0.006798 2.917763 0.264504
vn -0.987000 -0.150800 0.056300
v -0.024596 2.898235 0.026513
v -0.006798 2.781741 0.026513
vn -0.959000 -0.246200 0.140700
vt 0.908000 0.669000
vn -0.000000 0.936800 -0.349800
vt 0.892000 0.669000
vt 0.890000 0.516000
vt 0.906000 0.516000
vt 0.860000 0.663000
vn -0.000000 -0.868200 0.496200
vt 0.838000 0.499000
vt 0.844000 0.499000
vt 0.867000 0.662000
v 0.000000 3.459255 0.295096
vt 0.188000 0.050000
v -0.013596 3.459255 0.271550
vt 0.197000 0.050000
v -0.027192 3.459255 0.295096
v 0.013534 3.459255 0.271550
v 0.027130 3.459255 0.295096
v 0.013534 3.459255 0.318641
vt 0.179000 0.050000
v -0.013596 3.459255 0.318641
v -0.013596 3.351661 0.271550
vt 0.197000 0.008000
vn -0.866000 -0.000000 -0.500000
v -0.027192 3.351661 0.295096
vt 0.188000 0.008000
vn -0.866000 -0.000000 -0.500100
v 0.013534 3.351661 0.271550
v 0.027130 3.351661 0.295096
vn 0.866000 -0.000000 -0.500000
vn 0.866000 -0.000000 -0.500100
v 0.013534 3.351661 0.318641
vt 0.179000 0.008000
vn 0.866000 -0.000000 0.500000
vn 0.866000 -0.000000 0.500100
vn -0.866000 -0.000000 0.500000
v -0.013596 3.351661 0.318641
vn -0.866000 -0.000000 0.500100
v 0.000000 3.443372 0.289348
vt 0.190000 0.043000
vn 0.380400 0.924800 -0.003500
v 0.015326 3.437068 0.289348
vt 0.190000 0.040000
v 0.015326 3.436821 0.223778
vt 0.233000 0.040000
vn 0.380500 0.924800 -0.003500
v 0.000000 3.443125 0.223099
vt 0.234000 0.042000
vn 0.923700 0.383000 -0.001500
v 0.021630 3.421866 0.289348
vt 0.190000 0.036000
v 0.021630 3.421619 0.225447
vt 0.233000 0.036000
vn 0.923800 0.382900 -0.001400
vn 0.922400 -0.386200 0.001500
v 0.015265 3.406663 0.289348
vt 0.190000 0.032000
v 0.015265 3.406416 0.227116
vt 0.233000 0.032000
vn 0.922500 -0.386100 0.001500
vn 0.381700 -0.924300 0.003700
v 0.000000 3.400359 0.289348
vt 0.190000 0.029000
v 0.000000 3.400112 0.227795
vt 0.233000 0.029000
vn 0.381800 -0.924200 0.003700
vn -0.381700 -0.924300 0.003700
v -0.015265 3.406663 0.289348
v -0.015265 3.406416 0.227116
vn -0.381800 -0.924200 0.003700
vn -0.923700 -0.383000 0.001500
v -0.021568 3.421866 0.289348
v -0.021568 3.421619 0.225447
vn -0.923800 -0.382900 0.001500
vn -0.922400 0.386200 -0.001500
v -0.015203 3.437068 0.289348
v -0.015203 3.436821 0.223778
vn -0.922500 0.386100 -0.001500
vn -0.383000 0.923700 -0.003400
vn -0.383100 0.923700 -0.003500
v 0.015326 3.404191 0.106111
vt 0.888000 0.270000
vn 0.383200 0.890300 -0.246100
v 0.000000 3.410309 0.104381
vt 0.875000 0.270000
vt 0.875000 0.428000
vn 0.377900 0.892200 -0.247400
vt 0.888000 0.428000
v 0.021630 3.389483 0.110314
vt 0.901000 0.270000
vn 0.924600 0.367200 -0.101800
vn 0.922700 0.371200 -0.103600
vt 0.901000 0.428000
v 0.015265 3.374774 0.114454
vt 0.915000 0.270000
vn 0.923100 -0.370400 0.103400
vn 0.921400 -0.374200 0.105100
vt 0.915000 0.428000
v 0.000000 3.368718 0.116185
vt 0.928000 0.270000
vn 0.381400 -0.890000 0.250000
vn 0.379000 -0.890800 0.250600
vt 0.928000 0.428000
v -0.015265 3.374774 0.114454
vn -0.381400 -0.889900 0.250300
vn -0.379000 -0.890900 0.250200
v -0.021568 3.389544 0.110314
vn -0.925000 -0.365900 0.102800
vn -0.922800 -0.371300 0.103400
v -0.015203 3.404253 0.106111
vn -0.923200 0.370100 -0.103100
vn -0.921400 0.374400 -0.103600
vn -0.382700 0.890400 -0.246400
vn -0.380600 0.891300 -0.246400
v 0.015265 3.377246 0.051789
vt 0.888000 0.218000
vn 0.377100 0.829500 -0.412000
v 0.000000 3.382314 0.048019
vt 0.875000 0.218000
vn 0.377600 0.829400 -0.411800
v 0.021630 3.365072 0.061059
vt 0.901000 0.218000
vn 0.920800 0.348900 -0.174100
vn 0.922300 0.346200 -0.171600
v 0.015265 3.352835 0.070267
vt 0.915000 0.218000
vn 0.921000 -0.349000 0.173000
vn 0.920700 -0.349600 0.173600
v 0.000000 3.347830 0.074037
vt 0.928000 0.218000
vn 0.374200 -0.830600 0.412400
vn 0.376000 -0.830200 0.411500
v -0.015265 3.352835 0.070267
vn -0.374200 -0.830900 0.411800
vn -0.376000 -0.829900 0.412100
v -0.021568 3.365072 0.061059
vn -0.922400 -0.345900 0.171800
vn -0.922500 -0.345600 0.171700
v -0.015265 3.377246 0.051789
vn -0.922200 0.346400 -0.172100
vn -0.921000 0.349300 -0.172600
vn -0.377100 0.829500 -0.412000
vn -0.377300 0.829400 -0.412000
v 0.015265 3.322739 0.002102
vt 0.888000 0.165000
vn 0.375100 0.624300 -0.685300
v 0.000000 3.326076 -0.003213
vt 0.875000 0.165000
vn 0.376300 0.624200 -0.684700
v 0.021568 3.314704 0.015142
vt 0.901000 0.165000
vn 0.922400 0.260300 -0.285500
vn 0.921000 0.261900 -0.288500
v 0.015265 3.306671 0.028120
vt 0.915000 0.165000
vn 0.921900 -0.261700 0.285800
vn 0.921000 -0.262600 0.287700
v 0.000000 3.303334 0.033496
vt 0.928000 0.165000
vn 0.377400 -0.624400 0.683900
vn 0.374100 -0.624600 0.685500
v -0.015265 3.306671 0.028120
vn -0.377500 -0.623700 0.684500
vn -0.374100 -0.625300 0.684900
v -0.021630 3.314704 0.015142
vn -0.920600 -0.263400 0.288500
vn -0.922300 -0.259800 0.286200
v -0.015265 3.322801 0.002102
vn -0.921300 0.262500 -0.286700
vn -0.922400 0.260400 -0.285300
vn -0.372800 0.625500 -0.685400
vn -0.376300 0.623900 -0.684900
v 0.015265 3.263102 -0.011989
vt 0.888000 0.112000
vn 0.380600 0.217500 -0.898800
v 0.000000 3.264276 -0.018169
vt 0.875000 0.112000
vn 0.362600 0.214300 -0.907000
v 0.021568 3.260259 0.003029
vt 0.901000 0.112000
vn 0.924300 0.087700 -0.371400
vn 0.916800 0.086700 -0.389800
v 0.015265 3.257478 0.018046
vt 0.915000 0.112000
vn 0.924300 -0.082900 0.372600
vn 0.915300 -0.080800 0.394600
v 0.000000 3.256304 0.024288
vt 0.928000 0.112000
vn 0.384100 -0.185200 0.904500
vn 0.361500 -0.179200 0.915000
v -0.015265 3.257478 0.018046
vn -0.384200 -0.177400 0.906100
vn -0.362500 -0.187000 0.913000
v -0.021630 3.260321 0.003029
vn -0.923100 -0.077100 0.376700
vn -0.914800 -0.087800 0.394300
v -0.015265 3.263102 -0.011989
vn -0.922900 0.083700 -0.375700
vn -0.916200 0.092100 -0.390100
vn -0.380700 0.212400 -0.900000
vn -0.362400 0.219200 -0.905900
v 0.015203 3.109281 -0.011989
vt 0.888000 0.007000
vn 0.376600 -0.000000 -0.926400
v 0.000000 3.109281 -0.018169
vt 0.875000 0.007000
vn 0.375300 -0.000200 -0.926900
v 0.021568 3.109281 0.003029
vt 0.901000 0.007000
vn 0.920700 -0.000400 -0.390300
vn 0.922100 -0.000000 -0.387000
v 0.015203 3.109281 0.018046
vt 0.915000 0.007000
vn 0.920700 -0.000000 0.390300
vn 0.922100 -0.000400 0.387000
v 0.000000 3.109281 0.024288
vt 0.928000 0.007000
vn 0.379800 -0.000200 0.925100
vn 0.378500 -0.000000 0.925600
v -0.015326 3.109281 0.018046
vn -0.377200 -0.000000 0.926100
vn -0.378500 0.000200 0.925600
v -0.021630 3.109281 0.003029
vn -0.922100 0.000400 0.387000
vn -0.920700 -0.000000 0.390300
v -0.015326 3.109281 -0.011989
vn -0.922100 -0.000000 -0.387000
vn -0.920700 0.000400 -0.390200
vn -0.374000 0.000200 -0.927400
vn -0.375300 -0.000000 -0.926900
v 0.000000 3.115400 0.000000
vt 0.103000 0.044000
v -0.036091 3.115400 -0.036153
vt 0.093000 0.052000
v -0.051047 3.115400 0.000000
vt 0.102000 0.055000
v 0.000000 3.115400 -0.051108
vt 0.091000 0.043000
v 0.036029 3.115400 -0.036153
vt 0.095000 0.036000
v 0.050985 3.115400 0.000000
vt 0.102000 0.033000
v 0.036029 3.115400 0.035968
vt 0.110000 0.037000
v 0.000000 3.115400 0.050924
vt 0.112000 0.044000
v -0.036091 3.115400 0.035968
vt 0.109000 0.052000
v -0.030591 3.025975 -0.030652
vt 0.103000 0.009000
vn -0.921200 -0.080200 -0.380700
v -0.043260 3.025975 0.000000
vt 0.126000 0.010000
vt 0.126000 0.060000
vn -0.921100 -0.080100 -0.381000
vt 0.099000 0.059000
v 0.000000 3.025975 -0.043321
vt 0.094000 0.007000
vn -0.381400 -0.080100 -0.920900
vn -0.381600 -0.080200 -0.920800
vt 0.088000 0.057000
v 0.030529 3.025975 -0.030652
vn 0.382100 -0.080200 -0.920700
vn 0.382100 -0.080100 -0.920600
v 0.043198 3.025975 0.000000
vn 0.921200 -0.080100 -0.380700
vn 0.921100 -0.080200 -0.381000
v 0.030529 3.025975 0.030468
vt 0.149000 0.009000
vn 0.920400 -0.080100 0.382700
vt 0.154000 0.059000
v 0.000000 3.025975 0.043137
vt 0.159000 0.007000
vn 0.382100 -0.080100 0.920700
vn 0.382100 -0.080200 0.920600
vt 0.165000 0.057000
v -0.030591 3.025975 0.030468
vn -0.381400 -0.080200 0.920900
vn -0.381600 -0.080100 0.920900
vn -0.920400 -0.080100 0.382700
v -0.030591 0.247200 -0.030653
vt 0.946000 0.006000
vn -0.924200 -0.000000 -0.382000
v -0.043260 0.247200 0.000000
vt 0.965000 0.006000
vt 0.965000 0.996000
vt 0.946000 0.996000
v 0.000000 0.247200 -0.043322
vt 0.938000 0.006000
vn -0.382600 -0.000000 -0.923900
vt 0.938000 0.996000
v 0.030529 0.247200 -0.030653
vn 0.383300 -0.000000 -0.923600
v 0.043198 0.247200 0.000000
vn 0.924200 -0.000000 -0.382000
v 0.030529 0.247200 0.030467
vt 0.985000 0.006000
vn 0.923400 -0.000000 0.384000
vt 0.985000 0.996000
v 0.000000 0.247200 0.043136
vt 0.993000 0.006000
vn 0.383300 -0.000000 0.923600
vt 0.993000 0.996000
v -0.030591 0.247200 0.030467
vn -0.382600 -0.000000 0.923900
vn -0.923400 -0.000000 0.384000
f 1/1/1 2/2/1 3/3/1
f 4/4/2 5/5/2 2/6/2
f 1/1/3 3/3/3 4/4/3
f 3/3/3 5/5/3 4/4/3
f 6/7/4 7/8/4 5/5/4
f 8/9/4 4/4/4 1/1/4
f 1/1/4 9/10/4 8/9/4
f 1/1/5 4/4/5 2/2/5
f 2/6/6 5/5/6 3/3/6
f 6/7/7 3/3/7 5/5/7
f 10/1/1 11/2/1 12/3/1
f 13/4/2 14/5/2 11/6/2
f 10/1/7 13/4/7 15/9/7
f 13/4/3 10/1/3 12/3/3
f 12/3/3 14/5/3 13/4/3
f 14/5/4 12/3/4 16/7/4
f 10/1/4 17/10/4 15/9/4
f 11/2/5 10/1/5 13/4/5
f 11/6/6 14/5/6 12/3/6
f 14/5/7 18/8/7 16/7/7
f 19/1/1 20/2/1 21/3/1
f 22/4/2 23/5/2 20/6/2
f 22/4/3 19/1/3 21/3/3
f 21/3/3 23/5/3 22/4/3
f 23/5/4 21/3/4 24/7/4
f 24/7/4 25/8/4 23/5/4
f 26/9/4 22/4/4 19/1/4
f 19/1/4 27/10/4 26/9/4
f 20/2/5 19/1/5 22/4/5
f 20/6/6 23/5/6 21/3/6
f 28/11/8 29/11/8 30/12/8
f 30/12/8 31/12/8 28/11/8
f 29/13/4 32/14/4 33/15/4
f 33/15/4 30/16/4 29/13/4
f 32/17/9 34/17/9 35/18/9
f 35/18/9 33/18/9 32/17/9
f 34/17/7 28/11/7 31/12/7
f 31/12/7 35/18/7 34/17/7
f 32/17/3 29/11/3 28/11/3
f 28/11/3 34/17/3 32/17/3
f 33/18/10 35/18/10 31/12/10
f 31/12/10 30/12/10 33/18/10
f 36/19/11 37/20/11 38/21/11
f 38/21/11 39/22/11 36/19/11
f 37/20/12 40/23/12 41/24/12
f 41/24/12 38/21/12 37/20/12
f 42/25/13 41/24/13 40/23/13
f 43/26/14 44/27/14 45/28/14
f 44/27/15 46/29/15 47/30/15
f 47/30/15 45/28/15 44/27/15
f 46/29/16 48/31/16 49/32/16
f 49/32/16 47/30/16 46/29/16
f 48/31/7 36/19/7 39/22/7
f 39/22/7 49/32/7 48/31/7
f 43/26/17 42/25/17 40/23/17
f 40/23/17 44/27/17 43/26/17
f 44/27/3 40/23/3 37/20/3
f 37/20/3 46/29/3 44/27/3
f 46/29/3 37/20/3 36/19/3
f 36/19/3 48/31/3 46/29/3
f 50/33/18 51/34/18 52/35/18
f 52/35/18 53/36/18 50/33/18
f 51/34/19 43/26/19 42/25/19
f 42/25/19 52/35/19 51/34/19
f 43/26/20 45/28/20 41/24/20
f 41/24/20 42/25/20 43/26/20
f 45/28/10 47/30/10 38/21/10
f 38/21/10 41/24/10 45/28/10
f 47/30/10 49/32/10 39/22/10
f 39/22/10 38/21/10 47/30/10
f 54/1/1 55/2/1 56/3/1
f 57/4/2 58/5/2 55/6/2
f 59/9/7 60/10/7 54/1/7
f 54/1/7 57/4/7 59/9/7
f 57/4/3 54/1/3 56/3/3
f 56/3/3 58/5/3 57/4/3
f 58/5/4 56/3/4 61/7/4
f 61/7/4 62/8/4 58/5/4
f 55/2/5 54/1/5 57/4/5
f 55/6/6 58/5/6 56/3/6
f 63/1/1 64/2/1 65/3/1
f 66/4/2 67/5/2 64/6/2
f 66/4/3 63/1/3 65/3/3
f 65/3/3 67/5/3 66/4/3
f 67/5/4 65/3/4 68/7/4
f 68/7/4 69/8/4 67/5/4
f 70/9/4 66/4/4 63/1/4
f 63/1/4 71/10/4 70/9/4
f 64/2/5 63/1/5 66/4/5
f 64/6/6 67/5/6 65/3/6
f 72/1/1 73/2/1 74/3/1
f 75/4/2 76/5/2 73/6/2
f 72/1/7 75/4/7 77/9/7
f 75/4/3 72/1/3 74/3/3
f 74/3/3 76/5/3 75/4/3
f 76/5/4 74/3/4 78/7/4
f 78/7/4 79/8/4 76/5/4
f 72/1/4 80/10/4 77/9/4
f 73/2/5 72/1/5 75/4/5
f 73/6/6 76/5/6 74/3/6
f 81/1/1 82/2/1 83/3/1
f 84/4/2 85/5/2 82/6/2
f 84/4/3 81/1/3 83/3/3
f 83/3/3 85/5/3 84/4/3
f 85/5/4 83/3/4 86/7/4
f 86/7/4 87/8/4 85/5/4
f 88/9/4 84/4/4 81/1/4
f 81/1/4 89/10/4 88/9/4
f 82/2/5 81/1/5 84/4/5
f 82/6/6 85/5/6 83/3/6
f 90/1/1 91/2/1 92/3/1
f 93/4/2 94/5/2 91/6/2
f 95/9/7 96/10/7 90/1/7
f 90/1/7 93/4/7 95/9/7
f 93/4/3 90/1/3 92/3/3
f 92/3/3 94/5/3 93/4/3
f 94/5/4 92/3/4 97/7/4
f 97/7/4 98/8/4 94/5/4
f 91/2/5 90/1/5 93/4/5
f 91/6/6 94/5/6 92/3/6
f 99/1/1 100/2/1 101/3/1
f 102/4/2 103/5/2 100/6/2
f 99/1/7 102/4/7 104/9/7
f 102/4/3 99/1/3 101/3/3
f 101/3/3 103/5/3 102/4/3
f 103/5/4 101/3/4 105/7/4
f 99/1/4 106/10/4 104/9/4
f 100/2/5 99/1/5 102/4/5
f 100/6/6 103/5/6 101/3/6
f 103/5/7 107/8/7 105/7/7
f 108/1/1 109/2/1 110/3/1
f 111/4/2 112/5/2 109/6/2
f 108/1/7 111/4/7 113/9/7
f 111/4/3 108/1/3 110/3/3
f 110/3/3 112/5/3 111/4/3
f 112/5/4 110/3/4 114/7/4
f 114/7/4 115/8/4 112/5/4
f 108/1/4 116/10/4 113/9/4
f 109/2/5 108/1/5 111/4/5
f 109/6/6 112/5/6 110/3/6
f 117/1/1 118/2/1 119/3/1
f 120/4/2 121/5/2 118/6/2
f 117/1/7 120/4/7 122/9/7
f 120/4/3 117/1/3 119/3/3
f 119/3/3 121/5/3 120/4/3
f 121/5/4 119/3/4 123/7/4
f 123/7/4 124/8/4 121/5/4
f 117/1/4 125/10/4 122/9/4
f 118/2/5 117/1/5 120/4/5
f 118/6/6 121/5/6 119/3/6
f 126/1/1 127/2/1 128/3/1
f 129/4/2 130/5/2 127/6/2
f 126/1/7 129/4/7 131/9/7
f 129/4/3 126/1/3 128/3/3
f 128/3/3 130/5/3 129/4/3
f 130/5/4 128/3/4 132/7/4
f 126/1/4 133/10/4 131/9/4
f 127/2/5 126/1/5 129/4/5
f 127/6/6 130/5/6 128/3/6
f 130/5/7 134/8/7 132/7/7
f 135/1/1 136/2/1 137/3/1
f 138/4/2 139/5/2 136/6/2
f 140/9/7 141/10/7 135/1/7
f 135/1/7 138/4/7 140/9/7
f 138/4/3 135/1/3 137/3/3
f 137/3/3 139/5/3 138/4/3
f 139/5/4 137/3/4 142/7/4
f 136/2/5 135/1/5 138/4/5
f 136/6/6 139/5/6 137/3/6
f 139/5/7 143/8/7 142/7/7
f 144/37/3 145/38/3 146/39/3
f 144/37/3 147/40/3 145/38/3
f 148/38/3 144/37/3 149/39/3
f 148/38/3 147/40/3 144/37/3
f 148/41/8 150/42/8 145/43/8
f 148/41/8 151/44/8 150/42/8
f 152/44/9 146/43/9 153/42/9
f 152/44/9 149/41/9 146/43/9
f 154/45/21 155/46/21 156/47/21
f 156/47/21 157/48/21 154/45/21
f 155/49/4 158/50/4 159/51/4
f 159/51/4 156/52/4 155/49/4
f 158/53/22 160/54/22 161/48/22
f 161/48/22 159/47/22 158/53/22
f 160/50/7 154/49/7 157/52/7
f 157/52/7 161/51/7 160/50/7
f 162/55/8 163/56/8 164/57/8
f 164/57/8 165/58/8 162/55/8
f 163/56/23 166/59/23 167/60/23
f 167/60/23 164/57/23 163/56/23
f 166/59/9 168/61/9 169/62/9
f 169/62/9 167/60/9 166/59/9
f 168/61/24 162/55/24 165/58/24
f 165/58/24 169/62/24 168/61/24
f 157/48/8 156/47/8 170/63/8
f 170/63/8 171/64/8 157/48/8
f 156/52/4 159/51/4 172/65/4
f 172/65/4 170/66/4 156/52/4
f 159/47/9 161/48/9 173/64/9
f 173/64/9 172/63/9 159/47/9
f 161/51/7 157/52/7 171/66/7
f 171/66/7 173/65/7 161/51/7
f 158/53/3 155/46/3 154/45/3
f 154/45/3 160/54/3 158/53/3
f 148/67/4 149/68/4 152/69/4
f 152/69/4 151/70/4 148/67/4
f 146/67/7 145/68/7 150/69/7
f 150/69/7 153/70/7 146/67/7
f 152/71/10 153/72/10 150/73/10
f 150/73/10 151/74/10 152/71/10
f 174/75/8 175/76/8 176/76/8
f 176/76/8 177/75/8 174/75/8
f 175/76/4 178/77/4 179/77/4
f 179/77/4 176/76/4 175/76/4
f 178/77/9 180/78/9 181/78/9
f 181/78/9 179/77/9 178/77/9
f 180/78/7 174/75/7 177/75/7
f 177/75/7 181/78/7 180/78/7
f 178/77/3 175/76/3 174/75/3
f 174/75/3 180/78/3 178/77/3
f 182/79/8 183/80/8 184/80/8
f 184/80/8 185/79/8 182/79/8
f 183/80/4 186/81/4 187/81/4
f 187/81/4 184/80/4 183/80/4
f 186/81/9 188/82/9 189/82/9
f 189/82/9 187/81/9 186/81/9
f 188/82/7 182/79/7 185/79/7
f 185/79/7 189/82/7 188/82/7
f 186/81/3 183/80/3 182/79/3
f 182/79/3 188/82/3 186/81/3
f 190/83/8 191/84/8 192/85/8
f 192/85/8 193/86/8 190/83/8
f 191/84/9 190/83/9 193/86/9
f 193/86/9 192/85/9 191/84/9
f 194/87/25 195/88/25 196/89/25
f 196/89/25 197/90/25 194/87/25
f 195/88/26 198/91/26 199/92/26
f 199/92/26 196/89/26 195/88/26
f 198/93/27 200/94/27 201/95/27
f 201/95/27 199/96/27 198/93/27
f 200/97/7 202/98/7 203/99/7
f 203/99/7 201/100/7 200/97/7
f 202/94/28 204/93/28 205/96/28
f 205/96/28 203/95/28 202/94/28
f 204/101/29 206/102/29 207/103/29
f 207/103/29 205/104/29 204/101/29
f 206/102/30 208/105/30 209/106/30
f 209/106/30 207/103/30 206/102/30
f 208/105/4 194/87/4 197/90/4
f 197/90/4 209/106/4 208/105/4
f 202/94/3 200/94/3 198/93/3
f 198/93/3 204/93/3 202/94/3
f 204/93/3 198/93/3 195/107/3
f 195/107/3 206/107/3 204/93/3
f 206/107/3 195/107/3 194/108/3
f 194/108/3 208/108/3 206/107/3
f 203/95/10 205/96/10 199/96/10
f 199/96/10 201/95/10 203/95/10
f 205/96/10 207/109/10 196/109/10
f 196/109/10 199/96/10 205/96/10
f 207/109/10 209/110/10 197/110/10
f 197/110/10 196/109/10 207/109/10
f 210/111/31 211/112/31 212/113/31
f 212/113/32 213/114/32 210/111/32
f 211/112/4 214/112/4 215/113/4
f 215/113/4 212/113/4 211/112/4
f 214/112/9 216/115/9 217/116/9
f 217/116/9 215/113/9 214/112/9
f 218/115/8 219/112/8 220/113/8
f 220/113/8 221/116/8 218/115/8
f 219/112/4 222/112/4 223/113/4
f 223/113/4 220/113/4 219/112/4
f 222/112/33 224/111/33 225/114/33
f 225/114/34 223/113/34 222/112/34
f 222/117/35 211/118/35 210/119/35
f 210/119/35 224/120/35 222/117/35
f 221/116/10 220/113/10 215/113/10
f 215/113/10 217/116/10 221/116/10
f 223/121/36 225/122/36 213/123/36
f 213/123/36 212/124/36 223/121/36
f 226/125/3 227/126/3 228/125/3
f 226/125/3 229/126/3 227/126/3
f 226/125/3 230/125/3 229/126/3
f 226/125/3 231/127/3 230/125/3
f 226/125/3 232/127/3 231/127/3
f 226/125/3 228/125/3 232/127/3
f 233/128/37 234/129/37 228/125/37
f 233/128/38 228/125/38 227/126/38
f 235/128/4 233/128/4 227/126/4
f 235/128/4 227/126/4 229/126/4
f 236/129/39 235/128/39 229/126/39
f 236/129/40 229/126/40 230/125/40
f 237/130/41 236/129/41 230/125/41
f 237/130/42 230/125/42 231/127/42
f 234/129/43 238/130/43 232/127/43
f 234/129/44 232/127/44 228/125/44
f 239/131/45 240/132/45 241/133/45
f 241/133/46 242/134/46 239/131/46
f 240/132/47 243/135/47 244/136/47
f 244/136/48 241/133/48 240/132/48
f 243/135/49 245/137/49 246/138/49
f 246/138/50 244/136/50 243/135/50
f 245/137/51 247/139/51 248/140/51
f 248/140/52 246/138/52 245/137/52
f 247/139/53 249/137/53 250/138/53
f 250/138/54 248/140/54 247/139/54
f 249/137/55 251/135/55 252/136/55
f 252/136/56 250/138/56 249/137/56
f 251/135/57 253/132/57 254/133/57
f 254/133/58 252/136/58 251/135/58
f 253/132/59 239/131/59 242/134/59
f 242/134/60 254/133/60 253/132/60
f 255/141/61 256/142/61 242/143/61
f 255/141/62 242/143/62 241/144/62
f 257/145/63 255/141/63 241/144/63
f 257/145/64 241/144/64 244/146/64
f 258/147/65 257/145/65 244/146/65
f 258/147/66 244/146/66 246/148/66
f 259/149/67 258/147/67 246/148/67
f 259/149/68 246/148/68 248/150/68
f 260/147/69 259/149/69 248/150/69
f 260/147/70 248/150/70 250/148/70
f 261/145/71 260/147/71 250/148/71
f 261/145/72 250/148/72 252/146/72
f 262/141/73 261/145/73 252/146/73
f 262/141/74 252/146/74 254/144/74
f 256/142/75 262/141/75 254/144/75
f 256/142/76 254/144/76 242/143/76
f 263/151/77 264/152/77 256/142/77
f 263/151/78 256/142/78 255/141/78
f 265/153/79 263/151/79 255/141/79
f 265/153/80 255/141/80 257/145/80
f 266/154/81 265/153/81 257/145/81
f 266/154/82 257/145/82 258/147/82
f 267/155/83 266/154/83 258/147/83
f 267/155/84 258/147/84 259/149/84
f 268/154/85 267/155/85 259/149/85
f 268/154/86 259/149/86 260/147/86
f 269/153/87 268/154/87 260/147/87
f 269/153/88 260/147/88 261/145/88
f 270/151/89 269/153/89 261/145/89
f 270/151/90 261/145/90 262/141/90
f 264/152/91 270/151/91 262/141/91
f 264/152/92 262/141/92 256/142/92
f 271/156/93 272/157/93 264/152/93
f 271/156/94 264/152/94 263/151/94
f 273/158/95 271/156/95 263/151/95
f 273/158/96 263/151/96 265/153/96
f 274/159/97 273/158/97 265/153/97
f 274/159/98 265/153/98 266/154/98
f 275/160/99 274/159/99 266/154/99
f 275/160/100 266/154/100 267/155/100
f 276/159/101 275/160/101 267/155/101
f 276/159/102 267/155/102 268/154/102
f 277/158/103 276/159/103 268/154/103
f 277/158/104 268/154/104 269/153/104
f 278/156/105 277/158/105 269/153/105
f 278/156/106 269/153/106 270/151/106
f 272/157/107 278/156/107 270/151/107
f 272/157/108 270/151/108 264/152/108
f 279/161/109 280/162/109 272/157/109
f 279/161/110 272/157/110 271/156/110
f 281/163/111 279/161/111 271/156/111
f 281/163/112 271/156/112 273/158/112
f 282/164/113 281/163/113 273/158/113
f 282/164/114 273/158/114 274/159/114
f 283/165/115 282/164/115 274/159/115
f 283/165/116 274/159/116 275/160/116
f 284/164/117 283/165/117 275/160/117
f 284/164/118 275/160/118 276/159/118
f 285/163/119 284/164/119 276/159/119
f 285/163/120 276/159/120 277/158/120
f 286/161/121 285/163/121 277/158/121
f 286/161/122 277/158/122 278/156/122
f 280/162/123 286/161/123 278/156/123
f 280/162/124 278/156/124 272/157/124
f 287/166/125 288/167/125 280/162/125
f 287/166/126 280/162/126 279/161/126
f 289/168/127 287/166/127 279/161/127
f 289/168/128 279/161/128 281/163/128
f 290/169/129 289/168/129 281/163/129
f 290/169/130 281/163/130 282/164/130
f 291/170/131 290/169/131 282/164/131
f 291/170/132 282/164/132 283/165/132
f 292/169/133 291/170/133 283/165/133
f 292/169/134 283/165/134 284/164/134
f 293/168/135 292/169/135 284/164/135
f 293/168/136 284/164/136 285/163/136
f 294/166/137 293/168/137 285/163/137
f 294/166/138 285/163/138 286/161/138
f 288/167/139 294/166/139 286/161/139
f 288/167/140 286/161/140 280/162/140
f 295/171/3 296/172/3 297/173/3
f 295/171/3 298/174/3 296/172/3
f 295/171/3 299/175/3 298/174/3
f 295/171/3 300/176/3 299/175/3
f 295/171/3 301/177/3 300/176/3
f 295/171/3 302/178/3 301/177/3
f 295/171/3 303/179/3 302/178/3
f 295/171/3 297/173/3 303/179/3
f 304/180/141 305/181/141 297/182/141
f 304/180/142 297/182/142 296/183/142
f 306/184/143 304/180/143 296/183/143
f 306/184/144 296/183/144 298/185/144
f 307/180/145 306/184/145 298/185/145
f 307/180/146 298/185/146 299/183/146
f 308/181/147 307/180/147 299/183/147
f 308/181/148 299/183/148 300/182/148
f 309/186/149 308/181/149 300/182/149
f 309/186/149 300/182/149 301/187/149
f 310/188/150 309/186/150 301/187/150
f 310/188/151 301/187/151 302/189/151
f 311/186/152 310/188/152 302/189/152
f 311/186/153 302/189/153 303/187/153
f 305/181/154 311/186/154 303/187/154
f 305/181/154 303/187/154 297/182/154
f 312/190/155 313/191/155 305/192/155
f 312/190/155 305/192/155 304/193/155
f 314/194/156 312/190/156 304/193/156
f 314/194/156 304/193/156 306/195/156
f 315/190/157 314/194/157 306/195/157
f 315/190/157 306/195/157 307/193/157
f 316/191/158 315/190/158 307/193/158
f 316/191/158 307/193/158 308/192/158
f 317/196/159 316/191/159 308/192/159
f 317/196/159 308/192/159 309/197/159
f 318/198/160 317/196/160 309/197/160
f 318/198/160 309/197/160 310/199/160
f 319/196/161 318/198/161 310/199/161
f 319/196/161 310/199/161 311/197/161
f 313/191/162 319/196/162 311/197/162
f 313/191/162 311/197/162 305/192/162
