# generated by tools/objdedupe/dedupe.py -- do not hand-edit.
# Re-run the tool after touching azd_1svet.obj, azd_2svet.obj, azd_3svet.obj, azd_4svet.obj, azd_5svet.obj, azd_6svet.obj.
o stozar_6svet_ind_S
v -0.011557 0.506142 -0.128544
vt 0.820000 0.786000
vn -0.970300 -0.241900 -0.000000
v 0.000000 0.459792 0.000000
vt 0.843000 0.681000
v -0.011557 0.506142 0.128544
vt 0.820000 0.583000
v 0.011557 0.506142 -0.128544
vt 0.816000 0.782000
vn 0.970300 -0.241900 -0.000000
v 0.011557 0.506142 0.128544
vt 0.816000 0.579000
vt 0.839000 0.676000
vn -0.000000 1.000000 -0.000000
v -0.011557 0.522828 0.128544
vt 0.805000 0.583000
vn -0.000000 -0.000000 -1.000000
v 0.011557 0.522828 0.128544
vt 0.801000 0.579000
v 0.011557 0.522828 -0.128544
vt 0.801000 0.782000
v -0.011557 0.522828 -0.128544
vt 0.805000 0.786000
vn -0.000000 -0.940700 -0.339200
vn -0.000000 -0.940700 0.339200
vn -0.000000 -0.000000 1.000000
v -0.011557 2.545666 -0.128544
v 0.000000 2.499316 0.000000
v -0.011557 2.545666 0.128544
v 0.011557 2.545666 -0.128544
v 0.011557 2.545666 0.128544
v 0.011557 2.562290 -0.128544
v -0.011557 2.562290 -0.128544
v -0.011557 2.562290 0.128544
v 0.011557 2.562290 0.128544
v -0.036895 2.163000 0.137876
vt 0.596000 0.885000
vn -1.000000 -0.000000 -0.000000
v -0.036895 2.163000 0.128544
v -0.036895 0.708166 0.128544
vt 0.596000 0.218000
v -0.036895 0.708166 0.137876
vt 0.946000 0.782000
v 0.036895 2.163000 0.128544
vt 0.986000 0.782000
v 0.036895 0.708166 0.128544
vt 0.986000 0.276000
vt 0.946000 0.276000
vt 0.635000 0.885000
vn 1.000000 -0.000000 -0.000000
v 0.036895 2.163000 0.137876
v 0.036895 0.708166 0.137876
vt 0.635000 0.218000
vn -0.000000 -1.000000 -0.000000
v -0.021939 2.360265 0.054693
vt 0.507000 0.340000
vn -0.848900 -0.000000 0.528500
v -0.055991 2.360265 0.000000
vt 0.491000 0.324000
v -0.055991 2.347906 0.000000
vt 0.489000 0.330000
v -0.021939 2.347906 0.054693
vt 0.505000 0.346000
vn -0.848900 -0.000000 -0.528500
v -0.021939 2.360265 -0.054693
vt 0.474000 0.340000
v -0.021939 2.347906 -0.054693
vt 0.472000 0.346000
v -0.084851 2.354085 -0.070081
vt 0.469000 0.311000
vn -0.237600 -0.000000 0.971400
v 0.084851 2.354085 -0.070081
vt 0.469000 0.390000
vn 0.237600 -0.000000 0.971400
v 0.021939 2.360265 -0.054693
vt 0.474000 0.360000
v 0.021939 2.347906 -0.054693
vt 0.472000 0.366000
vn 0.848900 -0.000000 -0.528500
v 0.055991 2.360265 0.000000
vt 0.491000 0.376000
v 0.055991 2.347906 0.000000
vt 0.489000 0.382000
vn 0.848900 -0.000000 0.528500
v 0.021939 2.360265 0.054693
vt 0.507000 0.360000
v 0.021939 2.347906 0.054693
vt 0.505000 0.366000
v -0.084851 2.365457 -0.213333
vt 0.425000 0.311000
vn -0.000000 0.891800 0.452400
v 0.084851 2.365457 -0.213333
vt 0.425000 0.390000
v 0.058895 2.376272 -0.234654
vt 0.418000 0.378000
vn -0.000000 0.928000 -0.372700
vn -0.000000 -0.891800 -0.452400
v -0.058895 2.376272 -0.234654
vt 0.418000 0.323000
vn -0.000000 -0.996900 -0.079100
vn -0.000000 -0.928000 -0.372700
v -0.011557 2.749482 -0.128544
v 0.000000 2.703132 0.000000
v -0.011557 2.749482 0.128544
v 0.011557 2.749482 -0.128544
v 0.011557 2.749482 0.128544
v -0.011557 2.766168 0.128544
v 0.011557 2.766168 -0.128544
v -0.011557 2.766168 -0.128544
v 0.011557 2.766168 0.128544
v -0.011557 2.137662 -0.128544
v 0.000000 2.091312 0.000000
v -0.011557 2.137662 0.128544
v 0.011557 2.137662 -0.128544
v 0.011557 2.137662 0.128544
v 0.011557 2.154348 -0.128544
v -0.011557 2.154348 -0.128544
v -0.011557 2.154348 0.128544
v 0.011557 2.154348 0.128544
v -0.011557 1.933722 -0.128544
v 0.000000 1.887372 0.000000
v -0.011557 1.933722 0.128544
v 0.011557 1.933722 -0.128544
v 0.011557 1.933722 0.128544
v 0.011557 1.950408 -0.128544
v -0.011557 1.950408 -0.128544
v -0.011557 1.950408 0.128544
v 0.011557 1.950408 0.128544
v -0.011557 1.729782 -0.128544
v 0.000000 1.683432 0.000000
v -0.011557 1.729782 0.128544
v 0.011557 1.729782 -0.128544
v 0.011557 1.729782 0.128544
v -0.011557 1.746468 0.128544
v 0.011557 1.746468 0.128544
v 0.011557 1.746468 -0.128544
v -0.011557 1.746468 -0.128544
v -0.011557 1.525842 -0.128544
v 0.000000 1.479492 0.000000
v -0.011557 1.525842 0.128544
v 0.011557 1.525842 -0.128544
v 0.011557 1.525842 0.128544
v -0.011557 1.542528 0.128544
v 0.011557 1.542528 0.128544
v 0.011557 1.542528 -0.128544
v -0.011557 1.542528 -0.128544
v -0.011557 0.710082 -0.128544
v 0.000000 0.663732 0.000000
v -0.011557 0.710082 0.128544
v 0.011557 0.710082 -0.128544
v 0.011557 0.710082 0.128544
v -0.011557 0.726768 0.128544
v 0.011557 0.726768 0.128544
v 0.011557 0.726768 -0.128544
v -0.011557 0.726768 -0.128544
v -0.011557 2.341602 -0.128544
v 0.000000 2.295252 0.000000
v -0.011557 2.341602 0.128544
v 0.011557 2.341602 -0.128544
v 0.011557 2.341602 0.128544
v 0.011557 2.358288 -0.128544
v -0.011557 2.358288 -0.128544
v 0.011557 2.358288 0.128544
v -0.011557 2.358288 0.128544
v -0.011557 1.321902 -0.128544
v 0.000000 1.275552 0.000000
v -0.011557 1.321902 0.128544
v 0.011557 1.321902 -0.128544
v 0.011557 1.321902 0.128544
v 0.011557 1.338588 -0.128544
v -0.011557 1.338588 0.128544
v 0.011557 1.338588 0.128544
v -0.011557 1.338588 -0.128544
v -0.011557 1.117962 -0.128544
v 0.000000 1.071612 0.000000
v -0.011557 1.117962 0.128544
v 0.011557 1.117962 -0.128544
v 0.011557 1.117962 0.128544
v 0.011557 1.134648 -0.128544
v -0.011557 1.134648 -0.128544
v -0.011557 1.134648 0.128544
v 0.011557 1.134648 0.128544
v -0.011557 0.914022 -0.128544
v 0.000000 0.867672 0.000000
v -0.011557 0.914022 0.128544
v 0.011557 0.914022 -0.128544
v 0.011557 0.914022 0.128544
v -0.011557 0.930708 0.128544
v 0.011557 0.930708 0.128544
v 0.011557 0.930708 -0.128544
v -0.011557 0.930708 -0.128544
v -0.011557 3.361302 -0.128543
v 0.000000 3.314952 0.000001
v -0.011557 3.361302 0.128545
v 0.011557 3.361302 -0.128543
v 0.011557 3.361302 0.128545
v 0.011557 3.377988 -0.128543
v -0.011557 3.377988 -0.128543
v -0.011557 3.377988 0.128545
v 0.011557 3.377988 0.128545
v -0.011557 3.157362 -0.128543
v 0.000000 3.111012 0.000000
v -0.011557 3.157362 0.128544
v 0.011557 3.157362 -0.128543
v 0.011557 3.157362 0.128544
v 0.011557 3.174048 -0.128543
v -0.011557 3.174048 -0.128543
v -0.011557 3.174048 0.128544
v 0.011557 3.174048 0.128544
v -0.011557 2.953422 -0.128544
v 0.000000 2.907072 0.000000
v -0.011557 2.953422 0.128544
v 0.011557 2.953422 -0.128544
v 0.011557 2.953422 0.128544
v 0.011557 2.970108 -0.128544
v -0.011557 2.970108 0.128544
v -0.011557 2.970108 -0.128544
v 0.011557 2.970108 0.128544
v 0.077435 0.251032 0.000000
vt 0.822000 0.207000
v -0.077435 0.251032 0.106049
vt 0.640000 0.012000
v 0.077435 0.251032 0.106049
vt 0.822000 0.012000
v -0.077435 0.251032 0.000000
vt 0.640000 0.207000
v -0.077435 0.251032 -0.106049
v 0.077435 0.251032 -0.106049
vt 0.011000 0.236000
v -0.077435 0.063592 0.106049
vt 0.203000 0.123000
vt 0.205000 0.232000
v -0.077435 0.063592 -0.106049
vt 0.011000 0.125000
v 0.077435 0.063592 -0.106049
v 0.077435 0.063592 0.106049
v -0.053395 0.288050 0.025709
vt 0.134000 0.259000
vn -0.581400 0.813600 -0.000000
v -0.053395 0.288050 -0.025709
vt 0.086000 0.259000
v -0.077435 0.270869 -0.025709
vt 0.086000 0.249000
v -0.077435 0.270869 0.025709
vt 0.134000 0.249000
vt 0.810000 0.991000
v 0.053395 0.288050 -0.025709
vt 0.904000 0.991000
v 0.077435 0.270869 -0.025709
vt 0.912000 0.979000
vt 0.801000 0.979000
vt 0.086000 0.256000
vn 0.581400 0.813600 -0.000000
v 0.053395 0.288050 0.025709
vt 0.134000 0.257000
v 0.077435 0.270869 0.025709
v -0.052654 0.071317 0.093689
vt 0.644000 0.092000
v -0.052654 0.071317 -0.093689
vt 0.635000 0.092000
v -0.052654 0.024535 -0.076138
vt 0.635000 0.057000
v -0.052654 0.024535 0.076138
vt 0.644000 0.057000
vn -0.000000 -0.351300 -0.936300
v 0.052654 0.071317 -0.093689
vt 0.823000 0.092000
v 0.052654 0.024535 -0.076138
vt 0.823000 0.057000
v 0.052654 0.071317 0.093689
vt 0.814000 0.092000
v 0.052654 0.024535 0.076138
vt 0.814000 0.057000
vn -0.000000 -0.351300 0.936300
v -0.077435 0.023360 -0.025709
vt 0.082000 0.088000
v -0.077435 0.023360 0.025709
vt 0.130000 0.088000
v 0.077435 0.023360 -0.025709
vt 0.912000 0.852000
vt 0.801000 0.852000
v 0.077435 0.023360 0.025709
vt 0.927000 0.960000
vt 0.801000 0.960000
vt 0.801000 0.791000
vt 0.927000 0.791000
vt 0.507000 0.305000
vt 0.507000 0.210000
vt 0.417000 0.210000
vt 0.417000 0.305000
v -0.088250 0.024720 0.076756
vt 0.592000 0.043000
v -0.088250 0.024720 -0.076756
vt 0.443000 0.043000
v -0.088250 0.012360 -0.076756
v -0.088250 0.012360 0.076756
v 0.088250 0.024720 -0.076756
vt 0.443000 0.162000
v 0.088250 0.012360 -0.076756
v 0.088250 0.024720 0.076756
vt 0.592000 0.162000
v 0.088250 0.012360 0.076756
v -0.109571 0.012360 0.134291
vt 0.621000 0.003000
v -0.109571 0.012360 -0.134291
vt 0.420000 0.003000
v -0.109571 0.000000 -0.134291
v -0.109571 -0.000000 0.134291
v 0.109571 0.012360 -0.134291
vt 0.420000 0.205000
v 0.109571 0.000000 -0.134291
v 0.109571 0.012360 0.134291
vt 0.621000 0.205000
v 0.109571 -0.000000 0.134291
v 0.000000 3.938761 0.271859
vt 0.201000 0.029000
v 0.000000 3.938761 0.233543
vt 0.231000 0.029000
v 0.000000 3.905265 0.233543
vt 0.231000 0.007000
v 0.000000 3.905265 0.271859
vt 0.201000 0.007000
v 0.021568 2.696766 -0.055681
vt 0.035000 0.064000
vn 0.523300 -0.000000 -0.852100
v 0.048637 2.696766 -0.039057
vt 0.022000 0.061000
v 0.048637 2.577678 -0.039057
vt 0.022000 0.016000
v 0.021568 2.577678 -0.055681
vt 0.035000 0.019000
vn 0.817300 -0.000000 -0.576300
v 0.062233 2.696766 -0.019776
vt 0.008000 0.057000
v 0.062233 2.577678 -0.019776
vt 0.008000 0.012000
vt 0.917000 0.457000
vn 0.995200 -0.000000 0.098300
v 0.055558 2.696766 0.047772
vt 0.908000 0.492000
v 0.055558 2.577678 0.047772
vt 0.849000 0.475000
vt 0.857000 0.442000
vt 0.911000 0.473000
v -0.055620 2.696766 0.047772
vt 0.902000 0.496000
v -0.055620 2.577678 0.047772
vt 0.836000 0.473000
vt 0.845000 0.449000
vn -0.995200 -0.000000 0.098300
v -0.062294 2.696766 -0.019776
v -0.062294 2.577678 -0.019776
vt 0.075000 0.057000
vn -0.817300 -0.000000 -0.576300
v -0.048698 2.696766 -0.039057
vt 0.062000 0.061000
v -0.048698 2.577678 -0.039057
vt 0.062000 0.016000
vt 0.075000 0.012000
vn -0.523300 -0.000000 -0.852100
v -0.021630 2.696766 -0.055681
vt 0.048000 0.064000
v -0.021630 2.577678 -0.055681
vt 0.048000 0.019000
vt 0.918000 0.452000
vt 0.920000 0.447000
vt 0.859000 0.436000
vt 0.860000 0.431000
v 0.024473 2.694047 0.026513
vt 0.907000 0.487000
vn 0.964600 -0.247000 0.092200
v 0.024473 2.782854 0.264504
vt 0.908000 0.680000
v 0.006736 2.713576 0.264504
vt 0.864000 0.670000
vn 0.985000 -0.150000 0.085700
v 0.006736 2.577555 0.026513
vt 0.842000 0.468000
v 0.039799 2.782854 0.264504
v 0.039799 2.713576 0.264504
v 0.039799 2.782854 0.330198
vt 0.903000 0.708000
v 0.039799 2.713576 0.330198
vt 0.858000 0.698000
v -0.039861 2.782854 0.330198
v -0.039861 2.782854 0.264504
v -0.039861 2.713576 0.264504
v -0.039861 2.713576 0.330198
v -0.024596 2.782854 0.264504
v -0.006798 2.713576 0.264504
vn -0.987000 -0.150800 0.056300
v -0.024596 2.694047 0.026513
v -0.006798 2.577555 0.026513
vn -0.958900 -0.246400 0.140800
vt 0.908000 0.669000
vn -0.000000 0.936900 -0.349600
vt 0.892000 0.669000
vt 0.890000 0.516000
vt 0.906000 0.516000
vt 0.860000 0.663000
vn -0.000000 -0.868200 0.496200
vt 0.838000 0.499000
vt 0.844000 0.499000
vt 0.867000 0.662000
v 0.000000 3.997038 0.295096
vt 0.188000 0.050000
v -0.013596 3.997038 0.271550
vt 0.197000 0.050000
v -0.027192 3.997038 0.295096
v 0.013534 3.997038 0.271550
v 0.027130 3.997038 0.295096
v 0.013534 3.997038 0.318641
vt 0.179000 0.050000
v -0.013596 3.997038 0.318641
v -0.013596 3.889445 0.271550
vt 0.197000 0.008000
vn -0.866000 -0.000000 -0.500000
v -0.027192 3.889445 0.295096
vt 0.188000 0.008000
vn -0.866000 -0.000000 -0.500100
v 0.013534 3.889445 0.271550
v 0.027130 3.889445 0.295096
vn 0.866000 -0.000000 -0.500000
vn 0.866000 -0.000000 -0.500100
v 0.013534 3.889445 0.318641
vt 0.179000 0.008000
vn 0.866000 -0.000000 0.500100
vn 0.866000 -0.000000 0.500000
vn -0.866000 -0.000000 0.500100
v -0.013596 3.889445 0.318641
vn -0.866000 -0.000000 0.500000
v 0.000000 3.981156 0.289348
vt 0.190000 0.043000
vn 0.380300 0.924800 -0.003500
v 0.015326 3.974852 0.289348
vt 0.190000 0.040000
v 0.015326 3.974605 0.223778
vt 0.233000 0.040000
vn 0.380500 0.924800 -0.003500
v 0.000000 3.980909 0.223099
vt 0.234000 0.042000
vn 0.923700 0.383000 -0.001500
v 0.021630 3.959649 0.289348
vt 0.190000 0.036000
v 0.021630 3.959402 0.225447
vt 0.233000 0.036000
vn 0.923800 0.382900 -0.001400
vn 0.922400 -0.386200 0.001500
v 0.015265 3.944447 0.289348
vt 0.190000 0.032000
v 0.015265 3.944199 0.227116
vt 0.233000 0.032000
vn 0.922500 -0.386100 0.001500
vn 0.381700 -0.924300 0.003700
v 0.000000 3.938143 0.289348
vt 0.190000 0.029000
v 0.000000 3.937896 0.227795
vt 0.233000 0.029000
vn 0.381800 -0.924200 0.003700
vn -0.381600 -0.924300 0.003700
v -0.015265 3.944447 0.289348
v -0.015265 3.944199 0.227116
vn -0.381900 -0.924200 0.003700
vn -0.923700 -0.383000 0.001500
v -0.021568 3.959649 0.289348
v -0.021568 3.959402 0.225447
vn -0.923800 -0.382900 0.001500
vn -0.922400 0.386200 -0.001500
v -0.015203 3.974852 0.289348
v -0.015203 3.974605 0.223778
vn -0.922500 0.386100 -0.001500
vn -0.383000 0.923700 -0.003400
vn -0.383100 0.923700 -0.003500
v 0.015326 3.941975 0.106111
vt 0.888000 0.270000
vn 0.383200 0.890300 -0.246100
v 0.000000 3.948093 0.104381
vt 0.875000 0.270000
vt 0.875000 0.428000
vn 0.377900 0.892200 -0.247400
vt 0.888000 0.428000
v 0.021630 3.927267 0.110314
vt 0.901000 0.270000
vn 0.924600 0.367200 -0.101800
vn 0.922800 0.371200 -0.103600
vt 0.901000 0.428000
v 0.015265 3.912558 0.114454
vt 0.915000 0.270000
vn 0.923100 -0.370400 0.103400
vn 0.921400 -0.374200 0.105100
vt 0.915000 0.428000
v 0.000000 3.906501 0.116185
vt 0.928000 0.270000
vn 0.381400 -0.890000 0.250000
vn 0.379000 -0.890800 0.250600
vt 0.928000 0.428000
v -0.015265 3.912620 0.114454
vn -0.384500 -0.888600 0.250000
vn -0.379100 -0.891000 0.249800
v -0.021568 3.927328 0.110314
vn -0.924400 -0.367200 0.102900
vn -0.922800 -0.371300 0.103400
v -0.015203 3.942037 0.106111
vn -0.923300 0.370100 -0.103100
vn -0.921400 0.374400 -0.103600
vn -0.382700 0.890400 -0.246400
vn -0.380600 0.891300 -0.246400
v 0.015265 3.915030 0.051789
vt 0.888000 0.218000
vn 0.377100 0.829500 -0.412000
v 0.000000 3.920097 0.048019
vt 0.875000 0.218000
vn 0.377600 0.829400 -0.411800
v 0.021630 3.902855 0.061059
vt 0.901000 0.218000
vn 0.920800 0.348900 -0.174100
vn 0.922300 0.346300 -0.171600
v 0.015265 3.890619 0.070267
vt 0.915000 0.218000
vn 0.921000 -0.349000 0.173000
vn 0.920700 -0.349600 0.173600
v 0.000000 3.885613 0.074037
vt 0.928000 0.218000
vn 0.374200 -0.830600 0.412400
vn 0.376000 -0.830200 0.411500
v -0.015265 3.890681 0.070267
vn -0.377100 -0.829900 0.411300
vn -0.378900 -0.828900 0.411500
v -0.021568 3.902855 0.061059
vn -0.921900 -0.347000 0.172300
vn -0.922000 -0.346700 0.172200
v -0.015265 3.915092 0.051789
vn -0.922700 0.345300 -0.171600
vn -0.921000 0.349400 -0.172200
vn -0.374200 0.831000 -0.411700
vn -0.377300 0.829400 -0.412000
v 0.015265 3.860523 0.002102
vt 0.888000 0.165000
vn 0.377200 0.624100 -0.684300
v 0.000000 3.863921 -0.003213
vt 0.875000 0.165000
vn 0.376300 0.624200 -0.684700
v 0.021568 3.852489 0.015142
vt 0.901000 0.165000
vn 0.922400 0.260300 -0.285500
vn 0.921000 0.261900 -0.288500
v 0.015265 3.844455 0.028120
vt 0.915000 0.165000
vn 0.921900 -0.261700 0.285800
vn 0.921000 -0.262600 0.287700
v 0.000000 3.841117 0.033496
vt 0.928000 0.165000
vn 0.377400 -0.624400 0.683900
vn 0.374100 -0.624600 0.685500
v -0.015265 3.844455 0.028120
vn -0.377400 -0.623700 0.684500
vn -0.376300 -0.624200 0.684600
v -0.021630 3.852489 0.015142
vn -0.920600 -0.263100 0.288600
vn -0.921900 -0.260400 0.286800
v -0.015265 3.860584 0.002102
vn -0.921300 0.262500 -0.286800
vn -0.922800 0.259600 -0.284800
vn -0.375000 0.624500 -0.685100
vn -0.374100 0.624900 -0.685200
v 0.015265 3.800885 -0.011989
vt 0.888000 0.112000
vn 0.380600 0.217300 -0.898800
v 0.000000 3.802060 -0.018169
vt 0.875000 0.112000
vn 0.363400 0.214200 -0.906700
v 0.021568 3.798105 0.003029
vt 0.901000 0.112000
vn 0.924200 0.087800 -0.371700
vn 0.916800 0.086800 -0.389700
v 0.015265 3.795261 0.018046
vt 0.915000 0.112000
vn 0.924400 -0.082900 0.372300
vn 0.915300 -0.080800 0.394600
v 0.000000 3.794087 0.024288
vt 0.928000 0.112000
vn 0.384100 -0.185200 0.904500
vn 0.361500 -0.179200 0.915000
v -0.015265 3.795261 0.018046
vn -0.384100 -0.177400 0.906100
vn -0.362500 -0.187000 0.913000
v -0.021630 3.798105 0.003029
vn -0.923100 -0.077100 0.376700
vn -0.914800 -0.087800 0.394300
v -0.015265 3.800885 -0.011989
vn -0.923000 0.083700 -0.375700
vn -0.916200 0.092100 -0.390100
vn -0.380700 0.212400 -0.900000
vn -0.363200 0.218900 -0.905600
v 0.015203 3.498621 -0.011989
vt 0.888000 0.007000
vn 0.376600 -0.000000 -0.926400
v 0.000000 3.498621 -0.018169
vt 0.875000 0.007000
vn 0.375300 -0.000100 -0.926900
v 0.021568 3.498621 0.003029
vt 0.901000 0.007000
vn 0.920700 -0.000200 -0.390300
vn 0.922100 -0.000000 -0.387000
v 0.015203 3.498621 0.018046
vt 0.915000 0.007000
vn 0.920700 -0.000000 0.390300
vn 0.922100 -0.000200 0.387000
v 0.000000 3.498621 0.024288
vt 0.928000 0.007000
vn 0.379800 -0.000100 0.925100
vn 0.378500 -0.000000 0.925600
v -0.015326 3.498621 0.018046
vn -0.377200 -0.000000 0.926100
vn -0.378500 0.000100 0.925600
v -0.021630 3.498621 0.003029
vn -0.922100 0.000200 0.387000
vn -0.920700 -0.000000 0.390300
v -0.015326 3.498621 -0.011989
vn -0.922100 -0.000000 -0.387000
vn -0.920700 0.000200 -0.390200
vn -0.374000 0.000100 -0.927400
vn -0.375300 -0.000000 -0.926900
v 0.000000 3.504740 0.000001
vt 0.103000 0.044000
v -0.036091 3.504740 -0.036152
vt 0.093000 0.052000
v -0.051047 3.504740 0.000001
vt 0.102000 0.055000
v 0.000000 3.504740 -0.051108
vt 0.091000 0.043000
v 0.036029 3.504740 -0.036152
vt 0.095000 0.036000
v 0.050985 3.504740 0.000001
vt 0.102000 0.033000
v 0.036029 3.504740 0.035968
vt 0.110000 0.037000
v 0.000000 3.504740 0.050924
vt 0.112000 0.044000
v -0.036091 3.504740 0.035968
vt 0.109000 0.052000
v -0.030591 3.415315 -0.030652
vt 0.103000 0.009000
vn -0.921200 -0.080200 -0.380700
v -0.043260 3.415315 0.000001
vt 0.126000 0.010000
vt 0.126000 0.060000
vn -0.921100 -0.080100 -0.381000
vt 0.099000 0.059000
v 0.000000 3.415315 -0.043321
vt 0.094000 0.007000
vn -0.381400 -0.080100 -0.920900
vn -0.381600 -0.080200 -0.920800
vt 0.088000 0.057000
v 0.030529 3.415315 -0.030652
vn 0.382100 -0.080200 -0.920700
vn 0.382100 -0.080100 -0.920600
v 0.043198 3.415315 0.000001
vn 0.921200 -0.080100 -0.380700
vn 0.921100 -0.080200 -0.381000
v 0.030529 3.415315 0.030468
vt 0.149000 0.009000
vn 0.920400 -0.080100 0.382700
vt 0.154000 0.059000
v 0.000000 3.415315 0.043137
vt 0.159000 0.007000
vn 0.382100 -0.080100 0.920700
vn 0.382100 -0.080200 0.920600
vt 0.165000 0.057000
v -0.030591 3.415315 0.030468
vn -0.381400 -0.080200 0.920900
vn -0.381600 -0.080100 0.920900
vn -0.920400 -0.080100 0.382700
v -0.030591 0.247200 -0.030653
vt 0.946000 0.006000
vn -0.924200 -0.000000 -0.382000
v -0.043260 0.247200 0.000000
vt 0.965000 0.006000
vt 0.965000 0.996000
vt 0.946000 0.996000
v 0.000000 0.247200 -0.043322
vt 0.938000 0.006000
vn -0.382600 -0.000000 -0.923900
vt 0.938000 0.996000
v 0.030529 0.247200 -0.030653
vn 0.383300 -0.000000 -0.923600
v 0.043198 0.247200 0.000000
vn 0.924200 -0.000000 -0.382000
v 0.030529 0.247200 0.030467
vt 0.985000 0.006000
vn 0.923400 -0.000000 0.384000
vt 0.985000 0.996000
v 0.000000 0.247200 0.043136
vt 0.993000 0.006000
vn 0.383300 -0.000000 0.923600
vt 0.993000 0.996000
v -0.030591 0.247200 0.030467
vn -0.382600 -0.000000 0.923900
vn -0.923400 -0.000000 0.384000
f 1/1/1 2/2/1 3/3/1
f 4/4/2 5/5/2 2/6/2
f 1/1/3 3/3/3 4/4/3
f 3/3/3 5/5/3 4/4/3
f 6/7/4 7/8/4 5/5/4
f 8/9/4 4/4/4 1/1/4
f 1/1/4 9/10/4 8/9/4
f 1/1/5 4/4/5 2/2/5
f 2/6/6 5/5/6 3/3/6
f 6/7/7 3/3/7 5/5/7
f 10/1/1 11/2/1 12/3/1
f 13/4/2 14/5/2 11/6/2
f 15/9/7 16/10/7 10/1/7
f 10/1/7 13/4/7 15/9/7
f 13/4/3 10/1/3 12/3/3
f 12/3/3 14/5/3 13/4/3
f 14/5/4 12/3/4 17/7/4
f 17/7/4 18/8/4 14/5/4
f 11/2/5 10/1/5 13/4/5
f 11/6/6 14/5/6 12/3/6
f 19/11/8 20/11/8 21/12/8
f 21/12/8 22/12/8 19/11/8
f 20/13/4 23/14/4 24/15/4
f 24/15/4 21/16/4 20/13/4
f 23/17/9 25/17/9 26/18/9
f 26/18/9 24/18/9 23/17/9
f 25/17/7 19/11/7 22/12/7
f 22/12/7 26/18/7 25/17/7
f 23/17/3 20/11/3 19/11/3
f 19/11/3 25/17/3 23/17/3
f 24/18/10 26/18/10 22/12/10
f 22/12/10 21/12/10 24/18/10
f 27/19/11 28/20/11 29/21/11
f 29/21/11 30/22/11 27/19/11
f 28/20/12 31/23/12 32/24/12
f 32/24/12 29/21/12 28/20/12
f 33/25/13 32/24/13 31/23/13
f 34/26/14 35/27/14 36/28/14
f 35/27/15 37/29/15 38/30/15
f 38/30/15 36/28/15 35/27/15
f 37/29/16 39/31/16 40/32/16
f 40/32/16 38/30/16 37/29/16
f 39/31/7 27/19/7 30/22/7
f 30/22/7 40/32/7 39/31/7
f 41/33/17 42/34/17 43/35/17
f 34/26/18 33/25/18 31/23/18
f 31/23/18 35/27/18 34/26/18
f 35/27/3 31/23/3 28/20/3
f 28/20/3 37/29/3 35/27/3
f 37/29/3 28/20/3 27/19/3
f 27/19/3 39/31/3 37/29/3
f 41/33/19 44/36/19 43/35/19
f 42/34/20 34/26/20 33/25/20
f 33/25/20 41/33/20 42/34/20
f 34/26/21 36/28/21 32/24/21
f 32/24/21 33/25/21 34/26/21
f 36/28/10 38/30/10 29/21/10
f 29/21/10 32/24/10 36/28/10
f 38/30/10 40/32/10 30/22/10
f 30/22/10 29/21/10 38/30/10
f 45/1/1 46/2/1 47/3/1
f 48/4/2 49/5/2 46/6/2
f 48/4/3 45/1/3 47/3/3
f 47/3/3 49/5/3 48/4/3
f 49/5/4 47/3/4 50/7/4
f 51/9/4 48/4/4 45/1/4
f 45/1/4 52/10/4 51/9/4
f 46/2/5 45/1/5 48/4/5
f 46/6/6 49/5/6 47/3/6
f 49/5/7 53/8/7 50/7/7
f 54/1/1 55/2/1 56/3/1
f 57/4/2 58/5/2 55/6/2
f 59/9/7 60/10/7 54/1/7
f 54/1/7 57/4/7 59/9/7
f 57/4/3 54/1/3 56/3/3
f 56/3/3 58/5/3 57/4/3
f 58/5/4 56/3/4 61/7/4
f 61/7/4 62/8/4 58/5/4
f 55/2/5 54/1/5 57/4/5
f 55/6/6 58/5/6 56/3/6
f 63/1/1 64/2/1 65/3/1
f 66/4/2 67/5/2 64/6/2
f 68/9/7 69/10/7 63/1/7
f 63/1/7 66/4/7 68/9/7
f 66/4/3 63/1/3 65/3/3
f 65/3/3 67/5/3 66/4/3
f 67/5/4 65/3/4 70/7/4
f 70/7/4 71/8/4 67/5/4
f 64/2/5 63/1/5 66/4/5
f 64/6/6 67/5/6 65/3/6
f 72/1/1 73/2/1 74/3/1
f 75/4/2 76/5/2 73/6/2
f 75/4/3 72/1/3 74/3/3
f 74/3/3 76/5/3 75/4/3
f 76/5/4 74/3/4 77/7/4
f 77/7/4 78/8/4 76/5/4
f 79/9/4 75/4/4 72/1/4
f 72/1/4 80/10/4 79/9/4
f 73/2/5 72/1/5 75/4/5
f 73/6/6 76/5/6 74/3/6
f 81/1/1 82/2/1 83/3/1
f 84/4/2 85/5/2 82/6/2
f 84/4/3 81/1/3 83/3/3
f 83/3/3 85/5/3 84/4/3
f 85/5/4 83/3/4 86/7/4
f 86/7/4 87/8/4 85/5/4
f 88/9/4 84/4/4 81/1/4
f 81/1/4 89/10/4 88/9/4
f 82/2/5 81/1/5 84/4/5
f 82/6/6 85/5/6 83/3/6
f 90/1/1 91/2/1 92/3/1
f 93/4/2 94/5/2 91/6/2
f 93/4/3 90/1/3 92/3/3
f 92/3/3 94/5/3 93/4/3
f 94/5/4 92/3/4 95/7/4
f 95/7/4 96/8/4 94/5/4
f 97/9/4 93/4/4 90/1/4
f 90/1/4 98/10/4 97/9/4
f 91/2/5 90/1/5 93/4/5
f 91/6/6 94/5/6 92/3/6
f 99/1/1 100/2/1 101/3/1
f 102/4/2 103/5/2 100/6/2
f 102/4/3 99/1/3 101/3/3
f 101/3/3 103/5/3 102/4/3
f 104/9/4 102/4/4 99/1/4
f 99/1/4 105/10/4 104/9/4
f 100/2/5 99/1/5 102/4/5
f 100/6/6 103/5/6 101/3/6
f 103/5/7 106/8/7 107/7/7
f 107/7/7 101/3/7 103/5/7
f 108/1/1 109/2/1 110/3/1
f 111/4/2 112/5/2 109/6/2
f 108/1/7 111/4/7 113/9/7
f 111/4/3 108/1/3 110/3/3
f 110/3/3 112/5/3 111/4/3
f 112/5/4 110/3/4 114/7/4
f 114/7/4 115/8/4 112/5/4
f 108/1/4 116/10/4 113/9/4
f 109/2/5 108/1/5 111/4/5
f 109/6/6 112/5/6 110/3/6
f 117/1/1 118/2/1 119/3/1
f 120/4/2 121/5/2 118/6/2
f 122/9/7 123/10/7 117/1/7
f 117/1/7 120/4/7 122/9/7
f 120/4/3 117/1/3 119/3/3
f 119/3/3 121/5/3 120/4/3
f 121/5/4 119/3/4 124/7/4
f 124/7/4 125/8/4 121/5/4
f 118/2/5 117/1/5 120/4/5
f 118/6/6 121/5/6 119/3/6
f 126/1/1 127/2/1 128/3/1
f 129/4/2 130/5/2 127/6/2
f 129/4/3 126/1/3 128/3/3
f 128/3/3 130/5/3 129/4/3
f 130/5/4 128/3/4 131/7/4
f 131/7/4 132/8/4 130/5/4
f 133/9/4 129/4/4 126/1/4
f 126/1/4 134/10/4 133/9/4
f 127/2/5 126/1/5 129/4/5
f 127/6/6 130/5/6 128/3/6
f 135/1/1 136/2/1 137/3/1
f 138/4/2 139/5/2 136/6/2
f 140/9/7 141/10/7 135/1/7
f 135/1/7 138/4/7 140/9/7
f 138/4/3 135/1/3 137/3/3
f 137/3/3 139/5/3 138/4/3
f 139/5/4 137/3/4 142/7/4
f 136/2/5 135/1/5 138/4/5
f 136/6/6 139/5/6 137/3/6
f 139/5/7 143/8/7 142/7/7
f 144/1/1 145/2/1 146/3/1
f 147/4/2 148/5/2 145/6/2
f 149/9/7 150/10/7 144/1/7
f 144/1/7 147/4/7 149/9/7
f 147/4/3 144/1/3 146/3/3
f 146/3/3 148/5/3 147/4/3
f 148/5/4 146/3/4 151/7/4
f 145/2/5 144/1/5 147/4/5
f 145/6/6 148/5/6 146/3/6
f 148/5/7 152/8/7 151/7/7
f 153/1/1 154/2/1 155/3/1
f 156/4/2 157/5/2 154/6/2
f 153/1/7 156/4/7 158/9/7
f 156/4/3 153/1/3 155/3/3
f 155/3/3 157/5/3 156/4/3
f 157/5/4 155/3/4 159/7/4
f 153/1/4 160/10/4 158/9/4
f 154/2/5 153/1/5 156/4/5
f 154/6/6 157/5/6 155/3/6
f 157/5/7 161/8/7 159/7/7
f 162/37/3 163/38/3 164/39/3
f 162/37/3 165/40/3 163/38/3
f 166/38/3 162/37/3 167/39/3
f 166/38/3 165/40/3 162/37/3
f 166/41/8 168/42/8 163/43/8
f 166/41/8 169/44/8 168/42/8
f 170/44/9 164/43/9 171/42/9
f 170/44/9 167/41/9 164/43/9
f 172/45/22 173/46/22 174/47/22
f 174/47/22 175/48/22 172/45/22
f 173/49/4 176/50/4 177/51/4
f 177/51/4 174/52/4 173/49/4
f 176/53/23 178/54/23 179/48/23
f 179/48/23 177/47/23 176/53/23
f 178/50/7 172/49/7 175/52/7
f 175/52/7 179/51/7 178/50/7
f 180/55/8 181/56/8 182/57/8
f 182/57/8 183/58/8 180/55/8
f 181/56/24 184/59/24 185/60/24
f 185/60/24 182/57/24 181/56/24
f 184/59/9 186/61/9 187/62/9
f 187/62/9 185/60/9 184/59/9
f 186/61/25 180/55/25 183/58/25
f 183/58/25 187/62/25 186/61/25
f 175/48/8 174/47/8 188/63/8
f 188/63/8 189/64/8 175/48/8
f 174/52/4 177/51/4 190/65/4
f 190/65/4 188/66/4 174/52/4
f 177/47/9 179/48/9 191/64/9
f 191/64/9 190/63/9 177/47/9
f 179/51/7 175/52/7 189/66/7
f 189/66/7 191/65/7 179/51/7
f 176/53/3 173/46/3 172/45/3
f 172/45/3 178/54/3 176/53/3
f 166/67/4 167/68/4 170/69/4
f 170/69/4 169/70/4 166/67/4
f 164/67/7 163/68/7 168/69/7
f 168/69/7 171/70/7 164/67/7
f 170/71/10 171/72/10 168/73/10
f 168/73/10 169/74/10 170/71/10
f 192/75/8 193/76/8 194/76/8
f 194/76/8 195/75/8 192/75/8
f 193/76/4 196/77/4 197/77/4
f 197/77/4 194/76/4 193/76/4
f 196/77/9 198/78/9 199/78/9
f 199/78/9 197/77/9 196/77/9
f 198/78/7 192/75/7 195/75/7
f 195/75/7 199/78/7 198/78/7
f 196/77/3 193/76/3 192/75/3
f 192/75/3 198/78/3 196/77/3
f 200/79/8 201/80/8 202/80/8
f 202/80/8 203/79/8 200/79/8
f 201/80/4 204/81/4 205/81/4
f 205/81/4 202/80/4 201/80/4
f 204/81/9 206/82/9 207/82/9
f 207/82/9 205/81/9 204/81/9
f 206/82/7 200/79/7 203/79/7
f 203/79/7 207/82/7 206/82/7
f 204/81/3 201/80/3 200/79/3
f 200/79/3 206/82/3 204/81/3
f 208/83/8 209/84/8 210/85/8
f 210/85/8 211/86/8 208/83/8
f 209/84/9 208/83/9 211/86/9
f 211/86/9 210/85/9 209/84/9
f 212/87/26 213/88/26 214/89/26
f 214/89/26 215/90/26 212/87/26
f 213/88/27 216/91/27 217/92/27
f 217/92/27 214/89/27 213/88/27
f 216/93/28 218/94/28 219/95/28
f 219/95/28 217/96/28 216/93/28
f 218/97/7 220/98/7 221/99/7
f 221/99/7 219/100/7 218/97/7
f 220/94/29 222/93/29 223/96/29
f 223/96/29 221/95/29 220/94/29
f 222/101/30 224/102/30 225/103/30
f 225/103/30 223/104/30 222/101/30
f 224/102/31 226/105/31 227/106/31
f 227/106/31 225/103/31 224/102/31
f 226/105/4 212/87/4 215/90/4
f 215/90/4 227/106/4 226/105/4
f 220/94/3 218/94/3 216/93/3
f 216/93/3 222/93/3 220/94/3
f 222/93/3 216/93/3 213/107/3
f 213/107/3 224/107/3 222/93/3
f 224/107/3 213/107/3 212/108/3
f 212/108/3 226/108/3 224/107/3
f 221/95/10 223/96/10 217/96/10
f 217/96/10 219/95/10 221/95/10
f 223/96/10 225/109/10 214/109/10
f 214/109/10 217/96/10 223/96/10
f 225/109/10 227/110/10 215/110/10
f 215/110/10 214/109/10 225/109/10
f 228/111/32 229/112/32 230/113/32
f 230/113/33 231/114/33 228/111/33
f 229/112/4 232/112/4 233/113/4
f 233/113/4 230/113/4 229/112/4
f 232/112/9 234/115/9 235/116/9
f 235/116/9 233/113/9 232/112/9
f 236/115/8 237/112/8 238/113/8
f 238/113/8 239/116/8 236/115/8
f 237/112/4 240/112/4 241/113/4
f 241/113/4 238/113/4 237/112/4
f 240/112/34 242/111/34 243/114/34
f 243/114/35 241/113/35 240/112/35
f 240/117/36 229/118/36 228/119/36
f 228/119/36 242/120/36 240/117/36
f 239/116/10 238/113/10 233/113/10
f 233/113/10 235/116/10 239/116/10
f 241/121/37 243/122/37 231/123/37
f 231/123/37 230/124/37 241/121/37
f 244/125/3 245/126/3 246/125/3
f 244/125/3 247/126/3 245/126/3
f 244/125/3 248/125/3 247/126/3
f 244/125/3 249/127/3 248/125/3
f 244/125/3 250/127/3 249/127/3
f 244/125/3 246/125/3 250/127/3
f 251/128/38 252/129/38 246/125/38
f 251/128/39 246/125/39 245/126/39
f 253/128/4 251/128/4 245/126/4
f 253/128/4 245/126/4 247/126/4
f 254/129/40 253/128/40 247/126/40
f 254/129/41 247/126/41 248/125/41
f 255/130/42 254/129/42 248/125/42
f 255/130/43 248/125/43 249/127/43
f 252/129/44 256/130/44 250/127/44
f 252/129/45 250/127/45 246/125/45
f 257/131/46 258/132/46 259/133/46
f 259/133/47 260/134/47 257/131/47
f 258/132/48 261/135/48 262/136/48
f 262/136/49 259/133/49 258/132/49
f 261/135/50 263/137/50 264/138/50
f 264/138/51 262/136/51 261/135/51
f 263/137/52 265/139/52 266/140/52
f 266/140/53 264/138/53 263/137/53
f 265/139/54 267/137/54 268/138/54
f 268/138/55 266/140/55 265/139/55
f 267/137/56 269/135/56 270/136/56
f 270/136/57 268/138/57 267/137/57
f 269/135/58 271/132/58 272/133/58
f 272/133/59 270/136/59 269/135/59
f 271/132/60 257/131/60 260/134/60
f 260/134/61 272/133/61 271/132/61
f 273/141/62 274/142/62 260/143/62
f 273/141/63 260/143/63 259/144/63
f 275/145/64 273/141/64 259/144/64
f 275/145/65 259/144/65 262/146/65
f 276/147/66 275/145/66 262/146/66
f 276/147/67 262/146/67 264/148/67
f 277/149/68 276/147/68 264/148/68
f 277/149/69 264/148/69 266/150/69
f 278/147/70 277/149/70 266/150/70
f 278/147/71 266/150/71 268/148/71
f 279/145/72 278/147/72 268/148/72
f 279/145/73 268/148/73 270/146/73
f 280/141/74 279/145/74 270/146/74
f 280/141/75 270/146/75 272/144/75
f 274/142/76 280/141/76 272/144/76
f 274/142/77 272/144/77 260/143/77
f 281/151/78 282/152/78 274/142/78
f 281/151/79 274/142/79 273/141/79
f 283/153/80 281/151/80 273/141/80
f 283/153/81 273/141/81 275/145/81
f 284/154/82 283/153/82 275/145/82
f 284/154/83 275/145/83 276/147/83
f 285/155/84 284/154/84 276/147/84
f 285/155/85 276/147/85 277/149/85
f 286/154/86 285/155/86 277/149/86
f 286/154/87 277/149/87 278/147/87
f 287/153/88 286/154/88 278/147/88
f 287/153/89 278/147/89 279/145/89
f 288/151/90 287/153/90 279/145/90
f 288/151/91 279/145/91 280/141/91
f 282/152/92 288/151/92 280/141/92
f 282/152/93 280/141/93 274/142/93
f 289/156/94 290/157/94 282/152/94
f 289/156/95 282/152/95 281/151/95
f 291/158/96 289/156/96 281/151/96
f 291/158/97 281/151/97 283/153/97
f 292/159/98 291/158/98 283/153/98
f 292/159/99 283/153/99 284/154/99
f 293/160/100 292/159/100 284/154/100
f 293/160/101 284/154/101 285/155/101
f 294/159/102 293/160/102 285/155/102
f 294/159/103 285/155/103 286/154/103
f 295/158/104 294/159/104 286/154/104
f 295/158/105 286/154/105 287/153/105
f 296/156/106 295/158/106 287/153/106
f 296/156/107 287/153/107 288/151/107
f 290/157/108 296/156/108 288/151/108
f 290/157/109 288/151/109 282/152/109
f 297/161/110 298/162/110 290/157/110
f 297/161/111 290/157/111 289/156/111
f 299/163/112 297/161/112 289/156/112
f 299/163/113 289/156/113 291/158/113
f 300/164/114 299/163/114 291/158/114
f 300/164/115 291/158/115 292/159/115
f 301/165/116 300/164/116 292/159/116
f 301/165/117 292/159/117 293/160/117
f 302/164/118 301/165/118 293/160/118
f 302/164/119 293/160/119 294/159/119
f 303/163/120 302/164/120 294/159/120
f 303/163/121 294/159/121 295/158/121
f 304/161/122 303/163/122 295/158/122
f 304/161/123 295/158/123 296/156/123
f 298/162/124 304/161/124 296/156/124
f 298/162/125 296/156/125 290/157/125
f 305/166/126 306/167/126 298/162/126
f 305/166/127 298/162/127 297/161/127
f 307/168/128 305/166/128 297/161/128
f 307/168/129 297/161/129 299/163/129
f 308/169/130 307/168/130 299/163/130
f 308/169/131 299/163/131 300/164/131
f 309/170/132 308/169/132 300/164/132
f 309/170/133 300/164/133 301/165/133
f 310/169/134 309/170/134 301/165/134
f 310/169/135 301/165/135 302/164/135
f 311/168/136 310/169/136 302/164/136
f 311/168/137 302/164/137 303/163/137
f 312/166/138 311/168/138 303/163/138
f 312/166/139 303/163/139 304/161/139
f 306/167/140 312/166/140 304/161/140
f 306/167/141 304/161/141 298/162/141
f 313/171/3 314/172/3 315/173/3
f 313/171/3 316/174/3 314/172/3
f 313/171/3 317/175/3 316/174/3
f 313/171/3 318/176/3 317/175/3
f 313/171/3 319/177/3 318/176/3
f 313/171/3 320/178/3 319/177/3
f 313/171/3 321/179/3 320/178/3
f 313/171/3 315/173/3 321/179/3
f 322/180/142 323/181/142 315/182/142
f 322/180/143 315/182/143 314/183/143
f 324/184/144 322/180/144 314/183/144
f 324/184/145 314/183/145 316/185/145
f 325/180/146 324/184/146 316/185/146
f 325/180/147 316/185/147 317/183/147
f 326/181/148 325/180/148 317/183/148
f 326/181/149 317/183/149 318/182/149
f 327/186/150 326/181/150 318/182/150
f 327/186/150 318/182/150 319/187/150
f 328/188/151 327/186/151 319/187/151
f 328/188/152 319/187/152 320/189/152
f 329/186/153 328/188/153 320/189/153
f 329/186/154 320/189/154 321/187/154
f 323/181/155 329/186/155 321/187/155
f 323/181/155 321/187/155 315/182/155
f 330/190/156 331/191/156 323/192/156
f 330/190/156 323/192/156 322/193/156
f 332/194/157 330/190/157 322/193/157
f 332/194/157 322/193/157 324/195/157
f 333/190/158 332/194/158 324/195/158
f 333/190/158 324/195/158 325/193/158
f 334/191/159 333/190/159 325/193/159
f 334/191/159 325/193/159 326/192/159
f 335/196/160 334/191/160 326/192/160
f 335/196/160 326/192/160 327/197/160
f 336/198/161 335/196/161 327/197/161
f 336/198/161 327/197/161 328/199/161
f 337/196/162 336/198/162 328/199/162
f 337/196/162 328/199/162 329/197/162
f 331/191/163 337/196/163 329/197/163
f 331/191/163 329/197/163 323/192/163
