# generated by tools/objdedupe/dedupe.py -- do not hand-edit.
# Re-run the tool after touching azd_1svet.obj, azd_2svet.obj, azd_3svet.obj, azd_4svet.obj, azd_5svet.obj, azd_6svet.obj.
o stozar_5svet_R_2pruhy
v 0.330197 2.713823 0.039800
vt 0.904000 0.702000
vn 1.000000 -0.000000 -0.000000
v 0.330197 2.783163 -0.039861
vt 0.866000 0.700000
v 0.330197 2.783163 0.039800
vt 0.903000 0.708000
v 0.330197 2.713823 -0.039861
vt 0.867000 0.694000
v 0.233542 3.938576 0.000001
vt 0.231000 0.029000
vn -0.000000 -0.000000 -1.000000
v 0.271858 3.938576 0.000001
vt 0.201000 0.029000
v 0.233542 3.905142 0.000001
vt 0.231000 0.007000
v 0.271858 3.905142 0.000001
vt 0.201000 0.007000
vn -0.000000 -0.000000 1.000000
v -0.039058 2.697014 0.048637
vt 0.022000 0.061000
vn -0.852100 -0.000000 0.523300
v -0.055682 2.697014 0.021569
vt 0.035000 0.064000
v -0.039058 2.577987 0.048637
vt 0.022000 0.016000
v -0.055682 2.577987 0.021569
vt 0.035000 0.019000
v -0.019776 2.697014 0.062233
vt 0.008000 0.057000
vn -0.576300 -0.000000 0.817300
v -0.019776 2.577987 0.062233
vt 0.008000 0.012000
v 0.047771 2.697014 0.055559
vt 0.908000 0.492000
vn 0.098300 -0.000000 0.995200
vt 0.917000 0.457000
v 0.047771 2.577987 0.055559
vt 0.849000 0.475000
vt 0.857000 0.442000
v 0.047771 2.697014 -0.055620
vt 0.902000 0.496000
vt 0.911000 0.473000
v 0.047771 2.577987 -0.055620
vt 0.836000 0.473000
vt 0.845000 0.449000
v -0.019776 2.697014 -0.062294
vn 0.098300 -0.000000 -0.995200
v -0.019776 2.577987 -0.062294
v -0.039058 2.697014 -0.048698
vt 0.062000 0.061000
vn -0.576300 -0.000000 -0.817300
vt 0.075000 0.057000
v -0.039058 2.577987 -0.048698
vt 0.062000 0.016000
vt 0.075000 0.012000
v -0.055682 2.697014 -0.021630
vt 0.048000 0.064000
vn -0.852100 -0.000000 -0.523300
v -0.055682 2.577987 -0.021630
vt 0.048000 0.019000
vn -1.000000 -0.000000 -0.000000
vn -0.000000 1.000000 -0.000000
vt 0.918000 0.452000
vt 0.920000 0.447000
vn -0.000000 -1.000000 -0.000000
vt 0.859000 0.436000
vt 0.860000 0.431000
v 0.264504 2.783163 0.024473
vt 0.908000 0.680000
vn 0.092100 -0.246800 0.964700
v 0.026512 2.694295 0.024473
vt 0.907000 0.487000
v 0.264504 2.713823 0.006737
vt 0.864000 0.670000
v 0.026512 2.577802 0.006737
vt 0.842000 0.468000
vn 0.085700 -0.150000 0.985000
v 0.264504 2.783163 0.039800
v 0.264504 2.713823 0.039800
v 0.264504 2.783163 -0.039861
v 0.264504 2.713823 -0.039861
vt 0.858000 0.698000
v 0.264504 2.783163 -0.024596
v 0.264504 2.713823 -0.006798
v 0.026512 2.694295 -0.024596
vn 0.056300 -0.150800 -0.987000
v 0.026512 2.577802 -0.006798
vn 0.140700 -0.246200 -0.959000
vt 0.892000 0.669000
vn -0.349800 0.936800 -0.000000
vt 0.908000 0.669000
vt 0.890000 0.516000
vt 0.906000 0.516000
vt 0.838000 0.499000
vn 0.496200 -0.868200 -0.000000
vt 0.860000 0.663000
vt 0.844000 0.499000
vt 0.867000 0.662000
v 0.305786 3.996915 -0.020579
vt 0.197000 0.050000
v 0.292190 3.996915 0.002905
vt 0.188000 0.050000
v 0.319382 3.996915 0.002905
v 0.278594 3.996915 -0.020579
v 0.264998 3.996915 0.002905
v 0.278594 3.996915 0.026451
vt 0.179000 0.050000
v 0.305786 3.996915 0.026451
v 0.319444 3.889321 0.002905
vt 0.188000 0.008000
vn 0.865400 0.000500 -0.501000
v 0.305848 3.889321 -0.020579
vt 0.197000 0.008000
v 0.278718 3.889321 -0.020579
vn -0.865400 -0.001000 -0.501000
v 0.265122 3.889321 0.002905
vn -0.866000 -0.001000 0.500100
v 0.278718 3.889321 0.026451
vt 0.179000 0.008000
vn -0.866000 -0.001000 0.500000
v 0.305848 3.889321 0.026451
vn 0.866000 0.000500 0.500000
vn 0.866000 0.000500 0.500100
v 0.289348 3.974729 0.015327
vt 0.190000 0.040000
vn -0.003500 0.924800 0.380400
v 0.289348 3.981032 0.000001
vt 0.190000 0.043000
v 0.223778 3.974481 0.015327
vt 0.233000 0.040000
v 0.223098 3.980785 0.000001
vt 0.234000 0.042000
vn -0.003400 0.924800 0.380500
v 0.289348 3.959526 0.021631
vt 0.190000 0.036000
vn -0.001500 0.383000 0.923700
v 0.225446 3.959279 0.021631
vt 0.233000 0.036000
vn -0.001400 0.382900 0.923800
v 0.289348 3.944323 0.015265
vt 0.190000 0.032000
vn 0.001500 -0.386200 0.922400
v 0.227115 3.944076 0.015265
vt 0.233000 0.032000
vn 0.001500 -0.386100 0.922500
v 0.289348 3.938020 0.000001
vt 0.190000 0.029000
vn 0.003700 -0.924300 0.381700
v 0.227795 3.937773 0.000001
vt 0.233000 0.029000
vn 0.003700 -0.924200 0.381800
v 0.289348 3.944323 -0.015264
vn 0.003700 -0.924300 -0.381700
v 0.227115 3.944076 -0.015264
vn 0.003700 -0.924200 -0.381800
v 0.289348 3.959526 -0.021568
vn 0.001500 -0.383000 -0.923700
v 0.225446 3.959279 -0.021568
vn 0.001500 -0.382900 -0.923800
v 0.289348 3.974729 -0.015202
vn -0.001500 0.386200 -0.922400
v 0.223778 3.974481 -0.015202
vn -0.001500 0.386100 -0.922500
vn -0.003400 0.923700 -0.383000
vn -0.003500 0.923700 -0.383100
v 0.104380 3.947969 0.000001
vt 0.875000 0.270000
vn -0.246100 0.890300 0.383200
v 0.106111 3.941851 0.015327
vt 0.888000 0.270000
vt 0.875000 0.428000
vn -0.247400 0.892200 0.377900
vt 0.888000 0.428000
vn -0.101800 0.367200 0.924600
v 0.110313 3.927143 0.021631
vt 0.901000 0.270000
vn -0.103600 0.371200 0.922700
vt 0.901000 0.428000
vn 0.103400 -0.370400 0.923100
v 0.114454 3.912435 0.015265
vt 0.915000 0.270000
vn 0.105100 -0.374200 0.921400
vt 0.915000 0.428000
vn 0.250000 -0.890000 0.381400
v 0.116184 3.906378 0.000001
vt 0.928000 0.270000
vn 0.250600 -0.890800 0.379000
vt 0.928000 0.428000
vn 0.250300 -0.889900 -0.381500
v 0.114454 3.912435 -0.015264
vn 0.250200 -0.890900 -0.379000
vn 0.102800 -0.365900 -0.924900
v 0.110313 3.927205 -0.021568
vn 0.103400 -0.371300 -0.922800
vn -0.103100 0.370100 -0.923300
v 0.106111 3.941913 -0.015202
vn -0.103600 0.374400 -0.921400
vn -0.246400 0.890400 -0.382700
vn -0.246400 0.891300 -0.380600
v 0.048019 3.919974 0.000001
vt 0.875000 0.218000
vn -0.412000 0.829500 0.377100
v 0.051788 3.914907 0.015265
vt 0.888000 0.218000
vn -0.411800 0.829400 0.377600
vn -0.174100 0.348900 0.920800
v 0.061058 3.902732 0.021631
vt 0.901000 0.218000
vn -0.171600 0.346200 0.922300
vn 0.173000 -0.349000 0.921000
v 0.070267 3.890496 0.015265
vt 0.915000 0.218000
vn 0.173600 -0.349600 0.920700
vn 0.412400 -0.830600 0.374200
v 0.074036 3.885489 0.000001
vt 0.928000 0.218000
vn 0.411500 -0.830200 0.376100
vn 0.411800 -0.830900 -0.374200
v 0.070267 3.890496 -0.015264
vn 0.412100 -0.830000 -0.376000
vn 0.171800 -0.345900 -0.922400
v 0.061058 3.902732 -0.021568
vn 0.171700 -0.345600 -0.922500
vn -0.172100 0.346400 -0.922200
v 0.051788 3.914907 -0.015264
vn -0.172600 0.349300 -0.921000
vn -0.412000 0.829500 -0.377100
vn -0.412000 0.829400 -0.377300
v -0.003214 3.863736 0.000001
vt 0.875000 0.165000
vn -0.685300 0.624300 0.375100
v 0.002101 3.860399 0.015265
vt 0.888000 0.165000
vn -0.684700 0.624200 0.376300
vn -0.285500 0.260300 0.922400
v 0.015141 3.852365 0.021569
vt 0.901000 0.165000
vn -0.288500 0.261900 0.921000
vn 0.285800 -0.261700 0.921900
v 0.028119 3.844331 0.015265
vt 0.915000 0.165000
vn 0.287700 -0.262600 0.921000
vn 0.683900 -0.624400 0.377400
v 0.033496 3.840994 0.000001
vt 0.928000 0.165000
vn 0.685500 -0.624600 0.374100
vn 0.684500 -0.623700 -0.377400
v 0.028119 3.844331 -0.015264
vn 0.684900 -0.625300 -0.374200
vn 0.288500 -0.263400 -0.920600
v 0.015141 3.852365 -0.021629
vn 0.286200 -0.259800 -0.922300
vn -0.286700 0.262500 -0.921300
v 0.002101 3.860461 -0.015264
vn -0.285300 0.260400 -0.922400
vn -0.685400 0.625500 -0.372900
vn -0.684900 0.624000 -0.376300
v -0.018169 3.801936 0.000001
vt 0.875000 0.112000
vn -0.898800 0.217500 0.380600
v -0.011989 3.800762 0.015265
vt 0.888000 0.112000
vn -0.907000 0.214300 0.362600
vn -0.371400 0.087700 0.924300
v 0.003028 3.797919 0.021569
vt 0.901000 0.112000
vn -0.389800 0.086700 0.916800
vn 0.372600 -0.082900 0.924300
v 0.018046 3.795138 0.015265
vt 0.915000 0.112000
vn 0.394600 -0.080800 0.915300
vn 0.904500 -0.185200 0.384100
v 0.024287 3.793964 0.000001
vt 0.928000 0.112000
vn 0.915000 -0.179200 0.361500
vn 0.906100 -0.177400 -0.384100
v 0.018046 3.795138 -0.015264
vn 0.913000 -0.187000 -0.362500
vn 0.376700 -0.077100 -0.923100
v 0.003028 3.797981 -0.021629
vn 0.394300 -0.087800 -0.914800
vn -0.375700 0.083700 -0.922900
v -0.011989 3.800762 -0.015264
vn -0.390100 0.092100 -0.916200
vn -0.900000 0.212400 -0.380700
vn -0.905900 0.219200 -0.362400
v -0.018169 3.480082 0.000001
vt 0.875000 0.007000
vn -0.926400 -0.000000 0.376600
v -0.011989 3.480082 0.015203
vt 0.888000 0.007000
vn -0.926900 -0.000100 0.375300
vn -0.390300 -0.000200 0.920700
v 0.003028 3.480082 0.021569
vt 0.901000 0.007000
vn -0.387000 -0.000000 0.922100
vn 0.390300 -0.000000 0.920700
v 0.018046 3.480082 0.015203
vt 0.915000 0.007000
vn 0.387000 -0.000200 0.922100
vn 0.925100 -0.000100 0.379800
v 0.024287 3.480082 0.000001
vt 0.928000 0.007000
vn 0.925600 -0.000000 0.378500
vn 0.926100 -0.000000 -0.377200
v 0.018046 3.480082 -0.015326
vn 0.925600 0.000100 -0.378500
vn 0.387000 0.000200 -0.922100
v 0.003028 3.480082 -0.021629
vn 0.390300 -0.000000 -0.920700
vn -0.387000 -0.000000 -0.922100
v -0.011989 3.480082 -0.015326
vn -0.390200 0.000200 -0.920700
vn -0.927400 0.000100 -0.374000
vn -0.926900 -0.000000 -0.375300
v -0.011557 0.710082 -0.128544
vt 0.820000 0.786000
vn -0.970300 -0.241900 -0.000000
v 0.000000 0.663732 0.000000
vt 0.843000 0.681000
v -0.011557 0.710082 0.128544
vt 0.820000 0.583000
v 0.011557 0.710082 -0.128544
vt 0.816000 0.782000
vn 0.970300 -0.241900 -0.000000
v 0.011557 0.710082 0.128544
vt 0.816000 0.579000
vt 0.839000 0.676000
v -0.011557 0.726768 0.128544
vt 0.805000 0.583000
v 0.011557 0.726768 -0.128544
vt 0.801000 0.782000
v -0.011557 0.726768 -0.128544
vt 0.805000 0.786000
vn -0.000000 -0.940700 -0.339200
vn -0.000000 -0.940700 0.339200
v 0.011557 0.726768 0.128544
vt 0.801000 0.579000
v -0.011557 2.545666 -0.128544
v 0.000000 2.499316 0.000000
v -0.011557 2.545666 0.128544
v 0.011557 2.545666 -0.128544
v 0.011557 2.545666 0.128544
v -0.011557 2.562290 0.128544
v 0.011557 2.562290 -0.128544
v -0.011557 2.562290 -0.128544
v 0.011557 2.562290 0.128544
v -0.036895 2.366940 0.137876
vt 0.596000 0.885000
v -0.036895 2.366940 0.128544
v -0.036895 0.912106 0.128544
vt 0.596000 0.218000
v -0.036895 0.912106 0.137876
vt 0.946000 0.782000
v 0.036895 2.366940 0.128544
vt 0.986000 0.782000
v 0.036895 0.912106 0.128544
vt 0.986000 0.276000
vt 0.946000 0.276000
vt 0.635000 0.885000
v 0.036895 2.366940 0.137876
v 0.036895 0.912106 0.137876
vt 0.635000 0.218000
v -0.021939 2.360265 0.054693
vt 0.507000 0.340000
vn -0.848900 -0.000000 0.528500
v -0.055991 2.360265 0.000000
vt 0.491000 0.324000
v -0.055991 2.347906 0.000000
vt 0.489000 0.330000
v -0.021939 2.347906 0.054693
vt 0.505000 0.346000
vn -0.848900 -0.000000 -0.528500
v -0.021939 2.360265 -0.054693
vt 0.474000 0.340000
v -0.021939 2.347906 -0.054693
vt 0.472000 0.346000
v -0.084851 2.354085 -0.070081
vt 0.469000 0.311000
vn -0.237600 -0.000000 0.971400
v 0.084851 2.354085 -0.070081
vt 0.469000 0.390000
vn 0.237600 -0.000000 0.971400
v 0.021939 2.360265 -0.054693
vt 0.474000 0.360000
v 0.021939 2.347906 -0.054693
vt 0.472000 0.366000
vn 0.848900 -0.000000 -0.528500
v 0.055991 2.360265 0.000000
vt 0.491000 0.376000
v 0.055991 2.347906 0.000000
vt 0.489000 0.382000
vn 0.848900 -0.000000 0.528500
v 0.021939 2.360265 0.054693
vt 0.507000 0.360000
v 0.021939 2.347906 0.054693
vt 0.505000 0.366000
v 0.058895 2.376272 -0.234654
vt 0.418000 0.378000
vn -0.000000 0.891800 0.452400
v -0.058895 2.376272 -0.234654
vt 0.418000 0.323000
v -0.084851 2.365457 -0.213333
vt 0.425000 0.311000
vn -0.000000 0.928000 -0.372700
vn -0.000000 -0.891800 -0.452400
v 0.084851 2.365457 -0.213333
vt 0.425000 0.390000
vn -0.000000 -0.996900 -0.079100
vn -0.000000 -0.928000 -0.372700
v -0.011557 2.749482 -0.128544
v 0.000000 2.703132 0.000000
v -0.011557 2.749482 0.128544
v 0.011557 2.749482 -0.128544
v 0.011557 2.749482 0.128544
v 0.011557 2.766168 -0.128544
v -0.011557 2.766168 -0.128544
v 0.011557 2.766168 0.128544
v -0.011557 2.766168 0.128544
v -0.011557 2.341602 -0.128544
v 0.000000 2.295252 0.000000
v -0.011557 2.341602 0.128544
v 0.011557 2.341602 -0.128544
v 0.011557 2.341602 0.128544
v 0.011557 2.358288 -0.128544
v -0.011557 2.358288 -0.128544
v -0.011557 2.358288 0.128544
v 0.011557 2.358288 0.128544
v -0.011557 2.137662 -0.128544
v 0.000000 2.091312 0.000000
v -0.011557 2.137662 0.128544
v 0.011557 2.137662 -0.128544
v 0.011557 2.137662 0.128544
v 0.011557 2.154348 -0.128544
v -0.011557 2.154348 -0.128544
v -0.011557 2.154348 0.128544
v 0.011557 2.154348 0.128544
v -0.011557 1.933722 -0.128544
v 0.000000 1.887372 0.000000
v -0.011557 1.933722 0.128544
v 0.011557 1.933722 -0.128544
v 0.011557 1.933722 0.128544
v 0.011557 1.950408 -0.128544
v -0.011557 1.950408 -0.128544
v -0.011557 1.950408 0.128544
v 0.011557 1.950408 0.128544
v -0.011557 1.729782 -0.128544
v 0.000000 1.683432 0.000000
v -0.011557 1.729782 0.128544
v 0.011557 1.729782 -0.128544
v 0.011557 1.729782 0.128544
v -0.011557 1.746468 0.128544
v 0.011557 1.746468 0.128544
v 0.011557 1.746468 -0.128544
v -0.011557 1.746468 -0.128544
v -0.011557 0.914022 -0.128544
v 0.000000 0.867672 0.000000
v -0.011557 0.914022 0.128544
v 0.011557 0.914022 -0.128544
v 0.011557 0.914022 0.128544
v 0.011557 0.930708 -0.128544
v -0.011557 0.930708 0.128544
v 0.011557 0.930708 0.128544
v -0.011557 0.930708 -0.128544
v -0.011557 0.506142 -0.128544
v 0.000000 0.459792 0.000000
v -0.011557 0.506142 0.128544
v 0.011557 0.506142 -0.128544
v 0.011557 0.506142 0.128544
v -0.011557 0.522828 0.128544
v 0.011557 0.522828 -0.128544
v -0.011557 0.522828 -0.128544
v 0.011557 0.522828 0.128544
v -0.011557 1.525842 -0.128544
v 0.000000 1.479492 0.000000
v -0.011557 1.525842 0.128544
v 0.011557 1.525842 -0.128544
v 0.011557 1.525842 0.128544
v 0.011557 1.542528 -0.128544
v -0.011557 1.542528 -0.128544
v -0.011557 1.542528 0.128544
v 0.011557 1.542528 0.128544
v -0.011557 1.321902 -0.128544
v 0.000000 1.275552 0.000000
v -0.011557 1.321902 0.128544
v 0.011557 1.321902 -0.128544
v 0.011557 1.321902 0.128544
v 0.011557 1.338588 -0.128544
v -0.011557 1.338588 -0.128544
v -0.011557 1.338588 0.128544
v 0.011557 1.338588 0.128544
v -0.011557 1.117962 -0.128544
v 0.000000 1.071612 0.000000
v -0.011557 1.117962 0.128544
v 0.011557 1.117962 -0.128544
v 0.011557 1.117962 0.128544
v 0.011557 1.134648 -0.128544
v -0.011557 1.134648 0.128544
v 0.011557 1.134648 0.128544
v -0.011557 1.134648 -0.128544
v -0.011557 3.361302 -0.128543
v 0.000000 3.314952 0.000001
v -0.011557 3.361302 0.128545
v 0.011557 3.361302 -0.128543
v 0.011557 3.361302 0.128545
v 0.011557 3.377988 -0.128543
v -0.011557 3.377988 -0.128543
v -0.011557 3.377988 0.128545
v 0.011557 3.377988 0.128545
v -0.011557 3.157362 -0.128543
v 0.000000 3.111012 0.000000
v -0.011557 3.157362 0.128544
v 0.011557 3.157362 -0.128543
v 0.011557 3.157362 0.128544
v 0.011557 3.174048 -0.128543
v -0.011557 3.174048 0.128544
v -0.011557 3.174048 -0.128543
v 0.011557 3.174048 0.128544
v -0.011557 2.953422 -0.128544
v 0.000000 2.907072 0.000000
v -0.011557 2.953422 0.128544
v 0.011557 2.953422 -0.128544
v 0.011557 2.953422 0.128544
v 0.011557 2.970108 -0.128544
v -0.011557 2.970108 -0.128544
v -0.011557 2.970108 0.128544
v 0.011557 2.970108 0.128544
v 0.077435 0.251032 0.000000
vt 0.822000 0.207000
v -0.077435 0.251032 0.106049
vt 0.640000 0.012000
v 0.077435 0.251032 0.106049
vt 0.822000 0.012000
v -0.077435 0.251032 0.000000
vt 0.640000 0.207000
v -0.077435 0.251032 -0.106049
v 0.077435 0.251032 -0.106049
vt 0.011000 0.236000
v -0.077435 0.063592 0.106049
vt 0.203000 0.123000
vt 0.205000 0.232000
v -0.077435 0.063592 -0.106049
vt 0.011000 0.125000
v 0.077435 0.063592 -0.106049
v 0.077435 0.063592 0.106049
v -0.053395 0.288050 0.025709
vt 0.134000 0.259000
vn -0.581400 0.813600 -0.000000
v -0.053395 0.288050 -0.025709
vt 0.086000 0.259000
v -0.077435 0.270869 -0.025709
vt 0.086000 0.249000
v -0.077435 0.270869 0.025709
vt 0.134000 0.249000
vt 0.810000 0.991000
v 0.053395 0.288050 -0.025709
vt 0.904000 0.991000
v 0.077435 0.270869 -0.025709
vt 0.912000 0.979000
vt 0.801000 0.979000
vt 0.086000 0.256000
vn 0.581400 0.813600 -0.000000
v 0.053395 0.288050 0.025709
vt 0.134000 0.257000
v 0.077435 0.270869 0.025709
v -0.052654 0.071317 0.093689
vt 0.644000 0.092000
v -0.052654 0.071317 -0.093689
vt 0.635000 0.092000
v -0.052654 0.024535 -0.076138
vt 0.635000 0.057000
v -0.052654 0.024535 0.076138
vt 0.644000 0.057000
vn -0.000000 -0.351300 -0.936300
v 0.052654 0.071317 -0.093689
vt 0.823000 0.092000
v 0.052654 0.024535 -0.076138
vt 0.823000 0.057000
v 0.052654 0.071317 0.093689
vt 0.814000 0.092000
v 0.052654 0.024535 0.076138
vt 0.814000 0.057000
vn -0.000000 -0.351300 0.936300
v -0.077435 0.023360 -0.025709
vt 0.082000 0.088000
v -0.077435 0.023360 0.025709
vt 0.130000 0.088000
v 0.077435 0.023360 -0.025709
vt 0.912000 0.852000
vt 0.801000 0.852000
v 0.077435 0.023360 0.025709
vt 0.927000 0.960000
vt 0.801000 0.960000
vt 0.801000 0.791000
vt 0.927000 0.791000
vt 0.507000 0.305000
vt 0.507000 0.210000
vt 0.417000 0.210000
vt 0.417000 0.305000
v -0.088250 0.024720 0.076756
vt 0.592000 0.043000
v -0.088250 0.024720 -0.076756
vt 0.443000 0.043000
v -0.088250 0.012360 -0.076756
v -0.088250 0.012360 0.076756
v 0.088250 0.024720 -0.076756
vt 0.443000 0.162000
v 0.088250 0.012360 -0.076756
v 0.088250 0.024720 0.076756
vt 0.592000 0.162000
v 0.088250 0.012360 0.076756
v -0.109571 0.012360 0.134291
vt 0.621000 0.003000
v -0.109571 0.012360 -0.134291
vt 0.420000 0.003000
v -0.109571 0.000000 -0.134291
v -0.109571 -0.000000 0.134291
v 0.109571 0.012360 -0.134291
vt 0.420000 0.205000
v 0.109571 0.000000 -0.134291
v 0.109571 0.012360 0.134291
vt 0.621000 0.205000
v 0.109571 -0.000000 0.134291
v 0.000000 3.504740 0.000001
vt 0.103000 0.044000
v -0.036091 3.504740 -0.036152
vt 0.093000 0.052000
v -0.051047 3.504740 0.000001
vt 0.102000 0.055000
v 0.000000 3.504740 -0.051108
vt 0.091000 0.043000
v 0.036029 3.504740 -0.036152
vt 0.095000 0.036000
v 0.050985 3.504740 0.000001
vt 0.102000 0.033000
v 0.036029 3.504740 0.035968
vt 0.110000 0.037000
v 0.000000 3.504740 0.050924
vt 0.112000 0.044000
v -0.036091 3.504740 0.035968
vt 0.109000 0.052000
v -0.030591 3.415315 -0.030652
vt 0.103000 0.009000
vn -0.921200 -0.080200 -0.380700
v -0.043260 3.415315 0.000001
vt 0.126000 0.010000
vt 0.126000 0.060000
vn -0.921100 -0.080100 -0.381000
vt 0.099000 0.059000
v 0.000000 3.415315 -0.043321
vt 0.094000 0.007000
vn -0.381400 -0.080100 -0.920900
vn -0.381600 -0.080200 -0.920800
vt 0.088000 0.057000
v 0.030529 3.415315 -0.030652
vn 0.382100 -0.080200 -0.920700
vn 0.382100 -0.080100 -0.920600
v 0.043198 3.415315 0.000001
vn 0.921200 -0.080100 -0.380700
vn 0.921100 -0.080200 -0.381000
v 0.030529 3.415315 0.030468
vt 0.149000 0.009000
vn 0.920400 -0.080100 0.382700
vt 0.154000 0.059000
v 0.000000 3.415315 0.043137
vt 0.159000 0.007000
vn 0.382100 -0.080100 0.920700
vn 0.382100 -0.080200 0.920600
vt 0.165000 0.057000
v -0.030591 3.415315 0.030468
vn -0.381400 -0.080200 0.920900
vn -0.381600 -0.080100 0.920900
vn -0.920400 -0.080100 0.382700
v -0.030591 0.247200 -0.030653
vt 0.946000 0.006000
vn -0.924200 -0.000000 -0.382000
v -0.043260 0.247200 0.000000
vt 0.965000 0.006000
vt 0.965000 0.996000
vt 0.946000 0.996000
v 0.000000 0.247200 -0.043322
vt 0.938000 0.006000
vn -0.382600 -0.000000 -0.923900
vt 0.938000 0.996000
v 0.030529 0.247200 -0.030653
vn 0.383300 -0.000000 -0.923600
v 0.043198 0.247200 0.000000
vn 0.924200 -0.000000 -0.382000
v 0.030529 0.247200 0.030467
vt 0.985000 0.006000
vn 0.923400 -0.000000 0.384000
vt 0.985000 0.996000
v 0.000000 0.247200 0.043136
vt 0.993000 0.006000
vn 0.383300 -0.000000 0.923600
vt 0.993000 0.996000
v -0.030591 0.247200 0.030467
vn -0.382600 -0.000000 0.923900
vn -0.923400 -0.000000 0.384000
f 1/1/1 2/2/1 3/3/1
f 4/4/1 2/2/1 1/1/1
f 5/5/2 6/6/2 7/7/2
f 8/8/2 7/7/2 6/6/2
f 6/6/3 5/5/3 8/8/3
f 7/7/3 8/8/3 5/5/3
f 9/9/4 10/10/4 11/11/4
f 12/12/4 11/11/4 10/10/4
f 13/13/5 9/9/5 14/14/5
f 11/11/5 14/14/5 9/9/5
f 15/15/6 13/16/6 16/17/6
f 14/18/6 16/17/6 13/16/6
f 17/19/1 15/20/1 18/21/1
f 16/22/1 18/21/1 15/20/1
f 19/16/7 17/15/7 20/18/7
f 18/17/7 20/18/7 17/15/7
f 21/23/8 19/24/8 22/25/8
f 20/26/8 22/25/8 19/24/8
f 23/27/9 21/23/9 24/28/9
f 22/25/9 24/28/9 21/23/9
f 10/10/10 23/27/10 12/12/10
f 24/28/10 12/12/10 23/27/10
f 15/15/11 17/15/11 13/16/11
f 19/16/11 13/16/11 17/15/11
f 13/16/11 19/16/11 9/29/11
f 21/29/11 9/29/11 19/16/11
f 9/29/11 21/29/11 10/30/11
f 23/30/11 10/30/11 21/29/11
f 20/18/12 18/17/12 14/18/12
f 16/17/12 14/18/12 18/17/12
f 22/31/12 20/18/12 11/31/12
f 14/18/12 11/31/12 20/18/12
f 24/32/12 22/31/12 12/32/12
f 11/31/12 12/32/12 22/31/12
f 25/33/13 26/34/13 27/35/13
f 28/36/14 27/35/14 26/34/14
f 29/33/10 25/33/10 30/35/10
f 27/35/10 30/35/10 25/33/10
f 31/33/2 2/3/2 32/35/2
f 4/37/2 32/35/2 2/3/2
f 33/33/10 31/33/10 34/35/10
f 32/35/10 34/35/10 31/33/10
f 35/34/15 33/33/15 36/36/15
f 34/35/16 36/36/16 33/33/16
f 25/38/17 33/39/17 26/40/17
f 35/41/17 26/40/17 33/39/17
f 32/35/12 4/37/12 30/35/12
f 1/37/12 30/35/12 4/37/12
f 36/42/18 34/43/18 28/44/18
f 27/45/18 28/44/18 34/43/18
f 37/46/11 38/47/11 39/47/11
f 40/46/11 38/47/11 37/46/11
f 41/47/11 38/47/11 40/46/11
f 42/48/11 38/47/11 41/47/11
f 43/48/11 38/47/11 42/48/11
f 39/47/11 38/47/11 43/48/11
f 44/49/19 45/50/19 39/47/19
f 39/47/19 45/50/19 37/46/19
f 45/50/2 46/50/2 37/46/2
f 37/46/2 46/50/2 40/46/2
f 46/50/20 47/49/20 40/46/20
f 40/46/20 47/49/20 41/47/20
f 47/49/21 48/51/21 41/47/21
f 41/47/22 48/51/22 42/48/22
f 49/51/23 44/49/23 43/48/23
f 43/48/24 44/49/24 39/47/24
f 50/52/25 51/53/25 52/54/25
f 53/55/26 52/54/26 51/53/26
f 54/56/27 50/52/27 55/57/27
f 52/54/28 55/57/28 50/52/28
f 56/58/29 54/56/29 57/59/29
f 55/57/30 57/59/30 54/56/30
f 58/60/31 56/58/31 59/61/31
f 57/59/32 59/61/32 56/58/32
f 60/58/33 58/60/33 61/59/33
f 59/61/34 61/59/34 58/60/34
f 62/56/35 60/58/35 63/57/35
f 61/59/36 63/57/36 60/58/36
f 64/52/37 62/56/37 65/54/37
f 63/57/38 65/54/38 62/56/38
f 51/53/39 64/52/39 53/55/39
f 65/54/40 53/55/40 64/52/40
f 66/62/41 67/63/41 53/64/41
f 53/64/42 67/63/42 52/65/42
f 67/63/43 68/66/43 52/65/43
f 52/65/44 68/66/44 55/67/44
f 68/66/45 69/68/45 55/67/45
f 55/67/46 69/68/46 57/69/46
f 69/68/47 70/70/47 57/69/47
f 57/69/48 70/70/48 59/71/48
f 70/70/49 71/68/49 59/71/49
f 59/71/50 71/68/50 61/69/50
f 71/68/51 72/66/51 61/69/51
f 61/69/52 72/66/52 63/67/52
f 72/66/53 73/63/53 63/67/53
f 63/67/54 73/63/54 65/65/54
f 73/63/55 66/62/55 65/65/55
f 65/65/56 66/62/56 53/64/56
f 74/72/57 75/73/57 66/62/57
f 66/62/58 75/73/58 67/63/58
f 75/73/59 76/74/59 67/63/59
f 67/63/60 76/74/60 68/66/60
f 76/74/61 77/75/61 68/66/61
f 68/66/62 77/75/62 69/68/62
f 77/75/63 78/76/63 69/68/63
f 69/68/64 78/76/64 70/70/64
f 78/76/65 79/75/65 70/70/65
f 70/70/66 79/75/66 71/68/66
f 79/75/67 80/74/67 71/68/67
f 71/68/68 80/74/68 72/66/68
f 80/74/69 81/73/69 72/66/69
f 72/66/70 81/73/70 73/63/70
f 81/73/71 74/72/71 73/63/71
f 73/63/72 74/72/72 66/62/72
f 82/77/73 83/78/73 74/72/73
f 74/72/74 83/78/74 75/73/74
f 83/78/75 84/79/75 75/73/75
f 75/73/76 84/79/76 76/74/76
f 84/79/77 85/80/77 76/74/77
f 76/74/78 85/80/78 77/75/78
f 85/80/79 86/81/79 77/75/79
f 77/75/80 86/81/80 78/76/80
f 86/81/81 87/80/81 78/76/81
f 78/76/82 87/80/82 79/75/82
f 87/80/83 88/79/83 79/75/83
f 79/75/84 88/79/84 80/74/84
f 88/79/85 89/78/85 80/74/85
f 80/74/86 89/78/86 81/73/86
f 89/78/87 82/77/87 81/73/87
f 81/73/88 82/77/88 74/72/88
f 90/82/89 91/83/89 82/77/89
f 82/77/90 91/83/90 83/78/90
f 91/83/91 92/84/91 83/78/91
f 83/78/92 92/84/92 84/79/92
f 92/84/93 93/85/93 84/79/93
f 84/79/94 93/85/94 85/80/94
f 93/85/95 94/86/95 85/80/95
f 85/80/96 94/86/96 86/81/96
f 94/86/97 95/85/97 86/81/97
f 86/81/98 95/85/98 87/80/98
f 95/85/99 96/84/99 87/80/99
f 87/80/100 96/84/100 88/79/100
f 96/84/101 97/83/101 88/79/101
f 88/79/102 97/83/102 89/78/102
f 97/83/103 90/82/103 89/78/103
f 89/78/104 90/82/104 82/77/104
f 98/87/105 99/88/105 90/82/105
f 90/82/106 99/88/106 91/83/106
f 99/88/107 100/89/107 91/83/107
f 91/83/108 100/89/108 92/84/108
f 100/89/109 101/90/109 92/84/109
f 92/84/110 101/90/110 93/85/110
f 101/90/111 102/91/111 93/85/111
f 93/85/112 102/91/112 94/86/112
f 102/91/113 103/90/113 94/86/113
f 94/86/114 103/90/114 95/85/114
f 103/90/115 104/89/115 95/85/115
f 95/85/116 104/89/116 96/84/116
f 104/89/117 105/88/117 96/84/117
f 96/84/118 105/88/118 97/83/118
f 105/88/119 98/87/119 97/83/119
f 97/83/120 98/87/120 90/82/120
f 106/92/121 107/93/121 108/94/121
f 109/95/122 110/96/122 107/97/122
f 109/95/11 106/92/11 108/94/11
f 108/94/11 110/96/11 109/95/11
f 110/96/2 108/94/2 111/98/2
f 112/99/2 109/95/2 106/92/2
f 106/92/2 113/100/2 112/99/2
f 107/93/123 106/92/123 109/95/123
f 107/97/124 110/96/124 108/94/124
f 110/96/3 114/101/3 111/98/3
f 115/92/121 116/93/121 117/94/121
f 118/95/122 119/96/122 116/97/122
f 118/95/11 115/92/11 117/94/11
f 117/94/11 119/96/11 118/95/11
f 119/96/2 117/94/2 120/98/2
f 121/99/2 118/95/2 115/92/2
f 115/92/2 122/100/2 121/99/2
f 116/93/123 115/92/123 118/95/123
f 116/97/124 119/96/124 117/94/124
f 119/96/3 123/101/3 120/98/3
f 124/102/10 125/102/10 126/103/10
f 126/103/10 127/103/10 124/102/10
f 125/104/2 128/105/2 129/106/2
f 129/106/2 126/107/2 125/104/2
f 128/108/1 130/108/1 131/109/1
f 131/109/1 129/109/1 128/108/1
f 130/108/3 124/102/3 127/103/3
f 127/103/3 131/109/3 130/108/3
f 128/108/11 125/102/11 124/102/11
f 124/102/11 130/108/11 128/108/11
f 129/109/12 131/109/12 127/103/12
f 127/103/12 126/103/12 129/109/12
f 132/110/125 133/111/125 134/112/125
f 134/112/125 135/113/125 132/110/125
f 133/111/126 136/114/126 137/115/126
f 137/115/126 134/112/126 133/111/126
f 138/116/127 137/115/127 136/114/127
f 139/117/128 140/118/128 141/119/128
f 140/118/129 142/120/129 143/121/129
f 143/121/129 141/119/129 140/118/129
f 142/120/130 144/122/130 145/123/130
f 145/123/130 143/121/130 142/120/130
f 144/122/3 132/110/3 135/113/3
f 135/113/3 145/123/3 144/122/3
f 146/124/131 147/125/131 148/126/131
f 139/117/132 138/116/132 136/114/132
f 136/114/132 140/118/132 139/117/132
f 140/118/11 136/114/11 133/111/11
f 133/111/11 142/120/11 140/118/11
f 142/120/11 133/111/11 132/110/11
f 132/110/11 144/122/11 142/120/11
f 146/124/133 149/127/133 148/126/133
f 149/127/134 139/117/134 138/116/134
f 138/116/134 148/126/134 149/127/134
f 139/117/135 141/119/135 137/115/135
f 137/115/135 138/116/135 139/117/135
f 141/119/12 143/121/12 134/112/12
f 134/112/12 137/115/12 141/119/12
f 143/121/12 145/123/12 135/113/12
f 135/113/12 134/112/12 143/121/12
f 150/92/121 151/93/121 152/94/121
f 153/95/122 154/96/122 151/97/122
f 153/95/11 150/92/11 152/94/11
f 152/94/11 154/96/11 153/95/11
f 155/99/2 153/95/2 150/92/2
f 150/92/2 156/100/2 155/99/2
f 151/93/123 150/92/123 153/95/123
f 151/97/124 154/96/124 152/94/124
f 154/96/3 157/101/3 158/98/3
f 158/98/3 152/94/3 154/96/3
f 159/92/121 160/93/121 161/94/121
f 162/95/122 163/96/122 160/97/122
f 164/99/3 165/100/3 159/92/3
f 159/92/3 162/95/3 164/99/3
f 162/95/11 159/92/11 161/94/11
f 161/94/11 163/96/11 162/95/11
f 163/96/2 161/94/2 166/98/2
f 166/98/2 167/101/2 163/96/2
f 160/93/123 159/92/123 162/95/123
f 160/97/124 163/96/124 161/94/124
f 168/92/121 169/93/121 170/94/121
f 171/95/122 172/96/122 169/97/122
f 173/99/3 174/100/3 168/92/3
f 168/92/3 171/95/3 173/99/3
f 171/95/11 168/92/11 170/94/11
f 170/94/11 172/96/11 171/95/11
f 172/96/2 170/94/2 175/98/2
f 175/98/2 176/101/2 172/96/2
f 169/93/123 168/92/123 171/95/123
f 169/97/124 172/96/124 170/94/124
f 177/92/121 178/93/121 179/94/121
f 180/95/122 181/96/122 178/97/122
f 182/99/3 183/100/3 177/92/3
f 177/92/3 180/95/3 182/99/3
f 180/95/11 177/92/11 179/94/11
f 179/94/11 181/96/11 180/95/11
f 181/96/2 179/94/2 184/98/2
f 184/98/2 185/101/2 181/96/2
f 178/93/123 177/92/123 180/95/123
f 178/97/124 181/96/124 179/94/124
f 186/92/121 187/93/121 188/94/121
f 189/95/122 190/96/122 187/97/122
f 189/95/11 186/92/11 188/94/11
f 188/94/11 190/96/11 189/95/11
f 190/96/2 188/94/2 191/98/2
f 191/98/2 192/101/2 190/96/2
f 193/99/2 189/95/2 186/92/2
f 186/92/2 194/100/2 193/99/2
f 187/93/123 186/92/123 189/95/123
f 187/97/124 190/96/124 188/94/124
f 195/92/121 196/93/121 197/94/121
f 198/95/122 199/96/122 196/97/122
f 195/92/3 198/95/3 200/99/3
f 198/95/11 195/92/11 197/94/11
f 197/94/11 199/96/11 198/95/11
f 199/96/2 197/94/2 201/98/2
f 201/98/2 202/101/2 199/96/2
f 195/92/2 203/100/2 200/99/2
f 196/93/123 195/92/123 198/95/123
f 196/97/124 199/96/124 197/94/124
f 204/92/121 205/93/121 206/94/121
f 207/95/122 208/96/122 205/97/122
f 207/95/11 204/92/11 206/94/11
f 206/94/11 208/96/11 207/95/11
f 208/96/2 206/94/2 209/98/2
f 210/99/2 207/95/2 204/92/2
f 204/92/2 211/100/2 210/99/2
f 205/93/123 204/92/123 207/95/123
f 205/97/124 208/96/124 206/94/124
f 208/96/3 212/101/3 209/98/3
f 213/92/121 214/93/121 215/94/121
f 216/95/122 217/96/122 214/97/122
f 218/99/3 219/100/3 213/92/3
f 213/92/3 216/95/3 218/99/3
f 216/95/11 213/92/11 215/94/11
f 215/94/11 217/96/11 216/95/11
f 217/96/2 215/94/2 220/98/2
f 220/98/2 221/101/2 217/96/2
f 214/93/123 213/92/123 216/95/123
f 214/97/124 217/96/124 215/94/124
f 222/92/121 223/93/121 224/94/121
f 225/95/122 226/96/122 223/97/122
f 227/99/3 228/100/3 222/92/3
f 222/92/3 225/95/3 227/99/3
f 225/95/11 222/92/11 224/94/11
f 224/94/11 226/96/11 225/95/11
f 226/96/2 224/94/2 229/98/2
f 229/98/2 230/101/2 226/96/2
f 223/93/123 222/92/123 225/95/123
f 223/97/124 226/96/124 224/94/124
f 231/92/121 232/93/121 233/94/121
f 234/95/122 235/96/122 232/97/122
f 231/92/3 234/95/3 236/99/3
f 234/95/11 231/92/11 233/94/11
f 233/94/11 235/96/11 234/95/11
f 235/96/2 233/94/2 237/98/2
f 237/98/2 238/101/2 235/96/2
f 231/92/2 239/100/2 236/99/2
f 232/93/123 231/92/123 234/95/123
f 232/97/124 235/96/124 233/94/124
f 240/92/121 241/93/121 242/94/121
f 243/95/122 244/96/122 241/97/122
f 245/99/3 246/100/3 240/92/3
f 240/92/3 243/95/3 245/99/3
f 243/95/11 240/92/11 242/94/11
f 242/94/11 244/96/11 243/95/11
f 244/96/2 242/94/2 247/98/2
f 241/93/123 240/92/123 243/95/123
f 241/97/124 244/96/124 242/94/124
f 244/96/3 248/101/3 247/98/3
f 249/92/121 250/93/121 251/94/121
f 252/95/122 253/96/122 250/97/122
f 249/92/3 252/95/3 254/99/3
f 252/95/11 249/92/11 251/94/11
f 251/94/11 253/96/11 252/95/11
f 253/96/2 251/94/2 255/98/2
f 249/92/2 256/100/2 254/99/2
f 250/93/123 249/92/123 252/95/123
f 250/97/124 253/96/124 251/94/124
f 253/96/3 257/101/3 255/98/3
f 258/92/121 259/93/121 260/94/121
f 261/95/122 262/96/122 259/97/122
f 263/99/3 264/100/3 258/92/3
f 258/92/3 261/95/3 263/99/3
f 261/95/11 258/92/11 260/94/11
f 260/94/11 262/96/11 261/95/11
f 262/96/2 260/94/2 265/98/2
f 259/93/123 258/92/123 261/95/123
f 259/97/124 262/96/124 260/94/124
f 262/96/3 266/101/3 265/98/3
f 267/128/11 268/129/11 269/130/11
f 267/128/11 270/131/11 268/129/11
f 271/129/11 267/128/11 272/130/11
f 271/129/11 270/131/11 267/128/11
f 271/132/10 273/133/10 268/134/10
f 271/132/10 274/135/10 273/133/10
f 275/135/1 269/134/1 276/133/1
f 275/135/1 272/132/1 269/134/1
f 277/136/136 278/137/136 279/138/136
f 279/138/136 280/139/136 277/136/136
f 278/140/2 281/141/2 282/142/2
f 282/142/2 279/143/2 278/140/2
f 281/144/137 283/145/137 284/139/137
f 284/139/137 282/138/137 281/144/137
f 283/141/3 277/140/3 280/143/3
f 280/143/3 284/142/3 283/141/3
f 285/146/10 286/147/10 287/148/10
f 287/148/10 288/149/10 285/146/10
f 286/147/138 289/150/138 290/151/138
f 290/151/138 287/148/138 286/147/138
f 289/150/1 291/152/1 292/153/1
f 292/153/1 290/151/1 289/150/1
f 291/152/139 285/146/139 288/149/139
f 288/149/139 292/153/139 291/152/139
f 280/139/10 279/138/10 293/154/10
f 293/154/10 294/155/10 280/139/10
f 279/143/2 282/142/2 295/156/2
f 295/156/2 293/157/2 279/143/2
f 282/138/1 284/139/1 296/155/1
f 296/155/1 295/154/1 282/138/1
f 284/142/3 280/143/3 294/157/3
f 294/157/3 296/156/3 284/142/3
f 281/144/11 278/137/11 277/136/11
f 277/136/11 283/145/11 281/144/11
f 271/158/2 272/159/2 275/160/2
f 275/160/2 274/161/2 271/158/2
f 269/158/3 268/159/3 273/160/3
f 273/160/3 276/161/3 269/158/3
f 275/162/12 276/163/12 273/164/12
f 273/164/12 274/165/12 275/162/12
f 297/166/10 298/167/10 299/167/10
f 299/167/10 300/166/10 297/166/10
f 298/167/2 301/168/2 302/168/2
f 302/168/2 299/167/2 298/167/2
f 301/168/1 303/169/1 304/169/1
f 304/169/1 302/168/1 301/168/1
f 303/169/3 297/166/3 300/166/3
f 300/166/3 304/169/3 303/169/3
f 301/168/11 298/167/11 297/166/11
f 297/166/11 303/169/11 301/168/11
f 305/170/10 306/171/10 307/171/10
f 307/171/10 308/170/10 305/170/10
f 306/171/2 309/172/2 310/172/2
f 310/172/2 307/171/2 306/171/2
f 309/172/1 311/173/1 312/173/1
f 312/173/1 310/172/1 309/172/1
f 311/173/3 305/170/3 308/170/3
f 308/170/3 312/173/3 311/173/3
f 309/172/11 306/171/11 305/170/11
f 305/170/11 311/173/11 309/172/11
f 313/174/11 314/175/11 315/176/11
f 313/174/11 316/177/11 314/175/11
f 313/174/11 317/178/11 316/177/11
f 313/174/11 318/179/11 317/178/11
f 313/174/11 319/180/11 318/179/11
f 313/174/11 320/181/11 319/180/11
f 313/174/11 321/182/11 320/181/11
f 313/174/11 315/176/11 321/182/11
f 322/183/140 323/184/140 315/185/140
f 322/183/141 315/185/141 314/186/141
f 324/187/142 322/183/142 314/186/142
f 324/187/143 314/186/143 316/188/143
f 325/183/144 324/187/144 316/188/144
f 325/183/145 316/188/145 317/186/145
f 326/184/146 325/183/146 317/186/146
f 326/184/147 317/186/147 318/185/147
f 327/189/148 326/184/148 318/185/148
f 327/189/148 318/185/148 319/190/148
f 328/191/149 327/189/149 319/190/149
f 328/191/150 319/190/150 320/192/150
f 329/189/151 328/191/151 320/192/151
f 329/189/152 320/192/152 321/190/152
f 323/184/153 329/189/153 321/190/153
f 323/184/153 321/190/153 315/185/153
f 330/193/154 331/194/154 323/195/154
f 330/193/154 323/195/154 322/196/154
f 332/197/155 330/193/155 322/196/155
f 332/197/155 322/196/155 324/198/155
f 333/193/156 332/197/156 324/198/156
f 333/193/156 324/198/156 325/196/156
f 334/194/157 333/193/157 325/196/157
f 334/194/157 325/196/157 326/195/157
f 335/199/158 334/194/158 326/195/158
f 335/199/158 326/195/158 327/200/158
f 336/201/159 335/199/159 327/200/159
f 336/201/159 327/200/159 328/202/159
f 337/199/160 336/201/160 328/202/160
f 337/199/160 328/202/160 329/200/160
f 331/194/161 337/199/161 329/200/161
f 331/194/161 329/200/161 323/195/161
