# generated by tools/objdedupe/dedupe.py -- do not hand-edit.
# Re-run the tool after touching azd_1svet.obj, azd_2svet.obj, azd_3svet.obj, azd_4svet.obj, azd_5svet.obj, azd_6svet.obj.
o stozar_6svet_L
v -0.011557 2.749482 -0.128544
vt 0.820000 0.786000
vn -0.970300 -0.241900 -0.000000
v 0.000000 2.703132 0.000000
vt 0.843000 0.681000
v -0.011557 2.749482 0.128544
vt 0.820000 0.583000
v 0.011557 2.749482 -0.128544
vt 0.816000 0.782000
vn 0.970300 -0.241900 -0.000000
v 0.011557 2.749482 0.128544
vt 0.816000 0.579000
vt 0.839000 0.676000
v 0.011557 2.766168 -0.128544
vt 0.801000 0.782000
vn -0.000000 -0.000000 1.000000
v -0.011557 2.766168 -0.128544
vt 0.805000 0.786000
vn -0.000000 1.000000 -0.000000
vn -0.000000 -0.000000 -1.000000
v -0.011557 2.766168 0.128544
vt 0.805000 0.583000
vn -0.000000 -0.940700 -0.339200
vn -0.000000 -0.940700 0.339200
v 0.011557 2.766168 0.128544
vt 0.801000 0.579000
v -0.330197 2.783163 -0.039861
vt 0.866000 0.700000
vn -1.000000 -0.000000 -0.000000
v -0.330197 2.713823 0.039800
vt 0.904000 0.702000
v -0.330197 2.783163 0.039800
vt 0.903000 0.708000
v -0.330197 2.713823 -0.039861
vt 0.867000 0.694000
v -0.271858 3.944756 0.000001
vt 0.201000 0.029000
v -0.233542 3.944756 0.000001
vt 0.231000 0.029000
v -0.233542 3.911322 0.000001
vt 0.231000 0.007000
v -0.271858 3.911322 0.000001
vt 0.201000 0.007000
v 0.055682 2.697014 0.021569
vt 0.035000 0.064000
vn 0.852100 -0.000000 0.523300
v 0.039058 2.697014 0.048637
vt 0.022000 0.061000
v 0.039058 2.577987 0.048637
vt 0.022000 0.016000
v 0.055682 2.577987 0.021569
vt 0.035000 0.019000
vn 0.576300 -0.000000 0.817300
v 0.019776 2.697014 0.062233
vt 0.008000 0.057000
v 0.019776 2.577987 0.062233
vt 0.008000 0.012000
vt 0.917000 0.457000
vn -0.098300 -0.000000 0.995200
v -0.047771 2.697014 0.055559
vt 0.908000 0.492000
v -0.047771 2.577987 0.055559
vt 0.849000 0.475000
vt 0.857000 0.442000
vt 0.911000 0.473000
v -0.047771 2.697014 -0.055620
vt 0.902000 0.496000
v -0.047771 2.577987 -0.055620
vt 0.836000 0.473000
vt 0.845000 0.449000
vn -0.098300 -0.000000 -0.995200
v 0.019776 2.697014 -0.062294
v 0.019776 2.577987 -0.062294
vt 0.075000 0.057000
vn 0.576300 -0.000000 -0.817300
v 0.039058 2.697014 -0.048698
vt 0.062000 0.061000
v 0.039058 2.577987 -0.048698
vt 0.062000 0.016000
vt 0.075000 0.012000
vn 0.852100 -0.000000 -0.523300
v 0.055682 2.697014 -0.021630
vt 0.048000 0.064000
v 0.055682 2.577987 -0.021630
vt 0.048000 0.019000
vn 1.000000 -0.000000 -0.000000
vt 0.918000 0.452000
vt 0.920000 0.447000
vn -0.000000 -1.000000 -0.000000
vt 0.859000 0.436000
vt 0.860000 0.431000
v -0.026512 2.694295 0.024473
vt 0.907000 0.487000
vn -0.092100 -0.246800 0.964700
v -0.264504 2.783163 0.024473
vt 0.908000 0.680000
v -0.264504 2.713823 0.006737
vt 0.864000 0.670000
vn -0.085700 -0.150000 0.985000
v -0.026512 2.577802 0.006737
vt 0.842000 0.468000
v -0.264504 2.783163 0.039800
v -0.264504 2.713823 0.039800
v -0.264504 2.783163 -0.039861
v -0.264504 2.713823 -0.039861
vt 0.858000 0.698000
v -0.264504 2.783163 -0.024596
v -0.264504 2.713823 -0.006798
vn -0.056300 -0.150800 -0.987000
v -0.026512 2.694295 -0.024596
v -0.026512 2.577802 -0.006798
vn -0.140700 -0.246200 -0.959000
vt 0.908000 0.669000
vn 0.349800 0.936800 -0.000000
vt 0.892000 0.669000
vt 0.890000 0.516000
vt 0.906000 0.516000
vt 0.860000 0.663000
vn -0.496200 -0.868200 -0.000000
vt 0.838000 0.499000
vt 0.844000 0.499000
vt 0.867000 0.662000
v -0.292190 4.003095 0.002905
vt 0.188000 0.050000
v -0.305786 4.003095 -0.020579
vt 0.197000 0.050000
v -0.319382 4.003095 0.002905
v -0.278594 4.003095 -0.020579
v -0.264998 4.003095 0.002905
v -0.278594 4.003095 0.026451
vt 0.179000 0.050000
v -0.305786 4.003095 0.026451
v -0.305848 3.895501 -0.020579
vt 0.197000 0.008000
vn -0.865400 0.000500 -0.501000
v -0.319444 3.895501 0.002905
vt 0.188000 0.008000
v -0.278718 3.895501 -0.020579
v -0.265122 3.895501 0.002905
vn 0.865400 -0.001000 -0.501000
v -0.278718 3.895501 0.026451
vt 0.179000 0.008000
vn 0.866000 -0.001000 0.500100
vn -0.866000 0.000500 0.500000
v -0.305848 3.895501 0.026451
vn -0.866000 0.000500 0.500100
v -0.289348 3.987212 0.000001
vt 0.190000 0.043000
vn 0.003500 0.924800 0.380400
v -0.289348 3.980909 0.015327
vt 0.190000 0.040000
v -0.223778 3.980661 0.015327
vt 0.233000 0.040000
vn 0.003500 0.924800 0.380500
v -0.223098 3.986965 0.000001
vt 0.234000 0.042000
vn 0.001500 0.383000 0.923700
v -0.289348 3.965706 0.021631
vt 0.190000 0.036000
v -0.225446 3.965459 0.021631
vt 0.233000 0.036000
vn 0.001400 0.382900 0.923800
vn -0.001500 -0.386200 0.922400
v -0.289348 3.950503 0.015265
vt 0.190000 0.032000
v -0.227115 3.950256 0.015265
vt 0.233000 0.032000
vn -0.001500 -0.386100 0.922500
vn -0.003700 -0.924300 0.381700
v -0.289348 3.944199 0.000001
vt 0.190000 0.029000
v -0.227795 3.943952 0.000001
vt 0.233000 0.029000
vn -0.003700 -0.924200 0.381800
vn -0.003700 -0.924300 -0.381700
v -0.289348 3.950503 -0.015264
v -0.227115 3.950256 -0.015264
vn -0.003700 -0.924200 -0.381800
vn -0.001500 -0.383000 -0.923700
v -0.289348 3.965706 -0.021568
v -0.225446 3.965459 -0.021568
vn -0.001500 -0.382900 -0.923800
vn 0.001500 0.386200 -0.922400
v -0.289348 3.980909 -0.015202
v -0.223778 3.980661 -0.015202
vn 0.001500 0.386100 -0.922500
vn 0.003400 0.923700 -0.383000
vn 0.003500 0.923700 -0.383200
v -0.106111 3.948031 0.015327
vt 0.888000 0.270000
vn 0.246100 0.890300 0.383200
v -0.104380 3.954149 0.000001
vt 0.875000 0.270000
vt 0.875000 0.428000
vn 0.247400 0.892200 0.377900
vt 0.888000 0.428000
v -0.110313 3.933323 0.021631
vt 0.901000 0.270000
vn 0.101800 0.367200 0.924600
vn 0.103600 0.371200 0.922700
vt 0.901000 0.428000
v -0.114454 3.918614 0.015265
vt 0.915000 0.270000
vn -0.103400 -0.370400 0.923100
vn -0.105100 -0.374200 0.921400
vt 0.915000 0.428000
v -0.116184 3.912558 0.000001
vt 0.928000 0.270000
vn -0.249900 -0.890000 0.381400
vn -0.250600 -0.890800 0.379000
vt 0.928000 0.428000
v -0.114454 3.918614 -0.015264
vn -0.250300 -0.889900 -0.381400
vn -0.250200 -0.890900 -0.379000
v -0.110313 3.933385 -0.021568
vn -0.102800 -0.365900 -0.924900
vn -0.103400 -0.371300 -0.922800
v -0.106111 3.948093 -0.015202
vn 0.103100 0.370100 -0.923300
vn 0.103600 0.374400 -0.921400
vn 0.246400 0.890400 -0.382800
vn 0.246400 0.891300 -0.380600
v -0.051788 3.921087 0.015265
vt 0.888000 0.218000
vn 0.412000 0.829500 0.377100
v -0.048019 3.926154 0.000001
vt 0.875000 0.218000
vn 0.411800 0.829400 0.377600
v -0.061058 3.908912 0.021631
vt 0.901000 0.218000
vn 0.174100 0.348900 0.920800
vn 0.171600 0.346200 0.922300
v -0.070267 3.896675 0.015265
vt 0.915000 0.218000
vn -0.173000 -0.349000 0.921000
vn -0.173600 -0.349600 0.920700
v -0.074036 3.891670 0.000001
vt 0.928000 0.218000
vn -0.412400 -0.830600 0.374200
vn -0.411500 -0.830200 0.376000
v -0.070267 3.896675 -0.015264
vn -0.411800 -0.830900 -0.374200
vn -0.412100 -0.830000 -0.376000
v -0.061058 3.908912 -0.021568
vn -0.171800 -0.345900 -0.922400
vn -0.171700 -0.345600 -0.922500
v -0.051788 3.921087 -0.015264
vn 0.172100 0.346400 -0.922200
vn 0.172600 0.349300 -0.921000
vn 0.412000 0.829500 -0.377100
vn 0.412000 0.829400 -0.377300
v -0.002101 3.866579 0.015265
vt 0.888000 0.165000
vn 0.685300 0.624300 0.375100
v 0.003214 3.869916 0.000001
vt 0.875000 0.165000
vn 0.684700 0.624200 0.376300
v -0.015141 3.858545 0.021569
vt 0.901000 0.165000
vn 0.285500 0.260300 0.922400
vn 0.288500 0.261900 0.921000
v -0.028119 3.850511 0.015265
vt 0.915000 0.165000
vn -0.285800 -0.261700 0.921900
vn -0.287700 -0.262600 0.921000
v -0.033496 3.847173 0.000001
vt 0.928000 0.165000
vn -0.683900 -0.624400 0.377400
vn -0.685500 -0.624600 0.374100
v -0.028119 3.850511 -0.015264
vn -0.684500 -0.623700 -0.377500
vn -0.684900 -0.625300 -0.374200
v -0.015141 3.858545 -0.021629
vn -0.288500 -0.263400 -0.920600
vn -0.286200 -0.259800 -0.922300
v -0.002101 3.866641 -0.015264
vn 0.286700 0.262500 -0.921300
vn 0.285300 0.260400 -0.922400
vn 0.685400 0.625500 -0.372800
vn 0.684900 0.623900 -0.376300
v 0.011989 3.806942 0.015265
vt 0.888000 0.112000
vn 0.898800 0.217500 0.380600
v 0.018169 3.808116 0.000001
vt 0.875000 0.112000
vn 0.907000 0.214300 0.362600
v -0.003028 3.804099 0.021569
vt 0.901000 0.112000
vn 0.371400 0.087700 0.924300
vn 0.389800 0.086700 0.916800
v -0.018046 3.801318 0.015265
vt 0.915000 0.112000
vn -0.372600 -0.082900 0.924300
vn -0.394600 -0.080800 0.915300
v -0.024287 3.800144 0.000001
vt 0.928000 0.112000
vn -0.904500 -0.185200 0.384100
vn -0.915000 -0.179200 0.361500
v -0.018046 3.801318 -0.015264
vn -0.906100 -0.177400 -0.384100
vn -0.913000 -0.187000 -0.362500
v -0.003028 3.804161 -0.021629
vn -0.376700 -0.077100 -0.923100
vn -0.394300 -0.087800 -0.914800
v 0.011989 3.806942 -0.015264
vn 0.375700 0.083700 -0.923000
vn 0.390100 0.092100 -0.916200
vn 0.900000 0.212400 -0.380700
vn 0.905900 0.219200 -0.362400
v 0.011989 3.498621 0.015203
vt 0.888000 0.007000
vn 0.926400 -0.000000 0.376600
v 0.018169 3.498621 0.000001
vt 0.875000 0.007000
vn 0.926900 -0.000100 0.375300
v -0.003028 3.498621 0.021569
vt 0.901000 0.007000
vn 0.390300 -0.000200 0.920700
vn 0.387000 -0.000000 0.922100
v -0.018046 3.498621 0.015203
vt 0.915000 0.007000
vn -0.390300 -0.000000 0.920700
vn -0.387000 -0.000200 0.922100
v -0.024287 3.498621 0.000001
vt 0.928000 0.007000
vn -0.925100 -0.000100 0.379800
vn -0.925600 -0.000000 0.378500
v -0.018046 3.498621 -0.015326
vn -0.926100 -0.000000 -0.377200
vn -0.925600 0.000100 -0.378500
v -0.003028 3.498621 -0.021629
vn -0.387000 0.000200 -0.922100
vn -0.390300 -0.000000 -0.920700
v 0.011989 3.498621 -0.015326
vn 0.387000 -0.000000 -0.922100
vn 0.390200 0.000200 -0.920700
vn 0.927400 0.000100 -0.374000
vn 0.926900 -0.000000 -0.375300
v -0.011557 0.710267 -0.128544
v 0.000000 0.663917 0.000000
v -0.011557 0.710267 0.128544
v 0.011557 0.710267 -0.128544
v 0.011557 0.710267 0.128544
v 0.011557 0.726892 -0.128544
v -0.011557 0.726892 0.128544
v -0.011557 0.726892 -0.128544
v 0.011557 0.726892 0.128544
v -0.011557 0.914207 -0.128544
v 0.000000 0.867857 0.000000
v -0.011557 0.914207 0.128544
v 0.011557 0.914207 -0.128544
v 0.011557 0.914207 0.128544
v 0.011557 0.930832 -0.128544
v -0.011557 0.930832 0.128544
v -0.011557 0.930832 -0.128544
v 0.011557 0.930832 0.128544
v -0.036895 2.366940 0.137876
vt 0.596000 0.772000
v -0.036895 2.366940 0.128544
v -0.036895 1.116046 0.128544
vt 0.596000 0.218000
v -0.036895 1.116046 0.137876
vt 0.946000 0.782000
v 0.036895 2.366940 0.128544
vt 0.986000 0.782000
v 0.036895 1.116046 0.128544
vt 0.986000 0.276000
vt 0.946000 0.276000
vt 0.635000 0.772000
v 0.036895 2.366940 0.137876
v 0.036895 1.116046 0.137876
vt 0.635000 0.218000
v -0.021939 2.360574 0.054693
vt 0.507000 0.340000
vn -0.848900 -0.000000 0.528500
v -0.055991 2.360574 0.000000
vt 0.491000 0.324000
v -0.055991 2.348214 0.000000
vt 0.489000 0.330000
v -0.021939 2.348214 0.054693
vt 0.505000 0.346000
vn -0.848900 -0.000000 -0.528500
v -0.021939 2.360574 -0.054693
vt 0.474000 0.340000
v -0.021939 2.348214 -0.054693
vt 0.472000 0.346000
v -0.084851 2.354394 -0.070081
vt 0.469000 0.311000
vn -0.237600 -0.000000 0.971400
v 0.084851 2.354394 -0.070081
vt 0.469000 0.390000
vn 0.237600 -0.000000 0.971400
v 0.021939 2.360574 -0.054693
vt 0.474000 0.360000
v 0.021939 2.348214 -0.054693
vt 0.472000 0.366000
vn 0.848900 -0.000000 -0.528500
v 0.055991 2.360574 0.000000
vt 0.491000 0.376000
v 0.055991 2.348214 0.000000
vt 0.489000 0.382000
vn 0.848900 -0.000000 0.528500
v 0.021939 2.360574 0.054693
vt 0.507000 0.360000
v 0.021939 2.348214 0.054693
vt 0.505000 0.366000
v 0.058895 2.376519 -0.234654
vt 0.418000 0.378000
vn -0.000000 0.891800 0.452400
v -0.058895 2.376519 -0.234654
vt 0.418000 0.323000
v -0.084851 2.365704 -0.213333
vt 0.425000 0.311000
v 0.084851 2.365704 -0.213333
vt 0.425000 0.390000
vn -0.000000 0.928000 -0.372700
vn -0.000000 -0.996900 -0.078700
vn -0.000000 -0.928000 -0.372700
v -0.011557 2.545542 -0.128544
v 0.000000 2.499192 0.000000
v -0.011557 2.545542 0.128544
v 0.011557 2.545542 -0.128544
v 0.011557 2.545542 0.128544
v 0.011557 2.562228 -0.128544
v -0.011557 2.562228 0.128544
v 0.011557 2.562228 0.128544
v -0.011557 2.562228 -0.128544
v -0.011557 2.341602 -0.128544
v 0.000000 2.295252 0.000000
v -0.011557 2.341602 0.128544
v 0.011557 2.341602 -0.128544
v 0.011557 2.341602 0.128544
v -0.011557 2.358288 0.128544
v 0.011557 2.358288 0.128544
v 0.011557 2.358288 -0.128544
v -0.011557 2.358288 -0.128544
v -0.011557 2.137662 -0.128544
v 0.000000 2.091312 0.000000
v -0.011557 2.137662 0.128544
v 0.011557 2.137662 -0.128544
v 0.011557 2.137662 0.128544
v 0.011557 2.154348 -0.128544
v -0.011557 2.154348 0.128544
v 0.011557 2.154348 0.128544
v -0.011557 2.154348 -0.128544
v -0.011557 1.933722 -0.128544
v 0.000000 1.887372 0.000000
v -0.011557 1.933722 0.128544
v 0.011557 1.933722 -0.128544
v 0.011557 1.933722 0.128544
v 0.011557 1.950408 -0.128544
v -0.011557 1.950408 0.128544
v 0.011557 1.950408 0.128544
v -0.011557 1.950408 -0.128544
v -0.011557 1.729782 -0.128544
v 0.000000 1.683432 0.000000
v -0.011557 1.729782 0.128544
v 0.011557 1.729782 -0.128544
v 0.011557 1.729782 0.128544
v -0.011557 1.746468 0.128544
v 0.011557 1.746468 0.128544
v 0.011557 1.746468 -0.128544
v -0.011557 1.746468 -0.128544
v -0.011557 1.117962 -0.128544
v 0.000000 1.071612 0.000000
v -0.011557 1.117962 0.128544
v 0.011557 1.117962 -0.128544
v 0.011557 1.117962 0.128544
v 0.011557 1.134648 -0.128544
v -0.011557 1.134648 0.128544
v 0.011557 1.134648 0.128544
v -0.011557 1.134648 -0.128544
v -0.011557 0.506142 -0.128544
v 0.000000 0.459792 0.000000
v -0.011557 0.506142 0.128544
v 0.011557 0.506142 -0.128544
v 0.011557 0.506142 0.128544
v -0.011557 0.522828 0.128544
v 0.011557 0.522828 0.128544
v 0.011557 0.522828 -0.128544
v -0.011557 0.522828 -0.128544
v -0.011557 1.525842 -0.128544
v 0.000000 1.479492 0.000000
v -0.011557 1.525842 0.128544
v 0.011557 1.525842 -0.128544
v 0.011557 1.525842 0.128544
v 0.011557 1.542528 -0.128544
v -0.011557 1.542528 0.128544
v 0.011557 1.542528 0.128544
v -0.011557 1.542528 -0.128544
v -0.011557 1.321902 -0.128544
v 0.000000 1.275552 0.000000
v -0.011557 1.321902 0.128544
v 0.011557 1.321902 -0.128544
v 0.011557 1.321902 0.128544
v 0.011557 1.338588 -0.128544
v -0.011557 1.338588 -0.128544
v -0.011557 1.338588 0.128544
v 0.011557 1.338588 0.128544
v -0.011557 3.361302 -0.128543
v 0.000000 3.314952 0.000001
v -0.011557 3.361302 0.128545
v 0.011557 3.361302 -0.128543
v 0.011557 3.361302 0.128545
v -0.011557 3.377988 0.128545
v 0.011557 3.377988 -0.128543
v -0.011557 3.377988 -0.128543
v 0.011557 3.377988 0.128545
v -0.011557 3.157362 -0.128543
v 0.000000 3.111012 0.000000
v -0.011557 3.157362 0.128544
v 0.011557 3.157362 -0.128543
v 0.011557 3.157362 0.128544
v 0.011557 3.174048 -0.128543
v -0.011557 3.174048 0.128544
v 0.011557 3.174048 0.128544
v -0.011557 3.174048 -0.128543
v -0.011557 2.953422 -0.128544
v 0.000000 2.907072 0.000000
v -0.011557 2.953422 0.128544
v 0.011557 2.953422 -0.128544
v 0.011557 2.953422 0.128544
v 0.011557 2.970108 -0.128544
v -0.011557 2.970108 -0.128544
v -0.011557 2.970108 0.128544
v 0.011557 2.970108 0.128544
v 0.077435 0.251032 0.000000
vt 0.822000 0.207000
v -0.077435 0.251032 0.106049
vt 0.640000 0.012000
v 0.077435 0.251032 0.106049
vt 0.822000 0.012000
v -0.077435 0.251032 0.000000
vt 0.640000 0.207000
v -0.077435 0.251032 -0.106049
v 0.077435 0.251032 -0.106049
vt 0.011000 0.236000
v -0.077435 0.063592 0.106049
vt 0.203000 0.123000
vt 0.205000 0.232000
v -0.077435 0.063592 -0.106049
vt 0.011000 0.125000
v 0.077435 0.063592 -0.106049
v 0.077435 0.063592 0.106049
v -0.053395 0.288050 0.025709
vt 0.134000 0.259000
vn -0.581400 0.813600 -0.000000
v -0.053395 0.288050 -0.025709
vt 0.086000 0.259000
v -0.077435 0.270869 -0.025709
vt 0.086000 0.249000
v -0.077435 0.270869 0.025709
vt 0.134000 0.249000
vt 0.810000 0.991000
v 0.053395 0.288050 -0.025709
vt 0.904000 0.991000
v 0.077435 0.270869 -0.025709
vt 0.912000 0.979000
vt 0.801000 0.979000
vt 0.086000 0.256000
vn 0.581400 0.813600 -0.000000
v 0.053395 0.288050 0.025709
vt 0.134000 0.257000
v 0.077435 0.270869 0.025709
v -0.052654 0.071317 0.093689
vt 0.644000 0.092000
v -0.052654 0.071317 -0.093689
vt 0.635000 0.092000
v -0.052654 0.024535 -0.076138
vt 0.635000 0.057000
v -0.052654 0.024535 0.076138
vt 0.644000 0.057000
vn -0.000000 -0.351300 -0.936300
v 0.052654 0.071317 -0.093689
vt 0.823000 0.092000
v 0.052654 0.024535 -0.076138
vt 0.823000 0.057000
v 0.052654 0.071317 0.093689
vt 0.814000 0.092000
v 0.052654 0.024535 0.076138
vt 0.814000 0.057000
vn -0.000000 -0.351300 0.936300
v -0.077435 0.023360 -0.025709
vt 0.082000 0.088000
v -0.077435 0.023360 0.025709
vt 0.130000 0.088000
v 0.077435 0.023360 -0.025709
vt 0.912000 0.852000
vt 0.801000 0.852000
v 0.077435 0.023360 0.025709
vt 0.927000 0.960000
vt 0.801000 0.960000
vt 0.801000 0.791000
vt 0.927000 0.791000
vt 0.507000 0.305000
vt 0.507000 0.210000
vt 0.417000 0.210000
vt 0.417000 0.305000
v -0.088250 0.024720 0.076756
vt 0.592000 0.043000
v -0.088250 0.024720 -0.076756
vt 0.443000 0.043000
v -0.088250 0.012360 -0.076756
v -0.088250 0.012360 0.076756
v 0.088250 0.024720 -0.076756
vt 0.443000 0.162000
v 0.088250 0.012360 -0.076756
v 0.088250 0.024720 0.076756
vt 0.592000 0.162000
v 0.088250 0.012360 0.076756
v -0.109571 0.012360 0.134291
vt 0.621000 0.003000
v -0.109571 0.012360 -0.134291
vt 0.420000 0.003000
v -0.109571 0.000000 -0.134291
v -0.109571 -0.000000 0.134291
v 0.109571 0.012360 -0.134291
vt 0.420000 0.205000
v 0.109571 0.000000 -0.134291
v 0.109571 0.012360 0.134291
vt 0.621000 0.205000
v 0.109571 -0.000000 0.134291
v 0.000000 3.504740 0.000001
vt 0.103000 0.044000
v -0.036091 3.504740 -0.036152
vt 0.093000 0.052000
v -0.051047 3.504740 0.000001
vt 0.102000 0.055000
v 0.000000 3.504740 -0.051108
vt 0.091000 0.043000
v 0.036029 3.504740 -0.036152
vt 0.095000 0.036000
v 0.050985 3.504740 0.000001
vt 0.102000 0.033000
v 0.036029 3.504740 0.035968
vt 0.110000 0.037000
v 0.000000 3.504740 0.050924
vt 0.112000 0.044000
v -0.036091 3.504740 0.035968
vt 0.109000 0.052000
v -0.030591 3.415315 -0.030652
vt 0.103000 0.009000
vn -0.921200 -0.080200 -0.380700
v -0.043260 3.415315 0.000001
vt 0.126000 0.010000
vt 0.126000 0.060000
vn -0.921100 -0.080100 -0.381000
vt 0.099000 0.059000
v 0.000000 3.415315 -0.043321
vt 0.094000 0.007000
vn -0.381400 -0.080100 -0.920900
vn -0.381600 -0.080200 -0.920800
vt 0.088000 0.057000
v 0.030529 3.415315 -0.030652
vn 0.382100 -0.080200 -0.920700
vn 0.382100 -0.080100 -0.920600
v 0.043198 3.415315 0.000001
vn 0.921200 -0.080100 -0.380700
vn 0.921100 -0.080200 -0.381000
v 0.030529 3.415315 0.030468
vt 0.149000 0.009000
vn 0.920400 -0.080100 0.382700
vt 0.154000 0.059000
v 0.000000 3.415315 0.043137
vt 0.159000 0.007000
vn 0.382100 -0.080100 0.920700
vn 0.382100 -0.080200 0.920600
vt 0.165000 0.057000
v -0.030591 3.415315 0.030468
vn -0.381400 -0.080200 0.920900
vn -0.381600 -0.080100 0.920900
vn -0.920400 -0.080100 0.382700
v -0.030591 0.247200 -0.030653
vt 0.946000 0.006000
vn -0.924200 -0.000000 -0.382000
v -0.043260 0.247200 0.000000
vt 0.965000 0.006000
vt 0.965000 0.996000
vt 0.946000 0.996000
v 0.000000 0.247200 -0.043322
vt 0.938000 0.006000
vn -0.382600 -0.000000 -0.923900
vt 0.938000 0.996000
v 0.030529 0.247200 -0.030653
vn 0.383300 -0.000000 -0.923600
v 0.043198 0.247200 0.000000
vn 0.924200 -0.000000 -0.382000
v 0.030529 0.247200 0.030467
vt 0.985000 0.006000
vn 0.923400 -0.000000 0.384000
vt 0.985000 0.996000
v 0.000000 0.247200 0.043136
vt 0.993000 0.006000
vn 0.383300 -0.000000 0.923600
vt 0.993000 0.996000
v -0.030591 0.247200 0.030467
vn -0.382600 -0.000000 0.923900
vn -0.923400 -0.000000 0.384000
f 1/1/1 2/2/1 3/3/1
f 4/4/2 5/5/2 2/6/2
f 6/7/3 7/8/3 1/1/3
f 1/1/3 4/4/3 6/7/3
f 1/1/4 3/3/4 4/4/4
f 3/3/4 5/5/4 4/4/4
f 5/5/5 3/3/5 8/9/5
f 1/1/6 4/4/6 2/2/6
f 2/6/7 5/5/7 3/3/7
f 5/5/3 9/10/3 8/9/3
f 10/11/8 11/12/8 12/13/8
f 10/11/8 13/14/8 11/12/8
f 14/15/5 15/16/5 16/17/5
f 16/17/5 17/18/5 14/15/5
f 15/16/3 14/15/3 17/18/3
f 17/18/3 16/17/3 15/16/3
f 18/19/9 19/20/9 20/21/9
f 20/21/9 21/22/9 18/19/9
f 19/20/10 22/23/10 23/24/10
f 23/24/10 20/21/10 19/20/10
f 22/25/11 24/26/11 25/27/11
f 25/27/11 23/28/11 22/25/11
f 24/29/8 26/30/8 27/31/8
f 27/31/8 25/32/8 24/29/8
f 26/26/12 28/25/12 29/28/12
f 29/28/12 27/27/12 26/26/12
f 28/33/13 30/34/13 31/35/13
f 31/35/13 29/36/13 28/33/13
f 30/34/14 32/37/14 33/38/14
f 33/38/14 31/35/14 30/34/14
f 32/37/15 18/19/15 21/22/15
f 21/22/15 33/38/15 32/37/15
f 26/26/4 24/26/4 22/25/4
f 22/25/4 28/25/4 26/26/4
f 28/25/4 22/25/4 19/39/4
f 19/39/4 30/39/4 28/25/4
f 30/39/4 19/39/4 18/40/4
f 18/40/4 32/40/4 30/39/4
f 27/27/16 29/28/16 23/28/16
f 23/28/16 25/27/16 27/27/16
f 29/28/16 31/41/16 20/41/16
f 20/41/16 23/28/16 29/28/16
f 31/41/16 33/42/16 21/42/16
f 21/42/16 20/41/16 31/41/16
f 34/43/17 35/44/17 36/45/17
f 36/45/18 37/46/18 34/43/18
f 35/44/15 38/44/15 39/45/15
f 39/45/15 36/45/15 35/44/15
f 10/13/5 40/44/5 41/45/5
f 41/45/5 13/47/5 10/13/5
f 40/44/15 42/44/15 43/45/15
f 43/45/15 41/45/15 40/44/15
f 42/44/19 44/43/19 45/46/19
f 45/46/20 43/45/20 42/44/20
f 42/48/21 35/49/21 34/50/21
f 34/50/21 44/51/21 42/48/21
f 13/47/16 41/45/16 39/45/16
f 39/45/16 11/47/16 13/47/16
f 43/52/22 45/53/22 37/54/22
f 37/54/22 36/55/22 43/52/22
f 46/56/4 47/57/4 48/56/4
f 46/56/4 49/57/4 47/57/4
f 46/56/4 50/56/4 49/57/4
f 46/56/4 51/58/4 50/56/4
f 46/56/4 52/58/4 51/58/4
f 46/56/4 48/56/4 52/58/4
f 53/59/23 54/60/23 48/56/23
f 53/59/23 48/56/23 47/57/23
f 55/59/5 53/59/5 47/57/5
f 55/59/5 47/57/5 49/57/5
f 56/60/24 55/59/24 49/57/24
f 56/60/24 49/57/24 50/56/24
f 57/61/25 56/60/25 50/56/25
f 57/61/25 50/56/25 51/58/25
f 54/60/26 58/61/26 52/58/26
f 54/60/27 52/58/27 48/56/27
f 59/62/28 60/63/28 61/64/28
f 61/64/29 62/65/29 59/62/29
f 60/63/30 63/66/30 64/67/30
f 64/67/31 61/64/31 60/63/31
f 63/66/32 65/68/32 66/69/32
f 66/69/33 64/67/33 63/66/33
f 65/68/34 67/70/34 68/71/34
f 68/71/35 66/69/35 65/68/35
f 67/70/36 69/68/36 70/69/36
f 70/69/37 68/71/37 67/70/37
f 69/68/38 71/66/38 72/67/38
f 72/67/39 70/69/39 69/68/39
f 71/66/40 73/63/40 74/64/40
f 74/64/41 72/67/41 71/66/41
f 73/63/42 59/62/42 62/65/42
f 62/65/43 74/64/43 73/63/43
f 75/72/44 76/73/44 62/74/44
f 75/72/45 62/74/45 61/75/45
f 77/76/46 75/72/46 61/75/46
f 77/76/47 61/75/47 64/77/47
f 78/78/48 77/76/48 64/77/48
f 78/78/49 64/77/49 66/79/49
f 79/80/50 78/78/50 66/79/50
f 79/80/51 66/79/51 68/81/51
f 80/78/52 79/80/52 68/81/52
f 80/78/53 68/81/53 70/79/53
f 81/76/54 80/78/54 70/79/54
f 81/76/55 70/79/55 72/77/55
f 82/72/56 81/76/56 72/77/56
f 82/72/57 72/77/57 74/75/57
f 76/73/58 82/72/58 74/75/58
f 76/73/59 74/75/59 62/74/59
f 83/82/60 84/83/60 76/73/60
f 83/82/61 76/73/61 75/72/61
f 85/84/62 83/82/62 75/72/62
f 85/84/63 75/72/63 77/76/63
f 86/85/64 85/84/64 77/76/64
f 86/85/65 77/76/65 78/78/65
f 87/86/66 86/85/66 78/78/66
f 87/86/67 78/78/67 79/80/67
f 88/85/68 87/86/68 79/80/68
f 88/85/69 79/80/69 80/78/69
f 89/84/70 88/85/70 80/78/70
f 89/84/71 80/78/71 81/76/71
f 90/82/72 89/84/72 81/76/72
f 90/82/73 81/76/73 82/72/73
f 84/83/74 90/82/74 82/72/74
f 84/83/75 82/72/75 76/73/75
f 91/87/76 92/88/76 84/83/76
f 91/87/77 84/83/77 83/82/77
f 93/89/78 91/87/78 83/82/78
f 93/89/79 83/82/79 85/84/79
f 94/90/80 93/89/80 85/84/80
f 94/90/81 85/84/81 86/85/81
f 95/91/82 94/90/82 86/85/82
f 95/91/83 86/85/83 87/86/83
f 96/90/84 95/91/84 87/86/84
f 96/90/85 87/86/85 88/85/85
f 97/89/86 96/90/86 88/85/86
f 97/89/87 88/85/87 89/84/87
f 98/87/88 97/89/88 89/84/88
f 98/87/89 89/84/89 90/82/89
f 92/88/90 98/87/90 90/82/90
f 92/88/91 90/82/91 84/83/91
f 99/92/92 100/93/92 92/88/92
f 99/92/93 92/88/93 91/87/93
f 101/94/94 99/92/94 91/87/94
f 101/94/95 91/87/95 93/89/95
f 102/95/96 101/94/96 93/89/96
f 102/95/97 93/89/97 94/90/97
f 103/96/98 102/95/98 94/90/98
f 103/96/99 94/90/99 95/91/99
f 104/95/100 103/96/100 95/91/100
f 104/95/101 95/91/101 96/90/101
f 105/94/102 104/95/102 96/90/102
f 105/94/103 96/90/103 97/89/103
f 106/92/104 105/94/104 97/89/104
f 106/92/105 97/89/105 98/87/105
f 100/93/106 106/92/106 98/87/106
f 100/93/107 98/87/107 92/88/107
f 107/97/108 108/98/108 100/93/108
f 107/97/109 100/93/109 99/92/109
f 109/99/110 107/97/110 99/92/110
f 109/99/111 99/92/111 101/94/111
f 110/100/112 109/99/112 101/94/112
f 110/100/113 101/94/113 102/95/113
f 111/101/114 110/100/114 102/95/114
f 111/101/115 102/95/115 103/96/115
f 112/100/116 111/101/116 103/96/116
f 112/100/117 103/96/117 104/95/117
f 113/99/118 112/100/118 104/95/118
f 113/99/119 104/95/119 105/94/119
f 114/97/120 113/99/120 105/94/120
f 114/97/121 105/94/121 106/92/121
f 108/98/122 114/97/122 106/92/122
f 108/98/123 106/92/123 100/93/123
f 115/1/1 116/2/1 117/3/1
f 118/4/2 119/5/2 116/6/2
f 115/1/3 118/4/3 120/7/3
f 118/4/4 115/1/4 117/3/4
f 117/3/4 119/5/4 118/4/4
f 119/5/5 117/3/5 121/9/5
f 115/1/5 122/8/5 120/7/5
f 116/2/6 115/1/6 118/4/6
f 116/6/7 119/5/7 117/3/7
f 119/5/3 123/10/3 121/9/3
f 124/1/1 125/2/1 126/3/1
f 127/4/2 128/5/2 125/6/2
f 124/1/3 127/4/3 129/7/3
f 127/4/4 124/1/4 126/3/4
f 126/3/4 128/5/4 127/4/4
f 128/5/5 126/3/5 130/9/5
f 124/1/5 131/8/5 129/7/5
f 125/2/6 124/1/6 127/4/6
f 125/6/7 128/5/7 126/3/7
f 128/5/3 132/10/3 130/9/3
f 133/102/8 134/102/8 135/103/8
f 135/103/8 136/103/8 133/102/8
f 134/104/5 137/105/5 138/106/5
f 138/106/5 135/107/5 134/104/5
f 137/108/15 139/108/15 140/109/15
f 140/109/15 138/109/15 137/108/15
f 139/108/3 133/102/3 136/103/3
f 136/103/3 140/109/3 139/108/3
f 137/108/4 134/102/4 133/102/4
f 133/102/4 139/108/4 137/108/4
f 138/109/16 140/109/16 136/103/16
f 136/103/16 135/103/16 138/109/16
f 141/110/124 142/111/124 143/112/124
f 143/112/124 144/113/124 141/110/124
f 142/111/125 145/114/125 146/115/125
f 146/115/125 143/112/125 142/111/125
f 147/116/126 146/115/126 145/114/126
f 148/117/127 149/118/127 150/119/127
f 149/118/128 151/120/128 152/121/128
f 152/121/128 150/119/128 149/118/128
f 151/120/129 153/122/129 154/123/129
f 154/123/129 152/121/129 151/120/129
f 153/122/3 141/110/3 144/113/3
f 144/113/3 154/123/3 153/122/3
f 155/124/130 156/125/130 157/126/130
f 157/126/130 158/127/130 155/124/130
f 148/117/131 147/116/131 145/114/131
f 145/114/131 149/118/131 148/117/131
f 149/118/4 145/114/4 142/111/4
f 142/111/4 151/120/4 149/118/4
f 151/120/4 142/111/4 141/110/4
f 141/110/4 153/122/4 151/120/4
f 158/127/132 148/117/132 147/116/132
f 147/116/132 157/126/132 158/127/132
f 148/117/133 150/119/133 146/115/133
f 146/115/133 147/116/133 148/117/133
f 150/119/16 152/121/16 143/112/16
f 143/112/16 146/115/16 150/119/16
f 152/121/16 154/123/16 144/113/16
f 144/113/16 143/112/16 152/121/16
f 159/1/1 160/2/1 161/3/1
f 162/4/2 163/5/2 160/6/2
f 159/1/3 162/4/3 164/7/3
f 162/4/4 159/1/4 161/3/4
f 161/3/4 163/5/4 162/4/4
f 165/9/5 166/10/5 163/5/5
f 159/1/5 167/8/5 164/7/5
f 160/2/6 159/1/6 162/4/6
f 160/6/7 163/5/7 161/3/7
f 165/9/3 161/3/3 163/5/3
f 168/1/1 169/2/1 170/3/1
f 171/4/2 172/5/2 169/6/2
f 171/4/4 168/1/4 170/3/4
f 170/3/4 172/5/4 171/4/4
f 172/5/5 170/3/5 173/9/5
f 173/9/5 174/10/5 172/5/5
f 175/7/5 171/4/5 168/1/5
f 168/1/5 176/8/5 175/7/5
f 169/2/6 168/1/6 171/4/6
f 169/6/7 172/5/7 170/3/7
f 177/1/1 178/2/1 179/3/1
f 180/4/2 181/5/2 178/6/2
f 177/1/3 180/4/3 182/7/3
f 180/4/4 177/1/4 179/3/4
f 179/3/4 181/5/4 180/4/4
f 181/5/5 179/3/5 183/9/5
f 183/9/5 184/10/5 181/5/5
f 177/1/5 185/8/5 182/7/5
f 178/2/6 177/1/6 180/4/6
f 178/6/7 181/5/7 179/3/7
f 186/1/1 187/2/1 188/3/1
f 189/4/2 190/5/2 187/6/2
f 186/1/3 189/4/3 191/7/3
f 189/4/4 186/1/4 188/3/4
f 188/3/4 190/5/4 189/4/4
f 190/5/5 188/3/5 192/9/5
f 192/9/5 193/10/5 190/5/5
f 186/1/5 194/8/5 191/7/5
f 187/2/6 186/1/6 189/4/6
f 187/6/7 190/5/7 188/3/7
f 195/1/1 196/2/1 197/3/1
f 198/4/2 199/5/2 196/6/2
f 198/4/4 195/1/4 197/3/4
f 197/3/4 199/5/4 198/4/4
f 199/5/5 197/3/5 200/9/5
f 200/9/5 201/10/5 199/5/5
f 202/7/5 198/4/5 195/1/5
f 195/1/5 203/8/5 202/7/5
f 196/2/6 195/1/6 198/4/6
f 196/6/7 199/5/7 197/3/7
f 204/1/1 205/2/1 206/3/1
f 207/4/2 208/5/2 205/6/2
f 204/1/3 207/4/3 209/7/3
f 207/4/4 204/1/4 206/3/4
f 206/3/4 208/5/4 207/4/4
f 208/5/5 206/3/5 210/9/5
f 210/9/5 211/10/5 208/5/5
f 204/1/5 212/8/5 209/7/5
f 205/2/6 204/1/6 207/4/6
f 205/6/7 208/5/7 206/3/7
f 213/1/1 214/2/1 215/3/1
f 216/4/2 217/5/2 214/6/2
f 216/4/4 213/1/4 215/3/4
f 215/3/4 217/5/4 216/4/4
f 218/9/5 219/10/5 217/5/5
f 220/7/5 216/4/5 213/1/5
f 213/1/5 221/8/5 220/7/5
f 214/2/6 213/1/6 216/4/6
f 214/6/7 217/5/7 215/3/7
f 218/9/3 215/3/3 217/5/3
f 222/1/1 223/2/1 224/3/1
f 225/4/2 226/5/2 223/6/2
f 222/1/3 225/4/3 227/7/3
f 225/4/4 222/1/4 224/3/4
f 224/3/4 226/5/4 225/4/4
f 226/5/5 224/3/5 228/9/5
f 228/9/5 229/10/5 226/5/5
f 222/1/5 230/8/5 227/7/5
f 223/2/6 222/1/6 225/4/6
f 223/6/7 226/5/7 224/3/7
f 231/1/1 232/2/1 233/3/1
f 234/4/2 235/5/2 232/6/2
f 236/7/3 237/8/3 231/1/3
f 231/1/3 234/4/3 236/7/3
f 234/4/4 231/1/4 233/3/4
f 233/3/4 235/5/4 234/4/4
f 235/5/5 233/3/5 238/9/5
f 238/9/5 239/10/5 235/5/5
f 232/2/6 231/1/6 234/4/6
f 232/6/7 235/5/7 233/3/7
f 240/1/1 241/2/1 242/3/1
f 243/4/2 244/5/2 241/6/2
f 243/4/4 240/1/4 242/3/4
f 242/3/4 244/5/4 243/4/4
f 244/5/5 242/3/5 245/9/5
f 246/7/5 243/4/5 240/1/5
f 240/1/5 247/8/5 246/7/5
f 241/2/6 240/1/6 243/4/6
f 241/6/7 244/5/7 242/3/7
f 244/5/3 248/10/3 245/9/3
f 249/1/1 250/2/1 251/3/1
f 252/4/2 253/5/2 250/6/2
f 249/1/3 252/4/3 254/7/3
f 252/4/4 249/1/4 251/3/4
f 251/3/4 253/5/4 252/4/4
f 253/5/5 251/3/5 255/9/5
f 255/9/5 256/10/5 253/5/5
f 249/1/5 257/8/5 254/7/5
f 250/2/6 249/1/6 252/4/6
f 250/6/7 253/5/7 251/3/7
f 258/1/1 259/2/1 260/3/1
f 261/4/2 262/5/2 259/6/2
f 263/7/3 264/8/3 258/1/3
f 258/1/3 261/4/3 263/7/3
f 261/4/4 258/1/4 260/3/4
f 260/3/4 262/5/4 261/4/4
f 262/5/5 260/3/5 265/9/5
f 259/2/6 258/1/6 261/4/6
f 259/6/7 262/5/7 260/3/7
f 262/5/3 266/10/3 265/9/3
f 267/128/4 268/129/4 269/130/4
f 267/128/4 270/131/4 268/129/4
f 271/129/4 267/128/4 272/130/4
f 271/129/4 270/131/4 267/128/4
f 271/132/8 273/133/8 268/134/8
f 271/132/8 274/135/8 273/133/8
f 275/135/15 269/134/15 276/133/15
f 275/135/15 272/132/15 269/134/15
f 277/136/134 278/137/134 279/138/134
f 279/138/134 280/139/134 277/136/134
f 278/140/5 281/141/5 282/142/5
f 282/142/5 279/143/5 278/140/5
f 281/144/135 283/145/135 284/139/135
f 284/139/135 282/138/135 281/144/135
f 283/141/3 277/140/3 280/143/3
f 280/143/3 284/142/3 283/141/3
f 285/146/8 286/147/8 287/148/8
f 287/148/8 288/149/8 285/146/8
f 286/147/136 289/150/136 290/151/136
f 290/151/136 287/148/136 286/147/136
f 289/150/15 291/152/15 292/153/15
f 292/153/15 290/151/15 289/150/15
f 291/152/137 285/146/137 288/149/137
f 288/149/137 292/153/137 291/152/137
f 280/139/8 279/138/8 293/154/8
f 293/154/8 294/155/8 280/139/8
f 279/143/5 282/142/5 295/156/5
f 295/156/5 293/157/5 279/143/5
f 282/138/15 284/139/15 296/155/15
f 296/155/15 295/154/15 282/138/15
f 284/142/3 280/143/3 294/157/3
f 294/157/3 296/156/3 284/142/3
f 281/144/4 278/137/4 277/136/4
f 277/136/4 283/145/4 281/144/4
f 271/158/5 272/159/5 275/160/5
f 275/160/5 274/161/5 271/158/5
f 269/158/3 268/159/3 273/160/3
f 273/160/3 276/161/3 269/158/3
f 275/162/16 276/163/16 273/164/16
f 273/164/16 274/165/16 275/162/16
f 297/166/8 298/167/8 299/167/8
f 299/167/8 300/166/8 297/166/8
f 298/167/5 301/168/5 302/168/5
f 302/168/5 299/167/5 298/167/5
f 301/168/15 303/169/15 304/169/15
f 304/169/15 302/168/15 301/168/15
f 303/169/3 297/166/3 300/166/3
f 300/166/3 304/169/3 303/169/3
f 301/168/4 298/167/4 297/166/4
f 297/166/4 303/169/4 301/168/4
f 305/170/8 306/171/8 307/171/8
f 307/171/8 308/170/8 305/170/8
f 306/171/5 309/172/5 310/172/5
f 310/172/5 307/171/5 306/171/5
f 309/172/15 311/173/15 312/173/15
f 312/173/15 310/172/15 309/172/15
f 311/173/3 305/170/3 308/170/3
f 308/170/3 312/173/3 311/173/3
f 309/172/4 306/171/4 305/170/4
f 305/170/4 311/173/4 309/172/4
f 313/174/4 314/175/4 315/176/4
f 313/174/4 316/177/4 314/175/4
f 313/174/4 317/178/4 316/177/4
f 313/174/4 318/179/4 317/178/4
f 313/174/4 319/180/4 318/179/4
f 313/174/4 320/181/4 319/180/4
f 313/174/4 321/182/4 320/181/4
f 313/174/4 315/176/4 321/182/4
f 322/183/138 323/184/138 315/185/138
f 322/183/139 315/185/139 314/186/139
f 324/187/140 322/183/140 314/186/140
f 324/187/141 314/186/141 316/188/141
f 325/183/142 324/187/142 316/188/142
f 325/183/143 316/188/143 317/186/143
f 326/184/144 325/183/144 317/186/144
f 326/184/145 317/186/145 318/185/145
f 327/189/146 326/184/146 318/185/146
f 327/189/146 318/185/146 319/190/146
f 328/191/147 327/189/147 319/190/147
f 328/191/148 319/190/148 320/192/148
f 329/189/149 328/191/149 320/192/149
f 329/189/150 320/192/150 321/190/150
f 323/184/151 329/189/151 321/190/151
f 323/184/151 321/190/151 315/185/151
f 330/193/152 331/194/152 323/195/152
f 330/193/152 323/195/152 322/196/152
f 332/197/153 330/193/153 322/196/153
f 332/197/153 322/196/153 324/198/153
f 333/193/154 332/197/154 324/198/154
f 333/193/154 324/198/154 325/196/154
f 334/194/155 333/193/155 325/196/155
f 334/194/155 325/196/155 326/195/155
f 335/199/156 334/194/156 326/195/156
f 335/199/156 326/195/156 327/200/156
f 336/201/157 335/199/157 327/200/157
f 336/201/157 327/200/157 328/202/157
f 337/199/158 336/201/158 328/202/158
f 337/199/158 328/202/158 329/200/158
f 331/194/159 337/199/159 329/200/159
f 331/194/159 329/200/159 323/195/159
