# generated by tools/objdedupe/dedupe.py -- do not hand-edit.
# Re-run the tool after touching azd_1svet.obj, azd_2svet.obj, azd_3svet.obj, azd_4svet.obj, azd_5svet.obj, azd_6svet.obj.
o stozar_1svet_S
v -0.011557 0.710267 -0.128544
vt 0.820000 0.786000
vn -0.970300 -0.241900 -0.000000
v 0.000000 0.663917 0.000000
vt 0.843000 0.681000
v -0.011557 0.710267 0.128544
vt 0.820000 0.583000
v 0.011557 0.710267 -0.128544
vt 0.816000 0.782000
vn 0.970300 -0.241900 -0.000000
v 0.011557 0.710267 0.128544
vt 0.816000 0.579000
vt 0.839000 0.676000
v 0.011557 0.726892 -0.128544
vt 0.801000 0.782000
vn -0.000000 -0.000000 1.000000
v -0.011557 0.726892 -0.128544
vt 0.805000 0.786000
vn -0.000000 1.000000 -0.000000
vn -0.000000 -0.000000 -1.000000
v -0.011557 0.726892 0.128544
vt 0.805000 0.583000
vn -0.000000 -0.940700 -0.339200
vn -0.000000 -0.940700 0.339200
v 0.011557 0.726892 0.128544
vt 0.801000 0.579000
v -0.036895 2.570757 0.137876
vt 0.596000 0.885000
vn -1.000000 -0.000000 -0.000000
v -0.036895 2.570757 0.128544
v -0.036895 1.116046 0.128544
vt 0.596000 0.218000
v -0.036895 1.116046 0.137876
vt 0.946000 0.782000
v 0.036895 2.570757 0.128544
vt 0.986000 0.782000
v 0.036895 1.116046 0.128544
vt 0.986000 0.276000
vt 0.946000 0.276000
vt 0.635000 0.885000
vn 1.000000 -0.000000 -0.000000
v 0.036895 2.570757 0.137876
v 0.036895 1.116046 0.137876
vt 0.635000 0.218000
vn -0.000000 -1.000000 -0.000000
v -0.011557 2.341726 -0.128544
v 0.000000 2.295376 0.000000
v -0.011557 2.341726 0.128544
v 0.011557 2.341726 -0.128544
v 0.011557 2.341726 0.128544
v 0.011557 2.358350 -0.128544
v -0.011557 2.358350 0.128544
v 0.011557 2.358350 0.128544
v -0.011557 2.358350 -0.128544
v -0.011557 0.914207 -0.128544
v 0.000000 0.867857 0.000000
v -0.011557 0.914207 0.128544
v 0.011557 0.914207 -0.128544
v 0.011557 0.914207 0.128544
v -0.011557 0.930832 0.128544
v 0.011557 0.930832 -0.128544
v -0.011557 0.930832 -0.128544
v 0.011557 0.930832 0.128544
v -0.021939 2.156140 0.054693
vt 0.507000 0.340000
vn -0.848900 -0.000000 0.528500
v -0.055991 2.156140 0.000000
vt 0.491000 0.324000
v -0.055991 2.143780 0.000000
vt 0.489000 0.330000
v -0.021939 2.143780 0.054693
vt 0.505000 0.346000
vn -0.848900 -0.000000 -0.528500
v -0.021939 2.156140 -0.054693
vt 0.474000 0.340000
v -0.021939 2.143780 -0.054693
vt 0.472000 0.346000
v -0.084851 2.149960 -0.070081
vt 0.469000 0.311000
vn -0.237600 -0.000000 0.971400
v 0.084851 2.149960 -0.070081
vt 0.469000 0.390000
vn 0.237600 -0.000000 0.971400
v 0.021939 2.156140 -0.054693
vt 0.474000 0.360000
v 0.021939 2.143780 -0.054693
vt 0.472000 0.366000
vn 0.848900 -0.000000 -0.528500
v 0.055991 2.156140 0.000000
vt 0.491000 0.376000
v 0.055991 2.143780 0.000000
vt 0.489000 0.382000
vn 0.848900 -0.000000 0.528500
v 0.021939 2.156140 0.054693
vt 0.507000 0.360000
v 0.021939 2.143780 0.054693
vt 0.505000 0.366000
v 0.058895 2.172146 -0.234654
vt 0.418000 0.378000
vn -0.000000 0.891800 0.452400
v -0.058895 2.172146 -0.234654
vt 0.418000 0.323000
v -0.084851 2.161331 -0.213333
vt 0.425000 0.311000
vn -0.000000 0.928000 -0.372700
vn -0.000000 -0.891800 -0.452400
v 0.084851 2.161331 -0.213333
vt 0.425000 0.390000
vn -0.000000 -0.996900 -0.079100
vn -0.000000 -0.928000 -0.372700
v -0.011557 2.137662 -0.128544
v 0.000000 2.091312 0.000000
v -0.011557 2.137662 0.128544
v 0.011557 2.137662 -0.128544
v 0.011557 2.137662 0.128544
v 0.011557 2.154348 -0.128544
v -0.011557 2.154348 0.128544
v 0.011557 2.154348 0.128544
v -0.011557 2.154348 -0.128544
v -0.011557 1.933722 -0.128544
v 0.000000 1.887372 0.000000
v -0.011557 1.933722 0.128544
v 0.011557 1.933722 -0.128544
v 0.011557 1.933722 0.128544
v -0.011557 1.950408 0.128544
v 0.011557 1.950408 0.128544
v 0.011557 1.950408 -0.128544
v -0.011557 1.950408 -0.128544
v -0.011557 1.729782 -0.128544
v 0.000000 1.683432 0.000000
v -0.011557 1.729782 0.128544
v 0.011557 1.729782 -0.128544
v 0.011557 1.729782 0.128544
v 0.011557 1.746468 -0.128544
v -0.011557 1.746468 0.128544
v 0.011557 1.746468 0.128544
v -0.011557 1.746468 -0.128544
v -0.011557 1.525842 -0.128544
v 0.000000 1.479492 0.000000
v -0.011557 1.525842 0.128544
v 0.011557 1.525842 -0.128544
v 0.011557 1.525842 0.128544
v 0.011557 1.542528 -0.128544
v -0.011557 1.542528 0.128544
v 0.011557 1.542528 0.128544
v -0.011557 1.542528 -0.128544
v -0.011557 0.506142 -0.128544
v 0.000000 0.459792 0.000000
v -0.011557 0.506142 0.128544
v 0.011557 0.506142 -0.128544
v 0.011557 0.506142 0.128544
v -0.011557 0.522828 0.128544
v 0.011557 0.522828 -0.128544
v -0.011557 0.522828 -0.128544
v 0.011557 0.522828 0.128544
v -0.011557 1.321902 -0.128544
v 0.000000 1.275552 0.000000
v -0.011557 1.321902 0.128544
v 0.011557 1.321902 -0.128544
v 0.011557 1.321902 0.128544
v -0.011557 1.338588 0.128544
v 0.011557 1.338588 0.128544
v 0.011557 1.338588 -0.128544
v -0.011557 1.338588 -0.128544
v -0.011557 1.117962 -0.128544
v 0.000000 1.071612 0.000000
v -0.011557 1.117962 0.128544
v 0.011557 1.117962 -0.128544
v 0.011557 1.117962 0.128544
v 0.011557 1.134648 -0.128544
v -0.011557 1.134648 0.128544
v 0.011557 1.134648 0.128544
v -0.011557 1.134648 -0.128544
v -0.011557 2.749420 -0.128544
v 0.000000 2.703070 0.000000
v -0.011557 2.749420 0.128544
v 0.011557 2.749420 -0.128544
v 0.011557 2.749420 0.128544
v 0.011557 2.766045 -0.128544
v -0.011557 2.766045 0.128544
v 0.011557 2.766045 0.128544
v -0.011557 2.766045 -0.128544
v -0.011557 2.545480 -0.128544
v 0.000000 2.499130 0.000000
v -0.011557 2.545480 0.128544
v 0.011557 2.545480 -0.128544
v 0.011557 2.545480 0.128544
v 0.011557 2.562105 -0.128544
v -0.011557 2.562105 0.128544
v 0.011557 2.562105 0.128544
v -0.011557 2.562105 -0.128544
v 0.077435 0.251032 0.000000
vt 0.822000 0.207000
v -0.077435 0.251032 0.106049
vt 0.640000 0.012000
v 0.077435 0.251032 0.106049
vt 0.822000 0.012000
v -0.077435 0.251032 0.000000
vt 0.640000 0.207000
v -0.077435 0.251032 -0.106049
v 0.077435 0.251032 -0.106049
vt 0.011000 0.236000
v -0.077435 0.063592 0.106049
vt 0.203000 0.123000
vt 0.205000 0.232000
v -0.077435 0.063592 -0.106049
vt 0.011000 0.125000
v 0.077435 0.063592 -0.106049
v 0.077435 0.063592 0.106049
v -0.053395 0.288050 0.025709
vt 0.134000 0.259000
vn -0.581400 0.813600 -0.000000
v -0.053395 0.288050 -0.025709
vt 0.086000 0.259000
v -0.077435 0.270869 -0.025709
vt 0.086000 0.249000
v -0.077435 0.270869 0.025709
vt 0.134000 0.249000
vt 0.810000 0.991000
v 0.053395 0.288050 -0.025709
vt 0.904000 0.991000
v 0.077435 0.270869 -0.025709
vt 0.912000 0.979000
vt 0.801000 0.979000
vt 0.086000 0.256000
vn 0.581400 0.813600 -0.000000
v 0.053395 0.288050 0.025709
vt 0.134000 0.257000
v 0.077435 0.270869 0.025709
v -0.052654 0.071317 0.093689
vt 0.644000 0.092000
v -0.052654 0.071317 -0.093689
vt 0.635000 0.092000
v -0.052654 0.024535 -0.076138
vt 0.635000 0.057000
v -0.052654 0.024535 0.076138
vt 0.644000 0.057000
vn -0.000000 -0.351300 -0.936300
v 0.052654 0.071317 -0.093689
vt 0.823000 0.092000
v 0.052654 0.024535 -0.076138
vt 0.823000 0.057000
v 0.052654 0.071317 0.093689
vt 0.814000 0.092000
v 0.052654 0.024535 0.076138
vt 0.814000 0.057000
vn -0.000000 -0.351300 0.936300
v -0.077435 0.023360 -0.025709
vt 0.082000 0.088000
v -0.077435 0.023360 0.025709
vt 0.130000 0.088000
v 0.077435 0.023360 -0.025709
vt 0.912000 0.852000
vt 0.801000 0.852000
v 0.077435 0.023360 0.025709
vt 0.927000 0.960000
vt 0.801000 0.960000
vt 0.801000 0.791000
vt 0.927000 0.791000
vt 0.507000 0.305000
vt 0.507000 0.210000
vt 0.417000 0.210000
vt 0.417000 0.305000
v -0.088250 0.024720 0.076756
vt 0.592000 0.043000
v -0.088250 0.024720 -0.076756
vt 0.443000 0.043000
v -0.088250 0.012360 -0.076756
v -0.088250 0.012360 0.076756
v 0.088250 0.024720 -0.076756
vt 0.443000 0.162000
v 0.088250 0.012360 -0.076756
v 0.088250 0.024720 0.076756
vt 0.592000 0.162000
v 0.088250 0.012360 0.076756
v -0.109571 0.012360 0.134291
vt 0.621000 0.003000
v -0.109571 0.012360 -0.134291
vt 0.420000 0.003000
v -0.109571 0.000000 -0.134291
v -0.109571 -0.000000 0.134291
v 0.109571 0.012360 -0.134291
vt 0.420000 0.205000
v 0.109571 0.000000 -0.134291
v 0.109571 0.012360 0.134291
vt 0.621000 0.205000
v 0.109571 -0.000000 0.134291
v 0.021568 2.900892 -0.055681
vt 0.035000 0.064000
vn 0.523300 -0.000000 -0.852100
v 0.048637 2.900892 -0.039057
vt 0.022000 0.061000
v 0.048637 2.781803 -0.039057
vt 0.022000 0.016000
v 0.021568 2.781803 -0.055681
vt 0.035000 0.019000
vn 0.817300 -0.000000 -0.576300
v 0.062233 2.900892 -0.019776
vt 0.008000 0.057000
v 0.062233 2.781803 -0.019776
vt 0.008000 0.012000
vt 0.917000 0.457000
vn 0.995200 -0.000000 0.098300
v 0.055558 2.900892 0.047772
vt 0.908000 0.492000
v 0.055558 2.781803 0.047772
vt 0.849000 0.475000
vt 0.857000 0.442000
vt 0.911000 0.473000
v -0.055620 2.900892 0.047772
vt 0.902000 0.496000
v -0.055620 2.781803 0.047772
vt 0.836000 0.473000
vt 0.845000 0.449000
vn -0.995200 -0.000000 0.098300
v -0.062294 2.900892 -0.019776
v -0.062294 2.781803 -0.019776
vt 0.075000 0.057000
vn -0.817300 -0.000000 -0.576300
v -0.048698 2.900892 -0.039057
vt 0.062000 0.061000
v -0.048698 2.781803 -0.039057
vt 0.062000 0.016000
vt 0.075000 0.012000
vn -0.523300 -0.000000 -0.852100
v -0.021630 2.900892 -0.055681
vt 0.048000 0.064000
v -0.021630 2.781803 -0.055681
vt 0.048000 0.019000
vt 0.918000 0.452000
vt 0.920000 0.447000
vt 0.859000 0.436000
vt 0.860000 0.431000
v 0.024473 2.898173 0.026513
vt 0.907000 0.487000
vn 0.964600 -0.247000 0.092200
v 0.024473 2.986979 0.264504
vt 0.908000 0.680000
v 0.006736 2.917701 0.264504
vt 0.864000 0.670000
vn 0.985000 -0.150000 0.085700
v 0.006736 2.781680 0.026513
vt 0.842000 0.468000
v 0.039799 2.986979 0.264504
v 0.039799 2.917701 0.264504
v 0.039799 2.986979 0.330198
vt 0.903000 0.708000
v 0.039799 2.917701 0.330198
vt 0.858000 0.698000
v -0.039861 2.986979 0.330198
v -0.039861 2.986979 0.264504
v -0.039861 2.917701 0.264504
v -0.039861 2.917701 0.330198
v -0.024596 2.986979 0.264504
v -0.006798 2.917701 0.264504
vn -0.987000 -0.150800 0.056300
v -0.024596 2.898173 0.026513
v -0.006798 2.781680 0.026513
vn -0.958900 -0.246400 0.140800
vt 0.908000 0.669000
vn -0.000000 0.936900 -0.349600
vt 0.892000 0.669000
vt 0.890000 0.516000
vt 0.906000 0.516000
vt 0.860000 0.663000
vn -0.000000 -0.868200 0.496200
vt 0.838000 0.499000
vt 0.844000 0.499000
vt 0.867000 0.662000
v 0.000000 3.219780 0.000001
vt 0.103000 0.044000
vn -0.234200 0.967300 -0.096900
v -0.036091 3.207420 -0.036152
vt 0.093000 0.052000
v -0.051047 3.207420 0.000001
vt 0.102000 0.055000
vn -0.097000 0.967400 -0.234000
v 0.000000 3.207420 -0.051108
vt 0.091000 0.043000
vn 0.097100 0.967400 -0.234000
v 0.036029 3.207420 -0.036152
vt 0.095000 0.036000
vn 0.234500 0.967300 -0.097000
v 0.050985 3.207420 0.000001
vt 0.102000 0.033000
vn 0.234500 0.967200 0.097500
v 0.036029 3.207420 0.035968
vt 0.110000 0.037000
vn 0.097400 0.967200 0.234700
v 0.000000 3.207420 0.050924
vt 0.112000 0.044000
vn -0.097300 0.967200 0.234800
v -0.036091 3.207420 0.035968
vt 0.109000 0.052000
vn -0.234200 0.967300 0.097400
v -0.030591 3.192588 -0.030652
vt 0.103000 0.009000
vn -0.831500 -0.436500 -0.343700
v -0.043260 3.192588 0.000001
vt 0.126000 0.010000
vt 0.126000 0.060000
vn -0.831600 -0.436000 -0.344000
vt 0.099000 0.059000
v 0.000000 3.192588 -0.043321
vt 0.094000 0.007000
vn -0.344300 -0.436000 -0.831500
vn -0.344400 -0.436400 -0.831200
vt 0.088000 0.057000
v 0.030529 3.192588 -0.030652
vn 0.344900 -0.436300 -0.831100
vn 0.345000 -0.436100 -0.831100
v 0.043198 3.192588 0.000001
vn 0.831700 -0.435900 -0.343800
vn 0.831400 -0.436500 -0.343900
v 0.030529 3.192588 0.030468
vt 0.149000 0.009000
vn 0.830900 -0.436200 0.345500
vt 0.154000 0.059000
v 0.000000 3.192588 0.043137
vt 0.159000 0.007000
vn 0.344900 -0.436100 0.831200
vn 0.345000 -0.436300 0.831000
vt 0.165000 0.057000
v -0.030591 3.192588 0.030468
vn -0.344300 -0.436400 0.831300
vn -0.344500 -0.436000 0.831400
vn -0.830900 -0.436200 0.345500
v -0.030591 0.247200 -0.030653
vt 0.946000 0.006000
vn -0.924200 -0.000000 -0.382000
v -0.043260 0.247200 0.000000
vt 0.965000 0.006000
vt 0.965000 0.996000
vt 0.946000 0.996000
v 0.000000 0.247200 -0.043322
vt 0.938000 0.006000
vn -0.382600 -0.000000 -0.923900
vt 0.938000 0.996000
v 0.030529 0.247200 -0.030653
vn 0.383300 -0.000000 -0.923600
v 0.043198 0.247200 0.000000
vn 0.924200 -0.000000 -0.382000
v 0.030529 0.247200 0.030467
vt 0.985000 0.006000
vn 0.923400 -0.000000 0.384000
vt 0.985000 0.996000
v 0.000000 0.247200 0.043136
vt 0.993000 0.006000
vn 0.383300 -0.000000 0.923600
vt 0.993000 0.996000
v -0.030591 0.247200 0.030467
vn -0.382600 -0.000000 0.923900
vn -0.923400 -0.000000 0.384000
f 1/1/1 2/2/1 3/3/1
f 4/4/2 5/5/2 2/6/2
f 6/7/3 7/8/3 1/1/3
f 1/1/3 4/4/3 6/7/3
f 1/1/4 3/3/4 4/4/4
f 3/3/4 5/5/4 4/4/4
f 5/5/5 3/3/5 8/9/5
f 1/1/6 4/4/6 2/2/6
f 2/6/7 5/5/7 3/3/7
f 5/5/3 9/10/3 8/9/3
f 10/11/8 11/11/8 12/12/8
f 12/12/8 13/12/8 10/11/8
f 11/13/5 14/14/5 15/15/5
f 15/15/5 12/16/5 11/13/5
f 14/17/9 16/17/9 17/18/9
f 17/18/9 15/18/9 14/17/9
f 16/17/3 10/11/3 13/12/3
f 13/12/3 17/18/3 16/17/3
f 14/17/4 11/11/4 10/11/4
f 10/11/4 16/17/4 14/17/4
f 15/18/10 17/18/10 13/12/10
f 13/12/10 12/12/10 15/18/10
f 18/1/1 19/2/1 20/3/1
f 21/4/2 22/5/2 19/6/2
f 18/1/3 21/4/3 23/7/3
f 21/4/4 18/1/4 20/3/4
f 20/3/4 22/5/4 21/4/4
f 22/5/5 20/3/5 24/9/5
f 24/9/5 25/10/5 22/5/5
f 18/1/5 26/8/5 23/7/5
f 19/2/6 18/1/6 21/4/6
f 19/6/7 22/5/7 20/3/7
f 27/1/1 28/2/1 29/3/1
f 30/4/2 31/5/2 28/6/2
f 30/4/4 27/1/4 29/3/4
f 29/3/4 31/5/4 30/4/4
f 31/5/5 29/3/5 32/9/5
f 33/7/5 30/4/5 27/1/5
f 27/1/5 34/8/5 33/7/5
f 28/2/6 27/1/6 30/4/6
f 28/6/7 31/5/7 29/3/7
f 31/5/3 35/10/3 32/9/3
f 36/19/11 37/20/11 38/21/11
f 38/21/11 39/22/11 36/19/11
f 37/20/12 40/23/12 41/24/12
f 41/24/12 38/21/12 37/20/12
f 42/25/13 41/24/13 40/23/13
f 43/26/14 44/27/14 45/28/14
f 44/27/15 46/29/15 47/30/15
f 47/30/15 45/28/15 44/27/15
f 46/29/16 48/31/16 49/32/16
f 49/32/16 47/30/16 46/29/16
f 48/31/3 36/19/3 39/22/3
f 39/22/3 49/32/3 48/31/3
f 50/33/17 51/34/17 52/35/17
f 43/26/18 42/25/18 40/23/18
f 40/23/18 44/27/18 43/26/18
f 44/27/4 40/23/4 37/20/4
f 37/20/4 46/29/4 44/27/4
f 46/29/4 37/20/4 36/19/4
f 36/19/4 48/31/4 46/29/4
f 50/33/19 53/36/19 52/35/19
f 53/36/20 43/26/20 42/25/20
f 42/25/20 52/35/20 53/36/20
f 43/26/21 45/28/21 41/24/21
f 41/24/21 42/25/21 43/26/21
f 45/28/10 47/30/10 38/21/10
f 38/21/10 41/24/10 45/28/10
f 47/30/10 49/32/10 39/22/10
f 39/22/10 38/21/10 47/30/10
f 54/1/1 55/2/1 56/3/1
f 57/4/2 58/5/2 55/6/2
f 54/1/3 57/4/3 59/7/3
f 57/4/4 54/1/4 56/3/4
f 56/3/4 58/5/4 57/4/4
f 58/5/5 56/3/5 60/9/5
f 60/9/5 61/10/5 58/5/5
f 54/1/5 62/8/5 59/7/5
f 55/2/6 54/1/6 57/4/6
f 55/6/7 58/5/7 56/3/7
f 63/1/1 64/2/1 65/3/1
f 66/4/2 67/5/2 64/6/2
f 66/4/4 63/1/4 65/3/4
f 65/3/4 67/5/4 66/4/4
f 67/5/5 65/3/5 68/9/5
f 68/9/5 69/10/5 67/5/5
f 70/7/5 66/4/5 63/1/5
f 63/1/5 71/8/5 70/7/5
f 64/2/6 63/1/6 66/4/6
f 64/6/7 67/5/7 65/3/7
f 72/1/1 73/2/1 74/3/1
f 75/4/2 76/5/2 73/6/2
f 72/1/3 75/4/3 77/7/3
f 75/4/4 72/1/4 74/3/4
f 74/3/4 76/5/4 75/4/4
f 76/5/5 74/3/5 78/9/5
f 78/9/5 79/10/5 76/5/5
f 72/1/5 80/8/5 77/7/5
f 73/2/6 72/1/6 75/4/6
f 73/6/7 76/5/7 74/3/7
f 81/1/1 82/2/1 83/3/1
f 84/4/2 85/5/2 82/6/2
f 81/1/3 84/4/3 86/7/3
f 84/4/4 81/1/4 83/3/4
f 83/3/4 85/5/4 84/4/4
f 85/5/5 83/3/5 87/9/5
f 87/9/5 88/10/5 85/5/5
f 81/1/5 89/8/5 86/7/5
f 82/2/6 81/1/6 84/4/6
f 82/6/7 85/5/7 83/3/7
f 90/1/1 91/2/1 92/3/1
f 93/4/2 94/5/2 91/6/2
f 93/4/4 90/1/4 92/3/4
f 92/3/4 94/5/4 93/4/4
f 94/5/5 92/3/5 95/9/5
f 96/7/5 93/4/5 90/1/5
f 90/1/5 97/8/5 96/7/5
f 91/2/6 90/1/6 93/4/6
f 91/6/7 94/5/7 92/3/7
f 94/5/3 98/10/3 95/9/3
f 99/1/1 100/2/1 101/3/1
f 102/4/2 103/5/2 100/6/2
f 102/4/4 99/1/4 101/3/4
f 101/3/4 103/5/4 102/4/4
f 103/5/5 101/3/5 104/9/5
f 104/9/5 105/10/5 103/5/5
f 106/7/5 102/4/5 99/1/5
f 99/1/5 107/8/5 106/7/5
f 100/2/6 99/1/6 102/4/6
f 100/6/7 103/5/7 101/3/7
f 108/1/1 109/2/1 110/3/1
f 111/4/2 112/5/2 109/6/2
f 108/1/3 111/4/3 113/7/3
f 111/4/4 108/1/4 110/3/4
f 110/3/4 112/5/4 111/4/4
f 112/5/5 110/3/5 114/9/5
f 114/9/5 115/10/5 112/5/5
f 108/1/5 116/8/5 113/7/5
f 109/2/6 108/1/6 111/4/6
f 109/6/7 112/5/7 110/3/7
f 117/1/1 118/2/1 119/3/1
f 120/4/2 121/5/2 118/6/2
f 117/1/3 120/4/3 122/7/3
f 120/4/4 117/1/4 119/3/4
f 119/3/4 121/5/4 120/4/4
f 121/5/5 119/3/5 123/9/5
f 123/9/5 124/10/5 121/5/5
f 117/1/5 125/8/5 122/7/5
f 118/2/6 117/1/6 120/4/6
f 118/6/7 121/5/7 119/3/7
f 126/1/1 127/2/1 128/3/1
f 129/4/2 130/5/2 127/6/2
f 126/1/3 129/4/3 131/7/3
f 129/4/4 126/1/4 128/3/4
f 128/3/4 130/5/4 129/4/4
f 130/5/5 128/3/5 132/9/5
f 132/9/5 133/10/5 130/5/5
f 126/1/5 134/8/5 131/7/5
f 127/2/6 126/1/6 129/4/6
f 127/6/7 130/5/7 128/3/7
f 135/37/4 136/38/4 137/39/4
f 135/37/4 138/40/4 136/38/4
f 139/38/4 135/37/4 140/39/4
f 139/38/4 138/40/4 135/37/4
f 139/41/8 141/42/8 136/43/8
f 139/41/8 142/44/8 141/42/8
f 143/44/9 137/43/9 144/42/9
f 143/44/9 140/41/9 137/43/9
f 145/45/22 146/46/22 147/47/22
f 147/47/22 148/48/22 145/45/22
f 146/49/5 149/50/5 150/51/5
f 150/51/5 147/52/5 146/49/5
f 149/53/23 151/54/23 152/48/23
f 152/48/23 150/47/23 149/53/23
f 151/50/3 145/49/3 148/52/3
f 148/52/3 152/51/3 151/50/3
f 153/55/8 154/56/8 155/57/8
f 155/57/8 156/58/8 153/55/8
f 154/56/24 157/59/24 158/60/24
f 158/60/24 155/57/24 154/56/24
f 157/59/9 159/61/9 160/62/9
f 160/62/9 158/60/9 157/59/9
f 159/61/25 153/55/25 156/58/25
f 156/58/25 160/62/25 159/61/25
f 148/48/8 147/47/8 161/63/8
f 161/63/8 162/64/8 148/48/8
f 147/52/5 150/51/5 163/65/5
f 163/65/5 161/66/5 147/52/5
f 150/47/9 152/48/9 164/64/9
f 164/64/9 163/63/9 150/47/9
f 152/51/3 148/52/3 162/66/3
f 162/66/3 164/65/3 152/51/3
f 149/53/4 146/46/4 145/45/4
f 145/45/4 151/54/4 149/53/4
f 139/67/5 140/68/5 143/69/5
f 143/69/5 142/70/5 139/67/5
f 137/67/3 136/68/3 141/69/3
f 141/69/3 144/70/3 137/67/3
f 143/71/10 144/72/10 141/73/10
f 141/73/10 142/74/10 143/71/10
f 165/75/8 166/76/8 167/76/8
f 167/76/8 168/75/8 165/75/8
f 166/76/5 169/77/5 170/77/5
f 170/77/5 167/76/5 166/76/5
f 169/77/9 171/78/9 172/78/9
f 172/78/9 170/77/9 169/77/9
f 171/78/3 165/75/3 168/75/3
f 168/75/3 172/78/3 171/78/3
f 169/77/4 166/76/4 165/75/4
f 165/75/4 171/78/4 169/77/4
f 173/79/8 174/80/8 175/80/8
f 175/80/8 176/79/8 173/79/8
f 174/80/5 177/81/5 178/81/5
f 178/81/5 175/80/5 174/80/5
f 177/81/9 179/82/9 180/82/9
f 180/82/9 178/81/9 177/81/9
f 179/82/3 173/79/3 176/79/3
f 176/79/3 180/82/3 179/82/3
f 177/81/4 174/80/4 173/79/4
f 173/79/4 179/82/4 177/81/4
f 181/83/26 182/84/26 183/85/26
f 183/85/26 184/86/26 181/83/26
f 182/84/27 185/87/27 186/88/27
f 186/88/27 183/85/27 182/84/27
f 185/89/28 187/90/28 188/91/28
f 188/91/28 186/92/28 185/89/28
f 187/93/3 189/94/3 190/95/3
f 190/95/3 188/96/3 187/93/3
f 189/90/29 191/89/29 192/92/29
f 192/92/29 190/91/29 189/90/29
f 191/97/30 193/98/30 194/99/30
f 194/99/30 192/100/30 191/97/30
f 193/98/31 195/101/31 196/102/31
f 196/102/31 194/99/31 193/98/31
f 195/101/5 181/83/5 184/86/5
f 184/86/5 196/102/5 195/101/5
f 189/90/4 187/90/4 185/89/4
f 185/89/4 191/89/4 189/90/4
f 191/89/4 185/89/4 182/103/4
f 182/103/4 193/103/4 191/89/4
f 193/103/4 182/103/4 181/104/4
f 181/104/4 195/104/4 193/103/4
f 190/91/10 192/92/10 186/92/10
f 186/92/10 188/91/10 190/91/10
f 192/92/10 194/105/10 183/105/10
f 183/105/10 186/92/10 192/92/10
f 194/105/10 196/106/10 184/106/10
f 184/106/10 183/105/10 194/105/10
f 197/107/32 198/108/32 199/109/32
f 199/109/33 200/110/33 197/107/33
f 198/108/5 201/108/5 202/109/5
f 202/109/5 199/109/5 198/108/5
f 201/108/9 203/111/9 204/112/9
f 204/112/9 202/109/9 201/108/9
f 205/111/8 206/108/8 207/109/8
f 207/109/8 208/112/8 205/111/8
f 206/108/5 209/108/5 210/109/5
f 210/109/5 207/109/5 206/108/5
f 209/108/34 211/107/34 212/110/34
f 212/110/35 210/109/35 209/108/35
f 209/113/36 198/114/36 197/115/36
f 197/115/36 211/116/36 209/113/36
f 208/112/10 207/109/10 202/109/10
f 202/109/10 204/112/10 208/112/10
f 210/117/37 212/118/37 200/119/37
f 200/119/37 199/120/37 210/117/37
f 213/121/38 214/122/38 215/123/38
f 213/121/39 216/124/39 214/122/39
f 213/121/40 217/125/40 216/124/40
f 213/121/41 218/126/41 217/125/41
f 213/121/42 219/127/42 218/126/42
f 213/121/43 220/128/43 219/127/43
f 213/121/44 221/129/44 220/128/44
f 213/121/45 215/123/45 221/129/45
f 222/130/46 223/131/46 215/132/46
f 222/130/47 215/132/47 214/133/47
f 224/134/48 222/130/48 214/133/48
f 224/134/49 214/133/49 216/135/49
f 225/130/50 224/134/50 216/135/50
f 225/130/51 216/135/51 217/133/51
f 226/131/52 225/130/52 217/133/52
f 226/131/53 217/133/53 218/132/53
f 227/136/54 226/131/54 218/132/54
f 227/136/54 218/132/54 219/137/54
f 228/138/55 227/136/55 219/137/55
f 228/138/56 219/137/56 220/139/56
f 229/136/57 228/138/57 220/139/57
f 229/136/58 220/139/58 221/137/58
f 223/131/59 229/136/59 221/137/59
f 223/131/59 221/137/59 215/132/59
f 230/140/60 231/141/60 223/142/60
f 230/140/60 223/142/60 222/143/60
f 232/144/61 230/140/61 222/143/61
f 232/144/61 222/143/61 224/145/61
f 233/140/62 232/144/62 224/145/62
f 233/140/62 224/145/62 225/143/62
f 234/141/63 233/140/63 225/143/63
f 234/141/63 225/143/63 226/142/63
f 235/146/64 234/141/64 226/142/64
f 235/146/64 226/142/64 227/147/64
f 236/148/65 235/146/65 227/147/65
f 236/148/65 227/147/65 228/149/65
f 237/146/66 236/148/66 228/149/66
f 237/146/66 228/149/66 229/147/66
f 231/141/67 237/146/67 229/147/67
f 231/141/67 229/147/67 223/142/67
