# generated by tools/objdedupe/dedupe.py -- do not hand-edit.
# Re-run the tool after touching azd_1svet.obj, azd_2svet.obj, azd_3svet.obj, azd_4svet.obj, azd_5svet.obj, azd_6svet.obj.
o stozar_3svet_R
v 0.330197 3.121703 0.039800
vt 0.904000 0.702000
vn 1.000000 -0.000000 -0.000000
v 0.330197 3.191043 -0.039860
vt 0.866000 0.700000
v 0.330197 3.191043 0.039800
vt 0.903000 0.708000
v 0.330197 3.121703 -0.039861
vt 0.867000 0.694000
v 0.233542 3.796436 0.000001
vt 0.231000 0.029000
vn -0.000000 -0.000000 -1.000000
v 0.271858 3.796436 0.000001
vt 0.201000 0.029000
v 0.233542 3.763002 0.000001
vt 0.231000 0.007000
v 0.271858 3.763002 0.000001
vt 0.201000 0.007000
vn -0.000000 -0.000000 1.000000
v -0.039058 3.104894 0.048637
vt 0.022000 0.061000
vn -0.852100 -0.000000 0.523300
v -0.055682 3.104894 0.021569
vt 0.035000 0.064000
v -0.039058 2.985867 0.048637
vt 0.022000 0.016000
v -0.055682 2.985867 0.021569
vt 0.035000 0.019000
v -0.019776 3.104894 0.062233
vt 0.008000 0.057000
vn -0.576300 -0.000000 0.817300
v -0.019776 2.985867 0.062233
vt 0.008000 0.012000
v 0.047771 3.104894 0.055559
vt 0.908000 0.492000
vn 0.098300 -0.000000 0.995200
vt 0.917000 0.457000
v 0.047771 2.985867 0.055559
vt 0.849000 0.475000
vt 0.857000 0.442000
v 0.047771 3.104894 -0.055620
vt 0.902000 0.496000
vt 0.911000 0.473000
v 0.047771 2.985867 -0.055620
vt 0.836000 0.473000
vt 0.845000 0.449000
v -0.019776 3.104894 -0.062294
vn 0.098300 -0.000000 -0.995200
v -0.019776 2.985867 -0.062294
v -0.039058 3.104894 -0.048698
vt 0.062000 0.061000
vn -0.576300 -0.000000 -0.817300
vt 0.075000 0.057000
v -0.039058 2.985867 -0.048698
vt 0.062000 0.016000
vt 0.075000 0.012000
v -0.055682 3.104894 -0.021630
vt 0.048000 0.064000
vn -0.852100 -0.000000 -0.523300
v -0.055682 2.985867 -0.021630
vt 0.048000 0.019000
vn -1.000000 -0.000000 -0.000000
vn -0.000000 1.000000 -0.000000
vt 0.918000 0.452000
vt 0.920000 0.447000
vn -0.000100 1.000000 -0.000000
vn -0.000000 -1.000000 -0.000000
vt 0.859000 0.436000
vt 0.860000 0.431000
v 0.264504 3.191043 0.024473
vt 0.908000 0.680000
vn 0.092100 -0.246800 0.964700
v 0.026512 3.102175 0.024473
vt 0.907000 0.487000
v 0.264504 3.121703 0.006737
vt 0.864000 0.670000
v 0.026512 2.985682 0.006737
vt 0.842000 0.468000
vn 0.085700 -0.150000 0.985000
v 0.264504 3.191043 0.039800
v 0.264504 3.121703 0.039800
v 0.264504 3.191043 -0.039860
v 0.264504 3.121703 -0.039861
vt 0.858000 0.698000
v 0.264504 3.191043 -0.024596
v 0.264504 3.121703 -0.006798
v 0.026512 3.102175 -0.024596
vn 0.056300 -0.150800 -0.987000
v 0.026512 2.985682 -0.006798
vn 0.140700 -0.246200 -0.959000
vt 0.892000 0.669000
vn -0.349800 0.936800 -0.000000
vt 0.908000 0.669000
vt 0.890000 0.516000
vt 0.906000 0.516000
vt 0.838000 0.499000
vn 0.496200 -0.868200 -0.000000
vt 0.860000 0.663000
vt 0.844000 0.499000
vt 0.867000 0.662000
v 0.305786 3.854775 -0.020579
vt 0.197000 0.050000
v 0.292190 3.854775 0.002905
vt 0.188000 0.050000
v 0.319382 3.854775 0.002905
v 0.278594 3.854775 -0.020579
v 0.264998 3.854775 0.002905
v 0.278594 3.854775 0.026451
vt 0.179000 0.050000
v 0.305786 3.854775 0.026451
v 0.319444 3.747181 0.002905
vt 0.188000 0.008000
vn 0.865400 0.000500 -0.501000
v 0.305848 3.747181 -0.020579
vt 0.197000 0.008000
v 0.278718 3.747181 -0.020579
vn -0.865400 -0.001000 -0.501000
v 0.265122 3.747181 0.002905
vn -0.866000 -0.001000 0.500100
v 0.278718 3.747181 0.026451
vt 0.179000 0.008000
v 0.305848 3.747181 0.026451
vn 0.866000 0.000500 0.500000
vn 0.866000 0.000500 0.500100
v 0.289348 3.832589 0.015327
vt 0.190000 0.040000
vn -0.003500 0.924800 0.380400
v 0.289348 3.838892 0.000001
vt 0.190000 0.043000
v 0.223778 3.832341 0.015327
vt 0.233000 0.040000
v 0.223098 3.838645 0.000001
vt 0.234000 0.042000
vn -0.003400 0.924800 0.380500
v 0.289348 3.817386 0.021631
vt 0.190000 0.036000
vn -0.001500 0.383000 0.923700
v 0.225446 3.817139 0.021631
vt 0.233000 0.036000
vn -0.001400 0.382900 0.923800
v 0.289348 3.802183 0.015265
vt 0.190000 0.032000
vn 0.001500 -0.386200 0.922400
v 0.227115 3.801936 0.015265
vt 0.233000 0.032000
vn 0.001500 -0.386100 0.922500
v 0.289348 3.795879 0.000001
vt 0.190000 0.029000
vn 0.003700 -0.924300 0.381700
v 0.227795 3.795632 0.000001
vt 0.233000 0.029000
vn 0.003700 -0.924200 0.381800
v 0.289348 3.802183 -0.015264
vn 0.003700 -0.924300 -0.381700
v 0.227115 3.801936 -0.015264
vn 0.003700 -0.924200 -0.381800
v 0.289348 3.817386 -0.021568
vn 0.001500 -0.383000 -0.923700
v 0.225446 3.817139 -0.021568
vn 0.001500 -0.382900 -0.923800
v 0.289348 3.832589 -0.015202
vn -0.001500 0.386200 -0.922400
v 0.223778 3.832341 -0.015202
vn -0.001500 0.386100 -0.922500
vn -0.003500 0.923700 -0.383000
vn -0.003500 0.923700 -0.383200
v 0.104380 3.805830 0.000001
vt 0.875000 0.270000
vn -0.246100 0.890300 0.383200
v 0.106111 3.799711 0.015327
vt 0.888000 0.270000
vt 0.875000 0.428000
vn -0.247400 0.892200 0.377900
vt 0.888000 0.428000
vn -0.101800 0.367200 0.924600
v 0.110313 3.785003 0.021631
vt 0.901000 0.270000
vn -0.103600 0.371200 0.922700
vt 0.901000 0.428000
vn 0.103400 -0.370400 0.923100
v 0.114454 3.770294 0.015265
vt 0.915000 0.270000
vn 0.105100 -0.374200 0.921400
vt 0.915000 0.428000
vn 0.249900 -0.890000 0.381500
v 0.116184 3.764238 0.000001
vt 0.928000 0.270000
vn 0.250600 -0.890800 0.379000
vt 0.928000 0.428000
vn 0.250300 -0.889900 -0.381500
v 0.114454 3.770294 -0.015264
vn 0.250200 -0.890900 -0.379000
vn 0.102800 -0.365900 -0.924900
v 0.110313 3.785065 -0.021568
vn 0.103400 -0.371300 -0.922800
vn -0.103100 0.370100 -0.923300
v 0.106111 3.799773 -0.015202
vn -0.103600 0.374400 -0.921400
vn -0.246400 0.890400 -0.382800
vn -0.246400 0.891300 -0.380600
v 0.048019 3.777834 0.000001
vt 0.875000 0.218000
vn -0.412000 0.829500 0.377100
v 0.051788 3.772767 0.015265
vt 0.888000 0.218000
vn -0.411800 0.829400 0.377600
vn -0.174100 0.348900 0.920900
v 0.061058 3.760592 0.021631
vt 0.901000 0.218000
vn -0.171600 0.346200 0.922300
vn 0.173000 -0.349000 0.921000
v 0.070267 3.748355 0.015265
vt 0.915000 0.218000
vn 0.173600 -0.349600 0.920700
vn 0.412400 -0.830600 0.374200
v 0.074036 3.743349 0.000001
vt 0.928000 0.218000
vn 0.411500 -0.830200 0.376100
vn 0.411800 -0.830900 -0.374200
v 0.070267 3.748355 -0.015264
vn 0.412100 -0.829900 -0.376000
vn 0.171800 -0.345900 -0.922400
v 0.061058 3.760592 -0.021568
vn 0.171700 -0.345600 -0.922500
vn -0.172100 0.346400 -0.922200
v 0.051788 3.772767 -0.015264
vn -0.172600 0.349300 -0.921000
vn -0.412000 0.829500 -0.377100
vn -0.412000 0.829400 -0.377300
v -0.003214 3.721596 0.000001
vt 0.875000 0.165000
vn -0.685300 0.624300 0.375100
v 0.002101 3.718259 0.015265
vt 0.888000 0.165000
vn -0.684700 0.624200 0.376300
vn -0.285500 0.260300 0.922400
v 0.015141 3.710224 0.021569
vt 0.901000 0.165000
vn -0.288500 0.261900 0.921000
vn 0.285800 -0.261700 0.921900
v 0.028119 3.702191 0.015265
vt 0.915000 0.165000
vn 0.287700 -0.262600 0.921000
vn 0.683900 -0.624400 0.377400
v 0.033496 3.698853 0.000001
vt 0.928000 0.165000
vn 0.685500 -0.624600 0.374100
vn 0.684500 -0.623700 -0.377500
v 0.028119 3.702191 -0.015264
vn 0.684900 -0.625300 -0.374200
vn 0.288500 -0.263400 -0.920600
v 0.015141 3.710224 -0.021629
vn 0.286200 -0.259800 -0.922300
vn -0.286700 0.262500 -0.921300
v 0.002101 3.718321 -0.015264
vn -0.285300 0.260400 -0.922400
vn -0.685400 0.625500 -0.372800
vn -0.684900 0.623900 -0.376300
v -0.018169 3.659796 0.000001
vt 0.875000 0.112000
vn -0.898800 0.217500 0.380600
v -0.011989 3.658622 0.015265
vt 0.888000 0.112000
vn -0.907000 0.214300 0.362600
vn -0.371400 0.087700 0.924300
v 0.003028 3.655779 0.021569
vt 0.901000 0.112000
vn -0.389800 0.086700 0.916800
vn 0.372600 -0.082900 0.924300
v 0.018046 3.652998 0.015265
vt 0.915000 0.112000
vn 0.394600 -0.080800 0.915300
vn 0.904500 -0.185200 0.384100
v 0.024287 3.651824 0.000001
vt 0.928000 0.112000
vn 0.915000 -0.179200 0.361500
vn 0.906100 -0.177400 -0.384200
v 0.018046 3.652998 -0.015264
vn 0.913000 -0.187000 -0.362500
vn 0.376700 -0.077100 -0.923100
v 0.003028 3.655841 -0.021629
vn 0.394300 -0.087800 -0.914800
vn -0.375700 0.083700 -0.923000
v -0.011989 3.658622 -0.015264
vn -0.390100 0.092100 -0.916200
vn -0.900000 0.212400 -0.380700
vn -0.905900 0.219200 -0.362400
v -0.018169 3.498621 0.000001
vt 0.875000 0.007000
vn -0.926400 -0.000000 0.376600
v -0.011989 3.498621 0.015203
vt 0.888000 0.007000
vn -0.926900 -0.000100 0.375300
vn -0.390300 -0.000400 0.920700
v 0.003028 3.498621 0.021569
vt 0.901000 0.007000
vn -0.387000 -0.000000 0.922100
vn 0.390300 -0.000000 0.920700
v 0.018046 3.498621 0.015203
vt 0.915000 0.007000
vn 0.387000 -0.000400 0.922100
vn 0.925100 -0.000200 0.379800
v 0.024287 3.498621 0.000001
vt 0.928000 0.007000
vn 0.925600 -0.000000 0.378500
vn 0.926100 -0.000000 -0.377200
v 0.018046 3.498621 -0.015326
vn 0.925600 0.000200 -0.378500
vn 0.387000 0.000400 -0.922100
v 0.003028 3.498621 -0.021629
vn 0.390300 -0.000000 -0.920700
vn -0.387000 -0.000000 -0.922100
v -0.011989 3.498621 -0.015326
vn -0.390200 0.000400 -0.920700
vn -0.927400 0.000100 -0.374000
vn -0.926900 -0.000000 -0.375300
v -0.011557 2.749482 -0.128544
vt 0.820000 0.786000
vn -0.970300 -0.241900 -0.000000
v 0.000000 2.703132 0.000000
vt 0.843000 0.681000
v -0.011557 2.749482 0.128544
vt 0.820000 0.583000
v 0.011557 2.749482 -0.128544
vt 0.816000 0.782000
vn 0.970300 -0.241900 -0.000000
v 0.011557 2.749482 0.128544
vt 0.816000 0.579000
vt 0.839000 0.676000
v -0.011557 2.766168 0.128544
vt 0.805000 0.583000
v 0.011557 2.766168 -0.128544
vt 0.801000 0.782000
v -0.011557 2.766168 -0.128544
vt 0.805000 0.786000
vn -0.000000 -0.940700 -0.339200
vn -0.000000 -0.940700 0.339200
v 0.011557 2.766168 0.128544
vt 0.801000 0.579000
v 0.264998 3.115894 0.040170
vt 0.926000 0.426000
v 0.319568 3.115894 0.040170
vt 0.873000 0.426000
v 0.319568 2.981665 0.040170
vt 0.873000 0.373000
v 0.264998 2.981665 0.040170
vt 0.926000 0.373000
v 0.160186 3.042105 0.044064
vt 0.946000 0.550000
vn -0.001600 -0.000000 -1.000000
v 0.424381 3.042105 0.043631
vt 0.986000 0.550000
v 0.424381 2.934326 0.043631
vt 0.986000 0.507000
v 0.160186 2.934326 0.044064
vt 0.946000 0.507000
vt 0.818000 0.425000
vn 0.001600 -0.000000 1.000000
vt 0.818000 0.329000
vt 0.870000 0.329000
vt 0.870000 0.425000
v -0.011557 0.710267 -0.128544
v 0.000000 0.663917 0.000000
v -0.011557 0.710267 0.128544
v 0.011557 0.710267 -0.128544
v 0.011557 0.710267 0.128544
v 0.011557 0.726892 -0.128544
v -0.011557 0.726892 -0.128544
v 0.011557 0.726892 0.128544
v -0.011557 0.726892 0.128544
v -0.011557 0.914207 -0.128544
v 0.000000 0.867857 0.000000
v -0.011557 0.914207 0.128544
v 0.011557 0.914207 -0.128544
v 0.011557 0.914207 0.128544
v -0.011557 0.930832 0.128544
v 0.011557 0.930832 -0.128544
v -0.011557 0.930832 -0.128544
v 0.011557 0.930832 0.128544
v -0.036895 2.366940 0.137876
vt 0.596000 0.772000
v -0.036895 2.366940 0.128544
v -0.036895 1.116046 0.128544
vt 0.596000 0.218000
v -0.036895 1.116046 0.137876
vt 0.946000 0.782000
v 0.036895 2.366940 0.128544
vt 0.986000 0.782000
v 0.036895 1.116046 0.128544
vt 0.986000 0.276000
vt 0.946000 0.276000
vt 0.635000 0.772000
v 0.036895 2.366940 0.137876
v 0.036895 1.116046 0.137876
vt 0.635000 0.218000
v -0.021939 2.360574 0.054693
vt 0.507000 0.340000
vn -0.848900 -0.000000 0.528500
v -0.055991 2.360574 0.000000
vt 0.491000 0.324000
v -0.055991 2.348214 0.000000
vt 0.489000 0.330000
v -0.021939 2.348214 0.054693
vt 0.505000 0.346000
vn -0.848900 -0.000000 -0.528500
v -0.021939 2.360574 -0.054693
vt 0.474000 0.340000
v -0.021939 2.348214 -0.054693
vt 0.472000 0.346000
v -0.084851 2.354394 -0.070081
vt 0.469000 0.311000
vn -0.237600 -0.000000 0.971400
v 0.084851 2.354394 -0.070081
vt 0.469000 0.390000
vn 0.237600 -0.000000 0.971400
v 0.021939 2.360574 -0.054693
vt 0.474000 0.360000
v 0.021939 2.348214 -0.054693
vt 0.472000 0.366000
vn 0.848900 -0.000000 -0.528500
v 0.055991 2.360574 0.000000
vt 0.491000 0.376000
v 0.055991 2.348214 0.000000
vt 0.489000 0.382000
vn 0.848900 -0.000000 0.528500
v 0.021939 2.360574 0.054693
vt 0.507000 0.360000
v 0.021939 2.348214 0.054693
vt 0.505000 0.366000
v 0.058895 2.376519 -0.234654
vt 0.418000 0.378000
vn -0.000000 0.891800 0.452400
v -0.058895 2.376519 -0.234654
vt 0.418000 0.323000
v -0.084851 2.365704 -0.213333
vt 0.425000 0.311000
v 0.084851 2.365704 -0.213333
vt 0.425000 0.390000
vn -0.000000 0.996900 0.078700
vn -0.000000 0.928000 -0.372700
vn -0.000000 -0.996900 -0.078700
vn -0.000000 -0.928000 -0.372700
v -0.011557 2.545542 -0.128544
v 0.000000 2.499192 0.000000
v -0.011557 2.545542 0.128544
v 0.011557 2.545542 -0.128544
v 0.011557 2.545542 0.128544
v 0.011557 2.562228 -0.128544
v -0.011557 2.562228 0.128544
v 0.011557 2.562228 0.128544
v -0.011557 2.562228 -0.128544
v -0.011557 2.341602 -0.128544
v 0.000000 2.295252 0.000000
v -0.011557 2.341602 0.128544
v 0.011557 2.341602 -0.128544
v 0.011557 2.341602 0.128544
v -0.011557 2.358288 0.128544
v 0.011557 2.358288 0.128544
v 0.011557 2.358288 -0.128544
v -0.011557 2.358288 -0.128544
v -0.011557 2.137662 -0.128544
v 0.000000 2.091312 0.000000
v -0.011557 2.137662 0.128544
v 0.011557 2.137662 -0.128544
v 0.011557 2.137662 0.128544
v 0.011557 2.154348 -0.128544
v -0.011557 2.154348 0.128544
v 0.011557 2.154348 0.128544
v -0.011557 2.154348 -0.128544
v -0.011557 1.933722 -0.128544
v 0.000000 1.887372 0.000000
v -0.011557 1.933722 0.128544
v 0.011557 1.933722 -0.128544
v 0.011557 1.933722 0.128544
v 0.011557 1.950408 -0.128544
v -0.011557 1.950408 0.128544
v 0.011557 1.950408 0.128544
v -0.011557 1.950408 -0.128544
v -0.011557 1.729782 -0.128544
v 0.000000 1.683432 0.000000
v -0.011557 1.729782 0.128544
v 0.011557 1.729782 -0.128544
v 0.011557 1.729782 0.128544
v -0.011557 1.746468 0.128544
v 0.011557 1.746468 0.128544
v 0.011557 1.746468 -0.128544
v -0.011557 1.746468 -0.128544
v -0.011557 1.117962 -0.128544
v 0.000000 1.071612 0.000000
v -0.011557 1.117962 0.128544
v 0.011557 1.117962 -0.128544
v 0.011557 1.117962 0.128544
v 0.011557 1.134648 -0.128544
v -0.011557 1.134648 0.128544
v 0.011557 1.134648 0.128544
v -0.011557 1.134648 -0.128544
v -0.011557 0.506142 -0.128544
v 0.000000 0.459792 0.000000
v -0.011557 0.506142 0.128544
v 0.011557 0.506142 -0.128544
v 0.011557 0.506142 0.128544
v -0.011557 0.522828 0.128544
v 0.011557 0.522828 0.128544
v 0.011557 0.522828 -0.128544
v -0.011557 0.522828 -0.128544
v -0.011557 1.525842 -0.128544
v 0.000000 1.479492 0.000000
v -0.011557 1.525842 0.128544
v 0.011557 1.525842 -0.128544
v 0.011557 1.525842 0.128544
v 0.011557 1.542528 -0.128544
v -0.011557 1.542528 0.128544
v 0.011557 1.542528 0.128544
v -0.011557 1.542528 -0.128544
v -0.011557 1.321902 -0.128544
v 0.000000 1.275552 0.000000
v -0.011557 1.321902 0.128544
v 0.011557 1.321902 -0.128544
v 0.011557 1.321902 0.128544
v 0.011557 1.338588 -0.128544
v -0.011557 1.338588 -0.128544
v -0.011557 1.338588 0.128544
v 0.011557 1.338588 0.128544
v -0.011557 3.361302 -0.128543
v 0.000000 3.314952 0.000001
v -0.011557 3.361302 0.128545
v 0.011557 3.361302 -0.128543
v 0.011557 3.361302 0.128545
v -0.011557 3.377988 0.128545
v 0.011557 3.377988 -0.128543
v -0.011557 3.377988 -0.128543
v 0.011557 3.377988 0.128545
v -0.011557 3.157362 -0.128543
v 0.000000 3.111012 0.000000
v -0.011557 3.157362 0.128544
v 0.011557 3.157362 -0.128543
v 0.011557 3.157362 0.128544
v 0.011557 3.174048 -0.128543
v -0.011557 3.174048 0.128544
v 0.011557 3.174048 0.128544
v -0.011557 3.174048 -0.128543
v -0.011557 2.953422 -0.128544
v 0.000000 2.907072 0.000000
v -0.011557 2.953422 0.128544
v 0.011557 2.953422 -0.128544
v 0.011557 2.953422 0.128544
v 0.011557 2.970108 -0.128544
v -0.011557 2.970108 -0.128544
v -0.011557 2.970108 0.128544
v 0.011557 2.970108 0.128544
v 0.077435 0.251032 0.000000
vt 0.822000 0.207000
v -0.077435 0.251032 0.106049
vt 0.640000 0.012000
v 0.077435 0.251032 0.106049
vt 0.822000 0.012000
v -0.077435 0.251032 0.000000
vt 0.640000 0.207000
v -0.077435 0.251032 -0.106049
v 0.077435 0.251032 -0.106049
vt 0.011000 0.236000
v -0.077435 0.063592 0.106049
vt 0.203000 0.123000
vt 0.205000 0.232000
v -0.077435 0.063592 -0.106049
vt 0.011000 0.125000
v 0.077435 0.063592 -0.106049
v 0.077435 0.063592 0.106049
v -0.053395 0.288050 0.025709
vt 0.134000 0.259000
vn -0.581400 0.813600 -0.000000
v -0.053395 0.288050 -0.025709
vt 0.086000 0.259000
v -0.077435 0.270869 -0.025709
vt 0.086000 0.249000
v -0.077435 0.270869 0.025709
vt 0.134000 0.249000
vt 0.810000 0.991000
v 0.053395 0.288050 -0.025709
vt 0.904000 0.991000
v 0.077435 0.270869 -0.025709
vt 0.912000 0.979000
vt 0.801000 0.979000
vt 0.086000 0.256000
vn 0.581400 0.813600 -0.000000
v 0.053395 0.288050 0.025709
vt 0.134000 0.257000
v 0.077435 0.270869 0.025709
v -0.052654 0.071317 0.093689
vt 0.644000 0.092000
v -0.052654 0.071317 -0.093689
vt 0.635000 0.092000
v -0.052654 0.024535 -0.076138
vt 0.635000 0.057000
v -0.052654 0.024535 0.076138
vt 0.644000 0.057000
vn -0.000000 -0.351300 -0.936300
v 0.052654 0.071317 -0.093689
vt 0.823000 0.092000
v 0.052654 0.024535 -0.076138
vt 0.823000 0.057000
v 0.052654 0.071317 0.093689
vt 0.814000 0.092000
v 0.052654 0.024535 0.076138
vt 0.814000 0.057000
vn -0.000000 -0.351300 0.936300
v -0.077435 0.023360 -0.025709
vt 0.082000 0.088000
v -0.077435 0.023360 0.025709
vt 0.130000 0.088000
v 0.077435 0.023360 -0.025709
vt 0.912000 0.852000
vt 0.801000 0.852000
v 0.077435 0.023360 0.025709
vt 0.927000 0.960000
vt 0.801000 0.960000
vt 0.801000 0.791000
vt 0.927000 0.791000
vt 0.507000 0.305000
vt 0.507000 0.210000
vt 0.417000 0.210000
vt 0.417000 0.305000
v -0.088250 0.024720 0.076756
vt 0.592000 0.043000
v -0.088250 0.024720 -0.076756
vt 0.443000 0.043000
v -0.088250 0.012360 -0.076756
v -0.088250 0.012360 0.076756
v 0.088250 0.024720 -0.076756
vt 0.443000 0.162000
v 0.088250 0.012360 -0.076756
v 0.088250 0.024720 0.076756
vt 0.592000 0.162000
v 0.088250 0.012360 0.076756
v -0.109571 0.012360 0.134291
vt 0.621000 0.003000
v -0.109571 0.012360 -0.134291
vt 0.420000 0.003000
v -0.109571 0.000000 -0.134291
v -0.109571 -0.000000 0.134291
v 0.109571 0.012360 -0.134291
vt 0.420000 0.205000
v 0.109571 0.000000 -0.134291
v 0.109571 0.012360 0.134291
vt 0.621000 0.205000
v 0.109571 -0.000000 0.134291
v 0.000000 3.504740 0.000001
vt 0.103000 0.044000
v -0.036091 3.504740 -0.036152
vt 0.093000 0.052000
v -0.051047 3.504740 0.000001
vt 0.102000 0.055000
v 0.000000 3.504740 -0.051108
vt 0.091000 0.043000
v 0.036029 3.504740 -0.036152
vt 0.095000 0.036000
v 0.050985 3.504740 0.000001
vt 0.102000 0.033000
v 0.036029 3.504740 0.035968
vt 0.110000 0.037000
v 0.000000 3.504740 0.050924
vt 0.112000 0.044000
v -0.036091 3.504740 0.035968
vt 0.109000 0.052000
v -0.030591 3.415315 -0.030652
vt 0.103000 0.009000
vn -0.921200 -0.080200 -0.380700
v -0.043260 3.415315 0.000001
vt 0.126000 0.010000
vt 0.126000 0.060000
vn -0.921100 -0.080100 -0.381000
vt 0.099000 0.059000
v 0.000000 3.415315 -0.043321
vt 0.094000 0.007000
vn -0.381400 -0.080100 -0.920900
vn -0.381600 -0.080200 -0.920800
vt 0.088000 0.057000
v 0.030529 3.415315 -0.030652
vn 0.382100 -0.080200 -0.920700
vn 0.382100 -0.080100 -0.920600
v 0.043198 3.415315 0.000001
vn 0.921200 -0.080100 -0.380700
vn 0.921100 -0.080200 -0.381000
v 0.030529 3.415315 0.030468
vt 0.149000 0.009000
vn 0.920400 -0.080100 0.382700
vt 0.154000 0.059000
v 0.000000 3.415315 0.043137
vt 0.159000 0.007000
vn 0.382100 -0.080100 0.920700
vn 0.382100 -0.080200 0.920600
vt 0.165000 0.057000
v -0.030591 3.415315 0.030468
vn -0.381400 -0.080200 0.920900
vn -0.381600 -0.080100 0.920900
vn -0.920400 -0.080100 0.382700
v -0.030591 0.247200 -0.030653
vt 0.946000 0.006000
vn -0.924200 -0.000000 -0.382000
v -0.043260 0.247200 0.000000
vt 0.965000 0.006000
vt 0.965000 0.996000
vt 0.946000 0.996000
v 0.000000 0.247200 -0.043322
vt 0.938000 0.006000
vn -0.382600 -0.000000 -0.923900
vt 0.938000 0.996000
v 0.030529 0.247200 -0.030653
vn 0.383300 -0.000000 -0.923600
v 0.043198 0.247200 0.000000
vn 0.924200 -0.000000 -0.382000
v 0.030529 0.247200 0.030467
vt 0.985000 0.006000
vn 0.923400 -0.000000 0.384000
vt 0.985000 0.996000
v 0.000000 0.247200 0.043136
vt 0.993000 0.006000
vn 0.383300 -0.000000 0.923600
vt 0.993000 0.996000
v -0.030591 0.247200 0.030467
vn -0.382600 -0.000000 0.923900
vn -0.923400 -0.000000 0.384000
f 1/1/1 2/2/1 3/3/1
f 4/4/1 2/2/1 1/1/1
f 5/5/2 6/6/2 7/7/2
f 8/8/2 7/7/2 6/6/2
f 6/6/3 5/5/3 8/8/3
f 7/7/3 8/8/3 5/5/3
f 9/9/4 10/10/4 11/11/4
f 12/12/4 11/11/4 10/10/4
f 13/13/5 9/9/5 14/14/5
f 11/11/5 14/14/5 9/9/5
f 15/15/6 13/16/6 16/17/6
f 14/18/6 16/17/6 13/16/6
f 17/19/1 15/20/1 18/21/1
f 16/22/1 18/21/1 15/20/1
f 19/16/7 17/15/7 20/18/7
f 18/17/7 20/18/7 17/15/7
f 21/23/8 19/24/8 22/25/8
f 20/26/8 22/25/8 19/24/8
f 23/27/9 21/23/9 24/28/9
f 22/25/9 24/28/9 21/23/9
f 10/10/10 23/27/10 12/12/10
f 24/28/10 12/12/10 23/27/10
f 15/15/11 17/15/11 13/16/11
f 19/16/11 13/16/11 17/15/11
f 13/16/11 19/16/11 9/29/11
f 21/29/11 9/29/11 19/16/11
f 9/29/11 21/29/11 10/30/11
f 23/30/12 10/30/12 21/29/12
f 20/18/13 18/17/13 14/18/13
f 16/17/13 14/18/13 18/17/13
f 22/31/13 20/18/13 11/31/13
f 14/18/13 11/31/13 20/18/13
f 24/32/13 22/31/13 12/32/13
f 11/31/13 12/32/13 22/31/13
f 25/33/14 26/34/14 27/35/14
f 28/36/15 27/35/15 26/34/15
f 29/33/10 25/33/10 30/35/10
f 27/35/10 30/35/10 25/33/10
f 31/33/2 2/3/2 32/35/2
f 4/37/2 32/35/2 2/3/2
f 33/33/10 31/33/10 34/35/10
f 32/35/10 34/35/10 31/33/10
f 35/34/16 33/33/16 36/36/16
f 34/35/17 36/36/17 33/33/17
f 25/38/18 33/39/18 26/40/18
f 35/41/18 26/40/18 33/39/18
f 32/35/13 4/37/13 30/35/13
f 1/37/13 30/35/13 4/37/13
f 36/42/19 34/43/19 28/44/19
f 27/45/19 28/44/19 34/43/19
f 37/46/11 38/47/11 39/47/11
f 40/46/11 38/47/11 37/46/11
f 41/47/11 38/47/11 40/46/11
f 42/48/11 38/47/11 41/47/11
f 43/48/11 38/47/11 42/48/11
f 39/47/11 38/47/11 43/48/11
f 44/49/20 45/50/20 39/47/20
f 39/47/20 45/50/20 37/46/20
f 45/50/2 46/50/2 37/46/2
f 37/46/2 46/50/2 40/46/2
f 46/50/21 47/49/21 40/46/21
f 40/46/21 47/49/21 41/47/21
f 47/49/22 48/51/22 41/47/22
f 41/47/22 48/51/22 42/48/22
f 49/51/23 44/49/23 43/48/23
f 43/48/24 44/49/24 39/47/24
f 50/52/25 51/53/25 52/54/25
f 53/55/26 52/54/26 51/53/26
f 54/56/27 50/52/27 55/57/27
f 52/54/28 55/57/28 50/52/28
f 56/58/29 54/56/29 57/59/29
f 55/57/30 57/59/30 54/56/30
f 58/60/31 56/58/31 59/61/31
f 57/59/32 59/61/32 56/58/32
f 60/58/33 58/60/33 61/59/33
f 59/61/34 61/59/34 58/60/34
f 62/56/35 60/58/35 63/57/35
f 61/59/36 63/57/36 60/58/36
f 64/52/37 62/56/37 65/54/37
f 63/57/38 65/54/38 62/56/38
f 51/53/39 64/52/39 53/55/39
f 65/54/40 53/55/40 64/52/40
f 66/62/41 67/63/41 53/64/41
f 53/64/42 67/63/42 52/65/42
f 67/63/43 68/66/43 52/65/43
f 52/65/44 68/66/44 55/67/44
f 68/66/45 69/68/45 55/67/45
f 55/67/46 69/68/46 57/69/46
f 69/68/47 70/70/47 57/69/47
f 57/69/48 70/70/48 59/71/48
f 70/70/49 71/68/49 59/71/49
f 59/71/50 71/68/50 61/69/50
f 71/68/51 72/66/51 61/69/51
f 61/69/52 72/66/52 63/67/52
f 72/66/53 73/63/53 63/67/53
f 63/67/54 73/63/54 65/65/54
f 73/63/55 66/62/55 65/65/55
f 65/65/56 66/62/56 53/64/56
f 74/72/57 75/73/57 66/62/57
f 66/62/58 75/73/58 67/63/58
f 75/73/59 76/74/59 67/63/59
f 67/63/60 76/74/60 68/66/60
f 76/74/61 77/75/61 68/66/61
f 68/66/62 77/75/62 69/68/62
f 77/75/63 78/76/63 69/68/63
f 69/68/64 78/76/64 70/70/64
f 78/76/65 79/75/65 70/70/65
f 70/70/66 79/75/66 71/68/66
f 79/75/67 80/74/67 71/68/67
f 71/68/68 80/74/68 72/66/68
f 80/74/69 81/73/69 72/66/69
f 72/66/70 81/73/70 73/63/70
f 81/73/71 74/72/71 73/63/71
f 73/63/72 74/72/72 66/62/72
f 82/77/73 83/78/73 74/72/73
f 74/72/74 83/78/74 75/73/74
f 83/78/75 84/79/75 75/73/75
f 75/73/76 84/79/76 76/74/76
f 84/79/77 85/80/77 76/74/77
f 76/74/78 85/80/78 77/75/78
f 85/80/79 86/81/79 77/75/79
f 77/75/80 86/81/80 78/76/80
f 86/81/81 87/80/81 78/76/81
f 78/76/82 87/80/82 79/75/82
f 87/80/83 88/79/83 79/75/83
f 79/75/84 88/79/84 80/74/84
f 88/79/85 89/78/85 80/74/85
f 80/74/86 89/78/86 81/73/86
f 89/78/87 82/77/87 81/73/87
f 81/73/88 82/77/88 74/72/88
f 90/82/89 91/83/89 82/77/89
f 82/77/90 91/83/90 83/78/90
f 91/83/91 92/84/91 83/78/91
f 83/78/92 92/84/92 84/79/92
f 92/84/93 93/85/93 84/79/93
f 84/79/94 93/85/94 85/80/94
f 93/85/95 94/86/95 85/80/95
f 85/80/96 94/86/96 86/81/96
f 94/86/97 95/85/97 86/81/97
f 86/81/98 95/85/98 87/80/98
f 95/85/99 96/84/99 87/80/99
f 87/80/100 96/84/100 88/79/100
f 96/84/101 97/83/101 88/79/101
f 88/79/102 97/83/102 89/78/102
f 97/83/103 90/82/103 89/78/103
f 89/78/104 90/82/104 82/77/104
f 98/87/105 99/88/105 90/82/105
f 90/82/106 99/88/106 91/83/106
f 99/88/107 100/89/107 91/83/107
f 91/83/108 100/89/108 92/84/108
f 100/89/109 101/90/109 92/84/109
f 92/84/110 101/90/110 93/85/110
f 101/90/111 102/91/111 93/85/111
f 93/85/112 102/91/112 94/86/112
f 102/91/113 103/90/113 94/86/113
f 94/86/114 103/90/114 95/85/114
f 103/90/115 104/89/115 95/85/115
f 95/85/116 104/89/116 96/84/116
f 104/89/117 105/88/117 96/84/117
f 96/84/118 105/88/118 97/83/118
f 105/88/119 98/87/119 97/83/119
f 97/83/120 98/87/120 90/82/120
f 106/92/121 107/93/121 108/94/121
f 109/95/122 110/96/122 107/97/122
f 109/95/11 106/92/11 108/94/11
f 108/94/11 110/96/11 109/95/11
f 110/96/2 108/94/2 111/98/2
f 112/99/2 109/95/2 106/92/2
f 106/92/2 113/100/2 112/99/2
f 107/93/123 106/92/123 109/95/123
f 107/97/124 110/96/124 108/94/124
f 110/96/3 114/101/3 111/98/3
f 115/102/2 116/103/2 117/104/2
f 117/104/2 118/105/2 115/102/2
f 119/106/125 120/107/125 121/108/125
f 121/108/125 122/109/125 119/106/125
f 120/110/126 119/111/126 122/112/126
f 122/112/126 121/113/126 120/110/126
f 123/92/121 124/93/121 125/94/121
f 126/95/122 127/96/122 124/97/122
f 123/92/3 126/95/3 128/99/3
f 126/95/11 123/92/11 125/94/11
f 125/94/11 127/96/11 126/95/11
f 123/92/2 129/100/2 128/99/2
f 124/93/123 123/92/123 126/95/123
f 124/97/124 127/96/124 125/94/124
f 127/96/3 130/101/3 131/98/3
f 131/98/3 125/94/3 127/96/3
f 132/92/121 133/93/121 134/94/121
f 135/95/122 136/96/122 133/97/122
f 135/95/11 132/92/11 134/94/11
f 134/94/11 136/96/11 135/95/11
f 136/96/2 134/94/2 137/98/2
f 138/99/2 135/95/2 132/92/2
f 132/92/2 139/100/2 138/99/2
f 133/93/123 132/92/123 135/95/123
f 133/97/124 136/96/124 134/94/124
f 136/96/3 140/101/3 137/98/3
f 141/114/10 142/114/10 143/115/10
f 143/115/10 144/115/10 141/114/10
f 142/116/2 145/117/2 146/118/2
f 146/118/2 143/119/2 142/116/2
f 145/120/1 147/120/1 148/121/1
f 148/121/1 146/121/1 145/120/1
f 147/120/3 141/114/3 144/115/3
f 144/115/3 148/121/3 147/120/3
f 145/120/11 142/114/11 141/114/11
f 141/114/11 147/120/11 145/120/11
f 146/121/13 148/121/13 144/115/13
f 144/115/13 143/115/13 146/121/13
f 149/122/127 150/123/127 151/124/127
f 151/124/127 152/125/127 149/122/127
f 150/123/128 153/126/128 154/127/128
f 154/127/128 151/124/128 150/123/128
f 155/128/129 154/127/129 153/126/129
f 156/129/130 157/130/130 158/131/130
f 157/130/131 159/132/131 160/133/131
f 160/133/131 158/131/131 157/130/131
f 159/132/132 161/134/132 162/135/132
f 162/135/132 160/133/132 159/132/132
f 161/134/3 149/122/3 152/125/3
f 152/125/3 162/135/3 161/134/3
f 163/136/133 164/137/133 165/138/133
f 165/138/133 166/139/133 163/136/133
f 155/128/134 156/129/134 166/139/134
f 156/129/135 155/128/135 153/126/135
f 153/126/135 157/130/135 156/129/135
f 157/130/11 153/126/11 150/123/11
f 150/123/11 159/132/11 157/130/11
f 159/132/11 150/123/11 149/122/11
f 149/122/11 161/134/11 159/132/11
f 155/128/136 165/138/136 166/139/136
f 156/129/137 158/131/137 154/127/137
f 154/127/137 155/128/137 156/129/137
f 158/131/13 160/133/13 151/124/13
f 151/124/13 154/127/13 158/131/13
f 160/133/13 162/135/13 152/125/13
f 152/125/13 151/124/13 160/133/13
f 167/92/121 168/93/121 169/94/121
f 170/95/122 171/96/122 168/97/122
f 167/92/3 170/95/3 172/99/3
f 170/95/11 167/92/11 169/94/11
f 169/94/11 171/96/11 170/95/11
f 173/98/2 174/101/2 171/96/2
f 167/92/2 175/100/2 172/99/2
f 168/93/123 167/92/123 170/95/123
f 168/97/124 171/96/124 169/94/124
f 173/98/3 169/94/3 171/96/3
f 176/92/121 177/93/121 178/94/121
f 179/95/122 180/96/122 177/97/122
f 179/95/11 176/92/11 178/94/11
f 178/94/11 180/96/11 179/95/11
f 180/96/2 178/94/2 181/98/2
f 181/98/2 182/101/2 180/96/2
f 183/99/2 179/95/2 176/92/2
f 176/92/2 184/100/2 183/99/2
f 177/93/123 176/92/123 179/95/123
f 177/97/124 180/96/124 178/94/124
f 185/92/121 186/93/121 187/94/121
f 188/95/122 189/96/122 186/97/122
f 185/92/3 188/95/3 190/99/3
f 188/95/11 185/92/11 187/94/11
f 187/94/11 189/96/11 188/95/11
f 189/96/2 187/94/2 191/98/2
f 191/98/2 192/101/2 189/96/2
f 185/92/2 193/100/2 190/99/2
f 186/93/123 185/92/123 188/95/123
f 186/97/124 189/96/124 187/94/124
f 194/92/121 195/93/121 196/94/121
f 197/95/122 198/96/122 195/97/122
f 194/92/3 197/95/3 199/99/3
f 197/95/11 194/92/11 196/94/11
f 196/94/11 198/96/11 197/95/11
f 198/96/2 196/94/2 200/98/2
f 200/98/2 201/101/2 198/96/2
f 194/92/2 202/100/2 199/99/2
f 195/93/123 194/92/123 197/95/123
f 195/97/124 198/96/124 196/94/124
f 203/92/121 204/93/121 205/94/121
f 206/95/122 207/96/122 204/97/122
f 206/95/11 203/92/11 205/94/11
f 205/94/11 207/96/11 206/95/11
f 207/96/2 205/94/2 208/98/2
f 208/98/2 209/101/2 207/96/2
f 210/99/2 206/95/2 203/92/2
f 203/92/2 211/100/2 210/99/2
f 204/93/123 203/92/123 206/95/123
f 204/97/124 207/96/124 205/94/124
f 212/92/121 213/93/121 214/94/121
f 215/95/122 216/96/122 213/97/122
f 212/92/3 215/95/3 217/99/3
f 215/95/11 212/92/11 214/94/11
f 214/94/11 216/96/11 215/95/11
f 216/96/2 214/94/2 218/98/2
f 218/98/2 219/101/2 216/96/2
f 212/92/2 220/100/2 217/99/2
f 213/93/123 212/92/123 215/95/123
f 213/97/124 216/96/124 214/94/124
f 221/92/121 222/93/121 223/94/121
f 224/95/122 225/96/122 222/97/122
f 224/95/11 221/92/11 223/94/11
f 223/94/11 225/96/11 224/95/11
f 226/98/2 227/101/2 225/96/2
f 228/99/2 224/95/2 221/92/2
f 221/92/2 229/100/2 228/99/2
f 222/93/123 221/92/123 224/95/123
f 222/97/124 225/96/124 223/94/124
f 226/98/3 223/94/3 225/96/3
f 230/92/121 231/93/121 232/94/121
f 233/95/122 234/96/122 231/97/122
f 230/92/3 233/95/3 235/99/3
f 233/95/11 230/92/11 232/94/11
f 232/94/11 234/96/11 233/95/11
f 234/96/2 232/94/2 236/98/2
f 236/98/2 237/101/2 234/96/2
f 230/92/2 238/100/2 235/99/2
f 231/93/123 230/92/123 233/95/123
f 231/97/124 234/96/124 232/94/124
f 239/92/121 240/93/121 241/94/121
f 242/95/122 243/96/122 240/97/122
f 244/99/3 245/100/3 239/92/3
f 239/92/3 242/95/3 244/99/3
f 242/95/11 239/92/11 241/94/11
f 241/94/11 243/96/11 242/95/11
f 243/96/2 241/94/2 246/98/2
f 246/98/2 247/101/2 243/96/2
f 240/93/123 239/92/123 242/95/123
f 240/97/124 243/96/124 241/94/124
f 248/92/121 249/93/121 250/94/121
f 251/95/122 252/96/122 249/97/122
f 251/95/11 248/92/11 250/94/11
f 250/94/11 252/96/11 251/95/11
f 252/96/2 250/94/2 253/98/2
f 254/99/2 251/95/2 248/92/2
f 248/92/2 255/100/2 254/99/2
f 249/93/123 248/92/123 251/95/123
f 249/97/124 252/96/124 250/94/124
f 252/96/3 256/101/3 253/98/3
f 257/92/121 258/93/121 259/94/121
f 260/95/122 261/96/122 258/97/122
f 257/92/3 260/95/3 262/99/3
f 260/95/11 257/92/11 259/94/11
f 259/94/11 261/96/11 260/95/11
f 261/96/2 259/94/2 263/98/2
f 263/98/2 264/101/2 261/96/2
f 257/92/2 265/100/2 262/99/2
f 258/93/123 257/92/123 260/95/123
f 258/97/124 261/96/124 259/94/124
f 266/92/121 267/93/121 268/94/121
f 269/95/122 270/96/122 267/97/122
f 271/99/3 272/100/3 266/92/3
f 266/92/3 269/95/3 271/99/3
f 269/95/11 266/92/11 268/94/11
f 268/94/11 270/96/11 269/95/11
f 270/96/2 268/94/2 273/98/2
f 267/93/123 266/92/123 269/95/123
f 267/97/124 270/96/124 268/94/124
f 270/96/3 274/101/3 273/98/3
f 275/140/11 276/141/11 277/142/11
f 275/140/11 278/143/11 276/141/11
f 279/141/11 275/140/11 280/142/11
f 279/141/11 278/143/11 275/140/11
f 279/144/10 281/145/10 276/146/10
f 279/144/10 282/147/10 281/145/10
f 283/147/1 277/146/1 284/145/1
f 283/147/1 280/144/1 277/146/1
f 285/148/138 286/149/138 287/150/138
f 287/150/138 288/151/138 285/148/138
f 286/152/2 289/153/2 290/154/2
f 290/154/2 287/155/2 286/152/2
f 289/156/139 291/157/139 292/151/139
f 292/151/139 290/150/139 289/156/139
f 291/153/3 285/152/3 288/155/3
f 288/155/3 292/154/3 291/153/3
f 293/158/10 294/159/10 295/160/10
f 295/160/10 296/161/10 293/158/10
f 294/159/140 297/162/140 298/163/140
f 298/163/140 295/160/140 294/159/140
f 297/162/1 299/164/1 300/165/1
f 300/165/1 298/163/1 297/162/1
f 299/164/141 293/158/141 296/161/141
f 296/161/141 300/165/141 299/164/141
f 288/151/10 287/150/10 301/166/10
f 301/166/10 302/167/10 288/151/10
f 287/155/2 290/154/2 303/168/2
f 303/168/2 301/169/2 287/155/2
f 290/150/1 292/151/1 304/167/1
f 304/167/1 303/166/1 290/150/1
f 292/154/3 288/155/3 302/169/3
f 302/169/3 304/168/3 292/154/3
f 289/156/11 286/149/11 285/148/11
f 285/148/11 291/157/11 289/156/11
f 279/170/2 280/171/2 283/172/2
f 283/172/2 282/173/2 279/170/2
f 277/170/3 276/171/3 281/172/3
f 281/172/3 284/173/3 277/170/3
f 283/174/13 284/175/13 281/176/13
f 281/176/13 282/177/13 283/174/13
f 305/178/10 306/179/10 307/179/10
f 307/179/10 308/178/10 305/178/10
f 306/179/2 309/180/2 310/180/2
f 310/180/2 307/179/2 306/179/2
f 309/180/1 311/181/1 312/181/1
f 312/181/1 310/180/1 309/180/1
f 311/181/3 305/178/3 308/178/3
f 308/178/3 312/181/3 311/181/3
f 309/180/11 306/179/11 305/178/11
f 305/178/11 311/181/11 309/180/11
f 313/182/10 314/183/10 315/183/10
f 315/183/10 316/182/10 313/182/10
f 314/183/2 317/184/2 318/184/2
f 318/184/2 315/183/2 314/183/2
f 317/184/1 319/185/1 320/185/1
f 320/185/1 318/184/1 317/184/1
f 319/185/3 313/182/3 316/182/3
f 316/182/3 320/185/3 319/185/3
f 317/184/11 314/183/11 313/182/11
f 313/182/11 319/185/11 317/184/11
f 321/186/11 322/187/11 323/188/11
f 321/186/11 324/189/11 322/187/11
f 321/186/11 325/190/11 324/189/11
f 321/186/11 326/191/11 325/190/11
f 321/186/11 327/192/11 326/191/11
f 321/186/11 328/193/11 327/192/11
f 321/186/11 329/194/11 328/193/11
f 321/186/11 323/188/11 329/194/11
f 330/195/142 331/196/142 323/197/142
f 330/195/143 323/197/143 322/198/143
f 332/199/144 330/195/144 322/198/144
f 332/199/145 322/198/145 324/200/145
f 333/195/146 332/199/146 324/200/146
f 333/195/147 324/200/147 325/198/147
f 334/196/148 333/195/148 325/198/148
f 334/196/149 325/198/149 326/197/149
f 335/201/150 334/196/150 326/197/150
f 335/201/150 326/197/150 327/202/150
f 336/203/151 335/201/151 327/202/151
f 336/203/152 327/202/152 328/204/152
f 337/201/153 336/203/153 328/204/153
f 337/201/154 328/204/154 329/202/154
f 331/196/155 337/201/155 329/202/155
f 331/196/155 329/202/155 323/197/155
f 338/205/156 339/206/156 331/207/156
f 338/205/156 331/207/156 330/208/156
f 340/209/157 338/205/157 330/208/157
f 340/209/157 330/208/157 332/210/157
f 341/205/158 340/209/158 332/210/158
f 341/205/158 332/210/158 333/208/158
f 342/206/159 341/205/159 333/208/159
f 342/206/159 333/208/159 334/207/159
f 343/211/160 342/206/160 334/207/160
f 343/211/160 334/207/160 335/212/160
f 344/213/161 343/211/161 335/212/161
f 344/213/161 335/212/161 336/214/161
f 345/211/162 344/213/162 336/214/162
f 345/211/162 336/214/162 337/212/162
f 339/206/163 345/211/163 337/212/163
f 339/206/163 337/212/163 331/207/163
