# generated by tools/objdedupe/dedupe.py -- do not hand-edit.
# Re-run the tool after touching azd_1svet.obj, azd_2svet.obj, azd_3svet.obj, azd_4svet.obj, azd_5svet.obj, azd_6svet.obj.
o stozar_5svet_L_3pruhy
v -0.264597 2.578914 0.024427
vt 0.908000 0.680000
vn 1.000000 -0.000000 -0.000000
v -0.264597 2.578914 0.039753
v -0.264597 2.509636 0.039753
vt 0.864000 0.670000
v -0.264597 2.509636 0.006690
vn -0.000000 -0.000000 1.000000
v -0.330290 2.578914 0.039753
vt 0.903000 0.708000
v -0.330290 2.509636 0.039753
vt 0.858000 0.698000
v -0.330290 2.578914 -0.039907
vn -0.000000 -0.000000 -1.000000
v -0.264597 2.578914 -0.039907
v -0.264597 2.509636 -0.039907
v -0.330290 2.509636 -0.039907
v -0.264597 2.578914 -0.024642
v -0.264597 2.509636 -0.006844
vn -0.000000 -1.000000 -0.000000
vt 0.909358 0.676876
vn -1.000000 -0.000000 -0.000000
vt 0.878404 0.669482
vt 0.871804 0.695708
vt 0.902758 0.703102
v -0.011557 2.341602 -0.128544
vt 0.820000 0.786000
vn -0.970300 -0.241900 -0.000000
v -0.000000 2.295252 0.000000
vt 0.843000 0.681000
v -0.011557 2.341602 0.128544
vt 0.820000 0.583000
v 0.011557 2.341602 -0.128544
vt 0.816000 0.782000
vn 0.970300 -0.241900 -0.000000
v 0.011557 2.341602 0.128544
vt 0.816000 0.579000
vt 0.839000 0.676000
vn -0.000000 1.000000 -0.000000
v -0.011557 2.358288 0.128544
vt 0.805000 0.583000
v 0.011557 2.358288 0.128544
vt 0.801000 0.579000
v 0.011557 2.358288 -0.128544
vt 0.801000 0.782000
v -0.011557 2.358288 -0.128544
vt 0.805000 0.786000
vn -0.000000 -0.940700 -0.339200
vn -0.000000 -0.940700 0.339200
v -0.011557 2.545666 -0.128544
v 0.000000 2.499316 0.000000
v -0.011557 2.545666 0.128544
v 0.011557 2.545666 -0.128544
v 0.011557 2.545666 0.128544
v 0.011557 2.562290 -0.128544
v -0.011557 2.562290 -0.128544
v -0.011557 2.562290 0.128544
v 0.011557 2.562290 0.128544
v -0.036895 2.163000 0.137876
vt 0.596000 0.885000
v -0.036895 2.163000 0.128544
v -0.036895 0.708166 0.128544
vt 0.596000 0.218000
v -0.036895 0.708166 0.137876
vt 0.946000 0.782000
v 0.036895 2.163000 0.128544
vt 0.986000 0.782000
v 0.036895 0.708166 0.128544
vt 0.986000 0.276000
vt 0.946000 0.276000
vt 0.635000 0.885000
v 0.036895 2.163000 0.137876
v 0.036895 0.708166 0.137876
vt 0.635000 0.218000
v -0.021939 2.156325 0.054693
vt 0.507000 0.340000
vn -0.848900 -0.000000 0.528500
v -0.055991 2.156325 0.000000
vt 0.491000 0.324000
v -0.055991 2.143965 0.000000
vt 0.489000 0.330000
v -0.021939 2.143965 0.054693
vt 0.505000 0.346000
vn -0.848900 -0.000000 -0.528500
v -0.021939 2.156325 -0.054693
vt 0.474000 0.340000
v -0.021939 2.143965 -0.054693
vt 0.472000 0.346000
v -0.084851 2.150146 -0.070081
vt 0.469000 0.311000
vn -0.237600 -0.000000 0.971400
v 0.084851 2.150146 -0.070081
vt 0.469000 0.390000
vn 0.237600 -0.000000 0.971400
v 0.021939 2.156325 -0.054693
vt 0.474000 0.360000
v 0.021939 2.143965 -0.054693
vt 0.472000 0.366000
vn 0.848900 -0.000000 -0.528500
v 0.055991 2.156325 0.000000
vt 0.491000 0.376000
v 0.055991 2.143965 0.000000
vt 0.489000 0.382000
vn 0.848900 -0.000000 0.528500
v 0.021939 2.156325 0.054693
vt 0.507000 0.360000
v 0.021939 2.143965 0.054693
vt 0.505000 0.366000
v -0.084851 2.161517 -0.213333
vt 0.425000 0.311000
vn -0.000000 0.891800 0.452400
v 0.084851 2.161517 -0.213333
vt 0.425000 0.390000
v 0.058895 2.172332 -0.234654
vt 0.418000 0.378000
vn -0.000000 0.928000 -0.372700
vn -0.000000 0.928000 -0.372600
vn -0.000000 -0.891800 -0.452400
v -0.058895 2.172332 -0.234654
vt 0.418000 0.323000
vn -0.000000 -0.996900 -0.079100
vn -0.000000 -0.928000 -0.372700
v -0.011557 2.749482 -0.128544
v 0.000000 2.703132 0.000000
v -0.011557 2.749482 0.128544
v 0.011557 2.749482 -0.128544
v 0.011557 2.749482 0.128544
v -0.011557 2.766168 0.128544
v 0.011557 2.766168 -0.128544
v -0.011557 2.766168 -0.128544
v 0.011557 2.766168 0.128544
v -0.011557 2.137662 -0.128544
v 0.000000 2.091312 0.000000
v -0.011557 2.137662 0.128544
v 0.011557 2.137662 -0.128544
v 0.011557 2.137662 0.128544
v 0.011557 2.154348 -0.128544
v -0.011557 2.154348 -0.128544
v -0.011557 2.154348 0.128544
v 0.011557 2.154348 0.128544
v -0.011557 1.933722 -0.128544
v -0.000000 1.887372 0.000000
v -0.011557 1.933722 0.128544
v 0.011557 1.933722 -0.128544
v 0.011557 1.933722 0.128544
v 0.011557 1.950408 -0.128544
v -0.011557 1.950408 -0.128544
v -0.011557 1.950408 0.128544
v 0.011557 1.950408 0.128544
v -0.011557 1.729782 -0.128544
v 0.000000 1.683432 0.000000
v -0.011557 1.729782 0.128544
v 0.011557 1.729782 -0.128544
v 0.011557 1.729782 0.128544
v -0.011557 1.746468 0.128544
v 0.011557 1.746468 0.128544
v 0.011557 1.746468 -0.128544
v -0.011557 1.746468 -0.128544
v -0.011557 1.525842 -0.128544
v 0.000000 1.479492 0.000000
v -0.011557 1.525842 0.128544
v 0.011557 1.525842 -0.128544
v 0.011557 1.525842 0.128544
v -0.011557 1.542528 0.128544
v 0.011557 1.542528 0.128544
v 0.011557 1.542528 -0.128544
v -0.011557 1.542528 -0.128544
v -0.011557 0.710082 -0.128544
v 0.000000 0.663732 0.000000
v -0.011557 0.710082 0.128544
v 0.011557 0.710082 -0.128544
v 0.011557 0.710082 0.128544
v -0.011557 0.726768 0.128544
v 0.011557 0.726768 0.128544
v 0.011557 0.726768 -0.128544
v -0.011557 0.726768 -0.128544
v -0.011557 0.506142 -0.128544
v 0.000000 0.459792 0.000000
v -0.011557 0.506142 0.128544
v 0.011557 0.506142 -0.128544
v 0.011557 0.506142 0.128544
v 0.011557 0.522828 -0.128544
v -0.011557 0.522828 -0.128544
v 0.011557 0.522828 0.128544
v -0.011557 0.522828 0.128544
v -0.011557 1.321902 -0.128544
v -0.000000 1.275552 0.000000
v -0.011557 1.321902 0.128544
v 0.011557 1.321902 -0.128544
v 0.011557 1.321902 0.128544
v 0.011557 1.338588 -0.128544
v -0.011557 1.338588 0.128544
v 0.011557 1.338588 0.128544
v -0.011557 1.338588 -0.128544
v -0.011557 1.117962 -0.128544
v 0.000000 1.071612 0.000000
v -0.011557 1.117962 0.128544
v 0.011557 1.117962 -0.128544
v 0.011557 1.117962 0.128544
v 0.011557 1.134648 -0.128544
v -0.011557 1.134648 -0.128544
v -0.011557 1.134648 0.128544
v 0.011557 1.134648 0.128544
v -0.011557 0.914022 -0.128544
v -0.000000 0.867672 0.000000
v -0.011557 0.914022 0.128544
v 0.011557 0.914022 -0.128544
v 0.011557 0.914022 0.128544
v -0.011557 0.930708 0.128544
v 0.011557 0.930708 0.128544
v 0.011557 0.930708 -0.128544
v -0.011557 0.930708 -0.128544
v -0.011557 3.361302 -0.128543
v -0.000000 3.314952 0.000001
v -0.011557 3.361302 0.128545
v 0.011557 3.361302 -0.128543
v 0.011557 3.361302 0.128545
v 0.011557 3.377988 -0.128543
v -0.011557 3.377988 -0.128543
v -0.011557 3.377988 0.128545
v 0.011557 3.377988 0.128545
v -0.011557 3.157362 -0.128543
v 0.000000 3.111012 0.000000
v -0.011557 3.157362 0.128544
v 0.011557 3.157362 -0.128543
v 0.011557 3.157362 0.128544
v 0.011557 3.174048 -0.128543
v -0.011557 3.174048 -0.128543
v -0.011557 3.174048 0.128544
v 0.011557 3.174048 0.128544
v -0.011557 2.953422 -0.128544
v -0.000000 2.907072 0.000000
v -0.011557 2.953422 0.128544
v 0.011557 2.953422 -0.128544
v 0.011557 2.953422 0.128544
v 0.011557 2.970108 -0.128544
v -0.011557 2.970108 0.128544
v -0.011557 2.970108 -0.128544
v 0.011557 2.970108 0.128544
v 0.077435 0.251032 0.000000
vt 0.822000 0.207000
v -0.077435 0.251032 0.106049
vt 0.640000 0.012000
v 0.077435 0.251031 0.106049
vt 0.822000 0.012000
v -0.077435 0.251032 0.000000
vt 0.640000 0.207000
v -0.077435 0.251032 -0.106049
v 0.077435 0.251032 -0.106049
vt 0.011000 0.236000
v -0.077435 0.063592 0.106049
vt 0.203000 0.123000
vt 0.205000 0.232000
v -0.077435 0.063592 -0.106049
vt 0.011000 0.125000
v 0.077435 0.063592 -0.106049
v 0.077435 0.063592 0.106049
v -0.053395 0.288050 0.025709
vt 0.134000 0.259000
vn -0.581400 0.813600 -0.000000
v -0.053395 0.288050 -0.025709
vt 0.086000 0.259000
v -0.077435 0.270869 -0.025709
vt 0.086000 0.249000
v -0.077435 0.270869 0.025709
vt 0.134000 0.249000
vt 0.810000 0.991000
v 0.053395 0.288050 -0.025709
vt 0.904000 0.991000
v 0.077435 0.270869 -0.025709
vt 0.912000 0.979000
vt 0.801000 0.979000
vt 0.086000 0.256000
vn 0.581400 0.813600 -0.000000
v 0.053395 0.288050 0.025709
vt 0.134000 0.257000
v 0.077435 0.270869 0.025709
v -0.052654 0.071317 0.093689
vt 0.644000 0.092000
v -0.052654 0.071317 -0.093689
vt 0.635000 0.092000
v -0.052654 0.024535 -0.076138
vt 0.635000 0.057000
v -0.052654 0.024535 0.076138
vt 0.644000 0.057000
vn -0.000000 -0.351300 -0.936300
v 0.052654 0.071317 -0.093689
vt 0.823000 0.092000
v 0.052654 0.024535 -0.076138
vt 0.823000 0.057000
v 0.052654 0.071317 0.093689
vt 0.814000 0.092000
v 0.052654 0.024535 0.076138
vt 0.814000 0.057000
vn -0.000000 -0.351300 0.936300
v -0.077435 0.023360 -0.025709
vt 0.082000 0.088000
v -0.077435 0.023360 0.025709
vt 0.130000 0.088000
v 0.077435 0.023360 -0.025709
vt 0.912000 0.852000
vt 0.801000 0.852000
v 0.077435 0.023360 0.025709
vt 0.927000 0.960000
vt 0.801000 0.960000
vt 0.801000 0.791000
vt 0.927000 0.791000
vt 0.507000 0.305000
vt 0.507000 0.210000
vt 0.417000 0.210000
vt 0.417000 0.305000
v -0.088250 0.024720 0.076756
vt 0.592000 0.043000
v -0.088250 0.024720 -0.076756
vt 0.443000 0.043000
v -0.088250 0.012360 -0.076756
v -0.088250 0.012360 0.076756
v 0.088250 0.024720 -0.076756
vt 0.443000 0.162000
v 0.088250 0.012360 -0.076756
v 0.088250 0.024720 0.076756
vt 0.592000 0.162000
v 0.088250 0.012360 0.076756
v -0.109571 0.012360 0.134291
vt 0.621000 0.003000
v -0.109571 0.012360 -0.134291
vt 0.420000 0.003000
v -0.109571 0.000000 -0.134291
v -0.109571 -0.000000 0.134291
v 0.109571 0.012360 -0.134291
vt 0.420000 0.205000
v 0.109571 -0.000000 -0.134291
v 0.109571 0.012360 0.134291
vt 0.621000 0.205000
v 0.109571 -0.000000 0.134291
v -0.000000 3.504740 0.000001
vt 0.103000 0.044000
v -0.036091 3.504740 -0.036152
vt 0.093000 0.052000
v -0.051047 3.504740 0.000001
vt 0.102000 0.055000
v -0.000000 3.504740 -0.051108
vt 0.091000 0.043000
v 0.036029 3.504740 -0.036152
vt 0.095000 0.036000
v 0.050985 3.504740 0.000001
vt 0.102000 0.033000
v 0.036029 3.504740 0.035968
vt 0.110000 0.037000
v -0.000000 3.504740 0.050924
vt 0.112000 0.044000
v -0.036091 3.504740 0.035968
vt 0.109000 0.052000
v -0.030591 3.415315 -0.030652
vt 0.103000 0.009000
vn -0.921200 -0.080200 -0.380700
v -0.043260 3.415315 0.000001
vt 0.126000 0.010000
vt 0.126000 0.060000
vn -0.921100 -0.080100 -0.381000
vt 0.099000 0.059000
v -0.000000 3.415315 -0.043321
vt 0.094000 0.007000
vn -0.381400 -0.080100 -0.920900
vn -0.381600 -0.080200 -0.920800
vt 0.088000 0.057000
v 0.030529 3.415315 -0.030652
vn 0.382100 -0.080200 -0.920700
vn 0.382100 -0.080100 -0.920600
v 0.043198 3.415315 0.000001
vn 0.921200 -0.080100 -0.380700
vn 0.921100 -0.080200 -0.381000
v 0.030529 3.415315 0.030468
vt 0.149000 0.009000
vn 0.920400 -0.080100 0.382700
vt 0.154000 0.059000
v 0.000000 3.415315 0.043137
vt 0.159000 0.007000
vn 0.382100 -0.080100 0.920700
vn 0.382100 -0.080200 0.920600
vt 0.165000 0.057000
v -0.030591 3.415315 0.030468
vn -0.381400 -0.080200 0.920900
vn -0.381600 -0.080100 0.920900
vn -0.920400 -0.080100 0.382700
v -0.030591 0.247200 -0.030653
vt 0.946000 0.006000
vn -0.924200 -0.000000 -0.382000
v -0.043260 0.247200 0.000000
vt 0.965000 0.006000
vt 0.965000 0.996000
vt 0.946000 0.996000
v -0.000000 0.247200 -0.043322
vt 0.938000 0.006000
vn -0.382600 -0.000000 -0.923900
vt 0.938000 0.996000
v 0.030529 0.247200 -0.030653
vn 0.383300 -0.000000 -0.923600
v 0.043198 0.247200 0.000000
vn 0.924200 -0.000000 -0.382000
v 0.030529 0.247200 0.030467
vt 0.985000 0.006000
vn 0.923400 -0.000000 0.384000
vt 0.985000 0.996000
v 0.000000 0.247200 0.043136
vt 0.993000 0.006000
vn 0.383300 -0.000000 0.923600
vt 0.993000 0.996000
v -0.030591 0.247200 0.030467
vn -0.382600 -0.000000 0.923900
vn -0.923400 -0.000000 0.384000
v 0.055589 2.492826 0.021522
vt 0.035000 0.064000
vn 0.852100 -0.000000 0.523300
v 0.038965 2.492826 0.048591
vt 0.022000 0.061000
v 0.038965 2.373738 0.048591
vt 0.022000 0.016000
v 0.055589 2.373738 0.021522
vt 0.035000 0.019000
vn 0.576300 -0.000000 0.817300
v 0.019683 2.492826 0.062187
vt 0.008000 0.057000
v 0.019683 2.373738 0.062187
vt 0.008000 0.012000
vt 0.917000 0.457000
vn -0.098300 -0.000000 0.995200
v -0.047864 2.492826 0.055512
vt 0.908000 0.492000
v -0.047864 2.373738 0.055512
vt 0.849000 0.475000
vt 0.857000 0.442000
vt 0.911000 0.473000
v -0.047864 2.492826 -0.055666
vt 0.902000 0.496000
v -0.047864 2.373738 -0.055666
vt 0.836000 0.473000
vt 0.845000 0.449000
vn -0.098300 -0.000000 -0.995200
v 0.019683 2.492826 -0.062340
v 0.019683 2.373738 -0.062340
vt 0.075000 0.057000
vn 0.576300 -0.000000 -0.817300
v 0.038965 2.492826 -0.048744
vt 0.062000 0.061000
v 0.038965 2.373738 -0.048744
vt 0.062000 0.016000
vt 0.075000 0.012000
vn 0.852100 -0.000000 -0.523300
v 0.055589 2.492826 -0.021676
vt 0.048000 0.064000
v 0.055589 2.373738 -0.021676
vt 0.048000 0.019000
vt 0.918000 0.452000
vt 0.920000 0.447000
vt 0.859000 0.436000
vt 0.860000 0.431000
v -0.026605 2.490107 0.024427
vt 0.907000 0.487000
vn -0.092200 -0.247000 0.964600
vn -0.085700 -0.150000 0.985000
v -0.026605 2.373614 0.006690
vt 0.842000 0.468000
vn -0.056300 -0.150800 -0.987000
v -0.026605 2.490107 -0.024642
v -0.026605 2.373614 -0.006844
vn -0.140800 -0.246400 -0.958900
vt 0.908000 0.669000
vn 0.349600 0.936900 -0.000000
vt 0.892000 0.669000
vt 0.890000 0.516000
vt 0.906000 0.516000
vt 0.860000 0.663000
vn -0.496200 -0.868200 -0.000000
vt 0.838000 0.499000
vt 0.844000 0.499000
vt 0.867000 0.662000
v -0.268861 3.926401 0.003075
vt 0.201000 0.029000
v -0.230545 3.926401 0.003075
vt 0.231000 0.029000
v -0.230545 3.892905 0.003075
vt 0.231000 0.007000
v -0.268861 3.892905 0.003075
vt 0.201000 0.007000
v -0.292069 3.984679 0.003047
vt 0.188000 0.050000
v -0.305665 3.984679 -0.020499
vt 0.197000 0.050000
v -0.319261 3.984679 0.003047
v -0.278535 3.984679 -0.020499
v -0.264939 3.984679 0.003047
v -0.278535 3.984679 0.026592
vt 0.179000 0.050000
v -0.305665 3.984679 0.026592
v -0.305665 3.877085 -0.020499
vt 0.197000 0.008000
vn -0.866000 -0.000000 -0.500100
v -0.319261 3.877085 0.003046
vt 0.188000 0.008000
v -0.278535 3.877085 -0.020499
v -0.264939 3.877085 0.003046
vn 0.866000 -0.000000 -0.500100
v -0.278535 3.877085 0.026592
vt 0.179000 0.008000
vn 0.866000 -0.000000 0.500100
vn -0.866000 -0.000000 0.500100
v -0.305665 3.877085 0.026592
v -0.286350 3.968796 0.003075
vt 0.190000 0.043000
vn 0.003500 0.924800 0.380400
v -0.286350 3.962492 0.018401
vt 0.190000 0.040000
v -0.220781 3.962245 0.018401
vt 0.233000 0.040000
v -0.220101 3.968549 0.003075
vt 0.234000 0.042000
vn 0.001500 0.383000 0.923700
v -0.286350 3.947289 0.024705
vt 0.190000 0.036000
v -0.222449 3.947042 0.024705
vt 0.233000 0.036000
vn 0.001400 0.382900 0.923800
vn -0.001500 -0.386200 0.922400
v -0.286350 3.932086 0.018340
vt 0.190000 0.032000
v -0.224118 3.931839 0.018340
vt 0.233000 0.032000
vn -0.001500 -0.386100 0.922500
vn -0.003700 -0.924300 0.381600
v -0.286350 3.925783 0.003075
vt 0.190000 0.029000
v -0.224798 3.925536 0.003075
vt 0.233000 0.029000
vn -0.003700 -0.924200 0.381800
vn -0.003700 -0.924300 -0.381700
v -0.286350 3.932086 -0.012190
v -0.224118 3.931839 -0.012190
vn -0.003700 -0.924200 -0.381800
vn -0.001500 -0.383000 -0.923700
v -0.286350 3.947289 -0.018493
v -0.222449 3.947042 -0.018493
vn -0.001500 -0.382900 -0.923800
vn 0.001500 0.386200 -0.922400
v -0.286350 3.962492 -0.012128
v -0.220781 3.962245 -0.012128
vn 0.001500 0.386100 -0.922500
vn 0.003400 0.923800 -0.383000
vn 0.003500 0.923700 -0.383100
v -0.103113 3.929615 0.018401
vt 0.888000 0.270000
vn 0.246100 0.890300 0.383200
v -0.101383 3.935733 0.003075
vt 0.875000 0.270000
vt 0.875000 0.428000
vn 0.247400 0.892200 0.377900
vt 0.888000 0.428000
v -0.107316 3.914907 0.024705
vt 0.901000 0.270000
vn 0.101800 0.367200 0.924600
vn 0.103600 0.371200 0.922700
vt 0.901000 0.428000
v -0.111456 3.900198 0.018340
vt 0.915000 0.270000
vn -0.103400 -0.370400 0.923100
vn -0.105100 -0.374200 0.921400
vt 0.915000 0.428000
v -0.113187 3.894141 0.003075
vt 0.928000 0.270000
vn -0.249900 -0.890000 0.381500
vn -0.250600 -0.890800 0.379000
vt 0.928000 0.428000
v -0.111456 3.900260 -0.012190
vn -0.250000 -0.888600 -0.384600
vn -0.249800 -0.891100 -0.379000
v -0.107316 3.914968 -0.018493
vn -0.102900 -0.367200 -0.924400
vn -0.103400 -0.371300 -0.922800
v -0.103113 3.929677 -0.012128
vn 0.103100 0.370100 -0.923300
vn 0.103600 0.374400 -0.921400
vn 0.246400 0.890400 -0.382700
vn 0.246400 0.891300 -0.380600
v -0.048791 3.902670 0.018340
vt 0.888000 0.218000
vn 0.412000 0.829500 0.377100
v -0.045021 3.907737 0.003075
vt 0.875000 0.218000
vn 0.411800 0.829400 0.377500
v -0.058061 3.890496 0.024705
vt 0.901000 0.218000
vn 0.174100 0.348900 0.920900
vn 0.171600 0.346300 0.922300
v -0.067269 3.878259 0.018340
vt 0.915000 0.218000
vn -0.173000 -0.349000 0.921000
vn -0.173600 -0.349600 0.920700
v -0.071039 3.873253 0.003075
vt 0.928000 0.218000
vn -0.412400 -0.830600 0.374200
vn -0.411500 -0.830200 0.376100
v -0.067269 3.878321 -0.012190
vn -0.411300 -0.829900 -0.377100
vn -0.411600 -0.828900 -0.378900
v -0.058061 3.890496 -0.018493
vn -0.172300 -0.347000 -0.921900
vn -0.172200 -0.346700 -0.922000
v -0.048791 3.902732 -0.012190
vn 0.171600 0.345300 -0.922700
vn 0.172300 0.349400 -0.921000
vn 0.411700 0.831000 -0.374200
vn 0.412000 0.829400 -0.377300
v 0.000896 3.848162 0.018340
vt 0.888000 0.165000
vn 0.684300 0.624100 0.377200
v 0.006211 3.851561 0.003075
vt 0.875000 0.165000
vn 0.684700 0.624200 0.376300
v -0.012144 3.840128 0.024643
vt 0.901000 0.165000
vn 0.285500 0.260300 0.922400
vn 0.288500 0.261900 0.921000
v -0.025122 3.832094 0.018340
vt 0.915000 0.165000
vn -0.285800 -0.261700 0.921900
vn -0.287700 -0.262600 0.921000
v -0.030498 3.828758 0.003075
vt 0.928000 0.165000
vn -0.683900 -0.624400 0.377400
vn -0.685500 -0.624600 0.374100
v -0.025122 3.832094 -0.012190
vn -0.684500 -0.623700 -0.377500
vn -0.684600 -0.624200 -0.376300
v -0.012144 3.840128 -0.018555
vn -0.288600 -0.263100 -0.920600
vn -0.286900 -0.260400 -0.921900
v 0.000896 3.848224 -0.012190
vn 0.286800 0.262500 -0.921300
vn 0.284800 0.259600 -0.922800
vn 0.685100 0.624500 -0.375100
vn 0.685200 0.624900 -0.374100
v 0.014986 3.788526 0.018340
vt 0.888000 0.112000
vn 0.898800 0.217300 0.380600
v 0.021166 3.789700 0.003075
vt 0.875000 0.112000
vn 0.906700 0.214200 0.363400
v -0.000031 3.785745 0.024643
vt 0.901000 0.112000
vn 0.371700 0.087800 0.924200
vn 0.389700 0.086800 0.916800
v -0.015048 3.782902 0.018340
vt 0.915000 0.112000
vn -0.372300 -0.082900 0.924400
vn -0.394600 -0.080800 0.915300
v -0.021290 3.781728 0.003075
vt 0.928000 0.112000
vn -0.904500 -0.185200 0.384100
vn -0.915000 -0.179200 0.361500
v -0.015048 3.782902 -0.012190
vn -0.906100 -0.177400 -0.384100
vn -0.913000 -0.187000 -0.362500
v -0.000031 3.785745 -0.018555
vn -0.376700 -0.077100 -0.923100
vn -0.394300 -0.087800 -0.914800
v 0.014986 3.788526 -0.012190
vn 0.375700 0.083700 -0.922900
vn 0.390100 0.092100 -0.916200
vn 0.900000 0.212400 -0.380700
vn 0.905600 0.218900 -0.363200
v 0.014986 3.498621 0.018278
vt 0.888000 0.007000
vn 0.926400 -0.000000 0.376600
v 0.021166 3.498621 0.003075
vt 0.875000 0.007000
vn 0.926900 -0.000100 0.375300
v -0.000031 3.498621 0.024643
vt 0.901000 0.007000
vn 0.390300 -0.000200 0.920700
vn 0.387000 -0.000000 0.922100
v -0.015048 3.498621 0.018278
vt 0.915000 0.007000
vn -0.390300 -0.000000 0.920700
vn -0.387000 -0.000200 0.922100
v -0.021290 3.498621 0.003075
vt 0.928000 0.007000
vn -0.925100 -0.000100 0.379800
vn -0.925600 -0.000000 0.378500
v -0.015048 3.498621 -0.012251
vn -0.926100 -0.000000 -0.377200
vn -0.925600 0.000100 -0.378500
v -0.000031 3.498621 -0.018555
vn -0.387000 0.000200 -0.922100
vn -0.390300 -0.000000 -0.920700
v 0.014987 3.498621 -0.012251
vn 0.387000 -0.000000 -0.922100
vn 0.390200 0.000200 -0.920700
vn 0.927400 0.000100 -0.374000
vn 0.926900 -0.000000 -0.375300
f 1/1/1 2/1/1 3/2/1
f 3/2/1 4/2/1 1/1/1
f 2/1/2 5/3/2 6/4/2
f 6/4/2 3/2/2 2/1/2
f 7/3/3 8/1/3 9/2/3
f 9/2/3 10/4/3 7/3/3
f 8/1/1 11/1/1 12/2/1
f 12/2/1 9/2/1 8/1/1
f 10/4/4 9/2/4 3/2/4
f 3/2/4 6/4/4 10/4/4
f 1/1/1 4/2/1 12/2/1
f 10/5/5 6/6/5 5/7/5
f 10/5/5 5/7/5 7/8/5
f 13/9/6 14/10/6 15/11/6
f 16/12/7 17/13/7 14/14/7
f 13/9/8 15/11/8 16/12/8
f 15/11/8 17/13/8 16/12/8
f 18/15/3 19/16/3 17/13/3
f 20/17/3 16/12/3 13/9/3
f 13/9/3 21/18/3 20/17/3
f 13/9/9 16/12/9 14/10/9
f 14/14/10 17/13/10 15/11/10
f 18/15/2 15/11/2 17/13/2
f 22/9/6 23/10/6 24/11/6
f 25/12/7 26/13/7 23/14/7
f 27/17/2 28/18/2 22/9/2
f 22/9/2 25/12/2 27/17/2
f 25/12/8 22/9/8 24/11/8
f 24/11/8 26/13/8 25/12/8
f 26/13/3 24/11/3 29/15/3
f 29/15/3 30/16/3 26/13/3
f 23/10/9 22/9/9 25/12/9
f 23/14/10 26/13/10 24/11/10
f 31/19/5 32/19/5 33/20/5
f 33/20/5 34/20/5 31/19/5
f 32/21/3 35/22/3 36/23/3
f 36/23/3 33/24/3 32/21/3
f 35/25/1 37/25/1 38/26/1
f 38/26/1 36/26/1 35/25/1
f 37/25/2 31/19/2 34/20/2
f 34/20/2 38/26/2 37/25/2
f 35/25/8 32/19/8 31/19/8
f 31/19/8 37/25/8 35/25/8
f 36/26/4 38/26/4 34/20/4
f 34/20/4 33/20/4 36/26/4
f 39/27/11 40/28/11 41/29/11
f 41/29/11 42/30/11 39/27/11
f 40/28/12 43/31/12 44/32/12
f 44/32/12 41/29/12 40/28/12
f 45/33/13 44/32/13 43/31/13
f 46/34/14 47/35/14 48/36/14
f 47/35/15 49/37/15 50/38/15
f 50/38/15 48/36/15 47/35/15
f 49/37/16 51/39/16 52/40/16
f 52/40/16 50/38/16 49/37/16
f 51/39/2 39/27/2 42/30/2
f 42/30/2 52/40/2 51/39/2
f 53/41/17 54/42/17 55/43/17
f 46/34/18 45/33/18 43/31/18
f 43/31/19 47/35/19 46/34/19
f 47/35/8 43/31/8 40/28/8
f 40/28/8 49/37/8 47/35/8
f 49/37/8 40/28/8 39/27/8
f 39/27/8 51/39/8 49/37/8
f 53/41/20 56/44/20 55/43/20
f 54/42/21 46/34/21 45/33/21
f 45/33/21 53/41/21 54/42/21
f 46/34/22 48/36/22 44/32/22
f 44/32/22 45/33/22 46/34/22
f 48/36/4 50/38/4 41/29/4
f 41/29/4 44/32/4 48/36/4
f 50/38/4 52/40/4 42/30/4
f 42/30/4 41/29/4 50/38/4
f 57/9/6 58/10/6 59/11/6
f 60/12/7 61/13/7 58/14/7
f 60/12/8 57/9/8 59/11/8
f 59/11/8 61/13/8 60/12/8
f 61/13/3 59/11/3 62/15/3
f 63/17/3 60/12/3 57/9/3
f 57/9/3 64/18/3 63/17/3
f 58/10/9 57/9/9 60/12/9
f 58/14/10 61/13/10 59/11/10
f 61/13/2 65/16/2 62/15/2
f 66/9/6 67/10/6 68/11/6
f 69/12/7 70/13/7 67/14/7
f 71/17/2 72/18/2 66/9/2
f 66/9/2 69/12/2 71/17/2
f 69/12/8 66/9/8 68/11/8
f 68/11/8 70/13/8 69/12/8
f 70/13/3 68/11/3 73/15/3
f 73/15/3 74/16/3 70/13/3
f 67/10/9 66/9/9 69/12/9
f 67/14/10 70/13/10 68/11/10
f 75/9/6 76/10/6 77/11/6
f 78/12/7 79/13/7 76/14/7
f 80/17/2 81/18/2 75/9/2
f 75/9/2 78/12/2 80/17/2
f 78/12/8 75/9/8 77/11/8
f 77/11/8 79/13/8 78/12/8
f 79/13/3 77/11/3 82/15/3
f 82/15/3 83/16/3 79/13/3
f 76/10/9 75/9/9 78/12/9
f 76/14/10 79/13/10 77/11/10
f 84/9/6 85/10/6 86/11/6
f 87/12/7 88/13/7 85/14/7
f 87/12/8 84/9/8 86/11/8
f 86/11/8 88/13/8 87/12/8
f 88/13/3 86/11/3 89/15/3
f 89/15/3 90/16/3 88/13/3
f 91/17/3 87/12/3 84/9/3
f 84/9/3 92/18/3 91/17/3
f 85/10/9 84/9/9 87/12/9
f 85/14/10 88/13/10 86/11/10
f 93/9/6 94/10/6 95/11/6
f 96/12/7 97/13/7 94/14/7
f 96/12/8 93/9/8 95/11/8
f 95/11/8 97/13/8 96/12/8
f 97/13/3 95/11/3 98/15/3
f 98/15/3 99/16/3 97/13/3
f 100/17/3 96/12/3 93/9/3
f 93/9/3 101/18/3 100/17/3
f 94/10/9 93/9/9 96/12/9
f 94/14/10 97/13/10 95/11/10
f 102/9/6 103/10/6 104/11/6
f 105/12/7 106/13/7 103/14/7
f 105/12/8 102/9/8 104/11/8
f 104/11/8 106/13/8 105/12/8
f 106/13/3 104/11/3 107/15/3
f 107/15/3 108/16/3 106/13/3
f 109/17/3 105/12/3 102/9/3
f 102/9/3 110/18/3 109/17/3
f 103/10/9 102/9/9 105/12/9
f 103/14/10 106/13/10 104/11/10
f 111/9/6 112/10/6 113/11/6
f 114/12/7 115/13/7 112/14/7
f 114/12/8 111/9/8 113/11/8
f 113/11/8 115/13/8 114/12/8
f 116/17/3 114/12/3 111/9/3
f 111/9/3 117/18/3 116/17/3
f 112/10/9 111/9/9 114/12/9
f 112/14/10 115/13/10 113/11/10
f 115/13/2 118/16/2 119/15/2
f 119/15/2 113/11/2 115/13/2
f 120/9/6 121/10/6 122/11/6
f 123/12/7 124/13/7 121/14/7
f 120/9/2 123/12/2 125/17/2
f 123/12/8 120/9/8 122/11/8
f 122/11/8 124/13/8 123/12/8
f 124/13/3 122/11/3 126/15/3
f 126/15/3 127/16/3 124/13/3
f 120/9/3 128/18/3 125/17/3
f 121/10/9 120/9/9 123/12/9
f 121/14/10 124/13/10 122/11/10
f 129/9/6 130/10/6 131/11/6
f 132/12/7 133/13/7 130/14/7
f 134/17/2 135/18/2 129/9/2
f 129/9/2 132/12/2 134/17/2
f 132/12/8 129/9/8 131/11/8
f 131/11/8 133/13/8 132/12/8
f 133/13/3 131/11/3 136/15/3
f 136/15/3 137/16/3 133/13/3
f 130/10/9 129/9/9 132/12/9
f 130/14/10 133/13/10 131/11/10
f 138/9/6 139/10/6 140/11/6
f 141/12/7 142/13/7 139/14/7
f 141/12/8 138/9/8 140/11/8
f 140/11/8 142/13/8 141/12/8
f 142/13/3 140/11/3 143/15/3
f 143/15/3 144/16/3 142/13/3
f 145/17/3 141/12/3 138/9/3
f 138/9/3 146/18/3 145/17/3
f 139/10/9 138/9/9 141/12/9
f 139/14/10 142/13/10 140/11/10
f 147/9/6 148/10/6 149/11/6
f 150/12/7 151/13/7 148/14/7
f 152/17/2 153/18/2 147/9/2
f 147/9/2 150/12/2 152/17/2
f 150/12/8 147/9/8 149/11/8
f 149/11/8 151/13/8 150/12/8
f 151/13/3 149/11/3 154/15/3
f 148/10/9 147/9/9 150/12/9
f 148/14/10 151/13/10 149/11/10
f 151/13/2 155/16/2 154/15/2
f 156/9/6 157/10/6 158/11/6
f 159/12/7 160/13/7 157/14/7
f 161/17/2 162/18/2 156/9/2
f 156/9/2 159/12/2 161/17/2
f 159/12/8 156/9/8 158/11/8
f 158/11/8 160/13/8 159/12/8
f 160/13/3 158/11/3 163/15/3
f 157/10/9 156/9/9 159/12/9
f 157/14/10 160/13/10 158/11/10
f 160/13/2 164/16/2 163/15/2
f 165/9/6 166/10/6 167/11/6
f 168/12/7 169/13/7 166/14/7
f 165/9/2 168/12/2 170/17/2
f 168/12/8 165/9/8 167/11/8
f 167/11/8 169/13/8 168/12/8
f 169/13/3 167/11/3 171/15/3
f 165/9/3 172/18/3 170/17/3
f 166/10/9 165/9/9 168/12/9
f 166/14/10 169/13/10 167/11/10
f 169/13/2 173/16/2 171/15/2
f 174/45/8 175/46/8 176/47/8
f 174/45/8 177/48/8 175/46/8
f 178/46/8 174/45/8 179/47/8
f 178/46/8 177/48/8 174/45/8
f 178/49/5 180/50/5 175/51/5
f 178/49/5 181/52/5 180/50/5
f 182/52/1 176/51/1 183/50/1
f 182/52/1 179/49/1 176/51/1
f 184/53/23 185/54/23 186/55/23
f 186/55/23 187/56/23 184/53/23
f 185/57/3 188/58/3 189/59/3
f 189/59/3 186/60/3 185/57/3
f 188/61/24 190/62/24 191/56/24
f 191/56/24 189/55/24 188/61/24
f 190/58/2 184/57/2 187/60/2
f 187/60/2 191/59/2 190/58/2
f 192/63/5 193/64/5 194/65/5
f 194/65/5 195/66/5 192/63/5
f 193/64/25 196/67/25 197/68/25
f 197/68/25 194/65/25 193/64/25
f 196/67/1 198/69/1 199/70/1
f 199/70/1 197/68/1 196/67/1
f 198/69/26 192/63/26 195/66/26
f 195/66/26 199/70/26 198/69/26
f 187/56/5 186/55/5 200/71/5
f 200/71/5 201/72/5 187/56/5
f 186/60/3 189/59/3 202/73/3
f 202/73/3 200/74/3 186/60/3
f 189/55/1 191/56/1 203/72/1
f 203/72/1 202/71/1 189/55/1
f 191/59/2 187/60/2 201/74/2
f 201/74/2 203/73/2 191/59/2
f 188/61/8 185/54/8 184/53/8
f 184/53/8 190/62/8 188/61/8
f 178/75/3 179/76/3 182/77/3
f 182/77/3 181/78/3 178/75/3
f 176/75/2 175/76/2 180/77/2
f 180/77/2 183/78/2 176/75/2
f 182/79/4 183/80/4 180/81/4
f 180/81/4 181/82/4 182/79/4
f 204/83/5 205/84/5 206/84/5
f 206/84/5 207/83/5 204/83/5
f 205/84/3 208/85/3 209/85/3
f 209/85/3 206/84/3 205/84/3
f 208/85/1 210/86/1 211/86/1
f 211/86/1 209/85/1 208/85/1
f 210/86/2 204/83/2 207/83/2
f 207/83/2 211/86/2 210/86/2
f 208/85/8 205/84/8 204/83/8
f 204/83/8 210/86/8 208/85/8
f 212/87/5 213/88/5 214/88/5
f 214/88/5 215/87/5 212/87/5
f 213/88/3 216/89/3 217/89/3
f 217/89/3 214/88/3 213/88/3
f 216/89/1 218/90/1 219/90/1
f 219/90/1 217/89/1 216/89/1
f 218/90/2 212/87/2 215/87/2
f 215/87/2 219/90/2 218/90/2
f 216/89/8 213/88/8 212/87/8
f 212/87/8 218/90/8 216/89/8
f 220/91/8 221/92/8 222/93/8
f 220/91/8 223/94/8 221/92/8
f 220/91/8 224/95/8 223/94/8
f 220/91/8 225/96/8 224/95/8
f 220/91/8 226/97/8 225/96/8
f 220/91/8 227/98/8 226/97/8
f 220/91/8 228/99/8 227/98/8
f 220/91/8 222/93/8 228/99/8
f 229/100/27 230/101/27 222/102/27
f 229/100/28 222/102/28 221/103/28
f 231/104/29 229/100/29 221/103/29
f 231/104/30 221/103/30 223/105/30
f 232/100/31 231/104/31 223/105/31
f 232/100/32 223/105/32 224/103/32
f 233/101/33 232/100/33 224/103/33
f 233/101/34 224/103/34 225/102/34
f 234/106/35 233/101/35 225/102/35
f 234/106/35 225/102/35 226/107/35
f 235/108/36 234/106/36 226/107/36
f 235/108/37 226/107/37 227/109/37
f 236/106/38 235/108/38 227/109/38
f 236/106/39 227/109/39 228/107/39
f 230/101/40 236/106/40 228/107/40
f 230/101/40 228/107/40 222/102/40
f 237/110/41 238/111/41 230/112/41
f 237/110/41 230/112/41 229/113/41
f 239/114/42 237/110/42 229/113/42
f 239/114/42 229/113/42 231/115/42
f 240/110/43 239/114/43 231/115/43
f 240/110/43 231/115/43 232/113/43
f 241/111/44 240/110/44 232/113/44
f 241/111/44 232/113/44 233/112/44
f 242/116/45 241/111/45 233/112/45
f 242/116/45 233/112/45 234/117/45
f 243/118/46 242/116/46 234/117/46
f 243/118/46 234/117/46 235/119/46
f 244/116/47 243/118/47 235/119/47
f 244/116/47 235/119/47 236/117/47
f 238/111/48 244/116/48 236/117/48
f 238/111/48 236/117/48 230/112/48
f 245/120/49 246/121/49 247/122/49
f 247/122/49 248/123/49 245/120/49
f 246/121/50 249/124/50 250/125/50
f 250/125/50 247/122/50 246/121/50
f 249/126/51 251/127/51 252/128/51
f 252/128/51 250/129/51 249/126/51
f 251/130/5 253/131/5 254/132/5
f 254/132/5 252/133/5 251/130/5
f 253/127/52 255/126/52 256/129/52
f 256/129/52 254/128/52 253/127/52
f 255/134/53 257/135/53 258/136/53
f 258/136/53 256/137/53 255/134/53
f 257/135/54 259/138/54 260/139/54
f 260/139/54 258/136/54 257/135/54
f 259/138/1 245/120/1 248/123/1
f 248/123/1 260/139/1 259/138/1
f 253/127/8 251/127/8 249/126/8
f 249/126/8 255/126/8 253/127/8
f 255/126/8 249/126/8 246/140/8
f 246/140/8 257/140/8 255/126/8
f 257/140/8 246/140/8 245/141/8
f 245/141/8 259/141/8 257/140/8
f 254/128/4 256/129/4 250/129/4
f 250/129/4 252/128/4 254/128/4
f 256/129/4 258/142/4 247/142/4
f 247/142/4 250/129/4 256/129/4
f 258/142/4 260/143/4 248/143/4
f 248/143/4 247/142/4 258/142/4
f 261/144/55 1/1/55 4/2/55
f 4/2/56 262/145/56 261/144/56
f 11/1/57 263/144/57 264/145/57
f 264/145/58 12/2/58 11/1/58
f 11/146/59 1/147/59 261/148/59
f 261/148/59 263/149/59 11/146/59
f 12/150/60 264/151/60 262/152/60
f 262/152/60 4/153/60 12/150/60
f 265/154/3 266/155/3 267/156/3
f 267/156/3 268/157/3 265/154/3
f 266/155/2 265/154/2 268/157/2
f 268/157/2 267/156/2 266/155/2
f 269/158/8 270/159/8 271/158/8
f 269/158/8 272/159/8 270/159/8
f 269/158/8 273/158/8 272/159/8
f 269/158/8 274/160/8 273/158/8
f 269/158/8 275/160/8 274/160/8
f 269/158/8 271/158/8 275/160/8
f 276/161/61 277/162/61 271/158/61
f 276/161/61 271/158/61 270/159/61
f 278/161/3 276/161/3 270/159/3
f 278/161/3 270/159/3 272/159/3
f 279/162/62 278/161/62 272/159/62
f 279/162/62 272/159/62 273/158/62
f 280/163/63 279/162/63 273/158/63
f 280/163/63 273/158/63 274/160/63
f 277/162/64 281/163/64 275/160/64
f 277/162/64 275/160/64 271/158/64
f 282/164/65 283/165/65 284/166/65
f 284/166/65 285/167/65 282/164/65
f 283/165/66 286/168/66 287/169/66
f 287/169/67 284/166/67 283/165/67
f 286/168/68 288/170/68 289/171/68
f 289/171/69 287/169/69 286/168/69
f 288/170/70 290/172/70 291/173/70
f 291/173/71 289/171/71 288/170/71
f 290/172/72 292/170/72 293/171/72
f 293/171/73 291/173/73 290/172/73
f 292/170/74 294/168/74 295/169/74
f 295/169/75 293/171/75 292/170/75
f 294/168/76 296/165/76 297/166/76
f 297/166/77 295/169/77 294/168/77
f 296/165/78 282/164/78 285/167/78
f 285/167/79 297/166/79 296/165/79
f 298/174/80 299/175/80 285/176/80
f 298/174/81 285/176/81 284/177/81
f 300/178/82 298/174/82 284/177/82
f 300/178/83 284/177/83 287/179/83
f 301/180/84 300/178/84 287/179/84
f 301/180/85 287/179/85 289/181/85
f 302/182/86 301/180/86 289/181/86
f 302/182/87 289/181/87 291/183/87
f 303/180/88 302/182/88 291/183/88
f 303/180/89 291/183/89 293/181/89
f 304/178/90 303/180/90 293/181/90
f 304/178/91 293/181/91 295/179/91
f 305/174/92 304/178/92 295/179/92
f 305/174/93 295/179/93 297/177/93
f 299/175/94 305/174/94 297/177/94
f 299/175/95 297/177/95 285/176/95
f 306/184/96 307/185/96 299/175/96
f 306/184/97 299/175/97 298/174/97
f 308/186/98 306/184/98 298/174/98
f 308/186/99 298/174/99 300/178/99
f 309/187/100 308/186/100 300/178/100
f 309/187/101 300/178/101 301/180/101
f 310/188/102 309/187/102 301/180/102
f 310/188/103 301/180/103 302/182/103
f 311/187/104 310/188/104 302/182/104
f 311/187/105 302/182/105 303/180/105
f 312/186/106 311/187/106 303/180/106
f 312/186/107 303/180/107 304/178/107
f 313/184/108 312/186/108 304/178/108
f 313/184/109 304/178/109 305/174/109
f 307/185/110 313/184/110 305/174/110
f 307/185/111 305/174/111 299/175/111
f 314/189/112 315/190/112 307/185/112
f 314/189/113 307/185/113 306/184/113
f 316/191/114 314/189/114 306/184/114
f 316/191/115 306/184/115 308/186/115
f 317/192/116 316/191/116 308/186/116
f 317/192/117 308/186/117 309/187/117
f 318/193/118 317/192/118 309/187/118
f 318/193/119 309/187/119 310/188/119
f 319/192/120 318/193/120 310/188/120
f 319/192/121 310/188/121 311/187/121
f 320/191/122 319/192/122 311/187/122
f 320/191/123 311/187/123 312/186/123
f 321/189/124 320/191/124 312/186/124
f 321/189/125 312/186/125 313/184/125
f 315/190/126 321/189/126 313/184/126
f 315/190/127 313/184/127 307/185/127
f 322/194/128 323/195/128 315/190/128
f 322/194/129 315/190/129 314/189/129
f 324/196/130 322/194/130 314/189/130
f 324/196/131 314/189/131 316/191/131
f 325/197/132 324/196/132 316/191/132
f 325/197/133 316/191/133 317/192/133
f 326/198/134 325/197/134 317/192/134
f 326/198/135 317/192/135 318/193/135
f 327/197/136 326/198/136 318/193/136
f 327/197/137 318/193/137 319/192/137
f 328/196/138 327/197/138 319/192/138
f 328/196/139 319/192/139 320/191/139
f 329/194/140 328/196/140 320/191/140
f 329/194/141 320/191/141 321/189/141
f 323/195/142 329/194/142 321/189/142
f 323/195/143 321/189/143 315/190/143
f 330/199/144 331/200/144 323/195/144
f 330/199/145 323/195/145 322/194/145
f 332/201/146 330/199/146 322/194/146
f 332/201/147 322/194/147 324/196/147
f 333/202/148 332/201/148 324/196/148
f 333/202/149 324/196/149 325/197/149
f 334/203/150 333/202/150 325/197/150
f 334/203/151 325/197/151 326/198/151
f 335/202/152 334/203/152 326/198/152
f 335/202/153 326/198/153 327/197/153
f 336/201/154 335/202/154 327/197/154
f 336/201/155 327/197/155 328/196/155
f 337/199/156 336/201/156 328/196/156
f 337/199/157 328/196/157 329/194/157
f 331/200/158 337/199/158 329/194/158
f 331/200/159 329/194/159 323/195/159
f 1/1/1 12/2/1 11/1/1
