# generated by tools/objdedupe/dedupe.py -- do not hand-edit.
# Re-run the tool after touching azd_1svet.obj, azd_2svet.obj, azd_3svet.obj, azd_4svet.obj, azd_5svet.obj, azd_6svet.obj.
o stozar_6svet_R_pruhy
v -0.011557 2.341602 -0.128544
vt 0.820000 0.786000
vn -0.970300 -0.241900 -0.000000
v 0.000000 2.295252 0.000000
vt 0.843000 0.681000
v -0.011557 2.341602 0.128544
vt 0.820000 0.583000
v 0.011557 2.341602 -0.128544
vt 0.816000 0.782000
vn 0.970300 -0.241900 -0.000000
v 0.011557 2.341602 0.128544
vt 0.816000 0.579000
vt 0.839000 0.676000
vn -0.000000 1.000000 -0.000000
v -0.011557 2.358288 0.128544
vt 0.805000 0.583000
vn -0.000000 -0.000000 -1.000000
v 0.011557 2.358288 0.128544
vt 0.801000 0.579000
v 0.011557 2.358288 -0.128544
vt 0.801000 0.782000
v -0.011557 2.358288 -0.128544
vt 0.805000 0.786000
vn -0.000000 -0.940700 -0.339200
vn -0.000000 -0.940700 0.339200
vn -0.000000 -0.000000 1.000000
v -0.011557 2.545666 -0.128544
v 0.000000 2.499316 0.000000
v -0.011557 2.545666 0.128544
v 0.011557 2.545666 -0.128544
v 0.011557 2.545666 0.128544
v 0.011557 2.562290 -0.128544
v -0.011557 2.562290 -0.128544
v -0.011557 2.562290 0.128544
v 0.011557 2.562290 0.128544
v -0.036895 2.163000 0.137876
vt 0.596000 0.885000
vn -1.000000 -0.000000 -0.000000
v -0.036895 2.163000 0.128544
v -0.036895 0.708166 0.128544
vt 0.596000 0.218000
v -0.036895 0.708166 0.137876
vt 0.946000 0.782000
v 0.036895 2.163000 0.128544
vt 0.986000 0.782000
v 0.036895 0.708166 0.128544
vt 0.986000 0.276000
vt 0.946000 0.276000
vt 0.635000 0.885000
vn 1.000000 -0.000000 -0.000000
v 0.036895 2.163000 0.137876
v 0.036895 0.708166 0.137876
vt 0.635000 0.218000
vn -0.000000 -1.000000 -0.000000
v -0.021939 2.156325 0.054693
vt 0.507000 0.340000
vn -0.848900 -0.000000 0.528500
v -0.055991 2.156325 0.000000
vt 0.491000 0.324000
v -0.055991 2.143965 0.000000
vt 0.489000 0.330000
v -0.021939 2.143965 0.054693
vt 0.505000 0.346000
vn -0.848900 -0.000000 -0.528500
v -0.021939 2.156325 -0.054693
vt 0.474000 0.340000
v -0.021939 2.143965 -0.054693
vt 0.472000 0.346000
v -0.084851 2.150146 -0.070081
vt 0.469000 0.311000
vn -0.237600 -0.000000 0.971400
v 0.084851 2.150146 -0.070081
vt 0.469000 0.390000
vn 0.237600 -0.000000 0.971400
v 0.021939 2.156325 -0.054693
vt 0.474000 0.360000
v 0.021939 2.143965 -0.054693
vt 0.472000 0.366000
vn 0.848900 -0.000000 -0.528500
v 0.055991 2.156325 0.000000
vt 0.491000 0.376000
v 0.055991 2.143965 0.000000
vt 0.489000 0.382000
vn 0.848900 -0.000000 0.528500
v 0.021939 2.156325 0.054693
vt 0.507000 0.360000
v 0.021939 2.143965 0.054693
vt 0.505000 0.366000
v -0.084851 2.161517 -0.213333
vt 0.425000 0.311000
vn -0.000000 0.891800 0.452400
v 0.084851 2.161517 -0.213333
vt 0.425000 0.390000
v 0.058895 2.172332 -0.234654
vt 0.418000 0.378000
vn -0.000000 0.928000 -0.372700
vn -0.000000 -0.891800 -0.452400
v -0.058895 2.172332 -0.234654
vt 0.418000 0.323000
vn -0.000000 -0.996900 -0.079100
vn -0.000000 -0.928000 -0.372700
v -0.011557 2.749482 -0.128544
v 0.000000 2.703132 0.000000
v -0.011557 2.749482 0.128544
v 0.011557 2.749482 -0.128544
v 0.011557 2.749482 0.128544
v -0.011557 2.766168 0.128544
v 0.011557 2.766168 -0.128544
v -0.011557 2.766168 -0.128544
v 0.011557 2.766168 0.128544
v -0.011557 2.137662 -0.128544
v 0.000000 2.091312 0.000000
v -0.011557 2.137662 0.128544
v 0.011557 2.137662 -0.128544
v 0.011557 2.137662 0.128544
v 0.011557 2.154348 -0.128544
v -0.011557 2.154348 -0.128544
v -0.011557 2.154348 0.128544
v 0.011557 2.154348 0.128544
v -0.011557 1.933722 -0.128544
v 0.000000 1.887372 0.000000
v -0.011557 1.933722 0.128544
v 0.011557 1.933722 -0.128544
v 0.011557 1.933722 0.128544
v 0.011557 1.950408 -0.128544
v -0.011557 1.950408 -0.128544
v -0.011557 1.950408 0.128544
v 0.011557 1.950408 0.128544
v -0.011557 1.729782 -0.128544
v 0.000000 1.683432 0.000000
v -0.011557 1.729782 0.128544
v 0.011557 1.729782 -0.128544
v 0.011557 1.729782 0.128544
v -0.011557 1.746468 0.128544
v 0.011557 1.746468 0.128544
v 0.011557 1.746468 -0.128544
v -0.011557 1.746468 -0.128544
v -0.011557 1.525842 -0.128544
v 0.000000 1.479492 0.000000
v -0.011557 1.525842 0.128544
v 0.011557 1.525842 -0.128544
v 0.011557 1.525842 0.128544
v -0.011557 1.542528 0.128544
v 0.011557 1.542528 0.128544
v 0.011557 1.542528 -0.128544
v -0.011557 1.542528 -0.128544
v -0.011557 0.710082 -0.128544
v 0.000000 0.663732 0.000000
v -0.011557 0.710082 0.128544
v 0.011557 0.710082 -0.128544
v 0.011557 0.710082 0.128544
v -0.011557 0.726768 0.128544
v 0.011557 0.726768 0.128544
v 0.011557 0.726768 -0.128544
v -0.011557 0.726768 -0.128544
v -0.011557 0.506142 -0.128544
v 0.000000 0.459792 0.000000
v -0.011557 0.506142 0.128544
v 0.011557 0.506142 -0.128544
v 0.011557 0.506142 0.128544
v 0.011557 0.522828 -0.128544
v -0.011557 0.522828 -0.128544
v 0.011557 0.522828 0.128544
v -0.011557 0.522828 0.128544
v -0.011557 1.321902 -0.128544
v 0.000000 1.275552 0.000000
v -0.011557 1.321902 0.128544
v 0.011557 1.321902 -0.128544
v 0.011557 1.321902 0.128544
v 0.011557 1.338588 -0.128544
v -0.011557 1.338588 0.128544
v 0.011557 1.338588 0.128544
v -0.011557 1.338588 -0.128544
v -0.011557 1.117962 -0.128544
v 0.000000 1.071612 0.000000
v -0.011557 1.117962 0.128544
v 0.011557 1.117962 -0.128544
v 0.011557 1.117962 0.128544
v 0.011557 1.134648 -0.128544
v -0.011557 1.134648 -0.128544
v -0.011557 1.134648 0.128544
v 0.011557 1.134648 0.128544
v -0.011557 0.914022 -0.128544
v 0.000000 0.867672 0.000000
v -0.011557 0.914022 0.128544
v 0.011557 0.914022 -0.128544
v 0.011557 0.914022 0.128544
v -0.011557 0.930708 0.128544
v 0.011557 0.930708 0.128544
v 0.011557 0.930708 -0.128544
v -0.011557 0.930708 -0.128544
v -0.011557 3.361302 -0.128543
v 0.000000 3.314952 0.000001
v -0.011557 3.361302 0.128545
v 0.011557 3.361302 -0.128543
v 0.011557 3.361302 0.128545
v 0.011557 3.377988 -0.128543
v -0.011557 3.377988 -0.128543
v -0.011557 3.377988 0.128545
v 0.011557 3.377988 0.128545
v -0.011557 3.157362 -0.128543
v 0.000000 3.111012 0.000000
v -0.011557 3.157362 0.128544
v 0.011557 3.157362 -0.128543
v 0.011557 3.157362 0.128544
v 0.011557 3.174048 -0.128543
v -0.011557 3.174048 -0.128543
v -0.011557 3.174048 0.128544
v 0.011557 3.174048 0.128544
v -0.011557 2.953422 -0.128544
v 0.000000 2.907072 0.000000
v -0.011557 2.953422 0.128544
v 0.011557 2.953422 -0.128544
v 0.011557 2.953422 0.128544
v 0.011557 2.970108 -0.128544
v -0.011557 2.970108 0.128544
v -0.011557 2.970108 -0.128544
v 0.011557 2.970108 0.128544
v 0.077435 0.251032 0.000000
vt 0.822000 0.207000
v -0.077435 0.251032 0.106049
vt 0.640000 0.012000
v 0.077435 0.251032 0.106049
vt 0.822000 0.012000
v -0.077435 0.251032 0.000000
vt 0.640000 0.207000
v -0.077435 0.251032 -0.106049
v 0.077435 0.251032 -0.106049
vt 0.011000 0.236000
v -0.077435 0.063592 0.106049
vt 0.203000 0.123000
vt 0.205000 0.232000
v -0.077435 0.063592 -0.106049
vt 0.011000 0.125000
v 0.077435 0.063592 -0.106049
v 0.077435 0.063592 0.106049
v -0.053395 0.288050 0.025709
vt 0.134000 0.259000
vn -0.581400 0.813600 -0.000000
v -0.053395 0.288050 -0.025709
vt 0.086000 0.259000
v -0.077435 0.270869 -0.025709
vt 0.086000 0.249000
v -0.077435 0.270869 0.025709
vt 0.134000 0.249000
vt 0.810000 0.991000
v 0.053395 0.288050 -0.025709
vt 0.904000 0.991000
v 0.077435 0.270869 -0.025709
vt 0.912000 0.979000
vt 0.801000 0.979000
vt 0.086000 0.256000
vn 0.581400 0.813600 -0.000000
v 0.053395 0.288050 0.025709
vt 0.134000 0.257000
v 0.077435 0.270869 0.025709
v -0.052654 0.071317 0.093689
vt 0.644000 0.092000
v -0.052654 0.071317 -0.093689
vt 0.635000 0.092000
v -0.052654 0.024535 -0.076138
vt 0.635000 0.057000
v -0.052654 0.024535 0.076138
vt 0.644000 0.057000
vn -0.000000 -0.351300 -0.936300
v 0.052654 0.071317 -0.093689
vt 0.823000 0.092000
v 0.052654 0.024535 -0.076138
vt 0.823000 0.057000
v 0.052654 0.071317 0.093689
vt 0.814000 0.092000
v 0.052654 0.024535 0.076138
vt 0.814000 0.057000
vn -0.000000 -0.351300 0.936300
v -0.077435 0.023360 -0.025709
vt 0.082000 0.088000
v -0.077435 0.023360 0.025709
vt 0.130000 0.088000
v 0.077435 0.023360 -0.025709
vt 0.912000 0.852000
vt 0.801000 0.852000
v 0.077435 0.023360 0.025709
vt 0.927000 0.960000
vt 0.801000 0.960000
vt 0.801000 0.791000
vt 0.927000 0.791000
vt 0.507000 0.305000
vt 0.507000 0.210000
vt 0.417000 0.210000
vt 0.417000 0.305000
v -0.088250 0.024720 0.076756
vt 0.592000 0.043000
v -0.088250 0.024720 -0.076756
vt 0.443000 0.043000
v -0.088250 0.012360 -0.076756
v -0.088250 0.012360 0.076756
v 0.088250 0.024720 -0.076756
vt 0.443000 0.162000
v 0.088250 0.012360 -0.076756
v 0.088250 0.024720 0.076756
vt 0.592000 0.162000
v 0.088250 0.012360 0.076756
v -0.109571 0.012360 0.134291
vt 0.621000 0.003000
v -0.109571 0.012360 -0.134291
vt 0.420000 0.003000
v -0.109571 0.000000 -0.134291
v -0.109571 -0.000000 0.134291
v 0.109571 0.012360 -0.134291
vt 0.420000 0.205000
v 0.109571 0.000000 -0.134291
v 0.109571 0.012360 0.134291
vt 0.621000 0.205000
v 0.109571 -0.000000 0.134291
v 0.000000 3.504740 0.000001
vt 0.103000 0.044000
v -0.036091 3.504740 -0.036152
vt 0.093000 0.052000
v -0.051047 3.504740 0.000001
vt 0.102000 0.055000
v 0.000000 3.504740 -0.051108
vt 0.091000 0.043000
v 0.036029 3.504740 -0.036152
vt 0.095000 0.036000
v 0.050985 3.504740 0.000001
vt 0.102000 0.033000
v 0.036029 3.504740 0.035968
vt 0.110000 0.037000
v 0.000000 3.504740 0.050924
vt 0.112000 0.044000
v -0.036091 3.504740 0.035968
vt 0.109000 0.052000
v -0.030591 3.415315 -0.030652
vt 0.103000 0.009000
vn -0.921200 -0.080200 -0.380700
v -0.043260 3.415315 0.000001
vt 0.126000 0.010000
vt 0.126000 0.060000
vn -0.921100 -0.080100 -0.381000
vt 0.099000 0.059000
v 0.000000 3.415315 -0.043321
vt 0.094000 0.007000
vn -0.381400 -0.080100 -0.920900
vn -0.381600 -0.080200 -0.920800
vt 0.088000 0.057000
v 0.030529 3.415315 -0.030652
vn 0.382100 -0.080200 -0.920700
vn 0.382100 -0.080100 -0.920600
v 0.043198 3.415315 0.000001
vn 0.921200 -0.080100 -0.380700
vn 0.921100 -0.080200 -0.381000
v 0.030529 3.415315 0.030468
vt 0.149000 0.009000
vn 0.920400 -0.080100 0.382700
vt 0.154000 0.059000
v 0.000000 3.415315 0.043137
vt 0.159000 0.007000
vn 0.382100 -0.080100 0.920700
vn 0.382100 -0.080200 0.920600
vt 0.165000 0.057000
v -0.030591 3.415315 0.030468
vn -0.381400 -0.080200 0.920900
vn -0.381600 -0.080100 0.920900
vn -0.920400 -0.080100 0.382700
v -0.030591 0.247200 -0.030653
vt 0.946000 0.006000
vn -0.924200 -0.000000 -0.382000
v -0.043260 0.247200 0.000000
vt 0.965000 0.006000
vt 0.965000 0.996000
vt 0.946000 0.996000
v 0.000000 0.247200 -0.043322
vt 0.938000 0.006000
vn -0.382600 -0.000000 -0.923900
vt 0.938000 0.996000
v 0.030529 0.247200 -0.030653
vn 0.383300 -0.000000 -0.923600
v 0.043198 0.247200 0.000000
vn 0.924200 -0.000000 -0.382000
v 0.030529 0.247200 0.030467
vt 0.985000 0.006000
vn 0.923400 -0.000000 0.384000
vt 0.985000 0.996000
v 0.000000 0.247200 0.043136
vt 0.993000 0.006000
vn 0.383300 -0.000000 0.923600
vt 0.993000 0.996000
v -0.030591 0.247200 0.030467
vn -0.382600 -0.000000 0.923900
vn -0.923400 -0.000000 0.384000
v -0.055635 2.492826 -0.021661
vt 0.035000 0.064000
vn -0.852100 -0.000000 -0.523300
v -0.039011 2.492826 -0.048729
vt 0.022000 0.061000
v -0.039011 2.373738 -0.048729
vt 0.022000 0.016000
v -0.055635 2.373738 -0.021661
vt 0.035000 0.019000
vn -0.576300 -0.000000 -0.817300
v -0.019730 2.492826 -0.062325
vt 0.008000 0.057000
v -0.019730 2.373738 -0.062325
vt 0.008000 0.012000
vt 0.917000 0.457000
vn 0.098300 -0.000000 -0.995200
v 0.047818 2.492826 -0.055651
vt 0.908000 0.492000
v 0.047818 2.373738 -0.055651
vt 0.849000 0.475000
vt 0.857000 0.442000
vt 0.911000 0.473000
v 0.047818 2.492826 0.055528
vt 0.902000 0.496000
v 0.047818 2.373738 0.055528
vt 0.836000 0.473000
vt 0.845000 0.449000
vn 0.098300 -0.000000 0.995200
v -0.019730 2.492826 0.062202
v -0.019730 2.373738 0.062202
vt 0.075000 0.057000
vn -0.576300 -0.000000 0.817300
v -0.039011 2.492826 0.048606
vt 0.062000 0.061000
v -0.039011 2.373738 0.048606
vt 0.062000 0.016000
vt 0.075000 0.012000
vn -0.852100 -0.000000 0.523300
v -0.055635 2.492826 0.021538
vt 0.048000 0.064000
v -0.055635 2.373738 0.021538
vt 0.048000 0.019000
vt 0.918000 0.452000
vt 0.920000 0.447000
vt 0.859000 0.436000
vt 0.860000 0.431000
v 0.026559 2.490107 -0.024565
vt 0.907000 0.487000
vn 0.092200 -0.247000 -0.964600
v 0.264550 2.578914 -0.024565
vt 0.908000 0.680000
v 0.264550 2.509636 -0.006829
vt 0.864000 0.670000
vn 0.085700 -0.150000 -0.985000
v 0.026559 2.373614 -0.006829
vt 0.842000 0.468000
v 0.264550 2.578914 -0.039892
v 0.264550 2.509636 -0.039892
v 0.330244 2.578914 -0.039892
vt 0.903000 0.708000
v 0.330244 2.509636 -0.039892
vt 0.858000 0.698000
v 0.330244 2.578914 0.039769
v 0.264550 2.578914 0.039769
v 0.264550 2.509636 0.039769
v 0.330244 2.509636 0.039769
v 0.264550 2.578914 0.024504
v 0.264550 2.509636 0.006706
vn 0.056300 -0.150800 0.987000
v 0.026559 2.490107 0.024504
v 0.026559 2.373614 0.006706
vn 0.140800 -0.246400 0.958900
vt 0.908000 0.669000
vn -0.349600 0.936900 -0.000000
vt 0.892000 0.669000
vt 0.890000 0.516000
vt 0.906000 0.516000
vt 0.860000 0.663000
vn 0.496200 -0.868200 -0.000000
vt 0.838000 0.499000
vt 0.844000 0.499000
vt 0.867000 0.662000
vt 0.909719 0.678221
vt 0.879763 0.669775
vt 0.872417 0.695826
vt 0.902373 0.704273
v 0.268784 3.926401 0.002998
vt 0.201000 0.029000
v 0.230468 3.926401 0.002998
vt 0.231000 0.029000
v 0.230468 3.892905 0.002998
vt 0.231000 0.007000
v 0.268784 3.892905 0.002998
vt 0.201000 0.007000
v 0.292049 3.984679 0.003026
vt 0.188000 0.050000
v 0.278453 3.984679 -0.020519
vt 0.197000 0.050000
v 0.264857 3.984679 0.003026
v 0.305583 3.984679 -0.020519
v 0.319179 3.984679 0.003026
v 0.305583 3.984679 0.026572
vt 0.179000 0.050000
v 0.278453 3.984679 0.026572
v 0.278453 3.877085 -0.020519
vt 0.197000 0.008000
vn -0.866000 -0.000000 -0.500000
v 0.264857 3.877085 0.003026
vt 0.188000 0.008000
vn -0.866000 -0.000000 -0.500100
v 0.305583 3.877085 -0.020519
v 0.319179 3.877085 0.003026
vn 0.866000 -0.000000 -0.500100
v 0.305583 3.877085 0.026572
vt 0.179000 0.008000
vn 0.866000 -0.000000 0.500000
vn 0.866000 -0.000000 0.500100
vn -0.866000 -0.000000 0.500100
v 0.278453 3.877085 0.026572
v 0.286273 3.968796 0.002998
vt 0.190000 0.043000
vn -0.003500 0.924800 -0.380400
v 0.286273 3.962492 -0.012329
vt 0.190000 0.040000
v 0.220703 3.962245 -0.012329
vt 0.233000 0.040000
vn -0.003500 0.924800 -0.380500
v 0.220024 3.968549 0.002998
vt 0.234000 0.042000
vn -0.001500 0.383000 -0.923700
v 0.286273 3.947289 -0.018632
vt 0.190000 0.036000
v 0.222372 3.947042 -0.018632
vt 0.233000 0.036000
vn -0.001400 0.382900 -0.923800
vn 0.001500 -0.386200 -0.922400
v 0.286273 3.932086 -0.012267
vt 0.190000 0.032000
v 0.224041 3.931839 -0.012267
vt 0.233000 0.032000
vn 0.001500 -0.386100 -0.922500
vn 0.003700 -0.924300 -0.381700
v 0.286273 3.925783 0.002998
vt 0.190000 0.029000
v 0.224720 3.925536 0.002998
vt 0.233000 0.029000
vn 0.003700 -0.924200 -0.381800
vn 0.003700 -0.924300 0.381700
v 0.286273 3.932086 0.018262
v 0.224041 3.931839 0.018262
vn 0.003700 -0.924200 0.381800
vn 0.001500 -0.383000 0.923700
v 0.286273 3.947289 0.024566
v 0.222372 3.947042 0.024566
vn 0.001500 -0.382900 0.923800
vn -0.001500 0.386200 0.922400
v 0.286273 3.962492 0.018201
v 0.220703 3.962245 0.018201
vn -0.001500 0.386100 0.922500
vn -0.003400 0.923700 0.383000
vn -0.003500 0.923700 0.383100
v 0.103036 3.929615 -0.012329
vt 0.888000 0.270000
vn -0.246100 0.890300 -0.383200
v 0.101306 3.935733 0.002998
vt 0.875000 0.270000
vt 0.875000 0.428000
vn -0.247400 0.892200 -0.377900
vt 0.888000 0.428000
v 0.107239 3.914907 -0.018632
vt 0.901000 0.270000
vn -0.101800 0.367200 -0.924600
vn -0.103600 0.371200 -0.922700
vt 0.901000 0.428000
v 0.111379 3.900198 -0.012267
vt 0.915000 0.270000
vn 0.103400 -0.370400 -0.923100
vn 0.105100 -0.374200 -0.921400
vt 0.915000 0.428000
v 0.113110 3.894141 0.002998
vt 0.928000 0.270000
vn 0.250000 -0.890000 -0.381400
vn 0.250600 -0.890800 -0.379000
vt 0.928000 0.428000
v 0.111379 3.900260 0.018262
vn 0.250000 -0.888600 0.384500
vn 0.249800 -0.891000 0.379100
v 0.107239 3.914968 0.024566
vn 0.102900 -0.367200 0.924400
vn 0.103400 -0.371200 0.922800
v 0.103036 3.929677 0.018201
vn -0.103100 0.370100 0.923300
vn -0.103600 0.374400 0.921400
vn -0.246400 0.890400 0.382800
vn -0.246400 0.891300 0.380600
v 0.048714 3.902670 -0.012267
vt 0.888000 0.218000
vn -0.412000 0.829500 -0.377100
v 0.044944 3.907737 0.002998
vt 0.875000 0.218000
vn -0.411800 0.829400 -0.377600
v 0.057984 3.890496 -0.018632
vt 0.901000 0.218000
vn -0.174100 0.348900 -0.920800
vn -0.171600 0.346300 -0.922300
v 0.067192 3.878259 -0.012267
vt 0.915000 0.218000
vn 0.173000 -0.349000 -0.921000
vn 0.173600 -0.349600 -0.920700
v 0.070962 3.873253 0.002998
vt 0.928000 0.218000
vn 0.412400 -0.830600 -0.374200
vn 0.411400 -0.830200 -0.376100
v 0.067192 3.878321 0.018262
vn 0.411300 -0.829900 0.377100
vn 0.411500 -0.828900 0.378900
v 0.057984 3.890496 0.024566
vn 0.172300 -0.347000 0.921900
vn 0.172200 -0.346700 0.922000
v 0.048714 3.902732 0.018262
vn -0.171600 0.345300 0.922700
vn -0.172200 0.349400 0.921000
vn -0.411700 0.831000 0.374200
vn -0.412000 0.829400 0.377300
v -0.000973 3.848162 -0.012267
vt 0.888000 0.165000
vn -0.684300 0.624100 -0.377200
v -0.006288 3.851561 0.002998
vt 0.875000 0.165000
vn -0.684700 0.624200 -0.376300
v 0.012066 3.840128 -0.018570
vt 0.901000 0.165000
vn -0.285500 0.260300 -0.922400
vn -0.288500 0.261900 -0.921000
v 0.025044 3.832094 -0.012267
vt 0.915000 0.165000
vn 0.285800 -0.261700 -0.921900
vn 0.287700 -0.262600 -0.921000
v 0.030421 3.828758 0.002998
vt 0.928000 0.165000
vn 0.683900 -0.624400 -0.377400
vn 0.685500 -0.624600 -0.374100
v 0.025044 3.832094 0.018262
vn 0.684500 -0.623700 0.377400
vn 0.684600 -0.624200 0.376300
v 0.012067 3.840128 0.024628
vn 0.288600 -0.263200 0.920600
vn 0.286900 -0.260400 0.921900
v -0.000973 3.848224 0.018262
vn -0.286700 0.262500 0.921300
vn -0.284800 0.259600 0.922800
vn -0.685100 0.624500 0.375100
vn -0.685200 0.624900 0.374100
v -0.015064 3.788526 -0.012267
vt 0.888000 0.112000
vn -0.898800 0.217300 -0.380600
v -0.021244 3.789700 0.002998
vt 0.875000 0.112000
vn -0.906700 0.214200 -0.363400
v -0.000046 3.785745 -0.018570
vt 0.901000 0.112000
vn -0.371700 0.087800 -0.924200
vn -0.389700 0.086800 -0.916800
v 0.014971 3.782902 -0.012267
vt 0.915000 0.112000
vn 0.372300 -0.082900 -0.924400
vn 0.394600 -0.080800 -0.915300
v 0.021213 3.781728 0.002998
vt 0.928000 0.112000
vn 0.904500 -0.185200 -0.384100
vn 0.915000 -0.179200 -0.361500
v 0.014971 3.782902 0.018262
vn 0.906100 -0.177400 0.384100
vn 0.913000 -0.187000 0.362500
v -0.000046 3.785745 0.024628
vn 0.376700 -0.077100 0.923100
vn 0.394300 -0.087800 0.914800
v -0.015064 3.788526 0.018262
vn -0.375700 0.083700 0.923000
vn -0.390100 0.092100 0.916200
vn -0.900000 0.212400 0.380700
vn -0.905600 0.218900 0.363200
v -0.015064 3.498621 -0.012205
vt 0.888000 0.007000
vn -0.926400 -0.000000 -0.376600
v -0.021244 3.498621 0.002998
vt 0.875000 0.007000
vn -0.926900 -0.000100 -0.375300
v -0.000046 3.498621 -0.018570
vt 0.901000 0.007000
vn -0.390300 -0.000200 -0.920700
vn -0.387000 -0.000000 -0.922100
v 0.014971 3.498621 -0.012205
vt 0.915000 0.007000
vn 0.390300 -0.000000 -0.920700
vn 0.387000 -0.000200 -0.922100
v 0.021213 3.498621 0.002998
vt 0.928000 0.007000
vn 0.925100 -0.000100 -0.379800
vn 0.925600 -0.000000 -0.378500
v 0.014971 3.498621 0.018324
vn 0.926100 -0.000000 0.377200
vn 0.925600 0.000100 0.378500
v -0.000046 3.498621 0.024628
vn 0.387000 0.000200 0.922100
vn 0.390300 -0.000000 0.920700
v -0.015064 3.498621 0.018324
vn -0.387000 -0.000000 0.922100
vn -0.390200 0.000200 0.920700
vn -0.927400 0.000100 0.374000
vn -0.926900 -0.000000 0.375300
f 1/1/1 2/2/1 3/3/1
f 4/4/2 5/5/2 2/6/2
f 1/1/3 3/3/3 4/4/3
f 3/3/3 5/5/3 4/4/3
f 6/7/4 7/8/4 5/5/4
f 8/9/4 4/4/4 1/1/4
f 1/1/4 9/10/4 8/9/4
f 1/1/5 4/4/5 2/2/5
f 2/6/6 5/5/6 3/3/6
f 6/7/7 3/3/7 5/5/7
f 10/1/1 11/2/1 12/3/1
f 13/4/2 14/5/2 11/6/2
f 15/9/7 16/10/7 10/1/7
f 10/1/7 13/4/7 15/9/7
f 13/4/3 10/1/3 12/3/3
f 12/3/3 14/5/3 13/4/3
f 14/5/4 12/3/4 17/7/4
f 17/7/4 18/8/4 14/5/4
f 11/2/5 10/1/5 13/4/5
f 11/6/6 14/5/6 12/3/6
f 19/11/8 20/11/8 21/12/8
f 21/12/8 22/12/8 19/11/8
f 20/13/4 23/14/4 24/15/4
f 24/15/4 21/16/4 20/13/4
f 23/17/9 25/17/9 26/18/9
f 26/18/9 24/18/9 23/17/9
f 25/17/7 19/11/7 22/12/7
f 22/12/7 26/18/7 25/17/7
f 23/17/3 20/11/3 19/11/3
f 19/11/3 25/17/3 23/17/3
f 24/18/10 26/18/10 22/12/10
f 22/12/10 21/12/10 24/18/10
f 27/19/11 28/20/11 29/21/11
f 29/21/11 30/22/11 27/19/11
f 28/20/12 31/23/12 32/24/12
f 32/24/12 29/21/12 28/20/12
f 33/25/13 32/24/13 31/23/13
f 34/26/14 35/27/14 36/28/14
f 35/27/15 37/29/15 38/30/15
f 38/30/15 36/28/15 35/27/15
f 37/29/16 39/31/16 40/32/16
f 40/32/16 38/30/16 37/29/16
f 39/31/7 27/19/7 30/22/7
f 30/22/7 40/32/7 39/31/7
f 41/33/17 42/34/17 43/35/17
f 34/26/18 33/25/18 31/23/18
f 31/23/18 35/27/18 34/26/18
f 35/27/3 31/23/3 28/20/3
f 28/20/3 37/29/3 35/27/3
f 37/29/3 28/20/3 27/19/3
f 27/19/3 39/31/3 37/29/3
f 41/33/19 44/36/19 43/35/19
f 42/34/20 34/26/20 33/25/20
f 33/25/20 41/33/20 42/34/20
f 34/26/21 36/28/21 32/24/21
f 32/24/21 33/25/21 34/26/21
f 36/28/10 38/30/10 29/21/10
f 29/21/10 32/24/10 36/28/10
f 38/30/10 40/32/10 30/22/10
f 30/22/10 29/21/10 38/30/10
f 45/1/1 46/2/1 47/3/1
f 48/4/2 49/5/2 46/6/2
f 48/4/3 45/1/3 47/3/3
f 47/3/3 49/5/3 48/4/3
f 49/5/4 47/3/4 50/7/4
f 51/9/4 48/4/4 45/1/4
f 45/1/4 52/10/4 51/9/4
f 46/2/5 45/1/5 48/4/5
f 46/6/6 49/5/6 47/3/6
f 49/5/7 53/8/7 50/7/7
f 54/1/1 55/2/1 56/3/1
f 57/4/2 58/5/2 55/6/2
f 59/9/7 60/10/7 54/1/7
f 54/1/7 57/4/7 59/9/7
f 57/4/3 54/1/3 56/3/3
f 56/3/3 58/5/3 57/4/3
f 58/5/4 56/3/4 61/7/4
f 61/7/4 62/8/4 58/5/4
f 55/2/5 54/1/5 57/4/5
f 55/6/6 58/5/6 56/3/6
f 63/1/1 64/2/1 65/3/1
f 66/4/2 67/5/2 64/6/2
f 68/9/7 69/10/7 63/1/7
f 63/1/7 66/4/7 68/9/7
f 66/4/3 63/1/3 65/3/3
f 65/3/3 67/5/3 66/4/3
f 67/5/4 65/3/4 70/7/4
f 70/7/4 71/8/4 67/5/4
f 64/2/5 63/1/5 66/4/5
f 64/6/6 67/5/6 65/3/6
f 72/1/1 73/2/1 74/3/1
f 75/4/2 76/5/2 73/6/2
f 75/4/3 72/1/3 74/3/3
f 74/3/3 76/5/3 75/4/3
f 76/5/4 74/3/4 77/7/4
f 77/7/4 78/8/4 76/5/4
f 79/9/4 75/4/4 72/1/4
f 72/1/4 80/10/4 79/9/4
f 73/2/5 72/1/5 75/4/5
f 73/6/6 76/5/6 74/3/6
f 81/1/1 82/2/1 83/3/1
f 84/4/2 85/5/2 82/6/2
f 84/4/3 81/1/3 83/3/3
f 83/3/3 85/5/3 84/4/3
f 85/5/4 83/3/4 86/7/4
f 86/7/4 87/8/4 85/5/4
f 88/9/4 84/4/4 81/1/4
f 81/1/4 89/10/4 88/9/4
f 82/2/5 81/1/5 84/4/5
f 82/6/6 85/5/6 83/3/6
f 90/1/1 91/2/1 92/3/1
f 93/4/2 94/5/2 91/6/2
f 93/4/3 90/1/3 92/3/3
f 92/3/3 94/5/3 93/4/3
f 94/5/4 92/3/4 95/7/4
f 95/7/4 96/8/4 94/5/4
f 97/9/4 93/4/4 90/1/4
f 90/1/4 98/10/4 97/9/4
f 91/2/5 90/1/5 93/4/5
f 91/6/6 94/5/6 92/3/6
f 99/1/1 100/2/1 101/3/1
f 102/4/2 103/5/2 100/6/2
f 102/4/3 99/1/3 101/3/3
f 101/3/3 103/5/3 102/4/3
f 104/9/4 102/4/4 99/1/4
f 99/1/4 105/10/4 104/9/4
f 100/2/5 99/1/5 102/4/5
f 100/6/6 103/5/6 101/3/6
f 103/5/7 106/8/7 107/7/7
f 107/7/7 101/3/7 103/5/7
f 108/1/1 109/2/1 110/3/1
f 111/4/2 112/5/2 109/6/2
f 108/1/7 111/4/7 113/9/7
f 111/4/3 108/1/3 110/3/3
f 110/3/3 112/5/3 111/4/3
f 112/5/4 110/3/4 114/7/4
f 114/7/4 115/8/4 112/5/4
f 108/1/4 116/10/4 113/9/4
f 109/2/5 108/1/5 111/4/5
f 109/6/6 112/5/6 110/3/6
f 117/1/1 118/2/1 119/3/1
f 120/4/2 121/5/2 118/6/2
f 122/9/7 123/10/7 117/1/7
f 117/1/7 120/4/7 122/9/7
f 120/4/3 117/1/3 119/3/3
f 119/3/3 121/5/3 120/4/3
f 121/5/4 119/3/4 124/7/4
f 124/7/4 125/8/4 121/5/4
f 118/2/5 117/1/5 120/4/5
f 118/6/6 121/5/6 119/3/6
f 126/1/1 127/2/1 128/3/1
f 129/4/2 130/5/2 127/6/2
f 129/4/3 126/1/3 128/3/3
f 128/3/3 130/5/3 129/4/3
f 130/5/4 128/3/4 131/7/4
f 131/7/4 132/8/4 130/5/4
f 133/9/4 129/4/4 126/1/4
f 126/1/4 134/10/4 133/9/4
f 127/2/5 126/1/5 129/4/5
f 127/6/6 130/5/6 128/3/6
f 135/1/1 136/2/1 137/3/1
f 138/4/2 139/5/2 136/6/2
f 140/9/7 141/10/7 135/1/7
f 135/1/7 138/4/7 140/9/7
f 138/4/3 135/1/3 137/3/3
f 137/3/3 139/5/3 138/4/3
f 139/5/4 137/3/4 142/7/4
f 136/2/5 135/1/5 138/4/5
f 136/6/6 139/5/6 137/3/6
f 139/5/7 143/8/7 142/7/7
f 144/1/1 145/2/1 146/3/1
f 147/4/2 148/5/2 145/6/2
f 149/9/7 150/10/7 144/1/7
f 144/1/7 147/4/7 149/9/7
f 147/4/3 144/1/3 146/3/3
f 146/3/3 148/5/3 147/4/3
f 148/5/4 146/3/4 151/7/4
f 145/2/5 144/1/5 147/4/5
f 145/6/6 148/5/6 146/3/6
f 148/5/7 152/8/7 151/7/7
f 153/1/1 154/2/1 155/3/1
f 156/4/2 157/5/2 154/6/2
f 153/1/7 156/4/7 158/9/7
f 156/4/3 153/1/3 155/3/3
f 155/3/3 157/5/3 156/4/3
f 157/5/4 155/3/4 159/7/4
f 153/1/4 160/10/4 158/9/4
f 154/2/5 153/1/5 156/4/5
f 154/6/6 157/5/6 155/3/6
f 157/5/7 161/8/7 159/7/7
f 162/37/3 163/38/3 164/39/3
f 162/37/3 165/40/3 163/38/3
f 166/38/3 162/37/3 167/39/3
f 166/38/3 165/40/3 162/37/3
f 166/41/8 168/42/8 163/43/8
f 166/41/8 169/44/8 168/42/8
f 170/44/9 164/43/9 171/42/9
f 170/44/9 167/41/9 164/43/9
f 172/45/22 173/46/22 174/47/22
f 174/47/22 175/48/22 172/45/22
f 173/49/4 176/50/4 177/51/4
f 177/51/4 174/52/4 173/49/4
f 176/53/23 178/54/23 179/48/23
f 179/48/23 177/47/23 176/53/23
f 178/50/7 172/49/7 175/52/7
f 175/52/7 179/51/7 178/50/7
f 180/55/8 181/56/8 182/57/8
f 182/57/8 183/58/8 180/55/8
f 181/56/24 184/59/24 185/60/24
f 185/60/24 182/57/24 181/56/24
f 184/59/9 186/61/9 187/62/9
f 187/62/9 185/60/9 184/59/9
f 186/61/25 180/55/25 183/58/25
f 183/58/25 187/62/25 186/61/25
f 175/48/8 174/47/8 188/63/8
f 188/63/8 189/64/8 175/48/8
f 174/52/4 177/51/4 190/65/4
f 190/65/4 188/66/4 174/52/4
f 177/47/9 179/48/9 191/64/9
f 191/64/9 190/63/9 177/47/9
f 179/51/7 175/52/7 189/66/7
f 189/66/7 191/65/7 179/51/7
f 176/53/3 173/46/3 172/45/3
f 172/45/3 178/54/3 176/53/3
f 166/67/4 167/68/4 170/69/4
f 170/69/4 169/70/4 166/67/4
f 164/67/7 163/68/7 168/69/7
f 168/69/7 171/70/7 164/67/7
f 170/71/10 171/72/10 168/73/10
f 168/73/10 169/74/10 170/71/10
f 192/75/8 193/76/8 194/76/8
f 194/76/8 195/75/8 192/75/8
f 193/76/4 196/77/4 197/77/4
f 197/77/4 194/76/4 193/76/4
f 196/77/9 198/78/9 199/78/9
f 199/78/9 197/77/9 196/77/9
f 198/78/7 192/75/7 195/75/7
f 195/75/7 199/78/7 198/78/7
f 196/77/3 193/76/3 192/75/3
f 192/75/3 198/78/3 196/77/3
f 200/79/8 201/80/8 202/80/8
f 202/80/8 203/79/8 200/79/8
f 201/80/4 204/81/4 205/81/4
f 205/81/4 202/80/4 201/80/4
f 204/81/9 206/82/9 207/82/9
f 207/82/9 205/81/9 204/81/9
f 206/82/7 200/79/7 203/79/7
f 203/79/7 207/82/7 206/82/7
f 204/81/3 201/80/3 200/79/3
f 200/79/3 206/82/3 204/81/3
f 208/83/3 209/84/3 210/85/3
f 208/83/3 211/86/3 209/84/3
f 208/83/3 212/87/3 211/86/3
f 208/83/3 213/88/3 212/87/3
f 208/83/3 214/89/3 213/88/3
f 208/83/3 215/90/3 214/89/3
f 208/83/3 216/91/3 215/90/3
f 208/83/3 210/85/3 216/91/3
f 217/92/26 218/93/26 210/94/26
f 217/92/27 210/94/27 209/95/27
f 219/96/28 217/92/28 209/95/28
f 219/96/29 209/95/29 211/97/29
f 220/92/30 219/96/30 211/97/30
f 220/92/31 211/97/31 212/95/31
f 221/93/32 220/92/32 212/95/32
f 221/93/33 212/95/33 213/94/33
f 222/98/34 221/93/34 213/94/34
f 222/98/34 213/94/34 214/99/34
f 223/100/35 222/98/35 214/99/35
f 223/100/36 214/99/36 215/101/36
f 224/98/37 223/100/37 215/101/37
f 224/98/38 215/101/38 216/99/38
f 218/93/39 224/98/39 216/99/39
f 218/93/39 216/99/39 210/94/39
f 225/102/40 226/103/40 218/104/40
f 225/102/40 218/104/40 217/105/40
f 227/106/41 225/102/41 217/105/41
f 227/106/41 217/105/41 219/107/41
f 228/102/42 227/106/42 219/107/42
f 228/102/42 219/107/42 220/105/42
f 229/103/43 228/102/43 220/105/43
f 229/103/43 220/105/43 221/104/43
f 230/108/44 229/103/44 221/104/44
f 230/108/44 221/104/44 222/109/44
f 231/110/45 230/108/45 222/109/45
f 231/110/45 222/109/45 223/111/45
f 232/108/46 231/110/46 223/111/46
f 232/108/46 223/111/46 224/109/46
f 226/103/47 232/108/47 224/109/47
f 226/103/47 224/109/47 218/104/47
f 233/112/48 234/113/48 235/114/48
f 235/114/48 236/115/48 233/112/48
f 234/113/49 237/116/49 238/117/49
f 238/117/49 235/114/49 234/113/49
f 237/118/50 239/119/50 240/120/50
f 240/120/50 238/121/50 237/118/50
f 239/122/9 241/123/9 242/124/9
f 242/124/9 240/125/9 239/122/9
f 241/119/51 243/118/51 244/121/51
f 244/121/51 242/120/51 241/119/51
f 243/126/52 245/127/52 246/128/52
f 246/128/52 244/129/52 243/126/52
f 245/127/53 247/130/53 248/131/53
f 248/131/53 246/128/53 245/127/53
f 247/130/8 233/112/8 236/115/8
f 236/115/8 248/131/8 247/130/8
f 241/119/3 239/119/3 237/118/3
f 237/118/3 243/118/3 241/119/3
f 243/118/3 237/118/3 234/132/3
f 234/132/3 245/132/3 243/118/3
f 245/132/3 234/132/3 233/133/3
f 233/133/3 247/133/3 245/132/3
f 242/120/10 244/121/10 238/121/10
f 238/121/10 240/120/10 242/120/10
f 244/121/10 246/134/10 235/134/10
f 235/134/10 238/121/10 244/121/10
f 246/134/10 248/135/10 236/135/10
f 236/135/10 235/134/10 246/134/10
f 249/136/54 250/137/54 251/138/54
f 251/138/55 252/139/55 249/136/55
f 250/137/8 253/137/8 254/138/8
f 254/138/8 251/138/8 250/137/8
f 253/137/4 255/140/4 256/141/4
f 256/141/4 254/138/4 253/137/4
f 257/140/7 258/137/7 259/138/7
f 259/138/7 260/141/7 257/140/7
f 258/137/8 261/137/8 262/138/8
f 262/138/8 259/138/8 258/137/8
f 261/137/56 263/136/56 264/139/56
f 264/139/57 262/138/57 261/137/57
f 261/142/58 250/143/58 249/144/58
f 249/144/58 263/145/58 261/142/58
f 260/141/10 259/138/10 254/138/10
f 254/138/10 256/141/10 260/141/10
f 262/146/59 264/147/59 252/148/59
f 252/148/59 251/149/59 262/146/59
f 260/150/9 256/151/9 255/152/9
f 260/150/9 255/152/9 257/153/9
f 265/154/7 266/155/7 267/156/7
f 267/156/7 268/157/7 265/154/7
f 266/155/4 265/154/4 268/157/4
f 268/157/4 267/156/4 266/155/4
f 269/158/3 270/159/3 271/158/3
f 269/158/3 272/159/3 270/159/3
f 269/158/3 273/158/3 272/159/3
f 269/158/3 274/160/3 273/158/3
f 269/158/3 275/160/3 274/160/3
f 269/158/3 271/158/3 275/160/3
f 276/161/60 277/162/60 271/158/60
f 276/161/61 271/158/61 270/159/61
f 278/161/4 276/161/4 270/159/4
f 278/161/4 270/159/4 272/159/4
f 279/162/62 278/161/62 272/159/62
f 279/162/62 272/159/62 273/158/62
f 280/163/63 279/162/63 273/158/63
f 280/163/64 273/158/64 274/160/64
f 277/162/65 281/163/65 275/160/65
f 277/162/65 275/160/65 271/158/65
f 282/164/66 283/165/66 284/166/66
f 284/166/67 285/167/67 282/164/67
f 283/165/68 286/168/68 287/169/68
f 287/169/69 284/166/69 283/165/69
f 286/168/70 288/170/70 289/171/70
f 289/171/71 287/169/71 286/168/71
f 288/170/72 290/172/72 291/173/72
f 291/173/73 289/171/73 288/170/73
f 290/172/74 292/170/74 293/171/74
f 293/171/75 291/173/75 290/172/75
f 292/170/76 294/168/76 295/169/76
f 295/169/77 293/171/77 292/170/77
f 294/168/78 296/165/78 297/166/78
f 297/166/79 295/169/79 294/168/79
f 296/165/80 282/164/80 285/167/80
f 285/167/81 297/166/81 296/165/81
f 298/174/82 299/175/82 285/176/82
f 298/174/83 285/176/83 284/177/83
f 300/178/84 298/174/84 284/177/84
f 300/178/85 284/177/85 287/179/85
f 301/180/86 300/178/86 287/179/86
f 301/180/87 287/179/87 289/181/87
f 302/182/88 301/180/88 289/181/88
f 302/182/89 289/181/89 291/183/89
f 303/180/90 302/182/90 291/183/90
f 303/180/91 291/183/91 293/181/91
f 304/178/92 303/180/92 293/181/92
f 304/178/93 293/181/93 295/179/93
f 305/174/94 304/178/94 295/179/94
f 305/174/95 295/179/95 297/177/95
f 299/175/96 305/174/96 297/177/96
f 299/175/97 297/177/97 285/176/97
f 306/184/98 307/185/98 299/175/98
f 306/184/99 299/175/99 298/174/99
f 308/186/100 306/184/100 298/174/100
f 308/186/101 298/174/101 300/178/101
f 309/187/102 308/186/102 300/178/102
f 309/187/103 300/178/103 301/180/103
f 310/188/104 309/187/104 301/180/104
f 310/188/105 301/180/105 302/182/105
f 311/187/106 310/188/106 302/182/106
f 311/187/107 302/182/107 303/180/107
f 312/186/108 311/187/108 303/180/108
f 312/186/109 303/180/109 304/178/109
f 313/184/110 312/186/110 304/178/110
f 313/184/111 304/178/111 305/174/111
f 307/185/112 313/184/112 305/174/112
f 307/185/113 305/174/113 299/175/113
f 314/189/114 315/190/114 307/185/114
f 314/189/115 307/185/115 306/184/115
f 316/191/116 314/189/116 306/184/116
f 316/191/117 306/184/117 308/186/117
f 317/192/118 316/191/118 308/186/118
f 317/192/119 308/186/119 309/187/119
f 318/193/120 317/192/120 309/187/120
f 318/193/121 309/187/121 310/188/121
f 319/192/122 318/193/122 310/188/122
f 319/192/123 310/188/123 311/187/123
f 320/191/124 319/192/124 311/187/124
f 320/191/125 311/187/125 312/186/125
f 321/189/126 320/191/126 312/186/126
f 321/189/127 312/186/127 313/184/127
f 315/190/128 321/189/128 313/184/128
f 315/190/129 313/184/129 307/185/129
f 322/194/130 323/195/130 315/190/130
f 322/194/131 315/190/131 314/189/131
f 324/196/132 322/194/132 314/189/132
f 324/196/133 314/189/133 316/191/133
f 325/197/134 324/196/134 316/191/134
f 325/197/135 316/191/135 317/192/135
f 326/198/136 325/197/136 317/192/136
f 326/198/137 317/192/137 318/193/137
f 327/197/138 326/198/138 318/193/138
f 327/197/139 318/193/139 319/192/139
f 328/196/140 327/197/140 319/192/140
f 328/196/141 319/192/141 320/191/141
f 329/194/142 328/196/142 320/191/142
f 329/194/143 320/191/143 321/189/143
f 323/195/144 329/194/144 321/189/144
f 323/195/145 321/189/145 315/190/145
f 330/199/146 331/200/146 323/195/146
f 330/199/147 323/195/147 322/194/147
f 332/201/148 330/199/148 322/194/148
f 332/201/149 322/194/149 324/196/149
f 333/202/150 332/201/150 324/196/150
f 333/202/151 324/196/151 325/197/151
f 334/203/152 333/202/152 325/197/152
f 334/203/153 325/197/153 326/198/153
f 335/202/154 334/203/154 326/198/154
f 335/202/155 326/198/155 327/197/155
f 336/201/156 335/202/156 327/197/156
f 336/201/157 327/197/157 328/196/157
f 337/199/158 336/201/158 328/196/158
f 337/199/159 328/196/159 329/194/159
f 331/200/160 337/199/160 329/194/160
f 331/200/161 329/194/161 323/195/161
