# generated by tools/objdedupe/dedupe.py -- do not hand-edit.
# Re-run the tool after touching azd_1svet.obj, azd_2svet.obj, azd_3svet.obj, azd_4svet.obj, azd_5svet.obj, azd_6svet.obj.
o stozar_2svet_R
v 0.330197 2.917763 0.039800
vt 0.904000 0.702000
vn 1.000000 -0.000000 -0.000000
v 0.330197 2.987103 -0.039861
vt 0.866000 0.700000
v 0.330197 2.987103 0.039800
vt 0.903000 0.708000
v 0.330197 2.917763 -0.039861
vt 0.867000 0.694000
v 0.233542 3.400916 0.000001
vt 0.231000 0.029000
vn -0.000000 -0.000000 -1.000000
v 0.271858 3.400916 0.000001
vt 0.201000 0.029000
v 0.233542 3.367482 0.000001
vt 0.231000 0.007000
v 0.271858 3.367482 0.000001
vt 0.201000 0.007000
vn -0.000000 -0.000000 1.000000
v -0.039058 2.900954 0.048637
vt 0.022000 0.061000
vn -0.852100 -0.000000 0.523300
v -0.055682 2.900954 0.021569
vt 0.035000 0.064000
v -0.039058 2.781927 0.048637
vt 0.022000 0.016000
v -0.055682 2.781927 0.021569
vt 0.035000 0.019000
v -0.019776 2.900954 0.062233
vt 0.008000 0.057000
vn -0.576300 -0.000000 0.817300
v -0.019776 2.781927 0.062233
vt 0.008000 0.012000
v 0.047771 2.900954 0.055559
vt 0.908000 0.492000
vn 0.098300 -0.000000 0.995200
vt 0.917000 0.457000
v 0.047771 2.781927 0.055559
vt 0.849000 0.475000
vt 0.857000 0.442000
v 0.047771 2.900954 -0.055620
vt 0.902000 0.496000
vt 0.911000 0.473000
v 0.047771 2.781927 -0.055620
vt 0.836000 0.473000
vt 0.845000 0.449000
v -0.019776 2.900954 -0.062294
vn 0.098300 -0.000000 -0.995200
v -0.019776 2.781927 -0.062294
v -0.039058 2.900954 -0.048698
vt 0.062000 0.061000
vn -0.576300 -0.000000 -0.817300
vt 0.075000 0.057000
v -0.039058 2.781927 -0.048698
vt 0.062000 0.016000
vt 0.075000 0.012000
v -0.055682 2.900954 -0.021630
vt 0.048000 0.064000
vn -0.852100 -0.000000 -0.523300
v -0.055682 2.781927 -0.021630
vt 0.048000 0.019000
vn -1.000000 -0.000000 -0.000000
vn -0.000000 1.000000 -0.000000
vt 0.918000 0.452000
vt 0.920000 0.447000
vn -0.000100 1.000000 -0.000000
vn -0.000000 -1.000000 -0.000000
vt 0.859000 0.436000
vt 0.860000 0.431000
v 0.264504 2.987103 0.024473
vt 0.908000 0.680000
vn 0.092100 -0.246800 0.964700
v 0.026512 2.898235 0.024473
vt 0.907000 0.487000
v 0.264504 2.917763 0.006737
vt 0.864000 0.670000
v 0.026512 2.781741 0.006737
vt 0.842000 0.468000
vn 0.085700 -0.150000 0.985000
v 0.264504 2.987103 0.039800
v 0.264504 2.917763 0.039800
v 0.264504 2.987103 -0.039861
v 0.264504 2.917763 -0.039861
vt 0.858000 0.698000
v 0.264504 2.987103 -0.024596
v 0.264504 2.917763 -0.006798
v 0.026512 2.898235 -0.024596
vn 0.056300 -0.150800 -0.987000
v 0.026512 2.781741 -0.006798
vn 0.140700 -0.246200 -0.959000
vt 0.892000 0.669000
vn -0.349800 0.936800 -0.000000
vt 0.908000 0.669000
vt 0.890000 0.516000
vt 0.906000 0.516000
vt 0.838000 0.499000
vn 0.496200 -0.868200 -0.000000
vt 0.860000 0.663000
vt 0.844000 0.499000
vt 0.867000 0.662000
v 0.305786 3.459255 -0.020579
vt 0.197000 0.050000
v 0.292190 3.459255 0.002905
vt 0.188000 0.050000
v 0.319382 3.459255 0.002905
v 0.278594 3.459255 -0.020579
v 0.264998 3.459255 0.002905
v 0.278594 3.459255 0.026451
vt 0.179000 0.050000
v 0.305786 3.459255 0.026451
v 0.319444 3.351661 0.002905
vt 0.188000 0.008000
vn 0.865400 0.000500 -0.501000
v 0.305848 3.351661 -0.020579
vt 0.197000 0.008000
v 0.278718 3.351661 -0.020579
vn -0.865400 -0.001000 -0.501000
v 0.265122 3.351661 0.002905
vn -0.866000 -0.001000 0.500100
v 0.278718 3.351661 0.026451
vt 0.179000 0.008000
v 0.305848 3.351661 0.026451
vn 0.866000 0.000500 0.500000
vn 0.866000 0.000500 0.500100
v 0.289348 3.437068 0.015327
vt 0.190000 0.040000
vn -0.003500 0.924800 0.380400
v 0.289348 3.443372 0.000001
vt 0.190000 0.043000
v 0.223778 3.436821 0.015327
vt 0.233000 0.040000
v 0.223098 3.443125 0.000001
vt 0.234000 0.042000
vn -0.003500 0.924800 0.380500
v 0.289348 3.421866 0.021631
vt 0.190000 0.036000
vn -0.001500 0.383000 0.923700
v 0.225446 3.421619 0.021631
vt 0.233000 0.036000
vn -0.001400 0.382900 0.923800
v 0.289348 3.406663 0.015265
vt 0.190000 0.032000
vn 0.001500 -0.386200 0.922400
v 0.227115 3.406416 0.015265
vt 0.233000 0.032000
vn 0.001500 -0.386100 0.922500
v 0.289348 3.400359 0.000001
vt 0.190000 0.029000
vn 0.003700 -0.924300 0.381700
v 0.227795 3.400112 0.000001
vt 0.233000 0.029000
vn 0.003700 -0.924200 0.381800
v 0.289348 3.406663 -0.015264
vn 0.003700 -0.924300 -0.381700
v 0.227115 3.406416 -0.015264
vn 0.003700 -0.924200 -0.381800
v 0.289348 3.421866 -0.021568
vn 0.001500 -0.383000 -0.923700
v 0.225446 3.421619 -0.021568
vn 0.001500 -0.382900 -0.923800
v 0.289348 3.437068 -0.015202
vn -0.001500 0.386200 -0.922400
v 0.223778 3.436821 -0.015202
vn -0.001500 0.386100 -0.922500
vn -0.003400 0.923700 -0.383000
vn -0.003500 0.923700 -0.383200
v 0.104380 3.410309 0.000001
vt 0.875000 0.270000
vn -0.246100 0.890300 0.383200
v 0.106111 3.404191 0.015327
vt 0.888000 0.270000
vt 0.875000 0.428000
vn -0.247400 0.892200 0.377900
vt 0.888000 0.428000
vn -0.101800 0.367200 0.924600
v 0.110313 3.389483 0.021631
vt 0.901000 0.270000
vn -0.103600 0.371200 0.922700
vt 0.901000 0.428000
vn 0.103400 -0.370400 0.923100
v 0.114454 3.374774 0.015265
vt 0.915000 0.270000
vn 0.105100 -0.374200 0.921400
vt 0.915000 0.428000
vn 0.249900 -0.890000 0.381400
v 0.116184 3.368718 0.000001
vt 0.928000 0.270000
vn 0.250600 -0.890800 0.379000
vt 0.928000 0.428000
vn 0.250300 -0.889900 -0.381400
v 0.114454 3.374774 -0.015264
vn 0.250200 -0.890900 -0.379000
vn 0.102800 -0.365900 -0.924900
v 0.110313 3.389544 -0.021568
vn 0.103400 -0.371300 -0.922800
vn -0.103100 0.370100 -0.923300
v 0.106111 3.404253 -0.015202
vn -0.103600 0.374400 -0.921400
vn -0.246400 0.890400 -0.382800
vn -0.246400 0.891300 -0.380600
v 0.048019 3.382314 0.000001
vt 0.875000 0.218000
vn -0.412000 0.829500 0.377100
v 0.051788 3.377246 0.015265
vt 0.888000 0.218000
vn -0.411800 0.829400 0.377600
vn -0.174100 0.348900 0.920800
v 0.061058 3.365072 0.021631
vt 0.901000 0.218000
vn -0.171600 0.346200 0.922300
vn 0.173000 -0.349000 0.921000
v 0.070267 3.352835 0.015265
vt 0.915000 0.218000
vn 0.173600 -0.349600 0.920700
vn 0.412400 -0.830600 0.374200
v 0.074036 3.347830 0.000001
vt 0.928000 0.218000
vn 0.411500 -0.830200 0.376000
vn 0.411800 -0.830900 -0.374200
v 0.070267 3.352835 -0.015264
vn 0.412100 -0.830000 -0.376000
vn 0.171800 -0.345900 -0.922400
v 0.061058 3.365072 -0.021568
vn 0.171700 -0.345600 -0.922500
vn -0.172100 0.346400 -0.922200
v 0.051788 3.377246 -0.015264
vn -0.172600 0.349300 -0.921000
vn -0.412000 0.829500 -0.377100
vn -0.412000 0.829400 -0.377300
v -0.003214 3.326076 0.000001
vt 0.875000 0.165000
vn -0.685300 0.624300 0.375100
v 0.002101 3.322739 0.015265
vt 0.888000 0.165000
vn -0.684700 0.624200 0.376300
vn -0.285500 0.260300 0.922400
v 0.015141 3.314704 0.021569
vt 0.901000 0.165000
vn -0.288500 0.261900 0.921000
vn 0.285800 -0.261700 0.921900
v 0.028119 3.306671 0.015265
vt 0.915000 0.165000
vn 0.287700 -0.262600 0.921000
vn 0.683900 -0.624400 0.377400
v 0.033496 3.303334 0.000001
vt 0.928000 0.165000
vn 0.685500 -0.624600 0.374100
vn 0.684500 -0.623700 -0.377500
v 0.028119 3.306671 -0.015264
vn 0.684900 -0.625300 -0.374200
vn 0.288500 -0.263400 -0.920600
v 0.015141 3.314704 -0.021629
vn 0.286200 -0.259800 -0.922300
vn -0.286700 0.262500 -0.921300
v 0.002101 3.322801 -0.015264
vn -0.285300 0.260400 -0.922400
vn -0.685400 0.625500 -0.372800
vn -0.684900 0.623900 -0.376300
v -0.018169 3.264276 0.000001
vt 0.875000 0.112000
vn -0.898800 0.217500 0.380600
v -0.011989 3.263102 0.015265
vt 0.888000 0.112000
vn -0.907000 0.214300 0.362600
vn -0.371400 0.087700 0.924300
v 0.003028 3.260259 0.021569
vt 0.901000 0.112000
vn -0.389800 0.086700 0.916800
vn 0.372600 -0.082900 0.924300
v 0.018046 3.257478 0.015265
vt 0.915000 0.112000
vn 0.394600 -0.080800 0.915300
vn 0.904500 -0.185200 0.384100
v 0.024287 3.256304 0.000001
vt 0.928000 0.112000
vn 0.915000 -0.179200 0.361500
vn 0.906100 -0.177400 -0.384100
v 0.018046 3.257478 -0.015264
vn 0.913000 -0.187000 -0.362500
vn 0.376700 -0.077100 -0.923100
v 0.003028 3.260321 -0.021629
vn 0.394300 -0.087800 -0.914800
vn -0.375700 0.083700 -0.923000
v -0.011989 3.263102 -0.015264
vn -0.390100 0.092100 -0.916200
vn -0.900000 0.212400 -0.380700
vn -0.905900 0.219200 -0.362400
v -0.018169 3.090741 0.000000
vt 0.875000 0.007000
vn -0.926400 -0.000000 0.376600
v -0.011989 3.090741 0.015203
vt 0.888000 0.007000
vn -0.926900 -0.000100 0.375300
vn -0.390300 -0.000300 0.920700
v 0.003028 3.090741 0.021569
vt 0.901000 0.007000
vn -0.387000 -0.000000 0.922100
vn 0.390300 -0.000000 0.920700
v 0.018046 3.090741 0.015203
vt 0.915000 0.007000
vn 0.387000 -0.000300 0.922100
vn 0.925100 -0.000100 0.379800
v 0.024287 3.090741 0.000000
vt 0.928000 0.007000
vn 0.925600 -0.000000 0.378500
vn 0.926100 -0.000000 -0.377200
v 0.018046 3.090741 -0.015326
vn 0.925600 0.000100 -0.378500
vn 0.387000 0.000300 -0.922100
v 0.003028 3.090741 -0.021630
vn 0.390300 -0.000000 -0.920700
vn -0.387000 -0.000000 -0.922100
v -0.011989 3.090741 -0.015326
vn -0.390200 0.000300 -0.920700
vn -0.927400 0.000100 -0.374000
vn -0.926900 -0.000000 -0.375300
v -0.011557 0.710267 -0.128544
vt 0.820000 0.786000
vn -0.970300 -0.241900 -0.000000
v 0.000000 0.663917 0.000000
vt 0.843000 0.681000
v -0.011557 0.710267 0.128544
vt 0.820000 0.583000
v 0.011557 0.710267 -0.128544
vt 0.816000 0.782000
vn 0.970300 -0.241900 -0.000000
v 0.011557 0.710267 0.128544
vt 0.816000 0.579000
vt 0.839000 0.676000
v 0.011557 0.726892 -0.128544
vt 0.801000 0.782000
v -0.011557 0.726892 -0.128544
vt 0.805000 0.786000
vn -0.000000 -0.940700 -0.339200
vn -0.000000 -0.940700 0.339200
v 0.011557 0.726892 0.128544
vt 0.801000 0.579000
v -0.011557 0.726892 0.128544
vt 0.805000 0.583000
v -0.011557 0.914207 -0.128544
v 0.000000 0.867857 0.000000
v -0.011557 0.914207 0.128544
v 0.011557 0.914207 -0.128544
v 0.011557 0.914207 0.128544
v 0.011557 0.930832 -0.128544
v -0.011557 0.930832 -0.128544
v -0.011557 0.930832 0.128544
v 0.011557 0.930832 0.128544
v -0.011557 2.341726 -0.128544
v 0.000000 2.295376 0.000000
v -0.011557 2.341726 0.128544
v 0.011557 2.341726 -0.128544
v 0.011557 2.341726 0.128544
v 0.011557 2.358350 -0.128544
v -0.011557 2.358350 -0.128544
v -0.011557 2.358350 0.128544
v 0.011557 2.358350 0.128544
v -0.036895 2.570880 0.137876
vt 0.596000 0.885000
v -0.036895 2.570880 0.128544
v -0.036895 1.116046 0.128544
vt 0.596000 0.218000
v -0.036895 1.116046 0.137876
vt 0.946000 0.782000
v 0.036895 2.570880 0.128544
vt 0.986000 0.782000
v 0.036895 1.116046 0.128544
vt 0.986000 0.276000
vt 0.946000 0.276000
vt 0.635000 0.885000
v 0.036895 2.570880 0.137876
v 0.036895 1.116046 0.137876
vt 0.635000 0.218000
v -0.021939 2.360698 0.054693
vt 0.507000 0.340000
vn -0.848900 -0.000000 0.528500
v -0.055991 2.360698 0.000000
vt 0.491000 0.324000
v -0.055991 2.348338 0.000000
vt 0.489000 0.330000
v -0.021939 2.348338 0.054693
vt 0.505000 0.346000
vn -0.848900 -0.000000 -0.528500
v -0.021939 2.360698 -0.054693
vt 0.474000 0.340000
v -0.021939 2.348338 -0.054693
vt 0.472000 0.346000
v -0.084851 2.354518 -0.070081
vt 0.469000 0.311000
vn -0.237600 -0.000000 0.971400
v 0.084851 2.354518 -0.070081
vt 0.469000 0.390000
vn 0.237600 -0.000000 0.971400
v 0.021939 2.360698 -0.054693
vt 0.474000 0.360000
v 0.021939 2.348338 -0.054693
vt 0.472000 0.366000
vn 0.848900 -0.000000 -0.528500
v 0.055991 2.360698 0.000000
vt 0.491000 0.376000
v 0.055991 2.348338 0.000000
vt 0.489000 0.382000
vn 0.848900 -0.000000 0.528500
v 0.021939 2.360698 0.054693
vt 0.507000 0.360000
v 0.021939 2.348338 0.054693
vt 0.505000 0.366000
v 0.058895 2.376704 -0.234654
vt 0.418000 0.378000
vn -0.000000 0.891800 0.452400
v -0.058895 2.376704 -0.234654
vt 0.418000 0.323000
v -0.084851 2.365889 -0.213333
vt 0.425000 0.311000
v 0.084851 2.365889 -0.213333
vt 0.425000 0.390000
vn -0.000000 0.996900 0.079100
vn -0.000000 0.928000 -0.372700
vn -0.000000 -0.891800 -0.452400
vn -0.000000 -0.928000 -0.372700
v -0.011557 2.545542 -0.128544
v 0.000000 2.499192 0.000000
v -0.011557 2.545542 0.128544
v 0.011557 2.545542 -0.128544
v 0.011557 2.545542 0.128544
v 0.011557 2.562228 -0.128544
v -0.011557 2.562228 -0.128544
v -0.011557 2.562228 0.128544
v 0.011557 2.562228 0.128544
v -0.011557 2.137662 -0.128544
v 0.000000 2.091312 0.000000
v -0.011557 2.137662 0.128544
v 0.011557 2.137662 -0.128544
v 0.011557 2.137662 0.128544
v 0.011557 2.154348 -0.128544
v -0.011557 2.154348 0.128544
v 0.011557 2.154348 0.128544
v -0.011557 2.154348 -0.128544
v -0.011557 1.933722 -0.128544
v 0.000000 1.887372 0.000000
v -0.011557 1.933722 0.128544
v 0.011557 1.933722 -0.128544
v 0.011557 1.933722 0.128544
v 0.011557 1.950408 -0.128544
v -0.011557 1.950408 0.128544
v 0.011557 1.950408 0.128544
v -0.011557 1.950408 -0.128544
v -0.011557 1.729782 -0.128544
v 0.000000 1.683432 0.000000
v -0.011557 1.729782 0.128544
v 0.011557 1.729782 -0.128544
v 0.011557 1.729782 0.128544
v -0.011557 1.746468 0.128544
v 0.011557 1.746468 0.128544
v 0.011557 1.746468 -0.128544
v -0.011557 1.746468 -0.128544
v -0.011557 1.525842 -0.128544
v 0.000000 1.479492 0.000000
v -0.011557 1.525842 0.128544
v 0.011557 1.525842 -0.128544
v 0.011557 1.525842 0.128544
v 0.011557 1.542528 -0.128544
v -0.011557 1.542528 0.128544
v 0.011557 1.542528 0.128544
v -0.011557 1.542528 -0.128544
v -0.011557 0.506142 -0.128544
v 0.000000 0.459792 0.000000
v -0.011557 0.506142 0.128544
v 0.011557 0.506142 -0.128544
v 0.011557 0.506142 0.128544
v 0.011557 0.522828 -0.128544
v -0.011557 0.522828 0.128544
v -0.011557 0.522828 -0.128544
v 0.011557 0.522828 0.128544
v -0.011557 1.321902 -0.128544
v 0.000000 1.275552 0.000000
v -0.011557 1.321902 0.128544
v 0.011557 1.321902 -0.128544
v 0.011557 1.321902 0.128544
v 0.011557 1.338588 -0.128544
v -0.011557 1.338588 -0.128544
v -0.011557 1.338588 0.128544
v 0.011557 1.338588 0.128544
v -0.011557 1.117962 -0.128544
v 0.000000 1.071612 0.000000
v -0.011557 1.117962 0.128544
v 0.011557 1.117962 -0.128544
v 0.011557 1.117962 0.128544
v 0.011557 1.134648 -0.128544
v -0.011557 1.134648 -0.128544
v -0.011557 1.134648 0.128544
v 0.011557 1.134648 0.128544
v -0.011557 2.953422 -0.128544
v 0.000000 2.907072 0.000000
v -0.011557 2.953422 0.128544
v 0.011557 2.953422 -0.128544
v 0.011557 2.953422 0.128544
v 0.011557 2.970108 -0.128544
v -0.011557 2.970108 -0.128544
v -0.011557 2.970108 0.128544
v 0.011557 2.970108 0.128544
v -0.011557 2.749482 -0.128544
v 0.000000 2.703132 0.000000
v -0.011557 2.749482 0.128544
v 0.011557 2.749482 -0.128544
v 0.011557 2.749482 0.128544
v 0.011557 2.766168 -0.128544
v -0.011557 2.766168 0.128544
v 0.011557 2.766168 0.128544
v -0.011557 2.766168 -0.128544
v 0.077435 0.251032 0.000000
vt 0.822000 0.207000
v -0.077435 0.251032 0.106049
vt 0.640000 0.012000
v 0.077435 0.251032 0.106049
vt 0.822000 0.012000
v -0.077435 0.251032 0.000000
vt 0.640000 0.207000
v -0.077435 0.251032 -0.106049
v 0.077435 0.251032 -0.106049
vt 0.011000 0.236000
v -0.077435 0.063592 0.106049
vt 0.203000 0.123000
vt 0.205000 0.232000
v -0.077435 0.063592 -0.106049
vt 0.011000 0.125000
v 0.077435 0.063592 -0.106049
v 0.077435 0.063592 0.106049
v -0.053395 0.288050 0.025709
vt 0.134000 0.259000
vn -0.581400 0.813600 -0.000000
v -0.053395 0.288050 -0.025709
vt 0.086000 0.259000
v -0.077435 0.270869 -0.025709
vt 0.086000 0.249000
v -0.077435 0.270869 0.025709
vt 0.134000 0.249000
vt 0.810000 0.991000
v 0.053395 0.288050 -0.025709
vt 0.904000 0.991000
v 0.077435 0.270869 -0.025709
vt 0.912000 0.979000
vt 0.801000 0.979000
vt 0.086000 0.256000
vn 0.581400 0.813600 -0.000000
v 0.053395 0.288050 0.025709
vt 0.134000 0.257000
v 0.077435 0.270869 0.025709
v -0.052654 0.071317 0.093689
vt 0.644000 0.092000
v -0.052654 0.071317 -0.093689
vt 0.635000 0.092000
v -0.052654 0.024535 -0.076138
vt 0.635000 0.057000
v -0.052654 0.024535 0.076138
vt 0.644000 0.057000
vn -0.000000 -0.351300 -0.936300
v 0.052654 0.071317 -0.093689
vt 0.823000 0.092000
v 0.052654 0.024535 -0.076138
vt 0.823000 0.057000
v 0.052654 0.071317 0.093689
vt 0.814000 0.092000
v 0.052654 0.024535 0.076138
vt 0.814000 0.057000
vn -0.000000 -0.351300 0.936300
v -0.077435 0.023360 -0.025709
vt 0.082000 0.088000
v -0.077435 0.023360 0.025709
vt 0.130000 0.088000
v 0.077435 0.023360 -0.025709
vt 0.912000 0.852000
vt 0.801000 0.852000
v 0.077435 0.023360 0.025709
vt 0.927000 0.960000
vt 0.801000 0.960000
vt 0.801000 0.791000
vt 0.927000 0.791000
vt 0.507000 0.305000
vt 0.507000 0.210000
vt 0.417000 0.210000
vt 0.417000 0.305000
v -0.088250 0.024720 0.076756
vt 0.592000 0.043000
v -0.088250 0.024720 -0.076756
vt 0.443000 0.043000
v -0.088250 0.012360 -0.076756
v -0.088250 0.012360 0.076756
v 0.088250 0.024720 -0.076756
vt 0.443000 0.162000
v 0.088250 0.012360 -0.076756
v 0.088250 0.024720 0.076756
vt 0.592000 0.162000
v 0.088250 0.012360 0.076756
v -0.109571 0.012360 0.134291
vt 0.621000 0.003000
v -0.109571 0.012360 -0.134291
vt 0.420000 0.003000
v -0.109571 0.000000 -0.134291
v -0.109571 -0.000000 0.134291
v 0.109571 0.012360 -0.134291
vt 0.420000 0.205000
v 0.109571 0.000000 -0.134291
v 0.109571 0.012360 0.134291
vt 0.621000 0.205000
v 0.109571 -0.000000 0.134291
v 0.000000 3.115400 0.000000
vt 0.103000 0.044000
v -0.036091 3.115400 -0.036153
vt 0.093000 0.052000
v -0.051047 3.115400 0.000000
vt 0.102000 0.055000
v 0.000000 3.115400 -0.051108
vt 0.091000 0.043000
v 0.036029 3.115400 -0.036153
vt 0.095000 0.036000
v 0.050985 3.115400 0.000000
vt 0.102000 0.033000
v 0.036029 3.115400 0.035968
vt 0.110000 0.037000
v 0.000000 3.115400 0.050924
vt 0.112000 0.044000
v -0.036091 3.115400 0.035968
vt 0.109000 0.052000
v -0.030591 3.025975 -0.030652
vt 0.103000 0.009000
vn -0.921200 -0.080200 -0.380700
v -0.043260 3.025975 0.000000
vt 0.126000 0.010000
vt 0.126000 0.060000
vn -0.921100 -0.080100 -0.381000
vt 0.099000 0.059000
v 0.000000 3.025975 -0.043321
vt 0.094000 0.007000
vn -0.381400 -0.080100 -0.920900
vn -0.381600 -0.080200 -0.920800
vt 0.088000 0.057000
v 0.030529 3.025975 -0.030652
vn 0.382100 -0.080200 -0.920700
vn 0.382100 -0.080100 -0.920600
v 0.043198 3.025975 0.000000
vn 0.921200 -0.080100 -0.380700
vn 0.921100 -0.080200 -0.381000
v 0.030529 3.025975 0.030468
vt 0.149000 0.009000
vn 0.920400 -0.080100 0.382700
vt 0.154000 0.059000
v 0.000000 3.025975 0.043137
vt 0.159000 0.007000
vn 0.382100 -0.080100 0.920700
vn 0.382100 -0.080200 0.920600
vt 0.165000 0.057000
v -0.030591 3.025975 0.030468
vn -0.381400 -0.080200 0.920900
vn -0.381600 -0.080100 0.920900
vn -0.920400 -0.080100 0.382700
v -0.030591 0.247200 -0.030653
vt 0.946000 0.006000
vn -0.924200 -0.000000 -0.382000
v -0.043260 0.247200 0.000000
vt 0.965000 0.006000
vt 0.965000 0.996000
vt 0.946000 0.996000
v 0.000000 0.247200 -0.043322
vt 0.938000 0.006000
vn -0.382600 -0.000000 -0.923900
vt 0.938000 0.996000
v 0.030529 0.247200 -0.030653
vn 0.383300 -0.000000 -0.923600
v 0.043198 0.247200 0.000000
vn 0.924200 -0.000000 -0.382000
v 0.030529 0.247200 0.030467
vt 0.985000 0.006000
vn 0.923400 -0.000000 0.384000
vt 0.985000 0.996000
v 0.000000 0.247200 0.043136
vt 0.993000 0.006000
vn 0.383300 -0.000000 0.923600
vt 0.993000 0.996000
v -0.030591 0.247200 0.030467
vn -0.382600 -0.000000 0.923900
vn -0.923400 -0.000000 0.384000
f 1/1/1 2/2/1 3/3/1
f 4/4/1 2/2/1 1/1/1
f 5/5/2 6/6/2 7/7/2
f 8/8/2 7/7/2 6/6/2
f 6/6/3 5/5/3 8/8/3
f 7/7/3 8/8/3 5/5/3
f 9/9/4 10/10/4 11/11/4
f 12/12/4 11/11/4 10/10/4
f 13/13/5 9/9/5 14/14/5
f 11/11/5 14/14/5 9/9/5
f 15/15/6 13/16/6 16/17/6
f 14/18/6 16/17/6 13/16/6
f 17/19/1 15/20/1 18/21/1
f 16/22/1 18/21/1 15/20/1
f 19/16/7 17/15/7 20/18/7
f 18/17/7 20/18/7 17/15/7
f 21/23/8 19/24/8 22/25/8
f 20/26/8 22/25/8 19/24/8
f 23/27/9 21/23/9 24/28/9
f 22/25/9 24/28/9 21/23/9
f 10/10/10 23/27/10 12/12/10
f 24/28/10 12/12/10 23/27/10
f 15/15/11 17/15/11 13/16/11
f 19/16/11 13/16/11 17/15/11
f 13/16/11 19/16/11 9/29/11
f 21/29/11 9/29/11 19/16/11
f 9/29/11 21/29/11 10/30/11
f 23/30/12 10/30/12 21/29/12
f 20/18/13 18/17/13 14/18/13
f 16/17/13 14/18/13 18/17/13
f 22/31/13 20/18/13 11/31/13
f 14/18/13 11/31/13 20/18/13
f 24/32/13 22/31/13 12/32/13
f 11/31/13 12/32/13 22/31/13
f 25/33/14 26/34/14 27/35/14
f 28/36/15 27/35/15 26/34/15
f 29/33/10 25/33/10 30/35/10
f 27/35/10 30/35/10 25/33/10
f 31/33/2 2/3/2 32/35/2
f 4/37/2 32/35/2 2/3/2
f 33/33/10 31/33/10 34/35/10
f 32/35/10 34/35/10 31/33/10
f 35/34/16 33/33/16 36/36/16
f 34/35/17 36/36/17 33/33/17
f 25/38/18 33/39/18 26/40/18
f 35/41/18 26/40/18 33/39/18
f 32/35/13 4/37/13 30/35/13
f 1/37/13 30/35/13 4/37/13
f 36/42/19 34/43/19 28/44/19
f 27/45/19 28/44/19 34/43/19
f 37/46/11 38/47/11 39/47/11
f 40/46/11 38/47/11 37/46/11
f 41/47/11 38/47/11 40/46/11
f 42/48/11 38/47/11 41/47/11
f 43/48/11 38/47/11 42/48/11
f 39/47/11 38/47/11 43/48/11
f 44/49/20 45/50/20 39/47/20
f 39/47/20 45/50/20 37/46/20
f 45/50/2 46/50/2 37/46/2
f 37/46/2 46/50/2 40/46/2
f 46/50/21 47/49/21 40/46/21
f 40/46/21 47/49/21 41/47/21
f 47/49/22 48/51/22 41/47/22
f 41/47/22 48/51/22 42/48/22
f 49/51/23 44/49/23 43/48/23
f 43/48/24 44/49/24 39/47/24
f 50/52/25 51/53/25 52/54/25
f 53/55/26 52/54/26 51/53/26
f 54/56/27 50/52/27 55/57/27
f 52/54/28 55/57/28 50/52/28
f 56/58/29 54/56/29 57/59/29
f 55/57/30 57/59/30 54/56/30
f 58/60/31 56/58/31 59/61/31
f 57/59/32 59/61/32 56/58/32
f 60/58/33 58/60/33 61/59/33
f 59/61/34 61/59/34 58/60/34
f 62/56/35 60/58/35 63/57/35
f 61/59/36 63/57/36 60/58/36
f 64/52/37 62/56/37 65/54/37
f 63/57/38 65/54/38 62/56/38
f 51/53/39 64/52/39 53/55/39
f 65/54/40 53/55/40 64/52/40
f 66/62/41 67/63/41 53/64/41
f 53/64/42 67/63/42 52/65/42
f 67/63/43 68/66/43 52/65/43
f 52/65/44 68/66/44 55/67/44
f 68/66/45 69/68/45 55/67/45
f 55/67/46 69/68/46 57/69/46
f 69/68/47 70/70/47 57/69/47
f 57/69/48 70/70/48 59/71/48
f 70/70/49 71/68/49 59/71/49
f 59/71/50 71/68/50 61/69/50
f 71/68/51 72/66/51 61/69/51
f 61/69/52 72/66/52 63/67/52
f 72/66/53 73/63/53 63/67/53
f 63/67/54 73/63/54 65/65/54
f 73/63/55 66/62/55 65/65/55
f 65/65/56 66/62/56 53/64/56
f 74/72/57 75/73/57 66/62/57
f 66/62/58 75/73/58 67/63/58
f 75/73/59 76/74/59 67/63/59
f 67/63/60 76/74/60 68/66/60
f 76/74/61 77/75/61 68/66/61
f 68/66/62 77/75/62 69/68/62
f 77/75/63 78/76/63 69/68/63
f 69/68/64 78/76/64 70/70/64
f 78/76/65 79/75/65 70/70/65
f 70/70/66 79/75/66 71/68/66
f 79/75/67 80/74/67 71/68/67
f 71/68/68 80/74/68 72/66/68
f 80/74/69 81/73/69 72/66/69
f 72/66/70 81/73/70 73/63/70
f 81/73/71 74/72/71 73/63/71
f 73/63/72 74/72/72 66/62/72
f 82/77/73 83/78/73 74/72/73
f 74/72/74 83/78/74 75/73/74
f 83/78/75 84/79/75 75/73/75
f 75/73/76 84/79/76 76/74/76
f 84/79/77 85/80/77 76/74/77
f 76/74/78 85/80/78 77/75/78
f 85/80/79 86/81/79 77/75/79
f 77/75/80 86/81/80 78/76/80
f 86/81/81 87/80/81 78/76/81
f 78/76/82 87/80/82 79/75/82
f 87/80/83 88/79/83 79/75/83
f 79/75/84 88/79/84 80/74/84
f 88/79/85 89/78/85 80/74/85
f 80/74/86 89/78/86 81/73/86
f 89/78/87 82/77/87 81/73/87
f 81/73/88 82/77/88 74/72/88
f 90/82/89 91/83/89 82/77/89
f 82/77/90 91/83/90 83/78/90
f 91/83/91 92/84/91 83/78/91
f 83/78/92 92/84/92 84/79/92
f 92/84/93 93/85/93 84/79/93
f 84/79/94 93/85/94 85/80/94
f 93/85/95 94/86/95 85/80/95
f 85/80/96 94/86/96 86/81/96
f 94/86/97 95/85/97 86/81/97
f 86/81/98 95/85/98 87/80/98
f 95/85/99 96/84/99 87/80/99
f 87/80/100 96/84/100 88/79/100
f 96/84/101 97/83/101 88/79/101
f 88/79/102 97/83/102 89/78/102
f 97/83/103 90/82/103 89/78/103
f 89/78/104 90/82/104 82/77/104
f 98/87/105 99/88/105 90/82/105
f 90/82/106 99/88/106 91/83/106
f 99/88/107 100/89/107 91/83/107
f 91/83/108 100/89/108 92/84/108
f 100/89/109 101/90/109 92/84/109
f 92/84/110 101/90/110 93/85/110
f 101/90/111 102/91/111 93/85/111
f 93/85/112 102/91/112 94/86/112
f 102/91/113 103/90/113 94/86/113
f 94/86/114 103/90/114 95/85/114
f 103/90/115 104/89/115 95/85/115
f 95/85/116 104/89/116 96/84/116
f 104/89/117 105/88/117 96/84/117
f 96/84/118 105/88/118 97/83/118
f 105/88/119 98/87/119 97/83/119
f 97/83/120 98/87/120 90/82/120
f 106/92/121 107/93/121 108/94/121
f 109/95/122 110/96/122 107/97/122
f 109/95/11 106/92/11 108/94/11
f 108/94/11 110/96/11 109/95/11
f 111/98/2 109/95/2 106/92/2
f 106/92/2 112/99/2 111/98/2
f 107/93/123 106/92/123 109/95/123
f 107/97/124 110/96/124 108/94/124
f 110/96/3 113/100/3 114/101/3
f 114/101/3 108/94/3 110/96/3
f 115/92/121 116/93/121 117/94/121
f 118/95/122 119/96/122 116/97/122
f 120/98/3 121/99/3 115/92/3
f 115/92/3 118/95/3 120/98/3
f 118/95/11 115/92/11 117/94/11
f 117/94/11 119/96/11 118/95/11
f 119/96/2 117/94/2 122/101/2
f 116/93/123 115/92/123 118/95/123
f 116/97/124 119/96/124 117/94/124
f 119/96/3 123/100/3 122/101/3
f 124/92/121 125/93/121 126/94/121
f 127/95/122 128/96/122 125/97/122
f 129/98/3 130/99/3 124/92/3
f 124/92/3 127/95/3 129/98/3
f 127/95/11 124/92/11 126/94/11
f 126/94/11 128/96/11 127/95/11
f 128/96/2 126/94/2 131/101/2
f 131/101/2 132/100/2 128/96/2
f 125/93/123 124/92/123 127/95/123
f 125/97/124 128/96/124 126/94/124
f 133/102/10 134/102/10 135/103/10
f 135/103/10 136/103/10 133/102/10
f 134/104/2 137/105/2 138/106/2
f 138/106/2 135/107/2 134/104/2
f 137/108/1 139/108/1 140/109/1
f 140/109/1 138/109/1 137/108/1
f 139/108/3 133/102/3 136/103/3
f 136/103/3 140/109/3 139/108/3
f 137/108/11 134/102/11 133/102/11
f 133/102/11 139/108/11 137/108/11
f 138/109/13 140/109/13 136/103/13
f 136/103/13 135/103/13 138/109/13
f 141/110/125 142/111/125 143/112/125
f 143/112/125 144/113/125 141/110/125
f 142/111/126 145/114/126 146/115/126
f 146/115/126 143/112/126 142/111/126
f 147/116/127 146/115/127 145/114/127
f 148/117/128 149/118/128 150/119/128
f 149/118/129 151/120/129 152/121/129
f 152/121/129 150/119/129 149/118/129
f 151/120/130 153/122/130 154/123/130
f 154/123/130 152/121/130 151/120/130
f 153/122/3 141/110/3 144/113/3
f 144/113/3 154/123/3 153/122/3
f 155/124/131 156/125/131 157/126/131
f 158/127/132 157/126/132 147/116/132
f 147/116/132 148/117/132 158/127/132
f 148/117/133 147/116/133 145/114/133
f 145/114/133 149/118/133 148/117/133
f 149/118/11 145/114/11 142/111/11
f 142/111/11 151/120/11 149/118/11
f 151/120/11 142/111/11 141/110/11
f 141/110/11 153/122/11 151/120/11
f 155/124/134 158/127/134 157/126/134
f 148/117/135 150/119/135 146/115/135
f 146/115/135 147/116/135 148/117/135
f 150/119/13 152/121/13 143/112/13
f 143/112/13 146/115/13 150/119/13
f 152/121/13 154/123/13 144/113/13
f 144/113/13 143/112/13 152/121/13
f 159/92/121 160/93/121 161/94/121
f 162/95/122 163/96/122 160/97/122
f 164/98/3 165/99/3 159/92/3
f 159/92/3 162/95/3 164/98/3
f 162/95/11 159/92/11 161/94/11
f 161/94/11 163/96/11 162/95/11
f 163/96/2 161/94/2 166/101/2
f 166/101/2 167/100/2 163/96/2
f 160/93/123 159/92/123 162/95/123
f 160/97/124 163/96/124 161/94/124
f 168/92/121 169/93/121 170/94/121
f 171/95/122 172/96/122 169/97/122
f 168/92/3 171/95/3 173/98/3
f 171/95/11 168/92/11 170/94/11
f 170/94/11 172/96/11 171/95/11
f 172/96/2 170/94/2 174/101/2
f 174/101/2 175/100/2 172/96/2
f 168/92/2 176/99/2 173/98/2
f 169/93/123 168/92/123 171/95/123
f 169/97/124 172/96/124 170/94/124
f 177/92/121 178/93/121 179/94/121
f 180/95/122 181/96/122 178/97/122
f 177/92/3 180/95/3 182/98/3
f 180/95/11 177/92/11 179/94/11
f 179/94/11 181/96/11 180/95/11
f 181/96/2 179/94/2 183/101/2
f 183/101/2 184/100/2 181/96/2
f 177/92/2 185/99/2 182/98/2
f 178/93/123 177/92/123 180/95/123
f 178/97/124 181/96/124 179/94/124
f 186/92/121 187/93/121 188/94/121
f 189/95/122 190/96/122 187/97/122
f 189/95/11 186/92/11 188/94/11
f 188/94/11 190/96/11 189/95/11
f 190/96/2 188/94/2 191/101/2
f 191/101/2 192/100/2 190/96/2
f 193/98/2 189/95/2 186/92/2
f 186/92/2 194/99/2 193/98/2
f 187/93/123 186/92/123 189/95/123
f 187/97/124 190/96/124 188/94/124
f 195/92/121 196/93/121 197/94/121
f 198/95/122 199/96/122 196/97/122
f 195/92/3 198/95/3 200/98/3
f 198/95/11 195/92/11 197/94/11
f 197/94/11 199/96/11 198/95/11
f 199/96/2 197/94/2 201/101/2
f 201/101/2 202/100/2 199/96/2
f 195/92/2 203/99/2 200/98/2
f 196/93/123 195/92/123 198/95/123
f 196/97/124 199/96/124 197/94/124
f 204/92/121 205/93/121 206/94/121
f 207/95/122 208/96/122 205/97/122
f 204/92/3 207/95/3 209/98/3
f 207/95/11 204/92/11 206/94/11
f 206/94/11 208/96/11 207/95/11
f 208/96/2 206/94/2 210/101/2
f 204/92/2 211/99/2 209/98/2
f 205/93/123 204/92/123 207/95/123
f 205/97/124 208/96/124 206/94/124
f 208/96/3 212/100/3 210/101/3
f 213/92/121 214/93/121 215/94/121
f 216/95/122 217/96/122 214/97/122
f 218/98/3 219/99/3 213/92/3
f 213/92/3 216/95/3 218/98/3
f 216/95/11 213/92/11 215/94/11
f 215/94/11 217/96/11 216/95/11
f 217/96/2 215/94/2 220/101/2
f 220/101/2 221/100/2 217/96/2
f 214/93/123 213/92/123 216/95/123
f 214/97/124 217/96/124 215/94/124
f 222/92/121 223/93/121 224/94/121
f 225/95/122 226/96/122 223/97/122
f 227/98/3 228/99/3 222/92/3
f 222/92/3 225/95/3 227/98/3
f 225/95/11 222/92/11 224/94/11
f 224/94/11 226/96/11 225/95/11
f 226/96/2 224/94/2 229/101/2
f 229/101/2 230/100/2 226/96/2
f 223/93/123 222/92/123 225/95/123
f 223/97/124 226/96/124 224/94/124
f 231/92/121 232/93/121 233/94/121
f 234/95/122 235/96/122 232/97/122
f 236/98/3 237/99/3 231/92/3
f 231/92/3 234/95/3 236/98/3
f 234/95/11 231/92/11 233/94/11
f 233/94/11 235/96/11 234/95/11
f 235/96/2 233/94/2 238/101/2
f 232/93/123 231/92/123 234/95/123
f 232/97/124 235/96/124 233/94/124
f 235/96/3 239/100/3 238/101/3
f 240/92/121 241/93/121 242/94/121
f 243/95/122 244/96/122 241/97/122
f 240/92/3 243/95/3 245/98/3
f 243/95/11 240/92/11 242/94/11
f 242/94/11 244/96/11 243/95/11
f 244/96/2 242/94/2 246/101/2
f 246/101/2 247/100/2 244/96/2
f 240/92/2 248/99/2 245/98/2
f 241/93/123 240/92/123 243/95/123
f 241/97/124 244/96/124 242/94/124
f 249/128/11 250/129/11 251/130/11
f 249/128/11 252/131/11 250/129/11
f 253/129/11 249/128/11 254/130/11
f 253/129/11 252/131/11 249/128/11
f 253/132/10 255/133/10 250/134/10
f 253/132/10 256/135/10 255/133/10
f 257/135/1 251/134/1 258/133/1
f 257/135/1 254/132/1 251/134/1
f 259/136/136 260/137/136 261/138/136
f 261/138/136 262/139/136 259/136/136
f 260/140/2 263/141/2 264/142/2
f 264/142/2 261/143/2 260/140/2
f 263/144/137 265/145/137 266/139/137
f 266/139/137 264/138/137 263/144/137
f 265/141/3 259/140/3 262/143/3
f 262/143/3 266/142/3 265/141/3
f 267/146/10 268/147/10 269/148/10
f 269/148/10 270/149/10 267/146/10
f 268/147/138 271/150/138 272/151/138
f 272/151/138 269/148/138 268/147/138
f 271/150/1 273/152/1 274/153/1
f 274/153/1 272/151/1 271/150/1
f 273/152/139 267/146/139 270/149/139
f 270/149/139 274/153/139 273/152/139
f 262/139/10 261/138/10 275/154/10
f 275/154/10 276/155/10 262/139/10
f 261/143/2 264/142/2 277/156/2
f 277/156/2 275/157/2 261/143/2
f 264/138/1 266/139/1 278/155/1
f 278/155/1 277/154/1 264/138/1
f 266/142/3 262/143/3 276/157/3
f 276/157/3 278/156/3 266/142/3
f 263/144/11 260/137/11 259/136/11
f 259/136/11 265/145/11 263/144/11
f 253/158/2 254/159/2 257/160/2
f 257/160/2 256/161/2 253/158/2
f 251/158/3 250/159/3 255/160/3
f 255/160/3 258/161/3 251/158/3
f 257/162/13 258/163/13 255/164/13
f 255/164/13 256/165/13 257/162/13
f 279/166/10 280/167/10 281/167/10
f 281/167/10 282/166/10 279/166/10
f 280/167/2 283/168/2 284/168/2
f 284/168/2 281/167/2 280/167/2
f 283/168/1 285/169/1 286/169/1
f 286/169/1 284/168/1 283/168/1
f 285/169/3 279/166/3 282/166/3
f 282/166/3 286/169/3 285/169/3
f 283/168/11 280/167/11 279/166/11
f 279/166/11 285/169/11 283/168/11
f 287/170/10 288/171/10 289/171/10
f 289/171/10 290/170/10 287/170/10
f 288/171/2 291/172/2 292/172/2
f 292/172/2 289/171/2 288/171/2
f 291/172/1 293/173/1 294/173/1
f 294/173/1 292/172/1 291/172/1
f 293/173/3 287/170/3 290/170/3
f 290/170/3 294/173/3 293/173/3
f 291/172/11 288/171/11 287/170/11
f 287/170/11 293/173/11 291/172/11
f 295/174/11 296/175/11 297/176/11
f 295/174/11 298/177/11 296/175/11
f 295/174/11 299/178/11 298/177/11
f 295/174/11 300/179/11 299/178/11
f 295/174/11 301/180/11 300/179/11
f 295/174/11 302/181/11 301/180/11
f 295/174/11 303/182/11 302/181/11
f 295/174/11 297/176/11 303/182/11
f 304/183/140 305/184/140 297/185/140
f 304/183/141 297/185/141 296/186/141
f 306/187/142 304/183/142 296/186/142
f 306/187/143 296/186/143 298/188/143
f 307/183/144 306/187/144 298/188/144
f 307/183/145 298/188/145 299/186/145
f 308/184/146 307/183/146 299/186/146
f 308/184/147 299/186/147 300/185/147
f 309/189/148 308/184/148 300/185/148
f 309/189/148 300/185/148 301/190/148
f 310/191/149 309/189/149 301/190/149
f 310/191/150 301/190/150 302/192/150
f 311/189/151 310/191/151 302/192/151
f 311/189/152 302/192/152 303/190/152
f 305/184/153 311/189/153 303/190/153
f 305/184/153 303/190/153 297/185/153
f 312/193/154 313/194/154 305/195/154
f 312/193/154 305/195/154 304/196/154
f 314/197/155 312/193/155 304/196/155
f 314/197/155 304/196/155 306/198/155
f 315/193/156 314/197/156 306/198/156
f 315/193/156 306/198/156 307/196/156
f 316/194/157 315/193/157 307/196/157
f 316/194/157 307/196/157 308/195/157
f 317/199/158 316/194/158 308/195/158
f 317/199/158 308/195/158 309/200/158
f 318/201/159 317/199/159 309/200/159
f 318/201/159 309/200/159 310/202/159
f 319/199/160 318/201/160 310/202/160
f 319/199/160 310/202/160 311/200/160
f 313/194/161 319/199/161 311/200/161
f 313/194/161 311/200/161 305/195/161
