# generated by tools/objdedupe/dedupe.py -- do not hand-edit.
# Re-run the tool after touching azd_1svet.obj, azd_2svet.obj, azd_3svet.obj, azd_4svet.obj, azd_5svet.obj, azd_6svet.obj.
o zluta_2svet_S_typ3
v 0.073281 3.233500 0.338097
vt 0.012005 0.824246
vn -0.000000 -0.000000 1.000000
v 0.078463 3.249448 0.338097
vt 0.004079 0.848772
v 0.080216 3.266127 0.338097
vt 0.001398 0.874420
v 0.053675 3.206514 0.338097
vt 0.041991 0.782746
v 0.064896 3.218976 0.338097
vt 0.024829 0.801911
v 0.024788 3.189836 0.338097
vt 0.086171 0.757098
v 0.040108 3.196657 0.338097
vt 0.062741 0.767588
v -0.008385 3.186349 0.338097
vt 0.136907 0.751736
v 0.008385 3.186349 0.338097
vt 0.111259 0.751736
v -0.040108 3.196657 0.338097
vt 0.185425 0.767588
v -0.024788 3.189836 0.338097
vt 0.161994 0.757098
v -0.064896 3.218976 0.338097
vt 0.223337 0.801911
v -0.053675 3.206514 0.338097
vt 0.206175 0.782746
v -0.078463 3.249448 0.338097
vt 0.244086 0.848772
v -0.073281 3.233500 0.338097
vt 0.236161 0.824245
v -0.078463 3.282805 0.338097
vt 0.244086 0.900068
v -0.080216 3.266127 0.338097
vt 0.246767 0.874420
v -0.064896 3.313277 0.338097
vt 0.223337 0.946930
v -0.073281 3.298754 0.338097
vt 0.236161 0.924596
v -0.040108 3.335596 0.338097
vt 0.185425 0.981253
v -0.053675 3.325739 0.338097
vt 0.206175 0.966095
v -0.008385 3.345904 0.338097
vt 0.136907 0.997105
v -0.024788 3.342417 0.338097
vt 0.161994 0.991743
v 0.024788 3.342417 0.338097
vt 0.086171 0.991743
v 0.008385 3.345904 0.338097
vt 0.111259 0.997105
v 0.053675 3.325739 0.338097
vt 0.041991 0.966095
v 0.040108 3.335596 0.338097
vt 0.062741 0.981253
v 0.073281 3.298754 0.338097
vt 0.012005 0.924596
v 0.064896 3.313277 0.338097
vt 0.024829 0.946930
v 0.078463 3.282805 0.338097
vt 0.004079 0.900068
f 1/1/1 2/2/1 3/3/1
f 4/4/1 5/5/1 1/1/1
f 6/6/1 7/7/1 4/4/1
f 6/6/1 4/4/1 1/1/1
f 8/8/1 9/9/1 6/6/1
f 10/10/1 11/11/1 8/8/1
f 10/10/1 8/8/1 6/6/1
f 10/10/1 6/6/1 1/1/1
f 12/12/1 13/13/1 10/10/1
f 14/14/1 15/15/1 12/12/1
f 14/14/1 12/12/1 10/10/1
f 16/16/1 17/17/1 14/14/1
f 18/18/1 19/19/1 16/16/1
f 18/18/1 16/16/1 14/14/1
f 18/18/1 14/14/1 10/10/1
f 20/20/1 21/21/1 18/18/1
f 22/22/1 23/23/1 20/20/1
f 22/22/1 20/20/1 18/18/1
f 24/24/1 25/25/1 22/22/1
f 26/26/1 27/27/1 24/24/1
f 26/26/1 24/24/1 22/22/1
f 26/26/1 22/22/1 18/18/1
f 26/26/1 18/18/1 10/10/1
f 26/26/1 10/10/1 1/1/1
f 28/28/1 29/29/1 26/26/1
f 28/28/1 26/26/1 1/1/1
f 28/28/1 1/1/1 3/3/1
f 28/28/1 3/3/1 30/30/1
