# generated by tools/objdedupe/dedupe.py -- do not hand-edit.
# Re-run the tool after touching sssr_2svet_nove.obj, sssr_3svet_nove.obj, sssr_4svet_nove.obj, sssr_5svet_nove.obj, sssr_2se_nove.obj, sssr_3ab_nove.obj, sssr_4ab_nove.obj, sssr_pr_nove.obj, sssr_vl_nove.obj.
o 40_4svet_L_typ2
v -0.292467 3.122990 0.096313
vt 0.012005 0.824246
vn -0.000000 -0.000000 1.000000
v -0.297079 3.108796 0.096313
vt 0.004079 0.848772
v -0.298640 3.093953 0.096313
vt 0.001398 0.874420
v -0.275018 3.147006 0.096313
vt 0.041991 0.782746
v -0.285005 3.135915 0.096313
vt 0.024829 0.801911
v -0.249310 3.161849 0.096313
vt 0.086171 0.757098
v -0.262944 3.155778 0.096313
vt 0.062741 0.767588
v -0.219787 3.164952 0.096313
vt 0.136907 0.751736
v -0.234712 3.164952 0.096313
vt 0.111259 0.751736
v -0.191555 3.155778 0.096313
vt 0.185425 0.767588
v -0.205189 3.161849 0.096313
vt 0.161994 0.757098
v -0.169494 3.135915 0.096313
vt 0.223337 0.801911
v -0.179481 3.147006 0.096313
vt 0.206175 0.782746
v -0.157420 3.108796 0.096313
vt 0.244086 0.848772
v -0.162032 3.122990 0.096313
vt 0.236161 0.824245
v -0.157420 3.079110 0.096313
vt 0.244086 0.900068
v -0.155860 3.093953 0.096313
vt 0.246767 0.874420
v -0.169494 3.051991 0.096313
vt 0.223337 0.946930
v -0.162032 3.064916 0.096313
vt 0.236161 0.924596
v -0.191555 3.032127 0.096313
vt 0.185425 0.981253
v -0.179481 3.040900 0.096313
vt 0.206175 0.966095
v -0.219787 3.022954 0.096313
vt 0.136907 0.997105
v -0.205189 3.026057 0.096313
vt 0.161994 0.991743
v -0.249310 3.026057 0.096313
vt 0.086171 0.991743
v -0.234712 3.022954 0.096313
vt 0.111259 0.997105
v -0.275018 3.040900 0.096313
vt 0.041991 0.966095
v -0.262944 3.032127 0.096313
vt 0.062741 0.981253
v -0.292467 3.064916 0.096313
vt 0.012005 0.924596
v -0.285005 3.051991 0.096313
vt 0.024829 0.946930
v -0.297079 3.079110 0.096313
vt 0.004079 0.900068
f 1/1/1 2/2/1 3/3/1
f 4/4/1 5/5/1 1/1/1
f 6/6/1 7/7/1 4/4/1
f 6/6/1 4/4/1 1/1/1
f 8/8/1 9/9/1 6/6/1
f 10/10/1 11/11/1 8/8/1
f 10/10/1 8/8/1 6/6/1
f 10/10/1 6/6/1 1/1/1
f 12/12/1 13/13/1 10/10/1
f 14/14/1 15/15/1 12/12/1
f 14/14/1 12/12/1 10/10/1
f 16/16/1 17/17/1 14/14/1
f 18/18/1 19/19/1 16/16/1
f 18/18/1 16/16/1 14/14/1
f 18/18/1 14/14/1 10/10/1
f 20/20/1 21/21/1 18/18/1
f 22/22/1 23/23/1 20/20/1
f 22/22/1 20/20/1 18/18/1
f 24/24/1 25/25/1 22/22/1
f 26/26/1 27/27/1 24/24/1
f 26/26/1 24/24/1 22/22/1
f 26/26/1 22/22/1 18/18/1
f 26/26/1 18/18/1 10/10/1
f 26/26/1 10/10/1 1/1/1
f 28/28/1 29/29/1 26/26/1
f 28/28/1 26/26/1 1/1/1
f 28/28/1 1/1/1 3/3/1
f 28/28/1 3/3/1 30/30/1
