# generated by tools/objdedupe/dedupe.py -- do not hand-edit.
# Re-run the tool after touching sssr_2svet_nove.obj, sssr_3svet_nove.obj, sssr_4svet_nove.obj, sssr_5svet_nove.obj, sssr_2se_nove.obj, sssr_3ab_nove.obj, sssr_4ab_nove.obj, sssr_pr_nove.obj, sssr_vl_nove.obj.
o bila_2svet_S_typ2
v -0.065218 2.932737 0.316074
vt 0.761781 0.824246
vn -0.000000 -0.000000 1.000000
v -0.069830 2.918544 0.316074
vt 0.753855 0.848772
v -0.071390 2.903700 0.316074
vt 0.751174 0.874420
v -0.047769 2.956753 0.316074
vt 0.791767 0.782746
v -0.057756 2.945662 0.316074
vt 0.774605 0.801911
v -0.022061 2.971596 0.316074
vt 0.835947 0.757098
v -0.035695 2.965526 0.316074
vt 0.812517 0.767588
v 0.007462 2.974699 0.316074
vt 0.886683 0.751736
v -0.007462 2.974699 0.316074
vt 0.861035 0.751736
v 0.035695 2.965526 0.316074
vt 0.935201 0.767588
v 0.022061 2.971596 0.316074
vt 0.911770 0.757098
v 0.057756 2.945662 0.316074
vt 0.973112 0.801911
v 0.047769 2.956753 0.316074
vt 0.955950 0.782746
v 0.069830 2.918544 0.316074
vt 0.993862 0.848772
v 0.065218 2.932737 0.316074
vt 0.985936 0.824245
v 0.069830 2.888857 0.316074
vt 0.993862 0.900068
v 0.071390 2.903700 0.316074
vt 0.996543 0.874420
v 0.057756 2.861738 0.316074
vt 0.973112 0.946930
v 0.065218 2.874663 0.316074
vt 0.985936 0.924596
v 0.035695 2.841875 0.316074
vt 0.935201 0.981253
v 0.047769 2.850647 0.316074
vt 0.955950 0.966095
v 0.007462 2.832701 0.316074
vt 0.886683 0.997105
v 0.022061 2.835804 0.316074
vt 0.911770 0.991743
v -0.022061 2.835804 0.316074
vt 0.835947 0.991743
v -0.007462 2.832701 0.316074
vt 0.861035 0.997105
v -0.047769 2.850647 0.316074
vt 0.791767 0.966095
v -0.035695 2.841875 0.316074
vt 0.812517 0.981253
v -0.065218 2.874663 0.316074
vt 0.761781 0.924596
v -0.057756 2.861738 0.316074
vt 0.774605 0.946930
v -0.069830 2.888857 0.316074
vt 0.753855 0.900068
f 1/1/1 2/2/1 3/3/1
f 4/4/1 5/5/1 1/1/1
f 6/6/1 7/7/1 4/4/1
f 6/6/1 4/4/1 1/1/1
f 8/8/1 9/9/1 6/6/1
f 10/10/1 11/11/1 8/8/1
f 10/10/1 8/8/1 6/6/1
f 10/10/1 6/6/1 1/1/1
f 12/12/1 13/13/1 10/10/1
f 14/14/1 15/15/1 12/12/1
f 14/14/1 12/12/1 10/10/1
f 16/16/1 17/17/1 14/14/1
f 18/18/1 19/19/1 16/16/1
f 18/18/1 16/16/1 14/14/1
f 18/18/1 14/14/1 10/10/1
f 20/20/1 21/21/1 18/18/1
f 22/22/1 23/23/1 20/20/1
f 22/22/1 20/20/1 18/18/1
f 24/24/1 25/25/1 22/22/1
f 26/26/1 27/27/1 24/24/1
f 26/26/1 24/24/1 22/22/1
f 26/26/1 22/22/1 18/18/1
f 26/26/1 18/18/1 10/10/1
f 26/26/1 10/10/1 1/1/1
f 28/28/1 29/29/1 26/26/1
f 28/28/1 26/26/1 1/1/1
f 28/28/1 1/1/1 3/3/1
f 28/28/1 3/3/1 30/30/1
