# generated by tools/objdedupe/dedupe.py -- do not hand-edit.
# Re-run the tool after touching sssr_2svet_nove.obj, sssr_3svet_nove.obj, sssr_4svet_nove.obj, sssr_5svet_nove.obj, sssr_2se_nove.obj, sssr_3ab_nove.obj, sssr_4ab_nove.obj, sssr_pr_nove.obj, sssr_vl_nove.obj.
o modra_vloz_s
v 0.065218 2.874660 0.316074
vt 0.261343 0.323378
vn -0.000000 -0.000000 1.000000
v 0.069830 2.888854 0.316074
vt 0.253417 0.347905
v 0.071390 2.903697 0.316074
vt 0.250736 0.373553
v 0.047769 2.850645 0.316074
vt 0.291329 0.281879
v 0.057756 2.861736 0.316074
vt 0.274167 0.301044
v 0.022061 2.835801 0.316074
vt 0.335509 0.256231
v 0.035695 2.841872 0.316074
vt 0.312079 0.266720
v -0.007462 2.832698 0.316074
vt 0.386245 0.250869
v 0.007462 2.832698 0.316074
vt 0.360597 0.250869
v -0.035695 2.841872 0.316074
vt 0.434763 0.266720
v -0.022061 2.835801 0.316074
vt 0.411332 0.256231
v -0.057756 2.861736 0.316074
vt 0.472674 0.301044
v -0.047769 2.850645 0.316074
vt 0.455513 0.281879
v -0.069830 2.888854 0.316074
vt 0.493424 0.347905
v -0.065218 2.874660 0.316074
vt 0.485498 0.323378
v -0.069830 2.918541 0.316074
vt 0.493424 0.399201
v -0.071390 2.903697 0.316074
vt 0.496105 0.373553
v -0.057756 2.945660 0.316074
vt 0.472674 0.446062
v -0.065218 2.932735 0.316074
vt 0.485498 0.423728
v -0.035695 2.965523 0.316074
vt 0.434763 0.480386
v -0.047769 2.956751 0.316074
vt 0.455513 0.465227
v -0.007462 2.974697 0.316074
vt 0.386245 0.496237
v -0.022061 2.971594 0.316074
vt 0.411332 0.490875
v 0.022061 2.971594 0.316074
vt 0.335509 0.490875
v 0.007462 2.974697 0.316074
vt 0.360597 0.496237
v 0.047769 2.956751 0.316074
vt 0.291329 0.465227
v 0.035695 2.965523 0.316074
vt 0.312079 0.480386
v 0.065218 2.932735 0.316074
vt 0.261343 0.423728
v 0.057756 2.945660 0.316074
vt 0.274167 0.446062
v 0.069830 2.918541 0.316074
vt 0.253417 0.399201
f 1/1/1 2/2/1 3/3/1
f 4/4/1 5/5/1 1/1/1
f 6/6/1 7/7/1 4/4/1
f 6/6/1 4/4/1 1/1/1
f 8/8/1 9/9/1 6/6/1
f 10/10/1 11/11/1 8/8/1
f 10/10/1 8/8/1 6/6/1
f 10/10/1 6/6/1 1/1/1
f 12/12/1 13/13/1 10/10/1
f 14/14/1 15/15/1 12/12/1
f 14/14/1 12/12/1 10/10/1
f 16/16/1 17/17/1 14/14/1
f 18/18/1 19/19/1 16/16/1
f 18/18/1 16/16/1 14/14/1
f 18/18/1 14/14/1 10/10/1
f 20/20/1 21/21/1 18/18/1
f 22/22/1 23/23/1 20/20/1
f 22/22/1 20/20/1 18/18/1
f 24/24/1 25/25/1 22/22/1
f 26/26/1 27/27/1 24/24/1
f 26/26/1 24/24/1 22/22/1
f 26/26/1 22/22/1 18/18/1
f 26/26/1 18/18/1 10/10/1
f 26/26/1 10/10/1 1/1/1
f 28/28/1 29/29/1 26/26/1
f 28/28/1 26/26/1 1/1/1
f 28/28/1 1/1/1 3/3/1
f 28/28/1 3/3/1 30/30/1
