# generated by tools/objdedupe/dedupe.py -- do not hand-edit.
# Re-run the tool after touching sssr_2svet_nove.obj, sssr_3svet_nove.obj, sssr_4svet_nove.obj, sssr_5svet_nove.obj, sssr_2se_nove.obj, sssr_3ab_nove.obj, sssr_4ab_nove.obj, sssr_pr_nove.obj, sssr_vl_nove.obj.
o pruh_horni_4svet_L_typ2
v -0.379597 2.743131 0.088676
vt 0.260033 0.824246
vn -0.000000 -0.000000 1.000000
v -0.381557 2.737099 0.088676
vt 0.252107 0.848772
v -0.382220 2.730790 0.088676
vt 0.249426 0.874420
v -0.372181 2.753338 0.088676
vt 0.290019 0.782746
v -0.376426 2.748624 0.088676
vt 0.272857 0.801911
v -0.361255 2.759646 0.088676
vt 0.334199 0.757098
v -0.367050 2.757066 0.088676
vt 0.310768 0.767588
v -0.348708 2.760965 0.088676
vt 0.384935 0.751736
v -0.355051 2.760965 0.088676
vt 0.359287 0.751736
v -0.336709 2.757066 0.088676
vt 0.433453 0.767588
v -0.342504 2.759646 0.088676
vt 0.410022 0.757098
v -0.327333 2.748624 0.088676
vt 0.471364 0.801911
v -0.331578 2.753338 0.088676
vt 0.454203 0.782746
v -0.322202 2.737099 0.088676
vt 0.492114 0.848772
v -0.324162 2.743131 0.088676
vt 0.484188 0.824245
v -0.322202 2.724482 0.088676
vt 0.492114 0.900068
v -0.321539 2.730790 0.088676
vt 0.494795 0.874420
v -0.327333 2.712956 0.088676
vt 0.471364 0.946930
v -0.324162 2.718450 0.088676
vt 0.484188 0.924596
v -0.336709 2.704514 0.088676
vt 0.433453 0.981253
v -0.331578 2.708243 0.088676
vt 0.454203 0.966095
v -0.348708 2.700616 0.088676
vt 0.384935 0.997105
v -0.342504 2.701934 0.088676
vt 0.410022 0.991743
v -0.361255 2.701934 0.088676
vt 0.334199 0.991743
v -0.355051 2.700616 0.088676
vt 0.359287 0.997105
v -0.372181 2.708243 0.088676
vt 0.290019 0.966095
v -0.367050 2.704514 0.088676
vt 0.310769 0.981253
v -0.379597 2.718450 0.088676
vt 0.260033 0.924596
v -0.376426 2.712956 0.088676
vt 0.272857 0.946930
v -0.381557 2.724482 0.088676
vt 0.252107 0.900068
v -0.296712 2.743131 0.088676
v -0.298672 2.737099 0.088676
v -0.299335 2.730790 0.088676
v -0.289296 2.753338 0.088676
v -0.293541 2.748624 0.088676
v -0.278370 2.759646 0.088676
v -0.284165 2.757066 0.088676
v -0.265823 2.760965 0.088676
v -0.272166 2.760965 0.088676
v -0.253824 2.757066 0.088676
v -0.259619 2.759646 0.088676
v -0.244448 2.748624 0.088676
v -0.248693 2.753338 0.088676
v -0.239317 2.737099 0.088676
v -0.241277 2.743131 0.088676
v -0.239317 2.724482 0.088676
v -0.238654 2.730790 0.088676
v -0.244448 2.712956 0.088676
v -0.241277 2.718450 0.088676
v -0.253824 2.704514 0.088676
v -0.248693 2.708243 0.088676
v -0.265823 2.700616 0.088676
v -0.259619 2.701934 0.088676
v -0.278370 2.701934 0.088676
v -0.272166 2.700616 0.088676
v -0.289296 2.708243 0.088676
v -0.284165 2.704514 0.088676
v -0.296712 2.718450 0.088676
v -0.293541 2.712956 0.088676
v -0.298672 2.724482 0.088676
v -0.213222 2.743131 0.088676
v -0.215182 2.737099 0.088676
v -0.215845 2.730790 0.088676
v -0.205806 2.753338 0.088676
v -0.210051 2.748624 0.088676
v -0.194880 2.759646 0.088676
v -0.200675 2.757066 0.088676
v -0.182333 2.760965 0.088676
v -0.188676 2.760965 0.088676
v -0.170334 2.757066 0.088676
v -0.176129 2.759646 0.088676
v -0.160958 2.748624 0.088676
v -0.165203 2.753338 0.088676
v -0.155827 2.737099 0.088676
v -0.157787 2.743131 0.088676
v -0.155827 2.724482 0.088676
v -0.155164 2.730790 0.088676
v -0.160958 2.712956 0.088676
v -0.157787 2.718450 0.088676
v -0.170334 2.704514 0.088676
v -0.165203 2.708243 0.088676
v -0.182333 2.700616 0.088676
v -0.176129 2.701934 0.088676
v -0.194880 2.701934 0.088676
v -0.188676 2.700616 0.088676
v -0.205806 2.708243 0.088676
v -0.200675 2.704514 0.088676
v -0.213222 2.718450 0.088676
v -0.210051 2.712956 0.088676
v -0.215182 2.724482 0.088676
v -0.130337 2.743131 0.088676
v -0.132297 2.737099 0.088676
v -0.132960 2.730790 0.088676
v -0.122921 2.753338 0.088676
v -0.127166 2.748624 0.088676
v -0.111995 2.759646 0.088676
v -0.117790 2.757066 0.088676
v -0.099448 2.760965 0.088676
v -0.105791 2.760965 0.088676
v -0.087449 2.757066 0.088676
v -0.093244 2.759646 0.088676
v -0.078073 2.748624 0.088676
v -0.082318 2.753338 0.088676
v -0.072942 2.737099 0.088676
v -0.074902 2.743131 0.088676
v -0.072942 2.724482 0.088676
v -0.072279 2.730790 0.088676
v -0.078073 2.712956 0.088676
v -0.074902 2.718450 0.088676
v -0.087449 2.704514 0.088676
v -0.082318 2.708243 0.088676
v -0.099448 2.700616 0.088676
v -0.093244 2.701934 0.088676
v -0.111995 2.701934 0.088676
v -0.105791 2.700616 0.088676
v -0.122921 2.708243 0.088676
v -0.117790 2.704514 0.088676
v -0.130337 2.718450 0.088676
v -0.127166 2.712956 0.088676
v -0.132297 2.724482 0.088676
f 1/1/1 2/2/1 3/3/1
f 4/4/1 5/5/1 1/1/1
f 6/6/1 7/7/1 4/4/1
f 6/6/1 4/4/1 1/1/1
f 8/8/1 9/9/1 6/6/1
f 10/10/1 11/11/1 8/8/1
f 10/10/1 8/8/1 6/6/1
f 10/10/1 6/6/1 1/1/1
f 12/12/1 13/13/1 10/10/1
f 14/14/1 15/15/1 12/12/1
f 14/14/1 12/12/1 10/10/1
f 16/16/1 17/17/1 14/14/1
f 18/18/1 19/19/1 16/16/1
f 18/18/1 16/16/1 14/14/1
f 18/18/1 14/14/1 10/10/1
f 20/20/1 21/21/1 18/18/1
f 22/22/1 23/23/1 20/20/1
f 22/22/1 20/20/1 18/18/1
f 24/24/1 25/25/1 22/22/1
f 26/26/1 27/27/1 24/24/1
f 26/26/1 24/24/1 22/22/1
f 26/26/1 22/22/1 18/18/1
f 26/26/1 18/18/1 10/10/1
f 26/26/1 10/10/1 1/1/1
f 28/28/1 29/29/1 26/26/1
f 28/28/1 26/26/1 1/1/1
f 28/28/1 1/1/1 3/3/1
f 28/28/1 3/3/1 30/30/1
f 31/1/1 32/2/1 33/3/1
f 34/4/1 35/5/1 31/1/1
f 36/6/1 37/7/1 34/4/1
f 36/6/1 34/4/1 31/1/1
f 38/8/1 39/9/1 36/6/1
f 40/10/1 41/11/1 38/8/1
f 40/10/1 38/8/1 36/6/1
f 40/10/1 36/6/1 31/1/1
f 42/12/1 43/13/1 40/10/1
f 44/14/1 45/15/1 42/12/1
f 44/14/1 42/12/1 40/10/1
f 46/16/1 47/17/1 44/14/1
f 48/18/1 49/19/1 46/16/1
f 48/18/1 46/16/1 44/14/1
f 48/18/1 44/14/1 40/10/1
f 50/20/1 51/21/1 48/18/1
f 52/22/1 53/23/1 50/20/1
f 52/22/1 50/20/1 48/18/1
f 54/24/1 55/25/1 52/22/1
f 56/26/1 57/27/1 54/24/1
f 56/26/1 54/24/1 52/22/1
f 56/26/1 52/22/1 48/18/1
f 56/26/1 48/18/1 40/10/1
f 56/26/1 40/10/1 31/1/1
f 58/28/1 59/29/1 56/26/1
f 58/28/1 56/26/1 31/1/1
f 58/28/1 31/1/1 33/3/1
f 58/28/1 33/3/1 60/30/1
f 61/1/1 62/2/1 63/3/1
f 64/4/1 65/5/1 61/1/1
f 66/6/1 67/7/1 64/4/1
f 66/6/1 64/4/1 61/1/1
f 68/8/1 69/9/1 66/6/1
f 70/10/1 71/11/1 68/8/1
f 70/10/1 68/8/1 66/6/1
f 70/10/1 66/6/1 61/1/1
f 72/12/1 73/13/1 70/10/1
f 74/14/1 75/15/1 72/12/1
f 74/14/1 72/12/1 70/10/1
f 76/16/1 77/17/1 74/14/1
f 78/18/1 79/19/1 76/16/1
f 78/18/1 76/16/1 74/14/1
f 78/18/1 74/14/1 70/10/1
f 80/20/1 81/21/1 78/18/1
f 82/22/1 83/23/1 80/20/1
f 82/22/1 80/20/1 78/18/1
f 84/24/1 85/25/1 82/22/1
f 86/26/1 87/27/1 84/24/1
f 86/26/1 84/24/1 82/22/1
f 86/26/1 82/22/1 78/18/1
f 86/26/1 78/18/1 70/10/1
f 86/26/1 70/10/1 61/1/1
f 88/28/1 89/29/1 86/26/1
f 88/28/1 86/26/1 61/1/1
f 88/28/1 61/1/1 63/3/1
f 88/28/1 63/3/1 90/30/1
f 91/1/1 92/2/1 93/3/1
f 94/4/1 95/5/1 91/1/1
f 96/6/1 97/7/1 94/4/1
f 96/6/1 94/4/1 91/1/1
f 98/8/1 99/9/1 96/6/1
f 100/10/1 101/11/1 98/8/1
f 100/10/1 98/8/1 96/6/1
f 100/10/1 96/6/1 91/1/1
f 102/12/1 103/13/1 100/10/1
f 104/14/1 105/15/1 102/12/1
f 104/14/1 102/12/1 100/10/1
f 106/16/1 107/17/1 104/14/1
f 108/18/1 109/19/1 106/16/1
f 108/18/1 106/16/1 104/14/1
f 108/18/1 104/14/1 100/10/1
f 110/20/1 111/21/1 108/18/1
f 112/22/1 113/23/1 110/20/1
f 112/22/1 110/20/1 108/18/1
f 114/24/1 115/25/1 112/22/1
f 116/26/1 117/27/1 114/24/1
f 116/26/1 114/24/1 112/22/1
f 116/26/1 112/22/1 108/18/1
f 116/26/1 108/18/1 100/10/1
f 116/26/1 100/10/1 91/1/1
f 118/28/1 119/29/1 116/26/1
f 118/28/1 116/26/1 91/1/1
f 118/28/1 91/1/1 93/3/1
f 118/28/1 93/3/1 120/30/1
