# generated by tools/objdedupe/dedupe.py -- do not hand-edit.
# Re-run the tool after touching sssr_2svet_nove.obj, sssr_3svet_nove.obj, sssr_4svet_nove.obj, sssr_5svet_nove.obj, sssr_2se_nove.obj, sssr_3ab_nove.obj, sssr_4ab_nove.obj, sssr_pr_nove.obj, sssr_vl_nove.obj.
o pruh_spodni_4svet_L_typ2
v -0.130337 2.652236 0.088676
vt 0.012005 0.824246
vn -0.000000 -0.000000 1.000000
v -0.132297 2.646204 0.088676
vt 0.004079 0.848772
v -0.132960 2.639895 0.088676
vt 0.001398 0.874420
v -0.122921 2.662443 0.088676
vt 0.041991 0.782746
v -0.127166 2.657729 0.088676
vt 0.024829 0.801911
v -0.111995 2.668751 0.088676
vt 0.086171 0.757098
v -0.117790 2.666171 0.088676
vt 0.062741 0.767588
v -0.099448 2.670070 0.088676
vt 0.136907 0.751736
v -0.105791 2.670070 0.088676
vt 0.111259 0.751736
v -0.087449 2.666171 0.088676
vt 0.185425 0.767588
v -0.093244 2.668751 0.088676
vt 0.161994 0.757098
v -0.078073 2.657729 0.088676
vt 0.223337 0.801911
v -0.082318 2.662443 0.088676
vt 0.206175 0.782746
v -0.072942 2.646204 0.088676
vt 0.244086 0.848772
v -0.074902 2.652236 0.088676
vt 0.236161 0.824245
v -0.072942 2.633587 0.088676
vt 0.244086 0.900068
v -0.072279 2.639895 0.088676
vt 0.246767 0.874420
v -0.078073 2.622061 0.088676
vt 0.223337 0.946930
v -0.074902 2.627555 0.088676
vt 0.236161 0.924596
v -0.087449 2.613619 0.088676
vt 0.185425 0.981253
v -0.082318 2.617348 0.088676
vt 0.206175 0.966095
v -0.099448 2.609720 0.088676
vt 0.136907 0.997105
v -0.093244 2.611040 0.088676
vt 0.161994 0.991743
v -0.111995 2.611040 0.088676
vt 0.086171 0.991743
v -0.105791 2.609720 0.088676
vt 0.111259 0.997105
v -0.122921 2.617348 0.088676
vt 0.041991 0.966095
v -0.117790 2.613619 0.088676
vt 0.062741 0.981253
v -0.130337 2.627555 0.088676
vt 0.012005 0.924596
v -0.127166 2.622061 0.088676
vt 0.024829 0.946930
v -0.132297 2.633587 0.088676
vt 0.004079 0.900068
v -0.379597 2.652236 0.088676
v -0.381557 2.646204 0.088676
v -0.382220 2.639895 0.088676
v -0.372181 2.662443 0.088676
v -0.376426 2.657729 0.088676
v -0.361255 2.668751 0.088676
v -0.367050 2.666171 0.088676
v -0.348708 2.670070 0.088676
v -0.355051 2.670070 0.088676
v -0.336709 2.666171 0.088676
v -0.342504 2.668751 0.088676
v -0.327333 2.657729 0.088676
v -0.331578 2.662443 0.088676
v -0.322202 2.646204 0.088676
v -0.324162 2.652236 0.088676
v -0.322202 2.633587 0.088676
v -0.321539 2.639895 0.088676
v -0.327333 2.622061 0.088676
v -0.324162 2.627555 0.088676
v -0.336709 2.613619 0.088676
v -0.331578 2.617348 0.088676
v -0.348708 2.609720 0.088676
v -0.342504 2.611039 0.088676
v -0.361255 2.611039 0.088676
v -0.355051 2.609720 0.088676
v -0.372181 2.617348 0.088676
v -0.367050 2.613619 0.088676
v -0.379597 2.627555 0.088676
v -0.376426 2.622061 0.088676
v -0.381557 2.633587 0.088676
v -0.296712 2.652236 0.088676
v -0.298672 2.646204 0.088676
v -0.299335 2.639895 0.088676
v -0.289296 2.662443 0.088676
v -0.293541 2.657729 0.088676
v -0.278370 2.668751 0.088676
v -0.284165 2.666171 0.088676
v -0.265823 2.670070 0.088676
v -0.272166 2.670070 0.088676
v -0.253824 2.666171 0.088676
v -0.259619 2.668751 0.088676
v -0.244448 2.657729 0.088676
v -0.248693 2.662443 0.088676
v -0.239317 2.646204 0.088676
v -0.241277 2.652236 0.088676
v -0.239317 2.633587 0.088676
v -0.238654 2.639895 0.088676
v -0.244448 2.622061 0.088676
v -0.241277 2.627555 0.088676
v -0.253824 2.613619 0.088676
v -0.248693 2.617348 0.088676
v -0.265823 2.609720 0.088676
v -0.259619 2.611039 0.088676
v -0.278370 2.611039 0.088676
v -0.272166 2.609720 0.088676
v -0.289296 2.617348 0.088676
v -0.284165 2.613619 0.088676
v -0.296712 2.627555 0.088676
v -0.293541 2.622061 0.088676
v -0.298672 2.633587 0.088676
v -0.213222 2.652236 0.088676
v -0.215182 2.646204 0.088676
v -0.215845 2.639895 0.088676
v -0.205806 2.662443 0.088676
v -0.210051 2.657729 0.088676
v -0.194880 2.668751 0.088676
v -0.200675 2.666171 0.088676
v -0.182333 2.670070 0.088676
v -0.188676 2.670070 0.088676
v -0.170334 2.666171 0.088676
v -0.176129 2.668751 0.088676
v -0.160958 2.657729 0.088676
v -0.165203 2.662443 0.088676
v -0.155827 2.646204 0.088676
v -0.157787 2.652236 0.088676
v -0.155827 2.633587 0.088676
v -0.155164 2.639895 0.088676
v -0.160958 2.622061 0.088676
v -0.157787 2.627555 0.088676
v -0.170334 2.613619 0.088676
v -0.165203 2.617348 0.088676
v -0.182333 2.609720 0.088676
v -0.176129 2.611039 0.088676
v -0.194880 2.611039 0.088676
v -0.188676 2.609720 0.088676
v -0.205806 2.617348 0.088676
v -0.200675 2.613619 0.088676
v -0.213222 2.627555 0.088676
v -0.210051 2.622061 0.088676
v -0.215182 2.633587 0.088676
f 1/1/1 2/2/1 3/3/1
f 4/4/1 5/5/1 1/1/1
f 6/6/1 7/7/1 4/4/1
f 6/6/1 4/4/1 1/1/1
f 8/8/1 9/9/1 6/6/1
f 10/10/1 11/11/1 8/8/1
f 10/10/1 8/8/1 6/6/1
f 10/10/1 6/6/1 1/1/1
f 12/12/1 13/13/1 10/10/1
f 14/14/1 15/15/1 12/12/1
f 14/14/1 12/12/1 10/10/1
f 16/16/1 17/17/1 14/14/1
f 18/18/1 19/19/1 16/16/1
f 18/18/1 16/16/1 14/14/1
f 18/18/1 14/14/1 10/10/1
f 20/20/1 21/21/1 18/18/1
f 22/22/1 23/23/1 20/20/1
f 22/22/1 20/20/1 18/18/1
f 24/24/1 25/25/1 22/22/1
f 26/26/1 27/27/1 24/24/1
f 26/26/1 24/24/1 22/22/1
f 26/26/1 22/22/1 18/18/1
f 26/26/1 18/18/1 10/10/1
f 26/26/1 10/10/1 1/1/1
f 28/28/1 29/29/1 26/26/1
f 28/28/1 26/26/1 1/1/1
f 28/28/1 1/1/1 3/3/1
f 28/28/1 3/3/1 30/30/1
f 31/1/1 32/2/1 33/3/1
f 34/4/1 35/5/1 31/1/1
f 36/6/1 37/7/1 34/4/1
f 36/6/1 34/4/1 31/1/1
f 38/8/1 39/9/1 36/6/1
f 40/10/1 41/11/1 38/8/1
f 40/10/1 38/8/1 36/6/1
f 40/10/1 36/6/1 31/1/1
f 42/12/1 43/13/1 40/10/1
f 44/14/1 45/15/1 42/12/1
f 44/14/1 42/12/1 40/10/1
f 46/16/1 47/17/1 44/14/1
f 48/18/1 49/19/1 46/16/1
f 48/18/1 46/16/1 44/14/1
f 48/18/1 44/14/1 40/10/1
f 50/20/1 51/21/1 48/18/1
f 52/22/1 53/23/1 50/20/1
f 52/22/1 50/20/1 48/18/1
f 54/24/1 55/25/1 52/22/1
f 56/26/1 57/27/1 54/24/1
f 56/26/1 54/24/1 52/22/1
f 56/26/1 52/22/1 48/18/1
f 56/26/1 48/18/1 40/10/1
f 56/26/1 40/10/1 31/1/1
f 58/28/1 59/29/1 56/26/1
f 58/28/1 56/26/1 31/1/1
f 58/28/1 31/1/1 33/3/1
f 58/28/1 33/3/1 60/30/1
f 61/1/1 62/2/1 63/3/1
f 64/4/1 65/5/1 61/1/1
f 66/6/1 67/7/1 64/4/1
f 66/6/1 64/4/1 61/1/1
f 68/8/1 69/9/1 66/6/1
f 70/10/1 71/11/1 68/8/1
f 70/10/1 68/8/1 66/6/1
f 70/10/1 66/6/1 61/1/1
f 72/12/1 73/13/1 70/10/1
f 74/14/1 75/15/1 72/12/1
f 74/14/1 72/12/1 70/10/1
f 76/16/1 77/17/1 74/14/1
f 78/18/1 79/19/1 76/16/1
f 78/18/1 76/16/1 74/14/1
f 78/18/1 74/14/1 70/10/1
f 80/20/1 81/21/1 78/18/1
f 82/22/1 83/23/1 80/20/1
f 82/22/1 80/20/1 78/18/1
f 84/24/1 85/25/1 82/22/1
f 86/26/1 87/27/1 84/24/1
f 86/26/1 84/24/1 82/22/1
f 86/26/1 82/22/1 78/18/1
f 86/26/1 78/18/1 70/10/1
f 86/26/1 70/10/1 61/1/1
f 88/28/1 89/29/1 86/26/1
f 88/28/1 86/26/1 61/1/1
f 88/28/1 61/1/1 63/3/1
f 88/28/1 63/3/1 90/30/1
f 91/1/1 92/2/1 93/3/1
f 94/4/1 95/5/1 91/1/1
f 96/6/1 97/7/1 94/4/1
f 96/6/1 94/4/1 91/1/1
f 98/8/1 99/9/1 96/6/1
f 100/10/1 101/11/1 98/8/1
f 100/10/1 98/8/1 96/6/1
f 100/10/1 96/6/1 91/1/1
f 102/12/1 103/13/1 100/10/1
f 104/14/1 105/15/1 102/12/1
f 104/14/1 102/12/1 100/10/1
f 106/16/1 107/17/1 104/14/1
f 108/18/1 109/19/1 106/16/1
f 108/18/1 106/16/1 104/14/1
f 108/18/1 104/14/1 100/10/1
f 110/20/1 111/21/1 108/18/1
f 112/22/1 113/23/1 110/20/1
f 112/22/1 110/20/1 108/18/1
f 114/24/1 115/25/1 112/22/1
f 116/26/1 117/27/1 114/24/1
f 116/26/1 114/24/1 112/22/1
f 116/26/1 112/22/1 108/18/1
f 116/26/1 108/18/1 100/10/1
f 116/26/1 100/10/1 91/1/1
f 118/28/1 119/29/1 116/26/1
f 118/28/1 116/26/1 91/1/1
f 118/28/1 91/1/1 93/3/1
f 118/28/1 93/3/1 120/30/1
