# generated by tools/objdedupe/dedupe.py -- do not hand-edit.
# Re-run the tool after touching sssr_2svet_nove.obj, sssr_3svet_nove.obj, sssr_4svet_nove.obj, sssr_5svet_nove.obj, sssr_2se_nove.obj, sssr_3ab_nove.obj, sssr_4ab_nove.obj, sssr_pr_nove.obj, sssr_vl_nove.obj.
o stit_5_pruhy_L
v -0.221000 2.714651 0.096800
vt 0.861931 0.296501
vn -0.000000 -0.000000 1.000000
v -0.185493 2.722198 0.096800
vt 0.781315 0.320743
v -0.221793 2.722198 0.096800
vt 0.863579 0.321805
v -0.218655 2.707433 0.096800
vt 0.856759 0.272257
v -0.214860 2.700861 0.096800
vt 0.848290 0.250133
v -0.209783 2.695222 0.096800
vt 0.836894 0.231095
v -0.203643 2.690761 0.096800
vt 0.823069 0.215973
v -0.196710 2.687675 0.096800
vt 0.807419 0.205433
v -0.189288 2.686097 0.096800
vt 0.790627 0.199931
v -0.181698 2.686097 0.096800
vt 0.773429 0.199709
v -0.174276 2.687675 0.096800
vt 0.756576 0.204777
v -0.167343 2.690761 0.096800
vt 0.740803 0.214912
v -0.161203 2.695222 0.096800
vt 0.726803 0.229675
v -0.156126 2.700861 0.096800
vt 0.715182 0.248415
v -0.152331 2.707433 0.096800
vt 0.706453 0.270318
v -0.149986 2.714651 0.096800
vt 0.700996 0.294425
v -0.149193 2.722198 0.096800
vt 0.699049 0.319682
v -0.149986 2.729745 0.096800
vt 0.700697 0.344986
v -0.152331 2.736962 0.096800
vt 0.705870 0.369230
v -0.156126 2.743535 0.096800
vt 0.714338 0.391354
v -0.161203 2.749174 0.096800
vt 0.725735 0.410392
v -0.167343 2.753635 0.096800
vt 0.739561 0.425514
v -0.174276 2.756721 0.096800
vt 0.755211 0.436054
v -0.181698 2.758299 0.096800
vt 0.772002 0.441556
v -0.189288 2.758299 0.096800
vt 0.789199 0.441777
v -0.196710 2.756721 0.096800
vt 0.806052 0.436710
v -0.203643 2.753635 0.096800
vt 0.821825 0.426575
v -0.209783 2.749174 0.096800
vt 0.835827 0.411812
v -0.214860 2.743534 0.096800
vt 0.847446 0.393071
v -0.218655 2.736962 0.096800
vt 0.856175 0.371167
v -0.221000 2.729745 0.096800
vt 0.861632 0.347061
v -0.221000 2.714651 0.090750
vt 0.556898 0.329554
vn -0.994500 -0.104500 -0.000000
vt 0.538804 0.311460
v -0.221793 2.722198 0.090750
vt 0.538804 0.329554
vt 0.556898 0.311460
v -0.218655 2.707433 0.090750
vn -0.951100 -0.309000 -0.000000
v -0.214860 2.700861 0.090750
vn -0.866000 -0.500100 -0.000000
v -0.209783 2.695222 0.090750
vn -0.743200 -0.669100 -0.000000
v -0.203643 2.690761 0.090750
vn -0.587800 -0.809000 -0.000000
v -0.196710 2.687675 0.090750
vn -0.406700 -0.913600 -0.000000
v -0.189288 2.686097 0.090750
vn -0.208000 -0.978100 -0.000000
v -0.181698 2.686097 0.090750
vn -0.000000 -1.000000 -0.000000
v -0.174276 2.687675 0.090750
vn 0.208000 -0.978100 -0.000000
v -0.167343 2.690761 0.090750
vn 0.406700 -0.913600 -0.000000
v -0.161203 2.695222 0.090750
vn 0.587800 -0.809000 -0.000000
v -0.156126 2.700861 0.090750
vn 0.743200 -0.669100 -0.000000
v -0.152331 2.707433 0.090750
vn 0.866000 -0.500100 -0.000000
v -0.149986 2.714651 0.090750
vn 0.951100 -0.309000 -0.000000
v -0.149193 2.722198 0.090750
vn 0.994500 -0.104500 -0.000000
v -0.149986 2.729745 0.090750
vn 0.994500 0.104500 -0.000000
v -0.152331 2.736962 0.090750
vn 0.951100 0.309000 -0.000000
v -0.156126 2.743535 0.090750
vn 0.866000 0.500000 -0.000000
v -0.161203 2.749174 0.090750
vn 0.743200 0.669100 -0.000000
v -0.167343 2.753635 0.090750
vn 0.587800 0.809000 -0.000000
v -0.174276 2.756721 0.090750
vn 0.406700 0.913600 -0.000000
v -0.181698 2.758299 0.090750
vn 0.208000 0.978100 -0.000000
v -0.189288 2.758299 0.090750
vn -0.000000 1.000000 -0.000000
v -0.196710 2.756721 0.090750
vn -0.208000 0.978100 -0.000000
v -0.203643 2.753635 0.090750
vn -0.406700 0.913600 -0.000000
v -0.209783 2.749174 0.090750
vn -0.587800 0.809000 -0.000000
v -0.214860 2.743534 0.090750
vn -0.743200 0.669000 -0.000000
v -0.218655 2.736962 0.090750
vn -0.866000 0.500100 -0.000000
v -0.221000 2.729745 0.090750
vn -0.951100 0.309000 -0.000000
vn -0.994500 0.104500 -0.000000
v -0.221000 2.623901 0.096800
v -0.185493 2.631448 0.096800
v -0.221793 2.631448 0.096800
v -0.218655 2.616683 0.096800
v -0.214860 2.610111 0.096800
v -0.209783 2.604472 0.096800
v -0.203643 2.600011 0.096800
v -0.196710 2.596925 0.096800
v -0.189288 2.595346 0.096800
v -0.181698 2.595346 0.096800
v -0.174276 2.596925 0.096800
v -0.167343 2.600011 0.096800
v -0.161203 2.604472 0.096800
v -0.156126 2.610111 0.096800
v -0.152331 2.616683 0.096800
v -0.149986 2.623901 0.096800
v -0.149193 2.631448 0.096800
v -0.149986 2.638995 0.096800
v -0.152331 2.646212 0.096800
v -0.156126 2.652784 0.096800
v -0.161203 2.658424 0.096800
v -0.167343 2.662885 0.096800
v -0.174276 2.665971 0.096800
v -0.181698 2.667549 0.096800
v -0.189288 2.667549 0.096800
v -0.196710 2.665971 0.096800
v -0.203643 2.662885 0.096800
v -0.209783 2.658424 0.096800
v -0.214860 2.652784 0.096800
v -0.218655 2.646212 0.096800
v -0.221000 2.638995 0.096800
v -0.221000 2.623901 0.090750
v -0.221793 2.631448 0.090750
v -0.218655 2.616683 0.090750
v -0.214860 2.610111 0.090750
v -0.209783 2.604472 0.090750
v -0.203643 2.600011 0.090750
v -0.196710 2.596925 0.090750
v -0.189288 2.595346 0.090750
vn -0.208100 -0.978100 -0.000000
v -0.181698 2.595346 0.090750
v -0.174276 2.596925 0.090750
vn 0.208100 -0.978100 -0.000000
v -0.167343 2.600011 0.090750
v -0.161203 2.604472 0.090750
v -0.156126 2.610111 0.090750
v -0.152331 2.616683 0.090750
v -0.149986 2.623901 0.090750
v -0.149193 2.631448 0.090750
v -0.149986 2.638995 0.090750
v -0.152331 2.646212 0.090750
v -0.156126 2.652784 0.090750
vn 0.866000 0.500100 -0.000000
v -0.161203 2.658424 0.090750
vn 0.743200 0.669000 -0.000000
v -0.167343 2.662885 0.090750
v -0.174276 2.665971 0.090750
v -0.181698 2.667549 0.090750
vn 0.207900 0.978100 -0.000000
v -0.189288 2.667549 0.090750
v -0.196710 2.665971 0.090750
vn -0.207900 0.978100 -0.000000
v -0.203643 2.662885 0.090750
v -0.209783 2.658424 0.090750
v -0.214860 2.652784 0.090750
vn -0.743200 0.669100 -0.000000
v -0.218655 2.646212 0.090750
v -0.221000 2.638995 0.090750
v -0.137510 2.714651 0.096800
v -0.102003 2.722198 0.096800
v -0.138303 2.722198 0.096800
v -0.135165 2.707433 0.096800
v -0.131370 2.700861 0.096800
v -0.126293 2.695222 0.096800
v -0.120153 2.690761 0.096800
v -0.113220 2.687675 0.096800
v -0.105798 2.686097 0.096800
v -0.098208 2.686097 0.096800
v -0.090786 2.687675 0.096800
v -0.083853 2.690761 0.096800
v -0.077713 2.695222 0.096800
v -0.072636 2.700861 0.096800
v -0.068841 2.707433 0.096800
v -0.066496 2.714651 0.096800
v -0.065703 2.722198 0.096800
v -0.066496 2.729745 0.096800
v -0.068841 2.736962 0.096800
v -0.072636 2.743535 0.096800
v -0.077713 2.749174 0.096800
v -0.083853 2.753635 0.096800
v -0.090786 2.756721 0.096800
v -0.098208 2.758299 0.096800
v -0.105798 2.758299 0.096800
v -0.113220 2.756721 0.096800
v -0.120153 2.753635 0.096800
v -0.126293 2.749174 0.096800
v -0.131370 2.743534 0.096800
v -0.135165 2.736962 0.096800
v -0.137510 2.729745 0.096800
v -0.137510 2.714651 0.090750
v -0.138303 2.722198 0.090750
v -0.135165 2.707433 0.090750
v -0.131370 2.700861 0.090750
v -0.126293 2.695222 0.090750
v -0.120153 2.690761 0.090750
v -0.113220 2.687675 0.090750
v -0.105798 2.686097 0.090750
v -0.098208 2.686097 0.090750
v -0.090786 2.687675 0.090750
v -0.083853 2.690761 0.090750
v -0.077713 2.695222 0.090750
v -0.072636 2.700861 0.090750
v -0.068841 2.707433 0.090750
v -0.066496 2.714651 0.090750
v -0.065703 2.722198 0.090750
v -0.066496 2.729745 0.090750
v -0.068841 2.736962 0.090750
v -0.072636 2.743535 0.090750
v -0.077713 2.749174 0.090750
v -0.083853 2.753635 0.090750
v -0.090786 2.756721 0.090750
v -0.098208 2.758299 0.090750
v -0.105798 2.758299 0.090750
v -0.113220 2.756721 0.090750
v -0.120153 2.753635 0.090750
v -0.126293 2.749174 0.090750
v -0.131370 2.743534 0.090750
v -0.135165 2.736962 0.090750
v -0.137510 2.729745 0.090750
v -0.137510 2.623901 0.096800
v -0.102003 2.631448 0.096800
v -0.138303 2.631448 0.096800
v -0.135165 2.616683 0.096800
v -0.131370 2.610111 0.096800
v -0.126293 2.604472 0.096800
v -0.120153 2.600011 0.096800
v -0.113220 2.596925 0.096800
v -0.105798 2.595346 0.096800
v -0.098208 2.595346 0.096800
v -0.090786 2.596925 0.096800
v -0.083853 2.600011 0.096800
v -0.077713 2.604472 0.096800
v -0.072636 2.610111 0.096800
v -0.068841 2.616683 0.096800
v -0.066496 2.623901 0.096800
v -0.065703 2.631448 0.096800
v -0.066496 2.638995 0.096800
v -0.068841 2.646212 0.096800
v -0.072636 2.652784 0.096800
v -0.077713 2.658424 0.096800
v -0.083853 2.662885 0.096800
v -0.090786 2.665971 0.096800
v -0.098208 2.667549 0.096800
v -0.105798 2.667549 0.096800
v -0.113220 2.665971 0.096800
v -0.120153 2.662885 0.096800
v -0.126293 2.658424 0.096800
v -0.131370 2.652784 0.096800
v -0.135165 2.646212 0.096800
v -0.137510 2.638995 0.096800
v -0.137510 2.623901 0.090750
v -0.138303 2.631448 0.090750
v -0.135165 2.616683 0.090750
v -0.131370 2.610111 0.090750
v -0.126293 2.604472 0.090750
v -0.120153 2.600011 0.090750
v -0.113220 2.596925 0.090750
v -0.105798 2.595346 0.090750
v -0.098208 2.595346 0.090750
v -0.090786 2.596925 0.090750
v -0.083853 2.600011 0.090750
v -0.077713 2.604472 0.090750
v -0.072636 2.610111 0.090750
v -0.068841 2.616683 0.090750
v -0.066496 2.623901 0.090750
v -0.065703 2.631448 0.090750
v -0.066496 2.638995 0.090750
v -0.068841 2.646212 0.090750
v -0.072636 2.652784 0.090750
v -0.077713 2.658424 0.090750
v -0.083853 2.662885 0.090750
v -0.090786 2.665971 0.090750
v -0.098208 2.667549 0.090750
v -0.105798 2.667549 0.090750
v -0.113220 2.665971 0.090750
v -0.120153 2.662885 0.090750
v -0.126293 2.658424 0.090750
v -0.131370 2.652784 0.090750
v -0.135165 2.646212 0.090750
v -0.137510 2.638995 0.090750
v -0.304490 2.714651 0.096800
v -0.268983 2.722198 0.096800
v -0.305283 2.722198 0.096800
v -0.302145 2.707433 0.096800
v -0.298350 2.700861 0.096800
v -0.293273 2.695222 0.096800
v -0.287133 2.690761 0.096800
v -0.280200 2.687675 0.096800
v -0.272778 2.686097 0.096800
v -0.265188 2.686097 0.096800
v -0.257766 2.687675 0.096800
v -0.250833 2.690761 0.096800
v -0.244693 2.695222 0.096800
v -0.239616 2.700861 0.096800
v -0.235821 2.707433 0.096800
v -0.233476 2.714651 0.096800
v -0.232683 2.722198 0.096800
v -0.233476 2.729745 0.096800
v -0.235821 2.736962 0.096800
v -0.239616 2.743535 0.096800
v -0.244693 2.749174 0.096800
v -0.250833 2.753635 0.096800
v -0.257766 2.756721 0.096800
v -0.265188 2.758299 0.096800
v -0.272778 2.758299 0.096800
v -0.280200 2.756721 0.096800
v -0.287133 2.753635 0.096800
v -0.293273 2.749174 0.096800
v -0.298350 2.743534 0.096800
v -0.302145 2.736962 0.096800
v -0.304490 2.729745 0.096800
v -0.304490 2.714651 0.090750
v -0.305283 2.722198 0.090750
v -0.302145 2.707433 0.090750
v -0.298350 2.700861 0.090750
v -0.293273 2.695222 0.090750
v -0.287133 2.690761 0.090750
v -0.280200 2.687675 0.090750
v -0.272778 2.686097 0.090750
v -0.265188 2.686097 0.090750
v -0.257766 2.687675 0.090750
v -0.250833 2.690761 0.090750
v -0.244693 2.695222 0.090750
v -0.239616 2.700861 0.090750
v -0.235821 2.707433 0.090750
v -0.233476 2.714651 0.090750
v -0.232683 2.722198 0.090750
v -0.233476 2.729745 0.090750
v -0.235821 2.736962 0.090750
v -0.239616 2.743535 0.090750
v -0.244693 2.749174 0.090750
v -0.250833 2.753635 0.090750
v -0.257766 2.756721 0.090750
v -0.265188 2.758299 0.090750
v -0.272778 2.758299 0.090750
v -0.280200 2.756721 0.090750
v -0.287133 2.753635 0.090750
v -0.293273 2.749174 0.090750
v -0.298350 2.743534 0.090750
v -0.302145 2.736962 0.090750
v -0.304490 2.729745 0.090750
v -0.304490 2.623901 0.096800
v -0.268983 2.631448 0.096800
v -0.305283 2.631448 0.096800
v -0.302145 2.616683 0.096800
v -0.298350 2.610111 0.096800
v -0.293273 2.604472 0.096800
v -0.287133 2.600011 0.096800
v -0.280200 2.596925 0.096800
v -0.272778 2.595346 0.096800
v -0.265188 2.595346 0.096800
v -0.257766 2.596925 0.096800
v -0.250833 2.600011 0.096800
v -0.244693 2.604472 0.096800
v -0.239616 2.610111 0.096800
v -0.235821 2.616683 0.096800
v -0.233476 2.623901 0.096800
v -0.232683 2.631448 0.096800
v -0.233476 2.638995 0.096800
v -0.235821 2.646212 0.096800
v -0.239616 2.652784 0.096800
v -0.244693 2.658424 0.096800
v -0.250833 2.662885 0.096800
v -0.257766 2.665971 0.096800
v -0.265188 2.667549 0.096800
v -0.272778 2.667549 0.096800
v -0.280200 2.665971 0.096800
v -0.287133 2.662885 0.096800
v -0.293273 2.658424 0.096800
v -0.298350 2.652784 0.096800
v -0.302145 2.646212 0.096800
v -0.304490 2.638995 0.096800
v -0.304490 2.623901 0.090750
v -0.305283 2.631448 0.090750
v -0.302145 2.616683 0.090750
v -0.298350 2.610111 0.090750
v -0.293273 2.604472 0.090750
v -0.287133 2.600011 0.090750
v -0.280200 2.596925 0.090750
v -0.272778 2.595346 0.090750
v -0.265188 2.595346 0.090750
v -0.257766 2.596925 0.090750
v -0.250833 2.600011 0.090750
v -0.244693 2.604472 0.090750
v -0.239616 2.610111 0.090750
v -0.235821 2.616683 0.090750
v -0.233476 2.623901 0.090750
v -0.232683 2.631448 0.090750
v -0.233476 2.638995 0.090750
v -0.235821 2.646212 0.090750
v -0.239616 2.652784 0.090750
v -0.244693 2.658424 0.090750
v -0.250833 2.662885 0.090750
v -0.257766 2.665971 0.090750
v -0.265188 2.667549 0.090750
v -0.272778 2.667549 0.090750
v -0.280200 2.665971 0.090750
v -0.287133 2.662885 0.090750
v -0.293273 2.658424 0.090750
v -0.298350 2.652784 0.090750
v -0.302145 2.646212 0.090750
v -0.304490 2.638995 0.090750
v -0.387980 2.714651 0.096800
v -0.352473 2.722198 0.096800
v -0.388773 2.722198 0.096800
v -0.385635 2.707433 0.096800
v -0.381840 2.700861 0.096800
v -0.376763 2.695222 0.096800
v -0.370623 2.690761 0.096800
v -0.363690 2.687675 0.096800
v -0.356268 2.686097 0.096800
v -0.348678 2.686097 0.096800
v -0.341256 2.687675 0.096800
v -0.334323 2.690761 0.096800
v -0.328183 2.695222 0.096800
v -0.323106 2.700861 0.096800
v -0.319311 2.707433 0.096800
v -0.316966 2.714651 0.096800
v -0.316173 2.722198 0.096800
v -0.316966 2.729745 0.096800
v -0.319311 2.736962 0.096800
v -0.323106 2.743535 0.096800
v -0.328183 2.749174 0.096800
v -0.334323 2.753635 0.096800
v -0.341256 2.756721 0.096800
v -0.348678 2.758299 0.096800
v -0.356268 2.758299 0.096800
v -0.363690 2.756721 0.096800
v -0.370623 2.753635 0.096800
v -0.376763 2.749174 0.096800
v -0.381840 2.743534 0.096800
v -0.385635 2.736962 0.096800
v -0.387980 2.729745 0.096800
v -0.387980 2.714651 0.090750
v -0.388773 2.722198 0.090750
v -0.385635 2.707433 0.090750
v -0.381840 2.700861 0.090750
v -0.376763 2.695222 0.090750
v -0.370623 2.690761 0.090750
v -0.363690 2.687675 0.090750
v -0.356268 2.686097 0.090750
v -0.348678 2.686097 0.090750
v -0.341256 2.687675 0.090750
v -0.334323 2.690761 0.090750
v -0.328183 2.695222 0.090750
v -0.323106 2.700861 0.090750
v -0.319311 2.707433 0.090750
v -0.316966 2.714651 0.090750
v -0.316173 2.722198 0.090750
v -0.316966 2.729745 0.090750
v -0.319311 2.736962 0.090750
v -0.323106 2.743535 0.090750
v -0.328183 2.749174 0.090750
v -0.334323 2.753635 0.090750
v -0.341256 2.756721 0.090750
v -0.348678 2.758299 0.090750
v -0.356268 2.758299 0.090750
v -0.363690 2.756721 0.090750
v -0.370623 2.753635 0.090750
v -0.376763 2.749174 0.090750
v -0.381840 2.743534 0.090750
v -0.385635 2.736962 0.090750
v -0.387980 2.729745 0.090750
v -0.387980 2.623901 0.096800
v -0.352473 2.631448 0.096800
v -0.388773 2.631448 0.096800
v -0.385635 2.616683 0.096800
v -0.381840 2.610111 0.096800
v -0.376763 2.604472 0.096800
v -0.370623 2.600011 0.096800
v -0.363690 2.596925 0.096800
v -0.356268 2.595346 0.096800
v -0.348678 2.595346 0.096800
v -0.341256 2.596925 0.096800
v -0.334323 2.600011 0.096800
v -0.328183 2.604472 0.096800
v -0.323106 2.610111 0.096800
v -0.319311 2.616683 0.096800
v -0.316966 2.623901 0.096800
v -0.316173 2.631448 0.096800
v -0.316966 2.638995 0.096800
v -0.319311 2.646212 0.096800
v -0.323106 2.652784 0.096800
v -0.328183 2.658424 0.096800
v -0.334323 2.662885 0.096800
v -0.341256 2.665971 0.096800
v -0.348678 2.667549 0.096800
v -0.356268 2.667549 0.096800
v -0.363690 2.665971 0.096800
v -0.370623 2.662885 0.096800
v -0.376763 2.658424 0.096800
v -0.381840 2.652784 0.096800
v -0.385635 2.646212 0.096800
v -0.387980 2.638995 0.096800
v -0.387980 2.623901 0.090750
v -0.388773 2.631448 0.090750
v -0.385635 2.616683 0.090750
v -0.381840 2.610111 0.090750
v -0.376763 2.604472 0.090750
v -0.370623 2.600011 0.090750
v -0.363690 2.596925 0.090750
v -0.356268 2.595346 0.090750
v -0.348678 2.595346 0.090750
v -0.341256 2.596925 0.090750
v -0.334323 2.600011 0.090750
v -0.328183 2.604472 0.090750
v -0.323106 2.610111 0.090750
v -0.319311 2.616683 0.090750
v -0.316966 2.623901 0.090750
v -0.316173 2.631448 0.090750
v -0.316966 2.638995 0.090750
v -0.319311 2.646212 0.090750
v -0.323106 2.652784 0.090750
v -0.328183 2.658424 0.090750
v -0.334323 2.662885 0.090750
v -0.341256 2.665971 0.090750
v -0.348678 2.667549 0.090750
v -0.356268 2.667549 0.090750
v -0.363690 2.665971 0.090750
v -0.370623 2.662885 0.090750
v -0.376763 2.658424 0.090750
v -0.381840 2.652784 0.090750
v -0.385635 2.646212 0.090750
v -0.387980 2.638995 0.090750
v -0.393613 2.767573 -0.055619
vt 0.293389 0.643990
vn -1.000000 -0.000000 -0.000000
v -0.393613 2.586072 -0.055619
vt 0.294192 0.712001
v -0.393613 2.767573 0.089581
vt 0.325947 0.643187
v -0.393613 2.586072 0.089581
vt 0.326750 0.711198
v -0.060863 2.586072 0.089581
vn 1.000000 -0.000000 -0.000000
v -0.060863 2.586072 -0.055619
v -0.060863 2.767573 0.089581
v -0.060863 2.767573 -0.055619
vt 0.093154 0.837362
vt 0.091634 0.861743
vt 0.098279 0.837018
vt 0.096181 0.861897
vn -0.000000 -0.000000 -1.000000
v -0.423863 2.797822 0.088325
vt 0.557218 0.309044
v -0.423863 2.555823 0.088325
vt 0.533954 0.309044
v -0.423863 2.797822 0.091350
vt 0.557218 0.332309
v -0.423863 2.555823 0.091350
vt 0.533954 0.332309
v -0.030613 2.555823 0.091350
v -0.030613 2.555823 0.088325
v -0.030613 2.797822 0.091350
v -0.030613 2.797822 0.088325
v -0.393613 2.767875 0.091355
v -0.393613 2.764850 0.091355
v -0.393613 2.767875 0.242605
v -0.393613 2.764850 0.242605
v -0.060863 2.764850 0.242605
v -0.060863 2.764850 0.091355
v -0.060863 2.767875 0.242605
v -0.060863 2.767875 0.091355
vt 0.499212 0.224981
vt 0.499212 0.255576
vt 0.564140 0.224981
vt 0.564140 0.255576
v -0.393613 2.767416 0.091355
vt 0.558448 0.230714
v -0.393613 2.676811 0.091355
vt 0.496319 0.250378
v -0.393613 2.767416 0.242605
vt 0.558448 0.216252
v -0.393613 2.721740 0.242605
vt 0.496319 0.216252
v -0.390588 2.721740 0.242605
v -0.390588 2.676811 0.091355
v -0.390588 2.767416 0.242605
v -0.390588 2.767416 0.091355
vn -0.000000 -0.958600 0.284800
v -0.063875 2.767439 0.091355
v -0.063875 2.676834 0.091355
v -0.063875 2.767439 0.242605
v -0.063875 2.721763 0.242605
v -0.060850 2.721763 0.242605
vt 0.564392 0.237157
v -0.060850 2.676834 0.091355
vt 0.502263 0.256821
v -0.060850 2.767439 0.242605
vt 0.564392 0.222695
v -0.060850 2.767439 0.091355
vt 0.502263 0.222695
v -0.393613 2.676980 0.091355
v -0.393613 2.673955 0.091355
v -0.393613 2.676980 0.242605
v -0.393613 2.673955 0.242605
v -0.060863 2.673955 0.242605
v -0.060863 2.673955 0.091355
v -0.060863 2.676980 0.242605
v -0.060863 2.676980 0.091355
v -0.393613 2.676521 0.091355
v -0.393613 2.585916 0.091355
v -0.393613 2.676521 0.242605
v -0.393613 2.630844 0.242605
v -0.390588 2.630844 0.242605
v -0.390588 2.585916 0.091355
v -0.390588 2.676521 0.242605
v -0.390588 2.676521 0.091355
vn -0.000000 -0.958600 0.284700
v -0.063875 2.676544 0.091355
v -0.063875 2.585939 0.091355
v -0.063875 2.676544 0.242605
v -0.063875 2.630867 0.242605
v -0.060850 2.630867 0.242605
v -0.060850 2.585939 0.091355
v -0.060850 2.676544 0.242605
v -0.060850 2.676544 0.091355
v -0.209088 2.620986 0.003674
vt 0.135093 0.345490
v -0.209088 2.620986 0.033924
vt 0.142641 0.345490
v -0.196988 2.620986 0.003674
vt 0.134273 0.324729
v -0.196988 2.620986 0.033924
vt 0.141821 0.324729
v -0.196988 2.559879 0.003674
vt 0.339034 0.797729
v -0.209088 2.559879 0.003674
vt 0.339132 0.790605
vt 0.329643 0.798234
vt 0.329740 0.791109
vt 0.182523 0.270881
v -0.209088 2.559879 0.033924
vt 0.190071 0.270881
vt 0.181703 0.250121
vt 0.189251 0.250121
vt 0.177033 0.330985
v -0.196988 2.559879 0.033924
vt 0.184581 0.330985
vt 0.176213 0.310224
vt 0.183761 0.310224
v -0.257488 2.620986 0.003674
vt 0.137143 0.333684
v -0.257488 2.620986 0.033924
vt 0.144691 0.333684
v -0.245388 2.620986 0.003674
vt 0.136323 0.312923
v -0.245388 2.620986 0.033924
vt 0.143871 0.312923
v -0.245388 2.559879 0.003674
vt 0.324033 0.801940
v -0.257488 2.559879 0.003674
vt 0.324131 0.794815
vt 0.314642 0.802444
vt 0.314740 0.795320
v -0.257488 2.559879 0.033924
vt 0.179083 0.319178
v -0.245388 2.559879 0.033924
vt 0.186631 0.319178
vt 0.178263 0.298418
vt 0.185811 0.298418
vt 0.184573 0.259075
vt 0.192121 0.259075
vt 0.183753 0.238315
vt 0.191301 0.238315
v -0.209995 2.543308 -0.017501
vt 0.245211 0.306670
v -0.195476 2.543308 0.003674
vt 0.223327 0.306670
v -0.244481 2.543308 -0.017501
vt 0.245211 0.328554
v -0.259001 2.543308 0.003674
vt 0.223327 0.328554
v -0.259001 2.552382 0.003674
vt 0.310848 0.789199
v -0.195476 2.552382 0.003674
vt 0.310564 0.809855
v -0.244481 2.552382 -0.017501
vt 0.320736 0.789483
v -0.209995 2.552382 -0.017501
vt 0.320453 0.810139
vn -0.824700 -0.000000 -0.565500
vn 0.824800 -0.000000 -0.565500
vn 0.824700 -0.000000 -0.565500
v -0.268076 2.585658 0.003674
v -0.268076 2.585658 0.033924
v -0.259001 2.585658 0.003674
v -0.259001 2.585658 0.033924
v -0.259001 2.543308 0.033924
v -0.268076 2.543308 0.033924
v -0.268076 2.543308 0.003674
vt 0.272239 0.794279
vt 0.272108 0.810251
vt 0.279370 0.795347
vt 0.279076 0.808169
v -0.195476 2.585658 0.003674
v -0.195476 2.585658 0.033924
v -0.186401 2.585658 0.003674
v -0.186401 2.585658 0.033924
v -0.186401 2.543308 0.033924
v -0.195476 2.543308 0.033924
v -0.186401 2.543308 0.003674
vt 0.272016 0.793764
vt 0.272010 0.810899
vt 0.279831 0.796876
vt 0.279444 0.808226
v -0.259001 2.552382 0.033924
v -0.195476 2.552382 0.033924
v -0.272613 2.576582 0.015774
vt 0.097113 0.809924
v -0.272613 2.576582 0.021824
vt 0.089570 0.810073
v -0.181863 2.576582 0.015774
vt 0.097657 0.867699
v -0.181863 2.576582 0.021824
vt 0.090114 0.867847
v -0.181863 2.567508 0.021824
v -0.272613 2.567508 0.021824
v -0.181863 2.567508 0.015774
v -0.272613 2.567508 0.015774
v -0.240866 2.513061 0.007105
vt 0.096543 0.844608
v -0.226691 2.513061 -0.006281
vt 0.093056 0.837134
v -0.238441 2.513061 0.034829
vt 0.095634 0.854724
v -0.222157 2.513061 0.045550
vt 0.091384 0.863454
v -0.050548 2.513061 -0.035052
vt 0.098881 0.836661
v -0.043693 2.513061 0.043298
vt 0.096527 0.863459
v -0.222157 2.543311 0.045550
vt 0.255035 0.679051
v -0.226691 2.543311 -0.006281
vt 0.263636 0.679051
v -0.238441 2.543311 0.034829
vt 0.257035 0.681578
v -0.240866 2.543311 0.007105
vt 0.261636 0.681578
v -0.043693 2.543311 0.043298
vt 0.252835 0.647811
v -0.050548 2.543311 -0.035052
vt 0.265836 0.647811
vt 0.204763 0.505452
vn -0.996200 -0.000000 0.087100
vt 0.236661 0.497558
vt 0.204906 0.483888
vt 0.236087 0.477572
vt 0.238042 0.488980
vn -0.686600 -0.000000 -0.727100
vt 0.216851 0.496500
vn -0.443400 -0.000000 -0.896300
vt 0.237799 0.475809
vt 0.217579 0.480660
vt 0.107935 0.497614
vn -0.161200 -0.000000 -0.986900
vt 0.108772 0.476438
vn 0.012600 -0.000000 0.999900
vn -0.281000 -0.000000 0.959700
vn -0.549900 -0.000000 0.835200
v -0.068743 2.546336 0.048526
vt 0.172570 0.330358
v 0.003581 2.546336 0.042199
vt 0.200662 0.327158
v -0.067688 2.546336 0.060580
vt 0.169370 0.302266
v 0.004636 2.546336 0.054253
vt 0.197461 0.299066
v 0.004636 2.558436 0.054253
vt 0.318779 0.703748
v 0.003581 2.558436 0.042199
vt 0.318346 0.667104
v -0.067688 2.558436 0.060580
vt 0.301237 0.704181
v -0.068743 2.558436 0.048526
vt 0.300805 0.667537
vn -0.996200 -0.000000 0.087200
vn -0.087100 -0.000000 -0.996200
vn 0.996200 -0.000000 -0.087200
vt 0.119661 0.496928
vn 0.087100 -0.000000 0.996200
vt 0.168371 0.491252
vt 0.119605 0.476599
vt 0.168114 0.476886
v -0.077179 2.546336 -0.047906
v -0.004856 2.546336 -0.054233
v -0.076125 2.546336 -0.035852
v -0.003801 2.546336 -0.042179
v -0.003801 2.558436 -0.042179
v -0.004856 2.558436 -0.054233
v -0.076125 2.558436 -0.035852
v -0.077179 2.558436 -0.047906
v -0.068743 2.497978 0.048526
v 0.003581 2.497978 0.042199
v -0.067688 2.497978 0.060580
v 0.004636 2.497978 0.054253
v 0.004636 2.510078 0.054253
v 0.003581 2.510078 0.042199
v -0.067688 2.510078 0.060580
v -0.068743 2.510078 0.048526
vn -0.087200 -0.000000 -0.996200
vn 0.087200 -0.000000 0.996200
v -0.077179 2.497978 -0.047906
v -0.004856 2.497978 -0.054233
v -0.076125 2.497978 -0.035852
v -0.003801 2.497978 -0.042179
v -0.003801 2.510078 -0.042179
v -0.004856 2.510078 -0.054233
v -0.076125 2.510078 -0.035852
v -0.077179 2.510078 -0.047906
v 0.004636 2.497768 0.054253
vt 0.192642 0.299615
v -0.000110 2.497768 0.000010
vt 0.182331 0.312577
v 0.018513 2.497768 0.051176
vt 0.195645 0.302725
v 0.031121 2.497768 0.044613
vt 0.197741 0.306507
v 0.041601 2.497768 0.035010
vt 0.198787 0.310702
v 0.049239 2.497768 0.023021
vt 0.198712 0.315025
v 0.053513 2.497768 0.009465
vt 0.197520 0.319181
v 0.054132 2.497768 -0.004736
vt 0.195293 0.322887
v 0.051056 2.497768 -0.018613
vt 0.192183 0.325890
v 0.044493 2.497768 -0.031222
vt 0.188401 0.327986
v 0.034890 2.497768 -0.041701
vt 0.184206 0.329033
v 0.022902 2.497768 -0.049339
vt 0.179883 0.328957
v 0.009345 2.497768 -0.053613
vt 0.175727 0.327765
v -0.004856 2.497768 -0.054233
vt 0.172021 0.325538
vn 0.043600 -0.000000 -0.999000
v 0.009345 2.509868 -0.053613
v -0.004856 2.509868 -0.054233
vn 0.300700 -0.000000 -0.953700
v 0.022902 2.509868 -0.049339
vn 0.537300 -0.000000 -0.843400
v 0.034890 2.509868 -0.041701
vn 0.737200 -0.000000 -0.675600
v 0.044493 2.509868 -0.031222
vn 0.737300 -0.000000 -0.675600
vn 0.887000 -0.000000 -0.461700
v 0.051056 2.509868 -0.018613
vn 0.976300 -0.000000 -0.216400
v 0.054132 2.509868 -0.004736
vn 0.999100 -0.000000 0.043500
v 0.053513 2.509868 0.009465
vn 0.953700 -0.000000 0.300700
v 0.049239 2.509868 0.023021
vn 0.843400 -0.000000 0.537300
v 0.041601 2.509868 0.035010
vn 0.675600 -0.000000 0.737300
v 0.031121 2.509868 0.044613
vn 0.461700 -0.000000 0.887000
v 0.018513 2.509868 0.051176
vn 0.216500 -0.000000 0.976300
v 0.004636 2.509868 0.054253
vt 0.300879 0.673823
v -0.000110 2.509868 0.000010
vt 0.308324 0.688823
vt 0.302966 0.670360
vt 0.305420 0.668154
vt 0.308070 0.667357
vt 0.310739 0.668023
vt 0.313243 0.670106
vt 0.315411 0.673465
vt 0.317096 0.677870
vt 0.318184 0.683022
vt 0.318600 0.688569
vt 0.318316 0.694133
vt 0.317350 0.699336
vt 0.315770 0.703822
vt 0.303271 0.601381
v -0.000110 2.546336 0.000010
vt 0.287326 0.617326
v 0.018513 2.546336 0.051176
vt 0.306855 0.606051
v 0.031121 2.546336 0.044613
vt 0.309107 0.611490
v 0.041601 2.546336 0.035010
vt 0.309876 0.617326
v 0.049239 2.546336 0.023021
vt 0.309107 0.623162
v 0.053513 2.546336 0.009465
vt 0.306855 0.628601
v 0.054132 2.546336 -0.004736
vt 0.303271 0.633271
v 0.051056 2.546336 -0.018613
vt 0.298601 0.636854
v 0.044493 2.546336 -0.031222
vt 0.293162 0.639107
v 0.034890 2.546336 -0.041701
vt 0.287326 0.639875
v 0.022902 2.546336 -0.049339
vt 0.281490 0.639107
v 0.009345 2.546336 -0.053613
vt 0.276051 0.636854
vt 0.271381 0.633271
v 0.009345 2.558436 -0.053613
v 0.022902 2.558436 -0.049339
v 0.034890 2.558436 -0.041701
v 0.044493 2.558436 -0.031222
v 0.051056 2.558436 -0.018613
v 0.054132 2.558436 -0.004736
v 0.053513 2.558436 0.009465
v 0.049239 2.558436 0.023021
v 0.041601 2.558436 0.035010
v 0.031121 2.558436 0.044613
v 0.018513 2.558436 0.051176
v -0.000110 2.558436 0.000010
v -0.059023 2.491281 -0.055567
vt 0.271381 0.639875
v -0.040942 2.491281 -0.057149
vt 0.309876 0.639875
v -0.048477 2.491281 0.064972
vt 0.271381 0.601381
v -0.030396 2.491281 0.063391
vt 0.309876 0.601381
v -0.030396 2.563881 0.063391
v -0.040942 2.563881 -0.057149
v -0.048477 2.563881 0.064972
v -0.059023 2.563881 -0.055567
vt 0.249876 0.633044
vt 0.288616 0.633044
vt 0.249876 0.671785
vt 0.288616 0.671785
v -0.204088 2.570987 0.057653
vt 0.539697 0.328873
vn 0.008800 -0.000000 1.000000
v -0.216188 2.570987 0.057759
vt 0.554116 0.328873
v -0.204088 2.556221 0.057653
vt 0.539697 0.314455
v -0.216188 2.556221 0.057759
vt 0.554116 0.314455
vn -1.000000 -0.000000 0.008800
v -0.216294 2.570987 0.045659
v -0.216294 2.556221 0.045659
vn -0.008800 -0.000000 -1.000000
v -0.204194 2.570987 0.045553
v -0.204194 2.556221 0.045553
vn 1.000000 -0.000000 -0.008800
v -0.226056 2.568294 0.045246
vt 0.472929 0.643430
v -0.203780 2.568294 0.035790
vt 0.493645 0.646573
v -0.216601 2.568294 0.067522
vt 0.472929 0.624413
v -0.194325 2.568294 0.058066
vt 0.493645 0.627555
v -0.226056 2.598545 0.045246
vn -0.390700 -0.000000 -0.920500
v -0.203780 2.598545 0.035790
vn 0.920500 -0.000000 -0.390700
v -0.194325 2.598545 0.058066
vn 0.390700 -0.000000 0.920500
v -0.216601 2.598545 0.067522
v -0.210162 2.516541 0.057706
v -0.198570 2.520011 0.057706
v -0.216241 2.558042 0.057706
v -0.204141 2.558042 0.057706
v -0.192435 2.478525 0.057706
v -0.182326 2.485175 0.057706
v -0.164550 2.447192 0.057706
v -0.156772 2.456461 0.057706
v -0.128850 2.425171 0.057706
v -0.124058 2.436282 0.057706
v -0.088334 2.414315 0.057706
v -0.086929 2.426333 0.057706
v -0.046407 2.415535 0.057706
v -0.048508 2.427451 0.057706
vn 0.989400 0.144900 -0.000000
v -0.198570 2.520011 0.045606
v -0.204141 2.558042 0.045606
vn 0.906300 0.422600 -0.000000
v -0.182326 2.485175 0.045606
vn 0.747000 0.664800 -0.000000
v -0.156772 2.456461 0.045606
vn 0.525000 0.851100 -0.000000
v -0.124058 2.436282 0.045606
vn 0.258800 0.965900 -0.000000
v -0.086929 2.426333 0.045606
vn -0.029100 0.999600 -0.000000
v -0.048508 2.427451 0.045606
v -0.210162 2.516541 0.045606
v -0.216241 2.558042 0.045606
v -0.192435 2.478525 0.045606
v -0.164550 2.447192 0.045606
v -0.128850 2.425171 0.045606
v -0.088334 2.414315 0.045606
v -0.046407 2.415535 0.045606
vn -0.989400 -0.144900 -0.000000
vn -0.906300 -0.422600 -0.000000
vn -0.747000 -0.664800 -0.000000
vn -0.525000 -0.851100 -0.000000
vn -0.258800 -0.965900 -0.000000
vn 0.029100 -0.999600 -0.000000
v 0.015296 2.437524 0.057731
vn -0.159800 0.984800 0.067800
v 0.015126 2.438327 0.045659
v -0.056363 2.425877 0.057966
v -0.056534 2.426681 0.045894
vn -0.159800 0.984800 0.067900
vn -0.014100 0.066500 -0.997700
v 0.017060 2.426411 0.044838
vn -0.014100 0.066400 -0.997700
v -0.054599 2.414764 0.045073
vn 0.159800 -0.984800 -0.067800
v 0.017230 2.425607 0.056910
v -0.054429 2.413960 0.057145
vn 0.159800 -0.984800 -0.067900
vn 0.014100 -0.066500 0.997700
v -0.012100 2.411893 0.067130
v 0.012100 2.411893 0.030830
v 0.012100 2.411893 0.067130
v -0.012100 2.411893 0.030830
v -0.012100 2.448193 0.067130
v 0.012100 2.448193 0.030830
v -0.012100 2.448193 0.030830
v 0.012100 2.448193 0.067130
f 1/1/1 2/2/1 3/3/1
f 4/4/1 2/2/1 1/1/1
f 5/5/1 2/2/1 4/4/1
f 6/6/1 2/2/1 5/5/1
f 7/7/1 2/2/1 6/6/1
f 8/8/1 2/2/1 7/7/1
f 9/9/1 2/2/1 8/8/1
f 10/10/1 2/2/1 9/9/1
f 11/11/1 2/2/1 10/10/1
f 12/12/1 2/2/1 11/11/1
f 13/13/1 2/2/1 12/12/1
f 14/14/1 2/2/1 13/13/1
f 15/15/1 2/2/1 14/14/1
f 16/16/1 2/2/1 15/15/1
f 17/17/1 2/2/1 16/16/1
f 18/18/1 2/2/1 17/17/1
f 19/19/1 2/2/1 18/18/1
f 20/20/1 2/2/1 19/19/1
f 21/21/1 2/2/1 20/20/1
f 22/22/1 2/2/1 21/21/1
f 23/23/1 2/2/1 22/22/1
f 24/24/1 2/2/1 23/23/1
f 25/25/1 2/2/1 24/24/1
f 26/26/1 2/2/1 25/25/1
f 27/27/1 2/2/1 26/26/1
f 28/28/1 2/2/1 27/27/1
f 29/29/1 2/2/1 28/28/1
f 30/30/1 2/2/1 29/29/1
f 31/31/1 2/2/1 30/30/1
f 3/3/1 2/2/1 31/31/1
f 32/32/2 3/33/2 33/34/2
f 1/35/2 3/33/2 32/32/2
f 34/32/3 1/33/3 32/34/3
f 4/35/3 1/33/3 34/32/3
f 35/32/4 4/33/4 34/34/4
f 5/35/4 4/33/4 35/32/4
f 36/32/5 5/33/5 35/34/5
f 6/35/5 5/33/5 36/32/5
f 37/32/6 6/33/6 36/34/6
f 7/35/6 6/33/6 37/32/6
f 38/32/7 7/33/7 37/34/7
f 8/35/7 7/33/7 38/32/7
f 39/32/8 8/33/8 38/34/8
f 9/35/8 8/33/8 39/32/8
f 40/32/9 9/33/9 39/34/9
f 10/35/9 9/33/9 40/32/9
f 41/32/10 10/33/10 40/34/10
f 11/35/10 10/33/10 41/32/10
f 42/32/11 11/33/11 41/34/11
f 12/35/11 11/33/11 42/32/11
f 43/32/12 12/33/12 42/34/12
f 13/35/12 12/33/12 43/32/12
f 44/32/13 13/33/13 43/34/13
f 14/35/13 13/33/13 44/32/13
f 45/32/14 14/33/14 44/34/14
f 15/35/14 14/33/14 45/32/14
f 46/32/15 15/33/15 45/34/15
f 16/35/15 15/33/15 46/32/15
f 47/32/16 16/33/16 46/34/16
f 17/35/16 16/33/16 47/32/16
f 48/32/17 17/33/17 47/34/17
f 18/35/17 17/33/17 48/32/17
f 49/32/18 18/33/18 48/34/18
f 19/35/18 18/33/18 49/32/18
f 50/32/19 19/33/19 49/34/19
f 20/35/19 19/33/19 50/32/19
f 51/32/20 20/33/20 50/34/20
f 21/35/20 20/33/20 51/32/20
f 52/32/21 21/33/21 51/34/21
f 22/35/21 21/33/21 52/32/21
f 53/32/22 22/33/22 52/34/22
f 23/35/22 22/33/22 53/32/22
f 54/32/23 23/33/23 53/34/23
f 24/35/23 23/33/23 54/32/23
f 55/32/24 24/33/24 54/34/24
f 25/35/24 24/33/24 55/32/24
f 56/32/25 25/33/25 55/34/25
f 26/35/25 25/33/25 56/32/25
f 57/32/26 26/33/26 56/34/26
f 27/35/26 26/33/26 57/32/26
f 58/32/27 27/33/27 57/34/27
f 28/35/27 27/33/27 58/32/27
f 59/32/28 28/33/28 58/34/28
f 29/35/28 28/33/28 59/32/28
f 60/32/29 29/33/29 59/34/29
f 30/35/29 29/33/29 60/32/29
f 61/32/30 30/33/30 60/34/30
f 31/35/30 30/33/30 61/32/30
f 33/32/31 31/33/31 61/34/31
f 3/35/31 31/33/31 33/32/31
f 62/1/1 63/2/1 64/3/1
f 65/4/1 63/2/1 62/1/1
f 66/5/1 63/2/1 65/4/1
f 67/6/1 63/2/1 66/5/1
f 68/7/1 63/2/1 67/6/1
f 69/8/1 63/2/1 68/7/1
f 70/9/1 63/2/1 69/8/1
f 71/10/1 63/2/1 70/9/1
f 72/11/1 63/2/1 71/10/1
f 73/12/1 63/2/1 72/11/1
f 74/13/1 63/2/1 73/12/1
f 75/14/1 63/2/1 74/13/1
f 76/15/1 63/2/1 75/14/1
f 77/16/1 63/2/1 76/15/1
f 78/17/1 63/2/1 77/16/1
f 79/18/1 63/2/1 78/17/1
f 80/19/1 63/2/1 79/18/1
f 81/20/1 63/2/1 80/19/1
f 82/21/1 63/2/1 81/20/1
f 83/22/1 63/2/1 82/21/1
f 84/23/1 63/2/1 83/22/1
f 85/24/1 63/2/1 84/23/1
f 86/25/1 63/2/1 85/24/1
f 87/26/1 63/2/1 86/25/1
f 88/27/1 63/2/1 87/26/1
f 89/28/1 63/2/1 88/27/1
f 90/29/1 63/2/1 89/28/1
f 91/30/1 63/2/1 90/29/1
f 92/31/1 63/2/1 91/30/1
f 64/3/1 63/2/1 92/31/1
f 93/32/2 64/33/2 94/34/2
f 62/35/2 64/33/2 93/32/2
f 95/32/3 62/33/3 93/34/3
f 65/35/3 62/33/3 95/32/3
f 96/32/4 65/33/4 95/34/4
f 66/35/4 65/33/4 96/32/4
f 97/32/5 66/33/5 96/34/5
f 67/35/5 66/33/5 97/32/5
f 98/32/6 67/33/6 97/34/6
f 68/35/6 67/33/6 98/32/6
f 99/32/7 68/33/7 98/34/7
f 69/35/7 68/33/7 99/32/7
f 100/32/32 69/33/32 99/34/32
f 70/35/32 69/33/32 100/32/32
f 101/32/9 70/33/9 100/34/9
f 71/35/9 70/33/9 101/32/9
f 102/32/33 71/33/33 101/34/33
f 72/35/33 71/33/33 102/32/33
f 103/32/11 72/33/11 102/34/11
f 73/35/11 72/33/11 103/32/11
f 104/32/12 73/33/12 103/34/12
f 74/35/12 73/33/12 104/32/12
f 105/32/13 74/33/13 104/34/13
f 75/35/13 74/33/13 105/32/13
f 106/32/14 75/33/14 105/34/14
f 76/35/14 75/33/14 106/32/14
f 107/32/15 76/33/15 106/34/15
f 77/35/15 76/33/15 107/32/15
f 108/32/16 77/33/16 107/34/16
f 78/35/16 77/33/16 108/32/16
f 109/32/17 78/33/17 108/34/17
f 79/35/17 78/33/17 109/32/17
f 110/32/18 79/33/18 109/34/18
f 80/35/18 79/33/18 110/32/18
f 111/32/34 80/33/34 110/34/34
f 81/35/34 80/33/34 111/32/34
f 112/32/20 81/33/35 111/34/35
f 82/35/20 81/33/35 112/32/20
f 113/32/21 82/33/21 112/34/21
f 83/35/21 82/33/21 113/32/21
f 114/32/22 83/33/22 113/34/22
f 84/35/22 83/33/22 114/32/22
f 115/32/36 84/33/36 114/34/36
f 85/35/36 84/33/36 115/32/36
f 116/32/24 85/33/24 115/34/24
f 86/35/24 85/33/24 116/32/24
f 117/32/37 86/33/37 116/34/37
f 87/35/37 86/33/37 117/32/37
f 118/32/26 87/33/26 117/34/26
f 88/35/26 87/33/26 118/32/26
f 119/32/27 88/33/27 118/34/27
f 89/35/27 88/33/27 119/32/27
f 120/32/38 89/33/38 119/34/38
f 90/35/38 89/33/38 120/32/38
f 121/32/29 90/33/29 120/34/29
f 91/35/29 90/33/29 121/32/29
f 122/32/30 91/33/30 121/34/30
f 92/35/30 91/33/30 122/32/30
f 94/32/31 92/33/31 122/34/31
f 64/35/31 92/33/31 94/32/31
f 123/1/1 124/2/1 125/3/1
f 126/4/1 124/2/1 123/1/1
f 127/5/1 124/2/1 126/4/1
f 128/6/1 124/2/1 127/5/1
f 129/7/1 124/2/1 128/6/1
f 130/8/1 124/2/1 129/7/1
f 131/9/1 124/2/1 130/8/1
f 132/10/1 124/2/1 131/9/1
f 133/11/1 124/2/1 132/10/1
f 134/12/1 124/2/1 133/11/1
f 135/13/1 124/2/1 134/12/1
f 136/14/1 124/2/1 135/13/1
f 137/15/1 124/2/1 136/14/1
f 138/16/1 124/2/1 137/15/1
f 139/17/1 124/2/1 138/16/1
f 140/18/1 124/2/1 139/17/1
f 141/19/1 124/2/1 140/18/1
f 142/20/1 124/2/1 141/19/1
f 143/21/1 124/2/1 142/20/1
f 144/22/1 124/2/1 143/21/1
f 145/23/1 124/2/1 144/22/1
f 146/24/1 124/2/1 145/23/1
f 147/25/1 124/2/1 146/24/1
f 148/26/1 124/2/1 147/25/1
f 149/27/1 124/2/1 148/26/1
f 150/28/1 124/2/1 149/27/1
f 151/29/1 124/2/1 150/28/1
f 152/30/1 124/2/1 151/29/1
f 153/31/1 124/2/1 152/30/1
f 125/3/1 124/2/1 153/31/1
f 154/32/2 125/33/2 155/34/2
f 123/35/2 125/33/2 154/32/2
f 156/32/3 123/33/3 154/34/3
f 126/35/3 123/33/3 156/32/3
f 157/32/4 126/33/4 156/34/4
f 127/35/4 126/33/4 157/32/4
f 158/32/5 127/33/5 157/34/5
f 128/35/5 127/33/5 158/32/5
f 159/32/6 128/33/6 158/34/6
f 129/35/6 128/33/6 159/32/6
f 160/32/7 129/33/7 159/34/7
f 130/35/7 129/33/7 160/32/7
f 161/32/8 130/33/8 160/34/8
f 131/35/8 130/33/8 161/32/8
f 162/32/9 131/33/9 161/34/9
f 132/35/9 131/33/9 162/32/9
f 163/32/10 132/33/10 162/34/10
f 133/35/10 132/33/10 163/32/10
f 164/32/11 133/33/11 163/34/11
f 134/35/11 133/33/11 164/32/11
f 165/32/12 134/33/12 164/34/12
f 135/35/12 134/33/12 165/32/12
f 166/32/13 135/33/13 165/34/13
f 136/35/13 135/33/13 166/32/13
f 167/32/14 136/33/14 166/34/14
f 137/35/14 136/33/14 167/32/14
f 168/32/15 137/33/15 167/34/15
f 138/35/15 137/33/15 168/32/15
f 169/32/16 138/33/16 168/34/16
f 139/35/16 138/33/16 169/32/16
f 170/32/17 139/33/17 169/34/17
f 140/35/17 139/33/17 170/32/17
f 171/32/18 140/33/18 170/34/18
f 141/35/18 140/33/18 171/32/18
f 172/32/19 141/33/19 171/34/19
f 142/35/19 141/33/19 172/32/19
f 173/32/20 142/33/20 172/34/20
f 143/35/20 142/33/20 173/32/20
f 174/32/21 143/33/21 173/34/21
f 144/35/21 143/33/21 174/32/21
f 175/32/22 144/33/22 174/34/22
f 145/35/22 144/33/22 175/32/22
f 176/32/23 145/33/23 175/34/23
f 146/35/23 145/33/23 176/32/23
f 177/32/24 146/33/24 176/34/24
f 147/35/24 146/33/24 177/32/24
f 178/32/25 147/33/25 177/34/25
f 148/35/25 147/33/25 178/32/25
f 179/32/26 148/33/26 178/34/26
f 149/35/26 148/33/26 179/32/26
f 180/32/27 149/33/27 179/34/27
f 150/35/27 149/33/27 180/32/27
f 181/32/28 150/33/28 180/34/28
f 151/35/28 150/33/28 181/32/28
f 182/32/29 151/33/29 181/34/29
f 152/35/29 151/33/29 182/32/29
f 183/32/30 152/33/30 182/34/30
f 153/35/30 152/33/30 183/32/30
f 155/32/31 153/33/31 183/34/31
f 125/35/31 153/33/31 155/32/31
f 184/1/1 185/2/1 186/3/1
f 187/4/1 185/2/1 184/1/1
f 188/5/1 185/2/1 187/4/1
f 189/6/1 185/2/1 188/5/1
f 190/7/1 185/2/1 189/6/1
f 191/8/1 185/2/1 190/7/1
f 192/9/1 185/2/1 191/8/1
f 193/10/1 185/2/1 192/9/1
f 194/11/1 185/2/1 193/10/1
f 195/12/1 185/2/1 194/11/1
f 196/13/1 185/2/1 195/12/1
f 197/14/1 185/2/1 196/13/1
f 198/15/1 185/2/1 197/14/1
f 199/16/1 185/2/1 198/15/1
f 200/17/1 185/2/1 199/16/1
f 201/18/1 185/2/1 200/17/1
f 202/19/1 185/2/1 201/18/1
f 203/20/1 185/2/1 202/19/1
f 204/21/1 185/2/1 203/20/1
f 205/22/1 185/2/1 204/21/1
f 206/23/1 185/2/1 205/22/1
f 207/24/1 185/2/1 206/23/1
f 208/25/1 185/2/1 207/24/1
f 209/26/1 185/2/1 208/25/1
f 210/27/1 185/2/1 209/26/1
f 211/28/1 185/2/1 210/27/1
f 212/29/1 185/2/1 211/28/1
f 213/30/1 185/2/1 212/29/1
f 214/31/1 185/2/1 213/30/1
f 186/3/1 185/2/1 214/31/1
f 215/32/2 186/33/2 216/34/2
f 184/35/2 186/33/2 215/32/2
f 217/32/3 184/33/3 215/34/3
f 187/35/3 184/33/3 217/32/3
f 218/32/4 187/33/4 217/34/4
f 188/35/4 187/33/4 218/32/4
f 219/32/5 188/33/5 218/34/5
f 189/35/5 188/33/5 219/32/5
f 220/32/6 189/33/6 219/34/6
f 190/35/6 189/33/6 220/32/6
f 221/32/7 190/33/7 220/34/7
f 191/35/7 190/33/7 221/32/7
f 222/32/32 191/33/32 221/34/32
f 192/35/32 191/33/32 222/32/32
f 223/32/9 192/33/9 222/34/9
f 193/35/9 192/33/9 223/32/9
f 224/32/33 193/33/33 223/34/33
f 194/35/33 193/33/33 224/32/33
f 225/32/11 194/33/11 224/34/11
f 195/35/11 194/33/11 225/32/11
f 226/32/12 195/33/12 225/34/12
f 196/35/12 195/33/12 226/32/12
f 227/32/13 196/33/13 226/34/13
f 197/35/13 196/33/13 227/32/13
f 228/32/14 197/33/14 227/34/14
f 198/35/14 197/33/14 228/32/14
f 229/32/15 198/33/15 228/34/15
f 199/35/15 198/33/15 229/32/15
f 230/32/16 199/33/16 229/34/16
f 200/35/16 199/33/16 230/32/16
f 231/32/17 200/33/17 230/34/17
f 201/35/17 200/33/17 231/32/17
f 232/32/18 201/33/18 231/34/18
f 202/35/18 201/33/18 232/32/18
f 233/32/34 202/33/34 232/34/34
f 203/35/34 202/33/34 233/32/34
f 234/32/20 203/33/20 233/34/35
f 204/35/20 203/33/20 234/32/20
f 235/32/21 204/33/21 234/34/21
f 205/35/21 204/33/21 235/32/21
f 236/32/22 205/33/22 235/34/22
f 206/35/22 205/33/22 236/32/22
f 237/32/36 206/33/36 236/34/36
f 207/35/36 206/33/36 237/32/36
f 238/32/24 207/33/24 237/34/24
f 208/35/24 207/33/24 238/32/24
f 239/32/37 208/33/37 238/34/37
f 209/35/37 208/33/37 239/32/37
f 240/32/26 209/33/26 239/34/26
f 210/35/26 209/33/26 240/32/26
f 241/32/27 210/33/27 240/34/27
f 211/35/27 210/33/27 241/32/27
f 242/32/38 211/33/38 241/34/38
f 212/35/28 211/33/38 242/32/38
f 243/32/29 212/33/29 242/34/29
f 213/35/29 212/33/29 243/32/29
f 244/32/30 213/33/30 243/34/30
f 214/35/30 213/33/30 244/32/30
f 216/32/31 214/33/31 244/34/31
f 186/35/31 214/33/31 216/32/31
f 245/1/1 246/2/1 247/3/1
f 248/4/1 246/2/1 245/1/1
f 249/5/1 246/2/1 248/4/1
f 250/6/1 246/2/1 249/5/1
f 251/7/1 246/2/1 250/6/1
f 252/8/1 246/2/1 251/7/1
f 253/9/1 246/2/1 252/8/1
f 254/10/1 246/2/1 253/9/1
f 255/11/1 246/2/1 254/10/1
f 256/12/1 246/2/1 255/11/1
f 257/13/1 246/2/1 256/12/1
f 258/14/1 246/2/1 257/13/1
f 259/15/1 246/2/1 258/14/1
f 260/16/1 246/2/1 259/15/1
f 261/17/1 246/2/1 260/16/1
f 262/18/1 246/2/1 261/17/1
f 263/19/1 246/2/1 262/18/1
f 264/20/1 246/2/1 263/19/1
f 265/21/1 246/2/1 264/20/1
f 266/22/1 246/2/1 265/21/1
f 267/23/1 246/2/1 266/22/1
f 268/24/1 246/2/1 267/23/1
f 269/25/1 246/2/1 268/24/1
f 270/26/1 246/2/1 269/25/1
f 271/27/1 246/2/1 270/26/1
f 272/28/1 246/2/1 271/27/1
f 273/29/1 246/2/1 272/28/1
f 274/30/1 246/2/1 273/29/1
f 275/31/1 246/2/1 274/30/1
f 247/3/1 246/2/1 275/31/1
f 276/32/2 247/33/2 277/34/2
f 245/35/2 247/33/2 276/32/2
f 278/32/3 245/33/3 276/34/3
f 248/35/3 245/33/3 278/32/3
f 279/32/4 248/33/4 278/34/4
f 249/35/4 248/33/4 279/32/4
f 280/32/5 249/33/5 279/34/5
f 250/35/5 249/33/5 280/32/5
f 281/32/6 250/33/6 280/34/6
f 251/35/6 250/33/6 281/32/6
f 282/32/7 251/33/7 281/34/7
f 252/35/7 251/33/7 282/32/7
f 283/32/8 252/33/8 282/34/8
f 253/35/8 252/33/8 283/32/8
f 284/32/9 253/33/9 283/34/9
f 254/35/9 253/33/9 284/32/9
f 285/32/10 254/33/10 284/34/10
f 255/35/10 254/33/10 285/32/10
f 286/32/11 255/33/11 285/34/11
f 256/35/11 255/33/11 286/32/11
f 287/32/12 256/33/12 286/34/12
f 257/35/12 256/33/12 287/32/12
f 288/32/13 257/33/13 287/34/13
f 258/35/13 257/33/13 288/32/13
f 289/32/14 258/33/14 288/34/14
f 259/35/14 258/33/14 289/32/14
f 290/32/15 259/33/15 289/34/15
f 260/35/15 259/33/15 290/32/15
f 291/32/16 260/33/16 290/34/16
f 261/35/16 260/33/16 291/32/16
f 292/32/17 261/33/17 291/34/17
f 262/35/17 261/33/17 292/32/17
f 293/32/18 262/33/18 292/34/18
f 263/35/18 262/33/18 293/32/18
f 294/32/19 263/33/19 293/34/19
f 264/35/19 263/33/19 294/32/19
f 295/32/20 264/33/20 294/34/20
f 265/35/20 264/33/20 295/32/20
f 296/32/21 265/33/21 295/34/21
f 266/35/21 265/33/21 296/32/21
f 297/32/22 266/33/22 296/34/22
f 267/35/22 266/33/22 297/32/22
f 298/32/23 267/33/23 297/34/23
f 268/35/23 267/33/23 298/32/23
f 299/32/24 268/33/24 298/34/24
f 269/35/24 268/33/24 299/32/24
f 300/32/25 269/33/25 299/34/25
f 270/35/25 269/33/25 300/32/25
f 301/32/26 270/33/26 300/34/26
f 271/35/26 270/33/26 301/32/26
f 302/32/27 271/33/27 301/34/27
f 272/35/27 271/33/27 302/32/27
f 303/32/28 272/33/28 302/34/28
f 273/35/28 272/33/28 303/32/28
f 304/32/29 273/33/29 303/34/29
f 274/35/29 273/33/29 304/32/29
f 305/32/30 274/33/30 304/34/30
f 275/35/30 274/33/30 305/32/30
f 277/32/31 275/33/31 305/34/31
f 247/35/31 275/33/31 277/32/31
f 306/1/1 307/2/1 308/3/1
f 309/4/1 307/2/1 306/1/1
f 310/5/1 307/2/1 309/4/1
f 311/6/1 307/2/1 310/5/1
f 312/7/1 307/2/1 311/6/1
f 313/8/1 307/2/1 312/7/1
f 314/9/1 307/2/1 313/8/1
f 315/10/1 307/2/1 314/9/1
f 316/11/1 307/2/1 315/10/1
f 317/12/1 307/2/1 316/11/1
f 318/13/1 307/2/1 317/12/1
f 319/14/1 307/2/1 318/13/1
f 320/15/1 307/2/1 319/14/1
f 321/16/1 307/2/1 320/15/1
f 322/17/1 307/2/1 321/16/1
f 323/18/1 307/2/1 322/17/1
f 324/19/1 307/2/1 323/18/1
f 325/20/1 307/2/1 324/19/1
f 326/21/1 307/2/1 325/20/1
f 327/22/1 307/2/1 326/21/1
f 328/23/1 307/2/1 327/22/1
f 329/24/1 307/2/1 328/23/1
f 330/25/1 307/2/1 329/24/1
f 331/26/1 307/2/1 330/25/1
f 332/27/1 307/2/1 331/26/1
f 333/28/1 307/2/1 332/27/1
f 334/29/1 307/2/1 333/28/1
f 335/30/1 307/2/1 334/29/1
f 336/31/1 307/2/1 335/30/1
f 308/3/1 307/2/1 336/31/1
f 337/32/2 308/33/2 338/34/2
f 306/35/2 308/33/2 337/32/2
f 339/32/3 306/33/3 337/34/3
f 309/35/3 306/33/3 339/32/3
f 340/32/4 309/33/4 339/34/4
f 310/35/4 309/33/4 340/32/4
f 341/32/5 310/33/5 340/34/5
f 311/35/5 310/33/5 341/32/5
f 342/32/6 311/33/6 341/34/6
f 312/35/6 311/33/6 342/32/6
f 343/32/7 312/33/7 342/34/7
f 313/35/7 312/33/7 343/32/7
f 344/32/32 313/33/32 343/34/32
f 314/35/32 313/33/32 344/32/32
f 345/32/9 314/33/9 344/34/9
f 315/35/9 314/33/9 345/32/9
f 346/32/33 315/33/33 345/34/33
f 316/35/33 315/33/33 346/32/33
f 347/32/11 316/33/11 346/34/11
f 317/35/11 316/33/11 347/32/11
f 348/32/12 317/33/12 347/34/12
f 318/35/12 317/33/12 348/32/12
f 349/32/13 318/33/13 348/34/13
f 319/35/13 318/33/13 349/32/13
f 350/32/14 319/33/14 349/34/14
f 320/35/14 319/33/14 350/32/14
f 351/32/15 320/33/15 350/34/15
f 321/35/15 320/33/15 351/32/15
f 352/32/16 321/33/16 351/34/16
f 322/35/16 321/33/16 352/32/16
f 353/32/17 322/33/17 352/34/17
f 323/35/17 322/33/17 353/32/17
f 354/32/18 323/33/18 353/34/18
f 324/35/18 323/33/18 354/32/18
f 355/32/34 324/33/34 354/34/34
f 325/35/34 324/33/34 355/32/34
f 356/32/20 325/33/20 355/34/20
f 326/35/20 325/33/20 356/32/20
f 357/32/21 326/33/21 356/34/21
f 327/35/21 326/33/21 357/32/21
f 358/32/22 327/33/22 357/34/22
f 328/35/22 327/33/22 358/32/22
f 359/32/36 328/33/36 358/34/36
f 329/35/36 328/33/36 359/32/36
f 360/32/24 329/33/24 359/34/24
f 330/35/24 329/33/24 360/32/24
f 361/32/37 330/33/37 360/34/37
f 331/35/37 330/33/37 361/32/37
f 362/32/26 331/33/26 361/34/26
f 332/35/26 331/33/26 362/32/26
f 363/32/27 332/33/27 362/34/27
f 333/35/27 332/33/27 363/32/27
f 364/32/38 333/33/38 363/34/38
f 334/35/38 333/33/38 364/32/38
f 365/32/29 334/33/29 364/34/29
f 335/35/29 334/33/29 365/32/29
f 366/32/30 335/33/30 365/34/30
f 336/35/30 335/33/30 366/32/30
f 338/32/31 336/33/31 366/34/31
f 308/35/31 336/33/31 338/32/31
f 367/1/1 368/2/1 369/3/1
f 370/4/1 368/2/1 367/1/1
f 371/5/1 368/2/1 370/4/1
f 372/6/1 368/2/1 371/5/1
f 373/7/1 368/2/1 372/6/1
f 374/8/1 368/2/1 373/7/1
f 375/9/1 368/2/1 374/8/1
f 376/10/1 368/2/1 375/9/1
f 377/11/1 368/2/1 376/10/1
f 378/12/1 368/2/1 377/11/1
f 379/13/1 368/2/1 378/12/1
f 380/14/1 368/2/1 379/13/1
f 381/15/1 368/2/1 380/14/1
f 382/16/1 368/2/1 381/15/1
f 383/17/1 368/2/1 382/16/1
f 384/18/1 368/2/1 383/17/1
f 385/19/1 368/2/1 384/18/1
f 386/20/1 368/2/1 385/19/1
f 387/21/1 368/2/1 386/20/1
f 388/22/1 368/2/1 387/21/1
f 389/23/1 368/2/1 388/22/1
f 390/24/1 368/2/1 389/23/1
f 391/25/1 368/2/1 390/24/1
f 392/26/1 368/2/1 391/25/1
f 393/27/1 368/2/1 392/26/1
f 394/28/1 368/2/1 393/27/1
f 395/29/1 368/2/1 394/28/1
f 396/30/1 368/2/1 395/29/1
f 397/31/1 368/2/1 396/30/1
f 369/3/1 368/2/1 397/31/1
f 398/32/2 369/33/2 399/34/2
f 367/35/2 369/33/2 398/32/2
f 400/32/3 367/33/3 398/34/3
f 370/35/3 367/33/3 400/32/3
f 401/32/4 370/33/4 400/34/4
f 371/35/4 370/33/4 401/32/4
f 402/32/5 371/33/5 401/34/5
f 372/35/5 371/33/5 402/32/5
f 403/32/6 372/33/6 402/34/6
f 373/35/6 372/33/6 403/32/6
f 404/32/7 373/33/7 403/34/7
f 374/35/7 373/33/7 404/32/7
f 405/32/8 374/33/8 404/34/8
f 375/35/8 374/33/8 405/32/8
f 406/32/9 375/33/9 405/34/9
f 376/35/9 375/33/9 406/32/9
f 407/32/10 376/33/10 406/34/10
f 377/35/10 376/33/10 407/32/10
f 408/32/11 377/33/11 407/34/11
f 378/35/11 377/33/11 408/32/11
f 409/32/12 378/33/12 408/34/12
f 379/35/12 378/33/12 409/32/12
f 410/32/13 379/33/13 409/34/13
f 380/35/13 379/33/13 410/32/13
f 411/32/14 380/33/14 410/34/14
f 381/35/14 380/33/14 411/32/14
f 412/32/15 381/33/15 411/34/15
f 382/35/15 381/33/15 412/32/15
f 413/32/16 382/33/16 412/34/16
f 383/35/16 382/33/16 413/32/16
f 414/32/17 383/33/17 413/34/17
f 384/35/17 383/33/17 414/32/17
f 415/32/18 384/33/18 414/34/18
f 385/35/18 384/33/18 415/32/18
f 416/32/19 385/33/19 415/34/19
f 386/35/19 385/33/19 416/32/19
f 417/32/20 386/33/20 416/34/20
f 387/35/20 386/33/20 417/32/20
f 418/32/21 387/33/21 417/34/21
f 388/35/21 387/33/21 418/32/21
f 419/32/22 388/33/22 418/34/22
f 389/35/22 388/33/22 419/32/22
f 420/32/23 389/33/23 419/34/23
f 390/35/23 389/33/23 420/32/23
f 421/32/24 390/33/24 420/34/24
f 391/35/24 390/33/24 421/32/24
f 422/32/25 391/33/25 421/34/25
f 392/35/25 391/33/25 422/32/25
f 423/32/26 392/33/26 422/34/26
f 393/35/26 392/33/26 423/32/26
f 424/32/27 393/33/27 423/34/27
f 394/35/27 393/33/27 424/32/27
f 425/32/28 394/33/28 424/34/28
f 395/35/28 394/33/28 425/32/28
f 426/32/29 395/33/29 425/34/29
f 396/35/29 395/33/29 426/32/29
f 427/32/30 396/33/30 426/34/30
f 397/35/30 396/33/30 427/32/30
f 399/32/31 397/33/31 427/34/31
f 369/35/31 397/33/31 399/32/31
f 428/1/1 429/2/1 430/3/1
f 431/4/1 429/2/1 428/1/1
f 432/5/1 429/2/1 431/4/1
f 433/6/1 429/2/1 432/5/1
f 434/7/1 429/2/1 433/6/1
f 435/8/1 429/2/1 434/7/1
f 436/9/1 429/2/1 435/8/1
f 437/10/1 429/2/1 436/9/1
f 438/11/1 429/2/1 437/10/1
f 439/12/1 429/2/1 438/11/1
f 440/13/1 429/2/1 439/12/1
f 441/14/1 429/2/1 440/13/1
f 442/15/1 429/2/1 441/14/1
f 443/16/1 429/2/1 442/15/1
f 444/17/1 429/2/1 443/16/1
f 445/18/1 429/2/1 444/17/1
f 446/19/1 429/2/1 445/18/1
f 447/20/1 429/2/1 446/19/1
f 448/21/1 429/2/1 447/20/1
f 449/22/1 429/2/1 448/21/1
f 450/23/1 429/2/1 449/22/1
f 451/24/1 429/2/1 450/23/1
f 452/25/1 429/2/1 451/24/1
f 453/26/1 429/2/1 452/25/1
f 454/27/1 429/2/1 453/26/1
f 455/28/1 429/2/1 454/27/1
f 456/29/1 429/2/1 455/28/1
f 457/30/1 429/2/1 456/29/1
f 458/31/1 429/2/1 457/30/1
f 430/3/1 429/2/1 458/31/1
f 459/32/2 430/33/2 460/34/2
f 428/35/2 430/33/2 459/32/2
f 461/32/3 428/33/3 459/34/3
f 431/35/3 428/33/3 461/32/3
f 462/32/4 431/33/4 461/34/4
f 432/35/4 431/33/4 462/32/4
f 463/32/5 432/33/5 462/34/5
f 433/35/5 432/33/5 463/32/5
f 464/32/6 433/33/6 463/34/6
f 434/35/6 433/33/6 464/32/6
f 465/32/7 434/33/7 464/34/7
f 435/35/7 434/33/7 465/32/7
f 466/32/32 435/33/32 465/34/32
f 436/35/32 435/33/32 466/32/32
f 467/32/9 436/33/9 466/34/9
f 437/35/9 436/33/9 467/32/9
f 468/32/33 437/33/33 467/34/33
f 438/35/33 437/33/33 468/32/33
f 469/32/11 438/33/11 468/34/11
f 439/35/11 438/33/11 469/32/11
f 470/32/12 439/33/12 469/34/12
f 440/35/12 439/33/12 470/32/12
f 471/32/13 440/33/13 470/34/13
f 441/35/13 440/33/13 471/32/13
f 472/32/14 441/33/14 471/34/14
f 442/35/14 441/33/14 472/32/14
f 473/32/15 442/33/15 472/34/15
f 443/35/15 442/33/15 473/32/15
f 474/32/16 443/33/16 473/34/16
f 444/35/16 443/33/16 474/32/16
f 475/32/17 444/33/17 474/34/17
f 445/35/17 444/33/17 475/32/17
f 476/32/18 445/33/18 475/34/18
f 446/35/18 445/33/18 476/32/18
f 477/32/34 446/33/34 476/34/34
f 447/35/34 446/33/34 477/32/34
f 478/32/35 447/33/35 477/34/20
f 448/35/35 447/33/35 478/32/35
f 479/32/21 448/33/21 478/34/21
f 449/35/21 448/33/21 479/32/21
f 480/32/22 449/33/22 479/34/22
f 450/35/22 449/33/22 480/32/22
f 481/32/36 450/33/36 480/34/36
f 451/35/36 450/33/36 481/32/36
f 482/32/24 451/33/24 481/34/24
f 452/35/24 451/33/24 482/32/24
f 483/32/37 452/33/37 482/34/37
f 453/35/37 452/33/37 483/32/37
f 484/32/26 453/33/26 483/34/26
f 454/35/26 453/33/26 484/32/26
f 485/32/27 454/33/27 484/34/27
f 455/35/27 454/33/27 485/32/27
f 486/32/38 455/33/38 485/34/38
f 456/35/38 455/33/38 486/32/38
f 487/32/29 456/33/29 486/34/29
f 457/35/29 456/33/29 487/32/29
f 488/32/30 457/33/30 487/34/30
f 458/35/30 457/33/30 488/32/30
f 460/32/31 458/33/31 488/34/31
f 430/35/31 458/33/31 460/32/31
f 489/36/39 490/37/39 491/38/39
f 492/39/39 491/38/39 490/37/39
f 493/36/40 494/37/40 495/38/40
f 496/39/40 495/38/40 494/37/40
f 492/40/9 490/41/9 493/42/9
f 494/43/9 493/42/9 490/41/9
f 489/36/24 491/37/24 496/38/24
f 495/39/24 496/38/24 491/37/24
f 490/36/41 489/37/41 494/38/41
f 496/39/41 494/38/41 489/37/41
f 497/44/39 498/45/39 499/46/39
f 500/47/39 499/46/39 498/45/39
f 501/44/40 502/45/40 503/46/40
f 504/47/40 503/46/40 502/45/40
f 500/44/9 498/45/9 501/46/9
f 502/47/9 501/46/9 498/45/9
f 499/44/1 500/45/1 503/46/1
f 501/47/1 503/46/1 500/45/1
f 497/44/24 499/45/24 504/46/24
f 503/47/24 504/46/24 499/45/24
f 498/36/41 497/37/41 502/38/41
f 504/39/41 502/38/41 497/37/41
f 505/44/39 506/45/39 507/46/39
f 508/47/39 507/46/39 506/45/39
f 509/44/40 510/45/40 511/46/40
f 512/47/40 511/46/40 510/45/40
f 508/44/9 506/45/9 509/46/9
f 510/47/9 509/46/9 506/45/9
f 507/44/1 508/45/1 511/46/1
f 509/47/1 511/46/1 508/45/1
f 505/48/24 507/49/24 512/50/24
f 511/51/24 512/50/24 507/49/24
f 506/44/41 505/45/41 510/46/41
f 512/47/41 510/46/41 505/45/41
f 513/52/39 514/53/39 515/54/39
f 516/55/39 515/54/39 514/53/39
f 517/44/40 518/45/40 519/46/40
f 520/47/40 519/46/40 518/45/40
f 516/44/42 514/45/42 517/46/42
f 518/47/42 517/46/42 514/45/42
f 515/44/1 516/45/1 519/46/1
f 517/47/1 519/46/1 516/45/1
f 513/44/24 515/45/24 520/46/24
f 519/47/24 520/46/24 515/45/24
f 514/44/41 513/45/41 518/46/41
f 520/47/41 518/46/41 513/45/41
f 521/44/39 522/45/39 523/46/39
f 524/47/39 523/46/39 522/45/39
f 525/56/40 526/57/40 527/58/40
f 528/59/40 527/58/40 526/57/40
f 524/44/42 522/45/42 525/46/42
f 526/47/42 525/46/42 522/45/42
f 523/44/1 524/45/1 527/46/1
f 525/47/1 527/46/1 524/45/1
f 521/44/24 523/45/24 528/46/24
f 527/47/24 528/46/24 523/45/24
f 522/44/41 521/45/41 526/46/41
f 528/47/41 526/46/41 521/45/41
f 529/44/39 530/45/39 531/46/39
f 532/47/39 531/46/39 530/45/39
f 533/44/40 534/45/40 535/46/40
f 536/47/40 535/46/40 534/45/40
f 532/44/9 530/45/9 533/46/9
f 534/47/9 533/46/9 530/45/9
f 531/44/1 532/45/1 535/46/1
f 533/47/1 535/46/1 532/45/1
f 529/48/24 531/49/24 536/50/24
f 535/51/24 536/50/24 531/49/24
f 530/44/41 529/45/41 534/46/41
f 536/47/41 534/46/41 529/45/41
f 537/56/39 538/57/39 539/58/39
f 540/59/39 539/58/39 538/57/39
f 541/44/40 542/45/40 543/46/40
f 544/47/40 543/46/40 542/45/40
f 540/44/42 538/45/43 541/46/42
f 542/47/43 541/46/42 538/45/43
f 539/44/1 540/45/1 543/46/1
f 541/47/1 543/46/1 540/45/1
f 537/44/24 539/45/24 544/46/24
f 543/47/24 544/46/24 539/45/24
f 538/44/41 537/45/41 542/46/41
f 544/47/41 542/46/41 537/45/41
f 545/44/39 546/45/39 547/46/39
f 548/47/39 547/46/39 546/45/39
f 549/56/40 550/57/40 551/58/40
f 552/59/40 551/58/40 550/57/40
f 548/44/43 546/45/43 549/46/43
f 550/47/43 549/46/43 546/45/43
f 547/44/1 548/45/1 551/46/1
f 549/47/1 551/46/1 548/45/1
f 545/44/24 547/45/24 552/46/24
f 551/47/24 552/46/24 547/45/24
f 546/44/41 545/45/41 550/46/41
f 552/47/41 550/46/41 545/45/41
f 553/60/24 554/61/24 555/62/24
f 556/63/24 555/62/24 554/61/24
f 557/64/41 558/65/41 555/66/41
f 553/67/41 555/66/41 558/65/41
f 558/68/39 559/69/39 553/70/39
f 554/71/39 553/70/39 559/69/39
f 559/72/1 560/73/1 554/74/1
f 556/75/1 554/74/1 560/73/1
f 560/64/40 557/65/40 556/66/40
f 555/67/40 556/66/40 557/65/40
f 561/76/24 562/77/24 563/78/24
f 564/79/24 563/78/24 562/77/24
f 565/80/41 566/81/41 563/82/41
f 561/83/41 563/82/41 566/81/41
f 566/80/39 567/81/39 561/82/39
f 562/83/39 561/82/39 567/81/39
f 567/84/1 568/85/1 562/86/1
f 564/87/1 562/86/1 568/85/1
f 568/88/40 565/89/40 564/90/40
f 563/91/40 564/90/40 565/89/40
f 569/92/9 570/93/9 571/94/9
f 572/95/9 571/94/9 570/93/9
f 573/96/24 574/97/24 575/98/24
f 576/99/24 575/98/24 574/97/24
f 571/96/44 572/97/44 575/98/44
f 573/99/44 575/98/44 572/97/44
f 569/96/41 571/97/41 576/98/41
f 575/99/41 576/98/41 571/97/41
f 570/96/45 569/97/46 574/98/45
f 576/99/46 574/98/45 569/97/46
f 577/96/24 578/97/24 579/98/24
f 580/99/24 579/98/24 578/97/24
f 581/92/9 582/93/9 572/94/9
f 583/95/9 572/94/9 582/93/9
f 572/96/41 583/97/41 579/98/41
f 577/99/41 579/98/41 583/97/41
f 583/100/39 582/101/39 577/102/39
f 578/103/39 577/102/39 582/101/39
f 582/92/1 581/93/1 578/94/1
f 580/95/1 578/94/1 581/93/1
f 581/92/40 572/93/40 580/94/40
f 579/95/40 580/94/40 572/93/40
f 584/96/24 585/97/24 586/98/24
f 587/99/24 586/98/24 585/97/24
f 588/92/9 589/93/9 590/94/9
f 570/95/9 590/94/9 589/93/9
f 590/96/41 570/97/41 586/98/41
f 584/99/41 586/98/41 570/97/41
f 570/92/39 589/93/39 584/94/39
f 585/95/39 584/94/39 589/93/39
f 589/92/1 588/93/1 585/94/1
f 587/95/1 585/94/1 588/93/1
f 588/104/40 590/105/40 587/106/40
f 586/107/40 587/106/40 590/105/40
f 573/92/24 591/93/24 574/94/24
f 592/95/24 574/94/24 591/93/24
f 589/92/9 581/93/9 570/94/9
f 572/95/9 570/94/9 581/93/9
f 572/92/39 581/93/39 573/94/39
f 591/95/39 573/94/39 581/93/39
f 581/92/1 589/93/1 591/94/1
f 592/95/1 591/94/1 589/93/1
f 589/92/40 570/93/40 592/94/40
f 574/95/40 592/94/40 570/93/40
f 593/108/24 594/109/24 595/110/24
f 596/111/24 595/110/24 594/109/24
f 597/111/9 598/109/9 599/110/9
f 600/108/9 599/110/9 598/109/9
f 599/110/41 600/108/41 595/110/41
f 593/108/41 595/110/41 600/108/41
f 600/108/39 598/109/39 593/108/39
f 594/109/39 593/108/39 598/109/39
f 598/109/1 597/111/1 594/109/1
f 596/111/1 594/109/1 597/111/1
f 597/111/40 599/110/40 596/111/40
f 595/110/40 596/111/40 599/110/40
f 601/112/9 602/113/9 603/114/9
f 604/115/9 603/114/9 602/113/9
f 602/113/9 605/116/9 604/115/9
f 606/117/9 604/115/9 605/116/9
f 607/118/24 608/119/24 609/120/24
f 610/121/24 609/120/24 608/119/24
f 611/122/24 612/123/24 607/118/24
f 608/119/24 607/118/24 612/123/24
f 609/124/47 610/125/47 603/126/47
f 601/127/47 603/126/47 610/125/47
f 610/128/48 608/129/49 601/130/48
f 602/131/49 601/130/48 608/129/49
f 608/129/49 612/132/50 602/131/49
f 605/133/50 602/131/49 612/132/50
f 611/132/51 607/129/52 606/133/51
f 604/131/52 606/133/51 607/129/52
f 607/129/52 609/128/53 604/131/52
f 603/130/53 604/131/52 609/128/53
f 613/134/9 614/135/9 615/136/9
f 616/137/9 615/136/9 614/135/9
f 617/138/24 618/139/24 619/140/24
f 620/141/24 619/140/24 618/139/24
f 619/134/54 620/135/54 615/136/54
f 613/137/54 615/136/54 620/135/54
f 620/138/55 618/139/55 613/140/55
f 614/141/55 613/140/55 618/139/55
f 618/138/56 617/139/56 614/140/56
f 616/141/56 614/140/56 617/139/56
f 617/142/57 619/143/57 616/144/57
f 615/145/57 616/144/57 619/143/57
f 621/134/9 622/135/9 623/136/9
f 624/137/9 623/136/9 622/135/9
f 625/138/24 626/139/24 627/140/24
f 628/141/24 627/140/24 626/139/24
f 627/134/47 628/135/47 623/136/47
f 621/137/47 623/136/47 628/135/47
f 628/142/55 626/143/55 621/144/55
f 622/145/55 621/144/55 626/143/55
f 626/138/56 625/139/56 622/140/56
f 624/141/56 622/140/56 625/139/56
f 625/138/57 627/139/57 624/140/57
f 623/141/57 624/140/57 627/139/57
f 629/134/9 630/135/9 631/136/9
f 632/137/9 631/136/9 630/135/9
f 633/138/24 634/139/24 635/140/24
f 636/141/24 635/140/24 634/139/24
f 635/134/54 636/135/54 631/136/54
f 629/137/54 631/136/54 636/135/54
f 636/138/55 634/139/58 629/140/55
f 630/141/58 629/140/55 634/139/58
f 634/138/56 633/139/56 630/140/56
f 632/141/56 630/140/56 633/139/56
f 633/142/57 635/143/59 632/144/57
f 631/145/59 632/144/57 635/143/59
f 637/134/9 638/135/9 639/136/9
f 640/137/9 639/136/9 638/135/9
f 641/138/24 642/139/24 643/140/24
f 644/141/24 643/140/24 642/139/24
f 643/134/47 644/135/47 639/136/47
f 637/137/47 639/136/47 644/135/47
f 644/142/55 642/143/58 637/144/55
f 638/145/58 637/144/55 642/143/58
f 642/138/56 641/139/56 638/140/56
f 640/141/56 638/140/56 641/139/56
f 641/138/57 643/139/59 640/140/57
f 639/141/59 640/140/57 643/139/59
f 645/146/9 646/147/9 647/148/9
f 647/148/9 646/147/9 648/149/9
f 648/149/9 646/147/9 649/150/9
f 649/150/9 646/147/9 650/151/9
f 650/151/9 646/147/9 651/152/9
f 651/152/9 646/147/9 652/153/9
f 652/153/9 646/147/9 653/154/9
f 653/154/9 646/147/9 654/155/9
f 654/155/9 646/147/9 655/156/9
f 655/156/9 646/147/9 656/157/9
f 656/157/9 646/147/9 657/158/9
f 657/158/9 646/147/9 658/159/9
f 657/145/60 658/144/60 659/143/60
f 660/142/60 659/143/60 658/144/60
f 656/145/61 657/144/61 661/143/61
f 659/142/61 661/143/61 657/144/61
f 655/145/62 656/144/62 662/143/62
f 661/142/62 662/143/62 656/144/62
f 654/145/63 655/144/63 663/143/63
f 662/142/64 663/143/63 655/144/63
f 653/145/65 654/144/65 664/143/65
f 663/142/65 664/143/65 654/144/65
f 652/145/66 653/144/66 665/143/66
f 664/142/66 665/143/66 653/144/66
f 651/145/67 652/144/67 666/143/67
f 665/142/67 666/143/67 652/144/67
f 650/145/68 651/144/68 667/143/68
f 666/142/68 667/143/68 651/144/68
f 649/145/69 650/144/69 668/143/69
f 667/142/69 668/143/69 650/144/69
f 648/145/70 649/144/70 669/143/70
f 668/142/70 669/143/70 649/144/70
f 647/145/71 648/144/71 670/143/71
f 669/142/71 670/143/71 648/144/71
f 645/145/72 647/144/72 671/143/72
f 670/142/72 671/143/72 647/144/72
f 660/160/24 672/161/24 659/162/24
f 659/162/24 672/161/24 661/163/24
f 661/163/24 672/161/24 662/164/24
f 662/164/24 672/161/24 663/165/24
f 663/165/24 672/161/24 664/166/24
f 664/166/24 672/161/24 665/167/24
f 665/167/24 672/161/24 666/168/24
f 666/168/24 672/161/24 667/169/24
f 667/169/24 672/161/24 668/170/24
f 668/170/24 672/161/24 669/171/24
f 669/171/24 672/161/24 670/172/24
f 670/172/24 672/161/24 671/173/24
f 616/174/9 673/175/9 674/176/9
f 674/176/9 673/175/9 675/177/9
f 675/177/9 673/175/9 676/178/9
f 676/178/9 673/175/9 677/179/9
f 677/179/9 673/175/9 678/180/9
f 678/180/9 673/175/9 679/181/9
f 679/181/9 673/175/9 680/182/9
f 680/182/9 673/175/9 681/183/9
f 681/183/9 673/175/9 682/184/9
f 682/184/9 673/175/9 683/185/9
f 683/185/9 673/175/9 684/186/9
f 684/186/9 673/175/9 622/187/9
f 684/145/60 622/144/60 685/143/60
f 626/142/60 685/143/60 622/144/60
f 683/145/61 684/144/61 686/143/61
f 685/142/61 686/143/61 684/144/61
f 682/145/62 683/144/62 687/143/62
f 686/142/62 687/143/62 683/144/62
f 681/145/64 682/144/63 688/143/63
f 687/142/63 688/143/63 682/144/63
f 680/145/65 681/144/65 689/143/65
f 688/142/65 689/143/65 681/144/65
f 679/145/66 680/144/66 690/143/66
f 689/142/66 690/143/66 680/144/66
f 678/145/67 679/144/67 691/143/67
f 690/142/67 691/143/67 679/144/67
f 677/145/68 678/144/68 692/143/68
f 691/142/68 692/143/68 678/144/68
f 676/145/69 677/144/69 693/143/69
f 692/142/69 693/143/69 677/144/69
f 675/145/70 676/144/70 694/143/70
f 693/142/70 694/143/70 676/144/70
f 674/145/71 675/144/71 695/143/71
f 694/142/71 695/143/71 675/144/71
f 616/145/72 674/144/72 617/143/72
f 695/142/72 617/143/72 674/144/72
f 626/160/24 696/161/24 685/162/24
f 685/162/24 696/161/24 686/163/24
f 686/163/24 696/161/24 687/164/24
f 687/164/24 696/161/24 688/165/24
f 688/165/24 696/161/24 689/166/24
f 689/166/24 696/161/24 690/167/24
f 690/167/24 696/161/24 691/168/24
f 691/168/24 696/161/24 692/169/24
f 692/169/24 696/161/24 693/170/24
f 693/170/24 696/161/24 694/171/24
f 694/171/24 696/161/24 695/172/24
f 695/172/24 696/161/24 617/173/24
f 697/188/9 698/189/9 699/190/9
f 700/191/9 699/190/9 698/189/9
f 701/188/24 702/189/24 703/190/24
f 704/191/24 703/190/24 702/189/24
f 703/192/54 704/193/54 699/194/54
f 697/195/54 699/194/54 704/193/54
f 704/142/58 702/143/58 697/144/58
f 698/145/58 697/144/58 702/143/58
f 702/188/56 701/189/56 698/190/56
f 700/191/56 698/190/56 701/189/56
f 701/142/57 703/143/57 700/144/57
f 699/145/57 700/144/57 703/143/57
f 705/196/73 706/197/73 707/198/73
f 708/199/73 707/198/73 706/197/73
f 706/196/74 709/197/74 708/198/74
f 710/199/74 708/198/74 709/197/74
f 709/196/75 711/197/75 710/198/75
f 712/199/75 710/198/75 711/197/75
f 711/196/76 705/197/76 712/198/76
f 707/199/76 712/198/76 705/197/76
f 713/200/9 714/201/9 715/202/9
f 716/203/9 715/202/9 714/201/9
f 717/200/77 718/201/77 713/202/77
f 714/203/77 713/202/77 718/201/77
f 718/200/78 719/201/78 714/202/78
f 716/203/78 714/202/78 719/201/78
f 719/200/79 720/201/79 716/202/79
f 715/203/79 716/202/79 720/201/79
f 721/196/1 722/197/1 723/198/1
f 724/199/1 723/198/1 722/197/1
f 725/196/1 726/197/1 721/198/1
f 722/199/1 721/198/1 726/197/1
f 727/196/1 728/197/1 725/198/1
f 726/199/1 725/198/1 728/197/1
f 729/196/1 730/197/1 727/198/1
f 728/199/1 727/198/1 730/197/1
f 731/196/1 732/197/1 729/198/1
f 730/199/1 729/198/1 732/197/1
f 733/196/1 734/197/1 731/198/1
f 732/199/1 731/198/1 734/197/1
f 722/196/80 735/197/80 724/198/80
f 736/199/80 724/198/80 735/197/80
f 726/196/81 737/197/81 722/198/81
f 735/199/81 722/198/81 737/197/81
f 728/196/82 738/197/82 726/198/82
f 737/199/82 726/198/82 738/197/82
f 730/196/83 739/197/83 728/198/83
f 738/199/83 728/198/83 739/197/83
f 732/196/84 740/197/84 730/198/84
f 739/199/84 730/198/84 740/197/84
f 734/196/85 741/197/85 732/198/85
f 740/199/85 732/198/85 741/197/85
f 735/196/41 742/197/41 736/198/41
f 743/199/41 736/198/41 742/197/41
f 737/196/41 744/197/41 735/198/41
f 742/199/41 735/198/41 744/197/41
f 738/196/41 745/197/41 737/198/41
f 744/199/41 737/198/41 745/197/41
f 739/196/41 746/197/41 738/198/41
f 745/199/41 738/198/41 746/197/41
f 740/196/41 747/197/41 739/198/41
f 746/199/41 739/198/41 747/197/41
f 741/196/41 748/197/41 740/198/41
f 747/199/41 740/198/41 748/197/41
f 742/196/86 721/197/86 743/198/86
f 723/199/86 743/198/86 721/197/86
f 744/196/87 725/197/87 742/198/87
f 721/199/87 742/198/87 725/197/87
f 745/196/88 727/197/88 744/198/88
f 725/199/88 744/198/88 727/197/88
f 746/196/89 729/197/89 745/198/89
f 727/199/89 745/198/89 729/197/89
f 747/196/90 731/197/90 746/198/90
f 729/199/90 746/198/90 731/197/90
f 748/196/91 733/197/91 747/198/91
f 731/199/91 747/198/91 733/197/91
f 749/196/92 750/197/92 751/198/92
f 752/199/93 751/198/92 750/197/92
f 750/196/94 753/197/94 752/198/95
f 754/199/95 752/198/95 753/197/94
f 753/196/96 755/197/96 754/198/96
f 756/199/97 754/198/96 755/197/96
f 755/196/98 749/197/98 756/198/98
f 751/199/98 756/198/98 749/197/98
f 757/202/9 758/201/9 759/200/9
f 758/201/9 757/202/9 760/203/9
f 761/202/24 762/201/24 763/200/24
f 762/201/24 761/202/24 764/203/24
f 757/202/1 764/201/1 761/200/1
f 764/201/1 757/202/1 759/203/1
f 759/202/40 762/201/40 764/200/40
f 762/201/40 759/202/40 758/203/40
f 760/202/39 761/201/39 763/200/39
f 761/201/39 760/202/39 757/203/39
