# generated by tools/objdedupe/dedupe.py -- do not hand-edit.
# Re-run the tool after touching sssr_2svet_nove.obj, sssr_3svet_nove.obj, sssr_4svet_nove.obj, sssr_5svet_nove.obj, sssr_2se_nove.obj, sssr_3ab_nove.obj, sssr_4ab_nove.obj, sssr_pr_nove.obj, sssr_vl_nove.obj.
o stit_4r_pruhy
v 0.185421 2.730791 0.085159
vt 0.861931 0.296501
vn -0.000000 -0.000000 1.000000
v 0.220928 2.723244 0.085159
vt 0.781315 0.320743
v 0.221721 2.730791 0.085159
vt 0.863579 0.321805
vt 0.856759 0.272257
v 0.218583 2.716026 0.085159
vt 0.848290 0.250133
v 0.214788 2.709454 0.085159
vt 0.836894 0.231095
v 0.209711 2.703815 0.085159
vt 0.823069 0.215973
v 0.203571 2.699354 0.085159
vt 0.807419 0.205433
v 0.196638 2.696268 0.085159
vt 0.790627 0.199931
v 0.189216 2.694690 0.085159
vt 0.773429 0.199709
v 0.181626 2.694690 0.085159
vt 0.756576 0.204777
v 0.174204 2.696268 0.085159
vt 0.740803 0.214912
v 0.167271 2.699354 0.085159
vt 0.726803 0.229675
v 0.161131 2.703815 0.085159
vt 0.715182 0.248415
v 0.156054 2.709454 0.085159
vt 0.706453 0.270318
v 0.152259 2.716026 0.085159
vt 0.700996 0.294425
v 0.149914 2.723244 0.085159
vt 0.699049 0.319682
v 0.149121 2.730791 0.085159
vt 0.700697 0.344986
v 0.149914 2.738338 0.085159
vt 0.705870 0.369230
v 0.152259 2.745555 0.085159
vt 0.714338 0.391354
v 0.156054 2.752128 0.085159
vt 0.725735 0.410392
v 0.161131 2.757767 0.085159
vt 0.739561 0.425514
v 0.167271 2.762228 0.085159
vt 0.755211 0.436054
v 0.174204 2.765314 0.085159
vt 0.772002 0.441556
v 0.181626 2.766892 0.085159
vt 0.789199 0.441777
v 0.189216 2.766892 0.085159
vt 0.806052 0.436710
v 0.196638 2.765314 0.085159
vt 0.821825 0.426575
v 0.203571 2.762228 0.085159
vt 0.835827 0.411812
v 0.209711 2.757767 0.085159
vt 0.847446 0.393071
v 0.214788 2.752127 0.085159
vt 0.856175 0.371167
v 0.218583 2.745555 0.085159
vt 0.861632 0.347061
v 0.220928 2.738338 0.085159
vt 0.556898 0.329554
vn 0.994500 -0.104500 -0.000000
v 0.220928 2.723244 0.079109
vt 0.538804 0.311460
v 0.221721 2.730791 0.079109
vt 0.538804 0.329554
vt 0.556898 0.311460
vn 0.951100 -0.309000 -0.000000
v 0.218583 2.716026 0.079109
vn 0.866000 -0.500100 -0.000000
v 0.214788 2.709454 0.079109
vn 0.743200 -0.669100 -0.000000
v 0.209711 2.703815 0.079109
vn 0.587800 -0.809000 -0.000000
v 0.203571 2.699354 0.079109
vn 0.406700 -0.913600 -0.000000
v 0.196638 2.696268 0.079109
vn 0.407000 -0.913400 -0.000000
vn 0.208000 -0.978100 -0.000000
v 0.189216 2.694690 0.079109
vn -0.000000 -1.000000 -0.000000
v 0.181626 2.694690 0.079109
vn -0.208000 -0.978100 -0.000000
v 0.174204 2.696268 0.079109
vn -0.406700 -0.913600 -0.000000
v 0.167271 2.699354 0.079109
vn -0.407000 -0.913400 -0.000000
vn -0.587800 -0.809000 -0.000000
v 0.161131 2.703815 0.079109
vn -0.743200 -0.669100 -0.000000
v 0.156054 2.709454 0.079109
vn -0.866000 -0.500100 -0.000000
v 0.152259 2.716026 0.079109
vn -0.951100 -0.309000 -0.000000
v 0.149914 2.723244 0.079109
vn -0.994500 -0.104500 -0.000000
v 0.149121 2.730791 0.079109
vn -0.994500 0.104500 -0.000000
v 0.149914 2.738338 0.079109
vn -0.951100 0.309000 -0.000000
v 0.152259 2.745555 0.079109
vn -0.866000 0.500000 -0.000000
v 0.156054 2.752128 0.079109
vn -0.743200 0.669100 -0.000000
v 0.161131 2.757767 0.079109
vn -0.587800 0.809000 -0.000000
v 0.167271 2.762228 0.079109
vn -0.406700 0.913600 -0.000000
v 0.174204 2.765314 0.079109
vn -0.407000 0.913400 -0.000000
vn -0.208000 0.978100 -0.000000
v 0.181626 2.766892 0.079109
vn -0.000000 1.000000 -0.000000
v 0.189216 2.766892 0.079109
vn 0.208000 0.978100 -0.000000
v 0.196638 2.765314 0.079109
vn 0.406700 0.913600 -0.000000
v 0.203571 2.762228 0.079109
vn 0.407000 0.913400 -0.000000
vn 0.587800 0.809000 -0.000000
v 0.209711 2.757767 0.079109
vn 0.743200 0.669000 -0.000000
v 0.214788 2.752127 0.079109
vn 0.866000 0.500100 -0.000000
v 0.218583 2.745555 0.079109
vn 0.951100 0.309000 -0.000000
v 0.220928 2.738338 0.079109
vn 0.994500 0.104500 -0.000000
v 0.185421 2.640041 0.085159
v 0.220928 2.632493 0.085159
v 0.221721 2.640041 0.085159
v 0.218583 2.625276 0.085159
v 0.214788 2.618704 0.085159
v 0.209711 2.613065 0.085159
v 0.203571 2.608604 0.085159
v 0.196638 2.605518 0.085159
v 0.189216 2.603939 0.085159
v 0.181626 2.603939 0.085159
v 0.174204 2.605518 0.085159
v 0.167271 2.608604 0.085159
v 0.161131 2.613065 0.085159
v 0.156054 2.618704 0.085159
v 0.152259 2.625276 0.085159
v 0.149914 2.632493 0.085159
v 0.149121 2.640041 0.085159
v 0.149914 2.647588 0.085159
v 0.152259 2.654805 0.085159
v 0.156054 2.661377 0.085159
v 0.161131 2.667017 0.085159
v 0.167271 2.671478 0.085159
v 0.174204 2.674564 0.085159
v 0.181626 2.676142 0.085159
v 0.189216 2.676142 0.085159
v 0.196638 2.674564 0.085159
v 0.203571 2.671478 0.085159
v 0.209711 2.667017 0.085159
v 0.214788 2.661377 0.085159
v 0.218583 2.654805 0.085159
v 0.220928 2.647588 0.085159
v 0.220928 2.632493 0.079109
v 0.221721 2.640041 0.079109
v 0.218583 2.625276 0.079109
v 0.214788 2.618704 0.079109
v 0.209711 2.613065 0.079109
v 0.203571 2.608604 0.079109
v 0.196638 2.605518 0.079109
vn 0.208100 -0.978100 -0.000000
v 0.189216 2.603939 0.079109
v 0.181626 2.603939 0.079109
vn -0.208100 -0.978100 -0.000000
v 0.174204 2.605518 0.079109
v 0.167271 2.608604 0.079109
v 0.161131 2.613065 0.079109
v 0.156054 2.618704 0.079109
v 0.152259 2.625276 0.079109
v 0.149914 2.632493 0.079109
v 0.149121 2.640041 0.079109
v 0.149914 2.647588 0.079109
v 0.152259 2.654805 0.079109
vn -0.866000 0.500100 -0.000000
v 0.156054 2.661377 0.079109
vn -0.743200 0.669000 -0.000000
v 0.161131 2.667017 0.079109
v 0.167271 2.671478 0.079109
v 0.174204 2.674564 0.079109
vn -0.207900 0.978100 -0.000000
v 0.181626 2.676142 0.079109
v 0.189216 2.676142 0.079109
vn 0.207900 0.978100 -0.000000
v 0.196638 2.674564 0.079109
v 0.203571 2.671478 0.079109
v 0.209711 2.667017 0.079109
vn 0.743200 0.669100 -0.000000
v 0.214788 2.661377 0.079109
v 0.218583 2.654805 0.079109
v 0.220928 2.647588 0.079109
v 0.101931 2.730791 0.085159
v 0.137438 2.723244 0.085159
v 0.138231 2.730791 0.085159
v 0.135093 2.716026 0.085159
v 0.131298 2.709454 0.085159
v 0.126221 2.703815 0.085159
v 0.120081 2.699354 0.085159
v 0.113148 2.696268 0.085159
v 0.105726 2.694690 0.085159
v 0.098136 2.694690 0.085159
v 0.090714 2.696268 0.085159
v 0.083781 2.699354 0.085159
v 0.077641 2.703815 0.085159
v 0.072564 2.709454 0.085159
v 0.068769 2.716026 0.085159
v 0.066424 2.723244 0.085159
v 0.065631 2.730791 0.085159
v 0.066424 2.738338 0.085159
v 0.068769 2.745555 0.085159
v 0.072564 2.752128 0.085159
v 0.077641 2.757767 0.085159
v 0.083781 2.762228 0.085159
v 0.090714 2.765314 0.085159
v 0.098136 2.766892 0.085159
v 0.105726 2.766892 0.085159
v 0.113148 2.765314 0.085159
v 0.120081 2.762228 0.085159
v 0.126221 2.757767 0.085159
v 0.131298 2.752127 0.085159
v 0.135093 2.745555 0.085159
v 0.137438 2.738338 0.085159
v 0.137438 2.723244 0.079109
v 0.138231 2.730791 0.079109
v 0.135093 2.716026 0.079109
v 0.131298 2.709454 0.079109
v 0.126221 2.703815 0.079109
v 0.120081 2.699354 0.079109
v 0.113148 2.696268 0.079109
v 0.105726 2.694690 0.079109
v 0.098136 2.694690 0.079109
v 0.090714 2.696268 0.079109
v 0.083781 2.699354 0.079109
v 0.077641 2.703815 0.079109
v 0.072564 2.709454 0.079109
v 0.068769 2.716026 0.079109
v 0.066424 2.723244 0.079109
v 0.065631 2.730791 0.079109
v 0.066424 2.738338 0.079109
v 0.068769 2.745555 0.079109
v 0.072564 2.752128 0.079109
v 0.077641 2.757767 0.079109
v 0.083781 2.762228 0.079109
v 0.090714 2.765314 0.079109
v 0.098136 2.766892 0.079109
v 0.105726 2.766892 0.079109
v 0.113148 2.765314 0.079109
v 0.120081 2.762228 0.079109
v 0.126221 2.757767 0.079109
v 0.131298 2.752127 0.079109
v 0.135093 2.745555 0.079109
v 0.137438 2.738338 0.079109
v 0.101931 2.640041 0.085159
v 0.137438 2.632493 0.085159
v 0.138231 2.640041 0.085159
v 0.135093 2.625276 0.085159
v 0.131298 2.618704 0.085159
v 0.126221 2.613065 0.085159
v 0.120081 2.608604 0.085159
v 0.113148 2.605518 0.085159
v 0.105726 2.603939 0.085159
v 0.098136 2.603939 0.085159
v 0.090714 2.605518 0.085159
v 0.083781 2.608604 0.085159
v 0.077641 2.613065 0.085159
v 0.072564 2.618704 0.085159
v 0.068769 2.625276 0.085159
v 0.066424 2.632493 0.085159
v 0.065631 2.640041 0.085159
v 0.066424 2.647588 0.085159
v 0.068769 2.654805 0.085159
v 0.072564 2.661377 0.085159
v 0.077641 2.667017 0.085159
v 0.083781 2.671478 0.085159
v 0.090714 2.674564 0.085159
v 0.098136 2.676142 0.085159
v 0.105726 2.676142 0.085159
v 0.113148 2.674564 0.085159
v 0.120081 2.671478 0.085159
v 0.126221 2.667017 0.085159
v 0.131298 2.661377 0.085159
v 0.135093 2.654805 0.085159
v 0.137438 2.647588 0.085159
v 0.137438 2.632493 0.079109
v 0.138231 2.640041 0.079109
v 0.135093 2.625276 0.079109
v 0.131298 2.618704 0.079109
v 0.126221 2.613065 0.079109
v 0.120081 2.608604 0.079109
v 0.113148 2.605518 0.079109
v 0.105726 2.603939 0.079109
v 0.098136 2.603939 0.079109
v 0.090714 2.605518 0.079109
v 0.083781 2.608604 0.079109
v 0.077641 2.613065 0.079109
v 0.072564 2.618704 0.079109
v 0.068769 2.625276 0.079109
v 0.066424 2.632493 0.079109
v 0.065631 2.640041 0.079109
v 0.066424 2.647588 0.079109
v 0.068769 2.654805 0.079109
v 0.072564 2.661377 0.079109
v 0.077641 2.667017 0.079109
v 0.083781 2.671478 0.079109
v 0.090714 2.674564 0.079109
v 0.098136 2.676142 0.079109
v 0.105726 2.676142 0.079109
v 0.113148 2.674564 0.079109
v 0.120081 2.671478 0.079109
v 0.126221 2.667017 0.079109
v 0.131298 2.661377 0.079109
v 0.135093 2.654805 0.079109
v 0.137438 2.647588 0.079109
v 0.268911 2.730791 0.085159
v 0.304418 2.723244 0.085159
v 0.305211 2.730791 0.085159
v 0.302073 2.716026 0.085159
v 0.298278 2.709454 0.085159
v 0.293201 2.703815 0.085159
v 0.287061 2.699354 0.085159
v 0.280128 2.696268 0.085159
v 0.272706 2.694690 0.085159
v 0.265116 2.694690 0.085159
v 0.257694 2.696268 0.085159
v 0.250761 2.699354 0.085159
v 0.244621 2.703815 0.085159
v 0.239544 2.709454 0.085159
v 0.235749 2.716026 0.085159
v 0.233404 2.723244 0.085159
v 0.232611 2.730791 0.085159
v 0.233404 2.738338 0.085159
v 0.235749 2.745555 0.085159
v 0.239544 2.752128 0.085159
v 0.244621 2.757767 0.085159
v 0.250761 2.762228 0.085159
v 0.257694 2.765314 0.085159
v 0.265116 2.766892 0.085159
v 0.272706 2.766892 0.085159
v 0.280128 2.765314 0.085159
v 0.287061 2.762228 0.085159
v 0.293201 2.757767 0.085159
v 0.298278 2.752127 0.085159
v 0.302073 2.745555 0.085159
v 0.304418 2.738338 0.085159
v 0.304418 2.723244 0.079109
v 0.305211 2.730791 0.079109
v 0.302073 2.716026 0.079109
v 0.298278 2.709454 0.079109
v 0.293201 2.703815 0.079109
v 0.287061 2.699354 0.079109
v 0.280128 2.696268 0.079109
v 0.272706 2.694690 0.079109
v 0.265116 2.694690 0.079109
v 0.257694 2.696268 0.079109
v 0.250761 2.699354 0.079109
v 0.244621 2.703815 0.079109
v 0.239544 2.709454 0.079109
v 0.235749 2.716026 0.079109
v 0.233404 2.723244 0.079109
v 0.232611 2.730791 0.079109
v 0.233404 2.738338 0.079109
v 0.235749 2.745555 0.079109
v 0.239544 2.752128 0.079109
v 0.244621 2.757767 0.079109
v 0.250761 2.762228 0.079109
v 0.257694 2.765314 0.079109
v 0.265116 2.766892 0.079109
v 0.272706 2.766892 0.079109
v 0.280128 2.765314 0.079109
v 0.287061 2.762228 0.079109
v 0.293201 2.757767 0.079109
v 0.298278 2.752127 0.079109
v 0.302073 2.745555 0.079109
v 0.304418 2.738338 0.079109
v 0.268911 2.640041 0.085159
v 0.304418 2.632493 0.085159
v 0.305211 2.640041 0.085159
v 0.302073 2.625276 0.085159
v 0.298278 2.618704 0.085159
v 0.293201 2.613065 0.085159
v 0.287061 2.608604 0.085159
v 0.280128 2.605518 0.085159
v 0.272706 2.603939 0.085159
v 0.265116 2.603939 0.085159
v 0.257694 2.605518 0.085159
v 0.250761 2.608604 0.085159
v 0.244621 2.613065 0.085159
v 0.239544 2.618704 0.085159
v 0.235749 2.625276 0.085159
v 0.233404 2.632493 0.085159
v 0.232611 2.640041 0.085159
v 0.233404 2.647588 0.085159
v 0.235749 2.654805 0.085159
v 0.239544 2.661377 0.085159
v 0.244621 2.667017 0.085159
v 0.250761 2.671478 0.085159
v 0.257694 2.674564 0.085159
v 0.265116 2.676142 0.085159
v 0.272706 2.676142 0.085159
v 0.280128 2.674564 0.085159
v 0.287061 2.671478 0.085159
v 0.293201 2.667017 0.085159
v 0.298278 2.661377 0.085159
v 0.302073 2.654805 0.085159
v 0.304418 2.647588 0.085159
v 0.304418 2.632493 0.079109
v 0.305211 2.640041 0.079109
v 0.302073 2.625276 0.079109
v 0.298278 2.618704 0.079109
v 0.293201 2.613065 0.079109
v 0.287061 2.608604 0.079109
v 0.280128 2.605518 0.079109
v 0.272706 2.603939 0.079109
v 0.265116 2.603939 0.079109
v 0.257694 2.605518 0.079109
v 0.250761 2.608604 0.079109
v 0.244621 2.613065 0.079109
v 0.239544 2.618704 0.079109
v 0.235749 2.625276 0.079109
v 0.233404 2.632493 0.079109
v 0.232611 2.640041 0.079109
v 0.233404 2.647588 0.079109
v 0.235749 2.654805 0.079109
v 0.239544 2.661377 0.079109
v 0.244621 2.667017 0.079109
v 0.250761 2.671478 0.079109
v 0.257694 2.674564 0.079109
v 0.265116 2.676142 0.079109
v 0.272706 2.676142 0.079109
v 0.280128 2.674564 0.079109
v 0.287061 2.671478 0.079109
v 0.293201 2.667017 0.079109
v 0.298278 2.661377 0.079109
v 0.302073 2.654805 0.079109
v 0.304418 2.647588 0.079109
v 0.352401 2.730791 0.085159
v 0.387908 2.723244 0.085159
v 0.388701 2.730791 0.085159
v 0.385563 2.716026 0.085159
v 0.381768 2.709454 0.085159
v 0.376691 2.703815 0.085159
v 0.370551 2.699354 0.085159
v 0.363618 2.696268 0.085159
v 0.356196 2.694690 0.085159
v 0.348606 2.694690 0.085159
v 0.341184 2.696268 0.085159
v 0.334251 2.699354 0.085159
v 0.328111 2.703815 0.085159
v 0.323034 2.709454 0.085159
v 0.319239 2.716026 0.085159
v 0.316894 2.723244 0.085159
v 0.316101 2.730791 0.085159
v 0.316894 2.738338 0.085159
v 0.319239 2.745555 0.085159
v 0.323034 2.752128 0.085159
v 0.328111 2.757767 0.085159
v 0.334251 2.762228 0.085159
v 0.341184 2.765314 0.085159
v 0.348606 2.766892 0.085159
v 0.356196 2.766892 0.085159
v 0.363618 2.765314 0.085159
v 0.370551 2.762228 0.085159
v 0.376691 2.757767 0.085159
v 0.381768 2.752127 0.085159
v 0.385563 2.745555 0.085159
v 0.387908 2.738338 0.085159
v 0.387908 2.723244 0.079109
v 0.388701 2.730791 0.079109
v 0.385563 2.716026 0.079109
v 0.381768 2.709454 0.079109
v 0.376691 2.703815 0.079109
v 0.370551 2.699354 0.079109
v 0.363618 2.696268 0.079109
v 0.356196 2.694690 0.079109
v 0.348606 2.694690 0.079109
v 0.341184 2.696268 0.079109
v 0.334251 2.699354 0.079109
v 0.328111 2.703815 0.079109
v 0.323034 2.709454 0.079109
v 0.319239 2.716026 0.079109
v 0.316894 2.723244 0.079109
v 0.316101 2.730791 0.079109
v 0.316894 2.738338 0.079109
v 0.319239 2.745555 0.079109
v 0.323034 2.752128 0.079109
v 0.328111 2.757767 0.079109
v 0.334251 2.762228 0.079109
v 0.341184 2.765314 0.079109
v 0.348606 2.766892 0.079109
v 0.356196 2.766892 0.079109
v 0.363618 2.765314 0.079109
v 0.370551 2.762228 0.079109
v 0.376691 2.757767 0.079109
v 0.381768 2.752127 0.079109
v 0.385563 2.745555 0.079109
v 0.387908 2.738338 0.079109
v 0.352401 2.640041 0.085159
v 0.387908 2.632493 0.085159
v 0.388701 2.640041 0.085159
v 0.385563 2.625276 0.085159
v 0.381768 2.618704 0.085159
v 0.376691 2.613065 0.085159
v 0.370551 2.608604 0.085159
v 0.363618 2.605518 0.085159
v 0.356196 2.603939 0.085159
v 0.348606 2.603939 0.085159
v 0.341184 2.605518 0.085159
v 0.334251 2.608604 0.085159
v 0.328111 2.613065 0.085159
v 0.323034 2.618704 0.085159
v 0.319239 2.625276 0.085159
v 0.316894 2.632493 0.085159
v 0.316101 2.640041 0.085159
v 0.316894 2.647588 0.085159
v 0.319239 2.654805 0.085159
v 0.323034 2.661377 0.085159
v 0.328111 2.667017 0.085159
v 0.334251 2.671478 0.085159
v 0.341184 2.674564 0.085159
v 0.348606 2.676142 0.085159
v 0.356196 2.676142 0.085159
v 0.363618 2.674564 0.085159
v 0.370551 2.671478 0.085159
v 0.376691 2.667017 0.085159
v 0.381768 2.661377 0.085159
v 0.385563 2.654805 0.085159
v 0.387908 2.647588 0.085159
v 0.387908 2.632493 0.079109
v 0.388701 2.640041 0.079109
v 0.385563 2.625276 0.079109
v 0.381768 2.618704 0.079109
v 0.376691 2.613065 0.079109
v 0.370551 2.608604 0.079109
v 0.363618 2.605518 0.079109
v 0.356196 2.603939 0.079109
v 0.348606 2.603939 0.079109
v 0.341184 2.605518 0.079109
v 0.334251 2.608604 0.079109
v 0.328111 2.613065 0.079109
v 0.323034 2.618704 0.079109
v 0.319239 2.625276 0.079109
v 0.316894 2.632493 0.079109
v 0.316101 2.640041 0.079109
v 0.316894 2.647588 0.079109
v 0.319239 2.654805 0.079109
v 0.323034 2.661377 0.079109
v 0.328111 2.667017 0.079109
v 0.334251 2.671478 0.079109
v 0.341184 2.674564 0.079109
v 0.348606 2.676142 0.079109
v 0.356196 2.676142 0.079109
v 0.363618 2.674564 0.079109
v 0.370551 2.671478 0.079109
v 0.376691 2.667017 0.079109
v 0.381768 2.661377 0.079109
v 0.385563 2.654805 0.079109
v 0.387908 2.647588 0.079109
v 0.393541 2.594665 -0.067260
vt 0.317542 0.637225
vn 1.000000 -0.000000 -0.000000
v 0.393541 2.776166 -0.067260
vt 0.318346 0.705236
v 0.393541 2.776166 0.077940
vt 0.350100 0.636421
vt 0.350904 0.704433
v 0.393541 2.594665 0.077940
v 0.060791 2.594665 -0.067260
vn -1.000000 -0.000000 -0.000000
v 0.060791 2.594665 0.077940
v 0.060791 2.776166 0.077940
v 0.060791 2.776166 -0.067260
vt 0.093154 0.837362
vt 0.091634 0.861743
vt 0.098279 0.837018
vt 0.096181 0.861897
vn -0.000000 -0.000000 -1.000000
v 0.423791 2.564416 0.076684
vt 0.557218 0.309044
v 0.423791 2.806415 0.076684
vt 0.533954 0.309044
v 0.423791 2.806415 0.079709
vt 0.557218 0.332309
vt 0.533954 0.332309
v 0.423791 2.564416 0.079709
v 0.030541 2.564416 0.076684
v 0.030541 2.564416 0.079709
v 0.030541 2.806415 0.079709
v 0.030541 2.806415 0.076684
v 0.393541 2.773443 0.079714
v 0.393541 2.776468 0.079714
v 0.393541 2.776468 0.230964
v 0.393541 2.773443 0.230964
v 0.060791 2.773443 0.079714
v 0.060791 2.773443 0.230964
v 0.060791 2.776468 0.230964
v 0.060791 2.776468 0.079714
vt 0.509434 0.208448
vt 0.509434 0.221432
vt 0.552559 0.208448
vt 0.516413 0.225969
vt 0.516156 0.238948
vt 0.559520 0.227755
v 0.393541 2.685404 0.079714
vt 0.548779 0.210881
v 0.393541 2.776009 0.079714
vt 0.507513 0.219226
v 0.393541 2.776009 0.230964
vt 0.548779 0.204744
vt 0.507513 0.204744
v 0.393541 2.730333 0.230964
v 0.390516 2.685404 0.079714
v 0.390516 2.730333 0.230964
v 0.390516 2.776009 0.230964
v 0.390516 2.776009 0.079714
vn -0.000000 -0.958600 0.284800
v 0.063803 2.685427 0.079714
v 0.063803 2.776031 0.079714
v 0.063803 2.776031 0.230964
v 0.063803 2.730356 0.230964
v 0.060778 2.685427 0.079714
vt 0.552727 0.213615
v 0.060778 2.730356 0.230964
vt 0.511461 0.221960
v 0.060778 2.776031 0.230964
vt 0.552727 0.207478
vt 0.511461 0.207478
v 0.060778 2.776031 0.079714
v 0.393541 2.682548 0.079714
v 0.393541 2.685573 0.079714
v 0.393541 2.685573 0.230964
v 0.393541 2.682548 0.230964
v 0.060791 2.682548 0.079714
v 0.060791 2.682548 0.230964
v 0.060791 2.685573 0.230964
v 0.060791 2.685573 0.079714
vt 0.552559 0.221432
v 0.393541 2.594509 0.079714
v 0.393541 2.685114 0.079714
v 0.393541 2.685114 0.230964
v 0.393541 2.639437 0.230964
v 0.390516 2.594509 0.079714
v 0.390516 2.639437 0.230964
v 0.390516 2.685114 0.230964
v 0.390516 2.685114 0.079714
vn -0.000000 -0.958600 0.284700
v 0.063803 2.594532 0.079714
v 0.063803 2.685137 0.079714
v 0.063803 2.685137 0.230964
v 0.063803 2.639460 0.230964
v 0.060778 2.594532 0.079714
v 0.060778 2.639460 0.230964
v 0.060778 2.685137 0.230964
v 0.060778 2.685137 0.079714
v 0.209016 2.629579 0.022283
vt 0.135093 0.345490
v 0.209016 2.629579 -0.007967
vt 0.142641 0.345490
v 0.196916 2.629579 -0.007967
vt 0.134273 0.324729
vt 0.141821 0.324729
v 0.196916 2.629579 0.022283
v 0.209016 2.568472 -0.007967
vt 0.339034 0.797729
v 0.196916 2.568472 -0.007967
vt 0.339132 0.790605
vt 0.329643 0.798234
vt 0.329740 0.791109
v 0.209016 2.568472 0.022283
vt 0.182523 0.270881
vt 0.190071 0.270881
vt 0.181703 0.250121
vt 0.189251 0.250121
v 0.196916 2.568472 0.022283
vt 0.177033 0.330985
vt 0.184581 0.330985
vt 0.176213 0.310224
vt 0.183761 0.310224
v 0.257416 2.629579 0.022283
vt 0.137143 0.333684
v 0.257416 2.629579 -0.007967
vt 0.144691 0.333684
v 0.245316 2.629579 -0.007967
vt 0.136323 0.312923
vt 0.143871 0.312923
v 0.245316 2.629579 0.022283
v 0.257416 2.568472 -0.007967
vt 0.324033 0.801940
v 0.245316 2.568472 -0.007967
vt 0.324131 0.794815
vt 0.314642 0.802444
vt 0.314740 0.795320
v 0.257416 2.568472 0.022283
v 0.245316 2.568472 0.022283
vt 0.179083 0.319178
vt 0.186631 0.319178
vt 0.178263 0.298418
vt 0.185811 0.298418
vt 0.184573 0.259075
vt 0.192121 0.259075
vt 0.183753 0.238315
vt 0.191301 0.238315
v 0.195404 2.551901 -0.007967
vt 0.245211 0.306670
v 0.209923 2.551901 -0.029142
vt 0.223327 0.306670
v 0.244409 2.551901 -0.029142
vt 0.245211 0.328554
vt 0.223327 0.328554
v 0.258929 2.551901 -0.007967
v 0.195404 2.560975 -0.007967
vt 0.310848 0.789199
v 0.258929 2.560975 -0.007967
vt 0.310564 0.809855
v 0.244409 2.560975 -0.029142
vt 0.320736 0.789483
vt 0.320453 0.810139
v 0.209923 2.560975 -0.029142
vn 0.824700 -0.000000 -0.565500
vn -0.824700 -0.000000 -0.565500
vn -0.824800 -0.000000 -0.565500
v 0.268004 2.594251 0.022283
v 0.268004 2.594251 -0.007967
v 0.258929 2.594251 -0.007967
v 0.258929 2.594251 0.022283
v 0.268004 2.551901 0.022283
v 0.258929 2.551901 0.022283
v 0.268004 2.551901 -0.007967
vt 0.272239 0.794279
vt 0.272108 0.810251
vt 0.279370 0.795347
vt 0.279076 0.808169
v 0.195404 2.594251 0.022283
v 0.195404 2.594251 -0.007967
v 0.186329 2.594251 -0.007967
v 0.186329 2.594251 0.022283
v 0.195404 2.551901 0.022283
v 0.186329 2.551901 0.022283
v 0.186329 2.551901 -0.007967
vt 0.272016 0.793764
vt 0.272010 0.810899
vt 0.279831 0.796876
vt 0.279444 0.808226
v 0.258929 2.560975 0.022283
v 0.195404 2.560975 0.022283
v 0.272541 2.585175 0.010183
vt 0.097113 0.809924
v 0.272541 2.585175 0.004133
vt 0.089570 0.810073
v 0.181791 2.585175 0.004133
vt 0.097657 0.867699
vt 0.090114 0.867847
v 0.181791 2.585175 0.010183
v 0.272541 2.576101 0.010183
v 0.181791 2.576101 0.010183
v 0.181791 2.576101 0.004133
v 0.272541 2.576101 0.004133
v 0.226619 2.521654 -0.017922
vt 0.096543 0.844608
v 0.240794 2.521654 -0.004536
vt 0.093056 0.837134
v 0.238369 2.521654 0.023188
vt 0.095634 0.854724
vt 0.091384 0.863454
v 0.222085 2.521654 0.033909
v 0.050476 2.521654 -0.046693
vt 0.098881 0.836661
vt 0.096527 0.863459
v 0.043621 2.521654 0.031657
v 0.226619 2.551904 -0.017922
vt 0.255035 0.679051
v 0.222085 2.551904 0.033909
vt 0.263636 0.679051
v 0.238369 2.551904 0.023188
vt 0.257035 0.681578
vt 0.261636 0.681578
v 0.240794 2.551904 -0.004536
v 0.050476 2.551904 -0.046693
vt 0.252835 0.647811
v 0.043621 2.551904 0.031657
vt 0.265836 0.647811
vt 0.204763 0.505452
vn 0.996200 -0.000000 0.087100
vt 0.236661 0.497558
vt 0.204906 0.483888
vt 0.236087 0.477572
vt 0.238042 0.488980
vn 0.686600 -0.000000 -0.727100
vt 0.216851 0.496500
vt 0.237799 0.475809
vt 0.217579 0.480660
vn 0.161200 -0.000000 -0.986900
vt 0.107935 0.497614
vt 0.108772 0.476438
vn -0.012600 -0.000000 0.999900
vn 0.549900 -0.000000 0.835200
v -0.003653 2.554929 0.030558
vt 0.172570 0.330358
v 0.068671 2.554929 0.036885
vt 0.200662 0.327158
v 0.067616 2.554929 0.048939
vt 0.169370 0.302266
vt 0.197461 0.299066
v -0.004708 2.554929 0.042612
v -0.003653 2.567029 0.030558
vt 0.342932 0.696983
v -0.004708 2.567029 0.042612
vt 0.342500 0.660339
v 0.067616 2.567029 0.048939
vt 0.325391 0.697416
vt 0.324958 0.660771
v 0.068671 2.567029 0.036885
vn 0.996200 -0.000000 0.087200
vn 0.087100 -0.000000 -0.996200
vn -0.996200 -0.000000 -0.087200
vt 0.119661 0.496928
vn -0.087100 -0.000000 0.996200
vt 0.168371 0.491252
vt 0.119605 0.476599
vt 0.168114 0.476886
v 0.004784 2.554929 -0.065874
v 0.077107 2.554929 -0.059547
v 0.076053 2.554929 -0.047493
v 0.003729 2.554929 -0.053820
v 0.004784 2.567029 -0.065874
v 0.003729 2.567029 -0.053820
v 0.076053 2.567029 -0.047493
v 0.077107 2.567029 -0.059547
v -0.003653 2.506571 0.030558
v 0.068671 2.506571 0.036885
v 0.067616 2.506571 0.048939
v -0.004708 2.506571 0.042612
v -0.003653 2.518671 0.030558
v -0.004708 2.518671 0.042612
v 0.067616 2.518671 0.048939
v 0.068671 2.518671 0.036885
vn 0.087200 -0.000000 -0.996200
vn -0.087200 -0.000000 0.996200
v 0.004784 2.506571 -0.065874
v 0.077107 2.506571 -0.059547
v 0.076053 2.506571 -0.047493
v 0.003729 2.506571 -0.053820
v 0.004784 2.518671 -0.065874
v 0.003729 2.518671 -0.053820
v 0.076053 2.518671 -0.047493
v 0.077107 2.518671 -0.059547
v 0.000038 2.506361 -0.011631
vt 0.192642 0.299615
v -0.004708 2.506361 0.042612
vt 0.182331 0.312577
v -0.018585 2.506361 0.039535
vt 0.195645 0.302725
v -0.031193 2.506361 0.032972
vt 0.197741 0.306507
v -0.041673 2.506361 0.023369
vt 0.198787 0.310702
v -0.049311 2.506361 0.011380
vt 0.198712 0.315025
v -0.053585 2.506361 -0.002176
vt 0.197520 0.319181
v -0.054204 2.506361 -0.016377
vt 0.195293 0.322887
v -0.051128 2.506361 -0.030254
vt 0.192183 0.325890
v -0.044565 2.506361 -0.042863
vt 0.188401 0.327986
v -0.034962 2.506361 -0.053342
vt 0.184206 0.329033
v -0.022973 2.506361 -0.060980
vt 0.179883 0.328957
v -0.009417 2.506361 -0.065254
vt 0.175727 0.327765
v 0.004784 2.506361 -0.065874
vt 0.172021 0.325538
vn -0.043600 -0.000000 -0.999000
v -0.009417 2.518461 -0.065254
v 0.004784 2.518461 -0.065874
vn -0.300700 -0.000000 -0.953700
v -0.022973 2.518461 -0.060980
vn -0.537300 -0.000000 -0.843400
v -0.034962 2.518461 -0.053342
vn -0.737200 -0.000000 -0.675600
v -0.044565 2.518461 -0.042863
vn -0.737300 -0.000000 -0.675600
vn -0.887000 -0.000000 -0.461700
v -0.051128 2.518461 -0.030254
vn -0.976300 -0.000000 -0.216400
v -0.054204 2.518461 -0.016377
vn -0.999100 -0.000000 0.043500
v -0.053585 2.518461 -0.002176
vn -0.953700 -0.000000 0.300700
v -0.049311 2.518461 0.011380
vn -0.843400 -0.000000 0.537300
v -0.041673 2.518461 0.023369
vn -0.675600 -0.000000 0.737300
v -0.031193 2.518461 0.032972
vn -0.461700 -0.000000 0.887000
v -0.018585 2.518461 0.039535
vn -0.216500 -0.000000 0.976300
v -0.004708 2.518461 0.042612
v 0.000038 2.518461 -0.011631
vt 0.325032 0.667058
vt 0.332477 0.682057
vt 0.327120 0.663594
vt 0.329573 0.661389
vt 0.332224 0.660592
vt 0.334892 0.661257
vt 0.337396 0.663341
vt 0.339564 0.666699
vt 0.341250 0.671105
vt 0.342338 0.676257
vt 0.342753 0.681804
vt 0.342469 0.687368
vt 0.341503 0.692571
vt 0.339923 0.697057
v 0.000038 2.554929 -0.011631
vt 0.303271 0.601381
vt 0.287326 0.617326
v -0.018585 2.554929 0.039535
vt 0.306855 0.606051
v -0.031193 2.554929 0.032972
vt 0.309107 0.611490
v -0.041673 2.554929 0.023369
vt 0.309876 0.617326
v -0.049311 2.554929 0.011380
vt 0.309107 0.623162
v -0.053585 2.554929 -0.002176
vt 0.306855 0.628601
v -0.054204 2.554929 -0.016377
vt 0.303271 0.633271
v -0.051128 2.554929 -0.030254
vt 0.298601 0.636854
v -0.044565 2.554929 -0.042863
vt 0.293162 0.639107
v -0.034962 2.554929 -0.053342
vt 0.287326 0.639875
v -0.022974 2.554929 -0.060980
vt 0.281490 0.639107
v -0.009417 2.554929 -0.065254
vt 0.276051 0.636854
vt 0.271381 0.633271
v -0.009417 2.567029 -0.065254
v -0.022974 2.567029 -0.060980
v -0.034962 2.567029 -0.053342
v -0.044565 2.567029 -0.042863
v -0.051128 2.567029 -0.030254
v -0.054204 2.567029 -0.016377
v -0.053585 2.567029 -0.002176
v -0.049311 2.567029 0.011380
v -0.041673 2.567029 0.023369
v -0.031193 2.567029 0.032972
v -0.018585 2.567029 0.039535
v 0.000038 2.567029 -0.011631
v 0.040870 2.499874 -0.068790
vt 0.271381 0.639875
v 0.058951 2.499874 -0.067208
vt 0.309876 0.639875
v 0.048405 2.499874 0.053331
vt 0.271381 0.601381
vt 0.309876 0.601381
v 0.030324 2.499874 0.051750
v 0.040870 2.572474 -0.068790
v 0.030324 2.572474 0.051750
v 0.048405 2.572474 0.053331
v 0.058951 2.572474 -0.067208
vt 0.249876 0.633044
vt 0.288616 0.633044
vt 0.249876 0.671785
vt 0.288616 0.671785
v 0.216116 2.579580 0.046118
vt 0.539697 0.328873
vn -0.008800 -0.000000 1.000000
v 0.204016 2.579580 0.046012
vt 0.554116 0.328873
v 0.204016 2.564814 0.046012
vt 0.539697 0.314455
vt 0.554116 0.314455
v 0.216116 2.564814 0.046118
v 0.216222 2.579580 0.034018
vn 1.000000 -0.000000 0.008800
v 0.216222 2.564814 0.034018
v 0.204122 2.579580 0.033912
vn 0.008800 -0.000000 -1.000000
v 0.204122 2.564814 0.033912
vn -1.000000 -0.000000 -0.008800
v 0.203708 2.576887 0.024149
vt 0.472929 0.643430
v 0.225984 2.576887 0.033605
vt 0.493645 0.646573
v 0.216529 2.576887 0.055881
vt 0.472929 0.624413
vt 0.493645 0.627555
v 0.194253 2.576887 0.046425
v 0.203708 2.607138 0.024149
vn 0.390700 -0.000000 -0.920500
v 0.225984 2.607138 0.033605
v 0.194253 2.607138 0.046425
vn -0.920500 -0.000000 -0.390700
v 0.216529 2.607138 0.055881
vn -0.390700 -0.000000 0.920500
v 0.198498 2.528604 0.046065
v 0.210090 2.525134 0.046065
v 0.216169 2.566635 0.046065
v 0.204069 2.566635 0.046065
v 0.182254 2.493767 0.046065
v 0.192363 2.487118 0.046065
v 0.156700 2.465054 0.046065
v 0.164478 2.455785 0.046065
v 0.123986 2.444875 0.046065
v 0.128778 2.433764 0.046065
v 0.086857 2.434926 0.046065
v 0.088262 2.422908 0.046065
v 0.048436 2.436044 0.046065
v 0.046335 2.424128 0.046065
v 0.198498 2.528604 0.033965
vn -0.989400 0.144900 -0.000000
v 0.204069 2.566635 0.033965
v 0.182254 2.493767 0.033965
vn -0.906300 0.422600 -0.000000
v 0.156700 2.465054 0.033965
vn -0.747000 0.664800 -0.000000
v 0.123986 2.444875 0.033965
vn -0.525000 0.851100 -0.000000
v 0.086857 2.434926 0.033965
vn -0.258800 0.965900 -0.000000
v 0.048436 2.436044 0.033965
vn 0.029100 0.999600 -0.000000
v 0.210090 2.525134 0.033965
v 0.216169 2.566635 0.033965
v 0.192363 2.487118 0.033965
v 0.164478 2.455785 0.033965
v 0.128778 2.433764 0.033965
v 0.088262 2.422908 0.033965
v 0.046335 2.424128 0.033965
vn 0.989400 -0.144900 -0.000000
vn 0.906300 -0.422600 -0.000000
vn 0.747000 -0.664800 -0.000000
vn 0.525000 -0.851100 -0.000000
vn 0.258800 -0.965900 -0.000000
vn -0.029100 -0.999600 -0.000000
v -0.015198 2.446920 0.034018
vn 0.159800 0.984800 0.067800
v -0.015368 2.446117 0.046090
v 0.056291 2.434470 0.046325
v 0.056462 2.435274 0.034253
vn 0.159800 0.984800 0.067900
v -0.017132 2.435004 0.033197
vn 0.014100 0.066500 -0.997700
vn 0.014100 0.066400 -0.997700
v 0.054527 2.423357 0.033432
v -0.017302 2.434200 0.045269
vn -0.159800 -0.984800 -0.067800
v 0.054357 2.422553 0.045504
vn -0.159800 -0.984800 -0.067900
vn -0.014100 -0.066500 0.997700
v -0.012172 2.420485 0.019189
v 0.012028 2.420485 0.055489
v -0.012172 2.420485 0.055489
v 0.012028 2.420485 0.019189
v -0.012172 2.456786 0.019189
v 0.012028 2.456786 0.055489
v 0.012028 2.456786 0.019189
v -0.012172 2.456786 0.055489
f 1/1/1 2/2/1 3/3/1
f 1/4/1 4/2/1 2/1/1
f 1/5/1 5/2/1 4/4/1
f 1/6/1 6/2/1 5/5/1
f 1/7/1 7/2/1 6/6/1
f 1/8/1 8/2/1 7/7/1
f 1/9/1 9/2/1 8/8/1
f 1/10/1 10/2/1 9/9/1
f 1/11/1 11/2/1 10/10/1
f 1/12/1 12/2/1 11/11/1
f 1/13/1 13/2/1 12/12/1
f 1/14/1 14/2/1 13/13/1
f 1/15/1 15/2/1 14/14/1
f 1/16/1 16/2/1 15/15/1
f 1/17/1 17/2/1 16/16/1
f 1/18/1 18/2/1 17/17/1
f 1/19/1 19/2/1 18/18/1
f 1/20/1 20/2/1 19/19/1
f 1/21/1 21/2/1 20/20/1
f 1/22/1 22/2/1 21/21/1
f 1/23/1 23/2/1 22/22/1
f 1/24/1 24/2/1 23/23/1
f 1/25/1 25/2/1 24/24/1
f 1/26/1 26/2/1 25/25/1
f 1/27/1 27/2/1 26/26/1
f 1/28/1 28/2/1 27/27/1
f 1/29/1 29/2/1 28/28/1
f 1/30/1 30/2/1 29/29/1
f 1/31/1 31/2/1 30/30/1
f 1/3/1 3/2/1 31/31/1
f 3/32/2 32/33/2 33/34/2
f 3/35/2 2/33/2 32/32/2
f 2/32/3 34/33/3 32/34/3
f 2/35/3 4/33/3 34/32/3
f 4/32/4 35/33/4 34/34/4
f 4/35/4 5/33/4 35/32/4
f 5/32/5 36/33/5 35/34/5
f 5/35/5 6/33/5 36/32/5
f 6/32/6 37/33/6 36/34/6
f 6/35/6 7/33/6 37/32/6
f 7/32/7 38/33/7 37/34/7
f 7/35/7 8/33/8 38/32/7
f 8/32/9 39/33/9 38/34/9
f 8/35/9 9/33/9 39/32/9
f 9/32/10 40/33/10 39/34/10
f 9/35/10 10/33/10 40/32/10
f 10/32/11 41/33/11 40/34/11
f 10/35/11 11/33/11 41/32/11
f 11/32/12 42/33/12 41/34/13
f 11/35/12 12/33/12 42/32/12
f 12/32/14 43/33/14 42/34/14
f 12/35/14 13/33/14 43/32/14
f 13/32/15 44/33/15 43/34/15
f 13/35/15 14/33/15 44/32/15
f 14/32/16 45/33/16 44/34/16
f 14/35/16 15/33/16 45/32/16
f 15/32/17 46/33/17 45/34/17
f 15/35/17 16/33/17 46/32/17
f 16/32/18 47/33/18 46/34/18
f 16/35/18 17/33/18 47/32/18
f 17/32/19 48/33/19 47/34/19
f 17/35/19 18/33/19 48/32/19
f 18/32/20 49/33/20 48/34/20
f 18/35/20 19/33/20 49/32/20
f 19/32/21 50/33/21 49/34/21
f 19/35/21 20/33/21 50/32/21
f 20/32/22 51/33/22 50/34/22
f 20/35/22 21/33/22 51/32/22
f 21/32/23 52/33/23 51/34/23
f 21/35/23 22/33/23 52/32/23
f 22/32/24 53/33/24 52/34/25
f 22/35/24 23/33/24 53/32/24
f 23/32/26 54/33/26 53/34/26
f 23/35/26 24/33/26 54/32/26
f 24/32/27 55/33/27 54/34/27
f 24/35/27 25/33/27 55/32/27
f 25/32/28 56/33/28 55/34/28
f 25/35/28 26/33/28 56/32/28
f 26/32/29 57/33/29 56/34/29
f 26/35/29 27/33/30 57/32/29
f 27/32/31 58/33/31 57/34/31
f 27/35/31 28/33/31 58/32/31
f 28/32/32 59/33/32 58/34/32
f 28/35/32 29/33/32 59/32/32
f 29/32/33 60/33/33 59/34/33
f 29/35/33 30/33/33 60/32/33
f 30/32/34 61/33/34 60/34/34
f 30/35/34 31/33/34 61/32/34
f 31/32/35 33/33/35 61/34/35
f 31/35/35 3/33/35 33/32/35
f 62/1/1 63/2/1 64/3/1
f 62/4/1 65/2/1 63/1/1
f 62/5/1 66/2/1 65/4/1
f 62/6/1 67/2/1 66/5/1
f 62/7/1 68/2/1 67/6/1
f 62/8/1 69/2/1 68/7/1
f 62/9/1 70/2/1 69/8/1
f 62/10/1 71/2/1 70/9/1
f 62/11/1 72/2/1 71/10/1
f 62/12/1 73/2/1 72/11/1
f 62/13/1 74/2/1 73/12/1
f 62/14/1 75/2/1 74/13/1
f 62/15/1 76/2/1 75/14/1
f 62/16/1 77/2/1 76/15/1
f 62/17/1 78/2/1 77/16/1
f 62/18/1 79/2/1 78/17/1
f 62/19/1 80/2/1 79/18/1
f 62/20/1 81/2/1 80/19/1
f 62/21/1 82/2/1 81/20/1
f 62/22/1 83/2/1 82/21/1
f 62/23/1 84/2/1 83/22/1
f 62/24/1 85/2/1 84/23/1
f 62/25/1 86/2/1 85/24/1
f 62/26/1 87/2/1 86/25/1
f 62/27/1 88/2/1 87/26/1
f 62/28/1 89/2/1 88/27/1
f 62/29/1 90/2/1 89/28/1
f 62/30/1 91/2/1 90/29/1
f 62/31/1 92/2/1 91/30/1
f 62/3/1 64/2/1 92/31/1
f 64/32/2 93/33/2 94/34/2
f 64/35/2 63/33/2 93/32/2
f 63/32/3 95/33/3 93/34/3
f 63/35/3 65/33/3 95/32/3
f 65/32/4 96/33/4 95/34/4
f 65/35/4 66/33/4 96/32/4
f 66/32/5 97/33/5 96/34/5
f 66/35/5 67/33/5 97/32/5
f 67/32/6 98/33/6 97/34/6
f 67/35/6 68/33/6 98/32/6
f 68/32/7 99/33/7 98/34/8
f 68/35/7 69/33/7 99/32/7
f 69/32/36 100/33/36 99/34/36
f 69/35/36 70/33/36 100/32/36
f 70/32/10 101/33/10 100/34/10
f 70/35/10 71/33/10 101/32/10
f 71/32/37 102/33/37 101/34/37
f 71/35/37 72/33/37 102/32/37
f 72/32/12 103/33/12 102/34/12
f 72/35/12 73/33/13 103/32/12
f 73/32/14 104/33/14 103/34/14
f 73/35/14 74/33/14 104/32/14
f 74/32/15 105/33/15 104/34/15
f 74/35/15 75/33/15 105/32/15
f 75/32/16 106/33/16 105/34/16
f 75/35/16 76/33/16 106/32/16
f 76/32/17 107/33/17 106/34/17
f 76/35/17 77/33/17 107/32/17
f 77/32/18 108/33/18 107/34/18
f 77/35/18 78/33/18 108/32/18
f 78/32/19 109/33/19 108/34/19
f 78/35/19 79/33/19 109/32/19
f 79/32/20 110/33/20 109/34/20
f 79/35/20 80/33/20 110/32/20
f 80/32/38 111/33/38 110/34/38
f 80/35/38 81/33/38 111/32/38
f 81/32/39 112/33/22 111/34/39
f 81/35/39 82/33/22 112/32/22
f 82/32/23 113/33/23 112/34/23
f 82/35/23 83/33/23 113/32/23
f 83/32/24 114/33/24 113/34/24
f 83/35/24 84/33/25 114/32/24
f 84/32/40 115/33/40 114/34/40
f 84/35/40 85/33/40 115/32/40
f 85/32/27 116/33/27 115/34/27
f 85/35/27 86/33/27 116/32/27
f 86/32/41 117/33/41 116/34/41
f 86/35/41 87/33/41 117/32/41
f 87/32/29 118/33/29 117/34/30
f 87/35/29 88/33/29 118/32/29
f 88/32/31 119/33/31 118/34/31
f 88/35/31 89/33/31 119/32/31
f 89/32/42 120/33/42 119/34/42
f 89/35/42 90/33/42 120/32/42
f 90/32/33 121/33/33 120/34/33
f 90/35/33 91/33/33 121/32/33
f 91/32/34 122/33/34 121/34/34
f 91/35/34 92/33/34 122/32/34
f 92/32/35 94/33/35 122/34/35
f 92/35/35 64/33/35 94/32/35
f 123/1/1 124/2/1 125/3/1
f 123/4/1 126/2/1 124/1/1
f 123/5/1 127/2/1 126/4/1
f 123/6/1 128/2/1 127/5/1
f 123/7/1 129/2/1 128/6/1
f 123/8/1 130/2/1 129/7/1
f 123/9/1 131/2/1 130/8/1
f 123/10/1 132/2/1 131/9/1
f 123/11/1 133/2/1 132/10/1
f 123/12/1 134/2/1 133/11/1
f 123/13/1 135/2/1 134/12/1
f 123/14/1 136/2/1 135/13/1
f 123/15/1 137/2/1 136/14/1
f 123/16/1 138/2/1 137/15/1
f 123/17/1 139/2/1 138/16/1
f 123/18/1 140/2/1 139/17/1
f 123/19/1 141/2/1 140/18/1
f 123/20/1 142/2/1 141/19/1
f 123/21/1 143/2/1 142/20/1
f 123/22/1 144/2/1 143/21/1
f 123/23/1 145/2/1 144/22/1
f 123/24/1 146/2/1 145/23/1
f 123/25/1 147/2/1 146/24/1
f 123/26/1 148/2/1 147/25/1
f 123/27/1 149/2/1 148/26/1
f 123/28/1 150/2/1 149/27/1
f 123/29/1 151/2/1 150/28/1
f 123/30/1 152/2/1 151/29/1
f 123/31/1 153/2/1 152/30/1
f 123/3/1 125/2/1 153/31/1
f 125/32/2 154/33/2 155/34/2
f 125/35/2 124/33/2 154/32/2
f 124/32/3 156/33/3 154/34/3
f 124/35/3 126/33/3 156/32/3
f 126/32/4 157/33/4 156/34/4
f 126/35/4 127/33/4 157/32/4
f 127/32/5 158/33/5 157/34/5
f 127/35/5 128/33/5 158/32/5
f 128/32/6 159/33/6 158/34/6
f 128/35/6 129/33/6 159/32/6
f 129/32/7 160/33/7 159/34/7
f 129/35/7 130/33/8 160/32/7
f 130/32/9 161/33/9 160/34/9
f 130/35/9 131/33/9 161/32/9
f 131/32/10 162/33/10 161/34/10
f 131/35/10 132/33/10 162/32/10
f 132/32/11 163/33/11 162/34/11
f 132/35/11 133/33/11 163/32/11
f 133/32/12 164/33/12 163/34/13
f 133/35/12 134/33/12 164/32/12
f 134/32/14 165/33/14 164/34/14
f 134/35/14 135/33/14 165/32/14
f 135/32/15 166/33/15 165/34/15
f 135/35/15 136/33/15 166/32/15
f 136/32/16 167/33/16 166/34/16
f 136/35/16 137/33/16 167/32/16
f 137/32/17 168/33/17 167/34/17
f 137/35/17 138/33/17 168/32/17
f 138/32/18 169/33/18 168/34/18
f 138/35/18 139/33/18 169/32/18
f 139/32/19 170/33/19 169/34/19
f 139/35/19 140/33/19 170/32/19
f 140/32/20 171/33/20 170/34/20
f 140/35/20 141/33/20 171/32/20
f 141/32/21 172/33/21 171/34/21
f 141/35/21 142/33/21 172/32/21
f 142/32/22 173/33/22 172/34/22
f 142/35/22 143/33/22 173/32/22
f 143/32/23 174/33/23 173/34/23
f 143/35/23 144/33/23 174/32/23
f 144/32/24 175/33/24 174/34/25
f 144/35/24 145/33/24 175/32/24
f 145/32/26 176/33/26 175/34/26
f 145/35/26 146/33/26 176/32/26
f 146/32/27 177/33/27 176/34/27
f 146/35/27 147/33/27 177/32/27
f 147/32/28 178/33/28 177/34/28
f 147/35/28 148/33/28 178/32/28
f 148/32/29 179/33/29 178/34/29
f 148/35/29 149/33/30 179/32/29
f 149/32/31 180/33/31 179/34/31
f 149/35/31 150/33/31 180/32/31
f 150/32/32 181/33/32 180/34/32
f 150/35/32 151/33/32 181/32/32
f 151/32/33 182/33/33 181/34/33
f 151/35/33 152/33/33 182/32/33
f 152/32/34 183/33/34 182/34/34
f 152/35/34 153/33/34 183/32/34
f 153/32/35 155/33/35 183/34/35
f 153/35/35 125/33/35 155/32/35
f 184/1/1 185/2/1 186/3/1
f 184/4/1 187/2/1 185/1/1
f 184/5/1 188/2/1 187/4/1
f 184/6/1 189/2/1 188/5/1
f 184/7/1 190/2/1 189/6/1
f 184/8/1 191/2/1 190/7/1
f 184/9/1 192/2/1 191/8/1
f 184/10/1 193/2/1 192/9/1
f 184/11/1 194/2/1 193/10/1
f 184/12/1 195/2/1 194/11/1
f 184/13/1 196/2/1 195/12/1
f 184/14/1 197/2/1 196/13/1
f 184/15/1 198/2/1 197/14/1
f 184/16/1 199/2/1 198/15/1
f 184/17/1 200/2/1 199/16/1
f 184/18/1 201/2/1 200/17/1
f 184/19/1 202/2/1 201/18/1
f 184/20/1 203/2/1 202/19/1
f 184/21/1 204/2/1 203/20/1
f 184/22/1 205/2/1 204/21/1
f 184/23/1 206/2/1 205/22/1
f 184/24/1 207/2/1 206/23/1
f 184/25/1 208/2/1 207/24/1
f 184/26/1 209/2/1 208/25/1
f 184/27/1 210/2/1 209/26/1
f 184/28/1 211/2/1 210/27/1
f 184/29/1 212/2/1 211/28/1
f 184/30/1 213/2/1 212/29/1
f 184/31/1 214/2/1 213/30/1
f 184/3/1 186/2/1 214/31/1
f 186/32/2 215/33/2 216/34/2
f 186/35/2 185/33/2 215/32/2
f 185/32/3 217/33/3 215/34/3
f 185/35/3 187/33/3 217/32/3
f 187/32/4 218/33/4 217/34/4
f 187/35/4 188/33/4 218/32/4
f 188/32/5 219/33/5 218/34/5
f 188/35/5 189/33/5 219/32/5
f 189/32/6 220/33/6 219/34/6
f 189/35/6 190/33/6 220/32/6
f 190/32/7 221/33/7 220/34/8
f 190/35/7 191/33/7 221/32/7
f 191/32/36 222/33/36 221/34/36
f 191/35/36 192/33/36 222/32/36
f 192/32/10 223/33/10 222/34/10
f 192/35/10 193/33/10 223/32/10
f 193/32/37 224/33/37 223/34/37
f 193/35/37 194/33/37 224/32/37
f 194/32/12 225/33/12 224/34/12
f 194/35/12 195/33/13 225/32/12
f 195/32/14 226/33/14 225/34/14
f 195/35/14 196/33/14 226/32/14
f 196/32/15 227/33/15 226/34/15
f 196/35/15 197/33/15 227/32/15
f 197/32/16 228/33/16 227/34/16
f 197/35/16 198/33/16 228/32/16
f 198/32/17 229/33/17 228/34/17
f 198/35/17 199/33/17 229/32/17
f 199/32/18 230/33/18 229/34/18
f 199/35/18 200/33/18 230/32/18
f 200/32/19 231/33/19 230/34/19
f 200/35/19 201/33/19 231/32/19
f 201/32/20 232/33/20 231/34/20
f 201/35/20 202/33/20 232/32/20
f 202/32/38 233/33/38 232/34/38
f 202/35/38 203/33/38 233/32/38
f 203/32/22 234/33/22 233/34/39
f 203/35/22 204/33/22 234/32/22
f 204/32/23 235/33/23 234/34/23
f 204/35/23 205/33/23 235/32/23
f 205/32/24 236/33/24 235/34/24
f 205/35/24 206/33/25 236/32/24
f 206/32/40 237/33/40 236/34/40
f 206/35/40 207/33/40 237/32/40
f 207/32/27 238/33/27 237/34/27
f 207/35/27 208/33/27 238/32/27
f 208/32/41 239/33/41 238/34/41
f 208/35/41 209/33/41 239/32/41
f 209/32/29 240/33/29 239/34/30
f 209/35/29 210/33/29 240/32/29
f 210/32/31 241/33/31 240/34/31
f 210/35/31 211/33/31 241/32/31
f 211/32/42 242/33/42 241/34/42
f 211/35/42 212/33/32 242/32/42
f 212/32/33 243/33/33 242/34/33
f 212/35/33 213/33/33 243/32/33
f 213/32/34 244/33/34 243/34/34
f 213/35/34 214/33/34 244/32/34
f 214/32/35 216/33/35 244/34/35
f 214/35/35 186/33/35 216/32/35
f 245/1/1 246/2/1 247/3/1
f 245/4/1 248/2/1 246/1/1
f 245/5/1 249/2/1 248/4/1
f 245/6/1 250/2/1 249/5/1
f 245/7/1 251/2/1 250/6/1
f 245/8/1 252/2/1 251/7/1
f 245/9/1 253/2/1 252/8/1
f 245/10/1 254/2/1 253/9/1
f 245/11/1 255/2/1 254/10/1
f 245/12/1 256/2/1 255/11/1
f 245/13/1 257/2/1 256/12/1
f 245/14/1 258/2/1 257/13/1
f 245/15/1 259/2/1 258/14/1
f 245/16/1 260/2/1 259/15/1
f 245/17/1 261/2/1 260/16/1
f 245/18/1 262/2/1 261/17/1
f 245/19/1 263/2/1 262/18/1
f 245/20/1 264/2/1 263/19/1
f 245/21/1 265/2/1 264/20/1
f 245/22/1 266/2/1 265/21/1
f 245/23/1 267/2/1 266/22/1
f 245/24/1 268/2/1 267/23/1
f 245/25/1 269/2/1 268/24/1
f 245/26/1 270/2/1 269/25/1
f 245/27/1 271/2/1 270/26/1
f 245/28/1 272/2/1 271/27/1
f 245/29/1 273/2/1 272/28/1
f 245/30/1 274/2/1 273/29/1
f 245/31/1 275/2/1 274/30/1
f 245/3/1 247/2/1 275/31/1
f 247/32/2 276/33/2 277/34/2
f 247/35/2 246/33/2 276/32/2
f 246/32/3 278/33/3 276/34/3
f 246/35/3 248/33/3 278/32/3
f 248/32/4 279/33/4 278/34/4
f 248/35/4 249/33/4 279/32/4
f 249/32/5 280/33/5 279/34/5
f 249/35/5 250/33/5 280/32/5
f 250/32/6 281/33/6 280/34/6
f 250/35/6 251/33/6 281/32/6
f 251/32/7 282/33/7 281/34/7
f 251/35/7 252/33/8 282/32/7
f 252/32/9 283/33/9 282/34/9
f 252/35/9 253/33/9 283/32/9
f 253/32/10 284/33/10 283/34/10
f 253/35/10 254/33/10 284/32/10
f 254/32/11 285/33/11 284/34/11
f 254/35/11 255/33/11 285/32/11
f 255/32/12 286/33/12 285/34/13
f 255/35/12 256/33/12 286/32/12
f 256/32/14 287/33/14 286/34/14
f 256/35/14 257/33/14 287/32/14
f 257/32/15 288/33/15 287/34/15
f 257/35/15 258/33/15 288/32/15
f 258/32/16 289/33/16 288/34/16
f 258/35/16 259/33/16 289/32/16
f 259/32/17 290/33/17 289/34/17
f 259/35/17 260/33/17 290/32/17
f 260/32/18 291/33/18 290/34/18
f 260/35/18 261/33/18 291/32/18
f 261/32/19 292/33/19 291/34/19
f 261/35/19 262/33/19 292/32/19
f 262/32/20 293/33/20 292/34/20
f 262/35/20 263/33/20 293/32/20
f 263/32/21 294/33/21 293/34/21
f 263/35/21 264/33/21 294/32/21
f 264/32/22 295/33/22 294/34/22
f 264/35/22 265/33/22 295/32/22
f 265/32/23 296/33/23 295/34/23
f 265/35/23 266/33/23 296/32/23
f 266/32/24 297/33/24 296/34/24
f 266/35/24 267/33/24 297/32/24
f 267/32/26 298/33/26 297/34/26
f 267/35/26 268/33/26 298/32/26
f 268/32/27 299/33/27 298/34/27
f 268/35/27 269/33/27 299/32/27
f 269/32/28 300/33/28 299/34/28
f 269/35/28 270/33/28 300/32/28
f 270/32/29 301/33/29 300/34/29
f 270/35/29 271/33/29 301/32/29
f 271/32/31 302/33/31 301/34/31
f 271/35/31 272/33/31 302/32/31
f 272/32/32 303/33/32 302/34/32
f 272/35/32 273/33/32 303/32/32
f 273/32/33 304/33/33 303/34/33
f 273/35/33 274/33/33 304/32/33
f 274/32/34 305/33/34 304/34/34
f 274/35/34 275/33/34 305/32/34
f 275/32/35 277/33/35 305/34/35
f 275/35/35 247/33/35 277/32/35
f 306/1/1 307/2/1 308/3/1
f 306/4/1 309/2/1 307/1/1
f 306/5/1 310/2/1 309/4/1
f 306/6/1 311/2/1 310/5/1
f 306/7/1 312/2/1 311/6/1
f 306/8/1 313/2/1 312/7/1
f 306/9/1 314/2/1 313/8/1
f 306/10/1 315/2/1 314/9/1
f 306/11/1 316/2/1 315/10/1
f 306/12/1 317/2/1 316/11/1
f 306/13/1 318/2/1 317/12/1
f 306/14/1 319/2/1 318/13/1
f 306/15/1 320/2/1 319/14/1
f 306/16/1 321/2/1 320/15/1
f 306/17/1 322/2/1 321/16/1
f 306/18/1 323/2/1 322/17/1
f 306/19/1 324/2/1 323/18/1
f 306/20/1 325/2/1 324/19/1
f 306/21/1 326/2/1 325/20/1
f 306/22/1 327/2/1 326/21/1
f 306/23/1 328/2/1 327/22/1
f 306/24/1 329/2/1 328/23/1
f 306/25/1 330/2/1 329/24/1
f 306/26/1 331/2/1 330/25/1
f 306/27/1 332/2/1 331/26/1
f 306/28/1 333/2/1 332/27/1
f 306/29/1 334/2/1 333/28/1
f 306/30/1 335/2/1 334/29/1
f 306/31/1 336/2/1 335/30/1
f 306/3/1 308/2/1 336/31/1
f 308/32/2 337/33/2 338/34/2
f 308/35/2 307/33/2 337/32/2
f 307/32/3 339/33/3 337/34/3
f 307/35/3 309/33/3 339/32/3
f 309/32/4 340/33/4 339/34/4
f 309/35/4 310/33/4 340/32/4
f 310/32/5 341/33/5 340/34/5
f 310/35/5 311/33/5 341/32/5
f 311/32/6 342/33/6 341/34/6
f 311/35/6 312/33/6 342/32/6
f 312/32/7 343/33/7 342/34/7
f 312/35/7 313/33/7 343/32/7
f 313/32/36 344/33/36 343/34/36
f 313/35/36 314/33/36 344/32/36
f 314/32/10 345/33/10 344/34/10
f 314/35/10 315/33/10 345/32/10
f 315/32/37 346/33/37 345/34/37
f 315/35/37 316/33/37 346/32/37
f 316/32/12 347/33/12 346/34/12
f 316/35/12 317/33/12 347/32/12
f 317/32/14 348/33/14 347/34/14
f 317/35/14 318/33/14 348/32/14
f 318/32/15 349/33/15 348/34/15
f 318/35/15 319/33/15 349/32/15
f 319/32/16 350/33/16 349/34/16
f 319/35/16 320/33/16 350/32/16
f 320/32/17 351/33/17 350/34/17
f 320/35/17 321/33/17 351/32/17
f 321/32/18 352/33/18 351/34/18
f 321/35/18 322/33/18 352/32/18
f 322/32/19 353/33/19 352/34/19
f 322/35/19 323/33/19 353/32/19
f 323/32/20 354/33/20 353/34/20
f 323/35/20 324/33/20 354/32/20
f 324/32/38 355/33/38 354/34/38
f 324/35/38 325/33/38 355/32/38
f 325/32/22 356/33/22 355/34/22
f 325/35/22 326/33/22 356/32/22
f 326/32/23 357/33/23 356/34/23
f 326/35/23 327/33/23 357/32/23
f 327/32/24 358/33/24 357/34/24
f 327/35/24 328/33/25 358/32/24
f 328/32/40 359/33/40 358/34/40
f 328/35/40 329/33/40 359/32/40
f 329/32/27 360/33/27 359/34/27
f 329/35/27 330/33/27 360/32/27
f 330/32/41 361/33/41 360/34/41
f 330/35/41 331/33/41 361/32/41
f 331/32/29 362/33/29 361/34/30
f 331/35/29 332/33/29 362/32/29
f 332/32/31 363/33/31 362/34/31
f 332/35/31 333/33/31 363/32/31
f 333/32/42 364/33/42 363/34/42
f 333/35/42 334/33/42 364/32/42
f 334/32/33 365/33/33 364/34/33
f 334/35/33 335/33/33 365/32/33
f 335/32/34 366/33/34 365/34/34
f 335/35/34 336/33/34 366/32/34
f 336/32/35 338/33/35 366/34/35
f 336/35/35 308/33/35 338/32/35
f 367/1/1 368/2/1 369/3/1
f 367/4/1 370/2/1 368/1/1
f 367/5/1 371/2/1 370/4/1
f 367/6/1 372/2/1 371/5/1
f 367/7/1 373/2/1 372/6/1
f 367/8/1 374/2/1 373/7/1
f 367/9/1 375/2/1 374/8/1
f 367/10/1 376/2/1 375/9/1
f 367/11/1 377/2/1 376/10/1
f 367/12/1 378/2/1 377/11/1
f 367/13/1 379/2/1 378/12/1
f 367/14/1 380/2/1 379/13/1
f 367/15/1 381/2/1 380/14/1
f 367/16/1 382/2/1 381/15/1
f 367/17/1 383/2/1 382/16/1
f 367/18/1 384/2/1 383/17/1
f 367/19/1 385/2/1 384/18/1
f 367/20/1 386/2/1 385/19/1
f 367/21/1 387/2/1 386/20/1
f 367/22/1 388/2/1 387/21/1
f 367/23/1 389/2/1 388/22/1
f 367/24/1 390/2/1 389/23/1
f 367/25/1 391/2/1 390/24/1
f 367/26/1 392/2/1 391/25/1
f 367/27/1 393/2/1 392/26/1
f 367/28/1 394/2/1 393/27/1
f 367/29/1 395/2/1 394/28/1
f 367/30/1 396/2/1 395/29/1
f 367/31/1 397/2/1 396/30/1
f 367/3/1 369/2/1 397/31/1
f 369/32/2 398/33/2 399/34/2
f 369/35/2 368/33/2 398/32/2
f 368/32/3 400/33/3 398/34/3
f 368/35/3 370/33/3 400/32/3
f 370/32/4 401/33/4 400/34/4
f 370/35/4 371/33/4 401/32/4
f 371/32/5 402/33/5 401/34/5
f 371/35/5 372/33/5 402/32/5
f 372/32/6 403/33/6 402/34/6
f 372/35/6 373/33/6 403/32/6
f 373/32/7 404/33/7 403/34/7
f 373/35/7 374/33/8 404/32/7
f 374/32/9 405/33/9 404/34/9
f 374/35/9 375/33/9 405/32/9
f 375/32/10 406/33/10 405/34/10
f 375/35/10 376/33/10 406/32/10
f 376/32/11 407/33/11 406/34/11
f 376/35/11 377/33/11 407/32/11
f 377/32/12 408/33/12 407/34/12
f 377/35/12 378/33/12 408/32/12
f 378/32/14 409/33/14 408/34/14
f 378/35/14 379/33/14 409/32/14
f 379/32/15 410/33/15 409/34/15
f 379/35/15 380/33/15 410/32/15
f 380/32/16 411/33/16 410/34/16
f 380/35/16 381/33/16 411/32/16
f 381/32/17 412/33/17 411/34/17
f 381/35/17 382/33/17 412/32/17
f 382/32/18 413/33/18 412/34/18
f 382/35/18 383/33/18 413/32/18
f 383/32/19 414/33/19 413/34/19
f 383/35/19 384/33/19 414/32/19
f 384/32/20 415/33/20 414/34/20
f 384/35/20 385/33/20 415/32/20
f 385/32/21 416/33/21 415/34/21
f 385/35/21 386/33/21 416/32/21
f 386/32/22 417/33/22 416/34/22
f 386/35/22 387/33/22 417/32/22
f 387/32/23 418/33/23 417/34/23
f 387/35/23 388/33/23 418/32/23
f 388/32/24 419/33/24 418/34/25
f 388/35/24 389/33/24 419/32/24
f 389/32/26 420/33/26 419/34/26
f 389/35/26 390/33/26 420/32/26
f 390/32/27 421/33/27 420/34/27
f 390/35/27 391/33/27 421/32/27
f 391/32/28 422/33/28 421/34/28
f 391/35/28 392/33/28 422/32/28
f 392/32/29 423/33/29 422/34/29
f 392/35/29 393/33/30 423/32/29
f 393/32/31 424/33/31 423/34/31
f 393/35/31 394/33/31 424/32/31
f 394/32/32 425/33/32 424/34/32
f 394/35/32 395/33/32 425/32/32
f 395/32/33 426/33/33 425/34/33
f 395/35/33 396/33/33 426/32/33
f 396/32/34 427/33/34 426/34/34
f 396/35/34 397/33/34 427/32/34
f 397/32/35 399/33/35 427/34/35
f 397/35/35 369/33/35 399/32/35
f 428/1/1 429/2/1 430/3/1
f 428/4/1 431/2/1 429/1/1
f 428/5/1 432/2/1 431/4/1
f 428/6/1 433/2/1 432/5/1
f 428/7/1 434/2/1 433/6/1
f 428/8/1 435/2/1 434/7/1
f 428/9/1 436/2/1 435/8/1
f 428/10/1 437/2/1 436/9/1
f 428/11/1 438/2/1 437/10/1
f 428/12/1 439/2/1 438/11/1
f 428/13/1 440/2/1 439/12/1
f 428/14/1 441/2/1 440/13/1
f 428/15/1 442/2/1 441/14/1
f 428/16/1 443/2/1 442/15/1
f 428/17/1 444/2/1 443/16/1
f 428/18/1 445/2/1 444/17/1
f 428/19/1 446/2/1 445/18/1
f 428/20/1 447/2/1 446/19/1
f 428/21/1 448/2/1 447/20/1
f 428/22/1 449/2/1 448/21/1
f 428/23/1 450/2/1 449/22/1
f 428/24/1 451/2/1 450/23/1
f 428/25/1 452/2/1 451/24/1
f 428/26/1 453/2/1 452/25/1
f 428/27/1 454/2/1 453/26/1
f 428/28/1 455/2/1 454/27/1
f 428/29/1 456/2/1 455/28/1
f 428/30/1 457/2/1 456/29/1
f 428/31/1 458/2/1 457/30/1
f 428/3/1 430/2/1 458/31/1
f 430/32/2 459/33/2 460/34/2
f 430/35/2 429/33/2 459/32/2
f 429/32/3 461/33/3 459/34/3
f 429/35/3 431/33/3 461/32/3
f 431/32/4 462/33/4 461/34/4
f 431/35/4 432/33/4 462/32/4
f 432/32/5 463/33/5 462/34/5
f 432/35/5 433/33/5 463/32/5
f 433/32/6 464/33/6 463/34/6
f 433/35/6 434/33/6 464/32/6
f 434/32/7 465/33/7 464/34/8
f 434/35/7 435/33/7 465/32/7
f 435/32/36 466/33/36 465/34/36
f 435/35/36 436/33/36 466/32/36
f 436/32/10 467/33/10 466/34/10
f 436/35/10 437/33/10 467/32/10
f 437/32/37 468/33/37 467/34/37
f 437/35/37 438/33/37 468/32/37
f 438/32/12 469/33/12 468/34/12
f 438/35/12 439/33/13 469/32/12
f 439/32/14 470/33/14 469/34/14
f 439/35/14 440/33/14 470/32/14
f 440/32/15 471/33/15 470/34/15
f 440/35/15 441/33/15 471/32/15
f 441/32/16 472/33/16 471/34/16
f 441/35/16 442/33/16 472/32/16
f 442/32/17 473/33/17 472/34/17
f 442/35/17 443/33/17 473/32/17
f 443/32/18 474/33/18 473/34/18
f 443/35/18 444/33/18 474/32/18
f 444/32/19 475/33/19 474/34/19
f 444/35/19 445/33/19 475/32/19
f 445/32/20 476/33/20 475/34/20
f 445/35/20 446/33/20 476/32/20
f 446/32/38 477/33/38 476/34/38
f 446/35/38 447/33/38 477/32/38
f 447/32/39 478/33/39 477/34/22
f 447/35/39 448/33/39 478/32/39
f 448/32/23 479/33/23 478/34/23
f 448/35/23 449/33/23 479/32/23
f 449/32/24 480/33/24 479/34/24
f 449/35/24 450/33/24 480/32/24
f 450/32/40 481/33/40 480/34/40
f 450/35/40 451/33/40 481/32/40
f 451/32/27 482/33/27 481/34/27
f 451/35/27 452/33/27 482/32/27
f 452/32/41 483/33/41 482/34/41
f 452/35/41 453/33/41 483/32/41
f 453/32/29 484/33/29 483/34/30
f 453/35/29 454/33/29 484/32/29
f 454/32/31 485/33/31 484/34/31
f 454/35/31 455/33/31 485/32/31
f 455/32/42 486/33/42 485/34/42
f 455/35/42 456/33/42 486/32/42
f 456/32/33 487/33/33 486/34/33
f 456/35/33 457/33/33 487/32/33
f 457/32/34 488/33/34 487/34/34
f 457/35/34 458/33/34 488/32/34
f 458/32/35 460/33/35 488/34/35
f 458/35/35 430/33/35 460/32/35
f 489/36/43 490/37/43 491/38/43
f 491/39/43 492/38/43 489/37/43
f 493/36/44 494/37/44 495/38/44
f 495/39/44 496/38/44 493/37/44
f 489/40/10 492/41/10 494/42/10
f 494/43/10 493/42/10 489/41/10
f 491/36/27 490/37/27 496/38/27
f 496/39/27 495/38/27 491/37/27
f 490/36/45 489/37/45 493/38/45
f 493/39/45 496/38/45 490/37/45
f 497/44/43 498/45/43 499/46/43
f 499/47/43 500/46/43 497/45/43
f 501/44/44 502/45/44 503/46/44
f 503/47/44 504/46/44 501/45/44
f 497/44/10 500/45/10 502/46/10
f 502/47/10 501/46/10 497/45/10
f 500/44/1 499/45/1 503/46/1
f 503/47/1 502/46/1 500/45/1
f 499/44/27 498/45/27 504/46/27
f 504/47/27 503/46/27 499/45/27
f 498/36/45 497/37/45 501/38/45
f 501/39/45 504/38/45 498/37/45
f 505/44/43 506/45/43 507/46/43
f 507/47/43 508/46/43 505/45/43
f 509/44/44 510/45/44 511/46/44
f 511/47/44 512/46/44 509/45/44
f 505/44/10 508/45/10 510/46/10
f 510/47/10 509/46/10 505/45/10
f 508/44/1 507/45/1 511/46/1
f 511/47/1 510/46/1 508/45/1
f 507/48/27 506/49/27 512/50/27
f 512/51/27 511/52/27 507/53/27
f 506/44/45 505/45/45 509/46/45
f 509/47/45 512/46/45 506/45/45
f 513/54/43 514/55/43 515/56/43
f 515/57/43 516/56/43 513/55/43
f 517/44/44 518/45/44 519/46/44
f 519/47/44 520/46/44 517/45/44
f 513/44/46 516/45/46 518/46/46
f 518/47/46 517/46/46 513/45/46
f 516/44/1 515/45/1 519/46/1
f 519/47/1 518/46/1 516/45/1
f 515/44/27 514/45/27 520/46/27
f 520/47/27 519/46/27 515/45/27
f 514/44/45 513/45/45 517/46/45
f 517/47/45 520/46/45 514/45/45
f 521/44/43 522/45/43 523/46/43
f 523/47/43 524/46/43 521/45/43
f 525/58/44 526/59/44 527/60/44
f 527/61/44 528/60/44 525/59/44
f 521/44/46 524/45/46 526/46/46
f 526/47/46 525/46/46 521/45/46
f 524/44/1 523/45/1 527/46/1
f 527/47/1 526/46/1 524/45/1
f 523/44/27 522/45/27 528/46/27
f 528/47/27 527/46/27 523/45/27
f 522/44/45 521/45/45 525/46/45
f 525/47/45 528/46/45 522/45/45
f 529/44/43 530/45/43 531/46/43
f 531/47/43 532/46/43 529/45/43
f 533/44/44 534/45/44 535/46/44
f 535/47/44 536/46/44 533/45/44
f 529/44/10 532/45/10 534/46/10
f 534/47/10 533/46/10 529/45/10
f 532/44/1 531/45/1 535/46/1
f 535/47/1 534/46/1 532/45/1
f 531/48/27 530/49/27 536/50/27
f 536/62/27 535/50/27 531/49/27
f 530/44/45 529/45/45 533/46/45
f 533/47/45 536/46/45 530/45/45
f 537/58/43 538/59/43 539/60/43
f 539/61/43 540/60/43 537/59/43
f 541/44/44 542/45/44 543/46/44
f 543/47/44 544/46/44 541/45/44
f 537/44/47 540/45/46 542/46/46
f 542/47/46 541/46/47 537/45/47
f 540/44/1 539/45/1 543/46/1
f 543/47/1 542/46/1 540/45/1
f 539/44/27 538/45/27 544/46/27
f 544/47/27 543/46/27 539/45/27
f 538/44/45 537/45/45 541/46/45
f 541/47/45 544/46/45 538/45/45
f 545/44/43 546/45/43 547/46/43
f 547/47/43 548/46/43 545/45/43
f 549/58/44 550/59/44 551/60/44
f 551/61/44 552/60/44 549/59/44
f 545/44/47 548/45/47 550/46/47
f 550/47/47 549/46/47 545/45/47
f 548/44/1 547/45/1 551/46/1
f 551/47/1 550/46/1 548/45/1
f 547/44/27 546/45/27 552/46/27
f 552/47/27 551/46/27 547/45/27
f 546/44/45 545/45/45 549/46/45
f 549/47/45 552/46/45 546/45/45
f 553/63/27 554/64/27 555/65/27
f 555/66/27 556/65/27 553/64/27
f 557/67/45 558/68/45 555/69/45
f 555/70/45 554/69/45 557/68/45
f 559/71/43 557/72/43 554/73/43
f 554/74/43 553/73/43 559/72/43
f 560/75/1 559/76/1 553/77/1
f 553/78/1 556/77/1 560/76/1
f 558/67/44 560/68/44 556/69/44
f 556/70/44 555/69/44 558/68/44
f 561/79/27 562/80/27 563/81/27
f 563/82/27 564/81/27 561/80/27
f 565/83/45 566/84/45 563/85/45
f 563/86/45 562/85/45 565/84/45
f 567/83/43 565/84/43 562/85/43
f 562/86/43 561/85/43 567/84/43
f 568/87/1 567/88/1 561/89/1
f 561/90/1 564/89/1 568/88/1
f 566/91/44 568/92/44 564/93/44
f 564/94/44 563/93/44 566/92/44
f 569/95/10 570/96/10 571/97/10
f 571/98/10 572/97/10 569/96/10
f 573/99/27 574/100/27 575/101/27
f 575/102/27 576/101/27 573/100/27
f 572/99/48 571/100/48 575/101/48
f 575/102/48 574/101/48 572/100/48
f 571/99/45 570/100/45 576/101/45
f 576/102/45 575/101/45 571/100/45
f 570/99/49 569/100/50 573/101/50
f 573/102/50 576/101/49 570/100/49
f 577/99/27 578/100/27 579/101/27
f 579/102/27 580/101/27 577/100/27
f 581/95/10 582/96/10 572/97/10
f 572/98/10 583/97/10 581/96/10
f 583/99/45 572/100/45 579/101/45
f 579/102/45 578/101/45 583/100/45
f 581/103/43 583/104/43 578/105/43
f 578/106/43 577/105/43 581/104/43
f 582/95/1 581/96/1 577/97/1
f 577/98/1 580/97/1 582/96/1
f 572/95/44 582/96/44 580/97/44
f 580/98/44 579/97/44 572/96/44
f 584/99/27 585/100/27 586/101/27
f 586/102/27 587/101/27 584/100/27
f 588/95/10 589/96/10 590/97/10
f 590/98/10 569/97/10 588/96/10
f 569/99/45 590/100/45 586/101/45
f 586/102/45 585/101/45 569/100/45
f 588/95/43 569/96/43 585/97/43
f 585/98/43 584/97/43 588/96/43
f 589/95/1 588/96/1 584/97/1
f 584/98/1 587/97/1 589/96/1
f 590/107/44 589/108/44 587/109/44
f 587/110/44 586/109/44 590/108/44
f 591/95/27 574/96/27 573/97/27
f 573/98/27 592/97/27 591/96/27
f 582/95/10 588/96/10 569/97/10
f 569/98/10 572/97/10 582/96/10
f 582/95/43 572/96/43 574/97/43
f 574/98/43 591/97/43 582/96/43
f 588/95/1 582/96/1 591/97/1
f 591/98/1 592/97/1 588/96/1
f 569/95/44 588/96/44 592/97/44
f 592/98/44 573/97/44 569/96/44
f 593/111/27 594/112/27 595/113/27
f 595/114/27 596/113/27 593/112/27
f 597/114/10 598/112/10 599/113/10
f 599/111/10 600/113/10 597/112/10
f 600/113/45 599/111/45 595/113/45
f 595/111/45 594/113/45 600/111/45
f 597/111/43 600/112/43 594/111/43
f 594/112/43 593/111/43 597/112/43
f 598/112/1 597/114/1 593/112/1
f 593/114/1 596/112/1 598/114/1
f 599/114/44 598/113/44 596/114/44
f 596/113/44 595/114/44 599/113/44
f 601/115/10 602/116/10 603/117/10
f 603/118/10 604/117/10 601/116/10
f 605/116/10 601/119/10 604/118/10
f 604/120/10 606/118/10 605/119/10
f 607/121/27 608/122/27 609/123/27
f 609/124/27 610/123/27 607/122/27
f 611/125/27 612/126/27 608/121/27
f 608/122/27 607/121/27 611/126/27
f 610/127/51 609/128/51 603/129/51
f 603/130/51 602/129/51 610/128/51
f 607/131/52 610/132/52 602/133/52
f 602/134/52 601/133/52 607/132/52
f 611/132/53 607/135/53 601/134/53
f 601/136/53 605/134/53 611/135/53
f 608/135/54 612/132/54 606/136/54
f 606/134/54 604/136/54 608/132/54
f 609/132/55 608/131/55 604/134/55
f 604/133/55 603/134/55 609/131/55
f 613/137/10 614/138/10 615/139/10
f 615/140/10 616/139/10 613/138/10
f 617/141/27 618/142/27 619/143/27
f 619/144/27 620/143/27 617/142/27
f 620/137/56 619/138/56 615/139/56
f 615/140/56 614/139/56 620/138/56
f 617/141/57 620/142/57 614/143/57
f 614/144/57 613/143/57 617/142/57
f 618/141/58 617/142/58 613/143/58
f 613/144/58 616/143/58 618/142/58
f 619/145/59 618/146/59 616/147/59
f 616/148/59 615/147/59 619/146/59
f 621/137/10 622/138/10 623/139/10
f 623/140/10 624/139/10 621/138/10
f 625/141/27 626/142/27 627/143/27
f 627/144/27 628/143/27 625/142/27
f 628/137/51 627/138/51 623/139/51
f 623/140/51 622/139/51 628/138/51
f 625/145/57 628/146/57 622/147/57
f 622/148/57 621/147/57 625/146/57
f 626/141/58 625/142/58 621/143/58
f 621/144/58 624/143/58 626/142/58
f 627/141/59 626/142/59 624/143/59
f 624/144/59 623/143/59 627/142/59
f 629/137/10 630/138/10 631/139/10
f 631/140/10 632/139/10 629/138/10
f 633/141/27 634/142/27 635/143/27
f 635/144/27 636/143/27 633/142/27
f 636/137/56 635/138/56 631/139/56
f 631/140/56 630/139/56 636/138/56
f 633/141/60 636/142/57 630/143/57
f 630/144/57 629/143/60 633/142/60
f 634/141/58 633/142/58 629/143/58
f 629/144/58 632/143/58 634/142/58
f 635/145/61 634/146/59 632/147/59
f 632/148/59 631/147/61 635/146/61
f 637/137/10 638/138/10 639/139/10
f 639/140/10 640/139/10 637/138/10
f 641/141/27 642/142/27 643/143/27
f 643/144/27 644/143/27 641/142/27
f 644/137/51 643/138/51 639/139/51
f 639/140/51 638/139/51 644/138/51
f 641/145/60 644/146/57 638/147/57
f 638/148/57 637/147/60 641/146/60
f 642/141/58 641/142/58 637/143/58
f 637/144/58 640/143/58 642/142/58
f 643/141/61 642/142/59 640/143/59
f 640/144/59 639/143/61 643/142/61
f 645/149/10 646/150/10 647/151/10
f 645/151/10 647/150/10 648/152/10
f 645/152/10 648/150/10 649/153/10
f 645/153/10 649/150/10 650/154/10
f 645/154/10 650/150/10 651/155/10
f 645/155/10 651/150/10 652/156/10
f 645/156/10 652/150/10 653/157/10
f 645/157/10 653/150/10 654/158/10
f 645/158/10 654/150/10 655/159/10
f 645/159/10 655/150/10 656/160/10
f 645/160/10 656/150/10 657/161/10
f 645/161/10 657/150/10 658/162/10
f 658/148/62 657/147/62 659/146/62
f 659/145/62 660/146/62 658/147/62
f 657/148/63 656/147/63 661/146/63
f 661/145/63 659/146/63 657/147/63
f 656/148/64 655/147/64 662/146/64
f 662/145/64 661/146/64 656/147/64
f 655/148/65 654/147/65 663/146/65
f 663/145/65 662/146/66 655/147/65
f 654/148/67 653/147/67 664/146/67
f 664/145/67 663/146/67 654/147/67
f 653/148/68 652/147/68 665/146/68
f 665/145/68 664/146/68 653/147/68
f 652/148/69 651/147/69 666/146/69
f 666/145/69 665/146/69 652/147/69
f 651/148/70 650/147/70 667/146/70
f 667/145/70 666/146/70 651/147/70
f 650/148/71 649/147/71 668/146/71
f 668/145/71 667/146/71 650/147/71
f 649/148/72 648/147/72 669/146/72
f 669/145/72 668/146/72 649/147/72
f 648/148/73 647/147/73 670/146/73
f 670/145/73 669/146/73 648/147/73
f 647/148/74 646/147/74 671/146/74
f 671/145/74 670/146/74 647/147/74
f 672/163/27 660/164/27 659/165/27
f 672/165/27 659/164/27 661/166/27
f 672/166/27 661/164/27 662/167/27
f 672/167/27 662/164/27 663/168/27
f 672/168/27 663/164/27 664/169/27
f 672/169/27 664/164/27 665/170/27
f 672/170/27 665/164/27 666/171/27
f 672/171/27 666/164/27 667/172/27
f 672/172/27 667/164/27 668/173/27
f 672/173/27 668/164/27 669/174/27
f 672/174/27 669/164/27 670/175/27
f 672/175/27 670/164/27 671/176/27
f 673/177/10 616/178/10 674/179/10
f 673/179/10 674/178/10 675/180/10
f 673/180/10 675/178/10 676/181/10
f 673/181/10 676/178/10 677/182/10
f 673/182/10 677/178/10 678/183/10
f 673/183/10 678/178/10 679/184/10
f 673/184/10 679/178/10 680/185/10
f 673/185/10 680/178/10 681/186/10
f 673/186/10 681/178/10 682/187/10
f 673/187/10 682/178/10 683/188/10
f 673/188/10 683/178/10 684/189/10
f 673/189/10 684/178/10 621/190/10
f 621/148/62 684/147/62 685/146/62
f 685/145/62 625/146/62 621/147/62
f 684/148/63 683/147/63 686/146/63
f 686/145/63 685/146/63 684/147/63
f 683/148/64 682/147/64 687/146/64
f 687/145/64 686/146/64 683/147/64
f 682/148/65 681/147/66 688/146/65
f 688/145/65 687/146/65 682/147/65
f 681/148/67 680/147/67 689/146/67
f 689/145/67 688/146/67 681/147/67
f 680/148/68 679/147/68 690/146/68
f 690/145/68 689/146/68 680/147/68
f 679/148/69 678/147/69 691/146/69
f 691/145/69 690/146/69 679/147/69
f 678/148/70 677/147/70 692/146/70
f 692/145/70 691/146/70 678/147/70
f 677/148/71 676/147/71 693/146/71
f 693/145/71 692/146/71 677/147/71
f 676/148/72 675/147/72 694/146/72
f 694/145/72 693/146/72 676/147/72
f 675/148/73 674/147/73 695/146/73
f 695/145/73 694/146/73 675/147/73
f 674/148/74 616/147/74 618/146/74
f 618/145/74 695/146/74 674/147/74
f 696/163/27 625/164/27 685/165/27
f 696/165/27 685/164/27 686/166/27
f 696/166/27 686/164/27 687/167/27
f 696/167/27 687/164/27 688/168/27
f 696/168/27 688/164/27 689/169/27
f 696/169/27 689/164/27 690/170/27
f 696/170/27 690/164/27 691/171/27
f 696/171/27 691/164/27 692/172/27
f 696/172/27 692/164/27 693/173/27
f 696/173/27 693/164/27 694/174/27
f 696/174/27 694/164/27 695/175/27
f 696/175/27 695/164/27 618/176/27
f 697/191/10 698/192/10 699/193/10
f 699/194/10 700/193/10 697/192/10
f 701/191/27 702/192/27 703/193/27
f 703/194/27 704/193/27 701/192/27
f 704/195/56 703/196/56 699/197/56
f 699/198/56 698/197/56 704/196/56
f 701/145/60 704/146/60 698/147/60
f 698/148/60 697/147/60 701/146/60
f 702/191/58 701/192/58 697/193/58
f 697/194/58 700/193/58 702/192/58
f 703/145/59 702/146/59 700/147/59
f 700/148/59 699/147/59 703/146/59
f 705/199/75 706/200/75 707/201/75
f 707/202/75 708/201/75 705/200/75
f 709/199/76 705/200/76 708/201/76
f 708/202/76 710/201/76 709/200/76
f 711/199/77 709/200/77 710/201/77
f 710/202/77 712/201/77 711/200/77
f 706/199/78 711/200/78 712/201/78
f 712/202/78 707/201/78 706/200/78
f 713/203/10 714/204/10 715/205/10
f 715/206/10 716/205/10 713/204/10
f 717/203/79 718/204/79 714/205/79
f 714/206/79 713/205/79 717/204/79
f 719/203/80 717/204/80 713/205/80
f 713/206/80 716/205/80 719/204/80
f 720/203/81 719/204/81 716/205/81
f 716/206/81 715/205/81 720/204/81
f 721/199/1 722/200/1 723/201/1
f 723/202/1 724/201/1 721/200/1
f 725/199/1 726/200/1 722/201/1
f 722/202/1 721/201/1 725/200/1
f 727/199/1 728/200/1 726/201/1
f 726/202/1 725/201/1 727/200/1
f 729/199/1 730/200/1 728/201/1
f 728/202/1 727/201/1 729/200/1
f 731/199/1 732/200/1 730/201/1
f 730/202/1 729/201/1 731/200/1
f 733/199/1 734/200/1 732/201/1
f 732/202/1 731/201/1 733/200/1
f 735/199/82 721/200/82 724/201/82
f 724/202/82 736/201/82 735/200/82
f 737/199/83 725/200/83 721/201/83
f 721/202/83 735/201/83 737/200/83
f 738/199/84 727/200/84 725/201/84
f 725/202/84 737/201/84 738/200/84
f 739/199/85 729/200/85 727/201/85
f 727/202/85 738/201/85 739/200/85
f 740/199/86 731/200/86 729/201/86
f 729/202/86 739/201/86 740/200/86
f 741/199/87 733/200/87 731/201/87
f 731/202/87 740/201/87 741/200/87
f 742/199/45 735/200/45 736/201/45
f 736/202/45 743/201/45 742/200/45
f 744/199/45 737/200/45 735/201/45
f 735/202/45 742/201/45 744/200/45
f 745/199/45 738/200/45 737/201/45
f 737/202/45 744/201/45 745/200/45
f 746/199/45 739/200/45 738/201/45
f 738/202/45 745/201/45 746/200/45
f 747/199/45 740/200/45 739/201/45
f 739/202/45 746/201/45 747/200/45
f 748/199/45 741/200/45 740/201/45
f 740/202/45 747/201/45 748/200/45
f 722/199/88 742/200/88 743/201/88
f 743/202/88 723/201/88 722/200/88
f 726/199/89 744/200/89 742/201/89
f 742/202/89 722/201/89 726/200/89
f 728/199/90 745/200/90 744/201/90
f 744/202/90 726/201/90 728/200/90
f 730/199/91 746/200/91 745/201/91
f 745/202/91 728/201/91 730/200/91
f 732/199/92 747/200/92 746/201/92
f 746/202/92 730/201/92 732/200/92
f 734/199/93 748/200/93 747/201/93
f 747/202/93 732/201/93 734/200/93
f 749/199/94 750/200/94 751/201/94
f 751/202/94 752/201/95 749/200/94
f 753/199/96 749/200/96 752/201/97
f 752/202/97 754/201/97 753/200/96
f 755/199/98 753/200/98 754/201/98
f 754/202/98 756/201/99 755/200/98
f 750/199/100 755/200/100 756/201/100
f 756/202/100 751/201/100 750/200/100
f 757/205/10 758/204/10 759/203/10
f 758/204/10 757/205/10 760/206/10
f 761/205/27 762/204/27 763/203/27
f 762/204/27 761/205/27 764/206/27
f 764/205/1 758/204/1 762/203/1
f 758/204/1 764/205/1 759/206/1
f 761/205/44 759/204/44 764/203/44
f 759/204/44 761/205/44 757/206/44
f 762/205/43 760/204/43 763/203/43
f 760/204/43 762/205/43 758/206/43
