# generated by tools/objdedupe/dedupe.py -- do not hand-edit.
# Re-run the tool after touching sssr_2svet_nove.obj, sssr_3svet_nove.obj, sssr_4svet_nove.obj, sssr_5svet_nove.obj, sssr_2se_nove.obj, sssr_3ab_nove.obj, sssr_4ab_nove.obj, sssr_pr_nove.obj, sssr_vl_nove.obj.
o stit_5_pruhy_R
v 0.185493 2.722198 0.096800
vt 0.861931 0.296501
vn -0.000000 -0.000000 1.000000
v 0.221000 2.714651 0.096800
vt 0.781315 0.320743
v 0.221793 2.722198 0.096800
vt 0.863579 0.321805
vt 0.856759 0.272257
v 0.218655 2.707433 0.096800
vt 0.848290 0.250133
v 0.214860 2.700861 0.096800
vt 0.836894 0.231095
v 0.209783 2.695222 0.096800
vt 0.823069 0.215973
v 0.203643 2.690761 0.096800
vt 0.807419 0.205433
v 0.196710 2.687675 0.096800
vt 0.790627 0.199931
v 0.189288 2.686097 0.096800
vt 0.773429 0.199709
v 0.181698 2.686097 0.096800
vt 0.756576 0.204777
v 0.174276 2.687675 0.096800
vt 0.740803 0.214912
v 0.167343 2.690761 0.096800
vt 0.726803 0.229675
v 0.161203 2.695222 0.096800
vt 0.715182 0.248415
v 0.156126 2.700861 0.096800
vt 0.706453 0.270318
v 0.152331 2.707433 0.096800
vt 0.700996 0.294425
v 0.149986 2.714651 0.096800
vt 0.699049 0.319682
v 0.149193 2.722198 0.096800
vt 0.700697 0.344986
v 0.149986 2.729745 0.096800
vt 0.705870 0.369230
v 0.152331 2.736962 0.096800
vt 0.714338 0.391354
v 0.156126 2.743535 0.096800
vt 0.725735 0.410392
v 0.161203 2.749174 0.096800
vt 0.739561 0.425514
v 0.167343 2.753635 0.096800
vt 0.755211 0.436054
v 0.174276 2.756721 0.096800
vt 0.772002 0.441556
v 0.181698 2.758299 0.096800
vt 0.789199 0.441777
v 0.189288 2.758299 0.096800
vt 0.806052 0.436710
v 0.196710 2.756721 0.096800
vt 0.821825 0.426575
v 0.203643 2.753635 0.096800
vt 0.835827 0.411812
v 0.209783 2.749174 0.096800
vt 0.847446 0.393071
v 0.214860 2.743534 0.096800
vt 0.856175 0.371167
v 0.218655 2.736962 0.096800
vt 0.861632 0.347061
v 0.221000 2.729745 0.096800
vt 0.556898 0.329554
vn 0.994500 -0.104500 -0.000000
v 0.221000 2.714651 0.090750
vt 0.538804 0.311460
v 0.221793 2.722198 0.090750
vt 0.538804 0.329554
vt 0.556898 0.311460
vn 0.951100 -0.309000 -0.000000
v 0.218655 2.707433 0.090750
vn 0.866000 -0.500100 -0.000000
v 0.214860 2.700861 0.090750
vn 0.743200 -0.669100 -0.000000
v 0.209783 2.695222 0.090750
vn 0.587800 -0.809000 -0.000000
v 0.203643 2.690761 0.090750
vn 0.406700 -0.913600 -0.000000
v 0.196710 2.687675 0.090750
vn 0.208000 -0.978100 -0.000000
v 0.189288 2.686097 0.090750
vn -0.000000 -1.000000 -0.000000
v 0.181698 2.686097 0.090750
vn -0.208000 -0.978100 -0.000000
v 0.174276 2.687675 0.090750
vn -0.406700 -0.913600 -0.000000
v 0.167343 2.690761 0.090750
vn -0.587800 -0.809000 -0.000000
v 0.161203 2.695222 0.090750
vn -0.743200 -0.669100 -0.000000
v 0.156126 2.700861 0.090750
vn -0.866000 -0.500100 -0.000000
v 0.152331 2.707433 0.090750
vn -0.951100 -0.309000 -0.000000
v 0.149986 2.714651 0.090750
vn -0.994500 -0.104500 -0.000000
v 0.149193 2.722198 0.090750
vn -0.994500 0.104500 -0.000000
v 0.149986 2.729745 0.090750
vn -0.951100 0.309000 -0.000000
v 0.152331 2.736962 0.090750
vn -0.866000 0.500000 -0.000000
v 0.156126 2.743535 0.090750
vn -0.743200 0.669100 -0.000000
v 0.161203 2.749174 0.090750
vn -0.587800 0.809000 -0.000000
v 0.167343 2.753635 0.090750
vn -0.406700 0.913600 -0.000000
v 0.174276 2.756721 0.090750
vn -0.208000 0.978100 -0.000000
v 0.181698 2.758299 0.090750
vn -0.000000 1.000000 -0.000000
v 0.189288 2.758299 0.090750
vn 0.208000 0.978100 -0.000000
v 0.196710 2.756721 0.090750
vn 0.406700 0.913600 -0.000000
v 0.203643 2.753635 0.090750
vn 0.587800 0.809000 -0.000000
v 0.209783 2.749174 0.090750
vn 0.743200 0.669000 -0.000000
v 0.214860 2.743534 0.090750
vn 0.866000 0.500100 -0.000000
v 0.218655 2.736962 0.090750
vn 0.951100 0.309000 -0.000000
v 0.221000 2.729745 0.090750
vn 0.994500 0.104500 -0.000000
v 0.185493 2.631448 0.096800
v 0.221000 2.623901 0.096800
v 0.221793 2.631448 0.096800
v 0.218655 2.616683 0.096800
v 0.214860 2.610111 0.096800
v 0.209783 2.604472 0.096800
v 0.203643 2.600011 0.096800
v 0.196710 2.596925 0.096800
v 0.189288 2.595346 0.096800
v 0.181698 2.595346 0.096800
v 0.174276 2.596925 0.096800
v 0.167343 2.600011 0.096800
v 0.161203 2.604472 0.096800
v 0.156126 2.610111 0.096800
v 0.152331 2.616683 0.096800
v 0.149986 2.623901 0.096800
v 0.149193 2.631448 0.096800
v 0.149986 2.638995 0.096800
v 0.152331 2.646212 0.096800
v 0.156126 2.652784 0.096800
v 0.161203 2.658424 0.096800
v 0.167343 2.662885 0.096800
v 0.174276 2.665971 0.096800
v 0.181698 2.667549 0.096800
v 0.189288 2.667549 0.096800
v 0.196710 2.665971 0.096800
v 0.203643 2.662885 0.096800
v 0.209783 2.658424 0.096800
v 0.214860 2.652784 0.096800
v 0.218655 2.646212 0.096800
v 0.221000 2.638995 0.096800
v 0.221000 2.623901 0.090750
v 0.221793 2.631448 0.090750
v 0.218655 2.616683 0.090750
v 0.214860 2.610111 0.090750
v 0.209783 2.604472 0.090750
v 0.203643 2.600011 0.090750
v 0.196710 2.596925 0.090750
vn 0.208100 -0.978100 -0.000000
v 0.189288 2.595346 0.090750
v 0.181698 2.595346 0.090750
vn -0.208100 -0.978100 -0.000000
v 0.174276 2.596925 0.090750
v 0.167343 2.600011 0.090750
v 0.161203 2.604472 0.090750
v 0.156126 2.610111 0.090750
v 0.152331 2.616683 0.090750
v 0.149986 2.623901 0.090750
v 0.149193 2.631448 0.090750
v 0.149986 2.638995 0.090750
v 0.152331 2.646212 0.090750
vn -0.866000 0.500100 -0.000000
v 0.156126 2.652784 0.090750
vn -0.743200 0.669000 -0.000000
v 0.161203 2.658424 0.090750
v 0.167343 2.662885 0.090750
v 0.174276 2.665971 0.090750
vn -0.207900 0.978100 -0.000000
v 0.181698 2.667549 0.090750
v 0.189288 2.667549 0.090750
vn 0.207900 0.978100 -0.000000
v 0.196710 2.665971 0.090750
v 0.203643 2.662885 0.090750
v 0.209783 2.658424 0.090750
vn 0.743200 0.669100 -0.000000
v 0.214860 2.652784 0.090750
v 0.218655 2.646212 0.090750
v 0.221000 2.638995 0.090750
v 0.102003 2.722198 0.096800
v 0.137510 2.714651 0.096800
v 0.138303 2.722198 0.096800
v 0.135165 2.707433 0.096800
v 0.131370 2.700861 0.096800
v 0.126293 2.695222 0.096800
v 0.120153 2.690761 0.096800
v 0.113220 2.687675 0.096800
v 0.105798 2.686097 0.096800
v 0.098208 2.686097 0.096800
v 0.090786 2.687675 0.096800
v 0.083853 2.690761 0.096800
v 0.077713 2.695222 0.096800
v 0.072636 2.700861 0.096800
v 0.068841 2.707433 0.096800
v 0.066496 2.714651 0.096800
v 0.065703 2.722198 0.096800
v 0.066496 2.729745 0.096800
v 0.068841 2.736962 0.096800
v 0.072636 2.743535 0.096800
v 0.077713 2.749174 0.096800
v 0.083853 2.753635 0.096800
v 0.090786 2.756721 0.096800
v 0.098208 2.758299 0.096800
v 0.105798 2.758299 0.096800
v 0.113220 2.756721 0.096800
v 0.120153 2.753635 0.096800
v 0.126293 2.749174 0.096800
v 0.131370 2.743534 0.096800
v 0.135165 2.736962 0.096800
v 0.137510 2.729745 0.096800
v 0.137510 2.714651 0.090750
v 0.138303 2.722198 0.090750
v 0.135165 2.707433 0.090750
v 0.131370 2.700861 0.090750
v 0.126293 2.695222 0.090750
v 0.120153 2.690761 0.090750
v 0.113220 2.687675 0.090750
v 0.105798 2.686097 0.090750
v 0.098208 2.686097 0.090750
v 0.090786 2.687675 0.090750
v 0.083853 2.690761 0.090750
v 0.077713 2.695222 0.090750
v 0.072636 2.700861 0.090750
v 0.068841 2.707433 0.090750
v 0.066496 2.714651 0.090750
v 0.065703 2.722198 0.090750
v 0.066496 2.729745 0.090750
v 0.068841 2.736962 0.090750
v 0.072636 2.743535 0.090750
v 0.077713 2.749174 0.090750
v 0.083853 2.753635 0.090750
v 0.090786 2.756721 0.090750
v 0.098208 2.758299 0.090750
v 0.105798 2.758299 0.090750
v 0.113220 2.756721 0.090750
v 0.120153 2.753635 0.090750
v 0.126293 2.749174 0.090750
v 0.131370 2.743534 0.090750
v 0.135165 2.736962 0.090750
v 0.137510 2.729745 0.090750
v 0.102003 2.631448 0.096800
v 0.137510 2.623901 0.096800
v 0.138303 2.631448 0.096800
v 0.135165 2.616683 0.096800
v 0.131370 2.610111 0.096800
v 0.126293 2.604472 0.096800
v 0.120153 2.600011 0.096800
v 0.113220 2.596925 0.096800
v 0.105798 2.595346 0.096800
v 0.098208 2.595346 0.096800
v 0.090786 2.596925 0.096800
v 0.083853 2.600011 0.096800
v 0.077713 2.604472 0.096800
v 0.072636 2.610111 0.096800
v 0.068841 2.616683 0.096800
v 0.066496 2.623901 0.096800
v 0.065703 2.631448 0.096800
v 0.066496 2.638995 0.096800
v 0.068841 2.646212 0.096800
v 0.072636 2.652784 0.096800
v 0.077713 2.658424 0.096800
v 0.083853 2.662885 0.096800
v 0.090786 2.665971 0.096800
v 0.098208 2.667549 0.096800
v 0.105798 2.667549 0.096800
v 0.113220 2.665971 0.096800
v 0.120153 2.662885 0.096800
v 0.126293 2.658424 0.096800
v 0.131370 2.652784 0.096800
v 0.135165 2.646212 0.096800
v 0.137510 2.638995 0.096800
v 0.137510 2.623901 0.090750
v 0.138303 2.631448 0.090750
v 0.135165 2.616683 0.090750
v 0.131370 2.610111 0.090750
v 0.126293 2.604472 0.090750
v 0.120153 2.600011 0.090750
v 0.113220 2.596925 0.090750
v 0.105798 2.595346 0.090750
v 0.098208 2.595346 0.090750
v 0.090786 2.596925 0.090750
v 0.083853 2.600011 0.090750
v 0.077713 2.604472 0.090750
v 0.072636 2.610111 0.090750
v 0.068841 2.616683 0.090750
v 0.066496 2.623901 0.090750
v 0.065703 2.631448 0.090750
v 0.066496 2.638995 0.090750
v 0.068841 2.646212 0.090750
v 0.072636 2.652784 0.090750
v 0.077713 2.658424 0.090750
v 0.083853 2.662885 0.090750
v 0.090786 2.665971 0.090750
v 0.098208 2.667549 0.090750
v 0.105798 2.667549 0.090750
v 0.113220 2.665971 0.090750
v 0.120153 2.662885 0.090750
v 0.126293 2.658424 0.090750
v 0.131370 2.652784 0.090750
v 0.135165 2.646212 0.090750
v 0.137510 2.638995 0.090750
v 0.268983 2.722198 0.096800
v 0.304490 2.714651 0.096800
v 0.305283 2.722198 0.096800
v 0.302145 2.707433 0.096800
v 0.298350 2.700861 0.096800
v 0.293273 2.695222 0.096800
v 0.287133 2.690761 0.096800
v 0.280200 2.687675 0.096800
v 0.272778 2.686097 0.096800
v 0.265188 2.686097 0.096800
v 0.257766 2.687675 0.096800
v 0.250833 2.690761 0.096800
v 0.244693 2.695222 0.096800
v 0.239616 2.700861 0.096800
v 0.235821 2.707433 0.096800
v 0.233476 2.714651 0.096800
v 0.232683 2.722198 0.096800
v 0.233476 2.729745 0.096800
v 0.235821 2.736962 0.096800
v 0.239616 2.743535 0.096800
v 0.244693 2.749174 0.096800
v 0.250833 2.753635 0.096800
v 0.257766 2.756721 0.096800
v 0.265188 2.758299 0.096800
v 0.272778 2.758299 0.096800
v 0.280200 2.756721 0.096800
v 0.287133 2.753635 0.096800
v 0.293273 2.749174 0.096800
v 0.298350 2.743534 0.096800
v 0.302145 2.736962 0.096800
v 0.304490 2.729745 0.096800
v 0.304490 2.714651 0.090750
v 0.305283 2.722198 0.090750
v 0.302145 2.707433 0.090750
v 0.298350 2.700861 0.090750
v 0.293273 2.695222 0.090750
v 0.287133 2.690761 0.090750
v 0.280200 2.687675 0.090750
v 0.272778 2.686097 0.090750
v 0.265188 2.686097 0.090750
v 0.257766 2.687675 0.090750
v 0.250833 2.690761 0.090750
v 0.244693 2.695222 0.090750
v 0.239616 2.700861 0.090750
v 0.235821 2.707433 0.090750
v 0.233476 2.714651 0.090750
v 0.232683 2.722198 0.090750
v 0.233476 2.729745 0.090750
v 0.235821 2.736962 0.090750
v 0.239616 2.743535 0.090750
v 0.244693 2.749174 0.090750
v 0.250833 2.753635 0.090750
v 0.257766 2.756721 0.090750
v 0.265188 2.758299 0.090750
v 0.272778 2.758299 0.090750
v 0.280200 2.756721 0.090750
v 0.287133 2.753635 0.090750
v 0.293273 2.749174 0.090750
v 0.298350 2.743534 0.090750
v 0.302145 2.736962 0.090750
v 0.304490 2.729745 0.090750
v 0.268983 2.631448 0.096800
v 0.304490 2.623901 0.096800
v 0.305283 2.631448 0.096800
v 0.302145 2.616683 0.096800
v 0.298350 2.610111 0.096800
v 0.293273 2.604472 0.096800
v 0.287133 2.600011 0.096800
v 0.280200 2.596925 0.096800
v 0.272778 2.595346 0.096800
v 0.265188 2.595346 0.096800
v 0.257766 2.596925 0.096800
v 0.250833 2.600011 0.096800
v 0.244693 2.604472 0.096800
v 0.239616 2.610111 0.096800
v 0.235821 2.616683 0.096800
v 0.233476 2.623901 0.096800
v 0.232683 2.631448 0.096800
v 0.233476 2.638995 0.096800
v 0.235821 2.646212 0.096800
v 0.239616 2.652784 0.096800
v 0.244693 2.658424 0.096800
v 0.250833 2.662885 0.096800
v 0.257766 2.665971 0.096800
v 0.265188 2.667549 0.096800
v 0.272778 2.667549 0.096800
v 0.280200 2.665971 0.096800
v 0.287133 2.662885 0.096800
v 0.293273 2.658424 0.096800
v 0.298350 2.652784 0.096800
v 0.302145 2.646212 0.096800
v 0.304490 2.638995 0.096800
v 0.304490 2.623901 0.090750
v 0.305283 2.631448 0.090750
v 0.302145 2.616683 0.090750
v 0.298350 2.610111 0.090750
v 0.293273 2.604472 0.090750
v 0.287133 2.600011 0.090750
v 0.280200 2.596925 0.090750
v 0.272778 2.595346 0.090750
v 0.265188 2.595346 0.090750
v 0.257766 2.596925 0.090750
v 0.250833 2.600011 0.090750
v 0.244693 2.604472 0.090750
v 0.239616 2.610111 0.090750
v 0.235821 2.616683 0.090750
v 0.233476 2.623901 0.090750
v 0.232683 2.631448 0.090750
v 0.233476 2.638995 0.090750
v 0.235821 2.646212 0.090750
v 0.239616 2.652784 0.090750
v 0.244693 2.658424 0.090750
v 0.250833 2.662885 0.090750
v 0.257766 2.665971 0.090750
v 0.265188 2.667549 0.090750
v 0.272778 2.667549 0.090750
v 0.280200 2.665971 0.090750
v 0.287133 2.662885 0.090750
v 0.293273 2.658424 0.090750
v 0.298350 2.652784 0.090750
v 0.302145 2.646212 0.090750
v 0.304490 2.638995 0.090750
v 0.352473 2.722198 0.096800
v 0.387980 2.714651 0.096800
v 0.388773 2.722198 0.096800
v 0.385635 2.707433 0.096800
v 0.381840 2.700861 0.096800
v 0.376763 2.695222 0.096800
v 0.370623 2.690761 0.096800
v 0.363690 2.687675 0.096800
v 0.356268 2.686097 0.096800
v 0.348678 2.686097 0.096800
v 0.341256 2.687675 0.096800
v 0.334323 2.690761 0.096800
v 0.328183 2.695222 0.096800
v 0.323106 2.700861 0.096800
v 0.319311 2.707433 0.096800
v 0.316966 2.714651 0.096800
v 0.316173 2.722198 0.096800
v 0.316966 2.729745 0.096800
v 0.319311 2.736962 0.096800
v 0.323106 2.743535 0.096800
v 0.328183 2.749174 0.096800
v 0.334323 2.753635 0.096800
v 0.341256 2.756721 0.096800
v 0.348678 2.758299 0.096800
v 0.356268 2.758299 0.096800
v 0.363690 2.756721 0.096800
v 0.370623 2.753635 0.096800
v 0.376763 2.749174 0.096800
v 0.381840 2.743534 0.096800
v 0.385635 2.736962 0.096800
v 0.387980 2.729745 0.096800
v 0.387980 2.714651 0.090750
v 0.388773 2.722198 0.090750
v 0.385635 2.707433 0.090750
v 0.381840 2.700861 0.090750
v 0.376763 2.695222 0.090750
v 0.370623 2.690761 0.090750
v 0.363690 2.687675 0.090750
v 0.356268 2.686097 0.090750
v 0.348678 2.686097 0.090750
v 0.341256 2.687675 0.090750
v 0.334323 2.690761 0.090750
v 0.328183 2.695222 0.090750
v 0.323106 2.700861 0.090750
v 0.319311 2.707433 0.090750
v 0.316966 2.714651 0.090750
v 0.316173 2.722198 0.090750
v 0.316966 2.729745 0.090750
v 0.319311 2.736962 0.090750
v 0.323106 2.743535 0.090750
v 0.328183 2.749174 0.090750
v 0.334323 2.753635 0.090750
v 0.341256 2.756721 0.090750
v 0.348678 2.758299 0.090750
v 0.356268 2.758299 0.090750
v 0.363690 2.756721 0.090750
v 0.370623 2.753635 0.090750
v 0.376763 2.749174 0.090750
v 0.381840 2.743534 0.090750
v 0.385635 2.736962 0.090750
v 0.387980 2.729745 0.090750
v 0.352473 2.631448 0.096800
v 0.387980 2.623901 0.096800
v 0.388773 2.631448 0.096800
v 0.385635 2.616683 0.096800
v 0.381840 2.610111 0.096800
v 0.376763 2.604472 0.096800
v 0.370623 2.600011 0.096800
v 0.363690 2.596925 0.096800
v 0.356268 2.595346 0.096800
v 0.348678 2.595346 0.096800
v 0.341256 2.596925 0.096800
v 0.334323 2.600011 0.096800
v 0.328183 2.604472 0.096800
v 0.323106 2.610111 0.096800
v 0.319311 2.616683 0.096800
v 0.316966 2.623901 0.096800
v 0.316173 2.631448 0.096800
v 0.316966 2.638995 0.096800
v 0.319311 2.646212 0.096800
v 0.323106 2.652784 0.096800
v 0.328183 2.658424 0.096800
v 0.334323 2.662885 0.096800
v 0.341256 2.665971 0.096800
v 0.348678 2.667549 0.096800
v 0.356268 2.667549 0.096800
v 0.363690 2.665971 0.096800
v 0.370623 2.662885 0.096800
v 0.376763 2.658424 0.096800
v 0.381840 2.652784 0.096800
v 0.385635 2.646212 0.096800
v 0.387980 2.638995 0.096800
v 0.387980 2.623901 0.090750
v 0.388773 2.631448 0.090750
v 0.385635 2.616683 0.090750
v 0.381840 2.610111 0.090750
v 0.376763 2.604472 0.090750
v 0.370623 2.600011 0.090750
v 0.363690 2.596925 0.090750
v 0.356268 2.595346 0.090750
v 0.348678 2.595346 0.090750
v 0.341256 2.596925 0.090750
v 0.334323 2.600011 0.090750
v 0.328183 2.604472 0.090750
v 0.323106 2.610111 0.090750
v 0.319311 2.616683 0.090750
v 0.316966 2.623901 0.090750
v 0.316173 2.631448 0.090750
v 0.316966 2.638995 0.090750
v 0.319311 2.646212 0.090750
v 0.323106 2.652784 0.090750
v 0.328183 2.658424 0.090750
v 0.334323 2.662885 0.090750
v 0.341256 2.665971 0.090750
v 0.348678 2.667549 0.090750
v 0.356268 2.667549 0.090750
v 0.363690 2.665971 0.090750
v 0.370623 2.662885 0.090750
v 0.376763 2.658424 0.090750
v 0.381840 2.652784 0.090750
v 0.385635 2.646212 0.090750
v 0.387980 2.638995 0.090750
v 0.393613 2.586072 -0.055619
vt 0.317542 0.637225
vn 1.000000 -0.000000 -0.000000
v 0.393613 2.767573 -0.055619
vt 0.318346 0.705236
v 0.393613 2.767573 0.089581
vt 0.350100 0.636421
vt 0.350904 0.704433
v 0.393613 2.586072 0.089581
v 0.060863 2.586072 -0.055619
vn -1.000000 -0.000000 -0.000000
v 0.060863 2.586072 0.089581
v 0.060863 2.767573 0.089581
v 0.060863 2.767573 -0.055619
vt 0.093154 0.837362
vt 0.091634 0.861743
vt 0.098279 0.837018
vt 0.096181 0.861897
vn -0.000000 -0.000000 -1.000000
v 0.423863 2.555823 0.088325
vt 0.557218 0.309044
v 0.423863 2.797822 0.088325
vt 0.533954 0.309044
v 0.423863 2.797822 0.091350
vt 0.557218 0.332309
vt 0.533954 0.332309
v 0.423863 2.555823 0.091350
v 0.030613 2.555823 0.088325
v 0.030613 2.555823 0.091350
v 0.030613 2.797822 0.091350
v 0.030613 2.797822 0.088325
v 0.393613 2.764850 0.091355
v 0.393613 2.767875 0.091355
v 0.393613 2.767875 0.242605
v 0.393613 2.764850 0.242605
v 0.060863 2.764850 0.091355
v 0.060863 2.764850 0.242605
v 0.060863 2.767875 0.242605
v 0.060863 2.767875 0.091355
vt 0.509434 0.208448
vt 0.509434 0.221432
vt 0.552559 0.208448
vt 0.516413 0.225969
vt 0.516156 0.238948
vt 0.559520 0.227755
v 0.393613 2.676811 0.091355
vt 0.548779 0.210881
v 0.393613 2.767416 0.091355
vt 0.507513 0.219226
v 0.393613 2.767416 0.242605
vt 0.548779 0.204744
vt 0.507513 0.204744
v 0.393613 2.721740 0.242605
v 0.390588 2.676811 0.091355
v 0.390588 2.721740 0.242605
v 0.390588 2.767416 0.242605
v 0.390588 2.767416 0.091355
vn -0.000000 -0.958600 0.284800
v 0.063875 2.676834 0.091355
v 0.063875 2.767439 0.091355
v 0.063875 2.767439 0.242605
v 0.063875 2.721763 0.242605
v 0.060850 2.676834 0.091355
vt 0.552727 0.213615
v 0.060850 2.721763 0.242605
vt 0.511461 0.221960
v 0.060850 2.767439 0.242605
vt 0.552727 0.207478
vt 0.511461 0.207478
v 0.060850 2.767439 0.091355
v 0.393613 2.673955 0.091355
v 0.393613 2.676980 0.091355
v 0.393613 2.676980 0.242605
v 0.393613 2.673955 0.242605
v 0.060863 2.673955 0.091355
v 0.060863 2.673955 0.242605
v 0.060863 2.676980 0.242605
v 0.060863 2.676980 0.091355
vt 0.552559 0.221432
v 0.393613 2.585916 0.091355
v 0.393613 2.676521 0.091355
v 0.393613 2.676521 0.242605
v 0.393613 2.630844 0.242605
v 0.390588 2.585916 0.091355
v 0.390588 2.630844 0.242605
v 0.390588 2.676521 0.242605
v 0.390588 2.676521 0.091355
vn -0.000000 -0.958600 0.284700
v 0.063875 2.585939 0.091355
v 0.063875 2.676544 0.091355
v 0.063875 2.676544 0.242605
v 0.063875 2.630867 0.242605
v 0.060850 2.585939 0.091355
v 0.060850 2.630867 0.242605
v 0.060850 2.676544 0.242605
v 0.060850 2.676544 0.091355
v 0.209088 2.620986 0.033924
vt 0.135093 0.345490
v 0.209088 2.620986 0.003674
vt 0.142641 0.345490
v 0.196988 2.620986 0.003674
vt 0.134273 0.324729
vt 0.141821 0.324729
v 0.196988 2.620986 0.033924
v 0.209088 2.559879 0.003674
vt 0.339034 0.797729
v 0.196988 2.559879 0.003674
vt 0.339132 0.790605
vt 0.329643 0.798234
vt 0.329740 0.791109
v 0.209088 2.559879 0.033924
vt 0.182523 0.270881
vt 0.190071 0.270881
vt 0.181703 0.250121
vt 0.189251 0.250121
v 0.196988 2.559879 0.033924
vt 0.177033 0.330985
vt 0.184581 0.330985
vt 0.176213 0.310224
vt 0.183761 0.310224
v 0.257488 2.620986 0.033924
vt 0.137143 0.333684
v 0.257488 2.620986 0.003674
vt 0.144691 0.333684
v 0.245388 2.620986 0.003674
vt 0.136323 0.312923
vt 0.143871 0.312923
v 0.245388 2.620986 0.033924
v 0.257488 2.559879 0.003674
vt 0.324033 0.801940
v 0.245388 2.559879 0.003674
vt 0.324131 0.794815
vt 0.314642 0.802444
vt 0.314740 0.795320
v 0.257488 2.559879 0.033924
v 0.245388 2.559879 0.033924
vt 0.179083 0.319178
vt 0.186631 0.319178
vt 0.178263 0.298418
vt 0.185811 0.298418
vt 0.184573 0.259075
vt 0.192121 0.259075
vt 0.183753 0.238315
vt 0.191301 0.238315
v 0.195476 2.543308 0.003674
vt 0.245211 0.306670
v 0.209995 2.543308 -0.017501
vt 0.223327 0.306670
v 0.244481 2.543308 -0.017501
vt 0.245211 0.328554
vt 0.223327 0.328554
v 0.259001 2.543308 0.003674
v 0.195476 2.552382 0.003674
vt 0.310848 0.789199
v 0.259001 2.552382 0.003674
vt 0.310564 0.809855
v 0.244481 2.552382 -0.017501
vt 0.320736 0.789483
vt 0.320453 0.810139
v 0.209995 2.552382 -0.017501
vn 0.824700 -0.000000 -0.565500
vn -0.824700 -0.000000 -0.565500
vn -0.824800 -0.000000 -0.565500
v 0.268076 2.585658 0.033924
v 0.268076 2.585658 0.003674
v 0.259001 2.585658 0.003674
v 0.259001 2.585658 0.033924
v 0.268076 2.543308 0.033924
v 0.259001 2.543308 0.033924
v 0.268076 2.543308 0.003674
vt 0.272239 0.794279
vt 0.272108 0.810251
vt 0.279370 0.795347
vt 0.279076 0.808169
v 0.195476 2.585658 0.033924
v 0.195476 2.585658 0.003674
v 0.186401 2.585658 0.003674
v 0.186401 2.585658 0.033924
v 0.195476 2.543308 0.033924
v 0.186401 2.543308 0.033924
v 0.186401 2.543308 0.003674
vt 0.272016 0.793764
vt 0.272010 0.810899
vt 0.279831 0.796876
vt 0.279444 0.808226
v 0.259001 2.552382 0.033924
v 0.195476 2.552382 0.033924
v 0.272613 2.576582 0.021824
vt 0.097113 0.809924
v 0.272613 2.576582 0.015774
vt 0.089570 0.810073
v 0.181863 2.576582 0.015774
vt 0.097657 0.867699
vt 0.090114 0.867847
v 0.181863 2.576582 0.021824
v 0.272613 2.567508 0.021824
v 0.181863 2.567508 0.021824
v 0.181863 2.567508 0.015774
v 0.272613 2.567508 0.015774
v 0.226691 2.513061 -0.006281
vt 0.096543 0.844608
v 0.240866 2.513061 0.007105
vt 0.093056 0.837134
v 0.238441 2.513061 0.034829
vt 0.095634 0.854724
vt 0.091384 0.863454
v 0.222157 2.513061 0.045550
v 0.050548 2.513061 -0.035052
vt 0.098881 0.836661
vt 0.096527 0.863459
v 0.043693 2.513061 0.043298
v 0.226691 2.543311 -0.006281
vt 0.255035 0.679051
v 0.222157 2.543311 0.045550
vt 0.263636 0.679051
v 0.238441 2.543311 0.034829
vt 0.257035 0.681578
vt 0.261636 0.681578
v 0.240866 2.543311 0.007105
v 0.050548 2.543311 -0.035052
vt 0.252835 0.647811
v 0.043693 2.543311 0.043298
vt 0.265836 0.647811
vt 0.204763 0.505452
vn 0.996200 -0.000000 0.087100
vt 0.236661 0.497558
vt 0.204906 0.483888
vt 0.236087 0.477572
vt 0.238042 0.488980
vn 0.443400 -0.000000 -0.896300
vt 0.216851 0.496500
vn 0.686600 -0.000000 -0.727100
vt 0.237799 0.475809
vt 0.217579 0.480660
vn 0.161200 -0.000000 -0.986900
vt 0.107935 0.497614
vt 0.108772 0.476438
vn 0.281000 -0.000000 0.959700
vn -0.012600 -0.000000 0.999900
vn 0.549900 -0.000000 0.835200
v -0.003581 2.546336 0.042199
vt 0.172570 0.330358
v 0.068743 2.546336 0.048526
vt 0.200662 0.327158
v 0.067688 2.546336 0.060580
vt 0.169370 0.302266
vt 0.197461 0.299066
v -0.004636 2.546336 0.054253
v -0.003581 2.558436 0.042199
vt 0.342932 0.696983
v -0.004636 2.558436 0.054253
vt 0.342500 0.660339
v 0.067688 2.558436 0.060580
vt 0.325391 0.697416
vt 0.324958 0.660771
v 0.068743 2.558436 0.048526
vn 0.996200 -0.000000 0.087200
vn 0.087100 -0.000000 -0.996200
vn -0.996200 -0.000000 -0.087200
vt 0.119661 0.496928
vn -0.087100 -0.000000 0.996200
vt 0.168371 0.491252
vt 0.119605 0.476599
vt 0.168114 0.476886
v 0.004856 2.546336 -0.054233
v 0.077179 2.546336 -0.047906
v 0.076125 2.546336 -0.035852
v 0.003801 2.546336 -0.042179
v 0.004856 2.558436 -0.054233
v 0.003801 2.558436 -0.042179
v 0.076125 2.558436 -0.035852
v 0.077179 2.558436 -0.047906
v -0.003581 2.497978 0.042199
v 0.068743 2.497978 0.048526
v 0.067688 2.497978 0.060580
v -0.004636 2.497978 0.054253
v -0.003581 2.510078 0.042199
v -0.004636 2.510078 0.054253
v 0.067688 2.510078 0.060580
v 0.068743 2.510078 0.048526
vn 0.087200 -0.000000 -0.996200
vn -0.087200 -0.000000 0.996200
v 0.004856 2.497978 -0.054233
v 0.077179 2.497978 -0.047906
v 0.076125 2.497978 -0.035852
v 0.003801 2.497978 -0.042179
v 0.004856 2.510078 -0.054233
v 0.003801 2.510078 -0.042179
v 0.076125 2.510078 -0.035852
v 0.077179 2.510078 -0.047906
v 0.000110 2.497768 0.000010
vt 0.192642 0.299615
v -0.004636 2.497768 0.054253
vt 0.182331 0.312577
v -0.018513 2.497768 0.051176
vt 0.195645 0.302725
v -0.031121 2.497768 0.044613
vt 0.197741 0.306507
v -0.041601 2.497768 0.035010
vt 0.198787 0.310702
v -0.049239 2.497768 0.023021
vt 0.198712 0.315025
v -0.053513 2.497768 0.009465
vt 0.197520 0.319181
v -0.054132 2.497768 -0.004736
vt 0.195293 0.322887
v -0.051056 2.497768 -0.018613
vt 0.192183 0.325890
v -0.044493 2.497768 -0.031222
vt 0.188401 0.327986
v -0.034890 2.497768 -0.041701
vt 0.184206 0.329033
v -0.022901 2.497768 -0.049339
vt 0.179883 0.328957
v -0.009345 2.497768 -0.053613
vt 0.175727 0.327765
v 0.004856 2.497768 -0.054233
vt 0.172021 0.325538
vn -0.043600 -0.000000 -0.999000
v -0.009345 2.509868 -0.053613
v 0.004856 2.509868 -0.054233
vn -0.300700 -0.000000 -0.953700
v -0.022901 2.509868 -0.049339
vn -0.537300 -0.000000 -0.843400
v -0.034890 2.509868 -0.041701
vn -0.737200 -0.000000 -0.675600
v -0.044493 2.509868 -0.031222
vn -0.737300 -0.000000 -0.675600
vn -0.887000 -0.000000 -0.461700
v -0.051056 2.509868 -0.018613
vn -0.976300 -0.000000 -0.216400
v -0.054132 2.509868 -0.004736
vn -0.999100 -0.000000 0.043500
v -0.053513 2.509868 0.009465
vn -0.953700 -0.000000 0.300700
v -0.049239 2.509868 0.023021
vn -0.843400 -0.000000 0.537300
v -0.041601 2.509868 0.035010
vn -0.675600 -0.000000 0.737300
v -0.031121 2.509868 0.044613
vn -0.461700 -0.000000 0.887000
v -0.018513 2.509868 0.051176
vn -0.216500 -0.000000 0.976300
v -0.004636 2.509868 0.054253
v 0.000110 2.509868 0.000010
vt 0.325032 0.667058
vt 0.332477 0.682057
vt 0.327120 0.663594
vt 0.329573 0.661389
vt 0.332224 0.660592
vt 0.334892 0.661257
vt 0.337396 0.663341
vt 0.339564 0.666699
vt 0.341250 0.671105
vt 0.342338 0.676257
vt 0.342753 0.681804
vt 0.342469 0.687368
vt 0.341503 0.692571
vt 0.339923 0.697057
v 0.000110 2.546336 0.000010
vt 0.303271 0.601381
vt 0.287326 0.617326
v -0.018513 2.546336 0.051176
vt 0.306855 0.606051
v -0.031121 2.546336 0.044613
vt 0.309107 0.611490
v -0.041601 2.546336 0.035010
vt 0.309876 0.617326
v -0.049239 2.546336 0.023021
vt 0.309107 0.623162
v -0.053513 2.546336 0.009465
vt 0.306855 0.628601
v -0.054132 2.546336 -0.004736
vt 0.303271 0.633271
v -0.051056 2.546336 -0.018613
vt 0.298601 0.636854
v -0.044493 2.546336 -0.031222
vt 0.293162 0.639107
v -0.034890 2.546336 -0.041701
vt 0.287326 0.639875
v -0.022902 2.546336 -0.049339
vt 0.281490 0.639107
v -0.009345 2.546336 -0.053613
vt 0.276051 0.636854
vt 0.271381 0.633271
v -0.009345 2.558436 -0.053613
v -0.022902 2.558436 -0.049339
v -0.034890 2.558436 -0.041701
v -0.044493 2.558436 -0.031222
v -0.051056 2.558436 -0.018613
v -0.054132 2.558436 -0.004736
v -0.053513 2.558436 0.009465
v -0.049239 2.558436 0.023021
v -0.041601 2.558436 0.035010
v -0.031121 2.558436 0.044613
v -0.018513 2.558436 0.051176
v 0.000110 2.558436 0.000010
v 0.040942 2.491281 -0.057149
vt 0.271381 0.639875
v 0.059023 2.491281 -0.055567
vt 0.309876 0.639875
v 0.048477 2.491281 0.064972
vt 0.271381 0.601381
vt 0.309876 0.601381
v 0.030396 2.491281 0.063391
v 0.040942 2.563881 -0.057149
v 0.030396 2.563881 0.063391
v 0.048477 2.563881 0.064972
v 0.059023 2.563881 -0.055567
vt 0.249876 0.633044
vt 0.288616 0.633044
vt 0.249876 0.671785
vt 0.288616 0.671785
v 0.216188 2.570987 0.057759
vt 0.539697 0.328873
vn -0.008800 -0.000000 1.000000
v 0.204088 2.570987 0.057653
vt 0.554116 0.328873
v 0.204088 2.556221 0.057653
vt 0.539697 0.314455
vt 0.554116 0.314455
v 0.216188 2.556221 0.057759
v 0.216294 2.570987 0.045659
vn 1.000000 -0.000000 0.008800
v 0.216294 2.556221 0.045659
v 0.204194 2.570987 0.045553
vn 0.008800 -0.000000 -1.000000
v 0.204194 2.556221 0.045553
vn -1.000000 -0.000000 -0.008800
v 0.203780 2.568294 0.035790
vt 0.472929 0.643430
v 0.226056 2.568294 0.045246
vt 0.493645 0.646573
v 0.216601 2.568294 0.067522
vt 0.472929 0.624413
vt 0.493645 0.627555
v 0.194325 2.568294 0.058066
v 0.203780 2.598545 0.035790
vn 0.390700 -0.000000 -0.920500
v 0.226056 2.598545 0.045246
v 0.194325 2.598545 0.058066
vn -0.920500 -0.000000 -0.390700
v 0.216601 2.598545 0.067522
vn -0.390700 -0.000000 0.920500
v 0.198570 2.520011 0.057706
v 0.210162 2.516541 0.057706
v 0.216241 2.558042 0.057706
v 0.204141 2.558042 0.057706
v 0.182326 2.485175 0.057706
v 0.192435 2.478525 0.057706
v 0.156772 2.456461 0.057706
v 0.164550 2.447192 0.057706
v 0.124058 2.436282 0.057706
v 0.128850 2.425171 0.057706
v 0.086929 2.426333 0.057706
v 0.088334 2.414315 0.057706
v 0.048508 2.427451 0.057706
v 0.046407 2.415535 0.057706
v 0.198570 2.520011 0.045606
vn -0.989400 0.144900 -0.000000
v 0.204141 2.558042 0.045606
v 0.182326 2.485175 0.045606
vn -0.906300 0.422600 -0.000000
v 0.156772 2.456461 0.045606
vn -0.747000 0.664800 -0.000000
v 0.124058 2.436282 0.045606
vn -0.525000 0.851100 -0.000000
v 0.086929 2.426333 0.045606
vn -0.258800 0.965900 -0.000000
v 0.048508 2.427451 0.045606
vn 0.029100 0.999600 -0.000000
v 0.210162 2.516541 0.045606
v 0.216241 2.558042 0.045606
v 0.192435 2.478525 0.045606
v 0.164550 2.447192 0.045606
v 0.128850 2.425171 0.045606
v 0.088334 2.414315 0.045606
v 0.046407 2.415535 0.045606
vn 0.989400 -0.144900 -0.000000
vn 0.906300 -0.422600 -0.000000
vn 0.747000 -0.664800 -0.000000
vn 0.525000 -0.851100 -0.000000
vn 0.258800 -0.965900 -0.000000
vn -0.029100 -0.999600 -0.000000
v -0.015126 2.438327 0.045659
vn 0.159800 0.984800 0.067800
v -0.015296 2.437524 0.057731
v 0.056363 2.425877 0.057966
v 0.056534 2.426681 0.045894
vn 0.159800 0.984800 0.067900
v -0.017060 2.426411 0.044838
vn 0.014100 0.066500 -0.997700
vn 0.014100 0.066400 -0.997700
v 0.054599 2.414764 0.045073
v -0.017230 2.425607 0.056910
vn -0.159800 -0.984800 -0.067800
v 0.054429 2.413960 0.057145
vn -0.159800 -0.984800 -0.067900
vn -0.014100 -0.066500 0.997700
v -0.012100 2.411893 0.030830
v 0.012100 2.411893 0.067130
v -0.012100 2.411893 0.067130
v 0.012100 2.411893 0.030830
v -0.012100 2.448193 0.030830
v 0.012100 2.448193 0.067130
v 0.012100 2.448193 0.030830
v -0.012100 2.448193 0.067130
f 1/1/1 2/2/1 3/3/1
f 1/4/1 4/2/1 2/1/1
f 1/5/1 5/2/1 4/4/1
f 1/6/1 6/2/1 5/5/1
f 1/7/1 7/2/1 6/6/1
f 1/8/1 8/2/1 7/7/1
f 1/9/1 9/2/1 8/8/1
f 1/10/1 10/2/1 9/9/1
f 1/11/1 11/2/1 10/10/1
f 1/12/1 12/2/1 11/11/1
f 1/13/1 13/2/1 12/12/1
f 1/14/1 14/2/1 13/13/1
f 1/15/1 15/2/1 14/14/1
f 1/16/1 16/2/1 15/15/1
f 1/17/1 17/2/1 16/16/1
f 1/18/1 18/2/1 17/17/1
f 1/19/1 19/2/1 18/18/1
f 1/20/1 20/2/1 19/19/1
f 1/21/1 21/2/1 20/20/1
f 1/22/1 22/2/1 21/21/1
f 1/23/1 23/2/1 22/22/1
f 1/24/1 24/2/1 23/23/1
f 1/25/1 25/2/1 24/24/1
f 1/26/1 26/2/1 25/25/1
f 1/27/1 27/2/1 26/26/1
f 1/28/1 28/2/1 27/27/1
f 1/29/1 29/2/1 28/28/1
f 1/30/1 30/2/1 29/29/1
f 1/31/1 31/2/1 30/30/1
f 1/3/1 3/2/1 31/31/1
f 3/32/2 32/33/2 33/34/2
f 3/35/2 2/33/2 32/32/2
f 2/32/3 34/33/3 32/34/3
f 2/35/3 4/33/3 34/32/3
f 4/32/4 35/33/4 34/34/4
f 4/35/4 5/33/4 35/32/4
f 5/32/5 36/33/5 35/34/5
f 5/35/5 6/33/5 36/32/5
f 6/32/6 37/33/6 36/34/6
f 6/35/6 7/33/6 37/32/6
f 7/32/7 38/33/7 37/34/7
f 7/35/7 8/33/7 38/32/7
f 8/32/8 39/33/8 38/34/8
f 8/35/8 9/33/8 39/32/8
f 9/32/9 40/33/9 39/34/9
f 9/35/9 10/33/9 40/32/9
f 10/32/10 41/33/10 40/34/10
f 10/35/10 11/33/10 41/32/10
f 11/32/11 42/33/11 41/34/11
f 11/35/11 12/33/11 42/32/11
f 12/32/12 43/33/12 42/34/12
f 12/35/12 13/33/12 43/32/12
f 13/32/13 44/33/13 43/34/13
f 13/35/13 14/33/13 44/32/13
f 14/32/14 45/33/14 44/34/14
f 14/35/14 15/33/14 45/32/14
f 15/32/15 46/33/15 45/34/15
f 15/35/15 16/33/15 46/32/15
f 16/32/16 47/33/16 46/34/16
f 16/35/16 17/33/16 47/32/16
f 17/32/17 48/33/17 47/34/17
f 17/35/17 18/33/17 48/32/17
f 18/32/18 49/33/18 48/34/18
f 18/35/18 19/33/18 49/32/18
f 19/32/19 50/33/19 49/34/19
f 19/35/19 20/33/19 50/32/19
f 20/32/20 51/33/20 50/34/20
f 20/35/20 21/33/20 51/32/20
f 21/32/21 52/33/21 51/34/21
f 21/35/21 22/33/21 52/32/21
f 22/32/22 53/33/22 52/34/22
f 22/35/22 23/33/22 53/32/22
f 23/32/23 54/33/23 53/34/23
f 23/35/23 24/33/23 54/32/23
f 24/32/24 55/33/24 54/34/24
f 24/35/24 25/33/24 55/32/24
f 25/32/25 56/33/25 55/34/25
f 25/35/25 26/33/25 56/32/25
f 26/32/26 57/33/26 56/34/26
f 26/35/26 27/33/26 57/32/26
f 27/32/27 58/33/27 57/34/27
f 27/35/27 28/33/27 58/32/27
f 28/32/28 59/33/28 58/34/28
f 28/35/28 29/33/28 59/32/28
f 29/32/29 60/33/29 59/34/29
f 29/35/29 30/33/29 60/32/29
f 30/32/30 61/33/30 60/34/30
f 30/35/30 31/33/30 61/32/30
f 31/32/31 33/33/31 61/34/31
f 31/35/31 3/33/31 33/32/31
f 62/1/1 63/2/1 64/3/1
f 62/4/1 65/2/1 63/1/1
f 62/5/1 66/2/1 65/4/1
f 62/6/1 67/2/1 66/5/1
f 62/7/1 68/2/1 67/6/1
f 62/8/1 69/2/1 68/7/1
f 62/9/1 70/2/1 69/8/1
f 62/10/1 71/2/1 70/9/1
f 62/11/1 72/2/1 71/10/1
f 62/12/1 73/2/1 72/11/1
f 62/13/1 74/2/1 73/12/1
f 62/14/1 75/2/1 74/13/1
f 62/15/1 76/2/1 75/14/1
f 62/16/1 77/2/1 76/15/1
f 62/17/1 78/2/1 77/16/1
f 62/18/1 79/2/1 78/17/1
f 62/19/1 80/2/1 79/18/1
f 62/20/1 81/2/1 80/19/1
f 62/21/1 82/2/1 81/20/1
f 62/22/1 83/2/1 82/21/1
f 62/23/1 84/2/1 83/22/1
f 62/24/1 85/2/1 84/23/1
f 62/25/1 86/2/1 85/24/1
f 62/26/1 87/2/1 86/25/1
f 62/27/1 88/2/1 87/26/1
f 62/28/1 89/2/1 88/27/1
f 62/29/1 90/2/1 89/28/1
f 62/30/1 91/2/1 90/29/1
f 62/31/1 92/2/1 91/30/1
f 62/3/1 64/2/1 92/31/1
f 64/32/2 93/33/2 94/34/2
f 64/35/2 63/33/2 93/32/2
f 63/32/3 95/33/3 93/34/3
f 63/35/3 65/33/3 95/32/3
f 65/32/4 96/33/4 95/34/4
f 65/35/4 66/33/4 96/32/4
f 66/32/5 97/33/5 96/34/5
f 66/35/5 67/33/5 97/32/5
f 67/32/6 98/33/6 97/34/6
f 67/35/6 68/33/6 98/32/6
f 68/32/7 99/33/7 98/34/7
f 68/35/7 69/33/7 99/32/7
f 69/32/32 100/33/32 99/34/32
f 69/35/32 70/33/32 100/32/32
f 70/32/9 101/33/9 100/34/9
f 70/35/9 71/33/9 101/32/9
f 71/32/33 102/33/33 101/34/33
f 71/35/33 72/33/33 102/32/33
f 72/32/11 103/33/11 102/34/11
f 72/35/11 73/33/11 103/32/11
f 73/32/12 104/33/12 103/34/12
f 73/35/12 74/33/12 104/32/12
f 74/32/13 105/33/13 104/34/13
f 74/35/13 75/33/13 105/32/13
f 75/32/14 106/33/14 105/34/14
f 75/35/14 76/33/14 106/32/14
f 76/32/15 107/33/15 106/34/15
f 76/35/15 77/33/15 107/32/15
f 77/32/16 108/33/16 107/34/16
f 77/35/16 78/33/16 108/32/16
f 78/32/17 109/33/17 108/34/17
f 78/35/17 79/33/17 109/32/17
f 79/32/18 110/33/18 109/34/18
f 79/35/18 80/33/18 110/32/18
f 80/32/34 111/33/34 110/34/34
f 80/35/34 81/33/34 111/32/34
f 81/32/35 112/33/20 111/34/35
f 81/35/35 82/33/20 112/32/20
f 82/32/21 113/33/21 112/34/21
f 82/35/21 83/33/21 113/32/21
f 83/32/22 114/33/22 113/34/22
f 83/35/22 84/33/22 114/32/22
f 84/32/36 115/33/36 114/34/36
f 84/35/36 85/33/36 115/32/36
f 85/32/24 116/33/24 115/34/24
f 85/35/24 86/33/24 116/32/24
f 86/32/37 117/33/37 116/34/37
f 86/35/37 87/33/37 117/32/37
f 87/32/26 118/33/26 117/34/26
f 87/35/26 88/33/26 118/32/26
f 88/32/27 119/33/27 118/34/27
f 88/35/27 89/33/27 119/32/27
f 89/32/38 120/33/38 119/34/38
f 89/35/38 90/33/38 120/32/38
f 90/32/29 121/33/29 120/34/29
f 90/35/29 91/33/29 121/32/29
f 91/32/30 122/33/30 121/34/30
f 91/35/30 92/33/30 122/32/30
f 92/32/31 94/33/31 122/34/31
f 92/35/31 64/33/31 94/32/31
f 123/1/1 124/2/1 125/3/1
f 123/4/1 126/2/1 124/1/1
f 123/5/1 127/2/1 126/4/1
f 123/6/1 128/2/1 127/5/1
f 123/7/1 129/2/1 128/6/1
f 123/8/1 130/2/1 129/7/1
f 123/9/1 131/2/1 130/8/1
f 123/10/1 132/2/1 131/9/1
f 123/11/1 133/2/1 132/10/1
f 123/12/1 134/2/1 133/11/1
f 123/13/1 135/2/1 134/12/1
f 123/14/1 136/2/1 135/13/1
f 123/15/1 137/2/1 136/14/1
f 123/16/1 138/2/1 137/15/1
f 123/17/1 139/2/1 138/16/1
f 123/18/1 140/2/1 139/17/1
f 123/19/1 141/2/1 140/18/1
f 123/20/1 142/2/1 141/19/1
f 123/21/1 143/2/1 142/20/1
f 123/22/1 144/2/1 143/21/1
f 123/23/1 145/2/1 144/22/1
f 123/24/1 146/2/1 145/23/1
f 123/25/1 147/2/1 146/24/1
f 123/26/1 148/2/1 147/25/1
f 123/27/1 149/2/1 148/26/1
f 123/28/1 150/2/1 149/27/1
f 123/29/1 151/2/1 150/28/1
f 123/30/1 152/2/1 151/29/1
f 123/31/1 153/2/1 152/30/1
f 123/3/1 125/2/1 153/31/1
f 125/32/2 154/33/2 155/34/2
f 125/35/2 124/33/2 154/32/2
f 124/32/3 156/33/3 154/34/3
f 124/35/3 126/33/3 156/32/3
f 126/32/4 157/33/4 156/34/4
f 126/35/4 127/33/4 157/32/4
f 127/32/5 158/33/5 157/34/5
f 127/35/5 128/33/5 158/32/5
f 128/32/6 159/33/6 158/34/6
f 128/35/6 129/33/6 159/32/6
f 129/32/7 160/33/7 159/34/7
f 129/35/7 130/33/7 160/32/7
f 130/32/8 161/33/8 160/34/8
f 130/35/8 131/33/8 161/32/8
f 131/32/9 162/33/9 161/34/9
f 131/35/9 132/33/9 162/32/9
f 132/32/10 163/33/10 162/34/10
f 132/35/10 133/33/10 163/32/10
f 133/32/11 164/33/11 163/34/11
f 133/35/11 134/33/11 164/32/11
f 134/32/12 165/33/12 164/34/12
f 134/35/12 135/33/12 165/32/12
f 135/32/13 166/33/13 165/34/13
f 135/35/13 136/33/13 166/32/13
f 136/32/14 167/33/14 166/34/14
f 136/35/14 137/33/14 167/32/14
f 137/32/15 168/33/15 167/34/15
f 137/35/15 138/33/15 168/32/15
f 138/32/16 169/33/16 168/34/16
f 138/35/16 139/33/16 169/32/16
f 139/32/17 170/33/17 169/34/17
f 139/35/17 140/33/17 170/32/17
f 140/32/18 171/33/18 170/34/18
f 140/35/18 141/33/18 171/32/18
f 141/32/19 172/33/19 171/34/19
f 141/35/19 142/33/19 172/32/19
f 142/32/20 173/33/20 172/34/20
f 142/35/20 143/33/20 173/32/20
f 143/32/21 174/33/21 173/34/21
f 143/35/21 144/33/21 174/32/21
f 144/32/22 175/33/22 174/34/22
f 144/35/22 145/33/22 175/32/22
f 145/32/23 176/33/23 175/34/23
f 145/35/23 146/33/23 176/32/23
f 146/32/24 177/33/24 176/34/24
f 146/35/24 147/33/24 177/32/24
f 147/32/25 178/33/25 177/34/25
f 147/35/25 148/33/25 178/32/25
f 148/32/26 179/33/26 178/34/26
f 148/35/26 149/33/26 179/32/26
f 149/32/27 180/33/27 179/34/27
f 149/35/27 150/33/27 180/32/27
f 150/32/28 181/33/28 180/34/28
f 150/35/28 151/33/28 181/32/28
f 151/32/29 182/33/29 181/34/29
f 151/35/29 152/33/29 182/32/29
f 152/32/30 183/33/30 182/34/30
f 152/35/30 153/33/30 183/32/30
f 153/32/31 155/33/31 183/34/31
f 153/35/31 125/33/31 155/32/31
f 184/1/1 185/2/1 186/3/1
f 184/4/1 187/2/1 185/1/1
f 184/5/1 188/2/1 187/4/1
f 184/6/1 189/2/1 188/5/1
f 184/7/1 190/2/1 189/6/1
f 184/8/1 191/2/1 190/7/1
f 184/9/1 192/2/1 191/8/1
f 184/10/1 193/2/1 192/9/1
f 184/11/1 194/2/1 193/10/1
f 184/12/1 195/2/1 194/11/1
f 184/13/1 196/2/1 195/12/1
f 184/14/1 197/2/1 196/13/1
f 184/15/1 198/2/1 197/14/1
f 184/16/1 199/2/1 198/15/1
f 184/17/1 200/2/1 199/16/1
f 184/18/1 201/2/1 200/17/1
f 184/19/1 202/2/1 201/18/1
f 184/20/1 203/2/1 202/19/1
f 184/21/1 204/2/1 203/20/1
f 184/22/1 205/2/1 204/21/1
f 184/23/1 206/2/1 205/22/1
f 184/24/1 207/2/1 206/23/1
f 184/25/1 208/2/1 207/24/1
f 184/26/1 209/2/1 208/25/1
f 184/27/1 210/2/1 209/26/1
f 184/28/1 211/2/1 210/27/1
f 184/29/1 212/2/1 211/28/1
f 184/30/1 213/2/1 212/29/1
f 184/31/1 214/2/1 213/30/1
f 184/3/1 186/2/1 214/31/1
f 186/32/2 215/33/2 216/34/2
f 186/35/2 185/33/2 215/32/2
f 185/32/3 217/33/3 215/34/3
f 185/35/3 187/33/3 217/32/3
f 187/32/4 218/33/4 217/34/4
f 187/35/4 188/33/4 218/32/4
f 188/32/5 219/33/5 218/34/5
f 188/35/5 189/33/5 219/32/5
f 189/32/6 220/33/6 219/34/6
f 189/35/6 190/33/6 220/32/6
f 190/32/7 221/33/7 220/34/7
f 190/35/7 191/33/7 221/32/7
f 191/32/32 222/33/32 221/34/32
f 191/35/32 192/33/32 222/32/32
f 192/32/9 223/33/9 222/34/9
f 192/35/9 193/33/9 223/32/9
f 193/32/33 224/33/33 223/34/33
f 193/35/33 194/33/33 224/32/33
f 194/32/11 225/33/11 224/34/11
f 194/35/11 195/33/11 225/32/11
f 195/32/12 226/33/12 225/34/12
f 195/35/12 196/33/12 226/32/12
f 196/32/13 227/33/13 226/34/13
f 196/35/13 197/33/13 227/32/13
f 197/32/14 228/33/14 227/34/14
f 197/35/14 198/33/14 228/32/14
f 198/32/15 229/33/15 228/34/15
f 198/35/15 199/33/15 229/32/15
f 199/32/16 230/33/16 229/34/16
f 199/35/16 200/33/16 230/32/16
f 200/32/17 231/33/17 230/34/17
f 200/35/17 201/33/17 231/32/17
f 201/32/18 232/33/18 231/34/18
f 201/35/18 202/33/18 232/32/18
f 202/32/34 233/33/34 232/34/34
f 202/35/34 203/33/34 233/32/34
f 203/32/20 234/33/20 233/34/35
f 203/35/20 204/33/20 234/32/20
f 204/32/21 235/33/21 234/34/21
f 204/35/21 205/33/21 235/32/21
f 205/32/22 236/33/22 235/34/22
f 205/35/22 206/33/22 236/32/22
f 206/32/36 237/33/36 236/34/36
f 206/35/36 207/33/36 237/32/36
f 207/32/24 238/33/24 237/34/24
f 207/35/24 208/33/24 238/32/24
f 208/32/37 239/33/37 238/34/37
f 208/35/37 209/33/37 239/32/37
f 209/32/26 240/33/26 239/34/26
f 209/35/26 210/33/26 240/32/26
f 210/32/27 241/33/27 240/34/27
f 210/35/27 211/33/27 241/32/27
f 211/32/38 242/33/38 241/34/38
f 211/35/38 212/33/28 242/32/38
f 212/32/29 243/33/29 242/34/29
f 212/35/29 213/33/29 243/32/29
f 213/32/30 244/33/30 243/34/30
f 213/35/30 214/33/30 244/32/30
f 214/32/31 216/33/31 244/34/31
f 214/35/31 186/33/31 216/32/31
f 245/1/1 246/2/1 247/3/1
f 245/4/1 248/2/1 246/1/1
f 245/5/1 249/2/1 248/4/1
f 245/6/1 250/2/1 249/5/1
f 245/7/1 251/2/1 250/6/1
f 245/8/1 252/2/1 251/7/1
f 245/9/1 253/2/1 252/8/1
f 245/10/1 254/2/1 253/9/1
f 245/11/1 255/2/1 254/10/1
f 245/12/1 256/2/1 255/11/1
f 245/13/1 257/2/1 256/12/1
f 245/14/1 258/2/1 257/13/1
f 245/15/1 259/2/1 258/14/1
f 245/16/1 260/2/1 259/15/1
f 245/17/1 261/2/1 260/16/1
f 245/18/1 262/2/1 261/17/1
f 245/19/1 263/2/1 262/18/1
f 245/20/1 264/2/1 263/19/1
f 245/21/1 265/2/1 264/20/1
f 245/22/1 266/2/1 265/21/1
f 245/23/1 267/2/1 266/22/1
f 245/24/1 268/2/1 267/23/1
f 245/25/1 269/2/1 268/24/1
f 245/26/1 270/2/1 269/25/1
f 245/27/1 271/2/1 270/26/1
f 245/28/1 272/2/1 271/27/1
f 245/29/1 273/2/1 272/28/1
f 245/30/1 274/2/1 273/29/1
f 245/31/1 275/2/1 274/30/1
f 245/3/1 247/2/1 275/31/1
f 247/32/2 276/33/2 277/34/2
f 247/35/2 246/33/2 276/32/2
f 246/32/3 278/33/3 276/34/3
f 246/35/3 248/33/3 278/32/3
f 248/32/4 279/33/4 278/34/4
f 248/35/4 249/33/4 279/32/4
f 249/32/5 280/33/5 279/34/5
f 249/35/5 250/33/5 280/32/5
f 250/32/6 281/33/6 280/34/6
f 250/35/6 251/33/6 281/32/6
f 251/32/7 282/33/7 281/34/7
f 251/35/7 252/33/7 282/32/7
f 252/32/8 283/33/8 282/34/8
f 252/35/8 253/33/8 283/32/8
f 253/32/9 284/33/9 283/34/9
f 253/35/9 254/33/9 284/32/9
f 254/32/10 285/33/10 284/34/10
f 254/35/10 255/33/10 285/32/10
f 255/32/11 286/33/11 285/34/11
f 255/35/11 256/33/11 286/32/11
f 256/32/12 287/33/12 286/34/12
f 256/35/12 257/33/12 287/32/12
f 257/32/13 288/33/13 287/34/13
f 257/35/13 258/33/13 288/32/13
f 258/32/14 289/33/14 288/34/14
f 258/35/14 259/33/14 289/32/14
f 259/32/15 290/33/15 289/34/15
f 259/35/15 260/33/15 290/32/15
f 260/32/16 291/33/16 290/34/16
f 260/35/16 261/33/16 291/32/16
f 261/32/17 292/33/17 291/34/17
f 261/35/17 262/33/17 292/32/17
f 262/32/18 293/33/18 292/34/18
f 262/35/18 263/33/18 293/32/18
f 263/32/19 294/33/19 293/34/19
f 263/35/19 264/33/19 294/32/19
f 264/32/20 295/33/20 294/34/20
f 264/35/20 265/33/20 295/32/20
f 265/32/21 296/33/21 295/34/21
f 265/35/21 266/33/21 296/32/21
f 266/32/22 297/33/22 296/34/22
f 266/35/22 267/33/22 297/32/22
f 267/32/23 298/33/23 297/34/23
f 267/35/23 268/33/23 298/32/23
f 268/32/24 299/33/24 298/34/24
f 268/35/24 269/33/24 299/32/24
f 269/32/25 300/33/25 299/34/25
f 269/35/25 270/33/25 300/32/25
f 270/32/26 301/33/26 300/34/26
f 270/35/26 271/33/26 301/32/26
f 271/32/27 302/33/27 301/34/27
f 271/35/27 272/33/27 302/32/27
f 272/32/28 303/33/28 302/34/28
f 272/35/28 273/33/28 303/32/28
f 273/32/29 304/33/29 303/34/29
f 273/35/29 274/33/29 304/32/29
f 274/32/30 305/33/30 304/34/30
f 274/35/30 275/33/30 305/32/30
f 275/32/31 277/33/31 305/34/31
f 275/35/31 247/33/31 277/32/31
f 306/1/1 307/2/1 308/3/1
f 306/4/1 309/2/1 307/1/1
f 306/5/1 310/2/1 309/4/1
f 306/6/1 311/2/1 310/5/1
f 306/7/1 312/2/1 311/6/1
f 306/8/1 313/2/1 312/7/1
f 306/9/1 314/2/1 313/8/1
f 306/10/1 315/2/1 314/9/1
f 306/11/1 316/2/1 315/10/1
f 306/12/1 317/2/1 316/11/1
f 306/13/1 318/2/1 317/12/1
f 306/14/1 319/2/1 318/13/1
f 306/15/1 320/2/1 319/14/1
f 306/16/1 321/2/1 320/15/1
f 306/17/1 322/2/1 321/16/1
f 306/18/1 323/2/1 322/17/1
f 306/19/1 324/2/1 323/18/1
f 306/20/1 325/2/1 324/19/1
f 306/21/1 326/2/1 325/20/1
f 306/22/1 327/2/1 326/21/1
f 306/23/1 328/2/1 327/22/1
f 306/24/1 329/2/1 328/23/1
f 306/25/1 330/2/1 329/24/1
f 306/26/1 331/2/1 330/25/1
f 306/27/1 332/2/1 331/26/1
f 306/28/1 333/2/1 332/27/1
f 306/29/1 334/2/1 333/28/1
f 306/30/1 335/2/1 334/29/1
f 306/31/1 336/2/1 335/30/1
f 306/3/1 308/2/1 336/31/1
f 308/32/2 337/33/2 338/34/2
f 308/35/2 307/33/2 337/32/2
f 307/32/3 339/33/3 337/34/3
f 307/35/3 309/33/3 339/32/3
f 309/32/4 340/33/4 339/34/4
f 309/35/4 310/33/4 340/32/4
f 310/32/5 341/33/5 340/34/5
f 310/35/5 311/33/5 341/32/5
f 311/32/6 342/33/6 341/34/6
f 311/35/6 312/33/6 342/32/6
f 312/32/7 343/33/7 342/34/7
f 312/35/7 313/33/7 343/32/7
f 313/32/32 344/33/32 343/34/32
f 313/35/32 314/33/32 344/32/32
f 314/32/9 345/33/9 344/34/9
f 314/35/9 315/33/9 345/32/9
f 315/32/33 346/33/33 345/34/33
f 315/35/33 316/33/33 346/32/33
f 316/32/11 347/33/11 346/34/11
f 316/35/11 317/33/11 347/32/11
f 317/32/12 348/33/12 347/34/12
f 317/35/12 318/33/12 348/32/12
f 318/32/13 349/33/13 348/34/13
f 318/35/13 319/33/13 349/32/13
f 319/32/14 350/33/14 349/34/14
f 319/35/14 320/33/14 350/32/14
f 320/32/15 351/33/15 350/34/15
f 320/35/15 321/33/15 351/32/15
f 321/32/16 352/33/16 351/34/16
f 321/35/16 322/33/16 352/32/16
f 322/32/17 353/33/17 352/34/17
f 322/35/17 323/33/17 353/32/17
f 323/32/18 354/33/18 353/34/18
f 323/35/18 324/33/18 354/32/18
f 324/32/34 355/33/34 354/34/34
f 324/35/34 325/33/34 355/32/34
f 325/32/20 356/33/20 355/34/20
f 325/35/20 326/33/20 356/32/20
f 326/32/21 357/33/21 356/34/21
f 326/35/21 327/33/21 357/32/21
f 327/32/22 358/33/22 357/34/22
f 327/35/22 328/33/22 358/32/22
f 328/32/36 359/33/36 358/34/36
f 328/35/36 329/33/36 359/32/36
f 329/32/24 360/33/24 359/34/24
f 329/35/24 330/33/24 360/32/24
f 330/32/37 361/33/37 360/34/37
f 330/35/37 331/33/37 361/32/37
f 331/32/26 362/33/26 361/34/26
f 331/35/26 332/33/26 362/32/26
f 332/32/27 363/33/27 362/34/27
f 332/35/27 333/33/27 363/32/27
f 333/32/38 364/33/38 363/34/38
f 333/35/38 334/33/38 364/32/38
f 334/32/29 365/33/29 364/34/29
f 334/35/29 335/33/29 365/32/29
f 335/32/30 366/33/30 365/34/30
f 335/35/30 336/33/30 366/32/30
f 336/32/31 338/33/31 366/34/31
f 336/35/31 308/33/31 338/32/31
f 367/1/1 368/2/1 369/3/1
f 367/4/1 370/2/1 368/1/1
f 367/5/1 371/2/1 370/4/1
f 367/6/1 372/2/1 371/5/1
f 367/7/1 373/2/1 372/6/1
f 367/8/1 374/2/1 373/7/1
f 367/9/1 375/2/1 374/8/1
f 367/10/1 376/2/1 375/9/1
f 367/11/1 377/2/1 376/10/1
f 367/12/1 378/2/1 377/11/1
f 367/13/1 379/2/1 378/12/1
f 367/14/1 380/2/1 379/13/1
f 367/15/1 381/2/1 380/14/1
f 367/16/1 382/2/1 381/15/1
f 367/17/1 383/2/1 382/16/1
f 367/18/1 384/2/1 383/17/1
f 367/19/1 385/2/1 384/18/1
f 367/20/1 386/2/1 385/19/1
f 367/21/1 387/2/1 386/20/1
f 367/22/1 388/2/1 387/21/1
f 367/23/1 389/2/1 388/22/1
f 367/24/1 390/2/1 389/23/1
f 367/25/1 391/2/1 390/24/1
f 367/26/1 392/2/1 391/25/1
f 367/27/1 393/2/1 392/26/1
f 367/28/1 394/2/1 393/27/1
f 367/29/1 395/2/1 394/28/1
f 367/30/1 396/2/1 395/29/1
f 367/31/1 397/2/1 396/30/1
f 367/3/1 369/2/1 397/31/1
f 369/32/2 398/33/2 399/34/2
f 369/35/2 368/33/2 398/32/2
f 368/32/3 400/33/3 398/34/3
f 368/35/3 370/33/3 400/32/3
f 370/32/4 401/33/4 400/34/4
f 370/35/4 371/33/4 401/32/4
f 371/32/5 402/33/5 401/34/5
f 371/35/5 372/33/5 402/32/5
f 372/32/6 403/33/6 402/34/6
f 372/35/6 373/33/6 403/32/6
f 373/32/7 404/33/7 403/34/7
f 373/35/7 374/33/7 404/32/7
f 374/32/8 405/33/8 404/34/8
f 374/35/8 375/33/8 405/32/8
f 375/32/9 406/33/9 405/34/9
f 375/35/9 376/33/9 406/32/9
f 376/32/10 407/33/10 406/34/10
f 376/35/10 377/33/10 407/32/10
f 377/32/11 408/33/11 407/34/11
f 377/35/11 378/33/11 408/32/11
f 378/32/12 409/33/12 408/34/12
f 378/35/12 379/33/12 409/32/12
f 379/32/13 410/33/13 409/34/13
f 379/35/13 380/33/13 410/32/13
f 380/32/14 411/33/14 410/34/14
f 380/35/14 381/33/14 411/32/14
f 381/32/15 412/33/15 411/34/15
f 381/35/15 382/33/15 412/32/15
f 382/32/16 413/33/16 412/34/16
f 382/35/16 383/33/16 413/32/16
f 383/32/17 414/33/17 413/34/17
f 383/35/17 384/33/17 414/32/17
f 384/32/18 415/33/18 414/34/18
f 384/35/18 385/33/18 415/32/18
f 385/32/19 416/33/19 415/34/19
f 385/35/19 386/33/19 416/32/19
f 386/32/20 417/33/20 416/34/20
f 386/35/20 387/33/20 417/32/20
f 387/32/21 418/33/21 417/34/21
f 387/35/21 388/33/21 418/32/21
f 388/32/22 419/33/22 418/34/22
f 388/35/22 389/33/22 419/32/22
f 389/32/23 420/33/23 419/34/23
f 389/35/23 390/33/23 420/32/23
f 390/32/24 421/33/24 420/34/24
f 390/35/24 391/33/24 421/32/24
f 391/32/25 422/33/25 421/34/25
f 391/35/25 392/33/25 422/32/25
f 392/32/26 423/33/26 422/34/26
f 392/35/26 393/33/26 423/32/26
f 393/32/27 424/33/27 423/34/27
f 393/35/27 394/33/27 424/32/27
f 394/32/28 425/33/28 424/34/28
f 394/35/28 395/33/28 425/32/28
f 395/32/29 426/33/29 425/34/29
f 395/35/29 396/33/29 426/32/29
f 396/32/30 427/33/30 426/34/30
f 396/35/30 397/33/30 427/32/30
f 397/32/31 399/33/31 427/34/31
f 397/35/31 369/33/31 399/32/31
f 428/1/1 429/2/1 430/3/1
f 428/4/1 431/2/1 429/1/1
f 428/5/1 432/2/1 431/4/1
f 428/6/1 433/2/1 432/5/1
f 428/7/1 434/2/1 433/6/1
f 428/8/1 435/2/1 434/7/1
f 428/9/1 436/2/1 435/8/1
f 428/10/1 437/2/1 436/9/1
f 428/11/1 438/2/1 437/10/1
f 428/12/1 439/2/1 438/11/1
f 428/13/1 440/2/1 439/12/1
f 428/14/1 441/2/1 440/13/1
f 428/15/1 442/2/1 441/14/1
f 428/16/1 443/2/1 442/15/1
f 428/17/1 444/2/1 443/16/1
f 428/18/1 445/2/1 444/17/1
f 428/19/1 446/2/1 445/18/1
f 428/20/1 447/2/1 446/19/1
f 428/21/1 448/2/1 447/20/1
f 428/22/1 449/2/1 448/21/1
f 428/23/1 450/2/1 449/22/1
f 428/24/1 451/2/1 450/23/1
f 428/25/1 452/2/1 451/24/1
f 428/26/1 453/2/1 452/25/1
f 428/27/1 454/2/1 453/26/1
f 428/28/1 455/2/1 454/27/1
f 428/29/1 456/2/1 455/28/1
f 428/30/1 457/2/1 456/29/1
f 428/31/1 458/2/1 457/30/1
f 428/3/1 430/2/1 458/31/1
f 430/32/2 459/33/2 460/34/2
f 430/35/2 429/33/2 459/32/2
f 429/32/3 461/33/3 459/34/3
f 429/35/3 431/33/3 461/32/3
f 431/32/4 462/33/4 461/34/4
f 431/35/4 432/33/4 462/32/4
f 432/32/5 463/33/5 462/34/5
f 432/35/5 433/33/5 463/32/5
f 433/32/6 464/33/6 463/34/6
f 433/35/6 434/33/6 464/32/6
f 434/32/7 465/33/7 464/34/7
f 434/35/7 435/33/7 465/32/7
f 435/32/32 466/33/32 465/34/32
f 435/35/32 436/33/32 466/32/32
f 436/32/9 467/33/9 466/34/9
f 436/35/9 437/33/9 467/32/9
f 437/32/33 468/33/33 467/34/33
f 437/35/33 438/33/33 468/32/33
f 438/32/11 469/33/11 468/34/11
f 438/35/11 439/33/11 469/32/11
f 439/32/12 470/33/12 469/34/12
f 439/35/12 440/33/12 470/32/12
f 440/32/13 471/33/13 470/34/13
f 440/35/13 441/33/13 471/32/13
f 441/32/14 472/33/14 471/34/14
f 441/35/14 442/33/14 472/32/14
f 442/32/15 473/33/15 472/34/15
f 442/35/15 443/33/15 473/32/15
f 443/32/16 474/33/16 473/34/16
f 443/35/16 444/33/16 474/32/16
f 444/32/17 475/33/17 474/34/17
f 444/35/17 445/33/17 475/32/17
f 445/32/18 476/33/18 475/34/18
f 445/35/18 446/33/18 476/32/18
f 446/32/34 477/33/34 476/34/34
f 446/35/34 447/33/34 477/32/34
f 447/32/35 478/33/35 477/34/20
f 447/35/35 448/33/35 478/32/35
f 448/32/21 479/33/21 478/34/21
f 448/35/21 449/33/21 479/32/21
f 449/32/22 480/33/22 479/34/22
f 449/35/22 450/33/22 480/32/22
f 450/32/36 481/33/36 480/34/36
f 450/35/36 451/33/36 481/32/36
f 451/32/24 482/33/24 481/34/24
f 451/35/24 452/33/24 482/32/24
f 452/32/37 483/33/37 482/34/37
f 452/35/37 453/33/37 483/32/37
f 453/32/26 484/33/26 483/34/26
f 453/35/26 454/33/26 484/32/26
f 454/32/27 485/33/27 484/34/27
f 454/35/27 455/33/27 485/32/27
f 455/32/38 486/33/38 485/34/38
f 455/35/38 456/33/38 486/32/38
f 456/32/29 487/33/29 486/34/29
f 456/35/29 457/33/29 487/32/29
f 457/32/30 488/33/30 487/34/30
f 457/35/30 458/33/30 488/32/30
f 458/32/31 460/33/31 488/34/31
f 458/35/31 430/33/31 460/32/31
f 489/36/39 490/37/39 491/38/39
f 491/39/39 492/38/39 489/37/39
f 493/36/40 494/37/40 495/38/40
f 495/39/40 496/38/40 493/37/40
f 489/40/9 492/41/9 494/42/9
f 494/43/9 493/42/9 489/41/9
f 491/36/24 490/37/24 496/38/24
f 496/39/24 495/38/24 491/37/24
f 490/36/41 489/37/41 493/38/41
f 493/39/41 496/38/41 490/37/41
f 497/44/39 498/45/39 499/46/39
f 499/47/39 500/46/39 497/45/39
f 501/44/40 502/45/40 503/46/40
f 503/47/40 504/46/40 501/45/40
f 497/44/9 500/45/9 502/46/9
f 502/47/9 501/46/9 497/45/9
f 500/44/1 499/45/1 503/46/1
f 503/47/1 502/46/1 500/45/1
f 499/44/24 498/45/24 504/46/24
f 504/47/24 503/46/24 499/45/24
f 498/36/41 497/37/41 501/38/41
f 501/39/41 504/38/41 498/37/41
f 505/44/39 506/45/39 507/46/39
f 507/47/39 508/46/39 505/45/39
f 509/44/40 510/45/40 511/46/40
f 511/47/40 512/46/40 509/45/40
f 505/44/9 508/45/9 510/46/9
f 510/47/9 509/46/9 505/45/9
f 508/44/1 507/45/1 511/46/1
f 511/47/1 510/46/1 508/45/1
f 507/48/24 506/49/24 512/50/24
f 512/51/24 511/52/24 507/53/24
f 506/44/41 505/45/41 509/46/41
f 509/47/41 512/46/41 506/45/41
f 513/54/39 514/55/39 515/56/39
f 515/57/39 516/56/39 513/55/39
f 517/44/40 518/45/40 519/46/40
f 519/47/40 520/46/40 517/45/40
f 513/44/42 516/45/42 518/46/42
f 518/47/42 517/46/42 513/45/42
f 516/44/1 515/45/1 519/46/1
f 519/47/1 518/46/1 516/45/1
f 515/44/24 514/45/24 520/46/24
f 520/47/24 519/46/24 515/45/24
f 514/44/41 513/45/41 517/46/41
f 517/47/41 520/46/41 514/45/41
f 521/44/39 522/45/39 523/46/39
f 523/47/39 524/46/39 521/45/39
f 525/58/40 526/59/40 527/60/40
f 527/61/40 528/60/40 525/59/40
f 521/44/42 524/45/42 526/46/42
f 526/47/42 525/46/42 521/45/42
f 524/44/1 523/45/1 527/46/1
f 527/47/1 526/46/1 524/45/1
f 523/44/24 522/45/24 528/46/24
f 528/47/24 527/46/24 523/45/24
f 522/44/41 521/45/41 525/46/41
f 525/47/41 528/46/41 522/45/41
f 529/44/39 530/45/39 531/46/39
f 531/47/39 532/46/39 529/45/39
f 533/44/40 534/45/40 535/46/40
f 535/47/40 536/46/40 533/45/40
f 529/44/9 532/45/9 534/46/9
f 534/47/9 533/46/9 529/45/9
f 532/44/1 531/45/1 535/46/1
f 535/47/1 534/46/1 532/45/1
f 531/48/24 530/49/24 536/50/24
f 536/62/24 535/50/24 531/49/24
f 530/44/41 529/45/41 533/46/41
f 533/47/41 536/46/41 530/45/41
f 537/58/39 538/59/39 539/60/39
f 539/61/39 540/60/39 537/59/39
f 541/44/40 542/45/40 543/46/40
f 543/47/40 544/46/40 541/45/40
f 537/44/43 540/45/42 542/46/42
f 542/47/42 541/46/43 537/45/43
f 540/44/1 539/45/1 543/46/1
f 543/47/1 542/46/1 540/45/1
f 539/44/24 538/45/24 544/46/24
f 544/47/24 543/46/24 539/45/24
f 538/44/41 537/45/41 541/46/41
f 541/47/41 544/46/41 538/45/41
f 545/44/39 546/45/39 547/46/39
f 547/47/39 548/46/39 545/45/39
f 549/58/40 550/59/40 551/60/40
f 551/61/40 552/60/40 549/59/40
f 545/44/43 548/45/43 550/46/43
f 550/47/43 549/46/43 545/45/43
f 548/44/1 547/45/1 551/46/1
f 551/47/1 550/46/1 548/45/1
f 547/44/24 546/45/24 552/46/24
f 552/47/24 551/46/24 547/45/24
f 546/44/41 545/45/41 549/46/41
f 549/47/41 552/46/41 546/45/41
f 553/63/24 554/64/24 555/65/24
f 555/66/24 556/65/24 553/64/24
f 557/67/41 558/68/41 555/69/41
f 555/70/41 554/69/41 557/68/41
f 559/71/39 557/72/39 554/73/39
f 554/74/39 553/73/39 559/72/39
f 560/75/1 559/76/1 553/77/1
f 553/78/1 556/77/1 560/76/1
f 558/67/40 560/68/40 556/69/40
f 556/70/40 555/69/40 558/68/40
f 561/79/24 562/80/24 563/81/24
f 563/82/24 564/81/24 561/80/24
f 565/83/41 566/84/41 563/85/41
f 563/86/41 562/85/41 565/84/41
f 567/83/39 565/84/39 562/85/39
f 562/86/39 561/85/39 567/84/39
f 568/87/1 567/88/1 561/89/1
f 561/90/1 564/89/1 568/88/1
f 566/91/40 568/92/40 564/93/40
f 564/94/40 563/93/40 566/92/40
f 569/95/9 570/96/9 571/97/9
f 571/98/9 572/97/9 569/96/9
f 573/99/24 574/100/24 575/101/24
f 575/102/24 576/101/24 573/100/24
f 572/99/44 571/100/44 575/101/44
f 575/102/44 574/101/44 572/100/44
f 571/99/41 570/100/41 576/101/41
f 576/102/41 575/101/41 571/100/41
f 570/99/45 569/100/46 573/101/46
f 573/102/46 576/101/45 570/100/45
f 577/99/24 578/100/24 579/101/24
f 579/102/24 580/101/24 577/100/24
f 581/95/9 582/96/9 572/97/9
f 572/98/9 583/97/9 581/96/9
f 583/99/41 572/100/41 579/101/41
f 579/102/41 578/101/41 583/100/41
f 581/103/39 583/104/39 578/105/39
f 578/106/39 577/105/39 581/104/39
f 582/95/1 581/96/1 577/97/1
f 577/98/1 580/97/1 582/96/1
f 572/95/40 582/96/40 580/97/40
f 580/98/40 579/97/40 572/96/40
f 584/99/24 585/100/24 586/101/24
f 586/102/24 587/101/24 584/100/24
f 588/95/9 589/96/9 590/97/9
f 590/98/9 569/97/9 588/96/9
f 569/99/41 590/100/41 586/101/41
f 586/102/41 585/101/41 569/100/41
f 588/95/39 569/96/39 585/97/39
f 585/98/39 584/97/39 588/96/39
f 589/95/1 588/96/1 584/97/1
f 584/98/1 587/97/1 589/96/1
f 590/107/40 589/108/40 587/109/40
f 587/110/40 586/109/40 590/108/40
f 591/95/24 574/96/24 573/97/24
f 573/98/24 592/97/24 591/96/24
f 582/95/9 588/96/9 569/97/9
f 569/98/9 572/97/9 582/96/9
f 582/95/39 572/96/39 574/97/39
f 574/98/39 591/97/39 582/96/39
f 588/95/1 582/96/1 591/97/1
f 591/98/1 592/97/1 588/96/1
f 569/95/40 588/96/40 592/97/40
f 592/98/40 573/97/40 569/96/40
f 593/111/24 594/112/24 595/113/24
f 595/114/24 596/113/24 593/112/24
f 597/114/9 598/112/9 599/113/9
f 599/111/9 600/113/9 597/112/9
f 600/113/41 599/111/41 595/113/41
f 595/111/41 594/113/41 600/111/41
f 597/111/39 600/112/39 594/111/39
f 594/112/39 593/111/39 597/112/39
f 598/112/1 597/114/1 593/112/1
f 593/114/1 596/112/1 598/114/1
f 599/114/40 598/113/40 596/114/40
f 596/113/40 595/114/40 599/113/40
f 601/115/9 602/116/9 603/117/9
f 603/118/9 604/117/9 601/116/9
f 605/116/9 601/119/9 604/118/9
f 604/120/9 606/118/9 605/119/9
f 607/121/24 608/122/24 609/123/24
f 609/124/24 610/123/24 607/122/24
f 611/125/24 612/126/24 608/121/24
f 608/122/24 607/121/24 611/126/24
f 610/127/47 609/128/47 603/129/47
f 603/130/47 602/129/47 610/128/47
f 607/131/48 610/132/49 602/133/49
f 602/134/49 601/133/48 607/132/48
f 611/132/50 607/135/48 601/134/48
f 601/136/48 605/134/50 611/135/50
f 608/135/51 612/132/52 606/136/52
f 606/134/52 604/136/51 608/132/51
f 609/132/53 608/131/51 604/134/51
f 604/133/51 603/134/53 609/131/53
f 613/137/9 614/138/9 615/139/9
f 615/140/9 616/139/9 613/138/9
f 617/141/24 618/142/24 619/143/24
f 619/144/24 620/143/24 617/142/24
f 620/137/54 619/138/54 615/139/54
f 615/140/54 614/139/54 620/138/54
f 617/141/55 620/142/55 614/143/55
f 614/144/55 613/143/55 617/142/55
f 618/141/56 617/142/56 613/143/56
f 613/144/56 616/143/56 618/142/56
f 619/145/57 618/146/57 616/147/57
f 616/148/57 615/147/57 619/146/57
f 621/137/9 622/138/9 623/139/9
f 623/140/9 624/139/9 621/138/9
f 625/141/24 626/142/24 627/143/24
f 627/144/24 628/143/24 625/142/24
f 628/137/47 627/138/47 623/139/47
f 623/140/47 622/139/47 628/138/47
f 625/145/55 628/146/55 622/147/55
f 622/148/55 621/147/55 625/146/55
f 626/141/56 625/142/56 621/143/56
f 621/144/56 624/143/56 626/142/56
f 627/141/57 626/142/57 624/143/57
f 624/144/57 623/143/57 627/142/57
f 629/137/9 630/138/9 631/139/9
f 631/140/9 632/139/9 629/138/9
f 633/141/24 634/142/24 635/143/24
f 635/144/24 636/143/24 633/142/24
f 636/137/54 635/138/54 631/139/54
f 631/140/54 630/139/54 636/138/54
f 633/141/58 636/142/55 630/143/55
f 630/144/55 629/143/58 633/142/58
f 634/141/56 633/142/56 629/143/56
f 629/144/56 632/143/56 634/142/56
f 635/145/59 634/146/57 632/147/57
f 632/148/57 631/147/59 635/146/59
f 637/137/9 638/138/9 639/139/9
f 639/140/9 640/139/9 637/138/9
f 641/141/24 642/142/24 643/143/24
f 643/144/24 644/143/24 641/142/24
f 644/137/47 643/138/47 639/139/47
f 639/140/47 638/139/47 644/138/47
f 641/145/58 644/146/55 638/147/55
f 638/148/55 637/147/58 641/146/58
f 642/141/56 641/142/56 637/143/56
f 637/144/56 640/143/56 642/142/56
f 643/141/59 642/142/57 640/143/57
f 640/144/57 639/143/59 643/142/59
f 645/149/9 646/150/9 647/151/9
f 645/151/9 647/150/9 648/152/9
f 645/152/9 648/150/9 649/153/9
f 645/153/9 649/150/9 650/154/9
f 645/154/9 650/150/9 651/155/9
f 645/155/9 651/150/9 652/156/9
f 645/156/9 652/150/9 653/157/9
f 645/157/9 653/150/9 654/158/9
f 645/158/9 654/150/9 655/159/9
f 645/159/9 655/150/9 656/160/9
f 645/160/9 656/150/9 657/161/9
f 645/161/9 657/150/9 658/162/9
f 658/148/60 657/147/60 659/146/60
f 659/145/60 660/146/60 658/147/60
f 657/148/61 656/147/61 661/146/61
f 661/145/61 659/146/61 657/147/61
f 656/148/62 655/147/62 662/146/62
f 662/145/62 661/146/62 656/147/62
f 655/148/63 654/147/63 663/146/63
f 663/145/63 662/146/64 655/147/63
f 654/148/65 653/147/65 664/146/65
f 664/145/65 663/146/65 654/147/65
f 653/148/66 652/147/66 665/146/66
f 665/145/66 664/146/66 653/147/66
f 652/148/67 651/147/67 666/146/67
f 666/145/67 665/146/67 652/147/67
f 651/148/68 650/147/68 667/146/68
f 667/145/68 666/146/68 651/147/68
f 650/148/69 649/147/69 668/146/69
f 668/145/69 667/146/69 650/147/69
f 649/148/70 648/147/70 669/146/70
f 669/145/70 668/146/70 649/147/70
f 648/148/71 647/147/71 670/146/71
f 670/145/71 669/146/71 648/147/71
f 647/148/72 646/147/72 671/146/72
f 671/145/72 670/146/72 647/147/72
f 672/163/24 660/164/24 659/165/24
f 672/165/24 659/164/24 661/166/24
f 672/166/24 661/164/24 662/167/24
f 672/167/24 662/164/24 663/168/24
f 672/168/24 663/164/24 664/169/24
f 672/169/24 664/164/24 665/170/24
f 672/170/24 665/164/24 666/171/24
f 672/171/24 666/164/24 667/172/24
f 672/172/24 667/164/24 668/173/24
f 672/173/24 668/164/24 669/174/24
f 672/174/24 669/164/24 670/175/24
f 672/175/24 670/164/24 671/176/24
f 673/177/9 616/178/9 674/179/9
f 673/179/9 674/178/9 675/180/9
f 673/180/9 675/178/9 676/181/9
f 673/181/9 676/178/9 677/182/9
f 673/182/9 677/178/9 678/183/9
f 673/183/9 678/178/9 679/184/9
f 673/184/9 679/178/9 680/185/9
f 673/185/9 680/178/9 681/186/9
f 673/186/9 681/178/9 682/187/9
f 673/187/9 682/178/9 683/188/9
f 673/188/9 683/178/9 684/189/9
f 673/189/9 684/178/9 621/190/9
f 621/148/60 684/147/60 685/146/60
f 685/145/60 625/146/60 621/147/60
f 684/148/61 683/147/61 686/146/61
f 686/145/61 685/146/61 684/147/61
f 683/148/62 682/147/62 687/146/62
f 687/145/62 686/146/62 683/147/62
f 682/148/63 681/147/64 688/146/63
f 688/145/63 687/146/63 682/147/63
f 681/148/65 680/147/65 689/146/65
f 689/145/65 688/146/65 681/147/65
f 680/148/66 679/147/66 690/146/66
f 690/145/66 689/146/66 680/147/66
f 679/148/67 678/147/67 691/146/67
f 691/145/67 690/146/67 679/147/67
f 678/148/68 677/147/68 692/146/68
f 692/145/68 691/146/68 678/147/68
f 677/148/69 676/147/69 693/146/69
f 693/145/69 692/146/69 677/147/69
f 676/148/70 675/147/70 694/146/70
f 694/145/70 693/146/70 676/147/70
f 675/148/71 674/147/71 695/146/71
f 695/145/71 694/146/71 675/147/71
f 674/148/72 616/147/72 618/146/72
f 618/145/72 695/146/72 674/147/72
f 696/163/24 625/164/24 685/165/24
f 696/165/24 685/164/24 686/166/24
f 696/166/24 686/164/24 687/167/24
f 696/167/24 687/164/24 688/168/24
f 696/168/24 688/164/24 689/169/24
f 696/169/24 689/164/24 690/170/24
f 696/170/24 690/164/24 691/171/24
f 696/171/24 691/164/24 692/172/24
f 696/172/24 692/164/24 693/173/24
f 696/173/24 693/164/24 694/174/24
f 696/174/24 694/164/24 695/175/24
f 696/175/24 695/164/24 618/176/24
f 697/191/9 698/192/9 699/193/9
f 699/194/9 700/193/9 697/192/9
f 701/191/24 702/192/24 703/193/24
f 703/194/24 704/193/24 701/192/24
f 704/195/54 703/196/54 699/197/54
f 699/198/54 698/197/54 704/196/54
f 701/145/58 704/146/58 698/147/58
f 698/148/58 697/147/58 701/146/58
f 702/191/56 701/192/56 697/193/56
f 697/194/56 700/193/56 702/192/56
f 703/145/57 702/146/57 700/147/57
f 700/148/57 699/147/57 703/146/57
f 705/199/73 706/200/73 707/201/73
f 707/202/73 708/201/73 705/200/73
f 709/199/74 705/200/74 708/201/74
f 708/202/74 710/201/74 709/200/74
f 711/199/75 709/200/75 710/201/75
f 710/202/75 712/201/75 711/200/75
f 706/199/76 711/200/76 712/201/76
f 712/202/76 707/201/76 706/200/76
f 713/203/9 714/204/9 715/205/9
f 715/206/9 716/205/9 713/204/9
f 717/203/77 718/204/77 714/205/77
f 714/206/77 713/205/77 717/204/77
f 719/203/78 717/204/78 713/205/78
f 713/206/78 716/205/78 719/204/78
f 720/203/79 719/204/79 716/205/79
f 716/206/79 715/205/79 720/204/79
f 721/199/1 722/200/1 723/201/1
f 723/202/1 724/201/1 721/200/1
f 725/199/1 726/200/1 722/201/1
f 722/202/1 721/201/1 725/200/1
f 727/199/1 728/200/1 726/201/1
f 726/202/1 725/201/1 727/200/1
f 729/199/1 730/200/1 728/201/1
f 728/202/1 727/201/1 729/200/1
f 731/199/1 732/200/1 730/201/1
f 730/202/1 729/201/1 731/200/1
f 733/199/1 734/200/1 732/201/1
f 732/202/1 731/201/1 733/200/1
f 735/199/80 721/200/80 724/201/80
f 724/202/80 736/201/80 735/200/80
f 737/199/81 725/200/81 721/201/81
f 721/202/81 735/201/81 737/200/81
f 738/199/82 727/200/82 725/201/82
f 725/202/82 737/201/82 738/200/82
f 739/199/83 729/200/83 727/201/83
f 727/202/83 738/201/83 739/200/83
f 740/199/84 731/200/84 729/201/84
f 729/202/84 739/201/84 740/200/84
f 741/199/85 733/200/85 731/201/85
f 731/202/85 740/201/85 741/200/85
f 742/199/41 735/200/41 736/201/41
f 736/202/41 743/201/41 742/200/41
f 744/199/41 737/200/41 735/201/41
f 735/202/41 742/201/41 744/200/41
f 745/199/41 738/200/41 737/201/41
f 737/202/41 744/201/41 745/200/41
f 746/199/41 739/200/41 738/201/41
f 738/202/41 745/201/41 746/200/41
f 747/199/41 740/200/41 739/201/41
f 739/202/41 746/201/41 747/200/41
f 748/199/41 741/200/41 740/201/41
f 740/202/41 747/201/41 748/200/41
f 722/199/86 742/200/86 743/201/86
f 743/202/86 723/201/86 722/200/86
f 726/199/87 744/200/87 742/201/87
f 742/202/87 722/201/87 726/200/87
f 728/199/88 745/200/88 744/201/88
f 744/202/88 726/201/88 728/200/88
f 730/199/89 746/200/89 745/201/89
f 745/202/89 728/201/89 730/200/89
f 732/199/90 747/200/90 746/201/90
f 746/202/90 730/201/90 732/200/90
f 734/199/91 748/200/91 747/201/91
f 747/202/91 732/201/91 734/200/91
f 749/199/92 750/200/92 751/201/92
f 751/202/92 752/201/93 749/200/92
f 753/199/94 749/200/94 752/201/95
f 752/202/95 754/201/95 753/200/94
f 755/199/96 753/200/96 754/201/96
f 754/202/96 756/201/97 755/200/96
f 750/199/98 755/200/98 756/201/98
f 756/202/98 751/201/98 750/200/98
f 757/205/9 758/204/9 759/203/9
f 758/204/9 757/205/9 760/206/9
f 761/205/24 762/204/24 763/203/24
f 762/204/24 761/205/24 764/206/24
f 764/205/1 758/204/1 762/203/1
f 758/204/1 764/205/1 759/206/1
f 761/205/40 759/204/40 764/203/40
f 759/204/40 761/205/40 757/206/40
f 762/205/39 760/204/39 763/203/39
f 760/204/39 762/205/39 758/206/39
