# generated by tools/objdedupe/dedupe.py -- do not hand-edit.
# Re-run the tool after touching sssr_2svet_nove.obj, sssr_3svet_nove.obj, sssr_4svet_nove.obj, sssr_5svet_nove.obj, sssr_2se_nove.obj, sssr_3ab_nove.obj, sssr_4ab_nove.obj, sssr_pr_nove.obj, sssr_vl_nove.obj.
o stit_4_pruhy
v 0.025943 2.521654 0.213640
vt 0.090644 0.809302
vn -0.000000 -1.000000 -0.000000
v 0.013843 2.521654 0.228928
vt 0.096831 0.823542
v -0.013987 2.521654 0.228928
vt 0.094709 0.842321
v -0.026087 2.521654 0.213640
vt 0.086417 0.858224
v 0.039253 2.521654 0.035660
vt 0.101525 0.808933
v -0.039397 2.521654 0.035660
vt 0.096007 0.858685
v 0.025943 2.551903 0.213640
vt 0.263636 0.679051
vn -0.000000 1.000000 -0.000000
v -0.026087 2.551903 0.213640
vt 0.255035 0.679051
v -0.013987 2.551903 0.228928
vt 0.257035 0.681578
v 0.013843 2.551903 0.228928
vt 0.261636 0.681578
v 0.039253 2.551903 0.035660
vt 0.265836 0.647811
v -0.039397 2.551903 0.035660
vt 0.252835 0.647811
vt 0.237894 0.496421
vn -0.000000 -0.000000 1.000000
vt 0.205996 0.504315
vt 0.206139 0.482751
vt 0.237320 0.476435
vt 0.218084 0.495363
vn 0.784100 -0.000000 0.620600
vt 0.239275 0.487843
vt 0.239032 0.474672
vt 0.218812 0.479523
vt 0.106220 0.497329
vn 0.997200 -0.000000 0.074600
vt 0.107057 0.476153
vn -0.997200 -0.000000 0.074600
vn -0.784100 -0.000000 0.620600
v -0.042422 2.554928 -0.011530
vt 0.162918 0.325795
v -0.042422 2.554928 0.061070
vt 0.134826 0.328995
v -0.054522 2.554928 0.061070
vt 0.131626 0.300903
v -0.054522 2.554928 -0.011530
vt 0.159717 0.297703
v -0.042422 2.567028 -0.011530
vt 0.341307 0.683196
v -0.054522 2.567028 -0.011530
vt 0.340942 0.720407
v -0.054522 2.567028 0.061070
vt 0.323129 0.720042
v -0.042422 2.567028 0.061070
vt 0.323494 0.682831
vn 1.000000 -0.000000 -0.000000
vn -0.000000 -0.000000 -1.000000
vt 0.166656 0.490967
vn -1.000000 -0.000000 -0.000000
vt 0.117946 0.496643
vt 0.117890 0.476314
vt 0.166399 0.476601
v 0.054378 2.554928 -0.011530
v 0.054378 2.554928 0.061070
v 0.042278 2.554928 0.061070
v 0.042278 2.554928 -0.011530
v 0.054378 2.567028 -0.011530
v 0.042278 2.567028 -0.011530
v 0.042278 2.567028 0.061070
v 0.054378 2.567028 0.061070
v -0.042422 2.506571 -0.011530
v -0.042422 2.506571 0.061070
v -0.054522 2.506571 0.061070
v -0.054522 2.506571 -0.011530
v -0.042422 2.518671 -0.011530
v -0.054522 2.518671 -0.011530
v -0.054522 2.518671 0.061070
v -0.042422 2.518671 0.061070
v 0.054378 2.506571 -0.011530
v 0.054378 2.506571 0.061070
v 0.042278 2.506571 0.061070
v 0.042278 2.506571 -0.011530
v 0.054378 2.518671 -0.011530
v 0.042278 2.518671 -0.011530
v 0.042278 2.518671 0.061070
v 0.054378 2.518671 0.061070
v -0.000072 2.506360 -0.011530
vt 0.144587 0.311213
v -0.054522 2.506360 -0.011530
vt 0.154898 0.298252
v -0.052666 2.506360 -0.025623
vt 0.157901 0.301362
v -0.047227 2.506360 -0.038755
vt 0.159997 0.305144
v -0.038574 2.506360 -0.050032
vt 0.161043 0.309339
v -0.027297 2.506360 -0.058686
vt 0.160968 0.313662
v -0.014165 2.506360 -0.064125
vt 0.159776 0.317818
v -0.000072 2.506360 -0.065980
vt 0.157549 0.321524
v 0.014021 2.506360 -0.064125
vt 0.154439 0.324527
v 0.027153 2.506360 -0.058686
vt 0.150657 0.326623
v 0.038430 2.506360 -0.050032
vt 0.146462 0.327670
v 0.047083 2.506360 -0.038755
vt 0.142139 0.327594
v 0.052522 2.506360 -0.025623
vt 0.137983 0.326402
v 0.054378 2.506360 -0.011530
vt 0.134277 0.324175
vn 0.991400 -0.000000 -0.130600
v 0.052522 2.518460 -0.025623
v 0.054378 2.518460 -0.011530
vn 0.923900 -0.000000 -0.382700
v 0.047083 2.518460 -0.038755
vn 0.793400 -0.000000 -0.608800
v 0.038430 2.518460 -0.050032
vn 0.793400 -0.000000 -0.608700
vn 0.608800 -0.000000 -0.793300
v 0.027153 2.518460 -0.058686
vn 0.382700 -0.000000 -0.923900
v 0.014021 2.518460 -0.064125
vn 0.130500 -0.000000 -0.991400
v -0.000072 2.518460 -0.065980
vn -0.130500 -0.000000 -0.991400
v -0.014165 2.518460 -0.064125
vn -0.382700 -0.000000 -0.923900
v -0.027297 2.518460 -0.058686
vn -0.608800 -0.000000 -0.793300
v -0.038574 2.518460 -0.050032
vn -0.793400 -0.000000 -0.608800
v -0.047227 2.518460 -0.038755
vn -0.793400 -0.000000 -0.608700
vn -0.923900 -0.000000 -0.382700
v -0.052666 2.518460 -0.025623
vn -0.991400 -0.000000 -0.130600
v -0.054522 2.518460 -0.011530
v -0.000072 2.518460 -0.011530
vt 0.330659 0.704780
vt 0.323431 0.689215
vt 0.325626 0.685796
vt 0.328164 0.683669
vt 0.330872 0.682982
vt 0.333566 0.683780
vt 0.336061 0.686009
vt 0.338188 0.689517
vt 0.339802 0.694066
vt 0.340793 0.699345
vt 0.341093 0.704994
vt 0.340683 0.710628
vt 0.339588 0.715864
vt 0.337886 0.720345
v -0.000072 2.554928 -0.011530
vt 0.287326 0.617326
vt 0.303271 0.601381
v -0.052666 2.554928 -0.025623
vt 0.306855 0.606051
v -0.047227 2.554928 -0.038755
vt 0.309107 0.611490
v -0.038574 2.554928 -0.050032
vt 0.309876 0.617326
v -0.027297 2.554928 -0.058686
vt 0.309107 0.623162
v -0.014165 2.554928 -0.064125
vt 0.306855 0.628601
v -0.000072 2.554928 -0.065980
vt 0.303271 0.633271
v 0.014021 2.554928 -0.064125
vt 0.298601 0.636854
v 0.027153 2.554928 -0.058686
vt 0.293162 0.639107
v 0.038430 2.554928 -0.050032
vt 0.287326 0.639875
v 0.047083 2.554928 -0.038755
vt 0.281490 0.639107
v 0.052522 2.554928 -0.025623
vt 0.276051 0.636854
vt 0.271381 0.633271
v 0.052522 2.567028 -0.025623
v 0.047083 2.567028 -0.038755
v 0.038430 2.567028 -0.050032
v 0.027153 2.567028 -0.058686
v 0.014021 2.567028 -0.064125
v -0.000072 2.567028 -0.065980
v -0.014165 2.567028 -0.064125
v -0.027297 2.567028 -0.058686
v -0.038574 2.567028 -0.050032
v -0.047227 2.567028 -0.038755
v -0.052666 2.567028 -0.025623
v -0.000072 2.567028 -0.011530
v 0.060428 2.499874 0.024165
vt 0.309876 0.639875
v 0.060428 2.499874 0.042315
vt 0.271381 0.639875
v -0.060572 2.499874 0.042315
vt 0.271381 0.601381
v -0.060572 2.499874 0.024165
vt 0.309876 0.601381
v 0.060428 2.572474 0.024165
v -0.060572 2.572474 0.024165
v -0.060572 2.572474 0.042315
v 0.060428 2.572474 0.042315
vt 0.288616 0.633044
vt 0.249876 0.633044
vt 0.249876 0.671785
vt 0.288616 0.671785
v 0.081354 2.579580 0.243103
vt 0.537635 0.315367
vn -0.923900 -0.000000 0.382700
v 0.076723 2.579580 0.231925
vt 0.523961 0.315367
v 0.076723 2.564814 0.231925
vt 0.523961 0.301693
v 0.081354 2.564814 0.243104
vt 0.537635 0.301693
v 0.092533 2.579580 0.238473
vn 0.382700 -0.000000 0.923900
vn 0.382600 0.000100 0.923900
v 0.092533 2.564814 0.238473
v 0.087902 2.579580 0.227294
v 0.087902 2.564814 0.227294
v 0.096728 2.576887 0.223099
vt 0.502945 0.298557
v 0.096728 2.576887 0.247299
vt 0.487272 0.296179
v 0.072528 2.576887 0.247299
vt 0.487272 0.281792
v 0.072528 2.576887 0.223099
vt 0.502945 0.284169
v 0.096728 2.607138 0.223099
v 0.096728 2.607138 0.247299
v 0.072528 2.607138 0.223099
v 0.072528 2.607138 0.247299
v 0.074518 2.528604 0.226866
vn -0.920500 -0.000000 0.390700
v 0.079047 2.525134 0.237536
v 0.081423 2.566635 0.243132
v 0.076695 2.566635 0.231994
v 0.068171 2.493767 0.211913
v 0.072121 2.487118 0.221219
v 0.058186 2.465054 0.188391
vn -0.920500 -0.000100 0.390800
v 0.061226 2.455785 0.195550
v 0.045404 2.444875 0.158277
vn -0.920500 -0.000000 0.390800
v 0.047277 2.433764 0.162689
v 0.030897 2.434926 0.124100
v 0.031446 2.422908 0.125393
v 0.015885 2.436044 0.088733
v 0.015064 2.424128 0.086799
v 0.085657 2.528604 0.222138
vn -0.386600 0.144900 -0.910800
v 0.087833 2.566635 0.227266
v 0.079309 2.493767 0.207185
vn -0.354100 0.422600 -0.834300
v 0.069325 2.465054 0.183663
vn -0.291900 0.664800 -0.687600
v 0.056542 2.444875 0.153549
vn -0.205100 0.851100 -0.483300
vn -0.205100 0.851100 -0.483200
v 0.042035 2.434926 0.119372
vn -0.101100 0.965900 -0.238200
vn -0.101100 0.965900 -0.238300
v 0.027023 2.436044 0.084005
vn 0.011400 0.999600 0.026800
v 0.090186 2.525134 0.232808
vn 0.920500 -0.000000 -0.390700
v 0.092561 2.566635 0.238404
v 0.083259 2.487118 0.216491
v 0.072364 2.455785 0.190823
v 0.058415 2.433764 0.157960
vn 0.920500 -0.000000 -0.390800
v 0.042584 2.422908 0.120666
v 0.026202 2.424128 0.082072
vn 0.386600 -0.144900 0.910800
vn 0.354100 -0.422600 0.834300
vn 0.291900 -0.664800 0.687600
vn 0.291800 -0.664800 0.687700
vn 0.205200 -0.851100 0.483200
vn 0.205100 -0.851100 0.483300
vn 0.101100 -0.965900 0.238300
vn 0.101100 -0.965900 0.238200
vn -0.011400 -0.999600 -0.026800
v 0.002110 2.446920 0.025451
vn 0.000100 0.984800 0.173600
v -0.009068 2.446117 0.030011
v 0.018714 2.434470 0.096065
vn -0.000000 0.984800 0.173600
v 0.029893 2.435274 0.091505
v 0.002110 2.435004 0.023350
vn 0.923900 0.066400 -0.376900
v 0.029893 2.423357 0.089404
v -0.009068 2.434200 0.027910
vn -0.000000 -0.984800 -0.173600
v 0.018714 2.422553 0.093964
vn -0.923900 -0.066400 0.376900
v 0.012028 2.420485 0.019189
v 0.012028 2.420485 0.055489
v -0.012172 2.420485 0.055489
v -0.012172 2.420485 0.019189
v 0.012028 2.456786 0.019189
v -0.012172 2.456786 0.019189
v -0.012172 2.456786 0.055489
v 0.012028 2.456786 0.055489
v -0.041817 2.730791 0.299934
vt 0.781421 0.325767
v -0.006310 2.723244 0.299934
vt 0.863114 0.302312
v -0.005517 2.730791 0.299934
vt 0.864785 0.326794
v -0.008655 2.716026 0.299934
vt 0.857873 0.278854
v -0.012450 2.709454 0.299934
vt 0.849290 0.257449
v -0.017527 2.703815 0.299934
vt 0.837742 0.239029
v -0.023667 2.699354 0.299934
vt 0.823733 0.224398
v -0.030600 2.696268 0.299934
vt 0.807873 0.214200
v -0.038022 2.694690 0.299934
vt 0.790858 0.208877
v -0.045612 2.694690 0.299934
vt 0.773429 0.208662
v -0.053034 2.696268 0.299934
vt 0.756351 0.213565
v -0.059967 2.699354 0.299934
vt 0.740367 0.223371
v -0.066107 2.703815 0.299934
vt 0.726180 0.237655
v -0.071184 2.709454 0.299934
vt 0.714404 0.255787
v -0.074979 2.716026 0.299934
vt 0.705558 0.276978
v -0.077324 2.723244 0.299934
vt 0.700028 0.300303
v -0.078117 2.730791 0.299934
vt 0.698055 0.324740
v -0.077324 2.738338 0.299934
vt 0.699725 0.349222
v -0.074979 2.745555 0.299934
vt 0.704967 0.372680
v -0.071184 2.752128 0.299934
vt 0.713549 0.394085
v -0.066107 2.757767 0.299934
vt 0.725098 0.412506
v -0.059967 2.762228 0.299934
vt 0.739108 0.427136
v -0.053034 2.765314 0.299934
vt 0.754967 0.437334
v -0.045612 2.766892 0.299934
vt 0.771983 0.442658
v -0.038022 2.766892 0.299934
vt 0.789410 0.442872
v -0.030600 2.765314 0.299934
vt 0.806489 0.437969
v -0.023667 2.762228 0.299934
vt 0.822472 0.428163
v -0.017527 2.757767 0.299934
vt 0.836661 0.413879
v -0.012450 2.752127 0.299934
vt 0.848435 0.395747
v -0.008655 2.745555 0.299934
vt 0.857282 0.374554
v -0.006310 2.738338 0.299934
vt 0.862812 0.351231
vt 0.523113 0.298852
vn 0.994500 -0.104500 -0.000000
v -0.006310 2.723244 0.293884
vt 0.540274 0.316013
v -0.005517 2.730791 0.293884
vt 0.523113 0.316013
vt 0.540274 0.298852
vn 0.951100 -0.309000 -0.000000
v -0.008655 2.716026 0.293884
vn 0.866000 -0.500100 -0.000000
v -0.012450 2.709454 0.293884
vn 0.743200 -0.669100 -0.000000
v -0.017527 2.703815 0.293884
vn 0.587800 -0.809000 -0.000000
v -0.023667 2.699354 0.293884
vn 0.406700 -0.913600 -0.000000
v -0.030600 2.696268 0.293884
vn 0.407000 -0.913400 -0.000000
vn 0.208000 -0.978100 -0.000000
v -0.038022 2.694690 0.293884
v -0.045612 2.694690 0.293884
vn -0.208000 -0.978100 -0.000000
v -0.053034 2.696268 0.293884
vn -0.406700 -0.913600 -0.000000
v -0.059967 2.699354 0.293884
vn -0.587800 -0.809000 -0.000000
v -0.066107 2.703815 0.293884
vn -0.743200 -0.669100 -0.000000
v -0.071184 2.709454 0.293884
vn -0.866000 -0.500100 -0.000000
v -0.074979 2.716026 0.293884
vn -0.951100 -0.309000 -0.000000
v -0.077324 2.723244 0.293884
vn -0.994500 -0.104500 -0.000000
v -0.078117 2.730791 0.293884
vn -0.994500 0.104500 -0.000000
v -0.077324 2.738338 0.293884
vn -0.951100 0.309000 -0.000000
v -0.074979 2.745555 0.293884
vn -0.866000 0.500000 -0.000000
v -0.071184 2.752128 0.293884
vn -0.743200 0.669100 -0.000000
v -0.066107 2.757767 0.293884
vn -0.587800 0.809000 -0.000000
v -0.059967 2.762228 0.293884
vn -0.406700 0.913600 -0.000000
v -0.053034 2.765314 0.293884
vn -0.407000 0.913400 -0.000000
vn -0.208000 0.978100 -0.000000
v -0.045612 2.766892 0.293884
v -0.038022 2.766892 0.293884
vn 0.208000 0.978100 -0.000000
v -0.030600 2.765314 0.293884
vn 0.406700 0.913600 -0.000000
v -0.023667 2.762228 0.293884
vn 0.407000 0.913400 -0.000000
vn 0.587800 0.809000 -0.000000
v -0.017527 2.757767 0.293884
vn 0.743200 0.669000 -0.000000
v -0.012450 2.752127 0.293884
vn 0.743000 0.669300 -0.000000
vn 0.866000 0.500100 -0.000000
v -0.008655 2.745555 0.293884
vn 0.951100 0.309000 -0.000000
v -0.006310 2.738338 0.293884
vn 0.994500 0.104500 -0.000000
v -0.041817 2.640041 0.299934
v -0.006310 2.632493 0.299934
v -0.005517 2.640041 0.299934
v -0.008655 2.625276 0.299934
v -0.012450 2.618704 0.299934
v -0.017527 2.613065 0.299934
v -0.023667 2.608604 0.299934
v -0.030600 2.605518 0.299934
v -0.038022 2.603939 0.299934
v -0.045612 2.603939 0.299934
v -0.053034 2.605518 0.299934
v -0.059967 2.608604 0.299934
v -0.066107 2.613065 0.299934
v -0.071184 2.618704 0.299934
v -0.074979 2.625276 0.299934
v -0.077324 2.632493 0.299934
v -0.078117 2.640041 0.299934
v -0.077324 2.647588 0.299934
v -0.074979 2.654805 0.299934
v -0.071184 2.661377 0.299934
v -0.066107 2.667017 0.299934
v -0.059967 2.671478 0.299934
v -0.053034 2.674564 0.299934
v -0.045612 2.676142 0.299934
v -0.038022 2.676142 0.299934
v -0.030600 2.674564 0.299934
v -0.023667 2.671478 0.299934
v -0.017527 2.667017 0.299934
v -0.012450 2.661377 0.299934
v -0.008655 2.654805 0.299934
v -0.006310 2.647588 0.299934
v -0.006310 2.632493 0.293884
v -0.005517 2.640041 0.293884
v -0.008655 2.625276 0.293884
v -0.012450 2.618704 0.293884
v -0.017527 2.613065 0.293884
v -0.023667 2.608604 0.293884
v -0.030600 2.605518 0.293884
vn 0.407100 -0.913400 -0.000000
vn 0.208100 -0.978100 -0.000000
v -0.038022 2.603939 0.293884
v -0.045612 2.603939 0.293884
vn -0.208100 -0.978100 -0.000000
v -0.053034 2.605518 0.293884
v -0.059967 2.608604 0.293884
v -0.066107 2.613065 0.293884
v -0.071184 2.618704 0.293884
v -0.074979 2.625276 0.293884
v -0.077324 2.632493 0.293884
v -0.078117 2.640041 0.293884
v -0.077324 2.647588 0.293884
v -0.074979 2.654805 0.293884
vn -0.866000 0.500100 -0.000000
v -0.071184 2.661377 0.293884
vn -0.743200 0.669000 -0.000000
v -0.066107 2.667017 0.293884
v -0.059967 2.671478 0.293884
v -0.053034 2.674564 0.293884
vn -0.207900 0.978100 -0.000000
v -0.045612 2.676142 0.293884
v -0.038022 2.676142 0.293884
vn 0.207900 0.978100 -0.000000
v -0.030600 2.674564 0.293884
v -0.023667 2.671478 0.293884
vn 0.407100 0.913400 -0.000000
v -0.017527 2.667017 0.293884
vn 0.743200 0.669100 -0.000000
v -0.012450 2.661377 0.293884
v -0.008655 2.654805 0.293884
v -0.006310 2.647588 0.293884
v -0.125307 2.730791 0.299934
v -0.089800 2.723244 0.299934
v -0.089007 2.730791 0.299934
v -0.092145 2.716026 0.299934
v -0.095940 2.709454 0.299934
v -0.101017 2.703815 0.299934
v -0.107157 2.699354 0.299934
v -0.114090 2.696268 0.299934
v -0.121512 2.694690 0.299934
v -0.129102 2.694690 0.299934
v -0.136524 2.696268 0.299934
v -0.143457 2.699354 0.299934
v -0.149597 2.703815 0.299934
v -0.154674 2.709454 0.299934
v -0.158469 2.716026 0.299934
v -0.160814 2.723244 0.299934
v -0.161607 2.730791 0.299934
v -0.160814 2.738338 0.299934
v -0.158469 2.745555 0.299934
v -0.154674 2.752128 0.299934
v -0.149597 2.757767 0.299934
v -0.143457 2.762228 0.299934
v -0.136524 2.765314 0.299934
v -0.129102 2.766892 0.299934
v -0.121512 2.766892 0.299934
v -0.114090 2.765314 0.299934
v -0.107157 2.762228 0.299934
v -0.101017 2.757767 0.299934
v -0.095940 2.752127 0.299934
v -0.092145 2.745555 0.299934
v -0.089800 2.738338 0.299934
v -0.089800 2.723244 0.293884
v -0.089007 2.730791 0.293884
v -0.092145 2.716026 0.293884
v -0.095940 2.709454 0.293884
v -0.101017 2.703815 0.293884
v -0.107157 2.699354 0.293884
v -0.114090 2.696268 0.293884
v -0.121512 2.694690 0.293884
v -0.129102 2.694690 0.293884
v -0.136524 2.696268 0.293884
v -0.143457 2.699354 0.293884
v -0.149597 2.703815 0.293884
v -0.154674 2.709454 0.293884
v -0.158469 2.716026 0.293884
v -0.160814 2.723244 0.293884
v -0.161607 2.730791 0.293884
v -0.160814 2.738338 0.293884
v -0.158469 2.745555 0.293884
v -0.154674 2.752128 0.293884
v -0.149597 2.757767 0.293884
v -0.143457 2.762228 0.293884
v -0.136524 2.765314 0.293884
vn -0.407100 0.913400 -0.000000
v -0.129102 2.766892 0.293884
v -0.121512 2.766892 0.293884
v -0.114090 2.765314 0.293884
v -0.107157 2.762228 0.293884
v -0.101017 2.757767 0.293884
v -0.095940 2.752127 0.293884
v -0.092145 2.745555 0.293884
v -0.089800 2.738338 0.293884
v -0.125307 2.640041 0.299934
v -0.089800 2.632493 0.299934
v -0.089007 2.640041 0.299934
v -0.092145 2.625276 0.299934
v -0.095940 2.618704 0.299934
v -0.101017 2.613065 0.299934
v -0.107157 2.608604 0.299934
v -0.114090 2.605518 0.299934
v -0.121512 2.603939 0.299934
v -0.129102 2.603939 0.299934
v -0.136524 2.605518 0.299934
v -0.143457 2.608604 0.299934
v -0.149597 2.613065 0.299934
v -0.154674 2.618704 0.299934
v -0.158469 2.625276 0.299934
v -0.160814 2.632493 0.299934
v -0.161607 2.640041 0.299934
v -0.160814 2.647588 0.299934
v -0.158469 2.654805 0.299934
v -0.154674 2.661377 0.299934
v -0.149597 2.667017 0.299934
v -0.143457 2.671478 0.299934
v -0.136524 2.674564 0.299934
v -0.129102 2.676142 0.299934
v -0.121512 2.676142 0.299934
v -0.114090 2.674564 0.299934
v -0.107157 2.671478 0.299934
v -0.101017 2.667017 0.299934
v -0.095940 2.661377 0.299934
v -0.092145 2.654805 0.299934
v -0.089800 2.647588 0.299934
v -0.089800 2.632493 0.293884
v -0.089007 2.640041 0.293884
v -0.092145 2.625276 0.293884
v -0.095940 2.618704 0.293884
v -0.101017 2.613065 0.293884
v -0.107157 2.608604 0.293884
v -0.114090 2.605518 0.293884
v -0.121512 2.603939 0.293884
v -0.129102 2.603939 0.293884
v -0.136524 2.605518 0.293884
v -0.143457 2.608604 0.293884
v -0.149597 2.613065 0.293884
v -0.154674 2.618704 0.293884
v -0.158469 2.625276 0.293884
v -0.160814 2.632493 0.293884
v -0.161607 2.640041 0.293884
v -0.160814 2.647588 0.293884
v -0.158469 2.654805 0.293884
v -0.154674 2.661377 0.293884
v -0.149597 2.667017 0.293884
v -0.143457 2.671478 0.293884
v -0.136524 2.674564 0.293884
v -0.129102 2.676142 0.293884
v -0.121512 2.676142 0.293884
v -0.114090 2.674564 0.293884
v -0.107157 2.671478 0.293884
v -0.101017 2.667017 0.293884
v -0.095940 2.661377 0.293884
v -0.092145 2.654805 0.293884
v -0.089800 2.647588 0.293884
v 0.041673 2.730791 0.299934
v 0.077180 2.723244 0.299934
v 0.077973 2.730791 0.299934
v 0.074835 2.716026 0.299934
v 0.071040 2.709454 0.299934
v 0.065963 2.703815 0.299934
v 0.059823 2.699354 0.299934
v 0.052890 2.696268 0.299934
v 0.045468 2.694690 0.299934
v 0.037878 2.694690 0.299934
v 0.030456 2.696268 0.299934
v 0.023523 2.699354 0.299934
v 0.017383 2.703815 0.299934
v 0.012306 2.709454 0.299934
v 0.008511 2.716026 0.299934
v 0.006166 2.723244 0.299934
v 0.005373 2.730791 0.299934
v 0.006166 2.738338 0.299934
v 0.008511 2.745555 0.299934
v 0.012306 2.752128 0.299934
v 0.017383 2.757767 0.299934
v 0.023523 2.762228 0.299934
v 0.030456 2.765314 0.299934
v 0.037878 2.766892 0.299934
v 0.045468 2.766892 0.299934
v 0.052890 2.765314 0.299934
v 0.059823 2.762228 0.299934
v 0.065963 2.757767 0.299934
v 0.071040 2.752127 0.299934
v 0.074835 2.745555 0.299934
v 0.077180 2.738338 0.299934
v 0.077180 2.723244 0.293884
v 0.077973 2.730791 0.293884
v 0.074835 2.716026 0.293884
v 0.071040 2.709454 0.293884
v 0.065963 2.703815 0.293884
v 0.059823 2.699354 0.293884
v 0.052890 2.696268 0.293884
v 0.045468 2.694690 0.293884
v 0.037878 2.694690 0.293884
v 0.030456 2.696268 0.293884
v 0.023523 2.699354 0.293884
vn -0.407100 -0.913400 -0.000000
v 0.017383 2.703815 0.293884
v 0.012306 2.709454 0.293884
v 0.008511 2.716026 0.293884
v 0.006166 2.723244 0.293884
v 0.005373 2.730791 0.293884
v 0.006166 2.738338 0.293884
v 0.008511 2.745555 0.293884
v 0.012306 2.752128 0.293884
v 0.017383 2.757767 0.293884
v 0.023523 2.762228 0.293884
v 0.030456 2.765314 0.293884
v 0.037878 2.766892 0.293884
v 0.045468 2.766892 0.293884
v 0.052890 2.765314 0.293884
v 0.059823 2.762228 0.293884
v 0.065963 2.757767 0.293884
v 0.071040 2.752127 0.293884
v 0.074835 2.745555 0.293884
v 0.077180 2.738338 0.293884
v 0.041673 2.640041 0.299934
v 0.077180 2.632493 0.299934
v 0.077973 2.640041 0.299934
v 0.074835 2.625276 0.299934
v 0.071040 2.618704 0.299934
v 0.065963 2.613065 0.299934
v 0.059823 2.608604 0.299934
v 0.052890 2.605518 0.299934
v 0.045468 2.603939 0.299934
v 0.037878 2.603939 0.299934
v 0.030456 2.605518 0.299934
v 0.023523 2.608604 0.299934
v 0.017383 2.613065 0.299934
v 0.012306 2.618704 0.299934
v 0.008511 2.625276 0.299934
v 0.006166 2.632493 0.299934
v 0.005373 2.640041 0.299934
v 0.006166 2.647588 0.299934
v 0.008511 2.654805 0.299934
v 0.012306 2.661377 0.299934
v 0.017383 2.667017 0.299934
v 0.023523 2.671478 0.299934
v 0.030456 2.674564 0.299934
v 0.037878 2.676142 0.299934
v 0.045468 2.676142 0.299934
v 0.052890 2.674564 0.299934
v 0.059823 2.671478 0.299934
v 0.065963 2.667017 0.299934
v 0.071040 2.661377 0.299934
v 0.074835 2.654805 0.299934
v 0.077180 2.647588 0.299934
v 0.077180 2.632493 0.293884
v 0.077973 2.640041 0.293884
v 0.074835 2.625276 0.293884
v 0.071040 2.618704 0.293884
v 0.065963 2.613065 0.293884
v 0.059823 2.608604 0.293884
v 0.052890 2.605518 0.293884
v 0.045468 2.603939 0.293884
v 0.037878 2.603939 0.293884
v 0.030456 2.605518 0.293884
v 0.023523 2.608604 0.293884
vn -0.407000 -0.913400 -0.000000
v 0.017383 2.613065 0.293884
v 0.012306 2.618704 0.293884
v 0.008511 2.625276 0.293884
v 0.006166 2.632493 0.293884
v 0.005373 2.640041 0.293884
v 0.006166 2.647588 0.293884
v 0.008511 2.654805 0.293884
v 0.012306 2.661377 0.293884
v 0.017383 2.667017 0.293884
v 0.023523 2.671478 0.293884
v 0.030456 2.674564 0.293884
v 0.037878 2.676142 0.293884
v 0.045468 2.676142 0.293884
v 0.052890 2.674564 0.293884
v 0.059823 2.671478 0.293884
v 0.065963 2.667017 0.293884
v 0.071040 2.661377 0.293884
v 0.074835 2.654805 0.293884
v 0.077180 2.647588 0.293884
v 0.125163 2.730791 0.299934
v 0.160670 2.723244 0.299934
v 0.161463 2.730791 0.299934
v 0.158325 2.716026 0.299934
v 0.154530 2.709454 0.299934
v 0.149453 2.703815 0.299934
v 0.143313 2.699354 0.299934
v 0.136380 2.696268 0.299934
v 0.128958 2.694690 0.299934
v 0.121368 2.694690 0.299934
v 0.113946 2.696268 0.299934
v 0.107013 2.699354 0.299934
v 0.100873 2.703815 0.299934
v 0.095796 2.709454 0.299934
v 0.092001 2.716026 0.299934
v 0.089656 2.723244 0.299934
v 0.088863 2.730791 0.299934
v 0.089656 2.738338 0.299934
v 0.092001 2.745555 0.299934
v 0.095796 2.752128 0.299934
v 0.100873 2.757767 0.299934
v 0.107013 2.762228 0.299934
v 0.113946 2.765314 0.299934
v 0.121368 2.766892 0.299934
v 0.128958 2.766892 0.299934
v 0.136380 2.765314 0.299934
v 0.143313 2.762228 0.299934
v 0.149453 2.757767 0.299934
v 0.154530 2.752127 0.299934
v 0.158325 2.745555 0.299934
v 0.160670 2.738338 0.299934
v 0.160670 2.723244 0.293884
v 0.161463 2.730791 0.293884
v 0.158325 2.716026 0.293884
v 0.154530 2.709454 0.293884
v 0.149453 2.703815 0.293884
v 0.143313 2.699354 0.293884
v 0.136380 2.696268 0.293884
v 0.128958 2.694690 0.293884
v 0.121368 2.694690 0.293884
v 0.113946 2.696268 0.293884
v 0.107013 2.699354 0.293884
v 0.100873 2.703815 0.293884
v 0.095796 2.709454 0.293884
v 0.092001 2.716026 0.293884
v 0.089656 2.723244 0.293884
v 0.088863 2.730791 0.293884
v 0.089656 2.738338 0.293884
v 0.092001 2.745555 0.293884
v 0.095796 2.752128 0.293884
v 0.100873 2.757767 0.293884
v 0.107013 2.762228 0.293884
v 0.113946 2.765314 0.293884
v 0.121368 2.766892 0.293884
v 0.128958 2.766892 0.293884
v 0.136380 2.765314 0.293884
v 0.143313 2.762228 0.293884
v 0.149453 2.757767 0.293884
v 0.154530 2.752127 0.293884
v 0.158325 2.745555 0.293884
v 0.160670 2.738338 0.293884
v 0.125163 2.640041 0.299934
v 0.160670 2.632493 0.299934
v 0.161463 2.640041 0.299934
v 0.158325 2.625276 0.299934
v 0.154530 2.618704 0.299934
v 0.149453 2.613065 0.299934
v 0.143313 2.608604 0.299934
v 0.136380 2.605518 0.299934
v 0.128958 2.603939 0.299934
v 0.121368 2.603939 0.299934
v 0.113946 2.605518 0.299934
v 0.107013 2.608604 0.299934
v 0.100873 2.613065 0.299934
v 0.095796 2.618704 0.299934
v 0.092001 2.625276 0.299934
v 0.089656 2.632493 0.299934
v 0.088863 2.640041 0.299934
v 0.089656 2.647588 0.299934
v 0.092001 2.654805 0.299934
v 0.095796 2.661377 0.299934
v 0.100873 2.667017 0.299934
v 0.107013 2.671478 0.299934
v 0.113946 2.674564 0.299934
v 0.121368 2.676142 0.299934
v 0.128958 2.676142 0.299934
v 0.136380 2.674564 0.299934
v 0.143313 2.671478 0.299934
v 0.149453 2.667017 0.299934
v 0.154530 2.661377 0.299934
v 0.158325 2.654805 0.299934
v 0.160670 2.647588 0.299934
v 0.160670 2.632493 0.293884
v 0.161463 2.640041 0.293884
v 0.158325 2.625276 0.293884
v 0.154530 2.618704 0.293884
v 0.149453 2.613065 0.293884
v 0.143313 2.608604 0.293884
v 0.136380 2.605518 0.293884
v 0.128958 2.603939 0.293884
v 0.121368 2.603939 0.293884
v 0.113946 2.605518 0.293884
v 0.107013 2.608604 0.293884
v 0.100873 2.613065 0.293884
v 0.095796 2.618704 0.293884
v 0.092001 2.625276 0.293884
v 0.089656 2.632493 0.293884
v 0.088863 2.640041 0.293884
v 0.089656 2.647588 0.293884
v 0.092001 2.654805 0.293884
v 0.095796 2.661377 0.293884
v 0.100873 2.667017 0.293884
v 0.107013 2.671478 0.293884
v 0.113946 2.674564 0.293884
v 0.121368 2.676142 0.293884
v 0.128958 2.676142 0.293884
v 0.136380 2.674564 0.293884
v 0.143313 2.671478 0.293884
v 0.149453 2.667017 0.293884
v 0.154530 2.661377 0.293884
v 0.158325 2.654805 0.293884
v 0.160670 2.647588 0.293884
v 0.166303 2.594665 0.147515
vt 0.315807 0.727657
v 0.166303 2.776166 0.147515
vt 0.316484 0.658593
v 0.166303 2.776166 0.292715
vt 0.349546 0.659270
v 0.166303 2.594665 0.292715
vt 0.348869 0.728334
v -0.166447 2.594665 0.147515
v -0.166447 2.594665 0.292715
v -0.166447 2.776166 0.292715
v -0.166447 2.776166 0.147515
vt 0.086957 0.855056
vt 0.090817 0.809736
vt 0.100386 0.809545
vt 0.095428 0.855742
v 0.196553 2.564416 0.291459
vt 0.518513 0.296562
v 0.196553 2.806415 0.291459
vt 0.540578 0.296562
v 0.196553 2.806415 0.294484
vt 0.540578 0.318626
v 0.196553 2.564416 0.294484
vt 0.518513 0.318626
v -0.196697 2.564416 0.291459
v -0.196697 2.564416 0.294484
v -0.196697 2.806415 0.294484
v -0.196697 2.806415 0.291459
v 0.166303 2.773443 0.294489
v 0.166303 2.776468 0.294489
v 0.166303 2.776468 0.445739
v 0.166303 2.773443 0.445739
v -0.166447 2.773443 0.294489
v -0.166447 2.773443 0.445739
v -0.166447 2.776468 0.445739
v -0.166447 2.776468 0.294489
vt 0.496935 0.248616
vt 0.496935 0.218021
vt 0.561863 0.218021
vt 0.561863 0.248616
v 0.166303 2.685404 0.294489
vt 0.499986 0.249861
v 0.166303 2.776009 0.294489
vt 0.562115 0.230197
v 0.166303 2.776009 0.445739
vt 0.562115 0.215735
v 0.166303 2.730333 0.445739
vt 0.499986 0.215735
v 0.163278 2.685404 0.294489
v 0.163278 2.730333 0.445739
v 0.163278 2.776009 0.445739
v 0.163278 2.776009 0.294489
vn -0.000000 -0.958600 0.284800
v -0.163435 2.685427 0.294489
v -0.163435 2.776031 0.294489
v -0.163435 2.776031 0.445739
v -0.163435 2.730356 0.445739
v -0.166460 2.685427 0.294489
v -0.166460 2.730356 0.445739
v -0.166460 2.776031 0.445739
v -0.166460 2.776031 0.294489
v 0.166303 2.682548 0.294489
v 0.166303 2.685573 0.294489
v 0.166303 2.685573 0.445739
v 0.166303 2.682548 0.445739
v -0.166447 2.682548 0.294489
v -0.166447 2.682548 0.445739
v -0.166447 2.685573 0.445739
v -0.166447 2.685573 0.294489
v 0.166303 2.594509 0.294489
v 0.166303 2.685114 0.294489
v 0.166303 2.685114 0.445739
v 0.166303 2.639437 0.445739
v 0.163278 2.594509 0.294489
v 0.163278 2.639437 0.445739
v 0.163278 2.685114 0.445739
v 0.163278 2.685114 0.294489
vn -0.000000 -0.958600 0.284700
v -0.163435 2.594532 0.294489
v -0.163435 2.685137 0.294489
v -0.163435 2.685137 0.445739
v -0.163435 2.639460 0.445739
v -0.166460 2.594532 0.294489
v -0.166460 2.639460 0.445739
v -0.166460 2.685137 0.445739
v -0.166460 2.685137 0.294489
v -0.018222 2.629579 0.237058
vt 0.104897 0.344127
v -0.018222 2.629579 0.206808
vt 0.097349 0.344127
v -0.030322 2.629579 0.206808
vt 0.096529 0.323366
v -0.030322 2.629579 0.237058
vt 0.104077 0.323366
v -0.018222 2.568472 0.206808
vt 0.294190 0.917201
v -0.030322 2.568472 0.206808
vt 0.287939 0.917201
vt 0.287260 0.900009
vt 0.293511 0.900009
v -0.018222 2.568472 0.237058
vt 0.152327 0.269518
vt 0.144779 0.269518
vt 0.143959 0.248758
vt 0.151507 0.248758
v -0.030322 2.568472 0.237058
vt 0.146837 0.329621
vt 0.139289 0.329621
vt 0.138469 0.308861
vt 0.146017 0.308861
v 0.030178 2.629579 0.237058
vt 0.106947 0.332321
v 0.030178 2.629579 0.206808
vt 0.099399 0.332321
v 0.018078 2.629579 0.206808
vt 0.098579 0.311559
v 0.018078 2.629579 0.237058
vt 0.106127 0.311559
v 0.030178 2.568472 0.206808
vt 0.290120 0.889826
v 0.018078 2.568472 0.206808
vt 0.283869 0.889826
vt 0.283190 0.872633
vt 0.289441 0.872633
v 0.030178 2.568472 0.237058
v 0.018078 2.568472 0.237058
vt 0.148887 0.317815
vt 0.141339 0.317815
vt 0.140519 0.297055
vt 0.148067 0.297055
vt 0.154377 0.257712
vt 0.146829 0.257712
vt 0.146009 0.236952
vt 0.153557 0.236952
v -0.031834 2.551901 0.206808
vt 0.185583 0.305306
v -0.017315 2.551901 0.185633
vt 0.207467 0.305306
v 0.017171 2.551901 0.185633
vt 0.207467 0.327191
v 0.031690 2.551901 0.206808
vt 0.185583 0.327191
v -0.031834 2.560975 0.206808
vt 0.276588 0.865349
v 0.031690 2.560975 0.206808
vt 0.294711 0.865349
v 0.017171 2.560975 0.185633
vt 0.294711 0.883472
v -0.017315 2.560975 0.185633
vt 0.276588 0.883472
vn 0.824700 -0.000000 -0.565500
vn 0.824800 -0.000000 -0.565500
vn -0.824700 -0.000000 -0.565500
vn -0.824800 -0.000000 -0.565500
v 0.040766 2.594251 0.237058
v 0.040766 2.594251 0.206808
v 0.031690 2.594251 0.206808
v 0.031690 2.594251 0.237058
v 0.040766 2.551901 0.237058
v 0.031690 2.551901 0.237058
v 0.040766 2.551901 0.206808
vt 0.275272 0.794907
vt 0.289283 0.794744
vt 0.288526 0.807836
vt 0.277274 0.807619
v -0.031834 2.594251 0.237058
v -0.031834 2.594251 0.206808
v -0.040910 2.594251 0.206808
v -0.040910 2.594251 0.237058
v -0.031834 2.551901 0.237058
v -0.040910 2.551901 0.237058
v -0.040910 2.551901 0.206808
vt 0.274701 0.794744
vt 0.289730 0.794323
vt 0.287197 0.808718
vt 0.277233 0.808296
v 0.031690 2.560975 0.237058
v -0.031834 2.560975 0.237058
v 0.045303 2.585175 0.224958
vt 0.085286 0.758544
v 0.045303 2.585175 0.218908
vt 0.099355 0.758931
v -0.045447 2.585175 0.218908
vt 0.097934 0.866690
v -0.045447 2.585175 0.224958
vt 0.083865 0.866302
v 0.045303 2.576101 0.224958
v -0.045447 2.576101 0.224958
v -0.045447 2.576101 0.218908
v 0.045303 2.576101 0.218908
f 1/1/1 2/2/1 3/3/1
f 3/3/1 4/4/1 1/1/1
f 5/5/1 1/1/1 4/4/1
f 4/4/1 6/6/1 5/5/1
f 7/7/2 8/8/2 9/9/2
f 9/9/2 10/10/2 7/7/2
f 11/11/2 12/12/2 8/8/2
f 8/8/2 7/7/2 11/11/2
f 10/13/3 9/14/3 3/15/3
f 3/15/3 2/16/3 10/13/3
f 7/17/4 10/18/4 2/19/4
f 2/19/4 1/20/4 7/17/4
f 11/21/5 7/17/5 1/20/5
f 1/20/5 5/22/5 11/21/5
f 8/17/6 12/21/6 6/22/6
f 6/22/6 4/20/6 8/17/6
f 9/18/7 8/17/7 4/20/7
f 4/20/7 3/19/7 9/18/7
f 13/23/1 14/24/1 15/25/1
f 15/25/1 16/26/1 13/23/1
f 17/27/2 18/28/2 19/29/2
f 19/29/2 20/30/2 17/27/2
f 20/23/3 19/24/3 15/25/3
f 15/25/3 14/26/3 20/23/3
f 17/27/8 20/28/8 14/29/8
f 14/29/8 13/30/8 17/27/8
f 18/27/9 17/28/9 13/29/9
f 13/29/9 16/30/9 18/27/9
f 19/31/10 18/32/10 16/33/10
f 16/33/10 15/34/10 19/31/10
f 21/23/1 22/24/1 23/25/1
f 23/25/1 24/26/1 21/23/1
f 25/27/2 26/28/2 27/29/2
f 27/29/2 28/30/2 25/27/2
f 28/23/3 27/24/3 23/25/3
f 23/25/3 22/26/3 28/23/3
f 25/31/8 28/32/8 22/33/8
f 22/33/8 21/34/8 25/31/8
f 26/27/9 25/28/9 21/29/9
f 21/29/9 24/30/9 26/27/9
f 27/27/10 26/28/10 24/29/10
f 24/29/10 23/30/10 27/27/10
f 29/23/1 30/24/1 31/25/1
f 31/25/1 32/26/1 29/23/1
f 33/27/2 34/28/2 35/29/2
f 35/29/2 36/30/2 33/27/2
f 36/23/3 35/24/3 31/25/3
f 31/25/3 30/26/3 36/23/3
f 33/27/8 36/28/8 30/29/8
f 30/29/8 29/30/8 33/27/8
f 34/27/9 33/28/9 29/29/9
f 29/29/9 32/30/9 34/27/9
f 35/31/10 34/32/10 32/33/10
f 32/33/10 31/34/10 35/31/10
f 37/23/1 38/24/1 39/25/1
f 39/25/1 40/26/1 37/23/1
f 41/27/2 42/28/2 43/29/2
f 43/29/2 44/30/2 41/27/2
f 44/23/3 43/24/3 39/25/3
f 39/25/3 38/26/3 44/23/3
f 41/31/8 44/32/8 38/33/8
f 38/33/8 37/34/8 41/31/8
f 42/27/9 41/28/9 37/29/9
f 37/29/9 40/30/9 42/27/9
f 43/27/10 42/28/10 40/29/10
f 40/29/10 39/30/10 43/27/10
f 45/35/1 46/36/1 47/37/1
f 45/35/1 47/37/1 48/38/1
f 45/35/1 48/38/1 49/39/1
f 45/35/1 49/39/1 50/40/1
f 45/35/1 50/40/1 51/41/1
f 45/35/1 51/41/1 52/42/1
f 45/35/1 52/42/1 53/43/1
f 45/35/1 53/43/1 54/44/1
f 45/35/1 54/44/1 55/45/1
f 45/35/1 55/45/1 56/46/1
f 45/35/1 56/46/1 57/47/1
f 45/35/1 57/47/1 58/48/1
f 58/33/11 57/34/11 59/31/11
f 59/31/11 60/32/11 58/33/11
f 57/33/12 56/34/12 61/31/12
f 61/31/12 59/32/12 57/33/12
f 56/33/13 55/34/13 62/31/13
f 62/31/13 61/32/14 56/33/13
f 55/33/15 54/34/15 63/31/15
f 63/31/15 62/32/15 55/33/15
f 54/33/16 53/34/16 64/31/16
f 64/31/16 63/32/16 54/33/16
f 53/33/17 52/34/17 65/31/17
f 65/31/17 64/32/17 53/33/17
f 52/33/18 51/34/18 66/31/18
f 66/31/18 65/32/18 52/33/18
f 51/33/19 50/34/19 67/31/19
f 67/31/19 66/32/19 51/33/19
f 50/33/20 49/34/20 68/31/20
f 68/31/20 67/32/20 50/33/20
f 49/33/21 48/34/21 69/31/21
f 69/31/21 68/32/22 49/33/21
f 48/33/23 47/34/23 70/31/23
f 70/31/23 69/32/23 48/33/23
f 47/33/24 46/34/24 71/31/24
f 71/31/24 70/32/24 47/33/24
f 72/49/2 60/50/2 59/51/2
f 72/49/2 59/51/2 61/52/2
f 72/49/2 61/52/2 62/53/2
f 72/49/2 62/53/2 63/54/2
f 72/49/2 63/54/2 64/55/2
f 72/49/2 64/55/2 65/56/2
f 72/49/2 65/56/2 66/57/2
f 72/49/2 66/57/2 67/58/2
f 72/49/2 67/58/2 68/59/2
f 72/49/2 68/59/2 69/60/2
f 72/49/2 69/60/2 70/61/2
f 72/49/2 70/61/2 71/62/2
f 73/63/1 16/64/1 74/65/1
f 73/63/1 74/65/1 75/66/1
f 73/63/1 75/66/1 76/67/1
f 73/63/1 76/67/1 77/68/1
f 73/63/1 77/68/1 78/69/1
f 73/63/1 78/69/1 79/70/1
f 73/63/1 79/70/1 80/71/1
f 73/63/1 80/71/1 81/72/1
f 73/63/1 81/72/1 82/73/1
f 73/63/1 82/73/1 83/74/1
f 73/63/1 83/74/1 84/75/1
f 73/63/1 84/75/1 21/76/1
f 21/33/11 84/34/11 85/31/11
f 85/31/11 25/32/11 21/33/11
f 84/33/12 83/34/12 86/31/12
f 86/31/12 85/32/12 84/33/12
f 83/33/13 82/34/14 87/31/13
f 87/31/13 86/32/13 83/33/13
f 82/33/15 81/34/15 88/31/15
f 88/31/15 87/32/15 82/33/15
f 81/33/16 80/34/16 89/31/16
f 89/31/16 88/32/16 81/33/16
f 80/33/17 79/34/17 90/31/17
f 90/31/17 89/32/17 80/33/17
f 79/33/18 78/34/18 91/31/18
f 91/31/18 90/32/18 79/33/18
f 78/33/19 77/34/19 92/31/19
f 92/31/19 91/32/19 78/33/19
f 77/33/20 76/34/20 93/31/20
f 93/31/20 92/32/20 77/33/20
f 76/33/21 75/34/22 94/31/21
f 94/31/21 93/32/21 76/33/21
f 75/33/23 74/34/23 95/31/23
f 95/31/23 94/32/23 75/33/23
f 74/33/24 16/34/24 18/31/24
f 18/31/24 95/32/24 74/33/24
f 96/49/2 25/50/2 85/51/2
f 96/49/2 85/51/2 86/52/2
f 96/49/2 86/52/2 87/53/2
f 96/49/2 87/53/2 88/54/2
f 96/49/2 88/54/2 89/55/2
f 96/49/2 89/55/2 90/56/2
f 96/49/2 90/56/2 91/57/2
f 96/49/2 91/57/2 92/58/2
f 96/49/2 92/58/2 93/59/2
f 96/49/2 93/59/2 94/60/2
f 96/49/2 94/60/2 95/61/2
f 96/49/2 95/61/2 18/62/2
f 97/77/1 98/78/1 99/79/1
f 99/79/1 100/80/1 97/77/1
f 101/77/2 102/78/2 103/79/2
f 103/79/2 104/80/2 101/77/2
f 104/81/3 103/82/3 99/83/3
f 99/83/3 98/84/3 104/81/3
f 101/31/8 104/32/8 98/33/8
f 98/33/8 97/34/8 101/31/8
f 102/77/9 101/78/9 97/79/9
f 97/79/9 100/80/9 102/77/9
f 103/31/10 102/32/10 100/33/10
f 100/33/10 99/34/10 103/31/10
f 105/85/25 106/86/25 107/87/25
f 107/87/25 108/88/25 105/85/25
f 109/85/26 105/86/27 108/87/26
f 108/87/26 110/88/26 109/85/26
f 111/85/12 109/86/12 110/87/12
f 110/87/12 112/88/12 111/85/12
f 106/85/19 111/86/19 112/87/19
f 112/87/19 107/88/19 106/85/19
f 113/89/1 114/90/1 115/91/1
f 115/91/1 116/92/1 113/89/1
f 117/89/8 118/90/8 114/91/8
f 114/91/8 113/92/8 117/89/8
f 119/89/9 117/90/9 113/91/9
f 113/91/9 116/92/9 119/89/9
f 120/89/10 119/90/10 116/91/10
f 116/91/10 115/92/10 120/89/10
f 121/85/28 122/86/28 123/87/28
f 123/87/28 124/88/28 121/85/28
f 125/85/28 126/86/28 122/87/28
f 122/87/28 121/88/28 125/85/28
f 127/85/29 128/86/29 126/87/28
f 126/87/28 125/88/28 127/85/29
f 129/85/30 130/86/28 128/87/29
f 128/87/29 127/88/29 129/85/30
f 131/85/28 132/86/28 130/87/28
f 130/87/28 129/88/28 131/85/28
f 133/85/28 134/86/28 132/87/28
f 132/87/28 131/88/28 133/85/28
f 135/85/31 121/86/31 124/87/31
f 124/87/31 136/88/31 135/85/31
f 137/85/32 125/86/32 121/87/32
f 121/87/32 135/88/32 137/85/32
f 138/85/33 127/86/33 125/87/33
f 125/87/33 137/88/33 138/85/33
f 139/85/34 129/86/35 127/87/34
f 127/87/34 138/88/34 139/85/34
f 140/85/36 131/86/36 129/87/37
f 129/87/37 139/88/37 140/85/36
f 141/85/38 133/86/38 131/87/38
f 131/87/38 140/88/38 141/85/38
f 142/85/39 135/86/39 136/87/39
f 136/87/39 143/88/39 142/85/39
f 144/85/39 137/86/39 135/87/39
f 135/87/39 142/88/39 144/85/39
f 145/85/39 138/86/39 137/87/39
f 137/87/39 144/88/39 145/85/39
f 146/85/40 139/86/40 138/87/39
f 138/87/39 145/88/39 146/85/40
f 147/85/39 140/86/39 139/87/39
f 139/87/39 146/88/40 147/85/39
f 148/85/39 141/86/39 140/87/39
f 140/87/39 147/88/39 148/85/39
f 122/85/41 142/86/41 143/87/41
f 143/87/41 123/88/41 122/85/41
f 126/85/42 144/86/42 142/87/42
f 142/87/42 122/88/42 126/85/42
f 128/85/43 145/86/44 144/87/43
f 144/87/43 126/88/43 128/85/43
f 130/85/45 146/86/45 145/87/46
f 145/87/46 128/88/46 130/85/45
f 132/85/47 147/86/47 146/87/48
f 146/87/48 130/88/48 132/85/47
f 134/85/49 148/86/49 147/87/49
f 147/87/49 132/88/49 134/85/49
f 149/85/50 150/86/50 151/87/51
f 151/87/51 152/88/51 149/85/50
f 153/85/52 149/86/52 152/87/52
f 152/87/52 154/88/52 153/85/52
f 155/85/53 153/86/53 154/87/53
f 154/87/53 156/88/53 155/85/53
f 150/85/54 155/86/54 156/87/54
f 156/87/54 151/88/54 150/85/54
f 157/89/1 158/90/1 159/91/1
f 159/91/1 160/92/1 157/89/1
f 161/89/2 162/90/2 163/91/2
f 163/91/2 164/92/2 161/89/2
f 164/89/3 163/90/3 159/91/3
f 159/91/3 158/92/3 164/89/3
f 161/89/8 164/90/8 158/91/8
f 158/91/8 157/92/8 161/89/8
f 163/89/10 162/90/10 160/91/10
f 160/91/10 159/92/10 163/89/10
f 165/93/3 166/94/3 167/95/3
f 165/93/3 168/96/3 166/94/3
f 165/93/3 169/97/3 168/96/3
f 165/93/3 170/98/3 169/97/3
f 165/93/3 171/99/3 170/98/3
f 165/93/3 172/100/3 171/99/3
f 165/93/3 173/101/3 172/100/3
f 165/93/3 174/102/3 173/101/3
f 165/93/3 175/103/3 174/102/3
f 165/93/3 176/104/3 175/103/3
f 165/93/3 177/105/3 176/104/3
f 165/93/3 178/106/3 177/105/3
f 165/93/3 179/107/3 178/106/3
f 165/93/3 180/108/3 179/107/3
f 165/93/3 181/109/3 180/108/3
f 165/93/3 182/110/3 181/109/3
f 165/93/3 183/111/3 182/110/3
f 165/93/3 184/112/3 183/111/3
f 165/93/3 185/113/3 184/112/3
f 165/93/3 186/114/3 185/113/3
f 165/93/3 187/115/3 186/114/3
f 165/93/3 188/116/3 187/115/3
f 165/93/3 189/117/3 188/116/3
f 165/93/3 190/118/3 189/117/3
f 165/93/3 191/119/3 190/118/3
f 165/93/3 192/120/3 191/119/3
f 165/93/3 193/121/3 192/120/3
f 165/93/3 194/122/3 193/121/3
f 165/93/3 195/123/3 194/122/3
f 165/93/3 167/95/3 195/123/3
f 167/124/55 196/125/55 197/126/55
f 167/124/55 166/127/55 196/125/55
f 166/124/56 198/125/56 196/126/56
f 166/124/56 168/127/56 198/125/56
f 168/124/57 199/125/57 198/126/57
f 168/124/57 169/127/57 199/125/57
f 169/124/58 200/125/58 199/126/58
f 169/124/58 170/127/58 200/125/58
f 170/124/59 201/125/59 200/126/59
f 170/124/59 171/127/59 201/125/59
f 171/124/60 202/125/60 201/126/60
f 171/124/60 172/127/61 202/125/60
f 172/124/62 203/125/62 202/126/62
f 172/124/62 173/127/62 203/125/62
f 173/124/1 204/125/1 203/126/1
f 173/124/1 174/127/1 204/125/1
f 174/124/63 205/125/63 204/126/63
f 174/124/63 175/127/63 205/125/63
f 175/124/64 206/125/64 205/126/64
f 175/124/64 176/127/64 206/125/64
f 176/124/65 207/125/65 206/126/65
f 176/124/65 177/127/65 207/125/65
f 177/124/66 208/125/66 207/126/66
f 177/124/66 178/127/66 208/125/66
f 178/124/67 209/125/67 208/126/67
f 178/124/67 179/127/67 209/125/67
f 179/124/68 210/125/68 209/126/68
f 179/124/68 180/127/68 210/125/68
f 180/124/69 211/125/69 210/126/69
f 180/124/69 181/127/69 211/125/69
f 181/124/70 212/125/70 211/126/70
f 181/124/70 182/127/70 212/125/70
f 182/124/71 213/125/71 212/126/71
f 182/124/71 183/127/71 213/125/71
f 183/124/72 214/125/72 213/126/72
f 183/124/72 184/127/72 214/125/72
f 184/124/73 215/125/73 214/126/73
f 184/124/73 185/127/73 215/125/73
f 185/124/74 216/125/74 215/126/74
f 185/124/74 186/127/74 216/125/74
f 186/124/75 217/125/75 216/126/76
f 186/124/75 187/127/75 217/125/75
f 187/124/77 218/125/77 217/126/77
f 187/124/77 188/127/77 218/125/77
f 188/124/2 219/125/2 218/126/2
f 188/124/2 189/127/2 219/125/2
f 189/124/78 220/125/78 219/126/78
f 189/124/78 190/127/78 220/125/78
f 190/124/79 221/125/79 220/126/79
f 190/124/79 191/127/80 221/125/79
f 191/124/81 222/125/81 221/126/81
f 191/124/81 192/127/81 222/125/81
f 192/124/82 223/125/82 222/126/82
f 192/124/82 193/127/83 223/125/82
f 193/124/84 224/125/84 223/126/84
f 193/124/84 194/127/84 224/125/84
f 194/124/85 225/125/85 224/126/85
f 194/124/85 195/127/85 225/125/85
f 195/124/86 197/125/86 225/126/86
f 195/124/86 167/127/86 197/125/86
f 226/93/3 227/94/3 228/95/3
f 226/93/3 229/96/3 227/94/3
f 226/93/3 230/97/3 229/96/3
f 226/93/3 231/98/3 230/97/3
f 226/93/3 232/99/3 231/98/3
f 226/93/3 233/100/3 232/99/3
f 226/93/3 234/101/3 233/100/3
f 226/93/3 235/102/3 234/101/3
f 226/93/3 236/103/3 235/102/3
f 226/93/3 237/104/3 236/103/3
f 226/93/3 238/105/3 237/104/3
f 226/93/3 239/106/3 238/105/3
f 226/93/3 240/107/3 239/106/3
f 226/93/3 241/108/3 240/107/3
f 226/93/3 242/109/3 241/108/3
f 226/93/3 243/110/3 242/109/3
f 226/93/3 244/111/3 243/110/3
f 226/93/3 245/112/3 244/111/3
f 226/93/3 246/113/3 245/112/3
f 226/93/3 247/114/3 246/113/3
f 226/93/3 248/115/3 247/114/3
f 226/93/3 249/116/3 248/115/3
f 226/93/3 250/117/3 249/116/3
f 226/93/3 251/118/3 250/117/3
f 226/93/3 252/119/3 251/118/3
f 226/93/3 253/120/3 252/119/3
f 226/93/3 254/121/3 253/120/3
f 226/93/3 255/122/3 254/121/3
f 226/93/3 256/123/3 255/122/3
f 226/93/3 228/95/3 256/123/3
f 228/124/55 257/125/55 258/126/55
f 228/124/55 227/127/55 257/125/55
f 227/124/56 259/125/56 257/126/56
f 227/124/56 229/127/56 259/125/56
f 229/124/57 260/125/57 259/126/57
f 229/124/57 230/127/57 260/125/57
f 230/124/58 261/125/58 260/126/58
f 230/124/58 231/127/58 261/125/58
f 231/124/59 262/125/59 261/126/59
f 231/124/59 232/127/59 262/125/59
f 232/124/60 263/125/60 262/126/87
f 232/124/60 233/127/60 263/125/60
f 233/124/88 264/125/88 263/126/88
f 233/124/88 234/127/88 264/125/88
f 234/124/1 265/125/1 264/126/1
f 234/124/1 235/127/1 265/125/1
f 235/124/89 266/125/89 265/126/89
f 235/124/89 236/127/89 266/125/89
f 236/124/64 267/125/64 266/126/64
f 236/124/64 237/127/64 267/125/64
f 237/124/65 268/125/65 267/126/65
f 237/124/65 238/127/65 268/125/65
f 238/124/66 269/125/66 268/126/66
f 238/124/66 239/127/66 269/125/66
f 239/124/67 270/125/67 269/126/67
f 239/124/67 240/127/67 270/125/67
f 240/124/68 271/125/68 270/126/68
f 240/124/68 241/127/68 271/125/68
f 241/124/69 272/125/69 271/126/69
f 241/124/69 242/127/69 272/125/69
f 242/124/70 273/125/70 272/126/70
f 242/124/70 243/127/70 273/125/70
f 243/124/71 274/125/71 273/126/71
f 243/124/71 244/127/71 274/125/71
f 244/124/90 275/125/90 274/126/90
f 244/124/90 245/127/90 275/125/90
f 245/124/91 276/125/73 275/126/91
f 245/124/91 246/127/73 276/125/73
f 246/124/74 277/125/74 276/126/74
f 246/124/74 247/127/74 277/125/74
f 247/124/75 278/125/75 277/126/75
f 247/124/75 248/127/75 278/125/75
f 248/124/92 279/125/92 278/126/92
f 248/124/92 249/127/92 279/125/92
f 249/124/2 280/125/2 279/126/2
f 249/124/2 250/127/2 280/125/2
f 250/124/93 281/125/93 280/126/93
f 250/124/93 251/127/93 281/125/93
f 251/124/79 282/125/79 281/126/94
f 251/124/79 252/127/79 282/125/79
f 252/124/81 283/125/81 282/126/81
f 252/124/81 253/127/81 283/125/81
f 253/124/95 284/125/95 283/126/82
f 253/124/95 254/127/95 284/125/95
f 254/124/84 285/125/84 284/126/84
f 254/124/84 255/127/84 285/125/84
f 255/124/85 286/125/85 285/126/85
f 255/124/85 256/127/85 286/125/85
f 256/124/86 258/125/86 286/126/86
f 256/124/86 228/127/86 258/125/86
f 287/93/3 288/94/3 289/95/3
f 287/93/3 290/96/3 288/94/3
f 287/93/3 291/97/3 290/96/3
f 287/93/3 292/98/3 291/97/3
f 287/93/3 293/99/3 292/98/3
f 287/93/3 294/100/3 293/99/3
f 287/93/3 295/101/3 294/100/3
f 287/93/3 296/102/3 295/101/3
f 287/93/3 297/103/3 296/102/3
f 287/93/3 298/104/3 297/103/3
f 287/93/3 299/105/3 298/104/3
f 287/93/3 300/106/3 299/105/3
f 287/93/3 301/107/3 300/106/3
f 287/93/3 302/108/3 301/107/3
f 287/93/3 303/109/3 302/108/3
f 287/93/3 304/110/3 303/109/3
f 287/93/3 305/111/3 304/110/3
f 287/93/3 306/112/3 305/111/3
f 287/93/3 307/113/3 306/112/3
f 287/93/3 308/114/3 307/113/3
f 287/93/3 309/115/3 308/114/3
f 287/93/3 310/116/3 309/115/3
f 287/93/3 311/117/3 310/116/3
f 287/93/3 312/118/3 311/117/3
f 287/93/3 313/119/3 312/118/3
f 287/93/3 314/120/3 313/119/3
f 287/93/3 315/121/3 314/120/3
f 287/93/3 316/122/3 315/121/3
f 287/93/3 317/123/3 316/122/3
f 287/93/3 289/95/3 317/123/3
f 289/124/55 318/125/55 319/126/55
f 289/124/55 288/127/55 318/125/55
f 288/124/56 320/125/56 318/126/56
f 288/124/56 290/127/56 320/125/56
f 290/124/57 321/125/57 320/126/57
f 290/124/57 291/127/57 321/125/57
f 291/124/58 322/125/58 321/126/58
f 291/124/58 292/127/58 322/125/58
f 292/124/59 323/125/59 322/126/59
f 292/124/59 293/127/59 323/125/59
f 293/124/60 324/125/60 323/126/60
f 293/124/60 294/127/60 324/125/60
f 294/124/62 325/125/62 324/126/62
f 294/124/62 295/127/62 325/125/62
f 295/124/1 326/125/1 325/126/1
f 295/124/1 296/127/1 326/125/1
f 296/124/63 327/125/63 326/126/63
f 296/124/63 297/127/63 327/125/63
f 297/124/64 328/125/64 327/126/64
f 297/124/64 298/127/64 328/125/64
f 298/124/65 329/125/65 328/126/65
f 298/124/65 299/127/65 329/125/65
f 299/124/66 330/125/66 329/126/66
f 299/124/66 300/127/66 330/125/66
f 300/124/67 331/125/67 330/126/67
f 300/124/67 301/127/67 331/125/67
f 301/124/68 332/125/68 331/126/68
f 301/124/68 302/127/68 332/125/68
f 302/124/69 333/125/69 332/126/69
f 302/124/69 303/127/69 333/125/69
f 303/124/70 334/125/70 333/126/70
f 303/124/70 304/127/70 334/125/70
f 304/124/71 335/125/71 334/126/71
f 304/124/71 305/127/71 335/125/71
f 305/124/72 336/125/72 335/126/72
f 305/124/72 306/127/72 336/125/72
f 306/124/73 337/125/73 336/126/73
f 306/124/73 307/127/73 337/125/73
f 307/124/74 338/125/74 337/126/74
f 307/124/74 308/127/74 338/125/74
f 308/124/75 339/125/75 338/126/96
f 308/124/75 309/127/75 339/125/75
f 309/124/77 340/125/77 339/126/77
f 309/124/77 310/127/77 340/125/77
f 310/124/2 341/125/2 340/126/2
f 310/124/2 311/127/2 341/125/2
f 311/124/78 342/125/78 341/126/78
f 311/124/78 312/127/78 342/125/78
f 312/124/79 343/125/79 342/126/79
f 312/124/79 313/127/79 343/125/79
f 313/124/81 344/125/81 343/126/81
f 313/124/81 314/127/81 344/125/81
f 314/124/82 345/125/82 344/126/82
f 314/124/82 315/127/83 345/125/82
f 315/124/84 346/125/84 345/126/84
f 315/124/84 316/127/84 346/125/84
f 316/124/85 347/125/85 346/126/85
f 316/124/85 317/127/85 347/125/85
f 317/124/86 319/125/86 347/126/86
f 317/124/86 289/127/86 319/125/86
f 348/93/3 349/94/3 350/95/3
f 348/93/3 351/96/3 349/94/3
f 348/93/3 352/97/3 351/96/3
f 348/93/3 353/98/3 352/97/3
f 348/93/3 354/99/3 353/98/3
f 348/93/3 355/100/3 354/99/3
f 348/93/3 356/101/3 355/100/3
f 348/93/3 357/102/3 356/101/3
f 348/93/3 358/103/3 357/102/3
f 348/93/3 359/104/3 358/103/3
f 348/93/3 360/105/3 359/104/3
f 348/93/3 361/106/3 360/105/3
f 348/93/3 362/107/3 361/106/3
f 348/93/3 363/108/3 362/107/3
f 348/93/3 364/109/3 363/108/3
f 348/93/3 365/110/3 364/109/3
f 348/93/3 366/111/3 365/110/3
f 348/93/3 367/112/3 366/111/3
f 348/93/3 368/113/3 367/112/3
f 348/93/3 369/114/3 368/113/3
f 348/93/3 370/115/3 369/114/3
f 348/93/3 371/116/3 370/115/3
f 348/93/3 372/117/3 371/116/3
f 348/93/3 373/118/3 372/117/3
f 348/93/3 374/119/3 373/118/3
f 348/93/3 375/120/3 374/119/3
f 348/93/3 376/121/3 375/120/3
f 348/93/3 377/122/3 376/121/3
f 348/93/3 378/123/3 377/122/3
f 348/93/3 350/95/3 378/123/3
f 350/124/55 379/125/55 380/126/55
f 350/124/55 349/127/55 379/125/55
f 349/124/56 381/125/56 379/126/56
f 349/124/56 351/127/56 381/125/56
f 351/124/57 382/125/57 381/126/57
f 351/124/57 352/127/57 382/125/57
f 352/124/58 383/125/58 382/126/58
f 352/124/58 353/127/58 383/125/58
f 353/124/59 384/125/59 383/126/59
f 353/124/59 354/127/59 384/125/59
f 354/124/60 385/125/60 384/126/60
f 354/124/60 355/127/60 385/125/60
f 355/124/88 386/125/88 385/126/88
f 355/124/88 356/127/88 386/125/88
f 356/124/1 387/125/1 386/126/1
f 356/124/1 357/127/1 387/125/1
f 357/124/89 388/125/89 387/126/89
f 357/124/89 358/127/89 388/125/89
f 358/124/64 389/125/64 388/126/64
f 358/124/64 359/127/64 389/125/64
f 359/124/65 390/125/65 389/126/65
f 359/124/65 360/127/65 390/125/65
f 360/124/66 391/125/66 390/126/66
f 360/124/66 361/127/66 391/125/66
f 361/124/67 392/125/67 391/126/67
f 361/124/67 362/127/67 392/125/67
f 362/124/68 393/125/68 392/126/68
f 362/124/68 363/127/68 393/125/68
f 363/124/69 394/125/69 393/126/69
f 363/124/69 364/127/69 394/125/69
f 364/124/70 395/125/70 394/126/70
f 364/124/70 365/127/70 395/125/70
f 365/124/71 396/125/71 395/126/71
f 365/124/71 366/127/71 396/125/71
f 366/124/90 397/125/90 396/126/90
f 366/124/90 367/127/90 397/125/90
f 367/124/73 398/125/73 397/126/91
f 367/124/73 368/127/73 398/125/73
f 368/124/74 399/125/74 398/126/74
f 368/124/74 369/127/74 399/125/74
f 369/124/75 400/125/75 399/126/75
f 369/124/75 370/127/75 400/125/75
f 370/124/92 401/125/92 400/126/92
f 370/124/92 371/127/92 401/125/92
f 371/124/2 402/125/2 401/126/2
f 371/124/2 372/127/2 402/125/2
f 372/124/93 403/125/93 402/126/93
f 372/124/93 373/127/93 403/125/93
f 373/124/79 404/125/79 403/126/79
f 373/124/79 374/127/79 404/125/79
f 374/124/81 405/125/81 404/126/81
f 374/124/81 375/127/81 405/125/81
f 375/124/95 406/125/95 405/126/82
f 375/124/95 376/127/95 406/125/95
f 376/124/84 407/125/84 406/126/84
f 376/124/84 377/127/84 407/125/84
f 377/124/85 408/125/85 407/126/85
f 377/124/85 378/127/85 408/125/85
f 378/124/86 380/125/86 408/126/86
f 378/124/86 350/127/86 380/125/86
f 409/93/3 410/94/3 411/95/3
f 409/93/3 412/96/3 410/94/3
f 409/93/3 413/97/3 412/96/3
f 409/93/3 414/98/3 413/97/3
f 409/93/3 415/99/3 414/98/3
f 409/93/3 416/100/3 415/99/3
f 409/93/3 417/101/3 416/100/3
f 409/93/3 418/102/3 417/101/3
f 409/93/3 419/103/3 418/102/3
f 409/93/3 420/104/3 419/103/3
f 409/93/3 421/105/3 420/104/3
f 409/93/3 422/106/3 421/105/3
f 409/93/3 423/107/3 422/106/3
f 409/93/3 424/108/3 423/107/3
f 409/93/3 425/109/3 424/108/3
f 409/93/3 426/110/3 425/109/3
f 409/93/3 427/111/3 426/110/3
f 409/93/3 428/112/3 427/111/3
f 409/93/3 429/113/3 428/112/3
f 409/93/3 430/114/3 429/113/3
f 409/93/3 431/115/3 430/114/3
f 409/93/3 432/116/3 431/115/3
f 409/93/3 433/117/3 432/116/3
f 409/93/3 434/118/3 433/117/3
f 409/93/3 435/119/3 434/118/3
f 409/93/3 436/120/3 435/119/3
f 409/93/3 437/121/3 436/120/3
f 409/93/3 438/122/3 437/121/3
f 409/93/3 439/123/3 438/122/3
f 409/93/3 411/95/3 439/123/3
f 411/124/55 440/125/55 441/126/55
f 411/124/55 410/127/55 440/125/55
f 410/124/56 442/125/56 440/126/56
f 410/124/56 412/127/56 442/125/56
f 412/124/57 443/125/57 442/126/57
f 412/124/57 413/127/57 443/125/57
f 413/124/58 444/125/58 443/126/58
f 413/124/58 414/127/58 444/125/58
f 414/124/59 445/125/59 444/126/59
f 414/124/59 415/127/59 445/125/59
f 415/124/60 446/125/60 445/126/60
f 415/124/60 416/127/60 446/125/60
f 416/124/62 447/125/62 446/126/62
f 416/124/62 417/127/62 447/125/62
f 417/124/1 448/125/1 447/126/1
f 417/124/1 418/127/1 448/125/1
f 418/124/63 449/125/63 448/126/63
f 418/124/63 419/127/63 449/125/63
f 419/124/64 450/125/64 449/126/97
f 419/124/64 420/127/64 450/125/64
f 420/124/65 451/125/65 450/126/65
f 420/124/65 421/127/65 451/125/65
f 421/124/66 452/125/66 451/126/66
f 421/124/66 422/127/66 452/125/66
f 422/124/67 453/125/67 452/126/67
f 422/124/67 423/127/67 453/125/67
f 423/124/68 454/125/68 453/126/68
f 423/124/68 424/127/68 454/125/68
f 424/124/69 455/125/69 454/126/69
f 424/124/69 425/127/69 455/125/69
f 425/124/70 456/125/70 455/126/70
f 425/124/70 426/127/70 456/125/70
f 426/124/71 457/125/71 456/126/71
f 426/124/71 427/127/71 457/125/71
f 427/124/72 458/125/72 457/126/72
f 427/124/72 428/127/72 458/125/72
f 428/124/73 459/125/73 458/126/73
f 428/124/73 429/127/73 459/125/73
f 429/124/74 460/125/74 459/126/74
f 429/124/74 430/127/74 460/125/74
f 430/124/75 461/125/75 460/126/96
f 430/124/75 431/127/75 461/125/75
f 431/124/77 462/125/77 461/126/77
f 431/124/77 432/127/77 462/125/77
f 432/124/2 463/125/2 462/126/2
f 432/124/2 433/127/2 463/125/2
f 433/124/78 464/125/78 463/126/78
f 433/124/78 434/127/78 464/125/78
f 434/124/79 465/125/79 464/126/79
f 434/124/79 435/127/79 465/125/79
f 435/124/81 466/125/81 465/126/81
f 435/124/81 436/127/81 466/125/81
f 436/124/82 467/125/82 466/126/82
f 436/124/82 437/127/82 467/125/82
f 437/124/84 468/125/84 467/126/84
f 437/124/84 438/127/84 468/125/84
f 438/124/85 469/125/85 468/126/85
f 438/124/85 439/127/85 469/125/85
f 439/124/86 441/125/86 469/126/86
f 439/124/86 411/127/86 441/125/86
f 470/93/3 471/94/3 472/95/3
f 470/93/3 473/96/3 471/94/3
f 470/93/3 474/97/3 473/96/3
f 470/93/3 475/98/3 474/97/3
f 470/93/3 476/99/3 475/98/3
f 470/93/3 477/100/3 476/99/3
f 470/93/3 478/101/3 477/100/3
f 470/93/3 479/102/3 478/101/3
f 470/93/3 480/103/3 479/102/3
f 470/93/3 481/104/3 480/103/3
f 470/93/3 482/105/3 481/104/3
f 470/93/3 483/106/3 482/105/3
f 470/93/3 484/107/3 483/106/3
f 470/93/3 485/108/3 484/107/3
f 470/93/3 486/109/3 485/108/3
f 470/93/3 487/110/3 486/109/3
f 470/93/3 488/111/3 487/110/3
f 470/93/3 489/112/3 488/111/3
f 470/93/3 490/113/3 489/112/3
f 470/93/3 491/114/3 490/113/3
f 470/93/3 492/115/3 491/114/3
f 470/93/3 493/116/3 492/115/3
f 470/93/3 494/117/3 493/116/3
f 470/93/3 495/118/3 494/117/3
f 470/93/3 496/119/3 495/118/3
f 470/93/3 497/120/3 496/119/3
f 470/93/3 498/121/3 497/120/3
f 470/93/3 499/122/3 498/121/3
f 470/93/3 500/123/3 499/122/3
f 470/93/3 472/95/3 500/123/3
f 472/124/55 501/125/55 502/126/55
f 472/124/55 471/127/55 501/125/55
f 471/124/56 503/125/56 501/126/56
f 471/124/56 473/127/56 503/125/56
f 473/124/57 504/125/57 503/126/57
f 473/124/57 474/127/57 504/125/57
f 474/124/58 505/125/58 504/126/58
f 474/124/58 475/127/58 505/125/58
f 475/124/59 506/125/59 505/126/59
f 475/124/59 476/127/59 506/125/59
f 476/124/60 507/125/60 506/126/61
f 476/124/60 477/127/60 507/125/60
f 477/124/88 508/125/88 507/126/88
f 477/124/88 478/127/88 508/125/88
f 478/124/1 509/125/1 508/126/1
f 478/124/1 479/127/1 509/125/1
f 479/124/89 510/125/89 509/126/89
f 479/124/89 480/127/89 510/125/89
f 480/124/64 511/125/64 510/126/64
f 480/124/64 481/127/98 511/125/64
f 481/124/65 512/125/65 511/126/65
f 481/124/65 482/127/65 512/125/65
f 482/124/66 513/125/66 512/126/66
f 482/124/66 483/127/66 513/125/66
f 483/124/67 514/125/67 513/126/67
f 483/124/67 484/127/67 514/125/67
f 484/124/68 515/125/68 514/126/68
f 484/124/68 485/127/68 515/125/68
f 485/124/69 516/125/69 515/126/69
f 485/124/69 486/127/69 516/125/69
f 486/124/70 517/125/70 516/126/70
f 486/124/70 487/127/70 517/125/70
f 487/124/71 518/125/71 517/126/71
f 487/124/71 488/127/71 518/125/71
f 488/124/90 519/125/90 518/126/90
f 488/124/90 489/127/90 519/125/90
f 489/124/73 520/125/73 519/126/91
f 489/124/73 490/127/73 520/125/73
f 490/124/74 521/125/74 520/126/74
f 490/124/74 491/127/74 521/125/74
f 491/124/75 522/125/75 521/126/75
f 491/124/75 492/127/76 522/125/75
f 492/124/92 523/125/92 522/126/92
f 492/124/92 493/127/92 523/125/92
f 493/124/2 524/125/2 523/126/2
f 493/124/2 494/127/2 524/125/2
f 494/124/93 525/125/93 524/126/93
f 494/124/93 495/127/93 525/125/93
f 495/124/79 526/125/79 525/126/79
f 495/124/79 496/127/79 526/125/79
f 496/124/81 527/125/81 526/126/81
f 496/124/81 497/127/81 527/125/81
f 497/124/82 528/125/95 527/126/82
f 497/124/82 498/127/95 528/125/95
f 498/124/84 529/125/84 528/126/84
f 498/124/84 499/127/84 529/125/84
f 499/124/85 530/125/85 529/126/85
f 499/124/85 500/127/85 530/125/85
f 500/124/86 502/125/86 530/126/86
f 500/124/86 472/127/86 502/125/86
f 531/93/3 532/94/3 533/95/3
f 531/93/3 534/96/3 532/94/3
f 531/93/3 535/97/3 534/96/3
f 531/93/3 536/98/3 535/97/3
f 531/93/3 537/99/3 536/98/3
f 531/93/3 538/100/3 537/99/3
f 531/93/3 539/101/3 538/100/3
f 531/93/3 540/102/3 539/101/3
f 531/93/3 541/103/3 540/102/3
f 531/93/3 542/104/3 541/103/3
f 531/93/3 543/105/3 542/104/3
f 531/93/3 544/106/3 543/105/3
f 531/93/3 545/107/3 544/106/3
f 531/93/3 546/108/3 545/107/3
f 531/93/3 547/109/3 546/108/3
f 531/93/3 548/110/3 547/109/3
f 531/93/3 549/111/3 548/110/3
f 531/93/3 550/112/3 549/111/3
f 531/93/3 551/113/3 550/112/3
f 531/93/3 552/114/3 551/113/3
f 531/93/3 553/115/3 552/114/3
f 531/93/3 554/116/3 553/115/3
f 531/93/3 555/117/3 554/116/3
f 531/93/3 556/118/3 555/117/3
f 531/93/3 557/119/3 556/118/3
f 531/93/3 558/120/3 557/119/3
f 531/93/3 559/121/3 558/120/3
f 531/93/3 560/122/3 559/121/3
f 531/93/3 561/123/3 560/122/3
f 531/93/3 533/95/3 561/123/3
f 533/124/55 562/125/55 563/126/55
f 533/124/55 532/127/55 562/125/55
f 532/124/56 564/125/56 562/126/56
f 532/124/56 534/127/56 564/125/56
f 534/124/57 565/125/57 564/126/57
f 534/124/57 535/127/57 565/125/57
f 535/124/58 566/125/58 565/126/58
f 535/124/58 536/127/58 566/125/58
f 536/124/59 567/125/59 566/126/59
f 536/124/59 537/127/59 567/125/59
f 537/124/60 568/125/60 567/126/60
f 537/124/60 538/127/60 568/125/60
f 538/124/62 569/125/62 568/126/62
f 538/124/62 539/127/62 569/125/62
f 539/124/1 570/125/1 569/126/1
f 539/124/1 540/127/1 570/125/1
f 540/124/63 571/125/63 570/126/63
f 540/124/63 541/127/63 571/125/63
f 541/124/64 572/125/64 571/126/64
f 541/124/64 542/127/64 572/125/64
f 542/124/65 573/125/65 572/126/65
f 542/124/65 543/127/65 573/125/65
f 543/124/66 574/125/66 573/126/66
f 543/124/66 544/127/66 574/125/66
f 544/124/67 575/125/67 574/126/67
f 544/124/67 545/127/67 575/125/67
f 545/124/68 576/125/68 575/126/68
f 545/124/68 546/127/68 576/125/68
f 546/124/69 577/125/69 576/126/69
f 546/124/69 547/127/69 577/125/69
f 547/124/70 578/125/70 577/126/70
f 547/124/70 548/127/70 578/125/70
f 548/124/71 579/125/71 578/126/71
f 548/124/71 549/127/71 579/125/71
f 549/124/72 580/125/72 579/126/72
f 549/124/72 550/127/72 580/125/72
f 550/124/73 581/125/73 580/126/73
f 550/124/73 551/127/73 581/125/73
f 551/124/74 582/125/74 581/126/74
f 551/124/74 552/127/74 582/125/74
f 552/124/75 583/125/75 582/126/75
f 552/124/75 553/127/75 583/125/75
f 553/124/77 584/125/77 583/126/77
f 553/124/77 554/127/77 584/125/77
f 554/124/2 585/125/2 584/126/2
f 554/124/2 555/127/2 585/125/2
f 555/124/78 586/125/78 585/126/78
f 555/124/78 556/127/78 586/125/78
f 556/124/79 587/125/79 586/126/79
f 556/124/79 557/127/79 587/125/79
f 557/124/81 588/125/81 587/126/81
f 557/124/81 558/127/81 588/125/81
f 558/124/82 589/125/82 588/126/82
f 558/124/82 559/127/83 589/125/82
f 559/124/84 590/125/84 589/126/84
f 559/124/84 560/127/84 590/125/84
f 560/124/85 591/125/85 590/126/85
f 560/124/85 561/127/85 591/125/85
f 561/124/86 563/125/86 591/126/86
f 561/124/86 533/127/86 563/125/86
f 592/93/3 593/94/3 594/95/3
f 592/93/3 595/96/3 593/94/3
f 592/93/3 596/97/3 595/96/3
f 592/93/3 597/98/3 596/97/3
f 592/93/3 598/99/3 597/98/3
f 592/93/3 599/100/3 598/99/3
f 592/93/3 600/101/3 599/100/3
f 592/93/3 601/102/3 600/101/3
f 592/93/3 602/103/3 601/102/3
f 592/93/3 603/104/3 602/103/3
f 592/93/3 604/105/3 603/104/3
f 592/93/3 605/106/3 604/105/3
f 592/93/3 606/107/3 605/106/3
f 592/93/3 607/108/3 606/107/3
f 592/93/3 608/109/3 607/108/3
f 592/93/3 609/110/3 608/109/3
f 592/93/3 610/111/3 609/110/3
f 592/93/3 611/112/3 610/111/3
f 592/93/3 612/113/3 611/112/3
f 592/93/3 613/114/3 612/113/3
f 592/93/3 614/115/3 613/114/3
f 592/93/3 615/116/3 614/115/3
f 592/93/3 616/117/3 615/116/3
f 592/93/3 617/118/3 616/117/3
f 592/93/3 618/119/3 617/118/3
f 592/93/3 619/120/3 618/119/3
f 592/93/3 620/121/3 619/120/3
f 592/93/3 621/122/3 620/121/3
f 592/93/3 622/123/3 621/122/3
f 592/93/3 594/95/3 622/123/3
f 594/124/55 623/125/55 624/126/55
f 594/124/55 593/127/55 623/125/55
f 593/124/56 625/125/56 623/126/56
f 593/124/56 595/127/56 625/125/56
f 595/124/57 626/125/57 625/126/57
f 595/124/57 596/127/57 626/125/57
f 596/124/58 627/125/58 626/126/58
f 596/124/58 597/127/58 627/125/58
f 597/124/59 628/125/59 627/126/59
f 597/124/59 598/127/59 628/125/59
f 598/124/60 629/125/60 628/126/87
f 598/124/60 599/127/60 629/125/60
f 599/124/88 630/125/88 629/126/88
f 599/124/88 600/127/88 630/125/88
f 600/124/1 631/125/1 630/126/1
f 600/124/1 601/127/1 631/125/1
f 601/124/89 632/125/89 631/126/89
f 601/124/89 602/127/89 632/125/89
f 602/124/64 633/125/64 632/126/64
f 602/124/64 603/127/64 633/125/64
f 603/124/65 634/125/65 633/126/65
f 603/124/65 604/127/65 634/125/65
f 604/124/66 635/125/66 634/126/66
f 604/124/66 605/127/66 635/125/66
f 605/124/67 636/125/67 635/126/67
f 605/124/67 606/127/67 636/125/67
f 606/124/68 637/125/68 636/126/68
f 606/124/68 607/127/68 637/125/68
f 607/124/69 638/125/69 637/126/69
f 607/124/69 608/127/69 638/125/69
f 608/124/70 639/125/70 638/126/70
f 608/124/70 609/127/70 639/125/70
f 609/124/71 640/125/71 639/126/71
f 609/124/71 610/127/71 640/125/71
f 610/124/90 641/125/90 640/126/90
f 610/124/90 611/127/90 641/125/90
f 611/124/73 642/125/73 641/126/91
f 611/124/73 612/127/73 642/125/73
f 612/124/74 643/125/74 642/126/74
f 612/124/74 613/127/74 643/125/74
f 613/124/75 644/125/75 643/126/75
f 613/124/75 614/127/75 644/125/75
f 614/124/92 645/125/92 644/126/92
f 614/124/92 615/127/92 645/125/92
f 615/124/2 646/125/2 645/126/2
f 615/124/2 616/127/2 646/125/2
f 616/124/93 647/125/93 646/126/93
f 616/124/93 617/127/93 647/125/93
f 617/124/79 648/125/79 647/126/79
f 617/124/79 618/127/79 648/125/79
f 618/124/81 649/125/81 648/126/81
f 618/124/81 619/127/81 649/125/81
f 619/124/95 650/125/95 649/126/82
f 619/124/95 620/127/95 650/125/95
f 620/124/84 651/125/84 650/126/84
f 620/124/84 621/127/84 651/125/84
f 621/124/85 652/125/85 651/126/85
f 621/124/85 622/127/85 652/125/85
f 622/124/86 624/125/86 652/126/86
f 622/124/86 594/127/86 624/125/86
f 653/128/8 654/129/8 655/130/8
f 655/130/8 656/131/8 653/128/8
f 657/128/10 658/129/10 659/130/10
f 659/130/10 660/131/10 657/128/10
f 653/132/1 656/133/1 658/134/1
f 658/134/1 657/135/1 653/132/1
f 655/128/2 654/129/2 660/130/2
f 660/130/2 659/131/2 655/128/2
f 654/128/9 653/129/9 657/130/9
f 657/130/9 660/131/9 654/128/9
f 661/136/8 662/137/8 663/138/8
f 663/138/8 664/139/8 661/136/8
f 665/136/10 666/137/10 667/138/10
f 667/138/10 668/139/10 665/136/10
f 661/136/1 664/137/1 666/138/1
f 666/138/1 665/139/1 661/136/1
f 664/136/3 663/137/3 667/138/3
f 667/138/3 666/139/3 664/136/3
f 663/136/2 662/137/2 668/138/2
f 668/138/2 667/139/2 663/136/2
f 662/128/9 661/129/9 665/130/9
f 665/130/9 668/131/9 662/128/9
f 669/136/8 670/137/8 671/138/8
f 671/138/8 672/139/8 669/136/8
f 673/136/10 674/137/10 675/138/10
f 675/138/10 676/139/10 673/136/10
f 669/136/1 672/137/1 674/138/1
f 674/138/1 673/139/1 669/136/1
f 672/136/3 671/137/3 675/138/3
f 675/138/3 674/139/3 672/136/3
f 671/140/2 670/141/2 676/142/2
f 676/142/2 675/143/2 671/140/2
f 670/136/9 669/137/9 673/138/9
f 673/138/9 676/139/9 670/136/9
f 677/144/8 678/145/8 679/146/8
f 679/146/8 680/147/8 677/144/8
f 681/136/10 682/137/10 683/138/10
f 683/138/10 684/139/10 681/136/10
f 677/136/99 680/137/99 682/138/99
f 682/138/99 681/139/99 677/136/99
f 680/136/3 679/137/3 683/138/3
f 683/138/3 682/139/3 680/136/3
f 679/136/2 678/137/2 684/138/2
f 684/138/2 683/139/2 679/136/2
f 678/136/9 677/137/9 681/138/9
f 681/138/9 684/139/9 678/136/9
f 685/136/8 686/137/8 687/138/8
f 687/138/8 688/139/8 685/136/8
f 689/144/10 690/145/10 691/146/10
f 691/146/10 692/147/10 689/144/10
f 685/136/99 688/137/99 690/138/99
f 690/138/99 689/139/99 685/136/99
f 688/136/3 687/137/3 691/138/3
f 691/138/3 690/139/3 688/136/3
f 687/136/2 686/137/2 692/138/2
f 692/138/2 691/139/2 687/136/2
f 686/136/9 685/137/9 689/138/9
f 689/138/9 692/139/9 686/136/9
f 693/136/8 694/137/8 695/138/8
f 695/138/8 696/139/8 693/136/8
f 697/136/10 698/137/10 699/138/10
f 699/138/10 700/139/10 697/136/10
f 693/136/1 696/137/1 698/138/1
f 698/138/1 697/139/1 693/136/1
f 696/136/3 695/137/3 699/138/3
f 699/138/3 698/139/3 696/136/3
f 695/140/2 694/141/2 700/142/2
f 700/142/2 699/143/2 695/140/2
f 694/136/9 693/137/9 697/138/9
f 697/138/9 700/139/9 694/136/9
f 701/144/8 702/145/8 703/146/8
f 703/146/8 704/147/8 701/144/8
f 705/136/10 706/137/10 707/138/10
f 707/138/10 708/139/10 705/136/10
f 701/136/100 704/137/99 706/138/99
f 706/138/99 705/139/100 701/136/100
f 704/136/3 703/137/3 707/138/3
f 707/138/3 706/139/3 704/136/3
f 703/136/2 702/137/2 708/138/2
f 708/138/2 707/139/2 703/136/2
f 702/136/9 701/137/9 705/138/9
f 705/138/9 708/139/9 702/136/9
f 709/136/8 710/137/8 711/138/8
f 711/138/8 712/139/8 709/136/8
f 713/144/10 714/145/10 715/146/10
f 715/146/10 716/147/10 713/144/10
f 709/136/100 712/137/100 714/138/100
f 714/138/100 713/139/100 709/136/100
f 712/136/3 711/137/3 715/138/3
f 715/138/3 714/139/3 712/136/3
f 711/136/2 710/137/2 716/138/2
f 716/138/2 715/139/2 711/136/2
f 710/136/9 709/137/9 713/138/9
f 713/138/9 716/139/9 710/136/9
f 717/148/2 718/149/2 719/150/2
f 719/150/2 720/151/2 717/148/2
f 721/152/9 722/153/9 719/154/9
f 719/154/9 718/155/9 721/152/9
f 723/156/8 721/157/8 718/158/8
f 718/158/8 717/159/8 723/156/8
f 724/160/3 723/161/3 717/162/3
f 717/162/3 720/163/3 724/160/3
f 722/152/10 724/153/10 720/154/10
f 720/154/10 719/155/10 722/152/10
f 725/164/2 726/165/2 727/166/2
f 727/166/2 728/167/2 725/164/2
f 729/168/9 730/169/9 727/170/9
f 727/170/9 726/171/9 729/168/9
f 731/168/8 729/169/8 726/170/8
f 726/170/8 725/171/8 731/168/8
f 732/172/3 731/173/3 725/174/3
f 725/174/3 728/175/3 732/172/3
f 730/176/10 732/177/10 728/178/10
f 728/178/10 727/179/10 730/176/10
f 733/180/1 734/181/1 735/182/1
f 735/182/1 736/183/1 733/180/1
f 737/184/2 738/185/2 739/186/2
f 739/186/2 740/187/2 737/184/2
f 736/184/101 735/185/102 739/186/102
f 739/186/102 738/187/101 736/184/101
f 735/184/9 734/185/9 740/186/9
f 740/186/9 739/187/9 735/184/9
f 734/184/103 733/185/104 737/186/104
f 737/186/104 740/187/103 734/184/103
f 741/184/2 742/185/2 743/186/2
f 743/186/2 744/187/2 741/184/2
f 745/180/1 746/181/1 736/182/1
f 736/182/1 747/183/1 745/180/1
f 747/184/9 736/185/9 743/186/9
f 743/186/9 742/187/9 747/184/9
f 745/188/8 747/189/8 742/190/8
f 742/190/8 741/191/8 745/188/8
f 746/180/3 745/181/3 741/182/3
f 741/182/3 744/183/3 746/180/3
f 736/180/10 746/181/10 744/182/10
f 744/182/10 743/183/10 736/180/10
f 748/184/2 749/185/2 750/186/2
f 750/186/2 751/187/2 748/184/2
f 752/180/1 753/181/1 754/182/1
f 754/182/1 733/183/1 752/180/1
f 733/184/9 754/185/9 750/186/9
f 750/186/9 749/187/9 733/184/9
f 752/180/8 733/181/8 749/182/8
f 749/182/8 748/183/8 752/180/8
f 753/180/3 752/181/3 748/182/3
f 748/182/3 751/183/3 753/180/3
f 754/192/10 753/193/10 751/194/10
f 751/194/10 750/195/10 754/192/10
f 755/180/2 738/181/2 737/182/2
f 737/182/2 756/183/2 755/180/2
f 746/180/1 752/181/1 733/182/1
f 733/182/1 736/183/1 746/180/1
f 746/180/8 736/181/8 738/182/8
f 738/182/8 755/183/8 746/180/8
f 752/180/3 746/181/3 755/182/3
f 755/182/3 756/183/3 752/180/3
f 733/180/10 752/181/10 756/182/10
f 756/182/10 737/183/10 733/180/10
f 757/196/2 758/197/2 759/198/2
f 759/198/2 760/199/2 757/196/2
f 761/196/1 762/199/1 763/198/1
f 763/198/1 764/197/1 761/196/1
f 764/197/9 763/198/9 759/198/9
f 759/198/9 758/197/9 764/197/9
f 761/196/8 764/197/8 758/197/8
f 758/197/8 757/196/8 761/196/8
f 762/199/3 761/196/3 757/196/3
f 757/196/3 760/199/3 762/199/3
f 763/198/10 762/199/10 760/199/10
f 760/199/10 759/198/10 763/198/10
