# generated by tools/objdedupe/dedupe.py -- do not hand-edit.
# Re-run the tool after touching sssr_2svet_nove.obj, sssr_3svet_nove.obj, sssr_4svet_nove.obj, sssr_5svet_nove.obj, sssr_2se_nove.obj, sssr_3ab_nove.obj, sssr_4ab_nove.obj, sssr_pr_nove.obj, sssr_vl_nove.obj.
o stit_4l_pruhy
v -0.221072 2.723244 0.085159
vt 0.861931 0.296501
vn -0.000000 -0.000000 1.000000
v -0.185565 2.730791 0.085159
vt 0.781315 0.320743
v -0.221865 2.730791 0.085159
vt 0.863579 0.321805
v -0.218727 2.716026 0.085159
vt 0.856759 0.272257
v -0.214932 2.709454 0.085159
vt 0.848290 0.250133
v -0.209855 2.703815 0.085159
vt 0.836894 0.231095
v -0.203715 2.699354 0.085159
vt 0.823069 0.215973
v -0.196782 2.696268 0.085159
vt 0.807419 0.205433
v -0.189360 2.694690 0.085159
vt 0.790627 0.199931
v -0.181770 2.694690 0.085159
vt 0.773429 0.199709
v -0.174348 2.696268 0.085159
vt 0.756576 0.204777
v -0.167415 2.699354 0.085159
vt 0.740803 0.214912
v -0.161275 2.703815 0.085159
vt 0.726803 0.229675
v -0.156198 2.709454 0.085159
vt 0.715182 0.248415
v -0.152403 2.716026 0.085159
vt 0.706453 0.270318
v -0.150058 2.723244 0.085159
vt 0.700996 0.294425
v -0.149265 2.730791 0.085159
vt 0.699049 0.319682
v -0.150058 2.738338 0.085159
vt 0.700697 0.344986
v -0.152403 2.745555 0.085159
vt 0.705870 0.369230
v -0.156198 2.752128 0.085159
vt 0.714338 0.391354
v -0.161275 2.757767 0.085159
vt 0.725735 0.410392
v -0.167415 2.762228 0.085159
vt 0.739561 0.425514
v -0.174348 2.765314 0.085159
vt 0.755211 0.436054
v -0.181770 2.766892 0.085159
vt 0.772002 0.441556
v -0.189360 2.766892 0.085159
vt 0.789199 0.441777
v -0.196782 2.765314 0.085159
vt 0.806052 0.436710
v -0.203715 2.762228 0.085159
vt 0.821825 0.426575
v -0.209855 2.757767 0.085159
vt 0.835827 0.411812
v -0.214932 2.752127 0.085159
vt 0.847446 0.393071
v -0.218727 2.745555 0.085159
vt 0.856175 0.371167
v -0.221072 2.738338 0.085159
vt 0.861632 0.347061
v -0.221072 2.723244 0.079109
vt 0.556898 0.329554
vn -0.994500 -0.104500 -0.000000
vt 0.538804 0.311460
v -0.221865 2.730791 0.079109
vt 0.538804 0.329554
vt 0.556898 0.311460
v -0.218727 2.716026 0.079109
vn -0.951100 -0.309000 -0.000000
v -0.214932 2.709454 0.079109
vn -0.866000 -0.500100 -0.000000
v -0.209855 2.703815 0.079109
vn -0.743200 -0.669100 -0.000000
v -0.203715 2.699354 0.079109
vn -0.587800 -0.809000 -0.000000
v -0.196782 2.696268 0.079109
vn -0.406700 -0.913600 -0.000000
vn -0.407000 -0.913400 -0.000000
v -0.189360 2.694690 0.079109
vn -0.208000 -0.978100 -0.000000
v -0.181770 2.694690 0.079109
vn -0.000000 -1.000000 -0.000000
v -0.174348 2.696268 0.079109
vn 0.208000 -0.978100 -0.000000
v -0.167415 2.699354 0.079109
vn 0.406700 -0.913600 -0.000000
vn 0.407000 -0.913400 -0.000000
v -0.161275 2.703815 0.079109
vn 0.587800 -0.809000 -0.000000
v -0.156198 2.709454 0.079109
vn 0.743200 -0.669100 -0.000000
v -0.152403 2.716026 0.079109
vn 0.866000 -0.500100 -0.000000
v -0.150058 2.723244 0.079109
vn 0.951100 -0.309000 -0.000000
v -0.149265 2.730791 0.079109
vn 0.994500 -0.104500 -0.000000
v -0.150058 2.738338 0.079109
vn 0.994500 0.104500 -0.000000
v -0.152403 2.745555 0.079109
vn 0.951100 0.309000 -0.000000
v -0.156198 2.752128 0.079109
vn 0.866000 0.500000 -0.000000
v -0.161275 2.757767 0.079109
vn 0.743200 0.669100 -0.000000
v -0.167415 2.762228 0.079109
vn 0.587800 0.809000 -0.000000
v -0.174348 2.765314 0.079109
vn 0.406700 0.913600 -0.000000
vn 0.407000 0.913400 -0.000000
v -0.181770 2.766892 0.079109
vn 0.208000 0.978100 -0.000000
v -0.189360 2.766892 0.079109
vn -0.000000 1.000000 -0.000000
v -0.196782 2.765314 0.079109
vn -0.208000 0.978100 -0.000000
v -0.203715 2.762228 0.079109
vn -0.406700 0.913600 -0.000000
vn -0.407000 0.913400 -0.000000
v -0.209855 2.757767 0.079109
vn -0.587800 0.809000 -0.000000
v -0.214932 2.752127 0.079109
vn -0.743200 0.669000 -0.000000
v -0.218727 2.745555 0.079109
vn -0.866000 0.500100 -0.000000
v -0.221072 2.738338 0.079109
vn -0.951100 0.309000 -0.000000
vn -0.994500 0.104500 -0.000000
v -0.221072 2.632493 0.085159
v -0.185565 2.640041 0.085159
v -0.221865 2.640041 0.085159
v -0.218727 2.625276 0.085159
v -0.214932 2.618704 0.085159
v -0.209855 2.613065 0.085159
v -0.203715 2.608604 0.085159
v -0.196782 2.605518 0.085159
v -0.189360 2.603939 0.085159
v -0.181770 2.603939 0.085159
v -0.174348 2.605518 0.085159
v -0.167415 2.608604 0.085159
v -0.161275 2.613065 0.085159
v -0.156198 2.618704 0.085159
v -0.152403 2.625276 0.085159
v -0.150058 2.632493 0.085159
v -0.149265 2.640041 0.085159
v -0.150058 2.647588 0.085159
v -0.152403 2.654805 0.085159
v -0.156198 2.661377 0.085159
v -0.161275 2.667017 0.085159
v -0.167415 2.671478 0.085159
v -0.174348 2.674564 0.085159
v -0.181770 2.676142 0.085159
v -0.189360 2.676142 0.085159
v -0.196782 2.674564 0.085159
v -0.203715 2.671478 0.085159
v -0.209855 2.667017 0.085159
v -0.214932 2.661377 0.085159
v -0.218727 2.654805 0.085159
v -0.221072 2.647588 0.085159
v -0.221072 2.632493 0.079109
v -0.221865 2.640041 0.079109
v -0.218727 2.625276 0.079109
v -0.214932 2.618704 0.079109
v -0.209855 2.613065 0.079109
v -0.203715 2.608604 0.079109
v -0.196782 2.605518 0.079109
v -0.189360 2.603939 0.079109
vn -0.208100 -0.978100 -0.000000
v -0.181770 2.603939 0.079109
v -0.174348 2.605518 0.079109
vn 0.208100 -0.978100 -0.000000
v -0.167415 2.608604 0.079109
v -0.161275 2.613065 0.079109
v -0.156198 2.618704 0.079109
v -0.152403 2.625276 0.079109
v -0.150058 2.632493 0.079109
v -0.149265 2.640041 0.079109
v -0.150058 2.647588 0.079109
v -0.152403 2.654805 0.079109
v -0.156198 2.661377 0.079109
vn 0.866000 0.500100 -0.000000
v -0.161275 2.667017 0.079109
vn 0.743200 0.669000 -0.000000
v -0.167415 2.671478 0.079109
v -0.174348 2.674564 0.079109
v -0.181770 2.676142 0.079109
vn 0.207900 0.978100 -0.000000
v -0.189360 2.676142 0.079109
v -0.196782 2.674564 0.079109
vn -0.207900 0.978100 -0.000000
v -0.203715 2.671478 0.079109
v -0.209855 2.667017 0.079109
v -0.214932 2.661377 0.079109
vn -0.743200 0.669100 -0.000000
v -0.218727 2.654805 0.079109
v -0.221072 2.647588 0.079109
v -0.137582 2.723244 0.085159
v -0.102075 2.730791 0.085159
v -0.138375 2.730791 0.085159
v -0.135237 2.716026 0.085159
v -0.131442 2.709454 0.085159
v -0.126365 2.703815 0.085159
v -0.120225 2.699354 0.085159
v -0.113292 2.696268 0.085159
v -0.105870 2.694690 0.085159
v -0.098280 2.694690 0.085159
v -0.090858 2.696268 0.085159
v -0.083925 2.699354 0.085159
v -0.077785 2.703815 0.085159
v -0.072708 2.709454 0.085159
v -0.068913 2.716026 0.085159
v -0.066568 2.723244 0.085159
v -0.065775 2.730791 0.085159
v -0.066568 2.738338 0.085159
v -0.068913 2.745555 0.085159
v -0.072708 2.752128 0.085159
v -0.077785 2.757767 0.085159
v -0.083925 2.762228 0.085159
v -0.090858 2.765314 0.085159
v -0.098280 2.766892 0.085159
v -0.105870 2.766892 0.085159
v -0.113292 2.765314 0.085159
v -0.120225 2.762228 0.085159
v -0.126365 2.757767 0.085159
v -0.131442 2.752127 0.085159
v -0.135237 2.745555 0.085159
v -0.137582 2.738338 0.085159
v -0.137582 2.723244 0.079109
v -0.138375 2.730791 0.079109
v -0.135237 2.716026 0.079109
v -0.131442 2.709454 0.079109
v -0.126365 2.703815 0.079109
v -0.120225 2.699354 0.079109
v -0.113292 2.696268 0.079109
v -0.105870 2.694690 0.079109
v -0.098280 2.694690 0.079109
v -0.090858 2.696268 0.079109
v -0.083925 2.699354 0.079109
v -0.077785 2.703815 0.079109
v -0.072708 2.709454 0.079109
v -0.068913 2.716026 0.079109
v -0.066568 2.723244 0.079109
v -0.065775 2.730791 0.079109
v -0.066568 2.738338 0.079109
v -0.068913 2.745555 0.079109
v -0.072708 2.752128 0.079109
v -0.077785 2.757767 0.079109
v -0.083925 2.762228 0.079109
v -0.090858 2.765314 0.079109
v -0.098280 2.766892 0.079109
v -0.105870 2.766892 0.079109
v -0.113292 2.765314 0.079109
v -0.120225 2.762228 0.079109
v -0.126365 2.757767 0.079109
v -0.131442 2.752127 0.079109
v -0.135237 2.745555 0.079109
v -0.137582 2.738338 0.079109
v -0.137582 2.632493 0.085159
v -0.102075 2.640041 0.085159
v -0.138375 2.640041 0.085159
v -0.135237 2.625276 0.085159
v -0.131442 2.618704 0.085159
v -0.126365 2.613065 0.085159
v -0.120225 2.608604 0.085159
v -0.113292 2.605518 0.085159
v -0.105870 2.603939 0.085159
v -0.098280 2.603939 0.085159
v -0.090858 2.605518 0.085159
v -0.083925 2.608604 0.085159
v -0.077785 2.613065 0.085159
v -0.072708 2.618704 0.085159
v -0.068913 2.625276 0.085159
v -0.066568 2.632493 0.085159
v -0.065775 2.640041 0.085159
v -0.066568 2.647588 0.085159
v -0.068913 2.654805 0.085159
v -0.072708 2.661377 0.085159
v -0.077785 2.667017 0.085159
v -0.083925 2.671478 0.085159
v -0.090858 2.674564 0.085159
v -0.098280 2.676142 0.085159
v -0.105870 2.676142 0.085159
v -0.113292 2.674564 0.085159
v -0.120225 2.671478 0.085159
v -0.126365 2.667017 0.085159
v -0.131442 2.661377 0.085159
v -0.135237 2.654805 0.085159
v -0.137582 2.647588 0.085159
v -0.137582 2.632493 0.079109
v -0.138375 2.640041 0.079109
v -0.135237 2.625276 0.079109
v -0.131442 2.618704 0.079109
v -0.126365 2.613065 0.079109
v -0.120225 2.608604 0.079109
v -0.113292 2.605518 0.079109
v -0.105870 2.603939 0.079109
v -0.098280 2.603939 0.079109
v -0.090858 2.605518 0.079109
v -0.083925 2.608604 0.079109
v -0.077785 2.613065 0.079109
v -0.072708 2.618704 0.079109
v -0.068913 2.625276 0.079109
v -0.066568 2.632493 0.079109
v -0.065775 2.640041 0.079109
v -0.066568 2.647588 0.079109
v -0.068913 2.654805 0.079109
v -0.072708 2.661377 0.079109
v -0.077785 2.667017 0.079109
v -0.083925 2.671478 0.079109
v -0.090858 2.674564 0.079109
v -0.098280 2.676142 0.079109
v -0.105870 2.676142 0.079109
v -0.113292 2.674564 0.079109
v -0.120225 2.671478 0.079109
v -0.126365 2.667017 0.079109
v -0.131442 2.661377 0.079109
v -0.135237 2.654805 0.079109
v -0.137582 2.647588 0.079109
v -0.304562 2.723244 0.085159
v -0.269055 2.730791 0.085159
v -0.305355 2.730791 0.085159
v -0.302217 2.716026 0.085159
v -0.298422 2.709454 0.085159
v -0.293345 2.703815 0.085159
v -0.287205 2.699354 0.085159
v -0.280272 2.696268 0.085159
v -0.272850 2.694690 0.085159
v -0.265260 2.694690 0.085159
v -0.257838 2.696268 0.085159
v -0.250905 2.699354 0.085159
v -0.244765 2.703815 0.085159
v -0.239688 2.709454 0.085159
v -0.235893 2.716026 0.085159
v -0.233548 2.723244 0.085159
v -0.232755 2.730791 0.085159
v -0.233548 2.738338 0.085159
v -0.235893 2.745555 0.085159
v -0.239688 2.752128 0.085159
v -0.244765 2.757767 0.085159
v -0.250905 2.762228 0.085159
v -0.257838 2.765314 0.085159
v -0.265260 2.766892 0.085159
v -0.272850 2.766892 0.085159
v -0.280272 2.765314 0.085159
v -0.287205 2.762228 0.085159
v -0.293345 2.757767 0.085159
v -0.298422 2.752127 0.085159
v -0.302217 2.745555 0.085159
v -0.304562 2.738338 0.085159
v -0.304562 2.723244 0.079109
v -0.305355 2.730791 0.079109
v -0.302217 2.716026 0.079109
v -0.298422 2.709454 0.079109
v -0.293345 2.703815 0.079109
v -0.287205 2.699354 0.079109
v -0.280272 2.696268 0.079109
v -0.272850 2.694690 0.079109
v -0.265260 2.694690 0.079109
v -0.257838 2.696268 0.079109
v -0.250905 2.699354 0.079109
v -0.244765 2.703815 0.079109
v -0.239688 2.709454 0.079109
v -0.235893 2.716026 0.079109
v -0.233548 2.723244 0.079109
v -0.232755 2.730791 0.079109
v -0.233548 2.738338 0.079109
v -0.235893 2.745555 0.079109
v -0.239688 2.752128 0.079109
v -0.244765 2.757767 0.079109
v -0.250905 2.762228 0.079109
v -0.257838 2.765314 0.079109
v -0.265260 2.766892 0.079109
v -0.272850 2.766892 0.079109
v -0.280272 2.765314 0.079109
v -0.287205 2.762228 0.079109
v -0.293345 2.757767 0.079109
v -0.298422 2.752127 0.079109
v -0.302217 2.745555 0.079109
v -0.304562 2.738338 0.079109
v -0.304562 2.632493 0.085159
v -0.269055 2.640041 0.085159
v -0.305355 2.640041 0.085159
v -0.302217 2.625276 0.085159
v -0.298422 2.618704 0.085159
v -0.293345 2.613065 0.085159
v -0.287205 2.608604 0.085159
v -0.280272 2.605518 0.085159
v -0.272850 2.603939 0.085159
v -0.265260 2.603939 0.085159
v -0.257838 2.605518 0.085159
v -0.250905 2.608604 0.085159
v -0.244765 2.613065 0.085159
v -0.239688 2.618704 0.085159
v -0.235893 2.625276 0.085159
v -0.233548 2.632493 0.085159
v -0.232755 2.640041 0.085159
v -0.233548 2.647588 0.085159
v -0.235893 2.654805 0.085159
v -0.239688 2.661377 0.085159
v -0.244765 2.667017 0.085159
v -0.250905 2.671478 0.085159
v -0.257838 2.674564 0.085159
v -0.265260 2.676142 0.085159
v -0.272850 2.676142 0.085159
v -0.280272 2.674564 0.085159
v -0.287205 2.671478 0.085159
v -0.293345 2.667017 0.085159
v -0.298422 2.661377 0.085159
v -0.302217 2.654805 0.085159
v -0.304562 2.647588 0.085159
v -0.304562 2.632493 0.079109
v -0.305355 2.640041 0.079109
v -0.302217 2.625276 0.079109
v -0.298422 2.618704 0.079109
v -0.293345 2.613065 0.079109
v -0.287205 2.608604 0.079109
v -0.280272 2.605518 0.079109
v -0.272850 2.603939 0.079109
v -0.265260 2.603939 0.079109
v -0.257838 2.605518 0.079109
v -0.250905 2.608604 0.079109
v -0.244765 2.613065 0.079109
v -0.239688 2.618704 0.079109
v -0.235893 2.625276 0.079109
v -0.233548 2.632493 0.079109
v -0.232755 2.640041 0.079109
v -0.233548 2.647588 0.079109
v -0.235893 2.654805 0.079109
v -0.239688 2.661377 0.079109
v -0.244765 2.667017 0.079109
v -0.250905 2.671478 0.079109
v -0.257838 2.674564 0.079109
v -0.265260 2.676142 0.079109
v -0.272850 2.676142 0.079109
v -0.280272 2.674564 0.079109
v -0.287205 2.671478 0.079109
v -0.293345 2.667017 0.079109
v -0.298422 2.661377 0.079109
v -0.302217 2.654805 0.079109
v -0.304562 2.647588 0.079109
v -0.388052 2.723244 0.085159
v -0.352545 2.730791 0.085159
v -0.388845 2.730791 0.085159
v -0.385707 2.716026 0.085159
v -0.381912 2.709454 0.085159
v -0.376835 2.703815 0.085159
v -0.370695 2.699354 0.085159
v -0.363762 2.696268 0.085159
v -0.356340 2.694690 0.085159
v -0.348750 2.694690 0.085159
v -0.341328 2.696268 0.085159
v -0.334395 2.699354 0.085159
v -0.328255 2.703815 0.085159
v -0.323178 2.709454 0.085159
v -0.319383 2.716026 0.085159
v -0.317038 2.723244 0.085159
v -0.316245 2.730791 0.085159
v -0.317038 2.738338 0.085159
v -0.319383 2.745555 0.085159
v -0.323178 2.752128 0.085159
v -0.328255 2.757767 0.085159
v -0.334395 2.762228 0.085159
v -0.341328 2.765314 0.085159
v -0.348750 2.766892 0.085159
v -0.356340 2.766892 0.085159
v -0.363762 2.765314 0.085159
v -0.370695 2.762228 0.085159
v -0.376835 2.757767 0.085159
v -0.381912 2.752127 0.085159
v -0.385707 2.745555 0.085159
v -0.388052 2.738338 0.085159
v -0.388052 2.723244 0.079109
v -0.388845 2.730791 0.079109
v -0.385707 2.716026 0.079109
v -0.381912 2.709454 0.079109
v -0.376835 2.703815 0.079109
v -0.370695 2.699354 0.079109
v -0.363762 2.696268 0.079109
v -0.356340 2.694690 0.079109
v -0.348750 2.694690 0.079109
v -0.341328 2.696268 0.079109
v -0.334395 2.699354 0.079109
v -0.328255 2.703815 0.079109
v -0.323178 2.709454 0.079109
v -0.319383 2.716026 0.079109
v -0.317038 2.723244 0.079109
v -0.316245 2.730791 0.079109
v -0.317038 2.738338 0.079109
v -0.319383 2.745555 0.079109
v -0.323178 2.752128 0.079109
v -0.328255 2.757767 0.079109
v -0.334395 2.762228 0.079109
v -0.341328 2.765314 0.079109
v -0.348750 2.766892 0.079109
v -0.356340 2.766892 0.079109
v -0.363762 2.765314 0.079109
v -0.370695 2.762228 0.079109
v -0.376835 2.757767 0.079109
v -0.381912 2.752127 0.079109
v -0.385707 2.745555 0.079109
v -0.388052 2.738338 0.079109
v -0.388052 2.632493 0.085159
v -0.352545 2.640041 0.085159
v -0.388845 2.640041 0.085159
v -0.385707 2.625276 0.085159
v -0.381912 2.618704 0.085159
v -0.376835 2.613065 0.085159
v -0.370695 2.608604 0.085159
v -0.363762 2.605518 0.085159
v -0.356340 2.603939 0.085159
v -0.348750 2.603939 0.085159
v -0.341328 2.605518 0.085159
v -0.334395 2.608604 0.085159
v -0.328255 2.613065 0.085159
v -0.323178 2.618704 0.085159
v -0.319383 2.625276 0.085159
v -0.317038 2.632493 0.085159
v -0.316245 2.640041 0.085159
v -0.317038 2.647588 0.085159
v -0.319383 2.654805 0.085159
v -0.323178 2.661377 0.085159
v -0.328255 2.667017 0.085159
v -0.334395 2.671478 0.085159
v -0.341328 2.674564 0.085159
v -0.348750 2.676142 0.085159
v -0.356340 2.676142 0.085159
v -0.363762 2.674564 0.085159
v -0.370695 2.671478 0.085159
v -0.376835 2.667017 0.085159
v -0.381912 2.661377 0.085159
v -0.385707 2.654805 0.085159
v -0.388052 2.647588 0.085159
v -0.388052 2.632493 0.079109
v -0.388845 2.640041 0.079109
v -0.385707 2.625276 0.079109
v -0.381912 2.618704 0.079109
v -0.376835 2.613065 0.079109
v -0.370695 2.608604 0.079109
v -0.363762 2.605518 0.079109
v -0.356340 2.603939 0.079109
v -0.348750 2.603939 0.079109
v -0.341328 2.605518 0.079109
v -0.334395 2.608604 0.079109
v -0.328255 2.613065 0.079109
v -0.323178 2.618704 0.079109
v -0.319383 2.625276 0.079109
v -0.317038 2.632493 0.079109
v -0.316245 2.640041 0.079109
v -0.317038 2.647588 0.079109
v -0.319383 2.654805 0.079109
v -0.323178 2.661377 0.079109
v -0.328255 2.667017 0.079109
v -0.334395 2.671478 0.079109
v -0.341328 2.674564 0.079109
v -0.348750 2.676142 0.079109
v -0.356340 2.676142 0.079109
v -0.363762 2.674564 0.079109
v -0.370695 2.671478 0.079109
v -0.376835 2.667017 0.079109
v -0.381912 2.661377 0.079109
v -0.385707 2.654805 0.079109
v -0.388052 2.647588 0.079109
v -0.393685 2.776166 -0.067260
vt 0.293389 0.643990
vn -1.000000 -0.000000 -0.000000
v -0.393685 2.594665 -0.067260
vt 0.294192 0.712001
v -0.393685 2.776166 0.077940
vt 0.325947 0.643187
v -0.393685 2.594665 0.077940
vt 0.326750 0.711198
v -0.060935 2.594665 0.077940
vn 1.000000 -0.000000 -0.000000
v -0.060935 2.594665 -0.067260
v -0.060935 2.776166 0.077940
v -0.060935 2.776166 -0.067260
vt 0.093154 0.837362
vt 0.091634 0.861743
vt 0.098279 0.837018
vt 0.096181 0.861897
vn -0.000000 -0.000000 -1.000000
v -0.423935 2.806415 0.076684
vt 0.557218 0.309044
v -0.423935 2.564416 0.076684
vt 0.533954 0.309044
v -0.423935 2.806415 0.079709
vt 0.557218 0.332309
v -0.423935 2.564416 0.079709
vt 0.533954 0.332309
v -0.030685 2.564416 0.079709
v -0.030685 2.564416 0.076684
v -0.030685 2.806415 0.079709
v -0.030685 2.806415 0.076684
v -0.393685 2.776468 0.079714
v -0.393685 2.773443 0.079714
v -0.393685 2.776468 0.230964
v -0.393685 2.773443 0.230964
v -0.060935 2.773443 0.230964
v -0.060935 2.773443 0.079714
v -0.060935 2.776468 0.230964
v -0.060935 2.776468 0.079714
vt 0.499212 0.224981
vt 0.499212 0.255576
vt 0.564140 0.224981
vt 0.564140 0.255576
v -0.393685 2.776009 0.079714
vt 0.558448 0.230714
v -0.393685 2.685404 0.079714
vt 0.496319 0.250378
v -0.393685 2.776009 0.230964
vt 0.558448 0.216252
v -0.393685 2.730333 0.230964
vt 0.496319 0.216252
v -0.390660 2.730333 0.230964
v -0.390660 2.685404 0.079714
v -0.390660 2.776009 0.230964
v -0.390660 2.776009 0.079714
vn -0.000000 -0.958600 0.284800
v -0.063947 2.776031 0.079714
v -0.063947 2.685427 0.079714
v -0.063947 2.776031 0.230964
v -0.063947 2.730356 0.230964
v -0.060922 2.730356 0.230964
vt 0.564392 0.237157
v -0.060922 2.685427 0.079714
vt 0.502263 0.256821
v -0.060922 2.776031 0.230964
vt 0.564392 0.222695
v -0.060922 2.776031 0.079714
vt 0.502263 0.222695
v -0.393685 2.685573 0.079714
v -0.393685 2.682548 0.079714
v -0.393685 2.685573 0.230964
v -0.393685 2.682548 0.230964
v -0.060935 2.682548 0.230964
v -0.060935 2.682548 0.079714
v -0.060935 2.685573 0.230964
v -0.060935 2.685573 0.079714
v -0.393685 2.685114 0.079714
v -0.393685 2.594509 0.079714
v -0.393685 2.685114 0.230964
v -0.393685 2.639437 0.230964
v -0.390660 2.639437 0.230964
v -0.390660 2.594509 0.079714
v -0.390660 2.685114 0.230964
v -0.390660 2.685114 0.079714
vn -0.000000 -0.958600 0.284700
v -0.063947 2.685137 0.079714
v -0.063947 2.594532 0.079714
v -0.063947 2.685137 0.230964
v -0.063947 2.639460 0.230964
v -0.060922 2.639460 0.230964
v -0.060922 2.594532 0.079714
v -0.060922 2.685137 0.230964
v -0.060922 2.685137 0.079714
v -0.209160 2.629579 -0.007967
vt 0.135093 0.345490
v -0.209160 2.629579 0.022283
vt 0.142641 0.345490
v -0.197060 2.629579 -0.007967
vt 0.134273 0.324729
v -0.197060 2.629579 0.022283
vt 0.141821 0.324729
v -0.197060 2.568472 -0.007967
vt 0.339034 0.797729
v -0.209160 2.568472 -0.007967
vt 0.339132 0.790605
vt 0.329643 0.798234
vt 0.329740 0.791109
vt 0.182523 0.270881
v -0.209160 2.568472 0.022283
vt 0.190071 0.270881
vt 0.181703 0.250121
vt 0.189251 0.250121
vt 0.177033 0.330985
v -0.197060 2.568472 0.022283
vt 0.184581 0.330985
vt 0.176213 0.310224
vt 0.183761 0.310224
v -0.257560 2.629579 -0.007967
vt 0.137143 0.333684
v -0.257560 2.629579 0.022283
vt 0.144691 0.333684
v -0.245460 2.629579 -0.007967
vt 0.136323 0.312923
v -0.245460 2.629579 0.022283
vt 0.143871 0.312923
v -0.245460 2.568472 -0.007967
vt 0.324033 0.801940
v -0.257560 2.568472 -0.007967
vt 0.324131 0.794815
vt 0.314642 0.802444
vt 0.314740 0.795320
v -0.257560 2.568472 0.022283
vt 0.179083 0.319178
v -0.245460 2.568472 0.022283
vt 0.186631 0.319178
vt 0.178263 0.298418
vt 0.185811 0.298418
vt 0.184573 0.259075
vt 0.192121 0.259075
vt 0.183753 0.238315
vt 0.191301 0.238315
v -0.210067 2.551901 -0.029142
vt 0.245211 0.306670
v -0.195548 2.551901 -0.007967
vt 0.223327 0.306670
v -0.244553 2.551901 -0.029142
vt 0.245211 0.328554
v -0.259073 2.551901 -0.007967
vt 0.223327 0.328554
v -0.259073 2.560975 -0.007967
vt 0.310848 0.789199
v -0.195548 2.560975 -0.007967
vt 0.310564 0.809855
v -0.244553 2.560975 -0.029142
vt 0.320736 0.789483
v -0.210067 2.560975 -0.029142
vt 0.320453 0.810139
vn -0.824700 -0.000000 -0.565500
vn 0.824800 -0.000000 -0.565500
vn 0.824700 -0.000000 -0.565500
v -0.268148 2.594251 -0.007967
v -0.268148 2.594251 0.022283
v -0.259073 2.594251 -0.007967
v -0.259073 2.594251 0.022283
v -0.259073 2.551901 0.022283
v -0.268148 2.551901 0.022283
v -0.268148 2.551901 -0.007967
vt 0.272239 0.794279
vt 0.272108 0.810251
vt 0.279370 0.795347
vt 0.279076 0.808169
v -0.195548 2.594251 -0.007967
v -0.195548 2.594251 0.022283
v -0.186473 2.594251 -0.007967
v -0.186473 2.594251 0.022283
v -0.186473 2.551901 0.022283
v -0.195548 2.551901 0.022283
v -0.186473 2.551901 -0.007967
vt 0.272016 0.793764
vt 0.272010 0.810899
vt 0.279831 0.796876
vt 0.279444 0.808226
v -0.259073 2.560975 0.022283
v -0.195548 2.560975 0.022283
v -0.272685 2.585175 0.004133
vt 0.097113 0.809924
v -0.272685 2.585175 0.010183
vt 0.089570 0.810073
v -0.181935 2.585175 0.004133
vt 0.097657 0.867699
v -0.181935 2.585175 0.010183
vt 0.090114 0.867847
v -0.181935 2.576101 0.010183
v -0.272685 2.576101 0.010183
v -0.181935 2.576101 0.004133
v -0.272685 2.576101 0.004133
v -0.240938 2.521654 -0.004536
vt 0.096543 0.844608
v -0.226763 2.521654 -0.017922
vt 0.093056 0.837134
v -0.238513 2.521654 0.023188
vt 0.095634 0.854724
v -0.222229 2.521654 0.033909
vt 0.091384 0.863454
v -0.050620 2.521654 -0.046693
vt 0.098881 0.836661
v -0.043765 2.521654 0.031657
vt 0.096527 0.863459
v -0.222229 2.551904 0.033909
vt 0.255035 0.679051
v -0.226763 2.551904 -0.017922
vt 0.263636 0.679051
v -0.238513 2.551904 0.023188
vt 0.257035 0.681578
v -0.240938 2.551904 -0.004536
vt 0.261636 0.681578
v -0.043765 2.551904 0.031657
vt 0.252835 0.647811
v -0.050620 2.551904 -0.046693
vt 0.265836 0.647811
vt 0.204763 0.505452
vn -0.996200 -0.000000 0.087100
vt 0.236661 0.497558
vt 0.204906 0.483888
vt 0.236087 0.477572
vt 0.238042 0.488980
vn -0.686600 -0.000000 -0.727100
vt 0.216851 0.496500
vt 0.237799 0.475809
vt 0.217579 0.480660
vn -0.161200 -0.000000 -0.986900
vt 0.107935 0.497614
vt 0.108772 0.476438
vn 0.012600 -0.000000 0.999900
vn -0.549900 -0.000000 0.835200
v -0.068815 2.554929 0.036885
vt 0.172570 0.330358
v 0.003509 2.554929 0.030558
vt 0.200662 0.327158
v -0.067760 2.554929 0.048939
vt 0.169370 0.302266
v 0.004564 2.554929 0.042612
vt 0.197461 0.299066
v 0.004564 2.567029 0.042612
vt 0.318779 0.703748
v 0.003509 2.567029 0.030558
vt 0.318346 0.667104
v -0.067760 2.567029 0.048939
vt 0.301237 0.704181
v -0.068815 2.567029 0.036885
vt 0.300805 0.667537
vn -0.996200 -0.000000 0.087200
vn -0.087100 -0.000000 -0.996200
vn 0.996200 -0.000000 -0.087200
vt 0.119661 0.496928
vn 0.087100 -0.000000 0.996200
vt 0.168371 0.491252
vt 0.119605 0.476599
vt 0.168114 0.476886
v -0.077251 2.554929 -0.059547
v -0.004928 2.554929 -0.065874
v -0.076197 2.554929 -0.047493
v -0.003873 2.554929 -0.053820
v -0.003873 2.567029 -0.053820
v -0.004928 2.567029 -0.065874
v -0.076197 2.567029 -0.047493
v -0.077251 2.567029 -0.059547
v -0.068815 2.506571 0.036885
v 0.003509 2.506571 0.030558
v -0.067760 2.506571 0.048939
v 0.004564 2.506571 0.042612
v 0.004564 2.518671 0.042612
v 0.003509 2.518671 0.030558
v -0.067760 2.518671 0.048939
v -0.068815 2.518671 0.036885
vn -0.087200 -0.000000 -0.996200
vn 0.087200 -0.000000 0.996200
v -0.077251 2.506571 -0.059547
v -0.004928 2.506571 -0.065874
v -0.076197 2.506571 -0.047493
v -0.003873 2.506571 -0.053820
v -0.003873 2.518671 -0.053820
v -0.004928 2.518671 -0.065874
v -0.076197 2.518671 -0.047493
v -0.077251 2.518671 -0.059547
v 0.004564 2.506361 0.042612
vt 0.192642 0.299615
v -0.000182 2.506361 -0.011631
vt 0.182331 0.312577
v 0.018441 2.506361 0.039535
vt 0.195645 0.302725
v 0.031049 2.506361 0.032972
vt 0.197741 0.306507
v 0.041529 2.506361 0.023369
vt 0.198787 0.310702
v 0.049167 2.506361 0.011380
vt 0.198712 0.315025
v 0.053441 2.506361 -0.002176
vt 0.197520 0.319181
v 0.054060 2.506361 -0.016377
vt 0.195293 0.322887
v 0.050984 2.506361 -0.030254
vt 0.192183 0.325890
v 0.044421 2.506361 -0.042863
vt 0.188401 0.327986
v 0.034818 2.506361 -0.053342
vt 0.184206 0.329033
v 0.022830 2.506361 -0.060980
vt 0.179883 0.328957
v 0.009273 2.506361 -0.065254
vt 0.175727 0.327765
v -0.004928 2.506361 -0.065874
vt 0.172021 0.325538
vn 0.043600 -0.000000 -0.999000
v 0.009273 2.518461 -0.065254
v -0.004928 2.518461 -0.065874
vn 0.300700 -0.000000 -0.953700
v 0.022830 2.518461 -0.060980
vn 0.537300 -0.000000 -0.843400
v 0.034818 2.518461 -0.053342
vn 0.737200 -0.000000 -0.675600
v 0.044421 2.518461 -0.042863
vn 0.737300 -0.000000 -0.675600
vn 0.887000 -0.000000 -0.461700
v 0.050984 2.518461 -0.030254
vn 0.976300 -0.000000 -0.216400
v 0.054060 2.518461 -0.016377
vn 0.999100 -0.000000 0.043500
v 0.053441 2.518461 -0.002176
vn 0.953700 -0.000000 0.300700
v 0.049167 2.518461 0.011380
vn 0.843400 -0.000000 0.537300
v 0.041529 2.518461 0.023369
vn 0.675600 -0.000000 0.737300
v 0.031049 2.518461 0.032972
vn 0.461700 -0.000000 0.887000
v 0.018441 2.518461 0.039535
vn 0.216500 -0.000000 0.976300
v 0.004564 2.518461 0.042612
vt 0.300879 0.673823
v -0.000182 2.518461 -0.011631
vt 0.308324 0.688823
vt 0.302966 0.670360
vt 0.305420 0.668154
vt 0.308070 0.667357
vt 0.310739 0.668023
vt 0.313243 0.670106
vt 0.315411 0.673465
vt 0.317096 0.677870
vt 0.318184 0.683022
vt 0.318600 0.688569
vt 0.318316 0.694133
vt 0.317350 0.699336
vt 0.315770 0.703822
vt 0.303271 0.601381
v -0.000182 2.554929 -0.011631
vt 0.287326 0.617326
v 0.018441 2.554929 0.039535
vt 0.306855 0.606051
v 0.031049 2.554929 0.032972
vt 0.309107 0.611490
v 0.041529 2.554929 0.023369
vt 0.309876 0.617326
v 0.049167 2.554929 0.011380
vt 0.309107 0.623162
v 0.053441 2.554929 -0.002176
vt 0.306855 0.628601
v 0.054060 2.554929 -0.016377
vt 0.303271 0.633271
v 0.050984 2.554929 -0.030254
vt 0.298601 0.636854
v 0.044421 2.554929 -0.042863
vt 0.293162 0.639107
v 0.034818 2.554929 -0.053342
vt 0.287326 0.639875
v 0.022830 2.554929 -0.060980
vt 0.281490 0.639107
v 0.009273 2.554929 -0.065254
vt 0.276051 0.636854
vt 0.271381 0.633271
v 0.009273 2.567029 -0.065254
v 0.022830 2.567029 -0.060980
v 0.034818 2.567029 -0.053342
v 0.044421 2.567029 -0.042863
v 0.050984 2.567029 -0.030254
v 0.054060 2.567029 -0.016377
v 0.053441 2.567029 -0.002176
v 0.049167 2.567029 0.011380
v 0.041529 2.567029 0.023369
v 0.031049 2.567029 0.032972
v 0.018441 2.567029 0.039535
v -0.000182 2.567029 -0.011631
v -0.059095 2.499874 -0.067208
vt 0.271381 0.639875
v -0.041014 2.499874 -0.068790
vt 0.309876 0.639875
v -0.048549 2.499874 0.053331
vt 0.271381 0.601381
v -0.030468 2.499874 0.051750
vt 0.309876 0.601381
v -0.030468 2.572474 0.051750
v -0.041014 2.572474 -0.068790
v -0.048549 2.572474 0.053331
v -0.059095 2.572474 -0.067208
vt 0.249876 0.633044
vt 0.288616 0.633044
vt 0.249876 0.671785
vt 0.288616 0.671785
v -0.204160 2.579580 0.046012
vt 0.539697 0.328873
vn 0.008800 -0.000000 1.000000
v -0.216260 2.579580 0.046118
vt 0.554116 0.328873
v -0.204160 2.564814 0.046012
vt 0.539697 0.314455
v -0.216260 2.564814 0.046118
vt 0.554116 0.314455
vn -1.000000 -0.000000 0.008800
v -0.216366 2.579580 0.034018
v -0.216366 2.564814 0.034018
vn -0.008800 -0.000000 -1.000000
v -0.204266 2.579580 0.033912
v -0.204266 2.564814 0.033912
vn 1.000000 -0.000000 -0.008800
v -0.226128 2.576887 0.033605
vt 0.472929 0.643430
v -0.203852 2.576887 0.024149
vt 0.493645 0.646573
v -0.216673 2.576887 0.055881
vt 0.472929 0.624413
v -0.194397 2.576887 0.046425
vt 0.493645 0.627555
v -0.226128 2.607138 0.033605
vn -0.390700 -0.000000 -0.920500
v -0.203852 2.607138 0.024149
vn 0.920500 -0.000000 -0.390700
v -0.194397 2.607138 0.046425
vn 0.390700 -0.000000 0.920500
v -0.216673 2.607138 0.055881
v -0.210234 2.525134 0.046065
v -0.198642 2.528604 0.046065
v -0.216313 2.566635 0.046065
v -0.204213 2.566635 0.046065
v -0.192507 2.487118 0.046065
v -0.182398 2.493767 0.046065
v -0.164622 2.455785 0.046065
v -0.156844 2.465054 0.046065
v -0.128922 2.433764 0.046065
v -0.124130 2.444875 0.046065
v -0.088406 2.422908 0.046065
v -0.087001 2.434926 0.046065
v -0.046479 2.424128 0.046065
v -0.048580 2.436044 0.046065
vn 0.989400 0.144900 -0.000000
v -0.198642 2.528604 0.033965
v -0.204213 2.566635 0.033965
vn 0.906300 0.422600 -0.000000
v -0.182398 2.493767 0.033965
vn 0.747000 0.664800 -0.000000
v -0.156844 2.465054 0.033965
vn 0.525000 0.851100 -0.000000
v -0.124130 2.444875 0.033965
vn 0.258800 0.965900 -0.000000
v -0.087001 2.434926 0.033965
vn -0.029100 0.999600 -0.000000
v -0.048580 2.436044 0.033965
v -0.210234 2.525134 0.033965
v -0.216313 2.566635 0.033965
v -0.192507 2.487118 0.033965
v -0.164622 2.455785 0.033965
v -0.128922 2.433764 0.033965
v -0.088406 2.422908 0.033965
v -0.046479 2.424128 0.033965
vn -0.989400 -0.144900 -0.000000
vn -0.906300 -0.422600 -0.000000
vn -0.747000 -0.664800 -0.000000
vn -0.525000 -0.851100 -0.000000
vn -0.258800 -0.965900 -0.000000
vn 0.029100 -0.999600 -0.000000
v 0.015224 2.446117 0.046090
vn -0.159800 0.984800 0.067800
v 0.015054 2.446920 0.034018
v -0.056435 2.434470 0.046325
v -0.056606 2.435274 0.034253
vn -0.159800 0.984800 0.067900
vn -0.014100 0.066500 -0.997700
v 0.016988 2.435004 0.033197
vn -0.014100 0.066400 -0.997700
v -0.054671 2.423357 0.033432
vn 0.159800 -0.984800 -0.067800
v 0.017158 2.434200 0.045269
v -0.054501 2.422553 0.045504
vn 0.159800 -0.984800 -0.067900
vn 0.014100 -0.066500 0.997700
v -0.012172 2.420485 0.055489
v 0.012028 2.420485 0.019189
v 0.012028 2.420485 0.055489
v -0.012172 2.420485 0.019189
v -0.012172 2.456786 0.055489
v 0.012028 2.456786 0.019189
v -0.012172 2.456786 0.019189
v 0.012028 2.456786 0.055489
f 1/1/1 2/2/1 3/3/1
f 4/4/1 2/2/1 1/1/1
f 5/5/1 2/2/1 4/4/1
f 6/6/1 2/2/1 5/5/1
f 7/7/1 2/2/1 6/6/1
f 8/8/1 2/2/1 7/7/1
f 9/9/1 2/2/1 8/8/1
f 10/10/1 2/2/1 9/9/1
f 11/11/1 2/2/1 10/10/1
f 12/12/1 2/2/1 11/11/1
f 13/13/1 2/2/1 12/12/1
f 14/14/1 2/2/1 13/13/1
f 15/15/1 2/2/1 14/14/1
f 16/16/1 2/2/1 15/15/1
f 17/17/1 2/2/1 16/16/1
f 18/18/1 2/2/1 17/17/1
f 19/19/1 2/2/1 18/18/1
f 20/20/1 2/2/1 19/19/1
f 21/21/1 2/2/1 20/20/1
f 22/22/1 2/2/1 21/21/1
f 23/23/1 2/2/1 22/22/1
f 24/24/1 2/2/1 23/23/1
f 25/25/1 2/2/1 24/24/1
f 26/26/1 2/2/1 25/25/1
f 27/27/1 2/2/1 26/26/1
f 28/28/1 2/2/1 27/27/1
f 29/29/1 2/2/1 28/28/1
f 30/30/1 2/2/1 29/29/1
f 31/31/1 2/2/1 30/30/1
f 3/3/1 2/2/1 31/31/1
f 32/32/2 3/33/2 33/34/2
f 1/35/2 3/33/2 32/32/2
f 34/32/3 1/33/3 32/34/3
f 4/35/3 1/33/3 34/32/3
f 35/32/4 4/33/4 34/34/4
f 5/35/4 4/33/4 35/32/4
f 36/32/5 5/33/5 35/34/5
f 6/35/5 5/33/5 36/32/5
f 37/32/6 6/33/6 36/34/6
f 7/35/6 6/33/6 37/32/6
f 38/32/7 7/33/7 37/34/7
f 8/35/8 7/33/7 38/32/7
f 39/32/9 8/33/9 38/34/9
f 9/35/9 8/33/9 39/32/9
f 40/32/10 9/33/10 39/34/10
f 10/35/10 9/33/10 40/32/10
f 41/32/11 10/33/11 40/34/11
f 11/35/11 10/33/11 41/32/11
f 42/32/12 11/33/12 41/34/13
f 12/35/12 11/33/12 42/32/12
f 43/32/14 12/33/14 42/34/14
f 13/35/14 12/33/14 43/32/14
f 44/32/15 13/33/15 43/34/15
f 14/35/15 13/33/15 44/32/15
f 45/32/16 14/33/16 44/34/16
f 15/35/16 14/33/16 45/32/16
f 46/32/17 15/33/17 45/34/17
f 16/35/17 15/33/17 46/32/17
f 47/32/18 16/33/18 46/34/18
f 17/35/18 16/33/18 47/32/18
f 48/32/19 17/33/19 47/34/19
f 18/35/19 17/33/19 48/32/19
f 49/32/20 18/33/20 48/34/20
f 19/35/20 18/33/20 49/32/20
f 50/32/21 19/33/21 49/34/21
f 20/35/21 19/33/21 50/32/21
f 51/32/22 20/33/22 50/34/22
f 21/35/22 20/33/22 51/32/22
f 52/32/23 21/33/23 51/34/23
f 22/35/23 21/33/23 52/32/23
f 53/32/24 22/33/24 52/34/25
f 23/35/24 22/33/24 53/32/24
f 54/32/26 23/33/26 53/34/26
f 24/35/26 23/33/26 54/32/26
f 55/32/27 24/33/27 54/34/27
f 25/35/27 24/33/27 55/32/27
f 56/32/28 25/33/28 55/34/28
f 26/35/28 25/33/28 56/32/28
f 57/32/29 26/33/29 56/34/29
f 27/35/30 26/33/29 57/32/29
f 58/32/31 27/33/31 57/34/31
f 28/35/31 27/33/31 58/32/31
f 59/32/32 28/33/32 58/34/32
f 29/35/32 28/33/32 59/32/32
f 60/32/33 29/33/33 59/34/33
f 30/35/33 29/33/33 60/32/33
f 61/32/34 30/33/34 60/34/34
f 31/35/34 30/33/34 61/32/34
f 33/32/35 31/33/35 61/34/35
f 3/35/35 31/33/35 33/32/35
f 62/1/1 63/2/1 64/3/1
f 65/4/1 63/2/1 62/1/1
f 66/5/1 63/2/1 65/4/1
f 67/6/1 63/2/1 66/5/1
f 68/7/1 63/2/1 67/6/1
f 69/8/1 63/2/1 68/7/1
f 70/9/1 63/2/1 69/8/1
f 71/10/1 63/2/1 70/9/1
f 72/11/1 63/2/1 71/10/1
f 73/12/1 63/2/1 72/11/1
f 74/13/1 63/2/1 73/12/1
f 75/14/1 63/2/1 74/13/1
f 76/15/1 63/2/1 75/14/1
f 77/16/1 63/2/1 76/15/1
f 78/17/1 63/2/1 77/16/1
f 79/18/1 63/2/1 78/17/1
f 80/19/1 63/2/1 79/18/1
f 81/20/1 63/2/1 80/19/1
f 82/21/1 63/2/1 81/20/1
f 83/22/1 63/2/1 82/21/1
f 84/23/1 63/2/1 83/22/1
f 85/24/1 63/2/1 84/23/1
f 86/25/1 63/2/1 85/24/1
f 87/26/1 63/2/1 86/25/1
f 88/27/1 63/2/1 87/26/1
f 89/28/1 63/2/1 88/27/1
f 90/29/1 63/2/1 89/28/1
f 91/30/1 63/2/1 90/29/1
f 92/31/1 63/2/1 91/30/1
f 64/3/1 63/2/1 92/31/1
f 93/32/2 64/33/2 94/34/2
f 62/35/2 64/33/2 93/32/2
f 95/32/3 62/33/3 93/34/3
f 65/35/3 62/33/3 95/32/3
f 96/32/4 65/33/4 95/34/4
f 66/35/4 65/33/4 96/32/4
f 97/32/5 66/33/5 96/34/5
f 67/35/5 66/33/5 97/32/5
f 98/32/6 67/33/6 97/34/6
f 68/35/6 67/33/6 98/32/6
f 99/32/7 68/33/7 98/34/8
f 69/35/7 68/33/7 99/32/7
f 100/32/36 69/33/36 99/34/36
f 70/35/36 69/33/36 100/32/36
f 101/32/10 70/33/10 100/34/10
f 71/35/10 70/33/10 101/32/10
f 102/32/37 71/33/37 101/34/37
f 72/35/37 71/33/37 102/32/37
f 103/32/12 72/33/12 102/34/12
f 73/35/13 72/33/12 103/32/12
f 104/32/14 73/33/14 103/34/14
f 74/35/14 73/33/14 104/32/14
f 105/32/15 74/33/15 104/34/15
f 75/35/15 74/33/15 105/32/15
f 106/32/16 75/33/16 105/34/16
f 76/35/16 75/33/16 106/32/16
f 107/32/17 76/33/17 106/34/17
f 77/35/17 76/33/17 107/32/17
f 108/32/18 77/33/18 107/34/18
f 78/35/18 77/33/18 108/32/18
f 109/32/19 78/33/19 108/34/19
f 79/35/19 78/33/19 109/32/19
f 110/32/20 79/33/20 109/34/20
f 80/35/20 79/33/20 110/32/20
f 111/32/38 80/33/38 110/34/38
f 81/35/38 80/33/38 111/32/38
f 112/32/22 81/33/39 111/34/39
f 82/35/22 81/33/39 112/32/22
f 113/32/23 82/33/23 112/34/23
f 83/35/23 82/33/23 113/32/23
f 114/32/24 83/33/24 113/34/24
f 84/35/25 83/33/24 114/32/24
f 115/32/40 84/33/40 114/34/40
f 85/35/40 84/33/40 115/32/40
f 116/32/27 85/33/27 115/34/27
f 86/35/27 85/33/27 116/32/27
f 117/32/41 86/33/41 116/34/41
f 87/35/41 86/33/41 117/32/41
f 118/32/29 87/33/29 117/34/30
f 88/35/29 87/33/29 118/32/29
f 119/32/31 88/33/31 118/34/31
f 89/35/31 88/33/31 119/32/31
f 120/32/42 89/33/42 119/34/42
f 90/35/42 89/33/42 120/32/42
f 121/32/33 90/33/33 120/34/33
f 91/35/33 90/33/33 121/32/33
f 122/32/34 91/33/34 121/34/34
f 92/35/34 91/33/34 122/32/34
f 94/32/35 92/33/35 122/34/35
f 64/35/35 92/33/35 94/32/35
f 123/1/1 124/2/1 125/3/1
f 126/4/1 124/2/1 123/1/1
f 127/5/1 124/2/1 126/4/1
f 128/6/1 124/2/1 127/5/1
f 129/7/1 124/2/1 128/6/1
f 130/8/1 124/2/1 129/7/1
f 131/9/1 124/2/1 130/8/1
f 132/10/1 124/2/1 131/9/1
f 133/11/1 124/2/1 132/10/1
f 134/12/1 124/2/1 133/11/1
f 135/13/1 124/2/1 134/12/1
f 136/14/1 124/2/1 135/13/1
f 137/15/1 124/2/1 136/14/1
f 138/16/1 124/2/1 137/15/1
f 139/17/1 124/2/1 138/16/1
f 140/18/1 124/2/1 139/17/1
f 141/19/1 124/2/1 140/18/1
f 142/20/1 124/2/1 141/19/1
f 143/21/1 124/2/1 142/20/1
f 144/22/1 124/2/1 143/21/1
f 145/23/1 124/2/1 144/22/1
f 146/24/1 124/2/1 145/23/1
f 147/25/1 124/2/1 146/24/1
f 148/26/1 124/2/1 147/25/1
f 149/27/1 124/2/1 148/26/1
f 150/28/1 124/2/1 149/27/1
f 151/29/1 124/2/1 150/28/1
f 152/30/1 124/2/1 151/29/1
f 153/31/1 124/2/1 152/30/1
f 125/3/1 124/2/1 153/31/1
f 154/32/2 125/33/2 155/34/2
f 123/35/2 125/33/2 154/32/2
f 156/32/3 123/33/3 154/34/3
f 126/35/3 123/33/3 156/32/3
f 157/32/4 126/33/4 156/34/4
f 127/35/4 126/33/4 157/32/4
f 158/32/5 127/33/5 157/34/5
f 128/35/5 127/33/5 158/32/5
f 159/32/6 128/33/6 158/34/6
f 129/35/6 128/33/6 159/32/6
f 160/32/7 129/33/7 159/34/7
f 130/35/8 129/33/7 160/32/7
f 161/32/9 130/33/9 160/34/9
f 131/35/9 130/33/9 161/32/9
f 162/32/10 131/33/10 161/34/10
f 132/35/10 131/33/10 162/32/10
f 163/32/11 132/33/11 162/34/11
f 133/35/11 132/33/11 163/32/11
f 164/32/12 133/33/12 163/34/13
f 134/35/12 133/33/12 164/32/12
f 165/32/14 134/33/14 164/34/14
f 135/35/14 134/33/14 165/32/14
f 166/32/15 135/33/15 165/34/15
f 136/35/15 135/33/15 166/32/15
f 167/32/16 136/33/16 166/34/16
f 137/35/16 136/33/16 167/32/16
f 168/32/17 137/33/17 167/34/17
f 138/35/17 137/33/17 168/32/17
f 169/32/18 138/33/18 168/34/18
f 139/35/18 138/33/18 169/32/18
f 170/32/19 139/33/19 169/34/19
f 140/35/19 139/33/19 170/32/19
f 171/32/20 140/33/20 170/34/20
f 141/35/20 140/33/20 171/32/20
f 172/32/21 141/33/21 171/34/21
f 142/35/21 141/33/21 172/32/21
f 173/32/22 142/33/22 172/34/22
f 143/35/22 142/33/22 173/32/22
f 174/32/23 143/33/23 173/34/23
f 144/35/23 143/33/23 174/32/23
f 175/32/24 144/33/24 174/34/25
f 145/35/24 144/33/24 175/32/24
f 176/32/26 145/33/26 175/34/26
f 146/35/26 145/33/26 176/32/26
f 177/32/27 146/33/27 176/34/27
f 147/35/27 146/33/27 177/32/27
f 178/32/28 147/33/28 177/34/28
f 148/35/28 147/33/28 178/32/28
f 179/32/29 148/33/29 178/34/29
f 149/35/30 148/33/29 179/32/29
f 180/32/31 149/33/31 179/34/31
f 150/35/31 149/33/31 180/32/31
f 181/32/32 150/33/32 180/34/32
f 151/35/32 150/33/32 181/32/32
f 182/32/33 151/33/33 181/34/33
f 152/35/33 151/33/33 182/32/33
f 183/32/34 152/33/34 182/34/34
f 153/35/34 152/33/34 183/32/34
f 155/32/35 153/33/35 183/34/35
f 125/35/35 153/33/35 155/32/35
f 184/1/1 185/2/1 186/3/1
f 187/4/1 185/2/1 184/1/1
f 188/5/1 185/2/1 187/4/1
f 189/6/1 185/2/1 188/5/1
f 190/7/1 185/2/1 189/6/1
f 191/8/1 185/2/1 190/7/1
f 192/9/1 185/2/1 191/8/1
f 193/10/1 185/2/1 192/9/1
f 194/11/1 185/2/1 193/10/1
f 195/12/1 185/2/1 194/11/1
f 196/13/1 185/2/1 195/12/1
f 197/14/1 185/2/1 196/13/1
f 198/15/1 185/2/1 197/14/1
f 199/16/1 185/2/1 198/15/1
f 200/17/1 185/2/1 199/16/1
f 201/18/1 185/2/1 200/17/1
f 202/19/1 185/2/1 201/18/1
f 203/20/1 185/2/1 202/19/1
f 204/21/1 185/2/1 203/20/1
f 205/22/1 185/2/1 204/21/1
f 206/23/1 185/2/1 205/22/1
f 207/24/1 185/2/1 206/23/1
f 208/25/1 185/2/1 207/24/1
f 209/26/1 185/2/1 208/25/1
f 210/27/1 185/2/1 209/26/1
f 211/28/1 185/2/1 210/27/1
f 212/29/1 185/2/1 211/28/1
f 213/30/1 185/2/1 212/29/1
f 214/31/1 185/2/1 213/30/1
f 186/3/1 185/2/1 214/31/1
f 215/32/2 186/33/2 216/34/2
f 184/35/2 186/33/2 215/32/2
f 217/32/3 184/33/3 215/34/3
f 187/35/3 184/33/3 217/32/3
f 218/32/4 187/33/4 217/34/4
f 188/35/4 187/33/4 218/32/4
f 219/32/5 188/33/5 218/34/5
f 189/35/5 188/33/5 219/32/5
f 220/32/6 189/33/6 219/34/6
f 190/35/6 189/33/6 220/32/6
f 221/32/7 190/33/7 220/34/8
f 191/35/7 190/33/7 221/32/7
f 222/32/36 191/33/36 221/34/36
f 192/35/36 191/33/36 222/32/36
f 223/32/10 192/33/10 222/34/10
f 193/35/10 192/33/10 223/32/10
f 224/32/37 193/33/37 223/34/37
f 194/35/37 193/33/37 224/32/37
f 225/32/12 194/33/12 224/34/12
f 195/35/13 194/33/12 225/32/12
f 226/32/14 195/33/14 225/34/14
f 196/35/14 195/33/14 226/32/14
f 227/32/15 196/33/15 226/34/15
f 197/35/15 196/33/15 227/32/15
f 228/32/16 197/33/16 227/34/16
f 198/35/16 197/33/16 228/32/16
f 229/32/17 198/33/17 228/34/17
f 199/35/17 198/33/17 229/32/17
f 230/32/18 199/33/18 229/34/18
f 200/35/18 199/33/18 230/32/18
f 231/32/19 200/33/19 230/34/19
f 201/35/19 200/33/19 231/32/19
f 232/32/20 201/33/20 231/34/20
f 202/35/20 201/33/20 232/32/20
f 233/32/38 202/33/38 232/34/38
f 203/35/38 202/33/38 233/32/38
f 234/32/22 203/33/22 233/34/39
f 204/35/22 203/33/22 234/32/22
f 235/32/23 204/33/23 234/34/23
f 205/35/23 204/33/23 235/32/23
f 236/32/24 205/33/24 235/34/24
f 206/35/25 205/33/24 236/32/24
f 237/32/40 206/33/40 236/34/40
f 207/35/40 206/33/40 237/32/40
f 238/32/27 207/33/27 237/34/27
f 208/35/27 207/33/27 238/32/27
f 239/32/41 208/33/41 238/34/41
f 209/35/41 208/33/41 239/32/41
f 240/32/29 209/33/29 239/34/30
f 210/35/29 209/33/29 240/32/29
f 241/32/31 210/33/31 240/34/31
f 211/35/31 210/33/31 241/32/31
f 242/32/42 211/33/42 241/34/42
f 212/35/32 211/33/42 242/32/42
f 243/32/33 212/33/33 242/34/33
f 213/35/33 212/33/33 243/32/33
f 244/32/34 213/33/34 243/34/34
f 214/35/34 213/33/34 244/32/34
f 216/32/35 214/33/35 244/34/35
f 186/35/35 214/33/35 216/32/35
f 245/1/1 246/2/1 247/3/1
f 248/4/1 246/2/1 245/1/1
f 249/5/1 246/2/1 248/4/1
f 250/6/1 246/2/1 249/5/1
f 251/7/1 246/2/1 250/6/1
f 252/8/1 246/2/1 251/7/1
f 253/9/1 246/2/1 252/8/1
f 254/10/1 246/2/1 253/9/1
f 255/11/1 246/2/1 254/10/1
f 256/12/1 246/2/1 255/11/1
f 257/13/1 246/2/1 256/12/1
f 258/14/1 246/2/1 257/13/1
f 259/15/1 246/2/1 258/14/1
f 260/16/1 246/2/1 259/15/1
f 261/17/1 246/2/1 260/16/1
f 262/18/1 246/2/1 261/17/1
f 263/19/1 246/2/1 262/18/1
f 264/20/1 246/2/1 263/19/1
f 265/21/1 246/2/1 264/20/1
f 266/22/1 246/2/1 265/21/1
f 267/23/1 246/2/1 266/22/1
f 268/24/1 246/2/1 267/23/1
f 269/25/1 246/2/1 268/24/1
f 270/26/1 246/2/1 269/25/1
f 271/27/1 246/2/1 270/26/1
f 272/28/1 246/2/1 271/27/1
f 273/29/1 246/2/1 272/28/1
f 274/30/1 246/2/1 273/29/1
f 275/31/1 246/2/1 274/30/1
f 247/3/1 246/2/1 275/31/1
f 276/32/2 247/33/2 277/34/2
f 245/35/2 247/33/2 276/32/2
f 278/32/3 245/33/3 276/34/3
f 248/35/3 245/33/3 278/32/3
f 279/32/4 248/33/4 278/34/4
f 249/35/4 248/33/4 279/32/4
f 280/32/5 249/33/5 279/34/5
f 250/35/5 249/33/5 280/32/5
f 281/32/6 250/33/6 280/34/6
f 251/35/6 250/33/6 281/32/6
f 282/32/7 251/33/7 281/34/7
f 252/35/8 251/33/7 282/32/7
f 283/32/9 252/33/9 282/34/9
f 253/35/9 252/33/9 283/32/9
f 284/32/10 253/33/10 283/34/10
f 254/35/10 253/33/10 284/32/10
f 285/32/11 254/33/11 284/34/11
f 255/35/11 254/33/11 285/32/11
f 286/32/12 255/33/12 285/34/13
f 256/35/12 255/33/12 286/32/12
f 287/32/14 256/33/14 286/34/14
f 257/35/14 256/33/14 287/32/14
f 288/32/15 257/33/15 287/34/15
f 258/35/15 257/33/15 288/32/15
f 289/32/16 258/33/16 288/34/16
f 259/35/16 258/33/16 289/32/16
f 290/32/17 259/33/17 289/34/17
f 260/35/17 259/33/17 290/32/17
f 291/32/18 260/33/18 290/34/18
f 261/35/18 260/33/18 291/32/18
f 292/32/19 261/33/19 291/34/19
f 262/35/19 261/33/19 292/32/19
f 293/32/20 262/33/20 292/34/20
f 263/35/20 262/33/20 293/32/20
f 294/32/21 263/33/21 293/34/21
f 264/35/21 263/33/21 294/32/21
f 295/32/22 264/33/22 294/34/22
f 265/35/22 264/33/22 295/32/22
f 296/32/23 265/33/23 295/34/23
f 266/35/23 265/33/23 296/32/23
f 297/32/24 266/33/24 296/34/24
f 267/35/24 266/33/24 297/32/24
f 298/32/26 267/33/26 297/34/26
f 268/35/26 267/33/26 298/32/26
f 299/32/27 268/33/27 298/34/27
f 269/35/27 268/33/27 299/32/27
f 300/32/28 269/33/28 299/34/28
f 270/35/28 269/33/28 300/32/28
f 301/32/29 270/33/29 300/34/29
f 271/35/29 270/33/29 301/32/29
f 302/32/31 271/33/31 301/34/31
f 272/35/31 271/33/31 302/32/31
f 303/32/32 272/33/32 302/34/32
f 273/35/32 272/33/32 303/32/32
f 304/32/33 273/33/33 303/34/33
f 274/35/33 273/33/33 304/32/33
f 305/32/34 274/33/34 304/34/34
f 275/35/34 274/33/34 305/32/34
f 277/32/35 275/33/35 305/34/35
f 247/35/35 275/33/35 277/32/35
f 306/1/1 307/2/1 308/3/1
f 309/4/1 307/2/1 306/1/1
f 310/5/1 307/2/1 309/4/1
f 311/6/1 307/2/1 310/5/1
f 312/7/1 307/2/1 311/6/1
f 313/8/1 307/2/1 312/7/1
f 314/9/1 307/2/1 313/8/1
f 315/10/1 307/2/1 314/9/1
f 316/11/1 307/2/1 315/10/1
f 317/12/1 307/2/1 316/11/1
f 318/13/1 307/2/1 317/12/1
f 319/14/1 307/2/1 318/13/1
f 320/15/1 307/2/1 319/14/1
f 321/16/1 307/2/1 320/15/1
f 322/17/1 307/2/1 321/16/1
f 323/18/1 307/2/1 322/17/1
f 324/19/1 307/2/1 323/18/1
f 325/20/1 307/2/1 324/19/1
f 326/21/1 307/2/1 325/20/1
f 327/22/1 307/2/1 326/21/1
f 328/23/1 307/2/1 327/22/1
f 329/24/1 307/2/1 328/23/1
f 330/25/1 307/2/1 329/24/1
f 331/26/1 307/2/1 330/25/1
f 332/27/1 307/2/1 331/26/1
f 333/28/1 307/2/1 332/27/1
f 334/29/1 307/2/1 333/28/1
f 335/30/1 307/2/1 334/29/1
f 336/31/1 307/2/1 335/30/1
f 308/3/1 307/2/1 336/31/1
f 337/32/2 308/33/2 338/34/2
f 306/35/2 308/33/2 337/32/2
f 339/32/3 306/33/3 337/34/3
f 309/35/3 306/33/3 339/32/3
f 340/32/4 309/33/4 339/34/4
f 310/35/4 309/33/4 340/32/4
f 341/32/5 310/33/5 340/34/5
f 311/35/5 310/33/5 341/32/5
f 342/32/6 311/33/6 341/34/6
f 312/35/6 311/33/6 342/32/6
f 343/32/7 312/33/7 342/34/7
f 313/35/7 312/33/7 343/32/7
f 344/32/36 313/33/36 343/34/36
f 314/35/36 313/33/36 344/32/36
f 345/32/10 314/33/10 344/34/10
f 315/35/10 314/33/10 345/32/10
f 346/32/37 315/33/37 345/34/37
f 316/35/37 315/33/37 346/32/37
f 347/32/12 316/33/12 346/34/12
f 317/35/12 316/33/12 347/32/12
f 348/32/14 317/33/14 347/34/14
f 318/35/14 317/33/14 348/32/14
f 349/32/15 318/33/15 348/34/15
f 319/35/15 318/33/15 349/32/15
f 350/32/16 319/33/16 349/34/16
f 320/35/16 319/33/16 350/32/16
f 351/32/17 320/33/17 350/34/17
f 321/35/17 320/33/17 351/32/17
f 352/32/18 321/33/18 351/34/18
f 322/35/18 321/33/18 352/32/18
f 353/32/19 322/33/19 352/34/19
f 323/35/19 322/33/19 353/32/19
f 354/32/20 323/33/20 353/34/20
f 324/35/20 323/33/20 354/32/20
f 355/32/38 324/33/38 354/34/38
f 325/35/38 324/33/38 355/32/38
f 356/32/22 325/33/22 355/34/22
f 326/35/22 325/33/22 356/32/22
f 357/32/23 326/33/23 356/34/23
f 327/35/23 326/33/23 357/32/23
f 358/32/24 327/33/24 357/34/24
f 328/35/25 327/33/24 358/32/24
f 359/32/40 328/33/40 358/34/40
f 329/35/40 328/33/40 359/32/40
f 360/32/27 329/33/27 359/34/27
f 330/35/27 329/33/27 360/32/27
f 361/32/41 330/33/41 360/34/41
f 331/35/41 330/33/41 361/32/41
f 362/32/29 331/33/29 361/34/30
f 332/35/29 331/33/29 362/32/29
f 363/32/31 332/33/31 362/34/31
f 333/35/31 332/33/31 363/32/31
f 364/32/42 333/33/42 363/34/42
f 334/35/42 333/33/42 364/32/42
f 365/32/33 334/33/33 364/34/33
f 335/35/33 334/33/33 365/32/33
f 366/32/34 335/33/34 365/34/34
f 336/35/34 335/33/34 366/32/34
f 338/32/35 336/33/35 366/34/35
f 308/35/35 336/33/35 338/32/35
f 367/1/1 368/2/1 369/3/1
f 370/4/1 368/2/1 367/1/1
f 371/5/1 368/2/1 370/4/1
f 372/6/1 368/2/1 371/5/1
f 373/7/1 368/2/1 372/6/1
f 374/8/1 368/2/1 373/7/1
f 375/9/1 368/2/1 374/8/1
f 376/10/1 368/2/1 375/9/1
f 377/11/1 368/2/1 376/10/1
f 378/12/1 368/2/1 377/11/1
f 379/13/1 368/2/1 378/12/1
f 380/14/1 368/2/1 379/13/1
f 381/15/1 368/2/1 380/14/1
f 382/16/1 368/2/1 381/15/1
f 383/17/1 368/2/1 382/16/1
f 384/18/1 368/2/1 383/17/1
f 385/19/1 368/2/1 384/18/1
f 386/20/1 368/2/1 385/19/1
f 387/21/1 368/2/1 386/20/1
f 388/22/1 368/2/1 387/21/1
f 389/23/1 368/2/1 388/22/1
f 390/24/1 368/2/1 389/23/1
f 391/25/1 368/2/1 390/24/1
f 392/26/1 368/2/1 391/25/1
f 393/27/1 368/2/1 392/26/1
f 394/28/1 368/2/1 393/27/1
f 395/29/1 368/2/1 394/28/1
f 396/30/1 368/2/1 395/29/1
f 397/31/1 368/2/1 396/30/1
f 369/3/1 368/2/1 397/31/1
f 398/32/2 369/33/2 399/34/2
f 367/35/2 369/33/2 398/32/2
f 400/32/3 367/33/3 398/34/3
f 370/35/3 367/33/3 400/32/3
f 401/32/4 370/33/4 400/34/4
f 371/35/4 370/33/4 401/32/4
f 402/32/5 371/33/5 401/34/5
f 372/35/5 371/33/5 402/32/5
f 403/32/6 372/33/6 402/34/6
f 373/35/6 372/33/6 403/32/6
f 404/32/7 373/33/7 403/34/7
f 374/35/8 373/33/7 404/32/7
f 405/32/9 374/33/9 404/34/9
f 375/35/9 374/33/9 405/32/9
f 406/32/10 375/33/10 405/34/10
f 376/35/10 375/33/10 406/32/10
f 407/32/11 376/33/11 406/34/11
f 377/35/11 376/33/11 407/32/11
f 408/32/12 377/33/12 407/34/12
f 378/35/12 377/33/12 408/32/12
f 409/32/14 378/33/14 408/34/14
f 379/35/14 378/33/14 409/32/14
f 410/32/15 379/33/15 409/34/15
f 380/35/15 379/33/15 410/32/15
f 411/32/16 380/33/16 410/34/16
f 381/35/16 380/33/16 411/32/16
f 412/32/17 381/33/17 411/34/17
f 382/35/17 381/33/17 412/32/17
f 413/32/18 382/33/18 412/34/18
f 383/35/18 382/33/18 413/32/18
f 414/32/19 383/33/19 413/34/19
f 384/35/19 383/33/19 414/32/19
f 415/32/20 384/33/20 414/34/20
f 385/35/20 384/33/20 415/32/20
f 416/32/21 385/33/21 415/34/21
f 386/35/21 385/33/21 416/32/21
f 417/32/22 386/33/22 416/34/22
f 387/35/22 386/33/22 417/32/22
f 418/32/23 387/33/23 417/34/23
f 388/35/23 387/33/23 418/32/23
f 419/32/24 388/33/24 418/34/25
f 389/35/24 388/33/24 419/32/24
f 420/32/26 389/33/26 419/34/26
f 390/35/26 389/33/26 420/32/26
f 421/32/27 390/33/27 420/34/27
f 391/35/27 390/33/27 421/32/27
f 422/32/28 391/33/28 421/34/28
f 392/35/28 391/33/28 422/32/28
f 423/32/29 392/33/29 422/34/29
f 393/35/30 392/33/29 423/32/29
f 424/32/31 393/33/31 423/34/31
f 394/35/31 393/33/31 424/32/31
f 425/32/32 394/33/32 424/34/32
f 395/35/32 394/33/32 425/32/32
f 426/32/33 395/33/33 425/34/33
f 396/35/33 395/33/33 426/32/33
f 427/32/34 396/33/34 426/34/34
f 397/35/34 396/33/34 427/32/34
f 399/32/35 397/33/35 427/34/35
f 369/35/35 397/33/35 399/32/35
f 428/1/1 429/2/1 430/3/1
f 431/4/1 429/2/1 428/1/1
f 432/5/1 429/2/1 431/4/1
f 433/6/1 429/2/1 432/5/1
f 434/7/1 429/2/1 433/6/1
f 435/8/1 429/2/1 434/7/1
f 436/9/1 429/2/1 435/8/1
f 437/10/1 429/2/1 436/9/1
f 438/11/1 429/2/1 437/10/1
f 439/12/1 429/2/1 438/11/1
f 440/13/1 429/2/1 439/12/1
f 441/14/1 429/2/1 440/13/1
f 442/15/1 429/2/1 441/14/1
f 443/16/1 429/2/1 442/15/1
f 444/17/1 429/2/1 443/16/1
f 445/18/1 429/2/1 444/17/1
f 446/19/1 429/2/1 445/18/1
f 447/20/1 429/2/1 446/19/1
f 448/21/1 429/2/1 447/20/1
f 449/22/1 429/2/1 448/21/1
f 450/23/1 429/2/1 449/22/1
f 451/24/1 429/2/1 450/23/1
f 452/25/1 429/2/1 451/24/1
f 453/26/1 429/2/1 452/25/1
f 454/27/1 429/2/1 453/26/1
f 455/28/1 429/2/1 454/27/1
f 456/29/1 429/2/1 455/28/1
f 457/30/1 429/2/1 456/29/1
f 458/31/1 429/2/1 457/30/1
f 430/3/1 429/2/1 458/31/1
f 459/32/2 430/33/2 460/34/2
f 428/35/2 430/33/2 459/32/2
f 461/32/3 428/33/3 459/34/3
f 431/35/3 428/33/3 461/32/3
f 462/32/4 431/33/4 461/34/4
f 432/35/4 431/33/4 462/32/4
f 463/32/5 432/33/5 462/34/5
f 433/35/5 432/33/5 463/32/5
f 464/32/6 433/33/6 463/34/6
f 434/35/6 433/33/6 464/32/6
f 465/32/7 434/33/7 464/34/8
f 435/35/7 434/33/7 465/32/7
f 466/32/36 435/33/36 465/34/36
f 436/35/36 435/33/36 466/32/36
f 467/32/10 436/33/10 466/34/10
f 437/35/10 436/33/10 467/32/10
f 468/32/37 437/33/37 467/34/37
f 438/35/37 437/33/37 468/32/37
f 469/32/12 438/33/12 468/34/12
f 439/35/13 438/33/12 469/32/12
f 470/32/14 439/33/14 469/34/14
f 440/35/14 439/33/14 470/32/14
f 471/32/15 440/33/15 470/34/15
f 441/35/15 440/33/15 471/32/15
f 472/32/16 441/33/16 471/34/16
f 442/35/16 441/33/16 472/32/16
f 473/32/17 442/33/17 472/34/17
f 443/35/17 442/33/17 473/32/17
f 474/32/18 443/33/18 473/34/18
f 444/35/18 443/33/18 474/32/18
f 475/32/19 444/33/19 474/34/19
f 445/35/19 444/33/19 475/32/19
f 476/32/20 445/33/20 475/34/20
f 446/35/20 445/33/20 476/32/20
f 477/32/38 446/33/38 476/34/38
f 447/35/38 446/33/38 477/32/38
f 478/32/39 447/33/39 477/34/22
f 448/35/39 447/33/39 478/32/39
f 479/32/23 448/33/23 478/34/23
f 449/35/23 448/33/23 479/32/23
f 480/32/24 449/33/24 479/34/24
f 450/35/24 449/33/24 480/32/24
f 481/32/40 450/33/40 480/34/40
f 451/35/40 450/33/40 481/32/40
f 482/32/27 451/33/27 481/34/27
f 452/35/27 451/33/27 482/32/27
f 483/32/41 452/33/41 482/34/41
f 453/35/41 452/33/41 483/32/41
f 484/32/29 453/33/29 483/34/30
f 454/35/29 453/33/29 484/32/29
f 485/32/31 454/33/31 484/34/31
f 455/35/31 454/33/31 485/32/31
f 486/32/42 455/33/42 485/34/42
f 456/35/42 455/33/42 486/32/42
f 487/32/33 456/33/33 486/34/33
f 457/35/33 456/33/33 487/32/33
f 488/32/34 457/33/34 487/34/34
f 458/35/34 457/33/34 488/32/34
f 460/32/35 458/33/35 488/34/35
f 430/35/35 458/33/35 460/32/35
f 489/36/43 490/37/43 491/38/43
f 492/39/43 491/38/43 490/37/43
f 493/36/44 494/37/44 495/38/44
f 496/39/44 495/38/44 494/37/44
f 492/40/10 490/41/10 493/42/10
f 494/43/10 493/42/10 490/41/10
f 489/36/27 491/37/27 496/38/27
f 495/39/27 496/38/27 491/37/27
f 490/36/45 489/37/45 494/38/45
f 496/39/45 494/38/45 489/37/45
f 497/44/43 498/45/43 499/46/43
f 500/47/43 499/46/43 498/45/43
f 501/44/44 502/45/44 503/46/44
f 504/47/44 503/46/44 502/45/44
f 500/44/10 498/45/10 501/46/10
f 502/47/10 501/46/10 498/45/10
f 499/44/1 500/45/1 503/46/1
f 501/47/1 503/46/1 500/45/1
f 497/44/27 499/45/27 504/46/27
f 503/47/27 504/46/27 499/45/27
f 498/36/45 497/37/45 502/38/45
f 504/39/45 502/38/45 497/37/45
f 505/44/43 506/45/43 507/46/43
f 508/47/43 507/46/43 506/45/43
f 509/44/44 510/45/44 511/46/44
f 512/47/44 511/46/44 510/45/44
f 508/44/10 506/45/10 509/46/10
f 510/47/10 509/46/10 506/45/10
f 507/44/1 508/45/1 511/46/1
f 509/47/1 511/46/1 508/45/1
f 505/48/27 507/49/27 512/50/27
f 511/51/27 512/50/27 507/49/27
f 506/44/45 505/45/45 510/46/45
f 512/47/45 510/46/45 505/45/45
f 513/52/43 514/53/43 515/54/43
f 516/55/43 515/54/43 514/53/43
f 517/44/44 518/45/44 519/46/44
f 520/47/44 519/46/44 518/45/44
f 516/44/46 514/45/46 517/46/46
f 518/47/46 517/46/46 514/45/46
f 515/44/1 516/45/1 519/46/1
f 517/47/1 519/46/1 516/45/1
f 513/44/27 515/45/27 520/46/27
f 519/47/27 520/46/27 515/45/27
f 514/44/45 513/45/45 518/46/45
f 520/47/45 518/46/45 513/45/45
f 521/44/43 522/45/43 523/46/43
f 524/47/43 523/46/43 522/45/43
f 525/56/44 526/57/44 527/58/44
f 528/59/44 527/58/44 526/57/44
f 524/44/46 522/45/46 525/46/46
f 526/47/46 525/46/46 522/45/46
f 523/44/1 524/45/1 527/46/1
f 525/47/1 527/46/1 524/45/1
f 521/44/27 523/45/27 528/46/27
f 527/47/27 528/46/27 523/45/27
f 522/44/45 521/45/45 526/46/45
f 528/47/45 526/46/45 521/45/45
f 529/44/43 530/45/43 531/46/43
f 532/47/43 531/46/43 530/45/43
f 533/44/44 534/45/44 535/46/44
f 536/47/44 535/46/44 534/45/44
f 532/44/10 530/45/10 533/46/10
f 534/47/10 533/46/10 530/45/10
f 531/44/1 532/45/1 535/46/1
f 533/47/1 535/46/1 532/45/1
f 529/48/27 531/49/27 536/50/27
f 535/51/27 536/50/27 531/49/27
f 530/44/45 529/45/45 534/46/45
f 536/47/45 534/46/45 529/45/45
f 537/56/43 538/57/43 539/58/43
f 540/59/43 539/58/43 538/57/43
f 541/44/44 542/45/44 543/46/44
f 544/47/44 543/46/44 542/45/44
f 540/44/46 538/45/47 541/46/46
f 542/47/47 541/46/46 538/45/47
f 539/44/1 540/45/1 543/46/1
f 541/47/1 543/46/1 540/45/1
f 537/44/27 539/45/27 544/46/27
f 543/47/27 544/46/27 539/45/27
f 538/44/45 537/45/45 542/46/45
f 544/47/45 542/46/45 537/45/45
f 545/44/43 546/45/43 547/46/43
f 548/47/43 547/46/43 546/45/43
f 549/56/44 550/57/44 551/58/44
f 552/59/44 551/58/44 550/57/44
f 548/44/47 546/45/47 549/46/47
f 550/47/47 549/46/47 546/45/47
f 547/44/1 548/45/1 551/46/1
f 549/47/1 551/46/1 548/45/1
f 545/44/27 547/45/27 552/46/27
f 551/47/27 552/46/27 547/45/27
f 546/44/45 545/45/45 550/46/45
f 552/47/45 550/46/45 545/45/45
f 553/60/27 554/61/27 555/62/27
f 556/63/27 555/62/27 554/61/27
f 557/64/45 558/65/45 555/66/45
f 553/67/45 555/66/45 558/65/45
f 558/68/43 559/69/43 553/70/43
f 554/71/43 553/70/43 559/69/43
f 559/72/1 560/73/1 554/74/1
f 556/75/1 554/74/1 560/73/1
f 560/64/44 557/65/44 556/66/44
f 555/67/44 556/66/44 557/65/44
f 561/76/27 562/77/27 563/78/27
f 564/79/27 563/78/27 562/77/27
f 565/80/45 566/81/45 563/82/45
f 561/83/45 563/82/45 566/81/45
f 566/80/43 567/81/43 561/82/43
f 562/83/43 561/82/43 567/81/43
f 567/84/1 568/85/1 562/86/1
f 564/87/1 562/86/1 568/85/1
f 568/88/44 565/89/44 564/90/44
f 563/91/44 564/90/44 565/89/44
f 569/92/10 570/93/10 571/94/10
f 572/95/10 571/94/10 570/93/10
f 573/96/27 574/97/27 575/98/27
f 576/99/27 575/98/27 574/97/27
f 571/96/48 572/97/48 575/98/48
f 573/99/48 575/98/48 572/97/48
f 569/96/45 571/97/45 576/98/45
f 575/99/45 576/98/45 571/97/45
f 570/96/49 569/97/50 574/98/49
f 576/99/50 574/98/49 569/97/50
f 577/96/27 578/97/27 579/98/27
f 580/99/27 579/98/27 578/97/27
f 581/92/10 582/93/10 572/94/10
f 583/95/10 572/94/10 582/93/10
f 572/96/45 583/97/45 579/98/45
f 577/99/45 579/98/45 583/97/45
f 583/100/43 582/101/43 577/102/43
f 578/103/43 577/102/43 582/101/43
f 582/92/1 581/93/1 578/94/1
f 580/95/1 578/94/1 581/93/1
f 581/92/44 572/93/44 580/94/44
f 579/95/44 580/94/44 572/93/44
f 584/96/27 585/97/27 586/98/27
f 587/99/27 586/98/27 585/97/27
f 588/92/10 589/93/10 590/94/10
f 570/95/10 590/94/10 589/93/10
f 590/96/45 570/97/45 586/98/45
f 584/99/45 586/98/45 570/97/45
f 570/92/43 589/93/43 584/94/43
f 585/95/43 584/94/43 589/93/43
f 589/92/1 588/93/1 585/94/1
f 587/95/1 585/94/1 588/93/1
f 588/104/44 590/105/44 587/106/44
f 586/107/44 587/106/44 590/105/44
f 573/92/27 591/93/27 574/94/27
f 592/95/27 574/94/27 591/93/27
f 589/92/10 581/93/10 570/94/10
f 572/95/10 570/94/10 581/93/10
f 572/92/43 581/93/43 573/94/43
f 591/95/43 573/94/43 581/93/43
f 581/92/1 589/93/1 591/94/1
f 592/95/1 591/94/1 589/93/1
f 589/92/44 570/93/44 592/94/44
f 574/95/44 592/94/44 570/93/44
f 593/108/27 594/109/27 595/110/27
f 596/111/27 595/110/27 594/109/27
f 597/111/10 598/109/10 599/110/10
f 600/108/10 599/110/10 598/109/10
f 599/110/45 600/108/45 595/110/45
f 593/108/45 595/110/45 600/108/45
f 600/108/43 598/109/43 593/108/43
f 594/109/43 593/108/43 598/109/43
f 598/109/1 597/111/1 594/109/1
f 596/111/1 594/109/1 597/111/1
f 597/111/44 599/110/44 596/111/44
f 595/110/44 596/111/44 599/110/44
f 601/112/10 602/113/10 603/114/10
f 604/115/10 603/114/10 602/113/10
f 602/113/10 605/116/10 604/115/10
f 606/117/10 604/115/10 605/116/10
f 607/118/27 608/119/27 609/120/27
f 610/121/27 609/120/27 608/119/27
f 611/122/27 612/123/27 607/118/27
f 608/119/27 607/118/27 612/123/27
f 609/124/51 610/125/51 603/126/51
f 601/127/51 603/126/51 610/125/51
f 610/128/52 608/129/52 601/130/52
f 602/131/52 601/130/52 608/129/52
f 608/129/53 612/132/53 602/131/53
f 605/133/53 602/131/53 612/132/53
f 611/132/54 607/129/54 606/133/54
f 604/131/54 606/133/54 607/129/54
f 607/129/55 609/128/55 604/131/55
f 603/130/55 604/131/55 609/128/55
f 613/134/10 614/135/10 615/136/10
f 616/137/10 615/136/10 614/135/10
f 617/138/27 618/139/27 619/140/27
f 620/141/27 619/140/27 618/139/27
f 619/134/56 620/135/56 615/136/56
f 613/137/56 615/136/56 620/135/56
f 620/138/57 618/139/57 613/140/57
f 614/141/57 613/140/57 618/139/57
f 618/138/58 617/139/58 614/140/58
f 616/141/58 614/140/58 617/139/58
f 617/142/59 619/143/59 616/144/59
f 615/145/59 616/144/59 619/143/59
f 621/134/10 622/135/10 623/136/10
f 624/137/10 623/136/10 622/135/10
f 625/138/27 626/139/27 627/140/27
f 628/141/27 627/140/27 626/139/27
f 627/134/51 628/135/51 623/136/51
f 621/137/51 623/136/51 628/135/51
f 628/142/57 626/143/57 621/144/57
f 622/145/57 621/144/57 626/143/57
f 626/138/58 625/139/58 622/140/58
f 624/141/58 622/140/58 625/139/58
f 625/138/59 627/139/59 624/140/59
f 623/141/59 624/140/59 627/139/59
f 629/134/10 630/135/10 631/136/10
f 632/137/10 631/136/10 630/135/10
f 633/138/27 634/139/27 635/140/27
f 636/141/27 635/140/27 634/139/27
f 635/134/56 636/135/56 631/136/56
f 629/137/56 631/136/56 636/135/56
f 636/138/57 634/139/60 629/140/57
f 630/141/60 629/140/57 634/139/60
f 634/138/58 633/139/58 630/140/58
f 632/141/58 630/140/58 633/139/58
f 633/142/59 635/143/61 632/144/59
f 631/145/61 632/144/59 635/143/61
f 637/134/10 638/135/10 639/136/10
f 640/137/10 639/136/10 638/135/10
f 641/138/27 642/139/27 643/140/27
f 644/141/27 643/140/27 642/139/27
f 643/134/51 644/135/51 639/136/51
f 637/137/51 639/136/51 644/135/51
f 644/142/57 642/143/60 637/144/57
f 638/145/60 637/144/57 642/143/60
f 642/138/58 641/139/58 638/140/58
f 640/141/58 638/140/58 641/139/58
f 641/138/59 643/139/61 640/140/59
f 639/141/61 640/140/59 643/139/61
f 645/146/10 646/147/10 647/148/10
f 647/148/10 646/147/10 648/149/10
f 648/149/10 646/147/10 649/150/10
f 649/150/10 646/147/10 650/151/10
f 650/151/10 646/147/10 651/152/10
f 651/152/10 646/147/10 652/153/10
f 652/153/10 646/147/10 653/154/10
f 653/154/10 646/147/10 654/155/10
f 654/155/10 646/147/10 655/156/10
f 655/156/10 646/147/10 656/157/10
f 656/157/10 646/147/10 657/158/10
f 657/158/10 646/147/10 658/159/10
f 657/145/62 658/144/62 659/143/62
f 660/142/62 659/143/62 658/144/62
f 656/145/63 657/144/63 661/143/63
f 659/142/63 661/143/63 657/144/63
f 655/145/64 656/144/64 662/143/64
f 661/142/64 662/143/64 656/144/64
f 654/145/65 655/144/65 663/143/65
f 662/142/66 663/143/65 655/144/65
f 653/145/67 654/144/67 664/143/67
f 663/142/67 664/143/67 654/144/67
f 652/145/68 653/144/68 665/143/68
f 664/142/68 665/143/68 653/144/68
f 651/145/69 652/144/69 666/143/69
f 665/142/69 666/143/69 652/144/69
f 650/145/70 651/144/70 667/143/70
f 666/142/70 667/143/70 651/144/70
f 649/145/71 650/144/71 668/143/71
f 667/142/71 668/143/71 650/144/71
f 648/145/72 649/144/72 669/143/72
f 668/142/72 669/143/72 649/144/72
f 647/145/73 648/144/73 670/143/73
f 669/142/73 670/143/73 648/144/73
f 645/145/74 647/144/74 671/143/74
f 670/142/74 671/143/74 647/144/74
f 660/160/27 672/161/27 659/162/27
f 659/162/27 672/161/27 661/163/27
f 661/163/27 672/161/27 662/164/27
f 662/164/27 672/161/27 663/165/27
f 663/165/27 672/161/27 664/166/27
f 664/166/27 672/161/27 665/167/27
f 665/167/27 672/161/27 666/168/27
f 666/168/27 672/161/27 667/169/27
f 667/169/27 672/161/27 668/170/27
f 668/170/27 672/161/27 669/171/27
f 669/171/27 672/161/27 670/172/27
f 670/172/27 672/161/27 671/173/27
f 616/174/10 673/175/10 674/176/10
f 674/176/10 673/175/10 675/177/10
f 675/177/10 673/175/10 676/178/10
f 676/178/10 673/175/10 677/179/10
f 677/179/10 673/175/10 678/180/10
f 678/180/10 673/175/10 679/181/10
f 679/181/10 673/175/10 680/182/10
f 680/182/10 673/175/10 681/183/10
f 681/183/10 673/175/10 682/184/10
f 682/184/10 673/175/10 683/185/10
f 683/185/10 673/175/10 684/186/10
f 684/186/10 673/175/10 622/187/10
f 684/145/62 622/144/62 685/143/62
f 626/142/62 685/143/62 622/144/62
f 683/145/63 684/144/63 686/143/63
f 685/142/63 686/143/63 684/144/63
f 682/145/64 683/144/64 687/143/64
f 686/142/64 687/143/64 683/144/64
f 681/145/66 682/144/65 688/143/65
f 687/142/65 688/143/65 682/144/65
f 680/145/67 681/144/67 689/143/67
f 688/142/67 689/143/67 681/144/67
f 679/145/68 680/144/68 690/143/68
f 689/142/68 690/143/68 680/144/68
f 678/145/69 679/144/69 691/143/69
f 690/142/69 691/143/69 679/144/69
f 677/145/70 678/144/70 692/143/70
f 691/142/70 692/143/70 678/144/70
f 676/145/71 677/144/71 693/143/71
f 692/142/71 693/143/71 677/144/71
f 675/145/72 676/144/72 694/143/72
f 693/142/72 694/143/72 676/144/72
f 674/145/73 675/144/73 695/143/73
f 694/142/73 695/143/73 675/144/73
f 616/145/74 674/144/74 617/143/74
f 695/142/74 617/143/74 674/144/74
f 626/160/27 696/161/27 685/162/27
f 685/162/27 696/161/27 686/163/27
f 686/163/27 696/161/27 687/164/27
f 687/164/27 696/161/27 688/165/27
f 688/165/27 696/161/27 689/166/27
f 689/166/27 696/161/27 690/167/27
f 690/167/27 696/161/27 691/168/27
f 691/168/27 696/161/27 692/169/27
f 692/169/27 696/161/27 693/170/27
f 693/170/27 696/161/27 694/171/27
f 694/171/27 696/161/27 695/172/27
f 695/172/27 696/161/27 617/173/27
f 697/188/10 698/189/10 699/190/10
f 700/191/10 699/190/10 698/189/10
f 701/188/27 702/189/27 703/190/27
f 704/191/27 703/190/27 702/189/27
f 703/192/56 704/193/56 699/194/56
f 697/195/56 699/194/56 704/193/56
f 704/142/60 702/143/60 697/144/60
f 698/145/60 697/144/60 702/143/60
f 702/188/58 701/189/58 698/190/58
f 700/191/58 698/190/58 701/189/58
f 701/142/59 703/143/59 700/144/59
f 699/145/59 700/144/59 703/143/59
f 705/196/75 706/197/75 707/198/75
f 708/199/75 707/198/75 706/197/75
f 706/196/76 709/197/76 708/198/76
f 710/199/76 708/198/76 709/197/76
f 709/196/77 711/197/77 710/198/77
f 712/199/77 710/198/77 711/197/77
f 711/196/78 705/197/78 712/198/78
f 707/199/78 712/198/78 705/197/78
f 713/200/10 714/201/10 715/202/10
f 716/203/10 715/202/10 714/201/10
f 717/200/79 718/201/79 713/202/79
f 714/203/79 713/202/79 718/201/79
f 718/200/80 719/201/80 714/202/80
f 716/203/80 714/202/80 719/201/80
f 719/200/81 720/201/81 716/202/81
f 715/203/81 716/202/81 720/201/81
f 721/196/1 722/197/1 723/198/1
f 724/199/1 723/198/1 722/197/1
f 725/196/1 726/197/1 721/198/1
f 722/199/1 721/198/1 726/197/1
f 727/196/1 728/197/1 725/198/1
f 726/199/1 725/198/1 728/197/1
f 729/196/1 730/197/1 727/198/1
f 728/199/1 727/198/1 730/197/1
f 731/196/1 732/197/1 729/198/1
f 730/199/1 729/198/1 732/197/1
f 733/196/1 734/197/1 731/198/1
f 732/199/1 731/198/1 734/197/1
f 722/196/82 735/197/82 724/198/82
f 736/199/82 724/198/82 735/197/82
f 726/196/83 737/197/83 722/198/83
f 735/199/83 722/198/83 737/197/83
f 728/196/84 738/197/84 726/198/84
f 737/199/84 726/198/84 738/197/84
f 730/196/85 739/197/85 728/198/85
f 738/199/85 728/198/85 739/197/85
f 732/196/86 740/197/86 730/198/86
f 739/199/86 730/198/86 740/197/86
f 734/196/87 741/197/87 732/198/87
f 740/199/87 732/198/87 741/197/87
f 735/196/45 742/197/45 736/198/45
f 743/199/45 736/198/45 742/197/45
f 737/196/45 744/197/45 735/198/45
f 742/199/45 735/198/45 744/197/45
f 738/196/45 745/197/45 737/198/45
f 744/199/45 737/198/45 745/197/45
f 739/196/45 746/197/45 738/198/45
f 745/199/45 738/198/45 746/197/45
f 740/196/45 747/197/45 739/198/45
f 746/199/45 739/198/45 747/197/45
f 741/196/45 748/197/45 740/198/45
f 747/199/45 740/198/45 748/197/45
f 742/196/88 721/197/88 743/198/88
f 723/199/88 743/198/88 721/197/88
f 744/196/89 725/197/89 742/198/89
f 721/199/89 742/198/89 725/197/89
f 745/196/90 727/197/90 744/198/90
f 725/199/90 744/198/90 727/197/90
f 746/196/91 729/197/91 745/198/91
f 727/199/91 745/198/91 729/197/91
f 747/196/92 731/197/92 746/198/92
f 729/199/92 746/198/92 731/197/92
f 748/196/93 733/197/93 747/198/93
f 731/199/93 747/198/93 733/197/93
f 749/196/94 750/197/94 751/198/94
f 752/199/95 751/198/94 750/197/94
f 750/196/96 753/197/96 752/198/97
f 754/199/97 752/198/97 753/197/96
f 753/196/98 755/197/98 754/198/98
f 756/199/99 754/198/98 755/197/98
f 755/196/100 749/197/100 756/198/100
f 751/199/100 756/198/100 749/197/100
f 757/202/10 758/201/10 759/200/10
f 758/201/10 757/202/10 760/203/10
f 761/202/27 762/201/27 763/200/27
f 762/201/27 761/202/27 764/203/27
f 757/202/1 764/201/1 761/200/1
f 764/201/1 757/202/1 759/203/1
f 759/202/44 762/201/44 764/200/44
f 762/201/44 759/202/44 758/203/44
f 760/202/43 761/201/43 763/200/43
f 761/201/43 760/202/43 757/203/43
