# generated by tools/objdedupe/dedupe.py -- do not hand-edit.
# Re-run the tool after touching sssr_2svet_nove.obj, sssr_3svet_nove.obj, sssr_4svet_nove.obj, sssr_5svet_nove.obj, sssr_2se_nove.obj, sssr_3ab_nove.obj, sssr_4ab_nove.obj, sssr_pr_nove.obj, sssr_vl_nove.obj.
o stoz_2_stozar
v 0.040535 0.686675 -0.000000
vt 0.351585 0.289303
vn 0.965900 -0.000000 -0.258800
v 0.035105 2.683175 -0.020268
vt 0.006724 0.319438
vn 0.866000 -0.000000 -0.500000
v 0.040535 2.683175 -0.000000
vt 0.006921 0.287348
vn 0.996000 -0.000000 -0.089000
v 0.035105 0.686675 -0.020268
vt 0.351387 0.321393
v 0.020268 2.683175 -0.035105
vt 0.006579 0.342928
vn 0.500000 -0.000000 -0.866000
v 0.020268 0.686675 -0.035105
vt 0.351243 0.344884
v 0.000000 2.683175 -0.040535
vt 0.006526 0.351526
vn -0.000000 -0.000000 -1.000000
v 0.000000 0.686675 -0.040535
vt 0.351190 0.353481
v -0.020268 2.683175 -0.035105
vn -0.500000 -0.000000 -0.866000
v -0.020268 0.686675 -0.035105
v -0.035105 2.683175 -0.020268
vn -0.866000 -0.000000 -0.500000
v -0.035105 0.686675 -0.020268
v -0.040535 2.683175 -0.000000
vn -0.996000 -0.000000 -0.088900
v -0.040535 0.686675 -0.000000
vn -0.965900 -0.000000 -0.258800
v 0.035105 3.299973 -0.020268
vt 0.351454 0.321393
v 0.040535 3.299973 -0.000000
vt 0.351651 0.289304
vn 1.000000 -0.000000 -0.000000
v 0.020268 3.299973 -0.035105
vt 0.351309 0.344884
v 0.000000 3.299973 -0.040535
vt 0.351256 0.353481
v -0.020268 3.299973 -0.035105
v -0.035105 3.299973 -0.020268
v -0.040535 3.299973 -0.000000
vn -1.000000 -0.000000 -0.000000
v -0.035105 3.299973 0.020268
vt 0.351849 0.257214
vn -0.866000 -0.000000 0.500000
v -0.035105 2.683175 0.020268
vt 0.007119 0.255259
v -0.020268 3.299973 0.035105
vt 0.351994 0.233723
vn -0.500000 -0.000000 0.866000
v -0.020268 2.683175 0.035105
vt 0.007264 0.231767
v 0.000000 3.299973 0.040535
vt 0.352047 0.225125
vn -0.000000 -0.000000 1.000000
v 0.000000 2.683175 0.040535
vt 0.007317 0.223169
v 0.020268 3.299973 0.035105
vn 0.500000 -0.000000 0.866000
v 0.020268 2.683175 0.035105
v 0.035105 3.299973 0.020268
vn 0.866000 -0.000000 0.500000
v 0.035105 2.683175 0.020268
v 0.000000 3.299973 -0.000000
vn -0.000000 1.000000 -0.000000
f 1/1/1 2/2/2 3/3/3
f 1/1/1 4/4/2 2/2/2
f 4/4/2 5/5/4 2/2/2
f 4/4/2 6/6/4 5/5/4
f 6/6/4 7/7/5 5/5/4
f 6/6/4 8/8/5 7/7/5
f 8/8/5 9/5/6 7/7/5
f 8/8/5 10/6/6 9/5/6
f 10/6/6 11/2/7 9/5/6
f 10/6/6 12/4/7 11/2/7
f 12/4/7 13/3/8 11/2/7
f 12/4/7 14/1/9 13/3/8
f 3/3/3 15/9/2 16/10/10
f 3/3/3 2/2/2 15/9/2
f 2/2/2 17/11/4 15/9/2
f 2/2/2 5/5/4 17/11/4
f 5/5/4 18/12/5 17/11/4
f 5/5/4 7/7/5 18/12/5
f 7/7/5 19/11/6 18/12/5
f 7/7/5 9/5/6 19/11/6
f 9/5/6 20/9/7 19/11/6
f 9/5/6 11/2/7 20/9/7
f 11/2/7 21/10/11 20/9/7
f 11/2/7 13/3/8 21/10/11
f 13/3/8 22/13/12 21/10/11
f 13/3/8 23/14/12 22/13/12
f 23/14/12 24/15/13 22/13/12
f 23/14/12 25/16/13 24/15/13
f 25/16/13 26/17/14 24/15/13
f 25/16/13 27/18/14 26/17/14
f 27/18/14 28/15/15 26/17/14
f 27/18/14 29/16/15 28/15/15
f 29/16/15 30/13/16 28/15/15
f 29/16/15 31/14/16 30/13/16
f 31/14/16 16/10/10 30/13/16
f 31/14/16 3/3/3 16/10/10
f 32/10/17 16/10/17 15/9/17
f 32/10/17 15/9/17 17/11/17
f 32/10/17 17/11/17 18/12/17
f 32/10/17 18/12/17 19/11/17
f 32/10/17 19/11/17 20/9/17
f 32/10/17 20/9/17 21/10/17
f 32/10/17 21/10/17 22/13/17
f 32/10/17 22/13/17 24/15/17
f 32/10/17 24/15/17 26/17/17
f 32/10/17 26/17/17 28/15/17
f 32/10/17 28/15/17 30/13/17
f 32/10/17 30/13/17 16/10/17
