# generated by tools/objdedupe/dedupe.py -- do not hand-edit.
# Re-run the tool after touching sssr_2svet_nove.obj, sssr_3svet_nove.obj, sssr_4svet_nove.obj, sssr_5svet_nove.obj, sssr_2se_nove.obj, sssr_3ab_nove.obj, sssr_4ab_nove.obj, sssr_pr_nove.obj, sssr_vl_nove.obj.
o stoz_4ab
v -0.090750 1.156794 -0.325079
vt 0.794796 0.496512
vn -0.000000 0.994300 0.106300
v -0.084700 1.156794 -0.325079
vt 0.932231 0.496512
v -0.084700 1.160009 -0.355158
vt 0.932231 0.006378
v -0.090750 1.160009 -0.355158
vt 0.794796 0.006378
vn -0.000000 0.106300 -0.994300
v -0.085565 -0.000000 -0.479127
vt 0.912580 0.076458
vt 0.996710 0.496678
vn -1.000000 -0.000000 -0.000000
v -0.090750 -0.000000 -0.474767
vt 0.989432 0.071612
vt 0.937772 0.495768
vn -0.000000 -0.106300 0.994300
v -0.089871 -0.000000 -0.448705
vt 0.912254 0.077623
v -0.084700 -0.000000 -0.479127
vt 0.831272 0.600895
vn -0.000000 0.904300 -0.426900
v -0.090750 -0.000000 -0.479127
vn -0.422400 0.906400 -0.000000
v -0.090750 -0.000000 -0.448705
vn -0.000000 0.885300 0.465000
vn 1.000000 -0.000000 -0.000000
v -0.084700 -0.000000 -0.448705
vt 0.932231 0.077623
vn 0.729900 0.683600 -0.000000
v -0.084700 -0.000000 -0.453117
vt 0.912301 0.077454
vn -0.000000 -0.000000 -0.000000
v 0.084700 1.156794 -0.325079
v 0.090750 1.156794 -0.325079
v 0.090750 1.160009 -0.355158
v 0.084700 1.160009 -0.355158
v 0.089885 -0.000000 -0.479127
vn -0.000000 0.885400 0.464900
v 0.084700 -0.000000 -0.474767
vt 0.912534 0.076625
v 0.084700 -0.000000 -0.479127
v 0.090750 -0.000000 -0.479127
v 0.090750 -0.000000 -0.448705
v 0.085579 -0.000000 -0.448705
vt 0.997924 0.499013
vt 0.937579 0.077040
v 0.090750 -0.000000 -0.453117
vt 0.946330 0.076870
v 0.084700 -0.000000 -0.448705
v 0.060500 1.928136 -0.002945
vn -0.000000 -1.000000 -0.000000
v 0.060500 1.928136 0.003105
v -0.060500 1.928136 0.003105
v -0.060500 1.928136 -0.002945
v 0.060500 1.958386 -0.002945
vn -0.000000 1.000000 -0.000000
v -0.060500 1.958386 -0.002945
v -0.060500 1.958386 0.003105
v 0.060500 1.958386 0.003105
vn -0.000000 -0.000000 -1.000000
vn -0.000000 -0.000000 1.000000
v -0.090613 1.928136 -0.264753
v -0.084609 1.928136 -0.265491
v -0.052167 1.928136 -0.001275
v -0.058172 1.928136 -0.000538
v -0.090613 1.958386 -0.264753
v -0.058172 1.958386 -0.000538
v -0.052167 1.958386 -0.001275
v -0.084609 1.958386 -0.265491
vn -0.992500 -0.000000 0.121900
vn 0.992500 -0.000000 -0.121900
v 0.084609 1.928136 -0.265491
v 0.090613 1.928136 -0.264754
v 0.058171 1.928136 -0.000538
v 0.052167 1.928136 -0.001275
v 0.084609 1.958386 -0.265491
v 0.052167 1.958386 -0.001275
v 0.058171 1.958386 -0.000538
v 0.090613 1.958386 -0.264754
vn -0.992500 -0.000000 -0.121900
vn 0.992500 -0.000000 0.121900
v -0.084700 1.159879 -0.355153
vn -0.000000 -0.994300 -0.106300
v -0.084700 1.156664 -0.325074
v -0.090750 1.156664 -0.325074
v -0.090750 1.159879 -0.355153
v -0.084700 3.833874 -0.069385
v -0.090750 3.833874 -0.069385
v -0.090750 3.833873 -0.039306
v -0.084700 3.833873 -0.039306
vn -0.000000 -0.106100 0.994400
v 0.090750 1.159879 -0.355153
v 0.090750 1.156664 -0.325074
v 0.084700 1.156664 -0.325074
v 0.084700 1.159879 -0.355153
v 0.090750 3.833874 -0.069385
v 0.084700 3.833874 -0.069385
v 0.084700 3.833873 -0.039306
v 0.090750 3.833873 -0.039306
v -0.047190 3.803622 0.000080
vn -0.965900 -0.000000 0.258800
v -0.040868 3.803622 0.023675
v -0.040868 3.833872 0.023675
v -0.047190 3.833872 0.000080
vn -0.707100 -0.000000 0.707100
v -0.023595 3.803622 0.040948
v -0.023595 3.833872 0.040948
vn -0.258800 -0.000000 0.965900
v 0.000000 3.803622 0.047270
v 0.000000 3.833872 0.047270
vn 0.258800 -0.000000 0.965900
v 0.023595 3.803622 0.040948
v 0.023595 3.833872 0.040948
vn 0.707100 -0.000000 0.707100
v 0.040868 3.803622 0.023675
v 0.040868 3.833872 0.023675
vn 0.965900 -0.000000 0.258800
v 0.047190 3.803622 0.000080
v 0.047190 3.833872 0.000080
vn 0.965900 -0.000000 -0.258800
v 0.040868 3.803622 -0.023515
v 0.040868 3.833874 -0.023515
vn 0.707100 -0.000000 -0.707100
v 0.023595 3.803622 -0.040788
v 0.023595 3.833872 -0.040788
vn 0.258800 -0.000000 -0.965900
v 0.000000 3.803622 -0.047110
v 0.000000 3.833872 -0.047110
vn -0.258800 -0.000000 -0.965900
v -0.023595 3.803622 -0.040788
v -0.023595 3.833872 -0.040788
vn -0.707100 -0.000000 -0.707100
v -0.040868 3.803622 -0.023515
v -0.040868 3.833874 -0.023515
vn -0.965900 -0.000000 -0.258800
vt 0.851199 0.347574
vt 0.883485 0.347574
vt 0.911446 0.354846
vt 0.927588 0.367440
vt 0.927588 0.381982
vt 0.911446 0.394576
vt 0.883485 0.401847
vt 0.851199 0.401847
vt 0.823239 0.394576
vt 0.807096 0.381982
vt 0.807096 0.367440
vt 0.823239 0.354846
vn 0.000200 1.000000 -0.000000
vn -0.000000 1.000000 -0.000100
vn -0.000200 1.000000 -0.000000
v -0.047190 1.928136 0.000080
v -0.040868 1.928136 0.023675
v -0.040868 1.958386 0.023675
v -0.047190 1.958386 0.000080
v -0.023595 1.928136 0.040948
v -0.023595 1.958386 0.040948
v 0.000000 1.928136 0.047270
v 0.000000 1.958386 0.047270
v 0.023595 1.928136 0.040948
v 0.023595 1.958386 0.040948
v 0.040868 1.928136 0.023675
v 0.040868 1.958386 0.023675
v 0.047190 1.928136 0.000080
v 0.047190 1.958386 0.000080
v 0.040868 1.928136 -0.023515
v 0.040868 1.958386 -0.023515
v 0.023595 1.928136 -0.040788
v 0.023595 1.958386 -0.040788
v 0.000000 1.928136 -0.047110
v 0.000000 1.958386 -0.047110
v -0.023595 1.928136 -0.040788
v -0.023595 1.958386 -0.040788
v -0.040868 1.928136 -0.023515
v -0.040868 1.958386 -0.023515
v -0.080189 3.803635 -0.028568
vt 0.923801 0.398062
v -0.085639 3.803635 -0.025943
vt 0.804259 0.398062
v -0.090706 3.803635 -0.048145
vt 0.804259 0.291566
v -0.084656 3.803635 -0.048145
vt 0.923801 0.304157
v -0.067669 3.803635 -0.012868
v -0.071441 3.803635 -0.008138
vn -0.000000 -1.000000 -0.000100
v -0.049577 3.803635 -0.004156
v -0.050923 3.803635 0.001742
v 0.049577 3.803635 -0.004156
v 0.050923 3.803635 0.001742
vn -0.000000 -1.000000 0.000100
vt 0.923801 0.294381
v 0.067669 3.803635 -0.012868
v 0.071441 3.803635 -0.008138
v 0.080189 3.803635 -0.028568
v 0.085639 3.803635 -0.025943
v 0.084656 3.803635 -0.048145
v 0.090706 3.803635 -0.048145
v -0.080189 3.833885 -0.028568
v -0.084656 3.833885 -0.048145
vt 0.818392 0.398062
v -0.090706 3.833885 -0.048145
v -0.085639 3.833885 -0.025943
vt 0.923801 0.291566
v -0.067669 3.833885 -0.012868
vn -0.000000 1.000000 0.000100
v -0.071441 3.833885 -0.008138
v -0.049577 3.833885 -0.004156
v -0.050923 3.833885 0.001742
v 0.049577 3.833885 -0.004156
vt 0.807418 0.398062
v 0.050923 3.833885 0.001742
v 0.067669 3.833885 -0.012868
v 0.071441 3.833885 -0.008138
v 0.080189 3.833885 -0.028568
v 0.085639 3.833885 -0.025943
v 0.084656 3.833885 -0.048145
v 0.090706 3.833885 -0.048145
vn -0.974900 -0.000000 0.222500
vn -0.781900 -0.000000 0.623500
vn -0.781800 -0.000000 0.623500
vn -0.433900 -0.000000 0.901000
vn -0.433800 -0.000000 0.901000
vn 0.433900 -0.000000 0.901000
vn 0.433800 -0.000000 0.901000
vn 0.781900 -0.000000 0.623500
vn 0.781800 -0.000000 0.623500
vn 0.974900 -0.000000 0.222500
vn -0.974900 -0.000000 -0.222500
vn -0.781800 -0.000000 -0.623500
vn -0.433900 -0.000000 -0.901000
vn 0.433900 -0.000000 -0.901000
vn 0.781800 -0.000000 -0.623500
vn 0.974900 -0.000000 -0.222500
v 0.087725 0.272606 -0.438041
v 0.087725 0.271963 -0.432025
v -0.087725 0.271963 -0.432025
v -0.087725 0.272606 -0.438041
v 0.087725 0.284637 -0.436755
v -0.087725 0.284637 -0.436755
v -0.087725 0.283994 -0.430739
v 0.087725 0.283994 -0.430739
v 0.087725 0.484356 -0.415293
v 0.087725 0.483713 -0.409277
v -0.087725 0.483713 -0.409277
v -0.087725 0.484356 -0.415293
v 0.087725 0.496387 -0.414007
v -0.087725 0.496387 -0.414007
v -0.087725 0.495744 -0.407991
v 0.087725 0.495744 -0.407991
v 0.087725 0.696106 -0.392545
v 0.087725 0.695463 -0.386529
v -0.087725 0.695463 -0.386529
v -0.087725 0.696106 -0.392545
v 0.087725 0.708137 -0.391259
v -0.087725 0.708137 -0.391259
v -0.087725 0.707494 -0.385243
v 0.087725 0.707494 -0.385243
v 0.087725 0.907856 -0.369797
v 0.087725 0.907213 -0.363781
v -0.087725 0.907213 -0.363781
v -0.087725 0.907856 -0.369797
v 0.087725 0.919887 -0.368511
v -0.087725 0.919887 -0.368511
v -0.087725 0.919244 -0.362495
v 0.087725 0.919244 -0.362495
v 0.087725 1.119606 -0.347049
v 0.087725 1.118963 -0.341033
v -0.087725 1.118963 -0.341033
v -0.087725 1.119606 -0.347049
v 0.087725 1.131637 -0.345763
v -0.087725 1.131637 -0.345763
v -0.087725 1.130994 -0.339747
v 0.087725 1.130994 -0.339747
v 0.087725 1.331356 -0.324301
v 0.087725 1.330713 -0.318285
v -0.087725 1.330713 -0.318285
v -0.087725 1.331356 -0.324301
v 0.087725 1.343387 -0.323015
v -0.087725 1.343387 -0.323015
v -0.087725 1.342744 -0.316999
v 0.087725 1.342744 -0.316999
v 0.087725 1.543106 -0.301553
v 0.087725 1.542463 -0.295537
v -0.087725 1.542463 -0.295537
v -0.087725 1.543106 -0.301553
v 0.087725 1.555137 -0.300267
vn -0.000000 0.994300 0.106200
v -0.087725 1.555137 -0.300267
v -0.087725 1.554494 -0.294251
v 0.087725 1.554494 -0.294251
v 0.087725 1.754856 -0.278805
v 0.087725 1.754213 -0.272789
v -0.087725 1.754213 -0.272789
v -0.087725 1.754856 -0.278805
v 0.087725 1.766887 -0.277519
v -0.087725 1.766887 -0.277519
v -0.087725 1.766244 -0.271503
v 0.087725 1.766244 -0.271503
v 0.087725 1.966606 -0.256057
v 0.087725 1.965963 -0.250041
v -0.087725 1.965963 -0.250041
vn -0.000000 -0.994300 -0.106200
v -0.087725 1.966606 -0.256057
v 0.087725 1.978637 -0.254771
v -0.087725 1.978637 -0.254771
v -0.087725 1.977994 -0.248755
v 0.087725 1.977994 -0.248755
v 0.087725 2.178355 -0.233309
vn -0.000000 -0.994400 -0.106100
v 0.087725 2.177713 -0.227293
v -0.087725 2.177713 -0.227293
v -0.087725 2.178355 -0.233309
v 0.087725 2.190387 -0.232023
v -0.087725 2.190387 -0.232023
v -0.087725 2.189744 -0.226007
v 0.087725 2.189744 -0.226007
v 0.087725 2.390105 -0.210561
v 0.087725 2.389463 -0.204545
v -0.087725 2.389463 -0.204545
v -0.087725 2.390105 -0.210561
v 0.087725 2.402137 -0.209275
vn -0.000000 0.994400 0.106100
v -0.087725 2.402137 -0.209275
v -0.087725 2.401495 -0.203259
v 0.087725 2.401495 -0.203259
v 0.087725 2.601855 -0.187813
v 0.087725 2.601212 -0.181797
v -0.087725 2.601212 -0.181797
v -0.087725 2.601855 -0.187813
v 0.087725 2.613886 -0.186527
v -0.087725 2.613886 -0.186527
v -0.087725 2.613244 -0.180511
v 0.087725 2.613244 -0.180511
v 0.087725 2.813605 -0.165065
v 0.087725 2.812962 -0.159049
v -0.087725 2.812962 -0.159049
v -0.087725 2.813605 -0.165065
v 0.087725 2.825637 -0.163779
v -0.087725 2.825637 -0.163779
v -0.087725 2.824994 -0.157763
v 0.087725 2.824994 -0.157763
v 0.087725 3.025355 -0.142317
vn -0.000000 -0.994400 -0.106000
v 0.087725 3.024713 -0.136301
v -0.087725 3.024713 -0.136301
v -0.087725 3.025355 -0.142317
v 0.087725 3.037387 -0.141031
v -0.087725 3.037387 -0.141031
v -0.087725 3.036744 -0.135015
v 0.087725 3.036744 -0.135015
v 0.087725 3.237105 -0.119569
v 0.087725 3.236462 -0.113553
v -0.087725 3.236462 -0.113553
v -0.087725 3.237105 -0.119569
v 0.087725 3.249137 -0.118283
vn -0.000000 0.994300 0.106500
v -0.087725 3.249137 -0.118283
v -0.087725 3.248493 -0.112267
v 0.087725 3.248493 -0.112267
v 0.087725 3.448855 -0.096821
v 0.087725 3.448213 -0.090805
v -0.087725 3.448213 -0.090805
v -0.087725 3.448855 -0.096821
v 0.087725 3.460887 -0.095535
v -0.087725 3.460887 -0.095535
v -0.087725 3.460244 -0.089519
v 0.087725 3.460244 -0.089519
v 0.087725 3.660605 -0.074073
v 0.087725 3.659962 -0.068057
v -0.087725 3.659962 -0.068057
v -0.087725 3.660605 -0.074073
v 0.087725 3.672637 -0.072787
v -0.087725 3.672637 -0.072787
v -0.087725 3.671993 -0.066771
v 0.087725 3.671993 -0.066771
vt 0.794796 0.076458
vn -0.000000 0.743700 -0.668500
vt 0.939025 0.073208
vn -0.729900 0.683600 -0.000000
vt 0.794796 0.077623
vn 0.681800 0.731500 -0.000000
vn -0.000000 0.668500 0.743700
vt 0.997924 0.075867
vn -0.422600 0.906300 -0.000000
vn 1.000000 0.000100 -0.000000
v 0.027225 0.026923 0.047155
vt 0.653577 0.888904
v 0.000000 0.026923 0.054450
vt 0.602270 0.888904
v -0.027225 0.026923 0.047155
vt 0.591296 0.888904
v -0.047155 0.026923 0.027225
vt 0.623596 0.888904
v -0.054450 0.026923 -0.000000
vt 0.690515 0.888904
v -0.047155 0.026923 -0.027225
vt 0.774121 0.888904
v -0.027225 0.026923 -0.047155
vt 0.852013 0.888904
v 0.000000 0.026923 -0.054450
vt 0.903320 0.888904
v 0.027225 0.026923 -0.047155
vt 0.914294 0.888904
v 0.047155 0.026923 -0.027225
vt 0.881994 0.888904
v 0.054450 0.026923 -0.000000
vt 0.849694 0.888904
v 0.047155 0.026923 0.027225
vt 0.731470 0.888904
vt 0.611143 0.635628
vt 0.611147 0.629700
v 0.047155 0.296450 -0.027225
vt 0.897085 0.629899
v 0.054450 0.296450 -0.000000
vt 0.897081 0.635827
vt 0.680281 0.663546
vt 0.666687 0.677141
v 0.027225 0.296450 -0.047155
vt 0.611102 0.694907
vt 0.611106 0.688979
v 0.000000 0.296450 -0.054450
vt 0.897044 0.689179
vn 0.000100 -0.000000 -1.000000
vt 0.897040 0.695107
vt 0.611110 0.683051
vn -0.500000 -0.000000 -0.866000
v -0.027225 0.296450 -0.047155
vt 0.897048 0.683251
vn -0.000100 -0.000000 -1.000000
vt 0.611114 0.677123
vn -0.866000 -0.000000 -0.500000
v -0.047155 0.296450 -0.027225
vt 0.897052 0.677323
vt 0.611118 0.671195
v -0.054450 0.296450 -0.000000
vt 0.897056 0.671395
vt 0.611122 0.665268
vn -0.866000 -0.000000 0.500000
v -0.047155 0.296450 0.027225
vt 0.897060 0.665467
vt 0.611127 0.659340
vn -0.500000 -0.000000 0.866000
v -0.027225 0.296450 0.047155
vt 0.897064 0.659539
vt 0.611131 0.653412
v 0.000000 0.296450 0.054450
vt 0.897069 0.653611
vt 0.611135 0.647484
vn 0.500000 -0.000000 0.866000
v 0.027225 0.296450 0.047155
vt 0.897073 0.647683
vt 0.611139 0.641556
vn 0.866000 -0.000000 0.500000
v 0.047155 0.296450 0.027225
vt 0.897077 0.641755
vt 0.685257 0.644976
vt 0.648116 0.682117
vt 0.629546 0.677141
vt 0.615951 0.663546
vt 0.610975 0.644976
vt 0.615951 0.626406
vt 0.629546 0.612811
vt 0.648116 0.607835
vt 0.666687 0.612811
vt 0.680281 0.626406
vt 0.837662 0.668419
v 0.066550 0.296450 -0.009075
vt 0.857385 0.682671
v 0.052019 0.296450 -0.009075
vt 0.834010 0.683087
v -0.090750 0.048400 0.009075
vt 0.897069 0.652433
vn -0.763800 0.645500 -0.000000
v -0.090750 0.048400 -0.009075
vt 0.897063 0.660854
v -0.108900 0.026923 -0.009075
vt 0.612880 0.660656
v -0.108900 0.026923 0.009075
vt 0.612886 0.652235
v -0.066550 0.296450 0.009075
vn -0.995300 0.097100 -0.000000
v -0.066550 0.296450 -0.009075
vt 0.639764 0.614479
vt 0.607888 0.613395
v -0.052019 0.026923 0.009075
vt 0.607881 0.623380
v -0.052019 0.048400 0.009075
vt 0.639757 0.623402
v -0.052019 0.296450 0.009075
vt 0.894121 0.623580
vt 0.894127 0.614736
v 0.090750 0.048400 -0.009075
vn 0.763800 0.645500 -0.000000
v 0.090750 0.048400 0.009075
v 0.108900 0.026923 0.009075
v 0.108900 0.026923 -0.009075
vn 0.995300 0.097100 -0.000000
v 0.066550 0.296450 0.009075
vt 0.639702 0.703011
vt 0.607825 0.704050
v 0.052019 0.026923 -0.009075
vt 0.607832 0.694065
v 0.052019 0.048400 -0.009075
vt 0.639708 0.694087
vt 0.894071 0.694264
vt 0.894065 0.703108
vt 0.678774 0.672417
v -0.015125 0.296450 -0.066550
vt 0.663700 0.654247
v -0.015125 0.296450 -0.050397
vt 0.683385 0.653897
v 0.015125 0.045073 0.066550
vn -0.000000 0.554700 0.832100
v -0.015125 0.045073 0.066550
v -0.015125 0.026923 0.078650
v 0.015125 0.026923 0.078650
v 0.015125 0.296450 0.066550
v -0.015125 0.296450 0.066550
v 0.015125 0.026923 -0.050397
vt 0.612268 0.693504
v 0.015125 0.026923 -0.078650
vt 0.612261 0.702950
v 0.015125 0.045073 -0.066550
vt 0.638361 0.702671
v 0.015125 0.045073 -0.050397
vt 0.638367 0.693522
v 0.015125 0.296450 -0.050397
vt 0.896752 0.693702
v 0.015125 0.296450 -0.066550
vt 0.896746 0.702851
v -0.015125 0.045073 -0.066550
vn -0.000000 0.554700 -0.832100
v -0.015125 0.026923 -0.078650
v -0.015125 0.026923 -0.050397
v -0.015125 0.045073 -0.050397
vt 0.896753 0.693702
vt 0.896747 0.702851
v 0.052019 0.048400 0.009075
v 0.052019 0.026923 0.009075
v -0.052019 0.048400 -0.009075
v -0.052019 0.026923 -0.009075
v 0.015125 0.026923 0.050397
vt 0.612317 0.623230
v 0.015125 0.045073 0.050397
vt 0.638416 0.623249
vt 0.638423 0.614100
vt 0.612324 0.613783
v -0.015125 0.045073 0.050397
v -0.015125 0.026923 0.050397
vt 0.642760 0.657287
vt 0.666137 0.656871
v -0.052305 0.296450 0.008007
vt 0.665707 0.658598
vt 0.662485 0.671538
v -0.052019 0.296450 -0.009075
vt 0.896808 0.614280
v 0.015125 0.296450 0.050397
vt 0.896801 0.623429
vt 0.826558 0.688223
vt 0.806873 0.688573
vt 0.811484 0.670053
v -0.015125 0.296450 0.050397
vt 0.896802 0.623429
v 0.052019 0.296450 0.009075
vt 0.833490 0.653891
vt 0.856866 0.653474
vt 0.684041 0.690761
vt 0.664356 0.691111
vt 0.643280 0.686484
vt 0.666657 0.686067
v -0.013171 0.296450 0.050921
vt 0.806896 0.654079
vt 0.806216 0.651709
vt 0.825901 0.651358
v -0.072600 0.043560 0.040541
vt 0.858893 0.696207
vn -0.000000 -0.866000 -0.500000
v -0.048400 0.043560 0.040541
vt 0.858523 0.667918
v -0.048400 0.039023 0.048400
vt 0.826485 0.668405
v -0.072600 0.039023 0.048400
vt 0.826855 0.696694
vt 0.666295 0.670845
vt 0.666665 0.699135
v -0.072600 0.052635 0.040541
vt 0.698703 0.698646
vn -0.000000 0.500000 -0.866000
v -0.048400 0.052635 0.040541
vt 0.698333 0.670357
v -0.072600 0.057173 0.048400
vt 0.730741 0.698159
v -0.048400 0.057173 0.048400
vt 0.730371 0.669869
v -0.072600 0.052635 0.056259
vt 0.762779 0.697670
vn -0.000000 0.500000 0.866000
v -0.048400 0.052635 0.056259
vt 0.762409 0.669381
v -0.072600 0.043560 0.056259
vt 0.794817 0.697183
vn -0.000000 -0.500000 0.866000
v -0.048400 0.043560 0.056259
vt 0.794447 0.668894
vt 0.748667 0.902785
vt 0.740684 0.917324
vt 0.748667 0.931862
vt 0.764633 0.931862
vt 0.772616 0.917324
vt 0.764633 0.902785
v 0.072600 0.043560 0.040541
v 0.072600 0.052635 0.040541
v 0.072600 0.057173 0.048400
v 0.072600 0.052635 0.056259
v 0.072600 0.043560 0.056259
v 0.072600 0.039023 0.048400
vt 0.826767 0.696749
vt 0.794729 0.697237
v 0.048400 0.043560 0.056259
vt 0.794359 0.668948
v 0.048400 0.039023 0.048400
vt 0.826397 0.668460
v 0.048400 0.043560 0.040541
vt 0.858435 0.667972
vt 0.858805 0.696261
vt 0.698615 0.698701
vt 0.666577 0.699189
vt 0.666207 0.670900
v 0.048400 0.052635 0.040541
vt 0.698245 0.670412
v 0.048400 0.057173 0.048400
vt 0.730283 0.669924
vt 0.730653 0.698213
vt 0.762691 0.697725
v 0.048400 0.052635 0.056259
vt 0.762321 0.669436
v -0.027225 0.030352 0.047155
vt 0.790962 0.565597
vn -0.000000 -0.951100 -0.308700
v -0.022579 0.029948 0.048400
vt 0.790018 0.565460
vn -0.000000 -0.965900 0.259000
v -0.048400 0.029948 0.048400
vt 0.795263 0.565460
v -0.048400 0.033414 0.037731
vt 0.795263 0.566631
vn -0.000000 -0.809000 -0.587800
v -0.036648 0.033414 0.037731
vt 0.792876 0.566631
vn -0.000000 -0.875500 -0.483300
v -0.048400 0.042489 0.031138
vt 0.795263 0.567803
vn -0.000000 -0.309000 -0.951100
v -0.043242 0.042489 0.031138
vt 0.794215 0.567803
vn -0.000000 -0.353300 -0.935500
v -0.048400 0.053706 0.031138
vt 0.795263 0.568974
v -0.043242 0.053706 0.031138
vt 0.794215 0.568974
vt 0.794215 0.557261
vn -0.000000 0.587800 -0.809000
vt 0.795263 0.557261
v -0.048400 0.062781 0.037731
vt 0.795263 0.558432
vn -0.000000 0.809000 -0.587800
v -0.036648 0.062781 0.037731
vt 0.792876 0.558432
vn -0.000000 0.875400 -0.483300
v -0.048400 0.066248 0.048400
vt 0.795263 0.559604
v -0.022579 0.066248 0.048400
vt 0.790018 0.559604
vn -0.000000 0.965900 0.258900
v -0.027225 0.065843 0.047155
vt 0.790962 0.559467
vn -0.000000 0.951000 -0.309300
v -0.048400 0.062781 0.059069
vt 0.795263 0.560775
vn -0.000000 0.809000 0.587800
v -0.015125 0.062781 0.059069
vt 0.788503 0.560775
v -0.015125 0.063813 0.055894
vt 0.788503 0.560426
vn -0.000000 0.951100 0.309000
v -0.015125 0.065598 0.050397
vt 0.788503 0.559823
vn 0.000100 0.951100 0.308800
v 0.048400 0.053706 0.065662
vt 0.775598 0.561946
vn -0.000000 0.309000 0.951100
v 0.048400 0.062781 0.059069
vt 0.775598 0.560775
v 0.015125 0.062781 0.059069
vt 0.782358 0.560775
v 0.015125 0.053706 0.065662
vt 0.782358 0.561946
v 0.015125 0.042489 0.065662
vt 0.782358 0.563118
vn -0.000000 -0.309000 0.951000
v 0.048400 0.042489 0.065662
vt 0.775598 0.563118
vn -0.000000 -0.309000 0.951100
v 0.015125 0.033414 0.059069
vt 0.782358 0.564289
vn -0.000000 -0.809000 0.587800
v 0.048400 0.033414 0.059069
vt 0.775598 0.564289
v 0.015125 0.042350 0.065561
vt 0.782358 0.563136
vn -0.000000 -0.587800 0.809000
v -0.015125 0.032382 0.055893
vt 0.788503 0.564637
vn -0.000000 -0.951100 0.309000
v -0.015125 0.033414 0.059069
vt 0.788503 0.564289
v -0.048400 0.033414 0.059069
vt 0.795263 0.564289
v -0.015125 0.030597 0.050397
vt 0.788503 0.565241
vn -0.000000 -0.951100 0.308900
v -0.048400 0.042489 0.065662
vt 0.717613 0.562566
v -0.048400 0.053706 0.065662
vt 0.711523 0.562566
vt 0.706596 0.566330
vt 0.704714 0.572420
vt 0.706596 0.578511
vt 0.711523 0.582275
vt 0.717613 0.582275
vt 0.722541 0.578511
vt 0.724423 0.572420
vt 0.722541 0.566330
v 0.048400 0.033414 0.037731
v 0.048400 0.042489 0.031138
v 0.048400 0.053706 0.031138
v 0.048400 0.062781 0.037731
v 0.048400 0.066248 0.048400
v 0.048400 0.029948 0.048400
v -0.072600 0.273460 0.040541
vt 0.801904 0.568179
v -0.048400 0.273460 0.040541
vt 0.801847 0.556782
v -0.048400 0.268923 0.048400
vt 0.796933 0.556979
v -0.072600 0.268923 0.048400
vt 0.796989 0.568375
vt 0.772362 0.557962
vt 0.772419 0.569358
v -0.072600 0.282535 0.040541
vt 0.777333 0.569161
v -0.048400 0.282535 0.040541
vt 0.777277 0.557765
v -0.072600 0.287073 0.048400
vt 0.782247 0.568965
v -0.048400 0.287073 0.048400
vt 0.782191 0.557568
v -0.072600 0.282535 0.056259
vt 0.787161 0.568768
v -0.048400 0.282535 0.056259
vt 0.787105 0.557372
v -0.072600 0.273460 0.056259
vt 0.792075 0.568572
v -0.048400 0.273460 0.056259
vt 0.792019 0.557176
v 0.072600 0.273460 0.040541
v 0.072600 0.282535 0.040541
v 0.072600 0.287073 0.048400
v 0.072600 0.282535 0.056259
v 0.072600 0.273460 0.056259
v 0.072600 0.268923 0.048400
vt 0.796976 0.568397
vt 0.792062 0.568594
v 0.048400 0.273460 0.056259
vt 0.792005 0.557197
v 0.048400 0.268923 0.048400
vt 0.796919 0.557001
v 0.048400 0.273460 0.040541
vt 0.801833 0.556804
vt 0.801890 0.568200
vt 0.777320 0.569183
vt 0.772406 0.569380
vt 0.772349 0.557984
v 0.048400 0.282535 0.040541
vt 0.777263 0.557787
v 0.048400 0.287073 0.048400
vt 0.782177 0.557591
vt 0.782234 0.568987
vt 0.787148 0.568790
v 0.048400 0.282535 0.056259
vt 0.787091 0.557394
v -0.027225 0.260252 0.047155
vn -0.000000 -0.951100 -0.309000
v -0.022579 0.259847 0.048400
vn 0.000100 -0.965800 0.259100
v -0.048400 0.259847 0.048400
v -0.048400 0.263314 0.037731
v -0.036648 0.263314 0.037731
vn -0.000000 -0.875400 -0.483300
v -0.048400 0.272389 0.031138
v -0.043242 0.272389 0.031138
v -0.048400 0.283606 0.031138
v -0.043242 0.283606 0.031138
v -0.048400 0.292681 0.037731
v -0.036648 0.292681 0.037731
vn -0.000000 0.875500 -0.483300
v -0.048400 0.296147 0.048400
v -0.022579 0.296147 0.048400
vn -0.000000 0.965900 0.259000
v -0.027225 0.295743 0.047155
vn -0.000000 0.951100 -0.308700
v -0.048400 0.292681 0.059069
v -0.015125 0.292681 0.059069
v -0.015125 0.293713 0.055893
v -0.015125 0.295499 0.050397
vn -0.000100 0.951000 0.309100
v 0.048400 0.283606 0.065662
v 0.048400 0.292681 0.059069
v 0.015125 0.292681 0.059069
v 0.015125 0.283606 0.065662
v 0.015125 0.272389 0.065662
v 0.048400 0.272389 0.065662
v 0.048400 0.263314 0.059069
v 0.015125 0.263314 0.059069
vn -0.000000 -0.809100 0.587700
v -0.015125 0.262283 0.055893
v -0.015125 0.263314 0.059069
vn -0.000000 -0.808800 0.588100
v -0.048400 0.263314 0.059069
v -0.015125 0.260497 0.050397
vn -0.000000 -0.951000 0.309100
v -0.048400 0.272389 0.065662
v -0.048400 0.283606 0.065662
v 0.048400 0.263314 0.037731
v 0.048400 0.272389 0.031138
v 0.048400 0.283606 0.031138
v 0.048400 0.292681 0.037731
v 0.048400 0.296147 0.048400
v 0.048400 0.259847 0.048400
v -0.072600 0.043560 -0.056259
v -0.048400 0.043560 -0.056259
v -0.048400 0.039023 -0.048400
v -0.072600 0.039023 -0.048400
v -0.072600 0.052635 -0.056259
v -0.048400 0.052635 -0.056259
v -0.072600 0.057173 -0.048400
v -0.048400 0.057173 -0.048400
v -0.072600 0.052635 -0.040541
v -0.048400 0.052635 -0.040541
v -0.072600 0.043560 -0.040541
v -0.048400 0.043560 -0.040541
v 0.072600 0.043560 -0.056259
v 0.072600 0.052635 -0.056259
v 0.072600 0.057173 -0.048400
v 0.072600 0.052635 -0.040541
v 0.072600 0.043560 -0.040541
v 0.072600 0.039023 -0.048400
v 0.048400 0.043560 -0.040541
v 0.048400 0.039023 -0.048400
v 0.048400 0.043560 -0.056259
v 0.048400 0.052635 -0.056259
v 0.048400 0.057173 -0.048400
v 0.048400 0.052635 -0.040541
v 0.015125 0.032382 -0.055894
vt 0.782358 0.566283
v 0.015125 0.033414 -0.059069
vt 0.782358 0.566631
v 0.048400 0.033414 -0.059069
vt 0.775598 0.566631
v 0.048400 0.029948 -0.048400
vt 0.775598 0.565460
v 0.022579 0.029948 -0.048400
vt 0.780844 0.565460
vn -0.000000 -0.965900 -0.259000
v 0.015125 0.030597 -0.050397
vt 0.782358 0.565679
vn -0.000000 -0.951100 -0.308900
v 0.015125 0.042350 -0.065561
vt 0.782358 0.567785
vn -0.000000 -0.587800 -0.809000
v 0.015125 0.042489 -0.065662
vt 0.782358 0.567803
vn -0.000000 -0.309000 -0.951000
v 0.048400 0.042489 -0.065662
vt 0.775598 0.567803
v 0.048400 0.053706 -0.065662
vt 0.775598 0.568974
v 0.015125 0.053706 -0.065662
vt 0.782358 0.568974
vt 0.782358 0.557261
v 0.015125 0.062781 -0.059069
vt 0.782358 0.558432
v 0.048400 0.062781 -0.059069
vt 0.775598 0.558432
vt 0.775598 0.557261
v 0.022579 0.066248 -0.048400
vt 0.780844 0.559604
vn -0.000000 0.965900 -0.259000
v 0.048400 0.066248 -0.048400
vt 0.775598 0.559604
v 0.015125 0.063813 -0.055893
vt 0.782358 0.558781
vn -0.000000 0.951100 -0.309000
v 0.015125 0.065598 -0.050397
vt 0.782358 0.559384
vn -0.000100 0.951100 -0.308900
v 0.036648 0.062781 -0.037731
vt 0.777985 0.560775
vn -0.000000 0.875400 0.483300
v 0.048400 0.062781 -0.037731
v 0.027225 0.065843 -0.047155
vt 0.779900 0.559740
vn -0.000000 0.951000 0.309300
v 0.043242 0.053706 -0.031138
vt 0.776646 0.561946
vn -0.000000 0.353300 0.935500
v 0.048400 0.053706 -0.031138
v 0.048400 0.042489 -0.031138
v 0.043242 0.042489 -0.031138
vt 0.776646 0.563118
vn -0.000000 -0.353300 0.935500
v 0.036648 0.033414 -0.037731
vt 0.777985 0.564289
vn -0.000000 -0.875500 0.483300
v 0.048400 0.033414 -0.037731
v 0.027225 0.030352 -0.047155
vt 0.779900 0.565323
vn -0.000000 -0.951100 0.308700
v -0.048400 0.042489 -0.031138
v -0.048400 0.053706 -0.031138
v -0.048400 0.062781 -0.037731
v -0.048400 0.066248 -0.048400
v -0.048400 0.062781 -0.059069
v -0.048400 0.053706 -0.065662
v -0.048400 0.042489 -0.065662
v -0.048400 0.033414 -0.059069
v -0.048400 0.029948 -0.048400
v -0.048400 0.033414 -0.037731
v -0.072600 0.273460 -0.056259
v -0.048400 0.273460 -0.056259
v -0.048400 0.268923 -0.048400
v -0.072600 0.268923 -0.048400
v -0.072600 0.282535 -0.056259
v -0.048400 0.282535 -0.056259
v -0.072600 0.287073 -0.048400
v -0.048400 0.287073 -0.048400
v -0.072600 0.282535 -0.040541
v -0.048400 0.282535 -0.040541
v -0.072600 0.273460 -0.040541
v -0.048400 0.273460 -0.040541
v 0.072600 0.273460 -0.056259
v 0.072600 0.282535 -0.056259
v 0.072600 0.287073 -0.048400
v 0.072600 0.282535 -0.040541
v 0.072600 0.273460 -0.040541
v 0.072600 0.268923 -0.048400
v 0.048400 0.273460 -0.040541
v 0.048400 0.268923 -0.048400
v 0.048400 0.273460 -0.056259
v 0.048400 0.282535 -0.056259
v 0.048400 0.287073 -0.048400
v 0.048400 0.282535 -0.040541
v 0.015125 0.262283 -0.055893
v 0.015125 0.263314 -0.059069
vn -0.000000 -0.808800 -0.588100
v 0.048400 0.263314 -0.059069
v 0.048400 0.259847 -0.048400
v 0.022579 0.259847 -0.048400
vn -0.000100 -0.965800 -0.259100
v 0.015125 0.260497 -0.050397
vn -0.000000 -0.951000 -0.309100
v 0.048400 0.272389 -0.065662
v 0.015125 0.272389 -0.065662
v 0.015125 0.283606 -0.065662
v 0.048400 0.283606 -0.065662
v 0.048400 0.292681 -0.059069
v 0.015125 0.292681 -0.059069
v 0.022579 0.296147 -0.048400
v 0.048400 0.296147 -0.048400
v 0.015125 0.293713 -0.055893
v 0.015125 0.295499 -0.050397
vn 0.000100 0.951000 -0.309100
v 0.036648 0.292681 -0.037731
vn -0.000000 0.875500 0.483300
v 0.048400 0.292681 -0.037731
v 0.027225 0.295743 -0.047155
vn -0.000000 0.951100 0.308700
v 0.043242 0.283606 -0.031138
v 0.048400 0.283606 -0.031138
v 0.048400 0.272389 -0.031138
v 0.043242 0.272389 -0.031138
v 0.036648 0.263314 -0.037731
vn -0.000000 -0.875400 0.483300
v 0.048400 0.263314 -0.037731
v 0.027225 0.260252 -0.047155
v -0.048400 0.272389 -0.031138
v -0.048400 0.283606 -0.031138
v -0.048400 0.292681 -0.037731
v -0.048400 0.296147 -0.048400
v -0.048400 0.292681 -0.059069
v -0.048400 0.283606 -0.065662
v -0.048400 0.272389 -0.065662
v -0.048400 0.263314 -0.059069
v -0.048400 0.259847 -0.048400
v -0.048400 0.263314 -0.037731
vt 0.795263 0.561946
v -0.043242 0.053706 -0.031138
vt 0.794215 0.561946
v -0.036648 0.062781 -0.037731
vt 0.792876 0.560775
v -0.024074 0.066117 -0.047999
vt 0.790321 0.559648
vn -0.000000 0.951100 0.308900
v -0.022579 0.066248 -0.048400
vn -0.000000 0.965900 -0.258800
v -0.027225 0.065843 -0.047155
vt 0.790962 0.559740
v -0.043242 0.042489 -0.031138
vt 0.794215 0.563118
vt 0.795263 0.563118
v -0.036648 0.033414 -0.037731
vt 0.792876 0.564289
v -0.022579 0.029948 -0.048400
vn -0.000000 -0.965900 -0.258900
v -0.024074 0.030078 -0.047999
vt 0.790321 0.565416
v -0.027225 0.030352 -0.047155
vt 0.790962 0.565323
v -0.028065 0.030625 -0.046315
vt 0.791132 0.565231
vn -0.000200 -0.951200 0.308700
v -0.043242 0.283606 -0.031138
v -0.036648 0.292681 -0.037731
v -0.024074 0.296017 -0.047999
vn -0.000000 0.951200 0.308700
v -0.022579 0.296147 -0.048400
vn -0.000000 0.965900 -0.258900
v -0.027225 0.295743 -0.047155
vn -0.000000 0.951100 0.308800
v -0.043242 0.272389 -0.031138
v -0.036648 0.263314 -0.037731
v -0.022579 0.259847 -0.048400
vn -0.000000 -0.965800 -0.259100
v -0.024074 0.259978 -0.047999
v -0.027225 0.260252 -0.047155
v -0.028065 0.260525 -0.046315
vn -0.000100 -0.951100 0.308900
v -0.015125 0.033414 -0.059069
vt 0.788503 0.566631
vn -0.000000 -0.809000 -0.587900
v -0.015125 0.032873 -0.057405
vt 0.788503 0.566449
v -0.015125 0.032382 -0.055893
vt 0.788503 0.566283
v -0.015125 0.030597 -0.050397
vt 0.788503 0.565679
v -0.015125 0.263314 -0.059069
vn -0.000000 -0.809100 -0.587600
v -0.015125 0.262774 -0.057405
vn -0.000000 -0.951000 -0.309000
v -0.015125 0.262282 -0.055893
vn -0.000000 -0.951000 -0.309200
v -0.015125 0.260497 -0.050397
vn 0.000100 -0.951100 -0.308900
v -0.015125 0.292681 -0.059069
vt 0.788503 0.558432
v -0.015125 0.293713 -0.055893
vt 0.788503 0.558781
v -0.015125 0.295499 -0.050397
vt 0.788503 0.559384
vn -0.000100 0.951000 -0.309100
v 0.000000 0.294182 -0.054450
vt 0.785431 0.558939
vn -0.000000 0.951000 -0.309100
v -0.015125 0.065598 -0.050397
vn 0.000100 0.951100 -0.308900
v -0.015125 0.063813 -0.055893
vn -0.000000 0.951100 -0.308900
v -0.015125 0.063322 -0.057405
vt 0.788503 0.558615
v -0.015125 0.062781 -0.059069
vn -0.000000 0.809000 -0.587900
v 0.022579 0.029948 0.048400
vn -0.000000 -0.965900 0.258900
v 0.024074 0.030078 0.047999
vt 0.780540 0.565504
v 0.027225 0.030352 0.047155
vt 0.779900 0.565597
v 0.028065 0.030625 0.046315
vt 0.779729 0.565689
vn 0.000200 -0.951200 -0.308700
v 0.036648 0.033414 0.037731
vt 0.777985 0.566631
v 0.043242 0.042489 0.031138
vt 0.776646 0.567803
v 0.043242 0.053706 0.031138
vt 0.776646 0.568974
vt 0.776646 0.557261
v 0.036648 0.062781 0.037731
vt 0.777985 0.558432
v 0.024074 0.066117 0.047999
vt 0.780540 0.559560
v 0.022579 0.066248 0.048400
vn -0.000000 0.965900 0.258800
v 0.027225 0.065843 0.047155
vt 0.779900 0.559467
v 0.022579 0.259847 0.048400
v 0.024074 0.259978 0.047999
v 0.027225 0.260252 0.047155
v 0.028065 0.260525 0.046315
v 0.036648 0.263314 0.037731
v 0.043242 0.272389 0.031138
v 0.043242 0.283606 0.031138
v 0.036648 0.292681 0.037731
v 0.024074 0.296017 0.047999
vn -0.000000 0.951200 -0.308700
v 0.022579 0.296147 0.048400
v 0.027225 0.295743 0.047155
vn -0.000000 0.951100 -0.308800
v 0.015125 0.063813 0.055893
vt 0.782358 0.560426
v 0.015125 0.065598 0.050397
vt 0.782358 0.559823
vn -0.000100 0.951100 0.308900
v 0.000000 0.064282 0.054450
vt 0.785431 0.560268
v 0.015125 0.032382 0.055893
vt 0.782358 0.564637
v 0.015125 0.030597 0.050397
vt 0.782358 0.565241
v 0.015125 0.293713 0.055893
v 0.015125 0.295499 0.050397
vn 0.000100 0.951000 0.309100
v 0.000000 0.294182 0.054450
vn -0.000000 0.951000 0.309100
v 0.015125 0.262283 0.055893
v 0.015125 0.260497 0.050397
vn -0.000100 -0.951000 0.309100
v 0.000000 0.031913 -0.054450
vt 0.785431 0.566124
v -0.015125 0.042416 -0.065609
vt 0.788503 0.567793
vn -0.000000 -0.587500 -0.809300
v -0.015125 0.042489 -0.065662
vt 0.788503 0.567803
vn -0.000000 -0.309400 -0.950900
v -0.015125 0.042350 -0.065561
vt 0.788503 0.567785
vn -0.000000 -0.587400 -0.809300
v -0.015125 0.053706 -0.065662
vt 0.788503 0.568974
v 0.000000 0.261813 -0.054450
vn -0.000000 -0.951000 -0.309300
v -0.015125 0.283606 -0.065662
v -0.015125 0.272389 -0.065662
vt 0.788503 0.557261
v 0.000000 0.064282 -0.054450
v -0.015125 0.042416 0.065609
vt 0.788503 0.563127
vn -0.000000 -0.587500 0.809300
v -0.015125 0.042489 0.065662
vt 0.788503 0.563118
vn -0.000000 -0.309400 0.950900
v -0.015125 0.042350 0.065561
vt 0.788503 0.563136
vn -0.000000 -0.587300 0.809400
v 0.000000 0.031913 0.054450
vt 0.785431 0.564796
v -0.015125 0.053706 0.065662
vt 0.788503 0.561946
v -0.015125 0.272389 0.065662
v -0.015125 0.283606 0.065662
v 0.000000 0.261813 0.054450
v 0.094249 0.062219 -0.092465
vt 0.681009 0.617751
vn 0.809000 -0.000000 -0.587800
v 0.095790 0.062219 -0.087725
vt 0.674022 0.617751
v 0.095790 0.050119 -0.087725
vt 0.674022 0.571175
v 0.094249 0.050119 -0.092465
vt 0.681009 0.571175
v 0.090217 0.062219 -0.095395
vt 0.687995 0.617751
vn 0.309100 -0.000000 -0.951000
v 0.090217 0.050119 -0.095395
vt 0.687995 0.571175
v 0.085233 0.062219 -0.095395
vt 0.694981 0.617751
v 0.085233 0.050119 -0.095395
vt 0.694981 0.571175
v 0.081201 0.062219 -0.092465
vt 0.632104 0.617751
vn -0.809000 -0.000000 -0.587800
vt 0.625118 0.617751
vn -0.587900 -0.000000 -0.809000
vt 0.625118 0.571175
v 0.081201 0.050119 -0.092465
vt 0.632104 0.571175
v 0.079660 0.062219 -0.087725
vt 0.639090 0.617751
v 0.079660 0.050119 -0.087725
vt 0.639090 0.571175
v 0.081201 0.062219 -0.082985
vt 0.646077 0.617751
vn -0.809000 -0.000000 0.587800
v 0.081201 0.050119 -0.082985
vt 0.646077 0.571175
v 0.085233 0.062219 -0.080055
vt 0.653063 0.617751
vn -0.309100 -0.000000 0.951000
v 0.085233 0.050119 -0.080055
vt 0.653063 0.571175
v 0.090217 0.062219 -0.080055
vt 0.660049 0.617751
vn 0.309100 -0.000000 0.951000
v 0.090217 0.050119 -0.080055
vt 0.660049 0.571175
v 0.094249 0.062219 -0.082985
vt 0.667036 0.617751
vn 0.809000 -0.000000 0.587800
v 0.094249 0.050119 -0.082985
vt 0.667036 0.571175
vt 0.746570 0.932423
vt 0.739863 0.923192
vt 0.739863 0.911781
vt 0.746570 0.902549
vt 0.757422 0.899023
vt 0.768275 0.902549
vt 0.774981 0.911781
vt 0.774981 0.923192
vt 0.768275 0.932423
vt 0.757422 0.935949
v -0.081201 0.062219 -0.092465
v -0.079660 0.062219 -0.087725
v -0.079660 0.050119 -0.087725
v -0.081201 0.050119 -0.092465
v -0.085233 0.062219 -0.095395
v -0.085233 0.050119 -0.095395
v -0.090217 0.062219 -0.095395
v -0.090217 0.050119 -0.095395
v -0.094249 0.062219 -0.092465
v -0.094249 0.050119 -0.092465
v -0.095790 0.062219 -0.087725
v -0.095790 0.050119 -0.087725
v -0.094249 0.062219 -0.082985
v -0.094249 0.050119 -0.082985
v -0.090217 0.062219 -0.080055
v -0.090217 0.050119 -0.080055
v -0.085233 0.062219 -0.080055
v -0.085233 0.050119 -0.080055
v -0.081201 0.062219 -0.082985
v -0.081201 0.050119 -0.082985
v -0.081201 0.062013 0.082985
v -0.079660 0.062013 0.087725
v -0.079660 0.049913 0.087725
v -0.081201 0.049913 0.082985
v -0.085233 0.062013 0.080055
v -0.085233 0.049913 0.080055
v -0.090217 0.062013 0.080055
v -0.090217 0.049913 0.080055
v -0.094249 0.062013 0.082985
v -0.094249 0.049913 0.082985
v -0.095790 0.062013 0.087725
v -0.095790 0.049913 0.087725
v -0.094249 0.062013 0.092465
v -0.094249 0.049913 0.092465
v -0.090217 0.062013 0.095395
v -0.090217 0.049913 0.095395
v -0.085233 0.062013 0.095395
v -0.085233 0.049913 0.095395
v -0.081201 0.062013 0.092465
v -0.081201 0.049913 0.092465
v 0.094249 0.062219 0.082985
v 0.095790 0.062219 0.087725
v 0.095790 0.050119 0.087725
v 0.094249 0.050119 0.082985
v 0.090217 0.062219 0.080055
v 0.090217 0.050119 0.080055
v 0.085233 0.062219 0.080055
v 0.085233 0.050119 0.080055
v 0.081201 0.062219 0.082985
v 0.081201 0.050119 0.082985
v 0.079660 0.062219 0.087725
v 0.079660 0.050119 0.087725
v 0.081201 0.062219 0.092465
v 0.081201 0.050119 0.092465
v 0.085233 0.062219 0.095395
v 0.085233 0.050119 0.095395
v 0.090217 0.062219 0.095395
v 0.090217 0.050119 0.095395
v 0.094249 0.062219 0.092465
v 0.094249 0.050119 0.092465
v 0.102850 0.026923 -0.087725
vt 0.853707 0.571263
v 0.095288 0.026923 -0.100824
vt 0.865351 0.571263
vn 0.500000 -0.000000 -0.866000
v 0.095288 0.050119 -0.100824
vt 0.865351 0.641126
v 0.102850 0.050119 -0.087725
vt 0.853707 0.641126
v 0.080162 0.026923 -0.100824
vt 0.876995 0.571263
v 0.080162 0.050119 -0.100824
vt 0.876995 0.641126
vt 0.807131 0.571263
v 0.072600 0.026923 -0.087725
vt 0.818775 0.571263
v 0.072600 0.050119 -0.087725
vt 0.818775 0.641126
vt 0.807131 0.641126
v 0.080162 0.026923 -0.074626
vt 0.830419 0.571263
v 0.080162 0.050119 -0.074626
vt 0.830419 0.641126
v 0.095288 0.026923 -0.074626
vt 0.842063 0.571263
v 0.095288 0.050119 -0.074626
vt 0.842063 0.641126
vt 0.773412 0.908255
vt 0.741433 0.908255
vt 0.741433 0.926718
vt 0.773412 0.926718
v 0.102850 0.027025 0.087725
v 0.095288 0.027025 0.074626
v 0.095288 0.050119 0.074626
v 0.102850 0.050119 0.087725
v 0.080162 0.027025 0.074626
v 0.080162 0.050119 0.074626
v 0.072600 0.027025 0.087725
v 0.072600 0.050119 0.087725
v 0.080162 0.027025 0.100824
v 0.080162 0.050119 0.100824
v 0.095288 0.027025 0.100824
v 0.095288 0.050119 0.100824
v -0.072600 0.026820 0.087725
v -0.080162 0.026820 0.074626
v -0.080162 0.049913 0.074626
v -0.072600 0.049913 0.087725
v -0.095288 0.026820 0.074626
v -0.095288 0.049913 0.074626
v -0.102850 0.026820 0.087725
v -0.102850 0.049913 0.087725
v -0.095288 0.026820 0.100824
v -0.095288 0.049913 0.100824
v -0.080162 0.026820 0.100824
v -0.080162 0.049913 0.100824
v -0.072600 0.026923 -0.087725
v -0.080162 0.026923 -0.100824
v -0.080162 0.050119 -0.100824
v -0.072600 0.050119 -0.087725
v -0.095288 0.026923 -0.100824
v -0.095288 0.050119 -0.100824
v -0.102850 0.026923 -0.087725
v -0.102850 0.050119 -0.087725
v -0.095288 0.026923 -0.074626
v -0.095288 0.050119 -0.074626
v -0.080162 0.026923 -0.074626
v -0.080162 0.050119 -0.074626
v 0.117975 0.013613 0.121000
vt 0.702342 0.639723
vn -0.000000 0.707200 0.707000
v -0.117975 0.013613 0.121000
vt 0.702707 0.567769
vn -0.000000 0.707100 0.707100
v -0.117975 0.000000 0.121000
vt 0.799203 0.570668
vn -0.000000 0.894400 0.447200
v 0.117975 0.000000 0.121000
vt 0.798838 0.642622
v 0.117975 0.013613 0.024200
vn 0.447200 0.894400 -0.000000
vn 0.707100 0.707100 -0.000000
v 0.117975 0.000000 0.024200
vn 0.316200 0.948700 -0.000000
v -0.117975 0.013613 0.024200
vn -0.000000 0.894400 -0.447200
v -0.117975 0.000000 0.024200
vn -0.447200 0.894400 -0.000000
vn -0.707100 0.707100 -0.000000
v 0.117975 0.013613 -0.024200
vt 0.897089 0.623639
v -0.117975 0.013613 -0.024200
vt 0.897070 0.651504
v -0.117975 -0.000000 -0.024200
vt 0.611605 0.651305
vn -0.000000 -0.240500 0.970600
v 0.117975 -0.000000 -0.024200
vt 0.611624 0.623440
v 0.117975 0.013613 -0.121000
v 0.117975 -0.000000 -0.121000
vn 0.799200 -0.601100 -0.000000
v -0.117975 0.013613 -0.121000
vn -0.000000 0.707100 -0.707100
vn -0.000000 -0.240500 -0.970600
v -0.117975 -0.000000 -0.121000
vn -0.799200 -0.601100 -0.000000
v 0.117975 0.013613 -0.117975
v 0.117975 0.013613 0.117975
vn -0.000000 1.000000 -0.000300
v -0.117975 0.013613 0.117975
v -0.117975 0.013613 -0.117975
v 0.117975 0.026923 -0.117975
v -0.117975 0.026923 -0.117975
v -0.117975 0.026923 0.117975
v 0.117975 0.026923 0.117975
vn -0.000000 0.948700 0.316200
v 0.048400 0.052635 0.154380
vt 0.891596 0.587798
vn -0.000000 -0.167300 0.985900
v 0.069575 0.123633 0.166430
vt 0.945652 0.715622
v 0.023191 0.123633 0.166430
vt 0.871799 0.715622
v 0.023191 0.052635 0.154380
vt 0.842837 0.564724
v -0.023191 0.123633 0.166430
vt 0.723903 0.715622
v -0.023191 0.052635 0.154380
vt 0.723903 0.565568
v -0.069575 0.123633 0.166430
vt 0.557708 0.721648
vn -0.007900 -0.172300 0.985000
v -0.048400 0.052635 0.154179
vt 0.625529 0.566974
vt 0.937524 0.715629
vn -0.000000 0.239500 0.970900
v 0.069575 0.246235 0.136180
vt 0.929659 0.950600
v 0.023191 0.246235 0.136180
vt 0.821812 0.955510
vt 0.821812 0.715629
vt 0.821748 0.715622
vt 0.821748 0.955320
v -0.023191 0.246235 0.136180
vt 0.678351 0.955320
vt 0.673852 0.715622
v -0.069575 0.246235 0.136180
vt 0.576008 0.955320
vt 0.580044 0.889934
vt 0.580581 0.840800
v 0.023191 0.052635 0.136230
vt 0.615666 0.841183
v 0.048400 0.052635 0.136230
vt 0.615130 0.890317
vt 0.581117 0.791666
v -0.023191 0.052635 0.136230
vt 0.616203 0.792049
vt 0.581654 0.742531
v -0.048400 0.052635 0.136029
vt 0.616739 0.742915
v 0.023191 0.052635 0.051425
vt 0.650751 0.841566
v 0.048400 0.052635 0.051425
vt 0.650215 0.890700
v -0.023191 0.052635 0.051425
vt 0.651288 0.792432
v -0.048400 0.052635 0.051224
vt 0.651824 0.743298
vn -0.958300 -0.285800 -0.000000
vt 0.580849 0.816233
v -0.069575 0.123633 0.148280
vt 0.615935 0.816616
vt 0.575963 0.858967
vt 0.596648 0.783678
v -0.069575 0.246235 0.118030
vt 0.608565 0.783808
vt 0.587879 0.859097
v -0.069575 0.123633 0.051425
vt 0.651020 0.816999
v -0.069575 0.246235 0.051425
vt 0.645133 0.784207
vt 0.644309 0.859713
v -0.023191 0.246235 0.118030
v 0.023191 0.246235 0.118030
v 0.069575 0.246235 0.118030
vt 0.926510 0.814048
vt 0.925689 0.855778
v -0.023191 0.246235 0.051425
vt 0.852426 0.855335
vt 0.853247 0.813606
vt 0.924867 0.897506
v 0.023191 0.246235 0.051425
vt 0.851604 0.897064
vt 0.924046 0.939236
v 0.069575 0.246235 0.051425
vt 0.850783 0.938793
vt 0.887883 0.927559
vt 0.909272 0.796531
v 0.069575 0.123633 0.148280
vt 0.897987 0.796463
vt 0.876598 0.927491
vt 0.579585 0.892872
vn 0.958300 -0.285800 -0.000000
vt 0.643260 0.877764
vt 0.643520 0.853963
vt 0.579845 0.869071
v 0.069575 0.123633 0.051425
vt 0.837769 0.796099
vt 0.835187 0.927240
vt 0.644734 0.742752
vt 0.581231 0.742059
v 0.068891 0.247392 0.141402
vt 0.888519 0.597128
v 0.068891 0.250417 0.141402
vt 0.888519 0.705054
v -0.069049 0.250417 0.141402
vt 0.611056 0.705052
v -0.069049 0.247392 0.141402
vt 0.611056 0.597127
v 0.068891 0.247392 0.111152
vt 0.611056 0.597128
v -0.069049 0.247392 0.111152
vt 0.888519 0.597127
v -0.069049 0.250417 0.111152
vt 0.888519 0.705052
v 0.068891 0.250417 0.111152
vt 0.611056 0.705054
vt 0.904502 0.910586
vt 0.908175 0.724018
vt 0.827890 0.723533
vt 0.824217 0.910101
v -0.070726 0.239601 0.141402
vt 0.889736 0.597127
v -0.070726 0.245651 0.141402
vt 0.889736 0.705054
v -0.073751 0.245651 0.141402
vt 0.609839 0.705054
v -0.073751 0.239601 0.141402
vt 0.609839 0.597127
v -0.070726 0.239601 0.111152
v -0.073751 0.239601 0.111152
v -0.073751 0.245651 0.111152
v -0.070726 0.245651 0.111152
v -0.068836 0.247424 0.111152
vt 0.827884 0.723821
vn 0.156600 -0.987700 -0.000000
v -0.068836 0.247424 0.141402
vt 0.908170 0.724306
v -0.069431 0.247330 0.141402
vt 0.908185 0.723501
vn 0.156500 -0.987700 -0.000000
v -0.069431 0.247330 0.111152
vt 0.827900 0.723016
vn 0.454100 -0.890900 -0.000000
v -0.069968 0.247057 0.141402
vt 0.908200 0.722776
v -0.069968 0.247057 0.111152
vt 0.827914 0.722290
vn 0.707100 -0.707100 -0.000000
v -0.070394 0.246631 0.141402
vt 0.908211 0.722198
v -0.070394 0.246631 0.111152
vt 0.827925 0.721713
vn 0.891000 -0.454000 -0.000000
v -0.070667 0.246094 0.141402
vt 0.908218 0.721829
vn 0.891000 -0.453900 -0.000000
v -0.070667 0.246094 0.111152
vt 0.827933 0.721344
vt 0.861660 0.908198
vn 0.987700 -0.156500 -0.000000
vt 0.898152 0.908198
v -0.070761 0.245499 0.141402
vt 0.898152 0.922269
vt 0.889876 0.705108
vn 0.987600 -0.156700 -0.000000
v -0.070761 0.245499 0.111152
vt 0.609699 0.705108
vt 0.609699 0.597074
v -0.068836 0.250449 0.111152
vn -0.156200 0.987700 -0.000000
v -0.070366 0.250207 0.111152
vt 0.827925 0.721751
v -0.070366 0.250207 0.141402
vt 0.908210 0.722236
v -0.068836 0.250449 0.141402
vn -0.453900 0.891000 -0.000000
v -0.071746 0.249504 0.111152
vt 0.827961 0.719884
vn -0.454200 0.890900 -0.000000
v -0.071746 0.249504 0.141402
vt 0.908247 0.720369
v -0.072841 0.248409 0.111152
vt 0.827990 0.718404
v -0.072841 0.248409 0.141402
vt 0.908276 0.718889
vn -0.891000 0.453900 -0.000000
v -0.073544 0.247029 0.111152
vt 0.828009 0.717452
v -0.073544 0.247029 0.141402
vt 0.908295 0.717938
vn -0.987700 0.156200 -0.000000
v -0.073786 0.245499 0.111152
vt 0.828016 0.717125
v -0.073786 0.245499 0.141402
vt 0.908301 0.717610
vt 0.889876 0.597074
v 0.068836 0.247424 0.141402
vt 0.904504 0.910512
vn -0.156600 -0.987700 -0.000000
v 0.068836 0.247424 0.111152
vt 0.824218 0.910026
v 0.069431 0.247330 0.111152
vt 0.824202 0.910832
vn -0.156400 -0.987700 -0.000000
v 0.069431 0.247330 0.141402
vt 0.904488 0.911317
vn -0.453900 -0.891000 -0.000000
vn -0.454200 -0.890900 -0.000000
v 0.069968 0.247057 0.111152
vt 0.824188 0.911558
vn -0.454100 -0.890900 -0.000000
v 0.069968 0.247057 0.141402
vt 0.904474 0.912043
vn -0.707100 -0.707100 -0.000000
v 0.070394 0.246631 0.111152
vt 0.824177 0.912134
v 0.070394 0.246631 0.141402
vt 0.904463 0.912619
vn -0.891000 -0.453900 -0.000000
v 0.070667 0.246094 0.111152
vt 0.824169 0.912504
vn -0.891000 -0.454000 -0.000000
v 0.070667 0.246094 0.141402
vt 0.904455 0.912989
vn -0.987700 -0.156500 -0.000000
v 0.070761 0.245499 0.111152
vn -0.987600 -0.156700 -0.000000
v 0.070761 0.245499 0.141402
v 0.068836 0.250449 0.141402
vn 0.156200 0.987700 -0.000000
v 0.070366 0.250207 0.141402
vt 0.904463 0.912581
v 0.070366 0.250207 0.111152
vt 0.824178 0.912096
v 0.068836 0.250449 0.111152
vn 0.453900 0.891000 -0.000000
v 0.071746 0.249504 0.141402
vt 0.904427 0.914448
v 0.071746 0.249504 0.111152
vt 0.824141 0.913963
v 0.072841 0.248409 0.141402
vt 0.904397 0.915929
v 0.072841 0.248409 0.111152
vt 0.824112 0.915444
vn 0.891000 0.453900 -0.000000
v 0.073544 0.247029 0.141402
vt 0.904379 0.916880
v 0.073544 0.247029 0.111152
vt 0.824093 0.916395
vn 0.987700 0.156200 -0.000000
v 0.073786 0.245499 0.141402
vt 0.904372 0.917208
v 0.073786 0.245499 0.111152
vt 0.824086 0.916723
v 0.070726 0.239601 0.111152
v 0.070726 0.245651 0.111152
v 0.073751 0.245651 0.111152
v 0.073751 0.239601 0.111152
v 0.070726 0.239601 0.141402
v 0.073751 0.239601 0.141402
v 0.073751 0.245651 0.141402
v 0.070726 0.245651 0.141402
vt 0.772870 0.601637
vn 0.008000 0.005200 -1.000000
vt 0.798800 0.601215
vt 0.821132 0.634726
vt 0.822083 0.693205
vt 0.774372 0.693981
vt 0.726661 0.694757
vt 0.678950 0.695533
vt 0.677998 0.637054
vt 0.699228 0.602835
vt 0.725159 0.602413
v 0.040535 0.296450 -0.000000
vt 0.795545 0.496739
v 0.035105 2.864978 -0.020268
vt 0.863983 0.003843
vn 0.866000 -0.000000 -0.500000
v 0.040535 2.864978 -0.000000
vt 0.795542 0.003843
vn 0.996000 -0.000000 -0.088900
v 0.035105 0.296450 -0.020268
vt 0.863983 0.496739
v 0.020268 2.864978 -0.035105
vt 0.914716 0.003843
v 0.020268 0.296450 -0.035105
vt 0.914716 0.496739
v 0.000000 2.864978 -0.040535
vt 0.933285 0.003843
v 0.000000 0.296450 -0.040535
vt 0.933285 0.496739
v -0.020268 2.864978 -0.035105
v -0.020268 0.296450 -0.035105
v -0.035105 2.864978 -0.020268
v -0.035105 0.296450 -0.020268
v -0.040535 2.864978 -0.000000
vn -0.996000 -0.000000 -0.088900
v -0.040535 0.296450 -0.000000
vt 0.795542 0.496739
v 0.035105 4.247099 -0.020268
vt 0.863983 0.496835
v 0.040535 4.247099 -0.000000
vt 0.795542 0.496835
v 0.020268 4.247099 -0.035105
vt 0.914716 0.496835
v 0.000000 4.247099 -0.040535
vt 0.933285 0.496835
v -0.020268 4.247099 -0.035105
v -0.035105 4.247099 -0.020268
v -0.040535 4.247099 -0.000000
v -0.035105 4.247099 0.020268
vt 0.864845 0.496835
v -0.035105 2.864978 0.020268
vt 0.864845 0.003843
v -0.020268 4.247099 0.035105
vt 0.915577 0.496835
v -0.020268 2.864978 0.035105
vt 0.915577 0.003843
v 0.000000 4.247099 0.040535
vt 0.934147 0.496835
v 0.000000 2.864978 0.040535
vt 0.934147 0.003843
v 0.020268 4.247099 0.035105
v 0.020268 2.864978 0.035105
v 0.035105 4.247099 0.020268
v 0.035105 2.864978 0.020268
v 0.000000 4.247099 -0.000000
vt 0.869782 0.446142
vt 0.910134 0.446142
vt 0.904727 0.455229
vt 0.889957 0.461882
vt 0.869782 0.464317
vt 0.849608 0.461882
vt 0.834837 0.455229
vt 0.829431 0.446142
vt 0.834837 0.437055
vt 0.849605 0.430402
vt 0.869782 0.427967
vt 0.889957 0.430402
vt 0.904727 0.437055
vt 0.932231 0.076458
vt 0.997880 0.071573
vn -0.422500 0.906300 -0.000000
vn -0.000000 0.885300 0.465100
vt 0.937579 0.499013
vn -0.000000 0.894500 -0.447100
vn 0.707100 0.707200 -0.000000
vn -0.707000 0.707200 -0.000000
vn -0.000000 0.948700 0.316100
vn 0.447300 0.894400 -0.000000
f 1/1/1 2/2/1 3/3/1
f 3/3/1 4/4/1 1/1/1
f 3/2/2 5/5/2 4/1/2
f 4/6/3 6/7/3 1/8/3
f 1/2/4 7/9/4 2/1/4
f 8/10/5 9/10/6 10/10/7
f 3/1/8 11/11/9 12/12/8
f 9/10/10 10/10/10 10/10/10
f 13/1/1 14/2/1 15/3/1
f 15/3/1 16/4/1 13/1/1
f 15/2/2 17/5/2 16/1/2
f 10/10/7 11/10/11 8/10/5
f 16/2/3 18/13/3 13/1/3
f 19/10/3 20/10/8 21/10/8
f 13/2/4 22/9/4 14/1/4
f 20/10/10 21/10/10 21/10/10
f 15/14/8 21/15/8 23/16/8
f 21/10/8 24/10/4 19/10/3
f 25/3/12 26/4/12 27/1/12
f 27/1/12 28/2/12 25/3/12
f 29/3/13 30/4/13 31/1/13
f 31/1/13 32/2/13 29/3/13
f 25/3/14 28/4/14 30/1/14
f 30/1/14 29/2/14 25/3/14
f 28/3/3 27/4/3 31/1/3
f 31/1/3 30/2/3 28/3/3
f 27/3/15 26/4/15 32/1/15
f 32/1/15 31/2/15 27/3/15
f 26/3/8 25/4/8 29/1/8
f 29/1/8 32/2/8 26/3/8
f 33/3/12 34/4/12 35/1/12
f 35/1/12 36/2/12 33/3/12
f 37/3/13 38/4/13 39/1/13
f 39/1/13 40/2/13 37/3/13
f 33/3/16 36/4/16 38/1/16
f 38/1/16 37/2/16 33/3/16
f 35/3/17 34/4/17 40/1/17
f 40/1/17 39/2/17 35/3/17
f 41/3/12 42/4/12 43/1/12
f 43/1/12 44/2/12 41/3/12
f 45/3/13 46/4/13 47/1/13
f 47/1/13 48/2/13 45/3/13
f 41/3/18 44/4/18 46/1/18
f 46/1/18 45/2/18 41/3/18
f 43/3/19 42/4/19 48/1/19
f 48/1/19 47/2/19 43/3/19
f 49/3/20 50/4/20 51/1/20
f 51/1/20 52/2/20 49/3/20
f 53/3/13 54/4/13 55/1/13
f 55/1/13 56/2/13 53/3/13
f 49/3/2 52/4/2 54/1/2
f 54/1/2 53/2/2 49/3/2
f 52/3/3 51/4/3 55/1/3
f 55/1/3 54/2/3 52/3/3
f 51/3/21 50/4/21 56/1/21
f 56/1/21 55/2/21 51/3/21
f 50/3/8 49/4/8 53/1/8
f 53/1/8 56/2/8 50/3/8
f 57/3/20 58/4/20 59/1/20
f 59/1/20 60/2/20 57/3/20
f 61/3/13 62/4/13 63/1/13
f 63/1/13 64/2/13 61/3/13
f 57/3/2 60/4/2 62/1/2
f 62/1/2 61/2/2 57/3/2
f 60/3/3 59/4/3 63/1/3
f 63/1/3 62/2/3 60/3/3
f 59/3/21 58/4/21 64/1/21
f 64/1/21 63/2/21 59/3/21
f 58/3/8 57/4/8 61/1/8
f 61/1/8 64/2/8 58/3/8
f 65/3/22 66/4/22 67/1/22
f 67/1/22 68/2/22 65/3/22
f 66/3/23 69/4/23 70/1/23
f 70/1/23 67/2/23 66/3/23
f 69/3/24 71/4/24 72/1/24
f 72/1/24 70/2/24 69/3/24
f 71/3/25 73/4/25 74/1/25
f 74/1/25 72/2/25 71/3/25
f 73/3/26 75/4/26 76/1/26
f 76/1/26 74/2/26 73/3/26
f 75/3/27 77/4/27 78/1/27
f 78/1/27 76/2/27 75/3/27
f 77/3/28 79/4/28 80/1/28
f 80/1/28 78/2/28 77/3/28
f 79/3/29 81/4/29 82/1/29
f 82/1/29 80/2/29 79/3/29
f 81/3/30 83/4/30 84/1/30
f 84/1/30 82/2/30 81/3/30
f 83/3/31 85/4/31 86/1/31
f 86/1/31 84/2/31 83/3/31
f 85/3/32 87/4/32 88/1/32
f 88/1/32 86/2/32 85/3/32
f 87/3/33 65/4/33 68/1/33
f 68/1/33 88/2/33 87/3/33
f 85/17/12 83/18/12 81/19/12
f 81/19/12 79/20/12 77/21/12
f 77/21/12 75/22/12 73/23/12
f 81/19/12 77/21/12 73/23/12
f 73/23/12 71/24/12 69/25/12
f 69/25/12 66/26/12 65/27/12
f 73/23/12 69/25/12 65/27/12
f 81/19/12 73/23/12 65/27/12
f 85/17/12 81/19/12 65/27/12
f 87/28/12 85/17/12 65/27/12
f 67/17/13 70/18/13 72/19/13
f 72/19/13 74/20/13 76/21/13
f 76/21/13 78/22/34 80/23/13
f 72/19/13 76/21/13 80/23/13
f 80/23/13 82/24/35 84/25/35
f 84/25/35 86/26/35 88/27/13
f 80/23/13 84/25/35 88/27/13
f 72/19/13 80/23/13 88/27/13
f 67/17/13 72/19/13 88/27/13
f 68/28/36 67/17/13 88/27/13
f 89/3/22 90/4/22 91/1/22
f 91/1/22 92/2/22 89/3/22
f 90/3/23 93/4/23 94/1/23
f 94/1/23 91/2/23 90/3/23
f 93/3/24 95/4/24 96/1/24
f 96/1/24 94/2/24 93/3/24
f 95/3/25 97/4/25 98/1/25
f 98/1/25 96/2/25 95/3/25
f 97/3/26 99/4/26 100/1/26
f 100/1/26 98/2/26 97/3/26
f 99/3/27 101/4/27 102/1/27
f 102/1/27 100/2/27 99/3/27
f 101/3/28 103/4/28 104/1/28
f 104/1/28 102/2/28 101/3/28
f 103/3/29 105/4/29 106/1/29
f 106/1/29 104/2/29 103/3/29
f 105/3/30 107/4/30 108/1/30
f 108/1/30 106/2/30 105/3/30
f 107/3/31 109/4/31 110/1/31
f 110/1/31 108/2/31 107/3/31
f 109/3/32 111/4/32 112/1/32
f 112/1/32 110/2/32 109/3/32
f 111/3/33 89/4/33 92/1/33
f 92/1/33 112/2/33 111/3/33
f 109/17/12 107/18/12 105/19/12
f 105/19/12 103/20/12 101/21/12
f 101/21/12 99/22/12 97/23/12
f 105/19/12 101/21/12 97/23/12
f 97/23/12 95/24/12 93/25/12
f 93/25/12 90/26/12 89/27/12
f 97/23/12 93/25/12 89/27/12
f 105/19/12 97/23/12 89/27/12
f 109/17/12 105/19/12 89/27/12
f 111/28/12 109/17/12 89/27/12
f 91/17/13 94/18/13 96/19/13
f 96/19/13 98/20/13 100/21/13
f 100/21/13 102/22/13 104/23/13
f 96/19/13 100/21/13 104/23/13
f 104/23/13 106/24/13 108/25/13
f 108/25/13 110/26/13 112/27/13
f 104/23/13 108/25/13 112/27/13
f 96/19/13 104/23/13 112/27/13
f 91/17/13 96/19/13 112/27/13
f 92/28/13 91/17/13 112/27/13
f 113/29/12 114/30/12 115/31/12
f 115/31/12 116/32/12 113/29/12
f 117/29/12 118/30/12 114/31/37
f 114/31/37 113/32/37 117/29/12
f 119/29/12 120/30/12 118/31/12
f 118/31/12 117/32/12 119/29/12
f 121/29/12 122/30/12 120/31/38
f 120/31/38 119/33/38 121/29/12
f 123/29/12 124/30/12 122/31/12
f 122/31/12 121/32/12 123/29/12
f 125/29/12 126/30/12 124/31/12
f 124/31/12 123/32/12 125/29/12
f 127/29/12 128/30/12 126/31/12
f 126/31/12 125/32/12 127/29/12
f 129/29/13 130/34/13 131/31/13
f 131/31/13 132/35/13 129/29/13
f 133/29/13 129/34/39 132/31/13
f 132/31/13 134/35/13 133/29/13
f 135/29/13 133/34/13 134/31/13
f 134/31/13 136/35/13 135/29/13
f 137/29/13 135/36/39 136/31/13
f 136/31/13 138/35/13 137/29/13
f 139/29/13 137/34/13 138/31/13
f 138/31/13 140/35/13 139/29/13
f 141/29/13 139/34/13 140/31/13
f 140/31/13 142/35/13 141/29/13
f 143/29/13 141/34/13 142/31/13
f 142/31/13 144/35/13 143/29/13
f 132/29/40 131/30/40 115/31/40
f 115/31/40 114/35/40 132/29/40
f 134/29/41 132/30/42 114/31/41
f 114/31/41 118/35/41 134/29/41
f 136/29/43 134/30/43 118/31/44
f 118/31/44 120/35/44 136/29/43
f 138/29/15 136/30/15 120/31/15
f 120/31/15 122/35/15 138/29/15
f 140/29/45 138/30/45 122/31/46
f 122/31/46 124/35/46 140/29/45
f 142/29/47 140/30/48 124/31/47
f 124/31/47 126/35/47 142/29/47
f 144/29/49 142/30/49 126/31/49
f 126/31/49 128/35/49 144/29/49
f 141/29/50 143/30/50 127/31/50
f 127/31/50 125/35/50 141/29/50
f 139/29/51 141/30/51 125/31/51
f 125/31/51 123/35/51 139/29/51
f 137/29/52 139/30/52 123/31/52
f 123/31/52 121/35/52 137/29/52
f 135/29/14 137/30/14 121/31/14
f 121/31/14 119/35/14 135/29/14
f 133/29/53 135/30/53 119/31/53
f 119/31/53 117/35/53 133/29/53
f 129/29/54 133/30/54 117/31/54
f 117/31/54 113/35/54 129/29/54
f 130/29/55 129/30/55 113/31/55
f 113/31/55 116/35/55 130/29/55
f 145/3/20 146/4/20 147/1/20
f 147/1/20 148/2/20 145/3/20
f 149/3/1 150/4/1 151/1/1
f 151/1/1 152/2/1 149/3/1
f 145/3/2 148/4/2 150/1/2
f 150/1/2 149/2/2 145/3/2
f 148/3/3 147/4/3 151/1/3
f 151/1/3 150/2/3 148/3/3
f 147/3/4 146/4/4 152/1/4
f 152/1/4 151/2/4 147/3/4
f 153/3/20 154/4/20 155/1/20
f 155/1/20 156/2/20 153/3/20
f 157/3/1 158/4/1 159/1/1
f 159/1/1 160/2/1 157/3/1
f 153/3/2 156/4/2 158/1/2
f 158/1/2 157/2/2 153/3/2
f 156/3/3 155/4/3 159/1/3
f 159/1/3 158/2/3 156/3/3
f 155/3/4 154/4/4 160/1/4
f 160/1/4 159/2/4 155/3/4
f 161/3/20 162/4/20 163/1/20
f 163/1/20 164/2/20 161/3/20
f 165/3/1 166/4/1 167/1/1
f 167/1/1 168/2/1 165/3/1
f 161/3/2 164/4/2 166/1/2
f 166/1/2 165/2/2 161/3/2
f 164/3/3 163/4/3 167/1/3
f 167/1/3 166/2/3 164/3/3
f 163/3/4 162/4/4 168/1/4
f 168/1/4 167/2/4 163/3/4
f 169/3/20 170/4/20 171/1/20
f 171/1/20 172/2/20 169/3/20
f 173/3/1 174/4/1 175/1/1
f 175/1/1 176/2/1 173/3/1
f 169/3/2 172/4/2 174/1/2
f 174/1/2 173/2/2 169/3/2
f 172/3/3 171/4/3 175/1/3
f 175/1/3 174/2/3 172/3/3
f 171/3/4 170/4/4 176/1/4
f 176/1/4 175/2/4 171/3/4
f 177/3/20 178/4/20 179/1/20
f 179/1/20 180/2/20 177/3/20
f 181/3/1 182/4/1 183/1/1
f 183/1/1 184/2/1 181/3/1
f 177/3/2 180/4/2 182/1/2
f 182/1/2 181/2/2 177/3/2
f 180/3/3 179/4/3 183/1/3
f 183/1/3 182/2/3 180/3/3
f 179/3/4 178/4/4 184/1/4
f 184/1/4 183/2/4 179/3/4
f 185/3/20 186/4/20 187/1/20
f 187/1/20 188/2/20 185/3/20
f 189/3/1 190/4/1 191/1/1
f 191/1/1 192/2/1 189/3/1
f 185/3/2 188/4/2 190/1/2
f 190/1/2 189/2/2 185/3/2
f 188/3/3 187/4/3 191/1/3
f 191/1/3 190/2/3 188/3/3
f 187/3/4 186/4/4 192/1/4
f 192/1/4 191/2/4 187/3/4
f 193/3/20 194/4/20 195/1/20
f 195/1/20 196/2/20 193/3/20
f 197/3/56 198/4/1 199/1/1
f 199/1/1 200/2/56 197/3/56
f 193/3/2 196/4/2 198/1/2
f 198/1/2 197/2/2 193/3/2
f 196/3/3 195/4/3 199/1/3
f 199/1/3 198/2/3 196/3/3
f 195/3/4 194/4/4 200/1/4
f 200/1/4 199/2/4 195/3/4
f 201/3/20 202/4/20 203/1/20
f 203/1/20 204/2/20 201/3/20
f 205/3/56 206/4/56 207/1/56
f 207/1/56 208/2/56 205/3/56
f 201/3/2 204/4/2 206/1/2
f 206/1/2 205/2/2 201/3/2
f 204/3/3 203/4/3 207/1/3
f 207/1/3 206/2/3 204/3/3
f 203/3/4 202/4/4 208/1/4
f 208/1/4 207/2/4 203/3/4
f 209/3/20 210/4/20 211/1/57
f 211/1/57 212/2/57 209/3/20
f 213/3/56 214/4/1 215/1/1
f 215/1/1 216/2/56 213/3/56
f 209/3/2 212/4/2 214/1/2
f 214/1/2 213/2/2 209/3/2
f 212/3/3 211/4/3 215/1/3
f 215/1/3 214/2/3 212/3/3
f 211/3/4 210/4/4 216/1/4
f 216/1/4 215/2/4 211/3/4
f 217/3/58 218/4/58 219/1/57
f 219/1/57 220/2/57 217/3/58
f 221/3/56 222/4/1 223/1/1
f 223/1/1 224/2/56 221/3/56
f 217/3/2 220/4/2 222/1/2
f 222/1/2 221/2/2 217/3/2
f 220/3/3 219/4/3 223/1/3
f 223/1/3 222/2/3 220/3/3
f 219/3/4 218/4/4 224/1/4
f 224/1/4 223/2/4 219/3/4
f 225/3/58 226/4/58 227/1/57
f 227/1/57 228/2/57 225/3/58
f 229/3/59 230/4/56 231/1/56
f 231/1/56 232/2/59 229/3/59
f 225/3/2 228/4/2 230/1/2
f 230/1/2 229/2/2 225/3/2
f 228/3/3 227/4/3 231/1/3
f 231/1/3 230/2/3 228/3/3
f 227/3/4 226/4/4 232/1/4
f 232/1/4 231/2/4 227/3/4
f 233/3/57 234/4/57 235/1/20
f 235/1/20 236/2/20 233/3/57
f 237/3/59 238/4/59 239/1/59
f 239/1/59 240/2/59 237/3/59
f 233/3/2 236/4/2 238/1/2
f 238/1/2 237/2/2 233/3/2
f 236/3/3 235/4/3 239/1/3
f 239/1/3 238/2/3 236/3/3
f 235/3/4 234/4/4 240/1/4
f 240/1/4 239/2/4 235/3/4
f 241/3/57 242/4/57 243/1/20
f 243/1/20 244/2/20 241/3/57
f 245/3/56 246/4/1 247/1/1
f 247/1/1 248/2/56 245/3/56
f 241/3/2 244/4/2 246/1/2
f 246/1/2 245/2/2 241/3/2
f 244/3/3 243/4/3 247/1/3
f 247/1/3 246/2/3 244/3/3
f 243/3/4 242/4/4 248/1/4
f 248/1/4 247/2/4 243/3/4
f 249/3/60 250/4/60 251/1/57
f 251/1/57 252/2/57 249/3/60
f 253/3/56 254/4/56 255/1/56
f 255/1/56 256/2/56 253/3/56
f 249/3/2 252/4/2 254/1/2
f 254/1/2 253/2/2 249/3/2
f 252/3/3 251/4/3 255/1/3
f 255/1/3 254/2/3 252/3/3
f 251/3/4 250/4/4 256/1/4
f 256/1/4 255/2/4 251/3/4
f 257/3/57 258/4/57 259/1/57
f 259/1/57 260/2/57 257/3/57
f 261/3/61 262/4/61 263/1/61
f 263/1/61 264/2/61 261/3/61
f 257/3/2 260/4/2 262/1/2
f 262/1/2 261/2/2 257/3/2
f 260/3/3 259/4/3 263/1/3
f 263/1/3 262/2/3 260/3/3
f 259/3/4 258/4/4 264/1/4
f 264/1/4 263/2/4 259/3/4
f 265/3/60 266/4/60 267/1/58
f 267/1/58 268/2/58 265/3/60
f 269/3/1 270/4/56 271/1/56
f 271/1/56 272/2/1 269/3/1
f 265/3/2 268/4/2 270/1/2
f 270/1/2 269/2/2 265/3/2
f 268/3/3 267/4/3 271/1/3
f 271/1/3 270/2/3 268/3/3
f 267/3/4 266/4/4 272/1/4
f 272/1/4 271/2/4 267/3/4
f 273/3/57 274/4/57 275/1/57
f 275/1/57 276/2/57 273/3/57
f 277/3/59 278/4/59 279/1/59
f 279/1/59 280/2/59 277/3/59
f 273/3/2 276/4/2 278/1/2
f 278/1/2 277/2/2 273/3/2
f 276/3/3 275/4/3 279/1/3
f 279/1/3 278/2/3 276/3/3
f 275/3/4 274/4/4 280/1/4
f 280/1/4 279/2/4 275/3/4
f 5/5/2 9/37/62 4/1/2
f 6/7/3 10/38/63 1/8/3
f 7/9/4 11/39/11 2/1/4
f 12/12/8 8/37/64 3/1/8
f 17/5/2 19/37/62 16/1/2
f 18/13/3 24/39/63 13/1/3
f 22/9/4 21/39/65 14/1/4
f 23/16/8 20/40/8 15/14/8
f 11/10/10 11/10/10 8/10/10
f 8/10/14 8/10/64 9/10/66
f 9/10/10 9/10/10 10/10/10
f 24/10/10 24/10/10 19/10/10
f 19/10/14 19/10/62 20/10/67
f 20/10/10 20/10/10 21/10/10
f 281/41/12 282/42/12 283/43/12
f 283/43/12 284/44/12 285/45/12
f 285/45/12 286/46/12 287/47/12
f 283/43/12 285/45/12 287/47/12
f 287/47/12 288/48/12 289/49/12
f 289/49/12 290/50/12 291/51/12
f 287/47/12 289/49/12 291/51/12
f 283/43/12 287/47/12 291/51/12
f 281/41/12 283/43/12 291/51/12
f 292/52/12 281/41/12 291/51/12
f 291/53/8 290/54/28 293/55/28
f 293/55/28 294/56/8 291/53/8
f 290/57/29 289/58/29 295/58/29
f 295/58/29 293/57/29 290/57/29
f 289/59/30 288/60/30 296/61/68
f 296/61/68 295/62/30 289/59/30
f 288/60/31 287/63/69 297/64/69
f 297/64/69 296/61/70 288/60/31
f 287/63/69 286/65/71 298/66/71
f 298/66/71 297/64/69 287/63/69
f 286/65/71 285/67/3 299/68/3
f 299/68/3 298/66/71 286/65/71
f 285/67/3 284/69/72 300/70/72
f 300/70/72 299/68/3 285/67/3
f 284/69/72 283/71/73 301/72/73
f 301/72/73 300/70/72 284/69/72
f 283/71/73 282/73/15 302/74/15
f 302/74/15 301/72/73 283/71/73
f 282/73/15 281/75/74 303/76/74
f 303/76/74 302/74/15 282/73/15
f 281/75/74 292/77/75 304/78/75
f 304/78/75 303/76/74 281/75/74
f 292/77/75 291/53/8 294/56/8
f 294/56/8 304/78/75 292/77/75
f 294/79/13 293/57/13 295/58/13
f 295/58/13 296/80/13 297/81/13
f 297/81/13 298/82/13 299/83/13
f 295/58/13 297/81/13 299/83/13
f 299/83/13 300/84/13 301/85/13
f 301/85/13 302/86/13 303/87/13
f 299/83/13 301/85/13 303/87/13
f 295/58/13 299/83/13 303/87/13
f 294/79/13 295/58/13 303/87/13
f 304/88/13 294/79/13 303/87/13
f 294/89/13 305/90/13 306/91/13
f 307/92/76 308/93/76 309/94/76
f 309/94/76 310/95/76 307/92/76
f 311/94/77 312/95/77 308/92/77
f 308/92/77 307/93/77 311/94/77
f 307/96/15 310/97/15 313/98/15
f 313/98/15 314/99/15 307/96/15
f 314/99/15 315/100/15 311/101/15
f 311/101/15 307/96/15 314/99/15
f 316/92/78 317/93/78 318/94/78
f 318/94/78 319/95/78 316/92/78
f 305/94/79 320/95/79 317/92/79
f 317/92/79 316/93/79 305/94/79
f 316/102/14 319/103/14 321/104/14
f 321/104/14 322/105/14 316/102/14
f 306/106/14 305/107/14 316/102/14
f 316/102/14 322/105/14 306/106/14
f 296/108/13 323/109/13 324/110/13
f 325/92/80 326/93/80 327/94/80
f 327/94/80 328/95/80 325/92/80
f 329/94/15 330/95/15 326/92/15
f 326/92/15 325/93/15 329/94/15
f 331/111/8 332/112/8 333/113/8
f 333/113/8 334/114/8 331/111/8
f 335/115/8 334/114/8 333/113/8
f 333/113/8 336/116/8 335/115/8
f 337/92/81 333/93/81 332/94/81
f 332/94/81 338/95/81 337/92/81
f 323/94/14 336/95/14 333/92/14
f 333/92/14 337/93/14 323/94/14
f 337/113/3 338/112/3 339/111/3
f 339/111/3 340/114/3 337/113/3
f 340/114/3 324/117/3 323/118/3
f 323/118/3 337/113/3 340/114/3
f 317/102/15 341/105/15 342/104/15
f 342/104/15 318/103/15 317/102/15
f 308/96/14 343/99/14 344/98/14
f 344/98/14 309/97/14 308/96/14
f 345/119/8 346/120/8 325/121/8
f 325/121/8 328/122/8 345/119/8
f 326/121/3 347/120/3 348/119/3
f 348/119/3 327/122/3 326/121/3
f 311/123/13 315/124/13 349/125/13
f 349/125/13 299/126/13 311/123/13
f 350/100/14 343/99/14 308/96/14
f 308/96/14 312/101/14 350/100/14
f 329/127/8 325/121/8 346/120/8
f 346/120/8 351/128/8 329/127/8
f 329/129/13 351/130/13 302/131/13
f 326/121/3 330/127/3 352/132/3
f 352/132/3 347/120/3 326/121/3
f 341/105/15 317/102/15 320/107/15
f 320/107/15 353/106/15 341/105/15
f 294/89/13 353/133/13 320/134/13
f 320/134/13 305/90/13 294/89/13
f 296/108/13 335/135/13 336/136/13
f 336/136/13 323/109/13 296/108/13
f 312/137/13 311/123/13 299/126/13
f 299/126/13 350/138/13 312/137/13
f 354/139/13 352/140/13 330/141/13
f 302/131/13 354/139/13 330/141/13
f 302/131/13 330/141/13 329/129/13
f 355/142/82 356/143/82 357/144/12
f 357/144/12 358/145/12 355/142/82
f 356/146/14 355/147/14 359/148/83
f 359/148/83 360/149/83 356/146/14
f 360/149/83 359/148/83 361/150/13
f 361/150/13 362/151/13 360/149/83
f 362/151/13 361/150/13 363/152/84
f 363/152/84 364/153/84 362/151/13
f 364/153/84 363/152/84 365/154/85
f 365/154/85 366/155/85 364/153/84
f 357/144/12 366/155/85 365/154/85
f 365/154/85 358/145/12 357/144/12
f 363/156/3 361/157/3 359/158/3
f 359/158/3 355/159/3 358/160/3
f 363/156/3 359/158/3 358/160/3
f 365/161/3 363/156/3 358/160/3
f 367/159/8 368/158/8 369/157/8
f 369/157/8 370/156/8 371/161/8
f 367/159/8 369/157/8 371/161/8
f 372/160/8 367/159/8 371/161/8
f 372/162/12 371/163/85 373/164/85
f 373/164/85 374/165/12 372/162/12
f 374/165/12 375/166/82 367/167/82
f 367/167/82 372/162/12 374/165/12
f 368/168/83 367/169/14 375/170/14
f 375/170/14 376/171/83 368/168/83
f 376/171/83 377/172/13 369/173/13
f 369/173/13 368/168/83 376/171/83
f 370/174/84 369/173/13 377/172/13
f 377/172/13 378/175/84 370/174/84
f 373/164/85 371/163/85 370/174/84
f 370/174/84 378/175/84 373/164/85
f 379/176/86 380/177/87 381/178/12
f 381/178/12 382/179/88 383/180/89
f 379/176/86 381/178/12 383/180/89
f 383/180/89 382/179/88 384/181/90
f 384/181/90 385/182/91 383/180/89
f 385/182/91 384/181/90 386/183/14
f 386/183/14 387/184/14 385/182/91
f 387/185/92 386/186/92 388/187/93
f 388/187/93 389/188/94 387/185/92
f 390/189/13 391/190/95 392/191/96
f 390/189/13 392/191/96 389/188/94
f 390/189/13 389/188/94 388/187/93
f 393/192/97 394/193/97 395/194/98
f 395/194/98 396/195/99 391/190/95
f 393/192/97 395/194/98 391/190/95
f 390/189/13 393/192/97 391/190/95
f 397/196/100 398/197/97 399/198/97
f 399/198/97 400/199/100 397/196/100
f 400/199/100 401/200/101 402/201/102
f 402/201/102 397/196/100 400/199/100
f 403/202/103 404/203/103 402/201/102
f 405/204/104 403/202/103 402/201/102
f 405/204/104 402/201/102 401/200/101
f 406/205/105 407/206/103 408/207/103
f 408/207/103 381/178/12 380/177/87
f 408/207/103 380/177/87 409/208/106
f 406/205/105 408/207/103 409/208/106
f 410/209/3 411/210/3 393/211/3
f 393/211/3 390/212/3 388/213/3
f 388/213/3 386/214/3 384/215/3
f 384/215/3 382/216/3 381/217/3
f 388/213/3 384/215/3 381/217/3
f 393/211/3 388/213/3 381/217/3
f 410/209/3 393/211/3 381/217/3
f 408/218/3 410/209/3 381/217/3
f 412/216/8 413/215/8 414/214/8
f 414/214/8 415/213/8 416/212/8
f 416/212/8 398/211/8 397/210/8
f 397/210/8 402/209/8 404/218/8
f 416/212/8 397/210/8 404/218/8
f 414/214/8 416/212/8 404/218/8
f 412/216/8 414/214/8 404/218/8
f 417/217/8 412/216/8 404/218/8
f 418/219/82 419/220/82 420/221/12
f 420/221/12 421/222/12 418/219/82
f 419/223/14 418/224/14 422/225/83
f 422/225/83 423/226/83 419/223/14
f 423/226/83 422/225/83 424/227/13
f 424/227/13 425/228/13 423/226/83
f 425/228/13 424/227/13 426/229/84
f 426/229/84 427/230/84 425/228/13
f 427/230/84 426/229/84 428/231/85
f 428/231/85 429/232/85 427/230/84
f 420/221/12 429/232/85 428/231/85
f 428/231/85 421/222/12 420/221/12
f 426/156/3 424/157/3 422/158/3
f 422/158/3 418/159/3 421/160/3
f 426/156/3 422/158/3 421/160/3
f 428/161/3 426/156/3 421/160/3
f 430/159/8 431/158/8 432/157/8
f 432/157/8 433/156/8 434/161/8
f 430/159/8 432/157/8 434/161/8
f 435/160/8 430/159/8 434/161/8
f 435/233/12 434/234/85 436/235/85
f 436/235/85 437/236/12 435/233/12
f 437/236/12 438/237/82 430/238/82
f 430/238/82 435/233/12 437/236/12
f 431/239/83 430/240/14 438/241/14
f 438/241/14 439/242/83 431/239/83
f 439/242/83 440/243/13 432/244/13
f 432/244/13 431/239/83 439/242/83
f 433/245/84 432/244/13 440/243/13
f 440/243/13 441/246/84 433/245/84
f 436/235/85 434/234/85 433/245/84
f 433/245/84 441/246/84 436/235/85
f 442/176/107 443/177/108 444/178/12
f 444/178/12 445/179/88 446/180/109
f 442/176/107 444/178/12 446/180/109
f 446/180/109 445/179/88 447/181/90
f 447/181/90 448/182/91 446/180/109
f 448/182/91 447/181/90 449/183/14
f 449/183/14 450/184/14 448/182/91
f 450/185/92 449/186/92 451/187/93
f 451/187/93 452/188/110 450/185/92
f 453/189/13 454/190/111 455/191/112
f 453/189/13 455/191/112 452/188/110
f 453/189/13 452/188/110 451/187/93
f 456/192/97 457/193/97 458/194/98
f 458/194/98 459/195/113 454/190/111
f 456/192/97 458/194/98 454/190/111
f 453/189/13 456/192/97 454/190/111
f 460/196/100 461/197/97 462/198/97
f 462/198/97 463/199/100 460/196/100
f 463/199/100 464/200/102 465/201/102
f 465/201/102 460/196/100 463/199/100
f 466/203/103 465/201/102 464/200/102
f 464/200/102 467/202/114 466/203/103
f 468/205/106 469/206/115 470/207/103
f 470/207/103 444/178/12 443/177/108
f 470/207/103 443/177/108 471/208/116
f 468/205/106 470/207/103 471/208/116
f 472/209/3 473/210/3 456/211/3
f 456/211/3 453/212/3 451/213/3
f 451/213/3 449/214/3 447/215/3
f 447/215/3 445/216/3 444/217/3
f 451/213/3 447/215/3 444/217/3
f 456/211/3 451/213/3 444/217/3
f 472/209/3 456/211/3 444/217/3
f 470/218/3 472/209/3 444/217/3
f 474/216/8 475/215/8 476/214/8
f 476/214/8 477/213/8 478/212/8
f 478/212/8 461/211/8 460/210/8
f 460/210/8 465/209/8 466/218/8
f 478/212/8 460/210/8 466/218/8
f 476/214/8 478/212/8 466/218/8
f 474/216/8 476/214/8 466/218/8
f 479/217/8 474/216/8 466/218/8
f 480/142/82 481/143/82 482/144/12
f 482/144/12 483/145/12 480/142/82
f 481/146/14 480/147/14 484/148/83
f 484/148/83 485/149/83 481/146/14
f 485/149/83 484/148/83 486/150/13
f 486/150/13 487/151/13 485/149/83
f 487/151/13 486/150/13 488/152/84
f 488/152/84 489/153/84 487/151/13
f 489/153/84 488/152/84 490/154/85
f 490/154/85 491/155/85 489/153/84
f 482/144/12 491/155/85 490/154/85
f 490/154/85 483/145/12 482/144/12
f 488/156/3 486/157/3 484/158/3
f 484/158/3 480/159/3 483/160/3
f 488/156/3 484/158/3 483/160/3
f 490/161/3 488/156/3 483/160/3
f 492/159/8 493/158/8 494/157/8
f 494/157/8 495/156/8 496/161/8
f 492/159/8 494/157/8 496/161/8
f 497/160/8 492/159/8 496/161/8
f 497/162/12 496/163/85 498/164/85
f 498/164/85 499/165/12 497/162/12
f 499/165/12 500/166/82 492/167/82
f 492/167/82 497/162/12 499/165/12
f 493/168/83 492/169/14 500/170/14
f 500/170/14 501/171/83 493/168/83
f 501/171/83 502/172/13 494/173/13
f 494/173/13 493/168/83 501/171/83
f 495/174/84 494/173/13 502/172/13
f 502/172/13 503/175/84 495/174/84
f 498/164/85 496/163/85 495/174/84
f 495/174/84 503/175/84 498/164/85
f 504/247/107 505/248/88 506/249/88
f 506/249/88 507/250/12 508/251/117
f 506/249/88 508/251/117 509/252/118
f 504/247/107 506/249/88 509/252/118
f 510/253/119 511/254/120 512/255/90
f 512/255/90 506/249/88 505/248/88
f 510/253/119 512/255/90 505/248/88
f 513/256/14 512/255/90 511/254/120
f 511/254/120 514/257/14 513/256/14
f 514/258/92 515/259/93 516/260/93
f 516/260/93 513/261/92 514/258/92
f 517/262/121 518/263/13 516/260/93
f 516/260/93 515/259/93 519/264/122
f 517/262/121 516/260/93 519/264/122
f 520/265/123 517/262/121 519/264/122
f 521/266/124 522/197/97 518/263/13
f 523/267/125 521/266/124 518/263/13
f 523/267/125 518/263/13 517/262/121
f 521/266/124 524/268/126 525/196/100
f 525/196/100 522/197/97 521/266/124
f 526/201/102 525/196/100 524/268/126
f 524/268/126 527/269/127 526/201/102
f 527/269/127 528/270/128 529/203/103
f 529/203/103 526/201/102 527/269/127
f 530/271/129 508/251/117 507/250/12
f 507/250/12 529/203/103 528/270/128
f 530/271/129 507/250/12 528/270/128
f 531/209/3 532/210/3 533/211/3
f 533/211/3 534/212/3 535/213/3
f 535/213/3 536/214/3 537/215/3
f 537/215/3 538/216/3 539/217/3
f 535/213/3 537/215/3 539/217/3
f 533/211/3 535/213/3 539/217/3
f 531/209/3 533/211/3 539/217/3
f 540/218/3 531/209/3 539/217/3
f 506/216/8 512/215/8 513/214/8
f 513/214/8 516/213/8 518/212/8
f 518/212/8 522/211/8 525/210/8
f 525/210/8 526/209/8 529/218/8
f 518/212/8 525/210/8 529/218/8
f 513/214/8 518/212/8 529/218/8
f 506/216/8 513/214/8 529/218/8
f 507/217/8 506/216/8 529/218/8
f 541/219/82 542/220/82 543/221/12
f 543/221/12 544/222/12 541/219/82
f 542/223/14 541/224/14 545/225/83
f 545/225/83 546/226/83 542/223/14
f 546/226/83 545/225/83 547/227/13
f 547/227/13 548/228/13 546/226/83
f 548/228/13 547/227/13 549/229/84
f 549/229/84 550/230/84 548/228/13
f 550/230/84 549/229/84 551/231/85
f 551/231/85 552/232/85 550/230/84
f 543/221/12 552/232/85 551/231/85
f 551/231/85 544/222/12 543/221/12
f 549/156/3 547/157/3 545/158/3
f 545/158/3 541/159/3 544/160/3
f 549/156/3 545/158/3 544/160/3
f 551/161/3 549/156/3 544/160/3
f 553/159/8 554/158/8 555/157/8
f 555/157/8 556/156/8 557/161/8
f 553/159/8 555/157/8 557/161/8
f 558/160/8 553/159/8 557/161/8
f 558/233/12 557/234/85 559/235/85
f 559/235/85 560/236/12 558/233/12
f 560/236/12 561/237/82 553/238/82
f 553/238/82 558/233/12 560/236/12
f 554/239/83 553/240/14 561/241/14
f 561/241/14 562/242/83 554/239/83
f 562/242/83 563/243/13 555/244/13
f 555/244/13 554/239/83 562/242/83
f 556/245/84 555/244/13 563/243/13
f 563/243/13 564/246/84 556/245/84
f 559/235/85 557/234/85 556/245/84
f 556/245/84 564/246/84 559/235/85
f 565/247/118 566/248/130 567/249/88
f 567/249/88 568/250/12 569/251/131
f 567/249/88 569/251/131 570/252/132
f 565/247/118 567/249/88 570/252/132
f 571/255/90 567/249/88 566/248/130
f 566/248/130 572/254/90 571/255/90
f 572/254/90 573/257/14 574/256/14
f 574/256/14 571/255/90 572/254/90
f 575/260/93 574/261/92 573/258/92
f 573/258/92 576/259/93 575/260/93
f 577/262/121 578/263/13 575/260/93
f 575/260/93 576/259/93 579/264/122
f 577/262/121 575/260/93 579/264/122
f 580/265/133 577/262/121 579/264/122
f 581/266/134 582/197/97 578/263/13
f 583/267/135 581/266/134 578/263/13
f 583/267/135 578/263/13 577/262/121
f 581/266/134 584/268/126 585/196/100
f 585/196/100 582/197/97 581/266/134
f 586/201/102 585/196/100 584/268/126
f 584/268/126 587/269/127 586/201/102
f 587/269/127 588/270/136 589/203/103
f 589/203/103 586/201/102 587/269/127
f 590/271/105 569/251/131 568/250/12
f 568/250/12 589/203/103 588/270/136
f 590/271/105 568/250/12 588/270/136
f 591/209/3 592/210/3 593/211/3
f 593/211/3 594/212/3 595/213/3
f 595/213/3 596/214/3 597/215/3
f 597/215/3 598/216/3 599/217/3
f 595/213/3 597/215/3 599/217/3
f 593/211/3 595/213/3 599/217/3
f 591/209/3 593/211/3 599/217/3
f 600/218/3 591/209/3 599/217/3
f 567/216/8 571/215/8 574/214/8
f 574/214/8 575/213/8 578/212/8
f 578/212/8 582/211/8 585/210/8
f 585/210/8 586/209/8 589/218/8
f 578/212/8 585/210/8 589/218/8
f 574/214/8 578/212/8 589/218/8
f 567/216/8 574/214/8 589/218/8
f 568/217/8 567/216/8 589/218/8
f 533/192/97 532/272/100 601/273/126
f 601/273/126 602/274/124 533/192/97
f 603/275/137 604/190/138 534/189/13
f 533/192/97 602/274/124 605/276/137
f 534/189/13 533/192/97 605/276/137
f 603/275/137 534/189/13 605/276/137
f 606/277/127 531/278/102 540/207/103
f 540/207/103 607/279/136 606/277/127
f 601/273/126 532/272/100 531/278/102
f 531/278/102 606/277/127 601/273/126
f 539/178/12 608/177/139 609/280/129
f 539/178/12 609/280/129 610/281/116
f 611/282/140 607/279/136 540/207/103
f 610/281/116 611/282/140 540/207/103
f 539/178/12 610/281/116 540/207/103
f 593/192/97 592/272/100 612/273/126
f 612/273/126 613/274/124 593/192/97
f 614/275/141 615/190/142 594/189/13
f 593/192/97 613/274/124 616/276/143
f 594/189/13 593/192/97 616/276/143
f 614/275/141 594/189/13 616/276/143
f 617/277/127 591/278/102 600/207/103
f 600/207/103 618/279/128 617/277/127
f 612/273/126 592/272/100 591/278/102
f 591/278/102 617/277/127 612/273/126
f 599/178/12 619/177/144 620/280/116
f 599/178/12 620/280/116 621/281/106
f 622/282/145 618/279/128 600/207/103
f 621/281/106 622/282/145 600/207/103
f 599/178/12 621/281/106 600/207/103
f 608/177/139 539/178/12 538/179/88
f 538/179/88 623/283/146 624/284/107
f 538/179/88 624/284/107 625/285/118
f 608/177/139 538/179/88 625/285/118
f 608/177/139 625/285/118 626/286/118
f 619/177/144 599/178/12 598/179/88
f 598/179/88 627/283/147 628/284/148
f 598/179/88 628/284/148 629/285/149
f 619/177/144 598/179/88 629/285/149
f 619/177/144 629/285/149 630/286/150
f 576/259/93 631/287/93 632/288/122
f 632/288/122 633/289/151 634/290/152
f 576/259/93 632/288/122 634/290/152
f 634/290/152 580/265/133 579/264/122
f 576/259/93 634/290/152 579/264/122
f 595/187/93 594/189/13 615/190/142
f 615/190/142 633/289/151 632/288/122
f 595/187/93 615/190/142 632/288/122
f 595/187/93 632/288/122 631/287/93
f 604/190/138 635/289/153 636/288/154
f 637/291/122 638/287/155 535/187/93
f 636/288/154 637/291/122 535/187/93
f 604/190/138 636/288/154 535/187/93
f 604/190/138 535/187/93 534/189/13
f 417/250/12 639/251/156 640/292/86
f 417/250/12 640/292/86 641/293/132
f 642/294/157 643/295/109 412/249/88
f 641/293/132 642/294/157 412/249/88
f 417/250/12 641/293/132 412/249/88
f 644/296/91 413/255/90 412/249/88
f 412/249/88 643/295/109 644/296/91
f 644/296/91 645/297/14 414/256/14
f 414/256/14 413/255/90 644/296/91
f 415/260/93 414/261/92 645/298/92
f 645/298/92 646/299/94 415/260/93
f 647/300/154 648/262/158 416/263/13
f 415/260/93 646/299/94 649/301/154
f 416/263/13 415/260/93 649/301/154
f 647/300/154 416/263/13 649/301/154
f 479/250/12 650/251/156 651/292/132
f 479/250/12 651/292/132 652/293/118
f 653/294/150 654/295/89 474/249/88
f 652/293/118 653/294/150 474/249/88
f 479/250/12 652/293/118 474/249/88
f 655/296/91 475/255/90 474/249/88
f 474/249/88 654/295/89 655/296/91
f 655/296/91 656/297/14 476/256/14
f 476/256/14 475/255/90 655/296/91
f 477/260/93 476/261/92 656/298/92
f 656/298/92 657/299/94 477/260/93
f 658/300/159 659/262/95 478/263/13
f 477/260/93 657/299/94 660/301/160
f 478/263/13 477/260/93 660/301/160
f 658/300/159 478/263/13 660/301/160
f 661/302/98 662/303/161 663/304/98
f 399/198/97 661/302/98 663/304/98
f 663/304/98 396/195/99 395/194/98
f 399/198/97 663/304/98 395/194/98
f 399/198/97 395/194/98 394/193/97
f 398/197/97 416/263/13 648/262/158
f 648/262/158 662/303/161 661/302/98
f 398/197/97 648/262/158 661/302/98
f 398/197/97 661/302/98 399/198/97
f 404/203/103 403/202/103 664/305/105
f 664/305/105 665/306/106 639/251/156
f 404/203/103 664/305/105 639/251/156
f 404/203/103 639/251/156 417/250/12
f 666/302/98 667/303/162 668/304/163
f 462/198/97 666/302/98 668/304/163
f 668/304/163 459/195/113 458/194/98
f 462/198/97 668/304/163 458/194/98
f 462/198/97 458/194/98 457/193/97
f 461/197/97 478/263/13 659/262/95
f 659/262/95 667/303/162 666/302/98
f 461/197/97 659/262/95 666/302/98
f 461/197/97 666/302/98 462/198/97
f 466/203/103 467/202/114 669/305/106
f 669/305/106 670/306/164 650/251/156
f 466/203/103 669/305/106 650/251/156
f 466/203/103 650/251/156 479/250/12
f 671/307/118 626/286/118 625/285/118
f 671/307/118 625/285/118 624/284/107
f 624/284/107 623/283/146 505/248/88
f 624/284/107 505/248/88 504/247/107
f 671/307/118 624/284/107 504/247/107
f 509/252/118 671/307/118 504/247/107
f 672/308/165 673/309/166 511/254/120
f 672/308/165 511/254/120 510/253/119
f 674/310/167 672/308/165 510/253/119
f 623/283/146 674/310/167 510/253/119
f 505/248/88 623/283/146 510/253/119
f 673/309/166 675/311/14 514/257/14
f 514/257/14 511/254/120 673/309/166
f 676/307/168 630/286/150 629/285/149
f 676/307/168 629/285/149 628/284/148
f 628/284/148 627/283/147 566/248/130
f 628/284/148 566/248/130 565/247/118
f 676/307/168 628/284/148 565/247/118
f 570/252/132 676/307/168 565/247/118
f 597/181/90 596/183/14 677/311/14
f 677/311/14 678/309/90 597/181/90
f 627/283/147 678/309/90 572/254/90
f 572/254/90 566/248/130 627/283/147
f 677/312/92 631/287/93 576/259/93
f 576/259/93 573/258/92 677/312/92
f 536/186/92 535/187/93 638/287/155
f 638/287/155 675/312/92 536/186/92
f 537/181/90 673/309/166 672/308/165
f 537/181/90 672/308/165 674/310/167
f 538/179/88 537/181/90 674/310/167
f 623/283/146 538/179/88 674/310/167
f 636/288/154 635/289/153 679/290/122
f 637/291/122 636/288/154 679/290/122
f 679/290/122 520/265/123 519/264/122
f 637/291/122 679/290/122 519/264/122
f 637/291/122 519/264/122 515/259/93
f 637/291/122 515/259/93 638/287/155
f 598/179/88 597/181/90 678/309/90
f 678/309/90 627/283/147 598/179/88
f 537/181/90 536/183/14 675/311/14
f 675/311/14 673/309/166 537/181/90
f 596/186/92 595/187/93 631/287/93
f 631/287/93 677/312/92 596/186/92
f 573/257/14 572/254/90 678/309/90
f 678/309/90 677/311/14 573/257/14
f 514/258/92 675/312/92 638/287/155
f 638/287/155 515/259/93 514/258/92
f 680/313/169 681/314/170 410/278/102
f 682/315/171 680/313/169 410/278/102
f 410/278/102 408/207/103 407/206/103
f 682/315/171 410/278/102 407/206/103
f 403/202/103 407/206/103 406/205/105
f 406/205/105 409/208/106 683/316/105
f 403/202/103 406/205/105 683/316/105
f 664/305/105 403/202/103 683/316/105
f 664/305/105 683/316/105 665/306/106
f 411/272/100 410/278/102 681/314/170
f 681/314/170 684/317/100 411/272/100
f 393/192/97 411/272/100 684/317/100
f 684/317/100 394/193/97 393/192/97
f 473/272/100 472/278/102 685/314/102
f 685/314/102 686/317/100 473/272/100
f 456/192/97 473/272/100 686/317/100
f 686/317/100 457/193/97 456/192/97
f 685/314/102 469/206/115 467/202/114
f 467/202/114 464/200/102 685/314/102
f 467/202/114 469/206/115 468/205/106
f 468/205/106 471/208/116 687/316/116
f 467/202/114 468/205/106 687/316/116
f 669/305/106 467/202/114 687/316/116
f 669/305/106 687/316/116 670/306/164
f 401/200/101 681/314/170 680/313/169
f 407/206/103 403/202/103 405/204/104
f 682/315/171 407/206/103 405/204/104
f 680/313/169 682/315/171 405/204/104
f 401/200/101 680/313/169 405/204/104
f 399/198/97 394/193/97 684/317/100
f 684/317/100 400/199/100 399/198/97
f 401/200/101 400/199/100 684/317/100
f 684/317/100 681/314/170 401/200/101
f 472/278/102 470/207/103 469/206/115
f 469/206/115 685/314/102 472/278/102
f 462/198/97 457/193/97 686/317/100
f 686/317/100 463/199/100 462/198/97
f 464/200/102 463/199/100 686/317/100
f 686/317/100 685/314/102 464/200/102
f 688/318/172 689/319/8 690/320/8
f 690/320/8 691/321/172 688/318/172
f 692/322/173 688/318/172 691/321/172
f 691/321/172 693/323/173 692/322/173
f 694/324/14 692/322/173 693/323/173
f 693/323/173 695/325/14 694/324/14
f 696/326/174 694/327/175 695/328/175
f 695/328/175 697/329/174 696/326/174
f 698/330/3 696/326/174 697/329/174
f 697/329/174 699/331/3 698/330/3
f 700/332/176 698/330/3 699/331/3
f 699/331/3 701/333/176 700/332/176
f 702/334/177 700/332/176 701/333/176
f 701/333/176 703/335/177 702/334/177
f 704/336/178 702/334/177 703/335/177
f 703/335/177 705/337/178 704/336/178
f 706/338/179 704/336/178 705/337/178
f 705/337/178 707/339/179 706/338/179
f 688/340/13 692/341/13 694/342/13
f 694/342/13 696/343/13 698/344/13
f 698/344/13 700/345/13 702/346/13
f 702/346/13 704/347/13 706/348/13
f 698/344/13 702/346/13 706/348/13
f 694/342/13 698/344/13 706/348/13
f 688/340/13 694/342/13 706/348/13
f 689/349/13 688/340/13 706/348/13
f 708/318/172 709/319/8 710/320/8
f 710/320/8 711/321/172 708/318/172
f 712/322/173 708/318/172 711/321/172
f 711/321/172 713/323/173 712/322/173
f 714/324/14 712/322/173 713/323/173
f 713/323/173 715/325/14 714/324/14
f 716/326/174 714/327/175 715/328/175
f 715/328/175 717/329/174 716/326/174
f 718/330/3 716/326/174 717/329/174
f 717/329/174 719/331/3 718/330/3
f 720/332/176 718/330/3 719/331/3
f 719/331/3 721/333/176 720/332/176
f 722/334/177 720/332/176 721/333/176
f 721/333/176 723/335/177 722/334/177
f 724/336/178 722/334/177 723/335/177
f 723/335/177 725/337/178 724/336/178
f 726/338/179 724/336/178 725/337/178
f 725/337/178 727/339/179 726/338/179
f 708/340/13 712/341/13 714/342/13
f 714/342/13 716/343/13 718/344/13
f 718/344/13 720/345/13 722/346/13
f 722/346/13 724/347/13 726/348/13
f 718/344/13 722/346/13 726/348/13
f 714/342/13 718/344/13 726/348/13
f 708/340/13 714/342/13 726/348/13
f 709/349/13 708/340/13 726/348/13
f 728/318/172 729/319/8 730/320/8
f 730/320/8 731/321/172 728/318/172
f 732/322/173 728/318/172 731/321/172
f 731/321/172 733/323/173 732/322/173
f 734/324/14 732/322/173 733/323/173
f 733/323/173 735/325/14 734/324/14
f 736/326/174 734/327/175 735/328/175
f 735/328/175 737/329/174 736/326/174
f 738/330/3 736/326/174 737/329/174
f 737/329/174 739/331/3 738/330/3
f 740/332/176 738/330/3 739/331/3
f 739/331/3 741/333/176 740/332/176
f 742/334/177 740/332/176 741/333/176
f 741/333/176 743/335/177 742/334/177
f 744/336/178 742/334/177 743/335/177
f 743/335/177 745/337/178 744/336/178
f 746/338/179 744/336/178 745/337/178
f 745/337/178 747/339/179 746/338/179
f 728/340/13 732/341/13 734/342/13
f 734/342/13 736/343/13 738/344/13
f 738/344/13 740/345/13 742/346/13
f 742/346/13 744/347/13 746/348/13
f 738/344/13 742/346/13 746/348/13
f 734/342/13 738/344/13 746/348/13
f 728/340/13 734/342/13 746/348/13
f 729/349/13 728/340/13 746/348/13
f 729/319/8 746/338/179 747/339/179
f 747/339/179 730/320/8 729/319/8
f 709/319/8 726/338/179 727/339/179
f 727/339/179 710/320/8 709/319/8
f 748/318/172 749/319/8 750/320/8
f 750/320/8 751/321/172 748/318/172
f 752/322/173 748/318/172 751/321/172
f 751/321/172 753/323/173 752/322/173
f 754/324/14 752/322/173 753/323/173
f 753/323/173 755/325/14 754/324/14
f 756/326/174 754/327/175 755/328/175
f 755/328/175 757/329/174 756/326/174
f 758/330/3 756/326/174 757/329/174
f 757/329/174 759/331/3 758/330/3
f 760/332/176 758/330/3 759/331/3
f 759/331/3 761/333/176 760/332/176
f 762/334/177 760/332/176 761/333/176
f 761/333/176 763/335/177 762/334/177
f 764/336/178 762/334/177 763/335/177
f 763/335/177 765/337/178 764/336/178
f 766/338/179 764/336/178 765/337/178
f 765/337/178 767/339/179 766/338/179
f 748/340/13 752/341/13 754/342/13
f 754/342/13 756/343/13 758/344/13
f 758/344/13 760/345/13 762/346/13
f 762/346/13 764/347/13 766/348/13
f 758/344/13 762/346/13 766/348/13
f 754/342/13 758/344/13 766/348/13
f 748/340/13 754/342/13 766/348/13
f 749/349/13 748/340/13 766/348/13
f 689/319/8 706/338/179 707/339/179
f 707/339/179 690/320/8 689/319/8
f 749/319/8 766/338/179 767/339/179
f 767/339/179 750/320/8 749/319/8
f 768/350/8 769/351/180 770/352/180
f 770/352/180 771/353/8 768/350/8
f 769/351/180 772/354/14 773/355/14
f 773/355/14 770/352/180 769/351/180
f 772/356/71 774/357/3 775/358/3
f 775/358/3 773/359/71 772/356/71
f 774/357/3 776/360/73 777/361/73
f 777/361/73 775/358/3 774/357/3
f 776/360/73 778/362/74 779/363/74
f 779/363/74 777/361/73 776/360/73
f 778/362/74 768/350/8 771/353/8
f 771/353/8 779/363/74 778/362/74
f 776/364/12 774/344/12 772/365/12
f 772/365/12 769/366/12 768/349/12
f 776/364/12 772/365/12 768/349/12
f 778/367/12 776/364/12 768/349/12
f 770/366/13 773/365/13 775/344/13
f 775/344/13 777/364/13 779/367/13
f 770/366/13 775/344/13 779/367/13
f 771/349/13 770/366/13 779/367/13
f 780/350/8 781/351/180 782/352/180
f 782/352/180 783/353/8 780/350/8
f 781/351/180 784/354/14 785/355/14
f 785/355/14 782/352/180 781/351/180
f 784/356/71 786/357/3 787/358/3
f 787/358/3 785/359/71 784/356/71
f 786/357/3 788/360/73 789/361/73
f 789/361/73 787/358/3 786/357/3
f 788/360/73 790/362/74 791/363/74
f 791/363/74 789/361/73 788/360/73
f 790/362/74 780/350/8 783/353/8
f 783/353/8 791/363/74 790/362/74
f 788/364/12 786/344/12 784/365/12
f 784/365/12 781/366/12 780/349/12
f 788/364/12 784/365/12 780/349/12
f 790/367/12 788/364/12 780/349/12
f 782/366/13 785/365/13 787/344/13
f 787/344/13 789/364/13 791/367/13
f 782/366/13 787/344/13 791/367/13
f 783/349/13 782/366/13 791/367/13
f 792/350/8 793/351/180 794/352/180
f 794/352/180 795/353/8 792/350/8
f 793/351/180 796/354/14 797/355/14
f 797/355/14 794/352/180 793/351/180
f 796/356/71 798/357/3 799/358/3
f 799/358/3 797/359/71 796/356/71
f 798/357/3 800/360/73 801/361/73
f 801/361/73 799/358/3 798/357/3
f 800/360/73 802/362/74 803/363/74
f 803/363/74 801/361/73 800/360/73
f 802/362/74 792/350/8 795/353/8
f 795/353/8 803/363/74 802/362/74
f 800/364/12 798/344/12 796/365/12
f 796/365/12 793/366/12 792/349/12
f 800/364/12 796/365/12 792/349/12
f 802/367/12 800/364/12 792/349/12
f 794/366/13 797/365/13 799/344/13
f 799/344/13 801/364/13 803/367/13
f 794/366/13 799/344/13 803/367/13
f 795/349/13 794/366/13 803/367/13
f 804/350/8 805/351/180 806/352/180
f 806/352/180 807/353/8 804/350/8
f 805/351/180 808/354/14 809/355/14
f 809/355/14 806/352/180 805/351/180
f 808/356/71 810/357/3 811/358/3
f 811/358/3 809/359/71 808/356/71
f 810/357/3 812/360/73 813/361/73
f 813/361/73 811/358/3 810/357/3
f 812/360/73 814/362/74 815/363/74
f 815/363/74 813/361/73 812/360/73
f 814/362/74 804/350/8 807/353/8
f 807/353/8 815/363/74 814/362/74
f 812/364/12 810/344/12 808/365/12
f 808/365/12 805/366/12 804/349/12
f 812/364/12 808/365/12 804/349/12
f 814/367/12 812/364/12 804/349/12
f 806/366/13 809/365/13 811/344/13
f 811/344/13 813/364/13 815/367/13
f 806/366/13 811/344/13 815/367/13
f 807/349/13 806/366/13 815/367/13
f 816/368/181 817/369/182 818/370/183
f 818/370/183 819/371/15 816/368/181
f 820/368/8 816/369/184 819/370/185
f 819/370/185 821/371/186 820/368/8
f 822/368/14 820/369/14 821/370/187
f 821/370/187 823/371/14 822/368/14
f 817/368/188 822/369/3 823/370/189
f 823/370/189 818/371/189 817/368/188
f 824/372/15 825/373/15 826/374/190
f 826/374/190 827/375/15 824/372/15
f 828/372/8 824/373/8 827/374/185
f 827/374/185 829/375/191 828/372/8
f 830/372/192 828/373/192 829/374/193
f 829/374/193 831/375/14 830/372/192
f 825/372/3 830/373/3 831/374/189
f 831/374/189 826/375/194 825/372/3
f 832/373/12 833/374/195 834/375/13
f 834/375/13 835/372/12 832/373/12
f 836/372/13 837/373/13 838/374/13
f 838/374/13 839/375/13 836/372/13
f 839/372/15 838/373/15 834/374/196
f 834/374/196 833/375/196 839/372/15
f 836/372/8 839/373/8 833/374/184
f 833/374/184 832/375/8 836/372/8
f 837/372/14 836/373/14 832/374/192
f 832/374/192 835/375/192 837/372/14
f 838/372/3 837/373/3 835/374/3
f 835/374/3 834/375/188 838/372/3
f 840/376/197 841/377/197 842/378/197
f 842/378/197 843/379/197 840/376/197
f 843/379/197 842/378/197 844/380/197
f 844/380/197 845/381/197 843/379/197
f 845/381/197 844/380/197 846/382/197
f 846/382/198 847/383/198 845/381/198
f 841/384/199 848/385/199 849/386/199
f 849/386/199 842/387/199 841/384/199
f 842/388/199 849/389/199 850/390/199
f 850/390/199 844/391/199 842/388/199
f 844/391/199 850/390/199 851/392/199
f 851/392/199 846/382/199 844/391/199
f 840/393/12 843/394/12 852/395/12
f 852/395/12 853/396/12 840/393/12
f 843/394/12 845/397/12 854/398/12
f 854/398/12 852/395/12 843/394/12
f 845/397/12 847/399/12 855/400/12
f 855/400/12 854/398/12 845/397/12
f 853/396/12 852/395/12 856/401/12
f 856/401/12 857/402/12 853/396/12
f 852/395/12 854/398/12 858/403/12
f 858/403/12 856/401/12 852/395/12
f 854/398/12 855/400/12 859/404/12
f 859/404/12 858/403/12 854/398/12
f 847/393/200 846/405/200 860/406/200
f 860/406/200 855/396/200 847/393/200
f 846/407/3 851/408/3 861/409/3
f 861/409/3 860/410/3 846/407/3
f 855/396/200 860/406/200 862/411/200
f 862/411/200 859/402/200 855/396/200
f 860/410/3 861/409/3 863/412/3
f 863/412/3 862/413/3 860/410/3
f 851/393/13 850/394/13 864/395/13
f 864/395/13 861/396/13 851/393/13
f 850/394/13 849/397/13 865/398/13
f 865/398/13 864/395/13 850/394/13
f 849/397/13 848/399/13 866/400/13
f 866/400/13 865/398/13 849/397/13
f 861/414/13 864/415/13 867/416/13
f 867/416/13 863/417/13 861/414/13
f 864/415/13 865/418/13 868/419/13
f 868/419/13 867/416/13 864/415/13
f 865/418/13 866/420/13 869/421/13
f 869/421/13 868/419/13 865/418/13
f 848/422/8 841/423/8 870/424/8
f 870/424/8 866/425/8 848/422/8
f 841/426/201 840/427/201 853/428/201
f 853/428/201 870/429/201 841/426/201
f 866/425/8 870/424/8 871/430/8
f 871/430/8 869/431/8 866/425/8
f 870/429/201 853/428/201 857/432/201
f 857/432/201 871/433/201 870/429/201
f 872/434/15 873/435/15 874/436/15
f 874/436/15 875/437/15 872/434/15
f 876/438/14 877/439/14 878/440/14
f 878/440/14 879/441/14 876/438/14
f 872/442/12 875/443/12 877/444/12
f 877/444/12 876/445/12 872/442/12
f 875/443/3 874/443/3 878/444/3
f 878/444/3 877/444/3 875/443/3
f 874/443/13 873/442/13 879/445/13
f 879/445/13 878/444/13 874/443/13
f 873/442/8 872/442/8 876/445/8
f 876/445/8 879/445/8 873/442/8
f 880/446/15 881/447/15 882/448/15
f 882/448/15 883/449/15 880/446/15
f 884/449/14 885/446/14 886/447/14
f 886/447/14 887/448/14 884/449/14
f 880/449/12 883/446/12 885/447/12
f 885/447/12 884/448/12 880/449/12
f 883/449/3 882/446/3 886/447/3
f 886/447/3 885/448/3 883/449/3
f 882/449/13 881/446/13 887/447/13
f 887/447/13 886/448/13 882/449/13
f 881/449/8 880/446/8 884/447/8
f 884/447/8 887/448/8 881/449/8
f 888/450/202 889/451/202 890/452/202
f 890/452/203 891/453/203 888/450/203
f 891/453/204 890/452/204 892/454/204
f 892/454/204 893/455/204 891/453/204
f 893/455/205 892/454/205 894/456/205
f 894/456/205 895/457/205 893/455/205
f 895/457/206 894/456/206 896/458/206
f 896/458/207 897/459/207 895/457/207
f 897/460/208 896/461/208 898/462/208
f 898/463/209 899/464/209 897/465/209
f 900/450/210 901/466/210 902/467/210
f 902/467/210 903/451/210 900/450/210
f 901/466/211 904/468/212 905/469/211
f 905/469/211 902/467/212 901/466/211
f 904/468/189 906/470/189 907/471/189
f 907/471/189 905/469/189 904/468/189
f 906/470/213 908/472/213 909/473/213
f 909/473/213 907/471/213 906/470/213
f 908/472/214 910/474/214 911/475/214
f 911/475/214 909/473/214 908/472/214
f 888/465/14 891/476/14 901/463/14
f 901/463/14 900/464/14 888/465/14
f 891/465/14 893/476/14 904/463/14
f 904/463/14 901/464/14 891/465/14
f 893/465/14 895/476/14 906/463/14
f 906/463/14 904/464/14 893/465/14
f 895/465/14 897/476/14 908/463/14
f 908/463/14 906/464/14 895/465/14
f 897/465/14 899/476/14 910/463/14
f 910/463/14 908/464/14 897/465/14
f 899/465/12 898/476/12 911/463/12
f 911/463/12 910/464/12 899/465/12
f 898/465/15 896/476/15 909/463/15
f 909/463/15 911/464/15 898/465/15
f 896/465/15 894/476/15 907/463/15
f 907/463/15 909/464/15 896/465/15
f 894/465/15 892/476/15 905/463/15
f 905/463/15 907/464/15 894/465/15
f 892/465/15 890/476/15 902/463/15
f 902/463/15 905/464/15 892/465/15
f 890/465/15 889/476/15 903/463/15
f 903/463/15 902/464/15 890/465/15
f 889/451/8 888/450/8 900/450/8
f 900/450/8 903/451/8 889/451/8
f 912/477/215 913/478/215 914/479/215
f 914/479/216 915/480/216 912/477/216
f 915/480/217 914/479/218 916/481/219
f 916/481/219 917/482/217 915/480/217
f 917/482/220 916/481/220 918/483/220
f 918/483/220 919/484/220 917/482/220
f 919/484/221 918/483/221 920/485/221
f 920/485/222 921/486/222 919/484/222
f 921/460/223 920/461/223 922/462/223
f 922/463/224 923/464/224 921/465/224
f 924/477/225 925/487/225 926/488/225
f 926/488/225 927/478/225 924/477/225
f 925/487/226 928/489/226 929/490/226
f 929/490/226 926/488/226 925/487/226
f 928/489/185 930/491/185 931/492/185
f 931/492/185 929/490/185 928/489/185
f 930/491/227 932/493/227 933/494/227
f 933/494/227 931/492/227 930/491/227
f 932/493/228 934/495/228 935/496/228
f 935/496/228 933/494/228 932/493/228
f 912/465/15 915/476/15 925/463/15
f 925/463/15 924/464/15 912/465/15
f 915/465/15 917/476/15 928/463/15
f 928/463/15 925/464/15 915/465/15
f 917/465/15 919/476/15 930/463/15
f 930/463/15 928/464/15 917/465/15
f 919/465/15 921/476/15 932/463/15
f 932/463/15 930/464/15 919/465/15
f 921/465/15 923/476/15 934/463/15
f 934/463/15 932/464/15 921/465/15
f 923/465/12 922/476/12 935/463/12
f 935/463/12 934/464/12 923/465/12
f 922/465/14 920/476/14 933/463/14
f 933/463/14 935/464/14 922/465/14
f 920/465/14 918/476/14 931/463/14
f 931/463/14 933/464/14 920/465/14
f 918/465/14 916/476/14 929/463/14
f 929/463/14 931/464/14 918/465/14
f 916/465/14 914/476/14 926/463/14
f 926/463/14 929/464/14 916/465/14
f 914/465/14 913/476/14 927/463/14
f 927/463/14 926/464/14 914/465/14
f 913/478/3 912/477/3 924/477/3
f 924/477/3 927/478/3 913/478/3
f 936/446/14 937/447/14 938/448/14
f 938/448/14 939/449/14 936/446/14
f 940/449/15 941/446/15 942/447/15
f 942/447/15 943/448/15 940/449/15
f 936/449/12 939/446/12 941/447/12
f 941/447/12 940/448/12 936/449/12
f 939/449/8 938/446/8 942/447/8
f 942/447/8 941/448/8 939/449/8
f 938/449/13 937/446/13 943/447/13
f 943/447/13 942/448/13 938/449/13
f 937/449/3 936/446/3 940/447/3
f 940/447/3 943/448/3 937/449/3
f 858/497/229 859/498/229 862/499/229
f 862/499/14 863/500/14 867/501/14
f 868/502/14 869/503/14 871/504/14
f 871/504/14 857/505/14 856/506/14
f 856/506/14 858/497/14 862/499/14
f 862/499/14 867/501/14 868/502/14
f 868/502/14 871/504/14 856/506/14
f 862/499/14 868/502/14 856/506/14
f 944/507/28 945/508/230 946/509/231
f 944/507/28 947/510/230 945/508/230
f 947/510/230 948/511/180 945/508/230
f 947/510/230 949/512/180 948/511/180
f 949/512/180 950/513/14 948/511/180
f 949/512/180 951/514/14 950/513/14
f 951/514/14 952/511/69 950/513/14
f 951/514/14 953/512/69 952/511/69
f 953/512/69 954/508/71 952/511/69
f 953/512/69 955/510/71 954/508/71
f 955/510/71 956/509/232 954/508/71
f 955/510/71 957/515/33 956/509/232
f 946/509/231 958/516/230 959/517/8
f 946/509/231 945/508/230 958/516/230
f 945/508/230 960/518/180 958/516/230
f 945/508/230 948/511/180 960/518/180
f 948/511/180 961/519/14 960/518/180
f 948/511/180 950/513/14 961/519/14
f 950/513/14 962/518/69 961/519/14
f 950/513/14 952/511/69 962/518/69
f 952/511/69 963/516/71 962/518/69
f 952/511/69 954/508/71 963/516/71
f 954/508/71 964/517/3 963/516/71
f 954/508/71 956/509/232 964/517/3
f 956/509/232 965/520/72 964/517/3
f 956/509/232 966/521/72 965/520/72
f 966/521/72 967/522/73 965/520/72
f 966/521/72 968/523/73 967/522/73
f 968/523/73 969/524/15 967/522/73
f 968/523/73 970/525/15 969/524/15
f 970/525/15 971/522/74 969/524/15
f 970/525/15 972/523/74 971/522/74
f 972/523/74 973/520/75 971/522/74
f 972/523/74 974/521/75 973/520/75
f 974/521/75 959/517/8 973/520/75
f 974/521/75 946/509/231 959/517/8
f 975/526/13 959/527/13 958/528/13
f 975/526/13 958/528/13 960/529/13
f 975/526/13 960/529/13 961/530/13
f 975/526/13 961/530/13 962/531/13
f 975/526/13 962/531/13 963/532/13
f 975/526/13 963/532/13 964/533/13
f 975/526/13 964/533/13 965/534/13
f 975/526/13 965/534/13 967/535/13
f 975/526/13 967/535/13 969/536/13
f 975/526/13 969/536/13 971/537/13
f 975/526/13 971/537/13 973/538/13
f 975/526/13 973/538/13 959/527/13
f 3/2/2 8/539/5 5/5/2
f 4/6/3 9/540/233 6/7/3
f 1/2/4 10/11/234 7/9/4
f 3/1/8 2/2/8 11/11/9
f 15/2/2 20/539/62 17/5/2
f 16/2/3 19/539/3 18/13/3
f 13/2/4 24/11/4 22/9/4
f 15/14/8 14/541/8 21/15/8
f 830/372/192 832/374/192 828/373/192
f 830/372/192 835/375/192 832/374/192
f 829/375/191 827/375/15 826/374/190
f 826/375/194 831/375/14 829/374/193
f 829/375/10 827/374/10 827/375/10
f 826/375/10 831/374/10 831/375/10
f 818/370/10 818/371/10 823/370/10
f 821/370/10 821/371/10 819/370/10
f 823/371/14 821/370/235 819/10/15
f 818/370/183 819/371/15 818/371/14
f 821/370/187 823/371/14 821/371/14
f 818/10/10 823/370/10 823/371/10
f 819/10/15 819/10/236 818/10/237
f 819/10/15 818/10/189 823/371/14
f 821/370/10 821/10/10 819/10/10
f 833/374/14 833/375/196 834/374/196
f 816/10/184 834/10/238 817/10/188
f 833/10/14 833/10/15 833/10/14
f 834/10/14 834/10/14 834/10/15
f 816/10/10 833/10/10 833/10/10
f 833/10/13 834/10/14 834/10/196
f 816/10/10 816/10/10 833/10/10
f 816/10/184 833/10/13 834/10/238
f 817/10/14 817/10/182 816/10/239
f 833/374/13 834/375/13 833/375/15
