# generated by tools/objdedupe/dedupe.py -- do not hand-edit.
# Re-run the tool after touching sssr_2svet_nove.obj, sssr_3svet_nove.obj, sssr_4svet_nove.obj, sssr_5svet_nove.obj, sssr_2se_nove.obj, sssr_3ab_nove.obj, sssr_4ab_nove.obj, sssr_pr_nove.obj, sssr_vl_nove.obj.
o stoz_4vj_nater
v -0.040607 0.695268 -0.011641
vt 0.040216 0.706192
vn -0.965900 -0.000000 0.258800
v -0.035177 0.876768 0.008627
vt 0.145000 0.990617
vn -0.866000 -0.000000 0.500000
v -0.040607 0.876768 -0.011641
vt 0.040216 0.990617
v -0.035177 0.695268 0.008627
vt 0.145000 0.706192
v -0.020340 0.876768 0.023464
vt 0.287813 0.990617
vn -0.500000 -0.000000 0.866000
v -0.020340 0.695268 0.023464
vt 0.287813 0.706192
v -0.000072 0.876768 0.028894
vt 0.500000 0.990617
vn -0.000000 -0.000000 1.000000
v -0.000072 0.695268 0.028894
vt 0.500000 0.706192
v 0.020196 0.876768 0.023464
vt 0.712187 0.990617
vn 0.500000 -0.000000 0.866000
v 0.020196 0.695268 0.023464
vt 0.712187 0.706192
v 0.035033 0.876768 0.008627
vt 0.855000 0.990617
vn 0.866000 -0.000000 0.500000
v 0.035033 0.695268 0.008627
vt 0.855000 0.706192
v 0.040463 0.876768 -0.011641
vt 0.959784 0.990617
vn 0.965900 -0.000000 0.258800
v 0.040463 0.695268 -0.011641
vt 0.959784 0.706192
v -0.035177 1.058267 0.008627
vt 0.145000 0.703200
v -0.040607 1.058267 -0.011641
vt 0.040216 0.703200
v -0.020340 1.058267 0.023464
vt 0.287813 0.703200
v -0.000072 1.058267 0.028894
vt 0.500000 0.703200
v 0.020196 1.058267 0.023464
vt 0.712187 0.703200
v 0.035033 1.058267 0.008627
vt 0.855000 0.703200
v 0.040463 1.058267 -0.011641
vt 0.959784 0.703200
vt -0.003372 0.692630
v -0.035177 1.239767 0.008627
vt 0.165346 0.329681
v -0.040607 1.239767 -0.011641
vt -0.001998 0.329681
vt 0.079919 0.692630
v -0.020340 1.239767 0.023464
vt 0.332688 0.329681
vt 0.163209 0.692630
v -0.000072 1.239767 0.028894
vt 0.500031 0.329681
vt 0.246500 0.692630
v 0.020196 1.239767 0.023464
vt 0.667375 0.329681
vt 0.329791 0.692630
v 0.035033 1.239767 0.008627
vt 0.834717 0.329681
vt 0.413082 0.692630
v 0.040463 1.239767 -0.011641
vt 1.002060 0.329682
vt 0.496373 0.692630
v -0.035177 1.421268 0.008627
vt 0.165345 0.693391
v -0.040607 1.421268 -0.011641
vt -0.001998 0.693391
v -0.020340 1.421268 0.023464
vt 0.332687 0.693391
v -0.000072 1.421268 0.028894
vt 0.500031 0.693391
v 0.020196 1.421268 0.023464
vt 0.667374 0.693391
v 0.035033 1.421268 0.008627
vt 0.834716 0.693391
v 0.040463 1.421268 -0.011641
vt 1.002060 0.693391
vt 0.040216 0.990491
v -0.035177 1.602767 0.008627
vt 0.145000 0.703602
v -0.040607 1.602767 -0.011641
vt 0.040216 0.703602
vt 0.145000 0.990491
v -0.020340 1.602767 0.023464
vt 0.287813 0.703602
vt 0.287813 0.990491
v -0.000072 1.602767 0.028894
vt 0.500000 0.703602
vt 0.500000 0.990491
v 0.020196 1.602767 0.023464
vt 0.712187 0.703602
vt 0.712187 0.990491
v 0.035033 1.602767 0.008627
vt 0.855000 0.703602
vt 0.855000 0.990491
v 0.040463 1.602767 -0.011641
vt 0.959784 0.703602
vt 0.959784 0.990491
v -0.035177 1.784268 0.008627
vt 0.145000 0.983750
v -0.040607 1.784268 -0.011641
vt 0.040216 0.983750
v -0.020340 1.784268 0.023464
vt 0.287813 0.983750
v -0.000072 1.784268 0.028894
vt 0.500000 0.983750
v 0.020196 1.784268 0.023464
vt 0.712187 0.983750
v 0.035033 1.784268 0.008627
vt 0.855000 0.983750
v 0.040463 1.784268 -0.011641
vt 0.959784 0.983750
vt 0.996373 0.692374
v -0.035177 1.965768 0.008627
vt 0.913081 0.512258
v -0.040607 1.965768 -0.011641
vt 0.996372 0.512258
vt 0.913082 0.692374
v -0.020340 1.965768 0.023464
vt 0.829791 0.512258
vt 0.829791 0.692374
v -0.000072 1.965768 0.028894
vt 0.746500 0.512258
vt 0.746500 0.692374
v 0.020196 1.965768 0.023464
vt 0.663208 0.512258
vt 0.663208 0.692374
v 0.035033 1.965768 0.008627
vt 0.579918 0.512258
vt 0.579918 0.692374
v 0.040463 1.965768 -0.011641
vt 0.496627 0.512258
vt 0.496627 0.692374
v -0.035177 2.147268 0.008627
vt 0.913081 0.332143
v -0.040607 2.147268 -0.011641
vt 0.996372 0.332143
v -0.020340 2.147268 0.023464
vt 0.829791 0.332143
v -0.000072 2.147268 0.028894
vt 0.746500 0.332143
v 0.020196 2.147268 0.023464
vt 0.663208 0.332143
v 0.035033 2.147268 0.008627
vt 0.579918 0.332143
v 0.040463 2.147268 -0.011641
vt 0.496627 0.332143
vt 0.040216 0.993782
v -0.035177 2.328768 0.008627
vt 0.145000 0.703249
v -0.040607 2.328768 -0.011641
vt 0.040216 0.703249
vt 0.145000 0.993782
v -0.020340 2.328768 0.023464
vt 0.287813 0.703249
vt 0.287813 0.993782
v -0.000072 2.328768 0.028894
vt 0.500000 0.703249
vt 0.500000 0.993782
v 0.020196 2.328768 0.023464
vt 0.712187 0.703249
vt 0.712187 0.993782
v 0.035033 2.328768 0.008627
vt 0.855000 0.703249
vt 0.855000 0.993782
v 0.040463 2.328768 -0.011641
vt 0.959784 0.703249
vt 0.959784 0.993782
v -0.035177 2.510267 0.008627
vt 0.145000 0.993970
v -0.040607 2.510267 -0.011641
vt 0.040216 0.993970
v -0.020340 2.510267 0.023464
vt 0.287813 0.993970
v -0.000072 2.510267 0.028894
vt 0.500000 0.993970
v 0.020196 2.510267 0.023464
vt 0.712187 0.993970
v 0.035033 2.510267 0.008627
vt 0.855000 0.993970
v 0.040463 2.510267 -0.011641
vt 0.959784 0.993970
vt 0.496372 0.692375
v -0.035177 2.691768 0.008627
vt 0.413081 0.512259
v -0.040607 2.691768 -0.011641
vt 0.496372 0.512259
vt 0.413081 0.692375
v -0.020340 2.691768 0.023464
vt 0.329791 0.512259
vt 0.329791 0.692375
v -0.000072 2.691768 0.028894
vt 0.246500 0.512259
vt 0.246500 0.692375
v 0.020196 2.691768 0.023464
vt 0.163209 0.512259
vt 0.163209 0.692375
v 0.035033 2.691768 0.008627
vt 0.079918 0.512259
vt 0.079918 0.692375
v 0.040463 2.691768 -0.011641
vt -0.003373 0.512259
vt -0.003373 0.692375
v -0.035177 2.873268 0.008627
vt 0.413081 0.332143
v -0.040607 2.873268 -0.011641
vt 0.496372 0.332143
v -0.020340 2.873268 0.023464
vt 0.329790 0.332143
v -0.000072 2.873268 0.028894
vt 0.246500 0.332143
v 0.020196 2.873268 0.023464
vt 0.163209 0.332143
v 0.035033 2.873268 0.008627
vt 0.079918 0.332143
v 0.040463 2.873268 -0.011641
vt -0.003373 0.332143
f 1/1/1 2/2/2 3/3/1
f 1/1/1 4/4/2 2/2/2
f 4/4/2 5/5/3 2/2/2
f 4/4/2 6/6/3 5/5/3
f 6/6/3 7/7/4 5/5/3
f 6/6/3 8/8/4 7/7/4
f 8/8/4 9/9/5 7/7/4
f 8/8/4 10/10/5 9/9/5
f 10/10/5 11/11/6 9/9/5
f 10/10/5 12/12/6 11/11/6
f 12/12/6 13/13/7 11/11/6
f 12/12/6 14/14/7 13/13/7
f 3/3/1 15/15/2 16/16/1
f 3/3/1 2/2/2 15/15/2
f 2/2/2 17/17/3 15/15/2
f 2/2/2 5/5/3 17/17/3
f 5/5/3 18/18/4 17/17/3
f 5/5/3 7/7/4 18/18/4
f 7/7/4 19/19/5 18/18/4
f 7/7/4 9/9/5 19/19/5
f 9/9/5 20/20/6 19/19/5
f 9/9/5 11/11/6 20/20/6
f 11/11/6 21/21/7 20/20/6
f 11/11/6 13/13/7 21/21/7
f 16/22/1 22/23/2 23/24/1
f 16/22/1 15/25/2 22/23/2
f 15/25/2 24/26/3 22/23/2
f 15/25/2 17/27/3 24/26/3
f 17/27/3 25/28/4 24/26/3
f 17/27/3 18/29/4 25/28/4
f 18/29/4 26/30/5 25/28/4
f 18/29/4 19/31/5 26/30/5
f 19/31/5 27/32/6 26/30/5
f 19/31/5 20/33/6 27/32/6
f 20/33/6 28/34/7 27/32/6
f 20/33/6 21/35/7 28/34/7
f 23/24/1 29/36/2 30/37/1
f 23/24/1 22/23/2 29/36/2
f 22/23/2 31/38/3 29/36/2
f 22/23/2 24/26/3 31/38/3
f 24/26/3 32/39/4 31/38/3
f 24/26/3 25/28/4 32/39/4
f 25/28/4 33/40/5 32/39/4
f 25/28/4 26/30/5 33/40/5
f 26/30/5 34/41/6 33/40/5
f 26/30/5 27/32/6 34/41/6
f 27/32/6 35/42/7 34/41/6
f 27/32/6 28/34/7 35/42/7
f 30/43/1 36/44/2 37/45/1
f 30/43/1 29/46/2 36/44/2
f 29/46/2 38/47/3 36/44/2
f 29/46/2 31/48/3 38/47/3
f 31/48/3 39/49/4 38/47/3
f 31/48/3 32/50/4 39/49/4
f 32/50/4 40/51/5 39/49/4
f 32/50/4 33/52/5 40/51/5
f 33/52/5 41/53/6 40/51/5
f 33/52/5 34/54/6 41/53/6
f 34/54/6 42/55/7 41/53/6
f 34/54/6 35/56/7 42/55/7
f 37/45/1 43/57/2 44/58/1
f 37/45/1 36/44/2 43/57/2
f 36/44/2 45/59/3 43/57/2
f 36/44/2 38/47/3 45/59/3
f 38/47/3 46/60/4 45/59/3
f 38/47/3 39/49/4 46/60/4
f 39/49/4 47/61/5 46/60/4
f 39/49/4 40/51/5 47/61/5
f 40/51/5 48/62/6 47/61/5
f 40/51/5 41/53/6 48/62/6
f 41/53/6 49/63/7 48/62/6
f 41/53/6 42/55/7 49/63/7
f 44/64/1 50/65/2 51/66/1
f 44/64/1 43/67/2 50/65/2
f 43/67/2 52/68/3 50/65/2
f 43/67/2 45/69/3 52/68/3
f 45/69/3 53/70/4 52/68/3
f 45/69/3 46/71/4 53/70/4
f 46/71/4 54/72/5 53/70/4
f 46/71/4 47/73/5 54/72/5
f 47/73/5 55/74/6 54/72/5
f 47/73/5 48/75/6 55/74/6
f 48/75/6 56/76/7 55/74/6
f 48/75/6 49/77/7 56/76/7
f 51/66/1 57/78/2 58/79/1
f 51/66/1 50/65/2 57/78/2
f 50/65/2 59/80/3 57/78/2
f 50/65/2 52/68/3 59/80/3
f 52/68/3 60/81/4 59/80/3
f 52/68/3 53/70/4 60/81/4
f 53/70/4 61/82/5 60/81/4
f 53/70/4 54/72/5 61/82/5
f 54/72/5 62/83/6 61/82/5
f 54/72/5 55/74/6 62/83/6
f 55/74/6 63/84/7 62/83/6
f 55/74/6 56/76/7 63/84/7
f 58/85/1 64/86/2 65/87/1
f 58/85/1 57/88/2 64/86/2
f 57/88/2 66/89/3 64/86/2
f 57/88/2 59/90/3 66/89/3
f 59/90/3 67/91/4 66/89/3
f 59/90/3 60/92/4 67/91/4
f 60/92/4 68/93/5 67/91/4
f 60/92/4 61/94/5 68/93/5
f 61/94/5 69/95/6 68/93/5
f 61/94/5 62/96/6 69/95/6
f 62/96/6 70/97/7 69/95/6
f 62/96/6 63/98/7 70/97/7
f 65/87/1 71/99/2 72/100/1
f 65/87/1 64/86/2 71/99/2
f 64/86/2 73/101/3 71/99/2
f 64/86/2 66/89/3 73/101/3
f 66/89/3 74/102/4 73/101/3
f 66/89/3 67/91/4 74/102/4
f 67/91/4 75/103/5 74/102/4
f 67/91/4 68/93/5 75/103/5
f 68/93/5 76/104/6 75/103/5
f 68/93/5 69/95/6 76/104/6
f 69/95/6 77/105/7 76/104/6
f 69/95/6 70/97/7 77/105/7
f 72/106/1 78/107/2 79/108/1
f 72/106/1 71/109/2 78/107/2
f 71/109/2 80/110/3 78/107/2
f 71/109/2 73/111/3 80/110/3
f 73/111/3 81/112/4 80/110/3
f 73/111/3 74/113/4 81/112/4
f 74/113/4 82/114/5 81/112/4
f 74/113/4 75/115/5 82/114/5
f 75/115/5 83/116/6 82/114/5
f 75/115/5 76/117/6 83/116/6
f 76/117/6 84/118/7 83/116/6
f 76/117/6 77/119/7 84/118/7
f 79/108/1 85/120/2 86/121/1
f 79/108/1 78/107/2 85/120/2
f 78/107/2 87/122/3 85/120/2
f 78/107/2 80/110/3 87/122/3
f 80/110/3 88/123/4 87/122/3
f 80/110/3 81/112/4 88/123/4
f 81/112/4 89/124/5 88/123/4
f 81/112/4 82/114/5 89/124/5
f 82/114/5 90/125/6 89/124/5
f 82/114/5 83/116/6 90/125/6
f 83/116/6 91/126/7 90/125/6
f 83/116/6 84/118/7 91/126/7
