# generated by tools/objdedupe/dedupe.py -- do not hand-edit.
# Re-run the tool after touching sssr_2svet_nove.obj, sssr_3svet_nove.obj, sssr_4svet_nove.obj, sssr_5svet_nove.obj, sssr_2se_nove.obj, sssr_3ab_nove.obj, sssr_4ab_nove.obj, sssr_pr_nove.obj, sssr_vl_nove.obj.
o stoz_pr2_cisla
v -0.023595 2.064563 0.040716
vt 0.794132 0.041293
vn -0.000000 -1.000000 -0.000000
v -0.040868 2.064563 0.023444
vt 0.845929 0.011388
v -0.047190 2.064563 -0.000151
vt 0.905739 0.011388
v -0.040868 2.064563 -0.023746
vt 0.957536 0.041293
v -0.023595 2.064563 -0.041019
vt 0.987441 0.093090
v 0.000000 2.064563 -0.047341
vt 0.987441 0.152900
v 0.023595 2.064563 -0.041019
vt 0.957536 0.204697
v 0.040868 2.064563 -0.023746
vt 0.905739 0.234602
v 0.047190 2.064563 -0.000151
vt 0.845929 0.234602
v 0.040868 2.064563 0.023444
vt 0.794132 0.204697
v 0.023595 2.064563 0.040716
vt 0.764227 0.152900
v 0.000000 2.064563 0.047039
vt 0.764227 0.093090
v -0.040868 2.073637 0.023444
vt 0.987441 0.234602
vn -0.965900 -0.000000 0.258800
v -0.047190 2.073637 -0.000151
vt 0.764227 0.234602
vt 0.764227 0.011388
vt 0.987441 0.011388
v -0.023595 2.073637 0.040716
vn -0.707100 -0.000000 0.707100
v 0.000000 2.073637 0.047039
vn -0.258900 -0.000000 0.965900
vn -0.258800 -0.000000 0.965900
v 0.023595 2.073637 0.040716
vn 0.258900 -0.000000 0.965900
vn 0.258800 -0.000000 0.965900
v 0.040868 2.073637 0.023444
vn 0.707100 -0.000000 0.707100
v 0.047190 2.073637 -0.000151
vn 0.965900 -0.000000 0.258800
v 0.040868 2.073637 -0.023746
vn 0.965900 -0.000000 -0.258800
v 0.023595 2.073637 -0.041019
vn 0.707100 -0.000000 -0.707100
v 0.000000 2.073637 -0.047341
vn 0.258800 -0.000000 -0.965900
v -0.023595 2.073637 -0.041019
vn -0.258800 -0.000000 -0.965900
v -0.040868 2.073637 -0.023746
vn -0.707100 -0.000000 -0.707100
vn -0.965900 -0.000000 -0.258800
vn -0.000000 1.000000 -0.000000
v -0.006050 1.840713 0.051274
v -0.006050 1.840713 0.045224
v 0.006050 1.840713 0.045224
v 0.006050 1.840713 0.051274
v -0.006050 2.073637 0.051274
v 0.006050 2.073637 0.051274
v 0.006050 2.073637 0.045224
v -0.006050 2.073637 0.045224
vn -0.000000 -0.000000 1.000000
vn 1.000000 -0.000000 -0.000000
vn -1.000000 -0.000000 -0.000000
v -0.023595 1.840713 0.040716
v -0.040868 1.840713 0.023444
v -0.047190 1.840713 -0.000151
v -0.040868 1.840713 -0.023746
v -0.023595 1.840713 -0.041019
v 0.000000 1.840713 -0.047341
v 0.023595 1.840713 -0.041019
v 0.040868 1.840713 -0.023746
v 0.047190 1.840713 -0.000151
v 0.040868 1.840713 0.023444
v 0.023595 1.840713 0.040716
v 0.000000 1.840713 0.047039
v -0.040868 1.849787 0.023444
v -0.047190 1.849787 -0.000151
v -0.023595 1.849787 0.040716
v 0.000000 1.849787 0.047039
v 0.023595 1.849787 0.040716
v 0.040868 1.849787 0.023444
v 0.047190 1.849787 -0.000151
v 0.040868 1.849787 -0.023746
v 0.023595 1.849787 -0.041019
v 0.000000 1.849787 -0.047341
v -0.023595 1.849787 -0.041019
v -0.040868 1.849787 -0.023746
v -0.033275 1.855837 0.057021
v -0.033275 1.855837 0.050971
v 0.033275 1.855837 0.050971
v 0.033275 1.855837 0.057021
v -0.033275 1.952638 0.057021
v 0.033275 1.952638 0.057021
v 0.033275 1.952638 0.050971
v -0.033275 1.952638 0.050971
vt 0.499622 0.000009
vt 0.750326 0.000009
vt 0.750326 0.249054
vt 0.499622 0.249054
vn -0.000000 -0.000000 -1.000000
v -0.033275 1.961713 0.057021
v -0.033275 1.961713 0.050971
v 0.033275 1.961713 0.050971
v 0.033275 1.961713 0.057021
v -0.033275 2.058512 0.057021
v 0.033275 2.058512 0.057021
v 0.033275 2.058512 0.050971
v -0.033275 2.058512 0.050971
vt 0.249581 0.000114
vt 0.499682 0.000114
vt 0.499682 0.248931
vt 0.249581 0.248931
f 1/1/1 2/2/1 3/3/1
f 3/3/1 4/4/1 5/5/1
f 5/5/1 6/6/1 7/7/1
f 3/3/1 5/5/1 7/7/1
f 7/7/1 8/8/1 9/9/1
f 9/9/1 10/10/1 11/11/1
f 7/7/1 9/9/1 11/11/1
f 3/3/1 7/7/1 11/11/1
f 1/1/1 3/3/1 11/11/1
f 1/1/1 11/11/1 12/12/1
f 13/13/2 14/14/2 3/15/2
f 3/15/2 2/16/2 13/13/2
f 15/13/3 13/14/3 2/15/3
f 2/15/3 1/16/3 15/13/3
f 16/13/4 15/14/5 1/15/5
f 1/15/5 12/16/4 16/13/4
f 17/13/6 16/14/7 12/15/7
f 12/15/7 11/16/6 17/13/6
f 18/13/8 17/14/8 11/15/8
f 11/15/8 10/16/8 18/13/8
f 19/13/9 18/14/9 10/15/9
f 10/15/9 9/16/9 19/13/9
f 20/13/10 19/14/10 9/15/10
f 9/15/10 8/16/10 20/13/10
f 21/13/11 20/14/11 8/15/11
f 8/15/11 7/16/11 21/13/11
f 22/13/12 21/14/12 7/15/12
f 7/15/12 6/16/12 22/13/12
f 23/13/13 22/14/13 6/15/13
f 6/15/13 5/16/13 23/13/13
f 24/13/14 23/14/14 5/15/14
f 5/15/14 4/16/14 24/13/14
f 14/13/15 24/14/15 4/15/15
f 4/15/15 3/16/15 14/13/15
f 21/1/16 22/2/16 23/3/16
f 23/3/16 24/4/16 14/5/16
f 14/5/16 13/6/16 15/7/16
f 23/3/16 14/5/16 15/7/16
f 15/7/16 16/8/16 17/9/16
f 17/9/16 18/10/16 19/11/16
f 15/7/16 17/9/16 19/11/16
f 23/3/16 15/7/16 19/11/16
f 21/1/16 23/3/16 19/11/16
f 21/1/16 19/11/16 20/12/16
f 25/13/1 26/14/1 27/15/1
f 27/15/1 28/16/1 25/13/1
f 29/13/16 30/14/16 31/15/16
f 31/15/16 32/16/16 29/13/16
f 25/13/17 28/14/17 30/15/17
f 30/15/17 29/16/17 25/13/17
f 28/13/18 27/14/18 31/15/18
f 31/15/18 30/16/18 28/13/18
f 26/13/19 25/14/19 29/15/19
f 29/15/19 32/16/19 26/13/19
f 33/1/1 34/2/1 35/3/1
f 35/3/1 36/4/1 37/5/1
f 37/5/1 38/6/1 39/7/1
f 35/3/1 37/5/1 39/7/1
f 39/7/1 40/8/1 41/9/1
f 41/9/1 42/10/1 43/11/1
f 39/7/1 41/9/1 43/11/1
f 35/3/1 39/7/1 43/11/1
f 33/1/1 35/3/1 43/11/1
f 33/1/1 43/11/1 44/12/1
f 45/13/2 46/14/2 35/15/2
f 35/15/2 34/16/2 45/13/2
f 47/13/3 45/14/3 34/15/3
f 34/15/3 33/16/3 47/13/3
f 48/13/5 47/14/5 33/15/5
f 33/15/5 44/16/5 48/13/5
f 49/13/7 48/14/7 44/15/7
f 44/15/7 43/16/7 49/13/7
f 50/13/8 49/14/8 43/15/8
f 43/15/8 42/16/8 50/13/8
f 51/13/9 50/14/9 42/15/9
f 42/15/9 41/16/9 51/13/9
f 52/13/10 51/14/10 41/15/10
f 41/15/10 40/16/10 52/13/10
f 53/13/11 52/14/11 40/15/11
f 40/15/11 39/16/11 53/13/11
f 54/13/12 53/14/12 39/15/12
f 39/15/12 38/16/12 54/13/12
f 55/13/13 54/14/13 38/15/13
f 38/15/13 37/16/13 55/13/13
f 56/13/14 55/14/14 37/15/14
f 37/15/14 36/16/14 56/13/14
f 46/13/15 56/14/15 36/15/15
f 36/15/15 35/16/15 46/13/15
f 53/1/16 54/2/16 55/3/16
f 55/3/16 56/4/16 46/5/16
f 46/5/16 45/6/16 47/7/16
f 55/3/16 46/5/16 47/7/16
f 47/7/16 48/8/16 49/9/16
f 49/9/16 50/10/16 51/11/16
f 47/7/16 49/9/16 51/11/16
f 55/3/16 47/7/16 51/11/16
f 53/1/16 55/3/16 51/11/16
f 53/1/16 51/11/16 52/12/16
f 57/13/1 58/14/1 59/15/1
f 59/15/1 60/16/1 57/13/1
f 61/13/16 62/14/16 63/15/16
f 63/15/16 64/16/16 61/13/16
f 57/17/17 60/18/17 62/19/17
f 62/19/17 61/20/17 57/17/17
f 60/13/18 59/14/18 63/15/18
f 63/15/18 62/16/18 60/13/18
f 59/13/20 58/14/20 64/15/20
f 64/15/20 63/16/20 59/13/20
f 58/13/19 57/14/19 61/15/19
f 61/15/19 64/16/19 58/13/19
f 65/13/1 66/14/1 67/15/1
f 67/15/1 68/16/1 65/13/1
f 69/13/16 70/14/16 71/15/16
f 71/15/16 72/16/16 69/13/16
f 65/21/17 68/22/17 70/23/17
f 70/23/17 69/24/17 65/21/17
f 68/13/18 67/14/18 71/15/18
f 71/15/18 70/16/18 68/13/18
f 67/13/20 66/14/20 72/15/20
f 72/15/20 71/16/20 67/13/20
f 66/13/19 65/14/19 69/15/19
f 69/15/19 72/16/19 66/13/19
