# generated by tools/objdedupe/dedupe.py -- do not hand-edit.
# Re-run the tool after touching sssr_2svet_nove.obj, sssr_3svet_nove.obj, sssr_4svet_nove.obj, sssr_5svet_nove.obj, sssr_2se_nove.obj, sssr_3ab_nove.obj, sssr_4ab_nove.obj, sssr_pr_nove.obj, sssr_vl_nove.obj.
o stoz_2_zaklad
v -0.090750 1.156492 -0.199094
vt 0.794261 0.502427
vn -0.000000 0.994300 0.106200
v -0.084700 1.156492 -0.199094
vt 0.935169 0.502427
v -0.084700 1.159706 -0.229173
vt 0.935169 0.002628
vn -0.000000 0.994300 0.106300
v -0.090750 1.159706 -0.229173
vt 0.794261 0.002628
vn -0.000000 0.106300 -0.994300
v -0.085566 -0.000001 -0.353110
vt 0.914990 0.074202
vt 0.996710 0.496678
vn -1.000000 -0.000000 -0.000000
v -0.090750 -0.000001 -0.348743
vt 0.989419 0.071723
vt 0.937772 0.495768
vn -0.000000 -0.106300 0.994300
v -0.089869 -0.000001 -0.322687
vt 0.914655 0.075389
v -0.084700 -0.000001 -0.322687
vt 0.000000 0.000000
vn -0.000000 -1.000000 -0.000000
v -0.090750 -0.000001 -0.322687
v -0.090750 -0.000001 -0.353110
vn 1.000000 -0.000000 -0.000000
vt 0.935169 0.075389
vn 0.729900 0.683600 -0.000000
v -0.084700 -0.000000 -0.327106
vt 0.914703 0.075217
vn -0.000000 -0.000000 -0.000000
v 0.084700 1.156492 -0.199094
v 0.090750 1.156492 -0.199094
v 0.090750 1.159706 -0.229173
v 0.084700 1.159706 -0.229173
v 0.089884 -0.000001 -0.353110
v -0.084700 -0.000001 -0.353110
v 0.084700 -0.000001 -0.348743
vt 0.914942 0.074372
v 0.084700 -0.000001 -0.353110
v 0.090750 -0.000001 -0.353110
v 0.090750 -0.000001 -0.322687
v 0.085581 -0.000001 -0.322687
vt 0.997924 0.499013
vt 0.937579 0.077150
v 0.090750 -0.000000 -0.327106
vt 0.946343 0.076980
v 0.084700 -0.000001 -0.322687
v 0.060500 1.376073 -0.002945
v 0.060500 1.376073 0.003105
v -0.060500 1.376073 0.003105
v -0.060500 1.376073 -0.002945
v 0.060500 1.406323 -0.002945
vn -0.000000 1.000000 -0.000000
v -0.060500 1.406323 -0.002945
v -0.060500 1.406323 0.003105
v 0.060500 1.406323 0.003105
vn -0.000000 -0.000000 -1.000000
vn -0.000000 -0.000000 1.000000
v -0.090613 1.376073 -0.176958
v -0.084609 1.376073 -0.177695
v -0.052167 1.376073 -0.001275
v -0.058172 1.376073 -0.000538
v -0.090613 1.406323 -0.176957
v -0.058172 1.406323 -0.000538
v -0.052167 1.406323 -0.001275
v -0.084609 1.406323 -0.177695
vn -0.983500 -0.000000 0.180900
vn 0.983500 -0.000000 -0.180900
v 0.084608 1.376073 -0.177695
v 0.090613 1.376073 -0.176958
v 0.058171 1.376073 -0.000538
v 0.052167 1.376073 -0.001275
v 0.084608 1.406323 -0.177695
v 0.052167 1.406323 -0.001275
v 0.058171 1.406323 -0.000538
v 0.090613 1.406323 -0.176958
vn -0.983500 -0.000000 -0.180900
vn 0.983500 -0.000000 0.180900
v -0.084700 1.159576 -0.229168
vn -0.000000 -0.994300 -0.106300
v -0.084700 1.156362 -0.199089
vn -0.000000 -0.994300 -0.106200
v -0.090750 1.156362 -0.199089
v -0.090750 1.159576 -0.229168
v -0.084700 2.623577 -0.072866
v -0.090750 2.623577 -0.072866
v -0.090750 2.623577 -0.042787
v -0.084700 2.623577 -0.042787
vn -0.000000 0.106200 -0.994300
vn -0.000000 -0.105900 0.994400
v 0.090750 1.159576 -0.229168
v 0.090750 1.156362 -0.199089
v 0.084700 1.156362 -0.199089
v 0.084700 1.159576 -0.229168
v 0.090750 2.623577 -0.072866
v 0.084700 2.623577 -0.072866
v 0.084700 2.623577 -0.042787
v 0.090750 2.623577 -0.042787
v -0.047190 2.593320 0.000080
vn -0.965900 -0.000000 0.258800
v -0.040868 2.593320 0.023675
v -0.040868 2.623569 0.023675
v -0.047190 2.623569 0.000080
vn -0.707100 -0.000000 0.707100
v -0.023595 2.593320 0.040948
v -0.023595 2.623569 0.040948
vn -0.258800 -0.000000 0.965900
v 0.000000 2.593320 0.047270
v 0.000000 2.623569 0.047270
vn 0.258800 -0.000000 0.965900
v 0.023595 2.593320 0.040948
v 0.023595 2.623569 0.040948
vn 0.707100 -0.000000 0.707100
v 0.040868 2.593320 0.023675
v 0.040868 2.623569 0.023675
vn 0.965900 -0.000000 0.258800
v 0.047190 2.593320 0.000080
v 0.047190 2.623569 0.000080
vn 0.965900 -0.000000 -0.258800
v 0.040868 2.593320 -0.023515
v 0.040868 2.623570 -0.023515
vn 0.707100 -0.000000 -0.707100
v 0.023595 2.593320 -0.040788
v 0.023595 2.623569 -0.040788
vn 0.258800 -0.000000 -0.965900
v 0.000000 2.593320 -0.047110
v 0.000000 2.623569 -0.047110
vn -0.258800 -0.000000 -0.965900
v -0.023595 2.593320 -0.040788
v -0.023595 2.623569 -0.040788
vn -0.707100 -0.000000 -0.707100
v -0.040868 2.593320 -0.023515
v -0.040868 2.623570 -0.023515
vn -0.965900 -0.000000 -0.258800
vt 0.852090 0.350552
vt 0.885191 0.350552
vt 0.913859 0.357967
vt 0.930410 0.370810
vt 0.930410 0.385638
vt 0.913859 0.398481
vt 0.885191 0.405895
vt 0.852090 0.405895
vt 0.823422 0.398481
vt 0.806871 0.385638
vt 0.806871 0.370810
vt 0.823422 0.357967
vn 0.000100 1.000000 -0.000000
vn -0.000000 1.000000 -0.000100
vn -0.000100 1.000000 -0.000000
v -0.047190 1.376073 0.000080
v -0.040868 1.376073 0.023675
v -0.040868 1.406323 0.023675
v -0.047190 1.406323 0.000080
v -0.023595 1.376073 0.040948
v -0.023595 1.406323 0.040948
v 0.000000 1.376073 0.047270
v 0.000000 1.406323 0.047270
v 0.023595 1.376073 0.040948
v 0.023595 1.406323 0.040948
v 0.040868 1.376073 0.023675
v 0.040868 1.406323 0.023675
v 0.047190 1.376073 0.000080
v 0.047190 1.406323 0.000080
v 0.040868 1.376073 -0.023515
v 0.040868 1.406323 -0.023515
v 0.023595 1.376073 -0.040788
v 0.023595 1.406323 -0.040788
v 0.000000 1.376073 -0.047110
v 0.000000 1.406323 -0.047110
v -0.023595 1.376073 -0.040788
v -0.023595 1.406323 -0.040788
v -0.040868 1.376073 -0.023515
v -0.040868 1.406323 -0.023515
v -0.080189 2.593333 -0.028568
vt 0.926526 0.402035
v -0.085639 2.593333 -0.025943
vt 0.803962 0.402035
v -0.090706 2.593333 -0.048145
vt 0.803962 0.293440
v -0.084656 2.593333 -0.048145
vt 0.926526 0.306279
v -0.067669 2.593333 -0.012868
v -0.071441 2.593333 -0.008138
vn -0.000000 -1.000000 -0.000100
v -0.049577 2.593333 -0.004156
v -0.050923 2.593333 0.001742
vn -0.000000 -1.000000 0.000100
v 0.049577 2.593333 -0.004156
v 0.050923 2.593333 0.001742
vt 0.926526 0.296310
v 0.067669 2.593333 -0.012868
v 0.071441 2.593333 -0.008138
v 0.080189 2.593333 -0.028568
v 0.085639 2.593333 -0.025943
v 0.084656 2.593333 -0.048145
v 0.090706 2.593333 -0.048145
v -0.080189 2.623582 -0.028568
v -0.084656 2.623582 -0.048145
vt 0.818453 0.402035
v -0.090706 2.623582 -0.048145
v -0.085639 2.623582 -0.025943
vt 0.926526 0.293440
v -0.067669 2.623582 -0.012868
v -0.071441 2.623582 -0.008138
v -0.049577 2.623582 -0.004156
v -0.050923 2.623582 0.001742
v 0.049577 2.623582 -0.004156
vt 0.807201 0.402035
v 0.050923 2.623582 0.001742
v 0.067669 2.623582 -0.012868
v 0.071441 2.623582 -0.008138
v 0.080189 2.623582 -0.028568
v 0.085639 2.623582 -0.025943
v 0.084656 2.623582 -0.048145
v 0.090706 2.623582 -0.048145
vn -0.974900 -0.000000 0.222500
vn -0.781900 -0.000000 0.623500
vn -0.433800 -0.000000 0.901000
vn -0.433900 -0.000000 0.901000
vn 0.433800 -0.000000 0.901000
vn 0.433900 -0.000000 0.901000
vn 0.781900 -0.000000 0.623500
vn 0.974900 -0.000000 0.222500
vn -0.974900 -0.000000 -0.222500
vn -0.781800 -0.000000 -0.623500
vn -0.433900 -0.000000 -0.901000
vn 0.433900 -0.000000 -0.901000
vn 0.781800 -0.000000 -0.623500
vn 0.974900 -0.000000 -0.222500
v 0.087725 0.272303 -0.312056
v 0.087725 0.271660 -0.306040
v -0.087725 0.271660 -0.306040
v -0.087725 0.272303 -0.312056
v 0.087725 0.284335 -0.310770
v -0.087725 0.284335 -0.310770
v -0.087725 0.283692 -0.304754
v 0.087725 0.283692 -0.304754
v 0.087725 0.484053 -0.289308
v 0.087725 0.483410 -0.283292
v -0.087725 0.483410 -0.283292
v -0.087725 0.484053 -0.289308
v 0.087725 0.496085 -0.288022
v -0.087725 0.496085 -0.288022
v -0.087725 0.495442 -0.282006
v 0.087725 0.495442 -0.282006
v 0.087725 0.695803 -0.266560
v 0.087725 0.695160 -0.260544
v -0.087725 0.695160 -0.260544
v -0.087725 0.695803 -0.266560
v 0.087725 0.707835 -0.265274
v -0.087725 0.707835 -0.265274
v -0.087725 0.707192 -0.259258
v 0.087725 0.707192 -0.259258
v 0.087725 0.907553 -0.243812
v 0.087725 0.906910 -0.237796
v -0.087725 0.906910 -0.237796
v -0.087725 0.907553 -0.243812
v 0.087725 0.919585 -0.242526
v -0.087725 0.919585 -0.242526
v -0.087725 0.918942 -0.236510
v 0.087725 0.918942 -0.236510
v 0.087725 1.119303 -0.221064
v 0.087725 1.118660 -0.215048
v -0.087725 1.118660 -0.215048
v -0.087725 1.119303 -0.221064
v 0.087725 1.131335 -0.219778
v -0.087725 1.131335 -0.219778
v -0.087725 1.130692 -0.213762
v 0.087725 1.130692 -0.213762
v 0.087725 1.331053 -0.198316
v 0.087725 1.330410 -0.192300
v -0.087725 1.330410 -0.192300
v -0.087725 1.331053 -0.198316
v 0.087725 1.343085 -0.197030
v -0.087725 1.343085 -0.197030
v -0.087725 1.342442 -0.191014
v 0.087725 1.342442 -0.191014
v 0.087725 1.542803 -0.175568
v 0.087725 1.542160 -0.169552
v -0.087725 1.542160 -0.169552
v -0.087725 1.542803 -0.175568
v 0.087725 1.554835 -0.174282
v -0.087725 1.554835 -0.174282
v -0.087725 1.554192 -0.168266
v 0.087725 1.554192 -0.168266
v 0.087725 1.754553 -0.152820
v 0.087725 1.753910 -0.146804
v -0.087725 1.753910 -0.146804
v -0.087725 1.754553 -0.152820
v 0.087725 1.766584 -0.151534
vn -0.000000 0.994400 0.106100
v -0.087725 1.766584 -0.151534
v -0.087725 1.765942 -0.145518
v 0.087725 1.765942 -0.145518
v 0.087725 1.966303 -0.130072
v 0.087725 1.965660 -0.124056
v -0.087725 1.965660 -0.124056
v -0.087725 1.966303 -0.130072
v 0.087725 1.978334 -0.128786
v -0.087725 1.978334 -0.128786
v -0.087725 1.977692 -0.122770
v 0.087725 1.977692 -0.122770
v 0.087725 2.178053 -0.107324
v 0.087725 2.177410 -0.101308
v -0.087725 2.177410 -0.101308
v -0.087725 2.178053 -0.107324
v 0.087725 2.190084 -0.106038
v -0.087725 2.190084 -0.106038
v -0.087725 2.189442 -0.100022
v 0.087725 2.189442 -0.100022
v 0.087725 2.389803 -0.084576
v 0.087725 2.389160 -0.078560
v -0.087725 2.389160 -0.078560
v -0.087725 2.389803 -0.084576
v 0.087725 2.401834 -0.083290
v -0.087725 2.401834 -0.083290
v -0.087725 2.401192 -0.077274
v 0.087725 2.401192 -0.077274
v -0.102850 0.036300 0.175450
vn -0.000000 0.800000 0.600000
v -0.090750 0.036300 0.175450
vt 1.000000 0.000000
v -0.090750 0.054450 0.151250
vt 1.000000 1.000000
v -0.102850 0.054450 0.151250
vt 0.000000 1.000000
v -0.102850 0.054450 -0.151250
vn -0.000000 0.800000 -0.600000
v -0.090750 0.054450 -0.151250
v -0.090750 0.036300 -0.175450
v -0.102850 0.036300 -0.175450
v -0.102850 0.018150 0.193600
vt 0.710457 0.823482
vn -0.000000 0.707100 0.707100
v -0.090750 0.018150 0.193600
vt 0.861514 0.823482
vt 0.866433 0.892552
vt 0.715376 0.892552
v -0.090750 0.018150 0.151250
v -0.090750 0.018150 -0.151250
v -0.090750 0.018150 -0.193600
vn -0.000000 0.707100 -0.707100
v -0.102850 0.018150 -0.193600
v -0.102850 0.018150 -0.151250
v -0.102850 0.018150 0.151250
v 0.090750 0.036300 0.175450
v 0.102850 0.036300 0.175450
v 0.102850 0.054450 0.151250
v 0.090750 0.054450 0.151250
v 0.090750 0.054450 -0.151250
v 0.102850 0.054450 -0.151250
v 0.102850 0.036300 -0.175450
v 0.090750 0.036300 -0.175450
v 0.090750 0.018150 0.193600
v 0.102850 0.018150 0.193600
v 0.102850 0.018150 0.151250
v 0.102850 0.018150 -0.151250
v 0.102850 0.018150 -0.193600
v 0.090750 0.018150 -0.193600
v 0.090750 0.018150 -0.151250
v 0.090750 0.018150 0.151250
v -0.111925 0.018150 -0.175450
vn 0.866000 -0.000000 -0.500000
v -0.119488 0.042350 -0.188549
v -0.111925 0.042350 -0.175450
v -0.119488 0.018150 -0.188549
v -0.134613 0.042350 -0.188549
v -0.134613 0.018150 -0.188549
vn -0.866000 -0.000000 -0.500000
v -0.142175 0.042350 -0.175450
v -0.142175 0.018150 -0.175450
vn -0.866000 -0.000000 0.500000
v -0.134613 0.042350 -0.162351
v -0.134613 0.018150 -0.162351
v -0.119488 0.042350 -0.162351
v -0.119488 0.018150 -0.162351
vn 0.866000 -0.000000 0.500000
v -0.127050 0.042350 -0.175450
v 0.142175 0.018150 -0.175450
v 0.134613 0.042350 -0.188549
v 0.142175 0.042350 -0.175450
v 0.134613 0.018150 -0.188549
v 0.119488 0.042350 -0.188549
v 0.119488 0.018150 -0.188549
v 0.111925 0.042350 -0.175450
v 0.111925 0.018150 -0.175450
v 0.119488 0.042350 -0.162351
v 0.119488 0.018150 -0.162351
v 0.134613 0.042350 -0.162351
v 0.134613 0.018150 -0.162351
v 0.127050 0.042350 -0.175450
v -0.111925 0.018150 0.175450
v -0.119488 0.042350 0.162351
v -0.111925 0.042350 0.175450
v -0.119488 0.018150 0.162351
v -0.134613 0.042350 0.162351
v -0.134613 0.018150 0.162351
v -0.142175 0.042350 0.175450
v -0.142175 0.018150 0.175450
v -0.134613 0.042350 0.188549
v -0.134613 0.018150 0.188549
v -0.119488 0.042350 0.188549
v -0.119488 0.018150 0.188549
v -0.127050 0.042350 0.175450
v 0.142175 0.018150 0.175450
v 0.134613 0.042350 0.162351
v 0.142175 0.042350 0.175450
v 0.134613 0.018150 0.162351
v 0.119488 0.042350 0.162351
v 0.119488 0.018150 0.162351
v 0.111925 0.042350 0.175450
v 0.111925 0.018150 0.175450
v 0.119488 0.042350 0.188549
v 0.119488 0.018150 0.188549
v 0.134613 0.042350 0.188549
v 0.134613 0.018150 0.188549
v 0.127050 0.042350 0.175450
v -0.120526 0.054450 -0.180190
vn 0.951000 -0.000000 -0.309200
v -0.118985 0.054450 -0.175450
v -0.118985 0.042350 -0.175450
v -0.120526 0.042350 -0.180190
v -0.124558 0.054450 -0.183120
vn 0.587900 -0.000000 -0.809000
v -0.124558 0.042350 -0.183120
v -0.129542 0.054450 -0.183120
v -0.129542 0.042350 -0.183120
v -0.133574 0.054450 -0.180190
vn -0.587900 -0.000000 -0.809000
v -0.133574 0.042350 -0.180190
v -0.135115 0.054450 -0.175450
vn -0.951000 -0.000000 -0.309200
v -0.135115 0.042350 -0.175450
v -0.133574 0.054450 -0.170710
vn -0.951000 -0.000000 0.309200
v -0.133574 0.042350 -0.170710
v -0.129542 0.054450 -0.167780
vn -0.587900 -0.000000 0.809000
v -0.129542 0.042350 -0.167780
v -0.124558 0.054450 -0.167780
v -0.124558 0.042350 -0.167780
v -0.120526 0.054450 -0.170710
vn 0.587900 -0.000000 0.809000
v -0.120526 0.042350 -0.170710
v 0.133574 0.054450 -0.180190
v 0.135115 0.054450 -0.175450
v 0.135115 0.042350 -0.175450
v 0.133574 0.042350 -0.180190
v 0.129542 0.054450 -0.183120
v 0.129542 0.042350 -0.183120
v 0.124558 0.054450 -0.183120
v 0.124558 0.042350 -0.183120
v 0.120526 0.054450 -0.180190
v 0.120526 0.042350 -0.180190
v 0.118985 0.054450 -0.175450
v 0.118985 0.042350 -0.175450
v 0.120526 0.054450 -0.170710
v 0.120526 0.042350 -0.170710
v 0.124558 0.054450 -0.167780
v 0.124558 0.042350 -0.167780
v 0.129542 0.054450 -0.167780
v 0.129542 0.042350 -0.167780
v 0.133574 0.054450 -0.170710
v 0.133574 0.042350 -0.170710
v -0.120526 0.054450 0.170710
v -0.118985 0.054450 0.175450
v -0.118985 0.042350 0.175450
v -0.120526 0.042350 0.170710
v -0.124558 0.054450 0.167780
v -0.124558 0.042350 0.167780
v -0.129542 0.054450 0.167780
v -0.129542 0.042350 0.167780
v -0.133574 0.054450 0.170710
v -0.133574 0.042350 0.170710
v -0.135115 0.054450 0.175450
v -0.135115 0.042350 0.175450
v -0.133574 0.054450 0.180190
v -0.133574 0.042350 0.180190
v -0.129542 0.054450 0.183120
v -0.129542 0.042350 0.183120
v -0.124558 0.054450 0.183120
v -0.124558 0.042350 0.183120
v -0.120526 0.054450 0.180190
v -0.120526 0.042350 0.180190
v 0.133574 0.054450 0.170710
v 0.135115 0.054450 0.175450
v 0.135115 0.042350 0.175450
v 0.133574 0.042350 0.170710
v 0.129542 0.054450 0.167780
v 0.129542 0.042350 0.167780
v 0.124558 0.054450 0.167780
v 0.124558 0.042350 0.167780
v 0.120526 0.054450 0.170710
v 0.120526 0.042350 0.170710
v 0.118985 0.054450 0.175450
v 0.118985 0.042350 0.175450
v 0.120526 0.054450 0.180190
v 0.120526 0.042350 0.180190
v 0.124558 0.054450 0.183120
v 0.124558 0.042350 0.183120
v 0.129542 0.054450 0.183120
v 0.129542 0.042350 0.183120
v 0.133574 0.054450 0.180190
v 0.133574 0.042350 0.180190
vn 0.951000 -0.000000 0.309200
v -0.151250 0.018150 0.151250
vt 0.500198 0.505327
v 0.151250 0.018150 0.151250
vt 1.000000 0.505327
v 0.151250 0.369050 0.151250
vt 1.000000 0.958432
v -0.151250 0.369050 0.151250
vt 0.500198 0.958432
v 0.151250 0.018150 -0.151250
v 0.151250 0.369050 -0.151250
v -0.151250 0.018150 -0.151250
v -0.151250 0.369050 -0.151250
v -0.130075 0.393250 0.130075
vt 0.601336 0.585927
v 0.130075 0.393250 0.130075
vt 0.900388 0.585927
v 0.130075 0.393250 -0.130075
vt 0.900388 0.884979
v -0.130075 0.393250 -0.130075
vt 0.601336 0.884979
vt 0.500355 0.951937
vn -0.000000 0.447200 0.894400
vt 0.998965 0.954578
v 0.145200 0.381150 0.145200
vt 0.995487 0.924293
vn -0.000000 0.562900 0.826500
v -0.145200 0.381150 0.145200
vt 0.506621 0.926249
vn -0.000000 0.563000 0.826500
vt 0.978358 0.945309
vn -0.000000 0.780900 0.624700
vt 0.524395 0.942869
vt 0.500336 0.951923
vn 0.894400 0.447200 -0.000000
vt 0.998907 0.954611
v 0.145200 0.381150 -0.145200
vt 0.995423 0.924347
vn 0.826500 0.562900 -0.000000
vt 0.506699 0.926265
vt 0.506663 0.926235
vn 0.624700 0.780900 -0.000000
vt 0.978332 0.945286
vt 0.524395 0.942771
vn -0.000000 0.447200 -0.894400
vt 0.500355 0.951938
v -0.145200 0.381150 -0.145200
vt 0.506621 0.926252
vn -0.000000 0.562900 -0.826500
vt 0.995487 0.924295
vn -0.000000 0.563000 -0.826500
vt 0.524574 0.942870
vn -0.000000 0.780900 -0.624700
vt 0.978358 0.945311
vn -0.894400 0.447200 -0.000000
vn -0.826500 0.562900 -0.000000
vn -0.826500 0.563000 -0.000000
vt 0.524396 0.942771
vn -0.624700 0.780900 -0.000000
vt 0.978332 0.945285
v -0.111925 0.090448 0.166375
vt 0.692158 0.718517
v -0.111925 0.090448 0.151250
vt 0.862272 0.718517
v 0.111925 0.090448 0.151250
vt 0.859930 0.836566
v 0.111925 0.090448 0.166375
vt 0.689817 0.836566
v -0.111925 0.314298 0.166375
v 0.111925 0.314298 0.166375
v 0.111925 0.314298 0.151250
v -0.111925 0.314298 0.151250
vt 0.498347 0.000000
vt 0.498347 0.500171
vt 0.000000 0.500171
v 0.027225 0.420172 0.047155
vt 0.177506 0.503805
v 0.000000 0.420172 0.054450
vt 0.126199 0.503805
v -0.027225 0.420172 0.047155
vt 0.115225 0.503805
v -0.047155 0.420172 0.027225
vt 0.147525 0.503805
v -0.054450 0.420172 -0.000000
vt 0.214444 0.503805
v -0.047155 0.420172 -0.027225
vt 0.298050 0.503805
v -0.027225 0.420172 -0.047155
vt 0.375942 0.503805
v 0.000000 0.420172 -0.054450
vt 0.427249 0.503805
v 0.027225 0.420172 -0.047155
vt 0.438223 0.503805
v 0.047155 0.420172 -0.027225
vt 0.405923 0.503805
v 0.054450 0.420172 -0.000000
vt 0.373623 0.503805
v 0.047155 0.420172 0.027225
vt 0.255398 0.503805
v 0.047155 0.689700 -0.027225
vt 0.405923 1.000000
v 0.054450 0.689700 -0.000000
vt 0.373623 1.000000
vt 0.219423 0.877242
vt 0.190959 0.905706
v 0.027225 0.689700 -0.047155
vt 0.050626 0.503805
vt 0.082926 0.503805
v 0.000000 0.689700 -0.054450
vt 0.082925 1.000000
vn 0.000100 -0.000000 -1.000000
vt 0.050626 1.000000
vt 0.082925 0.503805
vn -0.500000 -0.000000 -0.866000
v -0.027225 0.689700 -0.047155
vt 0.115225 1.000000
vn -0.000100 -0.000000 -1.000000
v -0.047155 0.689700 -0.027225
vt 0.147525 1.000000
vt 0.179825 0.503805
v -0.054450 0.689700 -0.000000
vt 0.179825 1.000000
vt 0.212124 0.503805
v -0.047155 0.689700 0.027225
vt 0.212124 1.000000
vt 0.244424 0.503805
vn -0.500000 -0.000000 0.866000
v -0.027225 0.689700 0.047155
vt 0.244424 1.000000
vt 0.276724 0.503805
v 0.000000 0.689700 0.054450
vt 0.276724 1.000000
vt 0.309024 0.503805
vn 0.500000 -0.000000 0.866000
v 0.027225 0.689700 0.047155
vt 0.309024 1.000000
vt 0.341323 0.503805
v 0.047155 0.689700 0.027225
vt 0.341323 1.000000
vt 0.229842 0.838359
vt 0.152076 0.916124
vt 0.113194 0.905706
vt 0.084730 0.877242
vt 0.074311 0.838359
vt 0.084730 0.799477
vt 0.113194 0.771013
vt 0.152076 0.760594
vt 0.190959 0.771013
vt 0.219423 0.799477
vt 0.154427 0.924774
v 0.066550 0.689700 -0.009075
vt 0.139826 0.944241
v 0.052019 0.689700 -0.009075
vt 0.139826 0.920862
v -0.090750 0.441650 0.009075
vt 0.283141 1.000000
vn -0.763800 0.645500 -0.000000
v -0.090750 0.441650 -0.009075
vt 0.237258 1.000000
v -0.108900 0.420172 -0.009075
vt 0.237258 0.506849
v -0.108900 0.420172 0.009075
vt 0.283141 0.506849
v -0.066550 0.689700 0.009075
vn -0.995300 0.097100 -0.000000
v -0.066550 0.689700 -0.009075
vt 0.488967 0.553445
vt 0.494749 0.498130
v -0.052019 0.420172 0.009075
vt 0.440344 0.498130
v -0.052019 0.441650 0.009075
vt 0.440344 0.553445
v -0.052019 0.689700 0.009075
vt 0.440344 0.994848
vt 0.488532 0.994848
v 0.090750 0.441650 -0.009075
vn 0.763800 0.645500 -0.000000
v 0.090750 0.441650 0.009075
v 0.108900 0.420172 0.009075
v 0.108900 0.420172 -0.009075
vn 0.995300 0.097100 -0.000000
v 0.066550 0.689700 0.009075
vt 0.006581 0.553445
vt 0.000798 0.498130
v 0.052019 0.420172 -0.009075
vt 0.055204 0.498130
v 0.052019 0.441650 -0.009075
vt 0.055204 0.553445
vt 0.055204 0.994848
vt 0.007016 0.994848
vt 0.153259 0.765840
v -0.015125 0.689700 -0.066550
vt 0.171694 0.751092
v -0.015125 0.689700 -0.050397
vt 0.171694 0.770780
v 0.015125 0.438323 0.066550
vn -0.000000 0.554700 0.832100
v -0.015125 0.438323 0.066550
v -0.015125 0.420172 0.078650
v 0.015125 0.420172 0.078650
v 0.015125 0.689700 0.066550
v -0.015125 0.689700 0.066550
v 0.015125 0.420172 -0.050397
vt 0.058277 0.505827
v 0.015125 0.420172 -0.078650
vt 0.006804 0.505827
v 0.015125 0.438323 -0.066550
vt 0.008428 0.551118
v 0.015125 0.438323 -0.050397
vt 0.058277 0.551118
v 0.015125 0.689700 -0.050397
vt 0.058277 0.999500
v 0.015125 0.689700 -0.066550
vt 0.008428 0.999500
v -0.015125 0.438323 -0.066550
vn -0.000000 0.554700 -0.832100
v -0.015125 0.420172 -0.078650
v -0.015125 0.420172 -0.050397
v -0.015125 0.438323 -0.050397
vt 0.058277 0.999501
vt 0.008428 0.999501
v 0.052019 0.441650 0.009075
v 0.052019 0.420172 0.009075
v -0.052019 0.441650 -0.009075
v -0.052019 0.420172 -0.009075
v 0.015125 0.420172 0.050397
vt 0.441178 0.505827
v 0.015125 0.438323 0.050397
vt 0.441178 0.551118
vt 0.491028 0.551118
vt 0.492651 0.505827
v -0.015125 0.438323 0.050397
v -0.015125 0.420172 0.050397
vt 0.169027 0.730102
vt 0.169027 0.753482
v -0.052305 0.689700 0.008007
vt 0.167308 0.753021
vt 0.154427 0.749570
v -0.052019 0.689700 -0.009075
vt 0.491028 0.999500
v 0.015125 0.689700 0.050397
vt 0.441178 0.999500
vt 0.134824 0.913319
vt 0.134824 0.893631
vt 0.153259 0.898571
vt 0.491028 0.999501
v -0.015125 0.689700 0.050397
vt 0.441178 0.999501
v 0.052019 0.689700 0.009075
vt 0.169027 0.920862
vt 0.169027 0.944241
vt 0.134824 0.770780
vt 0.134824 0.751092
vt 0.139826 0.730102
vt 0.139826 0.753482
v -0.013171 0.689700 0.050921
vt 0.169312 0.894269
vt 0.171694 0.893631
vt 0.171694 0.913319
v -0.072600 0.436810 0.040541
vt 0.286266 0.807357
vn -0.000000 -0.866000 -0.500000
v -0.048400 0.436810 0.040541
vt 0.335091 0.807783
v -0.048400 0.432273 0.048400
vt 0.335518 0.758909
v -0.072600 0.432273 0.048400
vt 0.286693 0.758483
vt 0.337651 0.514539
vt 0.288825 0.514113
v -0.072600 0.445885 0.040541
vt 0.288399 0.562987
vn -0.000000 0.500000 -0.866000
v -0.048400 0.445885 0.040541
vt 0.337224 0.563413
v -0.072600 0.450422 0.048400
vt 0.287972 0.611861
v -0.048400 0.450422 0.048400
vt 0.336798 0.612287
v -0.072600 0.445885 0.056259
vt 0.287546 0.660735
vn -0.000000 0.500000 0.866000
v -0.048400 0.445885 0.056259
vt 0.336371 0.661161
v -0.072600 0.436810 0.056259
vt 0.287119 0.709609
vn -0.000000 -0.500000 0.866000
v -0.048400 0.436810 0.056259
vt 0.335944 0.710035
vt 0.364145 0.793565
vt 0.339120 0.839141
vt 0.364145 0.884716
vt 0.414195 0.884716
vt 0.439220 0.839141
vt 0.414195 0.793565
v 0.072600 0.436810 0.040541
v 0.072600 0.445885 0.040541
v 0.072600 0.450422 0.048400
v 0.072600 0.445885 0.056259
v 0.072600 0.436810 0.056259
v 0.072600 0.432273 0.048400
vt 0.286603 0.758346
vt 0.287029 0.709472
v 0.048400 0.436810 0.056259
vt 0.335854 0.709898
v 0.048400 0.432273 0.048400
vt 0.335428 0.758772
v 0.048400 0.436810 0.040541
vt 0.335001 0.807647
vt 0.286176 0.807220
vt 0.288309 0.562850
vt 0.288735 0.513976
vt 0.337560 0.514402
v 0.048400 0.445885 0.040541
vt 0.337134 0.563276
v 0.048400 0.450422 0.048400
vt 0.336707 0.612150
vt 0.287882 0.611724
vt 0.287456 0.660598
v 0.048400 0.445885 0.056259
vt 0.336281 0.661024
v -0.027225 0.423602 0.047155
vt 0.184137 0.851110
vn -0.000000 -0.951000 -0.309300
v -0.022579 0.423197 0.048400
vt 0.178421 0.847688
vn 0.000100 -0.965800 0.259100
v -0.048400 0.423197 0.048400
vt 0.210188 0.847688
v -0.048400 0.426664 0.037731
vt 0.210188 0.877014
vn -0.000000 -0.809000 -0.587800
v -0.036648 0.426664 0.037731
vt 0.195730 0.877014
vn -0.000000 -0.875400 -0.483300
v -0.048400 0.435739 0.031138
vt 0.210188 0.906339
vn -0.000000 -0.309000 -0.951100
v -0.043242 0.435739 0.031138
vt 0.203842 0.906339
vn -0.000000 -0.353300 -0.935500
v -0.048400 0.446956 0.031138
vt 0.210188 0.935665
v -0.043242 0.446956 0.031138
vt 0.203842 0.935665
vt 0.203842 0.642410
vn -0.000000 0.587800 -0.809000
vt 0.210188 0.642410
v -0.048400 0.456031 0.037731
vt 0.210188 0.671735
vn -0.000000 0.809000 -0.587800
v -0.036648 0.456031 0.037731
vt 0.195730 0.671735
vn -0.000000 0.875500 -0.483300
v -0.048400 0.459497 0.048400
vt 0.210188 0.701061
v -0.022579 0.459497 0.048400
vt 0.178421 0.701061
vn -0.000000 0.965900 0.258900
v -0.027225 0.459093 0.047155
vt 0.184137 0.697639
vn -0.000000 0.951000 -0.309000
v -0.048400 0.456031 0.059069
vt 0.210188 0.730386
vn -0.000000 0.809000 0.587800
v -0.015125 0.456031 0.059069
vt 0.169250 0.730386
v -0.015125 0.457063 0.055894
vt 0.169250 0.721659
vn -0.000000 0.951100 0.309000
v -0.015125 0.458848 0.050397
vt 0.169250 0.706551
vn -0.000000 0.951100 0.308800
v 0.048400 0.446956 0.065662
vt 0.091097 0.759712
vn -0.000000 0.309000 0.951100
v 0.048400 0.456031 0.059069
vt 0.091097 0.730386
v 0.015125 0.456031 0.059069
vt 0.132035 0.730386
v 0.015125 0.446956 0.065662
vt 0.132035 0.759712
v 0.015125 0.435739 0.065662
vt 0.132035 0.789037
vn -0.000000 -0.309700 0.950800
v 0.048400 0.435739 0.065662
vt 0.091097 0.789037
vn -0.000000 -0.309000 0.951100
v 0.015125 0.426664 0.059069
vt 0.132035 0.818363
vn -0.000000 -0.809000 0.587800
v 0.048400 0.426664 0.059069
vt 0.091097 0.818363
v 0.015125 0.435600 0.065561
vt 0.132035 0.789486
vn -0.000000 -0.588400 0.808600
v -0.015125 0.425632 0.055893
vt 0.169250 0.827091
vn -0.000000 -0.951100 0.309000
v -0.015125 0.426664 0.059069
vt 0.169250 0.818363
v -0.048400 0.426664 0.059069
vt 0.210188 0.818363
v -0.015125 0.423847 0.050397
vt 0.169250 0.842198
v -0.048400 0.435739 0.065662
vt 0.161636 0.796197
v -0.048400 0.446956 0.065662
vt 0.116504 0.796197
vt 0.079991 0.824090
vt 0.066044 0.869222
vt 0.079991 0.914355
vt 0.116504 0.942248
vt 0.161636 0.942248
vt 0.198149 0.914355
vt 0.212096 0.869222
vt 0.198149 0.824090
v 0.048400 0.426664 0.037731
v 0.048400 0.435739 0.031138
v 0.048400 0.446956 0.031138
v 0.048400 0.456031 0.037731
v 0.048400 0.459497 0.048400
v 0.048400 0.423197 0.048400
v -0.072600 0.666710 0.040541
v -0.048400 0.666710 0.040541
vn -0.000000 -0.866000 -0.500100
v -0.048400 0.662172 0.048400
v -0.072600 0.662172 0.048400
v -0.072600 0.675785 0.040541
v -0.048400 0.675785 0.040541
v -0.072600 0.680323 0.048400
v -0.048400 0.680323 0.048400
v -0.072600 0.675785 0.056259
v -0.048400 0.675785 0.056259
v -0.072600 0.666710 0.056259
v -0.048400 0.666710 0.056259
v 0.072600 0.666710 0.040541
v 0.072600 0.675785 0.040541
v 0.072600 0.680323 0.048400
v 0.072600 0.675785 0.056259
v 0.072600 0.666710 0.056259
v 0.072600 0.662172 0.048400
v 0.048400 0.666710 0.056259
v 0.048400 0.662172 0.048400
v 0.048400 0.666710 0.040541
v 0.048400 0.675785 0.040541
v 0.048400 0.680323 0.048400
v 0.048400 0.675785 0.056259
v -0.027225 0.653502 0.047155
vt 0.184137 0.851111
vn -0.000000 -0.951200 -0.308700
v -0.022579 0.653098 0.048400
vn -0.000000 -0.965900 0.259000
v -0.048400 0.653098 0.048400
v -0.048400 0.656564 0.037731
v -0.036648 0.656564 0.037731
vn -0.000000 -0.875500 -0.483300
v -0.048400 0.665639 0.031138
v -0.043242 0.665639 0.031138
v -0.048400 0.676856 0.031138
v -0.043242 0.676856 0.031138
v -0.048400 0.685931 0.037731
v -0.036648 0.685931 0.037731
vn -0.000000 0.875400 -0.483300
v -0.048400 0.689398 0.048400
v -0.022579 0.689398 0.048400
vn -0.000000 0.965900 0.259000
v -0.027225 0.688993 0.047155
vn -0.000000 0.951200 -0.308700
v -0.048400 0.685931 0.059069
v -0.015125 0.685931 0.059069
v -0.015125 0.686963 0.055893
v -0.015125 0.688749 0.050397
vn -0.000000 0.951000 0.309000
v 0.048400 0.676856 0.065662
v 0.048400 0.685931 0.059069
v 0.015125 0.685931 0.059069
v 0.015125 0.676856 0.065662
v 0.015125 0.665639 0.065662
v 0.048400 0.665639 0.065662
v 0.048400 0.656564 0.059069
v 0.015125 0.656564 0.059069
v -0.015125 0.655532 0.055893
v -0.015125 0.656564 0.059069
v -0.048400 0.656564 0.059069
v -0.015125 0.653747 0.050397
vn -0.000000 -0.951100 0.308900
v -0.048400 0.665639 0.065662
v -0.048400 0.676856 0.065662
v 0.048400 0.656564 0.037731
v 0.048400 0.665639 0.031138
v 0.048400 0.676856 0.031138
v 0.048400 0.685931 0.037731
v 0.048400 0.689398 0.048400
v 0.048400 0.653098 0.048400
v -0.072600 0.436810 -0.056259
v -0.048400 0.436810 -0.056259
v -0.048400 0.432273 -0.048400
v -0.072600 0.432273 -0.048400
v -0.072600 0.445885 -0.056259
v -0.048400 0.445885 -0.056259
v -0.072600 0.450422 -0.048400
v -0.048400 0.450422 -0.048400
v -0.072600 0.445885 -0.040541
v -0.048400 0.445885 -0.040541
v -0.072600 0.436810 -0.040541
v -0.048400 0.436810 -0.040541
v 0.072600 0.436810 -0.056259
v 0.072600 0.445885 -0.056259
v 0.072600 0.450422 -0.048400
v 0.072600 0.445885 -0.040541
v 0.072600 0.436810 -0.040541
v 0.072600 0.432273 -0.048400
v 0.048400 0.436810 -0.040541
v 0.048400 0.432273 -0.048400
v 0.048400 0.436810 -0.056259
v 0.048400 0.445885 -0.056259
v 0.048400 0.450422 -0.048400
v 0.048400 0.445885 -0.040541
v 0.015125 0.425632 -0.055894
vt 0.132035 0.868286
vn -0.000000 -0.951100 -0.309000
v 0.015125 0.426664 -0.059069
vt 0.132035 0.877014
v 0.048400 0.426664 -0.059069
vt 0.091097 0.877014
v 0.048400 0.423197 -0.048400
vt 0.091097 0.847688
v 0.022579 0.423197 -0.048400
vt 0.122864 0.847688
vn -0.000100 -0.965800 -0.259100
v 0.015125 0.423847 -0.050397
vt 0.132035 0.853179
vn -0.000000 -0.951100 -0.308900
v 0.015125 0.435600 -0.065561
vt 0.132035 0.905891
vn -0.000000 -0.587500 -0.809200
v 0.015125 0.435739 -0.065662
vt 0.132035 0.906339
v 0.048400 0.435739 -0.065662
vt 0.091097 0.906339
v 0.048400 0.446956 -0.065662
vt 0.091097 0.935665
v 0.015125 0.446956 -0.065662
vt 0.132035 0.935665
vt 0.132035 0.642410
v 0.015125 0.456031 -0.059069
vt 0.132035 0.671735
v 0.048400 0.456031 -0.059069
vt 0.091097 0.671735
vt 0.091097 0.642410
v 0.022579 0.459497 -0.048400
vt 0.122864 0.701061
vn -0.000000 0.965900 -0.258900
v 0.048400 0.459497 -0.048400
vt 0.091097 0.701061
v 0.015125 0.457063 -0.055893
vt 0.132035 0.680463
vn -0.000000 0.951100 -0.309000
v 0.015125 0.458848 -0.050397
vt 0.132035 0.695571
vn -0.000000 0.951100 -0.308900
v 0.036648 0.456031 -0.037731
vt 0.105555 0.730386
vn -0.000000 0.875500 0.483300
v 0.048400 0.456031 -0.037731
v 0.027225 0.459093 -0.047155
vt 0.117148 0.704483
vn -0.000000 0.951200 0.308700
v 0.043242 0.446956 -0.031138
vt 0.097443 0.759712
vn -0.000000 0.353300 0.935500
v 0.048400 0.446956 -0.031138
v 0.048400 0.435739 -0.031138
v 0.043242 0.435739 -0.031138
vt 0.097443 0.789037
vn -0.000000 -0.353300 0.935500
v 0.036648 0.426664 -0.037731
vt 0.105555 0.818363
vn -0.000000 -0.875400 0.483300
v 0.048400 0.426664 -0.037731
v 0.027225 0.423602 -0.047155
vt 0.117148 0.844266
vn -0.000000 -0.951000 0.309300
v -0.048400 0.435739 -0.031138
v -0.048400 0.446956 -0.031138
v -0.048400 0.456031 -0.037731
v -0.048400 0.459497 -0.048400
v -0.048400 0.456031 -0.059069
v -0.048400 0.446956 -0.065662
v -0.048400 0.435739 -0.065662
v -0.048400 0.426664 -0.059069
v -0.048400 0.423197 -0.048400
v -0.048400 0.426664 -0.037731
v -0.072600 0.666710 -0.056259
v -0.048400 0.666710 -0.056259
v -0.048400 0.662172 -0.048400
v -0.072600 0.662172 -0.048400
v -0.072600 0.675785 -0.056259
v -0.048400 0.675785 -0.056259
v -0.072600 0.680323 -0.048400
v -0.048400 0.680323 -0.048400
v -0.072600 0.675785 -0.040541
v -0.048400 0.675785 -0.040541
v -0.072600 0.666710 -0.040541
v -0.048400 0.666710 -0.040541
v 0.072600 0.666710 -0.056259
v 0.072600 0.675785 -0.056259
v 0.072600 0.680323 -0.048400
v 0.072600 0.675785 -0.040541
v 0.072600 0.666710 -0.040541
v 0.072600 0.662172 -0.048400
v 0.048400 0.666710 -0.040541
v 0.048400 0.662172 -0.048400
v 0.048400 0.666710 -0.056259
v 0.048400 0.675785 -0.056259
v 0.048400 0.680323 -0.048400
v 0.048400 0.675785 -0.040541
v 0.015125 0.655532 -0.055893
v 0.015125 0.656564 -0.059069
v 0.048400 0.656564 -0.059069
v 0.048400 0.653098 -0.048400
v 0.022579 0.653098 -0.048400
vn -0.000000 -0.965900 -0.259000
v 0.015125 0.653747 -0.050397
v 0.048400 0.665639 -0.065662
v 0.015125 0.665639 -0.065662
v 0.015125 0.676856 -0.065662
v 0.048400 0.676856 -0.065662
v 0.048400 0.685931 -0.059069
v 0.015125 0.685931 -0.059069
v 0.022579 0.689398 -0.048400
vn -0.000000 0.965900 -0.259000
v 0.048400 0.689398 -0.048400
v 0.015125 0.686963 -0.055893
v 0.015125 0.688749 -0.050397
v 0.036648 0.685931 -0.037731
vn -0.000000 0.875400 0.483300
v 0.048400 0.685931 -0.037731
v 0.027225 0.688993 -0.047155
v 0.043242 0.676856 -0.031138
v 0.048400 0.676856 -0.031138
v 0.048400 0.665639 -0.031138
v 0.043242 0.665639 -0.031138
v 0.036648 0.656564 -0.037731
vn -0.000000 -0.875500 0.483300
v 0.048400 0.656564 -0.037731
v 0.027225 0.653502 -0.047155
vn -0.000000 -0.951200 0.308700
v -0.048400 0.665639 -0.031138
v -0.048400 0.676856 -0.031138
v -0.048400 0.685931 -0.037731
v -0.048400 0.689398 -0.048400
v -0.048400 0.685931 -0.059069
v -0.048400 0.676856 -0.065662
v -0.048400 0.665639 -0.065662
v -0.048400 0.656564 -0.059069
v -0.048400 0.653098 -0.048400
v -0.048400 0.656564 -0.037731
vt 0.210188 0.759712
v -0.043242 0.446956 -0.031138
vt 0.203842 0.759712
v -0.036648 0.456031 -0.037731
vt 0.195730 0.730386
v -0.024074 0.459367 -0.047999
vt 0.180259 0.702162
vn -0.000000 0.951200 0.308500
v -0.022579 0.459497 -0.048400
v -0.027225 0.459093 -0.047155
vt 0.184137 0.704483
vn -0.000000 0.951000 0.309300
v -0.043242 0.435739 -0.031138
vt 0.203842 0.789037
vt 0.210188 0.789037
v -0.036648 0.426664 -0.037731
vt 0.195730 0.818363
v -0.022579 0.423197 -0.048400
vn -0.000000 -0.965900 -0.258800
v -0.024074 0.423328 -0.047999
vt 0.180259 0.846588
v -0.027225 0.423602 -0.047155
vt 0.184137 0.844266
v -0.028065 0.423875 -0.046315
vt 0.185171 0.841956
vn -0.000200 -0.951200 0.308700
v -0.043242 0.676856 -0.031138
v -0.036648 0.685931 -0.037731
v -0.024074 0.689267 -0.047999
vn -0.000000 0.951100 0.308900
v -0.022579 0.689398 -0.048400
vn -0.000000 0.965900 -0.258800
v -0.027225 0.688993 -0.047155
v -0.043242 0.665639 -0.031138
v -0.036648 0.656564 -0.037731
v -0.022579 0.653098 -0.048400
v -0.024074 0.653228 -0.047999
vn -0.000000 -0.951100 0.308800
v -0.027225 0.653502 -0.047155
v -0.028065 0.653775 -0.046315
v -0.015125 0.426664 -0.059069
vt 0.169250 0.877014
vn -0.000000 -0.809000 -0.587900
v -0.015125 0.426123 -0.057405
vt 0.169250 0.872442
v -0.015125 0.425632 -0.055893
vt 0.169250 0.868286
v -0.015125 0.423847 -0.050397
vt 0.169250 0.853179
vn 0.000100 -0.951100 -0.308900
v -0.015125 0.656564 -0.059069
vn -0.000000 -0.808900 -0.588000
v -0.015125 0.656024 -0.057405
v -0.015125 0.655532 -0.055893
vn -0.000000 -0.951000 -0.309100
v -0.015125 0.653747 -0.050397
v -0.015125 0.685931 -0.059069
vt 0.169250 0.671735
v -0.015125 0.686963 -0.055893
vt 0.169250 0.680463
v -0.015125 0.688749 -0.050397
vt 0.169250 0.695571
v 0.000000 0.687432 -0.054450
vt 0.150643 0.684430
vn -0.000000 0.951000 -0.309100
v -0.015125 0.458848 -0.050397
v -0.015125 0.457063 -0.055893
v -0.015125 0.456572 -0.057405
vt 0.169250 0.676307
v -0.015125 0.456031 -0.059069
vn -0.000000 0.809000 -0.587900
v 0.022579 0.423197 0.048400
vn -0.000000 -0.965900 0.258800
v 0.024074 0.423328 0.047999
vt 0.121026 0.848789
v 0.027225 0.423602 0.047155
vt 0.117148 0.851110
v 0.028065 0.423875 0.046315
vt 0.116114 0.853421
vn 0.000200 -0.951200 -0.308700
v 0.036648 0.426664 0.037731
vt 0.105555 0.877014
v 0.043242 0.435739 0.031138
vt 0.097443 0.906339
v 0.043242 0.446956 0.031138
vt 0.097443 0.935665
vt 0.097443 0.642410
v 0.036648 0.456031 0.037731
vt 0.105555 0.671735
v 0.024074 0.459367 0.047999
vt 0.121026 0.699960
vn -0.000000 0.951200 -0.308500
v 0.022579 0.459497 0.048400
v 0.027225 0.459093 0.047155
vt 0.117148 0.697639
vn -0.000000 0.951000 -0.309300
v 0.022579 0.653098 0.048400
v 0.024074 0.653228 0.047999
vn -0.000000 -0.951100 -0.308800
v 0.027225 0.653502 0.047155
vt 0.117148 0.851111
v 0.028065 0.653775 0.046315
v 0.036648 0.656564 0.037731
v 0.043242 0.665639 0.031138
v 0.043242 0.676856 0.031138
v 0.036648 0.685931 0.037731
v 0.024074 0.689267 0.047999
v 0.022579 0.689398 0.048400
vn -0.000000 0.965900 0.258800
v 0.027225 0.688993 0.047155
v 0.015125 0.457063 0.055893
vt 0.132035 0.721659
v 0.015125 0.458848 0.050397
vt 0.132035 0.706551
v 0.000000 0.457532 0.054450
vt 0.150643 0.717691
v 0.015125 0.425632 0.055893
vt 0.132035 0.827091
v 0.015125 0.423847 0.050397
vt 0.132035 0.842198
vn -0.000100 -0.951100 0.308900
v 0.015125 0.686963 0.055893
v 0.015125 0.688749 0.050397
v 0.000000 0.687432 0.054450
vn -0.000000 0.951000 0.309100
v 0.015125 0.655532 0.055893
v 0.015125 0.653747 0.050397
v 0.000000 0.425163 -0.054450
vt 0.150643 0.864319
v -0.015125 0.435666 -0.065609
vt 0.169250 0.906104
vn -0.000000 -0.587700 -0.809100
v -0.015125 0.435739 -0.065662
vt 0.169250 0.906339
vn -0.000000 -0.309300 -0.951000
v -0.015125 0.435600 -0.065561
vt 0.169250 0.905891
vn -0.000000 -0.587400 -0.809300
v -0.015125 0.446956 -0.065662
vt 0.169250 0.935665
v 0.000000 0.655063 -0.054450
vn -0.000000 -0.951000 -0.309200
v -0.015125 0.676856 -0.065662
v -0.015125 0.665639 -0.065662
vt 0.169250 0.642410
v 0.000000 0.457532 -0.054450
v -0.015125 0.435666 0.065609
vt 0.169250 0.789272
vn -0.000000 -0.589100 0.808000
v -0.015125 0.435739 0.065662
vt 0.169250 0.789037
vn -0.000000 -0.311200 0.950400
v -0.015125 0.435600 0.065561
vt 0.169250 0.789486
vn -0.000000 -0.587300 0.809400
v 0.000000 0.425163 0.054450
vt 0.150643 0.831058
v -0.015125 0.446956 0.065662
vt 0.169250 0.759712
v -0.015125 0.665639 0.065662
v -0.015125 0.676856 0.065662
v 0.000000 0.655063 0.054450
v 0.094249 0.455469 -0.092465
vt 0.377880 0.889257
vn 0.809000 -0.000000 -0.587800
v 0.095790 0.455469 -0.087725
vt 0.370893 0.889257
v 0.095790 0.443369 -0.087725
vt 0.370893 0.842681
v 0.094249 0.443369 -0.092465
vt 0.377880 0.842681
v 0.090217 0.455469 -0.095395
vt 0.384866 0.889257
vn 0.309100 -0.000000 -0.951000
v 0.090217 0.443369 -0.095395
vt 0.384866 0.842681
v 0.085233 0.455469 -0.095395
vt 0.391852 0.889257
v 0.085233 0.443369 -0.095395
vt 0.391852 0.842681
v 0.081201 0.455469 -0.092465
vt 0.328975 0.889257
vn -0.809000 -0.000000 -0.587800
vt 0.321989 0.889257
vt 0.321989 0.842681
v 0.081201 0.443369 -0.092465
vt 0.328975 0.842681
v 0.079660 0.455469 -0.087725
vt 0.335961 0.889257
v 0.079660 0.443369 -0.087725
vt 0.335961 0.842681
v 0.081201 0.455469 -0.082985
vt 0.342948 0.889257
vn -0.809000 -0.000000 0.587800
v 0.081201 0.443369 -0.082985
vt 0.342948 0.842681
v 0.085233 0.455469 -0.080055
vt 0.349934 0.889257
vn -0.309100 -0.000000 0.951000
v 0.085233 0.443369 -0.080055
vt 0.349934 0.842681
v 0.090217 0.455469 -0.080055
vt 0.356920 0.889257
vn 0.309100 -0.000000 0.951000
v 0.090217 0.443369 -0.080055
vt 0.356920 0.842681
v 0.094249 0.455469 -0.082985
vt 0.363907 0.889257
vn 0.809000 -0.000000 0.587800
v 0.094249 0.443369 -0.082985
vt 0.363907 0.842681
vt 0.332895 0.882586
vt 0.320205 0.865120
vt 0.320205 0.843531
vt 0.332895 0.826065
vt 0.353427 0.819394
vt 0.373960 0.826065
vt 0.386649 0.843531
vt 0.386649 0.865120
vt 0.373960 0.882586
vt 0.353427 0.889257
v -0.081201 0.455469 -0.092465
v -0.079660 0.455469 -0.087725
v -0.079660 0.443369 -0.087725
v -0.081201 0.443369 -0.092465
v -0.085233 0.455469 -0.095395
v -0.085233 0.443369 -0.095395
v -0.090217 0.455469 -0.095395
v -0.090217 0.443369 -0.095395
v -0.094249 0.455469 -0.092465
v -0.094249 0.443369 -0.092465
v -0.095790 0.455469 -0.087725
v -0.095790 0.443369 -0.087725
v -0.094249 0.455469 -0.082985
v -0.094249 0.443369 -0.082985
v -0.090217 0.455469 -0.080055
v -0.090217 0.443369 -0.080055
v -0.085233 0.455469 -0.080055
v -0.085233 0.443369 -0.080055
v -0.081201 0.455469 -0.082985
v -0.081201 0.443369 -0.082985
v -0.081201 0.455263 0.082985
v -0.079660 0.455263 0.087725
v -0.079660 0.443163 0.087725
v -0.081201 0.443163 0.082985
v -0.085233 0.455263 0.080055
v -0.085233 0.443163 0.080055
v -0.090217 0.455263 0.080055
v -0.090217 0.443163 0.080055
v -0.094249 0.455263 0.082985
v -0.094249 0.443163 0.082985
v -0.095790 0.455263 0.087725
v -0.095790 0.443163 0.087725
v -0.094249 0.455263 0.092465
v -0.094249 0.443163 0.092465
v -0.090217 0.455263 0.095395
v -0.090217 0.443163 0.095395
v -0.085233 0.455263 0.095395
v -0.085233 0.443163 0.095395
v -0.081201 0.455263 0.092465
v -0.081201 0.443163 0.092465
v 0.094249 0.455469 0.082985
v 0.095790 0.455469 0.087725
v 0.095790 0.443369 0.087725
v 0.094249 0.443369 0.082985
v 0.090217 0.455469 0.080055
v 0.090217 0.443369 0.080055
v 0.085233 0.455469 0.080055
v 0.085233 0.443369 0.080055
v 0.081201 0.455469 0.082985
v 0.081201 0.443369 0.082985
v 0.079660 0.455469 0.087725
v 0.079660 0.443369 0.087725
v 0.081201 0.455469 0.092465
v 0.081201 0.443369 0.092465
v 0.085233 0.455469 0.095395
v 0.085233 0.443369 0.095395
v 0.090217 0.455469 0.095395
v 0.090217 0.443369 0.095395
v 0.094249 0.455469 0.092465
v 0.094249 0.443369 0.092465
v 0.102850 0.420172 -0.087725
vt 0.370893 0.819394
v 0.095288 0.420172 -0.100824
vt 0.382537 0.819394
vn 0.500000 -0.000000 -0.866000
v 0.095288 0.443369 -0.100824
vt 0.382537 0.889257
v 0.102850 0.443369 -0.087725
v 0.080162 0.420172 -0.100824
vt 0.394181 0.819394
v 0.080162 0.443369 -0.100824
vt 0.394181 0.889257
vt 0.324317 0.819394
v 0.072600 0.420172 -0.087725
vt 0.335961 0.819394
v 0.072600 0.443369 -0.087725
vt 0.324317 0.889257
v 0.080162 0.420172 -0.074626
vt 0.347605 0.819394
v 0.080162 0.443369 -0.074626
vt 0.347605 0.889257
v 0.095288 0.420172 -0.074626
vt 0.359249 0.819394
v 0.095288 0.443369 -0.074626
vt 0.359249 0.889257
vt 0.383679 0.836860
vt 0.323175 0.836860
vt 0.323175 0.871791
vt 0.383679 0.871791
v 0.102850 0.420275 0.087725
v 0.095288 0.420275 0.074626
v 0.095288 0.443369 0.074626
v 0.102850 0.443369 0.087725
v 0.080162 0.420275 0.074626
v 0.080162 0.443369 0.074626
v 0.072600 0.420275 0.087725
v 0.072600 0.443369 0.087725
v 0.080162 0.420275 0.100824
v 0.080162 0.443369 0.100824
v 0.095288 0.420275 0.100824
v 0.095288 0.443369 0.100824
v -0.072600 0.420070 0.087725
v -0.080162 0.420070 0.074626
v -0.080162 0.443163 0.074626
v -0.072600 0.443163 0.087725
v -0.095288 0.420070 0.074626
v -0.095288 0.443163 0.074626
v -0.102850 0.420070 0.087725
v -0.102850 0.443163 0.087725
v -0.095288 0.420070 0.100824
v -0.095288 0.443163 0.100824
v -0.080162 0.420070 0.100824
v -0.080162 0.443163 0.100824
v -0.072600 0.420172 -0.087725
v -0.080162 0.420172 -0.100824
v -0.080162 0.443369 -0.100824
v -0.072600 0.443369 -0.087725
v -0.095288 0.420172 -0.100824
v -0.095288 0.443369 -0.100824
v -0.102850 0.420172 -0.087725
v -0.102850 0.443369 -0.087725
v -0.095288 0.420172 -0.074626
v -0.095288 0.443369 -0.074626
v -0.080162 0.420172 -0.074626
v -0.080162 0.443369 -0.074626
v 0.117975 0.406863 0.121000
vt 0.440035 1.000000
v -0.117975 0.406863 0.121000
vt 0.288203 1.000000
v -0.117975 0.393250 0.121000
vt 0.288203 0.504625
v 0.117975 0.393250 0.121000
vt 0.440035 0.504625
v 0.117975 0.406863 0.024200
v 0.117975 0.393250 0.024200
v -0.117975 0.406863 0.024200
v -0.117975 0.393250 0.024200
v 0.117975 0.406863 -0.024200
v -0.117975 0.406863 -0.024200
v -0.117975 0.393250 -0.024200
v 0.117975 0.393250 -0.024200
v 0.117975 0.406863 -0.121000
v 0.117975 0.393250 -0.121000
v -0.117975 0.406863 -0.121000
v -0.117975 0.393250 -0.121000
v 0.117975 0.406863 -0.117975
v 0.117975 0.406863 0.117975
v -0.117975 0.406863 0.117975
v -0.117975 0.406863 -0.117975
v 0.117975 0.420172 -0.117975
v -0.117975 0.420172 -0.117975
v -0.117975 0.420172 0.117975
v 0.117975 0.420172 0.117975
v -0.151250 0.018150 0.199650
vt 0.615258 0.578729
v 0.151250 0.018150 0.199650
vt 0.896157 0.578729
v 0.151250 0.018150 -0.199650
vt 0.896157 0.859627
v -0.151250 0.018150 -0.199650
vt 0.615258 0.859627
v -0.151250 0.000000 0.199650
vn -0.000000 -0.707100 0.707100
v 0.151250 0.000000 0.199650
v 0.151250 -0.000000 -0.199650
vn -0.000000 -0.707100 -0.707100
v -0.151250 -0.000000 -0.199650
vn -0.000000 0.743800 -0.668400
vn -0.729900 0.683600 -0.000000
vn 0.681800 0.731500 -0.000000
vn -0.000000 0.106600 -0.994300
vt 0.794261 0.074202
vn -0.000000 0.668600 0.743600
vt 0.939025 0.073318
vt 0.794261 0.075389
vt 0.997924 0.075978
vt 0.935169 0.074202
vt 0.997880 0.071684
vn -0.000000 0.743700 -0.668500
vn -0.681800 0.731500 -0.000000
vn -0.000000 0.668500 0.743700
vt 0.937579 0.499013
f 1/1/1 2/2/1 3/3/2
f 3/3/2 4/4/2 1/1/1
f 3/2/3 5/5/3 4/1/3
f 4/6/4 6/7/4 1/8/4
f 1/2/5 7/9/5 2/1/5
f 8/10/6 9/10/6 10/10/6
f 3/1/7 8/11/8 11/12/7
f 9/10/9 10/10/9 10/10/9
f 12/1/1 13/2/1 14/3/2
f 14/3/2 15/4/2 12/1/1
f 14/2/3 16/5/3 15/1/3
f 10/10/6 17/10/6 8/10/6
f 15/2/4 18/13/4 12/1/4
f 19/10/6 20/10/6 21/10/6
f 12/2/5 22/9/5 13/1/5
f 20/10/9 21/10/9 21/10/9
f 14/14/7 21/15/7 23/16/7
f 21/10/6 24/10/6 19/10/6
f 25/3/6 26/4/6 27/1/6
f 27/1/6 28/2/6 25/3/6
f 29/3/10 30/4/10 31/1/10
f 31/1/10 32/2/10 29/3/10
f 25/3/11 28/4/11 30/1/11
f 30/1/11 29/2/11 25/3/11
f 28/3/4 27/4/4 31/1/4
f 31/1/4 30/2/4 28/3/4
f 27/3/12 26/4/12 32/1/12
f 32/1/12 31/2/12 27/3/12
f 26/3/7 25/4/7 29/1/7
f 29/1/7 32/2/7 26/3/7
f 33/3/6 34/4/6 35/1/6
f 35/1/6 36/2/6 33/3/6
f 37/3/10 38/4/10 39/1/10
f 39/1/10 40/2/10 37/3/10
f 33/3/13 36/4/13 38/1/13
f 38/1/13 37/2/13 33/3/13
f 35/3/14 34/4/14 40/1/14
f 40/1/14 39/2/14 35/3/14
f 41/3/6 42/4/6 43/1/6
f 43/1/6 44/2/6 41/3/6
f 45/3/10 46/4/10 47/1/10
f 47/1/10 48/2/10 45/3/10
f 41/3/15 44/4/15 46/1/15
f 46/1/15 45/2/15 41/3/15
f 43/3/16 42/4/16 48/1/16
f 48/1/16 47/2/16 43/3/16
f 49/3/17 50/4/18 51/1/18
f 51/1/18 52/2/17 49/3/17
f 53/3/10 54/4/10 55/1/10
f 55/1/10 56/2/10 53/3/10
f 49/3/19 52/4/19 54/1/19
f 54/1/19 53/2/19 49/3/19
f 52/3/4 51/4/4 55/1/4
f 55/1/4 54/2/4 52/3/4
f 51/3/20 50/4/20 56/1/20
f 56/1/20 55/2/20 51/3/20
f 50/3/7 49/4/7 53/1/7
f 53/1/7 56/2/7 50/3/7
f 57/3/17 58/4/18 59/1/18
f 59/1/18 60/2/17 57/3/17
f 61/3/10 62/4/10 63/1/10
f 63/1/10 64/2/10 61/3/10
f 57/3/19 60/4/19 62/1/19
f 62/1/19 61/2/19 57/3/19
f 60/3/4 59/4/4 63/1/4
f 63/1/4 62/2/4 60/3/4
f 59/3/20 58/4/20 64/1/20
f 64/1/20 63/2/20 59/3/20
f 58/3/7 57/4/7 61/1/7
f 61/1/7 64/2/7 58/3/7
f 65/3/21 66/4/21 67/1/21
f 67/1/21 68/2/21 65/3/21
f 66/3/22 69/4/22 70/1/22
f 70/1/22 67/2/22 66/3/22
f 69/3/23 71/4/23 72/1/23
f 72/1/23 70/2/23 69/3/23
f 71/3/24 73/4/24 74/1/24
f 74/1/24 72/2/24 71/3/24
f 73/3/25 75/4/25 76/1/25
f 76/1/25 74/2/25 73/3/25
f 75/3/26 77/4/26 78/1/26
f 78/1/26 76/2/26 75/3/26
f 77/3/27 79/4/27 80/1/27
f 80/1/27 78/2/27 77/3/27
f 79/3/28 81/4/28 82/1/28
f 82/1/28 80/2/28 79/3/28
f 81/3/29 83/4/29 84/1/29
f 84/1/29 82/2/29 81/3/29
f 83/3/30 85/4/30 86/1/30
f 86/1/30 84/2/30 83/3/30
f 85/3/31 87/4/31 88/1/31
f 88/1/31 86/2/31 85/3/31
f 87/3/32 65/4/32 68/1/32
f 68/1/32 88/2/32 87/3/32
f 85/17/6 83/18/6 81/19/6
f 81/19/6 79/20/6 77/21/6
f 77/21/6 75/22/6 73/23/6
f 81/19/6 77/21/6 73/23/6
f 73/23/6 71/24/6 69/25/6
f 69/25/6 66/26/6 65/27/6
f 73/23/6 69/25/6 65/27/6
f 81/19/6 73/23/6 65/27/6
f 85/17/6 81/19/6 65/27/6
f 87/28/6 85/17/6 65/27/6
f 67/17/10 70/18/10 72/19/10
f 72/19/10 74/20/10 76/21/10
f 76/21/10 78/22/33 80/23/10
f 72/19/10 76/21/10 80/23/10
f 80/23/10 82/24/34 84/25/10
f 84/25/10 86/26/34 88/27/10
f 80/23/10 84/25/10 88/27/10
f 72/19/10 80/23/10 88/27/10
f 67/17/10 72/19/10 88/27/10
f 68/28/35 67/17/10 88/27/10
f 89/3/21 90/4/21 91/1/21
f 91/1/21 92/2/21 89/3/21
f 90/3/22 93/4/22 94/1/22
f 94/1/22 91/2/22 90/3/22
f 93/3/23 95/4/23 96/1/23
f 96/1/23 94/2/23 93/3/23
f 95/3/24 97/4/24 98/1/24
f 98/1/24 96/2/24 95/3/24
f 97/3/25 99/4/25 100/1/25
f 100/1/25 98/2/25 97/3/25
f 99/3/26 101/4/26 102/1/26
f 102/1/26 100/2/26 99/3/26
f 101/3/27 103/4/27 104/1/27
f 104/1/27 102/2/27 101/3/27
f 103/3/28 105/4/28 106/1/28
f 106/1/28 104/2/28 103/3/28
f 105/3/29 107/4/29 108/1/29
f 108/1/29 106/2/29 105/3/29
f 107/3/30 109/4/30 110/1/30
f 110/1/30 108/2/30 107/3/30
f 109/3/31 111/4/31 112/1/31
f 112/1/31 110/2/31 109/3/31
f 111/3/32 89/4/32 92/1/32
f 92/1/32 112/2/32 111/3/32
f 109/17/6 107/18/6 105/19/6
f 105/19/6 103/20/6 101/21/6
f 101/21/6 99/22/6 97/23/6
f 105/19/6 101/21/6 97/23/6
f 97/23/6 95/24/6 93/25/6
f 93/25/6 90/26/6 89/27/6
f 97/23/6 93/25/6 89/27/6
f 105/19/6 97/23/6 89/27/6
f 109/17/6 105/19/6 89/27/6
f 111/28/6 109/17/6 89/27/6
f 91/17/10 94/18/10 96/19/10
f 96/19/10 98/20/10 100/21/10
f 100/21/10 102/22/10 104/23/10
f 96/19/10 100/21/10 104/23/10
f 104/23/10 106/24/10 108/25/10
f 108/25/10 110/26/10 112/27/10
f 104/23/10 108/25/10 112/27/10
f 96/19/10 104/23/10 112/27/10
f 91/17/10 96/19/10 112/27/10
f 92/28/10 91/17/10 112/27/10
f 113/29/6 114/30/6 115/31/6
f 115/31/6 116/32/6 113/29/6
f 117/29/6 118/30/6 114/31/36
f 114/31/36 113/32/36 117/29/6
f 119/29/6 120/30/36 118/31/6
f 118/31/6 117/32/37 119/29/6
f 121/29/6 122/30/6 120/31/6
f 120/31/6 119/33/6 121/29/6
f 123/29/6 124/30/36 122/31/6
f 122/31/6 121/32/37 123/29/6
f 125/29/6 126/30/6 124/31/6
f 124/31/6 123/32/6 125/29/6
f 127/29/6 128/30/6 126/31/6
f 126/31/6 125/32/6 127/29/6
f 129/29/10 130/34/10 131/31/10
f 131/31/10 132/35/10 129/29/10
f 133/29/10 129/34/34 132/31/10
f 132/31/10 134/35/10 133/29/10
f 135/29/10 133/34/10 134/31/10
f 134/31/10 136/35/10 135/29/10
f 137/29/10 135/36/10 136/31/10
f 136/31/10 138/35/10 137/29/10
f 139/29/10 137/34/10 138/31/10
f 138/31/10 140/35/10 139/29/10
f 141/29/10 139/34/10 140/31/10
f 140/31/10 142/35/10 141/29/10
f 143/29/10 141/34/10 142/31/10
f 142/31/10 144/35/10 143/29/10
f 132/29/38 131/30/38 115/31/38
f 115/31/38 114/35/38 132/29/38
f 134/29/39 132/30/39 114/31/39
f 114/31/39 118/35/39 134/29/39
f 136/29/40 134/30/41 118/31/40
f 118/31/40 120/35/40 136/29/40
f 138/29/12 136/30/12 120/31/12
f 120/31/12 122/35/12 138/29/12
f 140/29/42 138/30/43 122/31/42
f 122/31/42 124/35/42 140/29/42
f 142/29/44 140/30/44 124/31/44
f 124/31/44 126/35/44 142/29/44
f 144/29/45 142/30/45 126/31/45
f 126/31/45 128/35/45 144/29/45
f 141/29/46 143/30/46 127/31/46
f 127/31/46 125/35/46 141/29/46
f 139/29/47 141/30/47 125/31/47
f 125/31/47 123/35/47 139/29/47
f 137/29/48 139/30/48 123/31/48
f 123/31/48 121/35/48 137/29/48
f 135/29/11 137/30/11 121/31/11
f 121/31/11 119/35/11 135/29/11
f 133/29/49 135/30/49 119/31/49
f 119/31/49 117/35/49 133/29/49
f 129/29/50 133/30/50 117/31/50
f 117/31/50 113/35/50 129/29/50
f 130/29/51 129/30/51 113/31/51
f 113/31/51 116/35/51 130/29/51
f 145/3/17 146/4/17 147/1/17
f 147/1/17 148/2/17 145/3/17
f 149/3/2 150/4/2 151/1/2
f 151/1/2 152/2/2 149/3/2
f 145/3/3 148/4/3 150/1/3
f 150/1/3 149/2/3 145/3/3
f 148/3/4 147/4/4 151/1/4
f 151/1/4 150/2/4 148/3/4
f 147/3/5 146/4/5 152/1/5
f 152/1/5 151/2/5 147/3/5
f 153/3/17 154/4/17 155/1/17
f 155/1/17 156/2/17 153/3/17
f 157/3/2 158/4/2 159/1/2
f 159/1/2 160/2/2 157/3/2
f 153/3/3 156/4/3 158/1/3
f 158/1/3 157/2/3 153/3/3
f 156/3/4 155/4/4 159/1/4
f 159/1/4 158/2/4 156/3/4
f 155/3/5 154/4/5 160/1/5
f 160/1/5 159/2/5 155/3/5
f 161/3/17 162/4/17 163/1/17
f 163/1/17 164/2/17 161/3/17
f 165/3/2 166/4/2 167/1/2
f 167/1/2 168/2/2 165/3/2
f 161/3/3 164/4/3 166/1/3
f 166/1/3 165/2/3 161/3/3
f 164/3/4 163/4/4 167/1/4
f 167/1/4 166/2/4 164/3/4
f 163/3/5 162/4/5 168/1/5
f 168/1/5 167/2/5 163/3/5
f 169/3/17 170/4/17 171/1/17
f 171/1/17 172/2/17 169/3/17
f 173/3/2 174/4/2 175/1/2
f 175/1/2 176/2/2 173/3/2
f 169/3/3 172/4/3 174/1/3
f 174/1/3 173/2/3 169/3/3
f 172/3/4 171/4/4 175/1/4
f 175/1/4 174/2/4 172/3/4
f 171/3/5 170/4/5 176/1/5
f 176/1/5 175/2/5 171/3/5
f 177/3/17 178/4/17 179/1/17
f 179/1/17 180/2/17 177/3/17
f 181/3/2 182/4/2 183/1/2
f 183/1/2 184/2/2 181/3/2
f 177/3/3 180/4/3 182/1/3
f 182/1/3 181/2/3 177/3/3
f 180/3/4 179/4/4 183/1/4
f 183/1/4 182/2/4 180/3/4
f 179/3/5 178/4/5 184/1/5
f 184/1/5 183/2/5 179/3/5
f 185/3/17 186/4/17 187/1/17
f 187/1/17 188/2/17 185/3/17
f 189/3/2 190/4/2 191/1/2
f 191/1/2 192/2/2 189/3/2
f 185/3/3 188/4/3 190/1/3
f 190/1/3 189/2/3 185/3/3
f 188/3/4 187/4/4 191/1/4
f 191/1/4 190/2/4 188/3/4
f 187/3/5 186/4/5 192/1/5
f 192/1/5 191/2/5 187/3/5
f 193/3/17 194/4/17 195/1/18
f 195/1/18 196/2/18 193/3/17
f 197/3/2 198/4/2 199/1/2
f 199/1/2 200/2/2 197/3/2
f 193/3/3 196/4/3 198/1/3
f 198/1/3 197/2/3 193/3/3
f 196/3/4 195/4/4 199/1/4
f 199/1/4 198/2/4 196/3/4
f 195/3/5 194/4/5 200/1/5
f 200/1/5 199/2/5 195/3/5
f 201/3/17 202/4/17 203/1/17
f 203/1/17 204/2/17 201/3/17
f 205/3/52 206/4/52 207/1/52
f 207/1/52 208/2/52 205/3/52
f 201/3/3 204/4/3 206/1/3
f 206/1/3 205/2/3 201/3/3
f 204/3/4 203/4/4 207/1/4
f 207/1/4 206/2/4 204/3/4
f 203/3/5 202/4/5 208/1/5
f 208/1/5 207/2/5 203/3/5
f 209/3/17 210/4/17 211/1/18
f 211/1/18 212/2/18 209/3/17
f 213/3/52 214/4/52 215/1/52
f 215/1/52 216/2/52 213/3/52
f 209/3/3 212/4/3 214/1/3
f 214/1/3 213/2/3 209/3/3
f 212/3/4 211/4/4 215/1/4
f 215/1/4 214/2/4 212/3/4
f 211/3/5 210/4/5 216/1/5
f 216/1/5 215/2/5 211/3/5
f 217/3/17 218/4/17 219/1/18
f 219/1/18 220/2/18 217/3/17
f 221/3/1 222/4/52 223/1/52
f 223/1/52 224/2/1 221/3/1
f 217/3/3 220/4/3 222/1/3
f 222/1/3 221/2/3 217/3/3
f 220/3/4 219/4/4 223/1/4
f 223/1/4 222/2/4 220/3/4
f 219/3/5 218/4/5 224/1/5
f 224/1/5 223/2/5 219/3/5
f 225/3/17 226/4/17 227/1/18
f 227/1/18 228/2/18 225/3/17
f 229/3/1 230/4/52 231/1/52
f 231/1/52 232/2/1 229/3/1
f 225/3/3 228/4/3 230/1/3
f 230/1/3 229/2/3 225/3/3
f 228/3/4 227/4/4 231/1/4
f 231/1/4 230/2/4 228/3/4
f 227/3/5 226/4/5 232/1/5
f 232/1/5 231/2/5 227/3/5
f 233/10/53 234/37/53 235/38/53
f 235/38/53 236/39/53 233/10/53
f 237/10/54 238/37/54 239/38/54
f 239/38/54 240/39/54 237/10/54
f 241/40/55 242/41/55 234/42/55
f 234/42/55 233/43/55 241/40/55
f 242/10/7 243/37/7 235/38/7
f 235/38/7 234/39/7 242/10/7
f 244/10/7 245/37/7 239/38/7
f 239/38/7 238/39/7 244/10/7
f 245/40/56 246/41/56 240/42/56
f 240/42/56 239/43/56 245/40/56
f 246/10/4 247/37/4 237/38/4
f 237/38/4 240/39/4 246/10/4
f 248/10/4 241/37/4 233/38/4
f 233/38/4 236/39/4 248/10/4
f 249/10/53 250/37/53 251/38/53
f 251/38/53 252/39/53 249/10/53
f 253/10/54 254/37/54 255/38/54
f 255/38/54 256/39/54 253/10/54
f 257/40/55 258/41/55 250/42/55
f 250/42/55 249/43/55 257/40/55
f 258/10/7 259/37/7 251/38/7
f 251/38/7 250/39/7 258/10/7
f 260/10/7 261/37/7 255/38/7
f 255/38/7 254/39/7 260/10/7
f 261/40/56 262/41/56 256/42/56
f 256/42/56 255/43/56 261/40/56
f 262/10/4 263/37/4 253/38/4
f 253/38/4 256/39/4 262/10/4
f 264/10/4 257/37/4 249/38/4
f 249/38/4 252/39/4 264/10/4
f 265/40/57 266/42/57 267/43/57
f 265/40/57 268/41/57 266/42/57
f 268/40/11 269/42/11 266/43/11
f 268/40/11 270/41/11 269/42/11
f 270/40/58 271/42/58 269/43/58
f 270/40/58 272/41/58 271/42/58
f 272/40/59 273/42/59 271/43/59
f 272/40/59 274/41/59 273/42/59
f 274/40/12 275/42/12 273/43/12
f 274/40/12 276/41/12 275/42/12
f 276/40/60 267/42/60 275/43/60
f 276/40/60 265/41/60 267/42/60
f 277/42/10 267/40/10 266/41/10
f 277/42/10 266/40/10 269/41/10
f 277/42/10 269/40/10 271/41/10
f 277/42/10 271/40/10 273/41/10
f 277/42/10 273/40/10 275/41/10
f 277/42/10 275/40/10 267/41/10
f 278/40/57 279/42/57 280/43/57
f 278/40/57 281/41/57 279/42/57
f 281/40/11 282/42/11 279/43/11
f 281/40/11 283/41/11 282/42/11
f 283/40/58 284/42/58 282/43/58
f 283/40/58 285/41/58 284/42/58
f 285/40/59 286/42/59 284/43/59
f 285/40/59 287/41/59 286/42/59
f 287/40/12 288/42/12 286/43/12
f 287/40/12 289/41/12 288/42/12
f 289/40/60 280/42/60 288/43/60
f 289/40/60 278/41/60 280/42/60
f 290/42/10 280/40/10 279/41/10
f 290/42/10 279/40/10 282/41/10
f 290/42/10 282/40/10 284/41/10
f 290/42/10 284/40/10 286/41/10
f 290/42/10 286/40/10 288/41/10
f 290/42/10 288/40/10 280/41/10
f 291/40/57 292/42/57 293/43/57
f 291/40/57 294/41/57 292/42/57
f 294/40/11 295/42/11 292/43/11
f 294/40/11 296/41/11 295/42/11
f 296/40/58 297/42/58 295/43/58
f 296/40/58 298/41/58 297/42/58
f 298/40/59 299/42/59 297/43/59
f 298/40/59 300/41/59 299/42/59
f 300/40/12 301/42/12 299/43/12
f 300/40/12 302/41/12 301/42/12
f 302/40/60 293/42/60 301/43/60
f 302/40/60 291/41/60 293/42/60
f 303/42/10 293/40/10 292/41/10
f 303/42/10 292/40/10 295/41/10
f 303/42/10 295/40/10 297/41/10
f 303/42/10 297/40/10 299/41/10
f 303/42/10 299/40/10 301/41/10
f 303/42/10 301/40/10 293/41/10
f 304/40/57 305/42/57 306/43/57
f 304/40/57 307/41/57 305/42/57
f 307/40/11 308/42/11 305/43/11
f 307/40/11 309/41/11 308/42/11
f 309/40/58 310/42/58 308/43/58
f 309/40/58 311/41/58 310/42/58
f 311/40/59 312/42/59 310/43/59
f 311/40/59 313/41/59 312/42/59
f 313/40/12 314/42/12 312/43/12
f 313/40/12 315/41/12 314/42/12
f 315/40/60 306/42/60 314/43/60
f 315/40/60 304/41/60 306/42/60
f 316/42/10 306/40/10 305/41/10
f 316/42/10 305/40/10 308/41/10
f 316/42/10 308/40/10 310/41/10
f 316/42/10 310/40/10 312/41/10
f 316/42/10 312/40/10 314/41/10
f 316/42/10 314/40/10 306/41/10
f 317/40/61 318/41/61 319/42/61
f 319/42/61 320/43/61 317/40/61
f 321/40/62 317/41/62 320/42/62
f 320/42/62 322/43/62 321/40/62
f 323/40/11 321/41/11 322/42/11
f 322/42/11 324/43/11 323/40/11
f 325/40/63 323/41/63 324/42/63
f 324/42/63 326/43/63 325/40/63
f 327/40/64 325/41/64 326/42/64
f 326/42/64 328/43/64 327/40/64
f 329/40/65 327/41/65 328/42/65
f 328/42/65 330/43/65 329/40/65
f 331/40/66 329/41/66 330/42/66
f 330/42/66 332/43/66 331/40/66
f 333/40/12 331/41/12 332/42/12
f 332/42/12 334/43/12 333/40/12
f 335/40/67 333/41/67 334/42/67
f 334/42/67 336/43/67 335/40/67
f 318/40/10 317/41/10 321/42/10
f 318/40/10 321/42/10 323/43/10
f 318/40/10 323/42/10 325/43/10
f 318/40/10 325/42/10 327/43/10
f 318/40/10 327/42/10 329/43/10
f 318/40/10 329/42/10 331/43/10
f 318/40/10 331/42/10 333/43/10
f 318/40/10 333/42/10 335/43/10
f 337/40/61 338/41/61 339/42/61
f 339/42/61 340/43/61 337/40/61
f 341/40/62 337/41/62 340/42/62
f 340/42/62 342/43/62 341/40/62
f 343/40/11 341/41/11 342/42/11
f 342/42/11 344/43/11 343/40/11
f 345/40/63 343/41/63 344/42/63
f 344/42/63 346/43/63 345/40/63
f 347/40/64 345/41/64 346/42/64
f 346/42/64 348/43/64 347/40/64
f 349/40/65 347/41/65 348/42/65
f 348/42/65 350/43/65 349/40/65
f 351/40/66 349/41/66 350/42/66
f 350/42/66 352/43/66 351/40/66
f 353/40/12 351/41/12 352/42/12
f 352/42/12 354/43/12 353/40/12
f 355/40/67 353/41/67 354/42/67
f 354/42/67 356/43/67 355/40/67
f 338/40/10 337/41/10 341/42/10
f 338/40/10 341/42/10 343/43/10
f 338/40/10 343/42/10 345/43/10
f 338/40/10 345/42/10 347/43/10
f 338/40/10 347/42/10 349/43/10
f 338/40/10 349/42/10 351/43/10
f 338/40/10 351/42/10 353/43/10
f 338/40/10 353/42/10 355/43/10
f 357/40/61 358/41/61 359/42/61
f 359/42/61 360/43/61 357/40/61
f 361/40/62 357/41/62 360/42/62
f 360/42/62 362/43/62 361/40/62
f 363/40/11 361/41/11 362/42/11
f 362/42/11 364/43/11 363/40/11
f 365/40/63 363/41/63 364/42/63
f 364/42/63 366/43/63 365/40/63
f 367/40/64 365/41/64 366/42/64
f 366/42/64 368/43/64 367/40/64
f 369/40/65 367/41/65 368/42/65
f 368/42/65 370/43/65 369/40/65
f 371/40/66 369/41/66 370/42/66
f 370/42/66 372/43/66 371/40/66
f 373/40/12 371/41/12 372/42/12
f 372/42/12 374/43/12 373/40/12
f 375/40/67 373/41/67 374/42/67
f 374/42/67 376/43/67 375/40/67
f 358/40/10 357/41/10 361/42/10
f 358/40/10 361/42/10 363/43/10
f 358/40/10 363/42/10 365/43/10
f 358/40/10 365/42/10 367/43/10
f 358/40/10 367/42/10 369/43/10
f 358/40/10 369/42/10 371/43/10
f 358/40/10 371/42/10 373/43/10
f 358/40/10 373/42/10 375/43/10
f 377/40/61 378/41/61 379/42/61
f 379/42/61 380/43/61 377/40/61
f 381/40/62 377/41/62 380/42/62
f 380/42/62 382/43/62 381/40/62
f 383/40/11 381/41/11 382/42/11
f 382/42/11 384/43/11 383/40/11
f 385/40/63 383/41/63 384/42/63
f 384/42/63 386/43/63 385/40/63
f 387/40/64 385/41/64 386/42/64
f 386/42/64 388/43/64 387/40/64
f 389/40/65 387/41/65 388/42/65
f 388/42/65 390/43/65 389/40/65
f 391/40/66 389/41/66 390/42/66
f 390/42/66 392/43/66 391/40/66
f 393/40/12 391/41/12 392/42/12
f 392/42/12 394/43/12 393/40/12
f 395/40/67 393/41/67 394/42/67
f 394/42/67 396/43/67 395/40/67
f 378/40/10 377/41/10 381/42/10
f 378/40/10 381/42/10 383/43/10
f 378/40/10 383/42/10 385/43/10
f 378/40/10 385/42/10 387/43/10
f 378/40/10 387/42/10 389/43/10
f 378/40/10 389/42/10 391/43/10
f 378/40/10 391/42/10 393/43/10
f 378/40/10 393/42/10 395/43/10
f 318/40/68 335/41/68 336/42/68
f 336/42/68 319/43/68 318/40/68
f 338/40/68 355/41/68 356/42/68
f 356/42/68 339/43/68 338/40/68
f 358/40/68 375/41/68 376/42/68
f 376/42/68 359/43/68 358/40/68
f 378/40/68 395/41/68 396/42/68
f 396/42/68 379/43/68 378/40/68
f 397/44/12 398/45/12 399/46/12
f 399/46/12 400/47/12 397/44/12
f 398/45/7 401/44/7 402/47/7
f 402/47/7 399/46/7 398/45/7
f 401/44/11 403/45/11 404/46/11
f 404/46/11 402/47/11 401/44/11
f 403/45/4 397/44/4 400/47/4
f 400/47/4 404/46/4 403/45/4
f 405/48/10 406/49/10 407/50/10
f 407/50/10 408/51/10 405/48/10
f 400/52/69 399/53/69 409/54/70
f 409/54/70 410/55/71 400/52/69
f 410/55/71 409/54/70 406/56/72
f 406/56/72 405/57/72 410/55/71
f 399/58/73 402/59/73 411/60/74
f 411/60/74 409/61/73 399/58/73
f 409/62/75 411/60/74 407/63/75
f 407/63/75 406/64/75 409/62/75
f 402/53/76 404/65/76 412/66/77
f 412/66/77 411/67/78 402/53/76
f 411/67/78 412/66/77 408/68/79
f 408/68/79 407/69/79 411/67/78
f 404/59/80 400/58/80 410/61/81
f 410/61/81 412/60/82 404/59/80
f 412/60/82 410/61/81 405/70/83
f 405/70/83 408/71/83 412/60/82
f 413/72/6 414/73/6 415/74/6
f 415/74/6 416/75/6 413/72/6
f 417/72/10 418/73/10 419/74/10
f 419/74/10 420/75/10 417/72/10
f 413/10/12 416/76/12 418/77/12
f 418/77/12 417/78/12 413/10/12
f 416/72/7 415/73/7 419/74/7
f 419/74/7 418/75/7 416/72/7
f 414/72/4 413/73/4 417/74/4
f 417/74/4 420/75/4 414/72/4
f 421/79/6 422/80/6 423/81/6
f 423/81/6 424/82/6 425/83/6
f 425/83/6 426/84/6 427/85/6
f 423/81/6 425/83/6 427/85/6
f 427/85/6 428/86/6 429/87/6
f 429/87/6 430/88/6 431/89/6
f 427/85/6 429/87/6 431/89/6
f 423/81/6 427/85/6 431/89/6
f 421/79/6 423/81/6 431/89/6
f 432/90/6 421/79/6 431/89/6
f 431/89/7 430/88/27 433/91/27
f 433/91/27 434/92/7 431/89/7
f 430/93/28 429/94/28 435/94/28
f 435/94/28 433/93/28 430/93/28
f 429/95/29 428/96/29 436/97/84
f 436/97/84 435/98/29 429/95/29
f 428/99/30 427/81/85 437/100/85
f 437/100/85 436/97/86 428/99/30
f 427/81/85 426/82/58 438/101/58
f 438/101/58 437/100/85 427/81/85
f 426/82/58 425/102/4 439/103/4
f 439/103/4 438/101/58 426/82/58
f 425/102/4 424/104/59 440/105/59
f 440/105/59 439/103/4 425/102/4
f 424/104/59 423/106/87 441/107/87
f 441/107/87 440/105/59 424/104/59
f 423/106/87 422/108/12 442/109/12
f 442/109/12 441/107/87 423/106/87
f 422/108/12 421/110/88 443/111/88
f 443/111/88 442/109/12 422/108/12
f 421/110/88 432/112/60 444/113/60
f 444/113/60 443/111/88 421/110/88
f 432/112/60 431/89/7 434/92/7
f 434/92/7 444/113/60 432/112/60
f 434/114/10 433/93/10 435/94/10
f 435/94/10 436/115/10 437/116/10
f 437/116/10 438/117/10 439/118/10
f 435/94/10 437/116/10 439/118/10
f 439/118/10 440/119/10 441/120/10
f 441/120/10 442/121/10 443/122/10
f 439/118/10 441/120/10 443/122/10
f 435/94/10 439/118/10 443/122/10
f 434/114/10 435/94/10 443/122/10
f 444/123/10 434/114/10 443/122/10
f 434/124/10 445/125/10 446/126/10
f 447/127/89 448/128/89 449/129/89
f 449/129/89 450/130/89 447/127/89
f 451/129/90 452/130/90 448/127/90
f 448/127/90 447/128/90 451/129/90
f 447/131/12 450/132/12 453/133/12
f 453/133/12 454/134/12 447/131/12
f 454/134/12 455/135/12 451/136/12
f 451/136/12 447/131/12 454/134/12
f 456/127/91 457/128/91 458/129/91
f 458/129/91 459/130/91 456/127/91
f 445/129/92 460/130/92 457/127/92
f 457/127/92 456/128/92 445/129/92
f 456/137/11 459/138/11 461/139/11
f 461/139/11 462/140/11 456/137/11
f 446/141/11 445/142/11 456/137/11
f 456/137/11 462/140/11 446/141/11
f 436/143/10 463/144/10 464/145/10
f 465/127/93 466/128/93 467/129/93
f 467/129/93 468/130/93 465/127/93
f 469/129/12 470/130/12 466/127/12
f 466/127/12 465/128/12 469/129/12
f 471/146/7 472/147/7 473/148/7
f 473/148/7 474/149/7 471/146/7
f 475/150/7 474/149/7 473/148/7
f 473/148/7 476/151/7 475/150/7
f 477/127/94 473/128/94 472/129/94
f 472/129/94 478/130/94 477/127/94
f 463/129/11 476/130/11 473/127/11
f 473/127/11 477/128/11 463/129/11
f 477/148/4 478/147/4 479/146/4
f 479/146/4 480/149/4 477/148/4
f 480/149/4 464/152/4 463/153/4
f 463/153/4 477/148/4 480/149/4
f 457/137/12 481/140/12 482/139/12
f 482/139/12 458/138/12 457/137/12
f 448/131/11 483/134/11 484/133/11
f 484/133/11 449/132/11 448/131/11
f 485/154/7 486/155/7 465/156/7
f 465/156/7 468/157/7 485/154/7
f 466/156/4 487/155/4 488/154/4
f 488/154/4 467/157/4 466/156/4
f 451/158/10 455/159/34 489/160/10
f 489/160/10 439/161/10 451/158/10
f 490/135/11 483/134/11 448/131/11
f 448/131/11 452/136/11 490/135/11
f 469/162/7 465/156/7 486/155/7
f 486/155/7 491/163/7 469/162/7
f 469/164/10 491/165/10 442/166/10
f 466/156/4 470/167/4 492/168/4
f 492/168/4 487/155/4 466/156/4
f 481/140/12 457/137/12 460/142/12
f 460/142/12 493/141/12 481/140/12
f 434/124/10 493/169/10 460/170/10
f 460/170/10 445/125/10 434/124/10
f 436/143/10 475/171/10 476/172/10
f 476/172/10 463/144/10 436/143/10
f 452/173/10 451/158/10 439/161/10
f 439/161/10 490/174/10 452/173/10
f 494/175/10 492/176/10 470/177/10
f 442/166/10 494/175/10 470/177/10
f 442/166/10 470/177/10 469/164/10
f 495/178/95 496/179/95 497/180/6
f 497/180/6 498/181/6 495/178/95
f 496/182/11 495/183/11 499/184/96
f 499/184/96 500/185/96 496/182/11
f 500/185/96 499/184/96 501/186/10
f 501/186/10 502/187/10 500/185/96
f 502/187/10 501/186/10 503/188/97
f 503/188/97 504/189/97 502/187/10
f 504/189/97 503/188/97 505/190/98
f 505/190/98 506/191/98 504/189/97
f 497/180/6 506/191/98 505/190/98
f 505/190/98 498/181/6 497/180/6
f 503/192/4 501/193/4 499/194/4
f 499/194/4 495/195/4 498/196/4
f 503/192/4 499/194/4 498/196/4
f 505/197/4 503/192/4 498/196/4
f 507/195/7 508/194/7 509/193/7
f 509/193/7 510/192/7 511/197/7
f 507/195/7 509/193/7 511/197/7
f 512/196/7 507/195/7 511/197/7
f 512/198/6 511/199/98 513/200/98
f 513/200/98 514/201/6 512/198/6
f 514/201/6 515/202/95 507/203/95
f 507/203/95 512/198/6 514/201/6
f 508/204/96 507/205/11 515/206/11
f 515/206/11 516/207/96 508/204/96
f 516/207/96 517/208/10 509/209/10
f 509/209/10 508/204/96 516/207/96
f 510/210/97 509/209/10 517/208/10
f 517/208/10 518/211/97 510/210/97
f 513/200/98 511/199/98 510/210/97
f 510/210/97 518/211/97 513/200/98
f 519/212/99 520/213/100 521/214/6
f 521/214/6 522/215/101 523/216/102
f 519/212/99 521/214/6 523/216/102
f 523/216/102 522/215/101 524/217/103
f 524/217/103 525/218/104 523/216/102
f 525/218/104 524/217/103 526/219/11
f 526/219/11 527/220/11 525/218/104
f 527/221/105 526/222/105 528/223/106
f 528/223/106 529/224/107 527/221/105
f 530/225/10 531/226/108 532/227/109
f 530/225/10 532/227/109 529/224/107
f 530/225/10 529/224/107 528/223/106
f 533/228/110 534/229/110 535/230/111
f 535/230/111 536/231/112 531/226/108
f 533/228/110 535/230/111 531/226/108
f 530/225/10 533/228/110 531/226/108
f 537/232/113 538/233/110 539/234/110
f 539/234/110 540/235/113 537/232/113
f 540/235/113 541/236/114 542/237/115
f 542/237/115 537/232/113 540/235/113
f 543/238/116 544/239/116 542/237/115
f 545/240/117 543/238/116 542/237/115
f 545/240/117 542/237/115 541/236/114
f 546/241/118 547/242/116 548/243/116
f 548/243/116 521/214/6 520/213/100
f 548/243/116 520/213/100 549/244/118
f 546/241/118 548/243/116 549/244/118
f 550/245/4 551/246/4 533/247/4
f 533/247/4 530/248/4 528/249/4
f 528/249/4 526/250/4 524/251/4
f 524/251/4 522/252/4 521/253/4
f 528/249/4 524/251/4 521/253/4
f 533/247/4 528/249/4 521/253/4
f 550/245/4 533/247/4 521/253/4
f 548/254/4 550/245/4 521/253/4
f 552/252/7 553/251/7 554/250/7
f 554/250/7 555/249/7 556/248/7
f 556/248/7 538/247/7 537/246/7
f 537/246/7 542/245/7 544/254/7
f 556/248/7 537/246/7 544/254/7
f 554/250/7 556/248/7 544/254/7
f 552/252/7 554/250/7 544/254/7
f 557/253/7 552/252/7 544/254/7
f 558/178/95 559/179/119 560/180/6
f 560/180/6 561/181/6 558/178/95
f 559/182/11 558/183/11 562/184/96
f 562/184/96 563/185/96 559/182/11
f 563/185/96 562/184/96 564/186/10
f 564/186/10 565/187/10 563/185/96
f 565/187/10 564/186/10 566/188/97
f 566/188/97 567/189/97 565/187/10
f 567/189/97 566/188/97 568/190/98
f 568/190/98 569/191/98 567/189/97
f 560/180/6 569/191/98 568/190/98
f 568/190/98 561/181/6 560/180/6
f 566/192/4 564/193/4 562/194/4
f 562/194/4 558/195/4 561/196/4
f 566/192/4 562/194/4 561/196/4
f 568/197/4 566/192/4 561/196/4
f 570/195/7 571/194/7 572/193/7
f 572/193/7 573/192/7 574/197/7
f 570/195/7 572/193/7 574/197/7
f 575/196/7 570/195/7 574/197/7
f 575/198/6 574/199/98 576/200/98
f 576/200/98 577/201/6 575/198/6
f 577/201/6 578/202/119 570/203/95
f 570/203/95 575/198/6 577/201/6
f 571/204/96 570/205/11 578/206/11
f 578/206/11 579/207/96 571/204/96
f 579/207/96 580/208/10 572/209/10
f 572/209/10 571/204/96 579/207/96
f 573/210/97 572/209/10 580/208/10
f 580/208/10 581/211/97 573/210/97
f 576/200/98 574/199/98 573/210/97
f 573/210/97 581/211/97 576/200/98
f 582/255/120 583/213/121 584/214/6
f 584/214/6 585/215/101 586/216/122
f 582/255/120 584/214/6 586/216/122
f 586/216/122 585/215/101 587/217/103
f 587/217/103 588/218/104 586/216/122
f 588/218/104 587/217/103 589/219/11
f 589/219/11 590/220/11 588/218/104
f 590/221/105 589/222/105 591/223/106
f 591/223/106 592/224/123 590/221/105
f 593/225/10 594/226/124 595/227/125
f 593/225/10 595/227/125 592/224/123
f 593/225/10 592/224/123 591/223/106
f 596/228/110 597/229/110 598/230/111
f 598/230/111 599/231/126 594/226/124
f 596/228/110 598/230/111 594/226/124
f 593/225/10 596/228/110 594/226/124
f 600/232/113 601/233/110 602/234/110
f 602/234/110 603/235/113 600/232/113
f 603/235/113 604/236/115 605/237/115
f 605/237/115 600/232/113 603/235/113
f 606/239/116 605/237/115 604/236/115
f 604/236/115 607/238/116 606/239/116
f 608/241/118 609/242/116 610/243/116
f 610/243/116 584/214/6 583/213/121
f 610/243/116 583/213/121 611/244/127
f 608/241/118 610/243/116 611/244/127
f 612/245/4 613/246/4 596/247/4
f 596/247/4 593/248/4 591/249/4
f 591/249/4 589/250/4 587/251/4
f 587/251/4 585/252/4 584/253/4
f 591/249/4 587/251/4 584/253/4
f 596/247/4 591/249/4 584/253/4
f 612/245/4 596/247/4 584/253/4
f 610/254/4 612/245/4 584/253/4
f 614/252/7 615/251/7 616/250/7
f 616/250/7 617/249/7 618/248/7
f 618/248/7 601/247/7 600/246/7
f 600/246/7 605/245/7 606/254/7
f 618/248/7 600/246/7 606/254/7
f 616/250/7 618/248/7 606/254/7
f 614/252/7 616/250/7 606/254/7
f 619/253/7 614/252/7 606/254/7
f 620/178/95 621/179/95 622/180/6
f 622/180/6 623/181/6 620/178/95
f 621/182/11 620/183/11 624/184/96
f 624/184/96 625/185/96 621/182/11
f 625/185/96 624/184/96 626/186/10
f 626/186/10 627/187/10 625/185/96
f 627/187/10 626/186/10 628/188/97
f 628/188/97 629/189/97 627/187/10
f 629/189/97 628/188/97 630/190/98
f 630/190/98 631/191/98 629/189/97
f 622/180/6 631/191/98 630/190/98
f 630/190/98 623/181/6 622/180/6
f 628/192/4 626/193/4 624/194/4
f 624/194/4 620/195/4 623/196/4
f 628/192/4 624/194/4 623/196/4
f 630/197/4 628/192/4 623/196/4
f 632/195/7 633/194/7 634/193/7
f 634/193/7 635/192/7 636/197/7
f 632/195/7 634/193/7 636/197/7
f 637/196/7 632/195/7 636/197/7
f 637/198/6 636/199/98 638/200/98
f 638/200/98 639/201/6 637/198/6
f 639/201/6 640/202/95 632/203/95
f 632/203/95 637/198/6 639/201/6
f 633/204/96 632/205/11 640/206/11
f 640/206/11 641/207/96 633/204/96
f 641/207/96 642/208/10 634/209/10
f 634/209/10 633/204/96 641/207/96
f 635/210/97 634/209/10 642/208/10
f 642/208/10 643/211/97 635/210/97
f 638/200/98 636/199/98 635/210/97
f 635/210/97 643/211/97 638/200/98
f 644/256/128 645/257/101 646/258/101
f 646/258/101 647/259/6 648/260/129
f 646/258/101 648/260/129 649/261/130
f 644/256/128 646/258/101 649/261/130
f 650/262/131 651/263/103 652/264/103
f 652/264/103 646/258/101 645/257/101
f 650/262/131 652/264/103 645/257/101
f 653/265/11 652/264/103 651/263/103
f 651/263/103 654/266/11 653/265/11
f 654/267/105 655/268/106 656/269/106
f 656/269/106 653/270/105 654/267/105
f 657/271/132 658/272/10 656/269/106
f 656/269/106 655/268/106 659/273/133
f 657/271/132 656/269/106 659/273/133
f 660/274/134 657/271/132 659/273/133
f 661/275/135 662/233/110 658/272/10
f 663/276/136 661/275/135 658/272/10
f 663/276/136 658/272/10 657/271/132
f 661/275/135 664/277/137 665/232/113
f 665/232/113 662/233/110 661/275/135
f 666/237/115 665/232/113 664/277/137
f 664/277/137 667/278/138 666/237/115
f 667/278/138 668/279/139 669/239/116
f 669/239/116 666/237/115 667/278/138
f 670/280/140 648/260/129 647/259/6
f 647/259/6 669/239/116 668/279/139
f 670/280/140 647/259/6 668/279/139
f 671/245/4 672/246/4 673/247/4
f 673/247/4 674/248/4 675/249/4
f 675/249/4 676/250/4 677/251/4
f 677/251/4 678/252/4 679/253/4
f 675/249/4 677/251/4 679/253/4
f 673/247/4 675/249/4 679/253/4
f 671/245/4 673/247/4 679/253/4
f 680/254/4 671/245/4 679/253/4
f 646/252/7 652/251/7 653/250/7
f 653/250/7 656/249/7 658/248/7
f 658/248/7 662/247/7 665/246/7
f 665/246/7 666/245/7 669/254/7
f 658/248/7 665/246/7 669/254/7
f 653/250/7 658/248/7 669/254/7
f 646/252/7 653/250/7 669/254/7
f 647/253/7 646/252/7 669/254/7
f 681/178/95 682/179/119 683/180/6
f 683/180/6 684/181/6 681/178/95
f 682/182/11 681/183/11 685/184/96
f 685/184/96 686/185/96 682/182/11
f 686/185/96 685/184/96 687/186/10
f 687/186/10 688/187/10 686/185/96
f 688/187/10 687/186/10 689/188/97
f 689/188/97 690/189/97 688/187/10
f 690/189/97 689/188/97 691/190/98
f 691/190/98 692/191/98 690/189/97
f 683/180/6 692/191/98 691/190/98
f 691/190/98 684/181/6 683/180/6
f 689/192/4 687/193/4 685/194/4
f 685/194/4 681/195/4 684/196/4
f 689/192/4 685/194/4 684/196/4
f 691/197/4 689/192/4 684/196/4
f 693/195/7 694/194/7 695/193/7
f 695/193/7 696/192/7 697/197/7
f 693/195/7 695/193/7 697/197/7
f 698/196/7 693/195/7 697/197/7
f 698/198/6 697/199/98 699/200/98
f 699/200/98 700/201/6 698/198/6
f 700/201/6 701/202/119 693/203/95
f 693/203/95 698/198/6 700/201/6
f 694/204/96 693/205/11 701/206/11
f 701/206/11 702/207/96 694/204/96
f 702/207/96 703/208/10 695/209/10
f 695/209/10 694/204/96 702/207/96
f 696/210/97 695/209/10 703/208/10
f 703/208/10 704/211/97 696/210/97
f 699/200/98 697/199/98 696/210/97
f 696/210/97 704/211/97 699/200/98
f 705/256/128 706/257/101 707/258/101
f 707/258/101 708/259/6 709/260/141
f 707/258/101 709/260/141 710/261/130
f 705/256/128 707/258/101 710/261/130
f 711/264/103 707/258/101 706/257/101
f 706/257/101 712/263/103 711/264/103
f 712/263/103 713/266/11 714/265/11
f 714/265/11 711/264/103 712/263/103
f 715/269/106 714/270/105 713/267/105
f 713/267/105 716/268/106 715/269/106
f 717/271/142 718/272/10 715/269/106
f 715/269/106 716/268/106 719/273/133
f 717/271/142 715/269/106 719/273/133
f 720/274/109 717/271/142 719/273/133
f 721/275/143 722/233/110 718/272/10
f 723/276/112 721/275/143 718/272/10
f 723/276/112 718/272/10 717/271/142
f 721/275/143 724/277/137 725/232/113
f 725/232/113 722/233/110 721/275/143
f 726/237/115 725/232/113 724/277/137
f 724/277/137 727/278/138 726/237/115
f 727/278/138 728/279/144 729/239/116
f 729/239/116 726/237/115 727/278/138
f 730/280/145 709/260/141 708/259/6
f 708/259/6 729/239/116 728/279/144
f 730/280/145 708/259/6 728/279/144
f 731/245/4 732/246/4 733/247/4
f 733/247/4 734/248/4 735/249/4
f 735/249/4 736/250/4 737/251/4
f 737/251/4 738/252/4 739/253/4
f 735/249/4 737/251/4 739/253/4
f 733/247/4 735/249/4 739/253/4
f 731/245/4 733/247/4 739/253/4
f 740/254/4 731/245/4 739/253/4
f 707/252/7 711/251/7 714/250/7
f 714/250/7 715/249/7 718/248/7
f 718/248/7 722/247/7 725/246/7
f 725/246/7 726/245/7 729/254/7
f 718/248/7 725/246/7 729/254/7
f 714/250/7 718/248/7 729/254/7
f 707/252/7 714/250/7 729/254/7
f 708/253/7 707/252/7 729/254/7
f 673/228/110 672/281/113 741/282/137
f 741/282/137 742/283/143 673/228/110
f 743/284/146 744/226/132 674/225/10
f 673/228/110 742/283/143 745/285/147
f 674/225/10 673/228/110 745/285/147
f 743/284/146 674/225/10 745/285/147
f 746/286/138 671/287/115 680/243/116
f 680/243/116 747/288/139 746/286/138
f 741/282/137 672/281/113 671/287/115
f 671/287/115 746/286/138 741/282/137
f 679/214/6 748/213/148 749/289/118
f 679/214/6 749/289/118 750/290/127
f 751/291/149 747/288/139 680/243/116
f 750/290/127 751/291/149 680/243/116
f 679/214/6 750/290/127 680/243/116
f 733/228/110 732/281/113 752/282/137
f 752/282/137 753/283/143 733/228/110
f 754/284/150 755/226/151 734/225/10
f 733/228/110 753/283/143 756/285/150
f 734/225/10 733/228/110 756/285/150
f 754/284/150 734/225/10 756/285/150
f 757/286/138 731/287/115 740/243/116
f 740/243/116 758/288/139 757/286/138
f 752/282/137 732/281/113 731/287/115
f 731/287/115 757/286/138 752/282/137
f 739/214/6 759/213/141 760/289/152
f 739/214/6 760/289/152 761/290/127
f 762/291/149 758/288/139 740/243/116
f 761/290/127 762/291/149 740/243/116
f 739/214/6 761/290/127 740/243/116
f 748/213/148 679/214/6 678/215/101
f 678/215/101 763/292/153 764/293/128
f 678/215/101 764/293/128 765/294/130
f 748/213/148 678/215/101 765/294/130
f 748/213/148 765/294/130 766/295/154
f 759/213/141 739/214/6 738/215/101
f 738/215/101 767/292/155 768/293/128
f 738/215/101 768/293/128 769/294/156
f 759/213/141 738/215/101 769/294/156
f 759/213/141 769/294/156 770/295/130
f 716/268/106 771/296/106 772/297/133
f 772/297/133 773/298/109 774/299/157
f 716/268/106 772/297/133 774/299/157
f 774/299/157 720/274/109 719/273/133
f 716/268/106 774/299/157 719/273/133
f 735/223/106 734/225/10 755/226/151
f 755/226/151 773/298/109 772/297/133
f 735/223/106 755/226/151 772/297/133
f 735/223/106 772/297/133 771/296/106
f 744/226/132 775/298/134 776/297/134
f 777/300/133 778/296/158 675/223/106
f 776/297/134 777/300/133 675/223/106
f 744/226/132 776/297/134 675/223/106
f 744/226/132 675/223/106 674/225/10
f 557/259/6 779/260/159 780/301/128
f 557/259/6 780/301/128 781/302/130
f 782/303/160 783/304/102 552/258/101
f 781/302/130 782/303/160 552/258/101
f 557/259/6 781/302/130 552/258/101
f 784/305/104 553/264/103 552/258/101
f 552/258/101 783/304/102 784/305/104
f 784/305/104 785/306/11 554/265/11
f 554/265/11 553/264/103 784/305/104
f 555/269/106 554/270/105 785/307/105
f 785/307/105 786/308/123 555/269/106
f 787/309/161 788/271/108 556/272/10
f 555/269/106 786/308/123 789/310/162
f 556/272/10 555/269/106 789/310/162
f 787/309/161 556/272/10 789/310/162
f 619/259/6 790/260/121 791/301/163
f 619/259/6 791/301/163 792/311/130
f 793/303/160 794/304/102 614/258/101
f 792/311/130 793/303/160 614/258/101
f 619/259/6 792/311/130 614/258/101
f 795/305/104 615/264/103 614/258/101
f 614/258/101 794/304/102 795/305/104
f 795/305/104 796/306/11 616/265/11
f 616/265/11 615/264/103 795/305/104
f 617/269/106 616/270/105 796/307/105
f 796/307/105 797/308/123 617/269/106
f 798/309/134 799/271/164 618/272/10
f 617/269/106 797/308/123 800/310/134
f 618/272/10 617/269/106 800/310/134
f 798/309/134 618/272/10 800/310/134
f 801/312/111 802/313/150 803/314/111
f 539/234/110 801/312/111 803/314/111
f 803/314/111 536/231/112 535/230/111
f 539/234/110 803/314/111 535/230/111
f 539/234/110 535/230/111 534/229/110
f 538/233/110 556/272/10 788/271/108
f 788/271/108 802/313/150 801/312/111
f 538/233/110 788/271/108 801/312/111
f 538/233/110 801/312/111 539/234/110
f 544/239/116 543/238/116 804/315/118
f 804/315/118 805/316/165 779/260/159
f 544/239/116 804/315/118 779/260/159
f 544/239/116 779/260/159 557/259/6
f 806/312/111 807/313/126 808/314/166
f 602/234/110 806/312/111 808/314/166
f 808/314/166 599/231/126 598/230/111
f 602/234/110 808/314/166 598/230/111
f 602/234/110 598/230/111 597/229/110
f 601/233/110 618/272/10 799/271/164
f 799/271/164 807/313/126 806/312/111
f 601/233/110 799/271/164 806/312/111
f 601/233/110 806/312/111 602/234/110
f 606/239/116 607/238/116 809/315/118
f 809/315/118 810/316/127 790/260/121
f 606/239/116 809/315/118 790/260/121
f 606/239/116 790/260/121 619/259/6
f 811/317/130 766/295/154 765/294/130
f 811/317/130 765/294/130 764/293/128
f 764/293/128 763/292/153 645/257/101
f 764/293/128 645/257/101 644/256/128
f 811/317/130 764/293/128 644/256/128
f 649/261/130 811/317/130 644/256/128
f 812/318/167 813/319/168 651/263/103
f 812/318/167 651/263/103 650/262/131
f 814/320/169 812/318/167 650/262/131
f 763/292/153 814/320/169 650/262/131
f 645/257/101 763/292/153 650/262/131
f 813/319/168 815/321/11 654/266/11
f 654/266/11 651/263/103 813/319/168
f 816/317/170 770/295/130 769/294/156
f 816/317/170 769/294/156 768/293/128
f 768/293/128 767/292/155 706/257/101
f 768/293/128 706/257/101 705/256/128
f 816/317/170 768/293/128 705/256/128
f 710/261/130 816/317/170 705/256/128
f 737/217/103 736/219/11 817/321/11
f 817/321/11 818/319/103 737/217/103
f 767/292/155 818/319/103 712/263/103
f 712/263/103 706/257/101 767/292/155
f 817/322/105 771/296/106 716/268/106
f 716/268/106 713/267/105 817/322/105
f 676/222/105 675/223/106 778/296/158
f 778/296/158 815/322/105 676/222/105
f 677/217/103 813/319/168 812/318/167
f 677/217/103 812/318/167 814/320/169
f 678/215/101 677/217/103 814/320/169
f 763/292/153 678/215/101 814/320/169
f 776/297/134 775/298/134 819/299/133
f 777/300/133 776/297/134 819/299/133
f 819/299/133 660/274/134 659/273/133
f 777/300/133 819/299/133 659/273/133
f 777/300/133 659/273/133 655/268/106
f 777/300/133 655/268/106 778/296/158
f 738/215/101 737/217/103 818/319/103
f 818/319/103 767/292/155 738/215/101
f 677/217/103 676/219/11 815/321/11
f 815/321/11 813/319/168 677/217/103
f 736/222/105 735/223/106 771/296/106
f 771/296/106 817/322/105 736/222/105
f 713/266/11 712/263/103 818/319/103
f 818/319/103 817/321/11 713/266/11
f 654/267/105 815/322/105 778/296/158
f 778/296/158 655/268/106 654/267/105
f 820/323/171 821/324/172 550/287/115
f 822/325/173 820/323/171 550/287/115
f 550/287/115 548/243/116 547/242/116
f 822/325/173 550/287/115 547/242/116
f 543/238/116 547/242/116 546/241/118
f 546/241/118 549/244/118 823/326/118
f 543/238/116 546/241/118 823/326/118
f 804/315/118 543/238/116 823/326/118
f 804/315/118 823/326/118 805/316/165
f 551/281/113 550/287/115 821/324/172
f 821/324/172 824/327/113 551/281/113
f 533/228/110 551/281/113 824/327/113
f 824/327/113 534/229/110 533/228/110
f 613/281/113 612/287/115 825/324/115
f 825/324/115 826/327/113 613/281/113
f 596/228/110 613/281/113 826/327/113
f 826/327/113 597/229/110 596/228/110
f 825/324/115 609/242/116 607/238/116
f 607/238/116 604/236/115 825/324/115
f 607/238/116 609/242/116 608/241/118
f 608/241/118 611/244/127 827/326/118
f 607/238/116 608/241/118 827/326/118
f 809/315/118 607/238/116 827/326/118
f 809/315/118 827/326/118 810/316/127
f 541/236/114 821/324/172 820/323/171
f 547/242/116 543/238/116 545/240/117
f 822/325/173 547/242/116 545/240/117
f 820/323/171 822/325/173 545/240/117
f 541/236/114 820/323/171 545/240/117
f 539/234/110 534/229/110 824/327/113
f 824/327/113 540/235/113 539/234/110
f 541/236/114 540/235/113 824/327/113
f 824/327/113 821/324/172 541/236/114
f 612/287/115 610/243/116 609/242/116
f 609/242/116 825/324/115 612/287/115
f 602/234/110 597/229/110 826/327/113
f 826/327/113 603/235/113 602/234/110
f 604/236/115 603/235/113 826/327/113
f 826/327/113 825/324/115 604/236/115
f 828/328/174 829/329/7 830/330/7
f 830/330/7 831/331/174 828/328/174
f 832/332/175 828/328/174 831/331/174
f 831/331/174 833/333/175 832/332/175
f 834/334/11 832/332/175 833/333/175
f 833/333/175 835/335/11 834/334/11
f 836/336/176 834/337/63 835/338/63
f 835/338/63 837/339/176 836/336/176
f 838/340/4 836/336/176 837/339/176
f 837/339/176 839/341/4 838/340/4
f 840/342/177 838/340/4 839/341/4
f 839/341/4 841/343/177 840/342/177
f 842/344/178 840/342/177 841/343/177
f 841/343/177 843/345/178 842/344/178
f 844/346/179 842/344/178 843/345/178
f 843/345/178 845/347/179 844/346/179
f 846/348/180 844/346/179 845/347/179
f 845/347/179 847/349/180 846/348/180
f 828/350/10 832/351/10 834/352/10
f 834/352/10 836/353/10 838/354/10
f 838/354/10 840/355/10 842/356/10
f 842/356/10 844/357/10 846/358/10
f 838/354/10 842/356/10 846/358/10
f 834/352/10 838/354/10 846/358/10
f 828/350/10 834/352/10 846/358/10
f 829/359/10 828/350/10 846/358/10
f 848/328/174 849/329/7 850/330/7
f 850/330/7 851/331/174 848/328/174
f 852/332/175 848/328/174 851/331/174
f 851/331/174 853/333/175 852/332/175
f 854/334/11 852/332/175 853/333/175
f 853/333/175 855/335/11 854/334/11
f 856/336/176 854/337/63 855/338/63
f 855/338/63 857/339/176 856/336/176
f 858/340/4 856/336/176 857/339/176
f 857/339/176 859/341/4 858/340/4
f 860/342/177 858/340/4 859/341/4
f 859/341/4 861/343/177 860/342/177
f 862/344/178 860/342/177 861/343/177
f 861/343/177 863/345/178 862/344/178
f 864/346/179 862/344/178 863/345/178
f 863/345/178 865/347/179 864/346/179
f 866/348/180 864/346/179 865/347/179
f 865/347/179 867/349/180 866/348/180
f 848/350/10 852/351/10 854/352/10
f 854/352/10 856/353/10 858/354/10
f 858/354/10 860/355/10 862/356/10
f 862/356/10 864/357/10 866/358/10
f 858/354/10 862/356/10 866/358/10
f 854/352/10 858/354/10 866/358/10
f 848/350/10 854/352/10 866/358/10
f 849/359/10 848/350/10 866/358/10
f 868/328/174 869/329/7 870/330/7
f 870/330/7 871/331/174 868/328/174
f 872/332/175 868/328/174 871/331/174
f 871/331/174 873/333/175 872/332/175
f 874/334/11 872/332/175 873/333/175
f 873/333/175 875/335/11 874/334/11
f 876/336/176 874/337/63 875/338/63
f 875/338/63 877/339/176 876/336/176
f 878/340/4 876/336/176 877/339/176
f 877/339/176 879/341/4 878/340/4
f 880/342/177 878/340/4 879/341/4
f 879/341/4 881/343/177 880/342/177
f 882/344/178 880/342/177 881/343/177
f 881/343/177 883/345/178 882/344/178
f 884/346/179 882/344/178 883/345/178
f 883/345/178 885/347/179 884/346/179
f 886/348/180 884/346/179 885/347/179
f 885/347/179 887/349/180 886/348/180
f 868/350/10 872/351/10 874/352/10
f 874/352/10 876/353/10 878/354/10
f 878/354/10 880/355/10 882/356/10
f 882/356/10 884/357/10 886/358/10
f 878/354/10 882/356/10 886/358/10
f 874/352/10 878/354/10 886/358/10
f 868/350/10 874/352/10 886/358/10
f 869/359/10 868/350/10 886/358/10
f 869/329/7 886/348/180 887/349/180
f 887/349/180 870/330/7 869/329/7
f 849/329/7 866/348/180 867/349/180
f 867/349/180 850/330/7 849/329/7
f 888/328/174 889/329/7 890/330/7
f 890/330/7 891/331/174 888/328/174
f 892/332/175 888/328/174 891/331/174
f 891/331/174 893/333/175 892/332/175
f 894/334/11 892/332/175 893/333/175
f 893/333/175 895/335/11 894/334/11
f 896/336/176 894/337/63 895/338/63
f 895/338/63 897/339/176 896/336/176
f 898/340/4 896/336/176 897/339/176
f 897/339/176 899/341/4 898/340/4
f 900/342/177 898/340/4 899/341/4
f 899/341/4 901/343/177 900/342/177
f 902/344/178 900/342/177 901/343/177
f 901/343/177 903/345/178 902/344/178
f 904/346/179 902/344/178 903/345/178
f 903/345/178 905/347/179 904/346/179
f 906/348/180 904/346/179 905/347/179
f 905/347/179 907/349/180 906/348/180
f 888/350/10 892/351/10 894/352/10
f 894/352/10 896/353/10 898/354/10
f 898/354/10 900/355/10 902/356/10
f 902/356/10 904/357/10 906/358/10
f 898/354/10 902/356/10 906/358/10
f 894/352/10 898/354/10 906/358/10
f 888/350/10 894/352/10 906/358/10
f 889/359/10 888/350/10 906/358/10
f 829/329/7 846/348/180 847/349/180
f 847/349/180 830/330/7 829/329/7
f 889/329/7 906/348/180 907/349/180
f 907/349/180 890/330/7 889/329/7
f 908/360/7 909/361/181 910/362/181
f 910/362/181 911/329/7 908/360/7
f 909/361/181 912/363/11 913/364/11
f 913/364/11 910/362/181 909/361/181
f 912/365/58 914/366/4 915/340/4
f 915/340/4 913/367/58 912/365/58
f 914/366/4 916/368/87 917/369/87
f 917/369/87 915/340/4 914/366/4
f 916/368/87 918/370/88 919/371/88
f 919/371/88 917/369/87 916/368/87
f 918/370/88 908/360/7 911/329/7
f 911/329/7 919/371/88 918/370/88
f 916/372/6 914/354/6 912/373/6
f 912/373/6 909/374/6 908/359/6
f 916/372/6 912/373/6 908/359/6
f 918/375/6 916/372/6 908/359/6
f 910/374/10 913/373/10 915/354/10
f 915/354/10 917/372/10 919/375/10
f 910/374/10 915/354/10 919/375/10
f 911/359/10 910/374/10 919/375/10
f 920/360/7 921/361/181 922/362/181
f 922/362/181 923/329/7 920/360/7
f 921/361/181 924/363/11 925/364/11
f 925/364/11 922/362/181 921/361/181
f 924/365/58 926/366/4 927/340/4
f 927/340/4 925/367/58 924/365/58
f 926/366/4 928/368/87 929/369/87
f 929/369/87 927/340/4 926/366/4
f 928/368/87 930/370/88 931/371/88
f 931/371/88 929/369/87 928/368/87
f 930/370/88 920/360/7 923/329/7
f 923/329/7 931/371/88 930/370/88
f 928/372/6 926/354/6 924/373/6
f 924/373/6 921/374/6 920/359/6
f 928/372/6 924/373/6 920/359/6
f 930/375/6 928/372/6 920/359/6
f 922/374/10 925/373/10 927/354/10
f 927/354/10 929/372/10 931/375/10
f 922/374/10 927/354/10 931/375/10
f 923/359/10 922/374/10 931/375/10
f 932/360/7 933/361/181 934/362/181
f 934/362/181 935/329/7 932/360/7
f 933/361/181 936/363/11 937/364/11
f 937/364/11 934/362/181 933/361/181
f 936/365/58 938/366/4 939/340/4
f 939/340/4 937/367/58 936/365/58
f 938/366/4 940/368/87 941/369/87
f 941/369/87 939/340/4 938/366/4
f 940/368/87 942/370/88 943/371/88
f 943/371/88 941/369/87 940/368/87
f 942/370/88 932/360/7 935/329/7
f 935/329/7 943/371/88 942/370/88
f 940/372/6 938/354/6 936/373/6
f 936/373/6 933/374/6 932/359/6
f 940/372/6 936/373/6 932/359/6
f 942/375/6 940/372/6 932/359/6
f 934/374/10 937/373/10 939/354/10
f 939/354/10 941/372/10 943/375/10
f 934/374/10 939/354/10 943/375/10
f 935/359/10 934/374/10 943/375/10
f 944/360/7 945/361/181 946/362/181
f 946/362/181 947/329/7 944/360/7
f 945/361/181 948/363/11 949/364/11
f 949/364/11 946/362/181 945/361/181
f 948/365/58 950/366/4 951/340/4
f 951/340/4 949/367/58 948/365/58
f 950/366/4 952/368/87 953/369/87
f 953/369/87 951/340/4 950/366/4
f 952/368/87 954/370/88 955/371/88
f 955/371/88 953/369/87 952/368/87
f 954/370/88 944/360/7 947/329/7
f 947/329/7 955/371/88 954/370/88
f 952/372/6 950/354/6 948/373/6
f 948/373/6 945/374/6 944/359/6
f 952/372/6 948/373/6 944/359/6
f 954/375/6 952/372/6 944/359/6
f 946/374/10 949/373/10 951/354/10
f 951/354/10 953/372/10 955/375/10
f 946/374/10 951/354/10 955/375/10
f 947/359/10 946/374/10 955/375/10
f 956/376/12 957/377/12 958/378/12
f 958/378/12 959/379/12 956/376/12
f 960/376/7 956/377/7 959/378/7
f 959/378/7 961/379/7 960/376/7
f 962/376/11 960/377/11 961/378/11
f 961/378/11 963/379/11 962/376/11
f 957/376/4 962/377/4 963/378/4
f 963/378/4 958/379/4 957/376/4
f 964/376/12 965/377/12 966/378/12
f 966/378/12 967/379/12 964/376/12
f 968/376/7 964/377/7 967/378/7
f 967/378/7 969/379/7 968/376/7
f 970/376/11 968/377/11 969/378/11
f 969/378/11 971/379/11 970/376/11
f 965/376/4 970/377/4 971/378/4
f 971/378/4 966/379/4 965/376/4
f 972/377/6 973/378/6 974/379/6
f 974/379/6 975/376/6 972/377/6
f 976/376/10 977/377/10 978/378/10
f 978/378/10 979/379/10 976/376/10
f 979/376/12 978/377/12 974/378/12
f 974/378/12 973/379/12 979/376/12
f 976/376/7 979/377/7 973/378/7
f 973/378/7 972/379/7 976/376/7
f 977/376/11 976/377/11 972/378/11
f 972/378/11 975/379/11 977/376/11
f 978/376/4 977/377/4 975/378/4
f 975/378/4 974/379/4 978/376/4
f 980/380/10 981/381/10 982/382/10
f 982/382/10 983/383/10 980/380/10
f 984/380/182 985/381/182 981/382/12
f 981/382/12 980/383/12 984/380/182
f 985/380/7 986/381/7 982/382/7
f 982/382/7 981/383/7 985/380/7
f 986/380/183 987/381/183 983/382/11
f 983/382/11 982/383/11 986/380/183
f 987/380/4 984/381/4 980/382/4
f 980/382/4 983/383/4 987/380/4
f 5/10/3 10/10/184 4/10/3
f 6/10/4 9/10/185 1/10/4
f 7/10/5 8/10/5 2/10/5
f 11/10/7 17/10/186 3/10/7
f 16/10/3 19/10/187 15/10/3
f 18/10/4 24/10/4 12/10/4
f 22/5/5 21/384/188 13/1/5
f 23/7/7 20/385/7 14/8/7
f 17/9/9 17/386/9 8/1/9
f 8/12/11 8/384/10 9/1/10
f 9/5/9 9/384/9 10/1/9
f 24/13/9 24/386/9 19/1/9
f 19/9/11 19/386/10 20/1/10
f 20/16/9 20/387/9 21/14/9
f 3/380/3 17/380/3 5/381/3
f 4/380/4 10/381/4 6/380/4
f 1/2/5 9/388/5 7/5/5
f 3/6/7 2/389/7 8/7/8
f 14/2/3 20/11/189 16/9/3
f 15/1/4 19/2/190 18/11/4
f 12/2/5 24/388/191 22/5/5
f 14/2/7 13/388/7 21/13/7
f 986/2/183 984/11/182 987/9/183
f 986/14/183 985/390/182 984/15/182
