# generated by tools/objdedupe/dedupe.py -- do not hand-edit.
# Re-run the tool after touching sssr_2svet_nove.obj, sssr_3svet_nove.obj, sssr_4svet_nove.obj, sssr_5svet_nove.obj, sssr_2se_nove.obj, sssr_3ab_nove.obj, sssr_4ab_nove.obj, sssr_pr_nove.obj, sssr_vl_nove.obj.
o stoz_4ab_nater
v -0.040535 0.296450 -0.000000
vt 0.009207 0.328572
vn -0.965900 -0.000000 0.258800
v -0.035105 2.864978 0.020268
vt 0.121058 0.694638
vn -0.866000 -0.000000 0.500000
v -0.040535 2.864978 -0.000000
vt 0.009207 0.694638
v -0.035105 0.296450 0.020268
vt 0.121058 0.328572
v -0.020268 2.864978 0.035105
vt 0.273503 0.694638
vn -0.500000 -0.000000 0.866000
v -0.020268 0.296450 0.035105
vt 0.273502 0.328572
v 0.000000 2.864978 0.040535
vt 0.500000 0.694638
vn -0.000000 -0.000000 1.000000
v 0.000000 0.296450 0.040535
vt 0.500000 0.328572
v 0.020268 2.864978 0.035105
vt 0.726497 0.694638
vn 0.500000 -0.000000 0.866000
v 0.020268 0.296450 0.035105
vt 0.726498 0.328572
v 0.035105 2.864978 0.020268
vt 0.878942 0.694638
vn 0.866000 -0.000000 0.500000
v 0.035105 0.296450 0.020268
vt 0.878942 0.328572
v 0.040535 2.864978 -0.000000
vt 0.990793 0.694638
vn 0.965900 -0.000000 0.258800
v 0.040535 0.296450 -0.000000
vt 0.990793 0.328572
f 1/1/1 2/2/2 3/3/1
f 1/1/1 4/4/2 2/2/2
f 4/4/2 5/5/3 2/2/2
f 4/4/2 6/6/3 5/5/3
f 6/6/3 7/7/4 5/5/3
f 6/6/3 8/8/4 7/7/4
f 8/8/4 9/9/5 7/7/4
f 8/8/4 10/10/5 9/9/5
f 10/10/5 11/11/6 9/9/5
f 10/10/5 12/12/6 11/11/6
f 12/12/6 13/13/7 11/11/6
f 12/12/6 14/14/7 13/13/7
