# generated by tools/objdedupe/dedupe.py -- do not hand-edit.
# Re-run the tool after touching sssr_2svet_nove.obj, sssr_3svet_nove.obj, sssr_4svet_nove.obj, sssr_5svet_nove.obj, sssr_2se_nove.obj, sssr_3ab_nove.obj, sssr_4ab_nove.obj, sssr_pr_nove.obj, sssr_vl_nove.obj.
o stoz_5_zaklad
v -0.090750 1.156492 -0.325079
vt 0.793811 0.496512
vn -0.000000 0.994300 0.106200
v -0.084700 1.156492 -0.325079
vt 0.934980 0.496512
v -0.084700 1.159706 -0.355158
vt 0.934980 0.006378
vn -0.000000 0.994300 0.106300
v -0.090750 1.159706 -0.355158
vt 0.793811 0.006378
vn -0.000000 0.106300 -0.994300
v -0.085566 -0.000001 -0.479095
vt 0.914763 0.076568
vn -0.000100 0.106300 -0.994300
vt 0.996710 0.496678
vn -1.000000 -0.000000 -0.000000
v -0.090750 -0.000000 -0.474728
vt 0.989419 0.071722
vt 0.937772 0.495768
vn -0.000000 -0.106300 0.994300
v -0.089869 -0.000000 -0.448673
vt 0.914428 0.077732
vn 1.000000 -0.000000 -0.000000
v -0.084700 -0.000000 -0.448673
vt 0.934980 0.077732
v -0.084700 -0.000000 -0.453091
vt 0.914476 0.077563
v 0.084700 1.156492 -0.325079
v 0.090750 1.156492 -0.325079
v 0.090750 1.159706 -0.355158
v 0.084700 1.159706 -0.355158
v 0.089884 -0.000001 -0.479095
v 0.084700 -0.000000 -0.474728
vt 0.914715 0.076735
v 0.085581 -0.000000 -0.448673
vt 0.997924 0.499013
v 0.090750 -0.000000 -0.448673
vt 0.937579 0.077150
v 0.090750 -0.000000 -0.453091
vt 0.946343 0.076980
v 0.060500 1.927833 -0.002945
vn -0.000000 -1.000000 -0.000000
v 0.060500 1.927833 0.003105
v -0.060500 1.927833 0.003105
v -0.060500 1.927833 -0.002945
v 0.060500 1.958083 -0.002945
vn -0.000000 1.000000 -0.000000
v -0.060500 1.958083 -0.002945
v -0.060500 1.958083 0.003105
v 0.060500 1.958083 0.003105
vn -0.000000 -0.000000 -1.000000
vn -0.000000 -0.000000 1.000000
v -0.090613 1.927833 -0.264753
v -0.084609 1.927833 -0.265491
v -0.052167 1.927833 -0.001275
v -0.058172 1.927833 -0.000538
v -0.090613 1.958083 -0.264753
v -0.058172 1.958083 -0.000538
v -0.052167 1.958083 -0.001275
v -0.084609 1.958083 -0.265491
vn -0.992500 -0.000000 0.121900
vn 0.992500 -0.000000 -0.121900
v 0.084609 1.927833 -0.265491
v 0.090613 1.927833 -0.264754
v 0.058171 1.927833 -0.000538
v 0.052167 1.927833 -0.001275
v 0.084609 1.958083 -0.265491
v 0.052167 1.958083 -0.001275
v 0.058171 1.958083 -0.000538
v 0.090613 1.958083 -0.264754
vn -0.992500 -0.000000 -0.121900
vn 0.992500 -0.000000 0.121900
v -0.084700 1.159576 -0.355153
vn -0.000000 -0.994300 -0.106300
v -0.084700 1.156362 -0.325074
vn -0.000000 -0.994300 -0.106200
v -0.090750 1.156362 -0.325074
v -0.090750 1.159576 -0.355153
v -0.084700 3.833571 -0.069385
v -0.090750 3.833571 -0.069385
v -0.090750 3.833571 -0.039306
v -0.084700 3.833571 -0.039306
vn -0.000000 -0.106100 0.994400
v 0.090750 1.159576 -0.355153
v 0.090750 1.156362 -0.325074
v 0.084700 1.156362 -0.325074
v 0.084700 1.159576 -0.355153
v 0.090750 3.833571 -0.069385
v 0.084700 3.833571 -0.069385
v 0.084700 3.833571 -0.039306
v 0.090750 3.833571 -0.039306
v -0.047190 3.803319 0.000080
vn -0.965900 -0.000000 0.258800
v -0.040868 3.803319 0.023675
v -0.040868 3.833569 0.023675
v -0.047190 3.833569 0.000080
vn -0.707100 -0.000000 0.707100
v -0.023595 3.803319 0.040948
v -0.023595 3.833569 0.040948
vn -0.258800 -0.000000 0.965900
v 0.000000 3.803319 0.047270
v 0.000000 3.833569 0.047270
vn 0.258800 -0.000000 0.965900
v 0.023595 3.803319 0.040948
v 0.023595 3.833569 0.040948
vn 0.707100 -0.000000 0.707100
v 0.040868 3.803319 0.023675
v 0.040868 3.833569 0.023675
vn 0.965900 -0.000000 0.258800
v 0.047190 3.803319 0.000080
v 0.047190 3.833569 0.000080
vn 0.965900 -0.000000 -0.258800
v 0.040868 3.803319 -0.023515
v 0.040868 3.833571 -0.023515
vn 0.707100 -0.000000 -0.707100
v 0.023595 3.803319 -0.040788
v 0.023595 3.833569 -0.040788
vn 0.258800 -0.000000 -0.965900
v 0.000000 3.803319 -0.047110
v 0.000000 3.833569 -0.047110
vn -0.258800 -0.000000 -0.965900
v -0.023595 3.803319 -0.040788
v -0.023595 3.833569 -0.040788
vn -0.707100 -0.000000 -0.707100
v -0.040868 3.803319 -0.023515
v -0.040868 3.833571 -0.023515
vn -0.965900 -0.000000 -0.258800
vt 0.851747 0.347574
vt 0.884910 0.347574
vt 0.913630 0.354846
vt 0.930211 0.367440
vt 0.930211 0.381982
vt 0.913630 0.394576
vt 0.884910 0.401847
vt 0.851747 0.401847
vt 0.823027 0.394576
vt 0.806445 0.381982
vt 0.806445 0.367440
vt 0.823027 0.354846
vn 0.000200 1.000000 -0.000000
vn -0.000000 1.000000 -0.000100
vn -0.000200 1.000000 -0.000000
v -0.047190 1.927833 0.000080
v -0.040868 1.927833 0.023675
v -0.040868 1.958083 0.023675
v -0.047190 1.958083 0.000080
v -0.023595 1.927833 0.040948
v -0.023595 1.958083 0.040948
v 0.000000 1.927833 0.047270
v 0.000000 1.958083 0.047270
v 0.023595 1.927833 0.040948
v 0.023595 1.958083 0.040948
v 0.040868 1.927833 0.023675
v 0.040868 1.958083 0.023675
v 0.047190 1.927833 0.000080
v 0.047190 1.958083 0.000080
v 0.040868 1.927833 -0.023515
v 0.040868 1.958083 -0.023515
v 0.023595 1.927833 -0.040788
v 0.023595 1.958083 -0.040788
v 0.000000 1.927833 -0.047110
v 0.000000 1.958083 -0.047110
v -0.023595 1.927833 -0.040788
v -0.023595 1.958083 -0.040788
v -0.040868 1.927833 -0.023515
v -0.040868 1.958083 -0.023515
v -0.080189 3.803333 -0.028568
vt 0.926321 0.398062
v -0.085639 3.803333 -0.025943
vt 0.803531 0.398062
v -0.090706 3.803333 -0.048145
vt 0.803531 0.291566
v -0.084656 3.803333 -0.048145
vt 0.926321 0.304157
v -0.067669 3.803333 -0.012868
v -0.071441 3.803333 -0.008138
vn -0.000000 -1.000000 0.000100
vn -0.000000 -1.000000 -0.000100
v -0.049577 3.803333 -0.004156
v -0.050923 3.803333 0.001742
v 0.049577 3.803333 -0.004156
v 0.050923 3.803333 0.001742
vt 0.926321 0.294381
v 0.067669 3.803333 -0.012868
v 0.071441 3.803333 -0.008138
v 0.080189 3.803333 -0.028568
v 0.085639 3.803333 -0.025943
v 0.084656 3.803333 -0.048145
v 0.090706 3.803333 -0.048145
v -0.080189 3.833583 -0.028568
v -0.084656 3.833583 -0.048145
vt 0.818048 0.398062
v -0.090706 3.833583 -0.048145
v -0.085639 3.833583 -0.025943
vt 0.926321 0.291566
v -0.067669 3.833583 -0.012868
v -0.071441 3.833583 -0.008138
v -0.049577 3.833583 -0.004156
v -0.050923 3.833583 0.001742
v 0.049577 3.833583 -0.004156
vn -0.000000 1.000000 0.000100
vt 0.806776 0.398062
v 0.050923 3.833583 0.001742
v 0.067669 3.833583 -0.012868
v 0.071441 3.833583 -0.008138
v 0.080189 3.833583 -0.028568
v 0.085639 3.833583 -0.025943
v 0.084656 3.833583 -0.048145
v 0.090706 3.833583 -0.048145
vn -0.974900 -0.000000 0.222500
vn -0.781900 -0.000000 0.623500
vn -0.433800 -0.000000 0.901000
vn -0.433900 -0.000000 0.901000
vn 0.433800 -0.000000 0.901000
vn 0.433900 -0.000000 0.901000
vn 0.781900 -0.000000 0.623500
vn 0.974900 -0.000000 0.222500
vn -0.974900 -0.000000 -0.222500
vn -0.781800 -0.000000 -0.623500
vn -0.433900 -0.000000 -0.901000
vn 0.433900 -0.000000 -0.901000
vn 0.781800 -0.000000 -0.623500
vn 0.974900 -0.000000 -0.222500
v 0.087725 0.272303 -0.438041
v 0.087725 0.271660 -0.432025
v -0.087725 0.271660 -0.432025
v -0.087725 0.272303 -0.438041
v 0.087725 0.284335 -0.436755
v -0.087725 0.284335 -0.436755
v -0.087725 0.283692 -0.430739
v 0.087725 0.283692 -0.430739
v 0.087725 0.484053 -0.415293
v 0.087725 0.483410 -0.409277
v -0.087725 0.483410 -0.409277
v -0.087725 0.484053 -0.415293
v 0.087725 0.496085 -0.414007
v -0.087725 0.496085 -0.414007
v -0.087725 0.495442 -0.407991
v 0.087725 0.495442 -0.407991
v 0.087725 0.695803 -0.392545
v 0.087725 0.695160 -0.386529
v -0.087725 0.695160 -0.386529
v -0.087725 0.695803 -0.392545
v 0.087725 0.707835 -0.391259
v -0.087725 0.707835 -0.391259
v -0.087725 0.707192 -0.385243
v 0.087725 0.707192 -0.385243
v 0.087725 0.907553 -0.369797
v 0.087725 0.906910 -0.363781
v -0.087725 0.906910 -0.363781
v -0.087725 0.907553 -0.369797
v 0.087725 0.919585 -0.368511
v -0.087725 0.919585 -0.368511
v -0.087725 0.918942 -0.362495
v 0.087725 0.918942 -0.362495
v 0.087725 1.119303 -0.347049
v 0.087725 1.118660 -0.341033
v -0.087725 1.118660 -0.341033
v -0.087725 1.119303 -0.347049
v 0.087725 1.131335 -0.345763
v -0.087725 1.131335 -0.345763
v -0.087725 1.130692 -0.339747
v 0.087725 1.130692 -0.339747
v 0.087725 1.331053 -0.324301
v 0.087725 1.330410 -0.318285
v -0.087725 1.330410 -0.318285
v -0.087725 1.331053 -0.324301
v 0.087725 1.343085 -0.323015
v -0.087725 1.343085 -0.323015
v -0.087725 1.342442 -0.316999
v 0.087725 1.342442 -0.316999
v 0.087725 1.542803 -0.301553
v 0.087725 1.542160 -0.295537
v -0.087725 1.542160 -0.295537
v -0.087725 1.542803 -0.301553
v 0.087725 1.554835 -0.300267
v -0.087725 1.554835 -0.300267
v -0.087725 1.554192 -0.294251
v 0.087725 1.554192 -0.294251
v 0.087725 1.754553 -0.278805
v 0.087725 1.753910 -0.272789
v -0.087725 1.753910 -0.272789
v -0.087725 1.754553 -0.278805
v 0.087725 1.766584 -0.277519
vn -0.000000 0.994400 0.106100
v -0.087725 1.766584 -0.277519
v -0.087725 1.765942 -0.271503
v 0.087725 1.765942 -0.271503
v 0.087725 1.966303 -0.256057
v 0.087725 1.965660 -0.250041
v -0.087725 1.965660 -0.250041
v -0.087725 1.966303 -0.256057
v 0.087725 1.978334 -0.254771
v -0.087725 1.978334 -0.254771
v -0.087725 1.977692 -0.248755
v 0.087725 1.977692 -0.248755
v 0.087725 2.178053 -0.233309
v 0.087725 2.177410 -0.227293
v -0.087725 2.177410 -0.227293
v -0.087725 2.178053 -0.233309
v 0.087725 2.190084 -0.232023
v -0.087725 2.190084 -0.232023
v -0.087725 2.189442 -0.226007
v 0.087725 2.189442 -0.226007
v 0.087725 2.389803 -0.210561
v 0.087725 2.389160 -0.204545
v -0.087725 2.389160 -0.204545
v -0.087725 2.389803 -0.210561
v 0.087725 2.401834 -0.209275
v -0.087725 2.401834 -0.209275
v -0.087725 2.401192 -0.203259
v 0.087725 2.401192 -0.203259
v 0.087725 2.601553 -0.187813
v 0.087725 2.600910 -0.181797
v -0.087725 2.600910 -0.181797
v -0.087725 2.601553 -0.187813
v 0.087725 2.613584 -0.186527
v -0.087725 2.613584 -0.186527
v -0.087725 2.612941 -0.180511
v 0.087725 2.612941 -0.180511
v 0.087725 2.813303 -0.165065
v 0.087725 2.812660 -0.159049
v -0.087725 2.812660 -0.159049
v -0.087725 2.813303 -0.165065
v 0.087725 2.825334 -0.163779
v -0.087725 2.825334 -0.163779
v -0.087725 2.824691 -0.157763
v 0.087725 2.824691 -0.157763
v 0.087725 3.025053 -0.142317
v 0.087725 3.024410 -0.136301
v -0.087725 3.024410 -0.136301
v -0.087725 3.025053 -0.142317
v 0.087725 3.037084 -0.141031
v -0.087725 3.037084 -0.141031
v -0.087725 3.036441 -0.135015
v 0.087725 3.036441 -0.135015
v 0.087725 3.236803 -0.119569
v 0.087725 3.236160 -0.113553
v -0.087725 3.236160 -0.113553
v -0.087725 3.236803 -0.119569
v 0.087725 3.248834 -0.118283
v -0.087725 3.248834 -0.118283
v -0.087725 3.248191 -0.112267
v 0.087725 3.248191 -0.112267
v 0.087725 3.448553 -0.096821
v 0.087725 3.447910 -0.090805
v -0.087725 3.447910 -0.090805
v -0.087725 3.448553 -0.096821
v 0.087725 3.460584 -0.095535
v -0.087725 3.460584 -0.095535
v -0.087725 3.459941 -0.089519
v 0.087725 3.459941 -0.089519
v 0.087725 3.660303 -0.074073
v 0.087725 3.659660 -0.068057
v -0.087725 3.659660 -0.068057
v -0.087725 3.660303 -0.074073
v 0.087725 3.672334 -0.072787
v -0.087725 3.672334 -0.072787
v -0.087725 3.671691 -0.066771
v 0.087725 3.671691 -0.066771
v -0.102850 0.036300 0.175450
vt 0.000000 0.000000
vn -0.000000 0.800000 0.600000
v -0.090750 0.036300 0.175450
vt 1.000000 0.000000
v -0.090750 0.054450 0.151250
vt 1.000000 1.000000
v -0.102850 0.054450 0.151250
vt 0.000000 1.000000
v -0.102850 0.054450 -0.151250
vn -0.000000 0.800000 -0.600000
v -0.090750 0.054450 -0.151250
v -0.090750 0.036300 -0.175450
v -0.102850 0.036300 -0.175450
v -0.102850 0.018150 0.193600
vt 0.710457 0.823482
vn -0.000000 0.707100 0.707100
v -0.090750 0.018150 0.193600
vt 0.861514 0.823482
vt 0.866433 0.892552
vt 0.715376 0.892552
v -0.090750 0.018150 0.151250
v -0.090750 0.018150 -0.151250
v -0.090750 0.018150 -0.193600
vn -0.000000 0.707100 -0.707100
v -0.102850 0.018150 -0.193600
v -0.102850 0.018150 -0.151250
v -0.102850 0.018150 0.151250
v 0.090750 0.036300 0.175450
v 0.102850 0.036300 0.175450
v 0.102850 0.054450 0.151250
v 0.090750 0.054450 0.151250
v 0.090750 0.054450 -0.151250
v 0.102850 0.054450 -0.151250
v 0.102850 0.036300 -0.175450
v 0.090750 0.036300 -0.175450
v 0.090750 0.018150 0.193600
v 0.102850 0.018150 0.193600
v 0.102850 0.018150 0.151250
v 0.102850 0.018150 -0.151250
v 0.102850 0.018150 -0.193600
v 0.090750 0.018150 -0.193600
v 0.090750 0.018150 -0.151250
v 0.090750 0.018150 0.151250
v -0.111925 0.018150 -0.175450
vn 0.866000 -0.000000 -0.500000
v -0.119488 0.042350 -0.188549
v -0.111925 0.042350 -0.175450
v -0.119488 0.018150 -0.188549
v -0.134613 0.042350 -0.188549
v -0.134613 0.018150 -0.188549
vn -0.866000 -0.000000 -0.500000
v -0.142175 0.042350 -0.175450
v -0.142175 0.018150 -0.175450
vn -0.866000 -0.000000 0.500000
v -0.134613 0.042350 -0.162351
v -0.134613 0.018150 -0.162351
v -0.119488 0.042350 -0.162351
v -0.119488 0.018150 -0.162351
vn 0.866000 -0.000000 0.500000
v -0.127050 0.042350 -0.175450
v 0.142175 0.018150 -0.175450
v 0.134613 0.042350 -0.188549
v 0.142175 0.042350 -0.175450
v 0.134613 0.018150 -0.188549
v 0.119488 0.042350 -0.188549
v 0.119488 0.018150 -0.188549
v 0.111925 0.042350 -0.175450
v 0.111925 0.018150 -0.175450
v 0.119488 0.042350 -0.162351
v 0.119488 0.018150 -0.162351
v 0.134613 0.042350 -0.162351
v 0.134613 0.018150 -0.162351
v 0.127050 0.042350 -0.175450
v -0.111925 0.018150 0.175450
v -0.119488 0.042350 0.162351
v -0.111925 0.042350 0.175450
v -0.119488 0.018150 0.162351
v -0.134613 0.042350 0.162351
v -0.134613 0.018150 0.162351
v -0.142175 0.042350 0.175450
v -0.142175 0.018150 0.175450
v -0.134613 0.042350 0.188549
v -0.134613 0.018150 0.188549
v -0.119488 0.042350 0.188549
v -0.119488 0.018150 0.188549
v -0.127050 0.042350 0.175450
v 0.142175 0.018150 0.175450
v 0.134613 0.042350 0.162351
v 0.142175 0.042350 0.175450
v 0.134613 0.018150 0.162351
v 0.119488 0.042350 0.162351
v 0.119488 0.018150 0.162351
v 0.111925 0.042350 0.175450
v 0.111925 0.018150 0.175450
v 0.119488 0.042350 0.188549
v 0.119488 0.018150 0.188549
v 0.134613 0.042350 0.188549
v 0.134613 0.018150 0.188549
v 0.127050 0.042350 0.175450
v -0.120526 0.054450 -0.180190
vn 0.951000 -0.000000 -0.309200
v -0.118985 0.054450 -0.175450
v -0.118985 0.042350 -0.175450
v -0.120526 0.042350 -0.180190
v -0.124558 0.054450 -0.183120
vn 0.587900 -0.000000 -0.809000
v -0.124558 0.042350 -0.183120
v -0.129542 0.054450 -0.183120
v -0.129542 0.042350 -0.183120
v -0.133574 0.054450 -0.180190
vn -0.587900 -0.000000 -0.809000
v -0.133574 0.042350 -0.180190
v -0.135115 0.054450 -0.175450
vn -0.951000 -0.000000 -0.309200
v -0.135115 0.042350 -0.175450
v -0.133574 0.054450 -0.170710
vn -0.951000 -0.000000 0.309200
v -0.133574 0.042350 -0.170710
v -0.129542 0.054450 -0.167780
vn -0.587900 -0.000000 0.809000
v -0.129542 0.042350 -0.167780
v -0.124558 0.054450 -0.167780
v -0.124558 0.042350 -0.167780
v -0.120526 0.054450 -0.170710
vn 0.587900 -0.000000 0.809000
v -0.120526 0.042350 -0.170710
v 0.133574 0.054450 -0.180190
v 0.135115 0.054450 -0.175450
v 0.135115 0.042350 -0.175450
v 0.133574 0.042350 -0.180190
v 0.129542 0.054450 -0.183120
v 0.129542 0.042350 -0.183120
v 0.124558 0.054450 -0.183120
v 0.124558 0.042350 -0.183120
v 0.120526 0.054450 -0.180190
v 0.120526 0.042350 -0.180190
v 0.118985 0.054450 -0.175450
v 0.118985 0.042350 -0.175450
v 0.120526 0.054450 -0.170710
v 0.120526 0.042350 -0.170710
v 0.124558 0.054450 -0.167780
v 0.124558 0.042350 -0.167780
v 0.129542 0.054450 -0.167780
v 0.129542 0.042350 -0.167780
v 0.133574 0.054450 -0.170710
v 0.133574 0.042350 -0.170710
v -0.120526 0.054450 0.170710
v -0.118985 0.054450 0.175450
v -0.118985 0.042350 0.175450
v -0.120526 0.042350 0.170710
v -0.124558 0.054450 0.167780
v -0.124558 0.042350 0.167780
v -0.129542 0.054450 0.167780
v -0.129542 0.042350 0.167780
v -0.133574 0.054450 0.170710
v -0.133574 0.042350 0.170710
v -0.135115 0.054450 0.175450
v -0.135115 0.042350 0.175450
v -0.133574 0.054450 0.180190
v -0.133574 0.042350 0.180190
v -0.129542 0.054450 0.183120
v -0.129542 0.042350 0.183120
v -0.124558 0.054450 0.183120
v -0.124558 0.042350 0.183120
v -0.120526 0.054450 0.180190
v -0.120526 0.042350 0.180190
v 0.133574 0.054450 0.170710
v 0.135115 0.054450 0.175450
v 0.135115 0.042350 0.175450
v 0.133574 0.042350 0.170710
v 0.129542 0.054450 0.167780
v 0.129542 0.042350 0.167780
v 0.124558 0.054450 0.167780
v 0.124558 0.042350 0.167780
v 0.120526 0.054450 0.170710
v 0.120526 0.042350 0.170710
v 0.118985 0.054450 0.175450
v 0.118985 0.042350 0.175450
v 0.120526 0.054450 0.180190
v 0.120526 0.042350 0.180190
v 0.124558 0.054450 0.183120
v 0.124558 0.042350 0.183120
v 0.129542 0.054450 0.183120
v 0.129542 0.042350 0.183120
v 0.133574 0.054450 0.180190
v 0.133574 0.042350 0.180190
vn 0.951000 -0.000000 0.309200
v -0.151250 0.018150 0.151250
vt 0.500198 0.505327
v 0.151250 0.018150 0.151250
vt 1.000000 0.505327
v 0.151250 0.369050 0.151250
vt 1.000000 0.958432
v -0.151250 0.369050 0.151250
vt 0.500198 0.958432
v 0.151250 0.018150 -0.151250
v 0.151250 0.369050 -0.151250
v -0.151250 0.018150 -0.151250
v -0.151250 0.369050 -0.151250
v -0.130075 0.393250 0.130075
vt 0.601336 0.585927
v 0.130075 0.393250 0.130075
vt 0.900388 0.585927
v 0.130075 0.393250 -0.130075
vt 0.900388 0.884979
v -0.130075 0.393250 -0.130075
vt 0.601336 0.884979
vt 0.500355 0.951937
vn -0.000000 0.447200 0.894400
vt 0.998965 0.954578
v 0.145200 0.381150 0.145200
vt 0.995487 0.924293
vn -0.000000 0.562900 0.826500
v -0.145200 0.381150 0.145200
vt 0.506621 0.926249
vn -0.000000 0.563000 0.826500
vt 0.978358 0.945309
vn -0.000000 0.780900 0.624700
vt 0.524395 0.942869
vt 0.500336 0.951923
vn 0.894400 0.447200 -0.000000
vt 0.998907 0.954611
v 0.145200 0.381150 -0.145200
vt 0.995423 0.924347
vn 0.826500 0.562900 -0.000000
vt 0.506699 0.926265
vt 0.506663 0.926235
vn 0.624700 0.780900 -0.000000
vt 0.978332 0.945286
vt 0.524395 0.942771
vn -0.000000 0.447200 -0.894400
vt 0.500355 0.951938
v -0.145200 0.381150 -0.145200
vt 0.506621 0.926252
vn -0.000000 0.562900 -0.826500
vt 0.995487 0.924295
vn -0.000000 0.563000 -0.826500
vt 0.524574 0.942870
vn -0.000000 0.780900 -0.624700
vt 0.978358 0.945311
vn -0.894400 0.447200 -0.000000
vn -0.826500 0.562900 -0.000000
vn -0.826500 0.563000 -0.000000
vt 0.524396 0.942771
vn -0.624700 0.780900 -0.000000
vt 0.978332 0.945285
v -0.111925 0.090448 0.166375
vt 0.692158 0.718517
v -0.111925 0.090448 0.151250
vt 0.862272 0.718517
v 0.111925 0.090448 0.151250
vt 0.859930 0.836566
v 0.111925 0.090448 0.166375
vt 0.689817 0.836566
v -0.111925 0.314298 0.166375
v 0.111925 0.314298 0.166375
v 0.111925 0.314298 0.151250
v -0.111925 0.314298 0.151250
vt 0.498347 0.000000
vt 0.498347 0.500171
vt 0.000000 0.500171
v 0.027225 0.420172 0.047155
vt 0.177506 0.503805
v 0.000000 0.420172 0.054450
vt 0.126199 0.503805
v -0.027225 0.420172 0.047155
vt 0.115225 0.503805
v -0.047155 0.420172 0.027225
vt 0.147525 0.503805
v -0.054450 0.420172 -0.000000
vt 0.214444 0.503805
v -0.047155 0.420172 -0.027225
vt 0.298050 0.503805
v -0.027225 0.420172 -0.047155
vt 0.375942 0.503805
v 0.000000 0.420172 -0.054450
vt 0.427249 0.503805
v 0.027225 0.420172 -0.047155
vt 0.438223 0.503805
v 0.047155 0.420172 -0.027225
vt 0.405923 0.503805
v 0.054450 0.420172 -0.000000
vt 0.373623 0.503805
v 0.047155 0.420172 0.027225
vt 0.255398 0.503805
v 0.047155 0.689700 -0.027225
vt 0.405923 1.000000
v 0.054450 0.689700 -0.000000
vt 0.373623 1.000000
vt 0.219423 0.877242
vt 0.190959 0.905706
v 0.027225 0.689700 -0.047155
vt 0.050626 0.503805
vt 0.082926 0.503805
v 0.000000 0.689700 -0.054450
vt 0.082925 1.000000
vn 0.000200 -0.000000 -1.000000
vt 0.050626 1.000000
vt 0.082925 0.503805
vn -0.500000 -0.000000 -0.866000
v -0.027225 0.689700 -0.047155
vt 0.115225 1.000000
vn -0.000200 -0.000000 -1.000000
v -0.047155 0.689700 -0.027225
vt 0.147525 1.000000
vt 0.179825 0.503805
v -0.054450 0.689700 -0.000000
vt 0.179825 1.000000
vt 0.212124 0.503805
v -0.047155 0.689700 0.027225
vt 0.212124 1.000000
vt 0.244424 0.503805
vn -0.500000 -0.000000 0.866000
v -0.027225 0.689700 0.047155
vt 0.244424 1.000000
vt 0.276724 0.503805
v 0.000000 0.689700 0.054450
vt 0.276724 1.000000
vt 0.309024 0.503805
vn 0.500000 -0.000000 0.866000
v 0.027225 0.689700 0.047155
vt 0.309024 1.000000
vt 0.341323 0.503805
v 0.047155 0.689700 0.027225
vt 0.341323 1.000000
vt 0.229842 0.838359
vt 0.152076 0.916124
vt 0.113194 0.905706
vt 0.084730 0.877242
vt 0.074311 0.838359
vt 0.084730 0.799477
vt 0.113194 0.771013
vt 0.152076 0.760594
vt 0.190959 0.771013
vt 0.219423 0.799477
vt 0.154427 0.924774
v 0.066550 0.689700 -0.009075
vt 0.139826 0.944241
v 0.052019 0.689700 -0.009075
vt 0.139826 0.920862
v -0.090750 0.441650 0.009075
vt 0.283141 1.000000
vn -0.763800 0.645500 -0.000000
v -0.090750 0.441650 -0.009075
vt 0.237258 1.000000
v -0.108900 0.420172 -0.009075
vt 0.237258 0.506849
v -0.108900 0.420172 0.009075
vt 0.283141 0.506849
v -0.066550 0.689700 0.009075
vn -0.995300 0.097100 -0.000000
v -0.066550 0.689700 -0.009075
vt 0.488967 0.553445
vt 0.494749 0.498130
v -0.052019 0.420172 0.009075
vt 0.440344 0.498130
v -0.052019 0.441650 0.009075
vt 0.440344 0.553445
v -0.052019 0.689700 0.009075
vt 0.440344 0.994848
vt 0.488532 0.994848
v 0.090750 0.441650 -0.009075
vn 0.763800 0.645500 -0.000000
v 0.090750 0.441650 0.009075
v 0.108900 0.420172 0.009075
v 0.108900 0.420172 -0.009075
vn 0.995300 0.097100 -0.000000
v 0.066550 0.689700 0.009075
vt 0.006581 0.553445
vt 0.000798 0.498130
v 0.052019 0.420172 -0.009075
vt 0.055204 0.498130
v 0.052019 0.441650 -0.009075
vt 0.055204 0.553445
vt 0.055204 0.994848
vt 0.007016 0.994848
vt 0.153259 0.765840
v -0.015125 0.689700 -0.066550
vt 0.171694 0.751092
v -0.015125 0.689700 -0.050397
vt 0.171694 0.770780
v 0.015125 0.438323 0.066550
vn -0.000000 0.554700 0.832100
v -0.015125 0.438323 0.066550
v -0.015125 0.420172 0.078650
v 0.015125 0.420172 0.078650
v 0.015125 0.689700 0.066550
v -0.015125 0.689700 0.066550
v 0.015125 0.420172 -0.050397
vt 0.058277 0.505827
v 0.015125 0.420172 -0.078650
vt 0.006804 0.505827
v 0.015125 0.438323 -0.066550
vt 0.008428 0.551118
v 0.015125 0.438323 -0.050397
vt 0.058277 0.551118
v 0.015125 0.689700 -0.050397
vt 0.058277 0.999500
v 0.015125 0.689700 -0.066550
vt 0.008428 0.999500
v -0.015125 0.438323 -0.066550
vn -0.000000 0.554700 -0.832100
v -0.015125 0.420172 -0.078650
v -0.015125 0.420172 -0.050397
v -0.015125 0.438323 -0.050397
vt 0.058277 0.999501
vt 0.008428 0.999501
v 0.052019 0.441650 0.009075
v 0.052019 0.420172 0.009075
v -0.052019 0.441650 -0.009075
v -0.052019 0.420172 -0.009075
v 0.015125 0.420172 0.050397
vt 0.441178 0.505827
v 0.015125 0.438323 0.050397
vt 0.441178 0.551118
vt 0.491028 0.551118
vt 0.492651 0.505827
v -0.015125 0.438323 0.050397
v -0.015125 0.420172 0.050397
vt 0.169027 0.730102
vt 0.169027 0.753482
v -0.052305 0.689700 0.008007
vt 0.167308 0.753021
vt 0.154427 0.749570
v -0.052019 0.689700 -0.009075
vt 0.491028 0.999500
v 0.015125 0.689700 0.050397
vt 0.441178 0.999500
vt 0.134824 0.913319
vt 0.134824 0.893631
vt 0.153259 0.898571
vt 0.491028 0.999501
v -0.015125 0.689700 0.050397
vt 0.441178 0.999501
v 0.052019 0.689700 0.009075
vt 0.169027 0.920862
vt 0.169027 0.944241
vt 0.134824 0.770780
vt 0.134824 0.751092
vt 0.139826 0.730102
vt 0.139826 0.753482
v -0.013171 0.689700 0.050921
vt 0.169312 0.894269
vt 0.171694 0.893631
vt 0.171694 0.913319
v -0.072600 0.436810 0.040541
vt 0.286266 0.807357
vn -0.000000 -0.866000 -0.500000
v -0.048400 0.436810 0.040541
vt 0.335091 0.807783
v -0.048400 0.432273 0.048400
vt 0.335518 0.758909
v -0.072600 0.432273 0.048400
vt 0.286693 0.758483
vt 0.337651 0.514539
vt 0.288825 0.514113
v -0.072600 0.445885 0.040541
vt 0.288399 0.562987
vn -0.000000 0.500000 -0.866000
v -0.048400 0.445885 0.040541
vt 0.337224 0.563413
v -0.072600 0.450423 0.048400
vt 0.287972 0.611861
v -0.048400 0.450423 0.048400
vt 0.336798 0.612287
v -0.072600 0.445885 0.056259
vt 0.287546 0.660735
vn -0.000000 0.500000 0.866000
v -0.048400 0.445885 0.056259
vt 0.336371 0.661161
v -0.072600 0.436810 0.056259
vt 0.287119 0.709609
vn -0.000000 -0.500000 0.866000
v -0.048400 0.436810 0.056259
vt 0.335944 0.710035
vt 0.364145 0.793565
vt 0.339120 0.839141
vt 0.364145 0.884716
vt 0.414195 0.884716
vt 0.439220 0.839141
vt 0.414195 0.793565
v 0.072600 0.436810 0.040541
v 0.072600 0.445885 0.040541
v 0.072600 0.450423 0.048400
v 0.072600 0.445885 0.056259
v 0.072600 0.436810 0.056259
v 0.072600 0.432273 0.048400
vt 0.286603 0.758346
vt 0.287029 0.709472
v 0.048400 0.436810 0.056259
vt 0.335854 0.709898
v 0.048400 0.432273 0.048400
vt 0.335428 0.758772
v 0.048400 0.436810 0.040541
vt 0.335001 0.807647
vt 0.286176 0.807220
vt 0.288309 0.562850
vt 0.288735 0.513976
vt 0.337560 0.514402
v 0.048400 0.445885 0.040541
vt 0.337134 0.563276
v 0.048400 0.450423 0.048400
vt 0.336707 0.612150
vt 0.287882 0.611724
vt 0.287456 0.660598
v 0.048400 0.445885 0.056259
vt 0.336281 0.661024
v -0.027225 0.423602 0.047155
vt 0.184137 0.851110
vn -0.000000 -0.951000 -0.309300
v -0.022579 0.423197 0.048400
vt 0.178421 0.847688
vn 0.000100 -0.965800 0.259100
v -0.048400 0.423197 0.048400
vt 0.210188 0.847688
v -0.048400 0.426664 0.037731
vt 0.210188 0.877014
vn -0.000000 -0.809000 -0.587800
v -0.036648 0.426664 0.037731
vt 0.195730 0.877014
vn -0.000000 -0.875400 -0.483300
v -0.048400 0.435739 0.031138
vt 0.210188 0.906339
vn -0.000000 -0.309000 -0.951100
v -0.043242 0.435739 0.031138
vt 0.203842 0.906339
vn -0.000000 -0.353300 -0.935500
v -0.048400 0.446956 0.031138
vt 0.210188 0.935665
v -0.043242 0.446956 0.031138
vt 0.203842 0.935665
vt 0.203842 0.642410
vn -0.000000 0.587800 -0.809000
vt 0.210188 0.642410
v -0.048400 0.456031 0.037731
vt 0.210188 0.671735
vn -0.000000 0.809000 -0.587800
v -0.036648 0.456031 0.037731
vt 0.195730 0.671735
vn -0.000000 0.875400 -0.483300
v -0.048400 0.459498 0.048400
vt 0.210188 0.701061
v -0.022579 0.459498 0.048400
vt 0.178421 0.701061
vn -0.000000 0.965900 0.258900
v -0.027225 0.459093 0.047155
vt 0.184137 0.697639
vn -0.000000 0.951000 -0.309200
v -0.048400 0.456031 0.059069
vt 0.210188 0.730386
vn -0.000000 0.809000 0.587800
v -0.015125 0.456031 0.059069
vt 0.169250 0.730386
v -0.015125 0.457063 0.055894
vt 0.169250 0.721659
vn -0.000000 0.951100 0.309000
v -0.015125 0.458848 0.050397
vt 0.169250 0.706551
vn 0.000100 0.951100 0.308800
v 0.048400 0.446956 0.065662
vt 0.091097 0.759712
vn -0.000000 0.309000 0.951100
v 0.048400 0.456031 0.059069
vt 0.091097 0.730386
v 0.015125 0.456031 0.059069
vt 0.132035 0.730386
v 0.015125 0.446956 0.065662
vt 0.132035 0.759712
v 0.015125 0.435739 0.065662
vt 0.132035 0.789037
vn -0.000000 -0.309700 0.950800
v 0.048400 0.435739 0.065662
vt 0.091097 0.789037
vn -0.000000 -0.309000 0.951100
v 0.015125 0.426664 0.059069
vt 0.132035 0.818363
vn -0.000000 -0.809000 0.587800
v 0.048400 0.426664 0.059069
vt 0.091097 0.818363
v 0.015125 0.435600 0.065561
vt 0.132035 0.789486
vn -0.000000 -0.588100 0.808800
v -0.015125 0.425632 0.055893
vt 0.169250 0.827091
vn -0.000000 -0.951100 0.309000
v -0.015125 0.426664 0.059069
vt 0.169250 0.818363
v -0.048400 0.426664 0.059069
vt 0.210188 0.818363
v -0.015125 0.423847 0.050397
vt 0.169250 0.842198
v -0.048400 0.435739 0.065662
vt 0.161636 0.796197
v -0.048400 0.446956 0.065662
vt 0.116504 0.796197
vt 0.079991 0.824090
vt 0.066044 0.869222
vt 0.079991 0.914355
vt 0.116504 0.942248
vt 0.161636 0.942248
vt 0.198149 0.914355
vt 0.212096 0.869222
vt 0.198149 0.824090
v 0.048400 0.426664 0.037731
v 0.048400 0.435739 0.031138
v 0.048400 0.446956 0.031138
v 0.048400 0.456031 0.037731
v 0.048400 0.459498 0.048400
v 0.048400 0.423197 0.048400
v -0.072600 0.666710 0.040541
v -0.048400 0.666710 0.040541
vn -0.000000 -0.866000 -0.500100
v -0.048400 0.662172 0.048400
v -0.072600 0.662172 0.048400
v -0.072600 0.675785 0.040541
v -0.048400 0.675785 0.040541
v -0.072600 0.680323 0.048400
v -0.048400 0.680323 0.048400
v -0.072600 0.675785 0.056259
v -0.048400 0.675785 0.056259
v -0.072600 0.666710 0.056259
v -0.048400 0.666710 0.056259
v 0.072600 0.666710 0.040541
v 0.072600 0.675785 0.040541
v 0.072600 0.680323 0.048400
v 0.072600 0.675785 0.056259
v 0.072600 0.666710 0.056259
v 0.072600 0.662172 0.048400
v 0.048400 0.666710 0.056259
v 0.048400 0.662172 0.048400
v 0.048400 0.666710 0.040541
v 0.048400 0.675785 0.040541
v 0.048400 0.680323 0.048400
v 0.048400 0.675785 0.056259
v -0.027225 0.653502 0.047155
vt 0.184137 0.851111
vn -0.000000 -0.951200 -0.308700
v -0.022579 0.653098 0.048400
vn -0.000000 -0.965900 0.259000
v -0.048400 0.653098 0.048400
v -0.048400 0.656564 0.037731
v -0.036648 0.656564 0.037731
vn -0.000000 -0.875500 -0.483300
v -0.048400 0.665639 0.031138
v -0.043242 0.665639 0.031138
v -0.048400 0.676856 0.031138
v -0.043242 0.676856 0.031138
v -0.048400 0.685931 0.037731
v -0.036648 0.685931 0.037731
v -0.048400 0.689398 0.048400
v -0.022579 0.689398 0.048400
vn -0.000000 0.965900 0.259000
v -0.027225 0.688993 0.047155
vn -0.000000 0.951200 -0.308600
v -0.048400 0.685931 0.059069
v -0.015125 0.685931 0.059069
v -0.015125 0.686963 0.055893
v -0.015125 0.688749 0.050397
vn -0.000000 0.951000 0.309000
v 0.048400 0.676856 0.065662
v 0.048400 0.685931 0.059069
v 0.015125 0.685931 0.059069
v 0.015125 0.676856 0.065662
v 0.015125 0.665639 0.065662
v 0.048400 0.665639 0.065662
v 0.048400 0.656564 0.059069
v 0.015125 0.656564 0.059069
v -0.015125 0.655532 0.055893
v -0.015125 0.656564 0.059069
v -0.048400 0.656564 0.059069
v -0.015125 0.653747 0.050397
vn -0.000000 -0.951100 0.308900
v -0.048400 0.665639 0.065662
v -0.048400 0.676856 0.065662
v 0.048400 0.656564 0.037731
v 0.048400 0.665639 0.031138
v 0.048400 0.676856 0.031138
v 0.048400 0.685931 0.037731
v 0.048400 0.689398 0.048400
v 0.048400 0.653098 0.048400
v -0.072600 0.436810 -0.056259
v -0.048400 0.436810 -0.056259
v -0.048400 0.432273 -0.048400
v -0.072600 0.432273 -0.048400
v -0.072600 0.445885 -0.056259
v -0.048400 0.445885 -0.056259
v -0.072600 0.450423 -0.048400
v -0.048400 0.450423 -0.048400
v -0.072600 0.445885 -0.040541
v -0.048400 0.445885 -0.040541
v -0.072600 0.436810 -0.040541
v -0.048400 0.436810 -0.040541
v 0.072600 0.436810 -0.056259
v 0.072600 0.445885 -0.056259
v 0.072600 0.450423 -0.048400
v 0.072600 0.445885 -0.040541
v 0.072600 0.436810 -0.040541
v 0.072600 0.432273 -0.048400
v 0.048400 0.436810 -0.040541
v 0.048400 0.432273 -0.048400
v 0.048400 0.436810 -0.056259
v 0.048400 0.445885 -0.056259
v 0.048400 0.450423 -0.048400
v 0.048400 0.445885 -0.040541
v 0.015125 0.425632 -0.055894
vt 0.132035 0.868286
vn -0.000000 -0.951100 -0.309000
v 0.015125 0.426664 -0.059069
vt 0.132035 0.877014
v 0.048400 0.426664 -0.059069
vt 0.091097 0.877014
v 0.048400 0.423197 -0.048400
vt 0.091097 0.847688
v 0.022579 0.423197 -0.048400
vt 0.122864 0.847688
vn -0.000100 -0.965800 -0.259100
v 0.015125 0.423847 -0.050397
vt 0.132035 0.853179
vn -0.000000 -0.951100 -0.308900
v 0.015125 0.435600 -0.065561
vt 0.132035 0.905891
vn -0.000000 -0.587800 -0.809000
v 0.015125 0.435739 -0.065662
vt 0.132035 0.906339
v 0.048400 0.435739 -0.065662
vt 0.091097 0.906339
v 0.048400 0.446956 -0.065662
vt 0.091097 0.935665
v 0.015125 0.446956 -0.065662
vt 0.132035 0.935665
vt 0.132035 0.642410
vn -0.000000 0.587700 -0.809100
v 0.015125 0.456032 -0.059069
vt 0.132035 0.671735
vn -0.000000 0.809100 -0.587700
v 0.048400 0.456032 -0.059069
vt 0.091097 0.671735
vt 0.091097 0.642410
v 0.022579 0.459498 -0.048400
vt 0.122864 0.701061
vn -0.000000 0.965900 -0.258900
v 0.048400 0.459498 -0.048400
vt 0.091097 0.701061
v 0.015125 0.457063 -0.055893
vt 0.132035 0.680463
vn -0.000000 0.951100 -0.308900
v 0.015125 0.458848 -0.050397
vt 0.132035 0.695571
vn -0.000100 0.951100 -0.308900
v 0.036648 0.456032 -0.037731
vt 0.105555 0.730386
vn -0.000000 0.875500 0.483300
v 0.048400 0.456032 -0.037731
v 0.027225 0.459093 -0.047155
vt 0.117148 0.704483
vn -0.000000 0.951000 0.309200
v 0.043242 0.446956 -0.031138
vt 0.097443 0.759712
vn -0.000000 0.353300 0.935500
v 0.048400 0.446956 -0.031138
v 0.048400 0.435739 -0.031138
v 0.043242 0.435739 -0.031138
vt 0.097443 0.789037
vn -0.000000 -0.353300 0.935500
v 0.036648 0.426664 -0.037731
vt 0.105555 0.818363
vn -0.000000 -0.875400 0.483300
v 0.048400 0.426664 -0.037731
v 0.027225 0.423602 -0.047155
vt 0.117148 0.844266
vn -0.000000 -0.951000 0.309300
v -0.048400 0.435739 -0.031138
v -0.048400 0.446956 -0.031138
v -0.048400 0.456032 -0.037731
v -0.048400 0.459498 -0.048400
v -0.048400 0.456032 -0.059069
v -0.048400 0.446956 -0.065662
v -0.048400 0.435739 -0.065662
v -0.048400 0.426664 -0.059069
v -0.048400 0.423197 -0.048400
v -0.048400 0.426664 -0.037731
v -0.072600 0.666710 -0.056259
v -0.048400 0.666710 -0.056259
v -0.048400 0.662172 -0.048400
v -0.072600 0.662172 -0.048400
v -0.072600 0.675785 -0.056259
v -0.048400 0.675785 -0.056259
v -0.072600 0.680323 -0.048400
v -0.048400 0.680323 -0.048400
v -0.072600 0.675785 -0.040541
v -0.048400 0.675785 -0.040541
v -0.072600 0.666710 -0.040541
v -0.048400 0.666710 -0.040541
v 0.072600 0.666710 -0.056259
v 0.072600 0.675785 -0.056259
v 0.072600 0.680323 -0.048400
v 0.072600 0.675785 -0.040541
v 0.072600 0.666710 -0.040541
v 0.072600 0.662172 -0.048400
v 0.048400 0.666710 -0.040541
v 0.048400 0.662172 -0.048400
v 0.048400 0.666710 -0.056259
v 0.048400 0.675785 -0.056259
v 0.048400 0.680323 -0.048400
v 0.048400 0.675785 -0.040541
v 0.015125 0.655532 -0.055893
v 0.015125 0.656564 -0.059069
v 0.048400 0.656564 -0.059069
v 0.048400 0.653098 -0.048400
v 0.022579 0.653098 -0.048400
vn -0.000000 -0.965900 -0.259000
v 0.015125 0.653747 -0.050397
v 0.048400 0.665639 -0.065662
v 0.015125 0.665639 -0.065662
v 0.015125 0.676856 -0.065662
v 0.048400 0.676856 -0.065662
v 0.048400 0.685931 -0.059069
v 0.015125 0.685931 -0.059069
v 0.022579 0.689398 -0.048400
vn -0.000000 0.965900 -0.259000
v 0.048400 0.689398 -0.048400
v 0.015125 0.686963 -0.055893
vn -0.000000 0.951100 -0.309000
v 0.015125 0.688749 -0.050397
vn -0.000000 0.951000 -0.309000
v 0.036648 0.685931 -0.037731
vn -0.000000 0.875400 0.483300
v 0.048400 0.685931 -0.037731
v 0.027225 0.688993 -0.047155
vn -0.000000 0.951100 0.308800
v 0.043242 0.676856 -0.031138
v 0.048400 0.676856 -0.031138
v 0.048400 0.665639 -0.031138
v 0.043242 0.665639 -0.031138
v 0.036648 0.656564 -0.037731
vn -0.000000 -0.875500 0.483300
v 0.048400 0.656564 -0.037731
v 0.027225 0.653502 -0.047155
vn -0.000000 -0.951200 0.308700
v -0.048400 0.665639 -0.031138
v -0.048400 0.676856 -0.031138
v -0.048400 0.685931 -0.037731
v -0.048400 0.689398 -0.048400
v -0.048400 0.685931 -0.059069
v -0.048400 0.676856 -0.065662
v -0.048400 0.665639 -0.065662
v -0.048400 0.656564 -0.059069
v -0.048400 0.653098 -0.048400
v -0.048400 0.656564 -0.037731
vt 0.210188 0.759712
v -0.043242 0.446956 -0.031138
vt 0.203842 0.759712
v -0.036648 0.456032 -0.037731
vt 0.195730 0.730386
v -0.024074 0.459367 -0.047999
vt 0.180259 0.702162
vn -0.000000 0.951000 0.309100
v -0.022579 0.459498 -0.048400
vn -0.000000 0.965900 -0.258800
v -0.027225 0.459093 -0.047155
vt 0.184137 0.704483
vn -0.000000 0.951100 0.308900
v -0.043242 0.435739 -0.031138
vt 0.203842 0.789037
vt 0.210188 0.789037
v -0.036648 0.426664 -0.037731
vt 0.195730 0.818363
v -0.022579 0.423197 -0.048400
vn -0.000000 -0.965900 -0.258800
v -0.024074 0.423328 -0.047999
vt 0.180259 0.846588
v -0.027225 0.423602 -0.047155
vt 0.184137 0.844266
v -0.028065 0.423875 -0.046315
vt 0.185171 0.841956
vn -0.000200 -0.951200 0.308600
v -0.043242 0.676856 -0.031138
v -0.036648 0.685931 -0.037731
v -0.024074 0.689267 -0.047999
v -0.022579 0.689398 -0.048400
v -0.027225 0.688993 -0.047155
v -0.043242 0.665639 -0.031138
v -0.036648 0.656564 -0.037731
v -0.022579 0.653098 -0.048400
v -0.024074 0.653228 -0.047999
vn -0.000000 -0.951100 0.308800
v -0.027225 0.653502 -0.047155
v -0.028065 0.653775 -0.046315
vn -0.000200 -0.951200 0.308700
v -0.015125 0.426664 -0.059069
vt 0.169250 0.877014
vn -0.000000 -0.809000 -0.587900
v -0.015125 0.426123 -0.057405
vt 0.169250 0.872442
v -0.015125 0.425632 -0.055893
vt 0.169250 0.868286
v -0.015125 0.423847 -0.050397
vt 0.169250 0.853179
vn 0.000100 -0.951100 -0.308900
v -0.015125 0.656564 -0.059069
vn -0.000000 -0.808800 -0.588000
v -0.015125 0.656024 -0.057405
v -0.015125 0.655532 -0.055893
vn -0.000000 -0.951000 -0.309100
v -0.015125 0.653747 -0.050397
v -0.015125 0.685931 -0.059069
vt 0.169250 0.671735
v -0.015125 0.686963 -0.055893
vt 0.169250 0.680463
v -0.015125 0.688749 -0.050397
vt 0.169250 0.695571
v 0.000000 0.687432 -0.054450
vt 0.150643 0.684430
vn -0.000000 0.951000 -0.309100
v -0.015125 0.458848 -0.050397
vn 0.000100 0.951100 -0.308900
v -0.015125 0.457063 -0.055893
v -0.015125 0.456572 -0.057405
vt 0.169250 0.676307
vn -0.000000 0.951100 -0.308800
v -0.015125 0.456032 -0.059069
vn -0.000000 0.808800 -0.588000
v 0.022579 0.423197 0.048400
vn -0.000000 -0.965900 0.258800
v 0.024074 0.423328 0.047999
vt 0.121026 0.848789
v 0.027225 0.423602 0.047155
vt 0.117148 0.851110
v 0.028065 0.423875 0.046315
vt 0.116114 0.853421
vn 0.000200 -0.951200 -0.308600
v 0.036648 0.426664 0.037731
vt 0.105555 0.877014
v 0.043242 0.435739 0.031138
vt 0.097443 0.906339
v 0.043242 0.446956 0.031138
vt 0.097443 0.935665
vt 0.097443 0.642410
v 0.036648 0.456031 0.037731
vt 0.105555 0.671735
v 0.024074 0.459367 0.047999
vt 0.121026 0.699960
v 0.022579 0.459498 0.048400
vn -0.000000 0.965900 0.258800
v 0.027225 0.459093 0.047155
vt 0.117148 0.697639
vn -0.000000 0.950900 -0.309600
v 0.022579 0.653098 0.048400
v 0.024074 0.653228 0.047999
vn -0.000000 -0.951100 -0.308800
v 0.027225 0.653502 0.047155
vt 0.117148 0.851111
v 0.028065 0.653775 0.046315
vn 0.000200 -0.951200 -0.308700
v 0.036648 0.656564 0.037731
v 0.043242 0.665639 0.031138
v 0.043242 0.676856 0.031138
v 0.036648 0.685931 0.037731
v 0.024074 0.689267 0.047999
v 0.022579 0.689398 0.048400
v 0.027225 0.688993 0.047155
v 0.015125 0.457063 0.055893
vt 0.132035 0.721659
v 0.015125 0.458848 0.050397
vt 0.132035 0.706551
vn -0.000100 0.951100 0.308900
v 0.000000 0.457532 0.054450
vt 0.150643 0.717691
v 0.015125 0.425632 0.055893
vt 0.132035 0.827091
v 0.015125 0.423847 0.050397
vt 0.132035 0.842198
vn -0.000100 -0.951100 0.308900
v 0.015125 0.686963 0.055893
v 0.015125 0.688749 0.050397
v 0.000000 0.687432 0.054450
v 0.015125 0.655532 0.055893
v 0.015125 0.653747 0.050397
v 0.000000 0.425163 -0.054450
vt 0.150643 0.864319
v -0.015125 0.435666 -0.065609
vt 0.169250 0.906104
vn -0.000000 -0.587300 -0.809300
v -0.015125 0.435739 -0.065662
vt 0.169250 0.906339
vn -0.000000 -0.309300 -0.951000
v -0.015125 0.435600 -0.065561
vt 0.169250 0.905891
vn -0.000000 -0.587400 -0.809300
v -0.015125 0.446956 -0.065662
vt 0.169250 0.935665
v 0.000000 0.655063 -0.054450
vn -0.000000 -0.951000 -0.309200
v -0.015125 0.676856 -0.065662
v -0.015125 0.665639 -0.065662
vt 0.169250 0.642410
v 0.000000 0.457532 -0.054450
v -0.015125 0.435666 0.065609
vt 0.169250 0.789272
vn -0.000000 -0.589100 0.808000
v -0.015125 0.435739 0.065662
vt 0.169250 0.789037
vn -0.000000 -0.311100 0.950400
v -0.015125 0.435600 0.065561
vt 0.169250 0.789486
vn -0.000000 -0.587400 0.809300
v 0.000000 0.425163 0.054450
vt 0.150643 0.831058
v -0.015125 0.446956 0.065662
vt 0.169250 0.759712
v -0.015125 0.665639 0.065662
v -0.015125 0.676856 0.065662
v 0.000000 0.655063 0.054450
v 0.094249 0.455469 -0.092465
vt 0.377880 0.889257
vn 0.809000 -0.000000 -0.587800
v 0.095790 0.455469 -0.087725
vt 0.370893 0.889257
v 0.095790 0.443369 -0.087725
vt 0.370893 0.842681
v 0.094249 0.443369 -0.092465
vt 0.377880 0.842681
v 0.090217 0.455469 -0.095395
vt 0.384866 0.889257
vn 0.309100 -0.000000 -0.951000
v 0.090217 0.443369 -0.095395
vt 0.384866 0.842681
v 0.085233 0.455469 -0.095395
vt 0.391852 0.889257
v 0.085233 0.443369 -0.095395
vt 0.391852 0.842681
v 0.081201 0.455469 -0.092465
vt 0.328975 0.889257
vn -0.809000 -0.000000 -0.587800
vt 0.321989 0.889257
vt 0.321989 0.842681
v 0.081201 0.443369 -0.092465
vt 0.328975 0.842681
v 0.079660 0.455469 -0.087725
vt 0.335961 0.889257
v 0.079660 0.443369 -0.087725
vt 0.335961 0.842681
v 0.081201 0.455469 -0.082985
vt 0.342948 0.889257
vn -0.809000 -0.000000 0.587800
v 0.081201 0.443369 -0.082985
vt 0.342948 0.842681
v 0.085233 0.455469 -0.080055
vt 0.349934 0.889257
vn -0.309100 -0.000000 0.951000
v 0.085233 0.443369 -0.080055
vt 0.349934 0.842681
v 0.090217 0.455469 -0.080055
vt 0.356920 0.889257
vn 0.309100 -0.000000 0.951000
v 0.090217 0.443369 -0.080055
vt 0.356920 0.842681
v 0.094249 0.455469 -0.082985
vt 0.363907 0.889257
vn 0.809000 -0.000000 0.587800
v 0.094249 0.443369 -0.082985
vt 0.363907 0.842681
vt 0.332895 0.882586
vt 0.320205 0.865120
vt 0.320205 0.843531
vt 0.332895 0.826065
vt 0.353427 0.819394
vt 0.373960 0.826065
vt 0.386649 0.843531
vt 0.386649 0.865120
vt 0.373960 0.882586
vt 0.353427 0.889257
v -0.081201 0.455469 -0.092465
v -0.079660 0.455469 -0.087725
v -0.079660 0.443369 -0.087725
v -0.081201 0.443369 -0.092465
v -0.085233 0.455469 -0.095395
v -0.085233 0.443369 -0.095395
v -0.090217 0.455469 -0.095395
v -0.090217 0.443369 -0.095395
v -0.094249 0.455469 -0.092465
v -0.094249 0.443369 -0.092465
v -0.095790 0.455469 -0.087725
v -0.095790 0.443369 -0.087725
v -0.094249 0.455469 -0.082985
v -0.094249 0.443369 -0.082985
v -0.090217 0.455469 -0.080055
v -0.090217 0.443369 -0.080055
v -0.085233 0.455469 -0.080055
v -0.085233 0.443369 -0.080055
v -0.081201 0.455469 -0.082985
v -0.081201 0.443369 -0.082985
v -0.081201 0.455263 0.082985
v -0.079660 0.455263 0.087725
v -0.079660 0.443163 0.087725
v -0.081201 0.443163 0.082985
v -0.085233 0.455263 0.080055
v -0.085233 0.443163 0.080055
v -0.090217 0.455263 0.080055
v -0.090217 0.443163 0.080055
v -0.094249 0.455263 0.082985
v -0.094249 0.443163 0.082985
v -0.095790 0.455263 0.087725
v -0.095790 0.443163 0.087725
v -0.094249 0.455263 0.092465
v -0.094249 0.443163 0.092465
v -0.090217 0.455263 0.095395
v -0.090217 0.443163 0.095395
v -0.085233 0.455263 0.095395
v -0.085233 0.443163 0.095395
v -0.081201 0.455263 0.092465
v -0.081201 0.443163 0.092465
v 0.094249 0.455469 0.082985
v 0.095790 0.455469 0.087725
v 0.095790 0.443369 0.087725
v 0.094249 0.443369 0.082985
v 0.090217 0.455469 0.080055
v 0.090217 0.443369 0.080055
v 0.085233 0.455469 0.080055
v 0.085233 0.443369 0.080055
v 0.081201 0.455469 0.082985
v 0.081201 0.443369 0.082985
v 0.079660 0.455469 0.087725
v 0.079660 0.443369 0.087725
v 0.081201 0.455469 0.092465
v 0.081201 0.443369 0.092465
v 0.085233 0.455469 0.095395
v 0.085233 0.443369 0.095395
v 0.090217 0.455469 0.095395
v 0.090217 0.443369 0.095395
v 0.094249 0.455469 0.092465
v 0.094249 0.443369 0.092465
v 0.102850 0.420172 -0.087725
vt 0.370893 0.819394
v 0.095288 0.420172 -0.100824
vt 0.382537 0.819394
vn 0.500000 -0.000000 -0.866000
v 0.095288 0.443369 -0.100824
vt 0.382537 0.889257
v 0.102850 0.443369 -0.087725
v 0.080162 0.420172 -0.100824
vt 0.394181 0.819394
v 0.080162 0.443369 -0.100824
vt 0.394181 0.889257
vt 0.324317 0.819394
v 0.072600 0.420172 -0.087725
vt 0.335961 0.819394
v 0.072600 0.443369 -0.087725
vt 0.324317 0.889257
v 0.080162 0.420172 -0.074626
vt 0.347605 0.819394
v 0.080162 0.443369 -0.074626
vt 0.347605 0.889257
v 0.095288 0.420172 -0.074626
vt 0.359249 0.819394
v 0.095288 0.443369 -0.074626
vt 0.359249 0.889257
vt 0.383679 0.836860
vt 0.323175 0.836860
vt 0.323175 0.871791
vt 0.383679 0.871791
v 0.102850 0.420275 0.087725
v 0.095288 0.420275 0.074626
v 0.095288 0.443369 0.074626
v 0.102850 0.443369 0.087725
v 0.080162 0.420275 0.074626
v 0.080162 0.443369 0.074626
v 0.072600 0.420275 0.087725
v 0.072600 0.443369 0.087725
v 0.080162 0.420275 0.100824
v 0.080162 0.443369 0.100824
v 0.095288 0.420275 0.100824
v 0.095288 0.443369 0.100824
v -0.072600 0.420070 0.087725
v -0.080162 0.420070 0.074626
v -0.080162 0.443163 0.074626
v -0.072600 0.443163 0.087725
v -0.095288 0.420070 0.074626
v -0.095288 0.443163 0.074626
v -0.102850 0.420070 0.087725
v -0.102850 0.443163 0.087725
v -0.095288 0.420070 0.100824
v -0.095288 0.443163 0.100824
v -0.080162 0.420070 0.100824
v -0.080162 0.443163 0.100824
v -0.072600 0.420172 -0.087725
v -0.080162 0.420172 -0.100824
v -0.080162 0.443369 -0.100824
v -0.072600 0.443369 -0.087725
v -0.095288 0.420172 -0.100824
v -0.095288 0.443369 -0.100824
v -0.102850 0.420172 -0.087725
v -0.102850 0.443369 -0.087725
v -0.095288 0.420172 -0.074626
v -0.095288 0.443369 -0.074626
v -0.080162 0.420172 -0.074626
v -0.080162 0.443369 -0.074626
v 0.117975 0.406863 0.121000
vt 0.440035 1.000000
v -0.117975 0.406863 0.121000
vt 0.288203 1.000000
v -0.117975 0.393250 0.121000
vt 0.288203 0.504625
v 0.117975 0.393250 0.121000
vt 0.440035 0.504625
v 0.117975 0.406863 0.024200
v 0.117975 0.393250 0.024200
v -0.117975 0.406863 0.024200
v -0.117975 0.393250 0.024200
v 0.117975 0.406863 -0.024200
v -0.117975 0.406863 -0.024200
v -0.117975 0.393250 -0.024200
v 0.117975 0.393250 -0.024200
v 0.117975 0.406863 -0.121000
v 0.117975 0.393250 -0.121000
v -0.117975 0.406863 -0.121000
v -0.117975 0.393250 -0.121000
v 0.117975 0.406863 -0.117975
v 0.117975 0.406863 0.117975
v -0.117975 0.406863 0.117975
v -0.117975 0.406863 -0.117975
v 0.117975 0.420172 -0.117975
v -0.117975 0.420172 -0.117975
v -0.117975 0.420172 0.117975
v 0.117975 0.420172 0.117975
v -0.151250 0.018150 0.199650
vt 0.615258 0.578729
v 0.151250 0.018150 0.199650
vt 0.896157 0.578729
v 0.151250 0.018150 -0.199650
vt 0.896157 0.859627
v -0.151250 0.018150 -0.199650
vt 0.615258 0.859627
v -0.151250 0.000000 0.199650
vn -0.000000 -0.707100 0.707100
v 0.151250 0.000000 0.199650
v 0.151250 -0.000000 -0.199650
vn -0.000000 -0.707100 -0.707100
v -0.151250 -0.000000 -0.199650
v -0.090750 -0.000000 -0.479095
vt 0.793811 0.076568
v -0.090750 -0.000000 -0.448673
vt 0.939025 0.073318
vt 0.793811 0.077732
v -0.084700 -0.000000 -0.479095
v 0.084700 -0.000000 -0.479095
v 0.084700 -0.000000 -0.448673
v 0.090750 -0.000000 -0.479095
vt 0.997924 0.075978
vt 0.934980 0.076568
vn 0.000300 0.106300 -0.994300
vt 0.997880 0.071684
vn 0.000200 0.106300 -0.994300
vt 0.937579 0.499013
f 1/1/1 2/2/1 3/3/2
f 3/3/2 4/4/2 1/1/1
f 3/2/3 5/5/4 4/1/3
f 4/6/5 6/7/5 1/8/5
f 1/2/6 7/9/6 2/1/6
f 3/1/7 8/10/7 9/11/7
f 10/1/1 11/2/1 12/3/2
f 12/3/2 13/4/2 10/1/1
f 12/2/3 14/5/4 13/1/3
f 13/2/5 15/12/5 10/1/5
f 10/2/6 16/9/6 11/1/6
f 12/13/7 17/14/7 18/15/7
f 19/3/8 20/4/8 21/1/8
f 21/1/8 22/2/8 19/3/8
f 23/3/9 24/4/9 25/1/9
f 25/1/9 26/2/9 23/3/9
f 19/3/10 22/4/10 24/1/10
f 24/1/10 23/2/10 19/3/10
f 22/3/5 21/4/5 25/1/5
f 25/1/5 24/2/5 22/3/5
f 21/3/11 20/4/11 26/1/11
f 26/1/11 25/2/11 21/3/11
f 20/3/7 19/4/7 23/1/7
f 23/1/7 26/2/7 20/3/7
f 27/3/8 28/4/8 29/1/8
f 29/1/8 30/2/8 27/3/8
f 31/3/9 32/4/9 33/1/9
f 33/1/9 34/2/9 31/3/9
f 27/3/12 30/4/12 32/1/12
f 32/1/12 31/2/12 27/3/12
f 29/3/13 28/4/13 34/1/13
f 34/1/13 33/2/13 29/3/13
f 35/3/8 36/4/8 37/1/8
f 37/1/8 38/2/8 35/3/8
f 39/3/9 40/4/9 41/1/9
f 41/1/9 42/2/9 39/3/9
f 35/3/14 38/4/14 40/1/14
f 40/1/14 39/2/14 35/3/14
f 37/3/15 36/4/15 42/1/15
f 42/1/15 41/2/15 37/3/15
f 43/3/16 44/4/17 45/1/17
f 45/1/17 46/2/16 43/3/16
f 47/3/9 48/4/9 49/1/9
f 49/1/9 50/2/9 47/3/9
f 43/3/3 46/4/3 48/1/3
f 48/1/3 47/2/3 43/3/3
f 46/3/5 45/4/5 49/1/5
f 49/1/5 48/2/5 46/3/5
f 45/3/18 44/4/18 50/1/18
f 50/1/18 49/2/18 45/3/18
f 44/3/7 43/4/7 47/1/7
f 47/1/7 50/2/7 44/3/7
f 51/3/16 52/4/17 53/1/17
f 53/1/17 54/2/16 51/3/16
f 55/3/9 56/4/9 57/1/9
f 57/1/9 58/2/9 55/3/9
f 51/3/3 54/4/3 56/1/3
f 56/1/3 55/2/3 51/3/3
f 54/3/5 53/4/5 57/1/5
f 57/1/5 56/2/5 54/3/5
f 53/3/18 52/4/18 58/1/18
f 58/1/18 57/2/18 53/3/18
f 52/3/7 51/4/7 55/1/7
f 55/1/7 58/2/7 52/3/7
f 59/3/19 60/4/19 61/1/19
f 61/1/19 62/2/19 59/3/19
f 60/3/20 63/4/20 64/1/20
f 64/1/20 61/2/20 60/3/20
f 63/3/21 65/4/21 66/1/21
f 66/1/21 64/2/21 63/3/21
f 65/3/22 67/4/22 68/1/22
f 68/1/22 66/2/22 65/3/22
f 67/3/23 69/4/23 70/1/23
f 70/1/23 68/2/23 67/3/23
f 69/3/24 71/4/24 72/1/24
f 72/1/24 70/2/24 69/3/24
f 71/3/25 73/4/25 74/1/25
f 74/1/25 72/2/25 71/3/25
f 73/3/26 75/4/26 76/1/26
f 76/1/26 74/2/26 73/3/26
f 75/3/27 77/4/27 78/1/27
f 78/1/27 76/2/27 75/3/27
f 77/3/28 79/4/28 80/1/28
f 80/1/28 78/2/28 77/3/28
f 79/3/29 81/4/29 82/1/29
f 82/1/29 80/2/29 79/3/29
f 81/3/30 59/4/30 62/1/30
f 62/1/30 82/2/30 81/3/30
f 79/16/8 77/17/8 75/18/8
f 75/18/8 73/19/8 71/20/8
f 71/20/8 69/21/8 67/22/8
f 75/18/8 71/20/8 67/22/8
f 67/22/8 65/23/8 63/24/8
f 63/24/8 60/25/8 59/26/8
f 67/22/8 63/24/8 59/26/8
f 75/18/8 67/22/8 59/26/8
f 79/16/8 75/18/8 59/26/8
f 81/27/8 79/16/8 59/26/8
f 61/16/9 64/17/9 66/18/9
f 66/18/9 68/19/9 70/20/9
f 70/20/9 72/21/31 74/22/9
f 66/18/9 70/20/9 74/22/9
f 74/22/9 76/23/32 78/24/32
f 78/24/32 80/25/32 82/26/9
f 74/22/9 78/24/32 82/26/9
f 66/18/9 74/22/9 82/26/9
f 61/16/9 66/18/9 82/26/9
f 62/27/33 61/16/9 82/26/9
f 83/3/19 84/4/19 85/1/19
f 85/1/19 86/2/19 83/3/19
f 84/3/20 87/4/20 88/1/20
f 88/1/20 85/2/20 84/3/20
f 87/3/21 89/4/21 90/1/21
f 90/1/21 88/2/21 87/3/21
f 89/3/22 91/4/22 92/1/22
f 92/1/22 90/2/22 89/3/22
f 91/3/23 93/4/23 94/1/23
f 94/1/23 92/2/23 91/3/23
f 93/3/24 95/4/24 96/1/24
f 96/1/24 94/2/24 93/3/24
f 95/3/25 97/4/25 98/1/25
f 98/1/25 96/2/25 95/3/25
f 97/3/26 99/4/26 100/1/26
f 100/1/26 98/2/26 97/3/26
f 99/3/27 101/4/27 102/1/27
f 102/1/27 100/2/27 99/3/27
f 101/3/28 103/4/28 104/1/28
f 104/1/28 102/2/28 101/3/28
f 103/3/29 105/4/29 106/1/29
f 106/1/29 104/2/29 103/3/29
f 105/3/30 83/4/30 86/1/30
f 86/1/30 106/2/30 105/3/30
f 103/16/8 101/17/8 99/18/8
f 99/18/8 97/19/8 95/20/8
f 95/20/8 93/21/8 91/22/8
f 99/18/8 95/20/8 91/22/8
f 91/22/8 89/23/8 87/24/8
f 87/24/8 84/25/8 83/26/8
f 91/22/8 87/24/8 83/26/8
f 99/18/8 91/22/8 83/26/8
f 103/16/8 99/18/8 83/26/8
f 105/27/8 103/16/8 83/26/8
f 85/16/9 88/17/9 90/18/9
f 90/18/9 92/19/9 94/20/9
f 94/20/9 96/21/9 98/22/9
f 90/18/9 94/20/9 98/22/9
f 98/22/9 100/23/9 102/24/9
f 102/24/9 104/25/9 106/26/9
f 98/22/9 102/24/9 106/26/9
f 90/18/9 98/22/9 106/26/9
f 85/16/9 90/18/9 106/26/9
f 86/27/9 85/16/9 106/26/9
f 107/28/8 108/29/8 109/30/8
f 109/30/8 110/31/8 107/28/8
f 111/28/8 112/29/34 108/30/8
f 108/30/8 107/31/35 111/28/8
f 113/28/8 114/29/8 112/30/34
f 112/30/34 111/31/34 113/28/8
f 115/28/35 116/29/35 114/30/8
f 114/30/8 113/32/8 115/28/35
f 117/28/34 118/29/34 116/30/8
f 116/30/8 115/31/8 117/28/34
f 119/28/8 120/29/8 118/30/8
f 118/30/8 117/31/8 119/28/8
f 121/28/8 122/29/8 120/30/8
f 120/30/8 119/31/8 121/28/8
f 123/28/9 124/33/9 125/30/9
f 125/30/9 126/34/9 123/28/9
f 127/28/9 123/33/9 126/30/9
f 126/30/9 128/34/9 127/28/9
f 129/28/9 127/33/32 128/30/32
f 128/30/32 130/34/9 129/28/9
f 131/28/36 129/35/9 130/30/9
f 130/30/9 132/34/36 131/28/36
f 133/28/9 131/33/32 132/30/32
f 132/30/32 134/34/9 133/28/9
f 135/28/9 133/33/9 134/30/9
f 134/30/9 136/34/9 135/28/9
f 137/28/9 135/33/9 136/30/9
f 136/30/9 138/34/9 137/28/9
f 126/28/37 125/29/37 109/30/37
f 109/30/37 108/34/37 126/28/37
f 128/28/38 126/29/38 108/30/38
f 108/30/38 112/34/38 128/28/38
f 130/28/39 128/29/39 112/30/40
f 112/30/40 114/34/40 130/28/39
f 132/28/11 130/29/11 114/30/11
f 114/30/11 116/34/11 132/28/11
f 134/28/41 132/29/41 116/30/42
f 116/30/42 118/34/42 134/28/41
f 136/28/43 134/29/43 118/30/43
f 118/30/43 120/34/43 136/28/43
f 138/28/44 136/29/44 120/30/44
f 120/30/44 122/34/44 138/28/44
f 135/28/45 137/29/45 121/30/45
f 121/30/45 119/34/45 135/28/45
f 133/28/46 135/29/46 119/30/46
f 119/30/46 117/34/46 133/28/46
f 131/28/47 133/29/47 117/30/47
f 117/30/47 115/34/47 131/28/47
f 129/28/10 131/29/10 115/30/10
f 115/30/10 113/34/10 129/28/10
f 127/28/48 129/29/48 113/30/48
f 113/30/48 111/34/48 127/28/48
f 123/28/49 127/29/49 111/30/49
f 111/30/49 107/34/49 123/28/49
f 124/28/50 123/29/50 107/30/50
f 107/30/50 110/34/50 124/28/50
f 139/3/16 140/4/16 141/1/16
f 141/1/16 142/2/16 139/3/16
f 143/3/2 144/4/2 145/1/2
f 145/1/2 146/2/2 143/3/2
f 139/3/3 142/4/3 144/1/3
f 144/1/3 143/2/3 139/3/3
f 142/3/5 141/4/5 145/1/5
f 145/1/5 144/2/5 142/3/5
f 141/3/6 140/4/6 146/1/6
f 146/1/6 145/2/6 141/3/6
f 147/3/16 148/4/16 149/1/16
f 149/1/16 150/2/16 147/3/16
f 151/3/2 152/4/2 153/1/2
f 153/1/2 154/2/2 151/3/2
f 147/3/3 150/4/3 152/1/3
f 152/1/3 151/2/3 147/3/3
f 150/3/5 149/4/5 153/1/5
f 153/1/5 152/2/5 150/3/5
f 149/3/6 148/4/6 154/1/6
f 154/1/6 153/2/6 149/3/6
f 155/3/16 156/4/16 157/1/16
f 157/1/16 158/2/16 155/3/16
f 159/3/2 160/4/2 161/1/2
f 161/1/2 162/2/2 159/3/2
f 155/3/3 158/4/3 160/1/3
f 160/1/3 159/2/3 155/3/3
f 158/3/5 157/4/5 161/1/5
f 161/1/5 160/2/5 158/3/5
f 157/3/6 156/4/6 162/1/6
f 162/1/6 161/2/6 157/3/6
f 163/3/16 164/4/16 165/1/16
f 165/1/16 166/2/16 163/3/16
f 167/3/2 168/4/2 169/1/2
f 169/1/2 170/2/2 167/3/2
f 163/3/3 166/4/3 168/1/3
f 168/1/3 167/2/3 163/3/3
f 166/3/5 165/4/5 169/1/5
f 169/1/5 168/2/5 166/3/5
f 165/3/6 164/4/6 170/1/6
f 170/1/6 169/2/6 165/3/6
f 171/3/16 172/4/16 173/1/16
f 173/1/16 174/2/16 171/3/16
f 175/3/2 176/4/2 177/1/2
f 177/1/2 178/2/2 175/3/2
f 171/3/3 174/4/3 176/1/3
f 176/1/3 175/2/3 171/3/3
f 174/3/5 173/4/5 177/1/5
f 177/1/5 176/2/5 174/3/5
f 173/3/6 172/4/6 178/1/6
f 178/1/6 177/2/6 173/3/6
f 179/3/16 180/4/16 181/1/16
f 181/1/16 182/2/16 179/3/16
f 183/3/2 184/4/2 185/1/2
f 185/1/2 186/2/2 183/3/2
f 179/3/3 182/4/3 184/1/3
f 184/1/3 183/2/3 179/3/3
f 182/3/5 181/4/5 185/1/5
f 185/1/5 184/2/5 182/3/5
f 181/3/6 180/4/6 186/1/6
f 186/1/6 185/2/6 181/3/6
f 187/3/16 188/4/16 189/1/17
f 189/1/17 190/2/17 187/3/16
f 191/3/2 192/4/2 193/1/2
f 193/1/2 194/2/2 191/3/2
f 187/3/3 190/4/3 192/1/3
f 192/1/3 191/2/3 187/3/3
f 190/3/5 189/4/5 193/1/5
f 193/1/5 192/2/5 190/3/5
f 189/3/6 188/4/6 194/1/6
f 194/1/6 193/2/6 189/3/6
f 195/3/16 196/4/16 197/1/16
f 197/1/16 198/2/16 195/3/16
f 199/3/51 200/4/51 201/1/51
f 201/1/51 202/2/51 199/3/51
f 195/3/3 198/4/3 200/1/3
f 200/1/3 199/2/3 195/3/3
f 198/3/5 197/4/5 201/1/5
f 201/1/5 200/2/5 198/3/5
f 197/3/6 196/4/6 202/1/6
f 202/1/6 201/2/6 197/3/6
f 203/3/16 204/4/16 205/1/17
f 205/1/17 206/2/17 203/3/16
f 207/3/51 208/4/51 209/1/51
f 209/1/51 210/2/51 207/3/51
f 203/3/3 206/4/3 208/1/3
f 208/1/3 207/2/3 203/3/3
f 206/3/5 205/4/5 209/1/5
f 209/1/5 208/2/5 206/3/5
f 205/3/6 204/4/6 210/1/6
f 210/1/6 209/2/6 205/3/6
f 211/3/16 212/4/16 213/1/17
f 213/1/17 214/2/17 211/3/16
f 215/3/1 216/4/51 217/1/51
f 217/1/51 218/2/1 215/3/1
f 211/3/3 214/4/3 216/1/3
f 216/1/3 215/2/3 211/3/3
f 214/3/5 213/4/5 217/1/5
f 217/1/5 216/2/5 214/3/5
f 213/3/6 212/4/6 218/1/6
f 218/1/6 217/2/6 213/3/6
f 219/3/16 220/4/16 221/1/17
f 221/1/17 222/2/17 219/3/16
f 223/3/1 224/4/51 225/1/51
f 225/1/51 226/2/1 223/3/1
f 219/3/3 222/4/3 224/1/3
f 224/1/3 223/2/3 219/3/3
f 222/3/5 221/4/5 225/1/5
f 225/1/5 224/2/5 222/3/5
f 221/3/6 220/4/6 226/1/6
f 226/1/6 225/2/6 221/3/6
f 227/3/16 228/4/16 229/1/17
f 229/1/17 230/2/17 227/3/16
f 231/3/2 232/4/1 233/1/1
f 233/1/1 234/2/2 231/3/2
f 227/3/3 230/4/3 232/1/3
f 232/1/3 231/2/3 227/3/3
f 230/3/5 229/4/5 233/1/5
f 233/1/5 232/2/5 230/3/5
f 229/3/6 228/4/6 234/1/6
f 234/1/6 233/2/6 229/3/6
f 235/3/16 236/4/16 237/1/17
f 237/1/17 238/2/17 235/3/16
f 239/3/2 240/4/1 241/1/1
f 241/1/1 242/2/2 239/3/2
f 235/3/3 238/4/3 240/1/3
f 240/1/3 239/2/3 235/3/3
f 238/3/5 237/4/5 241/1/5
f 241/1/5 240/2/5 238/3/5
f 237/3/6 236/4/6 242/1/6
f 242/1/6 241/2/6 237/3/6
f 243/3/16 244/4/16 245/1/17
f 245/1/17 246/2/17 243/3/16
f 247/3/2 248/4/1 249/1/1
f 249/1/1 250/2/2 247/3/2
f 243/3/3 246/4/3 248/1/3
f 248/1/3 247/2/3 243/3/3
f 246/3/5 245/4/5 249/1/5
f 249/1/5 248/2/5 246/3/5
f 245/3/6 244/4/6 250/1/6
f 250/1/6 249/2/6 245/3/6
f 251/3/16 252/4/16 253/1/17
f 253/1/17 254/2/17 251/3/16
f 255/3/1 256/4/1 257/1/1
f 257/1/1 258/2/1 255/3/1
f 251/3/3 254/4/3 256/1/3
f 256/1/3 255/2/3 251/3/3
f 254/3/5 253/4/5 257/1/5
f 257/1/5 256/2/5 254/3/5
f 253/3/6 252/4/6 258/1/6
f 258/1/6 257/2/6 253/3/6
f 259/3/16 260/4/16 261/1/17
f 261/1/17 262/2/17 259/3/16
f 263/3/1 264/4/2 265/1/2
f 265/1/2 266/2/1 263/3/1
f 259/3/3 262/4/3 264/1/3
f 264/1/3 263/2/3 259/3/3
f 262/3/5 261/4/5 265/1/5
f 265/1/5 264/2/5 262/3/5
f 261/3/6 260/4/6 266/1/6
f 266/1/6 265/2/6 261/3/6
f 267/3/16 268/4/16 269/1/17
f 269/1/17 270/2/17 267/3/16
f 271/3/1 272/4/2 273/1/2
f 273/1/2 274/2/1 271/3/1
f 267/3/3 270/4/3 272/1/3
f 272/1/3 271/2/3 267/3/3
f 270/3/5 269/4/5 273/1/5
f 273/1/5 272/2/5 270/3/5
f 269/3/6 268/4/6 274/1/6
f 274/1/6 273/2/6 269/3/6
f 275/36/52 276/37/52 277/38/52
f 277/38/52 278/39/52 275/36/52
f 279/36/53 280/37/53 281/38/53
f 281/38/53 282/39/53 279/36/53
f 283/40/54 284/41/54 276/42/54
f 276/42/54 275/43/54 283/40/54
f 284/36/7 285/37/7 277/38/7
f 277/38/7 276/39/7 284/36/7
f 286/36/7 287/37/7 281/38/7
f 281/38/7 280/39/7 286/36/7
f 287/40/55 288/41/55 282/42/55
f 282/42/55 281/43/55 287/40/55
f 288/36/5 289/37/5 279/38/5
f 279/38/5 282/39/5 288/36/5
f 290/36/5 283/37/5 275/38/5
f 275/38/5 278/39/5 290/36/5
f 291/36/52 292/37/52 293/38/52
f 293/38/52 294/39/52 291/36/52
f 295/36/53 296/37/53 297/38/53
f 297/38/53 298/39/53 295/36/53
f 299/40/54 300/41/54 292/42/54
f 292/42/54 291/43/54 299/40/54
f 300/36/7 301/37/7 293/38/7
f 293/38/7 292/39/7 300/36/7
f 302/36/7 303/37/7 297/38/7
f 297/38/7 296/39/7 302/36/7
f 303/40/55 304/41/55 298/42/55
f 298/42/55 297/43/55 303/40/55
f 304/36/5 305/37/5 295/38/5
f 295/38/5 298/39/5 304/36/5
f 306/36/5 299/37/5 291/38/5
f 291/38/5 294/39/5 306/36/5
f 307/40/56 308/42/56 309/43/56
f 307/40/56 310/41/56 308/42/56
f 310/40/10 311/42/10 308/43/10
f 310/40/10 312/41/10 311/42/10
f 312/40/57 313/42/57 311/43/57
f 312/40/57 314/41/57 313/42/57
f 314/40/58 315/42/58 313/43/58
f 314/40/58 316/41/58 315/42/58
f 316/40/11 317/42/11 315/43/11
f 316/40/11 318/41/11 317/42/11
f 318/40/59 309/42/59 317/43/59
f 318/40/59 307/41/59 309/42/59
f 319/42/9 309/40/9 308/41/9
f 319/42/9 308/40/9 311/41/9
f 319/42/9 311/40/9 313/41/9
f 319/42/9 313/40/9 315/41/9
f 319/42/9 315/40/9 317/41/9
f 319/42/9 317/40/9 309/41/9
f 320/40/56 321/42/56 322/43/56
f 320/40/56 323/41/56 321/42/56
f 323/40/10 324/42/10 321/43/10
f 323/40/10 325/41/10 324/42/10
f 325/40/57 326/42/57 324/43/57
f 325/40/57 327/41/57 326/42/57
f 327/40/58 328/42/58 326/43/58
f 327/40/58 329/41/58 328/42/58
f 329/40/11 330/42/11 328/43/11
f 329/40/11 331/41/11 330/42/11
f 331/40/59 322/42/59 330/43/59
f 331/40/59 320/41/59 322/42/59
f 332/42/9 322/40/9 321/41/9
f 332/42/9 321/40/9 324/41/9
f 332/42/9 324/40/9 326/41/9
f 332/42/9 326/40/9 328/41/9
f 332/42/9 328/40/9 330/41/9
f 332/42/9 330/40/9 322/41/9
f 333/40/56 334/42/56 335/43/56
f 333/40/56 336/41/56 334/42/56
f 336/40/10 337/42/10 334/43/10
f 336/40/10 338/41/10 337/42/10
f 338/40/57 339/42/57 337/43/57
f 338/40/57 340/41/57 339/42/57
f 340/40/58 341/42/58 339/43/58
f 340/40/58 342/41/58 341/42/58
f 342/40/11 343/42/11 341/43/11
f 342/40/11 344/41/11 343/42/11
f 344/40/59 335/42/59 343/43/59
f 344/40/59 333/41/59 335/42/59
f 345/42/9 335/40/9 334/41/9
f 345/42/9 334/40/9 337/41/9
f 345/42/9 337/40/9 339/41/9
f 345/42/9 339/40/9 341/41/9
f 345/42/9 341/40/9 343/41/9
f 345/42/9 343/40/9 335/41/9
f 346/40/56 347/42/56 348/43/56
f 346/40/56 349/41/56 347/42/56
f 349/40/10 350/42/10 347/43/10
f 349/40/10 351/41/10 350/42/10
f 351/40/57 352/42/57 350/43/57
f 351/40/57 353/41/57 352/42/57
f 353/40/58 354/42/58 352/43/58
f 353/40/58 355/41/58 354/42/58
f 355/40/11 356/42/11 354/43/11
f 355/40/11 357/41/11 356/42/11
f 357/40/59 348/42/59 356/43/59
f 357/40/59 346/41/59 348/42/59
f 358/42/9 348/40/9 347/41/9
f 358/42/9 347/40/9 350/41/9
f 358/42/9 350/40/9 352/41/9
f 358/42/9 352/40/9 354/41/9
f 358/42/9 354/40/9 356/41/9
f 358/42/9 356/40/9 348/41/9
f 359/40/60 360/41/60 361/42/60
f 361/42/60 362/43/60 359/40/60
f 363/40/61 359/41/61 362/42/61
f 362/42/61 364/43/61 363/40/61
f 365/40/10 363/41/10 364/42/10
f 364/42/10 366/43/10 365/40/10
f 367/40/62 365/41/62 366/42/62
f 366/42/62 368/43/62 367/40/62
f 369/40/63 367/41/63 368/42/63
f 368/42/63 370/43/63 369/40/63
f 371/40/64 369/41/64 370/42/64
f 370/42/64 372/43/64 371/40/64
f 373/40/65 371/41/65 372/42/65
f 372/42/65 374/43/65 373/40/65
f 375/40/11 373/41/11 374/42/11
f 374/42/11 376/43/11 375/40/11
f 377/40/66 375/41/66 376/42/66
f 376/42/66 378/43/66 377/40/66
f 360/40/9 359/41/9 363/42/9
f 360/40/9 363/42/9 365/43/9
f 360/40/9 365/42/9 367/43/9
f 360/40/9 367/42/9 369/43/9
f 360/40/9 369/42/9 371/43/9
f 360/40/9 371/42/9 373/43/9
f 360/40/9 373/42/9 375/43/9
f 360/40/9 375/42/9 377/43/9
f 379/40/60 380/41/60 381/42/60
f 381/42/60 382/43/60 379/40/60
f 383/40/61 379/41/61 382/42/61
f 382/42/61 384/43/61 383/40/61
f 385/40/10 383/41/10 384/42/10
f 384/42/10 386/43/10 385/40/10
f 387/40/62 385/41/62 386/42/62
f 386/42/62 388/43/62 387/40/62
f 389/40/63 387/41/63 388/42/63
f 388/42/63 390/43/63 389/40/63
f 391/40/64 389/41/64 390/42/64
f 390/42/64 392/43/64 391/40/64
f 393/40/65 391/41/65 392/42/65
f 392/42/65 394/43/65 393/40/65
f 395/40/11 393/41/11 394/42/11
f 394/42/11 396/43/11 395/40/11
f 397/40/66 395/41/66 396/42/66
f 396/42/66 398/43/66 397/40/66
f 380/40/9 379/41/9 383/42/9
f 380/40/9 383/42/9 385/43/9
f 380/40/9 385/42/9 387/43/9
f 380/40/9 387/42/9 389/43/9
f 380/40/9 389/42/9 391/43/9
f 380/40/9 391/42/9 393/43/9
f 380/40/9 393/42/9 395/43/9
f 380/40/9 395/42/9 397/43/9
f 399/40/60 400/41/60 401/42/60
f 401/42/60 402/43/60 399/40/60
f 403/40/61 399/41/61 402/42/61
f 402/42/61 404/43/61 403/40/61
f 405/40/10 403/41/10 404/42/10
f 404/42/10 406/43/10 405/40/10
f 407/40/62 405/41/62 406/42/62
f 406/42/62 408/43/62 407/40/62
f 409/40/63 407/41/63 408/42/63
f 408/42/63 410/43/63 409/40/63
f 411/40/64 409/41/64 410/42/64
f 410/42/64 412/43/64 411/40/64
f 413/40/65 411/41/65 412/42/65
f 412/42/65 414/43/65 413/40/65
f 415/40/11 413/41/11 414/42/11
f 414/42/11 416/43/11 415/40/11
f 417/40/66 415/41/66 416/42/66
f 416/42/66 418/43/66 417/40/66
f 400/40/9 399/41/9 403/42/9
f 400/40/9 403/42/9 405/43/9
f 400/40/9 405/42/9 407/43/9
f 400/40/9 407/42/9 409/43/9
f 400/40/9 409/42/9 411/43/9
f 400/40/9 411/42/9 413/43/9
f 400/40/9 413/42/9 415/43/9
f 400/40/9 415/42/9 417/43/9
f 419/40/60 420/41/60 421/42/60
f 421/42/60 422/43/60 419/40/60
f 423/40/61 419/41/61 422/42/61
f 422/42/61 424/43/61 423/40/61
f 425/40/10 423/41/10 424/42/10
f 424/42/10 426/43/10 425/40/10
f 427/40/62 425/41/62 426/42/62
f 426/42/62 428/43/62 427/40/62
f 429/40/63 427/41/63 428/42/63
f 428/42/63 430/43/63 429/40/63
f 431/40/64 429/41/64 430/42/64
f 430/42/64 432/43/64 431/40/64
f 433/40/65 431/41/65 432/42/65
f 432/42/65 434/43/65 433/40/65
f 435/40/11 433/41/11 434/42/11
f 434/42/11 436/43/11 435/40/11
f 437/40/66 435/41/66 436/42/66
f 436/42/66 438/43/66 437/40/66
f 420/40/9 419/41/9 423/42/9
f 420/40/9 423/42/9 425/43/9
f 420/40/9 425/42/9 427/43/9
f 420/40/9 427/42/9 429/43/9
f 420/40/9 429/42/9 431/43/9
f 420/40/9 431/42/9 433/43/9
f 420/40/9 433/42/9 435/43/9
f 420/40/9 435/42/9 437/43/9
f 360/40/67 377/41/67 378/42/67
f 378/42/67 361/43/67 360/40/67
f 380/40/67 397/41/67 398/42/67
f 398/42/67 381/43/67 380/40/67
f 400/40/67 417/41/67 418/42/67
f 418/42/67 401/43/67 400/40/67
f 420/40/67 437/41/67 438/42/67
f 438/42/67 421/43/67 420/40/67
f 439/44/11 440/45/11 441/46/11
f 441/46/11 442/47/11 439/44/11
f 440/45/7 443/44/7 444/47/7
f 444/47/7 441/46/7 440/45/7
f 443/44/10 445/45/10 446/46/10
f 446/46/10 444/47/10 443/44/10
f 445/45/5 439/44/5 442/47/5
f 442/47/5 446/46/5 445/45/5
f 447/48/9 448/49/9 449/50/9
f 449/50/9 450/51/9 447/48/9
f 442/52/68 441/53/68 451/54/69
f 451/54/69 452/55/70 442/52/68
f 452/55/70 451/54/69 448/56/71
f 448/56/71 447/57/71 452/55/70
f 441/58/72 444/59/72 453/60/73
f 453/60/73 451/61/72 441/58/72
f 451/62/74 453/60/73 449/63/74
f 449/63/74 448/64/74 451/62/74
f 444/53/75 446/65/75 454/66/76
f 454/66/76 453/67/77 444/53/75
f 453/67/77 454/66/76 450/68/78
f 450/68/78 449/69/78 453/67/77
f 446/59/79 442/58/79 452/61/80
f 452/61/80 454/60/81 446/59/79
f 454/60/81 452/61/80 447/70/82
f 447/70/82 450/71/82 454/60/81
f 455/72/8 456/73/8 457/74/8
f 457/74/8 458/75/8 455/72/8
f 459/72/9 460/73/9 461/74/9
f 461/74/9 462/75/9 459/72/9
f 455/36/11 458/76/11 460/77/11
f 460/77/11 459/78/11 455/36/11
f 458/72/7 457/73/7 461/74/7
f 461/74/7 460/75/7 458/72/7
f 456/72/5 455/73/5 459/74/5
f 459/74/5 462/75/5 456/72/5
f 463/79/8 464/80/8 465/81/8
f 465/81/8 466/82/8 467/83/8
f 467/83/8 468/84/8 469/85/8
f 465/81/8 467/83/8 469/85/8
f 469/85/8 470/86/8 471/87/8
f 471/87/8 472/88/8 473/89/8
f 469/85/8 471/87/8 473/89/8
f 465/81/8 469/85/8 473/89/8
f 463/79/8 465/81/8 473/89/8
f 474/90/8 463/79/8 473/89/8
f 473/89/7 472/88/25 475/91/25
f 475/91/25 476/92/7 473/89/7
f 472/93/26 471/94/26 477/94/26
f 477/94/26 475/93/26 472/93/26
f 471/95/27 470/96/27 478/97/83
f 478/97/83 477/98/27 471/95/27
f 470/99/28 469/81/84 479/100/84
f 479/100/84 478/97/85 470/99/28
f 469/81/84 468/82/57 480/101/57
f 480/101/57 479/100/84 469/81/84
f 468/82/57 467/102/5 481/103/5
f 481/103/5 480/101/57 468/82/57
f 467/102/5 466/104/58 482/105/58
f 482/105/58 481/103/5 467/102/5
f 466/104/58 465/106/86 483/107/86
f 483/107/86 482/105/58 466/104/58
f 465/106/86 464/108/11 484/109/11
f 484/109/11 483/107/86 465/106/86
f 464/108/11 463/110/87 485/111/87
f 485/111/87 484/109/11 464/108/11
f 463/110/87 474/112/59 486/113/59
f 486/113/59 485/111/87 463/110/87
f 474/112/59 473/89/7 476/92/7
f 476/92/7 486/113/59 474/112/59
f 476/114/9 475/93/9 477/94/9
f 477/94/9 478/115/9 479/116/9
f 479/116/9 480/117/9 481/118/9
f 477/94/9 479/116/9 481/118/9
f 481/118/9 482/119/9 483/120/9
f 483/120/9 484/121/9 485/122/9
f 481/118/9 483/120/9 485/122/9
f 477/94/9 481/118/9 485/122/9
f 476/114/9 477/94/9 485/122/9
f 486/123/9 476/114/9 485/122/9
f 476/124/9 487/125/9 488/126/9
f 489/127/88 490/128/88 491/129/88
f 491/129/88 492/130/88 489/127/88
f 493/129/89 494/130/89 490/127/89
f 490/127/89 489/128/89 493/129/89
f 489/131/11 492/132/11 495/133/11
f 495/133/11 496/134/11 489/131/11
f 496/134/11 497/135/11 493/136/11
f 493/136/11 489/131/11 496/134/11
f 498/127/90 499/128/90 500/129/90
f 500/129/90 501/130/90 498/127/90
f 487/129/91 502/130/91 499/127/91
f 499/127/91 498/128/91 487/129/91
f 498/137/10 501/138/10 503/139/10
f 503/139/10 504/140/10 498/137/10
f 488/141/10 487/142/10 498/137/10
f 498/137/10 504/140/10 488/141/10
f 478/143/9 505/144/9 506/145/9
f 507/127/92 508/128/92 509/129/92
f 509/129/92 510/130/92 507/127/92
f 511/129/11 512/130/11 508/127/11
f 508/127/11 507/128/11 511/129/11
f 513/146/7 514/147/7 515/148/7
f 515/148/7 516/149/7 513/146/7
f 517/150/7 516/149/7 515/148/7
f 515/148/7 518/151/7 517/150/7
f 519/127/93 515/128/93 514/129/93
f 514/129/93 520/130/93 519/127/93
f 505/129/10 518/130/10 515/127/10
f 515/127/10 519/128/10 505/129/10
f 519/148/5 520/147/5 521/146/5
f 521/146/5 522/149/5 519/148/5
f 522/149/5 506/152/5 505/153/5
f 505/153/5 519/148/5 522/149/5
f 499/137/11 523/140/11 524/139/11
f 524/139/11 500/138/11 499/137/11
f 490/131/10 525/134/10 526/133/10
f 526/133/10 491/132/10 490/131/10
f 527/154/7 528/155/7 507/156/7
f 507/156/7 510/157/7 527/154/7
f 508/156/5 529/155/5 530/154/5
f 530/154/5 509/157/5 508/156/5
f 493/158/9 497/159/32 531/160/9
f 531/160/9 481/161/9 493/158/9
f 532/135/10 525/134/10 490/131/10
f 490/131/10 494/136/10 532/135/10
f 511/162/7 507/156/7 528/155/7
f 528/155/7 533/163/7 511/162/7
f 511/164/9 533/165/9 484/166/9
f 508/156/5 512/167/5 534/168/5
f 534/168/5 529/155/5 508/156/5
f 523/140/11 499/137/11 502/142/11
f 502/142/11 535/141/11 523/140/11
f 476/124/9 535/169/9 502/170/9
f 502/170/9 487/125/9 476/124/9
f 478/143/9 517/171/9 518/172/9
f 518/172/9 505/144/9 478/143/9
f 494/173/9 493/158/9 481/161/9
f 481/161/9 532/174/9 494/173/9
f 536/175/9 534/176/9 512/177/9
f 484/166/9 536/175/9 512/177/9
f 484/166/9 512/177/9 511/164/9
f 537/178/94 538/179/94 539/180/8
f 539/180/8 540/181/8 537/178/94
f 538/182/10 537/183/10 541/184/95
f 541/184/95 542/185/95 538/182/10
f 542/185/95 541/184/95 543/186/9
f 543/186/9 544/187/9 542/185/95
f 544/187/9 543/186/9 545/188/96
f 545/188/96 546/189/96 544/187/9
f 546/189/96 545/188/96 547/190/97
f 547/190/97 548/191/97 546/189/96
f 539/180/8 548/191/97 547/190/97
f 547/190/97 540/181/8 539/180/8
f 545/192/5 543/193/5 541/194/5
f 541/194/5 537/195/5 540/196/5
f 545/192/5 541/194/5 540/196/5
f 547/197/5 545/192/5 540/196/5
f 549/195/7 550/194/7 551/193/7
f 551/193/7 552/192/7 553/197/7
f 549/195/7 551/193/7 553/197/7
f 554/196/7 549/195/7 553/197/7
f 554/198/8 553/199/97 555/200/97
f 555/200/97 556/201/8 554/198/8
f 556/201/8 557/202/94 549/203/94
f 549/203/94 554/198/8 556/201/8
f 550/204/95 549/205/10 557/206/10
f 557/206/10 558/207/95 550/204/95
f 558/207/95 559/208/9 551/209/9
f 551/209/9 550/204/95 558/207/95
f 552/210/96 551/209/9 559/208/9
f 559/208/9 560/211/96 552/210/96
f 555/200/97 553/199/97 552/210/96
f 552/210/96 560/211/96 555/200/97
f 561/212/98 562/213/99 563/214/8
f 563/214/8 564/215/100 565/216/101
f 561/212/98 563/214/8 565/216/101
f 565/216/101 564/215/100 566/217/102
f 566/217/102 567/218/103 565/216/101
f 567/218/103 566/217/102 568/219/10
f 568/219/10 569/220/10 567/218/103
f 569/221/104 568/222/104 570/223/105
f 570/223/105 571/224/106 569/221/104
f 572/225/9 573/226/107 574/227/108
f 572/225/9 574/227/108 571/224/106
f 572/225/9 571/224/106 570/223/105
f 575/228/109 576/229/109 577/230/110
f 577/230/110 578/231/111 573/226/107
f 575/228/109 577/230/110 573/226/107
f 572/225/9 575/228/109 573/226/107
f 579/232/112 580/233/109 581/234/109
f 581/234/109 582/235/112 579/232/112
f 582/235/112 583/236/113 584/237/114
f 584/237/114 579/232/112 582/235/112
f 585/238/115 586/239/115 584/237/114
f 587/240/116 585/238/115 584/237/114
f 587/240/116 584/237/114 583/236/113
f 588/241/117 589/242/115 590/243/115
f 590/243/115 563/214/8 562/213/99
f 590/243/115 562/213/99 591/244/117
f 588/241/117 590/243/115 591/244/117
f 592/245/5 593/246/5 575/247/5
f 575/247/5 572/248/5 570/249/5
f 570/249/5 568/250/5 566/251/5
f 566/251/5 564/252/5 563/253/5
f 570/249/5 566/251/5 563/253/5
f 575/247/5 570/249/5 563/253/5
f 592/245/5 575/247/5 563/253/5
f 590/254/5 592/245/5 563/253/5
f 594/252/7 595/251/7 596/250/7
f 596/250/7 597/249/7 598/248/7
f 598/248/7 580/247/7 579/246/7
f 579/246/7 584/245/7 586/254/7
f 598/248/7 579/246/7 586/254/7
f 596/250/7 598/248/7 586/254/7
f 594/252/7 596/250/7 586/254/7
f 599/253/7 594/252/7 586/254/7
f 600/178/94 601/179/118 602/180/8
f 602/180/8 603/181/8 600/178/94
f 601/182/10 600/183/10 604/184/95
f 604/184/95 605/185/95 601/182/10
f 605/185/95 604/184/95 606/186/9
f 606/186/9 607/187/9 605/185/95
f 607/187/9 606/186/9 608/188/96
f 608/188/96 609/189/96 607/187/9
f 609/189/96 608/188/96 610/190/97
f 610/190/97 611/191/97 609/189/96
f 602/180/8 611/191/97 610/190/97
f 610/190/97 603/181/8 602/180/8
f 608/192/5 606/193/5 604/194/5
f 604/194/5 600/195/5 603/196/5
f 608/192/5 604/194/5 603/196/5
f 610/197/5 608/192/5 603/196/5
f 612/195/7 613/194/7 614/193/7
f 614/193/7 615/192/7 616/197/7
f 612/195/7 614/193/7 616/197/7
f 617/196/7 612/195/7 616/197/7
f 617/198/8 616/199/97 618/200/97
f 618/200/97 619/201/8 617/198/8
f 619/201/8 620/202/118 612/203/94
f 612/203/94 617/198/8 619/201/8
f 613/204/95 612/205/10 620/206/10
f 620/206/10 621/207/95 613/204/95
f 621/207/95 622/208/9 614/209/9
f 614/209/9 613/204/95 621/207/95
f 615/210/96 614/209/9 622/208/9
f 622/208/9 623/211/96 615/210/96
f 618/200/97 616/199/97 615/210/96
f 615/210/96 623/211/96 618/200/97
f 624/255/119 625/213/120 626/214/8
f 626/214/8 627/215/100 628/216/121
f 624/255/119 626/214/8 628/216/121
f 628/216/121 627/215/100 629/217/102
f 629/217/102 630/218/103 628/216/121
f 630/218/103 629/217/102 631/219/10
f 631/219/10 632/220/10 630/218/103
f 632/221/104 631/222/104 633/223/105
f 633/223/105 634/224/106 632/221/104
f 635/225/9 636/226/122 637/227/123
f 635/225/9 637/227/123 634/224/106
f 635/225/9 634/224/106 633/223/105
f 638/228/109 639/229/109 640/230/110
f 640/230/110 641/231/124 636/226/122
f 638/228/109 640/230/110 636/226/122
f 635/225/9 638/228/109 636/226/122
f 642/232/112 643/233/109 644/234/109
f 644/234/109 645/235/112 642/232/112
f 645/235/112 646/236/114 647/237/114
f 647/237/114 642/232/112 645/235/112
f 648/239/115 647/237/114 646/236/114
f 646/236/114 649/238/115 648/239/115
f 650/241/117 651/242/115 652/243/115
f 652/243/115 626/214/8 625/213/120
f 652/243/115 625/213/120 653/244/125
f 650/241/117 652/243/115 653/244/125
f 654/245/5 655/246/5 638/247/5
f 638/247/5 635/248/5 633/249/5
f 633/249/5 631/250/5 629/251/5
f 629/251/5 627/252/5 626/253/5
f 633/249/5 629/251/5 626/253/5
f 638/247/5 633/249/5 626/253/5
f 654/245/5 638/247/5 626/253/5
f 652/254/5 654/245/5 626/253/5
f 656/252/7 657/251/7 658/250/7
f 658/250/7 659/249/7 660/248/7
f 660/248/7 643/247/7 642/246/7
f 642/246/7 647/245/7 648/254/7
f 660/248/7 642/246/7 648/254/7
f 658/250/7 660/248/7 648/254/7
f 656/252/7 658/250/7 648/254/7
f 661/253/7 656/252/7 648/254/7
f 662/178/94 663/179/94 664/180/8
f 664/180/8 665/181/8 662/178/94
f 663/182/10 662/183/10 666/184/95
f 666/184/95 667/185/95 663/182/10
f 667/185/95 666/184/95 668/186/9
f 668/186/9 669/187/9 667/185/95
f 669/187/9 668/186/9 670/188/96
f 670/188/96 671/189/96 669/187/9
f 671/189/96 670/188/96 672/190/97
f 672/190/97 673/191/97 671/189/96
f 664/180/8 673/191/97 672/190/97
f 672/190/97 665/181/8 664/180/8
f 670/192/5 668/193/5 666/194/5
f 666/194/5 662/195/5 665/196/5
f 670/192/5 666/194/5 665/196/5
f 672/197/5 670/192/5 665/196/5
f 674/195/7 675/194/7 676/193/7
f 676/193/7 677/192/7 678/197/7
f 674/195/7 676/193/7 678/197/7
f 679/196/7 674/195/7 678/197/7
f 679/198/8 678/199/97 680/200/97
f 680/200/97 681/201/8 679/198/8
f 681/201/8 682/202/94 674/203/94
f 674/203/94 679/198/8 681/201/8
f 675/204/95 674/205/10 682/206/10
f 682/206/10 683/207/95 675/204/95
f 683/207/95 684/208/9 676/209/9
f 676/209/9 675/204/95 683/207/95
f 677/210/96 676/209/9 684/208/9
f 684/208/9 685/211/96 677/210/96
f 680/200/97 678/199/97 677/210/96
f 677/210/96 685/211/96 680/200/97
f 686/256/126 687/257/100 688/258/100
f 688/258/100 689/259/8 690/260/127
f 688/258/100 690/260/127 691/261/128
f 686/256/126 688/258/100 691/261/128
f 692/262/129 693/263/102 694/264/102
f 694/264/102 688/258/100 687/257/100
f 692/262/129 694/264/102 687/257/100
f 695/265/10 694/264/102 693/263/102
f 693/263/102 696/266/10 695/265/10
f 696/267/130 697/268/131 698/269/105
f 698/269/105 695/270/130 696/267/130
f 699/271/132 700/272/9 698/269/105
f 698/269/105 697/268/131 701/273/133
f 699/271/132 698/269/105 701/273/133
f 702/274/134 699/271/132 701/273/133
f 703/275/135 704/233/109 700/272/9
f 705/276/136 703/275/135 700/272/9
f 705/276/136 700/272/9 699/271/132
f 703/275/135 706/277/137 707/232/112
f 707/232/112 704/233/109 703/275/135
f 708/237/114 707/232/112 706/277/137
f 706/277/137 709/278/138 708/237/114
f 709/278/138 710/279/139 711/239/115
f 711/239/115 708/237/114 709/278/138
f 712/280/140 690/260/127 689/259/8
f 689/259/8 711/239/115 710/279/139
f 712/280/140 689/259/8 710/279/139
f 713/245/5 714/246/5 715/247/5
f 715/247/5 716/248/5 717/249/5
f 717/249/5 718/250/5 719/251/5
f 719/251/5 720/252/5 721/253/5
f 717/249/5 719/251/5 721/253/5
f 715/247/5 717/249/5 721/253/5
f 713/245/5 715/247/5 721/253/5
f 722/254/5 713/245/5 721/253/5
f 688/252/7 694/251/7 695/250/7
f 695/250/7 698/249/7 700/248/7
f 700/248/7 704/247/7 707/246/7
f 707/246/7 708/245/7 711/254/7
f 700/248/7 707/246/7 711/254/7
f 695/250/7 700/248/7 711/254/7
f 688/252/7 695/250/7 711/254/7
f 689/253/7 688/252/7 711/254/7
f 723/178/94 724/179/118 725/180/8
f 725/180/8 726/181/8 723/178/94
f 724/182/10 723/183/10 727/184/95
f 727/184/95 728/185/95 724/182/10
f 728/185/95 727/184/95 729/186/9
f 729/186/9 730/187/9 728/185/95
f 730/187/9 729/186/9 731/188/96
f 731/188/96 732/189/96 730/187/9
f 732/189/96 731/188/96 733/190/97
f 733/190/97 734/191/97 732/189/96
f 725/180/8 734/191/97 733/190/97
f 733/190/97 726/181/8 725/180/8
f 731/192/5 729/193/5 727/194/5
f 727/194/5 723/195/5 726/196/5
f 731/192/5 727/194/5 726/196/5
f 733/197/5 731/192/5 726/196/5
f 735/195/7 736/194/7 737/193/7
f 737/193/7 738/192/7 739/197/7
f 735/195/7 737/193/7 739/197/7
f 740/196/7 735/195/7 739/197/7
f 740/198/8 739/199/97 741/200/97
f 741/200/97 742/201/8 740/198/8
f 742/201/8 743/202/118 735/203/94
f 735/203/94 740/198/8 742/201/8
f 736/204/95 735/205/10 743/206/10
f 743/206/10 744/207/95 736/204/95
f 744/207/95 745/208/9 737/209/9
f 737/209/9 736/204/95 744/207/95
f 738/210/96 737/209/9 745/208/9
f 745/208/9 746/211/96 738/210/96
f 741/200/97 739/199/97 738/210/96
f 738/210/96 746/211/96 741/200/97
f 747/256/126 748/257/100 749/258/100
f 749/258/100 750/259/8 751/260/141
f 749/258/100 751/260/141 752/261/128
f 747/256/126 749/258/100 752/261/128
f 753/264/102 749/258/100 748/257/100
f 748/257/100 754/263/102 753/264/102
f 754/263/102 755/266/10 756/265/10
f 756/265/10 753/264/102 754/263/102
f 757/269/105 756/270/104 755/267/104
f 755/267/104 758/268/105 757/269/105
f 759/271/142 760/272/9 757/269/105
f 757/269/105 758/268/105 761/273/143
f 759/271/142 757/269/105 761/273/143
f 762/274/144 759/271/142 761/273/143
f 763/275/145 764/233/109 760/272/9
f 765/276/146 763/275/145 760/272/9
f 765/276/146 760/272/9 759/271/142
f 763/275/145 766/277/137 767/232/112
f 767/232/112 764/233/109 763/275/145
f 768/237/114 767/232/112 766/277/137
f 766/277/137 769/278/138 768/237/114
f 769/278/138 770/279/147 771/239/115
f 771/239/115 768/237/114 769/278/138
f 772/280/148 751/260/141 750/259/8
f 750/259/8 771/239/115 770/279/147
f 772/280/148 750/259/8 770/279/147
f 773/245/5 774/246/5 775/247/5
f 775/247/5 776/248/5 777/249/5
f 777/249/5 778/250/5 779/251/5
f 779/251/5 780/252/5 781/253/5
f 777/249/5 779/251/5 781/253/5
f 775/247/5 777/249/5 781/253/5
f 773/245/5 775/247/5 781/253/5
f 782/254/5 773/245/5 781/253/5
f 749/252/7 753/251/7 756/250/7
f 756/250/7 757/249/7 760/248/7
f 760/248/7 764/247/7 767/246/7
f 767/246/7 768/245/7 771/254/7
f 760/248/7 767/246/7 771/254/7
f 756/250/7 760/248/7 771/254/7
f 749/252/7 756/250/7 771/254/7
f 750/253/7 749/252/7 771/254/7
f 715/228/109 714/281/112 783/282/137
f 783/282/137 784/283/135 715/228/109
f 785/284/149 786/226/150 716/225/9
f 715/228/109 784/283/135 787/285/151
f 716/225/9 715/228/109 787/285/151
f 785/284/149 716/225/9 787/285/151
f 788/286/138 713/287/114 722/243/115
f 722/243/115 789/288/139 788/286/138
f 783/282/137 714/281/112 713/287/114
f 713/287/114 788/286/138 783/282/137
f 721/214/8 790/213/152 791/289/117
f 721/214/8 791/289/117 792/290/125
f 793/291/153 789/288/139 722/243/115
f 792/290/125 793/291/153 722/243/115
f 721/214/8 792/290/125 722/243/115
f 775/228/109 774/281/112 794/282/137
f 794/282/137 795/283/145 775/228/109
f 796/284/151 797/226/150 776/225/9
f 775/228/109 795/283/145 798/285/151
f 776/225/9 775/228/109 798/285/151
f 796/284/151 776/225/9 798/285/151
f 799/286/138 773/287/114 782/243/115
f 782/243/115 800/288/139 799/286/138
f 794/282/137 774/281/112 773/287/114
f 773/287/114 799/286/138 794/282/137
f 781/214/8 801/213/141 802/289/154
f 781/214/8 802/289/154 803/290/125
f 804/291/155 800/288/139 782/243/115
f 803/290/125 804/291/155 782/243/115
f 781/214/8 803/290/125 782/243/115
f 790/213/152 721/214/8 720/215/100
f 720/215/100 805/292/156 806/293/126
f 720/215/100 806/293/126 807/294/128
f 790/213/152 720/215/100 807/294/128
f 790/213/152 807/294/128 808/295/157
f 801/213/141 781/214/8 780/215/100
f 780/215/100 809/292/158 810/293/126
f 780/215/100 810/293/126 811/294/159
f 801/213/141 780/215/100 811/294/159
f 801/213/141 811/294/159 812/295/128
f 758/268/105 813/296/105 814/297/143
f 814/297/143 815/298/144 816/299/160
f 758/268/105 814/297/143 816/299/160
f 816/299/160 762/274/144 761/273/143
f 758/268/105 816/299/160 761/273/143
f 777/223/105 776/225/9 797/226/150
f 797/226/150 815/298/144 814/297/143
f 777/223/105 797/226/150 814/297/143
f 777/223/105 814/297/143 813/296/105
f 786/226/150 817/298/161 818/297/133
f 819/300/162 820/296/163 717/223/105
f 818/297/133 819/300/162 717/223/105
f 786/226/150 818/297/133 717/223/105
f 786/226/150 717/223/105 716/225/9
f 599/259/8 821/260/164 822/301/126
f 599/259/8 822/301/126 823/302/128
f 824/303/165 825/304/101 594/258/100
f 823/302/128 824/303/165 594/258/100
f 599/259/8 823/302/128 594/258/100
f 826/305/103 595/264/102 594/258/100
f 594/258/100 825/304/101 826/305/103
f 826/305/103 827/306/10 596/265/10
f 596/265/10 595/264/102 826/305/103
f 597/269/105 596/270/104 827/307/104
f 827/307/104 828/308/106 597/269/105
f 829/309/160 830/271/166 598/272/9
f 597/269/105 828/308/106 831/310/167
f 598/272/9 597/269/105 831/310/167
f 829/309/160 598/272/9 831/310/167
f 661/259/8 832/260/120 833/301/168
f 661/259/8 833/301/168 834/311/128
f 835/303/169 836/304/101 656/258/100
f 834/311/128 835/303/169 656/258/100
f 661/259/8 834/311/128 656/258/100
f 837/305/103 657/264/102 656/258/100
f 656/258/100 836/304/101 837/305/103
f 837/305/103 838/306/10 658/265/10
f 658/265/10 657/264/102 837/305/103
f 659/269/105 658/270/104 838/307/104
f 838/307/104 839/308/106 659/269/105
f 840/309/133 841/271/166 660/272/9
f 659/269/105 839/308/106 842/310/133
f 660/272/9 659/269/105 842/310/133
f 840/309/133 660/272/9 842/310/133
f 843/312/110 844/313/170 845/314/110
f 581/234/109 843/312/110 845/314/110
f 845/314/110 578/231/111 577/230/110
f 581/234/109 845/314/110 577/230/110
f 581/234/109 577/230/110 576/229/109
f 580/233/109 598/272/9 830/271/166
f 830/271/166 844/313/170 843/312/110
f 580/233/109 830/271/166 843/312/110
f 580/233/109 843/312/110 581/234/109
f 586/239/115 585/238/115 846/315/117
f 846/315/117 847/316/171 821/260/164
f 586/239/115 846/315/117 821/260/164
f 586/239/115 821/260/164 599/259/8
f 848/312/110 849/313/124 850/314/149
f 644/234/109 848/312/110 850/314/149
f 850/314/149 641/231/124 640/230/110
f 644/234/109 850/314/149 640/230/110
f 644/234/109 640/230/110 639/229/109
f 643/233/109 660/272/9 841/271/166
f 841/271/166 849/313/124 848/312/110
f 643/233/109 841/271/166 848/312/110
f 643/233/109 848/312/110 644/234/109
f 648/239/115 649/238/115 851/315/117
f 851/315/117 852/316/125 832/260/120
f 648/239/115 851/315/117 832/260/120
f 648/239/115 832/260/120 661/259/8
f 853/317/128 808/295/157 807/294/128
f 853/317/128 807/294/128 806/293/126
f 806/293/126 805/292/156 687/257/100
f 806/293/126 687/257/100 686/256/126
f 853/317/128 806/293/126 686/256/126
f 691/261/128 853/317/128 686/256/126
f 854/318/172 855/319/173 693/263/102
f 854/318/172 693/263/102 692/262/129
f 856/320/174 854/318/172 692/262/129
f 805/292/156 856/320/174 692/262/129
f 687/257/100 805/292/156 692/262/129
f 855/319/173 857/321/10 696/266/10
f 696/266/10 693/263/102 855/319/173
f 858/317/175 812/295/128 811/294/159
f 858/317/175 811/294/159 810/293/126
f 810/293/126 809/292/158 748/257/100
f 810/293/126 748/257/100 747/256/126
f 858/317/175 810/293/126 747/256/126
f 752/261/128 858/317/175 747/256/126
f 779/217/102 778/219/10 859/321/10
f 859/321/10 860/319/102 779/217/102
f 809/292/158 860/319/102 754/263/102
f 754/263/102 748/257/100 809/292/158
f 859/322/104 813/296/105 758/268/105
f 758/268/105 755/267/104 859/322/104
f 718/222/130 717/223/105 820/296/163
f 820/296/163 857/322/130 718/222/130
f 719/217/102 855/319/173 854/318/172
f 719/217/102 854/318/172 856/320/174
f 720/215/100 719/217/102 856/320/174
f 805/292/156 720/215/100 856/320/174
f 818/297/133 817/298/161 861/299/143
f 819/300/162 818/297/133 861/299/143
f 861/299/143 702/274/134 701/273/133
f 819/300/162 861/299/143 701/273/133
f 819/300/162 701/273/133 697/268/131
f 819/300/162 697/268/131 820/296/163
f 780/215/100 779/217/102 860/319/102
f 860/319/102 809/292/158 780/215/100
f 719/217/102 718/219/10 857/321/10
f 857/321/10 855/319/173 719/217/102
f 778/222/104 777/223/105 813/296/105
f 813/296/105 859/322/104 778/222/104
f 755/266/10 754/263/102 860/319/102
f 860/319/102 859/321/10 755/266/10
f 696/267/130 857/322/130 820/296/163
f 820/296/163 697/268/131 696/267/130
f 862/323/176 863/324/177 592/287/114
f 864/325/178 862/323/176 592/287/114
f 592/287/114 590/243/115 589/242/115
f 864/325/178 592/287/114 589/242/115
f 585/238/115 589/242/115 588/241/117
f 588/241/117 591/244/117 865/326/117
f 585/238/115 588/241/117 865/326/117
f 846/315/117 585/238/115 865/326/117
f 846/315/117 865/326/117 847/316/171
f 593/281/112 592/287/114 863/324/177
f 863/324/177 866/327/112 593/281/112
f 575/228/109 593/281/112 866/327/112
f 866/327/112 576/229/109 575/228/109
f 655/281/112 654/287/114 867/324/114
f 867/324/114 868/327/112 655/281/112
f 638/228/109 655/281/112 868/327/112
f 868/327/112 639/229/109 638/228/109
f 867/324/114 651/242/115 649/238/115
f 649/238/115 646/236/114 867/324/114
f 649/238/115 651/242/115 650/241/117
f 650/241/117 653/244/125 869/326/117
f 649/238/115 650/241/117 869/326/117
f 851/315/117 649/238/115 869/326/117
f 851/315/117 869/326/117 852/316/125
f 583/236/113 863/324/177 862/323/176
f 589/242/115 585/238/115 587/240/116
f 864/325/178 589/242/115 587/240/116
f 862/323/176 864/325/178 587/240/116
f 583/236/113 862/323/176 587/240/116
f 581/234/109 576/229/109 866/327/112
f 866/327/112 582/235/112 581/234/109
f 583/236/113 582/235/112 866/327/112
f 866/327/112 863/324/177 583/236/113
f 654/287/114 652/243/115 651/242/115
f 651/242/115 867/324/114 654/287/114
f 644/234/109 639/229/109 868/327/112
f 868/327/112 645/235/112 644/234/109
f 646/236/114 645/235/112 868/327/112
f 868/327/112 867/324/114 646/236/114
f 870/328/179 871/329/7 872/330/7
f 872/330/7 873/331/179 870/328/179
f 874/332/180 870/328/179 873/331/179
f 873/331/179 875/333/180 874/332/180
f 876/334/10 874/332/180 875/333/180
f 875/333/180 877/335/10 876/334/10
f 878/336/181 876/337/62 877/338/62
f 877/338/62 879/339/181 878/336/181
f 880/340/5 878/336/181 879/339/181
f 879/339/181 881/341/5 880/340/5
f 882/342/182 880/340/5 881/341/5
f 881/341/5 883/343/182 882/342/182
f 884/344/183 882/342/182 883/343/182
f 883/343/182 885/345/183 884/344/183
f 886/346/184 884/344/183 885/345/183
f 885/345/183 887/347/184 886/346/184
f 888/348/185 886/346/184 887/347/184
f 887/347/184 889/349/185 888/348/185
f 870/350/9 874/351/9 876/352/9
f 876/352/9 878/353/9 880/354/9
f 880/354/9 882/355/9 884/356/9
f 884/356/9 886/357/9 888/358/9
f 880/354/9 884/356/9 888/358/9
f 876/352/9 880/354/9 888/358/9
f 870/350/9 876/352/9 888/358/9
f 871/359/9 870/350/9 888/358/9
f 890/328/179 891/329/7 892/330/7
f 892/330/7 893/331/179 890/328/179
f 894/332/180 890/328/179 893/331/179
f 893/331/179 895/333/180 894/332/180
f 896/334/10 894/332/180 895/333/180
f 895/333/180 897/335/10 896/334/10
f 898/336/181 896/337/62 897/338/62
f 897/338/62 899/339/181 898/336/181
f 900/340/5 898/336/181 899/339/181
f 899/339/181 901/341/5 900/340/5
f 902/342/182 900/340/5 901/341/5
f 901/341/5 903/343/182 902/342/182
f 904/344/183 902/342/182 903/343/182
f 903/343/182 905/345/183 904/344/183
f 906/346/184 904/344/183 905/345/183
f 905/345/183 907/347/184 906/346/184
f 908/348/185 906/346/184 907/347/184
f 907/347/184 909/349/185 908/348/185
f 890/350/9 894/351/9 896/352/9
f 896/352/9 898/353/9 900/354/9
f 900/354/9 902/355/9 904/356/9
f 904/356/9 906/357/9 908/358/9
f 900/354/9 904/356/9 908/358/9
f 896/352/9 900/354/9 908/358/9
f 890/350/9 896/352/9 908/358/9
f 891/359/9 890/350/9 908/358/9
f 910/328/179 911/329/7 912/330/7
f 912/330/7 913/331/179 910/328/179
f 914/332/180 910/328/179 913/331/179
f 913/331/179 915/333/180 914/332/180
f 916/334/10 914/332/180 915/333/180
f 915/333/180 917/335/10 916/334/10
f 918/336/181 916/337/62 917/338/62
f 917/338/62 919/339/181 918/336/181
f 920/340/5 918/336/181 919/339/181
f 919/339/181 921/341/5 920/340/5
f 922/342/182 920/340/5 921/341/5
f 921/341/5 923/343/182 922/342/182
f 924/344/183 922/342/182 923/343/182
f 923/343/182 925/345/183 924/344/183
f 926/346/184 924/344/183 925/345/183
f 925/345/183 927/347/184 926/346/184
f 928/348/185 926/346/184 927/347/184
f 927/347/184 929/349/185 928/348/185
f 910/350/9 914/351/9 916/352/9
f 916/352/9 918/353/9 920/354/9
f 920/354/9 922/355/9 924/356/9
f 924/356/9 926/357/9 928/358/9
f 920/354/9 924/356/9 928/358/9
f 916/352/9 920/354/9 928/358/9
f 910/350/9 916/352/9 928/358/9
f 911/359/9 910/350/9 928/358/9
f 911/329/7 928/348/185 929/349/185
f 929/349/185 912/330/7 911/329/7
f 891/329/7 908/348/185 909/349/185
f 909/349/185 892/330/7 891/329/7
f 930/328/179 931/329/7 932/330/7
f 932/330/7 933/331/179 930/328/179
f 934/332/180 930/328/179 933/331/179
f 933/331/179 935/333/180 934/332/180
f 936/334/10 934/332/180 935/333/180
f 935/333/180 937/335/10 936/334/10
f 938/336/181 936/337/62 937/338/62
f 937/338/62 939/339/181 938/336/181
f 940/340/5 938/336/181 939/339/181
f 939/339/181 941/341/5 940/340/5
f 942/342/182 940/340/5 941/341/5
f 941/341/5 943/343/182 942/342/182
f 944/344/183 942/342/182 943/343/182
f 943/343/182 945/345/183 944/344/183
f 946/346/184 944/344/183 945/345/183
f 945/345/183 947/347/184 946/346/184
f 948/348/185 946/346/184 947/347/184
f 947/347/184 949/349/185 948/348/185
f 930/350/9 934/351/9 936/352/9
f 936/352/9 938/353/9 940/354/9
f 940/354/9 942/355/9 944/356/9
f 944/356/9 946/357/9 948/358/9
f 940/354/9 944/356/9 948/358/9
f 936/352/9 940/354/9 948/358/9
f 930/350/9 936/352/9 948/358/9
f 931/359/9 930/350/9 948/358/9
f 871/329/7 888/348/185 889/349/185
f 889/349/185 872/330/7 871/329/7
f 931/329/7 948/348/185 949/349/185
f 949/349/185 932/330/7 931/329/7
f 950/360/7 951/361/186 952/362/186
f 952/362/186 953/329/7 950/360/7
f 951/361/186 954/363/10 955/364/10
f 955/364/10 952/362/186 951/361/186
f 954/365/57 956/366/5 957/340/5
f 957/340/5 955/367/57 954/365/57
f 956/366/5 958/368/86 959/369/86
f 959/369/86 957/340/5 956/366/5
f 958/368/86 960/370/87 961/371/87
f 961/371/87 959/369/86 958/368/86
f 960/370/87 950/360/7 953/329/7
f 953/329/7 961/371/87 960/370/87
f 958/372/8 956/354/8 954/373/8
f 954/373/8 951/374/8 950/359/8
f 958/372/8 954/373/8 950/359/8
f 960/375/8 958/372/8 950/359/8
f 952/374/9 955/373/9 957/354/9
f 957/354/9 959/372/9 961/375/9
f 952/374/9 957/354/9 961/375/9
f 953/359/9 952/374/9 961/375/9
f 962/360/7 963/361/186 964/362/186
f 964/362/186 965/329/7 962/360/7
f 963/361/186 966/363/10 967/364/10
f 967/364/10 964/362/186 963/361/186
f 966/365/57 968/366/5 969/340/5
f 969/340/5 967/367/57 966/365/57
f 968/366/5 970/368/86 971/369/86
f 971/369/86 969/340/5 968/366/5
f 970/368/86 972/370/87 973/371/87
f 973/371/87 971/369/86 970/368/86
f 972/370/87 962/360/7 965/329/7
f 965/329/7 973/371/87 972/370/87
f 970/372/8 968/354/8 966/373/8
f 966/373/8 963/374/8 962/359/8
f 970/372/8 966/373/8 962/359/8
f 972/375/8 970/372/8 962/359/8
f 964/374/9 967/373/9 969/354/9
f 969/354/9 971/372/9 973/375/9
f 964/374/9 969/354/9 973/375/9
f 965/359/9 964/374/9 973/375/9
f 974/360/7 975/361/186 976/362/186
f 976/362/186 977/329/7 974/360/7
f 975/361/186 978/363/10 979/364/10
f 979/364/10 976/362/186 975/361/186
f 978/365/57 980/366/5 981/340/5
f 981/340/5 979/367/57 978/365/57
f 980/366/5 982/368/86 983/369/86
f 983/369/86 981/340/5 980/366/5
f 982/368/86 984/370/87 985/371/87
f 985/371/87 983/369/86 982/368/86
f 984/370/87 974/360/7 977/329/7
f 977/329/7 985/371/87 984/370/87
f 982/372/8 980/354/8 978/373/8
f 978/373/8 975/374/8 974/359/8
f 982/372/8 978/373/8 974/359/8
f 984/375/8 982/372/8 974/359/8
f 976/374/9 979/373/9 981/354/9
f 981/354/9 983/372/9 985/375/9
f 976/374/9 981/354/9 985/375/9
f 977/359/9 976/374/9 985/375/9
f 986/360/7 987/361/186 988/362/186
f 988/362/186 989/329/7 986/360/7
f 987/361/186 990/363/10 991/364/10
f 991/364/10 988/362/186 987/361/186
f 990/365/57 992/366/5 993/340/5
f 993/340/5 991/367/57 990/365/57
f 992/366/5 994/368/86 995/369/86
f 995/369/86 993/340/5 992/366/5
f 994/368/86 996/370/87 997/371/87
f 997/371/87 995/369/86 994/368/86
f 996/370/87 986/360/7 989/329/7
f 989/329/7 997/371/87 996/370/87
f 994/372/8 992/354/8 990/373/8
f 990/373/8 987/374/8 986/359/8
f 994/372/8 990/373/8 986/359/8
f 996/375/8 994/372/8 986/359/8
f 988/374/9 991/373/9 993/354/9
f 993/354/9 995/372/9 997/375/9
f 988/374/9 993/354/9 997/375/9
f 989/359/9 988/374/9 997/375/9
f 998/376/11 999/377/11 1000/378/11
f 1000/378/11 1001/379/11 998/376/11
f 1002/376/7 998/377/7 1001/378/7
f 1001/378/7 1003/379/7 1002/376/7
f 1004/376/10 1002/377/10 1003/378/10
f 1003/378/10 1005/379/10 1004/376/10
f 999/376/5 1004/377/5 1005/378/5
f 1005/378/5 1000/379/5 999/376/5
f 1006/376/11 1007/377/11 1008/378/11
f 1008/378/11 1009/379/11 1006/376/11
f 1010/376/7 1006/377/7 1009/378/7
f 1009/378/7 1011/379/7 1010/376/7
f 1012/376/10 1010/377/10 1011/378/10
f 1011/378/10 1013/379/10 1012/376/10
f 1007/376/5 1012/377/5 1013/378/5
f 1013/378/5 1008/379/5 1007/376/5
f 1014/377/8 1015/378/8 1016/379/8
f 1016/379/8 1017/376/8 1014/377/8
f 1018/376/9 1019/377/9 1020/378/9
f 1020/378/9 1021/379/9 1018/376/9
f 1021/376/11 1020/377/11 1016/378/11
f 1016/378/11 1015/379/11 1021/376/11
f 1018/376/7 1021/377/7 1015/378/7
f 1015/378/7 1014/379/7 1018/376/7
f 1019/376/10 1018/377/10 1014/378/10
f 1014/378/10 1017/379/10 1019/376/10
f 1020/376/5 1019/377/5 1017/378/5
f 1017/378/5 1016/379/5 1020/376/5
f 1022/380/9 1023/381/9 1024/382/9
f 1024/382/9 1025/383/9 1022/380/9
f 1026/380/187 1027/381/187 1023/382/11
f 1023/382/11 1022/383/11 1026/380/187
f 1027/380/7 1028/381/7 1024/382/7
f 1024/382/7 1023/383/7 1027/380/7
f 1028/380/188 1029/381/188 1025/382/10
f 1025/382/10 1024/383/10 1028/380/188
f 1029/380/5 1026/381/5 1022/382/5
f 1022/382/5 1025/383/5 1029/380/5
f 1028/380/188 1026/380/187 1029/381/188
f 1028/380/188 1027/381/187 1026/380/187
f 5/5/4 1030/384/3 4/1/3
f 6/7/5 1031/385/5 1/8/5
f 7/9/6 8/386/6 2/1/6
f 9/11/7 1032/384/7 3/1/7
f 14/5/4 1033/384/3 13/1/3
f 15/12/5 1034/386/5 10/1/5
f 16/9/6 17/386/6 11/1/6
f 18/15/7 1035/387/7 12/13/7
f 3/2/3 1032/388/189 5/5/4
f 4/6/5 1030/389/5 6/7/5
f 1/2/6 1031/10/6 7/9/6
f 3/1/7 2/2/7 8/10/7
f 12/2/3 1035/388/190 14/5/4
f 13/2/5 1033/388/5 15/12/5
f 10/2/6 1034/10/6 16/9/6
f 12/13/7 11/390/7 17/14/7
