# generated by tools/objdedupe/dedupe.py -- do not hand-edit.
# Re-run the tool after touching sssr_2svet_nove.obj, sssr_3svet_nove.obj, sssr_4svet_nove.obj, sssr_5svet_nove.obj, sssr_2se_nove.obj, sssr_3ab_nove.obj, sssr_4ab_nove.obj, sssr_pr_nove.obj, sssr_vl_nove.obj.
o stoz_2odj_nater
v -0.040535 0.686675 -0.000000
vt 0.062881 0.845461
vn -0.965900 -0.000000 0.258800
v -0.035105 0.868175 0.020268
vt 0.162500 0.845450
vn -0.866000 -0.000000 0.500000
v -0.040535 0.868175 -0.000000
vt 0.062881 0.845450
v -0.035105 0.686675 0.020268
vt 0.162500 0.845461
v -0.020268 0.868175 0.035105
vt 0.298273 0.845450
vn -0.500000 -0.000000 0.866000
v -0.020268 0.686675 0.035105
vt 0.298273 0.845461
v 0.000000 0.868175 0.040535
vt 0.500000 0.845450
vn -0.000000 -0.000000 1.000000
v 0.000000 0.686675 0.040535
vt 0.500000 0.845461
v 0.020268 0.868175 0.035105
vt 0.701727 0.845450
vn 0.500000 -0.000000 0.866000
v 0.020268 0.686675 0.035105
vt 0.701727 0.845461
v 0.035105 0.868175 0.020268
vt 0.837500 0.845450
vn 0.866000 -0.000000 0.500000
v 0.035105 0.686675 0.020268
vt 0.837500 0.845461
v 0.040535 0.868175 -0.000000
vt 0.937119 0.845450
vn 0.965900 -0.000000 0.258800
v 0.040535 0.686675 -0.000000
vt 0.937119 0.845461
v -0.035105 1.049675 0.020268
v -0.040535 1.049675 -0.000000
v -0.020268 1.049675 0.035105
v 0.000000 1.049675 0.040535
v 0.020268 1.049675 0.035105
v 0.035105 1.049675 0.020268
v 0.040535 1.049675 -0.000000
vt 1.000288 0.693083
v -0.035105 1.231175 0.020268
vt 0.834129 0.572000
v -0.040535 1.231175 -0.000000
vt 1.000288 0.572000
vt 0.834129 0.693083
v -0.020268 1.231175 0.035105
vt 0.667971 0.572000
vt 0.667971 0.693083
v 0.000000 1.231175 0.040535
vt 0.501813 0.572000
vt 0.501813 0.693083
v 0.020268 1.231175 0.035105
vt 0.335654 0.572000
vt 0.335654 0.693083
v 0.035105 1.231175 0.020268
vt 0.169497 0.572000
vt 0.169497 0.693083
v 0.040535 1.231175 -0.000000
vt 0.003338 0.572000
vt 0.003338 0.693083
vt 0.062881 0.991702
v -0.035105 1.412675 0.020268
vt 0.162500 0.705919
v -0.040535 1.412675 -0.000000
vt 0.062881 0.705919
vt 0.162500 0.991702
v -0.020268 1.412675 0.035105
vt 0.298273 0.705919
vt 0.298273 0.991702
v 0.000000 1.412675 0.040535
vt 0.500000 0.705919
vt 0.500000 0.991702
v 0.020268 1.412675 0.035105
vt 0.701727 0.705919
vt 0.701727 0.991702
v 0.035105 1.412675 0.020268
vt 0.837500 0.705919
vt 0.837500 0.991702
v 0.040535 1.412675 -0.000000
vt 0.937119 0.705919
vt 0.937119 0.991702
v -0.035105 1.594175 0.020268
vt 0.162500 0.991768
v -0.040535 1.594175 -0.000000
vt 0.062881 0.991768
v -0.020268 1.594175 0.035105
vt 0.298273 0.991768
v 0.000000 1.594175 0.040535
vt 0.500000 0.991768
v 0.020268 1.594175 0.035105
vt 0.701727 0.991768
v 0.035105 1.594175 0.020268
vt 0.837500 0.991768
v 0.040535 1.594175 -0.000000
vt 0.937119 0.991768
vt 0.003338 0.329590
v -0.035105 1.775675 0.020268
vt 0.169496 0.450674
v -0.040535 1.775675 -0.000000
vt 0.003338 0.450674
vt 0.169496 0.329590
v -0.020268 1.775675 0.035105
vt 0.335654 0.450674
vt 0.335654 0.329590
v 0.000000 1.775675 0.040535
vt 0.501812 0.450674
vt 0.501812 0.329590
v 0.020268 1.775675 0.035105
vt 0.667970 0.450674
vt 0.667971 0.329590
v 0.035105 1.775675 0.020268
vt 0.834128 0.450674
vt 0.834129 0.329590
v 0.040535 1.775675 -0.000000
vt 1.000287 0.450674
vt 1.000287 0.329590
vt 0.062881 0.987434
v -0.035105 1.957175 0.020268
vt 0.162500 0.706245
v -0.040535 1.957175 -0.000000
vt 0.062881 0.706245
vt 0.162500 0.987434
v -0.020268 1.957175 0.035105
vt 0.298273 0.706245
vt 0.298273 0.987434
v 0.000000 1.957175 0.040535
vt 0.500000 0.706245
vt 0.500000 0.987434
v 0.020268 1.957175 0.035105
vt 0.701727 0.706245
vt 0.701727 0.987434
v 0.035105 1.957175 0.020268
vt 0.837500 0.706245
vt 0.837500 0.987434
v 0.040535 1.957175 -0.000000
vt 0.937119 0.706245
vt 0.937119 0.987434
v -0.035105 2.138675 0.020268
vt 0.162500 0.990653
v -0.040535 2.138675 -0.000000
vt 0.062881 0.990653
v -0.020268 2.138675 0.035105
vt 0.298273 0.990653
v 0.000000 2.138675 0.040535
vt 0.500000 0.990653
v 0.020268 2.138675 0.035105
vt 0.701727 0.990653
v 0.035105 2.138675 0.020268
vt 0.837500 0.990653
v 0.040535 2.138675 -0.000000
vt 0.937119 0.990653
vt 1.000287 0.571879
v -0.035105 2.320175 0.020268
vt 0.834129 0.450795
v -0.040535 2.320175 -0.000000
vt 1.000288 0.450795
vt 0.834129 0.571879
v -0.020268 2.320175 0.035105
vt 0.667970 0.450795
vt 0.667971 0.571879
v 0.000000 2.320175 0.040535
vt 0.501812 0.450795
vt 0.501812 0.571879
v 0.020268 2.320175 0.035105
vt 0.335653 0.450795
vt 0.335653 0.571879
v 0.035105 2.320175 0.020268
vt 0.169495 0.450795
vt 0.169495 0.571879
v 0.040535 2.320175 -0.000000
vt 0.003337 0.450795
vt 0.003337 0.571879
vt 0.062881 0.988730
v -0.035105 2.501675 0.020268
vt 0.162500 0.706917
v -0.040535 2.501675 -0.000000
vt 0.062881 0.706917
vt 0.162500 0.988730
v -0.020268 2.501675 0.035105
vt 0.298273 0.706917
vt 0.298273 0.988730
v 0.000000 2.501675 0.040535
vt 0.500000 0.706917
vt 0.500000 0.988730
v 0.020268 2.501675 0.035105
vt 0.701727 0.706917
vt 0.701727 0.988730
v 0.035105 2.501675 0.020268
vt 0.837500 0.706917
vt 0.837500 0.988730
v 0.040535 2.501675 -0.000000
vt 0.937119 0.706917
vt 0.937119 0.988730
v -0.035105 2.683175 0.020268
vt 0.162500 0.988347
v -0.040535 2.683175 -0.000000
vt 0.062881 0.988347
v -0.020268 2.683175 0.035105
vt 0.298273 0.988347
v 0.000000 2.683175 0.040535
vt 0.500000 0.988347
v 0.020268 2.683175 0.035105
vt 0.701727 0.988347
v 0.035105 2.683175 0.020268
vt 0.837500 0.988347
v 0.040535 2.683175 -0.000000
vt 0.937119 0.988347
f 1/1/1 2/2/2 3/3/1
f 1/1/1 4/4/2 2/2/2
f 4/4/2 5/5/3 2/2/2
f 4/4/2 6/6/3 5/5/3
f 6/6/3 7/7/4 5/5/3
f 6/6/3 8/8/4 7/7/4
f 8/8/4 9/9/5 7/7/4
f 8/8/4 10/10/5 9/9/5
f 10/10/5 11/11/6 9/9/5
f 10/10/5 12/12/6 11/11/6
f 12/12/6 13/13/7 11/11/6
f 12/12/6 14/14/7 13/13/7
f 3/1/1 15/2/2 16/3/1
f 3/1/1 2/4/2 15/2/2
f 2/4/2 17/5/3 15/2/2
f 2/4/2 5/6/3 17/5/3
f 5/6/3 18/7/4 17/5/3
f 5/6/3 7/8/4 18/7/4
f 7/8/4 19/9/5 18/7/4
f 7/8/4 9/10/5 19/9/5
f 9/10/5 20/11/6 19/9/5
f 9/10/5 11/12/6 20/11/6
f 11/12/6 21/13/7 20/11/6
f 11/12/6 13/14/7 21/13/7
f 16/15/1 22/16/2 23/17/1
f 16/15/1 15/18/2 22/16/2
f 15/18/2 24/19/3 22/16/2
f 15/18/2 17/20/3 24/19/3
f 17/20/3 25/21/4 24/19/3
f 17/20/3 18/22/4 25/21/4
f 18/22/4 26/23/5 25/21/4
f 18/22/4 19/24/5 26/23/5
f 19/24/5 27/25/6 26/23/5
f 19/24/5 20/26/6 27/25/6
f 20/26/6 28/27/7 27/25/6
f 20/26/6 21/28/7 28/27/7
f 23/29/1 29/30/2 30/31/1
f 23/29/1 22/32/2 29/30/2
f 22/32/2 31/33/3 29/30/2
f 22/32/2 24/34/3 31/33/3
f 24/34/3 32/35/4 31/33/3
f 24/34/3 25/36/4 32/35/4
f 25/36/4 33/37/5 32/35/4
f 25/36/4 26/38/5 33/37/5
f 26/38/5 34/39/6 33/37/5
f 26/38/5 27/40/6 34/39/6
f 27/40/6 35/41/7 34/39/6
f 27/40/6 28/42/7 35/41/7
f 30/31/1 36/43/2 37/44/1
f 30/31/1 29/30/2 36/43/2
f 29/30/2 38/45/3 36/43/2
f 29/30/2 31/33/3 38/45/3
f 31/33/3 39/46/4 38/45/3
f 31/33/3 32/35/4 39/46/4
f 32/35/4 40/47/5 39/46/4
f 32/35/4 33/37/5 40/47/5
f 33/37/5 41/48/6 40/47/5
f 33/37/5 34/39/6 41/48/6
f 34/39/6 42/49/7 41/48/6
f 34/39/6 35/41/7 42/49/7
f 37/50/1 43/51/2 44/52/1
f 37/50/1 36/53/2 43/51/2
f 36/53/2 45/54/3 43/51/2
f 36/53/2 38/55/3 45/54/3
f 38/55/3 46/56/4 45/54/3
f 38/55/3 39/57/4 46/56/4
f 39/57/4 47/58/5 46/56/4
f 39/57/4 40/59/5 47/58/5
f 40/59/5 48/60/6 47/58/5
f 40/59/5 41/61/6 48/60/6
f 41/61/6 49/62/7 48/60/6
f 41/61/6 42/63/7 49/62/7
f 44/64/1 50/65/2 51/66/1
f 44/64/1 43/67/2 50/65/2
f 43/67/2 52/68/3 50/65/2
f 43/67/2 45/69/3 52/68/3
f 45/69/3 53/70/4 52/68/3
f 45/69/3 46/71/4 53/70/4
f 46/71/4 54/72/5 53/70/4
f 46/71/4 47/73/5 54/72/5
f 47/73/5 55/74/6 54/72/5
f 47/73/5 48/75/6 55/74/6
f 48/75/6 56/76/7 55/74/6
f 48/75/6 49/77/7 56/76/7
f 51/66/1 57/78/2 58/79/1
f 51/66/1 50/65/2 57/78/2
f 50/65/2 59/80/3 57/78/2
f 50/65/2 52/68/3 59/80/3
f 52/68/3 60/81/4 59/80/3
f 52/68/3 53/70/4 60/81/4
f 53/70/4 61/82/5 60/81/4
f 53/70/4 54/72/5 61/82/5
f 54/72/5 62/83/6 61/82/5
f 54/72/5 55/74/6 62/83/6
f 55/74/6 63/84/7 62/83/6
f 55/74/6 56/76/7 63/84/7
f 58/85/1 64/86/2 65/87/1
f 58/85/1 57/88/2 64/86/2
f 57/88/2 66/89/3 64/86/2
f 57/88/2 59/90/3 66/89/3
f 59/90/3 67/91/4 66/89/3
f 59/90/3 60/92/4 67/91/4
f 60/92/4 68/93/5 67/91/4
f 60/92/4 61/94/5 68/93/5
f 61/94/5 69/95/6 68/93/5
f 61/94/5 62/96/6 69/95/6
f 62/96/6 70/97/7 69/95/6
f 62/96/6 63/98/7 70/97/7
f 65/99/1 71/100/2 72/101/1
f 65/99/1 64/102/2 71/100/2
f 64/102/2 73/103/3 71/100/2
f 64/102/2 66/104/3 73/103/3
f 66/104/3 74/105/4 73/103/3
f 66/104/3 67/106/4 74/105/4
f 67/106/4 75/107/5 74/105/4
f 67/106/4 68/108/5 75/107/5
f 68/108/5 76/109/6 75/107/5
f 68/108/5 69/110/6 76/109/6
f 69/110/6 77/111/7 76/109/6
f 69/110/6 70/112/7 77/111/7
f 72/101/1 78/113/2 79/114/1
f 72/101/1 71/100/2 78/113/2
f 71/100/2 80/115/3 78/113/2
f 71/100/2 73/103/3 80/115/3
f 73/103/3 81/116/4 80/115/3
f 73/103/3 74/105/4 81/116/4
f 74/105/4 82/117/5 81/116/4
f 74/105/4 75/107/5 82/117/5
f 75/107/5 83/118/6 82/117/5
f 75/107/5 76/109/6 83/118/6
f 76/109/6 84/119/7 83/118/6
f 76/109/6 77/111/7 84/119/7
