# generated by tools/objdedupe/dedupe.py -- do not hand-edit.
# Re-run the tool after touching sssr_2svet_nove.obj, sssr_3svet_nove.obj, sssr_4svet_nove.obj, sssr_5svet_nove.obj, sssr_2se_nove.obj, sssr_3ab_nove.obj, sssr_4ab_nove.obj, sssr_pr_nove.obj, sssr_vl_nove.obj.
o stoz_zaklad
v -0.090750 1.156492 -0.199094
vt 0.794285 0.496512
vn -0.000000 0.994300 0.106200
v -0.084700 1.156492 -0.199094
vt 0.931546 0.496512
v -0.084700 1.159706 -0.229173
vt 0.931546 0.006378
vn -0.000000 0.994300 0.106300
v -0.090750 1.159706 -0.229173
vt 0.794285 0.006378
vn -0.000000 0.106300 -0.994300
v -0.085566 -0.000000 -0.353110
vt 0.922681 0.076568
vt 0.996710 0.496678
vn -1.000000 -0.000000 -0.000000
v -0.090750 -0.000000 -0.348743
vt 0.989419 0.071723
vt 0.937772 0.495768
vn -0.000000 -0.106300 0.994300
v -0.089869 -0.000000 -0.322687
vt 0.922534 0.077732
vn 1.000000 -0.000000 -0.000000
v -0.084700 -0.000000 -0.322687
vt 0.931546 0.077732
vn 0.583200 -0.604200 0.543000
v -0.084700 -0.000000 -0.327106
vt 0.922555 0.077563
v 0.084700 1.156492 -0.199094
v 0.090750 1.156492 -0.199094
v 0.090750 1.159706 -0.229173
v 0.084700 1.159706 -0.229173
v 0.089884 -0.000000 -0.353110
v 0.084700 -0.000000 -0.348743
vt 0.922660 0.076735
vn -0.707100 -0.707100 -0.000000
v 0.085581 -0.000000 -0.322687
vt 0.996237 0.499013
v 0.090750 -0.000000 -0.322687
vt 0.935892 0.077150
v 0.090750 -0.000000 -0.327106
vt 0.944656 0.076980
vn 0.707100 -0.707100 -0.000000
v 0.060500 1.376073 -0.002945
vn -0.000000 -1.000000 -0.000000
v 0.060500 1.376073 0.003105
v -0.060500 1.376073 0.003105
v -0.060500 1.376073 -0.002945
v 0.060500 1.406323 -0.002945
vn -0.000000 1.000000 -0.000000
v -0.060500 1.406323 -0.002945
v -0.060500 1.406323 0.003105
v 0.060500 1.406323 0.003105
vn -0.000000 -0.000000 -1.000000
vn -0.000000 -0.000000 1.000000
v -0.090613 1.376073 -0.176958
v -0.084609 1.376073 -0.177695
v -0.052167 1.376073 -0.001275
v -0.058172 1.376073 -0.000538
v -0.090613 1.406323 -0.176957
v -0.058172 1.406323 -0.000538
v -0.052167 1.406323 -0.001275
v -0.084609 1.406323 -0.177695
vn -0.983500 -0.000000 0.180900
vn 0.983500 -0.000000 -0.180900
v 0.084608 1.376073 -0.177695
v 0.090613 1.376073 -0.176958
v 0.058171 1.376073 -0.000538
v 0.052167 1.376073 -0.001275
v 0.084608 1.406323 -0.177695
v 0.052167 1.406323 -0.001275
v 0.058171 1.406323 -0.000538
v 0.090613 1.406323 -0.176958
vn -0.983500 -0.000000 -0.180900
vn 0.983500 -0.000000 0.180900
v -0.084700 1.159576 -0.229168
vn -0.000000 -0.994300 -0.106300
v -0.084700 1.156362 -0.199089
vn -0.000000 -0.994300 -0.106200
v -0.090750 1.156362 -0.199089
v -0.090750 1.159576 -0.229168
v -0.084700 2.623577 -0.072866
v -0.090750 2.623577 -0.072866
v -0.090750 2.623577 -0.042787
v -0.084700 2.623577 -0.042787
vn -0.000000 0.106200 -0.994300
vn -0.000000 -0.105900 0.994400
v 0.090750 1.159576 -0.229168
v 0.090750 1.156362 -0.199089
v 0.084700 1.156362 -0.199089
v 0.084700 1.159576 -0.229168
v 0.090750 2.623577 -0.072866
v 0.084700 2.623577 -0.072866
v 0.084700 2.623577 -0.042787
v 0.090750 2.623577 -0.042787
v -0.047190 2.593320 0.000080
vn -0.965900 -0.000000 0.258800
v -0.040868 2.593320 0.023675
v -0.040868 2.623569 0.023675
v -0.047190 2.623569 0.000080
vn -0.707100 -0.000000 0.707100
v -0.023595 2.593320 0.040948
v -0.023595 2.623569 0.040948
vn -0.258800 -0.000000 0.965900
v 0.000000 2.593320 0.047270
v 0.000000 2.623569 0.047270
vn 0.258800 -0.000000 0.965900
v 0.023595 2.593320 0.040948
v 0.023595 2.623569 0.040948
vn 0.707100 -0.000000 0.707100
v 0.040868 2.593320 0.023675
v 0.040868 2.623569 0.023675
vn 0.965900 -0.000000 0.258800
v 0.047190 2.593320 0.000080
v 0.047190 2.623569 0.000080
vn 0.965900 -0.000000 -0.258800
v 0.040868 2.593320 -0.023515
v 0.040868 2.623570 -0.023515
vn 0.707100 -0.000000 -0.707100
v 0.023595 2.593320 -0.040788
v 0.023595 2.623569 -0.040788
vn 0.258800 -0.000000 -0.965900
v 0.000000 2.593320 -0.047110
v 0.000000 2.623569 -0.047110
vn -0.258800 -0.000000 -0.965900
v -0.023595 2.593320 -0.040788
v -0.023595 2.623569 -0.040788
vn -0.707100 -0.000000 -0.707100
v -0.040868 2.593320 -0.023515
v -0.040868 2.623570 -0.023515
vn -0.965900 -0.000000 -0.258800
vt 0.895048 0.347574
vt 0.909590 0.347574
vt 0.922184 0.354846
vt 0.929455 0.367440
vt 0.929455 0.381982
vt 0.922184 0.394576
vt 0.909590 0.401847
vt 0.895048 0.401847
vt 0.807096 0.394576
vt 0.799825 0.381982
vt 0.799825 0.367440
vt 0.807096 0.354846
vn 0.000100 1.000000 -0.000000
vn -0.000000 1.000000 -0.000100
vn -0.000100 1.000000 -0.000000
v -0.047190 1.376073 0.000080
v -0.040868 1.376073 0.023675
v -0.040868 1.406323 0.023675
v -0.047190 1.406323 0.000080
v -0.023595 1.376073 0.040948
v -0.023595 1.406323 0.040948
v 0.000000 1.376073 0.047270
v 0.000000 1.406323 0.047270
v 0.023595 1.376073 0.040948
v 0.023595 1.406323 0.040948
v 0.040868 1.376073 0.023675
v 0.040868 1.406323 0.023675
v 0.047190 1.376073 0.000080
v 0.047190 1.406323 0.000080
v 0.040868 1.376073 -0.023515
v 0.040868 1.406323 -0.023515
v 0.023595 1.376073 -0.040788
v 0.023595 1.406323 -0.040788
v 0.000000 1.376073 -0.047110
v 0.000000 1.406323 -0.047110
v -0.023595 1.376073 -0.040788
v -0.023595 1.406323 -0.040788
v -0.040868 1.376073 -0.023515
v -0.040868 1.406323 -0.023515
v -0.080189 2.593333 -0.028568
vt 0.927749 0.398062
v -0.085639 2.593333 -0.025943
vt 0.798547 0.398062
v -0.090706 2.593333 -0.048145
vt 0.798547 0.291566
v -0.084656 2.593333 -0.048145
vt 0.927749 0.304157
v -0.067669 2.593333 -0.012868
v -0.071441 2.593333 -0.008138
vn -0.000000 -1.000000 -0.000100
v -0.049577 2.593333 -0.004156
v -0.050923 2.593333 0.001742
vn -0.000000 -1.000000 0.000100
v 0.049577 2.593333 -0.004156
v 0.050923 2.593333 0.001742
vt 0.927749 0.294381
v 0.067669 2.593333 -0.012868
v 0.071441 2.593333 -0.008138
v 0.080189 2.593333 -0.028568
v 0.085639 2.593333 -0.025943
v 0.084656 2.593333 -0.048145
v 0.090706 2.593333 -0.048145
v -0.080189 2.623582 -0.028568
v -0.084656 2.623582 -0.048145
vt 0.804913 0.398062
v -0.090706 2.623582 -0.048145
v -0.085639 2.623582 -0.025943
vt 0.927749 0.291566
v -0.067669 2.623582 -0.012868
v -0.071441 2.623582 -0.008138
v -0.049577 2.623582 -0.004156
v -0.050923 2.623582 0.001742
v 0.049577 2.623582 -0.004156
vt 0.799970 0.398062
v 0.050923 2.623582 0.001742
v 0.067669 2.623582 -0.012868
v 0.071441 2.623582 -0.008138
v 0.080189 2.623582 -0.028568
v 0.085639 2.623582 -0.025943
v 0.084656 2.623582 -0.048145
v 0.090706 2.623582 -0.048145
vn -0.974900 -0.000000 0.222500
vn -0.781900 -0.000000 0.623500
vn -0.433800 -0.000000 0.901000
vn -0.433900 -0.000000 0.901000
vn 0.433800 -0.000000 0.901000
vn 0.433900 -0.000000 0.901000
vn 0.781900 -0.000000 0.623500
vn 0.974900 -0.000000 0.222500
vn -0.974900 -0.000000 -0.222500
vn -0.781800 -0.000000 -0.623500
vn -0.433900 -0.000000 -0.901000
vn 0.433900 -0.000000 -0.901000
vn 0.781800 -0.000000 -0.623500
vn 0.974900 -0.000000 -0.222500
v 0.087725 0.272303 -0.312056
v 0.087725 0.271660 -0.306040
v -0.087725 0.271660 -0.306040
v -0.087725 0.272303 -0.312056
v 0.087725 0.284335 -0.310770
v -0.087725 0.284335 -0.310770
v -0.087725 0.283692 -0.304754
v 0.087725 0.283692 -0.304754
v 0.087725 0.484053 -0.289308
v 0.087725 0.483410 -0.283292
v -0.087725 0.483410 -0.283292
v -0.087725 0.484053 -0.289308
v 0.087725 0.496085 -0.288022
v -0.087725 0.496085 -0.288022
v -0.087725 0.495442 -0.282006
v 0.087725 0.495442 -0.282006
v 0.087725 0.695803 -0.266560
v 0.087725 0.695160 -0.260544
v -0.087725 0.695160 -0.260544
v -0.087725 0.695803 -0.266560
v 0.087725 0.707835 -0.265274
v -0.087725 0.707835 -0.265274
v -0.087725 0.707192 -0.259258
v 0.087725 0.707192 -0.259258
v 0.087725 0.907553 -0.243812
v 0.087725 0.906910 -0.237796
v -0.087725 0.906910 -0.237796
v -0.087725 0.907553 -0.243812
v 0.087725 0.919585 -0.242526
v -0.087725 0.919585 -0.242526
v -0.087725 0.918942 -0.236510
v 0.087725 0.918942 -0.236510
v 0.087725 1.119303 -0.221064
v 0.087725 1.118660 -0.215048
v -0.087725 1.118660 -0.215048
v -0.087725 1.119303 -0.221064
v 0.087725 1.131335 -0.219778
v -0.087725 1.131335 -0.219778
v -0.087725 1.130692 -0.213762
v 0.087725 1.130692 -0.213762
v 0.087725 1.331053 -0.198316
v 0.087725 1.330410 -0.192300
v -0.087725 1.330410 -0.192300
v -0.087725 1.331053 -0.198316
v 0.087725 1.343085 -0.197030
v -0.087725 1.343085 -0.197030
v -0.087725 1.342442 -0.191014
v 0.087725 1.342442 -0.191014
v 0.087725 1.542803 -0.175568
v 0.087725 1.542160 -0.169552
v -0.087725 1.542160 -0.169552
v -0.087725 1.542803 -0.175568
v 0.087725 1.554835 -0.174282
v -0.087725 1.554835 -0.174282
v -0.087725 1.554192 -0.168266
v 0.087725 1.554192 -0.168266
v 0.087725 1.754553 -0.152820
v 0.087725 1.753910 -0.146804
v -0.087725 1.753910 -0.146804
v -0.087725 1.754553 -0.152820
v 0.087725 1.766584 -0.151534
vn -0.000000 0.994400 0.106100
v -0.087725 1.766584 -0.151534
v -0.087725 1.765942 -0.145518
v 0.087725 1.765942 -0.145518
v 0.087725 1.966303 -0.130072
v 0.087725 1.965660 -0.124056
v -0.087725 1.965660 -0.124056
v -0.087725 1.966303 -0.130072
v 0.087725 1.978334 -0.128786
v -0.087725 1.978334 -0.128786
v -0.087725 1.977692 -0.122770
v 0.087725 1.977692 -0.122770
v 0.087725 2.178053 -0.107324
v 0.087725 2.177410 -0.101308
v -0.087725 2.177410 -0.101308
v -0.087725 2.178053 -0.107324
v 0.087725 2.190084 -0.106038
v -0.087725 2.190084 -0.106038
v -0.087725 2.189442 -0.100022
v 0.087725 2.189442 -0.100022
v 0.087725 2.389803 -0.084576
v 0.087725 2.389160 -0.078560
v -0.087725 2.389160 -0.078560
v -0.087725 2.389803 -0.084576
v 0.087725 2.401834 -0.083290
v -0.087725 2.401834 -0.083290
v -0.087725 2.401192 -0.077274
v 0.087725 2.401192 -0.077274
v -0.102850 0.036300 0.175450
vt 0.000000 0.000000
vn -0.000000 0.800000 0.600000
v -0.090750 0.036300 0.175450
vt 1.000000 0.000000
v -0.090750 0.054450 0.151250
vt 1.000000 1.000000
v -0.102850 0.054450 0.151250
vt 0.000000 1.000000
v -0.102850 0.054450 -0.151250
vn -0.000000 0.800000 -0.600000
v -0.090750 0.054450 -0.151250
v -0.090750 0.036300 -0.175450
v -0.102850 0.036300 -0.175450
v -0.102850 0.018150 0.193600
vt 0.710457 0.823482
vn -0.000000 0.707100 0.707100
v -0.090750 0.018150 0.193600
vt 0.861514 0.823482
vt 0.866433 0.892552
vt 0.715376 0.892552
v -0.090750 0.018150 0.151250
v -0.090750 0.018150 -0.151250
v -0.090750 0.018150 -0.193600
vn -0.000000 0.707100 -0.707100
v -0.102850 0.018150 -0.193600
v -0.102850 0.018150 -0.151250
v -0.102850 0.018150 0.151250
v 0.090750 0.036300 0.175450
v 0.102850 0.036300 0.175450
v 0.102850 0.054450 0.151250
v 0.090750 0.054450 0.151250
v 0.090750 0.054450 -0.151250
v 0.102850 0.054450 -0.151250
v 0.102850 0.036300 -0.175450
v 0.090750 0.036300 -0.175450
v 0.090750 0.018150 0.193600
v 0.102850 0.018150 0.193600
v 0.102850 0.018150 0.151250
v 0.102850 0.018150 -0.151250
v 0.102850 0.018150 -0.193600
v 0.090750 0.018150 -0.193600
v 0.090750 0.018150 -0.151250
v 0.090750 0.018150 0.151250
v -0.111925 0.018150 -0.175450
vn 0.866000 -0.000000 -0.500000
v -0.119488 0.042350 -0.188549
v -0.111925 0.042350 -0.175450
v -0.119488 0.018150 -0.188549
v -0.134613 0.042350 -0.188549
v -0.134613 0.018150 -0.188549
vn -0.866000 -0.000000 -0.500000
v -0.142175 0.042350 -0.175450
v -0.142175 0.018150 -0.175450
vn -0.866000 -0.000000 0.500000
v -0.134613 0.042350 -0.162351
v -0.134613 0.018150 -0.162351
v -0.119488 0.042350 -0.162351
v -0.119488 0.018150 -0.162351
vn 0.866000 -0.000000 0.500000
v -0.127050 0.042350 -0.175450
v 0.142175 0.018150 -0.175450
v 0.134613 0.042350 -0.188549
v 0.142175 0.042350 -0.175450
v 0.134613 0.018150 -0.188549
v 0.119488 0.042350 -0.188549
v 0.119488 0.018150 -0.188549
v 0.111925 0.042350 -0.175450
v 0.111925 0.018150 -0.175450
v 0.119488 0.042350 -0.162351
v 0.119488 0.018150 -0.162351
v 0.134613 0.042350 -0.162351
v 0.134613 0.018150 -0.162351
v 0.127050 0.042350 -0.175450
v -0.111925 0.018150 0.175450
v -0.119488 0.042350 0.162351
v -0.111925 0.042350 0.175450
v -0.119488 0.018150 0.162351
v -0.134613 0.042350 0.162351
v -0.134613 0.018150 0.162351
v -0.142175 0.042350 0.175450
v -0.142175 0.018150 0.175450
v -0.134613 0.042350 0.188549
v -0.134613 0.018150 0.188549
v -0.119488 0.042350 0.188549
v -0.119488 0.018150 0.188549
v -0.127050 0.042350 0.175450
v 0.142175 0.018150 0.175450
v 0.134613 0.042350 0.162351
v 0.142175 0.042350 0.175450
v 0.134613 0.018150 0.162351
v 0.119488 0.042350 0.162351
v 0.119488 0.018150 0.162351
v 0.111925 0.042350 0.175450
v 0.111925 0.018150 0.175450
v 0.119488 0.042350 0.188549
v 0.119488 0.018150 0.188549
v 0.134613 0.042350 0.188549
v 0.134613 0.018150 0.188549
v 0.127050 0.042350 0.175450
v -0.120526 0.054450 -0.180190
vn 0.951000 -0.000000 -0.309200
v -0.118985 0.054450 -0.175450
v -0.118985 0.042350 -0.175450
v -0.120526 0.042350 -0.180190
v -0.124558 0.054450 -0.183120
vn 0.587900 -0.000000 -0.809000
v -0.124558 0.042350 -0.183120
v -0.129542 0.054450 -0.183120
v -0.129542 0.042350 -0.183120
v -0.133574 0.054450 -0.180190
vn -0.587900 -0.000000 -0.809000
v -0.133574 0.042350 -0.180190
v -0.135115 0.054450 -0.175450
vn -0.951000 -0.000000 -0.309200
v -0.135115 0.042350 -0.175450
v -0.133574 0.054450 -0.170710
vn -0.951000 -0.000000 0.309200
v -0.133574 0.042350 -0.170710
v -0.129542 0.054450 -0.167780
vn -0.587900 -0.000000 0.809000
v -0.129542 0.042350 -0.167780
v -0.124558 0.054450 -0.167780
v -0.124558 0.042350 -0.167780
v -0.120526 0.054450 -0.170710
vn 0.587900 -0.000000 0.809000
v -0.120526 0.042350 -0.170710
v 0.133574 0.054450 -0.180190
v 0.135115 0.054450 -0.175450
v 0.135115 0.042350 -0.175450
v 0.133574 0.042350 -0.180190
v 0.129542 0.054450 -0.183120
v 0.129542 0.042350 -0.183120
v 0.124558 0.054450 -0.183120
v 0.124558 0.042350 -0.183120
v 0.120526 0.054450 -0.180190
v 0.120526 0.042350 -0.180190
v 0.118985 0.054450 -0.175450
v 0.118985 0.042350 -0.175450
v 0.120526 0.054450 -0.170710
v 0.120526 0.042350 -0.170710
v 0.124558 0.054450 -0.167780
v 0.124558 0.042350 -0.167780
v 0.129542 0.054450 -0.167780
v 0.129542 0.042350 -0.167780
v 0.133574 0.054450 -0.170710
v 0.133574 0.042350 -0.170710
v -0.120526 0.054450 0.170710
v -0.118985 0.054450 0.175450
v -0.118985 0.042350 0.175450
v -0.120526 0.042350 0.170710
v -0.124558 0.054450 0.167780
v -0.124558 0.042350 0.167780
v -0.129542 0.054450 0.167780
v -0.129542 0.042350 0.167780
v -0.133574 0.054450 0.170710
v -0.133574 0.042350 0.170710
v -0.135115 0.054450 0.175450
v -0.135115 0.042350 0.175450
v -0.133574 0.054450 0.180190
v -0.133574 0.042350 0.180190
v -0.129542 0.054450 0.183120
v -0.129542 0.042350 0.183120
v -0.124558 0.054450 0.183120
v -0.124558 0.042350 0.183120
v -0.120526 0.054450 0.180190
v -0.120526 0.042350 0.180190
v 0.133574 0.054450 0.170710
v 0.135115 0.054450 0.175450
v 0.135115 0.042350 0.175450
v 0.133574 0.042350 0.170710
v 0.129542 0.054450 0.167780
v 0.129542 0.042350 0.167780
v 0.124558 0.054450 0.167780
v 0.124558 0.042350 0.167780
v 0.120526 0.054450 0.170710
v 0.120526 0.042350 0.170710
v 0.118985 0.054450 0.175450
v 0.118985 0.042350 0.175450
v 0.120526 0.054450 0.180190
v 0.120526 0.042350 0.180190
v 0.124558 0.054450 0.183120
v 0.124558 0.042350 0.183120
v 0.129542 0.054450 0.183120
v 0.129542 0.042350 0.183120
v 0.133574 0.054450 0.180190
v 0.133574 0.042350 0.180190
vn 0.951000 -0.000000 0.309200
v -0.151250 0.018150 0.151250
vt 0.500198 0.505327
v 0.151250 0.018150 0.151250
vt 1.000000 0.505327
v 0.151250 0.369050 0.151250
vt 1.000000 0.958432
v -0.151250 0.369050 0.151250
vt 0.500198 0.958432
v 0.151250 0.018150 -0.151250
v 0.151250 0.369050 -0.151250
v -0.151250 0.018150 -0.151250
v -0.151250 0.369050 -0.151250
v -0.130075 0.393250 0.130075
vt 0.601336 0.585927
v 0.130075 0.393250 0.130075
vt 0.900388 0.585927
v 0.130075 0.393250 -0.130075
vt 0.900388 0.884979
v -0.130075 0.393250 -0.130075
vt 0.601336 0.884979
vt 0.500355 0.951937
vn -0.000000 0.447200 0.894400
vt 0.998965 0.954578
v 0.145200 0.381150 0.145200
vt 0.995487 0.924293
vn -0.000000 0.562900 0.826500
v -0.145200 0.381150 0.145200
vt 0.506621 0.926249
vn -0.000000 0.563000 0.826500
vt 0.978358 0.945309
vn -0.000000 0.780900 0.624700
vt 0.524395 0.942869
vt 0.500336 0.951923
vn 0.894400 0.447200 -0.000000
vt 0.998907 0.954611
v 0.145200 0.381150 -0.145200
vt 0.995423 0.924347
vn 0.826500 0.562900 -0.000000
vt 0.506699 0.926265
vt 0.506663 0.926235
vn 0.624700 0.780900 -0.000000
vt 0.978332 0.945286
vt 0.524395 0.942771
vn -0.000000 0.447200 -0.894400
vt 0.500355 0.951938
v -0.145200 0.381150 -0.145200
vt 0.506621 0.926252
vn -0.000000 0.562900 -0.826500
vt 0.995487 0.924295
vn -0.000000 0.563000 -0.826500
vt 0.524574 0.942870
vn -0.000000 0.780900 -0.624700
vt 0.978358 0.945311
vn -0.894400 0.447200 -0.000000
vn -0.826500 0.562900 -0.000000
vn -0.826500 0.563000 -0.000000
vt 0.524396 0.942771
vn -0.624700 0.780900 -0.000000
vt 0.978332 0.945285
v -0.111925 0.090448 0.166375
vt 0.692158 0.718517
v -0.111925 0.090448 0.151250
vt 0.862272 0.718517
v 0.111925 0.090448 0.151250
vt 0.859930 0.836566
v 0.111925 0.090448 0.166375
vt 0.689817 0.836566
v -0.111925 0.314298 0.166375
v 0.111925 0.314298 0.166375
v 0.111925 0.314298 0.151250
v -0.111925 0.314298 0.151250
vt 0.498347 0.000000
vt 0.498347 0.500171
vt 0.000000 0.500171
v 0.027225 0.420172 0.047155
vt 0.177506 0.503805
v 0.000000 0.420172 0.054450
vt 0.126199 0.503805
v -0.027225 0.420172 0.047155
vt 0.115225 0.503805
v -0.047155 0.420172 0.027225
vt 0.147525 0.503805
v -0.054450 0.420172 -0.000000
vt 0.214444 0.503805
v -0.047155 0.420172 -0.027225
vt 0.298050 0.503805
v -0.027225 0.420172 -0.047155
vt 0.375942 0.503805
v 0.000000 0.420172 -0.054450
vt 0.427249 0.503805
v 0.027225 0.420172 -0.047155
vt 0.438223 0.503805
v 0.047155 0.420172 -0.027225
vt 0.405923 0.503805
v 0.054450 0.420172 -0.000000
vt 0.373623 0.503805
v 0.047155 0.420172 0.027225
vt 0.255398 0.503805
v 0.047155 0.689700 -0.027225
vt 0.405923 1.000000
v 0.054450 0.689700 -0.000000
vt 0.373623 1.000000
vt 0.219423 0.877242
vt 0.190959 0.905706
v 0.027225 0.689700 -0.047155
vt 0.050626 0.503805
vt 0.082926 0.503805
v 0.000000 0.689700 -0.054450
vt 0.082925 1.000000
vn 0.000100 -0.000000 -1.000000
vt 0.050626 1.000000
vt 0.082925 0.503805
vn -0.500000 -0.000000 -0.866000
v -0.027225 0.689700 -0.047155
vt 0.115225 1.000000
vn -0.000100 -0.000000 -1.000000
v -0.047155 0.689700 -0.027225
vt 0.147525 1.000000
vt 0.179825 0.503805
v -0.054450 0.689700 -0.000000
vt 0.179825 1.000000
vt 0.212124 0.503805
v -0.047155 0.689700 0.027225
vt 0.212124 1.000000
vt 0.244424 0.503805
vn -0.500000 -0.000000 0.866000
v -0.027225 0.689700 0.047155
vt 0.244424 1.000000
vt 0.276724 0.503805
v 0.000000 0.689700 0.054450
vt 0.276724 1.000000
vt 0.309024 0.503805
vn 0.500000 -0.000000 0.866000
v 0.027225 0.689700 0.047155
vt 0.309024 1.000000
vt 0.341323 0.503805
v 0.047155 0.689700 0.027225
vt 0.341323 1.000000
vt 0.229842 0.838359
vt 0.152076 0.916124
vt 0.113194 0.905706
vt 0.084730 0.877242
vt 0.074311 0.838359
vt 0.084730 0.799477
vt 0.113194 0.771013
vt 0.152076 0.760594
vt 0.190959 0.771013
vt 0.219423 0.799477
vt 0.154427 0.924774
v 0.066550 0.689700 -0.009075
vt 0.139826 0.944241
v 0.052019 0.689700 -0.009075
vt 0.139826 0.920862
v -0.090750 0.441650 0.009075
vt 0.283141 1.000000
vn -0.763800 0.645500 -0.000000
v -0.090750 0.441650 -0.009075
vt 0.237258 1.000000
v -0.108900 0.420172 -0.009075
vt 0.237258 0.506849
v -0.108900 0.420172 0.009075
vt 0.283141 0.506849
v -0.066550 0.689700 0.009075
vn -0.995300 0.097100 -0.000000
v -0.066550 0.689700 -0.009075
vt 0.488967 0.553445
vt 0.494749 0.498130
v -0.052019 0.420172 0.009075
vt 0.440344 0.498130
v -0.052019 0.441650 0.009075
vt 0.440344 0.553445
v -0.052019 0.689700 0.009075
vt 0.440344 0.994848
vt 0.488532 0.994848
v 0.090750 0.441650 -0.009075
vn 0.763800 0.645500 -0.000000
v 0.090750 0.441650 0.009075
v 0.108900 0.420172 0.009075
v 0.108900 0.420172 -0.009075
vn 0.995300 0.097100 -0.000000
v 0.066550 0.689700 0.009075
vt 0.006581 0.553445
vt 0.000798 0.498130
v 0.052019 0.420172 -0.009075
vt 0.055204 0.498130
v 0.052019 0.441650 -0.009075
vt 0.055204 0.553445
vt 0.055204 0.994848
vt 0.007016 0.994848
vt 0.153259 0.765840
v -0.015125 0.689700 -0.066550
vt 0.171694 0.751092
v -0.015125 0.689700 -0.050397
vt 0.171694 0.770780
v 0.015125 0.438323 0.066550
vn -0.000000 0.554700 0.832100
v -0.015125 0.438323 0.066550
v -0.015125 0.420172 0.078650
v 0.015125 0.420172 0.078650
v 0.015125 0.689700 0.066550
v -0.015125 0.689700 0.066550
v 0.015125 0.420172 -0.050397
vt 0.058277 0.505827
v 0.015125 0.420172 -0.078650
vt 0.006804 0.505827
v 0.015125 0.438323 -0.066550
vt 0.008428 0.551118
v 0.015125 0.438323 -0.050397
vt 0.058277 0.551118
v 0.015125 0.689700 -0.050397
vt 0.058277 0.999500
v 0.015125 0.689700 -0.066550
vt 0.008428 0.999500
v -0.015125 0.438323 -0.066550
vn -0.000000 0.554700 -0.832100
v -0.015125 0.420172 -0.078650
v -0.015125 0.420172 -0.050397
v -0.015125 0.438323 -0.050397
vt 0.058277 0.999501
vt 0.008428 0.999501
v 0.052019 0.441650 0.009075
v 0.052019 0.420172 0.009075
v -0.052019 0.441650 -0.009075
v -0.052019 0.420172 -0.009075
v 0.015125 0.420172 0.050397
vt 0.441178 0.505827
v 0.015125 0.438323 0.050397
vt 0.441178 0.551118
vt 0.491028 0.551118
vt 0.492651 0.505827
v -0.015125 0.438323 0.050397
v -0.015125 0.420172 0.050397
vt 0.169027 0.730102
vt 0.169027 0.753482
v -0.052305 0.689700 0.008007
vt 0.167308 0.753021
vt 0.154427 0.749570
v -0.052019 0.689700 -0.009075
vt 0.491028 0.999500
v 0.015125 0.689700 0.050397
vt 0.441178 0.999500
vt 0.134824 0.913319
vt 0.134824 0.893631
vt 0.153259 0.898571
vt 0.491028 0.999501
v -0.015125 0.689700 0.050397
vt 0.441178 0.999501
v 0.052019 0.689700 0.009075
vt 0.169027 0.920862
vt 0.169027 0.944241
vt 0.134824 0.770780
vt 0.134824 0.751092
vt 0.139826 0.730102
vt 0.139826 0.753482
v -0.013171 0.689700 0.050921
vt 0.169312 0.894269
vt 0.171694 0.893631
vt 0.171694 0.913319
v -0.072600 0.436810 0.040541
vt 0.286266 0.807357
vn -0.000000 -0.866000 -0.500000
v -0.048400 0.436810 0.040541
vt 0.335091 0.807783
v -0.048400 0.432273 0.048400
vt 0.335518 0.758909
v -0.072600 0.432273 0.048400
vt 0.286693 0.758483
vt 0.337651 0.514539
vt 0.288825 0.514113
v -0.072600 0.445885 0.040541
vt 0.288399 0.562987
vn -0.000000 0.500000 -0.866000
v -0.048400 0.445885 0.040541
vt 0.337224 0.563413
v -0.072600 0.450423 0.048400
vt 0.287972 0.611861
v -0.048400 0.450423 0.048400
vt 0.336798 0.612287
v -0.072600 0.445885 0.056259
vt 0.287546 0.660735
vn -0.000000 0.500000 0.866000
v -0.048400 0.445885 0.056259
vt 0.336371 0.661161
v -0.072600 0.436810 0.056259
vt 0.287119 0.709609
vn -0.000000 -0.500000 0.866000
v -0.048400 0.436810 0.056259
vt 0.335944 0.710035
vt 0.364145 0.793565
vt 0.339120 0.839141
vt 0.364145 0.884716
vt 0.414195 0.884716
vt 0.439220 0.839141
vt 0.414195 0.793565
v 0.072600 0.436810 0.040541
v 0.072600 0.445885 0.040541
v 0.072600 0.450423 0.048400
v 0.072600 0.445885 0.056259
v 0.072600 0.436810 0.056259
v 0.072600 0.432273 0.048400
vt 0.286603 0.758346
vt 0.287029 0.709472
v 0.048400 0.436810 0.056259
vt 0.335854 0.709898
v 0.048400 0.432273 0.048400
vt 0.335428 0.758772
v 0.048400 0.436810 0.040541
vt 0.335001 0.807647
vt 0.286176 0.807220
vt 0.288309 0.562850
vt 0.288735 0.513976
vt 0.337560 0.514402
v 0.048400 0.445885 0.040541
vt 0.337134 0.563276
v 0.048400 0.450423 0.048400
vt 0.336707 0.612150
vt 0.287882 0.611724
vt 0.287456 0.660598
v 0.048400 0.445885 0.056259
vt 0.336281 0.661024
v -0.027225 0.423602 0.047155
vt 0.184137 0.851110
vn -0.000000 -0.951000 -0.309300
v -0.022579 0.423197 0.048400
vt 0.178421 0.847688
vn 0.000100 -0.965800 0.259100
v -0.048400 0.423197 0.048400
vt 0.210188 0.847688
v -0.048400 0.426664 0.037731
vt 0.210188 0.877014
vn -0.000000 -0.809000 -0.587800
v -0.036648 0.426664 0.037731
vt 0.195730 0.877014
vn -0.000000 -0.875400 -0.483300
v -0.048400 0.435739 0.031138
vt 0.210188 0.906339
vn -0.000000 -0.309000 -0.951100
v -0.043242 0.435739 0.031138
vt 0.203842 0.906339
vn -0.000000 -0.353300 -0.935500
v -0.048400 0.446956 0.031138
vt 0.210188 0.935665
v -0.043242 0.446956 0.031138
vt 0.203842 0.935665
vt 0.203842 0.642410
vn -0.000000 0.587800 -0.809000
vt 0.210188 0.642410
v -0.048400 0.456031 0.037731
vt 0.210188 0.671735
vn -0.000000 0.809000 -0.587800
v -0.036648 0.456031 0.037731
vt 0.195730 0.671735
vn -0.000000 0.875400 -0.483300
v -0.048400 0.459498 0.048400
vt 0.210188 0.701061
v -0.022579 0.459498 0.048400
vt 0.178421 0.701061
vn -0.000000 0.965900 0.258900
v -0.027225 0.459093 0.047155
vt 0.184137 0.697639
vn -0.000000 0.951000 -0.309200
v -0.048400 0.456031 0.059069
vt 0.210188 0.730386
vn -0.000000 0.809000 0.587800
v -0.015125 0.456031 0.059069
vt 0.169250 0.730386
v -0.015125 0.457063 0.055894
vt 0.169250 0.721659
vn -0.000000 0.951100 0.309000
v -0.015125 0.458848 0.050397
vt 0.169250 0.706551
vn 0.000100 0.951100 0.308800
v 0.048400 0.446956 0.065662
vt 0.091097 0.759712
vn -0.000000 0.309000 0.951100
v 0.048400 0.456031 0.059069
vt 0.091097 0.730386
v 0.015125 0.456031 0.059069
vt 0.132035 0.730386
v 0.015125 0.446956 0.065662
vt 0.132035 0.759712
v 0.015125 0.435739 0.065662
vt 0.132035 0.789037
vn -0.000000 -0.309700 0.950800
v 0.048400 0.435739 0.065662
vt 0.091097 0.789037
vn -0.000000 -0.309000 0.951100
v 0.015125 0.426664 0.059069
vt 0.132035 0.818363
vn -0.000000 -0.809000 0.587800
v 0.048400 0.426664 0.059069
vt 0.091097 0.818363
v 0.015125 0.435600 0.065561
vt 0.132035 0.789486
vn -0.000000 -0.588400 0.808600
v -0.015125 0.425632 0.055893
vt 0.169250 0.827091
vn -0.000000 -0.951100 0.309000
v -0.015125 0.426664 0.059069
vt 0.169250 0.818363
v -0.048400 0.426664 0.059069
vt 0.210188 0.818363
v -0.015125 0.423847 0.050397
vt 0.169250 0.842198
v -0.048400 0.435739 0.065662
vt 0.161636 0.796197
v -0.048400 0.446956 0.065662
vt 0.116504 0.796197
vt 0.079991 0.824090
vt 0.066044 0.869222
vt 0.079991 0.914355
vt 0.116504 0.942248
vt 0.161636 0.942248
vt 0.198149 0.914355
vt 0.212096 0.869222
vt 0.198149 0.824090
v 0.048400 0.426664 0.037731
v 0.048400 0.435739 0.031138
v 0.048400 0.446956 0.031138
v 0.048400 0.456031 0.037731
v 0.048400 0.459498 0.048400
v 0.048400 0.423197 0.048400
v -0.072600 0.666710 0.040541
v -0.048400 0.666710 0.040541
vn -0.000000 -0.866000 -0.500100
v -0.048400 0.662172 0.048400
v -0.072600 0.662172 0.048400
v -0.072600 0.675785 0.040541
v -0.048400 0.675785 0.040541
v -0.072600 0.680323 0.048400
v -0.048400 0.680323 0.048400
v -0.072600 0.675785 0.056259
v -0.048400 0.675785 0.056259
v -0.072600 0.666710 0.056259
v -0.048400 0.666710 0.056259
v 0.072600 0.666710 0.040541
v 0.072600 0.675785 0.040541
v 0.072600 0.680323 0.048400
v 0.072600 0.675785 0.056259
v 0.072600 0.666710 0.056259
v 0.072600 0.662172 0.048400
v 0.048400 0.666710 0.056259
v 0.048400 0.662172 0.048400
v 0.048400 0.666710 0.040541
v 0.048400 0.675785 0.040541
v 0.048400 0.680323 0.048400
v 0.048400 0.675785 0.056259
v -0.027225 0.653502 0.047155
vt 0.184137 0.851111
vn -0.000000 -0.951200 -0.308700
v -0.022579 0.653098 0.048400
vn -0.000000 -0.965900 0.259000
v -0.048400 0.653098 0.048400
v -0.048400 0.656564 0.037731
v -0.036648 0.656564 0.037731
vn -0.000000 -0.875500 -0.483300
v -0.048400 0.665639 0.031138
v -0.043242 0.665639 0.031138
v -0.048400 0.676856 0.031138
v -0.043242 0.676856 0.031138
v -0.048400 0.685931 0.037731
v -0.036648 0.685931 0.037731
v -0.048400 0.689398 0.048400
v -0.022579 0.689398 0.048400
vn -0.000000 0.965900 0.259000
v -0.027225 0.688993 0.047155
vn -0.000000 0.951200 -0.308700
v -0.048400 0.685931 0.059069
v -0.015125 0.685931 0.059069
v -0.015125 0.686963 0.055893
v -0.015125 0.688749 0.050397
vn -0.000000 0.951000 0.309000
v 0.048400 0.676856 0.065662
v 0.048400 0.685931 0.059069
v 0.015125 0.685931 0.059069
v 0.015125 0.676856 0.065662
v 0.015125 0.665639 0.065662
v 0.048400 0.665639 0.065662
v 0.048400 0.656564 0.059069
v 0.015125 0.656564 0.059069
v -0.015125 0.655532 0.055893
v -0.015125 0.656564 0.059069
v -0.048400 0.656564 0.059069
v -0.015125 0.653747 0.050397
vn -0.000000 -0.951100 0.308900
v -0.048400 0.665639 0.065662
v -0.048400 0.676856 0.065662
v 0.048400 0.656564 0.037731
v 0.048400 0.665639 0.031138
v 0.048400 0.676856 0.031138
v 0.048400 0.685931 0.037731
v 0.048400 0.689398 0.048400
v 0.048400 0.653098 0.048400
v -0.072600 0.436810 -0.056259
v -0.048400 0.436810 -0.056259
v -0.048400 0.432273 -0.048400
v -0.072600 0.432273 -0.048400
v -0.072600 0.445885 -0.056259
v -0.048400 0.445885 -0.056259
v -0.072600 0.450423 -0.048400
v -0.048400 0.450423 -0.048400
v -0.072600 0.445885 -0.040541
v -0.048400 0.445885 -0.040541
v -0.072600 0.436810 -0.040541
v -0.048400 0.436810 -0.040541
v 0.072600 0.436810 -0.056259
v 0.072600 0.445885 -0.056259
v 0.072600 0.450423 -0.048400
v 0.072600 0.445885 -0.040541
v 0.072600 0.436810 -0.040541
v 0.072600 0.432273 -0.048400
v 0.048400 0.436810 -0.040541
v 0.048400 0.432273 -0.048400
v 0.048400 0.436810 -0.056259
v 0.048400 0.445885 -0.056259
v 0.048400 0.450423 -0.048400
v 0.048400 0.445885 -0.040541
v 0.015125 0.425632 -0.055894
vt 0.132035 0.868286
vn -0.000000 -0.951100 -0.309000
v 0.015125 0.426664 -0.059069
vt 0.132035 0.877014
v 0.048400 0.426664 -0.059069
vt 0.091097 0.877014
v 0.048400 0.423197 -0.048400
vt 0.091097 0.847688
v 0.022579 0.423197 -0.048400
vt 0.122864 0.847688
vn -0.000100 -0.965800 -0.259100
v 0.015125 0.423847 -0.050397
vt 0.132035 0.853179
vn -0.000000 -0.951100 -0.308900
v 0.015125 0.435600 -0.065561
vt 0.132035 0.905891
vn -0.000000 -0.587800 -0.809000
v 0.015125 0.435739 -0.065662
vt 0.132035 0.906339
v 0.048400 0.435739 -0.065662
vt 0.091097 0.906339
v 0.048400 0.446956 -0.065662
vt 0.091097 0.935665
v 0.015125 0.446956 -0.065662
vt 0.132035 0.935665
vt 0.132035 0.642410
vn -0.000000 0.587700 -0.809100
v 0.015125 0.456032 -0.059069
vt 0.132035 0.671735
vn -0.000000 0.809100 -0.587700
v 0.048400 0.456032 -0.059069
vt 0.091097 0.671735
vt 0.091097 0.642410
v 0.022579 0.459498 -0.048400
vt 0.122864 0.701061
vn -0.000000 0.965900 -0.258900
v 0.048400 0.459498 -0.048400
vt 0.091097 0.701061
v 0.015125 0.457063 -0.055893
vt 0.132035 0.680463
vn -0.000000 0.951100 -0.308900
v 0.015125 0.458848 -0.050397
vt 0.132035 0.695571
vn -0.000100 0.951100 -0.308900
v 0.036648 0.456032 -0.037731
vt 0.105555 0.730386
vn -0.000000 0.875500 0.483300
v 0.048400 0.456032 -0.037731
v 0.027225 0.459093 -0.047155
vt 0.117148 0.704483
vn -0.000000 0.951000 0.309200
v 0.043242 0.446956 -0.031138
vt 0.097443 0.759712
vn -0.000000 0.353300 0.935500
v 0.048400 0.446956 -0.031138
v 0.048400 0.435739 -0.031138
v 0.043242 0.435739 -0.031138
vt 0.097443 0.789037
vn -0.000000 -0.353300 0.935500
v 0.036648 0.426664 -0.037731
vt 0.105555 0.818363
vn -0.000000 -0.875400 0.483300
v 0.048400 0.426664 -0.037731
v 0.027225 0.423602 -0.047155
vt 0.117148 0.844266
vn -0.000000 -0.951000 0.309300
v -0.048400 0.435739 -0.031138
v -0.048400 0.446956 -0.031138
v -0.048400 0.456032 -0.037731
v -0.048400 0.459498 -0.048400
v -0.048400 0.456032 -0.059069
v -0.048400 0.446956 -0.065662
v -0.048400 0.435739 -0.065662
v -0.048400 0.426664 -0.059069
v -0.048400 0.423197 -0.048400
v -0.048400 0.426664 -0.037731
v -0.072600 0.666710 -0.056259
v -0.048400 0.666710 -0.056259
v -0.048400 0.662172 -0.048400
v -0.072600 0.662172 -0.048400
v -0.072600 0.675785 -0.056259
v -0.048400 0.675785 -0.056259
v -0.072600 0.680323 -0.048400
v -0.048400 0.680323 -0.048400
v -0.072600 0.675785 -0.040541
v -0.048400 0.675785 -0.040541
v -0.072600 0.666710 -0.040541
v -0.048400 0.666710 -0.040541
v 0.072600 0.666710 -0.056259
v 0.072600 0.675785 -0.056259
v 0.072600 0.680323 -0.048400
v 0.072600 0.675785 -0.040541
v 0.072600 0.666710 -0.040541
v 0.072600 0.662172 -0.048400
v 0.048400 0.666710 -0.040541
v 0.048400 0.662172 -0.048400
v 0.048400 0.666710 -0.056259
v 0.048400 0.675785 -0.056259
v 0.048400 0.680323 -0.048400
v 0.048400 0.675785 -0.040541
v 0.015125 0.655532 -0.055893
v 0.015125 0.656564 -0.059069
v 0.048400 0.656564 -0.059069
v 0.048400 0.653098 -0.048400
v 0.022579 0.653098 -0.048400
vn -0.000000 -0.965900 -0.259000
v 0.015125 0.653747 -0.050397
v 0.048400 0.665639 -0.065662
v 0.015125 0.665639 -0.065662
v 0.015125 0.676856 -0.065662
v 0.048400 0.676856 -0.065662
v 0.048400 0.685931 -0.059069
v 0.015125 0.685931 -0.059069
v 0.022579 0.689398 -0.048400
vn -0.000000 0.965900 -0.259000
v 0.048400 0.689398 -0.048400
v 0.015125 0.686963 -0.055893
vn -0.000000 0.951100 -0.309000
v 0.015125 0.688749 -0.050397
vn -0.000000 0.951000 -0.309000
v 0.036648 0.685931 -0.037731
vn -0.000000 0.875400 0.483300
v 0.048400 0.685931 -0.037731
v 0.027225 0.688993 -0.047155
vn -0.000000 0.951100 0.308800
v 0.043242 0.676856 -0.031138
v 0.048400 0.676856 -0.031138
v 0.048400 0.665639 -0.031138
v 0.043242 0.665639 -0.031138
v 0.036648 0.656564 -0.037731
vn -0.000000 -0.875500 0.483300
v 0.048400 0.656564 -0.037731
v 0.027225 0.653502 -0.047155
vn -0.000000 -0.951200 0.308700
v -0.048400 0.665639 -0.031138
v -0.048400 0.676856 -0.031138
v -0.048400 0.685931 -0.037731
v -0.048400 0.689398 -0.048400
v -0.048400 0.685931 -0.059069
v -0.048400 0.676856 -0.065662
v -0.048400 0.665639 -0.065662
v -0.048400 0.656564 -0.059069
v -0.048400 0.653098 -0.048400
v -0.048400 0.656564 -0.037731
vt 0.210188 0.759712
v -0.043242 0.446956 -0.031138
vt 0.203842 0.759712
v -0.036648 0.456032 -0.037731
vt 0.195730 0.730386
v -0.024074 0.459367 -0.047999
vt 0.180259 0.702162
vn -0.000000 0.951000 0.309100
v -0.022579 0.459498 -0.048400
vn -0.000000 0.965900 -0.258800
v -0.027225 0.459093 -0.047155
vt 0.184137 0.704483
vn -0.000000 0.951100 0.308900
v -0.043242 0.435739 -0.031138
vt 0.203842 0.789037
vt 0.210188 0.789037
v -0.036648 0.426664 -0.037731
vt 0.195730 0.818363
v -0.022579 0.423197 -0.048400
vn -0.000000 -0.965900 -0.258800
v -0.024074 0.423328 -0.047999
vt 0.180259 0.846588
v -0.027225 0.423602 -0.047155
vt 0.184137 0.844266
v -0.028065 0.423875 -0.046315
vt 0.185171 0.841956
vn -0.000200 -0.951200 0.308700
v -0.043242 0.676856 -0.031138
v -0.036648 0.685931 -0.037731
v -0.024074 0.689267 -0.047999
v -0.022579 0.689398 -0.048400
v -0.027225 0.688993 -0.047155
v -0.043242 0.665639 -0.031138
v -0.036648 0.656564 -0.037731
v -0.022579 0.653098 -0.048400
v -0.024074 0.653228 -0.047999
vn -0.000000 -0.951100 0.308800
v -0.027225 0.653502 -0.047155
v -0.028065 0.653775 -0.046315
v -0.015125 0.426664 -0.059069
vt 0.169250 0.877014
vn -0.000000 -0.809000 -0.587900
v -0.015125 0.426123 -0.057405
vt 0.169250 0.872442
v -0.015125 0.425632 -0.055893
vt 0.169250 0.868286
v -0.015125 0.423847 -0.050397
vt 0.169250 0.853179
vn 0.000100 -0.951100 -0.308900
v -0.015125 0.656564 -0.059069
vn -0.000000 -0.808900 -0.588000
v -0.015125 0.656024 -0.057405
v -0.015125 0.655532 -0.055893
vn -0.000000 -0.951000 -0.309100
v -0.015125 0.653747 -0.050397
v -0.015125 0.685931 -0.059069
vt 0.169250 0.671735
v -0.015125 0.686963 -0.055893
vt 0.169250 0.680463
v -0.015125 0.688749 -0.050397
vt 0.169250 0.695571
v 0.000000 0.687432 -0.054450
vt 0.150643 0.684430
vn -0.000000 0.951000 -0.309100
v -0.015125 0.458848 -0.050397
vn 0.000100 0.951100 -0.308900
v -0.015125 0.457063 -0.055893
v -0.015125 0.456572 -0.057405
vt 0.169250 0.676307
vn -0.000000 0.951100 -0.308800
v -0.015125 0.456032 -0.059069
vn -0.000000 0.808800 -0.588000
v 0.022579 0.423197 0.048400
vn -0.000000 -0.965900 0.258800
v 0.024074 0.423328 0.047999
vt 0.121026 0.848789
v 0.027225 0.423602 0.047155
vt 0.117148 0.851110
v 0.028065 0.423875 0.046315
vt 0.116114 0.853421
vn 0.000200 -0.951200 -0.308700
v 0.036648 0.426664 0.037731
vt 0.105555 0.877014
v 0.043242 0.435739 0.031138
vt 0.097443 0.906339
v 0.043242 0.446956 0.031138
vt 0.097443 0.935665
vt 0.097443 0.642410
v 0.036648 0.456031 0.037731
vt 0.105555 0.671735
v 0.024074 0.459367 0.047999
vt 0.121026 0.699960
v 0.022579 0.459498 0.048400
vn -0.000000 0.965900 0.258800
v 0.027225 0.459093 0.047155
vt 0.117148 0.697639
vn -0.000000 0.950900 -0.309400
v 0.022579 0.653098 0.048400
v 0.024074 0.653228 0.047999
vn -0.000000 -0.951100 -0.308800
v 0.027225 0.653502 0.047155
vt 0.117148 0.851111
v 0.028065 0.653775 0.046315
v 0.036648 0.656564 0.037731
v 0.043242 0.665639 0.031138
v 0.043242 0.676856 0.031138
v 0.036648 0.685931 0.037731
v 0.024074 0.689267 0.047999
v 0.022579 0.689398 0.048400
v 0.027225 0.688993 0.047155
v 0.015125 0.457063 0.055893
vt 0.132035 0.721659
v 0.015125 0.458848 0.050397
vt 0.132035 0.706551
vn -0.000100 0.951100 0.308900
v 0.000000 0.457532 0.054450
vt 0.150643 0.717691
v 0.015125 0.425632 0.055893
vt 0.132035 0.827091
v 0.015125 0.423847 0.050397
vt 0.132035 0.842198
vn -0.000100 -0.951100 0.308900
v 0.015125 0.686963 0.055893
v 0.015125 0.688749 0.050397
v 0.000000 0.687432 0.054450
v 0.015125 0.655532 0.055893
v 0.015125 0.653747 0.050397
v 0.000000 0.425163 -0.054450
vt 0.150643 0.864319
v -0.015125 0.435666 -0.065609
vt 0.169250 0.906104
vn -0.000000 -0.587500 -0.809300
v -0.015125 0.435739 -0.065662
vt 0.169250 0.906339
vn -0.000000 -0.309300 -0.951000
v -0.015125 0.435600 -0.065561
vt 0.169250 0.905891
vn -0.000000 -0.587300 -0.809400
v -0.015125 0.446956 -0.065662
vt 0.169250 0.935665
v 0.000000 0.655063 -0.054450
vn -0.000000 -0.951000 -0.309200
v -0.015125 0.676856 -0.065662
v -0.015125 0.665639 -0.065662
vt 0.169250 0.642410
v 0.000000 0.457532 -0.054450
v -0.015125 0.435666 0.065609
vt 0.169250 0.789272
vn -0.000000 -0.589100 0.808000
v -0.015125 0.435739 0.065662
vt 0.169250 0.789037
vn -0.000000 -0.311100 0.950400
v -0.015125 0.435600 0.065561
vt 0.169250 0.789486
vn -0.000000 -0.587400 0.809300
v 0.000000 0.425163 0.054450
vt 0.150643 0.831058
v -0.015125 0.446956 0.065662
vt 0.169250 0.759712
v -0.015125 0.665639 0.065662
v -0.015125 0.676856 0.065662
v 0.000000 0.655063 0.054450
v 0.094249 0.455469 -0.092465
vt 0.377880 0.889257
vn 0.809000 -0.000000 -0.587800
v 0.095790 0.455469 -0.087725
vt 0.370893 0.889257
v 0.095790 0.443369 -0.087725
vt 0.370893 0.842681
v 0.094249 0.443369 -0.092465
vt 0.377880 0.842681
v 0.090217 0.455469 -0.095395
vt 0.384866 0.889257
vn 0.309100 -0.000000 -0.951000
v 0.090217 0.443369 -0.095395
vt 0.384866 0.842681
v 0.085233 0.455469 -0.095395
vt 0.391852 0.889257
v 0.085233 0.443369 -0.095395
vt 0.391852 0.842681
v 0.081201 0.455469 -0.092465
vt 0.328975 0.889257
vn -0.809000 -0.000000 -0.587800
vt 0.321989 0.889257
vt 0.321989 0.842681
v 0.081201 0.443369 -0.092465
vt 0.328975 0.842681
v 0.079660 0.455469 -0.087725
vt 0.335961 0.889257
v 0.079660 0.443369 -0.087725
vt 0.335961 0.842681
v 0.081201 0.455469 -0.082985
vt 0.342948 0.889257
vn -0.809000 -0.000000 0.587800
v 0.081201 0.443369 -0.082985
vt 0.342948 0.842681
v 0.085233 0.455469 -0.080055
vt 0.349934 0.889257
vn -0.309100 -0.000000 0.951000
v 0.085233 0.443369 -0.080055
vt 0.349934 0.842681
v 0.090217 0.455469 -0.080055
vt 0.356920 0.889257
vn 0.309100 -0.000000 0.951000
v 0.090217 0.443369 -0.080055
vt 0.356920 0.842681
v 0.094249 0.455469 -0.082985
vt 0.363907 0.889257
vn 0.809000 -0.000000 0.587800
v 0.094249 0.443369 -0.082985
vt 0.363907 0.842681
vt 0.332895 0.882586
vt 0.320205 0.865120
vt 0.320205 0.843531
vt 0.332895 0.826065
vt 0.353427 0.819394
vt 0.373960 0.826065
vt 0.386649 0.843531
vt 0.386649 0.865120
vt 0.373960 0.882586
vt 0.353427 0.889257
v -0.081201 0.455469 -0.092465
v -0.079660 0.455469 -0.087725
v -0.079660 0.443369 -0.087725
v -0.081201 0.443369 -0.092465
v -0.085233 0.455469 -0.095395
v -0.085233 0.443369 -0.095395
v -0.090217 0.455469 -0.095395
v -0.090217 0.443369 -0.095395
v -0.094249 0.455469 -0.092465
v -0.094249 0.443369 -0.092465
v -0.095790 0.455469 -0.087725
v -0.095790 0.443369 -0.087725
v -0.094249 0.455469 -0.082985
v -0.094249 0.443369 -0.082985
v -0.090217 0.455469 -0.080055
v -0.090217 0.443369 -0.080055
v -0.085233 0.455469 -0.080055
v -0.085233 0.443369 -0.080055
v -0.081201 0.455469 -0.082985
v -0.081201 0.443369 -0.082985
v -0.081201 0.455263 0.082985
v -0.079660 0.455263 0.087725
v -0.079660 0.443163 0.087725
v -0.081201 0.443163 0.082985
v -0.085233 0.455263 0.080055
v -0.085233 0.443163 0.080055
v -0.090217 0.455263 0.080055
v -0.090217 0.443163 0.080055
v -0.094249 0.455263 0.082985
v -0.094249 0.443163 0.082985
v -0.095790 0.455263 0.087725
v -0.095790 0.443163 0.087725
v -0.094249 0.455263 0.092465
v -0.094249 0.443163 0.092465
v -0.090217 0.455263 0.095395
v -0.090217 0.443163 0.095395
v -0.085233 0.455263 0.095395
v -0.085233 0.443163 0.095395
v -0.081201 0.455263 0.092465
v -0.081201 0.443163 0.092465
v 0.094249 0.455469 0.082985
v 0.095790 0.455469 0.087725
v 0.095790 0.443369 0.087725
v 0.094249 0.443369 0.082985
v 0.090217 0.455469 0.080055
v 0.090217 0.443369 0.080055
v 0.085233 0.455469 0.080055
v 0.085233 0.443369 0.080055
v 0.081201 0.455469 0.082985
v 0.081201 0.443369 0.082985
v 0.079660 0.455469 0.087725
v 0.079660 0.443369 0.087725
v 0.081201 0.455469 0.092465
v 0.081201 0.443369 0.092465
v 0.085233 0.455469 0.095395
v 0.085233 0.443369 0.095395
v 0.090217 0.455469 0.095395
v 0.090217 0.443369 0.095395
v 0.094249 0.455469 0.092465
v 0.094249 0.443369 0.092465
v 0.102850 0.420172 -0.087725
vt 0.370893 0.819394
v 0.095288 0.420172 -0.100824
vt 0.382537 0.819394
vn 0.500000 -0.000000 -0.866000
v 0.095288 0.443369 -0.100824
vt 0.382537 0.889257
v 0.102850 0.443369 -0.087725
v 0.080162 0.420172 -0.100824
vt 0.394181 0.819394
v 0.080162 0.443369 -0.100824
vt 0.394181 0.889257
vt 0.324317 0.819394
v 0.072600 0.420172 -0.087725
vt 0.335961 0.819394
v 0.072600 0.443369 -0.087725
vt 0.324317 0.889257
v 0.080162 0.420172 -0.074626
vt 0.347605 0.819394
v 0.080162 0.443369 -0.074626
vt 0.347605 0.889257
v 0.095288 0.420172 -0.074626
vt 0.359249 0.819394
v 0.095288 0.443369 -0.074626
vt 0.359249 0.889257
vt 0.383679 0.836860
vt 0.323175 0.836860
vt 0.323175 0.871791
vt 0.383679 0.871791
v 0.102850 0.420275 0.087725
v 0.095288 0.420275 0.074626
v 0.095288 0.443369 0.074626
v 0.102850 0.443369 0.087725
v 0.080162 0.420275 0.074626
v 0.080162 0.443369 0.074626
v 0.072600 0.420275 0.087725
v 0.072600 0.443369 0.087725
v 0.080162 0.420275 0.100824
v 0.080162 0.443369 0.100824
v 0.095288 0.420275 0.100824
v 0.095288 0.443369 0.100824
v -0.072600 0.420070 0.087725
v -0.080162 0.420070 0.074626
v -0.080162 0.443163 0.074626
v -0.072600 0.443163 0.087725
v -0.095288 0.420070 0.074626
v -0.095288 0.443163 0.074626
v -0.102850 0.420070 0.087725
v -0.102850 0.443163 0.087725
v -0.095288 0.420070 0.100824
v -0.095288 0.443163 0.100824
v -0.080162 0.420070 0.100824
v -0.080162 0.443163 0.100824
v -0.072600 0.420172 -0.087725
v -0.080162 0.420172 -0.100824
v -0.080162 0.443369 -0.100824
v -0.072600 0.443369 -0.087725
v -0.095288 0.420172 -0.100824
v -0.095288 0.443369 -0.100824
v -0.102850 0.420172 -0.087725
v -0.102850 0.443369 -0.087725
v -0.095288 0.420172 -0.074626
v -0.095288 0.443369 -0.074626
v -0.080162 0.420172 -0.074626
v -0.080162 0.443369 -0.074626
v 0.117975 0.406863 0.121000
vt 0.440035 1.000000
v -0.117975 0.406863 0.121000
vt 0.288203 1.000000
v -0.117975 0.393250 0.121000
vt 0.288203 0.504625
v 0.117975 0.393250 0.121000
vt 0.440035 0.504625
v 0.117975 0.406863 0.024200
v 0.117975 0.393250 0.024200
v -0.117975 0.406863 0.024200
v -0.117975 0.393250 0.024200
v 0.117975 0.406863 -0.024200
v -0.117975 0.406863 -0.024200
v -0.117975 0.393250 -0.024200
v 0.117975 0.393250 -0.024200
v 0.117975 0.406863 -0.121000
v 0.117975 0.393250 -0.121000
v -0.117975 0.406863 -0.121000
v -0.117975 0.393250 -0.121000
v 0.117975 0.406863 -0.117975
v 0.117975 0.406863 0.117975
v -0.117975 0.406863 0.117975
v -0.117975 0.406863 -0.117975
v 0.117975 0.420172 -0.117975
v -0.117975 0.420172 -0.117975
v -0.117975 0.420172 0.117975
v 0.117975 0.420172 0.117975
v -0.151250 0.018150 0.199650
vt 0.615258 0.578729
v 0.151250 0.018150 0.199650
vt 0.896157 0.578729
v 0.151250 0.018150 -0.199650
vt 0.896157 0.859627
v -0.151250 0.018150 -0.199650
vt 0.615258 0.859627
v -0.151250 0.000000 0.199650
vn -0.577300 -0.577300 0.577400
v 0.151250 0.000000 0.199650
vn 0.577300 -0.577400 0.577300
v 0.151250 -0.000000 -0.199650
vn 0.577300 -0.577300 -0.577400
v -0.151250 -0.000000 -0.199650
vn -0.577300 -0.577400 -0.577300
v -0.090750 -0.000000 -0.353110
vt 0.794285 0.076568
vn -0.572000 -0.548300 -0.610100
v -0.090750 -0.000000 -0.322687
vt 0.939025 0.073318
vn -0.583100 -0.604200 0.543100
vt 0.794285 0.077732
v -0.084700 -0.000000 -0.353110
vn 0.571900 -0.548300 -0.610200
v 0.084700 -0.000000 -0.353110
v 0.084700 -0.000000 -0.322687
v 0.090750 -0.000000 -0.353110
vt 0.996237 0.075978
vt 0.931546 0.076568
vn -0.571900 -0.548300 -0.610100
vn 0.571900 -0.548300 -0.610100
vt 0.997880 0.071684
vn -0.583200 -0.604200 0.543000
vn -0.583100 -0.604300 0.543100
vt 0.935892 0.499013
f 1/1/1 2/2/1 3/3/2
f 3/3/2 4/4/2 1/1/1
f 3/2/3 5/5/3 4/1/3
f 4/6/4 6/7/4 1/8/4
f 1/2/5 7/9/5 2/1/5
f 3/1/6 8/10/7 9/11/6
f 10/1/1 11/2/1 12/3/2
f 12/3/2 13/4/2 10/1/1
f 12/2/3 14/5/3 13/1/3
f 13/2/4 15/12/8 10/1/4
f 10/2/5 16/9/5 11/1/5
f 12/13/6 17/14/7 18/15/9
f 19/3/10 20/4/10 21/1/10
f 21/1/10 22/2/10 19/3/10
f 23/3/11 24/4/11 25/1/11
f 25/1/11 26/2/11 23/3/11
f 19/3/12 22/4/12 24/1/12
f 24/1/12 23/2/12 19/3/12
f 22/3/4 21/4/4 25/1/4
f 25/1/4 24/2/4 22/3/4
f 21/3/13 20/4/13 26/1/13
f 26/1/13 25/2/13 21/3/13
f 20/3/6 19/4/6 23/1/6
f 23/1/6 26/2/6 20/3/6
f 27/3/10 28/4/10 29/1/10
f 29/1/10 30/2/10 27/3/10
f 31/3/11 32/4/11 33/1/11
f 33/1/11 34/2/11 31/3/11
f 27/3/14 30/4/14 32/1/14
f 32/1/14 31/2/14 27/3/14
f 29/3/15 28/4/15 34/1/15
f 34/1/15 33/2/15 29/3/15
f 35/3/10 36/4/10 37/1/10
f 37/1/10 38/2/10 35/3/10
f 39/3/11 40/4/11 41/1/11
f 41/1/11 42/2/11 39/3/11
f 35/3/16 38/4/16 40/1/16
f 40/1/16 39/2/16 35/3/16
f 37/3/17 36/4/17 42/1/17
f 42/1/17 41/2/17 37/3/17
f 43/3/18 44/4/19 45/1/19
f 45/1/19 46/2/18 43/3/18
f 47/3/11 48/4/11 49/1/11
f 49/1/11 50/2/11 47/3/11
f 43/3/20 46/4/20 48/1/20
f 48/1/20 47/2/20 43/3/20
f 46/3/4 45/4/4 49/1/4
f 49/1/4 48/2/4 46/3/4
f 45/3/21 44/4/21 50/1/21
f 50/1/21 49/2/21 45/3/21
f 44/3/6 43/4/6 47/1/6
f 47/1/6 50/2/6 44/3/6
f 51/3/18 52/4/19 53/1/19
f 53/1/19 54/2/18 51/3/18
f 55/3/11 56/4/11 57/1/11
f 57/1/11 58/2/11 55/3/11
f 51/3/20 54/4/20 56/1/20
f 56/1/20 55/2/20 51/3/20
f 54/3/4 53/4/4 57/1/4
f 57/1/4 56/2/4 54/3/4
f 53/3/21 52/4/21 58/1/21
f 58/1/21 57/2/21 53/3/21
f 52/3/6 51/4/6 55/1/6
f 55/1/6 58/2/6 52/3/6
f 59/3/22 60/4/22 61/1/22
f 61/1/22 62/2/22 59/3/22
f 60/3/23 63/4/23 64/1/23
f 64/1/23 61/2/23 60/3/23
f 63/3/24 65/4/24 66/1/24
f 66/1/24 64/2/24 63/3/24
f 65/3/25 67/4/25 68/1/25
f 68/1/25 66/2/25 65/3/25
f 67/3/26 69/4/26 70/1/26
f 70/1/26 68/2/26 67/3/26
f 69/3/27 71/4/27 72/1/27
f 72/1/27 70/2/27 69/3/27
f 71/3/28 73/4/28 74/1/28
f 74/1/28 72/2/28 71/3/28
f 73/3/29 75/4/29 76/1/29
f 76/1/29 74/2/29 73/3/29
f 75/3/30 77/4/30 78/1/30
f 78/1/30 76/2/30 75/3/30
f 77/3/31 79/4/31 80/1/31
f 80/1/31 78/2/31 77/3/31
f 79/3/32 81/4/32 82/1/32
f 82/1/32 80/2/32 79/3/32
f 81/3/33 59/4/33 62/1/33
f 62/1/33 82/2/33 81/3/33
f 79/16/10 77/17/10 75/18/10
f 75/18/10 73/19/10 71/20/10
f 71/20/10 69/21/10 67/22/10
f 75/18/10 71/20/10 67/22/10
f 67/22/10 65/23/10 63/24/10
f 63/24/10 60/25/10 59/26/10
f 67/22/10 63/24/10 59/26/10
f 75/18/10 67/22/10 59/26/10
f 79/16/10 75/18/10 59/26/10
f 81/27/10 79/16/10 59/26/10
f 61/16/11 64/17/11 66/18/11
f 66/18/11 68/19/11 70/20/11
f 70/20/11 72/21/34 74/22/11
f 66/18/11 70/20/11 74/22/11
f 74/22/11 76/23/35 78/24/11
f 78/24/11 80/25/35 82/26/11
f 74/22/11 78/24/11 82/26/11
f 66/18/11 74/22/11 82/26/11
f 61/16/11 66/18/11 82/26/11
f 62/27/36 61/16/11 82/26/11
f 83/3/22 84/4/22 85/1/22
f 85/1/22 86/2/22 83/3/22
f 84/3/23 87/4/23 88/1/23
f 88/1/23 85/2/23 84/3/23
f 87/3/24 89/4/24 90/1/24
f 90/1/24 88/2/24 87/3/24
f 89/3/25 91/4/25 92/1/25
f 92/1/25 90/2/25 89/3/25
f 91/3/26 93/4/26 94/1/26
f 94/1/26 92/2/26 91/3/26
f 93/3/27 95/4/27 96/1/27
f 96/1/27 94/2/27 93/3/27
f 95/3/28 97/4/28 98/1/28
f 98/1/28 96/2/28 95/3/28
f 97/3/29 99/4/29 100/1/29
f 100/1/29 98/2/29 97/3/29
f 99/3/30 101/4/30 102/1/30
f 102/1/30 100/2/30 99/3/30
f 101/3/31 103/4/31 104/1/31
f 104/1/31 102/2/31 101/3/31
f 103/3/32 105/4/32 106/1/32
f 106/1/32 104/2/32 103/3/32
f 105/3/33 83/4/33 86/1/33
f 86/1/33 106/2/33 105/3/33
f 103/16/10 101/17/10 99/18/10
f 99/18/10 97/19/10 95/20/10
f 95/20/10 93/21/10 91/22/10
f 99/18/10 95/20/10 91/22/10
f 91/22/10 89/23/10 87/24/10
f 87/24/10 84/25/10 83/26/10
f 91/22/10 87/24/10 83/26/10
f 99/18/10 91/22/10 83/26/10
f 103/16/10 99/18/10 83/26/10
f 105/27/10 103/16/10 83/26/10
f 85/16/11 88/17/11 90/18/11
f 90/18/11 92/19/11 94/20/11
f 94/20/11 96/21/11 98/22/11
f 90/18/11 94/20/11 98/22/11
f 98/22/11 100/23/11 102/24/11
f 102/24/11 104/25/11 106/26/11
f 98/22/11 102/24/11 106/26/11
f 90/18/11 98/22/11 106/26/11
f 85/16/11 90/18/11 106/26/11
f 86/27/11 85/16/11 106/26/11
f 107/28/10 108/29/10 109/30/10
f 109/30/10 110/31/10 107/28/10
f 111/28/10 112/29/10 108/30/37
f 108/30/37 107/31/37 111/28/10
f 113/28/10 114/29/37 112/30/10
f 112/30/10 111/31/38 113/28/10
f 115/28/10 116/29/10 114/30/10
f 114/30/10 113/32/10 115/28/10
f 117/28/10 118/29/37 116/30/10
f 116/30/10 115/31/38 117/28/10
f 119/28/10 120/29/10 118/30/10
f 118/30/10 117/31/10 119/28/10
f 121/28/10 122/29/10 120/30/10
f 120/30/10 119/31/10 121/28/10
f 123/28/11 124/33/11 125/30/11
f 125/30/11 126/34/11 123/28/11
f 127/28/11 123/33/35 126/30/11
f 126/30/11 128/34/11 127/28/11
f 129/28/11 127/33/11 128/30/11
f 128/30/11 130/34/11 129/28/11
f 131/28/11 129/35/11 130/30/11
f 130/30/11 132/34/11 131/28/11
f 133/28/11 131/33/11 132/30/11
f 132/30/11 134/34/11 133/28/11
f 135/28/11 133/33/11 134/30/11
f 134/30/11 136/34/11 135/28/11
f 137/28/11 135/33/11 136/30/11
f 136/30/11 138/34/11 137/28/11
f 126/28/39 125/29/39 109/30/39
f 109/30/39 108/34/39 126/28/39
f 128/28/40 126/29/40 108/30/40
f 108/30/40 112/34/40 128/28/40
f 130/28/41 128/29/42 112/30/41
f 112/30/41 114/34/41 130/28/41
f 132/28/13 130/29/13 114/30/13
f 114/30/13 116/34/13 132/28/13
f 134/28/43 132/29/44 116/30/43
f 116/30/43 118/34/43 134/28/43
f 136/28/45 134/29/45 118/30/45
f 118/30/45 120/34/45 136/28/45
f 138/28/46 136/29/46 120/30/46
f 120/30/46 122/34/46 138/28/46
f 135/28/47 137/29/47 121/30/47
f 121/30/47 119/34/47 135/28/47
f 133/28/48 135/29/48 119/30/48
f 119/30/48 117/34/48 133/28/48
f 131/28/49 133/29/49 117/30/49
f 117/30/49 115/34/49 131/28/49
f 129/28/12 131/29/12 115/30/12
f 115/30/12 113/34/12 129/28/12
f 127/28/50 129/29/50 113/30/50
f 113/30/50 111/34/50 127/28/50
f 123/28/51 127/29/51 111/30/51
f 111/30/51 107/34/51 123/28/51
f 124/28/52 123/29/52 107/30/52
f 107/30/52 110/34/52 124/28/52
f 139/3/18 140/4/18 141/1/18
f 141/1/18 142/2/18 139/3/18
f 143/3/2 144/4/2 145/1/2
f 145/1/2 146/2/2 143/3/2
f 139/3/3 142/4/3 144/1/3
f 144/1/3 143/2/3 139/3/3
f 142/3/4 141/4/4 145/1/4
f 145/1/4 144/2/4 142/3/4
f 141/3/5 140/4/5 146/1/5
f 146/1/5 145/2/5 141/3/5
f 147/3/18 148/4/18 149/1/18
f 149/1/18 150/2/18 147/3/18
f 151/3/2 152/4/2 153/1/2
f 153/1/2 154/2/2 151/3/2
f 147/3/3 150/4/3 152/1/3
f 152/1/3 151/2/3 147/3/3
f 150/3/4 149/4/4 153/1/4
f 153/1/4 152/2/4 150/3/4
f 149/3/5 148/4/5 154/1/5
f 154/1/5 153/2/5 149/3/5
f 155/3/18 156/4/18 157/1/18
f 157/1/18 158/2/18 155/3/18
f 159/3/2 160/4/2 161/1/2
f 161/1/2 162/2/2 159/3/2
f 155/3/3 158/4/3 160/1/3
f 160/1/3 159/2/3 155/3/3
f 158/3/4 157/4/4 161/1/4
f 161/1/4 160/2/4 158/3/4
f 157/3/5 156/4/5 162/1/5
f 162/1/5 161/2/5 157/3/5
f 163/3/18 164/4/18 165/1/18
f 165/1/18 166/2/18 163/3/18
f 167/3/2 168/4/2 169/1/2
f 169/1/2 170/2/2 167/3/2
f 163/3/3 166/4/3 168/1/3
f 168/1/3 167/2/3 163/3/3
f 166/3/4 165/4/4 169/1/4
f 169/1/4 168/2/4 166/3/4
f 165/3/5 164/4/5 170/1/5
f 170/1/5 169/2/5 165/3/5
f 171/3/18 172/4/18 173/1/18
f 173/1/18 174/2/18 171/3/18
f 175/3/2 176/4/2 177/1/2
f 177/1/2 178/2/2 175/3/2
f 171/3/3 174/4/3 176/1/3
f 176/1/3 175/2/3 171/3/3
f 174/3/4 173/4/4 177/1/4
f 177/1/4 176/2/4 174/3/4
f 173/3/5 172/4/5 178/1/5
f 178/1/5 177/2/5 173/3/5
f 179/3/18 180/4/18 181/1/18
f 181/1/18 182/2/18 179/3/18
f 183/3/2 184/4/2 185/1/2
f 185/1/2 186/2/2 183/3/2
f 179/3/3 182/4/3 184/1/3
f 184/1/3 183/2/3 179/3/3
f 182/3/4 181/4/4 185/1/4
f 185/1/4 184/2/4 182/3/4
f 181/3/5 180/4/5 186/1/5
f 186/1/5 185/2/5 181/3/5
f 187/3/18 188/4/18 189/1/19
f 189/1/19 190/2/19 187/3/18
f 191/3/2 192/4/2 193/1/2
f 193/1/2 194/2/2 191/3/2
f 187/3/3 190/4/3 192/1/3
f 192/1/3 191/2/3 187/3/3
f 190/3/4 189/4/4 193/1/4
f 193/1/4 192/2/4 190/3/4
f 189/3/5 188/4/5 194/1/5
f 194/1/5 193/2/5 189/3/5
f 195/3/18 196/4/18 197/1/18
f 197/1/18 198/2/18 195/3/18
f 199/3/53 200/4/53 201/1/53
f 201/1/53 202/2/53 199/3/53
f 195/3/3 198/4/3 200/1/3
f 200/1/3 199/2/3 195/3/3
f 198/3/4 197/4/4 201/1/4
f 201/1/4 200/2/4 198/3/4
f 197/3/5 196/4/5 202/1/5
f 202/1/5 201/2/5 197/3/5
f 203/3/18 204/4/18 205/1/19
f 205/1/19 206/2/19 203/3/18
f 207/3/53 208/4/53 209/1/53
f 209/1/53 210/2/53 207/3/53
f 203/3/3 206/4/3 208/1/3
f 208/1/3 207/2/3 203/3/3
f 206/3/4 205/4/4 209/1/4
f 209/1/4 208/2/4 206/3/4
f 205/3/5 204/4/5 210/1/5
f 210/1/5 209/2/5 205/3/5
f 211/3/18 212/4/18 213/1/19
f 213/1/19 214/2/19 211/3/18
f 215/3/1 216/4/53 217/1/53
f 217/1/53 218/2/1 215/3/1
f 211/3/3 214/4/3 216/1/3
f 216/1/3 215/2/3 211/3/3
f 214/3/4 213/4/4 217/1/4
f 217/1/4 216/2/4 214/3/4
f 213/3/5 212/4/5 218/1/5
f 218/1/5 217/2/5 213/3/5
f 219/3/18 220/4/18 221/1/19
f 221/1/19 222/2/19 219/3/18
f 223/3/1 224/4/53 225/1/53
f 225/1/53 226/2/1 223/3/1
f 219/3/3 222/4/3 224/1/3
f 224/1/3 223/2/3 219/3/3
f 222/3/4 221/4/4 225/1/4
f 225/1/4 224/2/4 222/3/4
f 221/3/5 220/4/5 226/1/5
f 226/1/5 225/2/5 221/3/5
f 227/36/54 228/37/54 229/38/54
f 229/38/54 230/39/54 227/36/54
f 231/36/55 232/37/55 233/38/55
f 233/38/55 234/39/55 231/36/55
f 235/40/56 236/41/56 228/42/56
f 228/42/56 227/43/56 235/40/56
f 236/36/6 237/37/6 229/38/6
f 229/38/6 228/39/6 236/36/6
f 238/36/6 239/37/6 233/38/6
f 233/38/6 232/39/6 238/36/6
f 239/40/57 240/41/57 234/42/57
f 234/42/57 233/43/57 239/40/57
f 240/36/4 241/37/4 231/38/4
f 231/38/4 234/39/4 240/36/4
f 242/36/4 235/37/4 227/38/4
f 227/38/4 230/39/4 242/36/4
f 243/36/54 244/37/54 245/38/54
f 245/38/54 246/39/54 243/36/54
f 247/36/55 248/37/55 249/38/55
f 249/38/55 250/39/55 247/36/55
f 251/40/56 252/41/56 244/42/56
f 244/42/56 243/43/56 251/40/56
f 252/36/6 253/37/6 245/38/6
f 245/38/6 244/39/6 252/36/6
f 254/36/6 255/37/6 249/38/6
f 249/38/6 248/39/6 254/36/6
f 255/40/57 256/41/57 250/42/57
f 250/42/57 249/43/57 255/40/57
f 256/36/4 257/37/4 247/38/4
f 247/38/4 250/39/4 256/36/4
f 258/36/4 251/37/4 243/38/4
f 243/38/4 246/39/4 258/36/4
f 259/40/58 260/42/58 261/43/58
f 259/40/58 262/41/58 260/42/58
f 262/40/12 263/42/12 260/43/12
f 262/40/12 264/41/12 263/42/12
f 264/40/59 265/42/59 263/43/59
f 264/40/59 266/41/59 265/42/59
f 266/40/60 267/42/60 265/43/60
f 266/40/60 268/41/60 267/42/60
f 268/40/13 269/42/13 267/43/13
f 268/40/13 270/41/13 269/42/13
f 270/40/61 261/42/61 269/43/61
f 270/40/61 259/41/61 261/42/61
f 271/42/11 261/40/11 260/41/11
f 271/42/11 260/40/11 263/41/11
f 271/42/11 263/40/11 265/41/11
f 271/42/11 265/40/11 267/41/11
f 271/42/11 267/40/11 269/41/11
f 271/42/11 269/40/11 261/41/11
f 272/40/58 273/42/58 274/43/58
f 272/40/58 275/41/58 273/42/58
f 275/40/12 276/42/12 273/43/12
f 275/40/12 277/41/12 276/42/12
f 277/40/59 278/42/59 276/43/59
f 277/40/59 279/41/59 278/42/59
f 279/40/60 280/42/60 278/43/60
f 279/40/60 281/41/60 280/42/60
f 281/40/13 282/42/13 280/43/13
f 281/40/13 283/41/13 282/42/13
f 283/40/61 274/42/61 282/43/61
f 283/40/61 272/41/61 274/42/61
f 284/42/11 274/40/11 273/41/11
f 284/42/11 273/40/11 276/41/11
f 284/42/11 276/40/11 278/41/11
f 284/42/11 278/40/11 280/41/11
f 284/42/11 280/40/11 282/41/11
f 284/42/11 282/40/11 274/41/11
f 285/40/58 286/42/58 287/43/58
f 285/40/58 288/41/58 286/42/58
f 288/40/12 289/42/12 286/43/12
f 288/40/12 290/41/12 289/42/12
f 290/40/59 291/42/59 289/43/59
f 290/40/59 292/41/59 291/42/59
f 292/40/60 293/42/60 291/43/60
f 292/40/60 294/41/60 293/42/60
f 294/40/13 295/42/13 293/43/13
f 294/40/13 296/41/13 295/42/13
f 296/40/61 287/42/61 295/43/61
f 296/40/61 285/41/61 287/42/61
f 297/42/11 287/40/11 286/41/11
f 297/42/11 286/40/11 289/41/11
f 297/42/11 289/40/11 291/41/11
f 297/42/11 291/40/11 293/41/11
f 297/42/11 293/40/11 295/41/11
f 297/42/11 295/40/11 287/41/11
f 298/40/58 299/42/58 300/43/58
f 298/40/58 301/41/58 299/42/58
f 301/40/12 302/42/12 299/43/12
f 301/40/12 303/41/12 302/42/12
f 303/40/59 304/42/59 302/43/59
f 303/40/59 305/41/59 304/42/59
f 305/40/60 306/42/60 304/43/60
f 305/40/60 307/41/60 306/42/60
f 307/40/13 308/42/13 306/43/13
f 307/40/13 309/41/13 308/42/13
f 309/40/61 300/42/61 308/43/61
f 309/40/61 298/41/61 300/42/61
f 310/42/11 300/40/11 299/41/11
f 310/42/11 299/40/11 302/41/11
f 310/42/11 302/40/11 304/41/11
f 310/42/11 304/40/11 306/41/11
f 310/42/11 306/40/11 308/41/11
f 310/42/11 308/40/11 300/41/11
f 311/40/62 312/41/62 313/42/62
f 313/42/62 314/43/62 311/40/62
f 315/40/63 311/41/63 314/42/63
f 314/42/63 316/43/63 315/40/63
f 317/40/12 315/41/12 316/42/12
f 316/42/12 318/43/12 317/40/12
f 319/40/64 317/41/64 318/42/64
f 318/42/64 320/43/64 319/40/64
f 321/40/65 319/41/65 320/42/65
f 320/42/65 322/43/65 321/40/65
f 323/40/66 321/41/66 322/42/66
f 322/42/66 324/43/66 323/40/66
f 325/40/67 323/41/67 324/42/67
f 324/42/67 326/43/67 325/40/67
f 327/40/13 325/41/13 326/42/13
f 326/42/13 328/43/13 327/40/13
f 329/40/68 327/41/68 328/42/68
f 328/42/68 330/43/68 329/40/68
f 312/40/11 311/41/11 315/42/11
f 312/40/11 315/42/11 317/43/11
f 312/40/11 317/42/11 319/43/11
f 312/40/11 319/42/11 321/43/11
f 312/40/11 321/42/11 323/43/11
f 312/40/11 323/42/11 325/43/11
f 312/40/11 325/42/11 327/43/11
f 312/40/11 327/42/11 329/43/11
f 331/40/62 332/41/62 333/42/62
f 333/42/62 334/43/62 331/40/62
f 335/40/63 331/41/63 334/42/63
f 334/42/63 336/43/63 335/40/63
f 337/40/12 335/41/12 336/42/12
f 336/42/12 338/43/12 337/40/12
f 339/40/64 337/41/64 338/42/64
f 338/42/64 340/43/64 339/40/64
f 341/40/65 339/41/65 340/42/65
f 340/42/65 342/43/65 341/40/65
f 343/40/66 341/41/66 342/42/66
f 342/42/66 344/43/66 343/40/66
f 345/40/67 343/41/67 344/42/67
f 344/42/67 346/43/67 345/40/67
f 347/40/13 345/41/13 346/42/13
f 346/42/13 348/43/13 347/40/13
f 349/40/68 347/41/68 348/42/68
f 348/42/68 350/43/68 349/40/68
f 332/40/11 331/41/11 335/42/11
f 332/40/11 335/42/11 337/43/11
f 332/40/11 337/42/11 339/43/11
f 332/40/11 339/42/11 341/43/11
f 332/40/11 341/42/11 343/43/11
f 332/40/11 343/42/11 345/43/11
f 332/40/11 345/42/11 347/43/11
f 332/40/11 347/42/11 349/43/11
f 351/40/62 352/41/62 353/42/62
f 353/42/62 354/43/62 351/40/62
f 355/40/63 351/41/63 354/42/63
f 354/42/63 356/43/63 355/40/63
f 357/40/12 355/41/12 356/42/12
f 356/42/12 358/43/12 357/40/12
f 359/40/64 357/41/64 358/42/64
f 358/42/64 360/43/64 359/40/64
f 361/40/65 359/41/65 360/42/65
f 360/42/65 362/43/65 361/40/65
f 363/40/66 361/41/66 362/42/66
f 362/42/66 364/43/66 363/40/66
f 365/40/67 363/41/67 364/42/67
f 364/42/67 366/43/67 365/40/67
f 367/40/13 365/41/13 366/42/13
f 366/42/13 368/43/13 367/40/13
f 369/40/68 367/41/68 368/42/68
f 368/42/68 370/43/68 369/40/68
f 352/40/11 351/41/11 355/42/11
f 352/40/11 355/42/11 357/43/11
f 352/40/11 357/42/11 359/43/11
f 352/40/11 359/42/11 361/43/11
f 352/40/11 361/42/11 363/43/11
f 352/40/11 363/42/11 365/43/11
f 352/40/11 365/42/11 367/43/11
f 352/40/11 367/42/11 369/43/11
f 371/40/62 372/41/62 373/42/62
f 373/42/62 374/43/62 371/40/62
f 375/40/63 371/41/63 374/42/63
f 374/42/63 376/43/63 375/40/63
f 377/40/12 375/41/12 376/42/12
f 376/42/12 378/43/12 377/40/12
f 379/40/64 377/41/64 378/42/64
f 378/42/64 380/43/64 379/40/64
f 381/40/65 379/41/65 380/42/65
f 380/42/65 382/43/65 381/40/65
f 383/40/66 381/41/66 382/42/66
f 382/42/66 384/43/66 383/40/66
f 385/40/67 383/41/67 384/42/67
f 384/42/67 386/43/67 385/40/67
f 387/40/13 385/41/13 386/42/13
f 386/42/13 388/43/13 387/40/13
f 389/40/68 387/41/68 388/42/68
f 388/42/68 390/43/68 389/40/68
f 372/40/11 371/41/11 375/42/11
f 372/40/11 375/42/11 377/43/11
f 372/40/11 377/42/11 379/43/11
f 372/40/11 379/42/11 381/43/11
f 372/40/11 381/42/11 383/43/11
f 372/40/11 383/42/11 385/43/11
f 372/40/11 385/42/11 387/43/11
f 372/40/11 387/42/11 389/43/11
f 312/40/69 329/41/69 330/42/69
f 330/42/69 313/43/69 312/40/69
f 332/40/69 349/41/69 350/42/69
f 350/42/69 333/43/69 332/40/69
f 352/40/69 369/41/69 370/42/69
f 370/42/69 353/43/69 352/40/69
f 372/40/69 389/41/69 390/42/69
f 390/42/69 373/43/69 372/40/69
f 391/44/13 392/45/13 393/46/13
f 393/46/13 394/47/13 391/44/13
f 392/45/6 395/44/6 396/47/6
f 396/47/6 393/46/6 392/45/6
f 395/44/12 397/45/12 398/46/12
f 398/46/12 396/47/12 395/44/12
f 397/45/4 391/44/4 394/47/4
f 394/47/4 398/46/4 397/45/4
f 399/48/11 400/49/11 401/50/11
f 401/50/11 402/51/11 399/48/11
f 394/52/70 393/53/70 403/54/71
f 403/54/71 404/55/72 394/52/70
f 404/55/72 403/54/71 400/56/73
f 400/56/73 399/57/73 404/55/72
f 393/58/74 396/59/74 405/60/75
f 405/60/75 403/61/74 393/58/74
f 403/62/76 405/60/75 401/63/76
f 401/63/76 400/64/76 403/62/76
f 396/53/77 398/65/77 406/66/78
f 406/66/78 405/67/79 396/53/77
f 405/67/79 406/66/78 402/68/80
f 402/68/80 401/69/80 405/67/79
f 398/59/81 394/58/81 404/61/82
f 404/61/82 406/60/83 398/59/81
f 406/60/83 404/61/82 399/70/84
f 399/70/84 402/71/84 406/60/83
f 407/72/10 408/73/10 409/74/10
f 409/74/10 410/75/10 407/72/10
f 411/72/11 412/73/11 413/74/11
f 413/74/11 414/75/11 411/72/11
f 407/36/13 410/76/13 412/77/13
f 412/77/13 411/78/13 407/36/13
f 410/72/6 409/73/6 413/74/6
f 413/74/6 412/75/6 410/72/6
f 408/72/4 407/73/4 411/74/4
f 411/74/4 414/75/4 408/72/4
f 415/79/10 416/80/10 417/81/10
f 417/81/10 418/82/10 419/83/10
f 419/83/10 420/84/10 421/85/10
f 417/81/10 419/83/10 421/85/10
f 421/85/10 422/86/10 423/87/10
f 423/87/10 424/88/10 425/89/10
f 421/85/10 423/87/10 425/89/10
f 417/81/10 421/85/10 425/89/10
f 415/79/10 417/81/10 425/89/10
f 426/90/10 415/79/10 425/89/10
f 425/89/6 424/88/28 427/91/28
f 427/91/28 428/92/6 425/89/6
f 424/93/29 423/94/29 429/94/29
f 429/94/29 427/93/29 424/93/29
f 423/95/30 422/96/30 430/97/85
f 430/97/85 429/98/30 423/95/30
f 422/99/31 421/81/86 431/100/86
f 431/100/86 430/97/87 422/99/31
f 421/81/86 420/82/59 432/101/59
f 432/101/59 431/100/86 421/81/86
f 420/82/59 419/102/4 433/103/4
f 433/103/4 432/101/59 420/82/59
f 419/102/4 418/104/60 434/105/60
f 434/105/60 433/103/4 419/102/4
f 418/104/60 417/106/88 435/107/88
f 435/107/88 434/105/60 418/104/60
f 417/106/88 416/108/13 436/109/13
f 436/109/13 435/107/88 417/106/88
f 416/108/13 415/110/89 437/111/89
f 437/111/89 436/109/13 416/108/13
f 415/110/89 426/112/61 438/113/61
f 438/113/61 437/111/89 415/110/89
f 426/112/61 425/89/6 428/92/6
f 428/92/6 438/113/61 426/112/61
f 428/114/11 427/93/11 429/94/11
f 429/94/11 430/115/11 431/116/11
f 431/116/11 432/117/11 433/118/11
f 429/94/11 431/116/11 433/118/11
f 433/118/11 434/119/11 435/120/11
f 435/120/11 436/121/11 437/122/11
f 433/118/11 435/120/11 437/122/11
f 429/94/11 433/118/11 437/122/11
f 428/114/11 429/94/11 437/122/11
f 438/123/11 428/114/11 437/122/11
f 428/124/11 439/125/11 440/126/11
f 441/127/90 442/128/90 443/129/90
f 443/129/90 444/130/90 441/127/90
f 445/129/91 446/130/91 442/127/91
f 442/127/91 441/128/91 445/129/91
f 441/131/13 444/132/13 447/133/13
f 447/133/13 448/134/13 441/131/13
f 448/134/13 449/135/13 445/136/13
f 445/136/13 441/131/13 448/134/13
f 450/127/92 451/128/92 452/129/92
f 452/129/92 453/130/92 450/127/92
f 439/129/93 454/130/93 451/127/93
f 451/127/93 450/128/93 439/129/93
f 450/137/12 453/138/12 455/139/12
f 455/139/12 456/140/12 450/137/12
f 440/141/12 439/142/12 450/137/12
f 450/137/12 456/140/12 440/141/12
f 430/143/11 457/144/11 458/145/11
f 459/127/94 460/128/94 461/129/94
f 461/129/94 462/130/94 459/127/94
f 463/129/13 464/130/13 460/127/13
f 460/127/13 459/128/13 463/129/13
f 465/146/6 466/147/6 467/148/6
f 467/148/6 468/149/6 465/146/6
f 469/150/6 468/149/6 467/148/6
f 467/148/6 470/151/6 469/150/6
f 471/127/95 467/128/95 466/129/95
f 466/129/95 472/130/95 471/127/95
f 457/129/12 470/130/12 467/127/12
f 467/127/12 471/128/12 457/129/12
f 471/148/4 472/147/4 473/146/4
f 473/146/4 474/149/4 471/148/4
f 474/149/4 458/152/4 457/153/4
f 457/153/4 471/148/4 474/149/4
f 451/137/13 475/140/13 476/139/13
f 476/139/13 452/138/13 451/137/13
f 442/131/12 477/134/12 478/133/12
f 478/133/12 443/132/12 442/131/12
f 479/154/6 480/155/6 459/156/6
f 459/156/6 462/157/6 479/154/6
f 460/156/4 481/155/4 482/154/4
f 482/154/4 461/157/4 460/156/4
f 445/158/11 449/159/35 483/160/11
f 483/160/11 433/161/11 445/158/11
f 484/135/12 477/134/12 442/131/12
f 442/131/12 446/136/12 484/135/12
f 463/162/6 459/156/6 480/155/6
f 480/155/6 485/163/6 463/162/6
f 463/164/11 485/165/11 436/166/11
f 460/156/4 464/167/4 486/168/4
f 486/168/4 481/155/4 460/156/4
f 475/140/13 451/137/13 454/142/13
f 454/142/13 487/141/13 475/140/13
f 428/124/11 487/169/11 454/170/11
f 454/170/11 439/125/11 428/124/11
f 430/143/11 469/171/11 470/172/11
f 470/172/11 457/144/11 430/143/11
f 446/173/11 445/158/11 433/161/11
f 433/161/11 484/174/11 446/173/11
f 488/175/11 486/176/11 464/177/11
f 436/166/11 488/175/11 464/177/11
f 436/166/11 464/177/11 463/164/11
f 489/178/96 490/179/96 491/180/10
f 491/180/10 492/181/10 489/178/96
f 490/182/12 489/183/12 493/184/97
f 493/184/97 494/185/97 490/182/12
f 494/185/97 493/184/97 495/186/11
f 495/186/11 496/187/11 494/185/97
f 496/187/11 495/186/11 497/188/98
f 497/188/98 498/189/98 496/187/11
f 498/189/98 497/188/98 499/190/99
f 499/190/99 500/191/99 498/189/98
f 491/180/10 500/191/99 499/190/99
f 499/190/99 492/181/10 491/180/10
f 497/192/4 495/193/4 493/194/4
f 493/194/4 489/195/4 492/196/4
f 497/192/4 493/194/4 492/196/4
f 499/197/4 497/192/4 492/196/4
f 501/195/6 502/194/6 503/193/6
f 503/193/6 504/192/6 505/197/6
f 501/195/6 503/193/6 505/197/6
f 506/196/6 501/195/6 505/197/6
f 506/198/10 505/199/99 507/200/99
f 507/200/99 508/201/10 506/198/10
f 508/201/10 509/202/96 501/203/96
f 501/203/96 506/198/10 508/201/10
f 502/204/97 501/205/12 509/206/12
f 509/206/12 510/207/97 502/204/97
f 510/207/97 511/208/11 503/209/11
f 503/209/11 502/204/97 510/207/97
f 504/210/98 503/209/11 511/208/11
f 511/208/11 512/211/98 504/210/98
f 507/200/99 505/199/99 504/210/98
f 504/210/98 512/211/98 507/200/99
f 513/212/100 514/213/101 515/214/10
f 515/214/10 516/215/102 517/216/103
f 513/212/100 515/214/10 517/216/103
f 517/216/103 516/215/102 518/217/104
f 518/217/104 519/218/105 517/216/103
f 519/218/105 518/217/104 520/219/12
f 520/219/12 521/220/12 519/218/105
f 521/221/106 520/222/106 522/223/107
f 522/223/107 523/224/108 521/221/106
f 524/225/11 525/226/109 526/227/110
f 524/225/11 526/227/110 523/224/108
f 524/225/11 523/224/108 522/223/107
f 527/228/111 528/229/111 529/230/112
f 529/230/112 530/231/113 525/226/109
f 527/228/111 529/230/112 525/226/109
f 524/225/11 527/228/111 525/226/109
f 531/232/114 532/233/111 533/234/111
f 533/234/111 534/235/114 531/232/114
f 534/235/114 535/236/115 536/237/116
f 536/237/116 531/232/114 534/235/114
f 537/238/117 538/239/117 536/237/116
f 539/240/118 537/238/117 536/237/116
f 539/240/118 536/237/116 535/236/115
f 540/241/119 541/242/117 542/243/117
f 542/243/117 515/214/10 514/213/101
f 542/243/117 514/213/101 543/244/119
f 540/241/119 542/243/117 543/244/119
f 544/245/4 545/246/4 527/247/4
f 527/247/4 524/248/4 522/249/4
f 522/249/4 520/250/4 518/251/4
f 518/251/4 516/252/4 515/253/4
f 522/249/4 518/251/4 515/253/4
f 527/247/4 522/249/4 515/253/4
f 544/245/4 527/247/4 515/253/4
f 542/254/4 544/245/4 515/253/4
f 546/252/6 547/251/6 548/250/6
f 548/250/6 549/249/6 550/248/6
f 550/248/6 532/247/6 531/246/6
f 531/246/6 536/245/6 538/254/6
f 550/248/6 531/246/6 538/254/6
f 548/250/6 550/248/6 538/254/6
f 546/252/6 548/250/6 538/254/6
f 551/253/6 546/252/6 538/254/6
f 552/178/96 553/179/120 554/180/10
f 554/180/10 555/181/10 552/178/96
f 553/182/12 552/183/12 556/184/97
f 556/184/97 557/185/97 553/182/12
f 557/185/97 556/184/97 558/186/11
f 558/186/11 559/187/11 557/185/97
f 559/187/11 558/186/11 560/188/98
f 560/188/98 561/189/98 559/187/11
f 561/189/98 560/188/98 562/190/99
f 562/190/99 563/191/99 561/189/98
f 554/180/10 563/191/99 562/190/99
f 562/190/99 555/181/10 554/180/10
f 560/192/4 558/193/4 556/194/4
f 556/194/4 552/195/4 555/196/4
f 560/192/4 556/194/4 555/196/4
f 562/197/4 560/192/4 555/196/4
f 564/195/6 565/194/6 566/193/6
f 566/193/6 567/192/6 568/197/6
f 564/195/6 566/193/6 568/197/6
f 569/196/6 564/195/6 568/197/6
f 569/198/10 568/199/99 570/200/99
f 570/200/99 571/201/10 569/198/10
f 571/201/10 572/202/120 564/203/96
f 564/203/96 569/198/10 571/201/10
f 565/204/97 564/205/12 572/206/12
f 572/206/12 573/207/97 565/204/97
f 573/207/97 574/208/11 566/209/11
f 566/209/11 565/204/97 573/207/97
f 567/210/98 566/209/11 574/208/11
f 574/208/11 575/211/98 567/210/98
f 570/200/99 568/199/99 567/210/98
f 567/210/98 575/211/98 570/200/99
f 576/255/121 577/213/122 578/214/10
f 578/214/10 579/215/102 580/216/123
f 576/255/121 578/214/10 580/216/123
f 580/216/123 579/215/102 581/217/104
f 581/217/104 582/218/105 580/216/123
f 582/218/105 581/217/104 583/219/12
f 583/219/12 584/220/12 582/218/105
f 584/221/106 583/222/106 585/223/107
f 585/223/107 586/224/108 584/221/106
f 587/225/11 588/226/124 589/227/125
f 587/225/11 589/227/125 586/224/108
f 587/225/11 586/224/108 585/223/107
f 590/228/111 591/229/111 592/230/112
f 592/230/112 593/231/126 588/226/124
f 590/228/111 592/230/112 588/226/124
f 587/225/11 590/228/111 588/226/124
f 594/232/114 595/233/111 596/234/111
f 596/234/111 597/235/114 594/232/114
f 597/235/114 598/236/116 599/237/116
f 599/237/116 594/232/114 597/235/114
f 600/239/117 599/237/116 598/236/116
f 598/236/116 601/238/117 600/239/117
f 602/241/119 603/242/117 604/243/117
f 604/243/117 578/214/10 577/213/122
f 604/243/117 577/213/122 605/244/127
f 602/241/119 604/243/117 605/244/127
f 606/245/4 607/246/4 590/247/4
f 590/247/4 587/248/4 585/249/4
f 585/249/4 583/250/4 581/251/4
f 581/251/4 579/252/4 578/253/4
f 585/249/4 581/251/4 578/253/4
f 590/247/4 585/249/4 578/253/4
f 606/245/4 590/247/4 578/253/4
f 604/254/4 606/245/4 578/253/4
f 608/252/6 609/251/6 610/250/6
f 610/250/6 611/249/6 612/248/6
f 612/248/6 595/247/6 594/246/6
f 594/246/6 599/245/6 600/254/6
f 612/248/6 594/246/6 600/254/6
f 610/250/6 612/248/6 600/254/6
f 608/252/6 610/250/6 600/254/6
f 613/253/6 608/252/6 600/254/6
f 614/178/96 615/179/96 616/180/10
f 616/180/10 617/181/10 614/178/96
f 615/182/12 614/183/12 618/184/97
f 618/184/97 619/185/97 615/182/12
f 619/185/97 618/184/97 620/186/11
f 620/186/11 621/187/11 619/185/97
f 621/187/11 620/186/11 622/188/98
f 622/188/98 623/189/98 621/187/11
f 623/189/98 622/188/98 624/190/99
f 624/190/99 625/191/99 623/189/98
f 616/180/10 625/191/99 624/190/99
f 624/190/99 617/181/10 616/180/10
f 622/192/4 620/193/4 618/194/4
f 618/194/4 614/195/4 617/196/4
f 622/192/4 618/194/4 617/196/4
f 624/197/4 622/192/4 617/196/4
f 626/195/6 627/194/6 628/193/6
f 628/193/6 629/192/6 630/197/6
f 626/195/6 628/193/6 630/197/6
f 631/196/6 626/195/6 630/197/6
f 631/198/10 630/199/99 632/200/99
f 632/200/99 633/201/10 631/198/10
f 633/201/10 634/202/96 626/203/96
f 626/203/96 631/198/10 633/201/10
f 627/204/97 626/205/12 634/206/12
f 634/206/12 635/207/97 627/204/97
f 635/207/97 636/208/11 628/209/11
f 628/209/11 627/204/97 635/207/97
f 629/210/98 628/209/11 636/208/11
f 636/208/11 637/211/98 629/210/98
f 632/200/99 630/199/99 629/210/98
f 629/210/98 637/211/98 632/200/99
f 638/256/128 639/257/102 640/258/102
f 640/258/102 641/259/10 642/260/129
f 640/258/102 642/260/129 643/261/130
f 638/256/128 640/258/102 643/261/130
f 644/262/131 645/263/104 646/264/104
f 646/264/104 640/258/102 639/257/102
f 644/262/131 646/264/104 639/257/102
f 647/265/12 646/264/104 645/263/104
f 645/263/104 648/266/12 647/265/12
f 648/267/132 649/268/133 650/269/107
f 650/269/107 647/270/132 648/267/132
f 651/271/134 652/272/11 650/269/107
f 650/269/107 649/268/133 653/273/135
f 651/271/134 650/269/107 653/273/135
f 654/274/136 651/271/134 653/273/135
f 655/275/137 656/233/111 652/272/11
f 657/276/138 655/275/137 652/272/11
f 657/276/138 652/272/11 651/271/134
f 655/275/137 658/277/139 659/232/114
f 659/232/114 656/233/111 655/275/137
f 660/237/116 659/232/114 658/277/139
f 658/277/139 661/278/140 660/237/116
f 661/278/140 662/279/141 663/239/117
f 663/239/117 660/237/116 661/278/140
f 664/280/142 642/260/129 641/259/10
f 641/259/10 663/239/117 662/279/141
f 664/280/142 641/259/10 662/279/141
f 665/245/4 666/246/4 667/247/4
f 667/247/4 668/248/4 669/249/4
f 669/249/4 670/250/4 671/251/4
f 671/251/4 672/252/4 673/253/4
f 669/249/4 671/251/4 673/253/4
f 667/247/4 669/249/4 673/253/4
f 665/245/4 667/247/4 673/253/4
f 674/254/4 665/245/4 673/253/4
f 640/252/6 646/251/6 647/250/6
f 647/250/6 650/249/6 652/248/6
f 652/248/6 656/247/6 659/246/6
f 659/246/6 660/245/6 663/254/6
f 652/248/6 659/246/6 663/254/6
f 647/250/6 652/248/6 663/254/6
f 640/252/6 647/250/6 663/254/6
f 641/253/6 640/252/6 663/254/6
f 675/178/96 676/179/120 677/180/10
f 677/180/10 678/181/10 675/178/96
f 676/182/12 675/183/12 679/184/97
f 679/184/97 680/185/97 676/182/12
f 680/185/97 679/184/97 681/186/11
f 681/186/11 682/187/11 680/185/97
f 682/187/11 681/186/11 683/188/98
f 683/188/98 684/189/98 682/187/11
f 684/189/98 683/188/98 685/190/99
f 685/190/99 686/191/99 684/189/98
f 677/180/10 686/191/99 685/190/99
f 685/190/99 678/181/10 677/180/10
f 683/192/4 681/193/4 679/194/4
f 679/194/4 675/195/4 678/196/4
f 683/192/4 679/194/4 678/196/4
f 685/197/4 683/192/4 678/196/4
f 687/195/6 688/194/6 689/193/6
f 689/193/6 690/192/6 691/197/6
f 687/195/6 689/193/6 691/197/6
f 692/196/6 687/195/6 691/197/6
f 692/198/10 691/199/99 693/200/99
f 693/200/99 694/201/10 692/198/10
f 694/201/10 695/202/120 687/203/96
f 687/203/96 692/198/10 694/201/10
f 688/204/97 687/205/12 695/206/12
f 695/206/12 696/207/97 688/204/97
f 696/207/97 697/208/11 689/209/11
f 689/209/11 688/204/97 696/207/97
f 690/210/98 689/209/11 697/208/11
f 697/208/11 698/211/98 690/210/98
f 693/200/99 691/199/99 690/210/98
f 690/210/98 698/211/98 693/200/99
f 699/256/128 700/257/102 701/258/102
f 701/258/102 702/259/10 703/260/143
f 701/258/102 703/260/143 704/261/130
f 699/256/128 701/258/102 704/261/130
f 705/264/104 701/258/102 700/257/102
f 700/257/102 706/263/104 705/264/104
f 706/263/104 707/266/12 708/265/12
f 708/265/12 705/264/104 706/263/104
f 709/269/107 708/270/106 707/267/106
f 707/267/106 710/268/107 709/269/107
f 711/271/144 712/272/11 709/269/107
f 709/269/107 710/268/107 713/273/145
f 711/271/144 709/269/107 713/273/145
f 714/274/146 711/271/144 713/273/145
f 715/275/147 716/233/111 712/272/11
f 717/276/148 715/275/147 712/272/11
f 717/276/148 712/272/11 711/271/144
f 715/275/147 718/277/139 719/232/114
f 719/232/114 716/233/111 715/275/147
f 720/237/116 719/232/114 718/277/139
f 718/277/139 721/278/140 720/237/116
f 721/278/140 722/279/149 723/239/117
f 723/239/117 720/237/116 721/278/140
f 724/280/150 703/260/143 702/259/10
f 702/259/10 723/239/117 722/279/149
f 724/280/150 702/259/10 722/279/149
f 725/245/4 726/246/4 727/247/4
f 727/247/4 728/248/4 729/249/4
f 729/249/4 730/250/4 731/251/4
f 731/251/4 732/252/4 733/253/4
f 729/249/4 731/251/4 733/253/4
f 727/247/4 729/249/4 733/253/4
f 725/245/4 727/247/4 733/253/4
f 734/254/4 725/245/4 733/253/4
f 701/252/6 705/251/6 708/250/6
f 708/250/6 709/249/6 712/248/6
f 712/248/6 716/247/6 719/246/6
f 719/246/6 720/245/6 723/254/6
f 712/248/6 719/246/6 723/254/6
f 708/250/6 712/248/6 723/254/6
f 701/252/6 708/250/6 723/254/6
f 702/253/6 701/252/6 723/254/6
f 667/228/111 666/281/114 735/282/139
f 735/282/139 736/283/137 667/228/111
f 737/284/151 738/226/152 668/225/11
f 667/228/111 736/283/137 739/285/153
f 668/225/11 667/228/111 739/285/153
f 737/284/151 668/225/11 739/285/153
f 740/286/140 665/287/116 674/243/117
f 674/243/117 741/288/141 740/286/140
f 735/282/139 666/281/114 665/287/116
f 665/287/116 740/286/140 735/282/139
f 673/214/10 742/213/154 743/289/119
f 673/214/10 743/289/119 744/290/127
f 745/291/155 741/288/141 674/243/117
f 744/290/127 745/291/155 674/243/117
f 673/214/10 744/290/127 674/243/117
f 727/228/111 726/281/114 746/282/139
f 746/282/139 747/283/147 727/228/111
f 748/284/153 749/226/152 728/225/11
f 727/228/111 747/283/147 750/285/153
f 728/225/11 727/228/111 750/285/153
f 748/284/153 728/225/11 750/285/153
f 751/286/140 725/287/116 734/243/117
f 734/243/117 752/288/141 751/286/140
f 746/282/139 726/281/114 725/287/116
f 725/287/116 751/286/140 746/282/139
f 733/214/10 753/213/143 754/289/156
f 733/214/10 754/289/156 755/290/127
f 756/291/155 752/288/141 734/243/117
f 755/290/127 756/291/155 734/243/117
f 733/214/10 755/290/127 734/243/117
f 742/213/154 673/214/10 672/215/102
f 672/215/102 757/292/157 758/293/128
f 672/215/102 758/293/128 759/294/130
f 742/213/154 672/215/102 759/294/130
f 742/213/154 759/294/130 760/295/158
f 753/213/143 733/214/10 732/215/102
f 732/215/102 761/292/159 762/293/128
f 732/215/102 762/293/128 763/294/160
f 753/213/143 732/215/102 763/294/160
f 753/213/143 763/294/160 764/295/130
f 710/268/107 765/296/107 766/297/145
f 766/297/145 767/298/146 768/299/161
f 710/268/107 766/297/145 768/299/161
f 768/299/161 714/274/146 713/273/145
f 710/268/107 768/299/161 713/273/145
f 729/223/107 728/225/11 749/226/152
f 749/226/152 767/298/146 766/297/145
f 729/223/107 749/226/152 766/297/145
f 729/223/107 766/297/145 765/296/107
f 738/226/152 769/298/162 770/297/135
f 771/300/163 772/296/164 669/223/107
f 770/297/135 771/300/163 669/223/107
f 738/226/152 770/297/135 669/223/107
f 738/226/152 669/223/107 668/225/11
f 551/259/10 773/260/165 774/301/128
f 551/259/10 774/301/128 775/302/130
f 776/303/166 777/304/103 546/258/102
f 775/302/130 776/303/166 546/258/102
f 551/259/10 775/302/130 546/258/102
f 778/305/105 547/264/104 546/258/102
f 546/258/102 777/304/103 778/305/105
f 778/305/105 779/306/12 548/265/12
f 548/265/12 547/264/104 778/305/105
f 549/269/107 548/270/106 779/307/106
f 779/307/106 780/308/108 549/269/107
f 781/309/161 782/271/167 550/272/11
f 549/269/107 780/308/108 783/310/168
f 550/272/11 549/269/107 783/310/168
f 781/309/161 550/272/11 783/310/168
f 613/259/10 784/260/122 785/301/169
f 613/259/10 785/301/169 786/311/130
f 787/303/166 788/304/103 608/258/102
f 786/311/130 787/303/166 608/258/102
f 613/259/10 786/311/130 608/258/102
f 789/305/105 609/264/104 608/258/102
f 608/258/102 788/304/103 789/305/105
f 789/305/105 790/306/12 610/265/12
f 610/265/12 609/264/104 789/305/105
f 611/269/107 610/270/106 790/307/106
f 790/307/106 791/308/108 611/269/107
f 792/309/135 793/271/167 612/272/11
f 611/269/107 791/308/108 794/310/135
f 612/272/11 611/269/107 794/310/135
f 792/309/135 612/272/11 794/310/135
f 795/312/112 796/313/170 797/314/112
f 533/234/111 795/312/112 797/314/112
f 797/314/112 530/231/113 529/230/112
f 533/234/111 797/314/112 529/230/112
f 533/234/111 529/230/112 528/229/111
f 532/233/111 550/272/11 782/271/167
f 782/271/167 796/313/170 795/312/112
f 532/233/111 782/271/167 795/312/112
f 532/233/111 795/312/112 533/234/111
f 538/239/117 537/238/117 798/315/119
f 798/315/119 799/316/171 773/260/165
f 538/239/117 798/315/119 773/260/165
f 538/239/117 773/260/165 551/259/10
f 800/312/112 801/313/126 802/314/151
f 596/234/111 800/312/112 802/314/151
f 802/314/151 593/231/126 592/230/112
f 596/234/111 802/314/151 592/230/112
f 596/234/111 592/230/112 591/229/111
f 595/233/111 612/272/11 793/271/167
f 793/271/167 801/313/126 800/312/112
f 595/233/111 793/271/167 800/312/112
f 595/233/111 800/312/112 596/234/111
f 600/239/117 601/238/117 803/315/119
f 803/315/119 804/316/127 784/260/122
f 600/239/117 803/315/119 784/260/122
f 600/239/117 784/260/122 613/259/10
f 805/317/130 760/295/158 759/294/130
f 805/317/130 759/294/130 758/293/128
f 758/293/128 757/292/157 639/257/102
f 758/293/128 639/257/102 638/256/128
f 805/317/130 758/293/128 638/256/128
f 643/261/130 805/317/130 638/256/128
f 806/318/172 807/319/173 645/263/104
f 806/318/172 645/263/104 644/262/131
f 808/320/174 806/318/172 644/262/131
f 757/292/157 808/320/174 644/262/131
f 639/257/102 757/292/157 644/262/131
f 807/319/173 809/321/12 648/266/12
f 648/266/12 645/263/104 807/319/173
f 810/317/175 764/295/130 763/294/160
f 810/317/175 763/294/160 762/293/128
f 762/293/128 761/292/159 700/257/102
f 762/293/128 700/257/102 699/256/128
f 810/317/175 762/293/128 699/256/128
f 704/261/130 810/317/175 699/256/128
f 731/217/104 730/219/12 811/321/12
f 811/321/12 812/319/104 731/217/104
f 761/292/159 812/319/104 706/263/104
f 706/263/104 700/257/102 761/292/159
f 811/322/106 765/296/107 710/268/107
f 710/268/107 707/267/106 811/322/106
f 670/222/132 669/223/107 772/296/164
f 772/296/164 809/322/132 670/222/132
f 671/217/104 807/319/173 806/318/172
f 671/217/104 806/318/172 808/320/174
f 672/215/102 671/217/104 808/320/174
f 757/292/157 672/215/102 808/320/174
f 770/297/135 769/298/162 813/299/145
f 771/300/163 770/297/135 813/299/145
f 813/299/145 654/274/136 653/273/135
f 771/300/163 813/299/145 653/273/135
f 771/300/163 653/273/135 649/268/133
f 771/300/163 649/268/133 772/296/164
f 732/215/102 731/217/104 812/319/104
f 812/319/104 761/292/159 732/215/102
f 671/217/104 670/219/12 809/321/12
f 809/321/12 807/319/173 671/217/104
f 730/222/106 729/223/107 765/296/107
f 765/296/107 811/322/106 730/222/106
f 707/266/12 706/263/104 812/319/104
f 812/319/104 811/321/12 707/266/12
f 648/267/132 809/322/132 772/296/164
f 772/296/164 649/268/133 648/267/132
f 814/323/176 815/324/177 544/287/116
f 816/325/178 814/323/176 544/287/116
f 544/287/116 542/243/117 541/242/117
f 816/325/178 544/287/116 541/242/117
f 537/238/117 541/242/117 540/241/119
f 540/241/119 543/244/119 817/326/119
f 537/238/117 540/241/119 817/326/119
f 798/315/119 537/238/117 817/326/119
f 798/315/119 817/326/119 799/316/171
f 545/281/114 544/287/116 815/324/177
f 815/324/177 818/327/114 545/281/114
f 527/228/111 545/281/114 818/327/114
f 818/327/114 528/229/111 527/228/111
f 607/281/114 606/287/116 819/324/116
f 819/324/116 820/327/114 607/281/114
f 590/228/111 607/281/114 820/327/114
f 820/327/114 591/229/111 590/228/111
f 819/324/116 603/242/117 601/238/117
f 601/238/117 598/236/116 819/324/116
f 601/238/117 603/242/117 602/241/119
f 602/241/119 605/244/127 821/326/119
f 601/238/117 602/241/119 821/326/119
f 803/315/119 601/238/117 821/326/119
f 803/315/119 821/326/119 804/316/127
f 535/236/115 815/324/177 814/323/176
f 541/242/117 537/238/117 539/240/118
f 816/325/178 541/242/117 539/240/118
f 814/323/176 816/325/178 539/240/118
f 535/236/115 814/323/176 539/240/118
f 533/234/111 528/229/111 818/327/114
f 818/327/114 534/235/114 533/234/111
f 535/236/115 534/235/114 818/327/114
f 818/327/114 815/324/177 535/236/115
f 606/287/116 604/243/117 603/242/117
f 603/242/117 819/324/116 606/287/116
f 596/234/111 591/229/111 820/327/114
f 820/327/114 597/235/114 596/234/111
f 598/236/116 597/235/114 820/327/114
f 820/327/114 819/324/116 598/236/116
f 822/328/179 823/329/6 824/330/6
f 824/330/6 825/331/179 822/328/179
f 826/332/180 822/328/179 825/331/179
f 825/331/179 827/333/180 826/332/180
f 828/334/12 826/332/180 827/333/180
f 827/333/180 829/335/12 828/334/12
f 830/336/181 828/337/64 829/338/64
f 829/338/64 831/339/181 830/336/181
f 832/340/4 830/336/181 831/339/181
f 831/339/181 833/341/4 832/340/4
f 834/342/182 832/340/4 833/341/4
f 833/341/4 835/343/182 834/342/182
f 836/344/183 834/342/182 835/343/182
f 835/343/182 837/345/183 836/344/183
f 838/346/184 836/344/183 837/345/183
f 837/345/183 839/347/184 838/346/184
f 840/348/185 838/346/184 839/347/184
f 839/347/184 841/349/185 840/348/185
f 822/350/11 826/351/11 828/352/11
f 828/352/11 830/353/11 832/354/11
f 832/354/11 834/355/11 836/356/11
f 836/356/11 838/357/11 840/358/11
f 832/354/11 836/356/11 840/358/11
f 828/352/11 832/354/11 840/358/11
f 822/350/11 828/352/11 840/358/11
f 823/359/11 822/350/11 840/358/11
f 842/328/179 843/329/6 844/330/6
f 844/330/6 845/331/179 842/328/179
f 846/332/180 842/328/179 845/331/179
f 845/331/179 847/333/180 846/332/180
f 848/334/12 846/332/180 847/333/180
f 847/333/180 849/335/12 848/334/12
f 850/336/181 848/337/64 849/338/64
f 849/338/64 851/339/181 850/336/181
f 852/340/4 850/336/181 851/339/181
f 851/339/181 853/341/4 852/340/4
f 854/342/182 852/340/4 853/341/4
f 853/341/4 855/343/182 854/342/182
f 856/344/183 854/342/182 855/343/182
f 855/343/182 857/345/183 856/344/183
f 858/346/184 856/344/183 857/345/183
f 857/345/183 859/347/184 858/346/184
f 860/348/185 858/346/184 859/347/184
f 859/347/184 861/349/185 860/348/185
f 842/350/11 846/351/11 848/352/11
f 848/352/11 850/353/11 852/354/11
f 852/354/11 854/355/11 856/356/11
f 856/356/11 858/357/11 860/358/11
f 852/354/11 856/356/11 860/358/11
f 848/352/11 852/354/11 860/358/11
f 842/350/11 848/352/11 860/358/11
f 843/359/11 842/350/11 860/358/11
f 862/328/179 863/329/6 864/330/6
f 864/330/6 865/331/179 862/328/179
f 866/332/180 862/328/179 865/331/179
f 865/331/179 867/333/180 866/332/180
f 868/334/12 866/332/180 867/333/180
f 867/333/180 869/335/12 868/334/12
f 870/336/181 868/337/64 869/338/64
f 869/338/64 871/339/181 870/336/181
f 872/340/4 870/336/181 871/339/181
f 871/339/181 873/341/4 872/340/4
f 874/342/182 872/340/4 873/341/4
f 873/341/4 875/343/182 874/342/182
f 876/344/183 874/342/182 875/343/182
f 875/343/182 877/345/183 876/344/183
f 878/346/184 876/344/183 877/345/183
f 877/345/183 879/347/184 878/346/184
f 880/348/185 878/346/184 879/347/184
f 879/347/184 881/349/185 880/348/185
f 862/350/11 866/351/11 868/352/11
f 868/352/11 870/353/11 872/354/11
f 872/354/11 874/355/11 876/356/11
f 876/356/11 878/357/11 880/358/11
f 872/354/11 876/356/11 880/358/11
f 868/352/11 872/354/11 880/358/11
f 862/350/11 868/352/11 880/358/11
f 863/359/11 862/350/11 880/358/11
f 863/329/6 880/348/185 881/349/185
f 881/349/185 864/330/6 863/329/6
f 843/329/6 860/348/185 861/349/185
f 861/349/185 844/330/6 843/329/6
f 882/328/179 883/329/6 884/330/6
f 884/330/6 885/331/179 882/328/179
f 886/332/180 882/328/179 885/331/179
f 885/331/179 887/333/180 886/332/180
f 888/334/12 886/332/180 887/333/180
f 887/333/180 889/335/12 888/334/12
f 890/336/181 888/337/64 889/338/64
f 889/338/64 891/339/181 890/336/181
f 892/340/4 890/336/181 891/339/181
f 891/339/181 893/341/4 892/340/4
f 894/342/182 892/340/4 893/341/4
f 893/341/4 895/343/182 894/342/182
f 896/344/183 894/342/182 895/343/182
f 895/343/182 897/345/183 896/344/183
f 898/346/184 896/344/183 897/345/183
f 897/345/183 899/347/184 898/346/184
f 900/348/185 898/346/184 899/347/184
f 899/347/184 901/349/185 900/348/185
f 882/350/11 886/351/11 888/352/11
f 888/352/11 890/353/11 892/354/11
f 892/354/11 894/355/11 896/356/11
f 896/356/11 898/357/11 900/358/11
f 892/354/11 896/356/11 900/358/11
f 888/352/11 892/354/11 900/358/11
f 882/350/11 888/352/11 900/358/11
f 883/359/11 882/350/11 900/358/11
f 823/329/6 840/348/185 841/349/185
f 841/349/185 824/330/6 823/329/6
f 883/329/6 900/348/185 901/349/185
f 901/349/185 884/330/6 883/329/6
f 902/360/6 903/361/186 904/362/186
f 904/362/186 905/329/6 902/360/6
f 903/361/186 906/363/12 907/364/12
f 907/364/12 904/362/186 903/361/186
f 906/365/59 908/366/4 909/340/4
f 909/340/4 907/367/59 906/365/59
f 908/366/4 910/368/88 911/369/88
f 911/369/88 909/340/4 908/366/4
f 910/368/88 912/370/89 913/371/89
f 913/371/89 911/369/88 910/368/88
f 912/370/89 902/360/6 905/329/6
f 905/329/6 913/371/89 912/370/89
f 910/372/10 908/354/10 906/373/10
f 906/373/10 903/374/10 902/359/10
f 910/372/10 906/373/10 902/359/10
f 912/375/10 910/372/10 902/359/10
f 904/374/11 907/373/11 909/354/11
f 909/354/11 911/372/11 913/375/11
f 904/374/11 909/354/11 913/375/11
f 905/359/11 904/374/11 913/375/11
f 914/360/6 915/361/186 916/362/186
f 916/362/186 917/329/6 914/360/6
f 915/361/186 918/363/12 919/364/12
f 919/364/12 916/362/186 915/361/186
f 918/365/59 920/366/4 921/340/4
f 921/340/4 919/367/59 918/365/59
f 920/366/4 922/368/88 923/369/88
f 923/369/88 921/340/4 920/366/4
f 922/368/88 924/370/89 925/371/89
f 925/371/89 923/369/88 922/368/88
f 924/370/89 914/360/6 917/329/6
f 917/329/6 925/371/89 924/370/89
f 922/372/10 920/354/10 918/373/10
f 918/373/10 915/374/10 914/359/10
f 922/372/10 918/373/10 914/359/10
f 924/375/10 922/372/10 914/359/10
f 916/374/11 919/373/11 921/354/11
f 921/354/11 923/372/11 925/375/11
f 916/374/11 921/354/11 925/375/11
f 917/359/11 916/374/11 925/375/11
f 926/360/6 927/361/186 928/362/186
f 928/362/186 929/329/6 926/360/6
f 927/361/186 930/363/12 931/364/12
f 931/364/12 928/362/186 927/361/186
f 930/365/59 932/366/4 933/340/4
f 933/340/4 931/367/59 930/365/59
f 932/366/4 934/368/88 935/369/88
f 935/369/88 933/340/4 932/366/4
f 934/368/88 936/370/89 937/371/89
f 937/371/89 935/369/88 934/368/88
f 936/370/89 926/360/6 929/329/6
f 929/329/6 937/371/89 936/370/89
f 934/372/10 932/354/10 930/373/10
f 930/373/10 927/374/10 926/359/10
f 934/372/10 930/373/10 926/359/10
f 936/375/10 934/372/10 926/359/10
f 928/374/11 931/373/11 933/354/11
f 933/354/11 935/372/11 937/375/11
f 928/374/11 933/354/11 937/375/11
f 929/359/11 928/374/11 937/375/11
f 938/360/6 939/361/186 940/362/186
f 940/362/186 941/329/6 938/360/6
f 939/361/186 942/363/12 943/364/12
f 943/364/12 940/362/186 939/361/186
f 942/365/59 944/366/4 945/340/4
f 945/340/4 943/367/59 942/365/59
f 944/366/4 946/368/88 947/369/88
f 947/369/88 945/340/4 944/366/4
f 946/368/88 948/370/89 949/371/89
f 949/371/89 947/369/88 946/368/88
f 948/370/89 938/360/6 941/329/6
f 941/329/6 949/371/89 948/370/89
f 946/372/10 944/354/10 942/373/10
f 942/373/10 939/374/10 938/359/10
f 946/372/10 942/373/10 938/359/10
f 948/375/10 946/372/10 938/359/10
f 940/374/11 943/373/11 945/354/11
f 945/354/11 947/372/11 949/375/11
f 940/374/11 945/354/11 949/375/11
f 941/359/11 940/374/11 949/375/11
f 950/376/13 951/377/13 952/378/13
f 952/378/13 953/379/13 950/376/13
f 954/376/6 950/377/6 953/378/6
f 953/378/6 955/379/6 954/376/6
f 956/376/12 954/377/12 955/378/12
f 955/378/12 957/379/12 956/376/12
f 951/376/4 956/377/4 957/378/4
f 957/378/4 952/379/4 951/376/4
f 958/376/13 959/377/13 960/378/13
f 960/378/13 961/379/13 958/376/13
f 962/376/6 958/377/6 961/378/6
f 961/378/6 963/379/6 962/376/6
f 964/376/12 962/377/12 963/378/12
f 963/378/12 965/379/12 964/376/12
f 959/376/4 964/377/4 965/378/4
f 965/378/4 960/379/4 959/376/4
f 966/377/10 967/378/10 968/379/10
f 968/379/10 969/376/10 966/377/10
f 970/376/11 971/377/11 972/378/11
f 972/378/11 973/379/11 970/376/11
f 973/376/13 972/377/13 968/378/13
f 968/378/13 967/379/13 973/376/13
f 970/376/6 973/377/6 967/378/6
f 967/378/6 966/379/6 970/376/6
f 971/376/12 970/377/12 966/378/12
f 966/378/12 969/379/12 971/376/12
f 972/376/4 971/377/4 969/378/4
f 969/378/4 968/379/4 972/376/4
f 974/380/11 975/381/11 976/382/11
f 976/382/11 977/383/11 974/380/11
f 978/380/187 979/381/188 975/382/13
f 975/382/13 974/383/13 978/380/187
f 979/380/188 980/381/189 976/382/6
f 976/382/6 975/383/6 979/380/188
f 980/380/189 981/381/190 977/382/12
f 977/382/12 976/383/12 980/380/189
f 981/380/190 978/381/187 974/382/4
f 974/382/4 977/383/4 981/380/190
f 5/5/3 982/384/191 4/1/3
f 6/7/4 983/385/192 1/8/4
f 7/9/5 8/386/7 2/1/5
f 9/11/6 984/384/193 3/1/6
f 14/5/3 985/384/191 13/1/3
f 15/12/8 986/386/192 10/1/4
f 16/9/5 17/386/7 11/1/5
f 18/15/9 987/387/193 12/13/6
f 18/15/9 15/12/8 987/387/193
f 18/15/9 17/14/7 986/386/192
f 15/12/8 985/388/194 987/387/193
f 18/15/9 986/386/192 15/12/8
f 983/36/10 982/36/10 984/36/10
f 981/380/190 980/381/189 979/380/188
f 984/36/10 8/36/10 983/36/10
f 981/380/190 979/380/188 978/381/187
f 3/2/3 984/388/195 5/5/3
f 4/6/4 982/389/194 6/7/4
f 1/2/5 983/10/196 7/9/5
f 3/1/6 2/2/6 8/10/7
f 12/2/3 987/388/195 14/5/3
f 13/2/4 985/388/194 15/12/8
f 10/2/5 986/10/197 16/9/5
f 12/13/6 11/390/6 17/14/7
