# generated by tools/objdedupe/dedupe.py -- do not hand-edit.
# Re-run the tool after touching sssr_2svet_nove.obj, sssr_3svet_nove.obj, sssr_4svet_nove.obj, sssr_5svet_nove.obj, sssr_2se_nove.obj, sssr_3ab_nove.obj, sssr_4ab_nove.obj, sssr_pr_nove.obj, sssr_vl_nove.obj.
o stoz_vl_nater
v -0.040535 0.686675 -0.000000
vt 0.024026 0.705592
vn -0.965900 -0.000000 0.258800
v -0.035105 0.971872 0.020268
vt 0.132500 0.994242
vn -0.866000 -0.000000 0.500000
v -0.040535 0.971872 -0.000000
vt 0.024026 0.994242
v -0.035105 0.686675 0.020268
vt 0.132500 0.705592
v -0.020268 0.971872 0.035105
vt 0.280341 0.994242
vn -0.500000 -0.000000 0.866000
v -0.020268 0.686675 0.035105
vt 0.280341 0.705592
v 0.000000 0.971872 0.040535
vt 0.500000 0.994242
vn -0.000000 -0.000000 1.000000
v 0.000000 0.686675 0.040535
vt 0.500000 0.705592
v 0.020268 0.971872 0.035105
vt 0.719659 0.994242
vn 0.500000 -0.000000 0.866000
v 0.020268 0.686675 0.035105
vt 0.719659 0.705592
v 0.035105 0.971872 0.020268
vt 0.867500 0.994242
vn 0.866000 -0.000000 0.500000
v 0.035105 0.686675 0.020268
vt 0.867500 0.705592
v 0.040535 0.971872 -0.000000
vt 0.975974 0.994242
vn 0.965900 -0.000000 0.258800
v 0.040535 0.686675 -0.000000
vt 0.975974 0.705592
vt 0.049929 0.008827
v -0.035105 1.257130 0.020268
vt 0.152500 0.313775
v -0.040535 1.257130 -0.000000
vt 0.049929 0.313775
vt 0.152500 0.008827
v -0.020268 1.257130 0.035105
vt 0.292295 0.313775
vt 0.292295 0.008827
v 0.000000 1.257130 0.040535
vt 0.500000 0.313775
vt 0.500000 0.008827
v 0.020268 1.257130 0.035105
vt 0.707704 0.313775
vt 0.707704 0.008827
v 0.035105 1.257130 0.020268
vt 0.847500 0.313775
vt 0.847500 0.008827
v 0.040535 1.257130 -0.000000
vt 0.950071 0.313775
vt 0.950071 0.008827
vt 0.043454 0.349182
v -0.035105 1.542327 0.020268
vt 0.147500 0.675675
v -0.040535 1.542327 -0.000000
vt 0.043454 0.675675
vt 0.147500 0.349182
v -0.020268 1.542327 0.035105
vt 0.289307 0.675675
vt 0.289307 0.349182
v 0.000000 1.542327 0.040535
vt 0.500000 0.675675
vt 0.500000 0.349182
v 0.020268 1.542327 0.035105
vt 0.710693 0.675675
vt 0.710693 0.349182
v 0.035105 1.542327 0.020268
vt 0.852500 0.675675
vt 0.852500 0.349182
v 0.040535 1.542327 -0.000000
vt 0.956546 0.675675
vt 0.956546 0.349182
vt 0.072595 0.713741
v -0.035105 1.827524 0.020268
vt 0.170000 0.992266
v -0.040535 1.827524 -0.000000
vt 0.072595 0.992266
vt 0.170000 0.713741
v -0.020268 1.827524 0.035105
vt 0.302755 0.992266
vt 0.302755 0.713741
v 0.000000 1.827524 0.040535
vt 0.500000 0.992266
vt 0.500000 0.713741
v 0.020268 1.827524 0.035105
vt 0.697244 0.992266
vt 0.697244 0.713741
v 0.035105 1.827524 0.020268
vt 0.830000 0.992266
vt 0.830000 0.713741
v 0.040535 1.827524 -0.000000
vt 0.927405 0.992266
vt 0.927405 0.713741
vt 0.066119 0.012027
v -0.035105 2.112720 0.020268
vt 0.165000 0.315652
v -0.040535 2.112720 -0.000000
vt 0.066119 0.315652
vt 0.165000 0.012027
v -0.020268 2.112720 0.035105
vt 0.299767 0.315652
vt 0.299767 0.012027
v 0.000000 2.112720 0.040535
vt 0.500000 0.315652
vt 0.500000 0.012027
v 0.020268 2.112720 0.035105
vt 0.700233 0.315652
vt 0.700233 0.012027
v 0.035105 2.112720 0.020268
vt 0.835000 0.315652
vt 0.835000 0.012027
v 0.040535 2.112720 -0.000000
vt 0.933881 0.315652
vt 0.933881 0.012027
vt 0.043454 0.343458
v -0.035105 2.397978 0.020268
vt 0.147500 0.687016
v -0.040535 2.397978 -0.000000
vt 0.043454 0.687016
vt 0.147500 0.343458
v -0.020268 2.397978 0.035105
vt 0.289307 0.687016
vt 0.289307 0.343458
v 0.000000 2.397978 0.040535
vt 0.500000 0.687016
vt 0.500000 0.343458
v 0.020268 2.397978 0.035105
vt 0.710693 0.687016
vt 0.710693 0.343458
v 0.035105 2.397978 0.020268
vt 0.852500 0.687016
vt 0.852500 0.343458
v 0.040535 2.397978 -0.000000
vt 0.956546 0.687016
vt 0.956546 0.343458
vt 0.046691 0.701419
v -0.035105 2.683175 0.020268
vt 0.150000 0.990204
v -0.040535 2.683175 -0.000000
vt 0.046691 0.990204
vt 0.150000 0.701419
v -0.020268 2.683175 0.035105
vt 0.290801 0.990204
vt 0.290801 0.701419
v 0.000000 2.683175 0.040535
vt 0.500000 0.990204
vt 0.500000 0.701419
v 0.020268 2.683175 0.035105
vt 0.709199 0.990204
vt 0.709199 0.701419
v 0.035105 2.683175 0.020268
vt 0.850000 0.990204
vt 0.850000 0.701419
v 0.040535 2.683175 -0.000000
vt 0.953308 0.990204
vt 0.953308 0.701419
f 1/1/1 2/2/2 3/3/1
f 1/1/1 4/4/2 2/2/2
f 4/4/2 5/5/3 2/2/2
f 4/4/2 6/6/3 5/5/3
f 6/6/3 7/7/4 5/5/3
f 6/6/3 8/8/4 7/7/4
f 8/8/4 9/9/5 7/7/4
f 8/8/4 10/10/5 9/9/5
f 10/10/5 11/11/6 9/9/5
f 10/10/5 12/12/6 11/11/6
f 12/12/6 13/13/7 11/11/6
f 12/12/6 14/14/7 13/13/7
f 3/15/1 15/16/2 16/17/1
f 3/15/1 2/18/2 15/16/2
f 2/18/2 17/19/3 15/16/2
f 2/18/2 5/20/3 17/19/3
f 5/20/3 18/21/4 17/19/3
f 5/20/3 7/22/4 18/21/4
f 7/22/4 19/23/5 18/21/4
f 7/22/4 9/24/5 19/23/5
f 9/24/5 20/25/6 19/23/5
f 9/24/5 11/26/6 20/25/6
f 11/26/6 21/27/7 20/25/6
f 11/26/6 13/28/7 21/27/7
f 16/29/1 22/30/2 23/31/1
f 16/29/1 15/32/2 22/30/2
f 15/32/2 24/33/3 22/30/2
f 15/32/2 17/34/3 24/33/3
f 17/34/3 25/35/4 24/33/3
f 17/34/3 18/36/4 25/35/4
f 18/36/4 26/37/5 25/35/4
f 18/36/4 19/38/5 26/37/5
f 19/38/5 27/39/6 26/37/5
f 19/38/5 20/40/6 27/39/6
f 20/40/6 28/41/7 27/39/6
f 20/40/6 21/42/7 28/41/7
f 23/43/1 29/44/2 30/45/1
f 23/43/1 22/46/2 29/44/2
f 22/46/2 31/47/3 29/44/2
f 22/46/2 24/48/3 31/47/3
f 24/48/3 32/49/4 31/47/3
f 24/48/3 25/50/4 32/49/4
f 25/50/4 33/51/5 32/49/4
f 25/50/4 26/52/5 33/51/5
f 26/52/5 34/53/6 33/51/5
f 26/52/5 27/54/6 34/53/6
f 27/54/6 35/55/7 34/53/6
f 27/54/6 28/56/7 35/55/7
f 30/57/1 36/58/2 37/59/1
f 30/57/1 29/60/2 36/58/2
f 29/60/2 38/61/3 36/58/2
f 29/60/2 31/62/3 38/61/3
f 31/62/3 39/63/4 38/61/3
f 31/62/3 32/64/4 39/63/4
f 32/64/4 40/65/5 39/63/4
f 32/64/4 33/66/5 40/65/5
f 33/66/5 41/67/6 40/65/5
f 33/66/5 34/68/6 41/67/6
f 34/68/6 42/69/7 41/67/6
f 34/68/6 35/70/7 42/69/7
f 37/71/1 43/72/2 44/73/1
f 37/71/1 36/74/2 43/72/2
f 36/74/2 45/75/3 43/72/2
f 36/74/2 38/76/3 45/75/3
f 38/76/3 46/77/4 45/75/3
f 38/76/3 39/78/4 46/77/4
f 39/78/4 47/79/5 46/77/4
f 39/78/4 40/80/5 47/79/5
f 40/80/5 48/81/6 47/79/5
f 40/80/5 41/82/6 48/81/6
f 41/82/6 49/83/7 48/81/6
f 41/82/6 42/84/7 49/83/7
f 44/85/1 50/86/2 51/87/1
f 44/85/1 43/88/2 50/86/2
f 43/88/2 52/89/3 50/86/2
f 43/88/2 45/90/3 52/89/3
f 45/90/3 53/91/4 52/89/3
f 45/90/3 46/92/4 53/91/4
f 46/92/4 54/93/5 53/91/4
f 46/92/4 47/94/5 54/93/5
f 47/94/5 55/95/6 54/93/5
f 47/94/5 48/96/6 55/95/6
f 48/96/6 56/97/7 55/95/6
f 48/96/6 49/98/7 56/97/7
