# generated by tools/objdedupe/dedupe.py -- do not hand-edit.
# Re-run the tool after touching sssr_2svet_nove.obj, sssr_3svet_nove.obj, sssr_4svet_nove.obj, sssr_5svet_nove.obj, sssr_2se_nove.obj, sssr_3ab_nove.obj, sssr_4ab_nove.obj, sssr_pr_nove.obj, sssr_vl_nove.obj.
o stoz_2vj_nater
v -0.040535 0.686675 -0.000000
vt 0.040216 0.706192
vn -0.965900 -0.000000 0.258800
v -0.035105 0.868175 0.020268
vt 0.145000 0.990617
vn -0.866000 -0.000000 0.500000
v -0.040535 0.868175 -0.000000
vt 0.040216 0.990617
v -0.035105 0.686675 0.020268
vt 0.145000 0.706192
v -0.020268 0.868175 0.035105
vt 0.287813 0.990617
vn -0.500000 -0.000000 0.866000
v -0.020268 0.686675 0.035105
vt 0.287813 0.706192
v 0.000000 0.868175 0.040535
vt 0.500000 0.990617
vn -0.000000 -0.000000 1.000000
v 0.000000 0.686675 0.040535
vt 0.500000 0.706192
v 0.020268 0.868175 0.035105
vt 0.712187 0.990617
vn 0.500000 -0.000000 0.866000
v 0.020268 0.686675 0.035105
vt 0.712187 0.706192
v 0.035105 0.868175 0.020268
vt 0.855000 0.990617
vn 0.866000 -0.000000 0.500000
v 0.035105 0.686675 0.020268
vt 0.855000 0.706192
v 0.040535 0.868175 -0.000000
vt 0.959784 0.990617
vn 0.965900 -0.000000 0.258800
v 0.040535 0.686675 -0.000000
vt 0.959784 0.706192
v -0.035105 1.049675 0.020268
vt 0.145000 0.703200
v -0.040535 1.049675 -0.000000
vt 0.040216 0.703200
v -0.020268 1.049675 0.035105
vt 0.287813 0.703200
v 0.000000 1.049675 0.040535
vt 0.500000 0.703200
v 0.020268 1.049675 0.035105
vt 0.712187 0.703200
v 0.035105 1.049675 0.020268
vt 0.855000 0.703200
v 0.040535 1.049675 -0.000000
vt 0.959784 0.703200
vt 0.015588 0.329143
v -0.035105 1.231175 0.020268
vt 0.176538 0.401983
v -0.040535 1.231175 -0.000000
vt 0.015587 0.401983
vt 0.176539 0.329143
v -0.020268 1.231175 0.035105
vt 0.337489 0.401983
vt 0.337489 0.329143
v 0.000000 1.231175 0.040535
vt 0.498440 0.401983
vt 0.498440 0.329143
v 0.020268 1.231175 0.035105
vt 0.659391 0.401983
vt 0.659391 0.329143
v 0.035105 1.231175 0.020268
vt 0.820341 0.401983
vt 0.820341 0.329143
v 0.040535 1.231175 -0.000000
vt 0.981291 0.401983
vt 0.981293 0.329143
v -0.035105 1.412675 0.020268
vt 0.176538 0.474823
v -0.040535 1.412675 -0.000000
vt 0.015587 0.474823
v -0.020268 1.412675 0.035105
vt 0.337488 0.474823
v 0.000000 1.412675 0.040535
vt 0.498439 0.474823
v 0.020268 1.412675 0.035105
vt 0.659390 0.474823
v 0.035105 1.412675 0.020268
vt 0.820340 0.474823
v 0.040535 1.412675 -0.000000
vt 0.981291 0.474823
vt 0.040216 0.990491
v -0.035105 1.594175 0.020268
vt 0.145000 0.703602
v -0.040535 1.594175 -0.000000
vt 0.040216 0.703602
vt 0.145000 0.990491
v -0.020268 1.594175 0.035105
vt 0.287813 0.703602
vt 0.287813 0.990491
v 0.000000 1.594175 0.040535
vt 0.500000 0.703602
vt 0.500000 0.990491
v 0.020268 1.594175 0.035105
vt 0.712187 0.703602
vt 0.712187 0.990491
v 0.035105 1.594175 0.020268
vt 0.855000 0.703602
vt 0.855000 0.990491
v 0.040535 1.594175 -0.000000
vt 0.959784 0.703602
vt 0.959784 0.990491
v -0.035105 1.775675 0.020268
vt 0.145000 0.983750
v -0.040535 1.775675 -0.000000
vt 0.040216 0.983750
v -0.020268 1.775675 0.035105
vt 0.287813 0.983750
v 0.000000 1.775675 0.040535
vt 0.500000 0.983750
v 0.020268 1.775675 0.035105
vt 0.712187 0.983750
v 0.035105 1.775675 0.020268
vt 0.855000 0.983750
v 0.040535 1.775675 -0.000000
vt 0.959784 0.983750
vt 0.981292 0.620597
v -0.035105 1.957175 0.020268
vt 0.820341 0.547757
v -0.040535 1.957175 -0.000000
vt 0.981292 0.547757
vt 0.820341 0.620597
v -0.020268 1.957175 0.035105
vt 0.659391 0.547757
vt 0.659391 0.620597
v 0.000000 1.957175 0.040535
vt 0.498439 0.547757
vt 0.498440 0.620597
v 0.020268 1.957175 0.035105
vt 0.337488 0.547757
vt 0.337488 0.620597
v 0.035105 1.957175 0.020268
vt 0.176539 0.547757
vt 0.176539 0.620597
v 0.040535 1.957175 -0.000000
vt 0.015588 0.547757
vt 0.015588 0.620597
v -0.035105 2.138675 0.020268
vt 0.820341 0.474916
v -0.040535 2.138675 -0.000000
vt 0.981291 0.474916
v -0.020268 2.138675 0.035105
vt 0.659391 0.474916
v 0.000000 2.138675 0.040535
vt 0.498439 0.474917
v 0.020268 2.138675 0.035105
vt 0.337488 0.474916
v 0.035105 2.138675 0.020268
vt 0.176538 0.474917
v 0.040535 2.138675 -0.000000
vt 0.015587 0.474916
vt 0.040216 0.993782
v -0.035105 2.320175 0.020268
vt 0.145000 0.703249
v -0.040535 2.320175 -0.000000
vt 0.040216 0.703249
vt 0.145000 0.993782
v -0.020268 2.320175 0.035105
vt 0.287813 0.703249
vt 0.287813 0.993782
v 0.000000 2.320175 0.040535
vt 0.500000 0.703249
vt 0.500000 0.993782
v 0.020268 2.320175 0.035105
vt 0.712187 0.703249
vt 0.712187 0.993782
v 0.035105 2.320175 0.020268
vt 0.855000 0.703249
vt 0.855000 0.993782
v 0.040535 2.320175 -0.000000
vt 0.959784 0.703249
vt 0.959784 0.993782
v -0.035105 2.501675 0.020268
vt 0.145000 0.993970
v -0.040535 2.501675 -0.000000
vt 0.040216 0.993970
v -0.020268 2.501675 0.035105
vt 0.287813 0.993970
v 0.000000 2.501675 0.040535
vt 0.500000 0.993970
v 0.020268 2.501675 0.035105
vt 0.712187 0.993970
v 0.035105 2.501675 0.020268
vt 0.855000 0.993970
v 0.040535 2.501675 -0.000000
vt 0.959784 0.993970
vt 0.981292 0.693531
v -0.035105 2.683175 0.020268
vt 0.820340 0.620690
v -0.040535 2.683175 -0.000000
vt 0.981291 0.620690
vt 0.820340 0.693530
v -0.020268 2.683175 0.035105
vt 0.659390 0.620690
vt 0.659391 0.693530
v 0.000000 2.683175 0.040535
vt 0.498439 0.620690
vt 0.498439 0.693531
v 0.020268 2.683175 0.035105
vt 0.337488 0.620690
vt 0.337489 0.693531
v 0.035105 2.683175 0.020268
vt 0.176538 0.620690
vt 0.176538 0.693530
v 0.040535 2.683175 -0.000000
vt 0.015587 0.620690
vt 0.015587 0.693531
f 1/1/1 2/2/2 3/3/1
f 1/1/1 4/4/2 2/2/2
f 4/4/2 5/5/3 2/2/2
f 4/4/2 6/6/3 5/5/3
f 6/6/3 7/7/4 5/5/3
f 6/6/3 8/8/4 7/7/4
f 8/8/4 9/9/5 7/7/4
f 8/8/4 10/10/5 9/9/5
f 10/10/5 11/11/6 9/9/5
f 10/10/5 12/12/6 11/11/6
f 12/12/6 13/13/7 11/11/6
f 12/12/6 14/14/7 13/13/7
f 3/3/1 15/15/2 16/16/1
f 3/3/1 2/2/2 15/15/2
f 2/2/2 17/17/3 15/15/2
f 2/2/2 5/5/3 17/17/3
f 5/5/3 18/18/4 17/17/3
f 5/5/3 7/7/4 18/18/4
f 7/7/4 19/19/5 18/18/4
f 7/7/4 9/9/5 19/19/5
f 9/9/5 20/20/6 19/19/5
f 9/9/5 11/11/6 20/20/6
f 11/11/6 21/21/7 20/20/6
f 11/11/6 13/13/7 21/21/7
f 16/22/1 22/23/2 23/24/1
f 16/22/1 15/25/2 22/23/2
f 15/25/2 24/26/3 22/23/2
f 15/25/2 17/27/3 24/26/3
f 17/27/3 25/28/4 24/26/3
f 17/27/3 18/29/4 25/28/4
f 18/29/4 26/30/5 25/28/4
f 18/29/4 19/31/5 26/30/5
f 19/31/5 27/32/6 26/30/5
f 19/31/5 20/33/6 27/32/6
f 20/33/6 28/34/7 27/32/6
f 20/33/6 21/35/7 28/34/7
f 23/24/1 29/36/2 30/37/1
f 23/24/1 22/23/2 29/36/2
f 22/23/2 31/38/3 29/36/2
f 22/23/2 24/26/3 31/38/3
f 24/26/3 32/39/4 31/38/3
f 24/26/3 25/28/4 32/39/4
f 25/28/4 33/40/5 32/39/4
f 25/28/4 26/30/5 33/40/5
f 26/30/5 34/41/6 33/40/5
f 26/30/5 27/32/6 34/41/6
f 27/32/6 35/42/7 34/41/6
f 27/32/6 28/34/7 35/42/7
f 30/43/1 36/44/2 37/45/1
f 30/43/1 29/46/2 36/44/2
f 29/46/2 38/47/3 36/44/2
f 29/46/2 31/48/3 38/47/3
f 31/48/3 39/49/4 38/47/3
f 31/48/3 32/50/4 39/49/4
f 32/50/4 40/51/5 39/49/4
f 32/50/4 33/52/5 40/51/5
f 33/52/5 41/53/6 40/51/5
f 33/52/5 34/54/6 41/53/6
f 34/54/6 42/55/7 41/53/6
f 34/54/6 35/56/7 42/55/7
f 37/45/1 43/57/2 44/58/1
f 37/45/1 36/44/2 43/57/2
f 36/44/2 45/59/3 43/57/2
f 36/44/2 38/47/3 45/59/3
f 38/47/3 46/60/4 45/59/3
f 38/47/3 39/49/4 46/60/4
f 39/49/4 47/61/5 46/60/4
f 39/49/4 40/51/5 47/61/5
f 40/51/5 48/62/6 47/61/5
f 40/51/5 41/53/6 48/62/6
f 41/53/6 49/63/7 48/62/6
f 41/53/6 42/55/7 49/63/7
f 44/64/1 50/65/2 51/66/1
f 44/64/1 43/67/2 50/65/2
f 43/67/2 52/68/3 50/65/2
f 43/67/2 45/69/3 52/68/3
f 45/69/3 53/70/4 52/68/3
f 45/69/3 46/71/4 53/70/4
f 46/71/4 54/72/5 53/70/4
f 46/71/4 47/73/5 54/72/5
f 47/73/5 55/74/6 54/72/5
f 47/73/5 48/75/6 55/74/6
f 48/75/6 56/76/7 55/74/6
f 48/75/6 49/77/7 56/76/7
f 51/66/1 57/78/2 58/79/1
f 51/66/1 50/65/2 57/78/2
f 50/65/2 59/80/3 57/78/2
f 50/65/2 52/68/3 59/80/3
f 52/68/3 60/81/4 59/80/3
f 52/68/3 53/70/4 60/81/4
f 53/70/4 61/82/5 60/81/4
f 53/70/4 54/72/5 61/82/5
f 54/72/5 62/83/6 61/82/5
f 54/72/5 55/74/6 62/83/6
f 55/74/6 63/84/7 62/83/6
f 55/74/6 56/76/7 63/84/7
f 58/85/1 64/86/2 65/87/1
f 58/85/1 57/88/2 64/86/2
f 57/88/2 66/89/3 64/86/2
f 57/88/2 59/90/3 66/89/3
f 59/90/3 67/91/4 66/89/3
f 59/90/3 60/92/4 67/91/4
f 60/92/4 68/93/5 67/91/4
f 60/92/4 61/94/5 68/93/5
f 61/94/5 69/95/6 68/93/5
f 61/94/5 62/96/6 69/95/6
f 62/96/6 70/97/7 69/95/6
f 62/96/6 63/98/7 70/97/7
f 65/87/1 71/99/2 72/100/1
f 65/87/1 64/86/2 71/99/2
f 64/86/2 73/101/3 71/99/2
f 64/86/2 66/89/3 73/101/3
f 66/89/3 74/102/4 73/101/3
f 66/89/3 67/91/4 74/102/4
f 67/91/4 75/103/5 74/102/4
f 67/91/4 68/93/5 75/103/5
f 68/93/5 76/104/6 75/103/5
f 68/93/5 69/95/6 76/104/6
f 69/95/6 77/105/7 76/104/6
f 69/95/6 70/97/7 77/105/7
f 72/106/1 78/107/2 79/108/1
f 72/106/1 71/109/2 78/107/2
f 71/109/2 80/110/3 78/107/2
f 71/109/2 73/111/3 80/110/3
f 73/111/3 81/112/4 80/110/3
f 73/111/3 74/113/4 81/112/4
f 74/113/4 82/114/5 81/112/4
f 74/113/4 75/115/5 82/114/5
f 75/115/5 83/116/6 82/114/5
f 75/115/5 76/117/6 83/116/6
f 76/117/6 84/118/7 83/116/6
f 76/117/6 77/119/7 84/118/7
