# generated by tools/objdedupe/dedupe.py -- do not hand-edit.
# Re-run the tool after touching sssr_2svet_nove.obj, sssr_3svet_nove.obj, sssr_4svet_nove.obj, sssr_5svet_nove.obj, sssr_2se_nove.obj, sssr_3ab_nove.obj, sssr_4ab_nove.obj, sssr_pr_nove.obj, sssr_vl_nove.obj.
o stoz_3ab
v -0.090750 1.156794 -0.199094
vt 0.792207 0.498762
vn -0.000000 0.994300 0.106300
v -0.084700 1.156794 -0.199094
vt 0.931421 0.498762
v -0.084700 1.160009 -0.229173
vt 0.931421 0.008628
v -0.090750 1.160009 -0.229173
vt 0.792207 0.008628
vn -0.000000 0.106300 -0.994300
v -0.085565 -0.000000 -0.353142
vt 0.911516 0.078708
vt 0.996710 0.496678
vn -1.000000 -0.000000 -0.000000
v -0.090750 -0.000000 -0.348782
vt 0.989432 0.071612
vt 0.937772 0.495768
vn -0.000000 -0.106300 0.994300
v -0.089871 -0.000000 -0.322720
vt 0.911185 0.079873
vn 1.000000 -0.000000 -0.000000
v -0.084700 -0.000000 -0.322720
vt 0.931421 0.079873
vn 0.729900 0.683600 -0.000000
v -0.084700 -0.000000 -0.327131
vt 0.911232 0.079704
v 0.084700 1.156794 -0.199094
v 0.090750 1.156794 -0.199094
v 0.090750 1.160009 -0.229173
v 0.084700 1.160009 -0.229173
v 0.089885 -0.000000 -0.353142
vn -0.000000 -0.668500 -0.743700
v 0.084700 -0.000000 -0.348782
vt 0.911469 0.078874
v 0.085579 -0.000000 -0.322720
vn -0.000000 -0.743700 0.668500
vt 0.997924 0.499013
v 0.090750 -0.000000 -0.322720
vt 0.937579 0.077040
v 0.090750 -0.000000 -0.327131
vt 0.946330 0.076870
v 0.060500 1.376375 -0.002945
vn -0.000000 -1.000000 -0.000000
v 0.060500 1.376375 0.003105
v -0.060500 1.376375 0.003105
v -0.060500 1.376375 -0.002945
v 0.060500 1.406625 -0.002945
vn -0.000000 1.000000 -0.000000
v -0.060500 1.406625 -0.002945
v -0.060500 1.406625 0.003105
v 0.060500 1.406625 0.003105
vn -0.000000 -0.000000 -1.000000
vn -0.000000 -0.000000 1.000000
v -0.090613 1.376375 -0.176749
v -0.084609 1.376375 -0.177486
v -0.052167 1.376375 -0.001275
v -0.058172 1.376375 -0.000538
v -0.090613 1.406625 -0.176749
v -0.058172 1.406625 -0.000538
v -0.052167 1.406625 -0.001275
v -0.084609 1.406625 -0.177486
vn -0.983500 -0.000000 0.181100
vn 0.983500 -0.000000 -0.181100
v 0.084608 1.376375 -0.177486
v 0.090613 1.376375 -0.176749
v 0.058171 1.376375 -0.000538
v 0.052167 1.376375 -0.001275
v 0.084608 1.406625 -0.177486
v 0.052167 1.406625 -0.001275
v 0.058171 1.406625 -0.000538
v 0.090613 1.406625 -0.176749
vn -0.983500 -0.000000 -0.181100
vn 0.983500 -0.000000 0.181100
v -0.084700 1.159879 -0.229168
vn -0.000000 -0.994300 -0.106300
v -0.084700 1.156664 -0.199089
v -0.090750 1.156664 -0.199089
v -0.090750 1.159879 -0.229168
v -0.084700 2.623880 -0.072866
v -0.090750 2.623880 -0.072866
v -0.090750 2.623879 -0.042787
v -0.084700 2.623879 -0.042787
vn -0.000000 0.106200 -0.994300
vn -0.000000 -0.105900 0.994400
v 0.090750 1.159879 -0.229168
v 0.090750 1.156664 -0.199089
v 0.084700 1.156664 -0.199089
v 0.084700 1.159879 -0.229168
v 0.090750 2.623880 -0.072866
v 0.084700 2.623880 -0.072866
v 0.084700 2.623879 -0.042787
v 0.090750 2.623879 -0.042787
v -0.047190 2.593622 0.000080
vn -0.965900 -0.000000 0.258800
v -0.040868 2.593622 0.023675
v -0.040868 2.623871 0.023675
v -0.047190 2.623871 0.000080
vn -0.707100 -0.000000 0.707100
v -0.023595 2.593622 0.040948
v -0.023595 2.623871 0.040948
vn -0.258800 -0.000000 0.965900
v 0.000000 2.593622 0.047270
v 0.000000 2.623871 0.047270
vn 0.258800 -0.000000 0.965900
v 0.023595 2.593622 0.040948
v 0.023595 2.623871 0.040948
vn 0.707100 -0.000000 0.707100
v 0.040868 2.593622 0.023675
v 0.040868 2.623871 0.023675
vn 0.965900 -0.000000 0.258800
v 0.047190 2.593622 0.000080
v 0.047190 2.623871 0.000080
vn 0.965900 -0.000000 -0.258800
v 0.040868 2.593622 -0.023515
v 0.040868 2.623873 -0.023515
vn 0.707100 -0.000000 -0.707100
v 0.023595 2.593622 -0.040788
v 0.023595 2.623871 -0.040788
vn 0.258800 -0.000000 -0.965900
v 0.000000 2.593622 -0.047110
v 0.000000 2.623871 -0.047110
vn -0.258800 -0.000000 -0.965900
v -0.023595 2.593622 -0.040788
v -0.023595 2.623871 -0.040788
vn -0.707100 -0.000000 -0.707100
v -0.040868 2.593622 -0.023515
v -0.040868 2.623873 -0.023515
vn -0.965900 -0.000000 -0.258800
vt 0.849341 0.349824
vt 0.882044 0.349824
vt 0.910367 0.357096
vt 0.926718 0.369689
vt 0.926718 0.384232
vt 0.910367 0.396826
vt 0.882044 0.404097
vt 0.849341 0.404097
vt 0.821018 0.396826
vt 0.804666 0.384232
vt 0.804666 0.369689
vt 0.821018 0.357096
vn 0.000200 1.000000 -0.000000
vn -0.000000 1.000000 -0.000100
vn -0.000200 1.000000 -0.000000
v -0.047190 1.376375 0.000080
v -0.040868 1.376375 0.023675
v -0.040868 1.406625 0.023675
v -0.047190 1.406625 0.000080
v -0.023595 1.376375 0.040948
v -0.023595 1.406625 0.040948
v 0.000000 1.376375 0.047270
v 0.000000 1.406625 0.047270
v 0.023595 1.376375 0.040948
v 0.023595 1.406625 0.040948
v 0.040868 1.376375 0.023675
v 0.040868 1.406625 0.023675
v 0.047190 1.376375 0.000080
v 0.047190 1.406625 0.000080
v 0.040868 1.376375 -0.023515
v 0.040868 1.406625 -0.023515
v 0.023595 1.376375 -0.040788
v 0.023595 1.406625 -0.040788
v 0.000000 1.376375 -0.047110
v 0.000000 1.406625 -0.047110
v -0.023595 1.376375 -0.040788
v -0.023595 1.406625 -0.040788
v -0.040868 1.376375 -0.023515
v -0.040868 1.406625 -0.023515
v -0.080189 2.593635 -0.028568
vt 0.922882 0.400311
v -0.085639 2.593635 -0.025943
vt 0.801792 0.400311
v -0.090706 2.593635 -0.048145
vt 0.801792 0.293816
v -0.084656 2.593635 -0.048145
vt 0.922882 0.306406
v -0.067669 2.593635 -0.012868
v -0.071441 2.593635 -0.008138
vn -0.000000 -1.000000 -0.000100
v -0.049577 2.593635 -0.004156
v -0.050923 2.593635 0.001742
vn -0.000000 -1.000000 0.000100
v 0.049577 2.593635 -0.004156
v 0.050923 2.593635 0.001742
vt 0.922882 0.296631
v 0.067669 2.593635 -0.012868
v 0.071441 2.593635 -0.008138
v 0.080189 2.593635 -0.028568
v 0.085639 2.593635 -0.025943
v 0.084656 2.593635 -0.048145
v 0.090706 2.593635 -0.048145
v -0.080189 2.623885 -0.028568
v -0.084656 2.623885 -0.048145
vt 0.816109 0.400311
v -0.090706 2.623885 -0.048145
v -0.085639 2.623885 -0.025943
vt 0.922882 0.293816
v -0.067669 2.623885 -0.012868
v -0.071441 2.623885 -0.008138
v -0.049577 2.623885 -0.004156
v -0.050923 2.623885 0.001742
v 0.049577 2.623885 -0.004156
vn -0.000000 1.000000 0.000100
vt 0.804992 0.400311
v 0.050923 2.623885 0.001742
v 0.067669 2.623885 -0.012868
v 0.071441 2.623885 -0.008138
v 0.080189 2.623885 -0.028568
v 0.085639 2.623885 -0.025943
v 0.084656 2.623885 -0.048145
v 0.090706 2.623885 -0.048145
vn -0.974900 -0.000000 0.222500
vn -0.781900 -0.000000 0.623500
vn -0.433800 -0.000000 0.901000
vn -0.433900 -0.000000 0.901000
vn 0.433800 -0.000000 0.901000
vn 0.433900 -0.000000 0.901000
vn 0.781900 -0.000000 0.623500
vn 0.974900 -0.000000 0.222500
vn -0.974900 -0.000000 -0.222500
vn -0.781800 -0.000000 -0.623500
vn -0.433900 -0.000000 -0.901000
vn 0.433900 -0.000000 -0.901000
vn 0.781800 -0.000000 -0.623500
vn 0.974900 -0.000000 -0.222500
v 0.087725 0.272606 -0.312056
v 0.087725 0.271963 -0.306040
v -0.087725 0.271963 -0.306040
v -0.087725 0.272606 -0.312056
v 0.087725 0.284637 -0.310770
v -0.087725 0.284637 -0.310770
v -0.087725 0.283994 -0.304754
v 0.087725 0.283994 -0.304754
v 0.087725 0.484356 -0.289308
v 0.087725 0.483713 -0.283292
v -0.087725 0.483713 -0.283292
v -0.087725 0.484356 -0.289308
v 0.087725 0.496387 -0.288022
v -0.087725 0.496387 -0.288022
v -0.087725 0.495744 -0.282006
v 0.087725 0.495744 -0.282006
v 0.087725 0.696106 -0.266560
v 0.087725 0.695463 -0.260544
v -0.087725 0.695463 -0.260544
v -0.087725 0.696106 -0.266560
v 0.087725 0.708137 -0.265274
v -0.087725 0.708137 -0.265274
v -0.087725 0.707494 -0.259258
v 0.087725 0.707494 -0.259258
v 0.087725 0.907856 -0.243812
v 0.087725 0.907213 -0.237796
v -0.087725 0.907213 -0.237796
v -0.087725 0.907856 -0.243812
v 0.087725 0.919887 -0.242526
v -0.087725 0.919887 -0.242526
v -0.087725 0.919244 -0.236510
v 0.087725 0.919244 -0.236510
v 0.087725 1.119606 -0.221064
v 0.087725 1.118963 -0.215048
v -0.087725 1.118963 -0.215048
v -0.087725 1.119606 -0.221064
v 0.087725 1.131637 -0.219778
v -0.087725 1.131637 -0.219778
v -0.087725 1.130994 -0.213762
v 0.087725 1.130994 -0.213762
v 0.087725 1.331356 -0.198316
v 0.087725 1.330713 -0.192300
v -0.087725 1.330713 -0.192300
v -0.087725 1.331356 -0.198316
v 0.087725 1.343387 -0.197030
v -0.087725 1.343387 -0.197030
v -0.087725 1.342744 -0.191014
v 0.087725 1.342744 -0.191014
v 0.087725 1.543106 -0.175568
v 0.087725 1.542463 -0.169552
v -0.087725 1.542463 -0.169552
v -0.087725 1.543106 -0.175568
v 0.087725 1.555137 -0.174282
vn -0.000000 0.994300 0.106200
v -0.087725 1.555137 -0.174282
v -0.087725 1.554494 -0.168266
v 0.087725 1.554494 -0.168266
v 0.087725 1.754856 -0.152820
v 0.087725 1.754213 -0.146804
v -0.087725 1.754213 -0.146804
v -0.087725 1.754856 -0.152820
v 0.087725 1.766887 -0.151534
v -0.087725 1.766887 -0.151534
v -0.087725 1.766244 -0.145518
v 0.087725 1.766244 -0.145518
v 0.087725 1.966606 -0.130072
v 0.087725 1.965963 -0.124056
v -0.087725 1.965963 -0.124056
vn -0.000000 -0.994300 -0.106200
v -0.087725 1.966606 -0.130072
v 0.087725 1.978637 -0.128786
v -0.087725 1.978637 -0.128786
v -0.087725 1.977994 -0.122770
v 0.087725 1.977994 -0.122770
v 0.087725 2.178355 -0.107324
vn -0.000000 -0.994400 -0.106100
v 0.087725 2.177713 -0.101308
v -0.087725 2.177713 -0.101308
v -0.087725 2.178355 -0.107324
v 0.087725 2.190387 -0.106038
v -0.087725 2.190387 -0.106038
v -0.087725 2.189744 -0.100022
v 0.087725 2.189744 -0.100022
v 0.087725 2.390105 -0.084576
v 0.087725 2.389463 -0.078560
v -0.087725 2.389463 -0.078560
v -0.087725 2.390105 -0.084576
v 0.087725 2.402137 -0.083290
vn -0.000000 0.994400 0.106100
v -0.087725 2.402137 -0.083290
v -0.087725 2.401495 -0.077274
v 0.087725 2.401495 -0.077274
v 0.027225 0.026922 0.047155
vt 0.675912 0.882658
v 0.000000 0.026922 0.054450
vt 0.624605 0.882658
v -0.027225 0.026922 0.047155
vt 0.613631 0.882658
v -0.047155 0.026922 0.027225
vt 0.645931 0.882658
v -0.054450 0.026922 -0.000000
vt 0.712850 0.882658
v -0.047155 0.026922 -0.027225
vt 0.796456 0.882658
v -0.027225 0.026922 -0.047155
vt 0.874348 0.882658
v 0.000000 0.026922 -0.054450
vt 0.925655 0.882658
v 0.027225 0.026922 -0.047155
vt 0.936629 0.882658
v 0.047155 0.026922 -0.027225
vt 0.904329 0.882658
v 0.054450 0.026922 -0.000000
vt 0.872029 0.882658
v 0.047155 0.026922 0.027225
vt 0.753804 0.882658
vt 0.716076 0.713015
vt 0.706236 0.713015
v 0.047155 0.296450 -0.027225
vt 0.706236 0.561844
v 0.054450 0.296450 -0.000000
vt 0.716076 0.561844
vt 0.669685 0.689134
vt 0.648853 0.667404
v 0.027225 0.296450 -0.047155
vt 0.814481 0.713015
vt 0.804641 0.713015
v 0.000000 0.296450 -0.054450
vt 0.804641 0.561844
vn 0.000100 -0.000000 -1.000000
vt 0.814481 0.561844
vt 0.794800 0.713015
vn -0.500000 -0.000000 -0.866000
v -0.027225 0.296450 -0.047155
vt 0.794800 0.561844
vn -0.000100 -0.000000 -1.000000
vt 0.784960 0.713015
vn -0.866000 -0.000000 -0.500000
v -0.047155 0.296450 -0.027225
vt 0.784960 0.561844
vt 0.775119 0.713015
v -0.054450 0.296450 -0.000000
vt 0.775119 0.561844
vt 0.765279 0.713015
vn -0.866000 -0.000000 0.500000
v -0.047155 0.296450 0.027225
vt 0.765279 0.561844
vt 0.755438 0.713015
vn -0.500000 -0.000000 0.866000
v -0.027225 0.296450 0.047155
vt 0.755438 0.561844
vt 0.745598 0.713015
v 0.000000 0.296450 0.054450
vt 0.745598 0.561844
vt 0.735757 0.713015
vn 0.500000 -0.000000 0.866000
v 0.027225 0.296450 0.047155
vt 0.735757 0.561844
vt 0.725917 0.713015
vn 0.866000 -0.000000 0.500000
v 0.047155 0.296450 0.027225
vt 0.725917 0.561844
vt 0.698591 0.697537
vt 0.641678 0.638169
vt 0.650080 0.609264
vt 0.671810 0.588432
vt 0.701045 0.581256
vt 0.729951 0.589659
vt 0.750782 0.611389
vt 0.757959 0.640623
vt 0.749555 0.669529
vt 0.727826 0.690361
vt 0.635174 0.639791
v 0.066550 0.296450 -0.009075
vt 0.620850 0.628567
v 0.052019 0.296450 -0.009075
vt 0.638329 0.628936
v -0.090750 0.048400 0.009075
vt 0.743643 0.561844
vn -0.763800 0.645500 -0.000000
v -0.090750 0.048400 -0.009075
vt 0.757622 0.561844
v -0.108900 0.026922 -0.009075
vt 0.757622 0.712088
v -0.108900 0.026922 0.009075
vt 0.743643 0.712088
v -0.066550 0.296450 0.009075
vn -0.995300 0.097100 -0.000000
v -0.066550 0.296450 -0.009075
vt 0.680936 0.697892
vt 0.679174 0.714744
v -0.052019 0.026922 0.009075
vt 0.695749 0.714744
v -0.052019 0.048400 0.009075
vt 0.695749 0.697892
v -0.052019 0.296450 0.009075
vt 0.695749 0.563414
vt 0.681068 0.563414
v 0.090750 0.048400 -0.009075
vn 0.763800 0.645500 -0.000000
v 0.090750 0.048400 0.009075
v 0.108900 0.026922 0.009075
v 0.108900 0.026922 -0.009075
vn 0.995300 0.097100 -0.000000
v 0.066550 0.296450 0.009075
vt 0.827900 0.697892
vt 0.829662 0.714744
v 0.052019 0.026922 -0.009075
vt 0.813086 0.714744
v 0.052019 0.048400 -0.009075
vt 0.813086 0.697892
vt 0.813086 0.563414
vt 0.827767 0.563414
vt 0.754018 0.641425
v -0.015125 0.296450 -0.066550
vt 0.764753 0.655440
v -0.015125 0.296450 -0.050397
vt 0.750034 0.655129
v 0.015125 0.045073 0.066550
vn -0.000000 0.554700 0.832100
v -0.015125 0.045073 0.066550
v -0.015125 0.026922 0.078650
v 0.015125 0.026922 0.078650
v 0.015125 0.296450 0.066550
v -0.015125 0.296450 0.066550
v 0.015125 0.026922 -0.050397
vt 0.812150 0.712399
v 0.015125 0.026922 -0.078650
vt 0.827832 0.712399
v 0.015125 0.045073 -0.066550
vt 0.827337 0.698601
v 0.015125 0.045073 -0.050397
vt 0.812150 0.698601
v 0.015125 0.296450 -0.050397
vt 0.812150 0.561996
v 0.015125 0.296450 -0.066550
vt 0.827337 0.561996
v -0.015125 0.045073 -0.066550
vn -0.000000 0.554700 -0.832100
v -0.015125 0.026922 -0.078650
v -0.015125 0.026922 -0.050397
v -0.015125 0.045073 -0.050397
v 0.052019 0.048400 0.009075
v 0.052019 0.026922 0.009075
v -0.052019 0.048400 -0.009075
v -0.052019 0.026922 -0.009075
v 0.015125 0.026922 0.050397
vt 0.695495 0.712399
v 0.015125 0.045073 0.050397
vt 0.695495 0.698601
vt 0.680308 0.698601
vt 0.679813 0.712399
v -0.015125 0.045073 0.050397
v -0.015125 0.026922 0.050397
vt 0.780488 0.653777
vt 0.763008 0.653408
v -0.052305 0.296450 0.008007
vt 0.763380 0.652130
vt 0.766163 0.642555
v -0.052019 0.296450 -0.009075
vt 0.680308 0.561996
v 0.015125 0.296450 0.050397
vt 0.695495 0.561996
vt 0.644047 0.625315
vt 0.658767 0.625626
vt 0.654783 0.639331
v -0.015125 0.296450 0.050397
v 0.052019 0.296450 0.009075
vt 0.637868 0.650768
vt 0.620389 0.650399
vt 0.750615 0.627564
vt 0.765335 0.627874
vt 0.780949 0.631945
vt 0.763469 0.631576
v -0.013171 0.296450 0.050921
vt 0.657746 0.651400
vt 0.658185 0.653191
vt 0.643466 0.652881
v -0.072600 0.043560 0.040541
vt 0.852325 0.586425
vn -0.000000 -0.866000 -0.500100
v -0.048400 0.043560 0.040541
vt 0.852195 0.572731
vn -0.000000 -0.866000 -0.500000
v -0.048400 0.039022 0.048400
vt 0.838487 0.572860
v -0.072600 0.039022 0.048400
vt 0.838616 0.586555
vt 0.769944 0.573510
vt 0.770074 0.587205
v -0.072600 0.052635 0.040541
vt 0.783782 0.587075
vn -0.000000 0.500000 -0.866000
v -0.048400 0.052635 0.040541
vt 0.783652 0.573380
v -0.072600 0.057172 0.048400
vt 0.797491 0.586945
v -0.048400 0.057172 0.048400
vt 0.797361 0.573250
v -0.072600 0.052635 0.056259
vt 0.811199 0.586815
vn -0.000000 0.500000 0.866000
v -0.048400 0.052635 0.056259
vt 0.811069 0.573120
v -0.072600 0.043560 0.056259
vt 0.824908 0.586685
vn -0.000000 -0.500000 0.866000
v -0.048400 0.043560 0.056259
vt 0.824778 0.572991
vt 0.746702 0.902044
vt 0.738535 0.916918
vt 0.746702 0.931791
vt 0.763036 0.931791
vt 0.771203 0.916918
vt 0.763036 0.902044
v 0.072600 0.043560 0.040541
v 0.072600 0.052635 0.040541
v 0.072600 0.057172 0.048400
v 0.072600 0.052635 0.056259
v 0.072600 0.043560 0.056259
v 0.072600 0.039022 0.048400
vt 0.838579 0.586581
vt 0.824870 0.586711
v 0.048400 0.043560 0.056259
vt 0.824740 0.573017
v 0.048400 0.039022 0.048400
vt 0.838449 0.572886
v 0.048400 0.043560 0.040541
vt 0.852157 0.572757
vt 0.852287 0.586451
vt 0.783744 0.587101
vt 0.770036 0.587231
vt 0.769906 0.573537
v 0.048400 0.052635 0.040541
vt 0.783614 0.573406
v 0.048400 0.057172 0.048400
vt 0.797323 0.573277
vt 0.797453 0.586971
vt 0.811161 0.586841
v 0.048400 0.052635 0.056259
vt 0.811032 0.573146
v -0.027225 0.030352 0.047155
vt 0.689779 0.663165
vn -0.000000 -0.951100 -0.308700
v -0.022579 0.029948 0.048400
vt 0.692428 0.658946
vn -0.000000 -0.965900 0.259000
v -0.048400 0.029948 0.048400
vt 0.691927 0.682696
v -0.048400 0.033414 0.037731
vt 0.670001 0.682233
vn -0.000000 -0.809000 -0.587800
v -0.036648 0.033414 0.037731
vt 0.670230 0.671424
vn -0.000000 -0.875500 -0.483300
v -0.048400 0.042489 0.031138
vt 0.648077 0.681771
vn -0.000000 -0.309000 -0.951100
v -0.043242 0.042489 0.031138
vt 0.648177 0.677026
vn -0.000000 -0.353300 -0.935500
v -0.048400 0.053706 0.031138
vt 0.626151 0.681308
v -0.043242 0.053706 0.031138
vt 0.626252 0.676564
vt 0.845501 0.681190
vn -0.000000 0.587800 -0.809000
vt 0.845401 0.685934
v -0.048400 0.062781 0.037731
vt 0.823477 0.685472
vn -0.000000 0.809000 -0.587800
v -0.036648 0.062781 0.037731
vt 0.823705 0.674662
vn -0.000000 0.875400 -0.483300
v -0.048400 0.066248 0.048400
vt 0.801551 0.685009
v -0.022579 0.066248 0.048400
vt 0.802052 0.661259
vn -0.000000 0.965900 0.258900
v -0.027225 0.065843 0.047155
vt 0.804521 0.665586
vn -0.000000 0.951000 -0.309300
v -0.048400 0.062781 0.059069
vt 0.779627 0.684546
vn -0.000000 0.809000 0.587800
v -0.015125 0.062781 0.059069
vt 0.780272 0.653939
v -0.015125 0.063813 0.055894
vt 0.786797 0.654077
vn -0.000000 0.951100 0.309000
v -0.015125 0.065598 0.050397
vt 0.798092 0.654315
vn 0.000100 0.951100 0.308800
v 0.048400 0.053706 0.065662
vt 0.759580 0.595046
vn -0.000000 0.309000 0.951100
v 0.048400 0.062781 0.059069
vt 0.781505 0.595509
v 0.015125 0.062781 0.059069
vt 0.780859 0.626116
v 0.015125 0.053706 0.065662
vt 0.758934 0.625653
v 0.015125 0.042489 0.065662
vt 0.737010 0.625191
vn -0.000000 -0.309000 0.951000
v 0.048400 0.042489 0.065662
vt 0.737655 0.594584
vn -0.000000 -0.309000 0.951100
v 0.015125 0.033414 0.059069
vt 0.715084 0.624728
vn -0.000000 -0.809000 0.587800
v 0.048400 0.033414 0.059069
vt 0.715730 0.594121
v 0.015125 0.042350 0.065561
vt 0.736674 0.625184
vn -0.000000 -0.587800 0.809000
v -0.015125 0.032382 0.055893
vt 0.707972 0.652414
vn -0.000000 -0.951100 0.309000
v -0.015125 0.033414 0.059069
vt 0.714497 0.652552
v -0.048400 0.033414 0.059069
vt 0.713851 0.683159
v -0.015125 0.030597 0.050397
vt 0.696677 0.652176
vn -0.000000 -0.951100 0.308900
v -0.048400 0.042489 0.065662
vt 0.731189 0.647209
v -0.048400 0.053706 0.065662
vt 0.731902 0.613466
vt 0.711624 0.585727
vt 0.678101 0.574588
vt 0.644138 0.584303
vt 0.622708 0.611162
vt 0.621996 0.644905
vt 0.642274 0.672643
vt 0.675797 0.683783
vt 0.709759 0.674067
v 0.048400 0.033414 0.037731
v 0.048400 0.042489 0.031138
v 0.048400 0.053706 0.031138
v 0.048400 0.062781 0.037731
v 0.048400 0.066248 0.048400
v 0.048400 0.029948 0.048400
v -0.072600 0.273460 0.040541
v -0.048400 0.273460 0.040541
v -0.048400 0.268923 0.048400
v -0.072600 0.268923 0.048400
v -0.072600 0.282535 0.040541
v -0.048400 0.282535 0.040541
v -0.072600 0.287073 0.048400
v -0.048400 0.287073 0.048400
v -0.072600 0.282535 0.056259
v -0.048400 0.282535 0.056259
v -0.072600 0.273460 0.056259
v -0.048400 0.273460 0.056259
v 0.072600 0.273460 0.040541
v 0.072600 0.282535 0.040541
v 0.072600 0.287073 0.048400
v 0.072600 0.282535 0.056259
v 0.072600 0.273460 0.056259
v 0.072600 0.268923 0.048400
v 0.048400 0.273460 0.056259
v 0.048400 0.268923 0.048400
v 0.048400 0.273460 0.040541
v 0.048400 0.282535 0.040541
v 0.048400 0.287073 0.048400
v 0.048400 0.282535 0.056259
v -0.027225 0.260252 0.047155
vn -0.000000 -0.951100 -0.309000
v -0.022579 0.259847 0.048400
vn 0.000100 -0.965800 0.259100
v -0.048400 0.259847 0.048400
v -0.048400 0.263314 0.037731
v -0.036648 0.263314 0.037731
vn -0.000000 -0.875400 -0.483300
v -0.048400 0.272389 0.031138
v -0.043242 0.272389 0.031138
v -0.048400 0.283606 0.031138
v -0.043242 0.283606 0.031138
v -0.048400 0.292681 0.037731
v -0.036648 0.292681 0.037731
vn -0.000000 0.875500 -0.483300
v -0.048400 0.296147 0.048400
v -0.022579 0.296147 0.048400
vn -0.000000 0.965900 0.259000
v -0.027225 0.295743 0.047155
vn -0.000000 0.951100 -0.308700
v -0.048400 0.292681 0.059069
v -0.015125 0.292681 0.059069
v -0.015125 0.293713 0.055893
v -0.015125 0.295499 0.050397
vn -0.000100 0.951000 0.309100
v 0.048400 0.283606 0.065662
v 0.048400 0.292681 0.059069
v 0.015125 0.292681 0.059069
v 0.015125 0.283606 0.065662
v 0.015125 0.272389 0.065662
v 0.048400 0.272389 0.065662
v 0.048400 0.263314 0.059069
v 0.015125 0.263314 0.059069
vn -0.000000 -0.809100 0.587700
v -0.015125 0.262283 0.055893
v -0.015125 0.263314 0.059069
vn -0.000000 -0.808800 0.588100
v -0.048400 0.263314 0.059069
v -0.015125 0.260497 0.050397
vn -0.000000 -0.951000 0.309100
v -0.048400 0.272389 0.065662
v -0.048400 0.283606 0.065662
v 0.048400 0.263314 0.037731
v 0.048400 0.272389 0.031138
v 0.048400 0.283606 0.031138
v 0.048400 0.292681 0.037731
v 0.048400 0.296147 0.048400
v 0.048400 0.259847 0.048400
v -0.072600 0.043560 -0.056259
v -0.048400 0.043560 -0.056259
v -0.048400 0.039022 -0.048400
v -0.072600 0.039022 -0.048400
v -0.072600 0.052635 -0.056259
v -0.048400 0.052635 -0.056259
v -0.072600 0.057172 -0.048400
v -0.048400 0.057172 -0.048400
v -0.072600 0.052635 -0.040541
v -0.048400 0.052635 -0.040541
v -0.072600 0.043560 -0.040541
v -0.048400 0.043560 -0.040541
v 0.072600 0.043560 -0.056259
v 0.072600 0.052635 -0.056259
v 0.072600 0.057172 -0.048400
v 0.072600 0.052635 -0.040541
v 0.072600 0.043560 -0.040541
v 0.072600 0.039022 -0.048400
v 0.048400 0.043560 -0.040541
v 0.048400 0.039022 -0.048400
v 0.048400 0.043560 -0.056259
v 0.048400 0.052635 -0.056259
v 0.048400 0.057172 -0.048400
v 0.048400 0.052635 -0.040541
v 0.015125 0.032382 -0.055894
vt 0.677760 0.623941
v 0.015125 0.033414 -0.059069
vt 0.671234 0.623803
v 0.048400 0.033414 -0.059069
vt 0.671880 0.593196
v 0.048400 0.029948 -0.048400
vt 0.693805 0.593659
v 0.022579 0.029948 -0.048400
vt 0.693304 0.617409
vn -0.000000 -0.965900 -0.259000
v 0.015125 0.030597 -0.050397
vt 0.689054 0.624179
vn -0.000000 -0.951100 -0.308900
v 0.015125 0.042350 -0.065561
vt 0.649645 0.623347
vn -0.000000 -0.587800 -0.809000
v 0.015125 0.042489 -0.065662
vt 0.649310 0.623340
vn -0.000000 -0.309000 -0.951000
v 0.048400 0.042489 -0.065662
vt 0.649956 0.592733
v 0.048400 0.053706 -0.065662
vt 0.628030 0.592271
v 0.015125 0.053706 -0.065662
vt 0.627384 0.622878
vt 0.846634 0.627504
v 0.015125 0.062781 -0.059069
vt 0.824709 0.627041
v 0.048400 0.062781 -0.059069
vt 0.825355 0.596434
vt 0.847280 0.596897
v 0.022579 0.066248 -0.048400
vt 0.802929 0.619722
vn -0.000000 0.965900 -0.259000
v 0.048400 0.066248 -0.048400
vt 0.803430 0.595972
v 0.015125 0.063813 -0.055893
vt 0.818184 0.626904
vn -0.000000 0.951100 -0.309000
v 0.015125 0.065598 -0.050397
vt 0.806889 0.626665
vn -0.000100 0.951100 -0.308900
v 0.036648 0.062781 -0.037731
vt 0.781277 0.606318
vn -0.000000 0.875400 0.483300
v 0.048400 0.062781 -0.037731
v 0.027225 0.065843 -0.047155
vt 0.800461 0.615394
vn -0.000000 0.951000 0.309300
v 0.043242 0.053706 -0.031138
vt 0.759480 0.599791
vn -0.000000 0.353300 0.935500
v 0.048400 0.053706 -0.031138
v 0.048400 0.042489 -0.031138
v 0.043242 0.042489 -0.031138
vt 0.737555 0.599328
vn -0.000000 -0.353300 0.935500
v 0.036648 0.033414 -0.037731
vt 0.715502 0.604931
vn -0.000000 -0.875500 0.483300
v 0.048400 0.033414 -0.037731
v 0.027225 0.030352 -0.047155
vt 0.695953 0.613189
vn -0.000000 -0.951100 0.308700
v -0.048400 0.042489 -0.031138
v -0.048400 0.053706 -0.031138
v -0.048400 0.062781 -0.037731
v -0.048400 0.066248 -0.048400
v -0.048400 0.062781 -0.059069
v -0.048400 0.053706 -0.065662
v -0.048400 0.042489 -0.065662
v -0.048400 0.033414 -0.059069
v -0.048400 0.029948 -0.048400
v -0.048400 0.033414 -0.037731
v -0.072600 0.273460 -0.056259
v -0.048400 0.273460 -0.056259
v -0.048400 0.268923 -0.048400
v -0.072600 0.268923 -0.048400
v -0.072600 0.282535 -0.056259
v -0.048400 0.282535 -0.056259
v -0.072600 0.287073 -0.048400
v -0.048400 0.287073 -0.048400
v -0.072600 0.282535 -0.040541
v -0.048400 0.282535 -0.040541
v -0.072600 0.273460 -0.040541
v -0.048400 0.273460 -0.040541
v 0.072600 0.273460 -0.056259
v 0.072600 0.282535 -0.056259
v 0.072600 0.287073 -0.048400
v 0.072600 0.282535 -0.040541
v 0.072600 0.273460 -0.040541
v 0.072600 0.268923 -0.048400
v 0.048400 0.273460 -0.040541
v 0.048400 0.268923 -0.048400
v 0.048400 0.273460 -0.056259
v 0.048400 0.282535 -0.056259
v 0.048400 0.287073 -0.048400
v 0.048400 0.282535 -0.040541
v 0.015125 0.262283 -0.055893
v 0.015125 0.263314 -0.059069
vn -0.000000 -0.808800 -0.588100
v 0.048400 0.263314 -0.059069
v 0.048400 0.259847 -0.048400
v 0.022579 0.259847 -0.048400
vn -0.000100 -0.965800 -0.259100
v 0.015125 0.260497 -0.050397
vn -0.000000 -0.951000 -0.309100
v 0.048400 0.272389 -0.065662
v 0.015125 0.272389 -0.065662
v 0.015125 0.283606 -0.065662
v 0.048400 0.283606 -0.065662
v 0.048400 0.292681 -0.059069
v 0.015125 0.292681 -0.059069
v 0.022579 0.296147 -0.048400
v 0.048400 0.296147 -0.048400
v 0.015125 0.293713 -0.055893
v 0.015125 0.295499 -0.050397
vn 0.000100 0.951000 -0.309100
v 0.036648 0.292681 -0.037731
vn -0.000000 0.875500 0.483300
v 0.048400 0.292681 -0.037731
v 0.027225 0.295743 -0.047155
vn -0.000000 0.951100 0.308700
v 0.043242 0.283606 -0.031138
v 0.048400 0.283606 -0.031138
v 0.048400 0.272389 -0.031138
v 0.043242 0.272389 -0.031138
v 0.036648 0.263314 -0.037731
vn -0.000000 -0.875400 0.483300
v 0.048400 0.263314 -0.037731
v 0.027225 0.260252 -0.047155
v -0.048400 0.272389 -0.031138
v -0.048400 0.283606 -0.031138
v -0.048400 0.292681 -0.037731
v -0.048400 0.296147 -0.048400
v -0.048400 0.292681 -0.059069
v -0.048400 0.283606 -0.065662
v -0.048400 0.272389 -0.065662
v -0.048400 0.263314 -0.059069
v -0.048400 0.259847 -0.048400
v -0.048400 0.263314 -0.037731
vt 0.757701 0.684084
v -0.043242 0.053706 -0.031138
vt 0.757801 0.679339
v -0.036648 0.062781 -0.037731
vt 0.779855 0.673737
v -0.024074 0.066117 -0.047999
vt 0.801200 0.662616
vn -0.000000 0.951100 0.308900
v -0.022579 0.066248 -0.048400
vn -0.000000 0.965900 -0.258800
v -0.027225 0.065843 -0.047155
vt 0.799404 0.665478
v -0.043242 0.042489 -0.031138
vt 0.735877 0.678877
vt 0.735777 0.683621
v -0.036648 0.033414 -0.037731
vt 0.714079 0.672349
v -0.022579 0.029948 -0.048400
vn -0.000000 -0.965900 -0.258900
v -0.024074 0.030078 -0.047999
vt 0.693221 0.660337
v -0.027225 0.030352 -0.047155
vt 0.694896 0.663273
v -0.028065 0.030625 -0.046315
vt 0.696607 0.664083
vn -0.000200 -0.951200 0.308700
v -0.043242 0.283606 -0.031138
v -0.036648 0.292681 -0.037731
v -0.024074 0.296017 -0.047999
vn -0.000000 0.951200 0.308700
v -0.022579 0.296147 -0.048400
vn -0.000000 0.965900 -0.258900
v -0.027225 0.295743 -0.047155
vn -0.000000 0.951100 0.308800
v -0.043242 0.272389 -0.031138
v -0.036648 0.263314 -0.037731
v -0.022579 0.259847 -0.048400
vn -0.000000 -0.965800 -0.259100
v -0.024074 0.259978 -0.047999
v -0.027225 0.260252 -0.047155
v -0.028065 0.260525 -0.046315
vn -0.000100 -0.951100 0.308900
v -0.015125 0.033414 -0.059069
vt 0.670647 0.651626
vn -0.000000 -0.809000 -0.587900
v -0.015125 0.032873 -0.057405
vt 0.674065 0.651698
v -0.015125 0.032382 -0.055893
vt 0.677173 0.651764
v -0.015125 0.030597 -0.050397
vt 0.688467 0.652002
v -0.015125 0.263314 -0.059069
vn -0.000000 -0.809100 -0.587600
v -0.015125 0.262774 -0.057405
vn -0.000000 -0.951000 -0.309000
v -0.015125 0.262282 -0.055893
vn -0.000000 -0.951000 -0.309200
v -0.015125 0.260497 -0.050397
vn 0.000100 -0.951100 -0.308900
v -0.015125 0.292681 -0.059069
vt 0.824122 0.654865
v -0.015125 0.293713 -0.055893
vt 0.817597 0.654727
v -0.015125 0.295499 -0.050397
vt 0.806302 0.654489
vn -0.000100 0.951000 -0.309100
v 0.000000 0.294182 -0.054450
vt 0.814925 0.640753
vn -0.000000 0.951000 -0.309100
v -0.015125 0.065598 -0.050397
vn 0.000100 0.951100 -0.308900
v -0.015125 0.063813 -0.055893
vn -0.000000 0.951100 -0.308900
v -0.015125 0.063322 -0.057405
vt 0.820704 0.654793
v -0.015125 0.062781 -0.059069
vn -0.000000 0.809000 -0.587900
v 0.022579 0.029948 0.048400
vn -0.000000 -0.965900 0.258900
v 0.024074 0.030078 0.047999
vt 0.692510 0.616017
v 0.027225 0.030352 0.047155
vt 0.690836 0.613081
v 0.028065 0.030625 0.046315
vt 0.689125 0.612272
vn 0.000200 -0.951200 -0.308700
v 0.036648 0.033414 0.037731
vt 0.671652 0.604005
v 0.043242 0.042489 0.031138
vt 0.649855 0.597478
v 0.043242 0.053706 0.031138
vt 0.627930 0.597015
vt 0.847180 0.601641
v 0.036648 0.062781 0.037731
vt 0.825127 0.607244
v 0.024074 0.066117 0.047999
vt 0.803781 0.618365
v 0.022579 0.066248 0.048400
vn -0.000000 0.965900 0.258800
v 0.027225 0.065843 0.047155
vt 0.805577 0.615502
v 0.022579 0.259847 0.048400
v 0.024074 0.259978 0.047999
v 0.027225 0.260252 0.047155
vt 0.690835 0.613081
v 0.028065 0.260525 0.046315
v 0.036648 0.263314 0.037731
v 0.043242 0.272389 0.031138
v 0.043242 0.283606 0.031138
v 0.036648 0.292681 0.037731
v 0.024074 0.296017 0.047999
vn -0.000000 0.951200 -0.308700
v 0.022579 0.296147 0.048400
v 0.027225 0.295743 0.047155
vn -0.000000 0.951100 -0.308800
v 0.015125 0.063813 0.055893
vt 0.787384 0.626254
v 0.015125 0.065598 0.050397
vt 0.798679 0.626492
vn -0.000100 0.951100 0.308900
v 0.000000 0.064282 0.054450
vt 0.790057 0.640228
v 0.015125 0.032382 0.055893
vt 0.708559 0.624590
v 0.015125 0.030597 0.050397
vt 0.697264 0.624352
v 0.015125 0.293713 0.055893
v 0.015125 0.295499 0.050397
vn 0.000100 0.951000 0.309100
v 0.000000 0.294182 0.054450
vn -0.000000 0.951000 0.309100
v 0.015125 0.262283 0.055893
v 0.015125 0.260497 0.050397
vn -0.000100 -0.951000 0.309100
v 0.000000 0.031913 -0.054450
vt 0.680432 0.637915
v -0.015125 0.042416 -0.065609
vt 0.648898 0.651167
vn -0.000000 -0.587500 -0.809300
v -0.015125 0.042489 -0.065662
vt 0.648723 0.651164
vn -0.000000 -0.309400 -0.950900
v -0.015125 0.042350 -0.065561
vt 0.649058 0.651171
vn -0.000000 -0.587400 -0.809300
v -0.015125 0.053706 -0.065662
vt 0.626797 0.650701
v 0.000000 0.261813 -0.054450
vn -0.000000 -0.951000 -0.309300
v -0.015125 0.283606 -0.065662
v -0.015125 0.272389 -0.065662
vt 0.846047 0.655327
v 0.000000 0.064282 -0.054450
v -0.015125 0.042416 0.065609
vt 0.736247 0.653010
vn -0.000000 -0.587500 0.809300
v -0.015125 0.042489 0.065662
vt 0.736423 0.653014
vn -0.000000 -0.309400 0.950900
v -0.015125 0.042350 0.065561
vt 0.736087 0.653007
vn -0.000000 -0.587300 0.809400
v 0.000000 0.031913 0.054450
vt 0.705299 0.638440
v -0.015125 0.053706 0.065662
vt 0.758347 0.653477
v -0.015125 0.272389 0.065662
v -0.015125 0.283606 0.065662
v 0.000000 0.261813 0.054450
v 0.094249 0.062219 -0.092465
vt 0.882695 0.593078
vn 0.809000 -0.000000 -0.587800
v 0.095790 0.062219 -0.087725
vt 0.881181 0.593078
v 0.095790 0.050119 -0.087725
vt 0.881181 0.582986
v 0.094249 0.050119 -0.092465
vt 0.882695 0.582986
v 0.090217 0.062219 -0.095395
vt 0.884209 0.593078
vn 0.309100 -0.000000 -0.951000
v 0.090217 0.050119 -0.095395
vt 0.884209 0.582986
v 0.085233 0.062219 -0.095395
vt 0.885723 0.593078
v 0.085233 0.050119 -0.095395
vt 0.885723 0.582986
v 0.081201 0.062219 -0.092465
vt 0.872099 0.593078
vn -0.809000 -0.000000 -0.587800
vt 0.870585 0.593078
vn -0.587900 -0.000000 -0.809000
vt 0.870585 0.582986
v 0.081201 0.050119 -0.092465
vt 0.872099 0.582986
v 0.079660 0.062219 -0.087725
vt 0.873613 0.593078
v 0.079660 0.050119 -0.087725
vt 0.873613 0.582986
v 0.081201 0.062219 -0.082985
vt 0.875126 0.593078
vn -0.809000 -0.000000 0.587800
v 0.081201 0.050119 -0.082985
vt 0.875126 0.582986
v 0.085233 0.062219 -0.080055
vt 0.876640 0.593078
vn -0.309100 -0.000000 0.951000
v 0.085233 0.050119 -0.080055
vt 0.876640 0.582986
v 0.090217 0.062219 -0.080055
vt 0.878154 0.593078
vn 0.309100 -0.000000 0.951000
v 0.090217 0.050119 -0.080055
vt 0.878154 0.582986
v 0.094249 0.062219 -0.082985
vt 0.879668 0.593078
vn 0.809000 -0.000000 0.587800
v 0.094249 0.050119 -0.082985
vt 0.879668 0.582986
vt 0.747684 0.927610
vt 0.742939 0.921079
vt 0.742939 0.913007
vt 0.747684 0.906476
vt 0.755361 0.903982
vt 0.763038 0.906476
vt 0.767783 0.913007
vt 0.767783 0.921079
vt 0.763038 0.927610
vt 0.755361 0.930105
v -0.081201 0.062219 -0.092465
v -0.079660 0.062219 -0.087725
v -0.079660 0.050119 -0.087725
v -0.081201 0.050119 -0.092465
v -0.085233 0.062219 -0.095395
v -0.085233 0.050119 -0.095395
v -0.090217 0.062219 -0.095395
v -0.090217 0.050119 -0.095395
v -0.094249 0.062219 -0.092465
v -0.094249 0.050119 -0.092465
v -0.095790 0.062219 -0.087725
v -0.095790 0.050119 -0.087725
v -0.094249 0.062219 -0.082985
v -0.094249 0.050119 -0.082985
v -0.090217 0.062219 -0.080055
v -0.090217 0.050119 -0.080055
v -0.085233 0.062219 -0.080055
v -0.085233 0.050119 -0.080055
v -0.081201 0.062219 -0.082985
v -0.081201 0.050119 -0.082985
v -0.081201 0.062013 0.082985
v -0.079660 0.062013 0.087725
v -0.079660 0.049912 0.087725
v -0.081201 0.049912 0.082985
v -0.085233 0.062013 0.080055
v -0.085233 0.049912 0.080055
v -0.090217 0.062013 0.080055
v -0.090217 0.049912 0.080055
v -0.094249 0.062013 0.082985
v -0.094249 0.049912 0.082985
v -0.095790 0.062013 0.087725
v -0.095790 0.049912 0.087725
v -0.094249 0.062013 0.092465
v -0.094249 0.049912 0.092465
v -0.090217 0.062013 0.095395
v -0.090217 0.049912 0.095395
v -0.085233 0.062013 0.095395
v -0.085233 0.049912 0.095395
v -0.081201 0.062013 0.092465
v -0.081201 0.049912 0.092465
v 0.094249 0.062219 0.082985
v 0.095790 0.062219 0.087725
v 0.095790 0.050119 0.087725
v 0.094249 0.050119 0.082985
v 0.090217 0.062219 0.080055
v 0.090217 0.050119 0.080055
v 0.085233 0.062219 0.080055
v 0.085233 0.050119 0.080055
v 0.081201 0.062219 0.082985
v 0.081201 0.050119 0.082985
v 0.079660 0.062219 0.087725
v 0.079660 0.050119 0.087725
v 0.081201 0.062219 0.092465
v 0.081201 0.050119 0.092465
v 0.085233 0.062219 0.095395
v 0.085233 0.050119 0.095395
v 0.090217 0.062219 0.095395
v 0.090217 0.050119 0.095395
v 0.094249 0.062219 0.092465
v 0.094249 0.050119 0.092465
v 0.102850 0.026922 -0.087725
vt 0.881181 0.577940
v 0.095288 0.026922 -0.100824
vt 0.883704 0.577940
vn 0.500000 -0.000000 -0.866000
v 0.095288 0.050119 -0.100824
vt 0.883704 0.593078
v 0.102850 0.050119 -0.087725
v 0.080162 0.026922 -0.100824
vt 0.886227 0.577940
v 0.080162 0.050119 -0.100824
vt 0.886227 0.593078
vt 0.871090 0.577940
v 0.072600 0.026922 -0.087725
vt 0.873613 0.577940
v 0.072600 0.050119 -0.087725
vt 0.871090 0.593078
v 0.080162 0.026922 -0.074626
vt 0.876136 0.577940
v 0.080162 0.050119 -0.074626
vt 0.876136 0.593078
v 0.095288 0.026922 -0.074626
vt 0.878658 0.577940
v 0.095288 0.050119 -0.074626
vt 0.878658 0.593078
vt 0.773953 0.905359
vt 0.756557 0.896025
vt 0.739162 0.905359
vt 0.739162 0.924026
vt 0.756557 0.933360
vt 0.773953 0.924026
v 0.102850 0.027025 0.087725
v 0.095288 0.027025 0.074626
v 0.095288 0.050119 0.074626
v 0.102850 0.050119 0.087725
v 0.080162 0.027025 0.074626
v 0.080162 0.050119 0.074626
v 0.072600 0.027025 0.087725
v 0.072600 0.050119 0.087725
v 0.080162 0.027025 0.100824
v 0.080162 0.050119 0.100824
v 0.095288 0.027025 0.100824
v 0.095288 0.050119 0.100824
v -0.072600 0.026820 0.087725
v -0.080162 0.026820 0.074626
v -0.080162 0.049912 0.074626
v -0.072600 0.049912 0.087725
v -0.095288 0.026820 0.074626
v -0.095288 0.049912 0.074626
v -0.102850 0.026820 0.087725
v -0.102850 0.049912 0.087725
v -0.095288 0.026820 0.100824
v -0.095288 0.049912 0.100824
v -0.080162 0.026820 0.100824
v -0.080162 0.049912 0.100824
v -0.072600 0.026922 -0.087725
v -0.080162 0.026922 -0.100824
v -0.080162 0.050119 -0.100824
v -0.072600 0.050119 -0.087725
v -0.095288 0.026922 -0.100824
v -0.095288 0.050119 -0.100824
v -0.102850 0.026922 -0.087725
v -0.102850 0.050119 -0.087725
v -0.095288 0.026922 -0.074626
v -0.095288 0.050119 -0.074626
v -0.080162 0.026922 -0.074626
v -0.080162 0.050119 -0.074626
v 0.117975 0.013612 0.121000
vt 0.695843 0.561844
vn -0.000000 0.707100 0.707100
v -0.117975 0.013612 0.121000
vt 0.742101 0.561844
v -0.117975 0.000000 0.121000
vt 0.742101 0.712765
v 0.117975 0.000000 0.121000
vt 0.695843 0.712765
v 0.117975 0.013612 0.024200
vn 0.707100 -0.707100 -0.000000
v 0.117975 0.000000 0.024200
v -0.117975 0.013612 0.024200
v -0.117975 0.000000 0.024200
vn -0.707100 -0.707100 -0.000000
v 0.117975 0.013612 -0.024200
v -0.117975 0.013612 -0.024200
v -0.117975 -0.000000 -0.024200
vn -0.000000 -0.707100 0.707100
v 0.117975 -0.000000 -0.024200
v 0.117975 0.013612 -0.121000
v 0.117975 -0.000000 -0.121000
v -0.117975 0.013612 -0.121000
vn -0.000000 0.707100 -0.707100
vn -0.000000 -0.707100 -0.707100
v -0.117975 -0.000000 -0.121000
v 0.117975 0.013612 -0.117975
v 0.117975 0.013612 0.117975
v -0.117975 0.013612 0.117975
v -0.117975 0.013612 -0.117975
v 0.117975 0.026922 -0.117975
v -0.117975 0.026922 -0.117975
v -0.117975 0.026922 0.117975
v 0.117975 0.026922 0.117975
v 0.048400 0.052635 0.154380
vt 0.874835 0.566069
vn -0.000000 -0.167300 0.985900
v 0.069575 0.123633 0.166430
vt 0.945934 0.715143
v 0.023191 0.123633 0.166430
vt 0.825671 0.718685
v 0.023191 0.052635 0.154380
vt 0.803831 0.562052
v -0.023191 0.123633 0.166430
vt 0.677775 0.718685
v -0.023191 0.052635 0.154380
vt 0.716621 0.562557
v -0.069575 0.123633 0.166430
vt 0.557139 0.721838
vn -0.007900 -0.172300 0.985000
v -0.048400 0.052635 0.154179
vt 0.627156 0.564645
vt 0.945358 0.715255
vn -0.000000 0.239500 0.970900
v 0.069575 0.246235 0.136180
vt 0.942546 0.955031
v 0.023191 0.246235 0.136180
vt 0.825735 0.958573
vt 0.825735 0.718798
vt 0.825671 0.958383
v -0.023191 0.246235 0.136180
vt 0.677775 0.958383
v -0.069575 0.246235 0.136180
vt 0.570976 0.954841
vt 0.848128 0.923176
vt 0.847174 0.861536
v 0.023191 0.052635 0.136230
vt 0.891190 0.860854
v 0.048400 0.052635 0.136230
vt 0.892145 0.922495
vt 0.846219 0.799895
v -0.023191 0.052635 0.136230
vt 0.890236 0.799213
vt 0.845265 0.738254
v -0.048400 0.052635 0.136029
vt 0.889281 0.737572
v 0.023191 0.052635 0.051425
vt 0.935206 0.860173
v 0.048400 0.052635 0.051425
vt 0.936160 0.921813
v -0.023191 0.052635 0.051425
vt 0.934251 0.798532
v -0.048400 0.052635 0.051224
vt 0.933297 0.736891
vn -0.958300 -0.285800 -0.000000
vt 0.846696 0.830715
v -0.069575 0.123633 0.148280
vt 0.890713 0.830033
vt 0.841984 0.884474
vt 0.865433 0.789362
v -0.069575 0.246235 0.118030
vt 0.880383 0.789131
vt 0.856934 0.884242
v -0.069575 0.123633 0.051425
vt 0.934729 0.829352
v -0.069575 0.246235 0.051425
vt 0.926260 0.788420
vt 0.927727 0.883146
v -0.023191 0.246235 0.118030
v 0.023191 0.246235 0.118030
v 0.069575 0.246235 0.118030
vt 0.566747 0.853810
vt 0.565260 0.815522
v -0.023191 0.246235 0.051425
vt 0.631382 0.811273
vt 0.632869 0.849562
vt 0.563772 0.777234
v 0.023191 0.246235 0.051425
vt 0.629894 0.772985
vt 0.562285 0.738945
v 0.069575 0.246235 0.051425
vt 0.628406 0.734696
vt 0.595534 0.747347
vt 0.583235 0.868766
v 0.069575 0.123633 0.148280
vt 0.593420 0.868112
vt 0.605719 0.746693
vt 0.847650 0.926876
vn 0.958300 -0.285800 -0.000000
vt 0.927009 0.905819
vt 0.926547 0.875960
vt 0.847187 0.897017
v 0.069575 0.123633 0.051425
vt 0.647769 0.864620
vt 0.643094 0.744292
vt 0.924386 0.736442
vt 0.844720 0.737675
v 0.068891 0.247392 0.141402
vt 0.881781 0.600648
v 0.068891 0.250417 0.141402
vt 0.881781 0.702724
v -0.069049 0.250417 0.141402
vt 0.619357 0.702723
v -0.069049 0.247392 0.141402
vt 0.619357 0.600647
v 0.068891 0.247392 0.111152
vt 0.619357 0.600648
v -0.069049 0.247392 0.111152
vt 0.881781 0.600647
v -0.069049 0.250417 0.111152
vt 0.881781 0.702723
v 0.068891 0.250417 0.111152
vt 0.619357 0.702724
vt 0.581447 0.763955
vt 0.588098 0.935140
vt 0.660558 0.930485
vt 0.653907 0.759299
v -0.070726 0.239601 0.141402
vt 0.882932 0.600647
v -0.070726 0.245651 0.141402
vt 0.882932 0.702724
v -0.073751 0.245651 0.141402
vt 0.618206 0.702724
v -0.073751 0.239601 0.141402
vt 0.618207 0.600647
v -0.070726 0.239601 0.111152
vt 0.618206 0.600647
v -0.073751 0.239601 0.111152
v -0.073751 0.245651 0.111152
v -0.070726 0.245651 0.111152
vt 0.618207 0.702724
v -0.068836 0.247424 0.111152
vt 0.660547 0.930220
vn 0.156600 -0.987700 -0.000000
v -0.068836 0.247424 0.141402
vt 0.588088 0.934876
v -0.069431 0.247330 0.141402
vt 0.588116 0.935615
vn 0.156500 -0.987700 -0.000000
v -0.069431 0.247330 0.111152
vt 0.660576 0.930959
vn 0.454100 -0.890900 -0.000000
v -0.069968 0.247057 0.141402
vt 0.588142 0.936280
v -0.069968 0.247057 0.111152
vt 0.660602 0.931625
v -0.070394 0.246631 0.141402
vt 0.588163 0.936810
v -0.070394 0.246631 0.111152
vt 0.660623 0.932154
vn 0.891000 -0.454000 -0.000000
v -0.070667 0.246094 0.141402
vt 0.588176 0.937149
vn 0.891000 -0.453900 -0.000000
v -0.070667 0.246094 0.111152
vt 0.660636 0.932493
vt 0.577758 0.746422
vn 0.987700 -0.156500 -0.000000
vt 0.634495 0.746422
v -0.070761 0.245499 0.141402
vt 0.634495 0.768299
vt 0.883064 0.702775
vn 0.987600 -0.156700 -0.000000
v -0.070761 0.245499 0.111152
vt 0.618074 0.702775
vt 0.618074 0.600597
v -0.068836 0.250449 0.111152
vn -0.156200 0.987700 -0.000000
v -0.070366 0.250207 0.111152
vt 0.660621 0.932119
v -0.070366 0.250207 0.141402
vt 0.588161 0.936775
v -0.068836 0.250449 0.141402
vn -0.453900 0.891000 -0.000000
v -0.071746 0.249504 0.111152
vt 0.660688 0.933832
vn -0.454200 0.890900 -0.000000
v -0.071746 0.249504 0.141402
vt 0.588228 0.938488
vn -0.707100 0.707100 -0.000000
v -0.072841 0.248409 0.111152
vt 0.660741 0.935191
v -0.072841 0.248409 0.141402
vt 0.588281 0.939846
vn -0.891000 0.453900 -0.000000
v -0.073544 0.247029 0.111152
vt 0.660774 0.936064
v -0.073544 0.247029 0.141402
vt 0.588315 0.940719
vn -0.987700 0.156200 -0.000000
v -0.073786 0.245499 0.111152
vt 0.660786 0.936365
v -0.073786 0.245499 0.141402
vt 0.588326 0.941020
vt 0.883064 0.600597
v 0.068836 0.247424 0.141402
vt 0.581450 0.764024
vn -0.156600 -0.987700 -0.000000
v 0.068836 0.247424 0.111152
vt 0.653909 0.759368
v 0.069431 0.247330 0.111152
vt 0.653881 0.758629
vn -0.156400 -0.987700 -0.000000
v 0.069431 0.247330 0.141402
vt 0.581421 0.763285
vn -0.453900 -0.891000 -0.000000
vn -0.454200 -0.890900 -0.000000
v 0.069968 0.247057 0.111152
vt 0.653855 0.757962
vn -0.454100 -0.890900 -0.000000
v 0.069968 0.247057 0.141402
vt 0.581395 0.762618
v 0.070394 0.246631 0.111152
vt 0.653834 0.757434
v 0.070394 0.246631 0.141402
vt 0.581374 0.762090
vn -0.891000 -0.453900 -0.000000
v 0.070667 0.246094 0.111152
vt 0.653821 0.757095
vn -0.891000 -0.454000 -0.000000
v 0.070667 0.246094 0.141402
vt 0.581361 0.761751
vn -0.987700 -0.156500 -0.000000
v 0.070761 0.245499 0.111152
vn -0.987600 -0.156700 -0.000000
v 0.070761 0.245499 0.141402
v 0.068836 0.250449 0.141402
vn 0.156200 0.987700 -0.000000
v 0.070366 0.250207 0.141402
vt 0.581376 0.762125
v 0.070366 0.250207 0.111152
vt 0.653836 0.757469
v 0.068836 0.250449 0.111152
vn 0.453900 0.891000 -0.000000
v 0.071746 0.249504 0.141402
vt 0.581309 0.760411
v 0.071746 0.249504 0.111152
vt 0.653769 0.755756
vn 0.707100 0.707100 -0.000000
v 0.072841 0.248409 0.141402
vt 0.581256 0.759053
v 0.072841 0.248409 0.111152
vt 0.653716 0.754397
vn 0.891000 0.453900 -0.000000
v 0.073544 0.247029 0.141402
vt 0.581222 0.758180
v 0.073544 0.247029 0.111152
vt 0.653682 0.753524
vn 0.987700 0.156200 -0.000000
v 0.073786 0.245499 0.141402
vt 0.581211 0.757879
v 0.073786 0.245499 0.111152
vt 0.653671 0.753224
v 0.070726 0.239601 0.111152
v 0.070726 0.245651 0.111152
v 0.073751 0.245651 0.111152
v 0.073751 0.239601 0.111152
v 0.070726 0.239601 0.141402
v 0.073751 0.239601 0.141402
v 0.073751 0.245651 0.141402
v 0.070726 0.245651 0.141402
vt 0.797161 0.569031
vn 0.008000 0.005200 -1.000000
vt 0.834951 0.569828
vt 0.865653 0.619852
vt 0.863855 0.705078
vt 0.794321 0.703611
vt 0.724788 0.702144
vt 0.655254 0.700677
vt 0.657052 0.615450
vt 0.689837 0.566766
vt 0.727628 0.567563
v 0.040535 0.296450 -0.000000
vt 0.792965 0.498989
v 0.035105 2.683478 -0.020268
vt 0.862290 0.006093
vn 0.866000 -0.000000 -0.500000
v 0.040535 2.683478 -0.000000
vt 0.792963 0.006093
vn 0.996000 -0.000000 -0.089000
v 0.035105 0.296450 -0.020268
vt 0.862290 0.498989
v 0.020268 2.683478 -0.035105
vt 0.913679 0.006093
v 0.020268 0.296450 -0.035105
vt 0.913679 0.498989
v 0.000000 2.683478 -0.040535
vt 0.932489 0.006093
v 0.000000 0.296450 -0.040535
vt 0.932489 0.498989
v -0.020268 2.683478 -0.035105
v -0.020268 0.296450 -0.035105
v -0.035105 2.683478 -0.020268
v -0.035105 0.296450 -0.020268
v -0.040535 2.683478 -0.000000
vn -0.996000 -0.000000 -0.088900
v -0.040535 0.296450 -0.000000
vt 0.792963 0.498989
v 0.035105 3.478750 -0.020268
vt 0.862290 0.499085
v 0.040535 3.478750 -0.000000
vt 0.792963 0.499085
v 0.020268 3.478750 -0.035105
vt 0.913679 0.499085
v 0.000000 3.478750 -0.040535
vt 0.932489 0.499085
v -0.020268 3.478750 -0.035105
v -0.035105 3.478750 -0.020268
v -0.040535 3.478750 -0.000000
v -0.035105 3.478750 0.020268
vt 0.863162 0.499085
v -0.035105 2.683478 0.020268
vt 0.863162 0.006093
v -0.020268 3.478750 0.035105
vt 0.914552 0.499085
v -0.020268 2.683478 0.035105
vt 0.914552 0.006093
v 0.000000 3.478750 0.040535
vt 0.933362 0.499085
v 0.000000 2.683478 0.040535
vt 0.933362 0.006093
v 0.020268 3.478750 0.035105
v 0.020268 2.683478 0.035105
v 0.035105 3.478750 0.020268
v 0.035105 2.683478 0.020268
v 0.000000 3.478750 -0.000000
vt 0.868164 0.448391
vt 0.909037 0.448391
vt 0.903561 0.457479
vt 0.888600 0.464132
vt 0.868164 0.466567
vt 0.847728 0.464132
vt 0.832766 0.457479
vt 0.827290 0.448391
vt 0.832766 0.439305
vt 0.847726 0.432652
vt 0.868164 0.430217
vt 0.888600 0.432652
vt 0.903561 0.439305
v -0.090750 -0.000000 -0.353142
vt 0.792207 0.078708
vn -0.000000 0.743700 -0.668500
v -0.090750 -0.000000 -0.322720
vt 0.939025 0.073208
vt 0.792207 0.079873
v -0.084700 -0.000000 -0.353142
v 0.084700 -0.000000 -0.353142
v 0.084700 -0.000000 -0.322720
v 0.090750 -0.000000 -0.353142
vt 0.997924 0.075867
vt 0.931421 0.078708
vt 0.000000 0.000000
vn -0.000000 -0.000000 -0.000000
vn -0.000000 0.743600 -0.668600
vt 0.997880 0.071573
vn -0.000000 0.668400 0.743800
vt 0.937579 0.499013
f 1/1/1 2/2/1 3/3/1
f 3/3/1 4/4/1 1/1/1
f 3/2/2 5/5/2 4/1/2
f 4/6/3 6/7/3 1/8/3
f 1/2/4 7/9/4 2/1/4
f 3/1/5 8/10/6 9/11/5
f 10/1/1 11/2/1 12/3/1
f 12/3/1 13/4/1 10/1/1
f 12/2/2 14/5/7 13/1/2
f 13/2/3 15/12/3 10/1/3
f 10/2/4 16/9/8 11/1/4
f 12/13/5 17/14/5 18/15/5
f 19/3/9 20/4/9 21/1/9
f 21/1/9 22/2/9 19/3/9
f 23/3/10 24/4/10 25/1/10
f 25/1/10 26/2/10 23/3/10
f 19/3/11 22/4/11 24/1/11
f 24/1/11 23/2/11 19/3/11
f 22/3/3 21/4/3 25/1/3
f 25/1/3 24/2/3 22/3/3
f 21/3/12 20/4/12 26/1/12
f 26/1/12 25/2/12 21/3/12
f 20/3/5 19/4/5 23/1/5
f 23/1/5 26/2/5 20/3/5
f 27/3/9 28/4/9 29/1/9
f 29/1/9 30/2/9 27/3/9
f 31/3/10 32/4/10 33/1/10
f 33/1/10 34/2/10 31/3/10
f 27/3/13 30/4/13 32/1/13
f 32/1/13 31/2/13 27/3/13
f 29/3/14 28/4/14 34/1/14
f 34/1/14 33/2/14 29/3/14
f 35/3/9 36/4/9 37/1/9
f 37/1/9 38/2/9 35/3/9
f 39/3/10 40/4/10 41/1/10
f 41/1/10 42/2/10 39/3/10
f 35/3/15 38/4/15 40/1/15
f 40/1/15 39/2/15 35/3/15
f 37/3/16 36/4/16 42/1/16
f 42/1/16 41/2/16 37/3/16
f 43/3/17 44/4/17 45/1/17
f 45/1/17 46/2/17 43/3/17
f 47/3/10 48/4/10 49/1/10
f 49/1/10 50/2/10 47/3/10
f 43/3/18 46/4/18 48/1/18
f 48/1/18 47/2/18 43/3/18
f 46/3/3 45/4/3 49/1/3
f 49/1/3 48/2/3 46/3/3
f 45/3/19 44/4/19 50/1/19
f 50/1/19 49/2/19 45/3/19
f 44/3/5 43/4/5 47/1/5
f 47/1/5 50/2/5 44/3/5
f 51/3/17 52/4/17 53/1/17
f 53/1/17 54/2/17 51/3/17
f 55/3/10 56/4/10 57/1/10
f 57/1/10 58/2/10 55/3/10
f 51/3/18 54/4/18 56/1/18
f 56/1/18 55/2/18 51/3/18
f 54/3/3 53/4/3 57/1/3
f 57/1/3 56/2/3 54/3/3
f 53/3/19 52/4/19 58/1/19
f 58/1/19 57/2/19 53/3/19
f 52/3/5 51/4/5 55/1/5
f 55/1/5 58/2/5 52/3/5
f 59/3/20 60/4/20 61/1/20
f 61/1/20 62/2/20 59/3/20
f 60/3/21 63/4/21 64/1/21
f 64/1/21 61/2/21 60/3/21
f 63/3/22 65/4/22 66/1/22
f 66/1/22 64/2/22 63/3/22
f 65/3/23 67/4/23 68/1/23
f 68/1/23 66/2/23 65/3/23
f 67/3/24 69/4/24 70/1/24
f 70/1/24 68/2/24 67/3/24
f 69/3/25 71/4/25 72/1/25
f 72/1/25 70/2/25 69/3/25
f 71/3/26 73/4/26 74/1/26
f 74/1/26 72/2/26 71/3/26
f 73/3/27 75/4/27 76/1/27
f 76/1/27 74/2/27 73/3/27
f 75/3/28 77/4/28 78/1/28
f 78/1/28 76/2/28 75/3/28
f 77/3/29 79/4/29 80/1/29
f 80/1/29 78/2/29 77/3/29
f 79/3/30 81/4/30 82/1/30
f 82/1/30 80/2/30 79/3/30
f 81/3/31 59/4/31 62/1/31
f 62/1/31 82/2/31 81/3/31
f 79/16/9 77/17/9 75/18/9
f 75/18/9 73/19/9 71/20/9
f 71/20/9 69/21/9 67/22/9
f 75/18/9 71/20/9 67/22/9
f 67/22/9 65/23/9 63/24/9
f 63/24/9 60/25/9 59/26/9
f 67/22/9 63/24/9 59/26/9
f 75/18/9 67/22/9 59/26/9
f 79/16/9 75/18/9 59/26/9
f 81/27/9 79/16/9 59/26/9
f 61/16/10 64/17/10 66/18/10
f 66/18/10 68/19/10 70/20/10
f 70/20/10 72/21/32 74/22/10
f 66/18/10 70/20/10 74/22/10
f 74/22/10 76/23/33 78/24/33
f 78/24/33 80/25/33 82/26/10
f 74/22/10 78/24/33 82/26/10
f 66/18/10 74/22/10 82/26/10
f 61/16/10 66/18/10 82/26/10
f 62/27/34 61/16/10 82/26/10
f 83/3/20 84/4/20 85/1/20
f 85/1/20 86/2/20 83/3/20
f 84/3/21 87/4/21 88/1/21
f 88/1/21 85/2/21 84/3/21
f 87/3/22 89/4/22 90/1/22
f 90/1/22 88/2/22 87/3/22
f 89/3/23 91/4/23 92/1/23
f 92/1/23 90/2/23 89/3/23
f 91/3/24 93/4/24 94/1/24
f 94/1/24 92/2/24 91/3/24
f 93/3/25 95/4/25 96/1/25
f 96/1/25 94/2/25 93/3/25
f 95/3/26 97/4/26 98/1/26
f 98/1/26 96/2/26 95/3/26
f 97/3/27 99/4/27 100/1/27
f 100/1/27 98/2/27 97/3/27
f 99/3/28 101/4/28 102/1/28
f 102/1/28 100/2/28 99/3/28
f 101/3/29 103/4/29 104/1/29
f 104/1/29 102/2/29 101/3/29
f 103/3/30 105/4/30 106/1/30
f 106/1/30 104/2/30 103/3/30
f 105/3/31 83/4/31 86/1/31
f 86/1/31 106/2/31 105/3/31
f 103/16/9 101/17/9 99/18/9
f 99/18/9 97/19/9 95/20/9
f 95/20/9 93/21/9 91/22/9
f 99/18/9 95/20/9 91/22/9
f 91/22/9 89/23/9 87/24/9
f 87/24/9 84/25/9 83/26/9
f 91/22/9 87/24/9 83/26/9
f 99/18/9 91/22/9 83/26/9
f 103/16/9 99/18/9 83/26/9
f 105/27/9 103/16/9 83/26/9
f 85/16/10 88/17/10 90/18/10
f 90/18/10 92/19/10 94/20/10
f 94/20/10 96/21/10 98/22/10
f 90/18/10 94/20/10 98/22/10
f 98/22/10 100/23/10 102/24/10
f 102/24/10 104/25/10 106/26/10
f 98/22/10 102/24/10 106/26/10
f 90/18/10 98/22/10 106/26/10
f 85/16/10 90/18/10 106/26/10
f 86/27/10 85/16/10 106/26/10
f 107/28/9 108/29/9 109/30/9
f 109/30/9 110/31/9 107/28/9
f 111/28/9 112/29/35 108/30/9
f 108/30/9 107/31/9 111/28/9
f 113/28/9 114/29/9 112/30/36
f 112/30/36 111/31/36 113/28/9
f 115/28/9 116/29/9 114/30/35
f 114/30/35 113/32/35 115/28/9
f 117/28/9 118/29/9 116/30/36
f 116/30/36 115/31/36 117/28/9
f 119/28/9 120/29/9 118/30/9
f 118/30/9 117/31/9 119/28/9
f 121/28/9 122/29/9 120/30/9
f 120/30/9 119/31/9 121/28/9
f 123/28/10 124/33/10 125/30/10
f 125/30/10 126/34/10 123/28/10
f 127/28/10 123/33/10 126/30/10
f 126/30/10 128/34/10 127/28/10
f 129/28/10 127/33/10 128/30/10
f 128/30/10 130/34/10 129/28/10
f 131/28/37 129/35/10 130/30/10
f 130/30/10 132/34/37 131/28/37
f 133/28/10 131/33/10 132/30/10
f 132/30/10 134/34/10 133/28/10
f 135/28/10 133/33/10 134/30/10
f 134/30/10 136/34/10 135/28/10
f 137/28/10 135/33/10 136/30/10
f 136/30/10 138/34/10 137/28/10
f 126/28/38 125/29/38 109/30/38
f 109/30/38 108/34/38 126/28/38
f 128/28/39 126/29/39 108/30/39
f 108/30/39 112/34/39 128/28/39
f 130/28/40 128/29/40 112/30/40
f 112/30/40 114/34/41 130/28/40
f 132/28/12 130/29/12 114/30/12
f 114/30/12 116/34/12 132/28/12
f 134/28/42 132/29/42 116/30/42
f 116/30/42 118/34/43 134/28/42
f 136/28/44 134/29/44 118/30/44
f 118/30/44 120/34/44 136/28/44
f 138/28/45 136/29/45 120/30/45
f 120/30/45 122/34/45 138/28/45
f 135/28/46 137/29/46 121/30/46
f 121/30/46 119/34/46 135/28/46
f 133/28/47 135/29/47 119/30/47
f 119/30/47 117/34/47 133/28/47
f 131/28/48 133/29/48 117/30/48
f 117/30/48 115/34/48 131/28/48
f 129/28/11 131/29/11 115/30/11
f 115/30/11 113/34/11 129/28/11
f 127/28/49 129/29/49 113/30/49
f 113/30/49 111/34/49 127/28/49
f 123/28/50 127/29/50 111/30/50
f 111/30/50 107/34/50 123/28/50
f 124/28/51 123/29/51 107/30/51
f 107/30/51 110/34/51 124/28/51
f 139/3/17 140/4/17 141/1/17
f 141/1/17 142/2/17 139/3/17
f 143/3/1 144/4/1 145/1/1
f 145/1/1 146/2/1 143/3/1
f 139/3/2 142/4/2 144/1/2
f 144/1/2 143/2/2 139/3/2
f 142/3/3 141/4/3 145/1/3
f 145/1/3 144/2/3 142/3/3
f 141/3/4 140/4/4 146/1/4
f 146/1/4 145/2/4 141/3/4
f 147/3/17 148/4/17 149/1/17
f 149/1/17 150/2/17 147/3/17
f 151/3/1 152/4/1 153/1/1
f 153/1/1 154/2/1 151/3/1
f 147/3/2 150/4/2 152/1/2
f 152/1/2 151/2/2 147/3/2
f 150/3/3 149/4/3 153/1/3
f 153/1/3 152/2/3 150/3/3
f 149/3/4 148/4/4 154/1/4
f 154/1/4 153/2/4 149/3/4
f 155/3/17 156/4/17 157/1/17
f 157/1/17 158/2/17 155/3/17
f 159/3/1 160/4/1 161/1/1
f 161/1/1 162/2/1 159/3/1
f 155/3/2 158/4/2 160/1/2
f 160/1/2 159/2/2 155/3/2
f 158/3/3 157/4/3 161/1/3
f 161/1/3 160/2/3 158/3/3
f 157/3/4 156/4/4 162/1/4
f 162/1/4 161/2/4 157/3/4
f 163/3/17 164/4/17 165/1/17
f 165/1/17 166/2/17 163/3/17
f 167/3/1 168/4/1 169/1/1
f 169/1/1 170/2/1 167/3/1
f 163/3/2 166/4/2 168/1/2
f 168/1/2 167/2/2 163/3/2
f 166/3/3 165/4/3 169/1/3
f 169/1/3 168/2/3 166/3/3
f 165/3/4 164/4/4 170/1/4
f 170/1/4 169/2/4 165/3/4
f 171/3/17 172/4/17 173/1/17
f 173/1/17 174/2/17 171/3/17
f 175/3/1 176/4/1 177/1/1
f 177/1/1 178/2/1 175/3/1
f 171/3/2 174/4/2 176/1/2
f 176/1/2 175/2/2 171/3/2
f 174/3/3 173/4/3 177/1/3
f 177/1/3 176/2/3 174/3/3
f 173/3/4 172/4/4 178/1/4
f 178/1/4 177/2/4 173/3/4
f 179/3/17 180/4/17 181/1/17
f 181/1/17 182/2/17 179/3/17
f 183/3/1 184/4/1 185/1/1
f 185/1/1 186/2/1 183/3/1
f 179/3/2 182/4/2 184/1/2
f 184/1/2 183/2/2 179/3/2
f 182/3/3 181/4/3 185/1/3
f 185/1/3 184/2/3 182/3/3
f 181/3/4 180/4/4 186/1/4
f 186/1/4 185/2/4 181/3/4
f 187/3/17 188/4/17 189/1/17
f 189/1/17 190/2/17 187/3/17
f 191/3/52 192/4/1 193/1/1
f 193/1/1 194/2/52 191/3/52
f 187/3/2 190/4/2 192/1/2
f 192/1/2 191/2/2 187/3/2
f 190/3/3 189/4/3 193/1/3
f 193/1/3 192/2/3 190/3/3
f 189/3/4 188/4/4 194/1/4
f 194/1/4 193/2/4 189/3/4
f 195/3/17 196/4/17 197/1/17
f 197/1/17 198/2/17 195/3/17
f 199/3/52 200/4/52 201/1/52
f 201/1/52 202/2/52 199/3/52
f 195/3/2 198/4/2 200/1/2
f 200/1/2 199/2/2 195/3/2
f 198/3/3 197/4/3 201/1/3
f 201/1/3 200/2/3 198/3/3
f 197/3/4 196/4/4 202/1/4
f 202/1/4 201/2/4 197/3/4
f 203/3/17 204/4/17 205/1/53
f 205/1/53 206/2/53 203/3/17
f 207/3/52 208/4/1 209/1/1
f 209/1/1 210/2/52 207/3/52
f 203/3/2 206/4/2 208/1/2
f 208/1/2 207/2/2 203/3/2
f 206/3/3 205/4/3 209/1/3
f 209/1/3 208/2/3 206/3/3
f 205/3/4 204/4/4 210/1/4
f 210/1/4 209/2/4 205/3/4
f 211/3/54 212/4/54 213/1/53
f 213/1/53 214/2/53 211/3/54
f 215/3/52 216/4/1 217/1/1
f 217/1/1 218/2/52 215/3/52
f 211/3/2 214/4/2 216/1/2
f 216/1/2 215/2/2 211/3/2
f 214/3/3 213/4/3 217/1/3
f 217/1/3 216/2/3 214/3/3
f 213/3/4 212/4/4 218/1/4
f 218/1/4 217/2/4 213/3/4
f 219/3/54 220/4/54 221/1/53
f 221/1/53 222/2/53 219/3/54
f 223/3/55 224/4/52 225/1/52
f 225/1/52 226/2/55 223/3/55
f 219/3/2 222/4/2 224/1/2
f 224/1/2 223/2/2 219/3/2
f 222/3/3 221/4/3 225/1/3
f 225/1/3 224/2/3 222/3/3
f 221/3/4 220/4/4 226/1/4
f 226/1/4 225/2/4 221/3/4
f 227/36/9 228/37/9 229/38/9
f 229/38/9 230/39/9 231/40/9
f 231/40/9 232/41/9 233/42/9
f 229/38/9 231/40/9 233/42/9
f 233/42/9 234/43/9 235/44/9
f 235/44/9 236/45/9 237/46/9
f 233/42/9 235/44/9 237/46/9
f 229/38/9 233/42/9 237/46/9
f 227/36/9 229/38/9 237/46/9
f 238/47/9 227/36/9 237/46/9
f 237/48/5 236/49/26 239/50/26
f 239/50/26 240/51/5 237/48/5
f 236/52/27 235/53/27 241/53/27
f 241/53/27 239/52/27 236/52/27
f 235/54/28 234/55/28 242/56/56
f 242/56/56 241/57/28 235/54/28
f 234/55/29 233/58/57 243/59/57
f 243/59/57 242/56/58 234/55/29
f 233/58/57 232/60/59 244/61/59
f 244/61/59 243/59/57 233/58/57
f 232/60/59 231/62/3 245/63/3
f 245/63/3 244/61/59 232/60/59
f 231/62/3 230/64/60 246/65/60
f 246/65/60 245/63/3 231/62/3
f 230/64/60 229/66/61 247/67/61
f 247/67/61 246/65/60 230/64/60
f 229/66/61 228/68/12 248/69/12
f 248/69/12 247/67/61 229/66/61
f 228/68/12 227/70/62 249/71/62
f 249/71/62 248/69/12 228/68/12
f 227/70/62 238/72/63 250/73/63
f 250/73/63 249/71/62 227/70/62
f 238/72/63 237/48/5 240/51/5
f 240/51/5 250/73/63 238/72/63
f 240/74/10 239/52/10 241/53/10
f 241/53/10 242/75/10 243/76/10
f 243/76/10 244/77/10 245/78/10
f 241/53/10 243/76/10 245/78/10
f 245/78/10 246/79/10 247/80/10
f 247/80/10 248/81/10 249/82/10
f 245/78/10 247/80/10 249/82/10
f 241/53/10 245/78/10 249/82/10
f 240/74/10 241/53/10 249/82/10
f 250/83/10 240/74/10 249/82/10
f 240/84/10 251/85/10 252/86/10
f 253/87/64 254/88/64 255/89/64
f 255/89/64 256/90/64 253/87/64
f 257/89/65 258/90/65 254/87/65
f 254/87/65 253/88/65 257/89/65
f 253/91/12 256/92/12 259/93/12
f 259/93/12 260/94/12 253/91/12
f 260/94/12 261/95/12 257/96/12
f 257/96/12 253/91/12 260/94/12
f 262/87/66 263/88/66 264/89/66
f 264/89/66 265/90/66 262/87/66
f 251/89/67 266/90/67 263/87/67
f 263/87/67 262/88/67 251/89/67
f 262/97/11 265/98/11 267/99/11
f 267/99/11 268/100/11 262/97/11
f 252/101/11 251/102/11 262/97/11
f 262/97/11 268/100/11 252/101/11
f 242/103/10 269/104/10 270/105/10
f 271/87/68 272/88/68 273/89/68
f 273/89/68 274/90/68 271/87/68
f 275/89/12 276/90/12 272/87/12
f 272/87/12 271/88/12 275/89/12
f 277/106/5 278/107/5 279/108/5
f 279/108/5 280/109/5 277/106/5
f 281/110/5 280/109/5 279/108/5
f 279/108/5 282/111/5 281/110/5
f 283/87/69 279/88/69 278/89/69
f 278/89/69 284/90/69 283/87/69
f 269/89/11 282/90/11 279/87/11
f 279/87/11 283/88/11 269/89/11
f 283/108/3 284/107/3 285/106/3
f 285/106/3 286/109/3 283/108/3
f 286/109/3 270/110/3 269/111/3
f 269/111/3 283/108/3 286/109/3
f 263/97/12 287/100/12 288/99/12
f 288/99/12 264/98/12 263/97/12
f 254/91/11 289/94/11 290/93/11
f 290/93/11 255/92/11 254/91/11
f 291/112/5 292/113/5 271/114/5
f 271/114/5 274/115/5 291/112/5
f 272/114/3 293/113/3 294/112/3
f 294/112/3 273/115/3 272/114/3
f 257/116/10 261/117/10 295/118/10
f 295/118/10 245/119/10 257/116/10
f 296/95/11 289/94/11 254/91/11
f 254/91/11 258/96/11 296/95/11
f 275/120/5 271/114/5 292/113/5
f 292/113/5 297/121/5 275/120/5
f 275/122/10 297/123/10 248/124/10
f 272/114/3 276/120/3 298/121/3
f 298/121/3 293/113/3 272/114/3
f 287/100/12 263/97/12 266/102/12
f 266/102/12 299/101/12 287/100/12
f 240/84/10 299/125/10 266/126/10
f 266/126/10 251/85/10 240/84/10
f 242/103/10 281/127/10 282/128/10
f 282/128/10 269/104/10 242/103/10
f 258/129/10 257/116/10 245/119/10
f 245/119/10 296/130/10 258/129/10
f 300/131/10 298/132/10 276/133/10
f 248/124/10 300/131/10 276/133/10
f 248/124/10 276/133/10 275/122/10
f 301/134/70 302/135/71 303/136/9
f 303/136/9 304/137/9 301/134/70
f 302/138/11 301/139/11 305/140/72
f 305/140/72 306/141/72 302/138/11
f 306/141/72 305/140/72 307/142/10
f 307/142/10 308/143/10 306/141/72
f 308/143/10 307/142/10 309/144/73
f 309/144/73 310/145/73 308/143/10
f 310/145/73 309/144/73 311/146/74
f 311/146/74 312/147/74 310/145/73
f 303/136/9 312/147/74 311/146/74
f 311/146/74 304/137/9 303/136/9
f 309/148/3 307/149/3 305/150/3
f 305/150/3 301/151/3 304/152/3
f 309/148/3 305/150/3 304/152/3
f 311/153/3 309/148/3 304/152/3
f 313/151/5 314/150/5 315/149/5
f 315/149/5 316/148/5 317/153/5
f 313/151/5 315/149/5 317/153/5
f 318/152/5 313/151/5 317/153/5
f 318/154/9 317/155/74 319/156/74
f 319/156/74 320/157/9 318/154/9
f 320/157/9 321/158/71 313/159/70
f 313/159/70 318/154/9 320/157/9
f 314/160/72 313/161/11 321/162/11
f 321/162/11 322/163/72 314/160/72
f 322/163/72 323/164/10 315/165/10
f 315/165/10 314/160/72 322/163/72
f 316/166/73 315/165/10 323/164/10
f 323/164/10 324/167/73 316/166/73
f 319/156/74 317/155/74 316/166/73
f 316/166/73 324/167/73 319/156/74
f 325/168/75 326/169/76 327/170/9
f 327/170/9 328/171/77 329/172/78
f 325/168/75 327/170/9 329/172/78
f 329/172/78 328/171/77 330/173/79
f 330/173/79 331/174/80 329/172/78
f 331/174/80 330/173/79 332/175/11
f 332/175/11 333/176/11 331/174/80
f 333/177/81 332/178/81 334/179/82
f 334/179/82 335/180/83 333/177/81
f 336/181/10 337/182/84 338/183/85
f 336/181/10 338/183/85 335/180/83
f 336/181/10 335/180/83 334/179/82
f 339/184/86 340/185/86 341/186/87
f 341/186/87 342/187/88 337/182/84
f 339/184/86 341/186/87 337/182/84
f 336/181/10 339/184/86 337/182/84
f 343/188/89 344/189/86 345/190/86
f 345/190/86 346/191/89 343/188/89
f 346/191/89 347/192/90 348/193/91
f 348/193/91 343/188/89 346/191/89
f 349/194/92 350/195/92 348/193/91
f 351/196/93 349/194/92 348/193/91
f 351/196/93 348/193/91 347/192/90
f 352/197/94 353/198/92 354/199/92
f 354/199/92 327/170/9 326/169/76
f 354/199/92 326/169/76 355/200/95
f 352/197/94 354/199/92 355/200/95
f 356/201/3 357/202/3 339/203/3
f 339/203/3 336/204/3 334/205/3
f 334/205/3 332/206/3 330/207/3
f 330/207/3 328/208/3 327/209/3
f 334/205/3 330/207/3 327/209/3
f 339/203/3 334/205/3 327/209/3
f 356/201/3 339/203/3 327/209/3
f 354/210/3 356/201/3 327/209/3
f 358/208/5 359/207/5 360/206/5
f 360/206/5 361/205/5 362/204/5
f 362/204/5 344/203/5 343/202/5
f 343/202/5 348/201/5 350/210/5
f 362/204/5 343/202/5 350/210/5
f 360/206/5 362/204/5 350/210/5
f 358/208/5 360/206/5 350/210/5
f 363/209/5 358/208/5 350/210/5
f 364/134/71 365/135/71 366/136/9
f 366/136/9 367/137/9 364/134/71
f 365/138/11 364/139/11 368/140/72
f 368/140/72 369/141/72 365/138/11
f 369/141/72 368/140/72 370/142/10
f 370/142/10 371/143/10 369/141/72
f 371/143/10 370/142/10 372/144/73
f 372/144/73 373/145/73 371/143/10
f 373/145/73 372/144/73 374/146/74
f 374/146/74 375/147/74 373/145/73
f 366/136/9 375/147/74 374/146/74
f 374/146/74 367/137/9 366/136/9
f 372/148/3 370/149/3 368/150/3
f 368/150/3 364/151/3 367/152/3
f 372/148/3 368/150/3 367/152/3
f 374/153/3 372/148/3 367/152/3
f 376/151/5 377/150/5 378/149/5
f 378/149/5 379/148/5 380/153/5
f 376/151/5 378/149/5 380/153/5
f 381/152/5 376/151/5 380/153/5
f 381/154/9 380/155/74 382/156/74
f 382/156/74 383/157/9 381/154/9
f 383/157/9 384/158/71 376/159/71
f 376/159/71 381/154/9 383/157/9
f 377/160/72 376/161/11 384/162/11
f 384/162/11 385/163/72 377/160/72
f 385/163/72 386/164/10 378/165/10
f 378/165/10 377/160/72 385/163/72
f 379/166/73 378/165/10 386/164/10
f 386/164/10 387/167/73 379/166/73
f 382/156/74 380/155/74 379/166/73
f 379/166/73 387/167/73 382/156/74
f 388/168/96 389/169/97 390/170/9
f 390/170/9 391/171/77 392/172/98
f 388/168/96 390/170/9 392/172/98
f 392/172/98 391/171/77 393/173/79
f 393/173/79 394/174/80 392/172/98
f 394/174/80 393/173/79 395/175/11
f 395/175/11 396/176/11 394/174/80
f 396/177/81 395/178/81 397/179/82
f 397/179/82 398/180/99 396/177/81
f 399/181/10 400/182/100 401/183/101
f 399/181/10 401/183/101 398/180/99
f 399/181/10 398/180/99 397/179/82
f 402/184/86 403/185/86 404/186/87
f 404/186/87 405/187/102 400/182/100
f 402/184/86 404/186/87 400/182/100
f 399/181/10 402/184/86 400/182/100
f 406/188/89 407/189/86 408/190/86
f 408/190/86 409/191/89 406/188/89
f 409/191/89 410/192/91 411/193/91
f 411/193/91 406/188/89 409/191/89
f 412/195/92 411/193/91 410/192/91
f 410/192/91 413/194/103 412/195/92
f 414/197/95 415/198/104 416/199/92
f 416/199/92 390/170/9 389/169/97
f 416/199/92 389/169/97 417/200/105
f 414/197/95 416/199/92 417/200/105
f 418/201/3 419/202/3 402/203/3
f 402/203/3 399/204/3 397/205/3
f 397/205/3 395/206/3 393/207/3
f 393/207/3 391/208/3 390/209/3
f 397/205/3 393/207/3 390/209/3
f 402/203/3 397/205/3 390/209/3
f 418/201/3 402/203/3 390/209/3
f 416/210/3 418/201/3 390/209/3
f 420/208/5 421/207/5 422/206/5
f 422/206/5 423/205/5 424/204/5
f 424/204/5 407/203/5 406/202/5
f 406/202/5 411/201/5 412/210/5
f 424/204/5 406/202/5 412/210/5
f 422/206/5 424/204/5 412/210/5
f 420/208/5 422/206/5 412/210/5
f 425/209/5 420/208/5 412/210/5
f 426/134/70 427/135/71 428/136/9
f 428/136/9 429/137/9 426/134/70
f 427/138/11 426/139/11 430/140/72
f 430/140/72 431/141/72 427/138/11
f 431/141/72 430/140/72 432/142/10
f 432/142/10 433/143/10 431/141/72
f 433/143/10 432/142/10 434/144/73
f 434/144/73 435/145/73 433/143/10
f 435/145/73 434/144/73 436/146/74
f 436/146/74 437/147/74 435/145/73
f 428/136/9 437/147/74 436/146/74
f 436/146/74 429/137/9 428/136/9
f 434/148/3 432/149/3 430/150/3
f 430/150/3 426/151/3 429/152/3
f 434/148/3 430/150/3 429/152/3
f 436/153/3 434/148/3 429/152/3
f 438/151/5 439/150/5 440/149/5
f 440/149/5 441/148/5 442/153/5
f 438/151/5 440/149/5 442/153/5
f 443/152/5 438/151/5 442/153/5
f 443/154/9 442/155/74 444/156/74
f 444/156/74 445/157/9 443/154/9
f 445/157/9 446/158/71 438/159/70
f 438/159/70 443/154/9 445/157/9
f 439/160/72 438/161/11 446/162/11
f 446/162/11 447/163/72 439/160/72
f 447/163/72 448/164/10 440/165/10
f 440/165/10 439/160/72 447/163/72
f 441/166/73 440/165/10 448/164/10
f 448/164/10 449/167/73 441/166/73
f 444/156/74 442/155/74 441/166/73
f 441/166/73 449/167/73 444/156/74
f 450/211/96 451/212/77 452/213/77
f 452/213/77 453/214/9 454/215/106
f 452/213/77 454/215/106 455/216/107
f 450/211/96 452/213/77 455/216/107
f 456/217/108 457/218/109 458/219/79
f 458/219/79 452/213/77 451/212/77
f 456/217/108 458/219/79 451/212/77
f 459/220/11 458/219/79 457/218/109
f 457/218/109 460/221/11 459/220/11
f 460/222/81 461/223/82 462/224/82
f 462/224/82 459/225/81 460/222/81
f 463/226/110 464/227/10 462/224/82
f 462/224/82 461/223/82 465/228/111
f 463/226/110 462/224/82 465/228/111
f 466/229/112 463/226/110 465/228/111
f 467/230/113 468/189/86 464/227/10
f 469/231/114 467/230/113 464/227/10
f 469/231/114 464/227/10 463/226/110
f 467/230/113 470/232/115 471/188/89
f 471/188/89 468/189/86 467/230/113
f 472/193/91 471/188/89 470/232/115
f 470/232/115 473/233/116 472/193/91
f 473/233/116 474/234/117 475/195/92
f 475/195/92 472/193/91 473/233/116
f 476/235/118 454/215/106 453/214/9
f 453/214/9 475/195/92 474/234/117
f 476/235/118 453/214/9 474/234/117
f 477/201/3 478/202/3 479/203/3
f 479/203/3 480/204/3 481/205/3
f 481/205/3 482/206/3 483/207/3
f 483/207/3 484/208/3 485/209/3
f 481/205/3 483/207/3 485/209/3
f 479/203/3 481/205/3 485/209/3
f 477/201/3 479/203/3 485/209/3
f 486/210/3 477/201/3 485/209/3
f 452/208/5 458/207/5 459/206/5
f 459/206/5 462/205/5 464/204/5
f 464/204/5 468/203/5 471/202/5
f 471/202/5 472/201/5 475/210/5
f 464/204/5 471/202/5 475/210/5
f 459/206/5 464/204/5 475/210/5
f 452/208/5 459/206/5 475/210/5
f 453/209/5 452/208/5 475/210/5
f 487/134/71 488/135/71 489/136/9
f 489/136/9 490/137/9 487/134/71
f 488/138/11 487/139/11 491/140/72
f 491/140/72 492/141/72 488/138/11
f 492/141/72 491/140/72 493/142/10
f 493/142/10 494/143/10 492/141/72
f 494/143/10 493/142/10 495/144/73
f 495/144/73 496/145/73 494/143/10
f 496/145/73 495/144/73 497/146/74
f 497/146/74 498/147/74 496/145/73
f 489/136/9 498/147/74 497/146/74
f 497/146/74 490/137/9 489/136/9
f 495/148/3 493/149/3 491/150/3
f 491/150/3 487/151/3 490/152/3
f 495/148/3 491/150/3 490/152/3
f 497/153/3 495/148/3 490/152/3
f 499/151/5 500/150/5 501/149/5
f 501/149/5 502/148/5 503/153/5
f 499/151/5 501/149/5 503/153/5
f 504/152/5 499/151/5 503/153/5
f 504/154/9 503/155/74 505/156/74
f 505/156/74 506/157/9 504/154/9
f 506/157/9 507/158/71 499/159/71
f 499/159/71 504/154/9 506/157/9
f 500/160/72 499/161/11 507/162/11
f 507/162/11 508/163/72 500/160/72
f 508/163/72 509/164/10 501/165/10
f 501/165/10 500/160/72 508/163/72
f 502/166/73 501/165/10 509/164/10
f 509/164/10 510/167/73 502/166/73
f 505/156/74 503/155/74 502/166/73
f 502/166/73 510/167/73 505/156/74
f 511/211/107 512/212/119 513/213/77
f 513/213/77 514/214/9 515/215/120
f 513/213/77 515/215/120 516/216/121
f 511/211/107 513/213/77 516/216/121
f 517/219/79 513/213/77 512/212/119
f 512/212/119 518/218/79 517/219/79
f 518/218/79 519/221/11 520/220/11
f 520/220/11 517/219/79 518/218/79
f 521/224/82 520/225/81 519/222/81
f 519/222/81 522/223/82 521/224/82
f 523/226/110 524/227/10 521/224/82
f 521/224/82 522/223/82 525/228/111
f 523/226/110 521/224/82 525/228/111
f 526/229/122 523/226/110 525/228/111
f 527/230/123 528/189/86 524/227/10
f 529/231/124 527/230/123 524/227/10
f 529/231/124 524/227/10 523/226/110
f 527/230/123 530/232/115 531/188/89
f 531/188/89 528/189/86 527/230/123
f 532/193/91 531/188/89 530/232/115
f 530/232/115 533/233/116 532/193/91
f 533/233/116 534/234/125 535/195/92
f 535/195/92 532/193/91 533/233/116
f 536/235/94 515/215/120 514/214/9
f 514/214/9 535/195/92 534/234/125
f 536/235/94 514/214/9 534/234/125
f 537/201/3 538/202/3 539/203/3
f 539/203/3 540/204/3 541/205/3
f 541/205/3 542/206/3 543/207/3
f 543/207/3 544/208/3 545/209/3
f 541/205/3 543/207/3 545/209/3
f 539/203/3 541/205/3 545/209/3
f 537/201/3 539/203/3 545/209/3
f 546/210/3 537/201/3 545/209/3
f 513/208/5 517/207/5 520/206/5
f 520/206/5 521/205/5 524/204/5
f 524/204/5 528/203/5 531/202/5
f 531/202/5 532/201/5 535/210/5
f 524/204/5 531/202/5 535/210/5
f 520/206/5 524/204/5 535/210/5
f 513/208/5 520/206/5 535/210/5
f 514/209/5 513/208/5 535/210/5
f 479/184/86 478/236/89 547/237/115
f 547/237/115 548/238/113 479/184/86
f 549/239/126 550/182/127 480/181/10
f 479/184/86 548/238/113 551/240/126
f 480/181/10 479/184/86 551/240/126
f 549/239/126 480/181/10 551/240/126
f 552/241/116 477/242/91 486/199/92
f 486/199/92 553/243/125 552/241/116
f 547/237/115 478/236/89 477/242/91
f 477/242/91 552/241/116 547/237/115
f 485/170/9 554/169/128 555/244/118
f 485/170/9 555/244/118 556/245/105
f 557/246/129 553/243/125 486/199/92
f 556/245/105 557/246/129 486/199/92
f 485/170/9 556/245/105 486/199/92
f 539/184/86 538/236/89 558/237/115
f 558/237/115 559/238/113 539/184/86
f 560/239/130 561/182/131 540/181/10
f 539/184/86 559/238/113 562/240/132
f 540/181/10 539/184/86 562/240/132
f 560/239/130 540/181/10 562/240/132
f 563/241/116 537/242/91 546/199/92
f 546/199/92 564/243/117 563/241/116
f 558/237/115 538/236/89 537/242/91
f 537/242/91 563/241/116 558/237/115
f 545/170/9 565/169/133 566/244/105
f 545/170/9 566/244/105 567/245/95
f 568/246/134 564/243/117 546/199/92
f 567/245/95 568/246/134 546/199/92
f 545/170/9 567/245/95 546/199/92
f 554/169/128 485/170/9 484/171/77
f 484/171/77 569/247/135 570/248/96
f 484/171/77 570/248/96 571/249/107
f 554/169/128 484/171/77 571/249/107
f 554/169/128 571/249/107 572/250/107
f 565/169/133 545/170/9 544/171/77
f 544/171/77 573/247/136 574/248/137
f 544/171/77 574/248/137 575/249/138
f 565/169/133 544/171/77 575/249/138
f 565/169/133 575/249/138 576/250/139
f 522/223/82 577/251/82 578/252/111
f 578/252/111 579/253/140 580/254/141
f 522/223/82 578/252/111 580/254/141
f 580/254/141 526/229/122 525/228/111
f 522/223/82 580/254/141 525/228/111
f 541/179/82 540/181/10 561/182/131
f 561/182/131 579/253/140 578/252/111
f 541/179/82 561/182/131 578/252/111
f 541/179/82 578/252/111 577/251/82
f 550/182/127 581/253/142 582/252/143
f 583/255/111 584/251/144 481/179/82
f 582/252/143 583/255/111 481/179/82
f 550/182/127 582/252/143 481/179/82
f 550/182/127 481/179/82 480/181/10
f 363/214/9 585/215/145 586/256/75
f 363/214/9 586/256/75 587/257/121
f 588/258/146 589/259/98 358/213/77
f 587/257/121 588/258/146 358/213/77
f 363/214/9 587/257/121 358/213/77
f 590/260/80 359/219/79 358/213/77
f 358/213/77 589/259/98 590/260/80
f 590/260/80 591/261/11 360/220/11
f 360/220/11 359/219/79 590/260/80
f 361/224/82 360/225/81 591/262/81
f 591/262/81 592/263/83 361/224/82
f 593/264/143 594/226/147 362/227/10
f 361/224/82 592/263/83 595/265/143
f 362/227/10 361/224/82 595/265/143
f 593/264/143 362/227/10 595/265/143
f 425/214/9 596/215/145 597/256/121
f 425/214/9 597/256/121 598/266/107
f 599/258/139 600/259/78 420/213/77
f 598/266/107 599/258/139 420/213/77
f 425/214/9 598/266/107 420/213/77
f 601/260/80 421/219/79 420/213/77
f 420/213/77 600/259/78 601/260/80
f 601/260/80 602/261/11 422/220/11
f 422/220/11 421/219/79 601/260/80
f 423/224/82 422/225/81 602/262/81
f 602/262/81 603/263/83 423/224/82
f 604/264/148 605/226/84 424/227/10
f 423/224/82 603/263/83 606/265/149
f 424/227/10 423/224/82 606/265/149
f 604/264/148 424/227/10 606/265/149
f 607/267/87 608/268/150 609/269/87
f 345/190/86 607/267/87 609/269/87
f 609/269/87 342/187/88 341/186/87
f 345/190/86 609/269/87 341/186/87
f 345/190/86 341/186/87 340/185/86
f 344/189/86 362/227/10 594/226/147
f 594/226/147 608/268/150 607/267/87
f 344/189/86 594/226/147 607/267/87
f 344/189/86 607/267/87 345/190/86
f 350/195/92 349/194/92 610/270/94
f 610/270/94 611/271/95 585/215/145
f 350/195/92 610/270/94 585/215/145
f 350/195/92 585/215/145 363/214/9
f 612/267/87 613/268/151 614/269/152
f 408/190/86 612/267/87 614/269/152
f 614/269/152 405/187/102 404/186/87
f 408/190/86 614/269/152 404/186/87
f 408/190/86 404/186/87 403/185/86
f 407/189/86 424/227/10 605/226/84
f 605/226/84 613/268/151 612/267/87
f 407/189/86 605/226/84 612/267/87
f 407/189/86 612/267/87 408/190/86
f 412/195/92 413/194/103 615/270/95
f 615/270/95 616/271/153 596/215/145
f 412/195/92 615/270/95 596/215/145
f 412/195/92 596/215/145 425/214/9
f 617/272/107 572/250/107 571/249/107
f 617/272/107 571/249/107 570/248/96
f 570/248/96 569/247/135 451/212/77
f 570/248/96 451/212/77 450/211/96
f 617/272/107 570/248/96 450/211/96
f 455/216/107 617/272/107 450/211/96
f 618/273/154 619/274/155 457/218/109
f 618/273/154 457/218/109 456/217/108
f 620/275/156 618/273/154 456/217/108
f 569/247/135 620/275/156 456/217/108
f 451/212/77 569/247/135 456/217/108
f 619/274/155 621/276/11 460/221/11
f 460/221/11 457/218/109 619/274/155
f 622/272/157 576/250/139 575/249/138
f 622/272/157 575/249/138 574/248/137
f 574/248/137 573/247/136 512/212/119
f 574/248/137 512/212/119 511/211/107
f 622/272/157 574/248/137 511/211/107
f 516/216/121 622/272/157 511/211/107
f 543/173/79 542/175/11 623/276/11
f 623/276/11 624/274/79 543/173/79
f 573/247/136 624/274/79 518/218/79
f 518/218/79 512/212/119 573/247/136
f 623/277/81 577/251/82 522/223/82
f 522/223/82 519/222/81 623/277/81
f 482/178/81 481/179/82 584/251/144
f 584/251/144 621/277/81 482/178/81
f 483/173/79 619/274/155 618/273/154
f 483/173/79 618/273/154 620/275/156
f 484/171/77 483/173/79 620/275/156
f 569/247/135 484/171/77 620/275/156
f 582/252/143 581/253/142 625/254/111
f 583/255/111 582/252/143 625/254/111
f 625/254/111 466/229/112 465/228/111
f 583/255/111 625/254/111 465/228/111
f 583/255/111 465/228/111 461/223/82
f 583/255/111 461/223/82 584/251/144
f 544/171/77 543/173/79 624/274/79
f 624/274/79 573/247/136 544/171/77
f 483/173/79 482/175/11 621/276/11
f 621/276/11 619/274/155 483/173/79
f 542/178/81 541/179/82 577/251/82
f 577/251/82 623/277/81 542/178/81
f 519/221/11 518/218/79 624/274/79
f 624/274/79 623/276/11 519/221/11
f 460/222/81 621/277/81 584/251/144
f 584/251/144 461/223/82 460/222/81
f 626/278/158 627/279/159 356/242/91
f 628/280/160 626/278/158 356/242/91
f 356/242/91 354/199/92 353/198/92
f 628/280/160 356/242/91 353/198/92
f 349/194/92 353/198/92 352/197/94
f 352/197/94 355/200/95 629/281/94
f 349/194/92 352/197/94 629/281/94
f 610/270/94 349/194/92 629/281/94
f 610/270/94 629/281/94 611/271/95
f 357/236/89 356/242/91 627/279/159
f 627/279/159 630/282/89 357/236/89
f 339/184/86 357/236/89 630/282/89
f 630/282/89 340/185/86 339/184/86
f 419/236/89 418/242/91 631/279/91
f 631/279/91 632/282/89 419/236/89
f 402/184/86 419/236/89 632/282/89
f 632/282/89 403/185/86 402/184/86
f 631/279/91 415/198/104 413/194/103
f 413/194/103 410/192/91 631/279/91
f 413/194/103 415/198/104 414/197/95
f 414/197/95 417/200/105 633/281/105
f 413/194/103 414/197/95 633/281/105
f 615/270/95 413/194/103 633/281/105
f 615/270/95 633/281/105 616/271/153
f 347/192/90 627/279/159 626/278/158
f 353/198/92 349/194/92 351/196/93
f 628/280/160 353/198/92 351/196/93
f 626/278/158 628/280/160 351/196/93
f 347/192/90 626/278/158 351/196/93
f 345/190/86 340/185/86 630/282/89
f 630/282/89 346/191/89 345/190/86
f 347/192/90 346/191/89 630/282/89
f 630/282/89 627/279/159 347/192/90
f 418/242/91 416/199/92 415/198/104
f 415/198/104 631/279/91 418/242/91
f 408/190/86 403/185/86 632/282/89
f 632/282/89 409/191/89 408/190/86
f 410/192/91 409/191/89 632/282/89
f 632/282/89 631/279/91 410/192/91
f 634/283/161 635/284/5 636/285/5
f 636/285/5 637/286/161 634/283/161
f 638/287/162 634/283/161 637/286/161
f 637/286/161 639/288/162 638/287/162
f 640/289/11 638/287/162 639/288/162
f 639/288/162 641/290/11 640/289/11
f 642/291/163 640/292/164 641/293/164
f 641/293/164 643/294/163 642/291/163
f 644/295/3 642/291/163 643/294/163
f 643/294/163 645/296/3 644/295/3
f 646/297/165 644/295/3 645/296/3
f 645/296/3 647/298/165 646/297/165
f 648/299/166 646/297/165 647/298/165
f 647/298/165 649/300/166 648/299/166
f 650/301/167 648/299/166 649/300/166
f 649/300/166 651/302/167 650/301/167
f 652/303/168 650/301/167 651/302/167
f 651/302/167 653/304/168 652/303/168
f 634/305/10 638/306/10 640/307/10
f 640/307/10 642/308/10 644/309/10
f 644/309/10 646/310/10 648/311/10
f 648/311/10 650/312/10 652/313/10
f 644/309/10 648/311/10 652/313/10
f 640/307/10 644/309/10 652/313/10
f 634/305/10 640/307/10 652/313/10
f 635/314/10 634/305/10 652/313/10
f 654/283/161 655/284/5 656/285/5
f 656/285/5 657/286/161 654/283/161
f 658/287/162 654/283/161 657/286/161
f 657/286/161 659/288/162 658/287/162
f 660/289/11 658/287/162 659/288/162
f 659/288/162 661/290/11 660/289/11
f 662/291/163 660/292/164 661/293/164
f 661/293/164 663/294/163 662/291/163
f 664/295/3 662/291/163 663/294/163
f 663/294/163 665/296/3 664/295/3
f 666/297/165 664/295/3 665/296/3
f 665/296/3 667/298/165 666/297/165
f 668/299/166 666/297/165 667/298/165
f 667/298/165 669/300/166 668/299/166
f 670/301/167 668/299/166 669/300/166
f 669/300/166 671/302/167 670/301/167
f 672/303/168 670/301/167 671/302/167
f 671/302/167 673/304/168 672/303/168
f 654/305/10 658/306/10 660/307/10
f 660/307/10 662/308/10 664/309/10
f 664/309/10 666/310/10 668/311/10
f 668/311/10 670/312/10 672/313/10
f 664/309/10 668/311/10 672/313/10
f 660/307/10 664/309/10 672/313/10
f 654/305/10 660/307/10 672/313/10
f 655/314/10 654/305/10 672/313/10
f 674/283/161 675/284/5 676/285/5
f 676/285/5 677/286/161 674/283/161
f 678/287/162 674/283/161 677/286/161
f 677/286/161 679/288/162 678/287/162
f 680/289/11 678/287/162 679/288/162
f 679/288/162 681/290/11 680/289/11
f 682/291/163 680/292/164 681/293/164
f 681/293/164 683/294/163 682/291/163
f 684/295/3 682/291/163 683/294/163
f 683/294/163 685/296/3 684/295/3
f 686/297/165 684/295/3 685/296/3
f 685/296/3 687/298/165 686/297/165
f 688/299/166 686/297/165 687/298/165
f 687/298/165 689/300/166 688/299/166
f 690/301/167 688/299/166 689/300/166
f 689/300/166 691/302/167 690/301/167
f 692/303/168 690/301/167 691/302/167
f 691/302/167 693/304/168 692/303/168
f 674/305/10 678/306/10 680/307/10
f 680/307/10 682/308/10 684/309/10
f 684/309/10 686/310/10 688/311/10
f 688/311/10 690/312/10 692/313/10
f 684/309/10 688/311/10 692/313/10
f 680/307/10 684/309/10 692/313/10
f 674/305/10 680/307/10 692/313/10
f 675/314/10 674/305/10 692/313/10
f 675/284/5 692/303/168 693/304/168
f 693/304/168 676/285/5 675/284/5
f 655/284/5 672/303/168 673/304/168
f 673/304/168 656/285/5 655/284/5
f 694/283/161 695/284/5 696/285/5
f 696/285/5 697/286/161 694/283/161
f 698/287/162 694/283/161 697/286/161
f 697/286/161 699/288/162 698/287/162
f 700/289/11 698/287/162 699/288/162
f 699/288/162 701/290/11 700/289/11
f 702/291/163 700/292/164 701/293/164
f 701/293/164 703/294/163 702/291/163
f 704/295/3 702/291/163 703/294/163
f 703/294/163 705/296/3 704/295/3
f 706/297/165 704/295/3 705/296/3
f 705/296/3 707/298/165 706/297/165
f 708/299/166 706/297/165 707/298/165
f 707/298/165 709/300/166 708/299/166
f 710/301/167 708/299/166 709/300/166
f 709/300/166 711/302/167 710/301/167
f 712/303/168 710/301/167 711/302/167
f 711/302/167 713/304/168 712/303/168
f 694/305/10 698/306/10 700/307/10
f 700/307/10 702/308/10 704/309/10
f 704/309/10 706/310/10 708/311/10
f 708/311/10 710/312/10 712/313/10
f 704/309/10 708/311/10 712/313/10
f 700/307/10 704/309/10 712/313/10
f 694/305/10 700/307/10 712/313/10
f 695/314/10 694/305/10 712/313/10
f 635/284/5 652/303/168 653/304/168
f 653/304/168 636/285/5 635/284/5
f 695/284/5 712/303/168 713/304/168
f 713/304/168 696/285/5 695/284/5
f 714/315/5 715/316/169 716/317/169
f 716/317/169 717/284/5 714/315/5
f 715/316/169 718/318/11 719/319/11
f 719/319/11 716/317/169 715/316/169
f 718/320/59 720/321/3 721/295/3
f 721/295/3 719/322/59 718/320/59
f 720/321/3 722/323/61 723/324/61
f 723/324/61 721/295/3 720/321/3
f 722/323/61 724/325/62 725/326/62
f 725/326/62 723/324/61 722/323/61
f 724/325/62 714/315/5 717/284/5
f 717/284/5 725/326/62 724/325/62
f 722/327/9 720/328/9 718/329/9
f 718/329/9 715/330/9 714/331/9
f 722/327/9 718/329/9 714/331/9
f 724/332/9 722/327/9 714/331/9
f 716/330/10 719/329/10 721/328/10
f 721/328/10 723/327/10 725/332/10
f 716/330/10 721/328/10 725/332/10
f 717/331/10 716/330/10 725/332/10
f 726/315/5 727/316/169 728/317/169
f 728/317/169 729/284/5 726/315/5
f 727/316/169 730/318/11 731/319/11
f 731/319/11 728/317/169 727/316/169
f 730/320/59 732/321/3 733/295/3
f 733/295/3 731/322/59 730/320/59
f 732/321/3 734/323/61 735/324/61
f 735/324/61 733/295/3 732/321/3
f 734/323/61 736/325/62 737/326/62
f 737/326/62 735/324/61 734/323/61
f 736/325/62 726/315/5 729/284/5
f 729/284/5 737/326/62 736/325/62
f 734/327/9 732/328/9 730/329/9
f 730/329/9 727/330/9 726/331/9
f 734/327/9 730/329/9 726/331/9
f 736/332/9 734/327/9 726/331/9
f 728/330/10 731/329/10 733/328/10
f 733/328/10 735/327/10 737/332/10
f 728/330/10 733/328/10 737/332/10
f 729/331/10 728/330/10 737/332/10
f 738/315/5 739/316/169 740/317/169
f 740/317/169 741/284/5 738/315/5
f 739/316/169 742/318/11 743/319/11
f 743/319/11 740/317/169 739/316/169
f 742/320/59 744/321/3 745/295/3
f 745/295/3 743/322/59 742/320/59
f 744/321/3 746/323/61 747/324/61
f 747/324/61 745/295/3 744/321/3
f 746/323/61 748/325/62 749/326/62
f 749/326/62 747/324/61 746/323/61
f 748/325/62 738/315/5 741/284/5
f 741/284/5 749/326/62 748/325/62
f 746/327/9 744/328/9 742/329/9
f 742/329/9 739/330/9 738/331/9
f 746/327/9 742/329/9 738/331/9
f 748/332/9 746/327/9 738/331/9
f 740/330/10 743/329/10 745/328/10
f 745/328/10 747/327/10 749/332/10
f 740/330/10 745/328/10 749/332/10
f 741/331/10 740/330/10 749/332/10
f 750/315/5 751/316/169 752/317/169
f 752/317/169 753/284/5 750/315/5
f 751/316/169 754/318/11 755/319/11
f 755/319/11 752/317/169 751/316/169
f 754/320/59 756/321/3 757/295/3
f 757/295/3 755/322/59 754/320/59
f 756/321/3 758/323/61 759/324/61
f 759/324/61 757/295/3 756/321/3
f 758/323/61 760/325/62 761/326/62
f 761/326/62 759/324/61 758/323/61
f 760/325/62 750/315/5 753/284/5
f 753/284/5 761/326/62 760/325/62
f 758/327/9 756/328/9 754/329/9
f 754/329/9 751/330/9 750/331/9
f 758/327/9 754/329/9 750/331/9
f 760/332/9 758/327/9 750/331/9
f 752/330/10 755/329/10 757/328/10
f 757/328/10 759/327/10 761/332/10
f 752/330/10 757/328/10 761/332/10
f 753/331/10 752/330/10 761/332/10
f 762/333/170 763/334/170 764/335/12
f 764/335/12 765/336/12 762/333/170
f 766/333/5 762/334/5 765/335/171
f 765/335/171 767/336/171 766/333/5
f 768/333/11 766/334/11 767/335/11
f 767/335/11 769/336/11 768/333/11
f 763/333/3 768/334/3 769/335/172
f 769/335/172 764/336/172 763/333/3
f 770/333/12 771/334/12 772/335/173
f 772/335/173 773/336/173 770/333/12
f 774/333/5 770/334/5 773/335/5
f 773/335/5 775/336/5 774/333/5
f 776/333/174 774/334/174 775/335/175
f 775/335/175 777/336/175 776/333/174
f 771/333/3 776/334/3 777/335/3
f 777/335/3 772/336/3 771/333/3
f 778/334/9 779/335/9 780/336/9
f 780/336/9 781/333/9 778/334/9
f 782/333/10 783/334/10 784/335/10
f 784/335/10 785/336/10 782/333/10
f 785/333/12 784/334/12 780/335/12
f 780/335/12 779/336/12 785/333/12
f 782/333/5 785/334/5 779/335/5
f 779/335/5 778/336/5 782/333/5
f 783/333/11 782/334/11 778/335/11
f 778/335/11 781/336/11 783/333/11
f 784/333/3 783/334/3 781/335/3
f 781/335/3 780/336/3 784/333/3
f 786/337/176 787/338/176 788/339/176
f 788/339/176 789/340/176 786/337/176
f 789/340/176 788/339/176 790/341/176
f 790/341/176 791/342/176 789/340/176
f 791/342/176 790/341/176 792/343/176
f 792/343/177 793/344/177 791/342/177
f 787/345/178 794/346/178 795/347/178
f 795/347/178 788/348/178 787/345/178
f 788/339/178 795/349/178 796/350/178
f 796/350/178 790/341/178 788/339/178
f 790/341/178 796/350/178 797/351/178
f 797/351/178 792/343/178 790/341/178
f 786/352/9 789/353/9 798/354/9
f 798/354/9 799/355/9 786/352/9
f 789/353/9 791/356/9 800/357/9
f 800/357/9 798/354/9 789/353/9
f 791/356/9 793/358/9 801/359/9
f 801/359/9 800/357/9 791/356/9
f 799/355/9 798/354/9 802/360/9
f 802/360/9 803/361/9 799/355/9
f 798/354/9 800/357/9 804/362/9
f 804/362/9 802/360/9 798/354/9
f 800/357/9 801/359/9 805/363/9
f 805/363/9 804/362/9 800/357/9
f 793/352/179 792/364/179 806/365/179
f 806/365/179 801/355/179 793/352/179
f 792/366/3 797/367/3 807/368/3
f 807/368/3 806/369/3 792/366/3
f 801/355/179 806/365/179 808/370/179
f 808/370/179 805/361/179 801/355/179
f 806/369/3 807/368/3 809/371/3
f 809/371/3 808/372/3 806/369/3
f 797/352/10 796/353/10 810/354/10
f 810/354/10 807/355/10 797/352/10
f 796/353/10 795/356/10 811/357/10
f 811/357/10 810/354/10 796/353/10
f 795/356/10 794/358/10 812/359/10
f 812/359/10 811/357/10 795/356/10
f 807/373/10 810/374/10 813/375/10
f 813/375/10 809/376/10 807/373/10
f 810/374/10 811/377/10 814/378/10
f 814/378/10 813/375/10 810/374/10
f 811/377/10 812/379/10 815/380/10
f 815/380/10 814/378/10 811/377/10
f 794/381/5 787/382/5 816/383/5
f 816/383/5 812/384/5 794/381/5
f 787/385/180 786/386/180 799/387/180
f 799/387/180 816/388/180 787/385/180
f 812/384/5 816/383/5 817/389/5
f 817/389/5 815/390/5 812/384/5
f 816/388/180 799/387/180 803/391/180
f 803/391/180 817/392/180 816/388/180
f 818/393/12 819/394/12 820/395/12
f 820/395/12 821/396/12 818/393/12
f 822/397/11 823/398/11 824/399/11
f 824/399/11 825/400/11 822/397/11
f 818/401/9 821/402/9 823/403/9
f 823/403/9 822/404/9 818/401/9
f 821/402/3 820/402/3 824/403/3
f 824/403/3 823/403/3 821/402/3
f 820/402/10 819/401/10 825/404/10
f 825/404/10 824/403/10 820/402/10
f 819/401/5 818/401/5 822/404/5
f 822/404/5 825/404/5 819/401/5
f 826/405/12 827/406/12 828/407/12
f 828/407/12 829/408/12 826/405/12
f 830/409/11 831/405/11 832/406/11
f 832/406/11 833/410/11 830/409/11
f 826/409/9 829/405/9 831/406/9
f 831/406/9 830/407/9 826/409/9
f 829/409/3 828/405/3 832/406/3
f 832/406/3 831/407/3 829/409/3
f 828/409/10 827/405/10 833/406/10
f 833/406/10 832/407/10 828/409/10
f 827/409/5 826/405/5 830/406/5
f 830/406/5 833/407/5 827/409/5
f 834/411/181 835/412/181 836/413/181
f 836/413/182 837/414/182 834/411/182
f 837/414/183 836/413/183 838/415/183
f 838/415/183 839/416/183 837/414/183
f 839/416/171 838/415/171 840/417/171
f 840/417/171 841/418/171 839/416/171
f 841/418/184 840/417/184 842/419/184
f 842/419/185 843/420/185 841/418/185
f 843/421/186 842/422/186 844/423/186
f 844/424/187 845/425/187 843/426/187
f 846/411/188 847/427/188 848/428/188
f 848/428/188 849/412/188 846/411/188
f 847/427/189 850/429/190 851/430/189
f 851/430/189 848/428/190 847/427/189
f 850/429/191 852/431/191 853/432/191
f 853/432/191 851/430/191 850/429/191
f 852/431/192 854/433/192 855/434/192
f 855/434/192 853/432/192 852/431/192
f 854/433/193 856/435/193 857/436/193
f 857/436/193 855/434/193 854/433/193
f 834/426/11 837/437/11 847/424/11
f 847/424/11 846/425/11 834/426/11
f 837/426/11 839/437/11 850/424/11
f 850/424/11 847/425/11 837/426/11
f 839/426/11 841/437/11 852/424/11
f 852/424/11 850/425/11 839/426/11
f 841/426/11 843/437/11 854/424/11
f 854/424/11 852/425/11 841/426/11
f 843/426/11 845/437/11 856/424/11
f 856/424/11 854/425/11 843/426/11
f 845/426/9 844/437/9 857/424/9
f 857/424/9 856/425/9 845/426/9
f 844/426/12 842/437/12 855/424/12
f 855/424/12 857/425/12 844/426/12
f 842/426/12 840/437/12 853/424/12
f 853/424/12 855/425/12 842/426/12
f 840/426/12 838/437/12 851/424/12
f 851/424/12 853/425/12 840/426/12
f 838/426/12 836/437/12 848/424/12
f 848/424/12 851/425/12 838/426/12
f 836/426/12 835/437/12 849/424/12
f 849/424/12 848/425/12 836/426/12
f 835/412/5 834/411/5 846/411/5
f 846/411/5 849/412/5 835/412/5
f 858/438/194 859/439/194 860/440/194
f 860/440/195 861/441/195 858/438/195
f 861/441/196 860/440/197 862/442/198
f 862/442/198 863/443/196 861/441/196
f 863/443/172 862/442/172 864/444/172
f 864/444/172 865/445/172 863/443/172
f 865/445/199 864/444/199 866/446/199
f 866/446/200 867/447/200 865/445/200
f 867/421/201 866/422/201 868/423/201
f 868/424/202 869/425/202 867/426/202
f 870/438/203 871/448/203 872/449/203
f 872/449/203 873/439/203 870/438/203
f 871/448/204 874/450/204 875/451/204
f 875/451/204 872/449/204 871/448/204
f 874/450/205 876/452/205 877/453/205
f 877/453/205 875/451/205 874/450/205
f 876/452/206 878/454/206 879/455/206
f 879/455/206 877/453/206 876/452/206
f 878/454/207 880/456/207 881/457/207
f 881/457/207 879/455/207 878/454/207
f 858/426/12 861/437/12 871/424/12
f 871/424/12 870/425/12 858/426/12
f 861/426/12 863/437/12 874/424/12
f 874/424/12 871/425/12 861/426/12
f 863/426/12 865/437/12 876/424/12
f 876/424/12 874/425/12 863/426/12
f 865/426/12 867/437/12 878/424/12
f 878/424/12 876/425/12 865/426/12
f 867/426/12 869/437/12 880/424/12
f 880/424/12 878/425/12 867/426/12
f 869/426/9 868/437/9 881/424/9
f 881/424/9 880/425/9 869/426/9
f 868/426/11 866/437/11 879/424/11
f 879/424/11 881/425/11 868/426/11
f 866/426/11 864/437/11 877/424/11
f 877/424/11 879/425/11 866/426/11
f 864/426/11 862/437/11 875/424/11
f 875/424/11 877/425/11 864/426/11
f 862/426/11 860/437/11 872/424/11
f 872/424/11 875/425/11 862/426/11
f 860/426/11 859/437/11 873/424/11
f 873/424/11 872/425/11 860/426/11
f 859/439/3 858/438/3 870/438/3
f 870/438/3 873/439/3 859/439/3
f 882/405/11 883/406/11 884/407/11
f 884/407/11 885/408/11 882/405/11
f 886/409/12 887/405/12 888/406/12
f 888/406/12 889/410/12 886/409/12
f 882/409/9 885/405/9 887/406/9
f 887/406/9 886/407/9 882/409/9
f 885/409/5 884/405/5 888/406/5
f 888/406/5 887/407/5 885/409/5
f 884/409/10 883/405/10 889/406/10
f 889/406/10 888/407/10 884/409/10
f 883/409/3 882/405/3 886/406/3
f 886/406/3 889/407/3 883/409/3
f 804/458/208 805/459/208 808/460/208
f 808/460/11 809/461/11 813/462/11
f 814/463/11 815/464/11 817/465/11
f 817/465/11 803/466/11 802/467/11
f 802/467/11 804/458/11 808/460/11
f 808/460/11 813/462/11 814/463/11
f 814/463/11 817/465/11 802/467/11
f 808/460/11 814/463/11 802/467/11
f 890/468/26 891/469/209 892/470/210
f 890/468/26 893/471/209 891/469/209
f 893/471/209 894/472/169 891/469/209
f 893/471/209 895/473/169 894/472/169
f 895/473/169 896/474/11 894/472/169
f 895/473/169 897/475/11 896/474/11
f 897/475/11 898/472/57 896/474/11
f 897/475/11 899/473/57 898/472/57
f 899/473/57 900/469/59 898/472/57
f 899/473/57 901/471/59 900/469/59
f 901/471/59 902/470/211 900/469/59
f 901/471/59 903/476/31 902/470/211
f 892/470/210 904/477/209 905/478/5
f 892/470/210 891/469/209 904/477/209
f 891/469/209 906/479/169 904/477/209
f 891/469/209 894/472/169 906/479/169
f 894/472/169 907/480/11 906/479/169
f 894/472/169 896/474/11 907/480/11
f 896/474/11 908/479/57 907/480/11
f 896/474/11 898/472/57 908/479/57
f 898/472/57 909/477/59 908/479/57
f 898/472/57 900/469/59 909/477/59
f 900/469/59 910/478/3 909/477/59
f 900/469/59 902/470/211 910/478/3
f 902/470/211 911/481/60 910/478/3
f 902/470/211 912/482/60 911/481/60
f 912/482/60 913/483/61 911/481/60
f 912/482/60 914/484/61 913/483/61
f 914/484/61 915/485/12 913/483/61
f 914/484/61 916/486/12 915/485/12
f 916/486/12 917/483/62 915/485/12
f 916/486/12 918/484/62 917/483/62
f 918/484/62 919/481/63 917/483/62
f 918/484/62 920/482/63 919/481/63
f 920/482/63 905/478/5 919/481/63
f 920/482/63 892/470/210 905/478/5
f 921/487/10 905/488/10 904/489/10
f 921/487/10 904/489/10 906/490/10
f 921/487/10 906/490/10 907/491/10
f 921/487/10 907/491/10 908/492/10
f 921/487/10 908/492/10 909/493/10
f 921/487/10 909/493/10 910/494/10
f 921/487/10 910/494/10 911/495/10
f 921/487/10 911/495/10 913/496/10
f 921/487/10 913/496/10 915/497/10
f 921/487/10 915/497/10 917/498/10
f 921/487/10 917/498/10 919/499/10
f 921/487/10 919/499/10 905/488/10
f 5/5/2 922/500/212 4/1/2
f 6/7/3 923/501/3 1/8/3
f 7/9/4 8/502/4 2/1/4
f 9/11/5 924/500/5 3/1/5
f 14/5/7 925/500/7 13/1/2
f 15/12/3 926/502/3 10/1/3
f 16/9/8 17/502/8 11/1/4
f 18/15/5 927/503/5 12/13/5
f 16/9/8 926/10/8 925/500/7
f 925/500/7 14/5/7 16/9/8
f 14/5/7 927/504/7 17/502/8
f 16/9/8 14/5/7 17/502/8
f 923/505/9 922/505/9 924/505/9
f 8/505/11 8/505/10 923/505/10
f 8/505/10 923/505/11 923/505/10
f 924/505/213 924/505/213 8/505/213
f 924/505/9 8/505/9 923/505/9
f 922/505/11 922/505/10 924/505/10
f 3/2/2 924/504/214 5/5/2
f 4/6/3 922/506/3 6/7/3
f 1/2/4 923/10/215 7/9/4
f 3/1/5 2/2/5 8/10/6
f 12/2/2 927/504/7 14/5/7
f 13/2/3 925/504/3 15/12/3
f 10/2/4 926/10/8 16/9/8
f 12/13/5 11/507/5 17/14/5
f 765/335/171 769/335/172 767/336/171
f 765/335/171 764/336/172 769/335/172
f 780/336/9 762/333/170 779/335/9
f 780/336/9 763/334/170 762/333/170
f 772/335/173 775/335/175 773/336/173
f 772/335/173 777/336/175 775/335/175
f 778/334/9 776/333/174 781/333/9
f 778/334/9 774/334/174 776/333/174
