# generated by tools/objdedupe/dedupe.py -- do not hand-edit.
# Re-run the tool after touching sssr_2svet_nove.obj, sssr_3svet_nove.obj, sssr_4svet_nove.obj, sssr_5svet_nove.obj, sssr_2se_nove.obj, sssr_3ab_nove.obj, sssr_4ab_nove.obj, sssr_pr_nove.obj, sssr_vl_nove.obj.
o stoz_vl_cisla
v -0.023595 2.220108 0.040716
vt 0.794132 0.041293
vn -0.378600 -0.653200 0.655700
v -0.040868 2.220108 0.023444
vt 0.845929 0.011388
vn -0.655700 -0.653200 0.378600
v -0.047190 2.220108 -0.000151
vt 0.905739 0.011388
vn -0.757200 -0.653200 -0.000000
v -0.040868 2.220108 -0.023746
vt 0.957536 0.041293
vn -0.655700 -0.653200 -0.378600
v -0.023595 2.220108 -0.041019
vt 0.987441 0.093090
vn -0.378600 -0.653200 -0.655700
v 0.000000 2.220108 -0.047341
vt 0.987441 0.152900
vn -0.000000 -0.653200 -0.757200
v 0.023595 2.220108 -0.041019
vt 0.957536 0.204697
vn 0.378600 -0.653200 -0.655700
v 0.040868 2.220108 -0.023746
vt 0.905739 0.234602
vn 0.655700 -0.653200 -0.378600
v 0.047190 2.220108 -0.000151
vt 0.845929 0.234602
vn 0.757200 -0.653200 -0.000000
v 0.040868 2.220108 0.023444
vt 0.794132 0.204697
vn 0.655700 -0.653200 0.378600
v 0.023595 2.220108 0.040716
vt 0.764227 0.152900
vn 0.378600 -0.653200 0.655700
v 0.000000 2.220108 0.047039
vt 0.764227 0.093090
vn -0.000000 -0.653200 0.757200
v -0.040868 2.229183 0.023444
vt 0.987441 0.234602
vn -0.655700 0.653200 0.378600
v -0.047190 2.229183 -0.000151
vt 0.764227 0.234602
vn -0.757200 0.653200 -0.000000
vt 0.764227 0.011388
vt 0.987441 0.011388
v -0.023595 2.229183 0.040716
vn -0.378600 0.653200 0.655700
v 0.000000 2.229183 0.047039
vn -0.000000 0.653200 0.757200
v 0.023595 2.229183 0.040716
vn 0.378600 0.653200 0.655700
v 0.040868 2.229183 0.023444
vn 0.655700 0.653200 0.378600
v 0.047190 2.229183 -0.000151
vn 0.757200 0.653200 -0.000000
v 0.040868 2.229183 -0.023746
vn 0.655700 0.653200 -0.378600
v 0.023595 2.229183 -0.041019
vn 0.378600 0.653200 -0.655700
v 0.000000 2.229183 -0.047341
vn -0.000000 0.653200 -0.757200
v -0.023595 2.229183 -0.041019
vn -0.378600 0.653200 -0.655700
v -0.040868 2.229183 -0.023746
vn -0.655700 0.653200 -0.378600
v -0.006050 1.996258 0.051274
vn -0.577400 -0.577300 0.577400
v -0.006050 1.996258 0.045224
vn -0.707100 -0.707100 -0.000000
v 0.006050 1.996258 0.045224
vn 0.707100 -0.707100 -0.000000
v 0.006050 1.996258 0.051274
vn 0.577400 -0.577300 0.577300
v -0.006050 2.229183 0.051274
vn -0.577400 0.577300 0.577400
v 0.006050 2.229183 0.051274
vn 0.577300 0.577300 0.577400
v 0.006050 2.229183 0.045224
vn 0.707100 0.707100 -0.000000
v -0.006050 2.229183 0.045224
vn -0.707100 0.707100 -0.000000
v -0.023595 1.996258 0.040716
v -0.040868 1.996258 0.023444
v -0.047190 1.996258 -0.000151
v -0.040868 1.996258 -0.023746
v -0.023595 1.996258 -0.041019
v 0.000000 1.996258 -0.047341
v 0.023595 1.996258 -0.041019
v 0.040868 1.996258 -0.023746
v 0.047190 1.996258 -0.000151
v 0.040868 1.996258 0.023444
v 0.023595 1.996258 0.040716
v 0.000000 1.996258 0.047039
v -0.040868 2.005333 0.023444
v -0.047190 2.005333 -0.000151
v -0.023595 2.005333 0.040716
v 0.000000 2.005333 0.047039
v 0.023595 2.005333 0.040716
v 0.040868 2.005333 0.023444
v 0.047190 2.005333 -0.000151
v 0.040868 2.005333 -0.023746
v 0.023595 2.005333 -0.041019
v 0.000000 2.005333 -0.047341
v -0.023595 2.005333 -0.041019
v -0.040868 2.005333 -0.023746
v -0.033275 2.011383 0.057021
vn -0.577300 -0.577400 0.577400
v -0.033275 2.011383 0.050971
vn -0.577400 -0.577300 -0.577300
v 0.033275 2.011383 0.050971
vn 0.577300 -0.577400 -0.577400
v 0.033275 2.011383 0.057021
v -0.033275 2.108183 0.057021
vn -0.577400 0.577400 0.577300
v 0.033275 2.108183 0.057021
v 0.033275 2.108183 0.050971
vn 0.577400 0.577400 -0.577300
v -0.033275 2.108183 0.050971
vn -0.577300 0.577300 -0.577400
vt 0.249296 0.250954
vt 0.499999 0.250954
vt 0.499999 0.499999
vt 0.249296 0.499999
v -0.033275 2.117258 0.057021
v -0.033275 2.117258 0.050971
v 0.033275 2.117258 0.050971
v 0.033275 2.117258 0.057021
v -0.033275 2.214058 0.057021
v 0.033275 2.214058 0.057021
v 0.033275 2.214058 0.050971
v -0.033275 2.214058 0.050971
vt 0.749963 0.251000
vt 1.000063 0.251000
vt 1.000063 0.499817
vt 0.749963 0.499817
f 1/1/1 2/2/2 3/3/3
f 3/3/3 4/4/4 5/5/5
f 5/5/5 6/6/6 7/7/7
f 3/3/3 5/5/5 7/7/7
f 7/7/7 8/8/8 9/9/9
f 9/9/9 10/10/10 11/11/11
f 7/7/7 9/9/9 11/11/11
f 3/3/3 7/7/7 11/11/11
f 1/1/1 3/3/3 11/11/11
f 1/1/1 11/11/11 12/12/12
f 13/13/13 14/14/14 3/15/3
f 3/15/3 2/16/2 13/13/13
f 15/13/15 13/14/13 2/15/2
f 2/15/2 1/16/1 15/13/15
f 16/13/16 15/14/15 1/15/1
f 1/15/1 12/16/12 16/13/16
f 17/13/17 16/14/16 12/15/12
f 12/15/12 11/16/11 17/13/17
f 18/13/18 17/14/17 11/15/11
f 11/15/11 10/16/10 18/13/18
f 19/13/19 18/14/18 10/15/10
f 10/15/10 9/16/9 19/13/19
f 20/13/20 19/14/19 9/15/9
f 9/15/9 8/16/8 20/13/20
f 21/13/21 20/14/20 8/15/8
f 8/15/8 7/16/7 21/13/21
f 22/13/22 21/14/21 7/15/7
f 7/15/7 6/16/6 22/13/22
f 23/13/23 22/14/22 6/15/6
f 6/15/6 5/16/5 23/13/23
f 24/13/24 23/14/23 5/15/5
f 5/15/5 4/16/4 24/13/24
f 14/13/14 24/14/24 4/15/4
f 4/15/4 3/16/3 14/13/14
f 21/1/21 22/2/22 23/3/23
f 23/3/23 24/4/24 14/5/14
f 14/5/14 13/6/13 15/7/15
f 23/3/23 14/5/14 15/7/15
f 15/7/15 16/8/16 17/9/17
f 17/9/17 18/10/18 19/11/19
f 15/7/15 17/9/17 19/11/19
f 23/3/23 15/7/15 19/11/19
f 21/1/21 23/3/23 19/11/19
f 21/1/21 19/11/19 20/12/20
f 25/13/25 26/14/26 27/15/27
f 27/15/27 28/16/28 25/13/25
f 29/13/29 30/14/30 31/15/31
f 31/15/31 32/16/32 29/13/29
f 25/13/25 28/14/28 30/15/30
f 30/15/30 29/16/29 25/13/25
f 28/13/28 27/14/27 31/15/31
f 31/15/31 30/16/30 28/13/28
f 26/13/26 25/14/25 29/15/29
f 29/15/29 32/16/32 26/13/26
f 33/1/1 34/2/2 35/3/3
f 35/3/3 36/4/4 37/5/5
f 37/5/5 38/6/6 39/7/7
f 35/3/3 37/5/5 39/7/7
f 39/7/7 40/8/8 41/9/9
f 41/9/9 42/10/10 43/11/11
f 39/7/7 41/9/9 43/11/11
f 35/3/3 39/7/7 43/11/11
f 33/1/1 35/3/3 43/11/11
f 33/1/1 43/11/11 44/12/12
f 45/13/13 46/14/14 35/15/3
f 35/15/3 34/16/2 45/13/13
f 47/13/15 45/14/13 34/15/2
f 34/15/2 33/16/1 47/13/15
f 48/13/16 47/14/15 33/15/1
f 33/15/1 44/16/12 48/13/16
f 49/13/17 48/14/16 44/15/12
f 44/15/12 43/16/11 49/13/17
f 50/13/18 49/14/17 43/15/11
f 43/15/11 42/16/10 50/13/18
f 51/13/19 50/14/18 42/15/10
f 42/15/10 41/16/9 51/13/19
f 52/13/20 51/14/19 41/15/9
f 41/15/9 40/16/8 52/13/20
f 53/13/21 52/14/20 40/15/8
f 40/15/8 39/16/7 53/13/21
f 54/13/22 53/14/21 39/15/7
f 39/15/7 38/16/6 54/13/22
f 55/13/23 54/14/22 38/15/6
f 38/15/6 37/16/5 55/13/23
f 56/13/24 55/14/23 37/15/5
f 37/15/5 36/16/4 56/13/24
f 46/13/14 56/14/24 36/15/4
f 36/15/4 35/16/3 46/13/14
f 53/1/21 54/2/22 55/3/23
f 55/3/23 56/4/24 46/5/14
f 46/5/14 45/6/13 47/7/15
f 55/3/23 46/5/14 47/7/15
f 47/7/15 48/8/16 49/9/17
f 49/9/17 50/10/18 51/11/19
f 47/7/15 49/9/17 51/11/19
f 55/3/23 47/7/15 51/11/19
f 53/1/21 55/3/23 51/11/19
f 53/1/21 51/11/19 52/12/20
f 57/13/33 58/14/34 59/15/35
f 59/15/35 60/16/28 57/13/33
f 61/13/36 62/14/30 63/15/37
f 63/15/37 64/16/38 61/13/36
f 57/17/33 60/18/28 62/19/30
f 62/19/30 61/20/36 57/17/33
f 60/13/28 59/14/35 63/15/37
f 63/15/37 62/16/30 60/13/28
f 59/13/35 58/14/34 64/15/38
f 64/15/38 63/16/37 59/13/35
f 58/13/34 57/14/33 61/15/36
f 61/15/36 64/16/38 58/13/34
f 65/13/33 66/14/34 67/15/35
f 67/15/35 68/16/28 65/13/33
f 69/13/36 70/14/30 71/15/37
f 71/15/37 72/16/38 69/13/36
f 65/21/33 68/22/28 70/23/30
f 70/23/30 69/24/36 65/21/33
f 68/13/28 67/14/35 71/15/37
f 71/15/37 70/16/30 68/13/28
f 67/13/35 66/14/34 72/15/38
f 72/15/38 71/16/37 67/13/35
f 66/13/34 65/14/33 69/15/36
f 69/15/36 72/16/38 66/13/34
