# generated by tools/objdedupe/dedupe.py -- do not hand-edit.
# Re-run the tool after touching sssr_2svet_nove.obj, sssr_3svet_nove.obj, sssr_4svet_nove.obj, sssr_5svet_nove.obj, sssr_2se_nove.obj, sssr_3ab_nove.obj, sssr_4ab_nove.obj, sssr_pr_nove.obj, sssr_vl_nove.obj.
o stoz_4_30
v 0.081603 2.653105 0.263634
vt 1.000000 1.000000
vn -0.000000 -0.000000 1.000000
v -0.081747 2.653105 0.263634
vt 0.000000 1.000000
v -0.081747 2.408081 0.263634
vt 0.000000 0.000000
v 0.081603 2.408081 0.263634
vt 1.000000 0.000000
f 1/1/1 2/2/1 3/3/1
f 3/3/1 4/4/1 1/1/1
