# generated by tools/objdedupe/dedupe.py -- do not hand-edit.
# Re-run the tool after touching sssr_2svet_nove.obj, sssr_3svet_nove.obj, sssr_4svet_nove.obj, sssr_5svet_nove.obj, sssr_2se_nove.obj, sssr_3ab_nove.obj, sssr_4ab_nove.obj, sssr_pr_nove.obj, sssr_vl_nove.obj.
o stoz_4_rychl_zaklad
v 0.081603 2.408081 0.257584
vt 0.336809 0.699793
vn -0.000000 -1.000000 -0.000000
v 0.081603 2.408081 0.263634
vt 0.279347 0.699793
v -0.081747 2.408081 0.263634
vt 0.279347 0.642331
v -0.081747 2.408081 0.257584
vt 0.336809 0.642331
v 0.081603 2.653105 0.257584
vn -0.000000 1.000000 -0.000000
v -0.081747 2.653105 0.257584
v -0.081747 2.653105 0.263634
v 0.081603 2.653105 0.263634
vn 1.000000 -0.000000 -0.000000
vn -0.000000 -0.000000 -1.000000
vn -1.000000 -0.000000 -0.000000
v -0.010404 2.470093 0.236409
vn -0.965900 -0.000000 0.258800
v -0.009020 2.470093 0.241575
v -0.009020 2.591093 0.241575
v -0.010404 2.591093 0.236409
vn -0.707100 -0.000000 0.707100
v -0.005238 2.470093 0.245357
v -0.005238 2.591093 0.245357
vn -0.258800 -0.000000 0.965900
v -0.000072 2.470093 0.246741
v -0.000072 2.591093 0.246741
vn 0.258800 -0.000000 0.965900
v 0.005094 2.470093 0.245357
v 0.005094 2.591093 0.245357
vn 0.707100 -0.000000 0.707100
v 0.008876 2.470093 0.241575
v 0.008876 2.591093 0.241575
vn 0.965900 -0.000000 0.258800
v 0.010260 2.470093 0.236409
v 0.010260 2.591093 0.236409
vn 0.965900 -0.000000 -0.258800
v 0.008876 2.470093 0.231243
v 0.008876 2.591093 0.231243
vn 0.707100 -0.000000 -0.707100
v 0.005094 2.470093 0.227461
v 0.005094 2.591093 0.227461
vn 0.258800 -0.000000 -0.965900
v -0.000072 2.470093 0.226077
v -0.000072 2.591093 0.226077
vn -0.258800 -0.000000 -0.965900
v -0.005238 2.470093 0.227461
v -0.005238 2.591093 0.227461
vn -0.707100 -0.000000 -0.707100
v -0.009020 2.470093 0.231243
v -0.009020 2.591093 0.231243
vn -0.965900 -0.000000 -0.258800
vt 0.300380 0.642331
vt 0.315776 0.642331
vt 0.329110 0.650030
vt 0.336809 0.663364
vt 0.336809 0.678761
vt 0.329110 0.692095
vt 0.315776 0.699793
vt 0.300380 0.699793
vt 0.287046 0.692095
vt 0.279347 0.678761
vt 0.279347 0.663364
vt 0.287046 0.650030
v 0.005978 2.515468 0.245484
v 0.005978 2.515468 0.257584
v -0.006122 2.515468 0.257584
v -0.006122 2.515468 0.245484
v 0.005978 2.545718 0.245484
v -0.006122 2.545718 0.245484
v -0.006122 2.545718 0.257584
v 0.005978 2.545718 0.257584
v -0.003474 2.470093 0.249502
v -0.067625 2.470093 -0.052305
v -0.055789 2.470093 -0.054820
v 0.008362 2.470093 0.246987
v -0.003474 2.482193 0.249502
v 0.008362 2.482193 0.246987
v -0.055789 2.482193 -0.054820
v -0.067625 2.482193 -0.052305
vn 0.207800 -0.000000 0.978200
vn 0.207900 -0.000000 0.978200
vn 0.978100 -0.000000 -0.207900
vn -0.207800 -0.000000 -0.978200
vn -0.207900 -0.000000 -0.978200
vn -0.978100 -0.000000 0.207900
v -0.058576 2.457993 -0.009642
vn -0.978600 -0.000000 0.205700
v -0.053452 2.457993 0.014738
v -0.053452 2.470093 0.014738
v -0.058576 2.470093 -0.009642
vn -0.977100 -0.000000 0.212600
v -0.048929 2.457993 0.035527
v -0.048929 2.470093 0.035527
vn -0.590900 -0.000000 0.806700
v -0.039317 2.457993 0.042568
v -0.039317 2.470093 0.042568
vn 0.214400 -0.000000 0.976700
v 0.023523 2.457993 0.028773
v 0.023523 2.470093 0.028773
v 0.040796 2.457993 0.011500
v 0.040796 2.470093 0.011500
v 0.047118 2.457993 -0.012095
v 0.047118 2.470093 -0.012095
v 0.040796 2.457993 -0.035690
v 0.040796 2.470093 -0.035690
v 0.023523 2.457993 -0.052963
v 0.023523 2.470093 -0.052963
v -0.000072 2.457993 -0.059285
v -0.000072 2.470093 -0.059285
vn -0.256900 -0.000000 -0.966400
v -0.059998 2.457993 -0.043353
v -0.059998 2.470093 -0.043353
vn -0.979600 -0.000000 -0.201200
v -0.062739 2.457993 -0.030005
v -0.062739 2.470093 -0.030005
vn -0.979600 -0.000000 -0.201100
vn -0.979700 -0.000000 0.200300
vn 0.002900 -1.000000 -0.000000
f 1/1/1 2/2/1 3/3/1
f 3/3/1 4/4/1 1/1/1
f 5/1/2 6/2/2 7/3/2
f 7/3/2 8/4/2 5/1/2
f 5/1/3 8/2/3 2/3/3
f 2/3/3 1/4/3 5/1/3
f 6/1/4 5/2/4 1/3/4
f 1/3/4 4/4/4 6/1/4
f 7/1/5 6/2/5 4/3/5
f 4/3/5 3/4/5 7/1/5
f 9/3/6 10/4/6 11/1/6
f 11/1/6 12/2/6 9/3/6
f 10/3/7 13/4/7 14/1/7
f 14/1/7 11/2/7 10/3/7
f 13/3/8 15/4/8 16/1/8
f 16/1/8 14/2/8 13/3/8
f 15/3/9 17/4/9 18/1/9
f 18/1/9 16/2/9 15/3/9
f 17/3/10 19/4/10 20/1/10
f 20/1/10 18/2/10 17/3/10
f 19/3/11 21/4/11 22/1/11
f 22/1/11 20/2/11 19/3/11
f 21/3/12 23/4/12 24/1/12
f 24/1/12 22/2/12 21/3/12
f 23/3/13 25/4/13 26/1/13
f 26/1/13 24/2/13 23/3/13
f 25/3/14 27/4/14 28/1/14
f 28/1/14 26/2/14 25/3/14
f 27/3/15 29/4/15 30/1/15
f 30/1/15 28/2/15 27/3/15
f 29/3/16 31/4/16 32/1/16
f 32/1/16 30/2/16 29/3/16
f 31/3/17 9/4/17 12/1/17
f 12/1/17 32/2/17 31/3/17
f 29/5/1 27/6/1 25/7/1
f 25/7/1 23/8/1 21/9/1
f 21/9/1 19/10/1 17/11/1
f 25/7/1 21/9/1 17/11/1
f 17/11/1 15/12/1 13/13/1
f 13/13/1 10/14/1 9/15/1
f 17/11/1 13/13/1 9/15/1
f 25/7/1 17/11/1 9/15/1
f 29/5/1 25/7/1 9/15/1
f 31/16/1 29/5/1 9/15/1
f 11/5/2 14/6/2 16/7/2
f 16/7/2 18/8/2 20/9/2
f 20/9/2 22/10/2 24/11/2
f 16/7/2 20/9/2 24/11/2
f 24/11/2 26/12/2 28/13/2
f 28/13/2 30/14/2 32/15/2
f 24/11/2 28/13/2 32/15/2
f 16/7/2 24/11/2 32/15/2
f 11/5/2 16/7/2 32/15/2
f 12/16/2 11/5/2 32/15/2
f 33/1/1 34/2/1 35/3/1
f 35/3/1 36/4/1 33/1/1
f 37/1/2 38/2/2 39/3/2
f 39/3/2 40/4/2 37/1/2
f 37/1/3 40/2/3 34/3/3
f 34/3/3 33/4/3 37/1/3
f 38/1/4 37/2/4 33/3/4
f 33/3/4 36/4/4 38/1/4
f 39/1/5 38/2/5 36/3/5
f 36/3/5 35/4/5 39/1/5
f 41/3/1 42/4/1 43/1/1
f 43/1/1 44/2/1 41/3/1
f 45/3/2 46/4/2 47/1/2
f 47/1/2 48/2/2 45/3/2
f 41/3/18 44/4/18 46/1/18
f 46/1/18 45/2/19 41/3/18
f 44/3/20 43/4/20 47/1/20
f 47/1/20 46/2/20 44/3/20
f 43/3/21 42/4/22 48/1/21
f 48/1/21 47/2/21 43/3/21
f 42/3/23 41/4/23 45/1/23
f 45/1/23 48/2/23 42/3/23
f 49/3/24 50/4/24 51/1/24
f 51/1/24 52/2/24 49/3/24
f 50/3/25 53/4/25 54/1/25
f 54/1/25 51/2/25 50/3/25
f 53/3/26 55/4/26 56/1/26
f 56/1/26 54/2/26 53/3/26
f 55/3/27 57/4/27 58/1/27
f 58/1/27 56/2/27 55/3/27
f 57/3/10 59/4/10 60/1/10
f 60/1/10 58/2/10 57/3/10
f 59/3/11 61/4/11 62/1/11
f 62/1/11 60/2/11 59/3/11
f 61/3/12 63/4/12 64/1/12
f 64/1/12 62/2/12 61/3/12
f 63/3/13 65/4/13 66/1/13
f 66/1/13 64/2/13 63/3/13
f 65/3/14 67/4/14 68/1/14
f 68/1/14 66/2/14 65/3/14
f 67/3/28 69/4/28 70/1/28
f 70/1/28 68/2/28 67/3/28
f 69/3/29 71/4/29 72/1/29
f 72/1/29 70/2/30 69/3/29
f 71/3/31 49/4/31 52/1/31
f 52/1/31 72/2/31 71/3/31
f 69/5/1 67/6/1 65/7/1
f 65/7/1 63/8/1 61/9/1
f 61/9/1 59/10/1 57/11/1
f 65/7/1 61/9/1 57/11/1
f 57/11/1 55/12/1 53/13/1
f 53/13/1 50/14/32 49/15/1
f 57/11/1 53/13/1 49/15/1
f 65/7/1 57/11/1 49/15/1
f 69/5/1 65/7/1 49/15/1
f 71/16/1 69/5/1 49/15/1
f 51/5/2 54/6/2 56/7/2
f 56/7/2 58/8/2 60/9/2
f 60/9/2 62/10/2 64/11/2
f 56/7/2 60/9/2 64/11/2
f 64/11/2 66/12/2 68/13/2
f 68/13/2 70/14/2 72/15/2
f 64/11/2 68/13/2 72/15/2
f 56/7/2 64/11/2 72/15/2
f 51/5/2 56/7/2 72/15/2
f 52/16/2 51/5/2 72/15/2
