# generated by tools/objdedupe/dedupe.py -- do not hand-edit.
# Re-run the tool after touching sssr_2svet_nove.obj, sssr_3svet_nove.obj, sssr_4svet_nove.obj, sssr_5svet_nove.obj, sssr_2se_nove.obj, sssr_3ab_nove.obj, sssr_4ab_nove.obj, sssr_pr_nove.obj, sssr_vl_nove.obj.
o stoz_4_zaklad
v -0.090822 1.165084 -0.336720
vt 0.794404 0.496512
vn -0.000000 0.994300 0.106200
v -0.084772 1.165084 -0.336720
vt 0.934387 0.496512
v -0.084772 1.168298 -0.366799
vt 0.934387 0.006378
vn -0.000000 0.994300 0.106300
v -0.090822 1.168298 -0.366799
vt 0.794404 0.006378
vn -0.000000 0.106300 -0.994300
v -0.085638 0.008592 -0.490736
vt 0.914340 0.076568
vt 0.996710 0.496678
vn -1.000000 -0.000000 -0.000000
v -0.090822 0.008592 -0.486369
vt 0.989419 0.071723
vt 0.937772 0.495768
vn -0.000000 -0.106300 0.994300
v -0.089941 0.008592 -0.460314
vt 0.914008 0.077732
vn 1.000000 -0.000000 -0.000000
v -0.084772 0.008592 -0.460314
vt 0.934387 0.077732
vn 0.729900 0.683600 -0.000000
v -0.084772 0.008592 -0.464732
vt 0.914056 0.077563
v 0.084628 1.165084 -0.336720
v 0.090678 1.165084 -0.336720
v 0.090678 1.168298 -0.366799
v 0.084628 1.168298 -0.366799
v 0.089812 0.008592 -0.490736
v 0.084628 0.008592 -0.486369
vt 0.914293 0.076735
v 0.085509 0.008592 -0.460314
vt 0.997924 0.499013
v 0.090678 0.008592 -0.460314
vt 0.937579 0.077150
v 0.090678 0.008592 -0.464732
vt 0.946343 0.076980
v 0.060428 1.936425 -0.014586
vn -0.000000 -1.000000 -0.000000
v 0.060428 1.936425 -0.008536
v -0.060572 1.936425 -0.008536
v -0.060572 1.936425 -0.014586
v 0.060428 1.966676 -0.014586
vn -0.000000 1.000000 -0.000000
v -0.060572 1.966676 -0.014586
v -0.060572 1.966676 -0.008536
v 0.060428 1.966676 -0.008536
vn -0.000000 -0.000000 -1.000000
vn -0.000000 -0.000000 1.000000
v -0.090685 1.936425 -0.276394
v -0.084681 1.936425 -0.277132
v -0.052239 1.936425 -0.012916
v -0.058244 1.936425 -0.012179
v -0.090685 1.966676 -0.276394
v -0.058244 1.966676 -0.012179
v -0.052239 1.966676 -0.012916
v -0.084681 1.966676 -0.277132
vn -0.992500 -0.000000 0.121900
vn 0.992500 -0.000000 -0.121900
v 0.084537 1.936425 -0.277132
v 0.090541 1.936425 -0.276395
v 0.058099 1.936425 -0.012179
v 0.052095 1.936425 -0.012916
v 0.084537 1.966676 -0.277132
v 0.052095 1.966676 -0.012916
v 0.058099 1.966676 -0.012179
v 0.090541 1.966676 -0.276395
vn -0.992500 -0.000000 -0.121900
vn 0.992500 -0.000000 0.121900
v -0.084772 1.168169 -0.366794
vn -0.000000 -0.994300 -0.106300
v -0.084772 1.164955 -0.336715
vn -0.000000 -0.994300 -0.106200
v -0.090822 1.164955 -0.336715
v -0.090822 1.168169 -0.366794
v -0.084772 3.842164 -0.081026
v -0.090822 3.842164 -0.081026
v -0.090822 3.842164 -0.050947
v -0.084772 3.842164 -0.050947
vn -0.000000 -0.106100 0.994400
v 0.090678 1.168169 -0.366794
v 0.090678 1.164955 -0.336715
v 0.084628 1.164955 -0.336715
v 0.084628 1.168169 -0.366794
v 0.090678 3.842164 -0.081026
v 0.084628 3.842164 -0.081026
v 0.084628 3.842164 -0.050947
v 0.090678 3.842164 -0.050947
v -0.047262 3.811912 -0.011561
vn -0.965900 -0.000000 0.258800
v -0.040940 3.811912 0.012034
v -0.040940 3.842162 0.012034
v -0.047262 3.842162 -0.011561
vn -0.707100 -0.000000 0.707100
v -0.023667 3.811912 0.029307
v -0.023667 3.842162 0.029307
vn -0.258800 -0.000000 0.965900
v -0.000072 3.811912 0.035629
v -0.000072 3.842162 0.035629
vn 0.258800 -0.000000 0.965900
v 0.023523 3.811912 0.029307
v 0.023523 3.842162 0.029307
vn 0.707100 -0.000000 0.707100
v 0.040796 3.811912 0.012034
v 0.040796 3.842162 0.012034
vn 0.965900 -0.000000 0.258800
v 0.047118 3.811912 -0.011561
v 0.047118 3.842162 -0.011561
vn 0.965900 -0.000000 -0.258800
v 0.040796 3.811912 -0.035156
v 0.040796 3.842164 -0.035156
vn 0.707100 -0.000000 -0.707100
v 0.023523 3.811912 -0.052429
v 0.023523 3.842162 -0.052429
vn 0.258800 -0.000000 -0.965900
v -0.000072 3.811912 -0.058751
v -0.000072 3.842162 -0.058751
vn -0.258800 -0.000000 -0.965900
v -0.023667 3.811912 -0.052429
v -0.023667 3.842162 -0.052429
vn -0.707100 -0.000000 -0.707100
v -0.040940 3.811912 -0.035156
v -0.040940 3.842164 -0.035156
vn -0.965900 -0.000000 -0.258800
vt 0.851853 0.347574
vt 0.884737 0.347574
vt 0.913216 0.354846
vt 0.929659 0.367440
vt 0.929659 0.381982
vt 0.913216 0.394576
vt 0.884737 0.401847
vt 0.851853 0.401847
vt 0.823374 0.394576
vt 0.806932 0.381982
vt 0.806932 0.367440
vt 0.823374 0.354846
vn 0.000200 1.000000 -0.000000
vn -0.000000 1.000000 -0.000100
vn -0.000200 1.000000 -0.000000
v -0.047262 1.936425 -0.011561
v -0.040940 1.936425 0.012034
v -0.040940 1.966676 0.012034
v -0.047262 1.966676 -0.011561
v -0.023667 1.936425 0.029307
v -0.023667 1.966676 0.029307
v -0.000072 1.936425 0.035629
v -0.000072 1.966676 0.035629
v 0.023523 1.936425 0.029307
v 0.023523 1.966676 0.029307
v 0.040796 1.936425 0.012034
v 0.040796 1.966676 0.012034
v 0.047118 1.936425 -0.011561
v 0.047118 1.966676 -0.011561
v 0.040796 1.936425 -0.035156
v 0.040796 1.966676 -0.035156
v 0.023523 1.936425 -0.052429
v 0.023523 1.966676 -0.052429
v -0.000072 1.936425 -0.058751
v -0.000072 1.966676 -0.058751
v -0.023667 1.936425 -0.052429
v -0.023667 1.966676 -0.052429
v -0.040940 1.936425 -0.035156
v -0.040940 1.966676 -0.035156
v -0.080261 3.811926 -0.040209
vt 0.925801 0.398062
v -0.085711 3.811926 -0.037584
vt 0.804042 0.398062
v -0.090778 3.811926 -0.059786
vt 0.804042 0.291566
v -0.084728 3.811926 -0.059786
vt 0.925801 0.304157
v -0.067741 3.811926 -0.024509
v -0.071513 3.811926 -0.019779
vn -0.000000 -1.000000 0.000100
vn -0.000000 -1.000000 -0.000100
v -0.049649 3.811926 -0.015797
v -0.050995 3.811926 -0.009899
v 0.049505 3.811926 -0.015797
v 0.050851 3.811926 -0.009899
vt 0.925801 0.294381
v 0.067597 3.811926 -0.024509
v 0.071369 3.811926 -0.019779
v 0.080117 3.811926 -0.040209
v 0.085567 3.811926 -0.037584
v 0.084584 3.811926 -0.059786
v 0.090634 3.811926 -0.059786
v -0.080261 3.842176 -0.040209
v -0.084728 3.842176 -0.059786
vt 0.818437 0.398062
v -0.090778 3.842176 -0.059786
v -0.085711 3.842176 -0.037584
vt 0.925801 0.291566
v -0.067741 3.842176 -0.024509
v -0.071513 3.842176 -0.019779
v -0.049649 3.842176 -0.015797
v -0.050995 3.842176 -0.009899
v 0.049505 3.842176 -0.015797
vn -0.000000 1.000000 0.000100
vt 0.807260 0.398062
v 0.050851 3.842176 -0.009899
v 0.067597 3.842176 -0.024509
v 0.071369 3.842176 -0.019779
v 0.080117 3.842176 -0.040209
v 0.085567 3.842176 -0.037584
v 0.084584 3.842176 -0.059786
v 0.090634 3.842176 -0.059786
vn -0.974900 -0.000000 0.222500
vn -0.781900 -0.000000 0.623500
vn -0.433800 -0.000000 0.901000
vn -0.433900 -0.000000 0.901000
vn 0.433800 -0.000000 0.901000
vn 0.433900 -0.000000 0.901000
vn 0.781900 -0.000000 0.623500
vn 0.974900 -0.000000 0.222500
vn -0.974900 -0.000000 -0.222500
vn -0.781800 -0.000000 -0.623500
vn -0.433900 -0.000000 -0.901000
vn 0.433900 -0.000000 -0.901000
vn 0.781800 -0.000000 -0.623500
vn 0.974900 -0.000000 -0.222500
v 0.087653 0.280895 -0.449682
v 0.087653 0.280253 -0.443666
v -0.087797 0.280253 -0.443666
v -0.087797 0.280895 -0.449682
v 0.087653 0.292928 -0.448396
v -0.087797 0.292928 -0.448396
v -0.087797 0.292284 -0.442380
v 0.087653 0.292284 -0.442380
v 0.087653 0.492646 -0.426934
v 0.087653 0.492002 -0.420918
v -0.087797 0.492002 -0.420918
v -0.087797 0.492646 -0.426934
v 0.087653 0.504677 -0.425648
v -0.087797 0.504677 -0.425648
v -0.087797 0.504035 -0.419632
v 0.087653 0.504035 -0.419632
v 0.087653 0.704396 -0.404186
v 0.087653 0.703753 -0.398170
v -0.087797 0.703753 -0.398170
v -0.087797 0.704396 -0.404186
v 0.087653 0.716428 -0.402900
v -0.087797 0.716428 -0.402900
v -0.087797 0.715785 -0.396884
v 0.087653 0.715785 -0.396884
v 0.087653 0.916146 -0.381438
v 0.087653 0.915503 -0.375422
v -0.087797 0.915503 -0.375422
v -0.087797 0.916146 -0.381438
v 0.087653 0.928178 -0.380152
v -0.087797 0.928178 -0.380152
v -0.087797 0.927535 -0.374136
v 0.087653 0.927535 -0.374136
v 0.087653 1.127895 -0.358690
v 0.087653 1.127252 -0.352674
v -0.087797 1.127252 -0.352674
v -0.087797 1.127895 -0.358690
v 0.087653 1.139928 -0.357404
v -0.087797 1.139928 -0.357404
v -0.087797 1.139284 -0.351388
v 0.087653 1.139284 -0.351388
v 0.087653 1.339646 -0.335942
v 0.087653 1.339002 -0.329926
v -0.087797 1.339002 -0.329926
v -0.087797 1.339646 -0.335942
v 0.087653 1.351678 -0.334656
v -0.087797 1.351678 -0.334656
v -0.087797 1.351035 -0.328640
v 0.087653 1.351035 -0.328640
v 0.087653 1.551396 -0.313194
v 0.087653 1.550753 -0.307178
v -0.087797 1.550753 -0.307178
v -0.087797 1.551396 -0.313194
v 0.087653 1.563427 -0.311908
v -0.087797 1.563427 -0.311908
v -0.087797 1.562784 -0.305892
v 0.087653 1.562784 -0.305892
v 0.087653 1.763145 -0.290446
v 0.087653 1.762502 -0.284430
v -0.087797 1.762502 -0.284430
v -0.087797 1.763145 -0.290446
v 0.087653 1.775177 -0.289160
vn -0.000000 0.994400 0.106100
v -0.087797 1.775177 -0.289160
v -0.087797 1.774534 -0.283144
v 0.087653 1.774534 -0.283144
v 0.087653 1.974895 -0.267698
v 0.087653 1.974252 -0.261682
v -0.087797 1.974252 -0.261682
v -0.087797 1.974895 -0.267698
v 0.087653 1.986926 -0.266412
v -0.087797 1.986926 -0.266412
v -0.087797 1.986284 -0.260396
v 0.087653 1.986284 -0.260396
v 0.087653 2.186646 -0.244950
v 0.087653 2.186002 -0.238934
v -0.087797 2.186002 -0.238934
v -0.087797 2.186646 -0.244950
v 0.087653 2.198677 -0.243664
v -0.087797 2.198677 -0.243664
v -0.087797 2.198035 -0.237648
v 0.087653 2.198035 -0.237648
v 0.087653 2.398396 -0.222202
v 0.087653 2.397753 -0.216186
v -0.087797 2.397753 -0.216186
v -0.087797 2.398396 -0.222202
v 0.087653 2.410427 -0.220916
v -0.087797 2.410427 -0.220916
v -0.087797 2.409785 -0.214900
v 0.087653 2.409785 -0.214900
v 0.087653 2.610146 -0.199454
v 0.087653 2.609503 -0.193438
v -0.087797 2.609503 -0.193438
v -0.087797 2.610146 -0.199454
v 0.087653 2.622177 -0.198168
v -0.087797 2.622177 -0.198168
v -0.087797 2.621534 -0.192152
v 0.087653 2.621534 -0.192152
v 0.087653 2.821896 -0.176706
v 0.087653 2.821253 -0.170690
v -0.087797 2.821253 -0.170690
v -0.087797 2.821896 -0.176706
v 0.087653 2.833927 -0.175420
v -0.087797 2.833927 -0.175420
v -0.087797 2.833284 -0.169404
v 0.087653 2.833284 -0.169404
v 0.087653 3.033646 -0.153958
v 0.087653 3.033003 -0.147942
v -0.087797 3.033003 -0.147942
v -0.087797 3.033646 -0.153958
v 0.087653 3.045677 -0.152672
v -0.087797 3.045677 -0.152672
v -0.087797 3.045034 -0.146656
v 0.087653 3.045034 -0.146656
v 0.087653 3.245396 -0.131210
v 0.087653 3.244753 -0.125194
v -0.087797 3.244753 -0.125194
v -0.087797 3.245396 -0.131210
v 0.087653 3.257427 -0.129924
vn -0.000000 0.994300 0.106600
v -0.087797 3.257427 -0.129924
v -0.087797 3.256784 -0.123908
v 0.087653 3.256784 -0.123908
v 0.087653 3.457146 -0.108462
v 0.087653 3.456503 -0.102446
v -0.087797 3.456503 -0.102446
v -0.087797 3.457146 -0.108462
v 0.087653 3.469177 -0.107176
v -0.087797 3.469177 -0.107176
v -0.087797 3.468534 -0.101160
v 0.087653 3.468534 -0.101160
v 0.087653 3.668896 -0.085714
v 0.087653 3.668253 -0.079698
v -0.087797 3.668253 -0.079698
v -0.087797 3.668896 -0.085714
v 0.087653 3.680927 -0.084428
v -0.087797 3.680927 -0.084428
v -0.087797 3.680284 -0.078412
v 0.087653 3.680284 -0.078412
v -0.102922 0.044893 0.163809
vt 0.000000 0.000000
vn -0.000000 0.800000 0.600000
v -0.090822 0.044893 0.163809
vt 1.000000 0.000000
v -0.090822 0.063043 0.139609
vt 1.000000 1.000000
v -0.102922 0.063043 0.139609
vt 0.000000 1.000000
v -0.102922 0.063043 -0.162891
vn -0.000000 0.800000 -0.600000
v -0.090822 0.063043 -0.162891
v -0.090822 0.044893 -0.187091
v -0.102922 0.044893 -0.187091
v -0.102922 0.026743 0.181959
vt 0.710457 0.823482
vn -0.000000 0.707100 0.707100
v -0.090822 0.026743 0.181959
vt 0.861514 0.823482
vt 0.866433 0.892552
vt 0.715376 0.892552
v -0.090822 0.026743 0.139609
v -0.090822 0.026743 -0.162891
v -0.090822 0.026743 -0.205241
vn -0.000000 0.707100 -0.707100
v -0.102922 0.026743 -0.205241
v -0.102922 0.026743 -0.162891
v -0.102922 0.026743 0.139609
v 0.090678 0.044893 0.163809
v 0.102778 0.044893 0.163809
v 0.102778 0.063043 0.139609
v 0.090678 0.063043 0.139609
v 0.090678 0.063043 -0.162891
v 0.102778 0.063043 -0.162891
v 0.102778 0.044893 -0.187091
v 0.090678 0.044893 -0.187091
v 0.090678 0.026743 0.181959
v 0.102778 0.026743 0.181959
v 0.102778 0.026743 0.139609
v 0.102778 0.026743 -0.162891
v 0.102778 0.026743 -0.205241
v 0.090678 0.026743 -0.205241
v 0.090678 0.026743 -0.162891
v 0.090678 0.026743 0.139609
v -0.111997 0.026743 -0.187091
vn 0.866000 -0.000000 -0.500000
v -0.119560 0.050943 -0.200190
v -0.111997 0.050943 -0.187091
v -0.119560 0.026743 -0.200190
v -0.134685 0.050943 -0.200190
v -0.134685 0.026743 -0.200190
vn -0.866000 -0.000000 -0.500000
v -0.142247 0.050943 -0.187091
v -0.142247 0.026743 -0.187091
vn -0.866000 -0.000000 0.500000
v -0.134685 0.050943 -0.173992
v -0.134685 0.026743 -0.173992
v -0.119560 0.050943 -0.173992
v -0.119560 0.026743 -0.173992
vn 0.866000 -0.000000 0.500000
v -0.127122 0.050943 -0.187091
v 0.142103 0.026743 -0.187091
v 0.134541 0.050943 -0.200190
v 0.142103 0.050943 -0.187091
v 0.134541 0.026743 -0.200190
v 0.119416 0.050943 -0.200190
v 0.119416 0.026743 -0.200190
v 0.111853 0.050943 -0.187091
v 0.111853 0.026743 -0.187091
v 0.119416 0.050943 -0.173992
v 0.119416 0.026743 -0.173992
v 0.134541 0.050943 -0.173992
v 0.134541 0.026743 -0.173992
v 0.126978 0.050943 -0.187091
v -0.111997 0.026743 0.163809
v -0.119560 0.050943 0.150710
v -0.111997 0.050943 0.163809
v -0.119560 0.026743 0.150710
v -0.134685 0.050943 0.150710
v -0.134685 0.026743 0.150710
v -0.142247 0.050943 0.163809
v -0.142247 0.026743 0.163809
v -0.134685 0.050943 0.176908
v -0.134685 0.026743 0.176908
v -0.119560 0.050943 0.176908
v -0.119560 0.026743 0.176908
v -0.127122 0.050943 0.163809
v 0.142103 0.026743 0.163809
v 0.134541 0.050943 0.150710
v 0.142103 0.050943 0.163809
v 0.134541 0.026743 0.150710
v 0.119416 0.050943 0.150710
v 0.119416 0.026743 0.150710
v 0.111853 0.050943 0.163809
v 0.111853 0.026743 0.163809
v 0.119416 0.050943 0.176908
v 0.119416 0.026743 0.176908
v 0.134541 0.050943 0.176908
v 0.134541 0.026743 0.176908
v 0.126978 0.050943 0.163809
v -0.120598 0.063043 -0.191831
vn 0.951000 -0.000000 -0.309200
v -0.119057 0.063043 -0.187091
v -0.119057 0.050943 -0.187091
v -0.120598 0.050943 -0.191831
v -0.124630 0.063043 -0.194761
vn 0.587900 -0.000000 -0.809000
v -0.124630 0.050943 -0.194761
v -0.129614 0.063043 -0.194761
v -0.129614 0.050943 -0.194761
v -0.133646 0.063043 -0.191831
vn -0.587900 -0.000000 -0.809000
v -0.133646 0.050943 -0.191831
v -0.135187 0.063043 -0.187091
vn -0.951000 -0.000000 -0.309200
v -0.135187 0.050943 -0.187091
v -0.133646 0.063043 -0.182351
vn -0.951000 -0.000000 0.309200
v -0.133646 0.050943 -0.182351
v -0.129614 0.063043 -0.179421
vn -0.587900 -0.000000 0.809000
v -0.129614 0.050943 -0.179421
v -0.124630 0.063043 -0.179421
v -0.124630 0.050943 -0.179421
v -0.120598 0.063043 -0.182351
vn 0.587900 -0.000000 0.809000
v -0.120598 0.050943 -0.182351
v 0.133502 0.063043 -0.191831
v 0.135043 0.063043 -0.187091
v 0.135043 0.050943 -0.187091
v 0.133502 0.050943 -0.191831
v 0.129470 0.063043 -0.194761
v 0.129470 0.050943 -0.194761
v 0.124486 0.063043 -0.194761
v 0.124486 0.050943 -0.194761
v 0.120454 0.063043 -0.191831
v 0.120454 0.050943 -0.191831
v 0.118913 0.063043 -0.187091
v 0.118913 0.050943 -0.187091
v 0.120454 0.063043 -0.182351
v 0.120454 0.050943 -0.182351
v 0.124486 0.063043 -0.179421
v 0.124486 0.050943 -0.179421
v 0.129470 0.063043 -0.179421
v 0.129470 0.050943 -0.179421
v 0.133502 0.063043 -0.182351
v 0.133502 0.050943 -0.182351
v -0.120598 0.063043 0.159069
v -0.119057 0.063043 0.163809
v -0.119057 0.050943 0.163809
v -0.120598 0.050943 0.159069
v -0.124630 0.063043 0.156139
v -0.124630 0.050943 0.156139
v -0.129614 0.063043 0.156139
v -0.129614 0.050943 0.156139
v -0.133646 0.063043 0.159069
v -0.133646 0.050943 0.159069
v -0.135187 0.063043 0.163809
v -0.135187 0.050943 0.163809
v -0.133646 0.063043 0.168549
v -0.133646 0.050943 0.168549
v -0.129614 0.063043 0.171479
v -0.129614 0.050943 0.171479
v -0.124630 0.063043 0.171479
v -0.124630 0.050943 0.171479
v -0.120598 0.063043 0.168549
v -0.120598 0.050943 0.168549
v 0.133502 0.063043 0.159069
v 0.135043 0.063043 0.163809
v 0.135043 0.050943 0.163809
v 0.133502 0.050943 0.159069
v 0.129470 0.063043 0.156139
v 0.129470 0.050943 0.156139
v 0.124486 0.063043 0.156139
v 0.124486 0.050943 0.156139
v 0.120454 0.063043 0.159069
v 0.120454 0.050943 0.159069
v 0.118913 0.063043 0.163809
v 0.118913 0.050943 0.163809
v 0.120454 0.063043 0.168549
v 0.120454 0.050943 0.168549
v 0.124486 0.063043 0.171479
v 0.124486 0.050943 0.171479
v 0.129470 0.063043 0.171479
v 0.129470 0.050943 0.171479
v 0.133502 0.063043 0.168549
v 0.133502 0.050943 0.168549
vn 0.951000 -0.000000 0.309200
v -0.151322 0.026743 0.139609
vt 0.500198 0.505327
v 0.151178 0.026743 0.139609
vt 1.000000 0.505327
v 0.151178 0.377643 0.139609
vt 1.000000 0.958432
v -0.151322 0.377643 0.139609
vt 0.500198 0.958432
v 0.151178 0.026743 -0.162891
v 0.151178 0.377643 -0.162891
v -0.151322 0.026743 -0.162891
v -0.151322 0.377643 -0.162891
v -0.130147 0.401843 0.118434
vt 0.601336 0.585927
v 0.130003 0.401843 0.118434
vt 0.900388 0.585927
v 0.130003 0.401843 -0.141716
vt 0.900388 0.884979
v -0.130147 0.401843 -0.141716
vt 0.601336 0.884979
vt 0.500355 0.951937
vn -0.000000 0.447200 0.894400
vt 0.998965 0.954578
v 0.145128 0.389743 0.133559
vt 0.995487 0.924293
vn -0.000000 0.562900 0.826500
v -0.145272 0.389743 0.133559
vt 0.506621 0.926249
vn -0.000000 0.563000 0.826500
vt 0.978358 0.945309
vn -0.000000 0.780900 0.624700
vt 0.524395 0.942869
vt 0.500336 0.951923
vn 0.894400 0.447200 -0.000000
vt 0.998907 0.954611
v 0.145128 0.389743 -0.156841
vt 0.995423 0.924347
vn 0.826500 0.562900 -0.000000
vt 0.506699 0.926265
vt 0.506663 0.926235
vn 0.624700 0.780900 -0.000000
vt 0.978332 0.945286
vt 0.524395 0.942771
vn -0.000000 0.447200 -0.894400
vt 0.500355 0.951938
v -0.145272 0.389743 -0.156841
vt 0.506621 0.926252
vn -0.000000 0.562900 -0.826500
vt 0.995487 0.924295
vn -0.000000 0.563000 -0.826500
vt 0.524574 0.942870
vn -0.000000 0.780900 -0.624700
vt 0.978358 0.945311
vn -0.894400 0.447200 -0.000000
vn -0.826500 0.562900 -0.000000
vn -0.826500 0.563000 -0.000000
vt 0.524396 0.942771
vn -0.624700 0.780900 -0.000000
vt 0.978332 0.945285
v -0.111997 0.099041 0.154734
vt 0.692158 0.718517
v -0.111997 0.099041 0.139609
vt 0.862272 0.718517
v 0.111853 0.099041 0.139609
vt 0.859930 0.836566
v 0.111853 0.099041 0.154734
vt 0.689817 0.836566
v -0.111997 0.322891 0.154734
v 0.111853 0.322891 0.154734
v 0.111853 0.322891 0.139609
v -0.111997 0.322891 0.139609
vt 0.498347 0.000000
vt 0.498347 0.500171
vt 0.000000 0.500171
v 0.027153 0.428765 0.035514
vt 0.177506 0.503805
v -0.000072 0.428765 0.042809
vt 0.126199 0.503805
v -0.027297 0.428765 0.035514
vt 0.115225 0.503805
v -0.047227 0.428765 0.015584
vt 0.147525 0.503805
v -0.054522 0.428765 -0.011641
vt 0.214444 0.503805
v -0.047227 0.428765 -0.038866
vt 0.298050 0.503805
v -0.027297 0.428765 -0.058796
vt 0.375942 0.503805
v -0.000072 0.428765 -0.066091
vt 0.427249 0.503805
v 0.027153 0.428765 -0.058796
vt 0.438223 0.503805
v 0.047083 0.428765 -0.038866
vt 0.405923 0.503805
v 0.054378 0.428765 -0.011641
vt 0.373623 0.503805
v 0.047083 0.428765 0.015584
vt 0.255398 0.503805
v 0.047083 0.698293 -0.038866
vt 0.405923 1.000000
v 0.054378 0.698293 -0.011641
vt 0.373623 1.000000
vt 0.219423 0.877242
vt 0.190959 0.905706
v 0.027153 0.698293 -0.058796
vt 0.050626 0.503805
vt 0.082926 0.503805
v -0.000072 0.698293 -0.066091
vt 0.082925 1.000000
vn 0.000100 -0.000000 -1.000000
vt 0.050626 1.000000
vt 0.082925 0.503805
vn -0.500000 -0.000000 -0.866000
v -0.027297 0.698293 -0.058796
vt 0.115225 1.000000
vn -0.000100 -0.000000 -1.000000
v -0.047227 0.698293 -0.038866
vt 0.147525 1.000000
vt 0.179825 0.503805
v -0.054522 0.698293 -0.011641
vt 0.179825 1.000000
vt 0.212124 0.503805
v -0.047227 0.698293 0.015584
vt 0.212124 1.000000
vt 0.244424 0.503805
vn -0.500000 -0.000000 0.866000
v -0.027297 0.698293 0.035514
vt 0.244424 1.000000
vt 0.276724 0.503805
v -0.000072 0.698293 0.042809
vt 0.276724 1.000000
vt 0.309024 0.503805
vn 0.500000 -0.000000 0.866000
v 0.027153 0.698293 0.035514
vt 0.309024 1.000000
vt 0.341323 0.503805
v 0.047083 0.698293 0.015584
vt 0.341323 1.000000
vt 0.229842 0.838359
vt 0.152076 0.916124
vt 0.113194 0.905706
vt 0.084730 0.877242
vt 0.074311 0.838359
vt 0.084730 0.799477
vt 0.113194 0.771013
vt 0.152076 0.760594
vt 0.190959 0.771013
vt 0.219423 0.799477
vt 0.154427 0.924774
v 0.066478 0.698293 -0.020716
vt 0.139826 0.944241
v 0.051947 0.698293 -0.020716
vt 0.139826 0.920862
v -0.090822 0.450243 -0.002566
vt 0.283141 1.000000
vn -0.763800 0.645500 -0.000000
v -0.090822 0.450243 -0.020716
vt 0.237258 1.000000
v -0.108972 0.428765 -0.020716
vt 0.237258 0.506849
v -0.108972 0.428765 -0.002566
vt 0.283141 0.506849
v -0.066622 0.698293 -0.002566
vn -0.995300 0.097100 -0.000000
v -0.066622 0.698293 -0.020716
vt 0.488967 0.553445
vt 0.494749 0.498130
v -0.052091 0.428765 -0.002566
vt 0.440344 0.498130
v -0.052091 0.450243 -0.002566
vt 0.440344 0.553445
v -0.052091 0.698293 -0.002566
vt 0.440344 0.994848
vt 0.488532 0.994848
v 0.090678 0.450243 -0.020716
vn 0.763800 0.645500 -0.000000
v 0.090678 0.450243 -0.002566
v 0.108828 0.428765 -0.002566
v 0.108828 0.428765 -0.020716
vn 0.995300 0.097100 -0.000000
v 0.066478 0.698293 -0.002566
vt 0.006581 0.553445
vt 0.000798 0.498130
v 0.051947 0.428765 -0.020716
vt 0.055204 0.498130
v 0.051947 0.450243 -0.020716
vt 0.055204 0.553445
vt 0.055204 0.994848
vt 0.007016 0.994848
vt 0.153259 0.765840
v -0.015197 0.698293 -0.078191
vt 0.171694 0.751092
v -0.015197 0.698293 -0.062038
vt 0.171694 0.770780
v 0.015053 0.446916 0.054909
vn -0.000000 0.554700 0.832100
v -0.015197 0.446916 0.054909
v -0.015197 0.428765 0.067009
v 0.015053 0.428765 0.067009
v 0.015053 0.698293 0.054909
v -0.015197 0.698293 0.054909
v 0.015053 0.428765 -0.062038
vt 0.058277 0.505827
v 0.015053 0.428765 -0.090291
vt 0.006804 0.505827
v 0.015053 0.446916 -0.078191
vt 0.008428 0.551118
v 0.015053 0.446916 -0.062038
vt 0.058277 0.551118
v 0.015053 0.698293 -0.062038
vt 0.058277 0.999500
v 0.015053 0.698293 -0.078191
vt 0.008428 0.999500
v -0.015197 0.446916 -0.078191
vn -0.000000 0.554700 -0.832100
v -0.015197 0.428765 -0.090291
v -0.015197 0.428765 -0.062038
v -0.015197 0.446916 -0.062038
vt 0.058277 0.999501
vt 0.008428 0.999501
v 0.051947 0.450243 -0.002566
v 0.051947 0.428765 -0.002566
v -0.052091 0.450243 -0.020716
v -0.052091 0.428765 -0.020716
v 0.015053 0.428765 0.038756
vt 0.441178 0.505827
v 0.015053 0.446916 0.038756
vt 0.441178 0.551118
vt 0.491028 0.551118
vt 0.492651 0.505827
v -0.015197 0.446916 0.038756
v -0.015197 0.428765 0.038756
vt 0.169027 0.730102
vt 0.169027 0.753482
v -0.052377 0.698293 -0.003634
vt 0.167308 0.753021
vt 0.154427 0.749570
v -0.052091 0.698293 -0.020716
vt 0.491028 0.999500
v 0.015053 0.698293 0.038756
vt 0.441178 0.999500
vt 0.134824 0.913319
vt 0.134824 0.893631
vt 0.153259 0.898571
vt 0.491028 0.999501
v -0.015197 0.698293 0.038756
vt 0.441178 0.999501
v 0.051947 0.698293 -0.002566
vt 0.169027 0.920862
vt 0.169027 0.944241
vt 0.134824 0.770780
vt 0.134824 0.751092
vt 0.139826 0.730102
vt 0.139826 0.753482
v -0.013243 0.698293 0.039280
vt 0.169312 0.894269
vt 0.171694 0.893631
vt 0.171694 0.913319
v -0.072672 0.445403 0.028900
vt 0.286266 0.807357
vn -0.000000 -0.866000 -0.500000
v -0.048472 0.445403 0.028900
vt 0.335091 0.807783
v -0.048472 0.440866 0.036759
vt 0.335518 0.758909
v -0.072672 0.440866 0.036759
vt 0.286693 0.758483
vt 0.337651 0.514539
vt 0.288825 0.514113
v -0.072672 0.454478 0.028900
vt 0.288399 0.562987
vn -0.000000 0.500000 -0.866000
v -0.048472 0.454478 0.028900
vt 0.337224 0.563413
v -0.072672 0.459015 0.036759
vt 0.287972 0.611861
v -0.048472 0.459015 0.036759
vt 0.336798 0.612287
v -0.072672 0.454478 0.044618
vt 0.287546 0.660735
vn -0.000000 0.500000 0.866000
v -0.048472 0.454478 0.044618
vt 0.336371 0.661161
v -0.072672 0.445403 0.044618
vt 0.287119 0.709609
vn -0.000000 -0.500000 0.866000
v -0.048472 0.445403 0.044618
vt 0.335944 0.710035
vt 0.364145 0.793565
vt 0.339120 0.839141
vt 0.364145 0.884716
vt 0.414195 0.884716
vt 0.439220 0.839141
vt 0.414195 0.793565
v 0.072528 0.445403 0.028900
v 0.072528 0.454478 0.028900
v 0.072528 0.459015 0.036759
v 0.072528 0.454478 0.044618
v 0.072528 0.445403 0.044618
v 0.072528 0.440866 0.036759
vt 0.286603 0.758346
vt 0.287029 0.709472
v 0.048328 0.445403 0.044618
vt 0.335854 0.709898
v 0.048328 0.440866 0.036759
vt 0.335428 0.758772
v 0.048328 0.445403 0.028900
vt 0.335001 0.807647
vt 0.286176 0.807220
vt 0.288309 0.562850
vt 0.288735 0.513976
vt 0.337560 0.514402
v 0.048328 0.454478 0.028900
vt 0.337134 0.563276
v 0.048328 0.459015 0.036759
vt 0.336707 0.612150
vt 0.287882 0.611724
vt 0.287456 0.660598
v 0.048328 0.454478 0.044618
vt 0.336281 0.661024
v -0.027297 0.432195 0.035514
vt 0.184137 0.851110
vn -0.000000 -0.951000 -0.309300
v -0.022651 0.431790 0.036759
vt 0.178421 0.847688
vn 0.000100 -0.965800 0.259100
v -0.048472 0.431790 0.036759
vt 0.210188 0.847688
v -0.048472 0.435257 0.026090
vt 0.210188 0.877014
vn -0.000000 -0.809000 -0.587800
v -0.036720 0.435257 0.026090
vt 0.195730 0.877014
vn -0.000000 -0.875400 -0.483300
v -0.048472 0.444332 0.019497
vt 0.210188 0.906339
vn -0.000000 -0.309000 -0.951100
v -0.043314 0.444332 0.019497
vt 0.203842 0.906339
vn -0.000000 -0.353300 -0.935500
v -0.048472 0.455549 0.019497
vt 0.210188 0.935665
v -0.043314 0.455549 0.019497
vt 0.203842 0.935665
vt 0.203842 0.642410
vn -0.000000 0.587800 -0.809000
vt 0.210188 0.642410
v -0.048472 0.464624 0.026090
vt 0.210188 0.671735
vn -0.000000 0.809000 -0.587800
v -0.036720 0.464624 0.026090
vt 0.195730 0.671735
vn -0.000000 0.875500 -0.483300
v -0.048472 0.468090 0.036759
vt 0.210188 0.701061
v -0.022651 0.468090 0.036759
vt 0.178421 0.701061
vn -0.000000 0.965900 0.258900
v -0.027297 0.467686 0.035514
vt 0.184137 0.697639
vn -0.000000 0.951000 -0.309000
v -0.048472 0.464624 0.047428
vt 0.210188 0.730386
vn -0.000000 0.809000 0.587800
v -0.015197 0.464624 0.047428
vt 0.169250 0.730386
v -0.015197 0.465656 0.044253
vt 0.169250 0.721659
vn -0.000000 0.951100 0.309000
v -0.015197 0.467441 0.038756
vt 0.169250 0.706551
vn -0.000000 0.951100 0.308800
v 0.048328 0.455549 0.054021
vt 0.091097 0.759712
vn -0.000000 0.309000 0.951100
v 0.048328 0.464624 0.047428
vt 0.091097 0.730386
v 0.015053 0.464624 0.047428
vt 0.132035 0.730386
v 0.015053 0.455549 0.054021
vt 0.132035 0.759712
v 0.015053 0.444332 0.054021
vt 0.132035 0.789037
vn -0.000000 -0.309700 0.950800
v 0.048328 0.444332 0.054021
vt 0.091097 0.789037
vn -0.000000 -0.309000 0.951100
v 0.015053 0.435257 0.047428
vt 0.132035 0.818363
vn -0.000000 -0.809000 0.587800
v 0.048328 0.435257 0.047428
vt 0.091097 0.818363
v 0.015053 0.444193 0.053920
vt 0.132035 0.789486
vn -0.000000 -0.588400 0.808600
v -0.015197 0.434225 0.044252
vt 0.169250 0.827091
vn -0.000000 -0.951100 0.309000
v -0.015197 0.435257 0.047428
vt 0.169250 0.818363
v -0.048472 0.435257 0.047428
vt 0.210188 0.818363
v -0.015197 0.432440 0.038756
vt 0.169250 0.842198
v -0.048472 0.444332 0.054021
vt 0.161636 0.796197
v -0.048472 0.455549 0.054021
vt 0.116504 0.796197
vt 0.079991 0.824090
vt 0.066044 0.869222
vt 0.079991 0.914355
vt 0.116504 0.942248
vt 0.161636 0.942248
vt 0.198149 0.914355
vt 0.212096 0.869222
vt 0.198149 0.824090
v 0.048328 0.435257 0.026090
v 0.048328 0.444332 0.019497
v 0.048328 0.455549 0.019497
v 0.048328 0.464624 0.026090
v 0.048328 0.468090 0.036759
v 0.048328 0.431790 0.036759
v -0.072672 0.675303 0.028900
v -0.048472 0.675303 0.028900
vn -0.000000 -0.866000 -0.500100
v -0.048472 0.670765 0.036759
v -0.072672 0.670765 0.036759
v -0.072672 0.684378 0.028900
v -0.048472 0.684378 0.028900
v -0.072672 0.688916 0.036759
v -0.048472 0.688916 0.036759
v -0.072672 0.684378 0.044618
v -0.048472 0.684378 0.044618
v -0.072672 0.675303 0.044618
v -0.048472 0.675303 0.044618
v 0.072528 0.675303 0.028900
v 0.072528 0.684378 0.028900
v 0.072528 0.688916 0.036759
v 0.072528 0.684378 0.044618
v 0.072528 0.675303 0.044618
v 0.072528 0.670765 0.036759
v 0.048328 0.675303 0.044618
v 0.048328 0.670765 0.036759
v 0.048328 0.675303 0.028900
v 0.048328 0.684378 0.028900
v 0.048328 0.688916 0.036759
v 0.048328 0.684378 0.044618
v -0.027297 0.662095 0.035514
vt 0.184137 0.851111
vn -0.000000 -0.951200 -0.308700
v -0.022651 0.661691 0.036759
vn -0.000000 -0.965900 0.259000
v -0.048472 0.661691 0.036759
v -0.048472 0.665157 0.026090
v -0.036720 0.665157 0.026090
vn -0.000000 -0.875500 -0.483300
v -0.048472 0.674232 0.019497
v -0.043314 0.674232 0.019497
v -0.048472 0.685449 0.019497
v -0.043314 0.685449 0.019497
v -0.048472 0.694524 0.026090
v -0.036720 0.694524 0.026090
vn -0.000000 0.875400 -0.483300
v -0.048472 0.697991 0.036759
v -0.022651 0.697991 0.036759
vn -0.000000 0.965900 0.259000
v -0.027297 0.697586 0.035514
vn -0.000000 0.951200 -0.308700
v -0.048472 0.694524 0.047428
v -0.015197 0.694524 0.047428
v -0.015197 0.695556 0.044252
v -0.015197 0.697342 0.038756
vn -0.000000 0.951000 0.309000
v 0.048328 0.685449 0.054021
v 0.048328 0.694524 0.047428
v 0.015053 0.694524 0.047428
v 0.015053 0.685449 0.054021
v 0.015053 0.674232 0.054021
v 0.048328 0.674232 0.054021
v 0.048328 0.665157 0.047428
v 0.015053 0.665157 0.047428
v -0.015197 0.664125 0.044252
v -0.015197 0.665157 0.047428
v -0.048472 0.665157 0.047428
v -0.015197 0.662340 0.038756
vn -0.000000 -0.951100 0.308900
v -0.048472 0.674232 0.054021
v -0.048472 0.685449 0.054021
v 0.048328 0.665157 0.026090
v 0.048328 0.674232 0.019497
v 0.048328 0.685449 0.019497
v 0.048328 0.694524 0.026090
v 0.048328 0.697991 0.036759
v 0.048328 0.661691 0.036759
v -0.072672 0.445403 -0.067900
v -0.048472 0.445403 -0.067900
v -0.048472 0.440866 -0.060041
v -0.072672 0.440866 -0.060041
v -0.072672 0.454478 -0.067900
v -0.048472 0.454478 -0.067900
v -0.072672 0.459015 -0.060041
v -0.048472 0.459015 -0.060041
v -0.072672 0.454478 -0.052182
v -0.048472 0.454478 -0.052182
v -0.072672 0.445403 -0.052182
v -0.048472 0.445403 -0.052182
v 0.072528 0.445403 -0.067900
v 0.072528 0.454478 -0.067900
v 0.072528 0.459015 -0.060041
v 0.072528 0.454478 -0.052182
v 0.072528 0.445403 -0.052182
v 0.072528 0.440866 -0.060041
v 0.048328 0.445403 -0.052182
v 0.048328 0.440866 -0.060041
v 0.048328 0.445403 -0.067900
v 0.048328 0.454478 -0.067900
v 0.048328 0.459015 -0.060041
v 0.048328 0.454478 -0.052182
v 0.015053 0.434225 -0.067535
vt 0.132035 0.868286
vn -0.000000 -0.951100 -0.309000
v 0.015053 0.435257 -0.070710
vt 0.132035 0.877014
v 0.048328 0.435257 -0.070710
vt 0.091097 0.877014
v 0.048328 0.431790 -0.060041
vt 0.091097 0.847688
v 0.022507 0.431790 -0.060041
vt 0.122864 0.847688
vn -0.000100 -0.965800 -0.259100
v 0.015053 0.432440 -0.062038
vt 0.132035 0.853179
vn -0.000000 -0.951100 -0.308900
v 0.015053 0.444193 -0.077202
vt 0.132035 0.905891
vn -0.000000 -0.587500 -0.809200
v 0.015053 0.444332 -0.077303
vt 0.132035 0.906339
v 0.048328 0.444332 -0.077303
vt 0.091097 0.906339
v 0.048328 0.455549 -0.077303
vt 0.091097 0.935665
v 0.015053 0.455549 -0.077303
vt 0.132035 0.935665
vt 0.132035 0.642410
v 0.015053 0.464624 -0.070710
vt 0.132035 0.671735
v 0.048328 0.464624 -0.070710
vt 0.091097 0.671735
vt 0.091097 0.642410
v 0.022507 0.468090 -0.060041
vt 0.122864 0.701061
vn -0.000000 0.965900 -0.258900
v 0.048328 0.468090 -0.060041
vt 0.091097 0.701061
v 0.015053 0.465656 -0.067534
vt 0.132035 0.680463
vn -0.000000 0.951100 -0.309000
v 0.015053 0.467441 -0.062038
vt 0.132035 0.695571
vn -0.000000 0.951100 -0.308900
v 0.036576 0.464624 -0.049372
vt 0.105555 0.730386
vn -0.000000 0.875500 0.483300
v 0.048328 0.464624 -0.049372
v 0.027153 0.467686 -0.058796
vt 0.117148 0.704483
vn -0.000000 0.951200 0.308700
v 0.043170 0.455549 -0.042779
vt 0.097443 0.759712
vn -0.000000 0.353300 0.935500
v 0.048328 0.455549 -0.042779
v 0.048328 0.444332 -0.042779
v 0.043170 0.444332 -0.042779
vt 0.097443 0.789037
vn -0.000000 -0.353300 0.935500
v 0.036576 0.435257 -0.049372
vt 0.105555 0.818363
vn -0.000000 -0.875400 0.483300
v 0.048328 0.435257 -0.049372
v 0.027153 0.432195 -0.058796
vt 0.117148 0.844266
vn -0.000000 -0.951000 0.309300
v -0.048472 0.444332 -0.042779
v -0.048472 0.455549 -0.042779
v -0.048472 0.464624 -0.049372
v -0.048472 0.468090 -0.060041
v -0.048472 0.464624 -0.070710
v -0.048472 0.455549 -0.077303
v -0.048472 0.444332 -0.077303
v -0.048472 0.435257 -0.070710
v -0.048472 0.431790 -0.060041
v -0.048472 0.435257 -0.049372
v -0.072672 0.675303 -0.067900
v -0.048472 0.675303 -0.067900
v -0.048472 0.670765 -0.060041
v -0.072672 0.670765 -0.060041
v -0.072672 0.684378 -0.067900
v -0.048472 0.684378 -0.067900
v -0.072672 0.688916 -0.060041
v -0.048472 0.688916 -0.060041
v -0.072672 0.684378 -0.052182
v -0.048472 0.684378 -0.052182
v -0.072672 0.675303 -0.052182
v -0.048472 0.675303 -0.052182
v 0.072528 0.675303 -0.067900
v 0.072528 0.684378 -0.067900
v 0.072528 0.688916 -0.060041
v 0.072528 0.684378 -0.052182
v 0.072528 0.675303 -0.052182
v 0.072528 0.670765 -0.060041
v 0.048328 0.675303 -0.052182
v 0.048328 0.670765 -0.060041
v 0.048328 0.675303 -0.067900
v 0.048328 0.684378 -0.067900
v 0.048328 0.688916 -0.060041
v 0.048328 0.684378 -0.052182
v 0.015053 0.664125 -0.067534
v 0.015053 0.665157 -0.070710
v 0.048328 0.665157 -0.070710
v 0.048328 0.661691 -0.060041
v 0.022507 0.661691 -0.060041
vn -0.000000 -0.965900 -0.259000
v 0.015053 0.662340 -0.062038
v 0.048328 0.674232 -0.077303
v 0.015053 0.674232 -0.077303
v 0.015053 0.685449 -0.077303
v 0.048328 0.685449 -0.077303
v 0.048328 0.694524 -0.070710
v 0.015053 0.694524 -0.070710
v 0.022507 0.697991 -0.060041
vn -0.000000 0.965900 -0.259000
v 0.048328 0.697991 -0.060041
v 0.015053 0.695556 -0.067534
v 0.015053 0.697342 -0.062038
v 0.036576 0.694524 -0.049372
vn -0.000000 0.875400 0.483300
v 0.048328 0.694524 -0.049372
v 0.027153 0.697586 -0.058796
v 0.043170 0.685449 -0.042779
v 0.048328 0.685449 -0.042779
v 0.048328 0.674232 -0.042779
v 0.043170 0.674232 -0.042779
v 0.036576 0.665157 -0.049372
vn -0.000000 -0.875500 0.483300
v 0.048328 0.665157 -0.049372
v 0.027153 0.662095 -0.058796
vn -0.000000 -0.951200 0.308700
v -0.048472 0.674232 -0.042779
v -0.048472 0.685449 -0.042779
v -0.048472 0.694524 -0.049372
v -0.048472 0.697991 -0.060041
v -0.048472 0.694524 -0.070710
v -0.048472 0.685449 -0.077303
v -0.048472 0.674232 -0.077303
v -0.048472 0.665157 -0.070710
v -0.048472 0.661691 -0.060041
v -0.048472 0.665157 -0.049372
vt 0.210188 0.759712
v -0.043314 0.455549 -0.042779
vt 0.203842 0.759712
v -0.036720 0.464624 -0.049372
vt 0.195730 0.730386
v -0.024146 0.467960 -0.059640
vt 0.180259 0.702162
vn -0.000000 0.951200 0.308500
v -0.022651 0.468090 -0.060041
v -0.027297 0.467686 -0.058796
vt 0.184137 0.704483
vn -0.000000 0.951000 0.309300
v -0.043314 0.444332 -0.042779
vt 0.203842 0.789037
vt 0.210188 0.789037
v -0.036720 0.435257 -0.049372
vt 0.195730 0.818363
v -0.022651 0.431790 -0.060041
vn -0.000000 -0.965900 -0.258800
v -0.024146 0.431921 -0.059640
vt 0.180259 0.846588
v -0.027297 0.432195 -0.058796
vt 0.184137 0.844266
v -0.028137 0.432468 -0.057956
vt 0.185171 0.841956
vn -0.000200 -0.951200 0.308700
v -0.043314 0.685449 -0.042779
v -0.036720 0.694524 -0.049372
v -0.024146 0.697860 -0.059640
vn -0.000000 0.951100 0.308900
v -0.022651 0.697991 -0.060041
vn -0.000000 0.965900 -0.258800
v -0.027297 0.697586 -0.058796
v -0.043314 0.674232 -0.042779
v -0.036720 0.665157 -0.049372
v -0.022651 0.661691 -0.060041
v -0.024146 0.661821 -0.059640
vn -0.000000 -0.951100 0.308800
v -0.027297 0.662095 -0.058796
v -0.028137 0.662368 -0.057956
v -0.015197 0.435257 -0.070710
vt 0.169250 0.877014
vn -0.000000 -0.809000 -0.587900
v -0.015197 0.434716 -0.069046
vt 0.169250 0.872442
v -0.015197 0.434225 -0.067534
vt 0.169250 0.868286
v -0.015197 0.432440 -0.062038
vt 0.169250 0.853179
vn 0.000100 -0.951100 -0.308900
v -0.015197 0.665157 -0.070710
vn -0.000000 -0.808900 -0.588000
v -0.015197 0.664617 -0.069046
v -0.015197 0.664125 -0.067534
vn -0.000000 -0.951000 -0.309100
v -0.015197 0.662340 -0.062038
v -0.015197 0.694524 -0.070710
vt 0.169250 0.671735
v -0.015197 0.695556 -0.067534
vt 0.169250 0.680463
v -0.015197 0.697342 -0.062038
vt 0.169250 0.695571
v -0.000072 0.696025 -0.066091
vt 0.150643 0.684430
vn -0.000000 0.951000 -0.309100
v -0.015197 0.467441 -0.062038
v -0.015197 0.465656 -0.067534
v -0.015197 0.465165 -0.069046
vt 0.169250 0.676307
v -0.015197 0.464624 -0.070710
vn -0.000000 0.809000 -0.587900
v 0.022507 0.431790 0.036759
vn -0.000000 -0.965900 0.258800
v 0.024002 0.431921 0.036358
vt 0.121026 0.848789
v 0.027153 0.432195 0.035514
vt 0.117148 0.851110
v 0.027993 0.432468 0.034674
vt 0.116114 0.853421
vn 0.000200 -0.951200 -0.308700
v 0.036576 0.435257 0.026090
vt 0.105555 0.877014
v 0.043170 0.444332 0.019497
vt 0.097443 0.906339
v 0.043170 0.455549 0.019497
vt 0.097443 0.935665
vt 0.097443 0.642410
v 0.036576 0.464624 0.026090
vt 0.105555 0.671735
v 0.024002 0.467960 0.036358
vt 0.121026 0.699960
vn -0.000000 0.951200 -0.308500
v 0.022507 0.468090 0.036759
v 0.027153 0.467686 0.035514
vt 0.117148 0.697639
vn -0.000000 0.951000 -0.309300
v 0.022507 0.661691 0.036759
v 0.024002 0.661821 0.036358
vn -0.000000 -0.951100 -0.308800
v 0.027153 0.662095 0.035514
vt 0.117148 0.851111
v 0.027993 0.662368 0.034674
v 0.036576 0.665157 0.026090
v 0.043170 0.674232 0.019497
v 0.043170 0.685449 0.019497
v 0.036576 0.694524 0.026090
v 0.024002 0.697860 0.036358
v 0.022507 0.697991 0.036759
vn -0.000000 0.965900 0.258800
v 0.027153 0.697586 0.035514
v 0.015053 0.465656 0.044252
vt 0.132035 0.721659
v 0.015053 0.467441 0.038756
vt 0.132035 0.706551
v -0.000072 0.466125 0.042809
vt 0.150643 0.717691
v 0.015053 0.434225 0.044252
vt 0.132035 0.827091
v 0.015053 0.432440 0.038756
vt 0.132035 0.842198
vn -0.000100 -0.951100 0.308900
v 0.015053 0.695556 0.044252
v 0.015053 0.697342 0.038756
v -0.000072 0.696025 0.042809
vn -0.000000 0.951000 0.309100
v 0.015053 0.664125 0.044252
v 0.015053 0.662340 0.038756
v -0.000072 0.433756 -0.066091
vt 0.150643 0.864319
v -0.015197 0.444259 -0.077250
vt 0.169250 0.906104
vn -0.000000 -0.587700 -0.809100
v -0.015197 0.444332 -0.077303
vt 0.169250 0.906339
vn -0.000000 -0.309300 -0.951000
v -0.015197 0.444193 -0.077202
vt 0.169250 0.905891
vn -0.000000 -0.587400 -0.809300
v -0.015197 0.455549 -0.077303
vt 0.169250 0.935665
v -0.000072 0.663656 -0.066091
vn -0.000000 -0.951000 -0.309200
v -0.015197 0.685449 -0.077303
v -0.015197 0.674232 -0.077303
vt 0.169250 0.642410
v -0.000072 0.466125 -0.066091
v -0.015197 0.444259 0.053968
vt 0.169250 0.789272
vn -0.000000 -0.589100 0.808000
v -0.015197 0.444332 0.054021
vt 0.169250 0.789037
vn -0.000000 -0.311200 0.950400
v -0.015197 0.444193 0.053920
vt 0.169250 0.789486
vn -0.000000 -0.587300 0.809400
v -0.000072 0.433756 0.042809
vt 0.150643 0.831058
v -0.015197 0.455549 0.054021
vt 0.169250 0.759712
v -0.015197 0.674232 0.054021
v -0.015197 0.685449 0.054021
v -0.000072 0.663656 0.042809
v 0.094177 0.464062 -0.104106
vt 0.377880 0.889257
vn 0.809000 -0.000000 -0.587800
v 0.095718 0.464062 -0.099366
vt 0.370893 0.889257
v 0.095718 0.451962 -0.099366
vt 0.370893 0.842681
v 0.094177 0.451962 -0.104106
vt 0.377880 0.842681
v 0.090145 0.464062 -0.107036
vt 0.384866 0.889257
vn 0.309100 -0.000000 -0.951000
v 0.090145 0.451962 -0.107036
vt 0.384866 0.842681
v 0.085161 0.464062 -0.107036
vt 0.391852 0.889257
v 0.085161 0.451962 -0.107036
vt 0.391852 0.842681
v 0.081129 0.464062 -0.104106
vt 0.328975 0.889257
vn -0.809000 -0.000000 -0.587800
vt 0.321989 0.889257
vt 0.321989 0.842681
v 0.081129 0.451962 -0.104106
vt 0.328975 0.842681
v 0.079588 0.464062 -0.099366
vt 0.335961 0.889257
v 0.079588 0.451962 -0.099366
vt 0.335961 0.842681
v 0.081129 0.464062 -0.094626
vt 0.342948 0.889257
vn -0.809000 -0.000000 0.587800
v 0.081129 0.451962 -0.094626
vt 0.342948 0.842681
v 0.085161 0.464062 -0.091696
vt 0.349934 0.889257
vn -0.309100 -0.000000 0.951000
v 0.085161 0.451962 -0.091696
vt 0.349934 0.842681
v 0.090145 0.464062 -0.091696
vt 0.356920 0.889257
vn 0.309100 -0.000000 0.951000
v 0.090145 0.451962 -0.091696
vt 0.356920 0.842681
v 0.094177 0.464062 -0.094626
vt 0.363907 0.889257
vn 0.809000 -0.000000 0.587800
v 0.094177 0.451962 -0.094626
vt 0.363907 0.842681
vt 0.332895 0.882586
vt 0.320205 0.865120
vt 0.320205 0.843531
vt 0.332895 0.826065
vt 0.353427 0.819394
vt 0.373960 0.826065
vt 0.386649 0.843531
vt 0.386649 0.865120
vt 0.373960 0.882586
vt 0.353427 0.889257
v -0.081273 0.464062 -0.104106
v -0.079732 0.464062 -0.099366
v -0.079732 0.451962 -0.099366
v -0.081273 0.451962 -0.104106
v -0.085305 0.464062 -0.107036
v -0.085305 0.451962 -0.107036
v -0.090289 0.464062 -0.107036
v -0.090289 0.451962 -0.107036
v -0.094321 0.464062 -0.104106
v -0.094321 0.451962 -0.104106
v -0.095862 0.464062 -0.099366
v -0.095862 0.451962 -0.099366
v -0.094321 0.464062 -0.094626
v -0.094321 0.451962 -0.094626
v -0.090289 0.464062 -0.091696
v -0.090289 0.451962 -0.091696
v -0.085305 0.464062 -0.091696
v -0.085305 0.451962 -0.091696
v -0.081273 0.464062 -0.094626
v -0.081273 0.451962 -0.094626
v -0.081273 0.463856 0.071344
v -0.079732 0.463856 0.076084
v -0.079732 0.451756 0.076084
v -0.081273 0.451756 0.071344
v -0.085305 0.463856 0.068414
v -0.085305 0.451756 0.068414
v -0.090289 0.463856 0.068414
v -0.090289 0.451756 0.068414
v -0.094321 0.463856 0.071344
v -0.094321 0.451756 0.071344
v -0.095862 0.463856 0.076084
v -0.095862 0.451756 0.076084
v -0.094321 0.463856 0.080824
v -0.094321 0.451756 0.080824
v -0.090289 0.463856 0.083754
v -0.090289 0.451756 0.083754
v -0.085305 0.463856 0.083754
v -0.085305 0.451756 0.083754
v -0.081273 0.463856 0.080824
v -0.081273 0.451756 0.080824
v 0.094177 0.464062 0.071344
v 0.095718 0.464062 0.076084
v 0.095718 0.451962 0.076084
v 0.094177 0.451962 0.071344
v 0.090145 0.464062 0.068414
v 0.090145 0.451962 0.068414
v 0.085161 0.464062 0.068414
v 0.085161 0.451962 0.068414
v 0.081129 0.464062 0.071344
v 0.081129 0.451962 0.071344
v 0.079588 0.464062 0.076084
v 0.079588 0.451962 0.076084
v 0.081129 0.464062 0.080824
v 0.081129 0.451962 0.080824
v 0.085161 0.464062 0.083754
v 0.085161 0.451962 0.083754
v 0.090145 0.464062 0.083754
v 0.090145 0.451962 0.083754
v 0.094177 0.464062 0.080824
v 0.094177 0.451962 0.080824
v 0.102778 0.428765 -0.099366
vt 0.370893 0.819394
v 0.095216 0.428765 -0.112465
vt 0.382537 0.819394
vn 0.500000 -0.000000 -0.866000
v 0.095216 0.451962 -0.112465
vt 0.382537 0.889257
v 0.102778 0.451962 -0.099366
v 0.080090 0.428765 -0.112465
vt 0.394181 0.819394
v 0.080090 0.451962 -0.112465
vt 0.394181 0.889257
vt 0.324317 0.819394
v 0.072528 0.428765 -0.099366
vt 0.335961 0.819394
v 0.072528 0.451962 -0.099366
vt 0.324317 0.889257
v 0.080090 0.428765 -0.086267
vt 0.347605 0.819394
v 0.080090 0.451962 -0.086267
vt 0.347605 0.889257
v 0.095216 0.428765 -0.086267
vt 0.359249 0.819394
v 0.095216 0.451962 -0.086267
vt 0.359249 0.889257
vt 0.383679 0.836860
vt 0.323175 0.836860
vt 0.323175 0.871791
vt 0.383679 0.871791
v 0.102778 0.428868 0.076084
v 0.095216 0.428868 0.062985
v 0.095216 0.451962 0.062985
v 0.102778 0.451962 0.076084
v 0.080090 0.428868 0.062985
v 0.080090 0.451962 0.062985
v 0.072528 0.428868 0.076084
v 0.072528 0.451962 0.076084
v 0.080090 0.428868 0.089183
v 0.080090 0.451962 0.089183
v 0.095216 0.428868 0.089183
v 0.095216 0.451962 0.089183
v -0.072672 0.428663 0.076084
v -0.080234 0.428663 0.062985
v -0.080234 0.451756 0.062985
v -0.072672 0.451756 0.076084
v -0.095360 0.428663 0.062985
v -0.095360 0.451756 0.062985
v -0.102922 0.428663 0.076084
v -0.102922 0.451756 0.076084
v -0.095360 0.428663 0.089183
v -0.095360 0.451756 0.089183
v -0.080234 0.428663 0.089183
v -0.080234 0.451756 0.089183
v -0.072672 0.428765 -0.099366
v -0.080234 0.428765 -0.112465
v -0.080234 0.451962 -0.112465
v -0.072672 0.451962 -0.099366
v -0.095360 0.428765 -0.112465
v -0.095360 0.451962 -0.112465
v -0.102922 0.428765 -0.099366
v -0.102922 0.451962 -0.099366
v -0.095360 0.428765 -0.086267
v -0.095360 0.451962 -0.086267
v -0.080234 0.428765 -0.086267
v -0.080234 0.451962 -0.086267
v 0.117903 0.415456 0.109359
vt 0.440035 1.000000
v -0.118047 0.415456 0.109359
vt 0.288203 1.000000
v -0.118047 0.401843 0.109359
vt 0.288203 0.504625
v 0.117903 0.401843 0.109359
vt 0.440035 0.504625
v 0.117903 0.415456 0.012559
v 0.117903 0.401843 0.012559
v -0.118047 0.415456 0.012559
v -0.118047 0.401843 0.012559
v 0.117903 0.415456 -0.035841
v -0.118047 0.415456 -0.035841
v -0.118047 0.401843 -0.035841
v 0.117903 0.401843 -0.035841
v 0.117903 0.415456 -0.132641
v 0.117903 0.401843 -0.132641
v -0.118047 0.415456 -0.132641
v -0.118047 0.401843 -0.132641
v 0.117903 0.415456 -0.129616
v 0.117903 0.415456 0.106334
v -0.118047 0.415456 0.106334
v -0.118047 0.415456 -0.129616
v 0.117903 0.428765 -0.129616
v -0.118047 0.428765 -0.129616
v -0.118047 0.428765 0.106334
v 0.117903 0.428765 0.106334
v -0.151322 0.026743 0.188009
vt 0.615258 0.578729
v 0.151178 0.026743 0.188009
vt 0.896157 0.578729
v 0.151178 0.026743 -0.211291
vt 0.896157 0.859627
v -0.151322 0.026743 -0.211291
vt 0.615258 0.859627
v -0.151322 0.008593 0.188009
vn -0.000000 -0.707100 0.707100
v 0.151178 0.008593 0.188009
v 0.151178 0.008593 -0.211291
vn -0.000000 -0.707100 -0.707100
v -0.151322 0.008593 -0.211291
v -0.090822 0.008592 -0.490736
vt 0.794404 0.076568
vn -0.000000 0.904300 -0.426900
v -0.090822 0.008592 -0.460314
vt 0.939025 0.073318
vn -0.729900 0.683600 -0.000000
vt 0.794404 0.077732
vn -0.000000 0.885400 0.464900
v -0.084772 0.008592 -0.490736
vn 0.422500 0.906300 -0.000000
v 0.084628 0.008592 -0.490736
v 0.084628 0.008592 -0.460314
v 0.090678 0.008592 -0.490736
vt 0.997924 0.075978
vn 0.681800 0.731500 -0.000000
vn -0.000000 -0.000000 -0.000000
vt 0.934387 0.076568
vn -0.000000 0.743700 -0.668500
vt 0.997880 0.071684
vn -0.681800 0.731500 -0.000000
vn -0.000000 0.885300 0.465000
vn -0.000000 0.904200 -0.427000
vt 0.937579 0.499013
f 1/1/1 2/2/1 3/3/2
f 3/3/2 4/4/2 1/1/1
f 3/2/3 5/5/3 4/1/3
f 4/6/4 6/7/4 1/8/4
f 1/2/5 7/9/5 2/1/5
f 3/1/6 8/10/7 9/11/6
f 10/1/1 11/2/1 12/3/2
f 12/3/2 13/4/2 10/1/1
f 12/2/3 14/5/3 13/1/3
f 13/2/4 15/12/4 10/1/4
f 10/2/5 16/9/5 11/1/5
f 12/13/6 17/14/7 18/15/6
f 19/3/8 20/4/8 21/1/8
f 21/1/8 22/2/8 19/3/8
f 23/3/9 24/4/9 25/1/9
f 25/1/9 26/2/9 23/3/9
f 19/3/10 22/4/10 24/1/10
f 24/1/10 23/2/10 19/3/10
f 22/3/4 21/4/4 25/1/4
f 25/1/4 24/2/4 22/3/4
f 21/3/11 20/4/11 26/1/11
f 26/1/11 25/2/11 21/3/11
f 20/3/6 19/4/6 23/1/6
f 23/1/6 26/2/6 20/3/6
f 27/3/8 28/4/8 29/1/8
f 29/1/8 30/2/8 27/3/8
f 31/3/9 32/4/9 33/1/9
f 33/1/9 34/2/9 31/3/9
f 27/3/12 30/4/12 32/1/12
f 32/1/12 31/2/12 27/3/12
f 29/3/13 28/4/13 34/1/13
f 34/1/13 33/2/13 29/3/13
f 35/3/8 36/4/8 37/1/8
f 37/1/8 38/2/8 35/3/8
f 39/3/9 40/4/9 41/1/9
f 41/1/9 42/2/9 39/3/9
f 35/3/14 38/4/14 40/1/14
f 40/1/14 39/2/14 35/3/14
f 37/3/15 36/4/15 42/1/15
f 42/1/15 41/2/15 37/3/15
f 43/3/16 44/4/17 45/1/17
f 45/1/17 46/2/16 43/3/16
f 47/3/9 48/4/9 49/1/9
f 49/1/9 50/2/9 47/3/9
f 43/3/3 46/4/3 48/1/3
f 48/1/3 47/2/3 43/3/3
f 46/3/4 45/4/4 49/1/4
f 49/1/4 48/2/4 46/3/4
f 45/3/18 44/4/18 50/1/18
f 50/1/18 49/2/18 45/3/18
f 44/3/6 43/4/6 47/1/6
f 47/1/6 50/2/6 44/3/6
f 51/3/16 52/4/17 53/1/17
f 53/1/17 54/2/16 51/3/16
f 55/3/9 56/4/9 57/1/9
f 57/1/9 58/2/9 55/3/9
f 51/3/3 54/4/3 56/1/3
f 56/1/3 55/2/3 51/3/3
f 54/3/4 53/4/4 57/1/4
f 57/1/4 56/2/4 54/3/4
f 53/3/18 52/4/18 58/1/18
f 58/1/18 57/2/18 53/3/18
f 52/3/6 51/4/6 55/1/6
f 55/1/6 58/2/6 52/3/6
f 59/3/19 60/4/19 61/1/19
f 61/1/19 62/2/19 59/3/19
f 60/3/20 63/4/20 64/1/20
f 64/1/20 61/2/20 60/3/20
f 63/3/21 65/4/21 66/1/21
f 66/1/21 64/2/21 63/3/21
f 65/3/22 67/4/22 68/1/22
f 68/1/22 66/2/22 65/3/22
f 67/3/23 69/4/23 70/1/23
f 70/1/23 68/2/23 67/3/23
f 69/3/24 71/4/24 72/1/24
f 72/1/24 70/2/24 69/3/24
f 71/3/25 73/4/25 74/1/25
f 74/1/25 72/2/25 71/3/25
f 73/3/26 75/4/26 76/1/26
f 76/1/26 74/2/26 73/3/26
f 75/3/27 77/4/27 78/1/27
f 78/1/27 76/2/27 75/3/27
f 77/3/28 79/4/28 80/1/28
f 80/1/28 78/2/28 77/3/28
f 79/3/29 81/4/29 82/1/29
f 82/1/29 80/2/29 79/3/29
f 81/3/30 59/4/30 62/1/30
f 62/1/30 82/2/30 81/3/30
f 79/16/8 77/17/8 75/18/8
f 75/18/8 73/19/8 71/20/8
f 71/20/8 69/21/8 67/22/8
f 75/18/8 71/20/8 67/22/8
f 67/22/8 65/23/8 63/24/8
f 63/24/8 60/25/8 59/26/8
f 67/22/8 63/24/8 59/26/8
f 75/18/8 67/22/8 59/26/8
f 79/16/8 75/18/8 59/26/8
f 81/27/8 79/16/8 59/26/8
f 61/16/9 64/17/9 66/18/9
f 66/18/9 68/19/9 70/20/9
f 70/20/9 72/21/31 74/22/9
f 66/18/9 70/20/9 74/22/9
f 74/22/9 76/23/32 78/24/32
f 78/24/32 80/25/32 82/26/9
f 74/22/9 78/24/32 82/26/9
f 66/18/9 74/22/9 82/26/9
f 61/16/9 66/18/9 82/26/9
f 62/27/33 61/16/9 82/26/9
f 83/3/19 84/4/19 85/1/19
f 85/1/19 86/2/19 83/3/19
f 84/3/20 87/4/20 88/1/20
f 88/1/20 85/2/20 84/3/20
f 87/3/21 89/4/21 90/1/21
f 90/1/21 88/2/21 87/3/21
f 89/3/22 91/4/22 92/1/22
f 92/1/22 90/2/22 89/3/22
f 91/3/23 93/4/23 94/1/23
f 94/1/23 92/2/23 91/3/23
f 93/3/24 95/4/24 96/1/24
f 96/1/24 94/2/24 93/3/24
f 95/3/25 97/4/25 98/1/25
f 98/1/25 96/2/25 95/3/25
f 97/3/26 99/4/26 100/1/26
f 100/1/26 98/2/26 97/3/26
f 99/3/27 101/4/27 102/1/27
f 102/1/27 100/2/27 99/3/27
f 101/3/28 103/4/28 104/1/28
f 104/1/28 102/2/28 101/3/28
f 103/3/29 105/4/29 106/1/29
f 106/1/29 104/2/29 103/3/29
f 105/3/30 83/4/30 86/1/30
f 86/1/30 106/2/30 105/3/30
f 103/16/8 101/17/8 99/18/8
f 99/18/8 97/19/8 95/20/8
f 95/20/8 93/21/8 91/22/8
f 99/18/8 95/20/8 91/22/8
f 91/22/8 89/23/8 87/24/8
f 87/24/8 84/25/8 83/26/8
f 91/22/8 87/24/8 83/26/8
f 99/18/8 91/22/8 83/26/8
f 103/16/8 99/18/8 83/26/8
f 105/27/8 103/16/8 83/26/8
f 85/16/9 88/17/9 90/18/9
f 90/18/9 92/19/9 94/20/9
f 94/20/9 96/21/9 98/22/9
f 90/18/9 94/20/9 98/22/9
f 98/22/9 100/23/9 102/24/9
f 102/24/9 104/25/9 106/26/9
f 98/22/9 102/24/9 106/26/9
f 90/18/9 98/22/9 106/26/9
f 85/16/9 90/18/9 106/26/9
f 86/27/9 85/16/9 106/26/9
f 107/28/8 108/29/8 109/30/8
f 109/30/8 110/31/8 107/28/8
f 111/28/8 112/29/34 108/30/8
f 108/30/8 107/31/35 111/28/8
f 113/28/8 114/29/8 112/30/34
f 112/30/34 111/31/34 113/28/8
f 115/28/35 116/29/35 114/30/8
f 114/30/8 113/32/8 115/28/35
f 117/28/34 118/29/34 116/30/8
f 116/30/8 115/31/8 117/28/34
f 119/28/8 120/29/8 118/30/8
f 118/30/8 117/31/8 119/28/8
f 121/28/8 122/29/8 120/30/8
f 120/30/8 119/31/8 121/28/8
f 123/28/9 124/33/9 125/30/9
f 125/30/9 126/34/9 123/28/9
f 127/28/9 123/33/9 126/30/9
f 126/30/9 128/34/9 127/28/9
f 129/28/9 127/33/32 128/30/32
f 128/30/32 130/34/9 129/28/9
f 131/28/36 129/35/9 130/30/9
f 130/30/9 132/34/36 131/28/36
f 133/28/9 131/33/32 132/30/32
f 132/30/32 134/34/9 133/28/9
f 135/28/9 133/33/9 134/30/9
f 134/30/9 136/34/9 135/28/9
f 137/28/9 135/33/9 136/30/9
f 136/30/9 138/34/9 137/28/9
f 126/28/37 125/29/37 109/30/37
f 109/30/37 108/34/37 126/28/37
f 128/28/38 126/29/38 108/30/38
f 108/30/38 112/34/38 128/28/38
f 130/28/39 128/29/39 112/30/40
f 112/30/40 114/34/40 130/28/39
f 132/28/11 130/29/11 114/30/11
f 114/30/11 116/34/11 132/28/11
f 134/28/41 132/29/41 116/30/42
f 116/30/42 118/34/42 134/28/41
f 136/28/43 134/29/43 118/30/43
f 118/30/43 120/34/43 136/28/43
f 138/28/44 136/29/44 120/30/44
f 120/30/44 122/34/44 138/28/44
f 135/28/45 137/29/45 121/30/45
f 121/30/45 119/34/45 135/28/45
f 133/28/46 135/29/46 119/30/46
f 119/30/46 117/34/46 133/28/46
f 131/28/47 133/29/47 117/30/47
f 117/30/47 115/34/47 131/28/47
f 129/28/10 131/29/10 115/30/10
f 115/30/10 113/34/10 129/28/10
f 127/28/48 129/29/48 113/30/48
f 113/30/48 111/34/48 127/28/48
f 123/28/49 127/29/49 111/30/49
f 111/30/49 107/34/49 123/28/49
f 124/28/50 123/29/50 107/30/50
f 107/30/50 110/34/50 124/28/50
f 139/3/16 140/4/16 141/1/16
f 141/1/16 142/2/16 139/3/16
f 143/3/2 144/4/2 145/1/2
f 145/1/2 146/2/2 143/3/2
f 139/3/3 142/4/3 144/1/3
f 144/1/3 143/2/3 139/3/3
f 142/3/4 141/4/4 145/1/4
f 145/1/4 144/2/4 142/3/4
f 141/3/5 140/4/5 146/1/5
f 146/1/5 145/2/5 141/3/5
f 147/3/16 148/4/16 149/1/16
f 149/1/16 150/2/16 147/3/16
f 151/3/2 152/4/2 153/1/2
f 153/1/2 154/2/2 151/3/2
f 147/3/3 150/4/3 152/1/3
f 152/1/3 151/2/3 147/3/3
f 150/3/4 149/4/4 153/1/4
f 153/1/4 152/2/4 150/3/4
f 149/3/5 148/4/5 154/1/5
f 154/1/5 153/2/5 149/3/5
f 155/3/16 156/4/16 157/1/16
f 157/1/16 158/2/16 155/3/16
f 159/3/2 160/4/2 161/1/2
f 161/1/2 162/2/2 159/3/2
f 155/3/3 158/4/3 160/1/3
f 160/1/3 159/2/3 155/3/3
f 158/3/4 157/4/4 161/1/4
f 161/1/4 160/2/4 158/3/4
f 157/3/5 156/4/5 162/1/5
f 162/1/5 161/2/5 157/3/5
f 163/3/16 164/4/16 165/1/16
f 165/1/16 166/2/16 163/3/16
f 167/3/2 168/4/2 169/1/2
f 169/1/2 170/2/2 167/3/2
f 163/3/3 166/4/3 168/1/3
f 168/1/3 167/2/3 163/3/3
f 166/3/4 165/4/4 169/1/4
f 169/1/4 168/2/4 166/3/4
f 165/3/5 164/4/5 170/1/5
f 170/1/5 169/2/5 165/3/5
f 171/3/16 172/4/16 173/1/16
f 173/1/16 174/2/16 171/3/16
f 175/3/2 176/4/2 177/1/2
f 177/1/2 178/2/2 175/3/2
f 171/3/3 174/4/3 176/1/3
f 176/1/3 175/2/3 171/3/3
f 174/3/4 173/4/4 177/1/4
f 177/1/4 176/2/4 174/3/4
f 173/3/5 172/4/5 178/1/5
f 178/1/5 177/2/5 173/3/5
f 179/3/16 180/4/16 181/1/16
f 181/1/16 182/2/16 179/3/16
f 183/3/2 184/4/2 185/1/2
f 185/1/2 186/2/2 183/3/2
f 179/3/3 182/4/3 184/1/3
f 184/1/3 183/2/3 179/3/3
f 182/3/4 181/4/4 185/1/4
f 185/1/4 184/2/4 182/3/4
f 181/3/5 180/4/5 186/1/5
f 186/1/5 185/2/5 181/3/5
f 187/3/16 188/4/16 189/1/17
f 189/1/17 190/2/17 187/3/16
f 191/3/2 192/4/2 193/1/2
f 193/1/2 194/2/2 191/3/2
f 187/3/3 190/4/3 192/1/3
f 192/1/3 191/2/3 187/3/3
f 190/3/4 189/4/4 193/1/4
f 193/1/4 192/2/4 190/3/4
f 189/3/5 188/4/5 194/1/5
f 194/1/5 193/2/5 189/3/5
f 195/3/16 196/4/16 197/1/16
f 197/1/16 198/2/16 195/3/16
f 199/3/51 200/4/51 201/1/51
f 201/1/51 202/2/51 199/3/51
f 195/3/3 198/4/3 200/1/3
f 200/1/3 199/2/3 195/3/3
f 198/3/4 197/4/4 201/1/4
f 201/1/4 200/2/4 198/3/4
f 197/3/5 196/4/5 202/1/5
f 202/1/5 201/2/5 197/3/5
f 203/3/16 204/4/16 205/1/17
f 205/1/17 206/2/17 203/3/16
f 207/3/51 208/4/51 209/1/51
f 209/1/51 210/2/51 207/3/51
f 203/3/3 206/4/3 208/1/3
f 208/1/3 207/2/3 203/3/3
f 206/3/4 205/4/4 209/1/4
f 209/1/4 208/2/4 206/3/4
f 205/3/5 204/4/5 210/1/5
f 210/1/5 209/2/5 205/3/5
f 211/3/16 212/4/16 213/1/17
f 213/1/17 214/2/17 211/3/16
f 215/3/1 216/4/51 217/1/51
f 217/1/51 218/2/1 215/3/1
f 211/3/3 214/4/3 216/1/3
f 216/1/3 215/2/3 211/3/3
f 214/3/4 213/4/4 217/1/4
f 217/1/4 216/2/4 214/3/4
f 213/3/5 212/4/5 218/1/5
f 218/1/5 217/2/5 213/3/5
f 219/3/16 220/4/16 221/1/17
f 221/1/17 222/2/17 219/3/16
f 223/3/1 224/4/51 225/1/51
f 225/1/51 226/2/1 223/3/1
f 219/3/3 222/4/3 224/1/3
f 224/1/3 223/2/3 219/3/3
f 222/3/4 221/4/4 225/1/4
f 225/1/4 224/2/4 222/3/4
f 221/3/5 220/4/5 226/1/5
f 226/1/5 225/2/5 221/3/5
f 227/3/16 228/4/16 229/1/17
f 229/1/17 230/2/17 227/3/16
f 231/3/2 232/4/1 233/1/1
f 233/1/1 234/2/2 231/3/2
f 227/3/3 230/4/3 232/1/3
f 232/1/3 231/2/3 227/3/3
f 230/3/4 229/4/4 233/1/4
f 233/1/4 232/2/4 230/3/4
f 229/3/5 228/4/5 234/1/5
f 234/1/5 233/2/5 229/3/5
f 235/3/16 236/4/16 237/1/17
f 237/1/17 238/2/17 235/3/16
f 239/3/2 240/4/1 241/1/1
f 241/1/1 242/2/2 239/3/2
f 235/3/3 238/4/3 240/1/3
f 240/1/3 239/2/3 235/3/3
f 238/3/4 237/4/4 241/1/4
f 241/1/4 240/2/4 238/3/4
f 237/3/5 236/4/5 242/1/5
f 242/1/5 241/2/5 237/3/5
f 243/3/16 244/4/16 245/1/17
f 245/1/17 246/2/17 243/3/16
f 247/3/2 248/4/1 249/1/1
f 249/1/1 250/2/2 247/3/2
f 243/3/3 246/4/3 248/1/3
f 248/1/3 247/2/3 243/3/3
f 246/3/4 245/4/4 249/1/4
f 249/1/4 248/2/4 246/3/4
f 245/3/5 244/4/5 250/1/5
f 250/1/5 249/2/5 245/3/5
f 251/3/16 252/4/16 253/1/17
f 253/1/17 254/2/17 251/3/16
f 255/3/52 256/4/1 257/1/52
f 257/1/52 258/2/1 255/3/52
f 251/3/3 254/4/3 256/1/3
f 256/1/3 255/2/3 251/3/3
f 254/3/4 253/4/4 257/1/4
f 257/1/4 256/2/4 254/3/4
f 253/3/5 252/4/5 258/1/5
f 258/1/5 257/2/5 253/3/5
f 259/3/16 260/4/16 261/1/17
f 261/1/17 262/2/17 259/3/16
f 263/3/1 264/4/2 265/1/2
f 265/1/2 266/2/1 263/3/1
f 259/3/3 262/4/3 264/1/3
f 264/1/3 263/2/3 259/3/3
f 262/3/4 261/4/4 265/1/4
f 265/1/4 264/2/4 262/3/4
f 261/3/5 260/4/5 266/1/5
f 266/1/5 265/2/5 261/3/5
f 267/3/16 268/4/16 269/1/17
f 269/1/17 270/2/17 267/3/16
f 271/3/1 272/4/2 273/1/2
f 273/1/2 274/2/1 271/3/1
f 267/3/3 270/4/3 272/1/3
f 272/1/3 271/2/3 267/3/3
f 270/3/4 269/4/4 273/1/4
f 273/1/4 272/2/4 270/3/4
f 269/3/5 268/4/5 274/1/5
f 274/1/5 273/2/5 269/3/5
f 275/36/53 276/37/53 277/38/53
f 277/38/53 278/39/53 275/36/53
f 279/36/54 280/37/54 281/38/54
f 281/38/54 282/39/54 279/36/54
f 283/40/55 284/41/55 276/42/55
f 276/42/55 275/43/55 283/40/55
f 284/36/6 285/37/6 277/38/6
f 277/38/6 276/39/6 284/36/6
f 286/36/6 287/37/6 281/38/6
f 281/38/6 280/39/6 286/36/6
f 287/40/56 288/41/56 282/42/56
f 282/42/56 281/43/56 287/40/56
f 288/36/4 289/37/4 279/38/4
f 279/38/4 282/39/4 288/36/4
f 290/36/4 283/37/4 275/38/4
f 275/38/4 278/39/4 290/36/4
f 291/36/53 292/37/53 293/38/53
f 293/38/53 294/39/53 291/36/53
f 295/36/54 296/37/54 297/38/54
f 297/38/54 298/39/54 295/36/54
f 299/40/55 300/41/55 292/42/55
f 292/42/55 291/43/55 299/40/55
f 300/36/6 301/37/6 293/38/6
f 293/38/6 292/39/6 300/36/6
f 302/36/6 303/37/6 297/38/6
f 297/38/6 296/39/6 302/36/6
f 303/40/56 304/41/56 298/42/56
f 298/42/56 297/43/56 303/40/56
f 304/36/4 305/37/4 295/38/4
f 295/38/4 298/39/4 304/36/4
f 306/36/4 299/37/4 291/38/4
f 291/38/4 294/39/4 306/36/4
f 307/40/57 308/42/57 309/43/57
f 307/40/57 310/41/57 308/42/57
f 310/40/10 311/42/10 308/43/10
f 310/40/10 312/41/10 311/42/10
f 312/40/58 313/42/58 311/43/58
f 312/40/58 314/41/58 313/42/58
f 314/40/59 315/42/59 313/43/59
f 314/40/59 316/41/59 315/42/59
f 316/40/11 317/42/11 315/43/11
f 316/40/11 318/41/11 317/42/11
f 318/40/60 309/42/60 317/43/60
f 318/40/60 307/41/60 309/42/60
f 319/42/9 309/40/9 308/41/9
f 319/42/9 308/40/9 311/41/9
f 319/42/9 311/40/9 313/41/9
f 319/42/9 313/40/9 315/41/9
f 319/42/9 315/40/9 317/41/9
f 319/42/9 317/40/9 309/41/9
f 320/40/57 321/42/57 322/43/57
f 320/40/57 323/41/57 321/42/57
f 323/40/10 324/42/10 321/43/10
f 323/40/10 325/41/10 324/42/10
f 325/40/58 326/42/58 324/43/58
f 325/40/58 327/41/58 326/42/58
f 327/40/59 328/42/59 326/43/59
f 327/40/59 329/41/59 328/42/59
f 329/40/11 330/42/11 328/43/11
f 329/40/11 331/41/11 330/42/11
f 331/40/60 322/42/60 330/43/60
f 331/40/60 320/41/60 322/42/60
f 332/42/9 322/40/9 321/41/9
f 332/42/9 321/40/9 324/41/9
f 332/42/9 324/40/9 326/41/9
f 332/42/9 326/40/9 328/41/9
f 332/42/9 328/40/9 330/41/9
f 332/42/9 330/40/9 322/41/9
f 333/40/57 334/42/57 335/43/57
f 333/40/57 336/41/57 334/42/57
f 336/40/10 337/42/10 334/43/10
f 336/40/10 338/41/10 337/42/10
f 338/40/58 339/42/58 337/43/58
f 338/40/58 340/41/58 339/42/58
f 340/40/59 341/42/59 339/43/59
f 340/40/59 342/41/59 341/42/59
f 342/40/11 343/42/11 341/43/11
f 342/40/11 344/41/11 343/42/11
f 344/40/60 335/42/60 343/43/60
f 344/40/60 333/41/60 335/42/60
f 345/42/9 335/40/9 334/41/9
f 345/42/9 334/40/9 337/41/9
f 345/42/9 337/40/9 339/41/9
f 345/42/9 339/40/9 341/41/9
f 345/42/9 341/40/9 343/41/9
f 345/42/9 343/40/9 335/41/9
f 346/40/57 347/42/57 348/43/57
f 346/40/57 349/41/57 347/42/57
f 349/40/10 350/42/10 347/43/10
f 349/40/10 351/41/10 350/42/10
f 351/40/58 352/42/58 350/43/58
f 351/40/58 353/41/58 352/42/58
f 353/40/59 354/42/59 352/43/59
f 353/40/59 355/41/59 354/42/59
f 355/40/11 356/42/11 354/43/11
f 355/40/11 357/41/11 356/42/11
f 357/40/60 348/42/60 356/43/60
f 357/40/60 346/41/60 348/42/60
f 358/42/9 348/40/9 347/41/9
f 358/42/9 347/40/9 350/41/9
f 358/42/9 350/40/9 352/41/9
f 358/42/9 352/40/9 354/41/9
f 358/42/9 354/40/9 356/41/9
f 358/42/9 356/40/9 348/41/9
f 359/40/61 360/41/61 361/42/61
f 361/42/61 362/43/61 359/40/61
f 363/40/62 359/41/62 362/42/62
f 362/42/62 364/43/62 363/40/62
f 365/40/10 363/41/10 364/42/10
f 364/42/10 366/43/10 365/40/10
f 367/40/63 365/41/63 366/42/63
f 366/42/63 368/43/63 367/40/63
f 369/40/64 367/41/64 368/42/64
f 368/42/64 370/43/64 369/40/64
f 371/40/65 369/41/65 370/42/65
f 370/42/65 372/43/65 371/40/65
f 373/40/66 371/41/66 372/42/66
f 372/42/66 374/43/66 373/40/66
f 375/40/11 373/41/11 374/42/11
f 374/42/11 376/43/11 375/40/11
f 377/40/67 375/41/67 376/42/67
f 376/42/67 378/43/67 377/40/67
f 360/40/9 359/41/9 363/42/9
f 360/40/9 363/42/9 365/43/9
f 360/40/9 365/42/9 367/43/9
f 360/40/9 367/42/9 369/43/9
f 360/40/9 369/42/9 371/43/9
f 360/40/9 371/42/9 373/43/9
f 360/40/9 373/42/9 375/43/9
f 360/40/9 375/42/9 377/43/9
f 379/40/61 380/41/61 381/42/61
f 381/42/61 382/43/61 379/40/61
f 383/40/62 379/41/62 382/42/62
f 382/42/62 384/43/62 383/40/62
f 385/40/10 383/41/10 384/42/10
f 384/42/10 386/43/10 385/40/10
f 387/40/63 385/41/63 386/42/63
f 386/42/63 388/43/63 387/40/63
f 389/40/64 387/41/64 388/42/64
f 388/42/64 390/43/64 389/40/64
f 391/40/65 389/41/65 390/42/65
f 390/42/65 392/43/65 391/40/65
f 393/40/66 391/41/66 392/42/66
f 392/42/66 394/43/66 393/40/66
f 395/40/11 393/41/11 394/42/11
f 394/42/11 396/43/11 395/40/11
f 397/40/67 395/41/67 396/42/67
f 396/42/67 398/43/67 397/40/67
f 380/40/9 379/41/9 383/42/9
f 380/40/9 383/42/9 385/43/9
f 380/40/9 385/42/9 387/43/9
f 380/40/9 387/42/9 389/43/9
f 380/40/9 389/42/9 391/43/9
f 380/40/9 391/42/9 393/43/9
f 380/40/9 393/42/9 395/43/9
f 380/40/9 395/42/9 397/43/9
f 399/40/61 400/41/61 401/42/61
f 401/42/61 402/43/61 399/40/61
f 403/40/62 399/41/62 402/42/62
f 402/42/62 404/43/62 403/40/62
f 405/40/10 403/41/10 404/42/10
f 404/42/10 406/43/10 405/40/10
f 407/40/63 405/41/63 406/42/63
f 406/42/63 408/43/63 407/40/63
f 409/40/64 407/41/64 408/42/64
f 408/42/64 410/43/64 409/40/64
f 411/40/65 409/41/65 410/42/65
f 410/42/65 412/43/65 411/40/65
f 413/40/66 411/41/66 412/42/66
f 412/42/66 414/43/66 413/40/66
f 415/40/11 413/41/11 414/42/11
f 414/42/11 416/43/11 415/40/11
f 417/40/67 415/41/67 416/42/67
f 416/42/67 418/43/67 417/40/67
f 400/40/9 399/41/9 403/42/9
f 400/40/9 403/42/9 405/43/9
f 400/40/9 405/42/9 407/43/9
f 400/40/9 407/42/9 409/43/9
f 400/40/9 409/42/9 411/43/9
f 400/40/9 411/42/9 413/43/9
f 400/40/9 413/42/9 415/43/9
f 400/40/9 415/42/9 417/43/9
f 419/40/61 420/41/61 421/42/61
f 421/42/61 422/43/61 419/40/61
f 423/40/62 419/41/62 422/42/62
f 422/42/62 424/43/62 423/40/62
f 425/40/10 423/41/10 424/42/10
f 424/42/10 426/43/10 425/40/10
f 427/40/63 425/41/63 426/42/63
f 426/42/63 428/43/63 427/40/63
f 429/40/64 427/41/64 428/42/64
f 428/42/64 430/43/64 429/40/64
f 431/40/65 429/41/65 430/42/65
f 430/42/65 432/43/65 431/40/65
f 433/40/66 431/41/66 432/42/66
f 432/42/66 434/43/66 433/40/66
f 435/40/11 433/41/11 434/42/11
f 434/42/11 436/43/11 435/40/11
f 437/40/67 435/41/67 436/42/67
f 436/42/67 438/43/67 437/40/67
f 420/40/9 419/41/9 423/42/9
f 420/40/9 423/42/9 425/43/9
f 420/40/9 425/42/9 427/43/9
f 420/40/9 427/42/9 429/43/9
f 420/40/9 429/42/9 431/43/9
f 420/40/9 431/42/9 433/43/9
f 420/40/9 433/42/9 435/43/9
f 420/40/9 435/42/9 437/43/9
f 360/40/68 377/41/68 378/42/68
f 378/42/68 361/43/68 360/40/68
f 380/40/68 397/41/68 398/42/68
f 398/42/68 381/43/68 380/40/68
f 400/40/68 417/41/68 418/42/68
f 418/42/68 401/43/68 400/40/68
f 420/40/68 437/41/68 438/42/68
f 438/42/68 421/43/68 420/40/68
f 439/44/11 440/45/11 441/46/11
f 441/46/11 442/47/11 439/44/11
f 440/45/6 443/44/6 444/47/6
f 444/47/6 441/46/6 440/45/6
f 443/44/10 445/45/10 446/46/10
f 446/46/10 444/47/10 443/44/10
f 445/45/4 439/44/4 442/47/4
f 442/47/4 446/46/4 445/45/4
f 447/48/9 448/49/9 449/50/9
f 449/50/9 450/51/9 447/48/9
f 442/52/69 441/53/69 451/54/70
f 451/54/70 452/55/71 442/52/69
f 452/55/71 451/54/70 448/56/72
f 448/56/72 447/57/72 452/55/71
f 441/58/73 444/59/73 453/60/74
f 453/60/74 451/61/73 441/58/73
f 451/62/75 453/60/74 449/63/75
f 449/63/75 448/64/75 451/62/75
f 444/53/76 446/65/76 454/66/77
f 454/66/77 453/67/78 444/53/76
f 453/67/78 454/66/77 450/68/79
f 450/68/79 449/69/79 453/67/78
f 446/59/80 442/58/80 452/61/81
f 452/61/81 454/60/82 446/59/80
f 454/60/82 452/61/81 447/70/83
f 447/70/83 450/71/83 454/60/82
f 455/72/8 456/73/8 457/74/8
f 457/74/8 458/75/8 455/72/8
f 459/72/9 460/73/9 461/74/9
f 461/74/9 462/75/9 459/72/9
f 455/36/11 458/76/11 460/77/11
f 460/77/11 459/78/11 455/36/11
f 458/72/6 457/73/6 461/74/6
f 461/74/6 460/75/6 458/72/6
f 456/72/4 455/73/4 459/74/4
f 459/74/4 462/75/4 456/72/4
f 463/79/8 464/80/8 465/81/8
f 465/81/8 466/82/8 467/83/8
f 467/83/8 468/84/8 469/85/8
f 465/81/8 467/83/8 469/85/8
f 469/85/8 470/86/8 471/87/8
f 471/87/8 472/88/8 473/89/8
f 469/85/8 471/87/8 473/89/8
f 465/81/8 469/85/8 473/89/8
f 463/79/8 465/81/8 473/89/8
f 474/90/8 463/79/8 473/89/8
f 473/89/6 472/88/25 475/91/25
f 475/91/25 476/92/6 473/89/6
f 472/93/26 471/94/26 477/94/26
f 477/94/26 475/93/26 472/93/26
f 471/95/27 470/96/27 478/97/84
f 478/97/84 477/98/27 471/95/27
f 470/99/28 469/81/85 479/100/85
f 479/100/85 478/97/86 470/99/28
f 469/81/85 468/82/58 480/101/58
f 480/101/58 479/100/85 469/81/85
f 468/82/58 467/102/4 481/103/4
f 481/103/4 480/101/58 468/82/58
f 467/102/4 466/104/59 482/105/59
f 482/105/59 481/103/4 467/102/4
f 466/104/59 465/106/87 483/107/87
f 483/107/87 482/105/59 466/104/59
f 465/106/87 464/108/11 484/109/11
f 484/109/11 483/107/87 465/106/87
f 464/108/11 463/110/88 485/111/88
f 485/111/88 484/109/11 464/108/11
f 463/110/88 474/112/60 486/113/60
f 486/113/60 485/111/88 463/110/88
f 474/112/60 473/89/6 476/92/6
f 476/92/6 486/113/60 474/112/60
f 476/114/9 475/93/9 477/94/9
f 477/94/9 478/115/9 479/116/9
f 479/116/9 480/117/9 481/118/9
f 477/94/9 479/116/9 481/118/9
f 481/118/9 482/119/9 483/120/9
f 483/120/9 484/121/9 485/122/9
f 481/118/9 483/120/9 485/122/9
f 477/94/9 481/118/9 485/122/9
f 476/114/9 477/94/9 485/122/9
f 486/123/9 476/114/9 485/122/9
f 476/124/9 487/125/9 488/126/9
f 489/127/89 490/128/89 491/129/89
f 491/129/89 492/130/89 489/127/89
f 493/129/90 494/130/90 490/127/90
f 490/127/90 489/128/90 493/129/90
f 489/131/11 492/132/11 495/133/11
f 495/133/11 496/134/11 489/131/11
f 496/134/11 497/135/11 493/136/11
f 493/136/11 489/131/11 496/134/11
f 498/127/91 499/128/91 500/129/91
f 500/129/91 501/130/91 498/127/91
f 487/129/92 502/130/92 499/127/92
f 499/127/92 498/128/92 487/129/92
f 498/137/10 501/138/10 503/139/10
f 503/139/10 504/140/10 498/137/10
f 488/141/10 487/142/10 498/137/10
f 498/137/10 504/140/10 488/141/10
f 478/143/9 505/144/9 506/145/9
f 507/127/93 508/128/93 509/129/93
f 509/129/93 510/130/93 507/127/93
f 511/129/11 512/130/11 508/127/11
f 508/127/11 507/128/11 511/129/11
f 513/146/6 514/147/6 515/148/6
f 515/148/6 516/149/6 513/146/6
f 517/150/6 516/149/6 515/148/6
f 515/148/6 518/151/6 517/150/6
f 519/127/94 515/128/94 514/129/94
f 514/129/94 520/130/94 519/127/94
f 505/129/10 518/130/10 515/127/10
f 515/127/10 519/128/10 505/129/10
f 519/148/4 520/147/4 521/146/4
f 521/146/4 522/149/4 519/148/4
f 522/149/4 506/152/4 505/153/4
f 505/153/4 519/148/4 522/149/4
f 499/137/11 523/140/11 524/139/11
f 524/139/11 500/138/11 499/137/11
f 490/131/10 525/134/10 526/133/10
f 526/133/10 491/132/10 490/131/10
f 527/154/6 528/155/6 507/156/6
f 507/156/6 510/157/6 527/154/6
f 508/156/4 529/155/4 530/154/4
f 530/154/4 509/157/4 508/156/4
f 493/158/9 497/159/32 531/160/9
f 531/160/9 481/161/9 493/158/9
f 532/135/10 525/134/10 490/131/10
f 490/131/10 494/136/10 532/135/10
f 511/162/6 507/156/6 528/155/6
f 528/155/6 533/163/6 511/162/6
f 511/164/9 533/165/9 484/166/9
f 508/156/4 512/167/4 534/168/4
f 534/168/4 529/155/4 508/156/4
f 523/140/11 499/137/11 502/142/11
f 502/142/11 535/141/11 523/140/11
f 476/124/9 535/169/9 502/170/9
f 502/170/9 487/125/9 476/124/9
f 478/143/9 517/171/9 518/172/9
f 518/172/9 505/144/9 478/143/9
f 494/173/9 493/158/9 481/161/9
f 481/161/9 532/174/9 494/173/9
f 536/175/9 534/176/9 512/177/9
f 484/166/9 536/175/9 512/177/9
f 484/166/9 512/177/9 511/164/9
f 537/178/95 538/179/95 539/180/8
f 539/180/8 540/181/8 537/178/95
f 538/182/10 537/183/10 541/184/96
f 541/184/96 542/185/96 538/182/10
f 542/185/96 541/184/96 543/186/9
f 543/186/9 544/187/9 542/185/96
f 544/187/9 543/186/9 545/188/97
f 545/188/97 546/189/97 544/187/9
f 546/189/97 545/188/97 547/190/98
f 547/190/98 548/191/98 546/189/97
f 539/180/8 548/191/98 547/190/98
f 547/190/98 540/181/8 539/180/8
f 545/192/4 543/193/4 541/194/4
f 541/194/4 537/195/4 540/196/4
f 545/192/4 541/194/4 540/196/4
f 547/197/4 545/192/4 540/196/4
f 549/195/6 550/194/6 551/193/6
f 551/193/6 552/192/6 553/197/6
f 549/195/6 551/193/6 553/197/6
f 554/196/6 549/195/6 553/197/6
f 554/198/8 553/199/98 555/200/98
f 555/200/98 556/201/8 554/198/8
f 556/201/8 557/202/95 549/203/95
f 549/203/95 554/198/8 556/201/8
f 550/204/96 549/205/10 557/206/10
f 557/206/10 558/207/96 550/204/96
f 558/207/96 559/208/9 551/209/9
f 551/209/9 550/204/96 558/207/96
f 552/210/97 551/209/9 559/208/9
f 559/208/9 560/211/97 552/210/97
f 555/200/98 553/199/98 552/210/97
f 552/210/97 560/211/97 555/200/98
f 561/212/99 562/213/100 563/214/8
f 563/214/8 564/215/101 565/216/102
f 561/212/99 563/214/8 565/216/102
f 565/216/102 564/215/101 566/217/103
f 566/217/103 567/218/104 565/216/102
f 567/218/104 566/217/103 568/219/10
f 568/219/10 569/220/10 567/218/104
f 569/221/105 568/222/105 570/223/106
f 570/223/106 571/224/107 569/221/105
f 572/225/9 573/226/108 574/227/109
f 572/225/9 574/227/109 571/224/107
f 572/225/9 571/224/107 570/223/106
f 575/228/110 576/229/110 577/230/111
f 577/230/111 578/231/112 573/226/108
f 575/228/110 577/230/111 573/226/108
f 572/225/9 575/228/110 573/226/108
f 579/232/113 580/233/110 581/234/110
f 581/234/110 582/235/113 579/232/113
f 582/235/113 583/236/114 584/237/115
f 584/237/115 579/232/113 582/235/113
f 585/238/116 586/239/116 584/237/115
f 587/240/117 585/238/116 584/237/115
f 587/240/117 584/237/115 583/236/114
f 588/241/118 589/242/116 590/243/116
f 590/243/116 563/214/8 562/213/100
f 590/243/116 562/213/100 591/244/118
f 588/241/118 590/243/116 591/244/118
f 592/245/4 593/246/4 575/247/4
f 575/247/4 572/248/4 570/249/4
f 570/249/4 568/250/4 566/251/4
f 566/251/4 564/252/4 563/253/4
f 570/249/4 566/251/4 563/253/4
f 575/247/4 570/249/4 563/253/4
f 592/245/4 575/247/4 563/253/4
f 590/254/4 592/245/4 563/253/4
f 594/252/6 595/251/6 596/250/6
f 596/250/6 597/249/6 598/248/6
f 598/248/6 580/247/6 579/246/6
f 579/246/6 584/245/6 586/254/6
f 598/248/6 579/246/6 586/254/6
f 596/250/6 598/248/6 586/254/6
f 594/252/6 596/250/6 586/254/6
f 599/253/6 594/252/6 586/254/6
f 600/178/95 601/179/119 602/180/8
f 602/180/8 603/181/8 600/178/95
f 601/182/10 600/183/10 604/184/96
f 604/184/96 605/185/96 601/182/10
f 605/185/96 604/184/96 606/186/9
f 606/186/9 607/187/9 605/185/96
f 607/187/9 606/186/9 608/188/97
f 608/188/97 609/189/97 607/187/9
f 609/189/97 608/188/97 610/190/98
f 610/190/98 611/191/98 609/189/97
f 602/180/8 611/191/98 610/190/98
f 610/190/98 603/181/8 602/180/8
f 608/192/4 606/193/4 604/194/4
f 604/194/4 600/195/4 603/196/4
f 608/192/4 604/194/4 603/196/4
f 610/197/4 608/192/4 603/196/4
f 612/195/6 613/194/6 614/193/6
f 614/193/6 615/192/6 616/197/6
f 612/195/6 614/193/6 616/197/6
f 617/196/6 612/195/6 616/197/6
f 617/198/8 616/199/98 618/200/98
f 618/200/98 619/201/8 617/198/8
f 619/201/8 620/202/119 612/203/95
f 612/203/95 617/198/8 619/201/8
f 613/204/96 612/205/10 620/206/10
f 620/206/10 621/207/96 613/204/96
f 621/207/96 622/208/9 614/209/9
f 614/209/9 613/204/96 621/207/96
f 615/210/97 614/209/9 622/208/9
f 622/208/9 623/211/97 615/210/97
f 618/200/98 616/199/98 615/210/97
f 615/210/97 623/211/97 618/200/98
f 624/255/120 625/213/121 626/214/8
f 626/214/8 627/215/101 628/216/122
f 624/255/120 626/214/8 628/216/122
f 628/216/122 627/215/101 629/217/103
f 629/217/103 630/218/104 628/216/122
f 630/218/104 629/217/103 631/219/10
f 631/219/10 632/220/10 630/218/104
f 632/221/105 631/222/105 633/223/106
f 633/223/106 634/224/123 632/221/105
f 635/225/9 636/226/124 637/227/125
f 635/225/9 637/227/125 634/224/123
f 635/225/9 634/224/123 633/223/106
f 638/228/110 639/229/110 640/230/111
f 640/230/111 641/231/126 636/226/124
f 638/228/110 640/230/111 636/226/124
f 635/225/9 638/228/110 636/226/124
f 642/232/113 643/233/110 644/234/110
f 644/234/110 645/235/113 642/232/113
f 645/235/113 646/236/115 647/237/115
f 647/237/115 642/232/113 645/235/113
f 648/239/116 647/237/115 646/236/115
f 646/236/115 649/238/116 648/239/116
f 650/241/118 651/242/116 652/243/116
f 652/243/116 626/214/8 625/213/121
f 652/243/116 625/213/121 653/244/127
f 650/241/118 652/243/116 653/244/127
f 654/245/4 655/246/4 638/247/4
f 638/247/4 635/248/4 633/249/4
f 633/249/4 631/250/4 629/251/4
f 629/251/4 627/252/4 626/253/4
f 633/249/4 629/251/4 626/253/4
f 638/247/4 633/249/4 626/253/4
f 654/245/4 638/247/4 626/253/4
f 652/254/4 654/245/4 626/253/4
f 656/252/6 657/251/6 658/250/6
f 658/250/6 659/249/6 660/248/6
f 660/248/6 643/247/6 642/246/6
f 642/246/6 647/245/6 648/254/6
f 660/248/6 642/246/6 648/254/6
f 658/250/6 660/248/6 648/254/6
f 656/252/6 658/250/6 648/254/6
f 661/253/6 656/252/6 648/254/6
f 662/178/95 663/179/95 664/180/8
f 664/180/8 665/181/8 662/178/95
f 663/182/10 662/183/10 666/184/96
f 666/184/96 667/185/96 663/182/10
f 667/185/96 666/184/96 668/186/9
f 668/186/9 669/187/9 667/185/96
f 669/187/9 668/186/9 670/188/97
f 670/188/97 671/189/97 669/187/9
f 671/189/97 670/188/97 672/190/98
f 672/190/98 673/191/98 671/189/97
f 664/180/8 673/191/98 672/190/98
f 672/190/98 665/181/8 664/180/8
f 670/192/4 668/193/4 666/194/4
f 666/194/4 662/195/4 665/196/4
f 670/192/4 666/194/4 665/196/4
f 672/197/4 670/192/4 665/196/4
f 674/195/6 675/194/6 676/193/6
f 676/193/6 677/192/6 678/197/6
f 674/195/6 676/193/6 678/197/6
f 679/196/6 674/195/6 678/197/6
f 679/198/8 678/199/98 680/200/98
f 680/200/98 681/201/8 679/198/8
f 681/201/8 682/202/95 674/203/95
f 674/203/95 679/198/8 681/201/8
f 675/204/96 674/205/10 682/206/10
f 682/206/10 683/207/96 675/204/96
f 683/207/96 684/208/9 676/209/9
f 676/209/9 675/204/96 683/207/96
f 677/210/97 676/209/9 684/208/9
f 684/208/9 685/211/97 677/210/97
f 680/200/98 678/199/98 677/210/97
f 677/210/97 685/211/97 680/200/98
f 686/256/128 687/257/101 688/258/101
f 688/258/101 689/259/8 690/260/129
f 688/258/101 690/260/129 691/261/130
f 686/256/128 688/258/101 691/261/130
f 692/262/131 693/263/103 694/264/103
f 694/264/103 688/258/101 687/257/101
f 692/262/131 694/264/103 687/257/101
f 695/265/10 694/264/103 693/263/103
f 693/263/103 696/266/10 695/265/10
f 696/267/105 697/268/106 698/269/106
f 698/269/106 695/270/105 696/267/105
f 699/271/132 700/272/9 698/269/106
f 698/269/106 697/268/106 701/273/133
f 699/271/132 698/269/106 701/273/133
f 702/274/134 699/271/132 701/273/133
f 703/275/135 704/233/110 700/272/9
f 705/276/136 703/275/135 700/272/9
f 705/276/136 700/272/9 699/271/132
f 703/275/135 706/277/137 707/232/113
f 707/232/113 704/233/110 703/275/135
f 708/237/115 707/232/113 706/277/137
f 706/277/137 709/278/138 708/237/115
f 709/278/138 710/279/139 711/239/116
f 711/239/116 708/237/115 709/278/138
f 712/280/140 690/260/129 689/259/8
f 689/259/8 711/239/116 710/279/139
f 712/280/140 689/259/8 710/279/139
f 713/245/4 714/246/4 715/247/4
f 715/247/4 716/248/4 717/249/4
f 717/249/4 718/250/4 719/251/4
f 719/251/4 720/252/4 721/253/4
f 717/249/4 719/251/4 721/253/4
f 715/247/4 717/249/4 721/253/4
f 713/245/4 715/247/4 721/253/4
f 722/254/4 713/245/4 721/253/4
f 688/252/6 694/251/6 695/250/6
f 695/250/6 698/249/6 700/248/6
f 700/248/6 704/247/6 707/246/6
f 707/246/6 708/245/6 711/254/6
f 700/248/6 707/246/6 711/254/6
f 695/250/6 700/248/6 711/254/6
f 688/252/6 695/250/6 711/254/6
f 689/253/6 688/252/6 711/254/6
f 723/178/95 724/179/119 725/180/8
f 725/180/8 726/181/8 723/178/95
f 724/182/10 723/183/10 727/184/96
f 727/184/96 728/185/96 724/182/10
f 728/185/96 727/184/96 729/186/9
f 729/186/9 730/187/9 728/185/96
f 730/187/9 729/186/9 731/188/97
f 731/188/97 732/189/97 730/187/9
f 732/189/97 731/188/97 733/190/98
f 733/190/98 734/191/98 732/189/97
f 725/180/8 734/191/98 733/190/98
f 733/190/98 726/181/8 725/180/8
f 731/192/4 729/193/4 727/194/4
f 727/194/4 723/195/4 726/196/4
f 731/192/4 727/194/4 726/196/4
f 733/197/4 731/192/4 726/196/4
f 735/195/6 736/194/6 737/193/6
f 737/193/6 738/192/6 739/197/6
f 735/195/6 737/193/6 739/197/6
f 740/196/6 735/195/6 739/197/6
f 740/198/8 739/199/98 741/200/98
f 741/200/98 742/201/8 740/198/8
f 742/201/8 743/202/119 735/203/95
f 735/203/95 740/198/8 742/201/8
f 736/204/96 735/205/10 743/206/10
f 743/206/10 744/207/96 736/204/96
f 744/207/96 745/208/9 737/209/9
f 737/209/9 736/204/96 744/207/96
f 738/210/97 737/209/9 745/208/9
f 745/208/9 746/211/97 738/210/97
f 741/200/98 739/199/98 738/210/97
f 738/210/97 746/211/97 741/200/98
f 747/256/128 748/257/101 749/258/101
f 749/258/101 750/259/8 751/260/141
f 749/258/101 751/260/141 752/261/130
f 747/256/128 749/258/101 752/261/130
f 753/264/103 749/258/101 748/257/101
f 748/257/101 754/263/103 753/264/103
f 754/263/103 755/266/10 756/265/10
f 756/265/10 753/264/103 754/263/103
f 757/269/106 756/270/105 755/267/105
f 755/267/105 758/268/106 757/269/106
f 759/271/142 760/272/9 757/269/106
f 757/269/106 758/268/106 761/273/133
f 759/271/142 757/269/106 761/273/133
f 762/274/109 759/271/142 761/273/133
f 763/275/143 764/233/110 760/272/9
f 765/276/112 763/275/143 760/272/9
f 765/276/112 760/272/9 759/271/142
f 763/275/143 766/277/137 767/232/113
f 767/232/113 764/233/110 763/275/143
f 768/237/115 767/232/113 766/277/137
f 766/277/137 769/278/138 768/237/115
f 769/278/138 770/279/144 771/239/116
f 771/239/116 768/237/115 769/278/138
f 772/280/145 751/260/141 750/259/8
f 750/259/8 771/239/116 770/279/144
f 772/280/145 750/259/8 770/279/144
f 773/245/4 774/246/4 775/247/4
f 775/247/4 776/248/4 777/249/4
f 777/249/4 778/250/4 779/251/4
f 779/251/4 780/252/4 781/253/4
f 777/249/4 779/251/4 781/253/4
f 775/247/4 777/249/4 781/253/4
f 773/245/4 775/247/4 781/253/4
f 782/254/4 773/245/4 781/253/4
f 749/252/6 753/251/6 756/250/6
f 756/250/6 757/249/6 760/248/6
f 760/248/6 764/247/6 767/246/6
f 767/246/6 768/245/6 771/254/6
f 760/248/6 767/246/6 771/254/6
f 756/250/6 760/248/6 771/254/6
f 749/252/6 756/250/6 771/254/6
f 750/253/6 749/252/6 771/254/6
f 715/228/110 714/281/113 783/282/137
f 783/282/137 784/283/143 715/228/110
f 785/284/146 786/226/132 716/225/9
f 715/228/110 784/283/143 787/285/147
f 716/225/9 715/228/110 787/285/147
f 785/284/146 716/225/9 787/285/147
f 788/286/138 713/287/115 722/243/116
f 722/243/116 789/288/139 788/286/138
f 783/282/137 714/281/113 713/287/115
f 713/287/115 788/286/138 783/282/137
f 721/214/8 790/213/148 791/289/118
f 721/214/8 791/289/118 792/290/127
f 793/291/149 789/288/139 722/243/116
f 792/290/127 793/291/149 722/243/116
f 721/214/8 792/290/127 722/243/116
f 775/228/110 774/281/113 794/282/137
f 794/282/137 795/283/143 775/228/110
f 796/284/150 797/226/151 776/225/9
f 775/228/110 795/283/143 798/285/150
f 776/225/9 775/228/110 798/285/150
f 796/284/150 776/225/9 798/285/150
f 799/286/138 773/287/115 782/243/116
f 782/243/116 800/288/139 799/286/138
f 794/282/137 774/281/113 773/287/115
f 773/287/115 799/286/138 794/282/137
f 781/214/8 801/213/141 802/289/152
f 781/214/8 802/289/152 803/290/127
f 804/291/149 800/288/139 782/243/116
f 803/290/127 804/291/149 782/243/116
f 781/214/8 803/290/127 782/243/116
f 790/213/148 721/214/8 720/215/101
f 720/215/101 805/292/153 806/293/128
f 720/215/101 806/293/128 807/294/130
f 790/213/148 720/215/101 807/294/130
f 790/213/148 807/294/130 808/295/154
f 801/213/141 781/214/8 780/215/101
f 780/215/101 809/292/155 810/293/128
f 780/215/101 810/293/128 811/294/156
f 801/213/141 780/215/101 811/294/156
f 801/213/141 811/294/156 812/295/130
f 758/268/106 813/296/106 814/297/133
f 814/297/133 815/298/109 816/299/157
f 758/268/106 814/297/133 816/299/157
f 816/299/157 762/274/109 761/273/133
f 758/268/106 816/299/157 761/273/133
f 777/223/106 776/225/9 797/226/151
f 797/226/151 815/298/109 814/297/133
f 777/223/106 797/226/151 814/297/133
f 777/223/106 814/297/133 813/296/106
f 786/226/132 817/298/134 818/297/134
f 819/300/133 820/296/158 717/223/106
f 818/297/134 819/300/133 717/223/106
f 786/226/132 818/297/134 717/223/106
f 786/226/132 717/223/106 716/225/9
f 599/259/8 821/260/159 822/301/128
f 599/259/8 822/301/128 823/302/130
f 824/303/160 825/304/102 594/258/101
f 823/302/130 824/303/160 594/258/101
f 599/259/8 823/302/130 594/258/101
f 826/305/104 595/264/103 594/258/101
f 594/258/101 825/304/102 826/305/104
f 826/305/104 827/306/10 596/265/10
f 596/265/10 595/264/103 826/305/104
f 597/269/106 596/270/105 827/307/105
f 827/307/105 828/308/123 597/269/106
f 829/309/161 830/271/108 598/272/9
f 597/269/106 828/308/123 831/310/162
f 598/272/9 597/269/106 831/310/162
f 829/309/161 598/272/9 831/310/162
f 661/259/8 832/260/121 833/301/163
f 661/259/8 833/301/163 834/311/130
f 835/303/160 836/304/102 656/258/101
f 834/311/130 835/303/160 656/258/101
f 661/259/8 834/311/130 656/258/101
f 837/305/104 657/264/103 656/258/101
f 656/258/101 836/304/102 837/305/104
f 837/305/104 838/306/10 658/265/10
f 658/265/10 657/264/103 837/305/104
f 659/269/106 658/270/105 838/307/105
f 838/307/105 839/308/123 659/269/106
f 840/309/134 841/271/164 660/272/9
f 659/269/106 839/308/123 842/310/134
f 660/272/9 659/269/106 842/310/134
f 840/309/134 660/272/9 842/310/134
f 843/312/111 844/313/150 845/314/111
f 581/234/110 843/312/111 845/314/111
f 845/314/111 578/231/112 577/230/111
f 581/234/110 845/314/111 577/230/111
f 581/234/110 577/230/111 576/229/110
f 580/233/110 598/272/9 830/271/108
f 830/271/108 844/313/150 843/312/111
f 580/233/110 830/271/108 843/312/111
f 580/233/110 843/312/111 581/234/110
f 586/239/116 585/238/116 846/315/118
f 846/315/118 847/316/165 821/260/159
f 586/239/116 846/315/118 821/260/159
f 586/239/116 821/260/159 599/259/8
f 848/312/111 849/313/126 850/314/166
f 644/234/110 848/312/111 850/314/166
f 850/314/166 641/231/126 640/230/111
f 644/234/110 850/314/166 640/230/111
f 644/234/110 640/230/111 639/229/110
f 643/233/110 660/272/9 841/271/164
f 841/271/164 849/313/126 848/312/111
f 643/233/110 841/271/164 848/312/111
f 643/233/110 848/312/111 644/234/110
f 648/239/116 649/238/116 851/315/118
f 851/315/118 852/316/127 832/260/121
f 648/239/116 851/315/118 832/260/121
f 648/239/116 832/260/121 661/259/8
f 853/317/130 808/295/154 807/294/130
f 853/317/130 807/294/130 806/293/128
f 806/293/128 805/292/153 687/257/101
f 806/293/128 687/257/101 686/256/128
f 853/317/130 806/293/128 686/256/128
f 691/261/130 853/317/130 686/256/128
f 854/318/167 855/319/168 693/263/103
f 854/318/167 693/263/103 692/262/131
f 856/320/169 854/318/167 692/262/131
f 805/292/153 856/320/169 692/262/131
f 687/257/101 805/292/153 692/262/131
f 855/319/168 857/321/10 696/266/10
f 696/266/10 693/263/103 855/319/168
f 858/317/170 812/295/130 811/294/156
f 858/317/170 811/294/156 810/293/128
f 810/293/128 809/292/155 748/257/101
f 810/293/128 748/257/101 747/256/128
f 858/317/170 810/293/128 747/256/128
f 752/261/130 858/317/170 747/256/128
f 779/217/103 778/219/10 859/321/10
f 859/321/10 860/319/103 779/217/103
f 809/292/155 860/319/103 754/263/103
f 754/263/103 748/257/101 809/292/155
f 859/322/105 813/296/106 758/268/106
f 758/268/106 755/267/105 859/322/105
f 718/222/105 717/223/106 820/296/158
f 820/296/158 857/322/105 718/222/105
f 719/217/103 855/319/168 854/318/167
f 719/217/103 854/318/167 856/320/169
f 720/215/101 719/217/103 856/320/169
f 805/292/153 720/215/101 856/320/169
f 818/297/134 817/298/134 861/299/133
f 819/300/133 818/297/134 861/299/133
f 861/299/133 702/274/134 701/273/133
f 819/300/133 861/299/133 701/273/133
f 819/300/133 701/273/133 697/268/106
f 819/300/133 697/268/106 820/296/158
f 780/215/101 779/217/103 860/319/103
f 860/319/103 809/292/155 780/215/101
f 719/217/103 718/219/10 857/321/10
f 857/321/10 855/319/168 719/217/103
f 778/222/105 777/223/106 813/296/106
f 813/296/106 859/322/105 778/222/105
f 755/266/10 754/263/103 860/319/103
f 860/319/103 859/321/10 755/266/10
f 696/267/105 857/322/105 820/296/158
f 820/296/158 697/268/106 696/267/105
f 862/323/171 863/324/172 592/287/115
f 864/325/173 862/323/171 592/287/115
f 592/287/115 590/243/116 589/242/116
f 864/325/173 592/287/115 589/242/116
f 585/238/116 589/242/116 588/241/118
f 588/241/118 591/244/118 865/326/118
f 585/238/116 588/241/118 865/326/118
f 846/315/118 585/238/116 865/326/118
f 846/315/118 865/326/118 847/316/165
f 593/281/113 592/287/115 863/324/172
f 863/324/172 866/327/113 593/281/113
f 575/228/110 593/281/113 866/327/113
f 866/327/113 576/229/110 575/228/110
f 655/281/113 654/287/115 867/324/115
f 867/324/115 868/327/113 655/281/113
f 638/228/110 655/281/113 868/327/113
f 868/327/113 639/229/110 638/228/110
f 867/324/115 651/242/116 649/238/116
f 649/238/116 646/236/115 867/324/115
f 649/238/116 651/242/116 650/241/118
f 650/241/118 653/244/127 869/326/118
f 649/238/116 650/241/118 869/326/118
f 851/315/118 649/238/116 869/326/118
f 851/315/118 869/326/118 852/316/127
f 583/236/114 863/324/172 862/323/171
f 589/242/116 585/238/116 587/240/117
f 864/325/173 589/242/116 587/240/117
f 862/323/171 864/325/173 587/240/117
f 583/236/114 862/323/171 587/240/117
f 581/234/110 576/229/110 866/327/113
f 866/327/113 582/235/113 581/234/110
f 583/236/114 582/235/113 866/327/113
f 866/327/113 863/324/172 583/236/114
f 654/287/115 652/243/116 651/242/116
f 651/242/116 867/324/115 654/287/115
f 644/234/110 639/229/110 868/327/113
f 868/327/113 645/235/113 644/234/110
f 646/236/115 645/235/113 868/327/113
f 868/327/113 867/324/115 646/236/115
f 870/328/174 871/329/6 872/330/6
f 872/330/6 873/331/174 870/328/174
f 874/332/175 870/328/174 873/331/174
f 873/331/174 875/333/175 874/332/175
f 876/334/10 874/332/175 875/333/175
f 875/333/175 877/335/10 876/334/10
f 878/336/176 876/337/63 877/338/63
f 877/338/63 879/339/176 878/336/176
f 880/340/4 878/336/176 879/339/176
f 879/339/176 881/341/4 880/340/4
f 882/342/177 880/340/4 881/341/4
f 881/341/4 883/343/177 882/342/177
f 884/344/178 882/342/177 883/343/177
f 883/343/177 885/345/178 884/344/178
f 886/346/179 884/344/178 885/345/178
f 885/345/178 887/347/179 886/346/179
f 888/348/180 886/346/179 887/347/179
f 887/347/179 889/349/180 888/348/180
f 870/350/9 874/351/9 876/352/9
f 876/352/9 878/353/9 880/354/9
f 880/354/9 882/355/9 884/356/9
f 884/356/9 886/357/9 888/358/9
f 880/354/9 884/356/9 888/358/9
f 876/352/9 880/354/9 888/358/9
f 870/350/9 876/352/9 888/358/9
f 871/359/9 870/350/9 888/358/9
f 890/328/174 891/329/6 892/330/6
f 892/330/6 893/331/174 890/328/174
f 894/332/175 890/328/174 893/331/174
f 893/331/174 895/333/175 894/332/175
f 896/334/10 894/332/175 895/333/175
f 895/333/175 897/335/10 896/334/10
f 898/336/176 896/337/63 897/338/63
f 897/338/63 899/339/176 898/336/176
f 900/340/4 898/336/176 899/339/176
f 899/339/176 901/341/4 900/340/4
f 902/342/177 900/340/4 901/341/4
f 901/341/4 903/343/177 902/342/177
f 904/344/178 902/342/177 903/343/177
f 903/343/177 905/345/178 904/344/178
f 906/346/179 904/344/178 905/345/178
f 905/345/178 907/347/179 906/346/179
f 908/348/180 906/346/179 907/347/179
f 907/347/179 909/349/180 908/348/180
f 890/350/9 894/351/9 896/352/9
f 896/352/9 898/353/9 900/354/9
f 900/354/9 902/355/9 904/356/9
f 904/356/9 906/357/9 908/358/9
f 900/354/9 904/356/9 908/358/9
f 896/352/9 900/354/9 908/358/9
f 890/350/9 896/352/9 908/358/9
f 891/359/9 890/350/9 908/358/9
f 910/328/174 911/329/6 912/330/6
f 912/330/6 913/331/174 910/328/174
f 914/332/175 910/328/174 913/331/174
f 913/331/174 915/333/175 914/332/175
f 916/334/10 914/332/175 915/333/175
f 915/333/175 917/335/10 916/334/10
f 918/336/176 916/337/63 917/338/63
f 917/338/63 919/339/176 918/336/176
f 920/340/4 918/336/176 919/339/176
f 919/339/176 921/341/4 920/340/4
f 922/342/177 920/340/4 921/341/4
f 921/341/4 923/343/177 922/342/177
f 924/344/178 922/342/177 923/343/177
f 923/343/177 925/345/178 924/344/178
f 926/346/179 924/344/178 925/345/178
f 925/345/178 927/347/179 926/346/179
f 928/348/180 926/346/179 927/347/179
f 927/347/179 929/349/180 928/348/180
f 910/350/9 914/351/9 916/352/9
f 916/352/9 918/353/9 920/354/9
f 920/354/9 922/355/9 924/356/9
f 924/356/9 926/357/9 928/358/9
f 920/354/9 924/356/9 928/358/9
f 916/352/9 920/354/9 928/358/9
f 910/350/9 916/352/9 928/358/9
f 911/359/9 910/350/9 928/358/9
f 911/329/6 928/348/180 929/349/180
f 929/349/180 912/330/6 911/329/6
f 891/329/6 908/348/180 909/349/180
f 909/349/180 892/330/6 891/329/6
f 930/328/174 931/329/6 932/330/6
f 932/330/6 933/331/174 930/328/174
f 934/332/175 930/328/174 933/331/174
f 933/331/174 935/333/175 934/332/175
f 936/334/10 934/332/175 935/333/175
f 935/333/175 937/335/10 936/334/10
f 938/336/176 936/337/63 937/338/63
f 937/338/63 939/339/176 938/336/176
f 940/340/4 938/336/176 939/339/176
f 939/339/176 941/341/4 940/340/4
f 942/342/177 940/340/4 941/341/4
f 941/341/4 943/343/177 942/342/177
f 944/344/178 942/342/177 943/343/177
f 943/343/177 945/345/178 944/344/178
f 946/346/179 944/344/178 945/345/178
f 945/345/178 947/347/179 946/346/179
f 948/348/180 946/346/179 947/347/179
f 947/347/179 949/349/180 948/348/180
f 930/350/9 934/351/9 936/352/9
f 936/352/9 938/353/9 940/354/9
f 940/354/9 942/355/9 944/356/9
f 944/356/9 946/357/9 948/358/9
f 940/354/9 944/356/9 948/358/9
f 936/352/9 940/354/9 948/358/9
f 930/350/9 936/352/9 948/358/9
f 931/359/9 930/350/9 948/358/9
f 871/329/6 888/348/180 889/349/180
f 889/349/180 872/330/6 871/329/6
f 931/329/6 948/348/180 949/349/180
f 949/349/180 932/330/6 931/329/6
f 950/360/6 951/361/181 952/362/181
f 952/362/181 953/329/6 950/360/6
f 951/361/181 954/363/10 955/364/10
f 955/364/10 952/362/181 951/361/181
f 954/365/58 956/366/4 957/340/4
f 957/340/4 955/367/58 954/365/58
f 956/366/4 958/368/87 959/369/87
f 959/369/87 957/340/4 956/366/4
f 958/368/87 960/370/88 961/371/88
f 961/371/88 959/369/87 958/368/87
f 960/370/88 950/360/6 953/329/6
f 953/329/6 961/371/88 960/370/88
f 958/372/8 956/354/8 954/373/8
f 954/373/8 951/374/8 950/359/8
f 958/372/8 954/373/8 950/359/8
f 960/375/8 958/372/8 950/359/8
f 952/374/9 955/373/9 957/354/9
f 957/354/9 959/372/9 961/375/9
f 952/374/9 957/354/9 961/375/9
f 953/359/9 952/374/9 961/375/9
f 962/360/6 963/361/181 964/362/181
f 964/362/181 965/329/6 962/360/6
f 963/361/181 966/363/10 967/364/10
f 967/364/10 964/362/181 963/361/181
f 966/365/58 968/366/4 969/340/4
f 969/340/4 967/367/58 966/365/58
f 968/366/4 970/368/87 971/369/87
f 971/369/87 969/340/4 968/366/4
f 970/368/87 972/370/88 973/371/88
f 973/371/88 971/369/87 970/368/87
f 972/370/88 962/360/6 965/329/6
f 965/329/6 973/371/88 972/370/88
f 970/372/8 968/354/8 966/373/8
f 966/373/8 963/374/8 962/359/8
f 970/372/8 966/373/8 962/359/8
f 972/375/8 970/372/8 962/359/8
f 964/374/9 967/373/9 969/354/9
f 969/354/9 971/372/9 973/375/9
f 964/374/9 969/354/9 973/375/9
f 965/359/9 964/374/9 973/375/9
f 974/360/6 975/361/181 976/362/181
f 976/362/181 977/329/6 974/360/6
f 975/361/181 978/363/10 979/364/10
f 979/364/10 976/362/181 975/361/181
f 978/365/58 980/366/4 981/340/4
f 981/340/4 979/367/58 978/365/58
f 980/366/4 982/368/87 983/369/87
f 983/369/87 981/340/4 980/366/4
f 982/368/87 984/370/88 985/371/88
f 985/371/88 983/369/87 982/368/87
f 984/370/88 974/360/6 977/329/6
f 977/329/6 985/371/88 984/370/88
f 982/372/8 980/354/8 978/373/8
f 978/373/8 975/374/8 974/359/8
f 982/372/8 978/373/8 974/359/8
f 984/375/8 982/372/8 974/359/8
f 976/374/9 979/373/9 981/354/9
f 981/354/9 983/372/9 985/375/9
f 976/374/9 981/354/9 985/375/9
f 977/359/9 976/374/9 985/375/9
f 986/360/6 987/361/181 988/362/181
f 988/362/181 989/329/6 986/360/6
f 987/361/181 990/363/10 991/364/10
f 991/364/10 988/362/181 987/361/181
f 990/365/58 992/366/4 993/340/4
f 993/340/4 991/367/58 990/365/58
f 992/366/4 994/368/87 995/369/87
f 995/369/87 993/340/4 992/366/4
f 994/368/87 996/370/88 997/371/88
f 997/371/88 995/369/87 994/368/87
f 996/370/88 986/360/6 989/329/6
f 989/329/6 997/371/88 996/370/88
f 994/372/8 992/354/8 990/373/8
f 990/373/8 987/374/8 986/359/8
f 994/372/8 990/373/8 986/359/8
f 996/375/8 994/372/8 986/359/8
f 988/374/9 991/373/9 993/354/9
f 993/354/9 995/372/9 997/375/9
f 988/374/9 993/354/9 997/375/9
f 989/359/9 988/374/9 997/375/9
f 998/376/11 999/377/11 1000/378/11
f 1000/378/11 1001/379/11 998/376/11
f 1002/376/6 998/377/6 1001/378/6
f 1001/378/6 1003/379/6 1002/376/6
f 1004/376/10 1002/377/10 1003/378/10
f 1003/378/10 1005/379/10 1004/376/10
f 999/376/4 1004/377/4 1005/378/4
f 1005/378/4 1000/379/4 999/376/4
f 1006/376/11 1007/377/11 1008/378/11
f 1008/378/11 1009/379/11 1006/376/11
f 1010/376/6 1006/377/6 1009/378/6
f 1009/378/6 1011/379/6 1010/376/6
f 1012/376/10 1010/377/10 1011/378/10
f 1011/378/10 1013/379/10 1012/376/10
f 1007/376/4 1012/377/4 1013/378/4
f 1013/378/4 1008/379/4 1007/376/4
f 1014/377/8 1015/378/8 1016/379/8
f 1016/379/8 1017/376/8 1014/377/8
f 1018/376/9 1019/377/9 1020/378/9
f 1020/378/9 1021/379/9 1018/376/9
f 1021/376/11 1020/377/11 1016/378/11
f 1016/378/11 1015/379/11 1021/376/11
f 1018/376/6 1021/377/6 1015/378/6
f 1015/378/6 1014/379/6 1018/376/6
f 1019/376/10 1018/377/10 1014/378/10
f 1014/378/10 1017/379/10 1019/376/10
f 1020/376/4 1019/377/4 1017/378/4
f 1017/378/4 1016/379/4 1020/376/4
f 1022/380/9 1023/381/9 1024/382/9
f 1024/382/9 1025/383/9 1022/380/9
f 1026/380/182 1027/381/182 1023/382/11
f 1023/382/11 1022/383/11 1026/380/182
f 1027/380/6 1028/381/6 1024/382/6
f 1024/382/6 1023/383/6 1027/380/6
f 1028/380/183 1029/381/183 1025/382/10
f 1025/382/10 1024/383/10 1028/380/183
f 1029/380/4 1026/381/4 1022/382/4
f 1022/382/4 1025/383/4 1029/380/4
f 5/5/3 1030/384/184 4/1/3
f 6/7/4 1031/385/185 1/8/4
f 7/9/5 8/386/186 2/1/5
f 9/11/6 1032/384/187 3/1/6
f 14/5/3 1033/384/184 13/1/3
f 15/12/4 1034/386/185 10/1/4
f 16/9/5 17/386/186 11/1/5
f 18/15/6 1035/387/188 12/13/6
f 1028/380/183 1026/380/182 1029/381/183
f 1028/380/183 1027/381/182 1026/380/182
f 17/36/9 1035/36/9 1033/36/9
f 1034/36/10 1034/36/9 17/36/9
f 1034/36/9 17/36/10 17/36/9
f 1033/36/189 1033/36/189 1034/36/189
f 1033/36/9 1034/36/9 17/36/9
f 1035/36/10 1035/36/9 1033/36/9
f 1031/36/9 8/36/9 1032/36/9
f 1030/36/189 1030/36/189 1031/36/189
f 1030/36/189 1031/36/189 1031/36/189
f 1032/36/10 1032/36/9 1030/36/9
f 1032/36/9 1030/36/9 1031/36/9
f 8/36/189 8/36/189 1032/36/189
f 3/2/3 1032/388/190 5/5/3
f 4/6/4 1030/389/191 6/7/4
f 1/2/5 1031/10/192 7/9/5
f 3/1/6 2/2/6 8/10/7
f 12/2/3 1035/388/193 14/5/3
f 13/2/4 1033/388/191 15/12/4
f 10/2/5 1034/10/192 16/9/5
f 12/13/6 11/390/6 17/14/7
