# generated by tools/objdedupe/dedupe.py -- do not hand-edit.
# Re-run the tool after touching sssr_2svet_nove.obj, sssr_3svet_nove.obj, sssr_4svet_nove.obj, sssr_5svet_nove.obj, sssr_2se_nove.obj, sssr_3ab_nove.obj, sssr_4ab_nove.obj, sssr_pr_nove.obj, sssr_vl_nove.obj.
o stoz_2se_zaklad
v -0.090750 1.156492 -0.199095
vt 0.794261 0.502427
vn -0.000000 0.994300 0.106200
v -0.084700 1.156492 -0.199095
vt 0.935169 0.502427
v -0.084700 1.159706 -0.229174
vt 0.935169 0.002628
vn -0.000000 0.994300 0.106300
v -0.090750 1.159706 -0.229174
vt 0.794261 0.002628
vn -0.000000 0.106300 -0.994300
v -0.085566 -0.000000 -0.353110
vt 0.914990 0.074202
vt 0.996710 0.496678
vn -1.000000 -0.000000 -0.000000
v -0.090750 -0.000000 -0.348743
vt 0.989419 0.071723
vt 0.937772 0.495768
vn -0.000000 -0.106300 0.994300
v -0.089869 -0.000000 -0.322687
vt 0.914655 0.075389
v -0.084700 -0.000000 -0.322687
vt 0.000000 0.000000
vn -0.000000 -1.000000 -0.000000
v -0.090750 -0.000000 -0.322687
v -0.090750 -0.000000 -0.353110
vn 1.000000 -0.000000 -0.000000
vt 0.935169 0.075389
vn 0.729900 0.683600 -0.000000
v -0.084700 -0.000000 -0.327106
vt 0.914703 0.075217
vn -0.000000 -0.000000 -0.000000
v 0.084700 1.156492 -0.199095
v 0.090750 1.156492 -0.199095
v 0.090750 1.159706 -0.229174
v 0.084700 1.159706 -0.229174
v 0.089884 -0.000000 -0.353110
v -0.084700 -0.000000 -0.353110
v 0.084700 -0.000000 -0.348743
vt 0.914942 0.074372
v 0.084700 -0.000000 -0.353110
v 0.090750 -0.000000 -0.353110
v 0.090750 -0.000000 -0.322687
v 0.085581 -0.000000 -0.322687
vt 0.997924 0.499013
vt 0.937579 0.077150
vn 0.729800 0.683700 -0.000000
v 0.090750 -0.000000 -0.327106
vt 0.946343 0.076980
v 0.084700 -0.000000 -0.322687
v 0.060500 1.376073 -0.002946
v 0.060500 1.376073 0.003104
v -0.060500 1.376073 0.003104
v -0.060500 1.376073 -0.002946
v 0.060500 1.406323 -0.002946
vn -0.000000 1.000000 -0.000000
v -0.060500 1.406323 -0.002946
v -0.060500 1.406323 0.003104
v 0.060500 1.406323 0.003104
vn -0.000000 -0.000000 -1.000000
vn -0.000000 -0.000000 1.000000
v -0.090613 1.376073 -0.176959
v -0.084609 1.376073 -0.177696
v -0.052167 1.376073 -0.001276
v -0.058172 1.376073 -0.000539
v -0.090613 1.406323 -0.176958
v -0.058172 1.406323 -0.000539
v -0.052167 1.406323 -0.001276
v -0.084609 1.406323 -0.177696
vn -0.983500 -0.000000 0.180900
vn 0.983500 -0.000000 -0.180900
v 0.084608 1.376073 -0.177696
v 0.090613 1.376073 -0.176959
v 0.058171 1.376073 -0.000539
v 0.052167 1.376073 -0.001276
v 0.084608 1.406323 -0.177696
v 0.052167 1.406323 -0.001276
v 0.058171 1.406323 -0.000539
v 0.090613 1.406323 -0.176959
vn -0.983500 -0.000000 -0.180900
vn 0.983500 -0.000000 0.180900
v -0.084700 1.159576 -0.229169
vn -0.000000 -0.994300 -0.106300
v -0.084700 1.156362 -0.199090
vn -0.000000 -0.994300 -0.106200
v -0.090750 1.156362 -0.199090
v -0.090750 1.159576 -0.229169
v -0.084700 2.623577 -0.072867
v -0.090750 2.623577 -0.072867
v -0.090750 2.623577 -0.042788
v -0.084700 2.623577 -0.042788
vn -0.000000 0.106200 -0.994300
vn -0.000000 -0.105900 0.994400
v 0.090750 1.159576 -0.229169
v 0.090750 1.156362 -0.199090
v 0.084700 1.156362 -0.199090
v 0.084700 1.159576 -0.229169
v 0.090750 2.623577 -0.072867
v 0.084700 2.623577 -0.072867
v 0.084700 2.623577 -0.042788
v 0.090750 2.623577 -0.042788
v -0.047190 2.593320 0.000079
vn -0.965900 -0.000000 0.258800
v -0.040868 2.593320 0.023674
v -0.040868 2.623569 0.023674
v -0.047190 2.623569 0.000079
vn -0.707100 -0.000000 0.707100
v -0.023595 2.593320 0.040947
v -0.023595 2.623569 0.040947
vn -0.258800 -0.000000 0.965900
v -0.000000 2.593320 0.047269
v -0.000000 2.623569 0.047269
vn 0.258800 -0.000000 0.965900
v 0.023595 2.593320 0.040947
v 0.023595 2.623569 0.040947
vn 0.707100 -0.000000 0.707100
v 0.040868 2.593320 0.023674
v 0.040868 2.623569 0.023674
vn 0.965900 -0.000000 0.258800
v 0.047190 2.593320 0.000079
v 0.047190 2.623569 0.000079
vn 0.965900 -0.000000 -0.258800
v 0.040868 2.593320 -0.023516
v 0.040868 2.623570 -0.023516
vn 0.707100 -0.000000 -0.707100
v 0.023595 2.593320 -0.040789
v 0.023595 2.623569 -0.040789
vn 0.258800 -0.000000 -0.965900
v -0.000000 2.593320 -0.047111
v -0.000000 2.623569 -0.047111
vn -0.258800 -0.000000 -0.965900
v -0.023595 2.593320 -0.040789
v -0.023595 2.623569 -0.040789
vn -0.707100 -0.000000 -0.707100
v -0.040868 2.593320 -0.023516
v -0.040868 2.623570 -0.023516
vn -0.965900 -0.000000 -0.258800
vt 0.852090 0.350552
vt 0.885191 0.350552
vt 0.913859 0.357967
vt 0.930410 0.370810
vt 0.930410 0.385638
vt 0.913859 0.398481
vt 0.885191 0.405895
vt 0.852090 0.405895
vt 0.823422 0.398481
vt 0.806871 0.385638
vt 0.806871 0.370810
vt 0.823422 0.357967
vn 0.000100 1.000000 -0.000000
vn -0.000000 1.000000 -0.000100
vn -0.000100 1.000000 -0.000000
v -0.047190 1.376073 0.000079
v -0.040868 1.376073 0.023674
v -0.040868 1.406323 0.023674
v -0.047190 1.406323 0.000079
v -0.023595 1.376073 0.040947
v -0.023595 1.406323 0.040947
v -0.000000 1.376073 0.047269
v -0.000000 1.406323 0.047269
v 0.023595 1.376073 0.040947
v 0.023595 1.406323 0.040947
v 0.040868 1.376073 0.023674
v 0.040868 1.406323 0.023674
v 0.047190 1.376073 0.000079
v 0.047190 1.406323 0.000079
v 0.040868 1.376073 -0.023516
v 0.040868 1.406323 -0.023516
v 0.023595 1.376073 -0.040789
v 0.023595 1.406323 -0.040789
v -0.000000 1.376073 -0.047111
v -0.000000 1.406323 -0.047111
v -0.023595 1.376073 -0.040789
v -0.023595 1.406323 -0.040789
v -0.040868 1.376073 -0.023516
v -0.040868 1.406323 -0.023516
v -0.080189 2.593333 -0.028569
vt 0.926526 0.402035
v -0.085639 2.593333 -0.025944
vt 0.803962 0.402035
v -0.090706 2.593333 -0.048146
vt 0.803962 0.293440
v -0.084656 2.593333 -0.048146
vt 0.926526 0.306279
v -0.067669 2.593333 -0.012869
v -0.071441 2.593333 -0.008139
vn -0.000000 -1.000000 -0.000100
v -0.049577 2.593333 -0.004157
v -0.050923 2.593333 0.001741
vn -0.000000 -1.000000 0.000100
v 0.049577 2.593333 -0.004157
v 0.050923 2.593333 0.001741
vt 0.926526 0.296310
v 0.067669 2.593333 -0.012869
v 0.071441 2.593333 -0.008139
v 0.080189 2.593333 -0.028569
v 0.085639 2.593333 -0.025944
v 0.084656 2.593333 -0.048146
v 0.090706 2.593333 -0.048146
v -0.080189 2.623582 -0.028569
v -0.084656 2.623582 -0.048146
vt 0.818453 0.402035
v -0.090706 2.623582 -0.048146
v -0.085639 2.623582 -0.025944
vt 0.926526 0.293440
v -0.067669 2.623582 -0.012869
v -0.071441 2.623582 -0.008139
v -0.049577 2.623582 -0.004157
v -0.050923 2.623582 0.001741
v 0.049577 2.623582 -0.004157
vt 0.807201 0.402035
v 0.050923 2.623582 0.001741
v 0.067669 2.623582 -0.012869
v 0.071441 2.623582 -0.008139
v 0.080189 2.623582 -0.028569
v 0.085639 2.623582 -0.025944
v 0.084656 2.623582 -0.048146
v 0.090706 2.623582 -0.048146
vn -0.974900 -0.000000 0.222500
vn -0.781900 -0.000000 0.623500
vn -0.433800 -0.000000 0.901000
vn -0.433900 -0.000000 0.901000
vn 0.433800 -0.000000 0.901000
vn 0.433900 -0.000000 0.901000
vn 0.781900 -0.000000 0.623500
vn 0.974900 -0.000000 0.222500
vn -0.974900 -0.000000 -0.222500
vn -0.781800 -0.000000 -0.623500
vn -0.433900 -0.000000 -0.901000
vn 0.433900 -0.000000 -0.901000
vn 0.781800 -0.000000 -0.623500
vn 0.974900 -0.000000 -0.222500
v 0.087725 0.272303 -0.312057
v 0.087725 0.271660 -0.306040
v -0.087725 0.271660 -0.306040
v -0.087725 0.272303 -0.312057
v 0.087725 0.284335 -0.310771
v -0.087725 0.284335 -0.310771
v -0.087725 0.283692 -0.304754
v 0.087725 0.283692 -0.304754
v 0.087725 0.484053 -0.289309
v 0.087725 0.483410 -0.283293
v -0.087725 0.483410 -0.283293
v -0.087725 0.484053 -0.289309
v 0.087725 0.496085 -0.288023
v -0.087725 0.496085 -0.288023
v -0.087725 0.495442 -0.282007
v 0.087725 0.495442 -0.282007
v 0.087725 0.695803 -0.266561
v 0.087725 0.695160 -0.260545
v -0.087725 0.695160 -0.260545
v -0.087725 0.695803 -0.266561
v 0.087725 0.707835 -0.265275
v -0.087725 0.707835 -0.265275
v -0.087725 0.707192 -0.259259
v 0.087725 0.707192 -0.259259
v 0.087725 0.907553 -0.243813
v 0.087725 0.906910 -0.237797
v -0.087725 0.906910 -0.237797
v -0.087725 0.907553 -0.243813
v 0.087725 0.919585 -0.242527
v -0.087725 0.919585 -0.242527
v -0.087725 0.918942 -0.236511
v 0.087725 0.918942 -0.236511
v 0.087725 1.119303 -0.221065
v 0.087725 1.118660 -0.215049
v -0.087725 1.118660 -0.215049
v -0.087725 1.119303 -0.221065
v 0.087725 1.131335 -0.219779
v -0.087725 1.131335 -0.219779
v -0.087725 1.130692 -0.213763
v 0.087725 1.130692 -0.213763
v 0.087725 1.331053 -0.198317
v 0.087725 1.330410 -0.192301
v -0.087725 1.330410 -0.192301
v -0.087725 1.331053 -0.198317
v 0.087725 1.343085 -0.197031
v -0.087725 1.343085 -0.197031
v -0.087725 1.342442 -0.191015
v 0.087725 1.342442 -0.191015
v 0.087725 1.542803 -0.175569
v 0.087725 1.542160 -0.169553
v -0.087725 1.542160 -0.169553
v -0.087725 1.542803 -0.175569
v 0.087725 1.554835 -0.174283
v -0.087725 1.554835 -0.174283
v -0.087725 1.554192 -0.168267
v 0.087725 1.554192 -0.168267
v 0.087725 1.754553 -0.152821
v 0.087725 1.753910 -0.146805
v -0.087725 1.753910 -0.146805
v -0.087725 1.754553 -0.152821
v 0.087725 1.766584 -0.151535
vn -0.000000 0.994400 0.106100
v -0.087725 1.766584 -0.151535
v -0.087725 1.765942 -0.145519
v 0.087725 1.765942 -0.145519
v 0.087725 1.966303 -0.130073
v 0.087725 1.965660 -0.124057
v -0.087725 1.965660 -0.124057
v -0.087725 1.966303 -0.130073
v 0.087725 1.978334 -0.128787
v -0.087725 1.978334 -0.128787
v -0.087725 1.977692 -0.122771
v 0.087725 1.977692 -0.122771
v 0.087725 2.178053 -0.107325
v 0.087725 2.177410 -0.101309
v -0.087725 2.177410 -0.101309
v -0.087725 2.178053 -0.107325
v 0.087725 2.190084 -0.106039
v -0.087725 2.190084 -0.106039
v -0.087725 2.189442 -0.100023
v 0.087725 2.189442 -0.100023
v 0.087725 2.389803 -0.084577
v 0.087725 2.389160 -0.078561
v -0.087725 2.389160 -0.078561
v -0.087725 2.389803 -0.084577
v 0.087725 2.401834 -0.083291
v -0.087725 2.401834 -0.083291
v -0.087725 2.401192 -0.077275
v 0.087725 2.401192 -0.077275
v -0.102850 0.036300 0.175450
vn -0.000000 0.800000 0.600000
v -0.090750 0.036300 0.175450
vt 1.000000 0.000000
v -0.090750 0.054450 0.151250
vt 1.000000 1.000000
v -0.102850 0.054450 0.151250
vt 0.000000 1.000000
v -0.102850 0.054450 -0.151250
vn -0.000000 0.800000 -0.600000
v -0.090750 0.054450 -0.151250
v -0.090750 0.036300 -0.175450
v -0.102850 0.036300 -0.175450
v -0.102850 0.018150 0.193600
vt 0.710457 0.823482
vn -0.000000 0.707100 0.707100
v -0.090750 0.018150 0.193600
vt 0.861514 0.823482
vt 0.866433 0.892552
vt 0.715376 0.892552
v -0.090750 0.018150 0.151250
v -0.090750 0.018150 -0.151250
v -0.090750 0.018150 -0.193600
vn -0.000000 0.707100 -0.707100
v -0.102850 0.018150 -0.193600
v -0.102850 0.018150 -0.151250
v -0.102850 0.018150 0.151250
v 0.090750 0.036300 0.175450
v 0.102850 0.036300 0.175450
v 0.102850 0.054450 0.151250
v 0.090750 0.054450 0.151250
v 0.090750 0.054450 -0.151250
v 0.102850 0.054450 -0.151250
v 0.102850 0.036300 -0.175450
v 0.090750 0.036300 -0.175450
v 0.090750 0.018150 0.193600
v 0.102850 0.018150 0.193600
v 0.102850 0.018150 0.151250
v 0.102850 0.018150 -0.151250
v 0.102850 0.018150 -0.193600
v 0.090750 0.018150 -0.193600
v 0.090750 0.018150 -0.151250
v 0.090750 0.018150 0.151250
v -0.111925 0.018150 -0.175450
vn 0.866000 -0.000000 -0.500000
v -0.119488 0.042350 -0.188549
v -0.111925 0.042350 -0.175450
v -0.119488 0.018150 -0.188549
v -0.134613 0.042350 -0.188549
v -0.134613 0.018150 -0.188549
vn -0.866000 -0.000000 -0.500000
v -0.142175 0.042350 -0.175450
v -0.142175 0.018150 -0.175450
vn -0.866000 -0.000000 0.500000
v -0.134613 0.042350 -0.162351
v -0.134613 0.018150 -0.162351
v -0.119488 0.042350 -0.162351
v -0.119488 0.018150 -0.162351
vn 0.866000 -0.000000 0.500000
v -0.127050 0.042350 -0.175450
v 0.142175 0.018150 -0.175450
v 0.134613 0.042350 -0.188549
v 0.142175 0.042350 -0.175450
v 0.134613 0.018150 -0.188549
v 0.119488 0.042350 -0.188549
v 0.119488 0.018150 -0.188549
v 0.111925 0.042350 -0.175450
v 0.111925 0.018150 -0.175450
v 0.119488 0.042350 -0.162351
v 0.119488 0.018150 -0.162351
v 0.134613 0.042350 -0.162351
v 0.134613 0.018150 -0.162351
v 0.127050 0.042350 -0.175450
v -0.111925 0.018150 0.175450
v -0.119488 0.042350 0.162351
v -0.111925 0.042350 0.175450
v -0.119488 0.018150 0.162351
v -0.134613 0.042350 0.162351
v -0.134613 0.018150 0.162351
v -0.142175 0.042350 0.175450
v -0.142175 0.018150 0.175450
v -0.134613 0.042350 0.188549
v -0.134613 0.018150 0.188549
v -0.119488 0.042350 0.188549
v -0.119488 0.018150 0.188549
v -0.127050 0.042350 0.175450
v 0.142175 0.018150 0.175450
v 0.134613 0.042350 0.162351
v 0.142175 0.042350 0.175450
v 0.134613 0.018150 0.162351
v 0.119488 0.042350 0.162351
v 0.119488 0.018150 0.162351
v 0.111925 0.042350 0.175450
v 0.111925 0.018150 0.175450
v 0.119488 0.042350 0.188549
v 0.119488 0.018150 0.188549
v 0.134613 0.042350 0.188549
v 0.134613 0.018150 0.188549
v 0.127050 0.042350 0.175450
v -0.120526 0.054450 -0.180190
vn 0.951000 -0.000000 -0.309200
v -0.118985 0.054450 -0.175450
v -0.118985 0.042350 -0.175450
v -0.120526 0.042350 -0.180190
v -0.124558 0.054450 -0.183120
vn 0.587900 -0.000000 -0.809000
v -0.124558 0.042350 -0.183120
v -0.129542 0.054450 -0.183120
v -0.129542 0.042350 -0.183120
v -0.133574 0.054450 -0.180190
vn -0.587900 -0.000000 -0.809000
v -0.133574 0.042350 -0.180190
v -0.135115 0.054450 -0.175450
vn -0.951000 -0.000000 -0.309200
v -0.135115 0.042350 -0.175450
v -0.133574 0.054450 -0.170710
vn -0.951000 -0.000000 0.309200
v -0.133574 0.042350 -0.170710
v -0.129542 0.054450 -0.167780
vn -0.587900 -0.000000 0.809000
v -0.129542 0.042350 -0.167780
v -0.124558 0.054450 -0.167780
v -0.124558 0.042350 -0.167780
v -0.120526 0.054450 -0.170710
vn 0.587900 -0.000000 0.809000
v -0.120526 0.042350 -0.170710
v 0.133574 0.054450 -0.180190
v 0.135115 0.054450 -0.175450
v 0.135115 0.042350 -0.175450
v 0.133574 0.042350 -0.180190
v 0.129542 0.054450 -0.183120
v 0.129542 0.042350 -0.183120
v 0.124558 0.054450 -0.183120
v 0.124558 0.042350 -0.183120
v 0.120526 0.054450 -0.180190
v 0.120526 0.042350 -0.180190
v 0.118985 0.054450 -0.175450
v 0.118985 0.042350 -0.175450
v 0.120526 0.054450 -0.170710
v 0.120526 0.042350 -0.170710
v 0.124558 0.054450 -0.167780
v 0.124558 0.042350 -0.167780
v 0.129542 0.054450 -0.167780
v 0.129542 0.042350 -0.167780
v 0.133574 0.054450 -0.170710
v 0.133574 0.042350 -0.170710
v -0.120526 0.054450 0.170710
v -0.118985 0.054450 0.175450
v -0.118985 0.042350 0.175450
v -0.120526 0.042350 0.170710
v -0.124558 0.054450 0.167780
v -0.124558 0.042350 0.167780
v -0.129542 0.054450 0.167780
v -0.129542 0.042350 0.167780
v -0.133574 0.054450 0.170710
v -0.133574 0.042350 0.170710
v -0.135115 0.054450 0.175450
v -0.135115 0.042350 0.175450
v -0.133574 0.054450 0.180190
v -0.133574 0.042350 0.180190
v -0.129542 0.054450 0.183120
v -0.129542 0.042350 0.183120
v -0.124558 0.054450 0.183120
v -0.124558 0.042350 0.183120
v -0.120526 0.054450 0.180190
v -0.120526 0.042350 0.180190
v 0.133574 0.054450 0.170710
v 0.135115 0.054450 0.175450
v 0.135115 0.042350 0.175450
v 0.133574 0.042350 0.170710
v 0.129542 0.054450 0.167780
v 0.129542 0.042350 0.167780
v 0.124558 0.054450 0.167780
v 0.124558 0.042350 0.167780
v 0.120526 0.054450 0.170710
v 0.120526 0.042350 0.170710
v 0.118985 0.054450 0.175450
v 0.118985 0.042350 0.175450
v 0.120526 0.054450 0.180190
v 0.120526 0.042350 0.180190
v 0.124558 0.054450 0.183120
v 0.124558 0.042350 0.183120
v 0.129542 0.054450 0.183120
v 0.129542 0.042350 0.183120
v 0.133574 0.054450 0.180190
v 0.133574 0.042350 0.180190
vn 0.951000 -0.000000 0.309200
v -0.151250 0.018150 0.151250
vt 0.500198 0.505327
v 0.151250 0.018150 0.151250
vt 1.000000 0.505327
v 0.151250 0.369050 0.151249
vt 1.000000 0.958432
v -0.151250 0.369050 0.151249
vt 0.500198 0.958432
v 0.151250 0.018150 -0.151250
v 0.151250 0.369050 -0.151251
v -0.151250 0.018150 -0.151250
v -0.151250 0.369050 -0.151251
v -0.130075 0.393250 0.130074
vt 0.601336 0.585927
v 0.130075 0.393250 0.130074
vt 0.900388 0.585927
v 0.130075 0.393250 -0.130075
vt 0.900388 0.884979
v -0.130075 0.393250 -0.130075
vt 0.601336 0.884979
vt 0.500355 0.951937
vn -0.000000 0.447200 0.894400
vt 0.998965 0.954578
v 0.145200 0.381150 0.145199
vt 0.995487 0.924293
vn -0.000000 0.562900 0.826500
v -0.145200 0.381150 0.145199
vt 0.506621 0.926249
vn -0.000000 0.563000 0.826500
vt 0.978358 0.945309
vn -0.000000 0.780900 0.624700
vt 0.524395 0.942869
vt 0.500336 0.951923
vn 0.894400 0.447200 -0.000000
vt 0.998907 0.954611
v 0.145200 0.381150 -0.145201
vt 0.995423 0.924347
vn 0.826500 0.562900 -0.000000
vt 0.506699 0.926265
vt 0.506663 0.926235
vn 0.624700 0.780900 -0.000000
vt 0.978332 0.945286
vt 0.524395 0.942771
vn -0.000000 0.447200 -0.894400
vt 0.500355 0.951938
v -0.145200 0.381150 -0.145201
vt 0.506621 0.926252
vn -0.000000 0.562900 -0.826500
vt 0.995487 0.924295
vn -0.000000 0.563000 -0.826500
vt 0.524574 0.942870
vn -0.000000 0.780900 -0.624700
vt 0.978358 0.945311
vn -0.894400 0.447200 -0.000000
vn -0.826500 0.562900 -0.000000
vn -0.826500 0.563000 -0.000000
vt 0.524396 0.942771
vn -0.624700 0.780900 -0.000000
vt 0.978332 0.945285
v -0.111925 0.090448 0.166375
vt 0.692158 0.718517
v -0.111925 0.090448 0.151250
vt 0.862272 0.718517
v 0.111925 0.090448 0.151250
vt 0.859930 0.836566
v 0.111925 0.090448 0.166375
vt 0.689817 0.836566
v -0.111925 0.314298 0.166374
v 0.111925 0.314298 0.166374
v 0.111925 0.314298 0.151249
v -0.111925 0.314298 0.151249
vt 0.498347 0.000000
vt 0.498347 0.500171
vt 0.000000 0.500171
v 0.027225 0.420172 0.047154
vt 0.177506 0.503805
v -0.000000 0.420172 0.054449
vt 0.126199 0.503805
v -0.027225 0.420172 0.047154
vt 0.115225 0.503805
v -0.047155 0.420172 0.027224
vt 0.147525 0.503805
v -0.054450 0.420172 -0.000001
vt 0.214444 0.503805
v -0.047155 0.420172 -0.027226
vt 0.298050 0.503805
v -0.027225 0.420172 -0.047156
vt 0.375942 0.503805
v -0.000000 0.420172 -0.054451
vt 0.427249 0.503805
v 0.027225 0.420172 -0.047156
vt 0.438223 0.503805
v 0.047155 0.420172 -0.027226
vt 0.405923 0.503805
v 0.054450 0.420172 -0.000001
vt 0.373623 0.503805
v 0.047155 0.420172 0.027224
vt 0.255398 0.503805
v 0.047155 0.689700 -0.027226
vt 0.405923 1.000000
v 0.054450 0.689700 -0.000001
vt 0.373623 1.000000
vt 0.219423 0.877242
vt 0.190959 0.905706
v 0.027225 0.689700 -0.047156
vt 0.050626 0.503805
vt 0.082926 0.503805
v -0.000000 0.689700 -0.054451
vt 0.082925 1.000000
vn 0.000100 -0.000000 -1.000000
vt 0.050626 1.000000
vt 0.082925 0.503805
vn -0.500000 -0.000000 -0.866000
v -0.027225 0.689700 -0.047156
vt 0.115225 1.000000
vn -0.000100 -0.000000 -1.000000
v -0.047155 0.689700 -0.027226
vt 0.147525 1.000000
vt 0.179825 0.503805
v -0.054450 0.689700 -0.000001
vt 0.179825 1.000000
vt 0.212124 0.503805
v -0.047155 0.689700 0.027224
vt 0.212124 1.000000
vt 0.244424 0.503805
vn -0.500000 -0.000000 0.866000
v -0.027225 0.689700 0.047154
vt 0.244424 1.000000
vt 0.276724 0.503805
v -0.000000 0.689700 0.054449
vt 0.276724 1.000000
vt 0.309024 0.503805
vn 0.500000 -0.000000 0.866000
v 0.027225 0.689700 0.047154
vt 0.309024 1.000000
vt 0.341323 0.503805
v 0.047155 0.689700 0.027224
vt 0.341323 1.000000
vt 0.229842 0.838359
vt 0.152076 0.916124
vt 0.113194 0.905706
vt 0.084730 0.877242
vt 0.074311 0.838359
vt 0.084730 0.799477
vt 0.113194 0.771013
vt 0.152076 0.760594
vt 0.190959 0.771013
vt 0.219423 0.799477
vt 0.154427 0.924774
v 0.066550 0.689700 -0.009076
vt 0.139826 0.944241
v 0.052019 0.689700 -0.009076
vt 0.139826 0.920862
v -0.090750 0.441650 0.009074
vt 0.283141 1.000000
vn -0.763800 0.645500 -0.000000
v -0.090750 0.441650 -0.009076
vt 0.237258 1.000000
v -0.108900 0.420172 -0.009076
vt 0.237258 0.506849
v -0.108900 0.420172 0.009074
vt 0.283141 0.506849
v -0.066550 0.689700 0.009074
vn -0.995300 0.097100 -0.000000
v -0.066550 0.689700 -0.009076
vt 0.488967 0.553445
vt 0.494749 0.498130
v -0.052019 0.420172 0.009074
vt 0.440344 0.498130
v -0.052019 0.441650 0.009074
vt 0.440344 0.553445
v -0.052019 0.689700 0.009074
vt 0.440344 0.994848
vt 0.488532 0.994848
v 0.090750 0.441650 -0.009076
vn 0.763800 0.645500 -0.000000
v 0.090750 0.441650 0.009074
v 0.108900 0.420172 0.009074
v 0.108900 0.420172 -0.009076
vn 0.995300 0.097100 -0.000000
v 0.066550 0.689700 0.009074
vt 0.006581 0.553445
vt 0.000798 0.498130
v 0.052019 0.420172 -0.009076
vt 0.055204 0.498130
v 0.052019 0.441650 -0.009076
vt 0.055204 0.553445
vt 0.055204 0.994848
vt 0.007016 0.994848
vt 0.153259 0.765840
v -0.015125 0.689700 -0.066551
vt 0.171694 0.751092
v -0.015125 0.689700 -0.050398
vt 0.171694 0.770780
v 0.015125 0.438323 0.066549
vn -0.000000 0.554700 0.832100
v -0.015125 0.438323 0.066549
v -0.015125 0.420172 0.078649
v 0.015125 0.420172 0.078649
v 0.015125 0.689700 0.066549
v -0.015125 0.689700 0.066549
v 0.015125 0.420172 -0.050398
vt 0.058277 0.505827
v 0.015125 0.420172 -0.078651
vt 0.006804 0.505827
v 0.015125 0.438323 -0.066551
vt 0.008428 0.551118
v 0.015125 0.438323 -0.050398
vt 0.058277 0.551118
v 0.015125 0.689700 -0.050398
vt 0.058277 0.999500
v 0.015125 0.689700 -0.066551
vt 0.008428 0.999500
v -0.015125 0.438323 -0.066551
vn -0.000000 0.554700 -0.832100
v -0.015125 0.420172 -0.078651
v -0.015125 0.420172 -0.050398
v -0.015125 0.438323 -0.050398
vt 0.058277 0.999501
vt 0.008428 0.999501
v 0.052019 0.441650 0.009074
v 0.052019 0.420172 0.009074
v -0.052019 0.441650 -0.009076
v -0.052019 0.420172 -0.009076
v 0.015125 0.420172 0.050396
vt 0.441178 0.505827
v 0.015125 0.438323 0.050396
vt 0.441178 0.551118
vt 0.491028 0.551118
vt 0.492651 0.505827
v -0.015125 0.438323 0.050396
v -0.015125 0.420172 0.050396
vt 0.169027 0.730102
vt 0.169027 0.753482
v -0.052305 0.689700 0.008006
vt 0.167308 0.753021
vt 0.154427 0.749570
v -0.052019 0.689700 -0.009076
vt 0.491028 0.999500
v 0.015125 0.689700 0.050396
vt 0.441178 0.999500
vt 0.134824 0.913319
vt 0.134824 0.893631
vt 0.153259 0.898571
vt 0.491028 0.999501
v -0.015125 0.689700 0.050396
vt 0.441178 0.999501
v 0.052019 0.689700 0.009074
vt 0.169027 0.920862
vt 0.169027 0.944241
vt 0.134824 0.770780
vt 0.134824 0.751092
vt 0.139826 0.730102
vt 0.139826 0.753482
v -0.013171 0.689700 0.050920
vt 0.169312 0.894269
vt 0.171694 0.893631
vt 0.171694 0.913319
v -0.072600 0.436810 0.040540
vt 0.286266 0.807357
vn -0.000000 -0.866000 -0.500000
v -0.048400 0.436810 0.040540
vt 0.335091 0.807783
v -0.048400 0.432273 0.048399
vt 0.335518 0.758909
v -0.072600 0.432273 0.048399
vt 0.286693 0.758483
vt 0.337651 0.514539
vt 0.288825 0.514113
v -0.072600 0.445885 0.040540
vt 0.288399 0.562987
vn -0.000000 0.500000 -0.866000
v -0.048400 0.445885 0.040540
vt 0.337224 0.563413
v -0.072600 0.450422 0.048399
vt 0.287972 0.611861
v -0.048400 0.450422 0.048399
vt 0.336798 0.612287
v -0.072600 0.445885 0.056258
vt 0.287546 0.660735
vn -0.000000 0.500000 0.866000
v -0.048400 0.445885 0.056258
vt 0.336371 0.661161
v -0.072600 0.436810 0.056258
vt 0.287119 0.709609
vn -0.000000 -0.500000 0.866000
v -0.048400 0.436810 0.056258
vt 0.335944 0.710035
vt 0.364145 0.793565
vt 0.339120 0.839141
vt 0.364145 0.884716
vt 0.414195 0.884716
vt 0.439220 0.839141
vt 0.414195 0.793565
v 0.072600 0.436810 0.040540
v 0.072600 0.445885 0.040540
v 0.072600 0.450422 0.048399
v 0.072600 0.445885 0.056258
v 0.072600 0.436810 0.056258
v 0.072600 0.432273 0.048399
vt 0.286603 0.758346
vt 0.287029 0.709472
v 0.048400 0.436810 0.056258
vt 0.335854 0.709898
v 0.048400 0.432273 0.048399
vt 0.335428 0.758772
v 0.048400 0.436810 0.040540
vt 0.335001 0.807647
vt 0.286176 0.807220
vt 0.288309 0.562850
vt 0.288735 0.513976
vt 0.337560 0.514402
v 0.048400 0.445885 0.040540
vt 0.337134 0.563276
v 0.048400 0.450422 0.048399
vt 0.336707 0.612150
vt 0.287882 0.611724
vt 0.287456 0.660598
v 0.048400 0.445885 0.056258
vt 0.336281 0.661024
v -0.027225 0.423602 0.047154
vt 0.184137 0.851110
vn -0.000000 -0.951000 -0.309300
v -0.022579 0.423197 0.048399
vt 0.178421 0.847688
vn 0.000100 -0.965800 0.259100
v -0.048400 0.423197 0.048399
vt 0.210188 0.847688
v -0.048400 0.426664 0.037730
vt 0.210188 0.877014
vn -0.000000 -0.809000 -0.587800
v -0.036648 0.426664 0.037730
vt 0.195730 0.877014
vn -0.000000 -0.875400 -0.483300
v -0.048400 0.435739 0.031137
vt 0.210188 0.906339
vn -0.000000 -0.309000 -0.951100
v -0.043242 0.435739 0.031137
vt 0.203842 0.906339
vn -0.000000 -0.353300 -0.935500
v -0.048400 0.446956 0.031137
vt 0.210188 0.935665
v -0.043242 0.446956 0.031137
vt 0.203842 0.935665
vt 0.203842 0.642410
vn -0.000000 0.587800 -0.809000
vt 0.210188 0.642410
v -0.048400 0.456031 0.037730
vt 0.210188 0.671735
vn -0.000000 0.809000 -0.587800
v -0.036648 0.456031 0.037730
vt 0.195730 0.671735
vn -0.000000 0.875500 -0.483300
v -0.048400 0.459497 0.048399
vt 0.210188 0.701061
v -0.022579 0.459497 0.048399
vt 0.178421 0.701061
vn -0.000000 0.965900 0.258900
v -0.027225 0.459093 0.047154
vt 0.184137 0.697639
vn -0.000000 0.951000 -0.309000
v -0.048400 0.456031 0.059068
vt 0.210188 0.730386
vn -0.000000 0.809000 0.587800
v -0.015125 0.456031 0.059068
vt 0.169250 0.730386
v -0.015125 0.457063 0.055893
vt 0.169250 0.721659
vn -0.000000 0.951100 0.309000
v -0.015125 0.458848 0.050396
vt 0.169250 0.706551
vn -0.000000 0.951100 0.308800
v 0.048400 0.446956 0.065661
vt 0.091097 0.759712
vn -0.000000 0.309000 0.951100
v 0.048400 0.456031 0.059068
vt 0.091097 0.730386
v 0.015125 0.456031 0.059068
vt 0.132035 0.730386
v 0.015125 0.446956 0.065661
vt 0.132035 0.759712
v 0.015125 0.435739 0.065661
vt 0.132035 0.789037
vn -0.000000 -0.309700 0.950800
v 0.048400 0.435739 0.065661
vt 0.091097 0.789037
vn -0.000000 -0.309000 0.951100
v 0.015125 0.426664 0.059068
vt 0.132035 0.818363
vn -0.000000 -0.809000 0.587800
v 0.048400 0.426664 0.059068
vt 0.091097 0.818363
v 0.015125 0.435600 0.065560
vt 0.132035 0.789486
vn -0.000000 -0.588400 0.808600
v -0.015125 0.425632 0.055892
vt 0.169250 0.827091
vn -0.000000 -0.951100 0.309000
v -0.015125 0.426664 0.059068
vt 0.169250 0.818363
v -0.048400 0.426664 0.059068
vt 0.210188 0.818363
v -0.015125 0.423847 0.050396
vt 0.169250 0.842198
v -0.048400 0.435739 0.065661
vt 0.161636 0.796197
v -0.048400 0.446956 0.065661
vt 0.116504 0.796197
vt 0.079991 0.824090
vt 0.066044 0.869222
vt 0.079991 0.914355
vt 0.116504 0.942248
vt 0.161636 0.942248
vt 0.198149 0.914355
vt 0.212096 0.869222
vt 0.198149 0.824090
v 0.048400 0.426664 0.037730
v 0.048400 0.435739 0.031137
v 0.048400 0.446956 0.031137
v 0.048400 0.456031 0.037730
v 0.048400 0.459497 0.048399
v 0.048400 0.423197 0.048399
v -0.072600 0.666710 0.040540
v -0.048400 0.666710 0.040540
vn -0.000000 -0.866000 -0.500100
v -0.048400 0.662172 0.048399
v -0.072600 0.662172 0.048399
v -0.072600 0.675785 0.040540
v -0.048400 0.675785 0.040540
v -0.072600 0.680323 0.048399
v -0.048400 0.680323 0.048399
v -0.072600 0.675785 0.056258
v -0.048400 0.675785 0.056258
v -0.072600 0.666710 0.056258
v -0.048400 0.666710 0.056258
v 0.072600 0.666710 0.040540
v 0.072600 0.675785 0.040540
v 0.072600 0.680323 0.048399
v 0.072600 0.675785 0.056258
v 0.072600 0.666710 0.056258
v 0.072600 0.662172 0.048399
v 0.048400 0.666710 0.056258
v 0.048400 0.662172 0.048399
v 0.048400 0.666710 0.040540
v 0.048400 0.675785 0.040540
v 0.048400 0.680323 0.048399
v 0.048400 0.675785 0.056258
v -0.027225 0.653502 0.047154
vt 0.184137 0.851111
vn -0.000000 -0.951200 -0.308700
v -0.022579 0.653098 0.048399
vn -0.000000 -0.965900 0.259000
v -0.048400 0.653098 0.048399
v -0.048400 0.656564 0.037730
v -0.036648 0.656564 0.037730
vn -0.000000 -0.875500 -0.483300
v -0.048400 0.665639 0.031137
v -0.043242 0.665639 0.031137
v -0.048400 0.676856 0.031137
v -0.043242 0.676856 0.031137
v -0.048400 0.685931 0.037730
v -0.036648 0.685931 0.037730
vn -0.000000 0.875400 -0.483300
v -0.048400 0.689398 0.048399
v -0.022579 0.689398 0.048399
vn -0.000000 0.965900 0.259000
v -0.027225 0.688993 0.047154
vn -0.000000 0.951200 -0.308700
v -0.048400 0.685931 0.059068
v -0.015125 0.685931 0.059068
v -0.015125 0.686963 0.055892
v -0.015125 0.688749 0.050396
vn -0.000000 0.951000 0.309000
v 0.048400 0.676856 0.065661
v 0.048400 0.685931 0.059068
v 0.015125 0.685931 0.059068
v 0.015125 0.676856 0.065661
v 0.015125 0.665639 0.065661
v 0.048400 0.665639 0.065661
v 0.048400 0.656564 0.059068
v 0.015125 0.656564 0.059068
v -0.015125 0.655532 0.055892
v -0.015125 0.656564 0.059068
v -0.048400 0.656564 0.059068
v -0.015125 0.653747 0.050396
vn -0.000000 -0.951100 0.308900
v -0.048400 0.665639 0.065661
v -0.048400 0.676856 0.065661
v 0.048400 0.656564 0.037730
v 0.048400 0.665639 0.031137
v 0.048400 0.676856 0.031137
v 0.048400 0.685931 0.037730
v 0.048400 0.689398 0.048399
v 0.048400 0.653098 0.048399
v -0.072600 0.436810 -0.056260
v -0.048400 0.436810 -0.056260
v -0.048400 0.432273 -0.048401
v -0.072600 0.432273 -0.048401
v -0.072600 0.445885 -0.056260
v -0.048400 0.445885 -0.056260
v -0.072600 0.450422 -0.048401
v -0.048400 0.450422 -0.048401
v -0.072600 0.445885 -0.040542
v -0.048400 0.445885 -0.040542
v -0.072600 0.436810 -0.040542
v -0.048400 0.436810 -0.040542
v 0.072600 0.436810 -0.056260
v 0.072600 0.445885 -0.056260
v 0.072600 0.450422 -0.048401
v 0.072600 0.445885 -0.040542
v 0.072600 0.436810 -0.040542
v 0.072600 0.432273 -0.048401
v 0.048400 0.436810 -0.040542
v 0.048400 0.432273 -0.048401
v 0.048400 0.436810 -0.056260
v 0.048400 0.445885 -0.056260
v 0.048400 0.450422 -0.048401
v 0.048400 0.445885 -0.040542
v 0.015125 0.425632 -0.055895
vt 0.132035 0.868286
vn -0.000000 -0.951100 -0.309000
v 0.015125 0.426664 -0.059070
vt 0.132035 0.877014
v 0.048400 0.426664 -0.059070
vt 0.091097 0.877014
v 0.048400 0.423197 -0.048401
vt 0.091097 0.847688
v 0.022579 0.423197 -0.048401
vt 0.122864 0.847688
vn -0.000100 -0.965800 -0.259100
v 0.015125 0.423847 -0.050398
vt 0.132035 0.853179
vn -0.000000 -0.951100 -0.308900
v 0.015125 0.435600 -0.065562
vt 0.132035 0.905891
vn -0.000000 -0.587500 -0.809200
v 0.015125 0.435739 -0.065663
vt 0.132035 0.906339
v 0.048400 0.435739 -0.065663
vt 0.091097 0.906339
v 0.048400 0.446956 -0.065663
vt 0.091097 0.935665
v 0.015125 0.446956 -0.065663
vt 0.132035 0.935665
vt 0.132035 0.642410
v 0.015125 0.456031 -0.059070
vt 0.132035 0.671735
v 0.048400 0.456031 -0.059070
vt 0.091097 0.671735
vt 0.091097 0.642410
v 0.022579 0.459497 -0.048401
vt 0.122864 0.701061
vn -0.000000 0.965900 -0.258900
v 0.048400 0.459497 -0.048401
vt 0.091097 0.701061
v 0.015125 0.457063 -0.055894
vt 0.132035 0.680463
vn -0.000000 0.951100 -0.309000
v 0.015125 0.458848 -0.050398
vt 0.132035 0.695571
vn -0.000000 0.951100 -0.308900
v 0.036648 0.456031 -0.037732
vt 0.105555 0.730386
vn -0.000000 0.875500 0.483300
v 0.048400 0.456031 -0.037732
v 0.027225 0.459093 -0.047156
vt 0.117148 0.704483
vn -0.000000 0.951200 0.308700
v 0.043242 0.446956 -0.031139
vt 0.097443 0.759712
vn -0.000000 0.353300 0.935500
v 0.048400 0.446956 -0.031139
v 0.048400 0.435739 -0.031139
v 0.043242 0.435739 -0.031139
vt 0.097443 0.789037
vn -0.000000 -0.353300 0.935500
v 0.036648 0.426664 -0.037732
vt 0.105555 0.818363
vn -0.000000 -0.875400 0.483300
v 0.048400 0.426664 -0.037732
v 0.027225 0.423602 -0.047156
vt 0.117148 0.844266
vn -0.000000 -0.951000 0.309300
v -0.048400 0.435739 -0.031139
v -0.048400 0.446956 -0.031139
v -0.048400 0.456031 -0.037732
v -0.048400 0.459497 -0.048401
v -0.048400 0.456031 -0.059070
v -0.048400 0.446956 -0.065663
v -0.048400 0.435739 -0.065663
v -0.048400 0.426664 -0.059070
v -0.048400 0.423197 -0.048401
v -0.048400 0.426664 -0.037732
v -0.072600 0.666710 -0.056260
v -0.048400 0.666710 -0.056260
v -0.048400 0.662172 -0.048401
v -0.072600 0.662172 -0.048401
v -0.072600 0.675785 -0.056260
v -0.048400 0.675785 -0.056260
v -0.072600 0.680323 -0.048401
v -0.048400 0.680323 -0.048401
v -0.072600 0.675785 -0.040542
v -0.048400 0.675785 -0.040542
v -0.072600 0.666710 -0.040542
v -0.048400 0.666710 -0.040542
v 0.072600 0.666710 -0.056260
v 0.072600 0.675785 -0.056260
v 0.072600 0.680323 -0.048401
v 0.072600 0.675785 -0.040542
v 0.072600 0.666710 -0.040542
v 0.072600 0.662172 -0.048401
v 0.048400 0.666710 -0.040542
v 0.048400 0.662172 -0.048401
v 0.048400 0.666710 -0.056260
v 0.048400 0.675785 -0.056260
v 0.048400 0.680323 -0.048401
v 0.048400 0.675785 -0.040542
v 0.015125 0.655532 -0.055894
v 0.015125 0.656564 -0.059070
v 0.048400 0.656564 -0.059070
v 0.048400 0.653098 -0.048401
v 0.022579 0.653098 -0.048401
vn -0.000000 -0.965900 -0.259000
v 0.015125 0.653747 -0.050398
v 0.048400 0.665639 -0.065663
v 0.015125 0.665639 -0.065663
v 0.015125 0.676856 -0.065663
v 0.048400 0.676856 -0.065663
v 0.048400 0.685931 -0.059070
v 0.015125 0.685931 -0.059070
v 0.022579 0.689398 -0.048401
vn -0.000000 0.965900 -0.259000
v 0.048400 0.689398 -0.048401
v 0.015125 0.686963 -0.055894
v 0.015125 0.688749 -0.050398
v 0.036648 0.685931 -0.037732
vn -0.000000 0.875400 0.483300
v 0.048400 0.685931 -0.037732
v 0.027225 0.688993 -0.047156
v 0.043242 0.676856 -0.031139
v 0.048400 0.676856 -0.031139
v 0.048400 0.665639 -0.031139
v 0.043242 0.665639 -0.031139
v 0.036648 0.656564 -0.037732
vn -0.000000 -0.875500 0.483300
v 0.048400 0.656564 -0.037732
v 0.027225 0.653502 -0.047156
vn -0.000000 -0.951200 0.308700
v -0.048400 0.665639 -0.031139
v -0.048400 0.676856 -0.031139
v -0.048400 0.685931 -0.037732
v -0.048400 0.689398 -0.048401
v -0.048400 0.685931 -0.059070
v -0.048400 0.676856 -0.065663
v -0.048400 0.665639 -0.065663
v -0.048400 0.656564 -0.059070
v -0.048400 0.653098 -0.048401
v -0.048400 0.656564 -0.037732
vt 0.210188 0.759712
v -0.043242 0.446956 -0.031139
vt 0.203842 0.759712
v -0.036648 0.456031 -0.037732
vt 0.195730 0.730386
v -0.024074 0.459367 -0.048000
vt 0.180259 0.702162
vn -0.000000 0.951200 0.308500
v -0.022579 0.459497 -0.048401
v -0.027225 0.459093 -0.047156
vt 0.184137 0.704483
vn -0.000000 0.951000 0.309300
v -0.043242 0.435739 -0.031139
vt 0.203842 0.789037
vt 0.210188 0.789037
v -0.036648 0.426664 -0.037732
vt 0.195730 0.818363
v -0.022579 0.423197 -0.048401
vn -0.000000 -0.965900 -0.258800
v -0.024074 0.423328 -0.048000
vt 0.180259 0.846588
v -0.027225 0.423602 -0.047156
vt 0.184137 0.844266
v -0.028065 0.423875 -0.046316
vt 0.185171 0.841956
vn -0.000200 -0.951200 0.308700
v -0.043242 0.676856 -0.031139
v -0.036648 0.685931 -0.037732
v -0.024074 0.689267 -0.048000
vn -0.000000 0.951100 0.308900
v -0.022579 0.689398 -0.048401
vn -0.000000 0.965900 -0.258800
v -0.027225 0.688993 -0.047156
v -0.043242 0.665639 -0.031139
v -0.036648 0.656564 -0.037732
v -0.022579 0.653098 -0.048401
v -0.024074 0.653228 -0.048000
vn -0.000000 -0.951100 0.308800
v -0.027225 0.653502 -0.047156
v -0.028065 0.653775 -0.046316
v -0.015125 0.426664 -0.059070
vt 0.169250 0.877014
vn -0.000000 -0.809000 -0.587900
v -0.015125 0.426123 -0.057406
vt 0.169250 0.872442
v -0.015125 0.425632 -0.055894
vt 0.169250 0.868286
v -0.015125 0.423847 -0.050398
vt 0.169250 0.853179
vn 0.000100 -0.951100 -0.308900
v -0.015125 0.656564 -0.059070
vn -0.000000 -0.808900 -0.588000
v -0.015125 0.656024 -0.057406
v -0.015125 0.655532 -0.055894
vn -0.000000 -0.951000 -0.309100
v -0.015125 0.653747 -0.050398
v -0.015125 0.685931 -0.059070
vt 0.169250 0.671735
v -0.015125 0.686963 -0.055894
vt 0.169250 0.680463
v -0.015125 0.688749 -0.050398
vt 0.169250 0.695571
v -0.000000 0.687432 -0.054451
vt 0.150643 0.684430
vn -0.000000 0.951000 -0.309100
v -0.015125 0.458848 -0.050398
v -0.015125 0.457063 -0.055894
v -0.015125 0.456572 -0.057406
vt 0.169250 0.676307
v -0.015125 0.456031 -0.059070
vn -0.000000 0.809000 -0.587900
v 0.022579 0.423197 0.048399
vn -0.000000 -0.965900 0.258800
v 0.024074 0.423328 0.047998
vt 0.121026 0.848789
v 0.027225 0.423602 0.047154
vt 0.117148 0.851110
v 0.028065 0.423875 0.046314
vt 0.116114 0.853421
vn 0.000200 -0.951200 -0.308700
v 0.036648 0.426664 0.037730
vt 0.105555 0.877014
v 0.043242 0.435739 0.031137
vt 0.097443 0.906339
v 0.043242 0.446956 0.031137
vt 0.097443 0.935665
vt 0.097443 0.642410
v 0.036648 0.456031 0.037730
vt 0.105555 0.671735
v 0.024074 0.459367 0.047998
vt 0.121026 0.699960
vn -0.000000 0.951200 -0.308500
v 0.022579 0.459497 0.048399
v 0.027225 0.459093 0.047154
vt 0.117148 0.697639
vn -0.000000 0.951000 -0.309300
v 0.022579 0.653098 0.048399
v 0.024074 0.653228 0.047998
vn -0.000000 -0.951100 -0.308800
v 0.027225 0.653502 0.047154
vt 0.117148 0.851111
v 0.028065 0.653775 0.046314
v 0.036648 0.656564 0.037730
v 0.043242 0.665639 0.031137
v 0.043242 0.676856 0.031137
v 0.036648 0.685931 0.037730
v 0.024074 0.689267 0.047998
v 0.022579 0.689398 0.048399
vn -0.000000 0.965900 0.258800
v 0.027225 0.688993 0.047154
v 0.015125 0.457063 0.055892
vt 0.132035 0.721659
v 0.015125 0.458848 0.050396
vt 0.132035 0.706551
v -0.000000 0.457532 0.054449
vt 0.150643 0.717691
v 0.015125 0.425632 0.055892
vt 0.132035 0.827091
v 0.015125 0.423847 0.050396
vt 0.132035 0.842198
vn -0.000100 -0.951100 0.308900
v 0.015125 0.686963 0.055892
v 0.015125 0.688749 0.050396
v -0.000000 0.687432 0.054449
vn -0.000000 0.951000 0.309100
v 0.015125 0.655532 0.055892
v 0.015125 0.653747 0.050396
v -0.000000 0.425163 -0.054451
vt 0.150643 0.864319
v -0.015125 0.435666 -0.065610
vt 0.169250 0.906104
vn -0.000000 -0.587700 -0.809100
v -0.015125 0.435739 -0.065663
vt 0.169250 0.906339
vn -0.000000 -0.309300 -0.951000
v -0.015125 0.435600 -0.065562
vt 0.169250 0.905891
vn -0.000000 -0.587400 -0.809300
v -0.015125 0.446956 -0.065663
vt 0.169250 0.935665
v -0.000000 0.655063 -0.054451
vn -0.000000 -0.951000 -0.309200
v -0.015125 0.676856 -0.065663
v -0.015125 0.665639 -0.065663
vt 0.169250 0.642410
v -0.000000 0.457532 -0.054451
v -0.015125 0.435666 0.065608
vt 0.169250 0.789272
vn -0.000000 -0.589100 0.808000
v -0.015125 0.435739 0.065661
vt 0.169250 0.789037
vn -0.000000 -0.311200 0.950400
v -0.015125 0.435600 0.065560
vt 0.169250 0.789486
vn -0.000000 -0.587300 0.809400
v -0.000000 0.425163 0.054449
vt 0.150643 0.831058
v -0.015125 0.446956 0.065661
vt 0.169250 0.759712
v -0.015125 0.665639 0.065661
v -0.015125 0.676856 0.065661
v -0.000000 0.655063 0.054449
v 0.094249 0.455469 -0.092466
vt 0.377880 0.889257
vn 0.809000 -0.000000 -0.587800
v 0.095790 0.455469 -0.087726
vt 0.370893 0.889257
v 0.095790 0.443369 -0.087726
vt 0.370893 0.842681
v 0.094249 0.443369 -0.092466
vt 0.377880 0.842681
v 0.090217 0.455469 -0.095396
vt 0.384866 0.889257
vn 0.309100 -0.000000 -0.951000
v 0.090217 0.443369 -0.095396
vt 0.384866 0.842681
v 0.085233 0.455469 -0.095396
vt 0.391852 0.889257
v 0.085233 0.443369 -0.095396
vt 0.391852 0.842681
v 0.081201 0.455469 -0.092466
vt 0.328975 0.889257
vn -0.809000 -0.000000 -0.587800
vt 0.321989 0.889257
vt 0.321989 0.842681
v 0.081201 0.443369 -0.092466
vt 0.328975 0.842681
v 0.079660 0.455469 -0.087726
vt 0.335961 0.889257
v 0.079660 0.443369 -0.087726
vt 0.335961 0.842681
v 0.081201 0.455469 -0.082986
vt 0.342948 0.889257
vn -0.809000 -0.000000 0.587800
v 0.081201 0.443369 -0.082986
vt 0.342948 0.842681
v 0.085233 0.455469 -0.080056
vt 0.349934 0.889257
vn -0.309100 -0.000000 0.951000
v 0.085233 0.443369 -0.080056
vt 0.349934 0.842681
v 0.090217 0.455469 -0.080056
vt 0.356920 0.889257
vn 0.309100 -0.000000 0.951000
v 0.090217 0.443369 -0.080056
vt 0.356920 0.842681
v 0.094249 0.455469 -0.082986
vt 0.363907 0.889257
vn 0.809000 -0.000000 0.587800
v 0.094249 0.443369 -0.082986
vt 0.363907 0.842681
vt 0.332895 0.882586
vt 0.320205 0.865120
vt 0.320205 0.843531
vt 0.332895 0.826065
vt 0.353427 0.819394
vt 0.373960 0.826065
vt 0.386649 0.843531
vt 0.386649 0.865120
vt 0.373960 0.882586
vt 0.353427 0.889257
v -0.081201 0.455469 -0.092466
v -0.079660 0.455469 -0.087726
v -0.079660 0.443369 -0.087726
v -0.081201 0.443369 -0.092466
v -0.085233 0.455469 -0.095396
v -0.085233 0.443369 -0.095396
v -0.090217 0.455469 -0.095396
v -0.090217 0.443369 -0.095396
v -0.094249 0.455469 -0.092466
v -0.094249 0.443369 -0.092466
v -0.095790 0.455469 -0.087726
v -0.095790 0.443369 -0.087726
v -0.094249 0.455469 -0.082986
v -0.094249 0.443369 -0.082986
v -0.090217 0.455469 -0.080056
v -0.090217 0.443369 -0.080056
v -0.085233 0.455469 -0.080056
v -0.085233 0.443369 -0.080056
v -0.081201 0.455469 -0.082986
v -0.081201 0.443369 -0.082986
v -0.081201 0.455263 0.082984
v -0.079660 0.455263 0.087724
v -0.079660 0.443163 0.087724
v -0.081201 0.443163 0.082984
v -0.085233 0.455263 0.080054
v -0.085233 0.443163 0.080054
v -0.090217 0.455263 0.080054
v -0.090217 0.443163 0.080054
v -0.094249 0.455263 0.082984
v -0.094249 0.443163 0.082984
v -0.095790 0.455263 0.087724
v -0.095790 0.443163 0.087724
v -0.094249 0.455263 0.092464
v -0.094249 0.443163 0.092464
v -0.090217 0.455263 0.095394
v -0.090217 0.443163 0.095394
v -0.085233 0.455263 0.095394
v -0.085233 0.443163 0.095394
v -0.081201 0.455263 0.092464
v -0.081201 0.443163 0.092464
v 0.094249 0.455469 0.082984
v 0.095790 0.455469 0.087724
v 0.095790 0.443369 0.087724
v 0.094249 0.443369 0.082984
v 0.090217 0.455469 0.080054
v 0.090217 0.443369 0.080054
v 0.085233 0.455469 0.080054
v 0.085233 0.443369 0.080054
v 0.081201 0.455469 0.082984
v 0.081201 0.443369 0.082984
v 0.079660 0.455469 0.087724
v 0.079660 0.443369 0.087724
v 0.081201 0.455469 0.092464
v 0.081201 0.443369 0.092464
v 0.085233 0.455469 0.095394
v 0.085233 0.443369 0.095394
v 0.090217 0.455469 0.095394
v 0.090217 0.443369 0.095394
v 0.094249 0.455469 0.092464
v 0.094249 0.443369 0.092464
v 0.102850 0.420172 -0.087726
vt 0.370893 0.819394
v 0.095288 0.420172 -0.100825
vt 0.382537 0.819394
vn 0.500000 -0.000000 -0.866000
v 0.095288 0.443369 -0.100825
vt 0.382537 0.889257
v 0.102850 0.443369 -0.087726
v 0.080162 0.420172 -0.100825
vt 0.394181 0.819394
v 0.080162 0.443369 -0.100825
vt 0.394181 0.889257
vt 0.324317 0.819394
v 0.072600 0.420172 -0.087726
vt 0.335961 0.819394
v 0.072600 0.443369 -0.087726
vt 0.324317 0.889257
v 0.080162 0.420172 -0.074627
vt 0.347605 0.819394
v 0.080162 0.443369 -0.074627
vt 0.347605 0.889257
v 0.095288 0.420172 -0.074627
vt 0.359249 0.819394
v 0.095288 0.443369 -0.074627
vt 0.359249 0.889257
vt 0.383679 0.836860
vt 0.323175 0.836860
vt 0.323175 0.871791
vt 0.383679 0.871791
v 0.102850 0.420275 0.087724
v 0.095288 0.420275 0.074625
v 0.095288 0.443369 0.074625
v 0.102850 0.443369 0.087724
v 0.080162 0.420275 0.074625
v 0.080162 0.443369 0.074625
v 0.072600 0.420275 0.087724
v 0.072600 0.443369 0.087724
v 0.080162 0.420275 0.100823
v 0.080162 0.443369 0.100823
v 0.095288 0.420275 0.100823
v 0.095288 0.443369 0.100823
v -0.072600 0.420070 0.087724
v -0.080162 0.420070 0.074625
v -0.080162 0.443163 0.074625
v -0.072600 0.443163 0.087724
v -0.095288 0.420070 0.074625
v -0.095288 0.443163 0.074625
v -0.102850 0.420070 0.087724
v -0.102850 0.443163 0.087724
v -0.095288 0.420070 0.100823
v -0.095288 0.443163 0.100823
v -0.080162 0.420070 0.100823
v -0.080162 0.443163 0.100823
v -0.072600 0.420172 -0.087726
v -0.080162 0.420172 -0.100825
v -0.080162 0.443369 -0.100825
v -0.072600 0.443369 -0.087726
v -0.095288 0.420172 -0.100825
v -0.095288 0.443369 -0.100825
v -0.102850 0.420172 -0.087726
v -0.102850 0.443369 -0.087726
v -0.095288 0.420172 -0.074627
v -0.095288 0.443369 -0.074627
v -0.080162 0.420172 -0.074627
v -0.080162 0.443369 -0.074627
v 0.117975 0.406863 0.120999
vt 0.440035 1.000000
v -0.117975 0.406863 0.120999
vt 0.288203 1.000000
v -0.117975 0.393250 0.120999
vt 0.288203 0.504625
v 0.117975 0.393250 0.120999
vt 0.440035 0.504625
v 0.117975 0.406863 0.024199
v 0.117975 0.393250 0.024199
v -0.117975 0.406863 0.024199
v -0.117975 0.393250 0.024199
v 0.117975 0.406863 -0.024201
v -0.117975 0.406863 -0.024201
v -0.117975 0.393250 -0.024201
v 0.117975 0.393250 -0.024201
v 0.117975 0.406863 -0.121001
v 0.117975 0.393250 -0.121001
v -0.117975 0.406863 -0.121001
v -0.117975 0.393250 -0.121001
v 0.117975 0.406863 -0.117976
v 0.117975 0.406863 0.117974
v -0.117975 0.406863 0.117974
v -0.117975 0.406863 -0.117976
v 0.117975 0.420172 -0.117976
v -0.117975 0.420172 -0.117976
v -0.117975 0.420172 0.117974
v 0.117975 0.420172 0.117974
v -0.151250 0.018150 0.199650
vt 0.615258 0.578729
v 0.151250 0.018150 0.199650
vt 0.896157 0.578729
v 0.151250 0.018150 -0.199650
vt 0.896157 0.859627
v -0.151250 0.018150 -0.199650
vt 0.615258 0.859627
v -0.151250 0.000000 0.199650
v 0.151250 0.000000 0.199650
vn 0.707100 -0.707100 -0.000000
v 0.151250 -0.000000 -0.199650
v -0.151250 -0.000000 -0.199650
vn -0.707100 -0.707100 -0.000000
vt 0.794261 0.074202
vn -0.000000 0.743800 -0.668400
vt 0.939025 0.073318
vn -0.729900 0.683600 -0.000000
vt 0.794261 0.075389
vn 0.681800 0.731500 -0.000000
vn -0.000000 0.743700 -0.668500
vt 0.997924 0.075978
vn 1.000000 0.000300 -0.000000
vt 0.935169 0.074202
vt 0.997880 0.071684
vt 0.937579 0.499013
f 1/1/1 2/2/1 3/3/2
f 3/3/2 4/4/2 1/1/1
f 3/2/3 5/5/3 4/1/3
f 4/6/4 6/7/4 1/8/4
f 1/2/5 7/9/5 2/1/5
f 8/10/6 9/10/6 10/10/6
f 3/1/7 8/11/8 11/12/7
f 9/10/9 10/10/9 10/10/9
f 12/1/1 13/2/1 14/3/2
f 14/3/2 15/4/2 12/1/1
f 14/2/3 16/5/3 15/1/3
f 10/10/6 17/10/6 8/10/6
f 15/2/4 18/13/4 12/1/4
f 19/10/6 20/10/6 21/10/6
f 12/2/5 22/9/5 13/1/5
f 20/10/9 21/10/9 21/10/9
f 14/14/7 21/15/10 23/16/7
f 21/10/6 24/10/6 19/10/6
f 25/3/6 26/4/6 27/1/6
f 27/1/6 28/2/6 25/3/6
f 29/3/11 30/4/11 31/1/11
f 31/1/11 32/2/11 29/3/11
f 25/3/12 28/4/12 30/1/12
f 30/1/12 29/2/12 25/3/12
f 28/3/4 27/4/4 31/1/4
f 31/1/4 30/2/4 28/3/4
f 27/3/13 26/4/13 32/1/13
f 32/1/13 31/2/13 27/3/13
f 26/3/7 25/4/7 29/1/7
f 29/1/7 32/2/7 26/3/7
f 33/3/6 34/4/6 35/1/6
f 35/1/6 36/2/6 33/3/6
f 37/3/11 38/4/11 39/1/11
f 39/1/11 40/2/11 37/3/11
f 33/3/14 36/4/14 38/1/14
f 38/1/14 37/2/14 33/3/14
f 35/3/15 34/4/15 40/1/15
f 40/1/15 39/2/15 35/3/15
f 41/3/6 42/4/6 43/1/6
f 43/1/6 44/2/6 41/3/6
f 45/3/11 46/4/11 47/1/11
f 47/1/11 48/2/11 45/3/11
f 41/3/16 44/4/16 46/1/16
f 46/1/16 45/2/16 41/3/16
f 43/3/17 42/4/17 48/1/17
f 48/1/17 47/2/17 43/3/17
f 49/3/18 50/4/19 51/1/19
f 51/1/19 52/2/18 49/3/18
f 53/3/11 54/4/11 55/1/11
f 55/1/11 56/2/11 53/3/11
f 49/3/20 52/4/20 54/1/20
f 54/1/20 53/2/20 49/3/20
f 52/3/4 51/4/4 55/1/4
f 55/1/4 54/2/4 52/3/4
f 51/3/21 50/4/21 56/1/21
f 56/1/21 55/2/21 51/3/21
f 50/3/7 49/4/7 53/1/7
f 53/1/7 56/2/7 50/3/7
f 57/3/18 58/4/19 59/1/19
f 59/1/19 60/2/18 57/3/18
f 61/3/11 62/4/11 63/1/11
f 63/1/11 64/2/11 61/3/11
f 57/3/20 60/4/20 62/1/20
f 62/1/20 61/2/20 57/3/20
f 60/3/4 59/4/4 63/1/4
f 63/1/4 62/2/4 60/3/4
f 59/3/21 58/4/21 64/1/21
f 64/1/21 63/2/21 59/3/21
f 58/3/7 57/4/7 61/1/7
f 61/1/7 64/2/7 58/3/7
f 65/3/22 66/4/22 67/1/22
f 67/1/22 68/2/22 65/3/22
f 66/3/23 69/4/23 70/1/23
f 70/1/23 67/2/23 66/3/23
f 69/3/24 71/4/24 72/1/24
f 72/1/24 70/2/24 69/3/24
f 71/3/25 73/4/25 74/1/25
f 74/1/25 72/2/25 71/3/25
f 73/3/26 75/4/26 76/1/26
f 76/1/26 74/2/26 73/3/26
f 75/3/27 77/4/27 78/1/27
f 78/1/27 76/2/27 75/3/27
f 77/3/28 79/4/28 80/1/28
f 80/1/28 78/2/28 77/3/28
f 79/3/29 81/4/29 82/1/29
f 82/1/29 80/2/29 79/3/29
f 81/3/30 83/4/30 84/1/30
f 84/1/30 82/2/30 81/3/30
f 83/3/31 85/4/31 86/1/31
f 86/1/31 84/2/31 83/3/31
f 85/3/32 87/4/32 88/1/32
f 88/1/32 86/2/32 85/3/32
f 87/3/33 65/4/33 68/1/33
f 68/1/33 88/2/33 87/3/33
f 85/17/6 83/18/6 81/19/6
f 81/19/6 79/20/6 77/21/6
f 77/21/6 75/22/6 73/23/6
f 81/19/6 77/21/6 73/23/6
f 73/23/6 71/24/6 69/25/6
f 69/25/6 66/26/6 65/27/6
f 73/23/6 69/25/6 65/27/6
f 81/19/6 73/23/6 65/27/6
f 85/17/6 81/19/6 65/27/6
f 87/28/6 85/17/6 65/27/6
f 67/17/11 70/18/11 72/19/11
f 72/19/11 74/20/11 76/21/11
f 76/21/11 78/22/34 80/23/11
f 72/19/11 76/21/11 80/23/11
f 80/23/11 82/24/35 84/25/11
f 84/25/11 86/26/35 88/27/11
f 80/23/11 84/25/11 88/27/11
f 72/19/11 80/23/11 88/27/11
f 67/17/11 72/19/11 88/27/11
f 68/28/36 67/17/11 88/27/11
f 89/3/22 90/4/22 91/1/22
f 91/1/22 92/2/22 89/3/22
f 90/3/23 93/4/23 94/1/23
f 94/1/23 91/2/23 90/3/23
f 93/3/24 95/4/24 96/1/24
f 96/1/24 94/2/24 93/3/24
f 95/3/25 97/4/25 98/1/25
f 98/1/25 96/2/25 95/3/25
f 97/3/26 99/4/26 100/1/26
f 100/1/26 98/2/26 97/3/26
f 99/3/27 101/4/27 102/1/27
f 102/1/27 100/2/27 99/3/27
f 101/3/28 103/4/28 104/1/28
f 104/1/28 102/2/28 101/3/28
f 103/3/29 105/4/29 106/1/29
f 106/1/29 104/2/29 103/3/29
f 105/3/30 107/4/30 108/1/30
f 108/1/30 106/2/30 105/3/30
f 107/3/31 109/4/31 110/1/31
f 110/1/31 108/2/31 107/3/31
f 109/3/32 111/4/32 112/1/32
f 112/1/32 110/2/32 109/3/32
f 111/3/33 89/4/33 92/1/33
f 92/1/33 112/2/33 111/3/33
f 109/17/6 107/18/6 105/19/6
f 105/19/6 103/20/6 101/21/6
f 101/21/6 99/22/6 97/23/6
f 105/19/6 101/21/6 97/23/6
f 97/23/6 95/24/6 93/25/6
f 93/25/6 90/26/6 89/27/6
f 97/23/6 93/25/6 89/27/6
f 105/19/6 97/23/6 89/27/6
f 109/17/6 105/19/6 89/27/6
f 111/28/6 109/17/6 89/27/6
f 91/17/11 94/18/11 96/19/11
f 96/19/11 98/20/11 100/21/11
f 100/21/11 102/22/11 104/23/11
f 96/19/11 100/21/11 104/23/11
f 104/23/11 106/24/11 108/25/11
f 108/25/11 110/26/11 112/27/11
f 104/23/11 108/25/11 112/27/11
f 96/19/11 104/23/11 112/27/11
f 91/17/11 96/19/11 112/27/11
f 92/28/11 91/17/11 112/27/11
f 113/29/6 114/30/6 115/31/6
f 115/31/6 116/32/6 113/29/6
f 117/29/6 118/30/6 114/31/37
f 114/31/37 113/32/37 117/29/6
f 119/29/6 120/30/37 118/31/6
f 118/31/6 117/32/38 119/29/6
f 121/29/6 122/30/6 120/31/6
f 120/31/6 119/33/6 121/29/6
f 123/29/6 124/30/37 122/31/6
f 122/31/6 121/32/38 123/29/6
f 125/29/6 126/30/6 124/31/6
f 124/31/6 123/32/6 125/29/6
f 127/29/6 128/30/6 126/31/6
f 126/31/6 125/32/6 127/29/6
f 129/29/11 130/34/11 131/31/11
f 131/31/11 132/35/11 129/29/11
f 133/29/11 129/34/35 132/31/11
f 132/31/11 134/35/11 133/29/11
f 135/29/11 133/34/11 134/31/11
f 134/31/11 136/35/11 135/29/11
f 137/29/11 135/36/11 136/31/11
f 136/31/11 138/35/11 137/29/11
f 139/29/11 137/34/11 138/31/11
f 138/31/11 140/35/11 139/29/11
f 141/29/11 139/34/11 140/31/11
f 140/31/11 142/35/11 141/29/11
f 143/29/11 141/34/11 142/31/11
f 142/31/11 144/35/11 143/29/11
f 132/29/39 131/30/39 115/31/39
f 115/31/39 114/35/39 132/29/39
f 134/29/40 132/30/40 114/31/40
f 114/31/40 118/35/40 134/29/40
f 136/29/41 134/30/42 118/31/41
f 118/31/41 120/35/41 136/29/41
f 138/29/13 136/30/13 120/31/13
f 120/31/13 122/35/13 138/29/13
f 140/29/43 138/30/44 122/31/43
f 122/31/43 124/35/43 140/29/43
f 142/29/45 140/30/45 124/31/45
f 124/31/45 126/35/45 142/29/45
f 144/29/46 142/30/46 126/31/46
f 126/31/46 128/35/46 144/29/46
f 141/29/47 143/30/47 127/31/47
f 127/31/47 125/35/47 141/29/47
f 139/29/48 141/30/48 125/31/48
f 125/31/48 123/35/48 139/29/48
f 137/29/49 139/30/49 123/31/49
f 123/31/49 121/35/49 137/29/49
f 135/29/12 137/30/12 121/31/12
f 121/31/12 119/35/12 135/29/12
f 133/29/50 135/30/50 119/31/50
f 119/31/50 117/35/50 133/29/50
f 129/29/51 133/30/51 117/31/51
f 117/31/51 113/35/51 129/29/51
f 130/29/52 129/30/52 113/31/52
f 113/31/52 116/35/52 130/29/52
f 145/3/18 146/4/18 147/1/18
f 147/1/18 148/2/18 145/3/18
f 149/3/2 150/4/2 151/1/2
f 151/1/2 152/2/2 149/3/2
f 145/3/3 148/4/3 150/1/3
f 150/1/3 149/2/3 145/3/3
f 148/3/4 147/4/4 151/1/4
f 151/1/4 150/2/4 148/3/4
f 147/3/5 146/4/5 152/1/5
f 152/1/5 151/2/5 147/3/5
f 153/3/18 154/4/18 155/1/18
f 155/1/18 156/2/18 153/3/18
f 157/3/2 158/4/2 159/1/2
f 159/1/2 160/2/2 157/3/2
f 153/3/3 156/4/3 158/1/3
f 158/1/3 157/2/3 153/3/3
f 156/3/4 155/4/4 159/1/4
f 159/1/4 158/2/4 156/3/4
f 155/3/5 154/4/5 160/1/5
f 160/1/5 159/2/5 155/3/5
f 161/3/18 162/4/18 163/1/18
f 163/1/18 164/2/18 161/3/18
f 165/3/2 166/4/2 167/1/2
f 167/1/2 168/2/2 165/3/2
f 161/3/3 164/4/3 166/1/3
f 166/1/3 165/2/3 161/3/3
f 164/3/4 163/4/4 167/1/4
f 167/1/4 166/2/4 164/3/4
f 163/3/5 162/4/5 168/1/5
f 168/1/5 167/2/5 163/3/5
f 169/3/18 170/4/18 171/1/18
f 171/1/18 172/2/18 169/3/18
f 173/3/2 174/4/2 175/1/2
f 175/1/2 176/2/2 173/3/2
f 169/3/3 172/4/3 174/1/3
f 174/1/3 173/2/3 169/3/3
f 172/3/4 171/4/4 175/1/4
f 175/1/4 174/2/4 172/3/4
f 171/3/5 170/4/5 176/1/5
f 176/1/5 175/2/5 171/3/5
f 177/3/18 178/4/18 179/1/18
f 179/1/18 180/2/18 177/3/18
f 181/3/2 182/4/2 183/1/2
f 183/1/2 184/2/2 181/3/2
f 177/3/3 180/4/3 182/1/3
f 182/1/3 181/2/3 177/3/3
f 180/3/4 179/4/4 183/1/4
f 183/1/4 182/2/4 180/3/4
f 179/3/5 178/4/5 184/1/5
f 184/1/5 183/2/5 179/3/5
f 185/3/18 186/4/18 187/1/18
f 187/1/18 188/2/18 185/3/18
f 189/3/2 190/4/2 191/1/2
f 191/1/2 192/2/2 189/3/2
f 185/3/3 188/4/3 190/1/3
f 190/1/3 189/2/3 185/3/3
f 188/3/4 187/4/4 191/1/4
f 191/1/4 190/2/4 188/3/4
f 187/3/5 186/4/5 192/1/5
f 192/1/5 191/2/5 187/3/5
f 193/3/18 194/4/18 195/1/19
f 195/1/19 196/2/19 193/3/18
f 197/3/2 198/4/2 199/1/2
f 199/1/2 200/2/2 197/3/2
f 193/3/3 196/4/3 198/1/3
f 198/1/3 197/2/3 193/3/3
f 196/3/4 195/4/4 199/1/4
f 199/1/4 198/2/4 196/3/4
f 195/3/5 194/4/5 200/1/5
f 200/1/5 199/2/5 195/3/5
f 201/3/18 202/4/18 203/1/18
f 203/1/18 204/2/18 201/3/18
f 205/3/53 206/4/53 207/1/53
f 207/1/53 208/2/53 205/3/53
f 201/3/3 204/4/3 206/1/3
f 206/1/3 205/2/3 201/3/3
f 204/3/4 203/4/4 207/1/4
f 207/1/4 206/2/4 204/3/4
f 203/3/5 202/4/5 208/1/5
f 208/1/5 207/2/5 203/3/5
f 209/3/18 210/4/18 211/1/19
f 211/1/19 212/2/19 209/3/18
f 213/3/53 214/4/53 215/1/53
f 215/1/53 216/2/53 213/3/53
f 209/3/3 212/4/3 214/1/3
f 214/1/3 213/2/3 209/3/3
f 212/3/4 211/4/4 215/1/4
f 215/1/4 214/2/4 212/3/4
f 211/3/5 210/4/5 216/1/5
f 216/1/5 215/2/5 211/3/5
f 217/3/18 218/4/18 219/1/19
f 219/1/19 220/2/19 217/3/18
f 221/3/1 222/4/53 223/1/53
f 223/1/53 224/2/1 221/3/1
f 217/3/3 220/4/3 222/1/3
f 222/1/3 221/2/3 217/3/3
f 220/3/4 219/4/4 223/1/4
f 223/1/4 222/2/4 220/3/4
f 219/3/5 218/4/5 224/1/5
f 224/1/5 223/2/5 219/3/5
f 225/3/18 226/4/18 227/1/19
f 227/1/19 228/2/19 225/3/18
f 229/3/1 230/4/53 231/1/53
f 231/1/53 232/2/1 229/3/1
f 225/3/3 228/4/3 230/1/3
f 230/1/3 229/2/3 225/3/3
f 228/3/4 227/4/4 231/1/4
f 231/1/4 230/2/4 228/3/4
f 227/3/5 226/4/5 232/1/5
f 232/1/5 231/2/5 227/3/5
f 233/10/54 234/37/54 235/38/54
f 235/38/54 236/39/54 233/10/54
f 237/10/55 238/37/55 239/38/55
f 239/38/55 240/39/55 237/10/55
f 241/40/56 242/41/56 234/42/56
f 234/42/56 233/43/56 241/40/56
f 242/10/7 243/37/7 235/38/7
f 235/38/7 234/39/7 242/10/7
f 244/10/7 245/37/7 239/38/7
f 239/38/7 238/39/7 244/10/7
f 245/40/57 246/41/57 240/42/57
f 240/42/57 239/43/57 245/40/57
f 246/10/4 247/37/4 237/38/4
f 237/38/4 240/39/4 246/10/4
f 248/10/4 241/37/4 233/38/4
f 233/38/4 236/39/4 248/10/4
f 249/10/54 250/37/54 251/38/54
f 251/38/54 252/39/54 249/10/54
f 253/10/55 254/37/55 255/38/55
f 255/38/55 256/39/55 253/10/55
f 257/40/56 258/41/56 250/42/56
f 250/42/56 249/43/56 257/40/56
f 258/10/7 259/37/7 251/38/7
f 251/38/7 250/39/7 258/10/7
f 260/10/7 261/37/7 255/38/7
f 255/38/7 254/39/7 260/10/7
f 261/40/57 262/41/57 256/42/57
f 256/42/57 255/43/57 261/40/57
f 262/10/4 263/37/4 253/38/4
f 253/38/4 256/39/4 262/10/4
f 264/10/4 257/37/4 249/38/4
f 249/38/4 252/39/4 264/10/4
f 265/40/58 266/42/58 267/43/58
f 265/40/58 268/41/58 266/42/58
f 268/40/12 269/42/12 266/43/12
f 268/40/12 270/41/12 269/42/12
f 270/40/59 271/42/59 269/43/59
f 270/40/59 272/41/59 271/42/59
f 272/40/60 273/42/60 271/43/60
f 272/40/60 274/41/60 273/42/60
f 274/40/13 275/42/13 273/43/13
f 274/40/13 276/41/13 275/42/13
f 276/40/61 267/42/61 275/43/61
f 276/40/61 265/41/61 267/42/61
f 277/42/11 267/40/11 266/41/11
f 277/42/11 266/40/11 269/41/11
f 277/42/11 269/40/11 271/41/11
f 277/42/11 271/40/11 273/41/11
f 277/42/11 273/40/11 275/41/11
f 277/42/11 275/40/11 267/41/11
f 278/40/58 279/42/58 280/43/58
f 278/40/58 281/41/58 279/42/58
f 281/40/12 282/42/12 279/43/12
f 281/40/12 283/41/12 282/42/12
f 283/40/59 284/42/59 282/43/59
f 283/40/59 285/41/59 284/42/59
f 285/40/60 286/42/60 284/43/60
f 285/40/60 287/41/60 286/42/60
f 287/40/13 288/42/13 286/43/13
f 287/40/13 289/41/13 288/42/13
f 289/40/61 280/42/61 288/43/61
f 289/40/61 278/41/61 280/42/61
f 290/42/11 280/40/11 279/41/11
f 290/42/11 279/40/11 282/41/11
f 290/42/11 282/40/11 284/41/11
f 290/42/11 284/40/11 286/41/11
f 290/42/11 286/40/11 288/41/11
f 290/42/11 288/40/11 280/41/11
f 291/40/58 292/42/58 293/43/58
f 291/40/58 294/41/58 292/42/58
f 294/40/12 295/42/12 292/43/12
f 294/40/12 296/41/12 295/42/12
f 296/40/59 297/42/59 295/43/59
f 296/40/59 298/41/59 297/42/59
f 298/40/60 299/42/60 297/43/60
f 298/40/60 300/41/60 299/42/60
f 300/40/13 301/42/13 299/43/13
f 300/40/13 302/41/13 301/42/13
f 302/40/61 293/42/61 301/43/61
f 302/40/61 291/41/61 293/42/61
f 303/42/11 293/40/11 292/41/11
f 303/42/11 292/40/11 295/41/11
f 303/42/11 295/40/11 297/41/11
f 303/42/11 297/40/11 299/41/11
f 303/42/11 299/40/11 301/41/11
f 303/42/11 301/40/11 293/41/11
f 304/40/58 305/42/58 306/43/58
f 304/40/58 307/41/58 305/42/58
f 307/40/12 308/42/12 305/43/12
f 307/40/12 309/41/12 308/42/12
f 309/40/59 310/42/59 308/43/59
f 309/40/59 311/41/59 310/42/59
f 311/40/60 312/42/60 310/43/60
f 311/40/60 313/41/60 312/42/60
f 313/40/13 314/42/13 312/43/13
f 313/40/13 315/41/13 314/42/13
f 315/40/61 306/42/61 314/43/61
f 315/40/61 304/41/61 306/42/61
f 316/42/11 306/40/11 305/41/11
f 316/42/11 305/40/11 308/41/11
f 316/42/11 308/40/11 310/41/11
f 316/42/11 310/40/11 312/41/11
f 316/42/11 312/40/11 314/41/11
f 316/42/11 314/40/11 306/41/11
f 317/40/62 318/41/62 319/42/62
f 319/42/62 320/43/62 317/40/62
f 321/40/63 317/41/63 320/42/63
f 320/42/63 322/43/63 321/40/63
f 323/40/12 321/41/12 322/42/12
f 322/42/12 324/43/12 323/40/12
f 325/40/64 323/41/64 324/42/64
f 324/42/64 326/43/64 325/40/64
f 327/40/65 325/41/65 326/42/65
f 326/42/65 328/43/65 327/40/65
f 329/40/66 327/41/66 328/42/66
f 328/42/66 330/43/66 329/40/66
f 331/40/67 329/41/67 330/42/67
f 330/42/67 332/43/67 331/40/67
f 333/40/13 331/41/13 332/42/13
f 332/42/13 334/43/13 333/40/13
f 335/40/68 333/41/68 334/42/68
f 334/42/68 336/43/68 335/40/68
f 318/40/11 317/41/11 321/42/11
f 318/40/11 321/42/11 323/43/11
f 318/40/11 323/42/11 325/43/11
f 318/40/11 325/42/11 327/43/11
f 318/40/11 327/42/11 329/43/11
f 318/40/11 329/42/11 331/43/11
f 318/40/11 331/42/11 333/43/11
f 318/40/11 333/42/11 335/43/11
f 337/40/62 338/41/62 339/42/62
f 339/42/62 340/43/62 337/40/62
f 341/40/63 337/41/63 340/42/63
f 340/42/63 342/43/63 341/40/63
f 343/40/12 341/41/12 342/42/12
f 342/42/12 344/43/12 343/40/12
f 345/40/64 343/41/64 344/42/64
f 344/42/64 346/43/64 345/40/64
f 347/40/65 345/41/65 346/42/65
f 346/42/65 348/43/65 347/40/65
f 349/40/66 347/41/66 348/42/66
f 348/42/66 350/43/66 349/40/66
f 351/40/67 349/41/67 350/42/67
f 350/42/67 352/43/67 351/40/67
f 353/40/13 351/41/13 352/42/13
f 352/42/13 354/43/13 353/40/13
f 355/40/68 353/41/68 354/42/68
f 354/42/68 356/43/68 355/40/68
f 338/40/11 337/41/11 341/42/11
f 338/40/11 341/42/11 343/43/11
f 338/40/11 343/42/11 345/43/11
f 338/40/11 345/42/11 347/43/11
f 338/40/11 347/42/11 349/43/11
f 338/40/11 349/42/11 351/43/11
f 338/40/11 351/42/11 353/43/11
f 338/40/11 353/42/11 355/43/11
f 357/40/62 358/41/62 359/42/62
f 359/42/62 360/43/62 357/40/62
f 361/40/63 357/41/63 360/42/63
f 360/42/63 362/43/63 361/40/63
f 363/40/12 361/41/12 362/42/12
f 362/42/12 364/43/12 363/40/12
f 365/40/64 363/41/64 364/42/64
f 364/42/64 366/43/64 365/40/64
f 367/40/65 365/41/65 366/42/65
f 366/42/65 368/43/65 367/40/65
f 369/40/66 367/41/66 368/42/66
f 368/42/66 370/43/66 369/40/66
f 371/40/67 369/41/67 370/42/67
f 370/42/67 372/43/67 371/40/67
f 373/40/13 371/41/13 372/42/13
f 372/42/13 374/43/13 373/40/13
f 375/40/68 373/41/68 374/42/68
f 374/42/68 376/43/68 375/40/68
f 358/40/11 357/41/11 361/42/11
f 358/40/11 361/42/11 363/43/11
f 358/40/11 363/42/11 365/43/11
f 358/40/11 365/42/11 367/43/11
f 358/40/11 367/42/11 369/43/11
f 358/40/11 369/42/11 371/43/11
f 358/40/11 371/42/11 373/43/11
f 358/40/11 373/42/11 375/43/11
f 377/40/62 378/41/62 379/42/62
f 379/42/62 380/43/62 377/40/62
f 381/40/63 377/41/63 380/42/63
f 380/42/63 382/43/63 381/40/63
f 383/40/12 381/41/12 382/42/12
f 382/42/12 384/43/12 383/40/12
f 385/40/64 383/41/64 384/42/64
f 384/42/64 386/43/64 385/40/64
f 387/40/65 385/41/65 386/42/65
f 386/42/65 388/43/65 387/40/65
f 389/40/66 387/41/66 388/42/66
f 388/42/66 390/43/66 389/40/66
f 391/40/67 389/41/67 390/42/67
f 390/42/67 392/43/67 391/40/67
f 393/40/13 391/41/13 392/42/13
f 392/42/13 394/43/13 393/40/13
f 395/40/68 393/41/68 394/42/68
f 394/42/68 396/43/68 395/40/68
f 378/40/11 377/41/11 381/42/11
f 378/40/11 381/42/11 383/43/11
f 378/40/11 383/42/11 385/43/11
f 378/40/11 385/42/11 387/43/11
f 378/40/11 387/42/11 389/43/11
f 378/40/11 389/42/11 391/43/11
f 378/40/11 391/42/11 393/43/11
f 378/40/11 393/42/11 395/43/11
f 318/40/69 335/41/69 336/42/69
f 336/42/69 319/43/69 318/40/69
f 338/40/69 355/41/69 356/42/69
f 356/42/69 339/43/69 338/40/69
f 358/40/69 375/41/69 376/42/69
f 376/42/69 359/43/69 358/40/69
f 378/40/69 395/41/69 396/42/69
f 396/42/69 379/43/69 378/40/69
f 397/44/13 398/45/13 399/46/13
f 399/46/13 400/47/13 397/44/13
f 398/45/7 401/44/7 402/47/7
f 402/47/7 399/46/7 398/45/7
f 401/44/12 403/45/12 404/46/12
f 404/46/12 402/47/12 401/44/12
f 403/45/4 397/44/4 400/47/4
f 400/47/4 404/46/4 403/45/4
f 405/48/11 406/49/11 407/50/11
f 407/50/11 408/51/11 405/48/11
f 400/52/70 399/53/70 409/54/71
f 409/54/71 410/55/72 400/52/70
f 410/55/72 409/54/71 406/56/73
f 406/56/73 405/57/73 410/55/72
f 399/58/74 402/59/74 411/60/75
f 411/60/75 409/61/74 399/58/74
f 409/62/76 411/60/75 407/63/76
f 407/63/76 406/64/76 409/62/76
f 402/53/77 404/65/77 412/66/78
f 412/66/78 411/67/79 402/53/77
f 411/67/79 412/66/78 408/68/80
f 408/68/80 407/69/80 411/67/79
f 404/59/81 400/58/81 410/61/82
f 410/61/82 412/60/83 404/59/81
f 412/60/83 410/61/82 405/70/84
f 405/70/84 408/71/84 412/60/83
f 413/72/6 414/73/6 415/74/6
f 415/74/6 416/75/6 413/72/6
f 417/72/11 418/73/11 419/74/11
f 419/74/11 420/75/11 417/72/11
f 413/10/13 416/76/13 418/77/13
f 418/77/13 417/78/13 413/10/13
f 416/72/7 415/73/7 419/74/7
f 419/74/7 418/75/7 416/72/7
f 414/72/4 413/73/4 417/74/4
f 417/74/4 420/75/4 414/72/4
f 421/79/6 422/80/6 423/81/6
f 423/81/6 424/82/6 425/83/6
f 425/83/6 426/84/6 427/85/6
f 423/81/6 425/83/6 427/85/6
f 427/85/6 428/86/6 429/87/6
f 429/87/6 430/88/6 431/89/6
f 427/85/6 429/87/6 431/89/6
f 423/81/6 427/85/6 431/89/6
f 421/79/6 423/81/6 431/89/6
f 432/90/6 421/79/6 431/89/6
f 431/89/7 430/88/28 433/91/28
f 433/91/28 434/92/7 431/89/7
f 430/93/29 429/94/29 435/94/29
f 435/94/29 433/93/29 430/93/29
f 429/95/30 428/96/30 436/97/85
f 436/97/85 435/98/30 429/95/30
f 428/99/31 427/81/86 437/100/86
f 437/100/86 436/97/87 428/99/31
f 427/81/86 426/82/59 438/101/59
f 438/101/59 437/100/86 427/81/86
f 426/82/59 425/102/4 439/103/4
f 439/103/4 438/101/59 426/82/59
f 425/102/4 424/104/60 440/105/60
f 440/105/60 439/103/4 425/102/4
f 424/104/60 423/106/88 441/107/88
f 441/107/88 440/105/60 424/104/60
f 423/106/88 422/108/13 442/109/13
f 442/109/13 441/107/88 423/106/88
f 422/108/13 421/110/89 443/111/89
f 443/111/89 442/109/13 422/108/13
f 421/110/89 432/112/61 444/113/61
f 444/113/61 443/111/89 421/110/89
f 432/112/61 431/89/7 434/92/7
f 434/92/7 444/113/61 432/112/61
f 434/114/11 433/93/11 435/94/11
f 435/94/11 436/115/11 437/116/11
f 437/116/11 438/117/11 439/118/11
f 435/94/11 437/116/11 439/118/11
f 439/118/11 440/119/11 441/120/11
f 441/120/11 442/121/11 443/122/11
f 439/118/11 441/120/11 443/122/11
f 435/94/11 439/118/11 443/122/11
f 434/114/11 435/94/11 443/122/11
f 444/123/11 434/114/11 443/122/11
f 434/124/11 445/125/11 446/126/11
f 447/127/90 448/128/90 449/129/90
f 449/129/90 450/130/90 447/127/90
f 451/129/91 452/130/91 448/127/91
f 448/127/91 447/128/91 451/129/91
f 447/131/13 450/132/13 453/133/13
f 453/133/13 454/134/13 447/131/13
f 454/134/13 455/135/13 451/136/13
f 451/136/13 447/131/13 454/134/13
f 456/127/92 457/128/92 458/129/92
f 458/129/92 459/130/92 456/127/92
f 445/129/93 460/130/93 457/127/93
f 457/127/93 456/128/93 445/129/93
f 456/137/12 459/138/12 461/139/12
f 461/139/12 462/140/12 456/137/12
f 446/141/12 445/142/12 456/137/12
f 456/137/12 462/140/12 446/141/12
f 436/143/11 463/144/11 464/145/11
f 465/127/94 466/128/94 467/129/94
f 467/129/94 468/130/94 465/127/94
f 469/129/13 470/130/13 466/127/13
f 466/127/13 465/128/13 469/129/13
f 471/146/7 472/147/7 473/148/7
f 473/148/7 474/149/7 471/146/7
f 475/150/7 474/149/7 473/148/7
f 473/148/7 476/151/7 475/150/7
f 477/127/95 473/128/95 472/129/95
f 472/129/95 478/130/95 477/127/95
f 463/129/12 476/130/12 473/127/12
f 473/127/12 477/128/12 463/129/12
f 477/148/4 478/147/4 479/146/4
f 479/146/4 480/149/4 477/148/4
f 480/149/4 464/152/4 463/153/4
f 463/153/4 477/148/4 480/149/4
f 457/137/13 481/140/13 482/139/13
f 482/139/13 458/138/13 457/137/13
f 448/131/12 483/134/12 484/133/12
f 484/133/12 449/132/12 448/131/12
f 485/154/7 486/155/7 465/156/7
f 465/156/7 468/157/7 485/154/7
f 466/156/4 487/155/4 488/154/4
f 488/154/4 467/157/4 466/156/4
f 451/158/11 455/159/35 489/160/11
f 489/160/11 439/161/11 451/158/11
f 490/135/12 483/134/12 448/131/12
f 448/131/12 452/136/12 490/135/12
f 469/162/7 465/156/7 486/155/7
f 486/155/7 491/163/7 469/162/7
f 469/164/11 491/165/11 442/166/11
f 466/156/4 470/167/4 492/168/4
f 492/168/4 487/155/4 466/156/4
f 481/140/13 457/137/13 460/142/13
f 460/142/13 493/141/13 481/140/13
f 434/124/11 493/169/11 460/170/11
f 460/170/11 445/125/11 434/124/11
f 436/143/11 475/171/11 476/172/11
f 476/172/11 463/144/11 436/143/11
f 452/173/11 451/158/11 439/161/11
f 439/161/11 490/174/11 452/173/11
f 494/175/11 492/176/11 470/177/11
f 442/166/11 494/175/11 470/177/11
f 442/166/11 470/177/11 469/164/11
f 495/178/96 496/179/96 497/180/6
f 497/180/6 498/181/6 495/178/96
f 496/182/12 495/183/12 499/184/97
f 499/184/97 500/185/97 496/182/12
f 500/185/97 499/184/97 501/186/11
f 501/186/11 502/187/11 500/185/97
f 502/187/11 501/186/11 503/188/98
f 503/188/98 504/189/98 502/187/11
f 504/189/98 503/188/98 505/190/99
f 505/190/99 506/191/99 504/189/98
f 497/180/6 506/191/99 505/190/99
f 505/190/99 498/181/6 497/180/6
f 503/192/4 501/193/4 499/194/4
f 499/194/4 495/195/4 498/196/4
f 503/192/4 499/194/4 498/196/4
f 505/197/4 503/192/4 498/196/4
f 507/195/7 508/194/7 509/193/7
f 509/193/7 510/192/7 511/197/7
f 507/195/7 509/193/7 511/197/7
f 512/196/7 507/195/7 511/197/7
f 512/198/6 511/199/99 513/200/99
f 513/200/99 514/201/6 512/198/6
f 514/201/6 515/202/96 507/203/96
f 507/203/96 512/198/6 514/201/6
f 508/204/97 507/205/12 515/206/12
f 515/206/12 516/207/97 508/204/97
f 516/207/97 517/208/11 509/209/11
f 509/209/11 508/204/97 516/207/97
f 510/210/98 509/209/11 517/208/11
f 517/208/11 518/211/98 510/210/98
f 513/200/99 511/199/99 510/210/98
f 510/210/98 518/211/98 513/200/99
f 519/212/100 520/213/101 521/214/6
f 521/214/6 522/215/102 523/216/103
f 519/212/100 521/214/6 523/216/103
f 523/216/103 522/215/102 524/217/104
f 524/217/104 525/218/105 523/216/103
f 525/218/105 524/217/104 526/219/12
f 526/219/12 527/220/12 525/218/105
f 527/221/106 526/222/106 528/223/107
f 528/223/107 529/224/108 527/221/106
f 530/225/11 531/226/109 532/227/110
f 530/225/11 532/227/110 529/224/108
f 530/225/11 529/224/108 528/223/107
f 533/228/111 534/229/111 535/230/112
f 535/230/112 536/231/113 531/226/109
f 533/228/111 535/230/112 531/226/109
f 530/225/11 533/228/111 531/226/109
f 537/232/114 538/233/111 539/234/111
f 539/234/111 540/235/114 537/232/114
f 540/235/114 541/236/115 542/237/116
f 542/237/116 537/232/114 540/235/114
f 543/238/117 544/239/117 542/237/116
f 545/240/118 543/238/117 542/237/116
f 545/240/118 542/237/116 541/236/115
f 546/241/119 547/242/117 548/243/117
f 548/243/117 521/214/6 520/213/101
f 548/243/117 520/213/101 549/244/119
f 546/241/119 548/243/117 549/244/119
f 550/245/4 551/246/4 533/247/4
f 533/247/4 530/248/4 528/249/4
f 528/249/4 526/250/4 524/251/4
f 524/251/4 522/252/4 521/253/4
f 528/249/4 524/251/4 521/253/4
f 533/247/4 528/249/4 521/253/4
f 550/245/4 533/247/4 521/253/4
f 548/254/4 550/245/4 521/253/4
f 552/252/7 553/251/7 554/250/7
f 554/250/7 555/249/7 556/248/7
f 556/248/7 538/247/7 537/246/7
f 537/246/7 542/245/7 544/254/7
f 556/248/7 537/246/7 544/254/7
f 554/250/7 556/248/7 544/254/7
f 552/252/7 554/250/7 544/254/7
f 557/253/7 552/252/7 544/254/7
f 558/178/96 559/179/120 560/180/6
f 560/180/6 561/181/6 558/178/96
f 559/182/12 558/183/12 562/184/97
f 562/184/97 563/185/97 559/182/12
f 563/185/97 562/184/97 564/186/11
f 564/186/11 565/187/11 563/185/97
f 565/187/11 564/186/11 566/188/98
f 566/188/98 567/189/98 565/187/11
f 567/189/98 566/188/98 568/190/99
f 568/190/99 569/191/99 567/189/98
f 560/180/6 569/191/99 568/190/99
f 568/190/99 561/181/6 560/180/6
f 566/192/4 564/193/4 562/194/4
f 562/194/4 558/195/4 561/196/4
f 566/192/4 562/194/4 561/196/4
f 568/197/4 566/192/4 561/196/4
f 570/195/7 571/194/7 572/193/7
f 572/193/7 573/192/7 574/197/7
f 570/195/7 572/193/7 574/197/7
f 575/196/7 570/195/7 574/197/7
f 575/198/6 574/199/99 576/200/99
f 576/200/99 577/201/6 575/198/6
f 577/201/6 578/202/120 570/203/96
f 570/203/96 575/198/6 577/201/6
f 571/204/97 570/205/12 578/206/12
f 578/206/12 579/207/97 571/204/97
f 579/207/97 580/208/11 572/209/11
f 572/209/11 571/204/97 579/207/97
f 573/210/98 572/209/11 580/208/11
f 580/208/11 581/211/98 573/210/98
f 576/200/99 574/199/99 573/210/98
f 573/210/98 581/211/98 576/200/99
f 582/255/121 583/213/122 584/214/6
f 584/214/6 585/215/102 586/216/123
f 582/255/121 584/214/6 586/216/123
f 586/216/123 585/215/102 587/217/104
f 587/217/104 588/218/105 586/216/123
f 588/218/105 587/217/104 589/219/12
f 589/219/12 590/220/12 588/218/105
f 590/221/106 589/222/106 591/223/107
f 591/223/107 592/224/124 590/221/106
f 593/225/11 594/226/125 595/227/126
f 593/225/11 595/227/126 592/224/124
f 593/225/11 592/224/124 591/223/107
f 596/228/111 597/229/111 598/230/112
f 598/230/112 599/231/127 594/226/125
f 596/228/111 598/230/112 594/226/125
f 593/225/11 596/228/111 594/226/125
f 600/232/114 601/233/111 602/234/111
f 602/234/111 603/235/114 600/232/114
f 603/235/114 604/236/116 605/237/116
f 605/237/116 600/232/114 603/235/114
f 606/239/117 605/237/116 604/236/116
f 604/236/116 607/238/117 606/239/117
f 608/241/119 609/242/117 610/243/117
f 610/243/117 584/214/6 583/213/122
f 610/243/117 583/213/122 611/244/128
f 608/241/119 610/243/117 611/244/128
f 612/245/4 613/246/4 596/247/4
f 596/247/4 593/248/4 591/249/4
f 591/249/4 589/250/4 587/251/4
f 587/251/4 585/252/4 584/253/4
f 591/249/4 587/251/4 584/253/4
f 596/247/4 591/249/4 584/253/4
f 612/245/4 596/247/4 584/253/4
f 610/254/4 612/245/4 584/253/4
f 614/252/7 615/251/7 616/250/7
f 616/250/7 617/249/7 618/248/7
f 618/248/7 601/247/7 600/246/7
f 600/246/7 605/245/7 606/254/7
f 618/248/7 600/246/7 606/254/7
f 616/250/7 618/248/7 606/254/7
f 614/252/7 616/250/7 606/254/7
f 619/253/7 614/252/7 606/254/7
f 620/178/96 621/179/96 622/180/6
f 622/180/6 623/181/6 620/178/96
f 621/182/12 620/183/12 624/184/97
f 624/184/97 625/185/97 621/182/12
f 625/185/97 624/184/97 626/186/11
f 626/186/11 627/187/11 625/185/97
f 627/187/11 626/186/11 628/188/98
f 628/188/98 629/189/98 627/187/11
f 629/189/98 628/188/98 630/190/99
f 630/190/99 631/191/99 629/189/98
f 622/180/6 631/191/99 630/190/99
f 630/190/99 623/181/6 622/180/6
f 628/192/4 626/193/4 624/194/4
f 624/194/4 620/195/4 623/196/4
f 628/192/4 624/194/4 623/196/4
f 630/197/4 628/192/4 623/196/4
f 632/195/7 633/194/7 634/193/7
f 634/193/7 635/192/7 636/197/7
f 632/195/7 634/193/7 636/197/7
f 637/196/7 632/195/7 636/197/7
f 637/198/6 636/199/99 638/200/99
f 638/200/99 639/201/6 637/198/6
f 639/201/6 640/202/96 632/203/96
f 632/203/96 637/198/6 639/201/6
f 633/204/97 632/205/12 640/206/12
f 640/206/12 641/207/97 633/204/97
f 641/207/97 642/208/11 634/209/11
f 634/209/11 633/204/97 641/207/97
f 635/210/98 634/209/11 642/208/11
f 642/208/11 643/211/98 635/210/98
f 638/200/99 636/199/99 635/210/98
f 635/210/98 643/211/98 638/200/99
f 644/256/129 645/257/102 646/258/102
f 646/258/102 647/259/6 648/260/130
f 646/258/102 648/260/130 649/261/131
f 644/256/129 646/258/102 649/261/131
f 650/262/132 651/263/104 652/264/104
f 652/264/104 646/258/102 645/257/102
f 650/262/132 652/264/104 645/257/102
f 653/265/12 652/264/104 651/263/104
f 651/263/104 654/266/12 653/265/12
f 654/267/106 655/268/107 656/269/107
f 656/269/107 653/270/106 654/267/106
f 657/271/133 658/272/11 656/269/107
f 656/269/107 655/268/107 659/273/134
f 657/271/133 656/269/107 659/273/134
f 660/274/135 657/271/133 659/273/134
f 661/275/136 662/233/111 658/272/11
f 663/276/137 661/275/136 658/272/11
f 663/276/137 658/272/11 657/271/133
f 661/275/136 664/277/138 665/232/114
f 665/232/114 662/233/111 661/275/136
f 666/237/116 665/232/114 664/277/138
f 664/277/138 667/278/139 666/237/116
f 667/278/139 668/279/140 669/239/117
f 669/239/117 666/237/116 667/278/139
f 670/280/141 648/260/130 647/259/6
f 647/259/6 669/239/117 668/279/140
f 670/280/141 647/259/6 668/279/140
f 671/245/4 672/246/4 673/247/4
f 673/247/4 674/248/4 675/249/4
f 675/249/4 676/250/4 677/251/4
f 677/251/4 678/252/4 679/253/4
f 675/249/4 677/251/4 679/253/4
f 673/247/4 675/249/4 679/253/4
f 671/245/4 673/247/4 679/253/4
f 680/254/4 671/245/4 679/253/4
f 646/252/7 652/251/7 653/250/7
f 653/250/7 656/249/7 658/248/7
f 658/248/7 662/247/7 665/246/7
f 665/246/7 666/245/7 669/254/7
f 658/248/7 665/246/7 669/254/7
f 653/250/7 658/248/7 669/254/7
f 646/252/7 653/250/7 669/254/7
f 647/253/7 646/252/7 669/254/7
f 681/178/96 682/179/120 683/180/6
f 683/180/6 684/181/6 681/178/96
f 682/182/12 681/183/12 685/184/97
f 685/184/97 686/185/97 682/182/12
f 686/185/97 685/184/97 687/186/11
f 687/186/11 688/187/11 686/185/97
f 688/187/11 687/186/11 689/188/98
f 689/188/98 690/189/98 688/187/11
f 690/189/98 689/188/98 691/190/99
f 691/190/99 692/191/99 690/189/98
f 683/180/6 692/191/99 691/190/99
f 691/190/99 684/181/6 683/180/6
f 689/192/4 687/193/4 685/194/4
f 685/194/4 681/195/4 684/196/4
f 689/192/4 685/194/4 684/196/4
f 691/197/4 689/192/4 684/196/4
f 693/195/7 694/194/7 695/193/7
f 695/193/7 696/192/7 697/197/7
f 693/195/7 695/193/7 697/197/7
f 698/196/7 693/195/7 697/197/7
f 698/198/6 697/199/99 699/200/99
f 699/200/99 700/201/6 698/198/6
f 700/201/6 701/202/120 693/203/96
f 693/203/96 698/198/6 700/201/6
f 694/204/97 693/205/12 701/206/12
f 701/206/12 702/207/97 694/204/97
f 702/207/97 703/208/11 695/209/11
f 695/209/11 694/204/97 702/207/97
f 696/210/98 695/209/11 703/208/11
f 703/208/11 704/211/98 696/210/98
f 699/200/99 697/199/99 696/210/98
f 696/210/98 704/211/98 699/200/99
f 705/256/129 706/257/102 707/258/102
f 707/258/102 708/259/6 709/260/142
f 707/258/102 709/260/142 710/261/131
f 705/256/129 707/258/102 710/261/131
f 711/264/104 707/258/102 706/257/102
f 706/257/102 712/263/104 711/264/104
f 712/263/104 713/266/12 714/265/12
f 714/265/12 711/264/104 712/263/104
f 715/269/107 714/270/106 713/267/106
f 713/267/106 716/268/107 715/269/107
f 717/271/143 718/272/11 715/269/107
f 715/269/107 716/268/107 719/273/134
f 717/271/143 715/269/107 719/273/134
f 720/274/110 717/271/143 719/273/134
f 721/275/144 722/233/111 718/272/11
f 723/276/113 721/275/144 718/272/11
f 723/276/113 718/272/11 717/271/143
f 721/275/144 724/277/138 725/232/114
f 725/232/114 722/233/111 721/275/144
f 726/237/116 725/232/114 724/277/138
f 724/277/138 727/278/139 726/237/116
f 727/278/139 728/279/145 729/239/117
f 729/239/117 726/237/116 727/278/139
f 730/280/146 709/260/142 708/259/6
f 708/259/6 729/239/117 728/279/145
f 730/280/146 708/259/6 728/279/145
f 731/245/4 732/246/4 733/247/4
f 733/247/4 734/248/4 735/249/4
f 735/249/4 736/250/4 737/251/4
f 737/251/4 738/252/4 739/253/4
f 735/249/4 737/251/4 739/253/4
f 733/247/4 735/249/4 739/253/4
f 731/245/4 733/247/4 739/253/4
f 740/254/4 731/245/4 739/253/4
f 707/252/7 711/251/7 714/250/7
f 714/250/7 715/249/7 718/248/7
f 718/248/7 722/247/7 725/246/7
f 725/246/7 726/245/7 729/254/7
f 718/248/7 725/246/7 729/254/7
f 714/250/7 718/248/7 729/254/7
f 707/252/7 714/250/7 729/254/7
f 708/253/7 707/252/7 729/254/7
f 673/228/111 672/281/114 741/282/138
f 741/282/138 742/283/144 673/228/111
f 743/284/147 744/226/133 674/225/11
f 673/228/111 742/283/144 745/285/148
f 674/225/11 673/228/111 745/285/148
f 743/284/147 674/225/11 745/285/148
f 746/286/139 671/287/116 680/243/117
f 680/243/117 747/288/140 746/286/139
f 741/282/138 672/281/114 671/287/116
f 671/287/116 746/286/139 741/282/138
f 679/214/6 748/213/149 749/289/119
f 679/214/6 749/289/119 750/290/128
f 751/291/150 747/288/140 680/243/117
f 750/290/128 751/291/150 680/243/117
f 679/214/6 750/290/128 680/243/117
f 733/228/111 732/281/114 752/282/138
f 752/282/138 753/283/144 733/228/111
f 754/284/151 755/226/152 734/225/11
f 733/228/111 753/283/144 756/285/151
f 734/225/11 733/228/111 756/285/151
f 754/284/151 734/225/11 756/285/151
f 757/286/139 731/287/116 740/243/117
f 740/243/117 758/288/140 757/286/139
f 752/282/138 732/281/114 731/287/116
f 731/287/116 757/286/139 752/282/138
f 739/214/6 759/213/142 760/289/153
f 739/214/6 760/289/153 761/290/128
f 762/291/150 758/288/140 740/243/117
f 761/290/128 762/291/150 740/243/117
f 739/214/6 761/290/128 740/243/117
f 748/213/149 679/214/6 678/215/102
f 678/215/102 763/292/154 764/293/129
f 678/215/102 764/293/129 765/294/131
f 748/213/149 678/215/102 765/294/131
f 748/213/149 765/294/131 766/295/155
f 759/213/142 739/214/6 738/215/102
f 738/215/102 767/292/156 768/293/129
f 738/215/102 768/293/129 769/294/157
f 759/213/142 738/215/102 769/294/157
f 759/213/142 769/294/157 770/295/131
f 716/268/107 771/296/107 772/297/134
f 772/297/134 773/298/110 774/299/158
f 716/268/107 772/297/134 774/299/158
f 774/299/158 720/274/110 719/273/134
f 716/268/107 774/299/158 719/273/134
f 735/223/107 734/225/11 755/226/152
f 755/226/152 773/298/110 772/297/134
f 735/223/107 755/226/152 772/297/134
f 735/223/107 772/297/134 771/296/107
f 744/226/133 775/298/135 776/297/135
f 777/300/134 778/296/159 675/223/107
f 776/297/135 777/300/134 675/223/107
f 744/226/133 776/297/135 675/223/107
f 744/226/133 675/223/107 674/225/11
f 557/259/6 779/260/160 780/301/129
f 557/259/6 780/301/129 781/302/131
f 782/303/161 783/304/103 552/258/102
f 781/302/131 782/303/161 552/258/102
f 557/259/6 781/302/131 552/258/102
f 784/305/105 553/264/104 552/258/102
f 552/258/102 783/304/103 784/305/105
f 784/305/105 785/306/12 554/265/12
f 554/265/12 553/264/104 784/305/105
f 555/269/107 554/270/106 785/307/106
f 785/307/106 786/308/124 555/269/107
f 787/309/162 788/271/109 556/272/11
f 555/269/107 786/308/124 789/310/163
f 556/272/11 555/269/107 789/310/163
f 787/309/162 556/272/11 789/310/163
f 619/259/6 790/260/122 791/301/164
f 619/259/6 791/301/164 792/311/131
f 793/303/161 794/304/103 614/258/102
f 792/311/131 793/303/161 614/258/102
f 619/259/6 792/311/131 614/258/102
f 795/305/105 615/264/104 614/258/102
f 614/258/102 794/304/103 795/305/105
f 795/305/105 796/306/12 616/265/12
f 616/265/12 615/264/104 795/305/105
f 617/269/107 616/270/106 796/307/106
f 796/307/106 797/308/124 617/269/107
f 798/309/135 799/271/165 618/272/11
f 617/269/107 797/308/124 800/310/135
f 618/272/11 617/269/107 800/310/135
f 798/309/135 618/272/11 800/310/135
f 801/312/112 802/313/151 803/314/112
f 539/234/111 801/312/112 803/314/112
f 803/314/112 536/231/113 535/230/112
f 539/234/111 803/314/112 535/230/112
f 539/234/111 535/230/112 534/229/111
f 538/233/111 556/272/11 788/271/109
f 788/271/109 802/313/151 801/312/112
f 538/233/111 788/271/109 801/312/112
f 538/233/111 801/312/112 539/234/111
f 544/239/117 543/238/117 804/315/119
f 804/315/119 805/316/166 779/260/160
f 544/239/117 804/315/119 779/260/160
f 544/239/117 779/260/160 557/259/6
f 806/312/112 807/313/127 808/314/167
f 602/234/111 806/312/112 808/314/167
f 808/314/167 599/231/127 598/230/112
f 602/234/111 808/314/167 598/230/112
f 602/234/111 598/230/112 597/229/111
f 601/233/111 618/272/11 799/271/165
f 799/271/165 807/313/127 806/312/112
f 601/233/111 799/271/165 806/312/112
f 601/233/111 806/312/112 602/234/111
f 606/239/117 607/238/117 809/315/119
f 809/315/119 810/316/128 790/260/122
f 606/239/117 809/315/119 790/260/122
f 606/239/117 790/260/122 619/259/6
f 811/317/131 766/295/155 765/294/131
f 811/317/131 765/294/131 764/293/129
f 764/293/129 763/292/154 645/257/102
f 764/293/129 645/257/102 644/256/129
f 811/317/131 764/293/129 644/256/129
f 649/261/131 811/317/131 644/256/129
f 812/318/168 813/319/169 651/263/104
f 812/318/168 651/263/104 650/262/132
f 814/320/170 812/318/168 650/262/132
f 763/292/154 814/320/170 650/262/132
f 645/257/102 763/292/154 650/262/132
f 813/319/169 815/321/12 654/266/12
f 654/266/12 651/263/104 813/319/169
f 816/317/171 770/295/131 769/294/157
f 816/317/171 769/294/157 768/293/129
f 768/293/129 767/292/156 706/257/102
f 768/293/129 706/257/102 705/256/129
f 816/317/171 768/293/129 705/256/129
f 710/261/131 816/317/171 705/256/129
f 737/217/104 736/219/12 817/321/12
f 817/321/12 818/319/104 737/217/104
f 767/292/156 818/319/104 712/263/104
f 712/263/104 706/257/102 767/292/156
f 817/322/106 771/296/107 716/268/107
f 716/268/107 713/267/106 817/322/106
f 676/222/106 675/223/107 778/296/159
f 778/296/159 815/322/106 676/222/106
f 677/217/104 813/319/169 812/318/168
f 677/217/104 812/318/168 814/320/170
f 678/215/102 677/217/104 814/320/170
f 763/292/154 678/215/102 814/320/170
f 776/297/135 775/298/135 819/299/134
f 777/300/134 776/297/135 819/299/134
f 819/299/134 660/274/135 659/273/134
f 777/300/134 819/299/134 659/273/134
f 777/300/134 659/273/134 655/268/107
f 777/300/134 655/268/107 778/296/159
f 738/215/102 737/217/104 818/319/104
f 818/319/104 767/292/156 738/215/102
f 677/217/104 676/219/12 815/321/12
f 815/321/12 813/319/169 677/217/104
f 736/222/106 735/223/107 771/296/107
f 771/296/107 817/322/106 736/222/106
f 713/266/12 712/263/104 818/319/104
f 818/319/104 817/321/12 713/266/12
f 654/267/106 815/322/106 778/296/159
f 778/296/159 655/268/107 654/267/106
f 820/323/172 821/324/173 550/287/116
f 822/325/174 820/323/172 550/287/116
f 550/287/116 548/243/117 547/242/117
f 822/325/174 550/287/116 547/242/117
f 543/238/117 547/242/117 546/241/119
f 546/241/119 549/244/119 823/326/119
f 543/238/117 546/241/119 823/326/119
f 804/315/119 543/238/117 823/326/119
f 804/315/119 823/326/119 805/316/166
f 551/281/114 550/287/116 821/324/173
f 821/324/173 824/327/114 551/281/114
f 533/228/111 551/281/114 824/327/114
f 824/327/114 534/229/111 533/228/111
f 613/281/114 612/287/116 825/324/116
f 825/324/116 826/327/114 613/281/114
f 596/228/111 613/281/114 826/327/114
f 826/327/114 597/229/111 596/228/111
f 825/324/116 609/242/117 607/238/117
f 607/238/117 604/236/116 825/324/116
f 607/238/117 609/242/117 608/241/119
f 608/241/119 611/244/128 827/326/119
f 607/238/117 608/241/119 827/326/119
f 809/315/119 607/238/117 827/326/119
f 809/315/119 827/326/119 810/316/128
f 541/236/115 821/324/173 820/323/172
f 547/242/117 543/238/117 545/240/118
f 822/325/174 547/242/117 545/240/118
f 820/323/172 822/325/174 545/240/118
f 541/236/115 820/323/172 545/240/118
f 539/234/111 534/229/111 824/327/114
f 824/327/114 540/235/114 539/234/111
f 541/236/115 540/235/114 824/327/114
f 824/327/114 821/324/173 541/236/115
f 612/287/116 610/243/117 609/242/117
f 609/242/117 825/324/116 612/287/116
f 602/234/111 597/229/111 826/327/114
f 826/327/114 603/235/114 602/234/111
f 604/236/116 603/235/114 826/327/114
f 826/327/114 825/324/116 604/236/116
f 828/328/175 829/329/7 830/330/7
f 830/330/7 831/331/175 828/328/175
f 832/332/176 828/328/175 831/331/175
f 831/331/175 833/333/176 832/332/176
f 834/334/12 832/332/176 833/333/176
f 833/333/176 835/335/12 834/334/12
f 836/336/177 834/337/64 835/338/64
f 835/338/64 837/339/177 836/336/177
f 838/340/4 836/336/177 837/339/177
f 837/339/177 839/341/4 838/340/4
f 840/342/178 838/340/4 839/341/4
f 839/341/4 841/343/178 840/342/178
f 842/344/179 840/342/178 841/343/178
f 841/343/178 843/345/179 842/344/179
f 844/346/180 842/344/179 843/345/179
f 843/345/179 845/347/180 844/346/180
f 846/348/181 844/346/180 845/347/180
f 845/347/180 847/349/181 846/348/181
f 828/350/11 832/351/11 834/352/11
f 834/352/11 836/353/11 838/354/11
f 838/354/11 840/355/11 842/356/11
f 842/356/11 844/357/11 846/358/11
f 838/354/11 842/356/11 846/358/11
f 834/352/11 838/354/11 846/358/11
f 828/350/11 834/352/11 846/358/11
f 829/359/11 828/350/11 846/358/11
f 848/328/175 849/329/7 850/330/7
f 850/330/7 851/331/175 848/328/175
f 852/332/176 848/328/175 851/331/175
f 851/331/175 853/333/176 852/332/176
f 854/334/12 852/332/176 853/333/176
f 853/333/176 855/335/12 854/334/12
f 856/336/177 854/337/64 855/338/64
f 855/338/64 857/339/177 856/336/177
f 858/340/4 856/336/177 857/339/177
f 857/339/177 859/341/4 858/340/4
f 860/342/178 858/340/4 859/341/4
f 859/341/4 861/343/178 860/342/178
f 862/344/179 860/342/178 861/343/178
f 861/343/178 863/345/179 862/344/179
f 864/346/180 862/344/179 863/345/179
f 863/345/179 865/347/180 864/346/180
f 866/348/181 864/346/180 865/347/180
f 865/347/180 867/349/181 866/348/181
f 848/350/11 852/351/11 854/352/11
f 854/352/11 856/353/11 858/354/11
f 858/354/11 860/355/11 862/356/11
f 862/356/11 864/357/11 866/358/11
f 858/354/11 862/356/11 866/358/11
f 854/352/11 858/354/11 866/358/11
f 848/350/11 854/352/11 866/358/11
f 849/359/11 848/350/11 866/358/11
f 868/328/175 869/329/7 870/330/7
f 870/330/7 871/331/175 868/328/175
f 872/332/176 868/328/175 871/331/175
f 871/331/175 873/333/176 872/332/176
f 874/334/12 872/332/176 873/333/176
f 873/333/176 875/335/12 874/334/12
f 876/336/177 874/337/64 875/338/64
f 875/338/64 877/339/177 876/336/177
f 878/340/4 876/336/177 877/339/177
f 877/339/177 879/341/4 878/340/4
f 880/342/178 878/340/4 879/341/4
f 879/341/4 881/343/178 880/342/178
f 882/344/179 880/342/178 881/343/178
f 881/343/178 883/345/179 882/344/179
f 884/346/180 882/344/179 883/345/179
f 883/345/179 885/347/180 884/346/180
f 886/348/181 884/346/180 885/347/180
f 885/347/180 887/349/181 886/348/181
f 868/350/11 872/351/11 874/352/11
f 874/352/11 876/353/11 878/354/11
f 878/354/11 880/355/11 882/356/11
f 882/356/11 884/357/11 886/358/11
f 878/354/11 882/356/11 886/358/11
f 874/352/11 878/354/11 886/358/11
f 868/350/11 874/352/11 886/358/11
f 869/359/11 868/350/11 886/358/11
f 869/329/7 886/348/181 887/349/181
f 887/349/181 870/330/7 869/329/7
f 849/329/7 866/348/181 867/349/181
f 867/349/181 850/330/7 849/329/7
f 888/328/175 889/329/7 890/330/7
f 890/330/7 891/331/175 888/328/175
f 892/332/176 888/328/175 891/331/175
f 891/331/175 893/333/176 892/332/176
f 894/334/12 892/332/176 893/333/176
f 893/333/176 895/335/12 894/334/12
f 896/336/177 894/337/64 895/338/64
f 895/338/64 897/339/177 896/336/177
f 898/340/4 896/336/177 897/339/177
f 897/339/177 899/341/4 898/340/4
f 900/342/178 898/340/4 899/341/4
f 899/341/4 901/343/178 900/342/178
f 902/344/179 900/342/178 901/343/178
f 901/343/178 903/345/179 902/344/179
f 904/346/180 902/344/179 903/345/179
f 903/345/179 905/347/180 904/346/180
f 906/348/181 904/346/180 905/347/180
f 905/347/180 907/349/181 906/348/181
f 888/350/11 892/351/11 894/352/11
f 894/352/11 896/353/11 898/354/11
f 898/354/11 900/355/11 902/356/11
f 902/356/11 904/357/11 906/358/11
f 898/354/11 902/356/11 906/358/11
f 894/352/11 898/354/11 906/358/11
f 888/350/11 894/352/11 906/358/11
f 889/359/11 888/350/11 906/358/11
f 829/329/7 846/348/181 847/349/181
f 847/349/181 830/330/7 829/329/7
f 889/329/7 906/348/181 907/349/181
f 907/349/181 890/330/7 889/329/7
f 908/360/7 909/361/182 910/362/182
f 910/362/182 911/329/7 908/360/7
f 909/361/182 912/363/12 913/364/12
f 913/364/12 910/362/182 909/361/182
f 912/365/59 914/366/4 915/340/4
f 915/340/4 913/367/59 912/365/59
f 914/366/4 916/368/88 917/369/88
f 917/369/88 915/340/4 914/366/4
f 916/368/88 918/370/89 919/371/89
f 919/371/89 917/369/88 916/368/88
f 918/370/89 908/360/7 911/329/7
f 911/329/7 919/371/89 918/370/89
f 916/372/6 914/354/6 912/373/6
f 912/373/6 909/374/6 908/359/6
f 916/372/6 912/373/6 908/359/6
f 918/375/6 916/372/6 908/359/6
f 910/374/11 913/373/11 915/354/11
f 915/354/11 917/372/11 919/375/11
f 910/374/11 915/354/11 919/375/11
f 911/359/11 910/374/11 919/375/11
f 920/360/7 921/361/182 922/362/182
f 922/362/182 923/329/7 920/360/7
f 921/361/182 924/363/12 925/364/12
f 925/364/12 922/362/182 921/361/182
f 924/365/59 926/366/4 927/340/4
f 927/340/4 925/367/59 924/365/59
f 926/366/4 928/368/88 929/369/88
f 929/369/88 927/340/4 926/366/4
f 928/368/88 930/370/89 931/371/89
f 931/371/89 929/369/88 928/368/88
f 930/370/89 920/360/7 923/329/7
f 923/329/7 931/371/89 930/370/89
f 928/372/6 926/354/6 924/373/6
f 924/373/6 921/374/6 920/359/6
f 928/372/6 924/373/6 920/359/6
f 930/375/6 928/372/6 920/359/6
f 922/374/11 925/373/11 927/354/11
f 927/354/11 929/372/11 931/375/11
f 922/374/11 927/354/11 931/375/11
f 923/359/11 922/374/11 931/375/11
f 932/360/7 933/361/182 934/362/182
f 934/362/182 935/329/7 932/360/7
f 933/361/182 936/363/12 937/364/12
f 937/364/12 934/362/182 933/361/182
f 936/365/59 938/366/4 939/340/4
f 939/340/4 937/367/59 936/365/59
f 938/366/4 940/368/88 941/369/88
f 941/369/88 939/340/4 938/366/4
f 940/368/88 942/370/89 943/371/89
f 943/371/89 941/369/88 940/368/88
f 942/370/89 932/360/7 935/329/7
f 935/329/7 943/371/89 942/370/89
f 940/372/6 938/354/6 936/373/6
f 936/373/6 933/374/6 932/359/6
f 940/372/6 936/373/6 932/359/6
f 942/375/6 940/372/6 932/359/6
f 934/374/11 937/373/11 939/354/11
f 939/354/11 941/372/11 943/375/11
f 934/374/11 939/354/11 943/375/11
f 935/359/11 934/374/11 943/375/11
f 944/360/7 945/361/182 946/362/182
f 946/362/182 947/329/7 944/360/7
f 945/361/182 948/363/12 949/364/12
f 949/364/12 946/362/182 945/361/182
f 948/365/59 950/366/4 951/340/4
f 951/340/4 949/367/59 948/365/59
f 950/366/4 952/368/88 953/369/88
f 953/369/88 951/340/4 950/366/4
f 952/368/88 954/370/89 955/371/89
f 955/371/89 953/369/88 952/368/88
f 954/370/89 944/360/7 947/329/7
f 947/329/7 955/371/89 954/370/89
f 952/372/6 950/354/6 948/373/6
f 948/373/6 945/374/6 944/359/6
f 952/372/6 948/373/6 944/359/6
f 954/375/6 952/372/6 944/359/6
f 946/374/11 949/373/11 951/354/11
f 951/354/11 953/372/11 955/375/11
f 946/374/11 951/354/11 955/375/11
f 947/359/11 946/374/11 955/375/11
f 956/376/13 957/377/13 958/378/13
f 958/378/13 959/379/13 956/376/13
f 960/376/7 956/377/7 959/378/7
f 959/378/7 961/379/7 960/376/7
f 962/376/12 960/377/12 961/378/12
f 961/378/12 963/379/12 962/376/12
f 957/376/4 962/377/4 963/378/4
f 963/378/4 958/379/4 957/376/4
f 964/376/13 965/377/13 966/378/13
f 966/378/13 967/379/13 964/376/13
f 968/376/7 964/377/7 967/378/7
f 967/378/7 969/379/7 968/376/7
f 970/376/12 968/377/12 969/378/12
f 969/378/12 971/379/12 970/376/12
f 965/376/4 970/377/4 971/378/4
f 971/378/4 966/379/4 965/376/4
f 972/377/6 973/378/6 974/379/6
f 974/379/6 975/376/6 972/377/6
f 976/376/11 977/377/11 978/378/11
f 978/378/11 979/379/11 976/376/11
f 979/376/13 978/377/13 974/378/13
f 974/378/13 973/379/13 979/376/13
f 976/376/7 979/377/7 973/378/7
f 973/378/7 972/379/7 976/376/7
f 977/376/12 976/377/12 972/378/12
f 972/378/12 975/379/12 977/376/12
f 978/376/4 977/377/4 975/378/4
f 975/378/4 974/379/4 978/376/4
f 980/380/11 981/381/11 982/382/11
f 982/382/11 983/383/11 980/380/11
f 984/380/13 985/381/13 981/382/13
f 981/382/13 980/383/13 984/380/13
f 985/380/183 986/381/183 982/382/7
f 982/382/7 981/383/7 985/380/183
f 986/380/12 987/381/12 983/382/12
f 983/382/12 982/383/12 986/380/12
f 987/380/184 984/381/184 980/382/4
f 980/382/4 983/383/4 987/380/184
f 17/10/9 17/10/9 8/10/9
f 8/10/12 8/10/11 9/10/11
f 9/10/9 9/10/9 10/10/9
f 24/10/9 24/10/9 19/10/9
f 19/10/12 19/10/11 20/10/11
f 20/10/9 20/10/9 21/10/9
f 5/5/3 10/384/185 4/1/3
f 6/7/4 9/385/186 1/8/4
f 7/9/5 8/386/5 2/1/5
f 11/12/7 17/384/187 3/1/7
f 16/5/3 19/384/188 15/1/3
f 18/13/4 24/386/186 12/1/4
f 22/9/5 21/386/5 13/1/5
f 23/16/7 20/387/189 14/14/7
f 987/380/184 985/380/183 984/381/184
f 987/380/184 986/381/183 985/380/183
f 3/2/3 17/388/3 5/5/3
f 4/6/4 10/389/4 6/7/4
f 1/2/5 9/11/5 7/9/5
f 3/1/7 2/2/7 8/11/8
f 14/2/3 20/388/188 16/5/3
f 15/2/4 19/388/4 18/13/4
f 12/2/5 24/11/5 22/9/5
f 14/14/7 13/390/7 21/15/10
