# generated by tools/objdedupe/dedupe.py -- do not hand-edit.
# Re-run the tool after touching sssr_2svet_nove.obj, sssr_3svet_nove.obj, sssr_4svet_nove.obj, sssr_5svet_nove.obj, sssr_2se_nove.obj, sssr_3ab_nove.obj, sssr_4ab_nove.obj, sssr_pr_nove.obj, sssr_vl_nove.obj.
o stoz_3_zaklad
v -0.090749 1.156492 -0.199095
vt 0.793344 0.496512
vn -0.000000 0.994300 0.106200
v -0.084699 1.156492 -0.199095
vt 0.935447 0.496512
v -0.084699 1.159706 -0.229174
vt 0.935447 0.006378
vn -0.000000 0.994300 0.106300
v -0.090749 1.159706 -0.229174
vt 0.793344 0.006378
vn -0.000000 0.106300 -0.994300
v -0.085565 -0.000000 -0.353110
vt 0.915097 0.076568
vn -0.000000 -0.668500 -0.743700
vt 0.996710 0.496678
vn -1.000000 -0.000000 -0.000000
v -0.090749 -0.000000 -0.348743
vt 0.989419 0.071723
vt 0.937772 0.495768
vn -0.000000 -0.106300 0.994300
v -0.089868 -0.000000 -0.322687
vt 0.914759 0.077732
vn -0.000000 -0.743700 0.668500
vn 1.000000 -0.000000 -0.000000
v -0.084699 -0.000000 -0.322687
vt 0.935447 0.077732
v -0.084699 -0.000000 -0.327106
vt 0.914808 0.077563
v 0.084701 1.156492 -0.199095
v 0.090751 1.156492 -0.199095
v 0.090751 1.159706 -0.229174
v 0.084701 1.159706 -0.229174
v 0.089885 -0.000000 -0.353110
v 0.084701 -0.000000 -0.348743
vt 0.915049 0.076735
v 0.084701 -0.000000 -0.322687
vt 0.000000 0.000000
vn -0.000000 -0.000000 -0.000000
v 0.084701 -0.000000 -0.353110
v 0.085582 -0.000000 -0.322687
vn -0.000000 -0.000000 -1.000000
vn -0.000000 1.000000 -0.000000
v 0.090751 -0.000000 -0.353110
vt 0.997924 0.499013
v 0.090751 -0.000000 -0.322687
vt 0.937579 0.077150
v 0.090751 -0.000000 -0.327106
vt 0.946343 0.076980
v 0.060501 1.376073 -0.002946
vn -0.000000 -1.000000 -0.000000
v 0.060501 1.376073 0.003104
v -0.060499 1.376073 0.003104
v -0.060499 1.376073 -0.002946
v 0.060501 1.406323 -0.002946
v -0.060499 1.406323 -0.002946
v -0.060499 1.406323 0.003104
v 0.060501 1.406323 0.003104
vn -0.000000 -0.000000 1.000000
v -0.090612 1.376073 -0.176924
v -0.084608 1.376073 -0.177661
v -0.052166 1.376073 -0.001276
v -0.058171 1.376073 -0.000539
v -0.090612 1.406323 -0.176924
v -0.058171 1.406323 -0.000539
v -0.052166 1.406323 -0.001276
v -0.084608 1.406323 -0.177661
vn -0.983500 -0.000000 0.180900
vn 0.983500 -0.000000 -0.180900
v 0.084609 1.376073 -0.177661
v 0.090614 1.376073 -0.176924
v 0.058172 1.376073 -0.000539
v 0.052168 1.376073 -0.001276
v 0.084609 1.406323 -0.177661
v 0.052168 1.406323 -0.001276
v 0.058172 1.406323 -0.000539
v 0.090614 1.406323 -0.176924
vn -0.983500 -0.000000 -0.180900
vn 0.983500 -0.000000 0.180900
v -0.084699 1.159576 -0.229169
vn -0.000000 -0.994300 -0.106300
v -0.084699 1.156362 -0.199090
vn -0.000000 -0.994300 -0.106200
v -0.090749 1.156362 -0.199090
v -0.090749 1.159576 -0.229169
v -0.084699 2.623577 -0.072867
v -0.090749 2.623577 -0.072867
v -0.090749 2.623577 -0.042788
v -0.084699 2.623577 -0.042788
vn -0.000000 0.106200 -0.994300
vn -0.000000 -0.105900 0.994400
v 0.090751 1.159576 -0.229169
v 0.090751 1.156362 -0.199090
v 0.084701 1.156362 -0.199090
v 0.084701 1.159576 -0.229169
v 0.090751 2.623577 -0.072867
v 0.084701 2.623577 -0.072867
v 0.084701 2.623577 -0.042788
v 0.090751 2.623577 -0.042788
v -0.047189 2.593320 0.000079
vn -0.965900 -0.000000 0.258800
v -0.040867 2.593320 0.023674
v -0.040867 2.623569 0.023674
v -0.047189 2.623569 0.000079
vn -0.707100 -0.000000 0.707100
v -0.023594 2.593320 0.040947
v -0.023594 2.623569 0.040947
vn -0.258800 -0.000000 0.965900
v 0.000001 2.593320 0.047269
v 0.000001 2.623569 0.047269
vn 0.258800 -0.000000 0.965900
v 0.023596 2.593320 0.040947
v 0.023596 2.623569 0.040947
vn 0.707100 -0.000000 0.707100
v 0.040869 2.593320 0.023674
v 0.040869 2.623569 0.023674
vn 0.965900 -0.000000 0.258800
v 0.047191 2.593320 0.000079
v 0.047191 2.623569 0.000079
vn 0.965900 -0.000000 -0.258800
v 0.040869 2.593320 -0.023516
v 0.040869 2.623570 -0.023516
vn 0.707100 -0.000000 -0.707100
v 0.023596 2.593320 -0.040789
v 0.023596 2.623569 -0.040789
vn 0.258800 -0.000000 -0.965900
v 0.000001 2.593320 -0.047111
v 0.000001 2.623569 -0.047111
vn -0.258800 -0.000000 -0.965900
v -0.023594 2.593320 -0.040789
v -0.023594 2.623569 -0.040789
vn -0.707100 -0.000000 -0.707100
v -0.040867 2.593320 -0.023516
v -0.040867 2.623570 -0.023516
vn -0.965900 -0.000000 -0.258800
vt 0.851663 0.347574
vt 0.885045 0.347574
vt 0.913956 0.354846
vt 0.930647 0.367440
vt 0.930647 0.381982
vt 0.913956 0.394576
vt 0.885045 0.401847
vt 0.851663 0.401847
vt 0.822752 0.394576
vt 0.806061 0.381982
vt 0.806061 0.367440
vt 0.822752 0.354846
vn 0.000100 1.000000 -0.000000
vn -0.000000 1.000000 -0.000100
vn -0.000100 1.000000 -0.000000
v -0.047189 1.376073 0.000079
v -0.040867 1.376073 0.023674
v -0.040867 1.406323 0.023674
v -0.047189 1.406323 0.000079
v -0.023594 1.376073 0.040947
v -0.023594 1.406323 0.040947
v 0.000001 1.376073 0.047269
v 0.000001 1.406323 0.047269
v 0.023596 1.376073 0.040947
v 0.023596 1.406323 0.040947
v 0.040869 1.376073 0.023674
v 0.040869 1.406323 0.023674
v 0.047191 1.376073 0.000079
v 0.047191 1.406323 0.000079
v 0.040869 1.376073 -0.023516
v 0.040869 1.406323 -0.023516
v 0.023596 1.376073 -0.040789
v 0.023596 1.406323 -0.040789
v 0.000001 1.376073 -0.047111
v 0.000001 1.406323 -0.047111
v -0.023594 1.376073 -0.040789
v -0.023594 1.406323 -0.040789
v -0.040867 1.376073 -0.023516
v -0.040867 1.406323 -0.023516
v -0.080188 2.593333 -0.028569
vt 0.926731 0.398062
v -0.085638 2.593333 -0.025944
vt 0.803127 0.398062
v -0.090705 2.593333 -0.048146
vt 0.803127 0.291566
v -0.084655 2.593333 -0.048146
vt 0.926731 0.304157
v -0.067668 2.593333 -0.012869
v -0.071440 2.593333 -0.008139
vn -0.000000 -1.000000 -0.000100
v -0.049576 2.593333 -0.004157
v -0.050922 2.593333 0.001741
vn -0.000000 -1.000000 0.000100
v 0.049578 2.593333 -0.004157
v 0.050924 2.593333 0.001741
vt 0.926731 0.294381
v 0.067670 2.593333 -0.012869
v 0.071442 2.593333 -0.008139
v 0.080190 2.593333 -0.028569
v 0.085640 2.593333 -0.025944
v 0.084657 2.593333 -0.048146
v 0.090707 2.593333 -0.048146
v -0.080188 2.623582 -0.028569
v -0.084655 2.623582 -0.048146
vt 0.817741 0.398062
v -0.090705 2.623582 -0.048146
v -0.085638 2.623582 -0.025944
vt 0.926731 0.291566
v -0.067668 2.623582 -0.012869
v -0.071440 2.623582 -0.008139
v -0.049576 2.623582 -0.004157
v -0.050922 2.623582 0.001741
v 0.049578 2.623582 -0.004157
vt 0.806394 0.398062
v 0.050924 2.623582 0.001741
v 0.067670 2.623582 -0.012869
v 0.071442 2.623582 -0.008139
v 0.080190 2.623582 -0.028569
v 0.085640 2.623582 -0.025944
v 0.084657 2.623582 -0.048146
v 0.090707 2.623582 -0.048146
vn -0.974900 -0.000000 0.222500
vn -0.781900 -0.000000 0.623500
vn -0.433800 -0.000000 0.901000
vn -0.433900 -0.000000 0.901000
vn 0.433800 -0.000000 0.901000
vn 0.433900 -0.000000 0.901000
vn 0.781900 -0.000000 0.623500
vn 0.974900 -0.000000 0.222500
vn -0.974900 -0.000000 -0.222500
vn -0.781800 -0.000000 -0.623500
vn -0.433900 -0.000000 -0.901000
vn 0.433900 -0.000000 -0.901000
vn 0.781800 -0.000000 -0.623500
vn 0.974900 -0.000000 -0.222500
v 0.087726 0.272303 -0.312057
v 0.087726 0.271660 -0.306040
v -0.087724 0.271660 -0.306040
v -0.087724 0.272303 -0.312057
v 0.087726 0.284335 -0.310771
v -0.087724 0.284335 -0.310771
v -0.087724 0.283692 -0.304754
v 0.087726 0.283692 -0.304754
v 0.087726 0.484053 -0.289309
v 0.087726 0.483410 -0.283293
v -0.087724 0.483410 -0.283293
v -0.087724 0.484053 -0.289309
v 0.087726 0.496085 -0.288023
v -0.087724 0.496085 -0.288023
v -0.087724 0.495442 -0.282007
v 0.087726 0.495442 -0.282007
v 0.087726 0.695803 -0.266561
v 0.087726 0.695160 -0.260545
v -0.087724 0.695160 -0.260545
v -0.087724 0.695803 -0.266561
v 0.087726 0.707835 -0.265275
v -0.087724 0.707835 -0.265275
v -0.087724 0.707192 -0.259259
v 0.087726 0.707192 -0.259259
v 0.087726 0.907553 -0.243813
v 0.087726 0.906910 -0.237797
v -0.087724 0.906910 -0.237797
v -0.087724 0.907553 -0.243813
v 0.087726 0.919585 -0.242527
v -0.087724 0.919585 -0.242527
v -0.087724 0.918942 -0.236511
v 0.087726 0.918942 -0.236511
v 0.087726 1.119303 -0.221065
v 0.087726 1.118660 -0.215049
v -0.087724 1.118660 -0.215049
v -0.087724 1.119303 -0.221065
v 0.087726 1.131335 -0.219779
v -0.087724 1.131335 -0.219779
v -0.087724 1.130692 -0.213763
v 0.087726 1.130692 -0.213763
v 0.087726 1.331053 -0.198317
v 0.087726 1.330410 -0.192301
v -0.087724 1.330410 -0.192301
v -0.087724 1.331053 -0.198317
v 0.087726 1.343085 -0.197031
v -0.087724 1.343085 -0.197031
v -0.087724 1.342442 -0.191015
v 0.087726 1.342442 -0.191015
v 0.087726 1.542803 -0.175569
v 0.087726 1.542160 -0.169553
v -0.087724 1.542160 -0.169553
v -0.087724 1.542803 -0.175569
v 0.087726 1.554835 -0.174283
v -0.087724 1.554835 -0.174283
v -0.087724 1.554192 -0.168267
v 0.087726 1.554192 -0.168267
v 0.087726 1.754553 -0.152821
v 0.087726 1.753910 -0.146805
v -0.087724 1.753910 -0.146805
v -0.087724 1.754553 -0.152821
v 0.087726 1.766584 -0.151535
vn -0.000000 0.994400 0.106100
v -0.087724 1.766584 -0.151535
v -0.087724 1.765942 -0.145519
v 0.087726 1.765942 -0.145519
v 0.087726 1.966303 -0.130073
v 0.087726 1.965660 -0.124057
v -0.087724 1.965660 -0.124057
v -0.087724 1.966303 -0.130073
v 0.087726 1.978334 -0.128787
v -0.087724 1.978334 -0.128787
v -0.087724 1.977692 -0.122771
v 0.087726 1.977692 -0.122771
v 0.087726 2.178053 -0.107325
v 0.087726 2.177410 -0.101309
v -0.087724 2.177410 -0.101309
v -0.087724 2.178053 -0.107325
v 0.087726 2.190084 -0.106039
v -0.087724 2.190084 -0.106039
v -0.087724 2.189442 -0.100023
v 0.087726 2.189442 -0.100023
v 0.087726 2.389803 -0.084577
v 0.087726 2.389160 -0.078561
v -0.087724 2.389160 -0.078561
v -0.087724 2.389803 -0.084577
v 0.087726 2.401834 -0.083291
v -0.087724 2.401834 -0.083291
v -0.087724 2.401192 -0.077275
v 0.087726 2.401192 -0.077275
v -0.102849 0.036300 0.175450
vn -0.000000 0.800000 0.600000
v -0.090749 0.036300 0.175450
vt 1.000000 0.000000
v -0.090749 0.054450 0.151250
vt 1.000000 1.000000
v -0.102849 0.054450 0.151250
vt 0.000000 1.000000
v -0.102849 0.054450 -0.151250
vn -0.000000 0.800000 -0.600000
v -0.090749 0.054450 -0.151250
v -0.090749 0.036300 -0.175450
v -0.102849 0.036300 -0.175450
v -0.102849 0.018150 0.193600
vt 0.710457 0.823482
vn -0.000000 0.707100 0.707100
v -0.090749 0.018150 0.193600
vt 0.861514 0.823482
vt 0.866433 0.892552
vt 0.715376 0.892552
v -0.090749 0.018150 0.151250
v -0.090749 0.018150 -0.151250
v -0.090749 0.018150 -0.193600
vn -0.000000 0.707100 -0.707100
v -0.102849 0.018150 -0.193600
v -0.102849 0.018150 -0.151250
v -0.102849 0.018150 0.151250
v 0.090751 0.036300 0.175450
v 0.102851 0.036300 0.175450
v 0.102851 0.054450 0.151250
v 0.090751 0.054450 0.151250
v 0.090751 0.054450 -0.151250
v 0.102851 0.054450 -0.151250
v 0.102851 0.036300 -0.175450
v 0.090751 0.036300 -0.175450
v 0.090751 0.018150 0.193600
v 0.102851 0.018150 0.193600
v 0.102851 0.018150 0.151250
v 0.102851 0.018150 -0.151250
v 0.102851 0.018150 -0.193600
v 0.090751 0.018150 -0.193600
v 0.090751 0.018150 -0.151250
v 0.090751 0.018150 0.151250
v -0.111924 0.018150 -0.175450
vn 0.866000 -0.000000 -0.500000
v -0.119487 0.042350 -0.188549
v -0.111924 0.042350 -0.175450
v -0.119487 0.018150 -0.188549
v -0.134612 0.042350 -0.188549
v -0.134612 0.018150 -0.188549
vn -0.866000 -0.000000 -0.500000
v -0.142174 0.042350 -0.175450
v -0.142174 0.018150 -0.175450
vn -0.866000 -0.000000 0.500000
v -0.134612 0.042350 -0.162351
v -0.134612 0.018150 -0.162351
v -0.119487 0.042350 -0.162351
v -0.119487 0.018150 -0.162351
vn 0.866000 -0.000000 0.500000
v -0.127049 0.042350 -0.175450
v 0.142176 0.018150 -0.175450
v 0.134614 0.042350 -0.188549
v 0.142176 0.042350 -0.175450
v 0.134614 0.018150 -0.188549
v 0.119489 0.042350 -0.188549
v 0.119489 0.018150 -0.188549
v 0.111926 0.042350 -0.175450
v 0.111926 0.018150 -0.175450
v 0.119489 0.042350 -0.162351
v 0.119489 0.018150 -0.162351
v 0.134614 0.042350 -0.162351
v 0.134614 0.018150 -0.162351
v 0.127051 0.042350 -0.175450
v -0.111924 0.018150 0.175450
v -0.119487 0.042350 0.162351
v -0.111924 0.042350 0.175450
v -0.119487 0.018150 0.162351
v -0.134612 0.042350 0.162351
v -0.134612 0.018150 0.162351
v -0.142174 0.042350 0.175450
v -0.142174 0.018150 0.175450
v -0.134612 0.042350 0.188549
v -0.134612 0.018150 0.188549
v -0.119487 0.042350 0.188549
v -0.119487 0.018150 0.188549
v -0.127049 0.042350 0.175450
v 0.142176 0.018150 0.175450
v 0.134614 0.042350 0.162351
v 0.142176 0.042350 0.175450
v 0.134614 0.018150 0.162351
v 0.119489 0.042350 0.162351
v 0.119489 0.018150 0.162351
v 0.111926 0.042350 0.175450
v 0.111926 0.018150 0.175450
v 0.119489 0.042350 0.188549
v 0.119489 0.018150 0.188549
v 0.134614 0.042350 0.188549
v 0.134614 0.018150 0.188549
v 0.127051 0.042350 0.175450
v -0.120525 0.054450 -0.180190
vn 0.951000 -0.000000 -0.309200
v -0.118984 0.054450 -0.175450
v -0.118984 0.042350 -0.175450
v -0.120525 0.042350 -0.180190
v -0.124557 0.054450 -0.183120
vn 0.587900 -0.000000 -0.809000
v -0.124557 0.042350 -0.183120
v -0.129541 0.054450 -0.183120
v -0.129541 0.042350 -0.183120
v -0.133573 0.054450 -0.180190
vn -0.587900 -0.000000 -0.809000
v -0.133573 0.042350 -0.180190
v -0.135114 0.054450 -0.175450
vn -0.951000 -0.000000 -0.309200
v -0.135114 0.042350 -0.175450
v -0.133573 0.054450 -0.170710
vn -0.951000 -0.000000 0.309200
v -0.133573 0.042350 -0.170710
v -0.129541 0.054450 -0.167780
vn -0.587900 -0.000000 0.809000
v -0.129541 0.042350 -0.167780
v -0.124557 0.054450 -0.167780
v -0.124557 0.042350 -0.167780
v -0.120525 0.054450 -0.170710
vn 0.587900 -0.000000 0.809000
v -0.120525 0.042350 -0.170710
v 0.133575 0.054450 -0.180190
v 0.135116 0.054450 -0.175450
v 0.135116 0.042350 -0.175450
v 0.133575 0.042350 -0.180190
v 0.129543 0.054450 -0.183120
v 0.129543 0.042350 -0.183120
v 0.124559 0.054450 -0.183120
v 0.124559 0.042350 -0.183120
v 0.120527 0.054450 -0.180190
v 0.120527 0.042350 -0.180190
v 0.118986 0.054450 -0.175450
v 0.118986 0.042350 -0.175450
v 0.120527 0.054450 -0.170710
v 0.120527 0.042350 -0.170710
v 0.124559 0.054450 -0.167780
v 0.124559 0.042350 -0.167780
v 0.129543 0.054450 -0.167780
v 0.129543 0.042350 -0.167780
v 0.133575 0.054450 -0.170710
v 0.133575 0.042350 -0.170710
v -0.120525 0.054450 0.170710
v -0.118984 0.054450 0.175450
v -0.118984 0.042350 0.175450
v -0.120525 0.042350 0.170710
v -0.124557 0.054450 0.167780
v -0.124557 0.042350 0.167780
v -0.129541 0.054450 0.167780
v -0.129541 0.042350 0.167780
v -0.133573 0.054450 0.170710
v -0.133573 0.042350 0.170710
v -0.135114 0.054450 0.175450
v -0.135114 0.042350 0.175450
v -0.133573 0.054450 0.180190
v -0.133573 0.042350 0.180190
v -0.129541 0.054450 0.183120
v -0.129541 0.042350 0.183120
v -0.124557 0.054450 0.183120
v -0.124557 0.042350 0.183120
v -0.120525 0.054450 0.180190
v -0.120525 0.042350 0.180190
v 0.133575 0.054450 0.170710
v 0.135116 0.054450 0.175450
v 0.135116 0.042350 0.175450
v 0.133575 0.042350 0.170710
v 0.129543 0.054450 0.167780
v 0.129543 0.042350 0.167780
v 0.124559 0.054450 0.167780
v 0.124559 0.042350 0.167780
v 0.120527 0.054450 0.170710
v 0.120527 0.042350 0.170710
v 0.118986 0.054450 0.175450
v 0.118986 0.042350 0.175450
v 0.120527 0.054450 0.180190
v 0.120527 0.042350 0.180190
v 0.124559 0.054450 0.183120
v 0.124559 0.042350 0.183120
v 0.129543 0.054450 0.183120
v 0.129543 0.042350 0.183120
v 0.133575 0.054450 0.180190
v 0.133575 0.042350 0.180190
vn 0.951000 -0.000000 0.309200
v -0.151249 0.018150 0.151250
vt 0.500198 0.505327
v 0.151251 0.018150 0.151250
vt 1.000000 0.505327
v 0.151251 0.369050 0.151249
vt 1.000000 0.958432
v -0.151249 0.369050 0.151249
vt 0.500198 0.958432
v 0.151251 0.018150 -0.151250
v 0.151251 0.369050 -0.151251
v -0.151249 0.018150 -0.151250
v -0.151249 0.369050 -0.151251
v -0.130074 0.393250 0.130074
vt 0.601336 0.585927
v 0.130076 0.393250 0.130074
vt 0.900388 0.585927
v 0.130076 0.393250 -0.130075
vt 0.900388 0.884979
v -0.130074 0.393250 -0.130075
vt 0.601336 0.884979
vt 0.500355 0.951937
vn -0.000000 0.447200 0.894400
vt 0.998965 0.954578
v 0.145201 0.381150 0.145199
vt 0.995487 0.924293
vn -0.000000 0.562900 0.826500
v -0.145199 0.381150 0.145199
vt 0.506621 0.926249
vn -0.000000 0.563000 0.826500
vt 0.978358 0.945309
vn -0.000000 0.780900 0.624700
vt 0.524395 0.942869
vt 0.500336 0.951923
vn 0.894400 0.447200 -0.000000
vt 0.998907 0.954611
v 0.145201 0.381150 -0.145201
vt 0.995423 0.924347
vn 0.826500 0.562900 -0.000000
vt 0.506699 0.926265
vt 0.506663 0.926235
vn 0.624700 0.780900 -0.000000
vt 0.978332 0.945286
vt 0.524395 0.942771
vn -0.000000 0.447200 -0.894400
vt 0.500355 0.951938
v -0.145199 0.381150 -0.145201
vt 0.506621 0.926252
vn -0.000000 0.562900 -0.826500
vt 0.995487 0.924295
vn -0.000000 0.563000 -0.826500
vt 0.524574 0.942870
vn -0.000000 0.780900 -0.624700
vt 0.978358 0.945311
vn -0.894400 0.447200 -0.000000
vn -0.826500 0.562900 -0.000000
vn -0.826500 0.563000 -0.000000
vt 0.524396 0.942771
vn -0.624700 0.780900 -0.000000
vt 0.978332 0.945285
v -0.111924 0.090448 0.166375
vt 0.692158 0.718517
v -0.111924 0.090448 0.151250
vt 0.862272 0.718517
v 0.111926 0.090448 0.151250
vt 0.859930 0.836566
v 0.111926 0.090448 0.166375
vt 0.689817 0.836566
v -0.111924 0.314298 0.166374
v 0.111926 0.314298 0.166374
v 0.111926 0.314298 0.151249
v -0.111924 0.314298 0.151249
vt 0.498347 0.000000
vt 0.498347 0.500171
vt 0.000000 0.500171
v 0.027226 0.420172 0.047154
vt 0.177506 0.503805
v 0.000001 0.420172 0.054449
vt 0.126199 0.503805
v -0.027224 0.420172 0.047154
vt 0.115225 0.503805
v -0.047154 0.420172 0.027224
vt 0.147525 0.503805
v -0.054449 0.420172 -0.000001
vt 0.214444 0.503805
v -0.047154 0.420172 -0.027226
vt 0.298050 0.503805
v -0.027224 0.420172 -0.047156
vt 0.375942 0.503805
v 0.000001 0.420172 -0.054451
vt 0.427249 0.503805
v 0.027226 0.420172 -0.047156
vt 0.438223 0.503805
v 0.047156 0.420172 -0.027226
vt 0.405923 0.503805
v 0.054451 0.420172 -0.000001
vt 0.373623 0.503805
v 0.047156 0.420172 0.027224
vt 0.255398 0.503805
v 0.047156 0.689700 -0.027226
vt 0.405923 1.000000
v 0.054451 0.689700 -0.000001
vt 0.373623 1.000000
vt 0.219423 0.877242
vt 0.190959 0.905706
v 0.027226 0.689700 -0.047156
vt 0.050626 0.503805
vt 0.082926 0.503805
v 0.000001 0.689700 -0.054451
vt 0.082925 1.000000
vn 0.000100 -0.000000 -1.000000
vt 0.050626 1.000000
vt 0.082925 0.503805
vn -0.500000 -0.000000 -0.866000
v -0.027224 0.689700 -0.047156
vt 0.115225 1.000000
vn -0.000100 -0.000000 -1.000000
v -0.047154 0.689700 -0.027226
vt 0.147525 1.000000
vt 0.179825 0.503805
v -0.054449 0.689700 -0.000001
vt 0.179825 1.000000
vt 0.212124 0.503805
v -0.047154 0.689700 0.027224
vt 0.212124 1.000000
vt 0.244424 0.503805
vn -0.500000 -0.000000 0.866000
v -0.027224 0.689700 0.047154
vt 0.244424 1.000000
vt 0.276724 0.503805
v 0.000001 0.689700 0.054449
vt 0.276724 1.000000
vt 0.309024 0.503805
vn 0.500000 -0.000000 0.866000
v 0.027226 0.689700 0.047154
vt 0.309024 1.000000
vt 0.341323 0.503805
v 0.047156 0.689700 0.027224
vt 0.341323 1.000000
vt 0.229842 0.838359
vt 0.152076 0.916124
vt 0.113194 0.905706
vt 0.084730 0.877242
vt 0.074311 0.838359
vt 0.084730 0.799477
vt 0.113194 0.771013
vt 0.152076 0.760594
vt 0.190959 0.771013
vt 0.219423 0.799477
vt 0.154427 0.924774
v 0.066551 0.689700 -0.009076
vt 0.139826 0.944241
v 0.052020 0.689700 -0.009076
vt 0.139826 0.920862
v -0.090749 0.441650 0.009074
vt 0.283141 1.000000
vn -0.763800 0.645500 -0.000000
v -0.090749 0.441650 -0.009076
vt 0.237258 1.000000
v -0.108899 0.420172 -0.009076
vt 0.237258 0.506849
v -0.108899 0.420172 0.009074
vt 0.283141 0.506849
v -0.066549 0.689700 0.009074
vn -0.995300 0.097100 -0.000000
v -0.066549 0.689700 -0.009076
vt 0.488967 0.553445
vt 0.494749 0.498130
v -0.052018 0.420172 0.009074
vt 0.440344 0.498130
v -0.052018 0.441650 0.009074
vt 0.440344 0.553445
v -0.052018 0.689700 0.009074
vt 0.440344 0.994848
vt 0.488532 0.994848
v 0.090751 0.441650 -0.009076
vn 0.763800 0.645500 -0.000000
v 0.090751 0.441650 0.009074
v 0.108901 0.420172 0.009074
v 0.108901 0.420172 -0.009076
vn 0.995300 0.097100 -0.000000
v 0.066551 0.689700 0.009074
vt 0.006581 0.553445
vt 0.000798 0.498130
v 0.052020 0.420172 -0.009076
vt 0.055204 0.498130
v 0.052020 0.441650 -0.009076
vt 0.055204 0.553445
vt 0.055204 0.994848
vt 0.007016 0.994848
vt 0.153259 0.765840
v -0.015124 0.689700 -0.066551
vt 0.171694 0.751092
v -0.015124 0.689700 -0.050398
vt 0.171694 0.770780
v 0.015126 0.438323 0.066549
vn -0.000000 0.554700 0.832100
v -0.015124 0.438323 0.066549
v -0.015124 0.420172 0.078649
v 0.015126 0.420172 0.078649
v 0.015126 0.689700 0.066549
v -0.015124 0.689700 0.066549
v 0.015126 0.420172 -0.050398
vt 0.058277 0.505827
v 0.015126 0.420172 -0.078651
vt 0.006804 0.505827
v 0.015126 0.438323 -0.066551
vt 0.008428 0.551118
v 0.015126 0.438323 -0.050398
vt 0.058277 0.551118
v 0.015126 0.689700 -0.050398
vt 0.058277 0.999500
v 0.015126 0.689700 -0.066551
vt 0.008428 0.999500
v -0.015124 0.438323 -0.066551
vn -0.000000 0.554700 -0.832100
v -0.015124 0.420172 -0.078651
v -0.015124 0.420172 -0.050398
v -0.015124 0.438323 -0.050398
vt 0.058277 0.999501
vt 0.008428 0.999501
v 0.052020 0.441650 0.009074
v 0.052020 0.420172 0.009074
v -0.052018 0.441650 -0.009076
v -0.052018 0.420172 -0.009076
v 0.015126 0.420172 0.050396
vt 0.441178 0.505827
v 0.015126 0.438323 0.050396
vt 0.441178 0.551118
vt 0.491028 0.551118
vt 0.492651 0.505827
v -0.015124 0.438323 0.050396
v -0.015124 0.420172 0.050396
vt 0.169027 0.730102
vt 0.169027 0.753482
v -0.052304 0.689700 0.008006
vt 0.167308 0.753021
vt 0.154427 0.749570
v -0.052018 0.689700 -0.009076
vt 0.491028 0.999500
v 0.015126 0.689700 0.050396
vt 0.441178 0.999500
vt 0.134824 0.913319
vt 0.134824 0.893631
vt 0.153259 0.898571
vt 0.491028 0.999501
v -0.015124 0.689700 0.050396
vt 0.441178 0.999501
v 0.052020 0.689700 0.009074
vt 0.169027 0.920862
vt 0.169027 0.944241
vt 0.134824 0.770780
vt 0.134824 0.751092
vt 0.139826 0.730102
vt 0.139826 0.753482
v -0.013170 0.689700 0.050920
vt 0.169312 0.894269
vt 0.171694 0.893631
vt 0.171694 0.913319
v -0.072599 0.436810 0.040540
vt 0.286266 0.807357
vn -0.000000 -0.866000 -0.500000
v -0.048399 0.436810 0.040540
vt 0.335091 0.807783
v -0.048399 0.432273 0.048399
vt 0.335518 0.758909
v -0.072599 0.432273 0.048399
vt 0.286693 0.758483
vt 0.337651 0.514539
vt 0.288825 0.514113
v -0.072599 0.445885 0.040540
vt 0.288399 0.562987
vn -0.000000 0.500000 -0.866000
v -0.048399 0.445885 0.040540
vt 0.337224 0.563413
v -0.072599 0.450423 0.048399
vt 0.287972 0.611861
v -0.048399 0.450423 0.048399
vt 0.336798 0.612287
v -0.072599 0.445885 0.056258
vt 0.287546 0.660735
vn -0.000000 0.500000 0.866000
v -0.048399 0.445885 0.056258
vt 0.336371 0.661161
v -0.072599 0.436810 0.056258
vt 0.287119 0.709609
vn -0.000000 -0.500000 0.866000
v -0.048399 0.436810 0.056258
vt 0.335944 0.710035
vt 0.364145 0.793565
vt 0.339120 0.839141
vt 0.364145 0.884716
vt 0.414195 0.884716
vt 0.439220 0.839141
vt 0.414195 0.793565
v 0.072601 0.436810 0.040540
v 0.072601 0.445885 0.040540
v 0.072601 0.450423 0.048399
v 0.072601 0.445885 0.056258
v 0.072601 0.436810 0.056258
v 0.072601 0.432273 0.048399
vt 0.286603 0.758346
vt 0.287029 0.709472
v 0.048401 0.436810 0.056258
vt 0.335854 0.709898
v 0.048401 0.432273 0.048399
vt 0.335428 0.758772
v 0.048401 0.436810 0.040540
vt 0.335001 0.807647
vt 0.286176 0.807220
vt 0.288309 0.562850
vt 0.288735 0.513976
vt 0.337560 0.514402
v 0.048401 0.445885 0.040540
vt 0.337134 0.563276
v 0.048401 0.450423 0.048399
vt 0.336707 0.612150
vt 0.287882 0.611724
vt 0.287456 0.660598
v 0.048401 0.445885 0.056258
vt 0.336281 0.661024
v -0.027224 0.423602 0.047154
vt 0.184137 0.851110
vn -0.000000 -0.951000 -0.309300
v -0.022578 0.423197 0.048399
vt 0.178421 0.847688
vn 0.000100 -0.965800 0.259100
v -0.048399 0.423197 0.048399
vt 0.210188 0.847688
v -0.048399 0.426664 0.037730
vt 0.210188 0.877014
vn -0.000000 -0.809000 -0.587800
v -0.036647 0.426664 0.037730
vt 0.195730 0.877014
vn -0.000000 -0.875400 -0.483300
v -0.048399 0.435739 0.031137
vt 0.210188 0.906339
vn -0.000000 -0.309000 -0.951100
v -0.043241 0.435739 0.031137
vt 0.203842 0.906339
vn -0.000000 -0.353300 -0.935500
v -0.048399 0.446956 0.031137
vt 0.210188 0.935665
v -0.043241 0.446956 0.031137
vt 0.203842 0.935665
vt 0.203842 0.642410
vn -0.000000 0.587800 -0.809000
vt 0.210188 0.642410
v -0.048399 0.456031 0.037730
vt 0.210188 0.671735
vn -0.000000 0.809000 -0.587800
v -0.036647 0.456031 0.037730
vt 0.195730 0.671735
vn -0.000000 0.875400 -0.483300
v -0.048399 0.459498 0.048399
vt 0.210188 0.701061
v -0.022578 0.459498 0.048399
vt 0.178421 0.701061
vn -0.000000 0.965900 0.258900
v -0.027224 0.459093 0.047154
vt 0.184137 0.697639
vn -0.000000 0.951000 -0.309200
v -0.048399 0.456031 0.059068
vt 0.210188 0.730386
vn -0.000000 0.809000 0.587800
v -0.015124 0.456031 0.059068
vt 0.169250 0.730386
v -0.015124 0.457063 0.055893
vt 0.169250 0.721659
vn -0.000000 0.951100 0.309000
v -0.015124 0.458848 0.050396
vt 0.169250 0.706551
vn 0.000100 0.951100 0.308800
v 0.048401 0.446956 0.065661
vt 0.091097 0.759712
vn -0.000000 0.309000 0.951100
v 0.048401 0.456031 0.059068
vt 0.091097 0.730386
v 0.015126 0.456031 0.059068
vt 0.132035 0.730386
v 0.015126 0.446956 0.065661
vt 0.132035 0.759712
v 0.015126 0.435739 0.065661
vt 0.132035 0.789037
vn -0.000000 -0.309700 0.950800
v 0.048401 0.435739 0.065661
vt 0.091097 0.789037
vn -0.000000 -0.309000 0.951100
v 0.015126 0.426664 0.059068
vt 0.132035 0.818363
vn -0.000000 -0.809000 0.587800
v 0.048401 0.426664 0.059068
vt 0.091097 0.818363
v 0.015126 0.435600 0.065560
vt 0.132035 0.789486
vn -0.000000 -0.588400 0.808600
v -0.015124 0.425632 0.055892
vt 0.169250 0.827091
vn -0.000000 -0.951100 0.309000
v -0.015124 0.426664 0.059068
vt 0.169250 0.818363
v -0.048399 0.426664 0.059068
vt 0.210188 0.818363
v -0.015124 0.423847 0.050396
vt 0.169250 0.842198
v -0.048399 0.435739 0.065661
vt 0.161636 0.796197
v -0.048399 0.446956 0.065661
vt 0.116504 0.796197
vt 0.079991 0.824090
vt 0.066044 0.869222
vt 0.079991 0.914355
vt 0.116504 0.942248
vt 0.161636 0.942248
vt 0.198149 0.914355
vt 0.212096 0.869222
vt 0.198149 0.824090
v 0.048401 0.426664 0.037730
v 0.048401 0.435739 0.031137
v 0.048401 0.446956 0.031137
v 0.048401 0.456031 0.037730
v 0.048401 0.459498 0.048399
v 0.048401 0.423197 0.048399
v -0.072599 0.666710 0.040540
v -0.048399 0.666710 0.040540
vn -0.000000 -0.866000 -0.500100
v -0.048399 0.662172 0.048399
v -0.072599 0.662172 0.048399
v -0.072599 0.675785 0.040540
v -0.048399 0.675785 0.040540
v -0.072599 0.680323 0.048399
v -0.048399 0.680323 0.048399
v -0.072599 0.675785 0.056258
v -0.048399 0.675785 0.056258
v -0.072599 0.666710 0.056258
v -0.048399 0.666710 0.056258
v 0.072601 0.666710 0.040540
v 0.072601 0.675785 0.040540
v 0.072601 0.680323 0.048399
v 0.072601 0.675785 0.056258
v 0.072601 0.666710 0.056258
v 0.072601 0.662172 0.048399
v 0.048401 0.666710 0.056258
v 0.048401 0.662172 0.048399
v 0.048401 0.666710 0.040540
v 0.048401 0.675785 0.040540
v 0.048401 0.680323 0.048399
v 0.048401 0.675785 0.056258
v -0.027224 0.653502 0.047154
vt 0.184137 0.851111
vn -0.000000 -0.951200 -0.308700
v -0.022578 0.653098 0.048399
vn -0.000000 -0.965900 0.259000
v -0.048399 0.653098 0.048399
v -0.048399 0.656564 0.037730
v -0.036647 0.656564 0.037730
vn -0.000000 -0.875500 -0.483300
v -0.048399 0.665639 0.031137
v -0.043241 0.665639 0.031137
v -0.048399 0.676856 0.031137
v -0.043241 0.676856 0.031137
v -0.048399 0.685931 0.037730
v -0.036647 0.685931 0.037730
v -0.048399 0.689398 0.048399
v -0.022578 0.689398 0.048399
vn -0.000000 0.965900 0.259000
v -0.027224 0.688993 0.047154
vn -0.000000 0.951200 -0.308700
v -0.048399 0.685931 0.059068
v -0.015124 0.685931 0.059068
v -0.015124 0.686963 0.055892
v -0.015124 0.688749 0.050396
vn -0.000000 0.951000 0.309000
v 0.048401 0.676856 0.065661
v 0.048401 0.685931 0.059068
v 0.015126 0.685931 0.059068
v 0.015126 0.676856 0.065661
v 0.015126 0.665639 0.065661
v 0.048401 0.665639 0.065661
v 0.048401 0.656564 0.059068
v 0.015126 0.656564 0.059068
v -0.015124 0.655532 0.055892
v -0.015124 0.656564 0.059068
v -0.048399 0.656564 0.059068
v -0.015124 0.653747 0.050396
vn -0.000000 -0.951100 0.308900
v -0.048399 0.665639 0.065661
v -0.048399 0.676856 0.065661
v 0.048401 0.656564 0.037730
v 0.048401 0.665639 0.031137
v 0.048401 0.676856 0.031137
v 0.048401 0.685931 0.037730
v 0.048401 0.689398 0.048399
v 0.048401 0.653098 0.048399
v -0.072599 0.436810 -0.056260
v -0.048399 0.436810 -0.056260
v -0.048399 0.432273 -0.048401
v -0.072599 0.432273 -0.048401
v -0.072599 0.445885 -0.056260
v -0.048399 0.445885 -0.056260
v -0.072599 0.450423 -0.048401
v -0.048399 0.450423 -0.048401
v -0.072599 0.445885 -0.040542
v -0.048399 0.445885 -0.040542
v -0.072599 0.436810 -0.040542
v -0.048399 0.436810 -0.040542
v 0.072601 0.436810 -0.056260
v 0.072601 0.445885 -0.056260
v 0.072601 0.450423 -0.048401
v 0.072601 0.445885 -0.040542
v 0.072601 0.436810 -0.040542
v 0.072601 0.432273 -0.048401
v 0.048401 0.436810 -0.040542
v 0.048401 0.432273 -0.048401
v 0.048401 0.436810 -0.056260
v 0.048401 0.445885 -0.056260
v 0.048401 0.450423 -0.048401
v 0.048401 0.445885 -0.040542
v 0.015126 0.425632 -0.055895
vt 0.132035 0.868286
vn -0.000000 -0.951100 -0.309000
v 0.015126 0.426664 -0.059070
vt 0.132035 0.877014
v 0.048401 0.426664 -0.059070
vt 0.091097 0.877014
v 0.048401 0.423197 -0.048401
vt 0.091097 0.847688
v 0.022580 0.423197 -0.048401
vt 0.122864 0.847688
vn -0.000100 -0.965800 -0.259100
v 0.015126 0.423847 -0.050398
vt 0.132035 0.853179
vn -0.000000 -0.951100 -0.308900
v 0.015126 0.435600 -0.065562
vt 0.132035 0.905891
vn -0.000000 -0.587800 -0.809000
v 0.015126 0.435739 -0.065663
vt 0.132035 0.906339
v 0.048401 0.435739 -0.065663
vt 0.091097 0.906339
v 0.048401 0.446956 -0.065663
vt 0.091097 0.935665
v 0.015126 0.446956 -0.065663
vt 0.132035 0.935665
vt 0.132035 0.642410
vn -0.000000 0.587700 -0.809100
v 0.015126 0.456032 -0.059070
vt 0.132035 0.671735
vn -0.000000 0.809100 -0.587700
v 0.048401 0.456032 -0.059070
vt 0.091097 0.671735
vt 0.091097 0.642410
v 0.022580 0.459498 -0.048401
vt 0.122864 0.701061
vn -0.000000 0.965900 -0.258900
v 0.048401 0.459498 -0.048401
vt 0.091097 0.701061
v 0.015126 0.457063 -0.055894
vt 0.132035 0.680463
vn -0.000000 0.951100 -0.308900
v 0.015126 0.458848 -0.050398
vt 0.132035 0.695571
vn -0.000100 0.951100 -0.308900
v 0.036649 0.456032 -0.037732
vt 0.105555 0.730386
vn -0.000000 0.875500 0.483300
v 0.048401 0.456032 -0.037732
v 0.027226 0.459093 -0.047156
vt 0.117148 0.704483
vn -0.000000 0.951000 0.309200
v 0.043243 0.446956 -0.031139
vt 0.097443 0.759712
vn -0.000000 0.353300 0.935500
v 0.048401 0.446956 -0.031139
v 0.048401 0.435739 -0.031139
v 0.043243 0.435739 -0.031139
vt 0.097443 0.789037
vn -0.000000 -0.353300 0.935500
v 0.036649 0.426664 -0.037732
vt 0.105555 0.818363
vn -0.000000 -0.875400 0.483300
v 0.048401 0.426664 -0.037732
v 0.027226 0.423602 -0.047156
vt 0.117148 0.844266
vn -0.000000 -0.951000 0.309300
v -0.048399 0.435739 -0.031139
v -0.048399 0.446956 -0.031139
v -0.048399 0.456032 -0.037732
v -0.048399 0.459498 -0.048401
v -0.048399 0.456032 -0.059070
v -0.048399 0.446956 -0.065663
v -0.048399 0.435739 -0.065663
v -0.048399 0.426664 -0.059070
v -0.048399 0.423197 -0.048401
v -0.048399 0.426664 -0.037732
v -0.072599 0.666710 -0.056260
v -0.048399 0.666710 -0.056260
v -0.048399 0.662172 -0.048401
v -0.072599 0.662172 -0.048401
v -0.072599 0.675785 -0.056260
v -0.048399 0.675785 -0.056260
v -0.072599 0.680323 -0.048401
v -0.048399 0.680323 -0.048401
v -0.072599 0.675785 -0.040542
v -0.048399 0.675785 -0.040542
v -0.072599 0.666710 -0.040542
v -0.048399 0.666710 -0.040542
v 0.072601 0.666710 -0.056260
v 0.072601 0.675785 -0.056260
v 0.072601 0.680323 -0.048401
v 0.072601 0.675785 -0.040542
v 0.072601 0.666710 -0.040542
v 0.072601 0.662172 -0.048401
v 0.048401 0.666710 -0.040542
v 0.048401 0.662172 -0.048401
v 0.048401 0.666710 -0.056260
v 0.048401 0.675785 -0.056260
v 0.048401 0.680323 -0.048401
v 0.048401 0.675785 -0.040542
v 0.015126 0.655532 -0.055894
v 0.015126 0.656564 -0.059070
v 0.048401 0.656564 -0.059070
v 0.048401 0.653098 -0.048401
v 0.022580 0.653098 -0.048401
vn -0.000000 -0.965900 -0.259000
v 0.015126 0.653747 -0.050398
v 0.048401 0.665639 -0.065663
v 0.015126 0.665639 -0.065663
v 0.015126 0.676856 -0.065663
v 0.048401 0.676856 -0.065663
v 0.048401 0.685931 -0.059070
v 0.015126 0.685931 -0.059070
v 0.022580 0.689398 -0.048401
vn -0.000000 0.965900 -0.259000
v 0.048401 0.689398 -0.048401
v 0.015126 0.686963 -0.055894
vn -0.000000 0.951100 -0.309000
v 0.015126 0.688749 -0.050398
vn -0.000000 0.951000 -0.309000
v 0.036649 0.685931 -0.037732
vn -0.000000 0.875400 0.483300
v 0.048401 0.685931 -0.037732
v 0.027226 0.688993 -0.047156
vn -0.000000 0.951100 0.308800
v 0.043243 0.676856 -0.031139
v 0.048401 0.676856 -0.031139
v 0.048401 0.665639 -0.031139
v 0.043243 0.665639 -0.031139
v 0.036649 0.656564 -0.037732
vn -0.000000 -0.875500 0.483300
v 0.048401 0.656564 -0.037732
v 0.027226 0.653502 -0.047156
vn -0.000000 -0.951200 0.308700
v -0.048399 0.665639 -0.031139
v -0.048399 0.676856 -0.031139
v -0.048399 0.685931 -0.037732
v -0.048399 0.689398 -0.048401
v -0.048399 0.685931 -0.059070
v -0.048399 0.676856 -0.065663
v -0.048399 0.665639 -0.065663
v -0.048399 0.656564 -0.059070
v -0.048399 0.653098 -0.048401
v -0.048399 0.656564 -0.037732
vt 0.210188 0.759712
v -0.043241 0.446956 -0.031139
vt 0.203842 0.759712
v -0.036647 0.456032 -0.037732
vt 0.195730 0.730386
v -0.024073 0.459367 -0.048000
vt 0.180259 0.702162
vn -0.000000 0.951000 0.309100
v -0.022578 0.459498 -0.048401
vn -0.000000 0.965900 -0.258800
v -0.027224 0.459093 -0.047156
vt 0.184137 0.704483
vn -0.000000 0.951100 0.308900
v -0.043241 0.435739 -0.031139
vt 0.203842 0.789037
vt 0.210188 0.789037
v -0.036647 0.426664 -0.037732
vt 0.195730 0.818363
v -0.022578 0.423197 -0.048401
vn -0.000000 -0.965900 -0.258800
v -0.024073 0.423328 -0.048000
vt 0.180259 0.846588
v -0.027224 0.423602 -0.047156
vt 0.184137 0.844266
v -0.028064 0.423875 -0.046316
vt 0.185171 0.841956
vn -0.000200 -0.951200 0.308700
v -0.043241 0.676856 -0.031139
v -0.036647 0.685931 -0.037732
v -0.024073 0.689267 -0.048000
v -0.022578 0.689398 -0.048401
v -0.027224 0.688993 -0.047156
v -0.043241 0.665639 -0.031139
v -0.036647 0.656564 -0.037732
v -0.022578 0.653098 -0.048401
v -0.024073 0.653228 -0.048000
vn -0.000000 -0.951100 0.308800
v -0.027224 0.653502 -0.047156
v -0.028064 0.653775 -0.046316
v -0.015124 0.426664 -0.059070
vt 0.169250 0.877014
vn -0.000000 -0.809000 -0.587900
v -0.015124 0.426123 -0.057406
vt 0.169250 0.872442
v -0.015124 0.425632 -0.055894
vt 0.169250 0.868286
v -0.015124 0.423847 -0.050398
vt 0.169250 0.853179
vn 0.000100 -0.951100 -0.308900
v -0.015124 0.656564 -0.059070
vn -0.000000 -0.808900 -0.588000
v -0.015124 0.656024 -0.057406
v -0.015124 0.655532 -0.055894
vn -0.000000 -0.951000 -0.309100
v -0.015124 0.653747 -0.050398
v -0.015124 0.685931 -0.059070
vt 0.169250 0.671735
v -0.015124 0.686963 -0.055894
vt 0.169250 0.680463
v -0.015124 0.688749 -0.050398
vt 0.169250 0.695571
v 0.000001 0.687432 -0.054451
vt 0.150643 0.684430
vn -0.000000 0.951000 -0.309100
v -0.015124 0.458848 -0.050398
vn 0.000100 0.951100 -0.308900
v -0.015124 0.457063 -0.055894
v -0.015124 0.456572 -0.057406
vt 0.169250 0.676307
vn -0.000000 0.951100 -0.308800
v -0.015124 0.456032 -0.059070
vn -0.000000 0.808800 -0.588000
v 0.022580 0.423197 0.048399
vn -0.000000 -0.965900 0.258800
v 0.024075 0.423328 0.047998
vt 0.121026 0.848789
v 0.027226 0.423602 0.047154
vt 0.117148 0.851110
v 0.028066 0.423875 0.046314
vt 0.116114 0.853421
vn 0.000200 -0.951200 -0.308700
v 0.036649 0.426664 0.037730
vt 0.105555 0.877014
v 0.043243 0.435739 0.031137
vt 0.097443 0.906339
v 0.043243 0.446956 0.031137
vt 0.097443 0.935665
vt 0.097443 0.642410
v 0.036649 0.456031 0.037730
vt 0.105555 0.671735
v 0.024075 0.459367 0.047998
vt 0.121026 0.699960
v 0.022580 0.459498 0.048399
vn -0.000000 0.965900 0.258800
v 0.027226 0.459093 0.047154
vt 0.117148 0.697639
vn -0.000000 0.950900 -0.309400
v 0.022580 0.653098 0.048399
v 0.024075 0.653228 0.047998
vn -0.000000 -0.951100 -0.308800
v 0.027226 0.653502 0.047154
vt 0.117148 0.851111
v 0.028066 0.653775 0.046314
v 0.036649 0.656564 0.037730
v 0.043243 0.665639 0.031137
v 0.043243 0.676856 0.031137
v 0.036649 0.685931 0.037730
v 0.024075 0.689267 0.047998
v 0.022580 0.689398 0.048399
v 0.027226 0.688993 0.047154
v 0.015126 0.457063 0.055892
vt 0.132035 0.721659
v 0.015126 0.458848 0.050396
vt 0.132035 0.706551
vn -0.000100 0.951100 0.308900
v 0.000001 0.457532 0.054449
vt 0.150643 0.717691
v 0.015126 0.425632 0.055892
vt 0.132035 0.827091
v 0.015126 0.423847 0.050396
vt 0.132035 0.842198
vn -0.000100 -0.951100 0.308900
v 0.015126 0.686963 0.055892
v 0.015126 0.688749 0.050396
v 0.000001 0.687432 0.054449
v 0.015126 0.655532 0.055892
v 0.015126 0.653747 0.050396
v 0.000001 0.425163 -0.054451
vt 0.150643 0.864319
v -0.015124 0.435666 -0.065610
vt 0.169250 0.906104
vn -0.000000 -0.587500 -0.809300
v -0.015124 0.435739 -0.065663
vt 0.169250 0.906339
vn -0.000000 -0.309300 -0.951000
v -0.015124 0.435600 -0.065562
vt 0.169250 0.905891
vn -0.000000 -0.587300 -0.809400
v -0.015124 0.446956 -0.065663
vt 0.169250 0.935665
v 0.000001 0.655063 -0.054451
vn -0.000000 -0.951000 -0.309200
v -0.015124 0.676856 -0.065663
v -0.015124 0.665639 -0.065663
vt 0.169250 0.642410
v 0.000001 0.457532 -0.054451
v -0.015124 0.435666 0.065608
vt 0.169250 0.789272
vn -0.000000 -0.589100 0.808000
v -0.015124 0.435739 0.065661
vt 0.169250 0.789037
vn -0.000000 -0.311100 0.950400
v -0.015124 0.435600 0.065560
vt 0.169250 0.789486
vn -0.000000 -0.587400 0.809300
v 0.000001 0.425163 0.054449
vt 0.150643 0.831058
v -0.015124 0.446956 0.065661
vt 0.169250 0.759712
v -0.015124 0.665639 0.065661
v -0.015124 0.676856 0.065661
v 0.000001 0.655063 0.054449
v 0.094250 0.455469 -0.092466
vt 0.377880 0.889257
vn 0.809000 -0.000000 -0.587800
v 0.095791 0.455469 -0.087726
vt 0.370893 0.889257
v 0.095791 0.443369 -0.087726
vt 0.370893 0.842681
v 0.094250 0.443369 -0.092466
vt 0.377880 0.842681
v 0.090218 0.455469 -0.095396
vt 0.384866 0.889257
vn 0.309100 -0.000000 -0.951000
v 0.090218 0.443369 -0.095396
vt 0.384866 0.842681
v 0.085234 0.455469 -0.095396
vt 0.391852 0.889257
v 0.085234 0.443369 -0.095396
vt 0.391852 0.842681
v 0.081202 0.455469 -0.092466
vt 0.328975 0.889257
vn -0.809000 -0.000000 -0.587800
vt 0.321989 0.889257
vt 0.321989 0.842681
v 0.081202 0.443369 -0.092466
vt 0.328975 0.842681
v 0.079661 0.455469 -0.087726
vt 0.335961 0.889257
v 0.079661 0.443369 -0.087726
vt 0.335961 0.842681
v 0.081202 0.455469 -0.082986
vt 0.342948 0.889257
vn -0.809000 -0.000000 0.587800
v 0.081202 0.443369 -0.082986
vt 0.342948 0.842681
v 0.085234 0.455469 -0.080056
vt 0.349934 0.889257
vn -0.309100 -0.000000 0.951000
v 0.085234 0.443369 -0.080056
vt 0.349934 0.842681
v 0.090218 0.455469 -0.080056
vt 0.356920 0.889257
vn 0.309100 -0.000000 0.951000
v 0.090218 0.443369 -0.080056
vt 0.356920 0.842681
v 0.094250 0.455469 -0.082986
vt 0.363907 0.889257
vn 0.809000 -0.000000 0.587800
v 0.094250 0.443369 -0.082986
vt 0.363907 0.842681
vt 0.332895 0.882586
vt 0.320205 0.865120
vt 0.320205 0.843531
vt 0.332895 0.826065
vt 0.353427 0.819394
vt 0.373960 0.826065
vt 0.386649 0.843531
vt 0.386649 0.865120
vt 0.373960 0.882586
vt 0.353427 0.889257
v -0.081200 0.455469 -0.092466
v -0.079659 0.455469 -0.087726
v -0.079659 0.443369 -0.087726
v -0.081200 0.443369 -0.092466
v -0.085232 0.455469 -0.095396
v -0.085232 0.443369 -0.095396
v -0.090216 0.455469 -0.095396
v -0.090216 0.443369 -0.095396
v -0.094248 0.455469 -0.092466
v -0.094248 0.443369 -0.092466
v -0.095789 0.455469 -0.087726
v -0.095789 0.443369 -0.087726
v -0.094248 0.455469 -0.082986
v -0.094248 0.443369 -0.082986
v -0.090216 0.455469 -0.080056
v -0.090216 0.443369 -0.080056
v -0.085232 0.455469 -0.080056
v -0.085232 0.443369 -0.080056
v -0.081200 0.455469 -0.082986
v -0.081200 0.443369 -0.082986
v -0.081200 0.455263 0.082984
v -0.079659 0.455263 0.087724
v -0.079659 0.443163 0.087724
v -0.081200 0.443163 0.082984
v -0.085232 0.455263 0.080054
v -0.085232 0.443163 0.080054
v -0.090216 0.455263 0.080054
v -0.090216 0.443163 0.080054
v -0.094248 0.455263 0.082984
v -0.094248 0.443163 0.082984
v -0.095789 0.455263 0.087724
v -0.095789 0.443163 0.087724
v -0.094248 0.455263 0.092464
v -0.094248 0.443163 0.092464
v -0.090216 0.455263 0.095394
v -0.090216 0.443163 0.095394
v -0.085232 0.455263 0.095394
v -0.085232 0.443163 0.095394
v -0.081200 0.455263 0.092464
v -0.081200 0.443163 0.092464
v 0.094250 0.455469 0.082984
v 0.095791 0.455469 0.087724
v 0.095791 0.443369 0.087724
v 0.094250 0.443369 0.082984
v 0.090218 0.455469 0.080054
v 0.090218 0.443369 0.080054
v 0.085234 0.455469 0.080054
v 0.085234 0.443369 0.080054
v 0.081202 0.455469 0.082984
v 0.081202 0.443369 0.082984
v 0.079661 0.455469 0.087724
v 0.079661 0.443369 0.087724
v 0.081202 0.455469 0.092464
v 0.081202 0.443369 0.092464
v 0.085234 0.455469 0.095394
v 0.085234 0.443369 0.095394
v 0.090218 0.455469 0.095394
v 0.090218 0.443369 0.095394
v 0.094250 0.455469 0.092464
v 0.094250 0.443369 0.092464
v 0.102851 0.420172 -0.087726
vt 0.370893 0.819394
v 0.095289 0.420172 -0.100825
vt 0.382537 0.819394
vn 0.500000 -0.000000 -0.866000
v 0.095289 0.443369 -0.100825
vt 0.382537 0.889257
v 0.102851 0.443369 -0.087726
v 0.080163 0.420172 -0.100825
vt 0.394181 0.819394
v 0.080163 0.443369 -0.100825
vt 0.394181 0.889257
vt 0.324317 0.819394
v 0.072601 0.420172 -0.087726
vt 0.335961 0.819394
v 0.072601 0.443369 -0.087726
vt 0.324317 0.889257
v 0.080163 0.420172 -0.074627
vt 0.347605 0.819394
v 0.080163 0.443369 -0.074627
vt 0.347605 0.889257
v 0.095289 0.420172 -0.074627
vt 0.359249 0.819394
v 0.095289 0.443369 -0.074627
vt 0.359249 0.889257
vt 0.383679 0.836860
vt 0.323175 0.836860
vt 0.323175 0.871791
vt 0.383679 0.871791
v 0.102851 0.420275 0.087724
v 0.095289 0.420275 0.074625
v 0.095289 0.443369 0.074625
v 0.102851 0.443369 0.087724
v 0.080163 0.420275 0.074625
v 0.080163 0.443369 0.074625
v 0.072601 0.420275 0.087724
v 0.072601 0.443369 0.087724
v 0.080163 0.420275 0.100823
v 0.080163 0.443369 0.100823
v 0.095289 0.420275 0.100823
v 0.095289 0.443369 0.100823
v -0.072599 0.420070 0.087724
v -0.080161 0.420070 0.074625
v -0.080161 0.443163 0.074625
v -0.072599 0.443163 0.087724
v -0.095287 0.420070 0.074625
v -0.095287 0.443163 0.074625
v -0.102849 0.420070 0.087724
v -0.102849 0.443163 0.087724
v -0.095287 0.420070 0.100823
v -0.095287 0.443163 0.100823
v -0.080161 0.420070 0.100823
v -0.080161 0.443163 0.100823
v -0.072599 0.420172 -0.087726
v -0.080161 0.420172 -0.100825
v -0.080161 0.443369 -0.100825
v -0.072599 0.443369 -0.087726
v -0.095287 0.420172 -0.100825
v -0.095287 0.443369 -0.100825
v -0.102849 0.420172 -0.087726
v -0.102849 0.443369 -0.087726
v -0.095287 0.420172 -0.074627
v -0.095287 0.443369 -0.074627
v -0.080161 0.420172 -0.074627
v -0.080161 0.443369 -0.074627
v 0.117976 0.406863 0.120999
vt 0.440035 1.000000
v -0.117974 0.406863 0.120999
vt 0.288203 1.000000
v -0.117974 0.393250 0.120999
vt 0.288203 0.504625
v 0.117976 0.393250 0.120999
vt 0.440035 0.504625
v 0.117976 0.406863 0.024199
v 0.117976 0.393250 0.024199
v -0.117974 0.406863 0.024199
v -0.117974 0.393250 0.024199
v 0.117976 0.406863 -0.024201
v -0.117974 0.406863 -0.024201
v -0.117974 0.393250 -0.024201
v 0.117976 0.393250 -0.024201
v 0.117976 0.406863 -0.121001
v 0.117976 0.393250 -0.121001
v -0.117974 0.406863 -0.121001
v -0.117974 0.393250 -0.121001
v 0.117976 0.406863 -0.117976
v 0.117976 0.406863 0.117974
v -0.117974 0.406863 0.117974
v -0.117974 0.406863 -0.117976
v 0.117976 0.420172 -0.117976
v -0.117974 0.420172 -0.117976
v -0.117974 0.420172 0.117974
v 0.117976 0.420172 0.117974
v -0.151249 0.018150 0.199650
vt 0.615258 0.578729
v 0.151251 0.018150 0.199650
vt 0.896157 0.578729
v 0.151251 0.018150 -0.199650
vt 0.896157 0.859627
v -0.151249 0.018150 -0.199650
vt 0.615258 0.859627
v -0.151249 0.000000 0.199650
vn -0.000000 -0.707100 0.707100
v 0.151251 0.000000 0.199650
v 0.151251 -0.000000 -0.199650
vn -0.000000 -0.707100 -0.707100
v -0.151249 -0.000000 -0.199650
v -0.090749 -0.000000 -0.353110
vt 0.793344 0.076568
v -0.090749 -0.000000 -0.322687
vt 0.939025 0.073318
vt 0.793344 0.077732
v -0.084699 -0.000000 -0.353110
vn -0.729900 0.683600 -0.000000
vn -0.000000 0.668500 0.743700
vt 0.997924 0.075978
vt 0.935447 0.076568
vt 0.997880 0.071684
vn -0.000000 0.743700 -0.668500
vn -0.681800 0.731500 -0.000000
vt 0.937579 0.499013
f 1/1/1 2/2/1 3/3/2
f 3/3/2 4/4/2 1/1/1
f 3/2/3 5/5/4 4/1/3
f 4/6/5 6/7/5 1/8/5
f 1/2/6 7/9/7 2/1/6
f 3/1/8 8/10/8 9/11/8
f 10/1/1 11/2/1 12/3/2
f 12/3/2 13/4/2 10/1/1
f 12/2/3 14/5/3 13/1/3
f 13/2/5 15/12/5 10/1/5
f 16/13/9 16/13/9 17/13/9
f 10/2/6 18/9/6 11/1/6
f 17/13/10 17/13/11 19/13/11
f 12/14/8 20/15/8 21/16/8
f 19/13/9 19/13/9 20/13/9
f 22/3/12 23/4/12 24/1/12
f 24/1/12 25/2/12 22/3/12
f 26/3/11 27/4/11 28/1/11
f 28/1/11 29/2/11 26/3/11
f 22/3/10 25/4/10 27/1/10
f 27/1/10 26/2/10 22/3/10
f 25/3/5 24/4/5 28/1/5
f 28/1/5 27/2/5 25/3/5
f 24/3/13 23/4/13 29/1/13
f 29/1/13 28/2/13 24/3/13
f 23/3/8 22/4/8 26/1/8
f 26/1/8 29/2/8 23/3/8
f 30/3/12 31/4/12 32/1/12
f 32/1/12 33/2/12 30/3/12
f 34/3/11 35/4/11 36/1/11
f 36/1/11 37/2/11 34/3/11
f 30/3/14 33/4/14 35/1/14
f 35/1/14 34/2/14 30/3/14
f 32/3/15 31/4/15 37/1/15
f 37/1/15 36/2/15 32/3/15
f 38/3/12 39/4/12 40/1/12
f 40/1/12 41/2/12 38/3/12
f 42/3/11 43/4/11 44/1/11
f 44/1/11 45/2/11 42/3/11
f 38/3/16 41/4/16 43/1/16
f 43/1/16 42/2/16 38/3/16
f 40/3/17 39/4/17 45/1/17
f 45/1/17 44/2/17 40/3/17
f 46/3/18 47/4/19 48/1/19
f 48/1/19 49/2/18 46/3/18
f 50/3/11 51/4/11 52/1/11
f 52/1/11 53/2/11 50/3/11
f 46/3/20 49/4/20 51/1/20
f 51/1/20 50/2/20 46/3/20
f 49/3/5 48/4/5 52/1/5
f 52/1/5 51/2/5 49/3/5
f 48/3/21 47/4/21 53/1/21
f 53/1/21 52/2/21 48/3/21
f 47/3/8 46/4/8 50/1/8
f 50/1/8 53/2/8 47/3/8
f 54/3/18 55/4/19 56/1/19
f 56/1/19 57/2/18 54/3/18
f 58/3/11 59/4/11 60/1/11
f 60/1/11 61/2/11 58/3/11
f 54/3/20 57/4/20 59/1/20
f 59/1/20 58/2/20 54/3/20
f 57/3/5 56/4/5 60/1/5
f 60/1/5 59/2/5 57/3/5
f 56/3/21 55/4/21 61/1/21
f 61/1/21 60/2/21 56/3/21
f 55/3/8 54/4/8 58/1/8
f 58/1/8 61/2/8 55/3/8
f 62/3/22 63/4/22 64/1/22
f 64/1/22 65/2/22 62/3/22
f 63/3/23 66/4/23 67/1/23
f 67/1/23 64/2/23 63/3/23
f 66/3/24 68/4/24 69/1/24
f 69/1/24 67/2/24 66/3/24
f 68/3/25 70/4/25 71/1/25
f 71/1/25 69/2/25 68/3/25
f 70/3/26 72/4/26 73/1/26
f 73/1/26 71/2/26 70/3/26
f 72/3/27 74/4/27 75/1/27
f 75/1/27 73/2/27 72/3/27
f 74/3/28 76/4/28 77/1/28
f 77/1/28 75/2/28 74/3/28
f 76/3/29 78/4/29 79/1/29
f 79/1/29 77/2/29 76/3/29
f 78/3/30 80/4/30 81/1/30
f 81/1/30 79/2/30 78/3/30
f 80/3/31 82/4/31 83/1/31
f 83/1/31 81/2/31 80/3/31
f 82/3/32 84/4/32 85/1/32
f 85/1/32 83/2/32 82/3/32
f 84/3/33 62/4/33 65/1/33
f 65/1/33 85/2/33 84/3/33
f 82/17/12 80/18/12 78/19/12
f 78/19/12 76/20/12 74/21/12
f 74/21/12 72/22/12 70/23/12
f 78/19/12 74/21/12 70/23/12
f 70/23/12 68/24/12 66/25/12
f 66/25/12 63/26/12 62/27/12
f 70/23/12 66/25/12 62/27/12
f 78/19/12 70/23/12 62/27/12
f 82/17/12 78/19/12 62/27/12
f 84/28/12 82/17/12 62/27/12
f 64/17/11 67/18/11 69/19/11
f 69/19/11 71/20/11 73/21/11
f 73/21/11 75/22/34 77/23/11
f 69/19/11 73/21/11 77/23/11
f 77/23/11 79/24/35 81/25/11
f 81/25/11 83/26/35 85/27/11
f 77/23/11 81/25/11 85/27/11
f 69/19/11 77/23/11 85/27/11
f 64/17/11 69/19/11 85/27/11
f 65/28/36 64/17/11 85/27/11
f 86/3/22 87/4/22 88/1/22
f 88/1/22 89/2/22 86/3/22
f 87/3/23 90/4/23 91/1/23
f 91/1/23 88/2/23 87/3/23
f 90/3/24 92/4/24 93/1/24
f 93/1/24 91/2/24 90/3/24
f 92/3/25 94/4/25 95/1/25
f 95/1/25 93/2/25 92/3/25
f 94/3/26 96/4/26 97/1/26
f 97/1/26 95/2/26 94/3/26
f 96/3/27 98/4/27 99/1/27
f 99/1/27 97/2/27 96/3/27
f 98/3/28 100/4/28 101/1/28
f 101/1/28 99/2/28 98/3/28
f 100/3/29 102/4/29 103/1/29
f 103/1/29 101/2/29 100/3/29
f 102/3/30 104/4/30 105/1/30
f 105/1/30 103/2/30 102/3/30
f 104/3/31 106/4/31 107/1/31
f 107/1/31 105/2/31 104/3/31
f 106/3/32 108/4/32 109/1/32
f 109/1/32 107/2/32 106/3/32
f 108/3/33 86/4/33 89/1/33
f 89/1/33 109/2/33 108/3/33
f 106/17/12 104/18/12 102/19/12
f 102/19/12 100/20/12 98/21/12
f 98/21/12 96/22/12 94/23/12
f 102/19/12 98/21/12 94/23/12
f 94/23/12 92/24/12 90/25/12
f 90/25/12 87/26/12 86/27/12
f 94/23/12 90/25/12 86/27/12
f 102/19/12 94/23/12 86/27/12
f 106/17/12 102/19/12 86/27/12
f 108/28/12 106/17/12 86/27/12
f 88/17/11 91/18/11 93/19/11
f 93/19/11 95/20/11 97/21/11
f 97/21/11 99/22/11 101/23/11
f 93/19/11 97/21/11 101/23/11
f 101/23/11 103/24/11 105/25/11
f 105/25/11 107/26/11 109/27/11
f 101/23/11 105/25/11 109/27/11
f 93/19/11 101/23/11 109/27/11
f 88/17/11 93/19/11 109/27/11
f 89/28/11 88/17/11 109/27/11
f 110/29/12 111/30/12 112/31/12
f 112/31/12 113/32/12 110/29/12
f 114/29/12 115/30/12 111/31/37
f 111/31/37 110/32/37 114/29/12
f 116/29/12 117/30/37 115/31/12
f 115/31/12 114/32/38 116/29/12
f 118/29/12 119/30/12 117/31/12
f 117/31/12 116/33/12 118/29/12
f 120/29/12 121/30/37 119/31/12
f 119/31/12 118/32/38 120/29/12
f 122/29/12 123/30/12 121/31/12
f 121/31/12 120/32/12 122/29/12
f 124/29/12 125/30/12 123/31/12
f 123/31/12 122/32/12 124/29/12
f 126/29/11 127/34/11 128/31/11
f 128/31/11 129/35/11 126/29/11
f 130/29/11 126/34/35 129/31/11
f 129/31/11 131/35/11 130/29/11
f 132/29/11 130/34/11 131/31/11
f 131/31/11 133/35/11 132/29/11
f 134/29/11 132/36/11 133/31/11
f 133/31/11 135/35/11 134/29/11
f 136/29/11 134/34/11 135/31/11
f 135/31/11 137/35/11 136/29/11
f 138/29/11 136/34/11 137/31/11
f 137/31/11 139/35/11 138/29/11
f 140/29/11 138/34/11 139/31/11
f 139/31/11 141/35/11 140/29/11
f 129/29/39 128/30/39 112/31/39
f 112/31/39 111/35/39 129/29/39
f 131/29/40 129/30/40 111/31/40
f 111/31/40 115/35/40 131/29/40
f 133/29/41 131/30/42 115/31/41
f 115/31/41 117/35/41 133/29/41
f 135/29/13 133/30/13 117/31/13
f 117/31/13 119/35/13 135/29/13
f 137/29/43 135/30/44 119/31/43
f 119/31/43 121/35/43 137/29/43
f 139/29/45 137/30/45 121/31/45
f 121/31/45 123/35/45 139/29/45
f 141/29/46 139/30/46 123/31/46
f 123/31/46 125/35/46 141/29/46
f 138/29/47 140/30/47 124/31/47
f 124/31/47 122/35/47 138/29/47
f 136/29/48 138/30/48 122/31/48
f 122/31/48 120/35/48 136/29/48
f 134/29/49 136/30/49 120/31/49
f 120/31/49 118/35/49 134/29/49
f 132/29/10 134/30/10 118/31/10
f 118/31/10 116/35/10 132/29/10
f 130/29/50 132/30/50 116/31/50
f 116/31/50 114/35/50 130/29/50
f 126/29/51 130/30/51 114/31/51
f 114/31/51 110/35/51 126/29/51
f 127/29/52 126/30/52 110/31/52
f 110/31/52 113/35/52 127/29/52
f 142/3/18 143/4/18 144/1/18
f 144/1/18 145/2/18 142/3/18
f 146/3/2 147/4/2 148/1/2
f 148/1/2 149/2/2 146/3/2
f 142/3/3 145/4/3 147/1/3
f 147/1/3 146/2/3 142/3/3
f 145/3/5 144/4/5 148/1/5
f 148/1/5 147/2/5 145/3/5
f 144/3/6 143/4/6 149/1/6
f 149/1/6 148/2/6 144/3/6
f 150/3/18 151/4/18 152/1/18
f 152/1/18 153/2/18 150/3/18
f 154/3/2 155/4/2 156/1/2
f 156/1/2 157/2/2 154/3/2
f 150/3/3 153/4/3 155/1/3
f 155/1/3 154/2/3 150/3/3
f 153/3/5 152/4/5 156/1/5
f 156/1/5 155/2/5 153/3/5
f 152/3/6 151/4/6 157/1/6
f 157/1/6 156/2/6 152/3/6
f 158/3/18 159/4/18 160/1/18
f 160/1/18 161/2/18 158/3/18
f 162/3/2 163/4/2 164/1/2
f 164/1/2 165/2/2 162/3/2
f 158/3/3 161/4/3 163/1/3
f 163/1/3 162/2/3 158/3/3
f 161/3/5 160/4/5 164/1/5
f 164/1/5 163/2/5 161/3/5
f 160/3/6 159/4/6 165/1/6
f 165/1/6 164/2/6 160/3/6
f 166/3/18 167/4/18 168/1/18
f 168/1/18 169/2/18 166/3/18
f 170/3/2 171/4/2 172/1/2
f 172/1/2 173/2/2 170/3/2
f 166/3/3 169/4/3 171/1/3
f 171/1/3 170/2/3 166/3/3
f 169/3/5 168/4/5 172/1/5
f 172/1/5 171/2/5 169/3/5
f 168/3/6 167/4/6 173/1/6
f 173/1/6 172/2/6 168/3/6
f 174/3/18 175/4/18 176/1/18
f 176/1/18 177/2/18 174/3/18
f 178/3/2 179/4/2 180/1/2
f 180/1/2 181/2/2 178/3/2
f 174/3/3 177/4/3 179/1/3
f 179/1/3 178/2/3 174/3/3
f 177/3/5 176/4/5 180/1/5
f 180/1/5 179/2/5 177/3/5
f 176/3/6 175/4/6 181/1/6
f 181/1/6 180/2/6 176/3/6
f 182/3/18 183/4/18 184/1/18
f 184/1/18 185/2/18 182/3/18
f 186/3/2 187/4/2 188/1/2
f 188/1/2 189/2/2 186/3/2
f 182/3/3 185/4/3 187/1/3
f 187/1/3 186/2/3 182/3/3
f 185/3/5 184/4/5 188/1/5
f 188/1/5 187/2/5 185/3/5
f 184/3/6 183/4/6 189/1/6
f 189/1/6 188/2/6 184/3/6
f 190/3/18 191/4/18 192/1/19
f 192/1/19 193/2/19 190/3/18
f 194/3/2 195/4/2 196/1/2
f 196/1/2 197/2/2 194/3/2
f 190/3/3 193/4/3 195/1/3
f 195/1/3 194/2/3 190/3/3
f 193/3/5 192/4/5 196/1/5
f 196/1/5 195/2/5 193/3/5
f 192/3/6 191/4/6 197/1/6
f 197/1/6 196/2/6 192/3/6
f 198/3/18 199/4/18 200/1/18
f 200/1/18 201/2/18 198/3/18
f 202/3/53 203/4/53 204/1/53
f 204/1/53 205/2/53 202/3/53
f 198/3/3 201/4/3 203/1/3
f 203/1/3 202/2/3 198/3/3
f 201/3/5 200/4/5 204/1/5
f 204/1/5 203/2/5 201/3/5
f 200/3/6 199/4/6 205/1/6
f 205/1/6 204/2/6 200/3/6
f 206/3/18 207/4/18 208/1/19
f 208/1/19 209/2/19 206/3/18
f 210/3/53 211/4/53 212/1/53
f 212/1/53 213/2/53 210/3/53
f 206/3/3 209/4/3 211/1/3
f 211/1/3 210/2/3 206/3/3
f 209/3/5 208/4/5 212/1/5
f 212/1/5 211/2/5 209/3/5
f 208/3/6 207/4/6 213/1/6
f 213/1/6 212/2/6 208/3/6
f 214/3/18 215/4/18 216/1/19
f 216/1/19 217/2/19 214/3/18
f 218/3/1 219/4/53 220/1/53
f 220/1/53 221/2/1 218/3/1
f 214/3/3 217/4/3 219/1/3
f 219/1/3 218/2/3 214/3/3
f 217/3/5 216/4/5 220/1/5
f 220/1/5 219/2/5 217/3/5
f 216/3/6 215/4/6 221/1/6
f 221/1/6 220/2/6 216/3/6
f 222/3/18 223/4/18 224/1/19
f 224/1/19 225/2/19 222/3/18
f 226/3/1 227/4/53 228/1/53
f 228/1/53 229/2/1 226/3/1
f 222/3/3 225/4/3 227/1/3
f 227/1/3 226/2/3 222/3/3
f 225/3/5 224/4/5 228/1/5
f 228/1/5 227/2/5 225/3/5
f 224/3/6 223/4/6 229/1/6
f 229/1/6 228/2/6 224/3/6
f 230/13/54 231/37/54 232/38/54
f 232/38/54 233/39/54 230/13/54
f 234/13/55 235/37/55 236/38/55
f 236/38/55 237/39/55 234/13/55
f 238/40/56 239/41/56 231/42/56
f 231/42/56 230/43/56 238/40/56
f 239/13/8 240/37/8 232/38/8
f 232/38/8 231/39/8 239/13/8
f 241/13/8 242/37/8 236/38/8
f 236/38/8 235/39/8 241/13/8
f 242/40/57 243/41/57 237/42/57
f 237/42/57 236/43/57 242/40/57
f 243/13/5 244/37/5 234/38/5
f 234/38/5 237/39/5 243/13/5
f 245/13/5 238/37/5 230/38/5
f 230/38/5 233/39/5 245/13/5
f 246/13/54 247/37/54 248/38/54
f 248/38/54 249/39/54 246/13/54
f 250/13/55 251/37/55 252/38/55
f 252/38/55 253/39/55 250/13/55
f 254/40/56 255/41/56 247/42/56
f 247/42/56 246/43/56 254/40/56
f 255/13/8 256/37/8 248/38/8
f 248/38/8 247/39/8 255/13/8
f 257/13/8 258/37/8 252/38/8
f 252/38/8 251/39/8 257/13/8
f 258/40/57 259/41/57 253/42/57
f 253/42/57 252/43/57 258/40/57
f 259/13/5 260/37/5 250/38/5
f 250/38/5 253/39/5 259/13/5
f 261/13/5 254/37/5 246/38/5
f 246/38/5 249/39/5 261/13/5
f 262/40/58 263/42/58 264/43/58
f 262/40/58 265/41/58 263/42/58
f 265/40/10 266/42/10 263/43/10
f 265/40/10 267/41/10 266/42/10
f 267/40/59 268/42/59 266/43/59
f 267/40/59 269/41/59 268/42/59
f 269/40/60 270/42/60 268/43/60
f 269/40/60 271/41/60 270/42/60
f 271/40/13 272/42/13 270/43/13
f 271/40/13 273/41/13 272/42/13
f 273/40/61 264/42/61 272/43/61
f 273/40/61 262/41/61 264/42/61
f 274/42/11 264/40/11 263/41/11
f 274/42/11 263/40/11 266/41/11
f 274/42/11 266/40/11 268/41/11
f 274/42/11 268/40/11 270/41/11
f 274/42/11 270/40/11 272/41/11
f 274/42/11 272/40/11 264/41/11
f 275/40/58 276/42/58 277/43/58
f 275/40/58 278/41/58 276/42/58
f 278/40/10 279/42/10 276/43/10
f 278/40/10 280/41/10 279/42/10
f 280/40/59 281/42/59 279/43/59
f 280/40/59 282/41/59 281/42/59
f 282/40/60 283/42/60 281/43/60
f 282/40/60 284/41/60 283/42/60
f 284/40/13 285/42/13 283/43/13
f 284/40/13 286/41/13 285/42/13
f 286/40/61 277/42/61 285/43/61
f 286/40/61 275/41/61 277/42/61
f 287/42/11 277/40/11 276/41/11
f 287/42/11 276/40/11 279/41/11
f 287/42/11 279/40/11 281/41/11
f 287/42/11 281/40/11 283/41/11
f 287/42/11 283/40/11 285/41/11
f 287/42/11 285/40/11 277/41/11
f 288/40/58 289/42/58 290/43/58
f 288/40/58 291/41/58 289/42/58
f 291/40/10 292/42/10 289/43/10
f 291/40/10 293/41/10 292/42/10
f 293/40/59 294/42/59 292/43/59
f 293/40/59 295/41/59 294/42/59
f 295/40/60 296/42/60 294/43/60
f 295/40/60 297/41/60 296/42/60
f 297/40/13 298/42/13 296/43/13
f 297/40/13 299/41/13 298/42/13
f 299/40/61 290/42/61 298/43/61
f 299/40/61 288/41/61 290/42/61
f 300/42/11 290/40/11 289/41/11
f 300/42/11 289/40/11 292/41/11
f 300/42/11 292/40/11 294/41/11
f 300/42/11 294/40/11 296/41/11
f 300/42/11 296/40/11 298/41/11
f 300/42/11 298/40/11 290/41/11
f 301/40/58 302/42/58 303/43/58
f 301/40/58 304/41/58 302/42/58
f 304/40/10 305/42/10 302/43/10
f 304/40/10 306/41/10 305/42/10
f 306/40/59 307/42/59 305/43/59
f 306/40/59 308/41/59 307/42/59
f 308/40/60 309/42/60 307/43/60
f 308/40/60 310/41/60 309/42/60
f 310/40/13 311/42/13 309/43/13
f 310/40/13 312/41/13 311/42/13
f 312/40/61 303/42/61 311/43/61
f 312/40/61 301/41/61 303/42/61
f 313/42/11 303/40/11 302/41/11
f 313/42/11 302/40/11 305/41/11
f 313/42/11 305/40/11 307/41/11
f 313/42/11 307/40/11 309/41/11
f 313/42/11 309/40/11 311/41/11
f 313/42/11 311/40/11 303/41/11
f 314/40/62 315/41/62 316/42/62
f 316/42/62 317/43/62 314/40/62
f 318/40/63 314/41/63 317/42/63
f 317/42/63 319/43/63 318/40/63
f 320/40/10 318/41/10 319/42/10
f 319/42/10 321/43/10 320/40/10
f 322/40/64 320/41/64 321/42/64
f 321/42/64 323/43/64 322/40/64
f 324/40/65 322/41/65 323/42/65
f 323/42/65 325/43/65 324/40/65
f 326/40/66 324/41/66 325/42/66
f 325/42/66 327/43/66 326/40/66
f 328/40/67 326/41/67 327/42/67
f 327/42/67 329/43/67 328/40/67
f 330/40/13 328/41/13 329/42/13
f 329/42/13 331/43/13 330/40/13
f 332/40/68 330/41/68 331/42/68
f 331/42/68 333/43/68 332/40/68
f 315/40/11 314/41/11 318/42/11
f 315/40/11 318/42/11 320/43/11
f 315/40/11 320/42/11 322/43/11
f 315/40/11 322/42/11 324/43/11
f 315/40/11 324/42/11 326/43/11
f 315/40/11 326/42/11 328/43/11
f 315/40/11 328/42/11 330/43/11
f 315/40/11 330/42/11 332/43/11
f 334/40/62 335/41/62 336/42/62
f 336/42/62 337/43/62 334/40/62
f 338/40/63 334/41/63 337/42/63
f 337/42/63 339/43/63 338/40/63
f 340/40/10 338/41/10 339/42/10
f 339/42/10 341/43/10 340/40/10
f 342/40/64 340/41/64 341/42/64
f 341/42/64 343/43/64 342/40/64
f 344/40/65 342/41/65 343/42/65
f 343/42/65 345/43/65 344/40/65
f 346/40/66 344/41/66 345/42/66
f 345/42/66 347/43/66 346/40/66
f 348/40/67 346/41/67 347/42/67
f 347/42/67 349/43/67 348/40/67
f 350/40/13 348/41/13 349/42/13
f 349/42/13 351/43/13 350/40/13
f 352/40/68 350/41/68 351/42/68
f 351/42/68 353/43/68 352/40/68
f 335/40/11 334/41/11 338/42/11
f 335/40/11 338/42/11 340/43/11
f 335/40/11 340/42/11 342/43/11
f 335/40/11 342/42/11 344/43/11
f 335/40/11 344/42/11 346/43/11
f 335/40/11 346/42/11 348/43/11
f 335/40/11 348/42/11 350/43/11
f 335/40/11 350/42/11 352/43/11
f 354/40/62 355/41/62 356/42/62
f 356/42/62 357/43/62 354/40/62
f 358/40/63 354/41/63 357/42/63
f 357/42/63 359/43/63 358/40/63
f 360/40/10 358/41/10 359/42/10
f 359/42/10 361/43/10 360/40/10
f 362/40/64 360/41/64 361/42/64
f 361/42/64 363/43/64 362/40/64
f 364/40/65 362/41/65 363/42/65
f 363/42/65 365/43/65 364/40/65
f 366/40/66 364/41/66 365/42/66
f 365/42/66 367/43/66 366/40/66
f 368/40/67 366/41/67 367/42/67
f 367/42/67 369/43/67 368/40/67
f 370/40/13 368/41/13 369/42/13
f 369/42/13 371/43/13 370/40/13
f 372/40/68 370/41/68 371/42/68
f 371/42/68 373/43/68 372/40/68
f 355/40/11 354/41/11 358/42/11
f 355/40/11 358/42/11 360/43/11
f 355/40/11 360/42/11 362/43/11
f 355/40/11 362/42/11 364/43/11
f 355/40/11 364/42/11 366/43/11
f 355/40/11 366/42/11 368/43/11
f 355/40/11 368/42/11 370/43/11
f 355/40/11 370/42/11 372/43/11
f 374/40/62 375/41/62 376/42/62
f 376/42/62 377/43/62 374/40/62
f 378/40/63 374/41/63 377/42/63
f 377/42/63 379/43/63 378/40/63
f 380/40/10 378/41/10 379/42/10
f 379/42/10 381/43/10 380/40/10
f 382/40/64 380/41/64 381/42/64
f 381/42/64 383/43/64 382/40/64
f 384/40/65 382/41/65 383/42/65
f 383/42/65 385/43/65 384/40/65
f 386/40/66 384/41/66 385/42/66
f 385/42/66 387/43/66 386/40/66
f 388/40/67 386/41/67 387/42/67
f 387/42/67 389/43/67 388/40/67
f 390/40/13 388/41/13 389/42/13
f 389/42/13 391/43/13 390/40/13
f 392/40/68 390/41/68 391/42/68
f 391/42/68 393/43/68 392/40/68
f 375/40/11 374/41/11 378/42/11
f 375/40/11 378/42/11 380/43/11
f 375/40/11 380/42/11 382/43/11
f 375/40/11 382/42/11 384/43/11
f 375/40/11 384/42/11 386/43/11
f 375/40/11 386/42/11 388/43/11
f 375/40/11 388/42/11 390/43/11
f 375/40/11 390/42/11 392/43/11
f 315/40/69 332/41/69 333/42/69
f 333/42/69 316/43/69 315/40/69
f 335/40/69 352/41/69 353/42/69
f 353/42/69 336/43/69 335/40/69
f 355/40/69 372/41/69 373/42/69
f 373/42/69 356/43/69 355/40/69
f 375/40/69 392/41/69 393/42/69
f 393/42/69 376/43/69 375/40/69
f 394/44/13 395/45/13 396/46/13
f 396/46/13 397/47/13 394/44/13
f 395/45/8 398/44/8 399/47/8
f 399/47/8 396/46/8 395/45/8
f 398/44/10 400/45/10 401/46/10
f 401/46/10 399/47/10 398/44/10
f 400/45/5 394/44/5 397/47/5
f 397/47/5 401/46/5 400/45/5
f 402/48/11 403/49/11 404/50/11
f 404/50/11 405/51/11 402/48/11
f 397/52/70 396/53/70 406/54/71
f 406/54/71 407/55/72 397/52/70
f 407/55/72 406/54/71 403/56/73
f 403/56/73 402/57/73 407/55/72
f 396/58/74 399/59/74 408/60/75
f 408/60/75 406/61/74 396/58/74
f 406/62/76 408/60/75 404/63/76
f 404/63/76 403/64/76 406/62/76
f 399/53/77 401/65/77 409/66/78
f 409/66/78 408/67/79 399/53/77
f 408/67/79 409/66/78 405/68/80
f 405/68/80 404/69/80 408/67/79
f 401/59/81 397/58/81 407/61/82
f 407/61/82 409/60/83 401/59/81
f 409/60/83 407/61/82 402/70/84
f 402/70/84 405/71/84 409/60/83
f 410/72/12 411/73/12 412/74/12
f 412/74/12 413/75/12 410/72/12
f 414/72/11 415/73/11 416/74/11
f 416/74/11 417/75/11 414/72/11
f 410/13/13 413/76/13 415/77/13
f 415/77/13 414/78/13 410/13/13
f 413/72/8 412/73/8 416/74/8
f 416/74/8 415/75/8 413/72/8
f 411/72/5 410/73/5 414/74/5
f 414/74/5 417/75/5 411/72/5
f 418/79/12 419/80/12 420/81/12
f 420/81/12 421/82/12 422/83/12
f 422/83/12 423/84/12 424/85/12
f 420/81/12 422/83/12 424/85/12
f 424/85/12 425/86/12 426/87/12
f 426/87/12 427/88/12 428/89/12
f 424/85/12 426/87/12 428/89/12
f 420/81/12 424/85/12 428/89/12
f 418/79/12 420/81/12 428/89/12
f 429/90/12 418/79/12 428/89/12
f 428/89/8 427/88/28 430/91/28
f 430/91/28 431/92/8 428/89/8
f 427/93/29 426/94/29 432/94/29
f 432/94/29 430/93/29 427/93/29
f 426/95/30 425/96/30 433/97/85
f 433/97/85 432/98/30 426/95/30
f 425/99/31 424/81/86 434/100/86
f 434/100/86 433/97/87 425/99/31
f 424/81/86 423/82/59 435/101/59
f 435/101/59 434/100/86 424/81/86
f 423/82/59 422/102/5 436/103/5
f 436/103/5 435/101/59 423/82/59
f 422/102/5 421/104/60 437/105/60
f 437/105/60 436/103/5 422/102/5
f 421/104/60 420/106/88 438/107/88
f 438/107/88 437/105/60 421/104/60
f 420/106/88 419/108/13 439/109/13
f 439/109/13 438/107/88 420/106/88
f 419/108/13 418/110/89 440/111/89
f 440/111/89 439/109/13 419/108/13
f 418/110/89 429/112/61 441/113/61
f 441/113/61 440/111/89 418/110/89
f 429/112/61 428/89/8 431/92/8
f 431/92/8 441/113/61 429/112/61
f 431/114/11 430/93/11 432/94/11
f 432/94/11 433/115/11 434/116/11
f 434/116/11 435/117/11 436/118/11
f 432/94/11 434/116/11 436/118/11
f 436/118/11 437/119/11 438/120/11
f 438/120/11 439/121/11 440/122/11
f 436/118/11 438/120/11 440/122/11
f 432/94/11 436/118/11 440/122/11
f 431/114/11 432/94/11 440/122/11
f 441/123/11 431/114/11 440/122/11
f 431/124/11 442/125/11 443/126/11
f 444/127/90 445/128/90 446/129/90
f 446/129/90 447/130/90 444/127/90
f 448/129/91 449/130/91 445/127/91
f 445/127/91 444/128/91 448/129/91
f 444/131/13 447/132/13 450/133/13
f 450/133/13 451/134/13 444/131/13
f 451/134/13 452/135/13 448/136/13
f 448/136/13 444/131/13 451/134/13
f 453/127/92 454/128/92 455/129/92
f 455/129/92 456/130/92 453/127/92
f 442/129/93 457/130/93 454/127/93
f 454/127/93 453/128/93 442/129/93
f 453/137/10 456/138/10 458/139/10
f 458/139/10 459/140/10 453/137/10
f 443/141/10 442/142/10 453/137/10
f 453/137/10 459/140/10 443/141/10
f 433/143/11 460/144/11 461/145/11
f 462/127/94 463/128/94 464/129/94
f 464/129/94 465/130/94 462/127/94
f 466/129/13 467/130/13 463/127/13
f 463/127/13 462/128/13 466/129/13
f 468/146/8 469/147/8 470/148/8
f 470/148/8 471/149/8 468/146/8
f 472/150/8 471/149/8 470/148/8
f 470/148/8 473/151/8 472/150/8
f 474/127/95 470/128/95 469/129/95
f 469/129/95 475/130/95 474/127/95
f 460/129/10 473/130/10 470/127/10
f 470/127/10 474/128/10 460/129/10
f 474/148/5 475/147/5 476/146/5
f 476/146/5 477/149/5 474/148/5
f 477/149/5 461/152/5 460/153/5
f 460/153/5 474/148/5 477/149/5
f 454/137/13 478/140/13 479/139/13
f 479/139/13 455/138/13 454/137/13
f 445/131/10 480/134/10 481/133/10
f 481/133/10 446/132/10 445/131/10
f 482/154/8 483/155/8 462/156/8
f 462/156/8 465/157/8 482/154/8
f 463/156/5 484/155/5 485/154/5
f 485/154/5 464/157/5 463/156/5
f 448/158/11 452/159/35 486/160/11
f 486/160/11 436/161/11 448/158/11
f 487/135/10 480/134/10 445/131/10
f 445/131/10 449/136/10 487/135/10
f 466/162/8 462/156/8 483/155/8
f 483/155/8 488/163/8 466/162/8
f 466/164/11 488/165/11 439/166/11
f 463/156/5 467/167/5 489/168/5
f 489/168/5 484/155/5 463/156/5
f 478/140/13 454/137/13 457/142/13
f 457/142/13 490/141/13 478/140/13
f 431/124/11 490/169/11 457/170/11
f 457/170/11 442/125/11 431/124/11
f 433/143/11 472/171/11 473/172/11
f 473/172/11 460/144/11 433/143/11
f 449/173/11 448/158/11 436/161/11
f 436/161/11 487/174/11 449/173/11
f 491/175/11 489/176/11 467/177/11
f 439/166/11 491/175/11 467/177/11
f 439/166/11 467/177/11 466/164/11
f 492/178/96 493/179/96 494/180/12
f 494/180/12 495/181/12 492/178/96
f 493/182/10 492/183/10 496/184/97
f 496/184/97 497/185/97 493/182/10
f 497/185/97 496/184/97 498/186/11
f 498/186/11 499/187/11 497/185/97
f 499/187/11 498/186/11 500/188/98
f 500/188/98 501/189/98 499/187/11
f 501/189/98 500/188/98 502/190/99
f 502/190/99 503/191/99 501/189/98
f 494/180/12 503/191/99 502/190/99
f 502/190/99 495/181/12 494/180/12
f 500/192/5 498/193/5 496/194/5
f 496/194/5 492/195/5 495/196/5
f 500/192/5 496/194/5 495/196/5
f 502/197/5 500/192/5 495/196/5
f 504/195/8 505/194/8 506/193/8
f 506/193/8 507/192/8 508/197/8
f 504/195/8 506/193/8 508/197/8
f 509/196/8 504/195/8 508/197/8
f 509/198/12 508/199/99 510/200/99
f 510/200/99 511/201/12 509/198/12
f 511/201/12 512/202/96 504/203/96
f 504/203/96 509/198/12 511/201/12
f 505/204/97 504/205/10 512/206/10
f 512/206/10 513/207/97 505/204/97
f 513/207/97 514/208/11 506/209/11
f 506/209/11 505/204/97 513/207/97
f 507/210/98 506/209/11 514/208/11
f 514/208/11 515/211/98 507/210/98
f 510/200/99 508/199/99 507/210/98
f 507/210/98 515/211/98 510/200/99
f 516/212/100 517/213/101 518/214/12
f 518/214/12 519/215/102 520/216/103
f 516/212/100 518/214/12 520/216/103
f 520/216/103 519/215/102 521/217/104
f 521/217/104 522/218/105 520/216/103
f 522/218/105 521/217/104 523/219/10
f 523/219/10 524/220/10 522/218/105
f 524/221/106 523/222/106 525/223/107
f 525/223/107 526/224/108 524/221/106
f 527/225/11 528/226/109 529/227/110
f 527/225/11 529/227/110 526/224/108
f 527/225/11 526/224/108 525/223/107
f 530/228/111 531/229/111 532/230/112
f 532/230/112 533/231/113 528/226/109
f 530/228/111 532/230/112 528/226/109
f 527/225/11 530/228/111 528/226/109
f 534/232/114 535/233/111 536/234/111
f 536/234/111 537/235/114 534/232/114
f 537/235/114 538/236/115 539/237/116
f 539/237/116 534/232/114 537/235/114
f 540/238/117 541/239/117 539/237/116
f 542/240/118 540/238/117 539/237/116
f 542/240/118 539/237/116 538/236/115
f 543/241/119 544/242/117 545/243/117
f 545/243/117 518/214/12 517/213/101
f 545/243/117 517/213/101 546/244/119
f 543/241/119 545/243/117 546/244/119
f 547/245/5 548/246/5 530/247/5
f 530/247/5 527/248/5 525/249/5
f 525/249/5 523/250/5 521/251/5
f 521/251/5 519/252/5 518/253/5
f 525/249/5 521/251/5 518/253/5
f 530/247/5 525/249/5 518/253/5
f 547/245/5 530/247/5 518/253/5
f 545/254/5 547/245/5 518/253/5
f 549/252/8 550/251/8 551/250/8
f 551/250/8 552/249/8 553/248/8
f 553/248/8 535/247/8 534/246/8
f 534/246/8 539/245/8 541/254/8
f 553/248/8 534/246/8 541/254/8
f 551/250/8 553/248/8 541/254/8
f 549/252/8 551/250/8 541/254/8
f 554/253/8 549/252/8 541/254/8
f 555/178/96 556/179/120 557/180/12
f 557/180/12 558/181/12 555/178/96
f 556/182/10 555/183/10 559/184/97
f 559/184/97 560/185/97 556/182/10
f 560/185/97 559/184/97 561/186/11
f 561/186/11 562/187/11 560/185/97
f 562/187/11 561/186/11 563/188/98
f 563/188/98 564/189/98 562/187/11
f 564/189/98 563/188/98 565/190/99
f 565/190/99 566/191/99 564/189/98
f 557/180/12 566/191/99 565/190/99
f 565/190/99 558/181/12 557/180/12
f 563/192/5 561/193/5 559/194/5
f 559/194/5 555/195/5 558/196/5
f 563/192/5 559/194/5 558/196/5
f 565/197/5 563/192/5 558/196/5
f 567/195/8 568/194/8 569/193/8
f 569/193/8 570/192/8 571/197/8
f 567/195/8 569/193/8 571/197/8
f 572/196/8 567/195/8 571/197/8
f 572/198/12 571/199/99 573/200/99
f 573/200/99 574/201/12 572/198/12
f 574/201/12 575/202/120 567/203/96
f 567/203/96 572/198/12 574/201/12
f 568/204/97 567/205/10 575/206/10
f 575/206/10 576/207/97 568/204/97
f 576/207/97 577/208/11 569/209/11
f 569/209/11 568/204/97 576/207/97
f 570/210/98 569/209/11 577/208/11
f 577/208/11 578/211/98 570/210/98
f 573/200/99 571/199/99 570/210/98
f 570/210/98 578/211/98 573/200/99
f 579/255/121 580/213/122 581/214/12
f 581/214/12 582/215/102 583/216/123
f 579/255/121 581/214/12 583/216/123
f 583/216/123 582/215/102 584/217/104
f 584/217/104 585/218/105 583/216/123
f 585/218/105 584/217/104 586/219/10
f 586/219/10 587/220/10 585/218/105
f 587/221/106 586/222/106 588/223/107
f 588/223/107 589/224/108 587/221/106
f 590/225/11 591/226/124 592/227/125
f 590/225/11 592/227/125 589/224/108
f 590/225/11 589/224/108 588/223/107
f 593/228/111 594/229/111 595/230/112
f 595/230/112 596/231/126 591/226/124
f 593/228/111 595/230/112 591/226/124
f 590/225/11 593/228/111 591/226/124
f 597/232/114 598/233/111 599/234/111
f 599/234/111 600/235/114 597/232/114
f 600/235/114 601/236/116 602/237/116
f 602/237/116 597/232/114 600/235/114
f 603/239/117 602/237/116 601/236/116
f 601/236/116 604/238/117 603/239/117
f 605/241/119 606/242/117 607/243/117
f 607/243/117 581/214/12 580/213/122
f 607/243/117 580/213/122 608/244/127
f 605/241/119 607/243/117 608/244/127
f 609/245/5 610/246/5 593/247/5
f 593/247/5 590/248/5 588/249/5
f 588/249/5 586/250/5 584/251/5
f 584/251/5 582/252/5 581/253/5
f 588/249/5 584/251/5 581/253/5
f 593/247/5 588/249/5 581/253/5
f 609/245/5 593/247/5 581/253/5
f 607/254/5 609/245/5 581/253/5
f 611/252/8 612/251/8 613/250/8
f 613/250/8 614/249/8 615/248/8
f 615/248/8 598/247/8 597/246/8
f 597/246/8 602/245/8 603/254/8
f 615/248/8 597/246/8 603/254/8
f 613/250/8 615/248/8 603/254/8
f 611/252/8 613/250/8 603/254/8
f 616/253/8 611/252/8 603/254/8
f 617/178/96 618/179/96 619/180/12
f 619/180/12 620/181/12 617/178/96
f 618/182/10 617/183/10 621/184/97
f 621/184/97 622/185/97 618/182/10
f 622/185/97 621/184/97 623/186/11
f 623/186/11 624/187/11 622/185/97
f 624/187/11 623/186/11 625/188/98
f 625/188/98 626/189/98 624/187/11
f 626/189/98 625/188/98 627/190/99
f 627/190/99 628/191/99 626/189/98
f 619/180/12 628/191/99 627/190/99
f 627/190/99 620/181/12 619/180/12
f 625/192/5 623/193/5 621/194/5
f 621/194/5 617/195/5 620/196/5
f 625/192/5 621/194/5 620/196/5
f 627/197/5 625/192/5 620/196/5
f 629/195/8 630/194/8 631/193/8
f 631/193/8 632/192/8 633/197/8
f 629/195/8 631/193/8 633/197/8
f 634/196/8 629/195/8 633/197/8
f 634/198/12 633/199/99 635/200/99
f 635/200/99 636/201/12 634/198/12
f 636/201/12 637/202/96 629/203/96
f 629/203/96 634/198/12 636/201/12
f 630/204/97 629/205/10 637/206/10
f 637/206/10 638/207/97 630/204/97
f 638/207/97 639/208/11 631/209/11
f 631/209/11 630/204/97 638/207/97
f 632/210/98 631/209/11 639/208/11
f 639/208/11 640/211/98 632/210/98
f 635/200/99 633/199/99 632/210/98
f 632/210/98 640/211/98 635/200/99
f 641/256/128 642/257/102 643/258/102
f 643/258/102 644/259/12 645/260/129
f 643/258/102 645/260/129 646/261/130
f 641/256/128 643/258/102 646/261/130
f 647/262/131 648/263/104 649/264/104
f 649/264/104 643/258/102 642/257/102
f 647/262/131 649/264/104 642/257/102
f 650/265/10 649/264/104 648/263/104
f 648/263/104 651/266/10 650/265/10
f 651/267/132 652/268/133 653/269/107
f 653/269/107 650/270/132 651/267/132
f 654/271/134 655/272/11 653/269/107
f 653/269/107 652/268/133 656/273/135
f 654/271/134 653/269/107 656/273/135
f 657/274/136 654/271/134 656/273/135
f 658/275/137 659/233/111 655/272/11
f 660/276/138 658/275/137 655/272/11
f 660/276/138 655/272/11 654/271/134
f 658/275/137 661/277/139 662/232/114
f 662/232/114 659/233/111 658/275/137
f 663/237/116 662/232/114 661/277/139
f 661/277/139 664/278/140 663/237/116
f 664/278/140 665/279/141 666/239/117
f 666/239/117 663/237/116 664/278/140
f 667/280/142 645/260/129 644/259/12
f 644/259/12 666/239/117 665/279/141
f 667/280/142 644/259/12 665/279/141
f 668/245/5 669/246/5 670/247/5
f 670/247/5 671/248/5 672/249/5
f 672/249/5 673/250/5 674/251/5
f 674/251/5 675/252/5 676/253/5
f 672/249/5 674/251/5 676/253/5
f 670/247/5 672/249/5 676/253/5
f 668/245/5 670/247/5 676/253/5
f 677/254/5 668/245/5 676/253/5
f 643/252/8 649/251/8 650/250/8
f 650/250/8 653/249/8 655/248/8
f 655/248/8 659/247/8 662/246/8
f 662/246/8 663/245/8 666/254/8
f 655/248/8 662/246/8 666/254/8
f 650/250/8 655/248/8 666/254/8
f 643/252/8 650/250/8 666/254/8
f 644/253/8 643/252/8 666/254/8
f 678/178/96 679/179/120 680/180/12
f 680/180/12 681/181/12 678/178/96
f 679/182/10 678/183/10 682/184/97
f 682/184/97 683/185/97 679/182/10
f 683/185/97 682/184/97 684/186/11
f 684/186/11 685/187/11 683/185/97
f 685/187/11 684/186/11 686/188/98
f 686/188/98 687/189/98 685/187/11
f 687/189/98 686/188/98 688/190/99
f 688/190/99 689/191/99 687/189/98
f 680/180/12 689/191/99 688/190/99
f 688/190/99 681/181/12 680/180/12
f 686/192/5 684/193/5 682/194/5
f 682/194/5 678/195/5 681/196/5
f 686/192/5 682/194/5 681/196/5
f 688/197/5 686/192/5 681/196/5
f 690/195/8 691/194/8 692/193/8
f 692/193/8 693/192/8 694/197/8
f 690/195/8 692/193/8 694/197/8
f 695/196/8 690/195/8 694/197/8
f 695/198/12 694/199/99 696/200/99
f 696/200/99 697/201/12 695/198/12
f 697/201/12 698/202/120 690/203/96
f 690/203/96 695/198/12 697/201/12
f 691/204/97 690/205/10 698/206/10
f 698/206/10 699/207/97 691/204/97
f 699/207/97 700/208/11 692/209/11
f 692/209/11 691/204/97 699/207/97
f 693/210/98 692/209/11 700/208/11
f 700/208/11 701/211/98 693/210/98
f 696/200/99 694/199/99 693/210/98
f 693/210/98 701/211/98 696/200/99
f 702/256/128 703/257/102 704/258/102
f 704/258/102 705/259/12 706/260/143
f 704/258/102 706/260/143 707/261/130
f 702/256/128 704/258/102 707/261/130
f 708/264/104 704/258/102 703/257/102
f 703/257/102 709/263/104 708/264/104
f 709/263/104 710/266/10 711/265/10
f 711/265/10 708/264/104 709/263/104
f 712/269/107 711/270/106 710/267/106
f 710/267/106 713/268/107 712/269/107
f 714/271/144 715/272/11 712/269/107
f 712/269/107 713/268/107 716/273/145
f 714/271/144 712/269/107 716/273/145
f 717/274/146 714/271/144 716/273/145
f 718/275/147 719/233/111 715/272/11
f 720/276/148 718/275/147 715/272/11
f 720/276/148 715/272/11 714/271/144
f 718/275/147 721/277/139 722/232/114
f 722/232/114 719/233/111 718/275/147
f 723/237/116 722/232/114 721/277/139
f 721/277/139 724/278/140 723/237/116
f 724/278/140 725/279/149 726/239/117
f 726/239/117 723/237/116 724/278/140
f 727/280/150 706/260/143 705/259/12
f 705/259/12 726/239/117 725/279/149
f 727/280/150 705/259/12 725/279/149
f 728/245/5 729/246/5 730/247/5
f 730/247/5 731/248/5 732/249/5
f 732/249/5 733/250/5 734/251/5
f 734/251/5 735/252/5 736/253/5
f 732/249/5 734/251/5 736/253/5
f 730/247/5 732/249/5 736/253/5
f 728/245/5 730/247/5 736/253/5
f 737/254/5 728/245/5 736/253/5
f 704/252/8 708/251/8 711/250/8
f 711/250/8 712/249/8 715/248/8
f 715/248/8 719/247/8 722/246/8
f 722/246/8 723/245/8 726/254/8
f 715/248/8 722/246/8 726/254/8
f 711/250/8 715/248/8 726/254/8
f 704/252/8 711/250/8 726/254/8
f 705/253/8 704/252/8 726/254/8
f 670/228/111 669/281/114 738/282/139
f 738/282/139 739/283/137 670/228/111
f 740/284/151 741/226/152 671/225/11
f 670/228/111 739/283/137 742/285/153
f 671/225/11 670/228/111 742/285/153
f 740/284/151 671/225/11 742/285/153
f 743/286/140 668/287/116 677/243/117
f 677/243/117 744/288/141 743/286/140
f 738/282/139 669/281/114 668/287/116
f 668/287/116 743/286/140 738/282/139
f 676/214/12 745/213/154 746/289/119
f 676/214/12 746/289/119 747/290/127
f 748/291/155 744/288/141 677/243/117
f 747/290/127 748/291/155 677/243/117
f 676/214/12 747/290/127 677/243/117
f 730/228/111 729/281/114 749/282/139
f 749/282/139 750/283/147 730/228/111
f 751/284/153 752/226/152 731/225/11
f 730/228/111 750/283/147 753/285/153
f 731/225/11 730/228/111 753/285/153
f 751/284/153 731/225/11 753/285/153
f 754/286/140 728/287/116 737/243/117
f 737/243/117 755/288/141 754/286/140
f 749/282/139 729/281/114 728/287/116
f 728/287/116 754/286/140 749/282/139
f 736/214/12 756/213/143 757/289/156
f 736/214/12 757/289/156 758/290/127
f 759/291/155 755/288/141 737/243/117
f 758/290/127 759/291/155 737/243/117
f 736/214/12 758/290/127 737/243/117
f 745/213/154 676/214/12 675/215/102
f 675/215/102 760/292/157 761/293/128
f 675/215/102 761/293/128 762/294/130
f 745/213/154 675/215/102 762/294/130
f 745/213/154 762/294/130 763/295/158
f 756/213/143 736/214/12 735/215/102
f 735/215/102 764/292/159 765/293/128
f 735/215/102 765/293/128 766/294/160
f 756/213/143 735/215/102 766/294/160
f 756/213/143 766/294/160 767/295/130
f 713/268/107 768/296/107 769/297/145
f 769/297/145 770/298/146 771/299/161
f 713/268/107 769/297/145 771/299/161
f 771/299/161 717/274/146 716/273/145
f 713/268/107 771/299/161 716/273/145
f 732/223/107 731/225/11 752/226/152
f 752/226/152 770/298/146 769/297/145
f 732/223/107 752/226/152 769/297/145
f 732/223/107 769/297/145 768/296/107
f 741/226/152 772/298/162 773/297/135
f 774/300/163 775/296/164 672/223/107
f 773/297/135 774/300/163 672/223/107
f 741/226/152 773/297/135 672/223/107
f 741/226/152 672/223/107 671/225/11
f 554/259/12 776/260/165 777/301/128
f 554/259/12 777/301/128 778/302/130
f 779/303/166 780/304/103 549/258/102
f 778/302/130 779/303/166 549/258/102
f 554/259/12 778/302/130 549/258/102
f 781/305/105 550/264/104 549/258/102
f 549/258/102 780/304/103 781/305/105
f 781/305/105 782/306/10 551/265/10
f 551/265/10 550/264/104 781/305/105
f 552/269/107 551/270/106 782/307/106
f 782/307/106 783/308/108 552/269/107
f 784/309/161 785/271/167 553/272/11
f 552/269/107 783/308/108 786/310/168
f 553/272/11 552/269/107 786/310/168
f 784/309/161 553/272/11 786/310/168
f 616/259/12 787/260/122 788/301/169
f 616/259/12 788/301/169 789/311/130
f 790/303/166 791/304/103 611/258/102
f 789/311/130 790/303/166 611/258/102
f 616/259/12 789/311/130 611/258/102
f 792/305/105 612/264/104 611/258/102
f 611/258/102 791/304/103 792/305/105
f 792/305/105 793/306/10 613/265/10
f 613/265/10 612/264/104 792/305/105
f 614/269/107 613/270/106 793/307/106
f 793/307/106 794/308/108 614/269/107
f 795/309/135 796/271/167 615/272/11
f 614/269/107 794/308/108 797/310/135
f 615/272/11 614/269/107 797/310/135
f 795/309/135 615/272/11 797/310/135
f 798/312/112 799/313/170 800/314/112
f 536/234/111 798/312/112 800/314/112
f 800/314/112 533/231/113 532/230/112
f 536/234/111 800/314/112 532/230/112
f 536/234/111 532/230/112 531/229/111
f 535/233/111 553/272/11 785/271/167
f 785/271/167 799/313/170 798/312/112
f 535/233/111 785/271/167 798/312/112
f 535/233/111 798/312/112 536/234/111
f 541/239/117 540/238/117 801/315/119
f 801/315/119 802/316/171 776/260/165
f 541/239/117 801/315/119 776/260/165
f 541/239/117 776/260/165 554/259/12
f 803/312/112 804/313/126 805/314/151
f 599/234/111 803/312/112 805/314/151
f 805/314/151 596/231/126 595/230/112
f 599/234/111 805/314/151 595/230/112
f 599/234/111 595/230/112 594/229/111
f 598/233/111 615/272/11 796/271/167
f 796/271/167 804/313/126 803/312/112
f 598/233/111 796/271/167 803/312/112
f 598/233/111 803/312/112 599/234/111
f 603/239/117 604/238/117 806/315/119
f 806/315/119 807/316/127 787/260/122
f 603/239/117 806/315/119 787/260/122
f 603/239/117 787/260/122 616/259/12
f 808/317/130 763/295/158 762/294/130
f 808/317/130 762/294/130 761/293/128
f 761/293/128 760/292/157 642/257/102
f 761/293/128 642/257/102 641/256/128
f 808/317/130 761/293/128 641/256/128
f 646/261/130 808/317/130 641/256/128
f 809/318/172 810/319/173 648/263/104
f 809/318/172 648/263/104 647/262/131
f 811/320/174 809/318/172 647/262/131
f 760/292/157 811/320/174 647/262/131
f 642/257/102 760/292/157 647/262/131
f 810/319/173 812/321/10 651/266/10
f 651/266/10 648/263/104 810/319/173
f 813/317/175 767/295/130 766/294/160
f 813/317/175 766/294/160 765/293/128
f 765/293/128 764/292/159 703/257/102
f 765/293/128 703/257/102 702/256/128
f 813/317/175 765/293/128 702/256/128
f 707/261/130 813/317/175 702/256/128
f 734/217/104 733/219/10 814/321/10
f 814/321/10 815/319/104 734/217/104
f 764/292/159 815/319/104 709/263/104
f 709/263/104 703/257/102 764/292/159
f 814/322/106 768/296/107 713/268/107
f 713/268/107 710/267/106 814/322/106
f 673/222/132 672/223/107 775/296/164
f 775/296/164 812/322/132 673/222/132
f 674/217/104 810/319/173 809/318/172
f 674/217/104 809/318/172 811/320/174
f 675/215/102 674/217/104 811/320/174
f 760/292/157 675/215/102 811/320/174
f 773/297/135 772/298/162 816/299/145
f 774/300/163 773/297/135 816/299/145
f 816/299/145 657/274/136 656/273/135
f 774/300/163 816/299/145 656/273/135
f 774/300/163 656/273/135 652/268/133
f 774/300/163 652/268/133 775/296/164
f 735/215/102 734/217/104 815/319/104
f 815/319/104 764/292/159 735/215/102
f 674/217/104 673/219/10 812/321/10
f 812/321/10 810/319/173 674/217/104
f 733/222/106 732/223/107 768/296/107
f 768/296/107 814/322/106 733/222/106
f 710/266/10 709/263/104 815/319/104
f 815/319/104 814/321/10 710/266/10
f 651/267/132 812/322/132 775/296/164
f 775/296/164 652/268/133 651/267/132
f 817/323/176 818/324/177 547/287/116
f 819/325/178 817/323/176 547/287/116
f 547/287/116 545/243/117 544/242/117
f 819/325/178 547/287/116 544/242/117
f 540/238/117 544/242/117 543/241/119
f 543/241/119 546/244/119 820/326/119
f 540/238/117 543/241/119 820/326/119
f 801/315/119 540/238/117 820/326/119
f 801/315/119 820/326/119 802/316/171
f 548/281/114 547/287/116 818/324/177
f 818/324/177 821/327/114 548/281/114
f 530/228/111 548/281/114 821/327/114
f 821/327/114 531/229/111 530/228/111
f 610/281/114 609/287/116 822/324/116
f 822/324/116 823/327/114 610/281/114
f 593/228/111 610/281/114 823/327/114
f 823/327/114 594/229/111 593/228/111
f 822/324/116 606/242/117 604/238/117
f 604/238/117 601/236/116 822/324/116
f 604/238/117 606/242/117 605/241/119
f 605/241/119 608/244/127 824/326/119
f 604/238/117 605/241/119 824/326/119
f 806/315/119 604/238/117 824/326/119
f 806/315/119 824/326/119 807/316/127
f 538/236/115 818/324/177 817/323/176
f 544/242/117 540/238/117 542/240/118
f 819/325/178 544/242/117 542/240/118
f 817/323/176 819/325/178 542/240/118
f 538/236/115 817/323/176 542/240/118
f 536/234/111 531/229/111 821/327/114
f 821/327/114 537/235/114 536/234/111
f 538/236/115 537/235/114 821/327/114
f 821/327/114 818/324/177 538/236/115
f 609/287/116 607/243/117 606/242/117
f 606/242/117 822/324/116 609/287/116
f 599/234/111 594/229/111 823/327/114
f 823/327/114 600/235/114 599/234/111
f 601/236/116 600/235/114 823/327/114
f 823/327/114 822/324/116 601/236/116
f 825/328/179 826/329/8 827/330/8
f 827/330/8 828/331/179 825/328/179
f 829/332/180 825/328/179 828/331/179
f 828/331/179 830/333/180 829/332/180
f 831/334/10 829/332/180 830/333/180
f 830/333/180 832/335/10 831/334/10
f 833/336/181 831/337/64 832/338/64
f 832/338/64 834/339/181 833/336/181
f 835/340/5 833/336/181 834/339/181
f 834/339/181 836/341/5 835/340/5
f 837/342/182 835/340/5 836/341/5
f 836/341/5 838/343/182 837/342/182
f 839/344/183 837/342/182 838/343/182
f 838/343/182 840/345/183 839/344/183
f 841/346/184 839/344/183 840/345/183
f 840/345/183 842/347/184 841/346/184
f 843/348/185 841/346/184 842/347/184
f 842/347/184 844/349/185 843/348/185
f 825/350/11 829/351/11 831/352/11
f 831/352/11 833/353/11 835/354/11
f 835/354/11 837/355/11 839/356/11
f 839/356/11 841/357/11 843/358/11
f 835/354/11 839/356/11 843/358/11
f 831/352/11 835/354/11 843/358/11
f 825/350/11 831/352/11 843/358/11
f 826/359/11 825/350/11 843/358/11
f 845/328/179 846/329/8 847/330/8
f 847/330/8 848/331/179 845/328/179
f 849/332/180 845/328/179 848/331/179
f 848/331/179 850/333/180 849/332/180
f 851/334/10 849/332/180 850/333/180
f 850/333/180 852/335/10 851/334/10
f 853/336/181 851/337/64 852/338/64
f 852/338/64 854/339/181 853/336/181
f 855/340/5 853/336/181 854/339/181
f 854/339/181 856/341/5 855/340/5
f 857/342/182 855/340/5 856/341/5
f 856/341/5 858/343/182 857/342/182
f 859/344/183 857/342/182 858/343/182
f 858/343/182 860/345/183 859/344/183
f 861/346/184 859/344/183 860/345/183
f 860/345/183 862/347/184 861/346/184
f 863/348/185 861/346/184 862/347/184
f 862/347/184 864/349/185 863/348/185
f 845/350/11 849/351/11 851/352/11
f 851/352/11 853/353/11 855/354/11
f 855/354/11 857/355/11 859/356/11
f 859/356/11 861/357/11 863/358/11
f 855/354/11 859/356/11 863/358/11
f 851/352/11 855/354/11 863/358/11
f 845/350/11 851/352/11 863/358/11
f 846/359/11 845/350/11 863/358/11
f 865/328/179 866/329/8 867/330/8
f 867/330/8 868/331/179 865/328/179
f 869/332/180 865/328/179 868/331/179
f 868/331/179 870/333/180 869/332/180
f 871/334/10 869/332/180 870/333/180
f 870/333/180 872/335/10 871/334/10
f 873/336/181 871/337/64 872/338/64
f 872/338/64 874/339/181 873/336/181
f 875/340/5 873/336/181 874/339/181
f 874/339/181 876/341/5 875/340/5
f 877/342/182 875/340/5 876/341/5
f 876/341/5 878/343/182 877/342/182
f 879/344/183 877/342/182 878/343/182
f 878/343/182 880/345/183 879/344/183
f 881/346/184 879/344/183 880/345/183
f 880/345/183 882/347/184 881/346/184
f 883/348/185 881/346/184 882/347/184
f 882/347/184 884/349/185 883/348/185
f 865/350/11 869/351/11 871/352/11
f 871/352/11 873/353/11 875/354/11
f 875/354/11 877/355/11 879/356/11
f 879/356/11 881/357/11 883/358/11
f 875/354/11 879/356/11 883/358/11
f 871/352/11 875/354/11 883/358/11
f 865/350/11 871/352/11 883/358/11
f 866/359/11 865/350/11 883/358/11
f 866/329/8 883/348/185 884/349/185
f 884/349/185 867/330/8 866/329/8
f 846/329/8 863/348/185 864/349/185
f 864/349/185 847/330/8 846/329/8
f 885/328/179 886/329/8 887/330/8
f 887/330/8 888/331/179 885/328/179
f 889/332/180 885/328/179 888/331/179
f 888/331/179 890/333/180 889/332/180
f 891/334/10 889/332/180 890/333/180
f 890/333/180 892/335/10 891/334/10
f 893/336/181 891/337/64 892/338/64
f 892/338/64 894/339/181 893/336/181
f 895/340/5 893/336/181 894/339/181
f 894/339/181 896/341/5 895/340/5
f 897/342/182 895/340/5 896/341/5
f 896/341/5 898/343/182 897/342/182
f 899/344/183 897/342/182 898/343/182
f 898/343/182 900/345/183 899/344/183
f 901/346/184 899/344/183 900/345/183
f 900/345/183 902/347/184 901/346/184
f 903/348/185 901/346/184 902/347/184
f 902/347/184 904/349/185 903/348/185
f 885/350/11 889/351/11 891/352/11
f 891/352/11 893/353/11 895/354/11
f 895/354/11 897/355/11 899/356/11
f 899/356/11 901/357/11 903/358/11
f 895/354/11 899/356/11 903/358/11
f 891/352/11 895/354/11 903/358/11
f 885/350/11 891/352/11 903/358/11
f 886/359/11 885/350/11 903/358/11
f 826/329/8 843/348/185 844/349/185
f 844/349/185 827/330/8 826/329/8
f 886/329/8 903/348/185 904/349/185
f 904/349/185 887/330/8 886/329/8
f 905/360/8 906/361/186 907/362/186
f 907/362/186 908/329/8 905/360/8
f 906/361/186 909/363/10 910/364/10
f 910/364/10 907/362/186 906/361/186
f 909/365/59 911/366/5 912/340/5
f 912/340/5 910/367/59 909/365/59
f 911/366/5 913/368/88 914/369/88
f 914/369/88 912/340/5 911/366/5
f 913/368/88 915/370/89 916/371/89
f 916/371/89 914/369/88 913/368/88
f 915/370/89 905/360/8 908/329/8
f 908/329/8 916/371/89 915/370/89
f 913/372/12 911/354/12 909/373/12
f 909/373/12 906/374/12 905/359/12
f 913/372/12 909/373/12 905/359/12
f 915/375/12 913/372/12 905/359/12
f 907/374/11 910/373/11 912/354/11
f 912/354/11 914/372/11 916/375/11
f 907/374/11 912/354/11 916/375/11
f 908/359/11 907/374/11 916/375/11
f 917/360/8 918/361/186 919/362/186
f 919/362/186 920/329/8 917/360/8
f 918/361/186 921/363/10 922/364/10
f 922/364/10 919/362/186 918/361/186
f 921/365/59 923/366/5 924/340/5
f 924/340/5 922/367/59 921/365/59
f 923/366/5 925/368/88 926/369/88
f 926/369/88 924/340/5 923/366/5
f 925/368/88 927/370/89 928/371/89
f 928/371/89 926/369/88 925/368/88
f 927/370/89 917/360/8 920/329/8
f 920/329/8 928/371/89 927/370/89
f 925/372/12 923/354/12 921/373/12
f 921/373/12 918/374/12 917/359/12
f 925/372/12 921/373/12 917/359/12
f 927/375/12 925/372/12 917/359/12
f 919/374/11 922/373/11 924/354/11
f 924/354/11 926/372/11 928/375/11
f 919/374/11 924/354/11 928/375/11
f 920/359/11 919/374/11 928/375/11
f 929/360/8 930/361/186 931/362/186
f 931/362/186 932/329/8 929/360/8
f 930/361/186 933/363/10 934/364/10
f 934/364/10 931/362/186 930/361/186
f 933/365/59 935/366/5 936/340/5
f 936/340/5 934/367/59 933/365/59
f 935/366/5 937/368/88 938/369/88
f 938/369/88 936/340/5 935/366/5
f 937/368/88 939/370/89 940/371/89
f 940/371/89 938/369/88 937/368/88
f 939/370/89 929/360/8 932/329/8
f 932/329/8 940/371/89 939/370/89
f 937/372/12 935/354/12 933/373/12
f 933/373/12 930/374/12 929/359/12
f 937/372/12 933/373/12 929/359/12
f 939/375/12 937/372/12 929/359/12
f 931/374/11 934/373/11 936/354/11
f 936/354/11 938/372/11 940/375/11
f 931/374/11 936/354/11 940/375/11
f 932/359/11 931/374/11 940/375/11
f 941/360/8 942/361/186 943/362/186
f 943/362/186 944/329/8 941/360/8
f 942/361/186 945/363/10 946/364/10
f 946/364/10 943/362/186 942/361/186
f 945/365/59 947/366/5 948/340/5
f 948/340/5 946/367/59 945/365/59
f 947/366/5 949/368/88 950/369/88
f 950/369/88 948/340/5 947/366/5
f 949/368/88 951/370/89 952/371/89
f 952/371/89 950/369/88 949/368/88
f 951/370/89 941/360/8 944/329/8
f 944/329/8 952/371/89 951/370/89
f 949/372/12 947/354/12 945/373/12
f 945/373/12 942/374/12 941/359/12
f 949/372/12 945/373/12 941/359/12
f 951/375/12 949/372/12 941/359/12
f 943/374/11 946/373/11 948/354/11
f 948/354/11 950/372/11 952/375/11
f 943/374/11 948/354/11 952/375/11
f 944/359/11 943/374/11 952/375/11
f 953/376/13 954/377/13 955/378/13
f 955/378/13 956/379/13 953/376/13
f 957/376/8 953/377/8 956/378/8
f 956/378/8 958/379/8 957/376/8
f 959/376/10 957/377/10 958/378/10
f 958/378/10 960/379/10 959/376/10
f 954/376/5 959/377/5 960/378/5
f 960/378/5 955/379/5 954/376/5
f 961/376/13 962/377/13 963/378/13
f 963/378/13 964/379/13 961/376/13
f 965/376/8 961/377/8 964/378/8
f 964/378/8 966/379/8 965/376/8
f 967/376/10 965/377/10 966/378/10
f 966/378/10 968/379/10 967/376/10
f 962/376/5 967/377/5 968/378/5
f 968/378/5 963/379/5 962/376/5
f 969/377/12 970/378/12 971/379/12
f 971/379/12 972/376/12 969/377/12
f 973/376/11 974/377/11 975/378/11
f 975/378/11 976/379/11 973/376/11
f 976/376/13 975/377/13 971/378/13
f 971/378/13 970/379/13 976/376/13
f 973/376/8 976/377/8 970/378/8
f 970/378/8 969/379/8 973/376/8
f 974/376/10 973/377/10 969/378/10
f 969/378/10 972/379/10 974/376/10
f 975/376/5 974/377/5 972/378/5
f 972/378/5 971/379/5 975/376/5
f 977/380/11 978/381/11 979/382/11
f 979/382/11 980/383/11 977/380/11
f 981/380/187 982/381/187 978/382/13
f 978/382/13 977/383/13 981/380/187
f 982/380/8 983/381/8 979/382/8
f 979/382/8 978/383/8 982/380/8
f 983/380/188 984/381/188 980/382/10
f 980/382/10 979/383/10 983/380/188
f 984/380/5 981/381/5 977/382/5
f 977/382/5 980/383/5 984/380/5
f 17/13/12 19/13/12 20/13/12
f 19/13/9 20/13/9 20/13/9
f 20/13/12 16/13/12 17/13/12
f 5/5/4 985/384/4 4/1/3
f 6/7/5 986/385/5 1/8/5
f 7/9/7 8/386/7 2/1/6
f 9/11/8 987/384/8 3/1/8
f 14/5/3 17/384/3 13/1/3
f 15/12/5 16/386/189 10/1/5
f 18/9/6 20/386/190 11/1/6
f 21/16/8 19/387/8 12/14/8
f 7/9/7 986/10/7 985/384/4
f 985/384/4 5/5/4 7/9/7
f 5/5/4 987/388/4 8/386/7
f 7/9/7 5/5/4 8/386/7
f 3/2/3 987/388/4 5/5/4
f 4/6/5 985/389/5 6/7/5
f 1/2/6 986/10/7 7/9/7
f 3/1/8 2/2/8 8/10/8
f 12/2/3 19/388/191 14/5/3
f 13/2/5 17/388/192 15/12/5
f 10/2/6 16/10/6 18/9/6
f 12/14/8 11/390/8 20/15/8
f 983/380/188 981/380/187 984/381/188
f 983/380/188 982/381/187 981/380/187
