# generated by tools/objdedupe/dedupe.py -- do not hand-edit.
# Re-run the tool after touching sssr_2svet_nove.obj, sssr_3svet_nove.obj, sssr_4svet_nove.obj, sssr_5svet_nove.obj, sssr_2se_nove.obj, sssr_3ab_nove.obj, sssr_4ab_nove.obj, sssr_pr_nove.obj, sssr_vl_nove.obj.
o stoz_5odj_cisla
v -0.023595 2.427562 0.040716
vt 0.794132 0.041293
vn -0.000000 -1.000000 -0.000000
v -0.040868 2.427562 0.023444
vt 0.845929 0.011388
v -0.047190 2.427562 -0.000151
vt 0.905739 0.011388
v -0.040868 2.427562 -0.023746
vt 0.957536 0.041293
v -0.023595 2.427562 -0.041019
vt 0.987441 0.093090
v 0.000000 2.427562 -0.047341
vt 0.987441 0.152900
v 0.023595 2.427562 -0.041019
vt 0.957536 0.204697
v 0.040868 2.427562 -0.023746
vt 0.905739 0.234602
v 0.047190 2.427562 -0.000151
vt 0.845929 0.234602
v 0.040868 2.427562 0.023444
vt 0.794132 0.204697
v 0.023595 2.427562 0.040716
vt 0.764227 0.152900
v 0.000000 2.427562 0.047039
vt 0.764227 0.093090
v -0.040868 2.436638 0.023444
vt 0.987441 0.234602
vn -0.965900 -0.000000 0.258800
v -0.047190 2.436638 -0.000151
vt 0.764227 0.234602
vt 0.764227 0.011388
vt 0.987441 0.011388
v -0.023595 2.436638 0.040716
vn -0.707100 -0.000000 0.707100
v 0.000000 2.436638 0.047039
vn -0.258800 -0.000000 0.965900
v 0.023595 2.436638 0.040716
vn 0.258800 -0.000000 0.965900
v 0.040868 2.436638 0.023444
vn 0.707100 -0.000000 0.707100
v 0.047190 2.436638 -0.000151
vn 0.965900 -0.000000 0.258800
v 0.040868 2.436638 -0.023746
vn 0.965900 -0.000000 -0.258800
v 0.023595 2.436638 -0.041019
vn 0.707100 -0.000000 -0.707100
v 0.000000 2.436638 -0.047341
vn 0.258800 -0.000000 -0.965900
v -0.023595 2.436638 -0.041019
vn -0.258800 -0.000000 -0.965900
v -0.040868 2.436638 -0.023746
vn -0.707100 -0.000000 -0.707100
vn -0.965900 -0.000000 -0.258800
vn -0.000000 1.000000 -0.000000
v -0.006050 2.203712 0.051274
v -0.006050 2.203712 0.045224
v 0.006050 2.203712 0.045224
v 0.006050 2.203712 0.051274
v -0.006050 2.436638 0.051274
v 0.006050 2.436638 0.051274
v 0.006050 2.436638 0.045224
v -0.006050 2.436638 0.045224
vn -0.000000 -0.000000 1.000000
vn 1.000000 -0.000000 -0.000000
vn -1.000000 -0.000000 -0.000000
v -0.023595 2.203712 0.040716
v -0.040868 2.203712 0.023444
v -0.047190 2.203712 -0.000151
v -0.040868 2.203712 -0.023746
v -0.023595 2.203712 -0.041019
v 0.000000 2.203712 -0.047341
v 0.023595 2.203712 -0.041019
v 0.040868 2.203712 -0.023746
v 0.047190 2.203712 -0.000151
v 0.040868 2.203712 0.023444
v 0.023595 2.203712 0.040716
v 0.000000 2.203712 0.047039
v -0.040868 2.212788 0.023444
v -0.047190 2.212788 -0.000151
v -0.023595 2.212788 0.040716
v 0.000000 2.212788 0.047039
vn -0.258900 -0.000000 0.965900
v 0.023595 2.212788 0.040716
vn 0.258900 -0.000000 0.965900
v 0.040868 2.212788 0.023444
v 0.047190 2.212788 -0.000151
v 0.040868 2.212788 -0.023746
v 0.023595 2.212788 -0.041019
v 0.000000 2.212788 -0.047341
v -0.023595 2.212788 -0.041019
v -0.040868 2.212788 -0.023746
v -0.033275 2.218837 0.057021
v -0.033275 2.218837 0.050971
v 0.033275 2.218837 0.050971
v 0.033275 2.218837 0.057021
v -0.033275 2.315638 0.057021
v 0.033275 2.315638 0.057021
v 0.033275 2.315638 0.050971
v -0.033275 2.315638 0.050971
vt 0.249257 0.250928
vt 0.499960 0.250928
vt 0.499960 0.499973
vt 0.249257 0.499973
vn -0.000000 -0.000000 -1.000000
v -0.033275 2.324713 0.057021
v -0.033275 2.324713 0.050971
v 0.033275 2.324713 0.050971
v 0.033275 2.324713 0.057021
v -0.033275 2.421513 0.057021
v 0.033275 2.421513 0.057021
v 0.033275 2.421513 0.050971
v -0.033275 2.421513 0.050971
vt -0.000784 0.251034
vt 0.249316 0.251034
vt 0.249316 0.499850
vt -0.000784 0.499850
v 0.090750 -0.000000 -0.448673
vt 0.000000 0.000000
vn -0.000000 -0.006700 -1.000000
v 0.084700 -0.000000 -0.448673
v 0.084700 -0.000000 -0.479095
vn -0.000000 -0.010700 -0.999900
v 0.090750 -0.000000 -0.479095
vn -0.000000 -0.000000 -0.000000
v -0.090750 -0.000000 -0.448673
v -0.084700 -0.000000 -0.448673
v -0.084700 -0.000000 -0.479095
v -0.090750 -0.000000 -0.479095
f 1/1/1 2/2/1 3/3/1
f 3/3/1 4/4/1 5/5/1
f 5/5/1 6/6/1 7/7/1
f 3/3/1 5/5/1 7/7/1
f 7/7/1 8/8/1 9/9/1
f 9/9/1 10/10/1 11/11/1
f 7/7/1 9/9/1 11/11/1
f 3/3/1 7/7/1 11/11/1
f 1/1/1 3/3/1 11/11/1
f 1/1/1 11/11/1 12/12/1
f 13/13/2 14/14/2 3/15/2
f 3/15/2 2/16/2 13/13/2
f 15/13/3 13/14/3 2/15/3
f 2/15/3 1/16/3 15/13/3
f 16/13/4 15/14/4 1/15/4
f 1/15/4 12/16/4 16/13/4
f 17/13/5 16/14/5 12/15/5
f 12/15/5 11/16/5 17/13/5
f 18/13/6 17/14/6 11/15/6
f 11/15/6 10/16/6 18/13/6
f 19/13/7 18/14/7 10/15/7
f 10/15/7 9/16/7 19/13/7
f 20/13/8 19/14/8 9/15/8
f 9/15/8 8/16/8 20/13/8
f 21/13/9 20/14/9 8/15/9
f 8/15/9 7/16/9 21/13/9
f 22/13/10 21/14/10 7/15/10
f 7/15/10 6/16/10 22/13/10
f 23/13/11 22/14/11 6/15/11
f 6/15/11 5/16/11 23/13/11
f 24/13/12 23/14/12 5/15/12
f 5/15/12 4/16/12 24/13/12
f 14/13/13 24/14/13 4/15/13
f 4/15/13 3/16/13 14/13/13
f 21/1/14 22/2/14 23/3/14
f 23/3/14 24/4/14 14/5/14
f 14/5/14 13/6/14 15/7/14
f 23/3/14 14/5/14 15/7/14
f 15/7/14 16/8/14 17/9/14
f 17/9/14 18/10/14 19/11/14
f 15/7/14 17/9/14 19/11/14
f 23/3/14 15/7/14 19/11/14
f 21/1/14 23/3/14 19/11/14
f 21/1/14 19/11/14 20/12/14
f 25/13/1 26/14/1 27/15/1
f 27/15/1 28/16/1 25/13/1
f 29/13/14 30/14/14 31/15/14
f 31/15/14 32/16/14 29/13/14
f 25/13/15 28/14/15 30/15/15
f 30/15/15 29/16/15 25/13/15
f 28/13/16 27/14/16 31/15/16
f 31/15/16 30/16/16 28/13/16
f 26/13/17 25/14/17 29/15/17
f 29/15/17 32/16/17 26/13/17
f 33/1/1 34/2/1 35/3/1
f 35/3/1 36/4/1 37/5/1
f 37/5/1 38/6/1 39/7/1
f 35/3/1 37/5/1 39/7/1
f 39/7/1 40/8/1 41/9/1
f 41/9/1 42/10/1 43/11/1
f 39/7/1 41/9/1 43/11/1
f 35/3/1 39/7/1 43/11/1
f 33/1/1 35/3/1 43/11/1
f 33/1/1 43/11/1 44/12/1
f 45/13/2 46/14/2 35/15/2
f 35/15/2 34/16/2 45/13/2
f 47/13/3 45/14/3 34/15/3
f 34/15/3 33/16/3 47/13/3
f 48/13/18 47/14/4 33/15/4
f 33/15/4 44/16/18 48/13/18
f 49/13/19 48/14/5 44/15/5
f 44/15/5 43/16/19 49/13/19
f 50/13/6 49/14/6 43/15/6
f 43/15/6 42/16/6 50/13/6
f 51/13/7 50/14/7 42/15/7
f 42/15/7 41/16/7 51/13/7
f 52/13/8 51/14/8 41/15/8
f 41/15/8 40/16/8 52/13/8
f 53/13/9 52/14/9 40/15/9
f 40/15/9 39/16/9 53/13/9
f 54/13/10 53/14/10 39/15/10
f 39/15/10 38/16/10 54/13/10
f 55/13/11 54/14/11 38/15/11
f 38/15/11 37/16/11 55/13/11
f 56/13/12 55/14/12 37/15/12
f 37/15/12 36/16/12 56/13/12
f 46/13/13 56/14/13 36/15/13
f 36/15/13 35/16/13 46/13/13
f 53/1/14 54/2/14 55/3/14
f 55/3/14 56/4/14 46/5/14
f 46/5/14 45/6/14 47/7/14
f 55/3/14 46/5/14 47/7/14
f 47/7/14 48/8/14 49/9/14
f 49/9/14 50/10/14 51/11/14
f 47/7/14 49/9/14 51/11/14
f 55/3/14 47/7/14 51/11/14
f 53/1/14 55/3/14 51/11/14
f 53/1/14 51/11/14 52/12/14
f 57/13/1 58/14/1 59/15/1
f 59/15/1 60/16/1 57/13/1
f 61/13/14 62/14/14 63/15/14
f 63/15/14 64/16/14 61/13/14
f 57/17/15 60/18/15 62/19/15
f 62/19/15 61/20/15 57/17/15
f 60/13/16 59/14/16 63/15/16
f 63/15/16 62/16/16 60/13/16
f 59/13/20 58/14/20 64/15/20
f 64/15/20 63/16/20 59/13/20
f 58/13/17 57/14/17 61/15/17
f 61/15/17 64/16/17 58/13/17
f 65/13/1 66/14/1 67/15/1
f 67/15/1 68/16/1 65/13/1
f 69/13/14 70/14/14 71/15/14
f 71/15/14 72/16/14 69/13/14
f 65/21/15 68/22/15 70/23/15
f 70/23/15 69/24/15 65/21/15
f 68/13/16 67/14/16 71/15/16
f 71/15/16 70/16/16 68/13/16
f 67/13/20 66/14/20 72/15/20
f 72/15/20 71/16/20 67/13/20
f 66/13/17 65/14/17 69/15/17
f 69/15/17 72/16/17 66/13/17
f 73/25/21 74/25/20 75/25/22
f 76/25/23 76/25/23 73/25/23
f 76/25/23 73/25/23 73/25/23
f 75/25/20 75/25/14 76/25/20
f 75/25/22 76/25/20 73/25/21
f 74/25/23 74/25/23 75/25/23
f 77/25/14 78/25/14 79/25/14
f 80/25/23 80/25/23 77/25/23
f 80/25/23 77/25/23 77/25/23
f 79/25/20 79/25/14 80/25/14
f 79/25/14 80/25/14 77/25/14
f 78/25/23 78/25/23 79/25/23
