# generated by tools/objdedupe/dedupe.py -- do not hand-edit.
# Re-run the tool after touching sssr_2svet_nove.obj, sssr_3svet_nove.obj, sssr_4svet_nove.obj, sssr_5svet_nove.obj, sssr_2se_nove.obj, sssr_3ab_nove.obj, sssr_4ab_nove.obj, sssr_pr_nove.obj, sssr_vl_nove.obj.
o stoz_3_stozar__sssr_pr_nove
v -0.040535 0.686675 -0.000000
vt 0.348604 0.219832
vn -0.965900 -0.000000 0.258800
v -0.035105 0.868175 0.020268
vt 0.320573 0.288869
vn -0.866000 -0.000000 0.500000
v -0.040535 0.868175 -0.000000
vt 0.320419 0.219905
v -0.035105 0.686675 0.020268
vt 0.348758 0.288796
v -0.020268 0.868175 0.035105
vt 0.320686 0.339354
vn -0.500000 -0.000000 0.866000
v -0.020268 0.686675 0.035105
vt 0.348871 0.339281
v 0.000000 0.868175 0.040535
vt 0.320727 0.357834
vn -0.000000 -0.000000 1.000000
v 0.000000 0.686675 0.040535
vt 0.348912 0.357761
v 0.020268 0.868175 0.035105
vn 0.500000 -0.000000 0.866000
v 0.020268 0.686675 0.035105
v 0.035105 0.868175 0.020268
vn 0.866000 -0.000000 0.500000
v 0.035105 0.686675 0.020268
v 0.040535 0.868175 -0.000000
vn 0.965900 -0.000000 0.258800
v 0.040535 0.686675 -0.000000
v -0.035105 1.049675 0.020268
vt 0.292389 0.288941
v -0.040535 1.049675 -0.000000
vt 0.292235 0.219978
v -0.020268 1.049675 0.035105
vt 0.292502 0.339427
v 0.000000 1.049675 0.040535
vt 0.292543 0.357906
v 0.020268 1.049675 0.035105
v 0.035105 1.049675 0.020268
v 0.040535 1.049675 -0.000000
v -0.035105 1.231175 0.020268
vt 0.264204 0.289014
v -0.040535 1.231175 -0.000000
vt 0.264051 0.220050
v -0.020268 1.231175 0.035105
vt 0.264317 0.339500
v 0.000000 1.231175 0.040535
vt 0.264358 0.357979
v 0.020268 1.231175 0.035105
v 0.035105 1.231175 0.020268
v 0.040535 1.231175 -0.000000
v -0.035105 1.412675 0.020268
vt 0.236020 0.289087
v -0.040535 1.412675 -0.000000
vt 0.235866 0.220123
v -0.020268 1.412675 0.035105
vt 0.236133 0.339572
v 0.000000 1.412675 0.040535
vt 0.236174 0.358052
v 0.020268 1.412675 0.035105
v 0.035105 1.412675 0.020268
v 0.040535 1.412675 -0.000000
v -0.035105 1.594175 0.020268
vt 0.207835 0.289160
v -0.040535 1.594175 -0.000000
vt 0.207682 0.220196
v -0.020268 1.594175 0.035105
vt 0.207948 0.339645
v 0.000000 1.594175 0.040535
vt 0.207989 0.358124
v 0.020268 1.594175 0.035105
v 0.035105 1.594175 0.020268
v 0.040535 1.594175 -0.000000
v -0.035105 1.775675 0.020268
vt 0.179651 0.289232
v -0.040535 1.775675 -0.000000
vt 0.179497 0.220268
v -0.020268 1.775675 0.035105
vt 0.179764 0.339718
v 0.000000 1.775675 0.040535
vt 0.179805 0.358197
v 0.020268 1.775675 0.035105
v 0.035105 1.775675 0.020268
v 0.040535 1.775675 -0.000000
v -0.035105 1.957175 0.020268
vt 0.151466 0.289305
v -0.040535 1.957175 -0.000000
vt 0.151313 0.220341
v -0.020268 1.957175 0.035105
vt 0.151579 0.339791
v 0.000000 1.957175 0.040535
vt 0.151620 0.358270
v 0.020268 1.957175 0.035105
v 0.035105 1.957175 0.020268
v 0.040535 1.957175 -0.000000
v -0.035105 2.138675 0.020268
vt 0.123282 0.289378
v -0.040535 2.138675 -0.000000
vt 0.123128 0.220414
v -0.020268 2.138675 0.035105
vt 0.123395 0.339863
v 0.000000 2.138675 0.040535
vt 0.123436 0.358343
v 0.020268 2.138675 0.035105
v 0.035105 2.138675 0.020268
v 0.040535 2.138675 -0.000000
v -0.035105 2.320175 0.020268
vt 0.095097 0.289450
v -0.040535 2.320175 -0.000000
vt 0.094944 0.220487
v -0.020268 2.320175 0.035105
vt 0.095210 0.339936
v 0.000000 2.320175 0.040535
vt 0.095251 0.358415
v 0.020268 2.320175 0.035105
v 0.035105 2.320175 0.020268
v 0.040535 2.320175 -0.000000
v -0.035105 2.501675 0.020268
vt 0.066913 0.289523
v -0.040535 2.501675 -0.000000
vt 0.066759 0.220559
v -0.020268 2.501675 0.035105
vt 0.067025 0.340009
v 0.000000 2.501675 0.040535
vt 0.067066 0.358488
v 0.020268 2.501675 0.035105
v 0.035105 2.501675 0.020268
v 0.040535 2.501675 -0.000000
v -0.035105 2.683175 0.020268
vt 0.038729 0.289596
v -0.040535 2.683175 -0.000000
vt 0.038575 0.220632
v -0.020268 2.683175 0.035105
vt 0.038841 0.340081
v 0.000000 2.683175 0.040535
vt 0.038882 0.358561
v 0.020268 2.683175 0.035105
v 0.035105 2.683175 0.020268
v 0.040535 2.683175 -0.000000
vt 0.008277 0.289587
vn 0.965900 -0.000000 -0.258800
v 0.035105 2.683175 -0.020268
vt 0.349227 0.253125
vn 0.866000 -0.000000 -0.500000
vt 0.349307 0.288707
vn 0.996000 -0.000000 -0.089000
v 0.035105 0.686675 -0.020268
vt 0.008197 0.254005
v 0.020268 2.683175 -0.035105
vt 0.349169 0.227078
vn 0.500000 -0.000000 -0.866000
v 0.020268 0.686675 -0.035105
vt 0.008139 0.227958
v 0.000000 2.683175 -0.040535
vt 0.349148 0.217544
vn -0.000000 -0.000000 -1.000000
v 0.000000 0.686675 -0.040535
vt 0.008118 0.218424
v -0.020268 2.683175 -0.035105
vn -0.500000 -0.000000 -0.866000
v -0.020268 0.686675 -0.035105
v -0.035105 2.683175 -0.020268
vn -0.866000 -0.000000 -0.500000
v -0.035105 0.686675 -0.020268
vn -0.996000 -0.000000 -0.088900
vn -0.965900 -0.000000 -0.258800
v 0.035105 3.478447 -0.020268
vt 0.008132 0.254005
v 0.040535 3.478447 -0.000000
vt 0.008211 0.289587
vn 1.000000 -0.000000 -0.000000
v 0.020268 3.478447 -0.035105
vt 0.008074 0.227958
v 0.000000 3.478447 -0.040535
vt 0.008052 0.218425
v -0.020268 3.478447 -0.035105
v -0.035105 3.478447 -0.020268
v -0.040535 3.478447 -0.000000
vn -1.000000 -0.000000 -0.000000
v -0.035105 3.478447 0.020268
vt 0.008290 0.325170
vt 0.349386 0.324289
v -0.020268 3.478447 0.035105
vt 0.008349 0.351217
vt 0.349444 0.350337
v 0.000000 3.478447 0.040535
vt 0.008370 0.360752
vt 0.349465 0.359871
v 0.020268 3.478447 0.035105
v 0.035105 3.478447 0.020268
v 0.000000 3.478447 -0.000000
vn -0.000000 1.000000 -0.000000
f 1/1/1 2/2/2 3/3/1
f 1/1/1 4/4/2 2/2/2
f 4/4/2 5/5/3 2/2/2
f 4/4/2 6/6/3 5/5/3
f 6/6/3 7/7/4 5/5/3
f 6/6/3 8/8/4 7/7/4
f 8/8/4 9/5/5 7/7/4
f 8/8/4 10/6/5 9/5/5
f 10/6/5 11/2/6 9/5/5
f 10/6/5 12/4/6 11/2/6
f 12/4/6 13/3/7 11/2/6
f 12/4/6 14/1/7 13/3/7
f 3/3/1 15/9/2 16/10/1
f 3/3/1 2/2/2 15/9/2
f 2/2/2 17/11/3 15/9/2
f 2/2/2 5/5/3 17/11/3
f 5/5/3 18/12/4 17/11/3
f 5/5/3 7/7/4 18/12/4
f 7/7/4 19/11/5 18/12/4
f 7/7/4 9/5/5 19/11/5
f 9/5/5 20/9/6 19/11/5
f 9/5/5 11/2/6 20/9/6
f 11/2/6 21/10/7 20/9/6
f 11/2/6 13/3/7 21/10/7
f 16/10/1 22/13/2 23/14/1
f 16/10/1 15/9/2 22/13/2
f 15/9/2 24/15/3 22/13/2
f 15/9/2 17/11/3 24/15/3
f 17/11/3 25/16/4 24/15/3
f 17/11/3 18/12/4 25/16/4
f 18/12/4 26/15/5 25/16/4
f 18/12/4 19/11/5 26/15/5
f 19/11/5 27/13/6 26/15/5
f 19/11/5 20/9/6 27/13/6
f 20/9/6 28/14/7 27/13/6
f 20/9/6 21/10/7 28/14/7
f 23/14/1 29/17/2 30/18/1
f 23/14/1 22/13/2 29/17/2
f 22/13/2 31/19/3 29/17/2
f 22/13/2 24/15/3 31/19/3
f 24/15/3 32/20/4 31/19/3
f 24/15/3 25/16/4 32/20/4
f 25/16/4 33/19/5 32/20/4
f 25/16/4 26/15/5 33/19/5
f 26/15/5 34/17/6 33/19/5
f 26/15/5 27/13/6 34/17/6
f 27/13/6 35/18/7 34/17/6
f 27/13/6 28/14/7 35/18/7
f 30/18/1 36/21/2 37/22/1
f 30/18/1 29/17/2 36/21/2
f 29/17/2 38/23/3 36/21/2
f 29/17/2 31/19/3 38/23/3
f 31/19/3 39/24/4 38/23/3
f 31/19/3 32/20/4 39/24/4
f 32/20/4 40/23/5 39/24/4
f 32/20/4 33/19/5 40/23/5
f 33/19/5 41/21/6 40/23/5
f 33/19/5 34/17/6 41/21/6
f 34/17/6 42/22/7 41/21/6
f 34/17/6 35/18/7 42/22/7
f 37/22/1 43/25/2 44/26/1
f 37/22/1 36/21/2 43/25/2
f 36/21/2 45/27/3 43/25/2
f 36/21/2 38/23/3 45/27/3
f 38/23/3 46/28/4 45/27/3
f 38/23/3 39/24/4 46/28/4
f 39/24/4 47/27/5 46/28/4
f 39/24/4 40/23/5 47/27/5
f 40/23/5 48/25/6 47/27/5
f 40/23/5 41/21/6 48/25/6
f 41/21/6 49/26/7 48/25/6
f 41/21/6 42/22/7 49/26/7
f 44/26/1 50/29/2 51/30/1
f 44/26/1 43/25/2 50/29/2
f 43/25/2 52/31/3 50/29/2
f 43/25/2 45/27/3 52/31/3
f 45/27/3 53/32/4 52/31/3
f 45/27/3 46/28/4 53/32/4
f 46/28/4 54/31/5 53/32/4
f 46/28/4 47/27/5 54/31/5
f 47/27/5 55/29/6 54/31/5
f 47/27/5 48/25/6 55/29/6
f 48/25/6 56/30/7 55/29/6
f 48/25/6 49/26/7 56/30/7
f 51/30/1 57/33/2 58/34/1
f 51/30/1 50/29/2 57/33/2
f 50/29/2 59/35/3 57/33/2
f 50/29/2 52/31/3 59/35/3
f 52/31/3 60/36/4 59/35/3
f 52/31/3 53/32/4 60/36/4
f 53/32/4 61/35/5 60/36/4
f 53/32/4 54/31/5 61/35/5
f 54/31/5 62/33/6 61/35/5
f 54/31/5 55/29/6 62/33/6
f 55/29/6 63/34/7 62/33/6
f 55/29/6 56/30/7 63/34/7
f 58/34/1 64/37/2 65/38/1
f 58/34/1 57/33/2 64/37/2
f 57/33/2 66/39/3 64/37/2
f 57/33/2 59/35/3 66/39/3
f 59/35/3 67/40/4 66/39/3
f 59/35/3 60/36/4 67/40/4
f 60/36/4 68/39/5 67/40/4
f 60/36/4 61/35/5 68/39/5
f 61/35/5 69/37/6 68/39/5
f 61/35/5 62/33/6 69/37/6
f 62/33/6 70/38/7 69/37/6
f 62/33/6 63/34/7 70/38/7
f 65/38/1 71/41/2 72/42/1
f 65/38/1 64/37/2 71/41/2
f 64/37/2 73/43/3 71/41/2
f 64/37/2 66/39/3 73/43/3
f 66/39/3 74/44/4 73/43/3
f 66/39/3 67/40/4 74/44/4
f 67/40/4 75/43/5 74/44/4
f 67/40/4 68/39/5 75/43/5
f 68/39/5 76/41/6 75/43/5
f 68/39/5 69/37/6 76/41/6
f 69/37/6 77/42/7 76/41/6
f 69/37/6 70/38/7 77/42/7
f 72/42/1 78/45/2 79/46/1
f 72/42/1 71/41/2 78/45/2
f 71/41/2 80/47/3 78/45/2
f 71/41/2 73/43/3 80/47/3
f 73/43/3 81/48/4 80/47/3
f 73/43/3 74/44/4 81/48/4
f 74/44/4 82/47/5 81/48/4
f 74/44/4 75/43/5 82/47/5
f 75/43/5 83/45/6 82/47/5
f 75/43/5 76/41/6 83/45/6
f 76/41/6 84/46/7 83/45/6
f 76/41/6 77/42/7 84/46/7
f 14/49/8 85/50/9 84/51/10
f 14/49/8 86/52/9 85/50/9
f 86/52/9 87/53/11 85/50/9
f 86/52/9 88/54/11 87/53/11
f 88/54/11 89/55/12 87/53/11
f 88/54/11 90/56/12 89/55/12
f 90/56/12 91/53/13 89/55/12
f 90/56/12 92/54/13 91/53/13
f 92/54/13 93/50/14 91/53/13
f 92/54/13 94/52/14 93/50/14
f 94/52/14 79/51/15 93/50/14
f 94/52/14 1/49/16 79/51/15
f 84/51/10 95/57/9 96/58/17
f 84/51/10 85/50/9 95/57/9
f 85/50/9 97/59/11 95/57/9
f 85/50/9 87/53/11 97/59/11
f 87/53/11 98/60/12 97/59/11
f 87/53/11 89/55/12 98/60/12
f 89/55/12 99/59/13 98/60/12
f 89/55/12 91/53/13 99/59/13
f 91/53/13 100/57/14 99/59/13
f 91/53/13 93/50/14 100/57/14
f 93/50/14 101/58/18 100/57/14
f 93/50/14 79/51/15 101/58/18
f 79/51/15 102/61/2 101/58/18
f 79/51/15 78/62/2 102/61/2
f 78/62/2 103/63/3 102/61/2
f 78/62/2 80/64/3 103/63/3
f 80/64/3 104/65/4 103/63/3
f 80/64/3 81/66/4 104/65/4
f 81/66/4 105/63/5 104/65/4
f 81/66/4 82/64/5 105/63/5
f 82/64/5 106/61/6 105/63/5
f 82/64/5 83/62/6 106/61/6
f 83/62/6 96/58/17 106/61/6
f 83/62/6 84/51/10 96/58/17
f 107/58/19 96/58/19 95/57/19
f 107/58/19 95/57/19 97/59/19
f 107/58/19 97/59/19 98/60/19
f 107/58/19 98/60/19 99/59/19
f 107/58/19 99/59/19 100/57/19
f 107/58/19 100/57/19 101/58/19
f 107/58/19 101/58/19 102/61/19
f 107/58/19 102/61/19 103/63/19
f 107/58/19 103/63/19 104/65/19
f 107/58/19 104/65/19 105/63/19
f 107/58/19 105/63/19 106/61/19
f 107/58/19 106/61/19 96/58/19
