# generated by tools/objdedupe/dedupe.py -- do not hand-edit.
# Re-run the tool after touching sssr_2svet_nove.obj, sssr_3svet_nove.obj, sssr_4svet_nove.obj, sssr_5svet_nove.obj, sssr_2se_nove.obj, sssr_3ab_nove.obj, sssr_4ab_nove.obj, sssr_pr_nove.obj, sssr_vl_nove.obj.
o stoz_4odj_nater
v -0.040607 0.695268 -0.011641
vt 0.062881 0.845461
vn -0.965900 -0.000000 0.258800
v -0.035177 0.876768 0.008627
vt 0.162500 0.845450
vn -0.866000 -0.000000 0.500000
v -0.040607 0.876768 -0.011641
vt 0.062881 0.845450
v -0.035177 0.695268 0.008627
vt 0.162500 0.845461
v -0.020340 0.876768 0.023464
vt 0.298273 0.845450
vn -0.500000 -0.000000 0.866000
v -0.020340 0.695268 0.023464
vt 0.298273 0.845461
v -0.000072 0.876768 0.028894
vt 0.500000 0.845450
vn -0.000000 -0.000000 1.000000
v -0.000072 0.695268 0.028894
vt 0.500000 0.845461
v 0.020196 0.876768 0.023464
vt 0.701727 0.845450
vn 0.500000 -0.000000 0.866000
v 0.020196 0.695268 0.023464
vt 0.701727 0.845461
v 0.035033 0.876768 0.008627
vt 0.837500 0.845450
vn 0.866000 -0.000000 0.500000
v 0.035033 0.695268 0.008627
vt 0.837500 0.845461
v 0.040463 0.876768 -0.011641
vt 0.937119 0.845450
vn 0.965900 -0.000000 0.258800
v 0.040463 0.695268 -0.011641
vt 0.937119 0.845461
vt 0.046691 0.352561
v -0.035177 1.058267 0.008627
vt 0.150000 0.674591
v -0.040607 1.058267 -0.011641
vt 0.046691 0.674591
vt 0.150000 0.352561
v -0.020340 1.058267 0.023464
vt 0.290801 0.674591
vt 0.290801 0.352561
v -0.000072 1.058267 0.028894
vt 0.500000 0.674591
vt 0.500000 0.352561
v 0.020196 1.058267 0.023464
vt 0.709199 0.674591
vt 0.709199 0.352561
v 0.035033 1.058267 0.008627
vt 0.850000 0.674591
vt 0.850000 0.352561
v 0.040463 1.058267 -0.011641
vt 0.953308 0.674591
vt 0.953308 0.352561
vt 0.062881 0.991702
v -0.035177 1.239767 0.008627
vt 0.162500 0.705919
v -0.040607 1.239767 -0.011641
vt 0.062881 0.705919
vt 0.162500 0.991702
v -0.020340 1.239767 0.023464
vt 0.298273 0.705919
vt 0.298273 0.991702
v -0.000072 1.239767 0.028894
vt 0.500000 0.705919
vt 0.500000 0.991702
v 0.020196 1.239767 0.023464
vt 0.701727 0.705919
vt 0.701727 0.991702
v 0.035033 1.239767 0.008627
vt 0.837500 0.705919
vt 0.837500 0.991702
v 0.040463 1.239767 -0.011641
vt 0.937119 0.705919
vt 0.937119 0.991702
v -0.035177 1.421268 0.008627
vt 0.162500 0.991768
v -0.040607 1.421268 -0.011641
vt 0.062881 0.991768
v -0.020340 1.421268 0.023464
vt 0.298273 0.991768
v -0.000072 1.421268 0.028894
vt 0.500000 0.991768
v 0.020196 1.421268 0.023464
vt 0.701727 0.991768
v 0.035033 1.421268 0.008627
vt 0.837500 0.991768
v 0.040463 1.421268 -0.011641
vt 0.937119 0.991768
vt 0.046691 0.675649
v -0.035177 1.602767 0.008627
vt 0.150000 0.682044
v -0.040607 1.602767 -0.011641
vt 0.046691 0.682044
vt 0.150000 0.675649
v -0.020340 1.602767 0.023464
vt 0.290801 0.682044
vt 0.290801 0.675649
v -0.000072 1.602767 0.028894
vt 0.500000 0.682044
vt 0.500000 0.675649
v 0.020196 1.602767 0.023464
vt 0.709199 0.682044
vt 0.709199 0.675649
v 0.035033 1.602767 0.008627
vt 0.850000 0.682044
vt 0.850000 0.675649
v 0.040463 1.602767 -0.011641
vt 0.953308 0.682044
vt 0.953308 0.675649
vt 0.062881 0.987434
v -0.035177 1.784268 0.008627
vt 0.162500 0.706245
v -0.040607 1.784268 -0.011641
vt 0.062881 0.706245
vt 0.162500 0.987434
v -0.020340 1.784268 0.023464
vt 0.298273 0.706245
vt 0.298273 0.987434
v -0.000072 1.784268 0.028894
vt 0.500000 0.706245
vt 0.500000 0.987434
v 0.020196 1.784268 0.023464
vt 0.701727 0.706245
vt 0.701727 0.987434
v 0.035033 1.784268 0.008627
vt 0.837500 0.706245
vt 0.837500 0.987434
v 0.040463 1.784268 -0.011641
vt 0.937119 0.706245
vt 0.937119 0.987434
v -0.035177 1.965768 0.008627
vt 0.162500 0.990653
v -0.040607 1.965768 -0.011641
vt 0.062881 0.990653
v -0.020340 1.965768 0.023464
vt 0.298273 0.990653
v -0.000072 1.965768 0.028894
vt 0.500000 0.990653
v 0.020196 1.965768 0.023464
vt 0.701727 0.990653
v 0.035033 1.965768 0.008627
vt 0.837500 0.990653
v 0.040463 1.965768 -0.011641
vt 0.937119 0.990653
vt 0.046691 0.343748
v -0.035177 2.147268 0.008627
vt 0.150000 0.344442
v -0.040607 2.147268 -0.011641
vt 0.046691 0.344442
vt 0.150000 0.343748
v -0.020340 2.147268 0.023464
vt 0.290801 0.344442
vt 0.290801 0.343748
v -0.000072 2.147268 0.028894
vt 0.500000 0.344442
vt 0.500000 0.343748
v 0.020196 2.147268 0.023464
vt 0.709199 0.344442
vt 0.709199 0.343748
v 0.035033 2.147268 0.008627
vt 0.850000 0.344442
vt 0.850000 0.343748
v 0.040463 2.147268 -0.011641
vt 0.953308 0.344442
vt 0.953308 0.343748
vt 0.062881 0.988730
v -0.035177 2.328768 0.008627
vt 0.162500 0.706917
v -0.040607 2.328768 -0.011641
vt 0.062881 0.706917
vt 0.162500 0.988730
v -0.020340 2.328768 0.023464
vt 0.298273 0.706917
vt 0.298273 0.988730
v -0.000072 2.328768 0.028894
vt 0.500000 0.706917
vt 0.500000 0.988730
v 0.020196 2.328768 0.023464
vt 0.701727 0.706917
vt 0.701727 0.988730
v 0.035033 2.328768 0.008627
vt 0.837500 0.706917
vt 0.837500 0.988730
v 0.040463 2.328768 -0.011641
vt 0.937119 0.706917
vt 0.937119 0.988730
v -0.035177 2.510267 0.008627
vt 0.162500 0.988347
v -0.040607 2.510267 -0.011641
vt 0.062881 0.988347
v -0.020340 2.510267 0.023464
vt 0.298273 0.988347
v -0.000072 2.510267 0.028894
vt 0.500000 0.988347
v 0.020196 2.510267 0.023464
vt 0.701727 0.988347
v 0.035033 2.510267 0.008627
vt 0.837500 0.988347
v 0.040463 2.510267 -0.011641
vt 0.937119 0.988347
vt 0.046691 0.346718
v -0.035177 2.691768 0.008627
vt 0.150000 0.668748
v -0.040607 2.691768 -0.011641
vt 0.046691 0.668748
vt 0.150000 0.346718
v -0.020340 2.691768 0.023464
vt 0.290801 0.668748
vt 0.290801 0.346718
v -0.000072 2.691768 0.028894
vt 0.500000 0.668748
vt 0.500000 0.346718
v 0.020196 2.691768 0.023464
vt 0.709199 0.668748
vt 0.709199 0.346718
v 0.035033 2.691768 0.008627
vt 0.850000 0.668748
vt 0.850000 0.346718
v 0.040463 2.691768 -0.011641
vt 0.953308 0.668748
vt 0.953308 0.346718
vt 0.062881 0.707227
v -0.035177 2.873268 0.008627
vt 0.162500 0.848712
v -0.040607 2.873268 -0.011641
vt 0.062881 0.848712
vt 0.162500 0.707227
v -0.020340 2.873268 0.023464
vt 0.298273 0.848712
vt 0.298273 0.707227
v -0.000072 2.873268 0.028894
vt 0.500000 0.848712
vt 0.500000 0.707227
v 0.020196 2.873268 0.023464
vt 0.701727 0.848712
vt 0.701727 0.707227
v 0.035033 2.873268 0.008627
vt 0.837500 0.848712
vt 0.837500 0.707227
v 0.040463 2.873268 -0.011641
vt 0.937119 0.848712
vt 0.937119 0.707227
f 1/1/1 2/2/2 3/3/1
f 1/1/1 4/4/2 2/2/2
f 4/4/2 5/5/3 2/2/2
f 4/4/2 6/6/3 5/5/3
f 6/6/3 7/7/4 5/5/3
f 6/6/3 8/8/4 7/7/4
f 8/8/4 9/9/5 7/7/4
f 8/8/4 10/10/5 9/9/5
f 10/10/5 11/11/6 9/9/5
f 10/10/5 12/12/6 11/11/6
f 12/12/6 13/13/7 11/11/6
f 12/12/6 14/14/7 13/13/7
f 3/15/1 15/16/2 16/17/1
f 3/15/1 2/18/2 15/16/2
f 2/18/2 17/19/3 15/16/2
f 2/18/2 5/20/3 17/19/3
f 5/20/3 18/21/4 17/19/3
f 5/20/3 7/22/4 18/21/4
f 7/22/4 19/23/5 18/21/4
f 7/22/4 9/24/5 19/23/5
f 9/24/5 20/25/6 19/23/5
f 9/24/5 11/26/6 20/25/6
f 11/26/6 21/27/7 20/25/6
f 11/26/6 13/28/7 21/27/7
f 16/29/1 22/30/2 23/31/1
f 16/29/1 15/32/2 22/30/2
f 15/32/2 24/33/3 22/30/2
f 15/32/2 17/34/3 24/33/3
f 17/34/3 25/35/4 24/33/3
f 17/34/3 18/36/4 25/35/4
f 18/36/4 26/37/5 25/35/4
f 18/36/4 19/38/5 26/37/5
f 19/38/5 27/39/6 26/37/5
f 19/38/5 20/40/6 27/39/6
f 20/40/6 28/41/7 27/39/6
f 20/40/6 21/42/7 28/41/7
f 23/31/1 29/43/2 30/44/1
f 23/31/1 22/30/2 29/43/2
f 22/30/2 31/45/3 29/43/2
f 22/30/2 24/33/3 31/45/3
f 24/33/3 32/46/4 31/45/3
f 24/33/3 25/35/4 32/46/4
f 25/35/4 33/47/5 32/46/4
f 25/35/4 26/37/5 33/47/5
f 26/37/5 34/48/6 33/47/5
f 26/37/5 27/39/6 34/48/6
f 27/39/6 35/49/7 34/48/6
f 27/39/6 28/41/7 35/49/7
f 30/50/1 36/51/2 37/52/1
f 30/50/1 29/53/2 36/51/2
f 29/53/2 38/54/3 36/51/2
f 29/53/2 31/55/3 38/54/3
f 31/55/3 39/56/4 38/54/3
f 31/55/3 32/57/4 39/56/4
f 32/57/4 40/58/5 39/56/4
f 32/57/4 33/59/5 40/58/5
f 33/59/5 41/60/6 40/58/5
f 33/59/5 34/61/6 41/60/6
f 34/61/6 42/62/7 41/60/6
f 34/61/6 35/63/7 42/62/7
f 37/64/1 43/65/2 44/66/1
f 37/64/1 36/67/2 43/65/2
f 36/67/2 45/68/3 43/65/2
f 36/67/2 38/69/3 45/68/3
f 38/69/3 46/70/4 45/68/3
f 38/69/3 39/71/4 46/70/4
f 39/71/4 47/72/5 46/70/4
f 39/71/4 40/73/5 47/72/5
f 40/73/5 48/74/6 47/72/5
f 40/73/5 41/75/6 48/74/6
f 41/75/6 49/76/7 48/74/6
f 41/75/6 42/77/7 49/76/7
f 44/66/1 50/78/2 51/79/1
f 44/66/1 43/65/2 50/78/2
f 43/65/2 52/80/3 50/78/2
f 43/65/2 45/68/3 52/80/3
f 45/68/3 53/81/4 52/80/3
f 45/68/3 46/70/4 53/81/4
f 46/70/4 54/82/5 53/81/4
f 46/70/4 47/72/5 54/82/5
f 47/72/5 55/83/6 54/82/5
f 47/72/5 48/74/6 55/83/6
f 48/74/6 56/84/7 55/83/6
f 48/74/6 49/76/7 56/84/7
f 51/85/1 57/86/2 58/87/1
f 51/85/1 50/88/2 57/86/2
f 50/88/2 59/89/3 57/86/2
f 50/88/2 52/90/3 59/89/3
f 52/90/3 60/91/4 59/89/3
f 52/90/3 53/92/4 60/91/4
f 53/92/4 61/93/5 60/91/4
f 53/92/4 54/94/5 61/93/5
f 54/94/5 62/95/6 61/93/5
f 54/94/5 55/96/6 62/95/6
f 55/96/6 63/97/7 62/95/6
f 55/96/6 56/98/7 63/97/7
f 58/99/1 64/100/2 65/101/1
f 58/99/1 57/102/2 64/100/2
f 57/102/2 66/103/3 64/100/2
f 57/102/2 59/104/3 66/103/3
f 59/104/3 67/105/4 66/103/3
f 59/104/3 60/106/4 67/105/4
f 60/106/4 68/107/5 67/105/4
f 60/106/4 61/108/5 68/107/5
f 61/108/5 69/109/6 68/107/5
f 61/108/5 62/110/6 69/109/6
f 62/110/6 70/111/7 69/109/6
f 62/110/6 63/112/7 70/111/7
f 65/101/1 71/113/2 72/114/1
f 65/101/1 64/100/2 71/113/2
f 64/100/2 73/115/3 71/113/2
f 64/100/2 66/103/3 73/115/3
f 66/103/3 74/116/4 73/115/3
f 66/103/3 67/105/4 74/116/4
f 67/105/4 75/117/5 74/116/4
f 67/105/4 68/107/5 75/117/5
f 68/107/5 76/118/6 75/117/5
f 68/107/5 69/109/6 76/118/6
f 69/109/6 77/119/7 76/118/6
f 69/109/6 70/111/7 77/119/7
f 72/120/1 78/121/2 79/122/1
f 72/120/1 71/123/2 78/121/2
f 71/123/2 80/124/3 78/121/2
f 71/123/2 73/125/3 80/124/3
f 73/125/3 81/126/4 80/124/3
f 73/125/3 74/127/4 81/126/4
f 74/127/4 82/128/5 81/126/4
f 74/127/4 75/129/5 82/128/5
f 75/129/5 83/130/6 82/128/5
f 75/129/5 76/131/6 83/130/6
f 76/131/6 84/132/7 83/130/6
f 76/131/6 77/133/7 84/132/7
f 79/134/1 85/135/2 86/136/1
f 79/134/1 78/137/2 85/135/2
f 78/137/2 87/138/3 85/135/2
f 78/137/2 80/139/3 87/138/3
f 80/139/3 88/140/4 87/138/3
f 80/139/3 81/141/4 88/140/4
f 81/141/4 89/142/5 88/140/4
f 81/141/4 82/143/5 89/142/5
f 82/143/5 90/144/6 89/142/5
f 82/143/5 83/145/6 90/144/6
f 83/145/6 91/146/7 90/144/6
f 83/145/6 84/147/7 91/146/7
