# generated by tools/objdedupe/dedupe.py -- do not hand-edit.
# Re-run the tool after touching sssr_2svet_nove.obj, sssr_3svet_nove.obj, sssr_4svet_nove.obj, sssr_5svet_nove.obj, sssr_2se_nove.obj, sssr_3ab_nove.obj, sssr_4ab_nove.obj, sssr_pr_nove.obj, sssr_vl_nove.obj.
o zelena_2svet_S_typ1
v -0.065218 3.117257 0.316074
vt 0.260033 0.824246
vn -0.000000 -0.000000 1.000000
v -0.069830 3.103063 0.316074
vt 0.252107 0.848772
v -0.071390 3.088220 0.316074
vt 0.249426 0.874420
v -0.047769 3.141273 0.316074
vt 0.290019 0.782746
v -0.057756 3.130182 0.316074
vt 0.272857 0.801911
v -0.022061 3.156116 0.316074
vt 0.334199 0.757098
v -0.035695 3.150045 0.316074
vt 0.310768 0.767588
v 0.007462 3.159219 0.316074
vt 0.384935 0.751736
v -0.007462 3.159219 0.316074
vt 0.359287 0.751736
v 0.035695 3.150045 0.316074
vt 0.433453 0.767588
v 0.022061 3.156116 0.316074
vt 0.410022 0.757098
v 0.057756 3.130182 0.316074
vt 0.471364 0.801911
v 0.047769 3.141273 0.316074
vt 0.454203 0.782746
v 0.069830 3.103063 0.316074
vt 0.492114 0.848772
v 0.065218 3.117257 0.316074
vt 0.484188 0.824245
v 0.069830 3.073376 0.316074
vt 0.492114 0.900068
v 0.071390 3.088220 0.316074
vt 0.494795 0.874420
v 0.057756 3.046257 0.316074
vt 0.471364 0.946930
v 0.065218 3.059183 0.316074
vt 0.484188 0.924596
v 0.035695 3.026394 0.316074
vt 0.433453 0.981253
v 0.047769 3.035167 0.316074
vt 0.454203 0.966095
v 0.007462 3.017220 0.316074
vt 0.384935 0.997105
v 0.022061 3.020324 0.316074
vt 0.410022 0.991743
v -0.022061 3.020324 0.316074
vt 0.334199 0.991743
v -0.007462 3.017220 0.316074
vt 0.359287 0.997105
v -0.047769 3.035167 0.316074
vt 0.290019 0.966095
v -0.035695 3.026394 0.316074
vt 0.310769 0.981253
v -0.065218 3.059183 0.316074
vt 0.260033 0.924596
v -0.057756 3.046257 0.316074
vt 0.272857 0.946930
v -0.069830 3.073376 0.316074
vt 0.252107 0.900068
f 1/1/1 2/2/1 3/3/1
f 4/4/1 5/5/1 1/1/1
f 6/6/1 7/7/1 4/4/1
f 6/6/1 4/4/1 1/1/1
f 8/8/1 9/9/1 6/6/1
f 10/10/1 11/11/1 8/8/1
f 10/10/1 8/8/1 6/6/1
f 10/10/1 6/6/1 1/1/1
f 12/12/1 13/13/1 10/10/1
f 14/14/1 15/15/1 12/12/1
f 14/14/1 12/12/1 10/10/1
f 16/16/1 17/17/1 14/14/1
f 18/18/1 19/19/1 16/16/1
f 18/18/1 16/16/1 14/14/1
f 18/18/1 14/14/1 10/10/1
f 20/20/1 21/21/1 18/18/1
f 22/22/1 23/23/1 20/20/1
f 22/22/1 20/20/1 18/18/1
f 24/24/1 25/25/1 22/22/1
f 26/26/1 27/27/1 24/24/1
f 26/26/1 24/24/1 22/22/1
f 26/26/1 22/22/1 18/18/1
f 26/26/1 18/18/1 10/10/1
f 26/26/1 10/10/1 1/1/1
f 28/28/1 29/29/1 26/26/1
f 28/28/1 26/26/1 1/1/1
f 28/28/1 1/1/1 3/3/1
f 28/28/1 3/3/1 30/30/1
