# generated by tools/objdedupe/dedupe.py -- do not hand-edit.
# Re-run the tool after touching sssr_2svet_nove.obj, sssr_3svet_nove.obj, sssr_4svet_nove.obj, sssr_5svet_nove.obj, sssr_2se_nove.obj, sssr_3ab_nove.obj, sssr_4ab_nove.obj, sssr_pr_nove.obj, sssr_vl_nove.obj.
o zluta_pr2_S
v 0.065218 3.059186 0.316074
vt 0.012005 0.824246
vn -0.000000 -0.000000 1.000000
v 0.069830 3.073380 0.316074
vt 0.004079 0.848772
v 0.071390 3.088223 0.316074
vt 0.001398 0.874420
v 0.047769 3.035170 0.316074
vt 0.041991 0.782746
v 0.057756 3.046261 0.316074
vt 0.024829 0.801911
v 0.022061 3.020327 0.316074
vt 0.086171 0.757098
v 0.035695 3.026397 0.316074
vt 0.062741 0.767588
v -0.007462 3.017224 0.316074
vt 0.136907 0.751736
v 0.007462 3.017224 0.316074
vt 0.111259 0.751736
v -0.035695 3.026397 0.316074
vt 0.185425 0.767588
v -0.022061 3.020327 0.316074
vt 0.161994 0.757098
v -0.057756 3.046261 0.316074
vt 0.223337 0.801911
v -0.047769 3.035170 0.316074
vt 0.206175 0.782746
v -0.069830 3.073380 0.316074
vt 0.244086 0.848772
v -0.065218 3.059186 0.316074
vt 0.236161 0.824245
v -0.069830 3.103066 0.316074
vt 0.244086 0.900068
v -0.071390 3.088223 0.316074
vt 0.246767 0.874420
v -0.057756 3.130185 0.316074
vt 0.223337 0.946930
v -0.065218 3.117260 0.316074
vt 0.236161 0.924596
v -0.035695 3.150048 0.316074
vt 0.185425 0.981253
v -0.047769 3.141276 0.316074
vt 0.206175 0.966095
v -0.007462 3.159222 0.316074
vt 0.136907 0.997105
v -0.022061 3.156119 0.316074
vt 0.161994 0.991743
v 0.022061 3.156119 0.316074
vt 0.086171 0.991743
v 0.007462 3.159222 0.316074
vt 0.111259 0.997105
v 0.047769 3.141276 0.316074
vt 0.041991 0.966095
v 0.035695 3.150048 0.316074
vt 0.062741 0.981253
v 0.065218 3.117260 0.316074
vt 0.012005 0.924596
v 0.057756 3.130185 0.316074
vt 0.024829 0.946930
v 0.069830 3.103066 0.316074
vt 0.004079 0.900068
f 1/1/1 2/2/1 3/3/1
f 4/4/1 5/5/1 1/1/1
f 6/6/1 7/7/1 4/4/1
f 6/6/1 4/4/1 1/1/1
f 8/8/1 9/9/1 6/6/1
f 10/10/1 11/11/1 8/8/1
f 10/10/1 8/8/1 6/6/1
f 10/10/1 6/6/1 1/1/1
f 12/12/1 13/13/1 10/10/1
f 14/14/1 15/15/1 12/12/1
f 14/14/1 12/12/1 10/10/1
f 16/16/1 17/17/1 14/14/1
f 18/18/1 19/19/1 16/16/1
f 18/18/1 16/16/1 14/14/1
f 18/18/1 14/14/1 10/10/1
f 20/20/1 21/21/1 18/18/1
f 22/22/1 23/23/1 20/20/1
f 22/22/1 20/20/1 18/18/1
f 24/24/1 25/25/1 22/22/1
f 26/26/1 27/27/1 24/24/1
f 26/26/1 24/24/1 22/22/1
f 26/26/1 22/22/1 18/18/1
f 26/26/1 18/18/1 10/10/1
f 26/26/1 10/10/1 1/1/1
f 28/28/1 29/29/1 26/26/1
f 28/28/1 26/26/1 1/1/1
f 28/28/1 1/1/1 3/3/1
f 28/28/1 3/3/1 30/30/1
