# generated by tools/objdedupe/dedupe.py -- do not hand-edit.
# Re-run the tool after touching sssr_2svet_nove.obj, sssr_3svet_nove.obj, sssr_4svet_nove.obj, sssr_5svet_nove.obj, sssr_2se_nove.obj, sssr_3ab_nove.obj, sssr_4ab_nove.obj, sssr_pr_nove.obj, sssr_vl_nove.obj.
o znac_abpredvest
v 0.145200 2.564485 0.184374
vt 0.989619 1.000255
vn -0.000000 -0.000000 1.000000
v -0.145200 2.564485 0.184374
vt -0.000448 1.000255
v -0.145200 2.274084 0.184374
vt 0.000969 0.025709
v 0.145200 2.274084 0.184374
vt 0.991036 0.025709
f 1/1/1 2/2/1 3/3/1
f 3/3/1 4/4/1 1/1/1
