# generated by tools/objdedupe/dedupe.py -- do not hand-edit.
# Re-run the tool after touching sssr_2svet_nove.obj, sssr_3svet_nove.obj, sssr_4svet_nove.obj, sssr_5svet_nove.obj, sssr_2se_nove.obj, sssr_3ab_nove.obj, sssr_4ab_nove.obj, sssr_pr_nove.obj, sssr_vl_nove.obj.
o znac_abpredvest_zaklad
v -0.006050 2.359500 0.050971
vt 0.112108 0.251842
vn -0.000000 -1.000000 -0.000000
v -0.006050 2.359500 0.044921
vt 0.169570 0.251842
v 0.006050 2.359500 0.044921
vt 0.169570 0.309304
v 0.006050 2.359500 0.050971
vt 0.112108 0.309304
v -0.006050 2.486550 0.050971
vn -0.000000 1.000000 -0.000000
v 0.006050 2.486550 0.050971
v 0.006050 2.486550 0.044921
v -0.006050 2.486550 0.044921
vn -0.000000 -0.000000 1.000000
vn 1.000000 -0.000000 -0.000000
vn -0.000000 -0.000000 -1.000000
vn -1.000000 -0.000000 -0.000000
v -0.047190 2.363034 -0.000454
vn -0.965900 -0.000000 0.258800
v -0.040868 2.363034 0.023141
v -0.040868 2.378160 0.023141
v -0.047190 2.378160 -0.000454
vn -0.707100 -0.000000 0.707100
v -0.023595 2.363034 0.040414
v -0.023595 2.378160 0.040414
vn -0.258800 -0.000000 0.965900
v 0.000000 2.363034 0.046736
v 0.000000 2.378160 0.046736
vn 0.258800 -0.000000 0.965900
v 0.023595 2.363034 0.040414
v 0.023595 2.378160 0.040414
vn 0.707100 -0.000000 0.707100
v 0.040868 2.363034 0.023141
v 0.040868 2.378160 0.023141
vn 0.965900 -0.000000 0.258800
v 0.047190 2.363034 -0.000454
v 0.047190 2.378160 -0.000454
vn 0.965900 -0.000000 -0.258800
v 0.040868 2.363034 -0.024049
v 0.040868 2.378160 -0.024049
vn 0.707100 -0.000000 -0.707100
v 0.023595 2.363034 -0.041322
v 0.023595 2.378160 -0.041322
vn 0.258800 -0.000000 -0.965900
v 0.000000 2.363034 -0.047644
v 0.000000 2.378160 -0.047644
vn -0.258800 -0.000000 -0.965900
v -0.023595 2.363034 -0.041322
v -0.023595 2.378160 -0.041322
vn -0.707100 -0.000000 -0.707100
v -0.040868 2.363034 -0.024049
v -0.040868 2.378160 -0.024049
vn -0.965900 -0.000000 -0.258800
vt 0.133141 0.251842
vt 0.148537 0.251842
vt 0.161871 0.259541
vt 0.169570 0.272875
vt 0.169570 0.288272
vt 0.161871 0.301606
vt 0.148537 0.309304
vt 0.133141 0.309304
vt 0.119807 0.301606
vt 0.112108 0.288272
vt 0.112108 0.272875
vt 0.119807 0.259541
v -0.047190 2.471525 -0.000454
v -0.040868 2.471525 0.023141
v -0.040868 2.486650 0.023141
v -0.047190 2.486650 -0.000454
v -0.023595 2.471525 0.040414
v -0.023595 2.486650 0.040414
v 0.000000 2.471525 0.046736
v 0.000000 2.486650 0.046736
v 0.023595 2.471525 0.040414
v 0.023595 2.486650 0.040414
v 0.040868 2.471525 0.023141
v 0.040868 2.486650 0.023141
v 0.047190 2.471525 -0.000454
v 0.047190 2.486650 -0.000454
v 0.040868 2.471525 -0.024049
v 0.040868 2.486650 -0.024049
v 0.023595 2.471525 -0.041322
v 0.023595 2.486650 -0.041322
v 0.000000 2.471525 -0.047644
v 0.000000 2.486650 -0.047644
v -0.023595 2.471525 -0.041322
v -0.023595 2.486650 -0.041322
v -0.040868 2.471525 -0.024049
v -0.040868 2.486650 -0.024049
v 0.006050 2.467553 0.049036
v 0.006050 2.467553 0.182136
v -0.006050 2.467553 0.182136
v -0.006050 2.467553 0.049036
v 0.006050 2.485703 0.049036
v -0.006050 2.485703 0.049036
v -0.006050 2.485703 0.182136
v 0.006050 2.485703 0.182136
v 0.006050 2.360022 0.049036
v 0.006050 2.360022 0.182136
v -0.006050 2.360022 0.182136
v -0.006050 2.360022 0.049036
v 0.006050 2.378172 0.049036
v -0.006050 2.378172 0.049036
v -0.006050 2.378172 0.182136
v 0.006050 2.378172 0.182136
v 0.145200 2.274084 0.178324
v 0.145200 2.274084 0.184374
v -0.145200 2.274084 0.184374
v -0.145200 2.274084 0.178324
v 0.145200 2.564485 0.178324
v -0.145200 2.564485 0.178324
v -0.145200 2.564485 0.184374
v 0.145200 2.564485 0.184374
f 1/1/1 2/2/1 3/3/1
f 3/3/1 4/4/1 1/1/1
f 5/1/2 6/2/2 7/3/2
f 7/3/2 8/4/2 5/1/2
f 1/1/3 4/2/3 6/3/3
f 6/3/3 5/4/3 1/1/3
f 4/1/4 3/2/4 7/3/4
f 7/3/4 6/4/4 4/1/4
f 3/1/5 2/2/5 8/3/5
f 8/3/5 7/4/5 3/1/5
f 2/1/6 1/2/6 5/3/6
f 5/3/6 8/4/6 2/1/6
f 9/1/7 10/2/7 11/3/7
f 11/3/7 12/4/7 9/1/7
f 10/1/8 13/2/8 14/3/8
f 14/3/8 11/4/8 10/1/8
f 13/1/9 15/2/9 16/3/9
f 16/3/9 14/4/9 13/1/9
f 15/1/10 17/2/10 18/3/10
f 18/3/10 16/4/10 15/1/10
f 17/1/11 19/2/11 20/3/11
f 20/3/11 18/4/11 17/1/11
f 19/1/12 21/2/12 22/3/12
f 22/3/12 20/4/12 19/1/12
f 21/1/13 23/2/13 24/3/13
f 24/3/13 22/4/13 21/1/13
f 23/1/14 25/2/14 26/3/14
f 26/3/14 24/4/14 23/1/14
f 25/1/15 27/2/15 28/3/15
f 28/3/15 26/4/15 25/1/15
f 27/1/16 29/2/16 30/3/16
f 30/3/16 28/4/16 27/1/16
f 29/1/17 31/2/17 32/3/17
f 32/3/17 30/4/17 29/1/17
f 31/1/18 9/2/18 12/3/18
f 12/3/18 32/4/18 31/1/18
f 29/5/1 27/6/1 25/7/1
f 25/7/1 23/8/1 21/9/1
f 21/9/1 19/10/1 17/11/1
f 25/7/1 21/9/1 17/11/1
f 17/11/1 15/12/1 13/13/1
f 13/13/1 10/14/1 9/15/1
f 17/11/1 13/13/1 9/15/1
f 25/7/1 17/11/1 9/15/1
f 29/5/1 25/7/1 9/15/1
f 31/16/1 29/5/1 9/15/1
f 11/5/2 14/6/2 16/7/2
f 16/7/2 18/8/2 20/9/2
f 20/9/2 22/10/2 24/11/2
f 16/7/2 20/9/2 24/11/2
f 24/11/2 26/12/2 28/13/2
f 28/13/2 30/14/2 32/15/2
f 24/11/2 28/13/2 32/15/2
f 16/7/2 24/11/2 32/15/2
f 11/5/2 16/7/2 32/15/2
f 12/16/2 11/5/2 32/15/2
f 33/1/7 34/2/7 35/3/7
f 35/3/7 36/4/7 33/1/7
f 34/1/8 37/2/8 38/3/8
f 38/3/8 35/4/8 34/1/8
f 37/1/9 39/2/9 40/3/9
f 40/3/9 38/4/9 37/1/9
f 39/1/10 41/2/10 42/3/10
f 42/3/10 40/4/10 39/1/10
f 41/1/11 43/2/11 44/3/11
f 44/3/11 42/4/11 41/1/11
f 43/1/12 45/2/12 46/3/12
f 46/3/12 44/4/12 43/1/12
f 45/1/13 47/2/13 48/3/13
f 48/3/13 46/4/13 45/1/13
f 47/1/14 49/2/14 50/3/14
f 50/3/14 48/4/14 47/1/14
f 49/1/15 51/2/15 52/3/15
f 52/3/15 50/4/15 49/1/15
f 51/1/16 53/2/16 54/3/16
f 54/3/16 52/4/16 51/1/16
f 53/1/17 55/2/17 56/3/17
f 56/3/17 54/4/17 53/1/17
f 55/1/18 33/2/18 36/3/18
f 36/3/18 56/4/18 55/1/18
f 53/5/1 51/6/1 49/7/1
f 49/7/1 47/8/1 45/9/1
f 45/9/1 43/10/1 41/11/1
f 49/7/1 45/9/1 41/11/1
f 41/11/1 39/12/1 37/13/1
f 37/13/1 34/14/1 33/15/1
f 41/11/1 37/13/1 33/15/1
f 49/7/1 41/11/1 33/15/1
f 53/5/1 49/7/1 33/15/1
f 55/16/1 53/5/1 33/15/1
f 35/5/2 38/6/2 40/7/2
f 40/7/2 42/8/2 44/9/2
f 44/9/2 46/10/2 48/11/2
f 40/7/2 44/9/2 48/11/2
f 48/11/2 50/12/2 52/13/2
f 52/13/2 54/14/2 56/15/2
f 48/11/2 52/13/2 56/15/2
f 40/7/2 48/11/2 56/15/2
f 35/5/2 40/7/2 56/15/2
f 36/16/2 35/5/2 56/15/2
f 57/3/1 58/4/1 59/1/1
f 59/1/1 60/2/1 57/3/1
f 61/3/2 62/4/2 63/1/2
f 63/1/2 64/2/2 61/3/2
f 61/3/4 64/4/4 58/1/4
f 58/1/4 57/2/4 61/3/4
f 62/3/5 61/4/5 57/1/5
f 57/1/5 60/2/5 62/3/5
f 63/3/6 62/4/6 60/1/6
f 60/1/6 59/2/6 63/3/6
f 65/3/1 66/4/1 67/1/1
f 67/1/1 68/2/1 65/3/1
f 69/3/2 70/4/2 71/1/2
f 71/1/2 72/2/2 69/3/2
f 69/3/4 72/4/4 66/1/4
f 66/1/4 65/2/4 69/3/4
f 70/3/5 69/4/5 65/1/5
f 65/1/5 68/2/5 70/3/5
f 71/3/6 70/4/6 68/1/6
f 68/1/6 67/2/6 71/3/6
f 73/3/1 74/4/1 75/1/1
f 75/1/1 76/2/1 73/3/1
f 77/3/2 78/4/2 79/1/2
f 79/1/2 80/2/2 77/3/2
f 77/3/4 80/4/4 74/1/4
f 74/1/4 73/2/4 77/3/4
f 78/3/5 77/4/5 73/1/5
f 73/1/5 76/2/5 78/3/5
f 79/3/6 78/4/6 76/1/6
f 76/1/6 75/2/6 79/3/6
