# Blender 4.0.2
# www.blender.org
mtllib pr_upozornovadlo.mtl
o body_prupoz
v 0.164017 1.112647 0.502387
v 0.170753 1.112647 0.481684
v 0.192569 1.112647 0.481684
v 0.199305 1.112647 0.502387
v 0.181692 1.112647 0.515180
v -0.199491 1.112647 0.502387
v -0.192754 1.112647 0.481684
v -0.171001 1.112647 0.481684
v -0.164265 1.112647 0.502387
v -0.181877 1.112647 0.515180
v 0.309000 1.236247 0.478224
v -0.309000 0.247447 0.478223
v -0.309000 1.236247 0.478223
v 0.309000 0.247447 0.478224
v -0.181877 1.112647 0.515180
v 0.181692 1.112647 0.515180
v -0.198564 -0.000000 0.503060
v -0.180951 -0.000000 0.514507
v -0.193109 -0.000000 0.482774
v -0.164265 -0.000000 0.502387
v 0.181692 -0.000000 0.515180
v -0.199491 -0.000000 0.502387
v -0.172145 -0.000000 0.481684
v -0.181877 -0.000000 0.515180
v 0.170399 -0.000000 0.482774
v -0.171001 -0.000000 0.481684
v -0.192754 -0.000000 0.481684
v 0.170753 -0.000000 0.481684
v 0.164017 -0.000000 0.502387
v -0.164619 -0.000000 0.501298
v 0.182619 -0.000000 0.514507
v -0.181877 -0.000000 0.515180
v 0.191421 -0.000000 0.481684
v 0.199305 -0.000000 0.502387
v 0.192569 -0.000000 0.481684
v 0.181692 -0.000000 0.515180
v 0.164947 -0.000000 0.503061
v 0.198950 -0.000000 0.501298
vn -0.0000 1.0000 -0.0000
vn -0.0000 -0.0000 1.0000
vn 0.5877 -0.0000 0.8091
vn -0.0000 -1.0000 -0.0000
vn -0.0000 -1.0000 0.0001
vn 0.9509 -0.0000 -0.3094
vn -0.5863 -0.0000 0.8101
vn -0.9509 -0.0000 -0.3094
vn -0.0000 -0.0000 -1.0000
vn -0.5877 -0.0000 0.8091
vn 0.5876 -0.0000 0.8091
vt 0.911000 0.009000
vt 0.901000 0.009000
vt 0.891000 0.009000
vt 0.881000 0.009000
vt 0.921000 0.009000
vt 0.416000 0.305000
vt 0.507000 0.208000
vt 0.416000 0.208000
vt 0.507000 0.305000
vt 0.921000 0.395531
vt 0.881000 0.395531
vt 0.881526 0.395531
vt 0.891526 0.395531
vt 0.911526 0.395531
vt 0.901000 0.395531
vt 0.901526 0.395531
vt 0.911000 0.395531
vt 0.891000 0.395531
s 0
usemtl AZD_Nav_Stit
f 1/1/1 3/3/1 2/2/1
f 1/1/1 4/4/1 3/3/1
f 1/1/1 5/5/1 4/4/1
f 6/1/1 8/3/1 7/2/1
f 6/1/1 9/4/1 8/3/1
f 6/1/1 10/5/1 9/4/1
f 11/6/2 13/8/2 12/7/2
f 12/7/2 14/9/2 11/6/2
f 24/10/3 18/11/3 32/11/3
f 18/11/4 23/13/4 30/12/4
f 31/11/4 21/10/4 37/14/4
f 23/13/4 19/16/4 27/15/4
f 19/16/4 17/14/4 22/17/4
f 18/11/5 30/12/5 20/11/5
f 30/12/4 23/13/4 26/18/4
f 18/11/4 24/10/4 17/14/4
f 19/16/4 18/11/4 17/14/4
f 23/13/4 18/11/4 19/16/4
f 35/18/6 3/3/6 38/12/6
f 34/11/3 4/4/3 31/11/3
f 21/10/7 5/5/7 37/14/7
f 19/16/8 6/1/8 7/2/8
f 23/13/9 7/2/9 8/3/9
f 30/12/6 8/3/6 9/4/6
f 18/11/3 9/4/3 15/4/3
f 17/14/10 10/5/10 6/1/10
f 25/16/8 1/1/8 2/2/8
f 33/13/9 2/2/9 3/3/9
f 38/12/6 3/3/6 4/4/6
f 31/11/3 4/4/3 16/4/3
f 37/14/7 5/5/7 1/1/7
f 22/17/8 6/1/8 19/16/8
f 27/15/9 7/2/9 23/13/9
f 26/18/6 8/3/6 30/12/6
f 20/11/3 9/4/3 18/11/3
f 24/10/10 10/5/10 17/14/10
f 29/17/8 1/1/8 25/16/8
f 28/15/9 2/2/9 33/13/9
f 31/11/5 38/12/5 34/11/5
f 38/12/4 33/13/4 35/18/4
f 33/13/4 25/16/4 28/15/4
f 25/16/4 37/14/4 29/17/4
f 33/13/4 31/11/4 25/16/4
f 25/16/4 31/11/4 37/14/4
f 31/11/4 33/13/4 38/12/4
f 21/10/3 31/11/3 36/11/3
f 19/16/8 7/2/8 27/15/8
f 23/13/9 8/3/9 26/18/9
f 30/12/6 9/4/6 20/11/6
f 18/11/11 15/4/11 32/11/11
f 17/14/10 6/1/10 22/17/10
f 25/16/8 2/2/8 28/15/8
f 33/13/9 3/3/9 35/18/9
f 38/12/6 4/4/6 34/11/6
f 31/11/3 16/4/3 36/11/3
f 37/14/7 1/1/7 29/17/7
o oddil_prupoz
v -0.309000 1.236247 0.478223
v 0.309000 0.247447 0.478224
v 0.309000 1.236247 0.478223
v -0.309000 0.247447 0.478224
vn -0.0000 -0.0000 -1.0000
vt 1.000000 1.000000
vt 0.473000 0.247000
vt 0.473000 1.000000
vt 1.000000 0.247000
s 0
usemtl AZD_Tab
f 39/19/12 41/21/12 40/20/12
f 40/20/12 42/22/12 39/19/12
o vjezd_prupoz
v -0.309000 1.236247 0.478223
v 0.309000 0.247447 0.478224
v 0.309000 1.236247 0.478223
v -0.309000 0.247447 0.478224
vn -0.0000 -0.0000 -1.0000
vt 0.525000 1.000000
vt 0.000000 0.247000
vt 0.000000 1.000000
vt 0.525000 0.247000
s 0
usemtl AZD_Tab
f 43/23/13 45/25/13 44/24/13
f 44/24/13 46/26/13 43/23/13
