# Blender 4.1.1
# www.blender.org
mtllib rychlostnik.mtl
o rychlostnik
v 0.000000 0.000000 -0.025000
v 0.000000 0.983935 -0.025000
v 0.009567 0.000000 -0.023097
v 0.009567 0.983935 -0.023097
v 0.017678 0.000000 -0.017678
v 0.017678 0.983935 -0.017678
v 0.023097 0.000000 -0.009567
v 0.023097 0.983935 -0.009567
v 0.025000 0.000000 0.000000
v 0.025000 0.983935 0.000000
v 0.023097 0.000000 0.009567
v 0.023097 0.983935 0.009567
v 0.017678 0.000000 0.017678
v 0.017678 0.983935 0.017678
v 0.009567 0.000000 0.023097
v 0.009567 0.983935 0.023097
v 0.000000 0.000000 0.025000
v 0.000000 0.983935 0.025000
v -0.009567 0.000000 0.023097
v -0.009567 0.983935 0.023097
v -0.017678 0.000000 0.017678
v -0.017678 0.983935 0.017678
v -0.023097 0.000000 0.009567
v -0.023097 0.983935 0.009567
v -0.025000 0.000000 0.000000
v -0.025000 0.983935 0.000000
v -0.023097 0.000000 -0.009567
v -0.023097 0.983935 -0.009567
v -0.017678 0.000000 -0.017678
v -0.017678 0.983935 -0.017678
v -0.009567 0.000000 -0.023097
v -0.009567 0.983935 -0.023097
v -0.000000 0.982722 -0.026349
v -0.000000 1.004679 -0.026349
v 0.010083 0.982722 -0.024343
v 0.010083 1.004679 -0.024343
v 0.018631 0.982722 -0.018631
v 0.018631 1.004679 -0.018631
v 0.024343 0.982722 -0.010083
v 0.024343 1.004679 -0.010083
v 0.026349 0.982722 0.000000
v 0.026349 1.004679 0.000000
v 0.024343 0.982722 0.010083
v 0.024343 1.004679 0.010083
v 0.018631 0.982722 0.018631
v 0.018631 1.004679 0.018631
v 0.010083 0.982722 0.024343
v 0.010083 1.004679 0.024343
v -0.000000 0.982722 0.026349
v -0.000000 1.004679 0.026349
v -0.010083 0.982722 0.024343
v -0.010083 1.004679 0.024343
v -0.018631 0.982722 0.018631
v -0.018631 1.004679 0.018631
v -0.024343 0.982722 0.010083
v -0.024343 1.004679 0.010083
v -0.026349 0.982722 0.000000
v -0.026349 1.004679 0.000000
v -0.024343 0.982722 -0.010083
v -0.024343 1.004679 -0.010083
v -0.018631 0.982722 -0.018631
v -0.018631 1.004679 -0.018631
v -0.010083 0.982722 -0.024343
v -0.010083 1.004679 -0.024343
v -0.000000 1.009801 0.000000
v -0.211750 0.690093 0.032281
v -0.187983 0.666326 0.032281
v -0.210940 0.683941 0.032281
v -0.208566 0.678209 0.032281
v -0.204789 0.673287 0.032281
v -0.199867 0.669510 0.032281
v -0.194135 0.667136 0.032281
v -0.187983 0.956726 0.032281
v -0.211750 0.932959 0.032281
v -0.194135 0.955916 0.032281
v -0.199867 0.953542 0.032281
v -0.204789 0.949765 0.032281
v -0.208566 0.944843 0.032281
v -0.210940 0.939111 0.032281
v 0.187983 0.666326 0.032281
v 0.211750 0.690093 0.032281
v 0.194135 0.667136 0.032281
v 0.199867 0.669510 0.032281
v 0.204789 0.673287 0.032281
v 0.208566 0.678209 0.032281
v 0.210940 0.683941 0.032281
v 0.211750 0.932959 0.032281
v 0.187983 0.956726 0.032281
v 0.210940 0.939111 0.032281
v 0.208566 0.944843 0.032281
v 0.204789 0.949765 0.032281
v 0.199867 0.953542 0.032281
v 0.194135 0.955916 0.032281
v -0.194135 0.667136 0.026231
v -0.187983 0.666326 0.026231
v -0.199867 0.669510 0.026231
v -0.204789 0.673287 0.026231
v -0.208566 0.678209 0.026231
v -0.210940 0.683941 0.026231
v -0.211750 0.690093 0.026231
v -0.187983 0.956726 0.026231
v -0.194135 0.955916 0.026231
v -0.199867 0.953542 0.026231
v -0.204789 0.949765 0.026231
v -0.208566 0.944843 0.026231
v -0.210940 0.939111 0.026231
v -0.211750 0.932959 0.026231
v 0.187983 0.666326 0.026231
v 0.194135 0.667136 0.026231
v 0.199867 0.669510 0.026231
v 0.204789 0.673287 0.026231
v 0.208566 0.678209 0.026231
v 0.210940 0.683941 0.026231
v 0.211750 0.690093 0.026231
v 0.194135 0.955916 0.026231
v 0.187983 0.956726 0.026231
v 0.199867 0.953542 0.026231
v 0.204789 0.949765 0.026231
v 0.208566 0.944843 0.026231
v 0.210940 0.939111 0.026231
v 0.211750 0.932959 0.026231
v -0.193628 0.669026 0.029021
v -0.187856 0.668266 0.029021
v -0.198888 0.671205 0.029021
v -0.203405 0.674671 0.029021
v -0.206871 0.679188 0.029021
v -0.209050 0.684448 0.029021
v -0.209810 0.690220 0.029021
v -0.187856 0.954786 0.029021
v -0.193628 0.954026 0.029021
v -0.198888 0.951847 0.029021
v -0.203405 0.948381 0.029021
v -0.206871 0.943864 0.029021
v -0.209050 0.938604 0.029021
v -0.209810 0.932832 0.029021
v 0.187856 0.668266 0.029021
v 0.193628 0.669026 0.029021
v 0.198888 0.671205 0.029021
v 0.203405 0.674671 0.029021
v 0.206871 0.679188 0.029021
v 0.209050 0.684448 0.029021
v 0.209810 0.690220 0.029021
v 0.193628 0.954026 0.029021
v 0.187856 0.954786 0.029021
v 0.198888 0.951847 0.029021
v 0.203405 0.948381 0.029021
v 0.206871 0.943864 0.029021
v 0.209050 0.938604 0.029021
v 0.209810 0.932832 0.029021
v -0.187856 0.668266 0.026948
v -0.187903 0.667550 0.026231
v -0.187870 0.668056 0.026441
v -0.210526 0.690173 0.026231
v -0.209810 0.690220 0.026948
v -0.210020 0.690206 0.026441
v -0.193815 0.668329 0.026231
v -0.193628 0.669026 0.026948
v -0.193683 0.668820 0.026441
v -0.199249 0.670580 0.026231
v -0.198888 0.671205 0.026948
v -0.198995 0.671020 0.026441
v -0.203916 0.674160 0.026231
v -0.203405 0.674671 0.026948
v -0.203556 0.674520 0.026441
v -0.207497 0.678827 0.026231
v -0.206871 0.679188 0.026948
v -0.207056 0.679081 0.026441
v -0.209747 0.684261 0.026231
v -0.209050 0.684448 0.026948
v -0.209257 0.684393 0.026441
v -0.209810 0.932832 0.026948
v -0.210526 0.932879 0.026231
v -0.210020 0.932846 0.026441
v -0.187903 0.955502 0.026231
v -0.187856 0.954786 0.026948
v -0.187870 0.954996 0.026441
v -0.209050 0.938604 0.026948
v -0.209747 0.938791 0.026231
v -0.209257 0.938659 0.026441
v -0.206871 0.943864 0.026948
v -0.207497 0.944225 0.026231
v -0.207056 0.943971 0.026441
v -0.203405 0.948381 0.026948
v -0.203916 0.948892 0.026231
v -0.203556 0.948532 0.026441
v -0.198888 0.951847 0.026948
v -0.199249 0.952473 0.026231
v -0.198995 0.952032 0.026441
v -0.193628 0.954026 0.026948
v -0.193815 0.954724 0.026231
v -0.193683 0.954233 0.026441
v 0.209810 0.690220 0.026948
v 0.210526 0.690173 0.026231
v 0.210020 0.690206 0.026441
v 0.187903 0.667550 0.026231
v 0.187856 0.668266 0.026948
v 0.187870 0.668056 0.026441
v 0.209050 0.684448 0.026948
v 0.209747 0.684261 0.026231
v 0.209257 0.684393 0.026441
v 0.206871 0.679188 0.026948
v 0.207497 0.678827 0.026231
v 0.207056 0.679081 0.026441
v 0.203405 0.674671 0.026948
v 0.203916 0.674160 0.026231
v 0.203556 0.674520 0.026441
v 0.198888 0.671205 0.026948
v 0.199249 0.670580 0.026231
v 0.198995 0.671020 0.026441
v 0.193628 0.669026 0.026948
v 0.193815 0.668329 0.026231
v 0.193683 0.668820 0.026441
v 0.187856 0.954786 0.026948
v 0.187903 0.955502 0.026231
v 0.187870 0.954996 0.026441
v 0.210526 0.932879 0.026231
v 0.209810 0.932832 0.026948
v 0.210020 0.932846 0.026441
v 0.193815 0.954724 0.026231
v 0.193628 0.954026 0.026948
v 0.193683 0.954233 0.026441
v 0.199249 0.952473 0.026231
v 0.198888 0.951847 0.026948
v 0.198995 0.952032 0.026441
v 0.203916 0.948892 0.026231
v 0.203405 0.948381 0.026948
v 0.203556 0.948532 0.026441
v 0.207497 0.944225 0.026231
v 0.206871 0.943864 0.026948
v 0.207056 0.943971 0.026441
v 0.209747 0.938791 0.026231
v 0.209050 0.938604 0.026948
v 0.209257 0.938659 0.026441
v -0.089841 0.905563 0.029021
v -0.089841 0.905563 0.024937
v 0.089841 0.905563 0.024937
v 0.089841 0.905563 0.029021
v -0.089841 0.905563 0.027815
v -0.089841 0.917489 0.027815
v 0.089841 0.905563 0.027815
v 0.089841 0.917489 0.027815
v 0.089841 0.917489 0.024937
v 0.089841 0.917489 0.029021
v -0.089841 0.917489 0.029021
v -0.089841 0.917489 0.024937
v -0.089841 0.917839 0.024937
v 0.089841 0.917839 0.024937
v -0.089841 0.917839 0.029021
v 0.089841 0.917839 0.029021
v -0.089841 0.905213 0.024937
v -0.089841 0.905213 0.029021
v 0.089841 0.905213 0.024937
v 0.089841 0.905213 0.029021
v 0.034368 0.907764 0.028164
v 0.034368 0.907764 0.025039
v 0.037615 0.909639 0.028164
v 0.037615 0.909639 0.025039
v 0.037615 0.913388 0.028164
v 0.037615 0.913388 0.025039
v 0.034368 0.915264 0.028164
v 0.034368 0.915264 0.025039
v 0.031120 0.913388 0.028164
v 0.031120 0.913388 0.025039
v 0.031120 0.909639 0.028164
v 0.031120 0.909639 0.025039
v -0.035286 0.907764 0.028164
v -0.035286 0.907764 0.025039
v -0.032038 0.909639 0.028164
v -0.032038 0.909639 0.025039
v -0.032038 0.913388 0.028164
v -0.032038 0.913388 0.025039
v -0.035286 0.915264 0.028164
v -0.035286 0.915264 0.025039
v -0.038533 0.913388 0.028164
v -0.038533 0.913388 0.025039
v -0.038533 0.909639 0.028164
v -0.038533 0.909639 0.025039
v -0.040122 0.906736 0.027762
v 0.040122 0.906736 0.027762
v -0.040122 0.917617 0.027762
v 0.040122 0.917617 0.027762
v -0.029072 0.906736 0.027762
v -0.021072 0.906736 -0.015705
v -0.010031 0.906736 -0.023287
v -0.000000 0.906736 -0.025500
v 0.010031 0.906736 -0.023287
v 0.021072 0.906736 -0.015705
v 0.029072 0.906736 0.027762
v 0.029072 0.917617 0.027762
v 0.021072 0.917617 -0.015705
v 0.010031 0.917617 -0.023287
v -0.000000 0.917617 -0.025500
v -0.010031 0.917617 -0.023287
v -0.021072 0.917617 -0.015705
v -0.029072 0.917617 0.027762
v -0.026340 0.906736 -0.000809
v -0.026340 0.917617 -0.000809
v -0.015046 0.906736 -0.019936
v -0.015046 0.917617 -0.019936
v -0.005015 0.906736 -0.024502
v -0.005015 0.917617 -0.024502
v 0.005015 0.906736 -0.024502
v 0.005015 0.917617 -0.024502
v 0.015046 0.906736 -0.019936
v 0.015046 0.917617 -0.019936
v 0.026340 0.906736 -0.000809
v 0.026340 0.917617 -0.000809
v -0.089841 0.711608 0.029021
v -0.089841 0.711608 0.024937
v 0.089841 0.711608 0.024937
v 0.089841 0.711608 0.029021
v -0.089841 0.711608 0.027815
v -0.089841 0.723534 0.027815
v 0.089841 0.711608 0.027815
v 0.089841 0.723534 0.027815
v 0.089841 0.723534 0.024937
v 0.089841 0.723534 0.029021
v -0.089841 0.723534 0.029021
v -0.089841 0.723534 0.024937
v -0.089841 0.723884 0.024937
v 0.089841 0.723884 0.024937
v -0.089841 0.723884 0.029021
v 0.089841 0.723884 0.029021
v -0.089841 0.711258 0.024937
v -0.089841 0.711258 0.029021
v 0.089841 0.711258 0.024937
v 0.089841 0.711258 0.029021
v 0.034368 0.713809 0.028164
v 0.034368 0.713809 0.025039
v 0.037615 0.715684 0.028164
v 0.037615 0.715684 0.025039
v 0.037615 0.719434 0.028164
v 0.037615 0.719434 0.025039
v 0.034368 0.721309 0.028164
v 0.034368 0.721309 0.025039
v 0.031120 0.719434 0.028164
v 0.031120 0.719434 0.025039
v 0.031120 0.715684 0.028164
v 0.031120 0.715684 0.025039
v -0.035286 0.713809 0.028164
v -0.035286 0.713809 0.025039
v -0.032038 0.715684 0.028164
v -0.032038 0.715684 0.025039
v -0.032038 0.719434 0.028164
v -0.032038 0.719434 0.025039
v -0.035286 0.721309 0.028164
v -0.035286 0.721309 0.025039
v -0.038533 0.719434 0.028164
v -0.038533 0.719434 0.025039
v -0.038533 0.715684 0.028164
v -0.038533 0.715684 0.025039
v -0.040122 0.712781 0.027762
v 0.040122 0.712781 0.027762
v -0.040122 0.723662 0.027762
v 0.040122 0.723662 0.027762
v -0.029072 0.712781 0.027762
v -0.021072 0.712781 -0.015705
v -0.010031 0.712781 -0.023287
v -0.000000 0.712781 -0.025500
v 0.010031 0.712781 -0.023287
v 0.021072 0.712781 -0.015705
v 0.029072 0.712781 0.027762
v 0.029072 0.723662 0.027762
v 0.021072 0.723662 -0.015705
v 0.010031 0.723662 -0.023287
v -0.000000 0.723662 -0.025500
v -0.010031 0.723662 -0.023287
v -0.021072 0.723662 -0.015705
v -0.029072 0.723662 0.027762
v -0.026340 0.712781 -0.000809
v -0.026340 0.723662 -0.000809
v -0.015046 0.712781 -0.019936
v -0.015046 0.723662 -0.019936
v -0.005015 0.712781 -0.024502
v -0.005015 0.723662 -0.024502
v 0.005015 0.712781 -0.024502
v 0.005015 0.723662 -0.024502
v 0.015046 0.712781 -0.019936
v 0.015046 0.723662 -0.019936
v 0.026340 0.712781 -0.000809
v 0.026340 0.723662 -0.000809
v 0.000000 0.000000 -0.025000
v 0.009567 0.000000 -0.023097
v 0.017678 0.000000 -0.017678
v 0.023097 0.000000 -0.009567
v 0.025000 0.000000 0.000000
v 0.023097 0.000000 0.009567
v 0.017678 0.000000 0.017678
v 0.009567 0.000000 0.023097
v 0.000000 0.000000 0.025000
v -0.009567 0.000000 0.023097
v -0.017678 0.000000 0.017678
v -0.023097 0.000000 0.009567
v -0.025000 0.000000 0.000000
v -0.023097 0.000000 -0.009567
v -0.017678 0.000000 -0.017678
v -0.009567 0.000000 -0.023097
v -0.000000 0.982722 -0.026349
v 0.010083 0.982722 -0.024343
v 0.010083 1.004679 -0.024343
v -0.000000 1.004679 -0.026349
v 0.018631 0.982722 -0.018631
v 0.018631 1.004679 -0.018631
v 0.024343 0.982722 -0.010083
v 0.024343 1.004679 -0.010083
v 0.026349 0.982722 0.000000
v 0.026349 1.004679 0.000000
v 0.024343 0.982722 0.010083
v 0.024343 1.004679 0.010083
v 0.018631 0.982722 0.018631
v 0.018631 1.004679 0.018631
v 0.010083 0.982722 0.024343
v 0.010083 1.004679 0.024343
v -0.000000 0.982722 0.026349
v -0.000000 1.004679 0.026349
v -0.010083 0.982722 0.024343
v -0.010083 1.004679 0.024343
v -0.018631 0.982722 0.018631
v -0.018631 1.004679 0.018631
v -0.024343 0.982722 0.010083
v -0.024343 1.004679 0.010083
v -0.026349 0.982722 0.000000
v -0.026349 1.004679 0.000000
v -0.024343 0.982722 -0.010083
v -0.024343 1.004679 -0.010083
v -0.018631 0.982722 -0.018631
v -0.018631 1.004679 -0.018631
v -0.010083 0.982722 -0.024343
v -0.010083 1.004679 -0.024343
v -0.194135 0.667136 0.026231
v -0.187983 0.666326 0.026231
v -0.187983 0.666326 0.032281
v -0.194135 0.667136 0.032281
v -0.199867 0.669510 0.026231
v -0.199867 0.669510 0.032281
v -0.204789 0.673287 0.026231
v -0.204789 0.673287 0.032281
v -0.208566 0.678209 0.026231
v -0.208566 0.678209 0.032281
v -0.210940 0.683941 0.026231
v -0.210940 0.683941 0.032281
v -0.211750 0.690093 0.026231
v -0.211750 0.690093 0.032281
v -0.194135 0.955916 0.032281
v -0.187983 0.956726 0.032281
v -0.187983 0.956726 0.026231
v -0.194135 0.955916 0.026231
v -0.199867 0.953542 0.032281
v -0.199867 0.953542 0.026231
v -0.204789 0.949765 0.032281
v -0.204789 0.949765 0.026231
v -0.208566 0.944843 0.032281
v -0.208566 0.944843 0.026231
v -0.210940 0.939111 0.032281
v -0.210940 0.939111 0.026231
v -0.211750 0.932959 0.032281
v -0.211750 0.932959 0.026231
v 0.194135 0.667136 0.032281
v 0.187983 0.666326 0.032281
v 0.187983 0.666326 0.026231
v 0.194135 0.667136 0.026231
v 0.199867 0.669510 0.032281
v 0.199867 0.669510 0.026231
v 0.204789 0.673287 0.032281
v 0.204789 0.673287 0.026231
v 0.208566 0.678209 0.032281
v 0.208566 0.678209 0.026231
v 0.210940 0.683941 0.032281
v 0.210940 0.683941 0.026231
v 0.211750 0.690093 0.032281
v 0.211750 0.690093 0.026231
v 0.194135 0.955916 0.026231
v 0.187983 0.956726 0.026231
v 0.187983 0.956726 0.032281
v 0.194135 0.955916 0.032281
v 0.199867 0.953542 0.026231
v 0.199867 0.953542 0.032281
v 0.204789 0.949765 0.026231
v 0.204789 0.949765 0.032281
v 0.208566 0.944843 0.026231
v 0.208566 0.944843 0.032281
v 0.210940 0.939111 0.026231
v 0.210940 0.939111 0.032281
v 0.211750 0.932959 0.026231
v 0.211750 0.932959 0.032281
v -0.193628 0.669026 0.029021
v -0.187856 0.668266 0.029021
v -0.198888 0.671205 0.029021
v -0.203405 0.674671 0.029021
v -0.206871 0.679188 0.029021
v -0.209050 0.684448 0.029021
v -0.209810 0.690220 0.029021
v -0.187856 0.954786 0.029021
v -0.193628 0.954026 0.029021
v -0.198888 0.951847 0.029021
v -0.203405 0.948381 0.029021
v -0.206871 0.943864 0.029021
v -0.209050 0.938604 0.029021
v -0.209810 0.932832 0.029021
v 0.187856 0.668266 0.029021
v 0.193628 0.669026 0.029021
v 0.198888 0.671205 0.029021
v 0.203405 0.674671 0.029021
v 0.206871 0.679188 0.029021
v 0.209050 0.684448 0.029021
v 0.209810 0.690220 0.029021
v 0.193628 0.954026 0.029021
v 0.187856 0.954786 0.029021
v 0.198888 0.951847 0.029021
v 0.203405 0.948381 0.029021
v 0.206871 0.943864 0.029021
v 0.209050 0.938604 0.029021
v 0.209810 0.932832 0.029021
v -0.187870 0.668056 0.026441
v -0.193683 0.668820 0.026441
v -0.198995 0.671020 0.026441
v -0.203556 0.674520 0.026441
v -0.207056 0.679081 0.026441
v -0.209257 0.684393 0.026441
v -0.210020 0.690206 0.026441
v -0.193683 0.954233 0.026441
v -0.187870 0.954996 0.026441
v -0.198995 0.952032 0.026441
v -0.203556 0.948532 0.026441
v -0.207056 0.943971 0.026441
v -0.209257 0.938659 0.026441
v -0.210020 0.932846 0.026441
v 0.193683 0.668820 0.026441
v 0.187870 0.668056 0.026441
v 0.198995 0.671020 0.026441
v 0.203556 0.674520 0.026441
v 0.207056 0.679081 0.026441
v 0.209257 0.684393 0.026441
v 0.210020 0.690206 0.026441
v 0.187870 0.954996 0.026441
v 0.193683 0.954233 0.026441
v 0.198995 0.952032 0.026441
v 0.203556 0.948532 0.026441
v 0.207056 0.943971 0.026441
v 0.209257 0.938659 0.026441
v 0.210020 0.932846 0.026441
v 0.089841 0.905563 0.024937
v 0.089841 0.905563 0.024937
v -0.089841 0.905563 0.024937
v -0.089841 0.905563 0.024937
v 0.089841 0.917489 0.027815
v 0.089841 0.917489 0.027815
v 0.089841 0.905563 0.027815
v 0.089841 0.905563 0.027815
v -0.089841 0.905563 0.027815
v -0.089841 0.905563 0.027815
v -0.089841 0.917489 0.027815
v -0.089841 0.917489 0.027815
v -0.089841 0.917839 0.024937
v -0.089841 0.917839 0.024937
v 0.089841 0.917839 0.024937
v 0.089841 0.917839 0.024937
v -0.089841 0.917839 0.029021
v -0.089841 0.917839 0.029021
v 0.089841 0.917839 0.029021
v 0.089841 0.917839 0.029021
v -0.089841 0.917489 0.024937
v -0.089841 0.917489 0.024937
v -0.089841 0.917489 0.029021
v -0.089841 0.917489 0.029021
v -0.089841 0.905213 0.024937
v -0.089841 0.905213 0.024937
v -0.089841 0.905213 0.029021
v -0.089841 0.905213 0.029021
v 0.089841 0.905213 0.024937
v 0.089841 0.905213 0.024937
v 0.089841 0.905213 0.029021
v 0.089841 0.905213 0.029021
v -0.089841 0.905563 0.029021
v -0.089841 0.905563 0.029021
v 0.089841 0.905563 0.029021
v 0.089841 0.905563 0.029021
v 0.037615 0.909639 0.025039
v 0.037615 0.909639 0.025039
v 0.034368 0.907764 0.025039
v 0.034368 0.907764 0.025039
v 0.034368 0.907764 0.028164
v 0.037615 0.909639 0.028164
v 0.037615 0.913388 0.025039
v 0.037615 0.913388 0.025039
v 0.037615 0.913388 0.028164
v 0.034368 0.915264 0.025039
v 0.034368 0.915264 0.025039
v 0.034368 0.915264 0.028164
v 0.031120 0.913388 0.025039
v 0.031120 0.913388 0.025039
v 0.031120 0.913388 0.028164
v 0.031120 0.909639 0.025039
v 0.031120 0.909639 0.025039
v 0.031120 0.909639 0.028164
v -0.032038 0.909639 0.025039
v -0.032038 0.909639 0.025039
v -0.035286 0.907764 0.025039
v -0.035286 0.907764 0.025039
v -0.035286 0.907764 0.028164
v -0.032038 0.909639 0.028164
v -0.032038 0.913388 0.025039
v -0.032038 0.913388 0.025039
v -0.032038 0.913388 0.028164
v -0.035286 0.915264 0.025039
v -0.035286 0.915264 0.025039
v -0.035286 0.915264 0.028164
v -0.038533 0.913388 0.025039
v -0.038533 0.913388 0.025039
v -0.038533 0.913388 0.028164
v -0.038533 0.909639 0.025039
v -0.038533 0.909639 0.025039
v -0.038533 0.909639 0.028164
v -0.029072 0.906736 0.027762
v -0.029072 0.917617 0.027762
v -0.021072 0.906736 -0.015705
v -0.021072 0.917617 -0.015705
v 0.021072 0.906736 -0.015705
v 0.021072 0.917617 -0.015705
v 0.029072 0.906736 0.027762
v 0.029072 0.917617 0.027762
v 0.089841 0.917489 0.024937
v 0.089841 0.917489 0.024937
v 0.089841 0.917489 0.029021
v 0.089841 0.917489 0.029021
v 0.089841 0.723534 0.027815
v 0.089841 0.711608 0.027815
v -0.089841 0.711608 0.027815
v -0.089841 0.723534 0.027815
v -0.089841 0.723884 0.024937
v -0.089841 0.723884 0.024937
v 0.089841 0.723884 0.024937
v 0.089841 0.723884 0.024937
v -0.089841 0.723884 0.029021
v -0.089841 0.723884 0.029021
v 0.089841 0.723884 0.029021
v 0.089841 0.723884 0.029021
v -0.089841 0.723534 0.024937
v -0.089841 0.723534 0.029021
v -0.089841 0.723534 0.029021
v -0.089841 0.711258 0.024937
v -0.089841 0.711258 0.024937
v -0.089841 0.711258 0.029021
v -0.089841 0.711258 0.029021
v 0.089841 0.711258 0.024937
v 0.089841 0.711258 0.024937
v 0.089841 0.711258 0.029021
v 0.089841 0.711258 0.029021
v -0.089841 0.711608 0.029021
v -0.089841 0.711608 0.029021
v 0.089841 0.711608 0.029021
v 0.089841 0.711608 0.029021
v 0.089841 0.711608 0.024937
v -0.089841 0.711608 0.024937
v 0.037615 0.715684 0.025039
v 0.037615 0.715684 0.025039
v 0.034368 0.713809 0.025039
v 0.034368 0.713809 0.025039
v 0.034368 0.713809 0.028164
v 0.037615 0.715684 0.028164
v 0.037615 0.719434 0.025039
v 0.037615 0.719434 0.025039
v 0.037615 0.719434 0.028164
v 0.034368 0.721309 0.025039
v 0.034368 0.721309 0.025039
v 0.034368 0.721309 0.028164
v 0.031120 0.719434 0.025039
v 0.031120 0.719434 0.025039
v 0.031120 0.719434 0.028164
v 0.031120 0.715684 0.025039
v 0.031120 0.715684 0.025039
v 0.031120 0.715684 0.028164
v -0.032038 0.715684 0.025039
v -0.032038 0.715684 0.025039
v -0.035286 0.713809 0.025039
v -0.035286 0.713809 0.025039
v -0.035286 0.713809 0.028164
v -0.032038 0.715684 0.028164
v -0.032038 0.719434 0.025039
v -0.032038 0.719434 0.025039
v -0.032038 0.719434 0.028164
v -0.035286 0.721309 0.025039
v -0.035286 0.721309 0.025039
v -0.035286 0.721309 0.028164
v -0.038533 0.719434 0.025039
v -0.038533 0.719434 0.025039
v -0.038533 0.719434 0.028164
v -0.038533 0.715684 0.025039
v -0.038533 0.715684 0.025039
v -0.038533 0.715684 0.028164
v -0.029072 0.712781 0.027762
v -0.029072 0.723662 0.027762
v -0.021072 0.712781 -0.015705
v -0.021072 0.723662 -0.015705
v 0.021072 0.712781 -0.015705
v 0.021072 0.723662 -0.015705
v 0.029072 0.712781 0.027762
v 0.029072 0.723662 0.027762
v 0.089841 0.723534 0.024937
v 0.089841 0.723534 0.029021
v 0.089841 0.723534 0.029021
vn -0.0000 -1.0000 -0.0000
vn -0.0000 -0.0000 -1.0000
vn 0.3827 -0.0000 -0.9239
vn 0.7071 -0.0000 -0.7071
vn 0.9239 -0.0000 -0.3827
vn 1.0000 -0.0000 -0.0000
vn 0.9239 -0.0000 0.3827
vn 0.7071 -0.0000 0.7071
vn 0.3827 -0.0000 0.9239
vn -0.0000 -0.0000 1.0000
vn -0.3827 -0.0000 0.9239
vn -0.7071 -0.0000 0.7071
vn -0.9239 -0.0000 0.3827
vn -1.0000 -0.0000 -0.0000
vn -0.9239 -0.0000 -0.3827
vn -0.7071 -0.0000 -0.7071
vn -0.3827 -0.0000 -0.9239
vn -0.0000 0.9816 -0.1908
vn 0.0730 0.9816 -0.1763
vn 0.1349 0.9816 -0.1349
vn 0.1763 0.9816 -0.0730
vn 0.1908 0.9816 -0.0000
vn 0.1763 0.9816 0.0730
vn 0.1349 0.9816 0.1349
vn 0.0730 0.9816 0.1763
vn -0.0000 0.9816 0.1908
vn -0.0730 0.9816 0.1763
vn -0.1349 0.9816 0.1349
vn -0.1763 0.9816 0.0730
vn -0.1908 0.9816 -0.0000
vn -0.1763 0.9816 -0.0730
vn -0.1349 0.9816 -0.1349
vn -0.0730 0.9816 -0.1763
vn -0.0000 1.0000 -0.0000
vn -0.9979 -0.0654 -0.0000
vn -0.9659 -0.2588 -0.0000
vn -0.8660 -0.5000 -0.0000
vn -0.7071 -0.7071 -0.0000
vn -0.5000 -0.8660 -0.0000
vn -0.2588 -0.9659 -0.0000
vn -0.0654 0.9979 -0.0000
vn -0.9979 0.0654 -0.0000
vn -0.2588 0.9659 -0.0000
vn -0.5000 0.8660 -0.0000
vn -0.7071 0.7071 -0.0000
vn -0.8660 0.5000 -0.0000
vn -0.9659 0.2588 -0.0000
vn 0.0654 -0.9979 -0.0000
vn 0.9979 -0.0654 -0.0000
vn 0.2588 -0.9659 -0.0000
vn 0.5000 -0.8660 -0.0000
vn 0.7071 -0.7071 -0.0000
vn 0.8660 -0.5000 -0.0000
vn 0.9659 -0.2588 -0.0000
vn 0.9979 0.0654 -0.0000
vn 0.9659 0.2588 -0.0000
vn 0.8660 0.5000 -0.0000
vn 0.7071 0.7071 -0.0000
vn 0.5000 0.8660 -0.0000
vn 0.2588 0.9659 -0.0000
vn 0.0654 0.9979 -0.0000
vn 0.0641 0.9782 -0.1976
vn 0.0122 0.1867 -0.9823
vn 0.0249 0.3816 -0.9240
vn 0.1867 0.0122 -0.9823
vn 0.9782 0.0641 -0.1976
vn 0.3816 0.0249 -0.9240
vn 0.0463 0.1727 -0.9839
vn 0.2534 0.9460 -0.2019
vn 0.0987 0.3685 -0.9244
vn 0.0894 0.1548 -0.9839
vn 0.4897 0.8482 -0.2020
vn 0.1908 0.3304 -0.9244
vn 0.1264 0.1264 -0.9839
vn 0.6925 0.6925 -0.2020
vn 0.2698 0.2698 -0.9244
vn 0.1548 0.0894 -0.9839
vn 0.8482 0.4897 -0.2020
vn 0.3304 0.1908 -0.9244
vn 0.1727 0.0463 -0.9839
vn 0.9460 0.2534 -0.2019
vn 0.3685 0.0987 -0.9244
vn 0.9782 -0.0641 -0.1976
vn 0.1867 -0.0122 -0.9823
vn 0.3816 -0.0249 -0.9240
vn 0.0122 -0.1867 -0.9823
vn 0.0641 -0.9782 -0.1976
vn 0.0249 -0.3816 -0.9240
vn 0.9460 -0.2534 -0.2019
vn 0.1727 -0.0463 -0.9839
vn 0.3685 -0.0987 -0.9244
vn 0.8482 -0.4897 -0.2020
vn 0.1548 -0.0894 -0.9839
vn 0.3304 -0.1908 -0.9244
vn 0.6925 -0.6925 -0.2020
vn 0.1264 -0.1264 -0.9839
vn 0.2698 -0.2698 -0.9244
vn 0.4897 -0.8482 -0.2020
vn 0.0894 -0.1548 -0.9839
vn 0.1908 -0.3304 -0.9244
vn 0.2534 -0.9461 -0.2019
vn 0.0463 -0.1727 -0.9839
vn 0.0987 -0.3685 -0.9244
vn -0.9782 0.0641 -0.1976
vn -0.1867 0.0122 -0.9823
vn -0.3816 0.0249 -0.9240
vn -0.0122 0.1867 -0.9823
vn -0.0641 0.9782 -0.1976
vn -0.0249 0.3816 -0.9240
vn -0.9460 0.2534 -0.2019
vn -0.1727 0.0463 -0.9839
vn -0.3685 0.0987 -0.9244
vn -0.8482 0.4897 -0.2020
vn -0.1548 0.0894 -0.9839
vn -0.3304 0.1908 -0.9244
vn -0.6925 0.6925 -0.2020
vn -0.1264 0.1264 -0.9839
vn -0.2698 0.2698 -0.9244
vn -0.4897 0.8482 -0.2020
vn -0.0894 0.1548 -0.9839
vn -0.1908 0.3304 -0.9244
vn -0.2534 0.9460 -0.2019
vn -0.0463 0.1727 -0.9839
vn -0.0987 0.3685 -0.9244
vn -0.0641 -0.9782 -0.1976
vn -0.0122 -0.1867 -0.9823
vn -0.0249 -0.3816 -0.9240
vn -0.1867 -0.0122 -0.9823
vn -0.9782 -0.0641 -0.1976
vn -0.3816 -0.0249 -0.9240
vn -0.0463 -0.1727 -0.9839
vn -0.2534 -0.9461 -0.2019
vn -0.0987 -0.3685 -0.9244
vn -0.0894 -0.1548 -0.9839
vn -0.4897 -0.8482 -0.2020
vn -0.1908 -0.3304 -0.9244
vn -0.1264 -0.1264 -0.9839
vn -0.6925 -0.6925 -0.2020
vn -0.2698 -0.2698 -0.9244
vn -0.1548 -0.0894 -0.9839
vn -0.8482 -0.4897 -0.2020
vn -0.3304 -0.1908 -0.9244
vn -0.1727 -0.0463 -0.9839
vn -0.9460 -0.2534 -0.2019
vn -0.3685 -0.0987 -0.9244
vn -0.9955 -0.0000 -0.0952
vn -0.5746 -0.0000 -0.8184
vn -0.4017 -0.0000 -0.9158
vn 0.4017 -0.0000 -0.9158
vn 0.9428 -0.0000 -0.3334
vn 0.9955 -0.0000 -0.0952
vn 0.5746 -0.0000 -0.8184
vn -0.9428 -0.0000 -0.3334
vn -0.9764 -0.0000 -0.2159
vn -0.5651 -0.0000 -0.8250
vn -0.2153 -0.0000 -0.9765
vn 0.2153 -0.0000 -0.9765
vn 0.5651 -0.0000 -0.8250
vn 0.9764 -0.0000 -0.2159
vn -0.0654 -0.9979 -0.0000
vn 0.0604 0.9212 -0.3844
vn 0.2382 0.8897 -0.3894
vn 0.4605 0.7977 -0.3894
vn 0.6513 0.6513 -0.3894
vn 0.7977 0.4605 -0.3894
vn 0.8897 0.2382 -0.3895
vn 0.9212 0.0604 -0.3845
vn 0.2383 -0.8897 -0.3894
vn 0.0604 -0.9212 -0.3844
vn 0.4605 -0.7977 -0.3894
vn 0.6513 -0.6513 -0.3894
vn 0.7977 -0.4605 -0.3894
vn 0.8897 -0.2382 -0.3895
vn 0.9212 -0.0604 -0.3845
vn -0.2382 0.8897 -0.3894
vn -0.0604 0.9212 -0.3844
vn -0.4605 0.7977 -0.3894
vn -0.6513 0.6513 -0.3894
vn -0.7977 0.4605 -0.3894
vn -0.8897 0.2382 -0.3895
vn -0.9212 0.0604 -0.3845
vn -0.0604 -0.9212 -0.3844
vn -0.2383 -0.8897 -0.3894
vn -0.4605 -0.7977 -0.3894
vn -0.6513 -0.6513 -0.3894
vn -0.7977 -0.4605 -0.3894
vn -0.8897 -0.2382 -0.3895
vn -0.9212 -0.0604 -0.3845
vt 0.019399 0.000000
vt 0.029897 1.000000
vt 0.019399 1.000000
vt 0.029897 0.000000
vt 0.038797 1.000000
vt 0.121665 0.000000
vt 0.131048 1.000000
vt 0.121665 1.000000
vt 0.131048 0.000000
vt 0.141688 1.000000
vt 0.141688 0.000000
vt 0.151966 1.000000
vt 0.151966 0.000000
vt 0.160315 1.000000
vt 0.060832 0.000000
vt 0.069733 1.000000
vt 0.060832 1.000000
vt 0.069733 0.000000
vt 0.080231 1.000000
vt 0.080231 0.000000
vt 0.090730 1.000000
vt 0.090730 0.000000
vt 0.099630 1.000000
vt 0.182351 0.000000
vt 0.190700 1.000000
vt 0.182351 1.000000
vt 0.190700 0.000000
vt 0.200978 1.000000
vt 0.200978 0.000000
vt 0.211618 1.000000
vt 0.210649 0.000000
vt 0.220032 1.000000
vt 0.210649 1.000000
vt 0.002461 0.000000
vt 0.011361 1.000000
vt 0.002461 1.000000
vt 0.008900 0.000000
vt 0.008900 1.000000
vt 0.743775 0.895886
vt 0.751324 0.860655
vt 0.789276 0.867701
vt 0.907356 0.892282
vt 0.931451 0.882034
vt 0.931451 0.892282
vt 0.907356 0.882034
vt 0.931451 0.873346
vt 0.975905 0.474401
vt 1.000000 0.465242
vt 1.000000 0.474401
vt 0.975905 0.465242
vt 1.000000 0.454856
vt 0.975905 0.454856
vt 1.000000 0.444824
vt 0.975905 0.444824
vt 1.000000 0.436673
vt 0.579484 0.922862
vt 0.603579 0.914174
vt 0.603579 0.922862
vt 0.579484 0.914174
vt 0.603579 0.903926
vt 0.579484 0.903926
vt 0.603579 0.893679
vt 0.579484 0.893679
vt 0.603579 0.884991
vt 0.975905 0.532538
vt 1.000000 0.524387
vt 1.000000 0.532538
vt 0.975905 0.524387
vt 1.000000 0.514355
vt 0.975905 0.514355
vt 1.000000 0.503969
vt 0.975905 0.503969
vt 1.000000 0.494810
vt 0.907356 0.911218
vt 0.931451 0.902530
vt 0.931451 0.911218
vt 0.907356 0.902530
vt 0.663711 0.866283
vt 0.671667 0.829151
vt 0.711667 0.836577
vt 0.711745 0.763601
vt 0.716058 0.773253
vt 0.687464 0.778439
vt 0.663717 0.763622
vt 0.671686 0.756230
vt 0.682097 0.804754
vt 0.671686 0.800760
vt 0.682097 0.752227
vt 0.693366 0.752223
vt 0.663717 0.793376
vt 0.659405 0.783724
vt 0.711745 0.793356
vt 0.703777 0.800747
vt 0.703777 0.756217
vt 0.659405 0.773276
vt 0.716058 0.783701
vt 0.693366 0.804750
vt 0.269117 0.430415
vt 0.243925 0.017903
vt 0.548667 0.003236
vt 0.660069 0.467903
vt 0.666683 0.714735
vt 0.660069 0.714735
vt 0.931081 0.835858
vt 0.924449 0.453753
vt 0.931081 0.453753
vt 0.630092 0.467903
vt 0.636706 0.714735
vt 0.630092 0.714735
vt 0.691522 0.719219
vt 0.689328 0.713353
vt 0.691595 0.713353
vt 0.924449 0.017080
vt 0.931136 0.010828
vt 0.931070 0.017080
vt 0.924515 0.010828
vt 0.931328 0.005003
vt 0.924707 0.005003
vt 0.931634 0.000000
vt 0.630756 0.731815
vt 0.637010 0.726812
vt 0.637370 0.731815
vt 0.630396 0.726812
vt 0.636783 0.720986
vt 0.630169 0.720986
vt 0.924492 0.842110
vt 0.924449 0.835858
vt 0.931124 0.842110
vt 0.924619 0.847936
vt 0.931250 0.847936
vt 0.924819 0.852938
vt 0.637370 0.450823
vt 0.630396 0.455825
vt 0.630756 0.450823
vt 0.637010 0.455825
vt 0.630169 0.461651
vt 0.636783 0.461651
vt 0.931070 0.399185
vt 0.924515 0.405437
vt 0.924449 0.399185
vt 0.931136 0.405437
vt 0.924707 0.411262
vt 0.931328 0.411262
vt 0.925013 0.416265
vt 0.659405 0.731815
vt 0.666379 0.726812
vt 0.666019 0.731815
vt 0.659765 0.726812
vt 0.666605 0.720986
vt 0.659992 0.720986
vt 0.931124 0.447502
vt 0.924492 0.447502
vt 0.931250 0.441676
vt 0.924619 0.441676
vt 0.931450 0.436673
vt 0.666019 0.450823
vt 0.659765 0.455825
vt 0.659405 0.450823
vt 0.666379 0.455825
vt 0.659992 0.461651
vt 0.666605 0.461651
vt 0.607491 0.848626
vt 0.605218 0.466779
vt 0.607491 0.466779
vt 0.607150 0.864429
vt 0.605062 0.859838
vt 0.607334 0.859838
vt 0.715058 0.724565
vt 0.717654 0.729155
vt 0.715388 0.729155
vt 0.714850 0.719219
vt 0.717324 0.724565
vt 0.714850 0.460913
vt 0.717044 0.466779
vt 0.714777 0.466779
vt 0.717044 0.713353
vt 0.714777 0.713353
vt 0.582271 0.848626
vt 0.580003 0.466779
vt 0.582271 0.466779
vt 0.582210 0.460913
vt 0.579765 0.455567
vt 0.582033 0.455567
vt 0.585940 0.412187
vt 0.587237 0.418337
vt 0.584632 0.412512
vt 0.579484 0.450977
vt 0.581753 0.450977
vt 0.715388 0.450977
vt 0.717324 0.455567
vt 0.715058 0.455567
vt 0.579941 0.460913
vt 0.691315 0.724565
vt 0.689256 0.719219
vt 0.582210 0.854492
vt 0.580003 0.848626
vt 0.607450 0.460913
vt 0.605062 0.455567
vt 0.607334 0.455567
vt 0.604878 0.450977
vt 0.607150 0.450977
vt 0.690984 0.729155
vt 0.689048 0.724565
vt 0.689328 0.466779
vt 0.691595 0.466779
vt 0.689256 0.460913
vt 0.691522 0.460913
vt 0.581753 0.864429
vt 0.579765 0.859838
vt 0.582033 0.859838
vt 0.691315 0.455567
vt 0.688718 0.450977
vt 0.690984 0.450977
vt 0.689048 0.455567
vt 0.579941 0.854492
vt 0.900217 0.412187
vt 0.902414 0.406260
vt 0.901525 0.412512
vt 0.605178 0.854492
vt 0.607450 0.854492
vt 0.717116 0.460913
vt 0.882733 0.002035
vt 0.876334 0.000000
vt 0.883084 0.000823
vt 0.267127 0.877293
vt 0.243870 0.467269
vt 0.545464 0.453809
vt 0.592340 0.007962
vt 0.596783 0.003236
vt 0.597461 0.004323
vt 0.588410 0.417710
vt 0.591382 0.423340
vt 0.603073 0.000823
vt 0.603424 0.002035
vt 0.592340 0.422453
vt 0.596783 0.427178
vt 0.609823 0.000000
vt 0.609911 0.001244
vt 0.597461 0.426092
vt 0.603073 0.429592
vt 0.717116 0.719219
vt 0.603424 0.428379
vt 0.609823 0.430415
vt 0.876246 0.429170
vt 0.609911 0.429170
vt 0.900217 0.018228
vt 0.902414 0.024155
vt 0.901071 0.024236
vt 0.585086 0.406178
vt 0.583743 0.024155
vt 0.585086 0.024236
vt 0.898920 0.012077
vt 0.901525 0.017903
vt 0.901071 0.406178
vt 0.605178 0.460913
vt 0.893817 0.007962
vt 0.897747 0.012705
vt 0.898920 0.418337
vt 0.897747 0.417710
vt 0.888696 0.004323
vt 0.894775 0.007075
vt 0.894775 0.423340
vt 0.893817 0.422452
vt 0.889374 0.003236
vt 0.889374 0.427178
vt 0.888696 0.426092
vt 0.876246 0.001244
vt 0.882733 0.428379
vt 0.883084 0.429592
vt 0.585940 0.018228
vt 0.584632 0.017903
vt 0.876334 0.430415
vt 0.587237 0.012077
vt 0.588410 0.012705
vt 0.583743 0.406260
vt 0.591382 0.007075
vt 0.608057 0.848640
vt 0.608016 0.854548
vt 0.899678 0.412053
vt 0.607899 0.859947
vt 0.897264 0.417451
vt 0.607713 0.864583
vt 0.893423 0.422087
vt 0.714486 0.724674
vt 0.888418 0.425644
vt 0.714276 0.719275
vt 0.882589 0.427880
vt 0.714204 0.713367
vt 0.876209 0.428656
vt 0.582843 0.466765
vt 0.586479 0.412053
vt 0.585641 0.406145
vt 0.582781 0.460857
vt 0.588894 0.417451
vt 0.582603 0.455459
vt 0.592734 0.422087
vt 0.714820 0.450823
vt 0.597740 0.425644
vt 0.714276 0.460857
vt 0.714486 0.455458
vt 0.603568 0.427880
vt 0.714204 0.466765
vt 0.608057 0.466765
vt 0.899678 0.018362
vt 0.900516 0.024270
vt 0.608016 0.460857
vt 0.897264 0.012963
vt 0.607713 0.450823
vt 0.607899 0.455458
vt 0.893423 0.008327
vt 0.691552 0.729309
vt 0.691886 0.724674
vt 0.882589 0.002534
vt 0.888418 0.004770
vt 0.692168 0.713367
vt 0.692096 0.719275
vt 0.582842 0.848640
vt 0.582781 0.854548
vt 0.586479 0.018362
vt 0.582603 0.859947
vt 0.588893 0.012963
vt 0.582319 0.864583
vt 0.592734 0.008327
vt 0.691886 0.455458
vt 0.597739 0.004770
vt 0.692096 0.460857
vt 0.603568 0.002534
vt 0.692168 0.466765
vt 0.609948 0.001758
vt 0.900516 0.406145
vt 0.609948 0.428656
vt 0.585641 0.024270
vt 0.876209 0.001758
vt 0.605218 0.848626
vt 0.752777 0.633439
vt 0.739690 0.450823
vt 0.752777 0.450823
vt 0.790064 0.653847
vt 0.790448 0.836463
vt 0.790064 0.836463
vt 0.631410 0.817281
vt 0.630092 0.829402
vt 0.630092 0.817281
vt 0.630092 0.764344
vt 0.631410 0.752223
vt 0.631410 0.764344
vt 0.880125 0.836463
vt 0.879741 0.653847
vt 0.880125 0.653847
vt 0.840922 0.633439
vt 0.836446 0.450823
vt 0.840922 0.450823
vt 0.976289 0.606167
vt 0.975905 0.602032
vt 0.976289 0.602032
vt 0.976289 0.630710
vt 0.975905 0.626575
vt 0.976289 0.626575
vt 0.953870 0.619289
vt 0.953486 0.436673
vt 0.953870 0.436673
vt 0.867427 0.633439
vt 0.862957 0.450823
vt 0.867427 0.450823
vt 0.883347 0.856871
vt 0.883731 0.861006
vt 0.883347 0.861006
vt 0.812484 0.653847
vt 0.812868 0.836463
vt 0.812484 0.836463
vt 0.883347 0.881414
vt 0.883731 0.885549
vt 0.883347 0.885549
vt 0.461477 0.901002
vt 0.458209 0.904302
vt 0.458057 0.901002
vt 0.975905 0.704015
vt 0.979321 0.700204
vt 0.979321 0.704015
vt 0.534878 0.904302
vt 0.538402 0.901002
vt 0.538303 0.904302
vt 0.534977 0.901002
vt 0.538303 0.897701
vt 0.377688 0.905324
vt 0.374125 0.899607
vt 0.381252 0.899607
vt 0.979321 0.724424
vt 0.975905 0.728235
vt 0.975905 0.724424
vt 0.461629 0.897701
vt 0.458209 0.897701
vt 0.512690 0.901002
vt 0.509422 0.904302
vt 0.509271 0.901002
vt 0.975905 0.752454
vt 0.979321 0.748643
vt 0.979321 0.752454
vt 0.659405 0.904706
vt 0.662930 0.901406
vt 0.662830 0.904706
vt 0.659505 0.901406
vt 0.662830 0.898105
vt 0.406851 0.905324
vt 0.403287 0.899607
vt 0.410415 0.899607
vt 0.979321 0.772862
vt 0.975905 0.776674
vt 0.975905 0.772862
vt 0.512842 0.897701
vt 0.509422 0.897701
vt 0.310987 0.908932
vt 0.322927 0.897701
vt 0.322927 0.908932
vt 0.243036 0.908932
vt 0.254976 0.897701
vt 0.254976 0.908932
vt 0.965609 0.232193
vt 0.953669 0.247740
vt 0.953669 0.232193
vt 0.827337 0.862995
vt 0.815397 0.868092
vt 0.815397 0.862995
vt 0.827337 0.873190
vt 0.815397 0.878287
vt 0.815397 0.873190
vt 0.827337 0.883384
vt 0.815397 0.888481
vt 0.815397 0.883384
vt 0.827337 0.893578
vt 0.815397 0.899702
vt 0.815397 0.893578
vt 0.953669 0.362441
vt 0.965609 0.333272
vt 0.965609 0.362441
vt 0.965609 0.203024
vt 0.953669 0.203024
vt 0.815397 0.856871
vt 0.827337 0.868092
vt 0.827337 0.878287
vt 0.827337 0.888481
vt 0.953669 0.377988
vt 0.965609 0.377988
vt 0.787899 0.633439
vt 0.774812 0.450823
vt 0.787899 0.450823
vt 0.834903 0.653847
vt 0.835287 0.836463
vt 0.834903 0.836463
vt 0.631410 0.849810
vt 0.630092 0.861931
vt 0.630092 0.849810
vt 0.630092 0.796873
vt 0.631410 0.784752
vt 0.631410 0.796873
vt 0.953870 0.822313
vt 0.953486 0.639697
vt 0.953870 0.639697
vt 0.814411 0.633439
vt 0.809934 0.450823
vt 0.814411 0.450823
vt 0.976289 0.655253
vt 0.975905 0.651118
vt 0.976289 0.651118
vt 0.976289 0.679796
vt 0.975905 0.675661
vt 0.976289 0.675661
vt 0.954053 0.182616
vt 0.953669 0.000000
vt 0.954053 0.000000
vt 0.893931 0.633439
vt 0.889462 0.450823
vt 0.893931 0.450823
vt 0.975905 0.552946
vt 0.976289 0.557081
vt 0.975905 0.557081
vt 0.857322 0.653847
vt 0.857706 0.836463
vt 0.857322 0.836463
vt 0.975905 0.577489
vt 0.976289 0.581624
vt 0.975905 0.581624
vt 0.435870 0.901002
vt 0.432602 0.904302
vt 0.432450 0.901002
vt 0.975905 0.822313
vt 0.979321 0.818502
vt 0.979321 0.822313
vt 0.712448 0.904706
vt 0.715973 0.901406
vt 0.715873 0.904706
vt 0.712548 0.901406
vt 0.715873 0.898105
vt 0.633656 0.889961
vt 0.630092 0.884245
vt 0.637219 0.884245
vt 0.979505 0.000000
vt 0.976088 0.003811
vt 0.976088 0.000000
vt 0.436022 0.897701
vt 0.432602 0.897701
vt 0.487084 0.901002
vt 0.483816 0.904302
vt 0.483664 0.901002
vt 0.976088 0.028031
vt 0.979505 0.024219
vt 0.979505 0.028031
vt 0.684965 0.904706
vt 0.688490 0.901406
vt 0.688390 0.904706
vt 0.685065 0.901406
vt 0.688390 0.898105
vt 0.344962 0.903418
vt 0.348526 0.897701
vt 0.352089 0.903418
vt 0.979505 0.048439
vt 0.976088 0.052250
vt 0.976088 0.048439
vt 0.487235 0.897701
vt 0.483816 0.897701
vt 0.277012 0.908932
vt 0.288952 0.897701
vt 0.288952 0.908932
vt 0.953669 0.409628
vt 0.965609 0.398396
vt 0.965609 0.409628
vt 0.965426 0.858269
vt 0.953486 0.842721
vt 0.965426 0.842721
vt 0.861312 0.862995
vt 0.849372 0.868092
vt 0.849372 0.862995
vt 0.861312 0.873190
vt 0.849372 0.878287
vt 0.849372 0.873190
vt 0.861312 0.883384
vt 0.849372 0.888481
vt 0.849372 0.883384
vt 0.861312 0.893578
vt 0.849372 0.899702
vt 0.849372 0.893578
vt 0.953669 0.297317
vt 0.965609 0.268148
vt 0.965609 0.297317
vt 0.953486 0.887437
vt 0.965426 0.887437
vt 0.849372 0.856871
vt 0.861312 0.868092
vt 0.861312 0.878287
vt 0.861312 0.888481
vt 0.953669 0.312864
vt 0.965609 0.312864
vt 0.764880 0.653847
vt 0.768029 0.836463
vt 0.764879 0.836463
vt 0.739690 0.836463
vt 0.742844 0.653847
vt 0.742844 0.836463
vt 0.038797 0.000000
vt 0.160315 0.000000
vt 0.099630 0.000000
vt 0.211618 0.000000
vt 0.220032 0.000000
vt 0.011361 0.000000
vt 0.793362 0.876863
vt 0.793362 0.886776
vt 0.789276 0.895930
vt 0.781727 0.902932
vt 0.771864 0.906716
vt 0.761188 0.906706
vt 0.751324 0.902903
vt 0.739690 0.886724
vt 0.739690 0.876811
vt 0.743775 0.867657
vt 0.761188 0.856871
vt 0.771864 0.856881
vt 0.781727 0.860684
vt 0.907356 0.873346
vt 0.975905 0.436673
vt 0.579484 0.884991
vt 0.975905 0.494810
vt 0.715973 0.846233
vt 0.715973 0.856681
vt 0.711667 0.866329
vt 0.703711 0.873709
vt 0.693315 0.877697
vt 0.682063 0.877686
vt 0.671667 0.873678
vt 0.659405 0.856626
vt 0.659405 0.846179
vt 0.663711 0.836531
vt 0.682063 0.825163
vt 0.693315 0.825173
vt 0.703711 0.829182
vt 0.561708 0.024155
vt 0.561708 0.406260
vt 0.560819 0.412512
vt 0.558213 0.418337
vt 0.554069 0.423340
vt 0.548667 0.427178
vt 0.542377 0.429592
vt 0.535627 0.430415
vt 0.262367 0.429592
vt 0.256077 0.427178
vt 0.250675 0.423340
vt 0.246530 0.418337
vt 0.243925 0.412512
vt 0.243036 0.406260
vt 0.243036 0.024155
vt 0.246530 0.012077
vt 0.250675 0.007075
vt 0.256077 0.003236
vt 0.262367 0.000823
vt 0.269117 0.000000
vt 0.535627 0.000000
vt 0.542377 0.000823
vt 0.554069 0.007075
vt 0.558213 0.012077
vt 0.560819 0.017903
vt 0.666683 0.467903
vt 0.636706 0.467903
vt 0.925013 0.000000
vt 0.931450 0.852938
vt 0.931634 0.416265
vt 0.924819 0.436673
vt 0.604878 0.864429
vt 0.717654 0.450977
vt 0.688718 0.729155
vt 0.579484 0.864429
vt 0.557449 0.473135
vt 0.557449 0.854981
vt 0.556615 0.860847
vt 0.554224 0.866193
vt 0.550421 0.870784
vt 0.545464 0.874306
vt 0.539692 0.876521
vt 0.533358 0.877293
vt 0.260793 0.876521
vt 0.255021 0.874306
vt 0.250065 0.870784
vt 0.246261 0.866193
vt 0.243870 0.860847
vt 0.243036 0.854981
vt 0.243036 0.473135
vt 0.246261 0.461923
vt 0.250064 0.457332
vt 0.255021 0.453809
vt 0.260793 0.451595
vt 0.267127 0.450823
vt 0.533358 0.450823
vt 0.539692 0.451595
vt 0.550421 0.457332
vt 0.554224 0.461923
vt 0.556615 0.467269
vt 0.714820 0.729309
vt 0.582319 0.450823
vt 0.691552 0.450823
vt 0.739690 0.633439
vt 0.790448 0.653847
vt 0.631410 0.829402
vt 0.630092 0.752223
vt 0.879741 0.836463
vt 0.836446 0.633439
vt 0.975905 0.606167
vt 0.975905 0.630710
vt 0.953486 0.619289
vt 0.862957 0.633439
vt 0.883731 0.856871
vt 0.812868 0.653847
vt 0.883731 0.881414
vt 0.461629 0.904302
vt 0.975905 0.700204
vt 0.534878 0.897701
vt 0.381252 0.903418
vt 0.374125 0.903418
vt 0.377688 0.897701
vt 0.979321 0.728235
vt 0.512842 0.904302
vt 0.975905 0.748643
vt 0.659405 0.898105
vt 0.410415 0.903418
vt 0.403287 0.903418
vt 0.406851 0.897701
vt 0.979321 0.776674
vt 0.310987 0.897701
vt 0.243036 0.897701
vt 0.965609 0.247740
vt 0.827337 0.899702
vt 0.953669 0.333272
vt 0.827337 0.856871
vt 0.774812 0.633439
vt 0.835287 0.653847
vt 0.631410 0.861931
vt 0.630092 0.784752
vt 0.953486 0.822313
vt 0.809934 0.633439
vt 0.975905 0.655253
vt 0.975905 0.679796
vt 0.953669 0.182616
vt 0.889462 0.633439
vt 0.976289 0.552946
vt 0.857706 0.653847
vt 0.976289 0.577489
vt 0.436022 0.904302
vt 0.975905 0.818502
vt 0.712448 0.898105
vt 0.637219 0.888056
vt 0.630092 0.888056
vt 0.633656 0.882339
vt 0.979505 0.003811
vt 0.487235 0.904302
vt 0.976088 0.024219
vt 0.684965 0.898105
vt 0.348526 0.905324
vt 0.344962 0.899607
vt 0.352089 0.899607
vt 0.979505 0.052250
vt 0.277012 0.897701
vt 0.953669 0.398396
vt 0.953486 0.858269
vt 0.861312 0.899702
vt 0.953669 0.268148
vt 0.861312 0.856871
vt 0.768029 0.653847
vt 0.739690 0.653847
s 1
usemtl Material.005
f 2/1/2 383/2/3 382/3/2
f 4/4/3 384/5/4 383/2/3
f 6/6/4 385/7/5 384/8/4
f 8/9/5 386/10/6 385/7/5
f 10/11/6 387/12/7 386/10/6
f 12/13/7 388/14/8 387/12/7
f 14/15/8 389/16/9 388/17/8
f 16/18/9 390/19/10 389/16/9
f 18/20/10 391/21/11 390/19/10
f 20/22/11 392/23/12 391/21/11
f 22/24/12 393/25/13 392/26/12
f 24/27/13 394/28/14 393/25/13
f 26/29/14 395/30/15 394/28/14
f 28/31/15 396/32/16 395/33/15
f 30/34/16 397/35/17 396/36/16
f 32/37/17 382/3/2 397/38/17
f 15/39/1 23/40/1 31/41/1
f 401/42/2 399/43/3 398/44/2
f 400/45/3 402/46/4 399/43/3
f 403/47/4 404/48/5 402/49/4
f 405/50/5 406/51/6 404/48/5
f 407/52/6 408/53/7 406/51/6
f 409/54/7 410/55/8 408/53/7
f 411/56/8 412/57/9 410/58/8
f 413/59/9 414/60/10 412/57/9
f 415/61/10 416/62/11 414/60/10
f 417/63/11 418/64/12 416/62/11
f 419/65/12 420/66/13 418/67/12
f 421/68/13 422/69/14 420/66/13
f 423/70/14 424/71/15 422/69/14
f 425/72/15 426/73/16 424/71/15
f 427/74/16 428/75/17 426/76/16
f 429/77/17 398/44/2 428/75/17
f 47/78/1 55/79/1 63/80/1
f 38/81/20 36/82/19 65/83/34
f 48/84/25 46/85/24 65/83/34
f 58/86/30 56/87/29 65/83/34
f 44/88/23 42/89/22 65/83/34
f 54/90/28 52/91/27 65/83/34
f 64/92/33 62/93/32 65/83/34
f 40/94/21 38/81/20 65/83/34
f 50/95/26 48/84/25 65/83/34
f 36/82/19 34/96/18 65/83/34
f 60/97/31 58/86/30 65/83/34
f 46/85/24 44/88/23 65/83/34
f 56/87/29 54/90/28 65/83/34
f 34/96/18 64/92/33 65/83/34
f 42/89/22 40/94/21 65/83/34
f 52/91/27 50/95/26 65/83/34
f 62/93/32 60/97/31 65/83/34
f 485/98/10 444/99/10 439/100/10
f 484/101/55 81/102/49 471/103/49
f 446/104/41 474/105/61 473/106/61
f 74/107/42 442/108/35 66/109/35
f 198/110/110 506/111/42 192/112/104
f 432/113/160 430/114/40 431/115/160
f 72/116/40 434/117/39 430/114/40
f 71/118/39 436/119/38 434/117/39
f 70/120/38 438/121/37 436/122/38
f 69/123/37 440/124/36 438/121/37
f 68/125/36 442/108/35 440/124/36
f 446/104/41 75/126/43 73/127/41
f 447/128/43 76/129/44 75/126/43
f 449/130/44 77/131/45 76/129/44
f 451/132/45 78/133/46 77/134/45
f 453/135/46 79/136/47 78/133/46
f 455/137/47 74/107/42 79/136/47
f 460/138/48 82/139/50 80/140/48
f 461/141/50 83/142/51 82/139/50
f 463/143/51 84/144/52 83/142/51
f 465/145/52 85/146/53 84/147/52
f 467/148/53 86/149/54 85/146/53
f 469/150/54 81/102/49 86/149/54
f 474/105/61 472/151/60 473/106/61
f 93/152/60 476/153/59 472/151/60
f 92/154/59 478/155/58 476/153/59
f 91/156/58 480/157/57 478/158/58
f 90/159/57 482/160/56 480/157/57
f 89/161/56 484/101/55 482/160/56
f 460/138/48 432/113/160 431/115/160
f 150/162/62 136/163/41 196/164/108
f 163/165/75 488/166/59 160/167/72
f 166/168/78 489/169/58 163/170/75
f 169/171/81 490/172/57 166/168/78
f 177/173/89 499/174/49 171/175/83
f 171/175/83 128/176/55 154/177/66
f 213/178/125 493/179/48 175/180/87
f 189/181/101 495/182/51 186/183/98
f 190/184/102 103/185/2 102/186/2
f 186/183/98 496/187/52 183/188/95
f 183/189/95 497/190/53 180/191/92
f 175/180/87 494/192/50 189/181/101
f 201/193/113 505/194/47 198/110/110
f 220/195/132 508/196/160 213/178/125
f 210/197/122 502/198/44 207/199/119
f 207/199/119 503/200/45 204/201/116
f 204/202/116 504/203/46 201/193/113
f 192/112/104 513/204/35 217/205/129
f 217/205/129 512/206/36 232/207/144
f 226/208/138 509/209/39 223/210/135
f 229/211/141 510/212/38 226/213/138
f 232/207/144 511/214/37 229/211/141
f 223/210/135 507/215/40 220/195/132
f 156/216/68 95/217/2 94/218/2
f 160/167/72 122/219/60 157/220/69
f 180/191/92 498/221/54 177/173/89
f 199/222/111 114/223/2 113/224/2
f 135/225/2 143/226/2 140/227/2
f 225/228/137 119/229/2 228/230/140
f 187/231/99 104/232/2 103/185/2
f 228/230/140 120/233/2 231/234/143
f 184/235/96 105/236/2 104/232/2
f 231/234/143 121/237/2 216/238/128
f 181/239/93 106/240/2 105/236/2
f 154/177/66 491/241/56 169/171/81
f 178/242/90 107/243/2 106/240/2
f 153/244/65 107/243/2 172/245/84
f 211/246/123 108/247/2 195/248/107
f 174/249/86 116/250/2 214/251/126
f 211/246/123 110/252/2 109/253/2
f 195/248/107 95/217/2 151/254/63
f 196/164/108 137/255/43 210/197/122
f 205/256/117 110/252/2 208/257/120
f 156/216/68 96/258/2 159/259/71
f 202/260/114 111/261/2 205/256/117
f 159/259/71 97/262/2 162/263/74
f 199/222/111 112/264/2 202/260/114
f 162/263/74 98/265/2 165/266/77
f 216/238/128 114/223/2 193/267/105
f 168/268/80 98/265/2 99/269/2
f 219/270/131 116/250/2 115/271/2
f 168/268/80 100/272/2 153/244/65
f 219/270/131 117/273/2 222/274/134
f 190/184/102 101/275/2 174/249/86
f 222/274/134 118/276/2 225/228/137
f 157/220/69 514/277/161 515/278/162
f 158/279/70 151/254/63 156/216/68
f 160/167/72 515/278/162 516/280/163
f 158/279/70 159/259/71 161/281/73
f 160/167/72 517/282/164 163/165/75
f 164/283/76 159/259/71 162/263/74
f 163/170/75 518/284/165 166/168/78
f 164/283/76 165/266/77 167/285/79
f 166/168/78 519/286/166 169/171/81
f 170/287/82 165/266/77 168/268/80
f 169/171/81 520/288/167 154/177/66
f 170/287/82 153/244/65 155/289/67
f 189/181/101 522/290/169 175/180/87
f 191/291/103 174/249/86 176/292/88
f 186/183/98 521/293/168 189/181/101
f 188/294/100 190/184/102 191/291/103
f 183/188/95 523/295/170 186/183/98
f 185/296/97 187/231/99 188/294/100
f 180/191/92 524/297/171 183/189/95
f 182/298/94 184/235/96 185/296/97
f 180/191/92 526/299/173 525/300/172
f 179/301/91 181/239/93 182/298/94
f 177/173/89 527/302/174 526/299/173
f 179/301/91 172/245/84 178/242/90
f 210/197/122 529/303/176 196/164/108
f 212/304/124 195/248/107 197/305/109
f 207/199/119 528/306/175 210/197/122
f 209/307/121 211/246/123 212/304/124
f 207/199/119 531/308/178 530/309/177
f 206/310/118 208/257/120 209/307/121
f 201/193/113 531/311/178 204/202/116
f 206/310/118 202/260/114 205/256/117
f 198/110/110 532/312/179 201/193/113
f 200/313/112 202/260/114 203/314/115
f 198/110/110 534/315/181 533/316/180
f 200/313/112 193/267/105 199/222/111
f 220/195/132 535/317/182 536/318/183
f 221/319/133 214/251/126 219/270/131
f 220/195/132 537/320/184 223/210/135
f 224/321/136 219/270/131 222/274/134
f 223/210/135 538/322/185 226/208/138
f 227/323/139 222/274/134 225/228/137
f 226/213/138 539/324/186 229/211/141
f 227/323/139 228/230/140 230/325/142
f 229/211/141 540/326/187 232/207/144
f 233/327/145 228/230/140 231/234/143
f 232/207/144 541/328/188 217/205/129
f 233/327/145 216/238/128 218/329/130
f 196/164/108 514/277/161 150/162/62
f 197/305/109 151/254/63 152/330/64
f 154/177/66 527/302/174 171/175/83
f 155/289/67 172/245/84 173/331/85
f 175/180/87 535/317/182 213/178/125
f 176/292/88 214/251/126 215/332/127
f 216/238/128 194/333/106 218/329/130
f 534/315/181 217/205/129 541/328/188
f 157/220/69 123/334/61 150/162/62
f 550/335/2 546/336/2 548/337/2
f 575/338/10 573/339/10 237/340/10
f 625/341/6 549/342/6 547/343/6
f 234/344/14 553/345/14 551/346/14
f 563/347/2 556/348/2 623/349/2
f 555/350/34 560/351/34 557/352/34
f 622/353/6 561/354/6 624/355/6
f 564/356/14 246/357/14 562/358/14
f 243/359/10 248/360/10 565/361/10
f 570/362/1 568/363/1 566/364/1
f 577/365/6 571/366/6 543/367/6
f 542/368/2 567/369/2 545/370/2
f 544/371/14 251/372/14 574/373/14
f 580/374/51 583/375/51 582/376/51
f 579/377/6 586/378/6 256/379/6
f 585/380/59 589/381/59 258/382/59
f 588/383/44 592/384/44 260/381/44
f 581/385/2 591/386/2 259/387/2
f 263/388/14 595/389/14 262/390/14
f 265/391/39 254/376/39 264/392/39
f 598/393/51 601/394/51 600/395/51
f 597/396/6 604/397/6 268/398/6
f 603/399/59 607/400/59 270/401/59
f 606/402/44 610/403/44 272/400/44
f 599/404/2 609/405/2 271/406/2
f 275/407/14 613/408/14 274/409/14
f 277/410/39 266/395/39 276/411/39
f 621/412/2 279/413/2 620/414/2
f 280/415/2 614/416/2 278/417/2
f 297/418/154 616/419/153 296/420/154
f 299/421/155 284/422/148 298/423/155
f 301/424/156 285/425/2 300/426/156
f 303/427/157 286/428/149 302/429/157
f 305/430/158 618/431/152 304/432/158
f 307/433/159 288/434/151 306/435/159
f 295/436/146 296/420/154 282/437/146
f 283/438/147 299/421/155 298/423/155
f 293/439/148 300/426/156 284/422/148
f 292/440/2 302/429/157 285/425/2
f 291/441/149 304/432/158 286/428/149
f 619/442/150 306/435/159 287/443/150
f 628/444/2 626/445/2 627/446/2
f 650/447/10 648/448/10 311/449/10
f 701/450/6 314/451/6 315/452/6
f 308/453/14 313/454/14 312/455/14
f 319/456/2 632/457/2 316/458/2
f 631/459/34 636/460/34 633/461/34
f 699/462/6 637/463/6 700/464/6
f 639/465/14 320/466/14 638/467/14
f 317/468/10 322/469/10 640/470/10
f 645/471/1 643/472/1 641/473/1
f 652/474/6 646/475/6 310/476/6
f 653/477/2 642/478/2 309/479/2
f 654/480/14 325/481/14 649/482/14
f 657/483/51 660/484/51 659/485/51
f 656/486/6 663/487/6 330/488/6
f 662/489/59 666/490/59 332/491/59
f 665/492/44 669/493/44 334/490/44
f 658/494/2 668/495/2 333/496/2
f 337/497/14 672/498/14 336/499/14
f 339/500/39 328/485/39 338/501/39
f 675/502/51 678/503/51 677/504/51
f 674/505/6 681/506/6 342/507/6
f 680/508/59 684/509/59 344/510/59
f 683/511/44 687/512/44 346/509/44
f 676/513/2 686/514/2 345/515/2
f 349/516/14 690/517/14 348/518/14
f 351/519/39 340/504/39 350/520/39
f 698/521/2 353/522/2 697/523/2
f 354/524/2 691/525/2 352/526/2
f 370/527/154 368/528/153 693/529/153
f 373/530/155 358/531/148 372/532/155
f 375/533/156 359/534/2 374/535/156
f 377/536/157 360/537/149 376/538/157
f 379/539/158 695/540/152 378/541/158
f 381/542/159 362/543/151 380/544/159
f 369/545/146 370/527/154 356/546/146
f 357/547/147 373/530/155 372/532/155
f 367/548/148 374/535/156 358/531/148
f 366/549/2 376/538/157 359/534/2
f 365/550/149 378/541/158 360/537/149
f 696/551/150 380/544/159 361/552/150
f 239/553/1 242/554/1 241/555/1
f 238/556/34 236/557/34 235/558/34
f 2/1/2 4/4/3 383/2/3
f 4/4/3 6/559/4 384/5/4
f 6/6/4 8/9/5 385/7/5
f 8/9/5 10/11/6 386/10/6
f 10/11/6 12/13/7 387/12/7
f 12/13/7 14/560/8 388/14/8
f 14/15/8 16/18/9 389/16/9
f 16/18/9 18/20/10 390/19/10
f 18/20/10 20/22/11 391/21/11
f 20/22/11 22/561/12 392/23/12
f 22/24/12 24/27/13 393/25/13
f 24/27/13 26/29/14 394/28/14
f 26/29/14 28/562/15 395/30/15
f 28/31/15 30/563/16 396/32/16
f 30/34/16 32/564/17 397/35/17
f 32/37/17 2/1/2 382/3/2
f 31/41/1 1/565/1 3/566/1
f 3/566/1 5/567/1 7/568/1
f 7/568/1 9/569/1 11/570/1
f 11/570/1 13/571/1 15/39/1
f 15/39/1 17/572/1 19/573/1
f 19/573/1 21/574/1 23/40/1
f 23/40/1 25/575/1 27/576/1
f 27/576/1 29/577/1 31/41/1
f 31/41/1 3/566/1 7/568/1
f 7/568/1 11/570/1 15/39/1
f 15/39/1 19/573/1 23/40/1
f 23/40/1 27/576/1 31/41/1
f 31/41/1 7/568/1 15/39/1
f 401/42/2 400/45/3 399/43/3
f 400/45/3 403/578/4 402/46/4
f 403/47/4 405/50/5 404/48/5
f 405/50/5 407/52/6 406/51/6
f 407/52/6 409/54/7 408/53/7
f 409/54/7 411/579/8 410/55/8
f 411/56/8 413/59/9 412/57/9
f 413/59/9 415/61/10 414/60/10
f 415/61/10 417/63/11 416/62/11
f 417/63/11 419/580/12 418/64/12
f 419/65/12 421/68/13 420/66/13
f 421/68/13 423/70/14 422/69/14
f 423/70/14 425/72/15 424/71/15
f 425/72/15 427/581/16 426/73/16
f 427/74/16 429/77/17 428/75/17
f 429/77/17 401/42/2 398/44/2
f 63/80/1 33/582/1 35/583/1
f 35/583/1 37/584/1 39/585/1
f 39/585/1 41/586/1 43/587/1
f 43/587/1 45/588/1 47/78/1
f 47/78/1 49/589/1 51/590/1
f 51/590/1 53/591/1 55/79/1
f 55/79/1 57/592/1 59/593/1
f 59/593/1 61/594/1 63/80/1
f 63/80/1 35/583/1 39/585/1
f 39/585/1 43/587/1 47/78/1
f 47/78/1 51/590/1 55/79/1
f 55/79/1 59/593/1 63/80/1
f 63/80/1 39/585/1 47/78/1
f 67/595/10 459/596/10 458/597/10
f 458/597/10 462/598/10 464/599/10
f 464/599/10 466/600/10 468/601/10
f 468/601/10 470/602/10 485/98/10
f 485/98/10 483/603/10 481/604/10
f 481/604/10 479/605/10 477/606/10
f 477/606/10 475/607/10 88/608/10
f 88/608/10 445/609/10 444/99/10
f 444/99/10 448/610/10 450/611/10
f 450/611/10 452/612/10 454/613/10
f 454/613/10 456/614/10 443/615/10
f 443/615/10 441/616/10 439/100/10
f 439/100/10 437/617/10 435/618/10
f 435/618/10 433/619/10 67/595/10
f 67/595/10 458/597/10 464/599/10
f 464/599/10 468/601/10 485/98/10
f 485/98/10 481/604/10 477/606/10
f 477/606/10 88/608/10 444/99/10
f 444/99/10 450/611/10 454/613/10
f 454/613/10 443/615/10 439/100/10
f 439/100/10 435/618/10 67/595/10
f 67/595/10 464/599/10 485/98/10
f 485/98/10 477/606/10 444/99/10
f 444/99/10 454/613/10 439/100/10
f 439/100/10 67/595/10 485/98/10
f 484/101/55 87/620/55 81/102/49
f 446/104/41 73/127/41 474/105/61
f 74/107/42 457/621/42 442/108/35
f 198/110/110 505/194/47 506/111/42
f 432/113/160 72/116/40 430/114/40
f 72/116/40 71/118/39 434/117/39
f 71/118/39 70/622/38 436/119/38
f 70/120/38 69/123/37 438/121/37
f 69/123/37 68/125/36 440/124/36
f 68/125/36 66/109/35 442/108/35
f 446/104/41 447/128/43 75/126/43
f 447/128/43 449/130/44 76/129/44
f 449/130/44 451/623/45 77/131/45
f 451/132/45 453/135/46 78/133/46
f 453/135/46 455/137/47 79/136/47
f 455/137/47 457/621/42 74/107/42
f 460/138/48 461/141/50 82/139/50
f 461/141/50 463/143/51 83/142/51
f 463/143/51 465/624/52 84/144/52
f 465/145/52 467/148/53 85/146/53
f 467/148/53 469/150/54 86/149/54
f 469/150/54 471/103/49 81/102/49
f 474/105/61 93/152/60 472/151/60
f 93/152/60 92/154/59 476/153/59
f 92/154/59 91/625/58 478/155/58
f 91/156/58 90/159/57 480/157/57
f 90/159/57 89/161/56 482/160/56
f 89/161/56 87/620/55 484/101/55
f 460/138/48 80/140/48 432/113/160
f 150/162/62 123/334/61 136/163/41
f 163/165/75 489/626/58 488/166/59
f 166/168/78 490/172/57 489/169/58
f 169/171/81 491/241/56 490/172/57
f 177/173/89 498/221/54 499/174/49
f 171/175/83 499/174/49 128/176/55
f 213/178/125 508/196/160 493/179/48
f 189/181/101 494/192/50 495/182/51
f 190/184/102 187/231/99 103/185/2
f 186/183/98 495/182/51 496/187/52
f 183/189/95 496/627/52 497/190/53
f 175/180/87 493/179/48 494/192/50
f 201/193/113 504/203/46 505/194/47
f 220/195/132 507/215/40 508/196/160
f 210/197/122 137/255/43 502/198/44
f 207/199/119 502/198/44 503/200/45
f 204/202/116 503/628/45 504/203/46
f 192/112/104 506/111/42 513/204/35
f 217/205/129 513/204/35 512/206/36
f 226/208/138 510/629/38 509/209/39
f 229/211/141 511/214/37 510/212/38
f 232/207/144 512/206/36 511/214/37
f 223/210/135 509/209/39 507/215/40
f 156/216/68 151/254/63 95/217/2
f 160/167/72 488/166/59 122/219/60
f 180/191/92 497/190/53 498/221/54
f 199/222/111 193/267/105 114/223/2
f 500/630/2 487/631/2 486/632/2
f 486/632/2 124/633/2 125/634/2
f 125/634/2 126/635/2 127/636/2
f 127/636/2 492/637/2 135/225/2
f 135/225/2 134/638/2 133/639/2
f 133/639/2 132/640/2 131/641/2
f 131/641/2 130/642/2 129/643/2
f 129/643/2 144/644/2 143/226/2
f 143/226/2 145/645/2 146/646/2
f 146/646/2 147/647/2 148/648/2
f 148/648/2 149/649/2 142/650/2
f 142/650/2 141/651/2 140/227/2
f 140/227/2 139/652/2 138/653/2
f 138/653/2 501/654/2 500/630/2
f 500/630/2 486/632/2 125/634/2
f 125/634/2 127/636/2 135/225/2
f 135/225/2 133/639/2 131/641/2
f 131/641/2 129/643/2 143/226/2
f 143/226/2 146/646/2 148/648/2
f 148/648/2 142/650/2 140/227/2
f 140/227/2 138/653/2 500/630/2
f 500/630/2 125/634/2 135/225/2
f 135/225/2 131/641/2 143/226/2
f 143/226/2 148/648/2 140/227/2
f 140/227/2 500/630/2 135/225/2
f 225/228/137 118/276/2 119/229/2
f 187/231/99 184/235/96 104/232/2
f 228/230/140 119/229/2 120/233/2
f 184/235/96 181/239/93 105/236/2
f 231/234/143 120/233/2 121/237/2
f 181/239/93 178/242/90 106/240/2
f 154/177/66 128/176/55 491/241/56
f 178/242/90 172/245/84 107/243/2
f 153/244/65 100/272/2 107/243/2
f 211/246/123 109/253/2 108/247/2
f 174/249/86 101/275/2 116/250/2
f 211/246/123 208/257/120 110/252/2
f 195/248/107 108/247/2 95/217/2
f 196/164/108 136/163/41 137/255/43
f 205/256/117 111/261/2 110/252/2
f 156/216/68 94/218/2 96/258/2
f 202/260/114 112/264/2 111/261/2
f 159/259/71 96/258/2 97/262/2
f 199/222/111 113/224/2 112/264/2
f 162/263/74 97/262/2 98/265/2
f 216/238/128 121/237/2 114/223/2
f 168/268/80 165/266/77 98/265/2
f 219/270/131 214/251/126 116/250/2
f 168/268/80 99/269/2 100/272/2
f 219/270/131 115/271/2 117/273/2
f 190/184/102 102/186/2 101/275/2
f 222/274/134 117/273/2 118/276/2
f 157/220/69 150/162/62 514/277/161
f 158/279/70 152/330/64 151/254/63
f 160/167/72 157/220/69 515/278/162
f 158/279/70 156/216/68 159/259/71
f 160/167/72 516/280/163 517/282/164
f 164/283/76 161/281/73 159/259/71
f 163/170/75 517/655/164 518/284/165
f 164/283/76 162/263/74 165/266/77
f 166/168/78 518/284/165 519/286/166
f 170/287/82 167/285/79 165/266/77
f 169/171/81 519/286/166 520/288/167
f 170/287/82 168/268/80 153/244/65
f 189/181/101 521/293/168 522/290/169
f 191/291/103 190/184/102 174/249/86
f 186/183/98 523/295/170 521/293/168
f 188/294/100 187/231/99 190/184/102
f 183/188/95 524/656/171 523/295/170
f 185/296/97 184/235/96 187/231/99
f 180/191/92 525/300/172 524/297/171
f 182/298/94 181/239/93 184/235/96
f 180/191/92 177/173/89 526/299/173
f 179/301/91 178/242/90 181/239/93
f 177/173/89 171/175/83 527/302/174
f 179/301/91 173/331/85 172/245/84
f 210/197/122 528/306/175 529/303/176
f 212/304/124 211/246/123 195/248/107
f 207/199/119 530/309/177 528/306/175
f 209/307/121 208/257/120 211/246/123
f 207/199/119 204/201/116 531/308/178
f 206/310/118 205/256/117 208/257/120
f 201/193/113 532/312/179 531/311/178
f 206/310/118 203/314/115 202/260/114
f 198/110/110 533/316/180 532/312/179
f 200/313/112 199/222/111 202/260/114
f 198/110/110 192/112/104 534/315/181
f 200/313/112 194/333/106 193/267/105
f 220/195/132 213/178/125 535/317/182
f 221/319/133 215/332/127 214/251/126
f 220/195/132 536/318/183 537/320/184
f 224/321/136 221/319/133 219/270/131
f 223/210/135 537/320/184 538/322/185
f 227/323/139 224/321/136 222/274/134
f 226/213/138 538/657/185 539/324/186
f 227/323/139 225/228/137 228/230/140
f 229/211/141 539/324/186 540/326/187
f 233/327/145 230/325/142 228/230/140
f 232/207/144 540/326/187 541/328/188
f 233/327/145 231/234/143 216/238/128
f 196/164/108 529/303/176 514/277/161
f 197/305/109 195/248/107 151/254/63
f 154/177/66 520/288/167 527/302/174
f 155/289/67 153/244/65 172/245/84
f 175/180/87 522/290/169 535/317/182
f 176/292/88 174/249/86 214/251/126
f 216/238/128 193/267/105 194/333/106
f 534/315/181 192/112/104 217/205/129
f 157/220/69 122/219/60 123/334/61
f 550/335/2 552/658/2 546/336/2
f 575/338/10 569/659/10 573/339/10
f 625/341/6 576/660/6 549/342/6
f 234/344/14 244/661/14 553/345/14
f 563/347/2 554/662/2 556/348/2
f 555/350/34 558/663/34 560/351/34
f 622/353/6 247/664/6 561/354/6
f 564/356/14 559/665/14 246/357/14
f 243/359/10 249/666/10 248/360/10
f 570/362/1 572/667/1 568/363/1
f 577/365/6 253/668/6 571/366/6
f 542/368/2 252/669/2 567/369/2
f 544/371/14 250/670/14 251/372/14
f 580/374/51 578/671/51 583/375/51
f 579/377/6 584/672/6 586/378/6
f 585/380/59 587/383/59 589/381/59
f 588/383/44 590/673/44 592/384/44
f 259/387/2 257/674/2 581/385/2
f 581/385/2 593/675/2 591/386/2
f 591/386/2 261/676/2 259/387/2
f 263/388/14 594/677/14 595/389/14
f 265/391/39 255/374/39 254/376/39
f 598/393/51 596/678/51 601/394/51
f 597/396/6 602/679/6 604/397/6
f 603/399/59 605/402/59 607/400/59
f 606/402/44 608/680/44 610/403/44
f 271/406/2 269/681/2 599/404/2
f 599/404/2 611/682/2 609/405/2
f 609/405/2 273/683/2 271/406/2
f 275/407/14 612/684/14 613/408/14
f 277/410/39 267/393/39 266/395/39
f 621/412/2 281/685/2 279/413/2
f 280/415/2 615/686/2 614/416/2
f 297/418/154 294/687/153 616/419/153
f 299/421/155 293/439/148 284/422/148
f 301/424/156 292/440/2 285/425/2
f 303/427/157 291/441/149 286/428/149
f 305/430/158 290/688/152 618/431/152
f 307/433/159 289/689/151 288/434/151
f 295/436/146 297/418/154 296/420/154
f 283/438/147 617/690/147 299/421/155
f 293/439/148 301/424/156 300/426/156
f 292/440/2 303/427/157 302/429/157
f 291/441/149 305/430/158 304/432/158
f 619/442/150 307/433/159 306/435/159
f 628/444/2 629/691/2 626/445/2
f 650/447/10 644/692/10 648/448/10
f 701/450/6 651/693/6 314/451/6
f 308/453/14 318/694/14 313/454/14
f 319/456/2 630/695/2 632/457/2
f 631/459/34 634/696/34 636/460/34
f 699/462/6 321/697/6 637/463/6
f 639/465/14 635/698/14 320/466/14
f 317/468/10 323/699/10 322/469/10
f 645/471/1 647/700/1 643/472/1
f 652/474/6 327/701/6 646/475/6
f 653/477/2 326/702/2 642/478/2
f 654/480/14 324/703/14 325/481/14
f 657/483/51 655/704/51 660/484/51
f 656/486/6 661/705/6 663/487/6
f 662/489/59 664/492/59 666/490/59
f 665/492/44 667/706/44 669/493/44
f 333/496/2 331/707/2 658/494/2
f 658/494/2 670/708/2 668/495/2
f 668/495/2 335/709/2 333/496/2
f 337/497/14 671/710/14 672/498/14
f 339/500/39 329/483/39 328/485/39
f 675/502/51 673/711/51 678/503/51
f 674/505/6 679/712/6 681/506/6
f 680/508/59 682/511/59 684/509/59
f 683/511/44 685/713/44 687/512/44
f 345/515/2 343/714/2 676/513/2
f 676/513/2 688/715/2 686/514/2
f 686/514/2 347/716/2 345/515/2
f 349/516/14 689/717/14 690/517/14
f 351/519/39 341/502/39 340/504/39
f 698/521/2 355/718/2 353/522/2
f 354/524/2 692/719/2 691/525/2
f 370/527/154 371/720/154 368/528/153
f 373/530/155 367/548/148 358/531/148
f 375/533/156 366/549/2 359/534/2
f 377/536/157 365/550/149 360/537/149
f 379/539/158 364/721/152 695/540/152
f 381/542/159 363/722/151 362/543/151
f 369/545/146 371/720/154 370/527/154
f 357/547/147 694/723/147 373/530/155
f 367/548/148 375/533/156 374/535/156
f 366/549/2 377/536/157 376/538/157
f 365/550/149 379/539/158 378/541/158
f 696/551/150 381/542/159 380/544/159
f 239/553/1 245/724/1 242/554/1
f 238/556/34 240/725/34 236/557/34
