# Blender 5.0.1
# www.blender.org
mtllib BridgeBeamsCross.mtl
o Beams03_B03
v -0.500000 0.900000 0.400000
v -0.500000 0.500000 0.350000
v -0.500000 0.000000 0.350000
v -0.500000 0.000000 0.400000
v -0.400000 0.000000 0.400000
v -0.400000 0.900000 0.400000
v -0.500000 0.900000 -0.400000
v -0.500000 0.500000 -0.350000
v -0.400000 0.000000 0.350000
v -0.400000 0.900000 -0.400000
v -0.500000 -0.000000 -0.400000
v -0.500000 -0.000000 -0.350000
v -0.400000 -0.000000 -0.400000
v -0.400000 -0.000000 -0.350000
v 0.500000 0.500000 -0.350000
v 0.400000 -0.000000 -0.350000
v 0.500000 -0.000000 -0.350000
v 0.500000 -0.000000 -0.400000
v 0.500000 0.900000 -0.400000
v 0.500000 0.500000 0.350000
v 0.400000 -0.000000 -0.400000
v 0.500000 0.900000 0.400000
v 0.400000 0.900000 -0.400000
v 0.500000 0.000000 0.350000
v 0.400000 0.000000 0.350000
v 0.400000 0.900000 0.400000
v 0.500000 0.000000 0.400000
v 0.400000 0.000000 0.400000
v 0.350000 0.500000 -0.350000
v -0.350000 0.500000 -0.350000
v -0.350000 -0.000000 -0.350000
v 0.350000 -0.000000 -0.350000
v -0.350000 -0.000000 -0.400000
v 0.350000 -0.000000 -0.400000
v 0.350000 0.500000 0.350000
v -0.350000 0.500000 0.350000
v -0.350000 0.000000 0.400000
v 0.350000 0.000000 0.400000
v -0.350000 0.000000 0.350000
v 0.350000 0.000000 0.350000
v 0.400000 0.900000 0.500000
v 0.350000 0.500000 0.500000
v 0.350000 0.000000 0.500000
v 0.400000 0.000000 0.500000
v -0.400000 0.900000 0.500000
v -0.350000 0.500000 0.500000
v -0.400000 0.000000 0.500000
v -0.350000 0.000000 0.500000
v -0.350000 0.500000 -0.500000
v -0.350000 -0.000000 -0.500000
v -0.400000 -0.000000 -0.500000
v -0.400000 0.900000 -0.500000
v 0.350000 0.500000 -0.500000
v 0.400000 0.900000 -0.500000
v 0.350000 -0.000000 -0.500000
v 0.400000 -0.000000 -0.500000
vn 1.0000 -0.0000 -0.0000
vn -0.0000 -1.0000 -0.0000
vn -0.0000 -0.0000 1.0000
vn -1.0000 -0.0000 -0.0000
vn -0.0000 -0.0000 -1.0000
vn -0.0000 1.0000 -0.0000
vt 0.513395 0.529527
vt 0.513395 0.572284
vt 0.500568 0.572284
vt 0.521993 0.546827
vt 0.521993 0.557607
vt 0.572299 0.557607
vt 0.500656 0.529571
vt 0.513456 0.529571
vt 0.513456 0.572240
vt 0.585994 0.529571
vt 0.585994 0.572240
vt 0.573193 0.572240
vt 0.521993 0.607914
vt 0.511213 0.557607
vt 0.500568 0.529527
vt 0.572299 0.607914
vt 0.573193 0.529571
vt 0.521993 0.618694
vt 0.572299 0.618694
vt 0.500656 0.572240
vt 0.586082 0.529527
vt 0.586082 0.572284
vt 0.573255 0.572284
vt 0.583079 0.557607
vt 0.573255 0.529527
vt 0.572299 0.546827
vt 0.511213 0.607914
vt 0.583079 0.607914
vt 0.580501 0.570628
vt 0.580501 0.529439
vt 0.585823 0.529439
vt 0.500517 0.529567
vt 0.509050 0.529567
vt 0.509050 0.613380
vt 0.500671 0.613203
vt 0.505993 0.570628
vt 0.511114 0.551310
vt 0.511114 0.546810
vt 0.502114 0.546810
vt 0.511114 0.618810
vt 0.500671 0.529439
vt 0.505993 0.529439
vt 0.500517 0.613380
vt 0.511114 0.614310
vt 0.502114 0.614310
vt 0.592114 0.618810
vt 0.592114 0.614310
vt 0.583114 0.614310
vt 0.585823 0.613203
vt 0.577312 0.529567
vt 0.577312 0.613380
vt 0.585845 0.613380
vt 0.592114 0.546810
vt 0.583114 0.618810
vt 0.592114 0.551310
vt 0.583114 0.546810
vt 0.585845 0.529567
vt 0.515614 0.618810
vt 0.515613 0.614310
vt 0.578614 0.614310
vt 0.515613 0.551310
vt 0.515613 0.546810
vt 0.583114 0.551310
vt 0.578614 0.546810
vt 0.502114 0.551310
vt 0.502114 0.618810
vt 0.578614 0.618810
vt 0.578614 0.551310
s 0
f 39/1/1 36/2/1 46/3/1
f 46/4/2 36/5/2 35/6/2
f 12/7/3 31/8/3 30/9/3
f 17/10/3 15/11/3 29/12/3
f 30/13/2 36/5/2 2/14/2
f 43/15/4 42/3/4 35/2/4
f 36/5/2 30/13/2 29/16/2
f 24/10/5 40/17/5 35/12/5
f 30/13/2 49/18/2 53/19/2
f 3/7/5 2/20/5 36/9/5
f 50/21/1 49/22/1 30/23/1
f 20/24/2 35/6/2 29/16/2
f 32/25/4 29/23/4 53/22/4
f 48/15/1 39/1/1 46/3/1
f 42/26/2 46/4/2 35/6/2
f 8/20/3 12/7/3 30/9/3
f 32/17/3 17/10/3 29/12/3
f 8/27/2 30/13/2 2/14/2
f 40/1/4 43/15/4 35/2/4
f 35/6/2 36/5/2 29/16/2
f 20/11/5 24/10/5 35/12/5
f 29/16/2 30/13/2 53/19/2
f 39/8/5 3/7/5 36/9/5
f 31/25/1 50/21/1 30/23/1
f 15/28/2 20/24/2 29/16/2
f 55/21/4 32/25/4 53/22/4
f 2/29/4 3/30/4 4/31/4
f 4/32/3 5/33/3 6/34/3
f 7/35/4 8/36/4 2/29/4
f 9/37/2 5/38/2 4/39/2
f 1/39/6 6/38/6 10/40/6
f 11/41/4 12/42/4 8/36/4
f 11/32/5 7/43/5 10/34/5
f 13/40/2 14/44/2 12/45/2
f 15/36/1 17/42/1 18/41/1
f 18/46/2 17/47/2 16/48/2
f 22/49/1 20/29/1 15/36/1
f 21/50/5 23/51/5 19/52/5
f 22/53/6 19/46/6 23/54/6
f 20/29/1 22/49/1 27/31/1
f 24/55/2 27/53/2 28/56/2
f 27/57/3 22/52/3 26/51/3
f 33/58/2 31/59/2 14/44/2
f 21/54/2 16/48/2 32/60/2
f 26/56/6 23/54/6 10/40/6
f 39/61/2 37/62/2 5/38/2
f 25/63/2 28/56/2 38/64/2
f 1/49/4 2/29/4 4/31/4
f 1/43/3 4/32/3 6/34/3
f 1/49/4 7/35/4 2/29/4
f 3/65/2 9/37/2 4/39/2
f 7/66/6 1/39/6 10/40/6
f 7/35/4 11/41/4 8/36/4
f 13/33/5 11/32/5 10/34/5
f 11/66/2 13/40/2 12/45/2
f 19/35/1 15/36/1 18/41/1
f 21/54/2 18/46/2 16/48/2
f 19/35/1 22/49/1 15/36/1
f 18/57/5 21/50/5 19/52/5
f 26/56/6 22/53/6 23/54/6
f 24/30/1 20/29/1 27/31/1
f 25/63/2 24/55/2 28/56/2
f 28/50/3 27/57/3 26/51/3
f 13/40/2 33/58/2 14/44/2
f 34/67/2 21/54/2 32/60/2
f 6/38/6 26/56/6 10/40/6
f 9/37/2 39/61/2 5/38/2
f 40/68/2 25/63/2 38/64/2
f 42/29/3 43/30/3 44/31/3
f 44/32/1 28/33/1 26/34/1
f 45/35/3 46/36/3 42/29/3
f 38/37/2 28/38/2 44/39/2
f 41/39/6 26/38/6 6/40/6
f 47/41/3 48/42/3 46/36/3
f 47/32/4 45/43/4 6/34/4
f 5/40/2 37/44/2 48/45/2
f 49/36/5 50/42/5 51/41/5
f 51/46/2 50/47/2 33/48/2
f 54/49/5 53/29/5 49/36/5
f 13/50/4 10/51/4 52/52/4
f 54/53/6 52/46/6 10/54/6
f 53/29/5 54/49/5 56/31/5
f 55/55/2 56/53/2 21/56/2
f 56/57/1 54/52/1 23/51/1
f 41/49/3 42/29/3 44/31/3
f 41/43/1 44/32/1 26/34/1
f 41/49/3 45/35/3 42/29/3
f 43/65/2 38/37/2 44/39/2
f 45/66/6 41/39/6 6/40/6
f 45/35/3 47/41/3 46/36/3
f 5/33/4 47/32/4 6/34/4
f 47/66/2 5/40/2 48/45/2
f 52/35/5 49/36/5 51/41/5
f 13/54/2 51/46/2 33/48/2
f 52/35/5 54/49/5 49/36/5
f 51/57/4 13/50/4 52/52/4
f 23/56/6 54/53/6 10/54/6
f 55/30/5 53/29/5 56/31/5
f 34/63/2 55/55/2 21/56/2
f 21/50/1 56/57/1 23/51/1
o Ground01_GR01
v -0.500000 0.900000 0.500000
v -0.500000 0.900000 -0.500000
v 0.500000 0.900000 -0.500000
v 0.500000 0.900000 0.500000
v -0.500000 1.000000 0.500000
v -0.500000 1.000000 -0.500000
v 0.500000 1.000000 -0.500000
v 0.500000 1.000000 0.500000
vn -1.0000 -0.0000 -0.0000
vn -0.0000 -0.0000 -1.0000
vn 1.0000 -0.0000 -0.0000
vn -0.0000 -0.0000 1.0000
vn -0.0000 -1.0000 -0.0000
vn -0.0000 1.0000 -0.0000
vt 0.566966 0.500464
vt 0.541966 0.500464
vt 0.541966 0.750464
vt 0.566966 0.750464
vt 0.875045 0.875059
vt 0.875045 1.000048
vt 0.750029 1.000048
vt 0.750029 0.875059
s 0
f 62/69/7 58/70/7 57/71/7
f 63/69/8 59/70/8 58/71/8
f 64/72/9 60/71/9 59/70/9
f 61/72/10 57/71/10 60/70/10
f 58/73/11 59/74/11 60/75/11
f 63/73/12 62/74/12 61/75/12
f 61/72/7 62/69/7 57/71/7
f 62/72/8 63/69/8 58/71/8
f 63/69/9 64/72/9 59/70/9
f 64/69/10 61/72/10 60/70/10
f 57/76/11 58/73/11 60/75/11
f 64/76/12 63/73/12 61/75/12
