# Blender 5.0.1
# www.blender.org
mtllib BridgeBeamsCorner.mtl
o Beams04_B04
v 0.400000 0.900000 0.500000
v 0.350000 0.500000 0.500000
v 0.350000 0.000000 0.500000
v 0.400000 0.000000 0.500000
v 0.400000 0.000000 0.400000
v 0.400000 0.900000 0.400000
v -0.400000 0.900000 0.500000
v -0.350000 0.500000 0.500000
v 0.350000 0.000000 0.400000
v -0.400000 0.900000 0.400000
v -0.400000 0.000000 0.500000
v -0.350000 0.000000 0.500000
v -0.400000 -0.000000 -0.400000
v -0.400000 0.900000 -0.400000
v 0.400000 0.900000 -0.400000
v -0.350000 0.500000 -0.350000
v -0.350000 0.500000 0.350000
v -0.350000 -0.000000 -0.350000
v 0.350000 0.500000 0.350000
v 0.400000 0.000000 0.350000
v 0.350000 0.000000 0.350000
v 0.500000 0.500000 -0.350000
v 0.500000 -0.000000 -0.350000
v 0.500000 -0.000000 -0.400000
v 0.500000 0.900000 -0.400000
v 0.500000 0.500000 0.350000
v 0.500000 0.900000 0.400000
v 0.500000 0.000000 0.350000
v 0.500000 0.000000 0.400000
vn -1.0000 -0.0000 -0.0000
vn 1.0000 -0.0000 -0.0000
vn -0.0000 -1.0000 -0.0000
vn -0.0000 -0.0000 -1.0000
vn -0.0000 -0.0000 1.0000
vn -0.0000 1.0000 -0.0000
vt 0.585914 0.570679
vt 0.585914 0.529429
vt 0.573623 0.529429
vt 0.500569 0.529397
vt 0.585922 0.579397
vt 0.592118 0.618763
vt 0.592118 0.614765
vt 0.524158 0.614765
vt 0.520160 0.546805
vt 0.520160 0.618763
vt 0.500053 0.613250
vt 0.585852 0.613250
vt 0.585852 0.529462
vt 0.586021 0.529478
vt 0.573683 0.529478
vt 0.573683 0.570604
vt 0.585659 0.529266
vt 0.585659 0.579265
vt 0.500659 0.579265
vt 0.500061 0.529471
vt 0.502073 0.546656
vt 0.502073 0.559357
vt 0.561348 0.559357
vt 0.502073 0.618632
vt 0.574050 0.618632
vt 0.574050 0.559357
vt 0.573623 0.570679
vt 0.500569 0.579397
vt 0.524158 0.546805
vt 0.586021 0.570604
vt 0.500659 0.529266
vt 0.561348 0.546656
vt 0.580501 0.570628
vt 0.580501 0.529439
vt 0.585823 0.529439
vt 0.500517 0.529567
vt 0.509050 0.529567
vt 0.509050 0.613380
vt 0.500671 0.613203
vt 0.505993 0.570628
vt 0.511114 0.551310
vt 0.511114 0.546810
vt 0.502114 0.546810
vt 0.511114 0.618810
vt 0.500671 0.529439
vt 0.505993 0.529439
vt 0.583114 0.546810
vt 0.583114 0.618810
vt 0.515613 0.551310
vt 0.515613 0.546810
vt 0.585823 0.613203
vt 0.500517 0.613380
vt 0.502114 0.551310
vt 0.502114 0.618810
vt 0.592114 0.546810
vt 0.592114 0.551310
vt 0.585845 0.529567
vt 0.585845 0.613380
vt 0.577312 0.613380
vt 0.583114 0.551310
vt 0.577312 0.529567
s 0
f 19/1/1 21/2/1 3/3/1
f 12/4/2 18/2/2 16/5/2
f 24/6/3 23/7/3 18/8/3
f 11/9/3 13/10/3 18/8/3
f 7/11/1 14/12/1 13/13/1
f 28/14/4 21/15/4 19/16/4
f 23/17/5 22/18/5 16/19/5
f 25/12/4 24/13/4 13/20/4
f 8/21/3 17/22/3 19/23/3
f 16/24/3 22/25/3 26/26/3
f 2/27/1 19/1/1 3/3/1
f 8/28/2 12/4/2 16/5/2
f 13/10/3 24/6/3 18/8/3
f 12/29/3 11/9/3 18/8/3
f 11/20/1 7/11/1 13/13/1
f 26/30/4 28/14/4 19/16/4
f 18/31/5 23/17/5 16/19/5
f 14/11/4 25/12/4 13/20/4
f 2/32/3 8/21/3 19/23/3
f 17/22/3 16/24/3 26/26/3
f 2/33/5 3/34/5 4/35/5
f 4/36/2 5/37/2 6/38/2
f 7/39/5 8/40/5 2/33/5
f 9/41/3 5/42/3 4/43/3
f 1/43/6 6/42/6 10/44/6
f 11/45/5 12/46/5 8/40/5
f 6/42/6 15/47/6 14/48/6
f 21/49/3 20/50/3 5/42/3
f 1/51/5 2/33/5 4/35/5
f 1/52/2 4/36/2 6/38/2
f 1/51/5 7/39/5 2/33/5
f 3/53/3 9/41/3 4/43/3
f 7/54/6 1/43/6 10/44/6
f 7/39/5 11/45/5 8/40/5
f 10/44/6 6/42/6 14/48/6
f 9/41/3 21/49/3 5/42/3
f 22/40/2 23/46/2 24/45/2
f 27/51/2 26/33/2 22/40/2
f 27/55/6 25/6/6 15/48/6
f 26/33/2 27/51/2 29/35/2
f 28/56/3 29/55/3 5/47/3
f 29/57/5 27/58/5 6/59/5
f 25/39/2 22/40/2 24/45/2
f 25/39/2 27/51/2 22/40/2
f 6/47/6 27/55/6 15/48/6
f 28/34/2 26/33/2 29/35/2
f 20/60/3 28/56/3 5/47/3
f 5/61/5 29/57/5 6/59/5
o Ground01_GR01
v -0.500000 0.900000 0.500000
v -0.500000 0.900000 -0.500000
v 0.500000 0.900000 -0.500000
v 0.500000 0.900000 0.500000
v -0.500000 1.000000 0.500000
v -0.500000 1.000000 -0.500000
v 0.500000 1.000000 -0.500000
v 0.500000 1.000000 0.500000
vn -1.0000 -0.0000 -0.0000
vn -0.0000 -0.0000 -1.0000
vn 1.0000 -0.0000 -0.0000
vn -0.0000 -0.0000 1.0000
vn -0.0000 -1.0000 -0.0000
vn -0.0000 1.0000 -0.0000
vt 0.566966 0.500464
vt 0.541966 0.500464
vt 0.541966 0.750464
vt 0.566966 0.750464
vt 0.875045 0.875059
vt 0.875045 1.000048
vt 0.750029 1.000048
vt 0.750029 0.875059
s 0
f 35/62/7 31/63/7 30/64/7
f 36/62/8 32/63/8 31/64/8
f 37/65/9 33/64/9 32/63/9
f 34/65/10 30/64/10 33/63/10
f 31/66/11 32/67/11 33/68/11
f 36/66/12 35/67/12 34/68/12
f 34/65/7 35/62/7 30/64/7
f 35/65/8 36/62/8 31/64/8
f 36/62/9 37/65/9 32/63/9
f 37/62/10 34/65/10 33/63/10
f 30/69/11 31/66/11 33/68/11
f 37/69/12 36/66/12 34/68/12
