# Blender 5.0.1
# www.blender.org
mtllib BridgeBeamsTripple.mtl
o Beams05_B05
v -0.500000 0.900000 0.400000
v -0.500000 0.500000 0.350000
v -0.500000 0.000000 0.350000
v -0.500000 0.000000 0.400000
v -0.400000 0.000000 0.400000
v -0.400000 0.900000 0.400000
v -0.500000 0.900000 -0.400000
v -0.500000 0.500000 -0.350000
v -0.400000 0.000000 0.350000
v -0.400000 0.900000 -0.400000
v -0.500000 -0.000000 -0.400000
v -0.500000 -0.000000 -0.350000
v 0.500000 0.500000 -0.350000
v 0.500000 -0.000000 -0.350000
v 0.500000 -0.000000 -0.400000
v 0.500000 0.900000 -0.400000
v 0.500000 0.500000 0.350000
v 0.500000 0.900000 0.400000
v 0.400000 0.900000 -0.400000
v 0.500000 0.000000 0.350000
v 0.400000 0.000000 0.350000
v 0.400000 0.900000 0.400000
v 0.500000 0.000000 0.400000
v 0.400000 0.000000 0.400000
v 0.350000 0.500000 -0.350000
v -0.350000 0.500000 -0.350000
v 0.350000 0.500000 0.350000
v -0.350000 0.500000 0.350000
v -0.350000 0.000000 0.400000
v 0.350000 0.000000 0.400000
v -0.350000 0.000000 0.350000
v 0.350000 0.000000 0.350000
v 0.400000 0.900000 0.500000
v 0.350000 0.500000 0.500000
v 0.350000 0.000000 0.500000
v 0.400000 0.000000 0.500000
v -0.400000 0.900000 0.500000
v -0.350000 0.500000 0.500000
v -0.400000 0.000000 0.500000
v -0.350000 0.000000 0.500000
vn 1.0000 -0.0000 -0.0000
vn -0.0000 -1.0000 -0.0000
vn -1.0000 -0.0000 -0.0000
vn -0.0000 -0.0000 -1.0000
vn -0.0000 -0.0000 1.0000
vn -0.0000 1.0000 -0.0000
vt 0.513395 0.529527
vt 0.513395 0.572284
vt 0.500568 0.572284
vt 0.521993 0.546827
vt 0.521993 0.557607
vt 0.572299 0.557607
vt 0.521993 0.607914
vt 0.511213 0.557607
vt 0.500568 0.529527
vt 0.572299 0.607914
vt 0.585994 0.529571
vt 0.573193 0.529571
vt 0.573193 0.572240
vt 0.500656 0.529571
vt 0.500656 0.572240
vt 0.513456 0.572240
vt 0.583079 0.557607
vt 0.572299 0.546827
vt 0.511213 0.607914
vt 0.585994 0.572240
vt 0.513456 0.529571
vt 0.583079 0.607914
vt 0.580501 0.570628
vt 0.580501 0.529439
vt 0.585823 0.529439
vt 0.500517 0.529567
vt 0.509050 0.529567
vt 0.509050 0.613380
vt 0.500671 0.613203
vt 0.505993 0.570628
vt 0.511114 0.551310
vt 0.511114 0.546810
vt 0.502114 0.546810
vt 0.511114 0.618810
vt 0.500671 0.529439
vt 0.505993 0.529439
vt 0.500517 0.613380
vt 0.511114 0.614310
vt 0.502114 0.614310
vt 0.585823 0.613203
vt 0.502114 0.551310
vt 0.502114 0.618810
vt 0.592248 0.551392
vt 0.592248 0.546891
vt 0.502219 0.546891
vt 0.585966 0.529516
vt 0.585966 0.570751
vt 0.500408 0.570751
vt 0.585966 0.613227
vt 0.500408 0.529516
vt 0.502219 0.551392
vt 0.500408 0.613227
vt 0.592114 0.546810
vt 0.592113 0.618810
vt 0.583114 0.618810
vt 0.592114 0.551310
vt 0.583114 0.546810
vt 0.585845 0.529567
vt 0.585845 0.613380
vt 0.577312 0.613380
vt 0.515613 0.551310
vt 0.515613 0.546810
vt 0.583114 0.551310
vt 0.578614 0.546810
vt 0.577312 0.529567
vt 0.578614 0.551310
s 0
f 31/1/1 28/2/1 38/3/1
f 38/4/2 28/5/2 27/6/2
f 26/7/2 28/5/2 2/8/2
f 35/9/3 34/3/3 27/2/3
f 28/5/2 26/7/2 25/10/2
f 20/11/4 32/12/4 27/13/4
f 3/14/4 2/15/4 28/16/4
f 17/17/2 27/6/2 25/10/2
f 40/9/1 31/1/1 38/3/1
f 34/18/2 38/4/2 27/6/2
f 8/19/2 26/7/2 2/8/2
f 32/1/3 35/9/3 27/2/3
f 27/6/2 28/5/2 25/10/2
f 17/20/4 20/11/4 27/13/4
f 31/21/4 3/14/4 28/16/4
f 13/22/2 17/17/2 25/10/2
f 34/23/5 35/24/5 36/25/5
f 36/26/1 24/27/1 22/28/1
f 37/29/5 38/30/5 34/23/5
f 30/31/2 24/32/2 36/33/2
f 33/33/6 22/32/6 6/34/6
f 39/35/5 40/36/5 38/30/5
f 39/26/3 37/37/3 6/28/3
f 5/34/2 29/38/2 40/39/2
f 33/40/5 34/23/5 36/25/5
f 33/37/1 36/26/1 22/28/1
f 33/40/5 37/29/5 34/23/5
f 35/41/2 30/31/2 36/33/2
f 37/42/6 33/33/6 6/34/6
f 37/29/5 39/35/5 38/30/5
f 5/27/3 39/26/3 6/28/3
f 39/42/2 5/34/2 40/39/2
f 15/43/2 14/44/2 12/45/2
f 14/46/5 13/47/5 8/48/5
f 16/49/4 15/46/4 11/50/4
f 11/51/2 15/43/2 12/45/2
f 12/50/5 14/46/5 8/48/5
f 7/52/4 16/49/4 11/50/4
f 2/23/3 3/24/3 4/25/3
f 4/26/5 5/27/5 6/28/5
f 7/29/3 8/30/3 2/23/3
f 9/31/2 5/32/2 4/33/2
f 1/33/6 6/32/6 10/34/6
f 11/35/3 12/36/3 8/30/3
f 13/30/1 14/36/1 15/35/1
f 18/40/1 17/23/1 13/30/1
f 18/53/6 16/54/6 19/55/6
f 17/23/1 18/40/1 23/25/1
f 20/56/2 23/53/2 24/57/2
f 23/58/5 18/59/5 22/60/5
f 22/57/6 19/55/6 10/34/6
f 31/61/2 29/62/2 5/32/2
f 21/63/2 24/57/2 30/64/2
f 1/40/3 2/23/3 4/25/3
f 1/37/5 4/26/5 6/28/5
f 1/40/3 7/29/3 2/23/3
f 3/41/2 9/31/2 4/33/2
f 7/42/6 1/33/6 10/34/6
f 7/29/3 11/35/3 8/30/3
f 16/29/1 13/30/1 15/35/1
f 16/29/1 18/40/1 13/30/1
f 22/57/6 18/53/6 19/55/6
f 20/24/1 17/23/1 23/25/1
f 21/63/2 20/56/2 24/57/2
f 24/65/5 23/58/5 22/60/5
f 6/32/6 22/57/6 10/34/6
f 9/31/2 31/61/2 5/32/2
f 32/66/2 21/63/2 30/64/2
o Ground01_GR01
v -0.500000 0.900000 0.500000
v -0.500000 0.900000 -0.500000
v 0.500000 0.900000 -0.500000
v 0.500000 0.900000 0.500000
v -0.500000 1.000000 0.500000
v -0.500000 1.000000 -0.500000
v 0.500000 1.000000 -0.500000
v 0.500000 1.000000 0.500000
vn -1.0000 -0.0000 -0.0000
vn -0.0000 -0.0000 -1.0000
vn 1.0000 -0.0000 -0.0000
vn -0.0000 -0.0000 1.0000
vn -0.0000 -1.0000 -0.0000
vn -0.0000 1.0000 -0.0000
vt 0.566966 0.500464
vt 0.541966 0.500464
vt 0.541966 0.750464
vt 0.566966 0.750464
vt 0.875045 0.875059
vt 0.875045 1.000048
vt 0.750029 1.000048
vt 0.750029 0.875059
s 0
f 46/67/7 42/68/7 41/69/7
f 47/67/8 43/68/8 42/69/8
f 48/70/9 44/69/9 43/68/9
f 45/70/10 41/69/10 44/68/10
f 42/71/11 43/72/11 44/73/11
f 47/71/12 46/72/12 45/73/12
f 45/70/7 46/67/7 41/69/7
f 46/70/8 47/67/8 42/69/8
f 47/67/9 48/70/9 43/68/9
f 48/67/10 45/70/10 44/68/10
f 41/74/11 42/71/11 44/73/11
f 48/74/12 47/71/12 45/73/12
