# Blender 5.0.1
# www.blender.org
mtllib BridgeGround.mtl
o Ground01_GR01
v -0.500000 0.900000 0.500000
v -0.500000 0.900000 -0.500000
v 0.500000 0.900000 -0.500000
v 0.500000 0.900000 0.500000
v -0.500000 1.000000 0.500000
v -0.500000 1.000000 -0.500000
v 0.500000 1.000000 -0.500000
v 0.500000 1.000000 0.500000
vn -1.0000 -0.0000 -0.0000
vn -0.0000 -0.0000 -1.0000
vn 1.0000 -0.0000 -0.0000
vn -0.0000 -0.0000 1.0000
vn -0.0000 -1.0000 -0.0000
vn -0.0000 1.0000 -0.0000
vt 0.566966 0.500464
vt 0.541966 0.500464
vt 0.541966 0.750464
vt 0.566966 0.750464
vt 0.875045 0.875059
vt 0.875045 1.000048
vt 0.750029 1.000048
vt 0.750029 0.875059
s 0
f 6/1/1 2/2/1 1/3/1
f 7/1/2 3/2/2 2/3/2
f 8/4/3 4/3/3 3/2/3
f 5/4/4 1/3/4 4/2/4
f 2/5/5 3/6/5 4/7/5
f 7/5/6 6/6/6 5/7/6
f 5/4/1 6/1/1 1/3/1
f 6/4/2 7/1/2 2/3/2
f 7/1/3 8/4/3 3/2/3
f 8/1/4 5/4/4 4/2/4
f 1/8/5 2/5/5 4/7/5
f 8/8/6 7/5/6 5/7/6
