# Blender 5.0.1
# www.blender.org
mtllib BridgeBeams.mtl
o Beams01_B01
v -0.500000 0.000000 0.500000
v -0.500000 -0.000000 -0.500000
v 0.500000 -0.000000 -0.500000
v 0.500000 0.000000 0.500000
v -0.500000 1.000000 0.500000
v -0.500000 1.000000 -0.500000
v 0.500000 1.000000 -0.500000
v 0.500000 1.000000 0.500000
vn -1.0000 -0.0000 -0.0000
vn -0.0000 -0.0000 -1.0000
vn 1.0000 -0.0000 -0.0000
vn -0.0000 -0.0000 1.0000
vn -0.0000 -1.0000 -0.0000
vn -0.0000 1.0000 -0.0000
vt 0.717605 0.780096
vt 0.717605 0.688644
vt 0.626162 0.688644
vt 0.626162 0.780096
vt 0.647893 0.759385
vt 0.697893 0.759385
vt 0.697893 0.709385
vt 0.647893 0.709385
s 0
f 6/1/1 2/2/1 1/3/1
f 7/1/2 3/2/2 2/3/2
f 8/4/3 4/3/3 3/2/3
f 5/4/4 1/3/4 4/2/4
f 2/5/5 3/6/5 4/7/5
f 7/6/6 6/5/6 5/8/6
f 5/4/1 6/1/1 1/3/1
f 6/4/2 7/1/2 2/3/2
f 7/1/3 8/4/3 3/2/3
f 8/1/4 5/4/4 4/2/4
f 1/8/5 2/5/5 4/7/5
f 8/7/6 7/6/6 5/8/6
