# Blender 5.0.1
# www.blender.org
mtllib BridgeGroundBeams.mtl
o Beams02_B02
v -0.400000 0.000000 0.500000
v -0.400000 -0.000000 -0.500000
v -0.350000 -0.000000 -0.500000
v -0.350000 0.000000 0.500000
v -0.350000 0.500000 -0.500000
v -0.350000 0.500000 0.500000
v -0.400000 0.900000 0.500000
v -0.400000 0.900000 -0.500000
v 0.350000 0.500000 -0.500000
v 0.350000 0.500000 0.500000
v 0.400000 0.900000 -0.500000
v 0.400000 0.900000 0.500000
v 0.350000 -0.000000 -0.500000
v 0.350000 0.000000 0.500000
v 0.400000 -0.000000 -0.500000
v 0.400000 0.000000 0.500000
vn -0.0000 -0.0000 1.0000
vn 1.0000 -0.0000 -0.0000
vn -0.0000 -1.0000 -0.0000
vn -1.0000 -0.0000 -0.0000
vn -0.0000 1.0000 -0.0000
vn -0.0000 -0.0000 -1.0000
vt 0.580501 0.570628
vt 0.580501 0.529439
vt 0.585823 0.529439
vt 0.500517 0.576130
vt 0.500517 0.529567
vt 0.585845 0.529567
vt 0.592114 0.618810
vt 0.592114 0.614310
vt 0.502114 0.614310
vt 0.500671 0.613203
vt 0.505993 0.570628
vt 0.500517 0.613380
vt 0.585845 0.613380
vt 0.500671 0.529439
vt 0.505993 0.529439
vt 0.502114 0.546810
vt 0.592114 0.546810
vt 0.592114 0.551310
vt 0.502114 0.551310
vt 0.585823 0.613203
vt 0.585845 0.576130
vt 0.502114 0.618810
s 0
f 10/1/1 14/2/1 16/3/1
f 6/4/2 4/5/2 3/6/2
f 2/7/3 3/8/3 4/9/3
f 7/10/1 6/11/1 10/1/1
f 1/5/4 7/12/4 8/13/4
f 1/14/1 4/15/1 6/11/1
f 12/16/5 11/17/5 8/7/5
f 5/8/3 9/18/3 10/19/3
f 5/11/6 3/15/6 2/14/6
f 11/20/6 9/1/6 5/11/6
f 16/5/2 15/6/2 11/13/2
f 13/18/3 15/17/3 16/16/3
f 9/1/6 11/20/6 15/3/6
f 9/21/4 13/6/4 14/5/4
f 12/20/1 10/1/1 16/3/1
f 5/21/2 6/4/2 3/6/2
f 1/22/3 2/7/3 4/9/3
f 12/20/1 7/10/1 10/1/1
f 2/6/4 1/5/4 8/13/4
f 7/10/1 1/14/1 6/11/1
f 7/22/5 12/16/5 8/7/5
f 6/9/3 5/8/3 10/19/3
f 8/10/6 5/11/6 2/14/6
f 8/10/6 11/20/6 5/11/6
f 12/12/2 16/5/2 11/13/2
f 14/19/3 13/18/3 16/16/3
f 13/2/6 9/1/6 15/3/6
f 10/4/4 9/21/4 14/5/4
o Ground01_GR01
v -0.500000 0.900000 0.500000
v -0.500000 0.900000 -0.500000
v 0.500000 0.900000 -0.500000
v 0.500000 0.900000 0.500000
v -0.500000 1.000000 0.500000
v -0.500000 1.000000 -0.500000
v 0.500000 1.000000 -0.500000
v 0.500000 1.000000 0.500000
vn -1.0000 -0.0000 -0.0000
vn -0.0000 -0.0000 -1.0000
vn 1.0000 -0.0000 -0.0000
vn -0.0000 -0.0000 1.0000
vn -0.0000 -1.0000 -0.0000
vn -0.0000 1.0000 -0.0000
vt 0.566966 0.500464
vt 0.541966 0.500464
vt 0.541966 0.750464
vt 0.566966 0.750464
vt 0.875045 0.875059
vt 0.875045 1.000048
vt 0.750029 1.000048
vt 0.750029 0.875059
s 0
f 22/23/7 18/24/7 17/25/7
f 23/23/8 19/24/8 18/25/8
f 24/26/9 20/25/9 19/24/9
f 21/26/10 17/25/10 20/24/10
f 18/27/11 19/28/11 20/29/11
f 23/27/12 22/28/12 21/29/12
f 21/26/7 22/23/7 17/25/7
f 22/26/8 23/23/8 18/25/8
f 23/23/9 24/26/9 19/24/9
f 24/23/10 21/26/10 20/24/10
f 17/30/11 18/27/11 20/29/11
f 24/30/12 23/27/12 21/29/12
