# Blender 5.0.1
# www.blender.org
mtllib BridgeRailing2.mtl
o Field02_F02
v -0.500000 0.975000 -0.495000
v -0.500000 0.975000 -0.505000
v 0.500000 0.975000 -0.505000
v 0.500000 0.975000 -0.495000
v -0.500000 1.000000 -0.495000
v -0.500000 1.000000 -0.505000
v 0.500000 1.000000 -0.505000
v 0.500000 1.000000 -0.495000
v -0.500000 -0.000000 -0.495000
v -0.500000 -0.000000 -0.505000
v 0.500000 -0.000000 -0.505000
v 0.500000 -0.000000 -0.495000
v -0.500000 0.025000 -0.495000
v -0.500000 0.025000 -0.505000
v 0.500000 0.025000 -0.505000
v 0.500000 0.025000 -0.495000
v 0.012500 -0.000000 -0.485000
v 0.012500 -0.000000 -0.495000
v 0.012500 1.000000 -0.495000
v 0.012500 1.000000 -0.485000
v -0.012500 -0.000000 -0.485000
v -0.012500 -0.000000 -0.495000
v -0.012500 1.000000 -0.495000
v -0.012500 1.000000 -0.485000
vn -1.0000 -0.0000 -0.0000
vn -0.0000 -0.0000 -1.0000
vn 1.0000 -0.0000 -0.0000
vn -0.0000 -0.0000 1.0000
vn -0.0000 -1.0000 -0.0000
vn -0.0000 1.0000 -0.0000
vt 0.546392 0.515150
vt 0.546392 0.502650
vt 0.541392 0.502650
vt 0.540666 0.752733
vt 0.546916 0.752733
vt 0.546916 0.502733
vt 0.541392 0.515150
vt 0.540666 0.502733
vt 0.543357 0.752526
vt 0.543357 0.502526
vt 0.540857 0.502526
vt 0.540856 0.752526
s 0
f 14/1/1 10/2/1 9/3/1
f 15/4/2 11/5/2 10/6/2
f 16/7/3 12/3/3 11/2/3
f 13/8/4 9/6/4 12/5/4
f 10/9/5 11/10/5 12/11/5
f 15/10/6 14/9/6 13/12/6
f 13/7/1 14/1/1 9/3/1
f 14/8/2 15/4/2 10/6/2
f 15/1/3 16/7/3 11/2/3
f 16/4/4 13/8/4 12/5/4
f 9/12/5 10/9/5 12/11/5
f 16/11/6 15/10/6 13/12/6
f 22/1/5 18/2/5 17/3/5
f 23/4/2 19/5/2 18/6/2
f 24/7/6 20/3/6 19/2/6
f 21/8/4 17/6/4 20/5/4
f 18/9/3 19/10/3 20/11/3
f 23/10/1 22/9/1 21/12/1
f 21/7/5 22/1/5 17/3/5
f 22/8/2 23/4/2 18/6/2
f 23/1/6 24/7/6 19/2/6
f 24/4/4 21/8/4 20/5/4
f 17/12/3 18/9/3 20/11/3
f 24/11/1 23/10/1 21/12/1
f 6/1/1 2/2/1 1/3/1
f 7/4/2 3/5/2 2/6/2
f 8/7/3 4/3/3 3/2/3
f 5/8/4 1/6/4 4/5/4
f 2/9/5 3/10/5 4/11/5
f 7/10/6 6/9/6 5/12/6
f 5/7/1 6/1/1 1/3/1
f 6/8/2 7/4/2 2/6/2
f 7/1/3 8/7/3 3/2/3
f 8/4/4 5/8/4 4/5/4
f 1/12/5 2/9/5 4/11/5
f 8/11/6 7/10/6 5/12/6
