# Blender 5.0.1
# www.blender.org
mtllib BridgeRailingRods.mtl
o Rod01_R01
v 0.468750 -0.050000 -0.468750
v 0.468750 -0.050000 -0.531250
v 0.531250 -0.050000 -0.531250
v 0.531250 -0.050000 -0.468750
v 0.468750 1.000000 -0.468750
v 0.468750 1.000000 -0.531250
v 0.531250 1.000000 -0.531250
v 0.531250 1.000000 -0.468750
v -0.531250 -0.050000 -0.468750
v -0.531250 -0.050000 -0.531250
v -0.468750 -0.050000 -0.531250
v -0.468750 -0.050000 -0.468750
v -0.531250 1.000000 -0.468750
v -0.531250 1.000000 -0.531250
v -0.468750 1.000000 -0.531250
v -0.468750 1.000000 -0.468750
vn -1.0000 -0.0000 -0.0000
vn -0.0000 -0.0000 -1.0000
vn 1.0000 -0.0000 -0.0000
vn -0.0000 -0.0000 1.0000
vn -0.0000 -1.0000 -0.0000
vn -0.0000 1.0000 -0.0000
vt 0.547086 0.706176
vt 0.547086 0.573876
vt 0.539211 0.573876
vt 0.539211 0.706176
vt 0.656899 0.754397
vt 0.688149 0.754397
vt 0.688149 0.723147
vt 0.656899 0.723147
s 0
f 14/1/1 10/2/1 9/3/1
f 15/1/2 11/2/2 10/3/2
f 16/4/3 12/3/3 11/2/3
f 13/4/4 9/3/4 12/2/4
f 10/5/5 11/6/5 12/7/5
f 15/6/6 14/5/6 13/8/6
f 13/4/1 14/1/1 9/3/1
f 14/4/2 15/1/2 10/3/2
f 15/1/3 16/4/3 11/2/3
f 16/1/4 13/4/4 12/2/4
f 9/8/5 10/5/5 12/7/5
f 16/7/6 15/6/6 13/8/6
f 6/1/1 2/2/1 1/3/1
f 7/1/2 3/2/2 2/3/2
f 8/4/3 4/3/3 3/2/3
f 5/4/4 1/3/4 4/2/4
f 2/5/5 3/6/5 4/7/5
f 7/6/6 6/5/6 5/8/6
f 5/4/1 6/1/1 1/3/1
f 6/4/2 7/1/2 2/3/2
f 7/1/3 8/4/3 3/2/3
f 8/1/4 5/4/4 4/2/4
f 1/8/5 2/5/5 4/7/5
f 8/7/6 7/6/6 5/8/6
