# Blender 5.0.1
# www.blender.org
mtllib BridgeRailing.mtl
o Field01_F01
v -0.400000 0.100000 -0.509250
v -0.400000 0.900000 -0.509250
v 0.400000 0.900000 -0.509250
v 0.400000 0.100000 -0.509250
v -0.400000 0.100000 -0.490750
v -0.400000 0.900000 -0.490750
v 0.400000 0.900000 -0.490750
v 0.400000 0.100000 -0.490750
v -0.350000 0.150000 -0.509250
v -0.350000 0.850000 -0.509250
v 0.350000 0.850000 -0.509250
v 0.350000 0.150000 -0.509250
v -0.350000 0.150000 -0.490750
v -0.350000 0.850000 -0.490750
v 0.350000 0.850000 -0.490750
v 0.350000 0.150000 -0.490750
v -0.350000 0.150000 -0.505000
v -0.350000 0.850000 -0.505000
v 0.350000 0.850000 -0.505000
v 0.350000 0.150000 -0.505000
v -0.350000 0.150000 -0.495000
v -0.350000 0.850000 -0.495000
v 0.350000 0.850000 -0.495000
v 0.350000 0.150000 -0.495000
v -0.500000 0.168750 -0.509250
v -0.500000 0.231250 -0.509250
v -0.400000 0.231250 -0.509250
v -0.400000 0.168750 -0.509250
v -0.500000 0.168750 -0.490750
v -0.500000 0.231250 -0.490750
v -0.400000 0.231250 -0.490750
v -0.400000 0.168750 -0.490750
v -0.500000 0.768750 -0.509250
v -0.500000 0.831250 -0.509250
v -0.400000 0.831250 -0.509250
v -0.400000 0.768750 -0.509250
v -0.500000 0.768750 -0.490750
v -0.500000 0.831250 -0.490750
v -0.400000 0.831250 -0.490750
v -0.400000 0.768750 -0.490750
v 0.400000 0.168750 -0.509250
v 0.400000 0.231250 -0.509250
v 0.500000 0.231250 -0.509250
v 0.500000 0.168750 -0.509250
v 0.400000 0.168750 -0.490750
v 0.400000 0.231250 -0.490750
v 0.500000 0.231250 -0.490750
v 0.500000 0.168750 -0.490750
v 0.400000 0.768750 -0.509250
v 0.400000 0.831250 -0.509250
v 0.500000 0.831250 -0.509250
v 0.500000 0.768750 -0.509250
v 0.400000 0.768750 -0.490750
v 0.400000 0.831250 -0.490750
v 0.500000 0.831250 -0.490750
v 0.500000 0.768750 -0.490750
vn -1.0000 -0.0000 -0.0000
vn -0.0000 1.0000 -0.0000
vn 1.0000 -0.0000 -0.0000
vn -0.0000 -1.0000 -0.0000
vn -0.0000 -0.0000 1.0000
vn -0.0000 -0.0000 -1.0000
vt 0.539893 0.745000
vt 0.545443 0.745000
vt 0.545443 0.505000
vt 0.539889 0.505000
vt 0.625027 0.781241
vt 0.631027 0.775241
vt 0.712741 0.775241
vt 0.718741 0.781241
vt 0.712741 0.693504
vt 0.545443 0.520000
vt 0.545443 0.730000
vt 0.539893 0.730000
vt 0.539889 0.520000
vt 0.625027 0.687504
vt 0.631027 0.693504
vt 0.718741 0.687504
vt 1.145732 0.102893
vt 1.154982 0.102893
vt 1.154982 0.071643
vt 0.700357 0.732643
vt 0.700357 0.741893
vt 0.650357 0.741893
vt 1.145732 0.071643
vt 0.650357 0.732643
vt 0.625193 0.718962
vt 0.675193 0.718962
vt 0.675193 0.687712
vt 0.625193 0.687712
vt 0.875582 1.000075
vt 0.750632 1.000075
vt 0.750632 0.875125
vt 0.875582 0.875125
s 0
f 6/1/1 2/2/1 1/3/1
f 7/4/2 3/3/2 2/2/2
f 8/4/3 4/3/3 3/2/3
f 5/1/4 1/2/4 4/3/4
f 6/5/5 14/6/5 15/7/5
f 7/8/5 15/7/5 16/9/5
f 9/10/3 10/11/3 14/12/3
f 10/11/4 11/10/4 15/13/4
f 11/11/1 12/10/1 16/13/1
f 12/10/2 9/11/2 13/12/2
f 5/14/5 13/15/5 14/6/5
f 8/16/5 16/9/5 13/15/5
f 1/14/6 9/15/6 12/9/6
f 2/5/6 10/6/6 9/15/6
f 3/8/6 11/7/6 10/6/6
f 4/16/6 12/9/6 11/7/6
f 54/17/1 50/18/1 49/19/1
f 55/20/2 51/21/2 50/22/2
f 56/23/3 52/19/3 51/18/3
f 53/24/4 49/22/4 52/21/4
f 50/25/6 51/26/6 52/27/6
f 55/26/5 54/25/5 53/28/5
f 5/4/1 6/1/1 1/3/1
f 6/1/2 7/4/2 2/2/2
f 7/1/3 8/4/3 3/2/3
f 8/4/4 5/1/4 4/3/4
f 7/8/5 6/5/5 15/7/5
f 8/16/5 7/8/5 16/9/5
f 13/13/3 9/10/3 14/12/3
f 14/12/4 10/11/4 15/13/4
f 15/12/1 11/11/1 16/13/1
f 16/13/2 12/10/2 13/12/2
f 6/5/5 5/14/5 14/6/5
f 5/14/5 8/16/5 13/15/5
f 4/16/6 1/14/6 12/9/6
f 1/14/6 2/5/6 9/15/6
f 2/5/6 3/8/6 10/6/6
f 3/8/6 4/16/6 11/7/6
f 53/23/1 54/17/1 49/19/1
f 54/24/2 55/20/2 50/22/2
f 55/17/3 56/23/3 51/18/3
f 56/20/4 53/24/4 52/21/4
f 49/28/6 50/25/6 52/27/6
f 56/27/5 55/26/5 53/28/5
f 18/29/6 19/30/6 20/31/6
f 23/29/5 22/30/5 21/31/5
f 30/17/1 26/18/1 25/19/1
f 31/20/2 27/21/2 26/22/2
f 32/23/3 28/19/3 27/18/3
f 29/24/4 25/22/4 28/21/4
f 26/27/6 27/28/6 28/25/6
f 31/28/5 30/27/5 29/26/5
f 17/32/6 18/29/6 20/31/6
f 24/32/5 23/29/5 21/31/5
f 29/23/1 30/17/1 25/19/1
f 30/24/2 31/20/2 26/22/2
f 31/17/3 32/23/3 27/18/3
f 32/20/4 29/24/4 28/21/4
f 25/26/6 26/27/6 28/25/6
f 32/25/5 31/28/5 29/26/5
f 38/17/1 34/18/1 33/19/1
f 39/20/2 35/21/2 34/22/2
f 40/23/3 36/19/3 35/18/3
f 37/24/4 33/22/4 36/21/4
f 34/27/6 35/28/6 36/25/6
f 39/28/5 38/27/5 37/26/5
f 37/23/1 38/17/1 33/19/1
f 38/24/2 39/20/2 34/22/2
f 39/17/3 40/23/3 35/18/3
f 40/20/4 37/24/4 36/21/4
f 33/26/6 34/27/6 36/25/6
f 40/25/5 39/28/5 37/26/5
f 46/17/1 42/18/1 41/19/1
f 47/20/2 43/21/2 42/22/2
f 48/23/3 44/19/3 43/18/3
f 45/24/4 41/22/4 44/21/4
f 42/25/6 43/26/6 44/27/6
f 47/26/5 46/25/5 45/28/5
f 45/23/1 46/17/1 41/19/1
f 46/24/2 47/20/2 42/22/2
f 47/17/3 48/23/3 43/18/3
f 48/20/4 45/24/4 44/21/4
f 41/28/6 42/25/6 44/27/6
f 48/27/5 47/26/5 45/28/5
o Rod01_R01
v 0.468750 -0.050000 -0.468750
v 0.468750 -0.050000 -0.531250
v 0.531250 -0.050000 -0.531250
v 0.531250 -0.050000 -0.468750
v 0.468750 1.000000 -0.468750
v 0.468750 1.000000 -0.531250
v 0.531250 1.000000 -0.531250
v 0.531250 1.000000 -0.468750
v -0.531250 -0.050000 -0.468750
v -0.531250 -0.050000 -0.531250
v -0.468750 -0.050000 -0.531250
v -0.468750 -0.050000 -0.468750
v -0.531250 1.000000 -0.468750
v -0.531250 1.000000 -0.531250
v -0.468750 1.000000 -0.531250
v -0.468750 1.000000 -0.468750
vn -1.0000 -0.0000 -0.0000
vn -0.0000 -0.0000 -1.0000
vn 1.0000 -0.0000 -0.0000
vn -0.0000 -0.0000 1.0000
vn -0.0000 -1.0000 -0.0000
vn -0.0000 1.0000 -0.0000
vt 0.547086 0.706176
vt 0.547086 0.573876
vt 0.539211 0.573876
vt 0.539211 0.706176
vt 0.656899 0.754397
vt 0.688149 0.754397
vt 0.688149 0.723147
vt 0.656899 0.723147
s 0
f 70/33/7 66/34/7 65/35/7
f 71/33/8 67/34/8 66/35/8
f 72/36/9 68/35/9 67/34/9
f 69/36/10 65/35/10 68/34/10
f 66/37/11 67/38/11 68/39/11
f 71/38/12 70/37/12 69/40/12
f 69/36/7 70/33/7 65/35/7
f 70/36/8 71/33/8 66/35/8
f 71/33/9 72/36/9 67/34/9
f 72/33/10 69/36/10 68/34/10
f 65/40/11 66/37/11 68/39/11
f 72/39/12 71/38/12 69/40/12
f 62/33/7 58/34/7 57/35/7
f 63/33/8 59/34/8 58/35/8
f 64/36/9 60/35/9 59/34/9
f 61/36/10 57/35/10 60/34/10
f 58/37/11 59/38/11 60/39/11
f 63/38/12 62/37/12 61/40/12
f 61/36/7 62/33/7 57/35/7
f 62/36/8 63/33/8 58/35/8
f 63/33/9 64/36/9 59/34/9
f 64/33/10 61/36/10 60/34/10
f 57/40/11 58/37/11 60/39/11
f 64/39/12 63/38/12 61/40/12
