# Blender 5.0.1
# www.blender.org
mtllib BridgeLadder.mtl
o Ladder01_LA01
v -0.468750 0.480000 -0.531254
v -0.468750 0.480000 -0.400004
v -0.468750 0.520000 -0.400004
v -0.468750 0.520000 -0.531254
v 0.468750 0.480000 -0.531254
v 0.468750 0.480000 -0.400004
v 0.468750 0.520000 -0.400004
v 0.468750 0.520000 -0.531254
v -0.468750 -0.000000 -0.531254
v -0.468750 -0.000000 -0.468754
v -0.531250 -0.000000 -0.468754
v -0.531250 -0.000000 -0.531254
v -0.468750 1.000000 -0.531254
v -0.468750 1.000000 -0.468754
v -0.531250 1.000000 -0.468754
v -0.531250 1.000000 -0.531254
v 0.531250 -0.000000 -0.531254
v 0.531250 -0.000000 -0.468754
v 0.468750 -0.000000 -0.468754
v 0.468750 -0.000000 -0.531254
v 0.531250 1.000000 -0.531254
v 0.531250 1.000000 -0.468754
v 0.468750 1.000000 -0.468754
v 0.468750 1.000000 -0.531254
v -0.468750 0.680000 -0.531254
v -0.468750 0.680000 -0.400004
v -0.468750 0.720000 -0.400004
v -0.468750 0.720000 -0.531254
v 0.468750 0.680000 -0.531254
v 0.468750 0.680000 -0.400004
v 0.468750 0.720000 -0.400004
v 0.468750 0.720000 -0.531254
v -0.468750 0.880000 -0.531254
v -0.468750 0.880000 -0.400004
v -0.468750 0.920000 -0.400004
v -0.468750 0.920000 -0.531254
v 0.468750 0.880000 -0.531254
v 0.468750 0.880000 -0.400004
v 0.468750 0.920000 -0.400004
v 0.468750 0.920000 -0.531254
v -0.468750 0.280000 -0.531254
v -0.468750 0.280000 -0.400004
v -0.468750 0.320000 -0.400004
v -0.468750 0.320000 -0.531254
v 0.468750 0.280000 -0.531254
v 0.468750 0.280000 -0.400004
v 0.468750 0.320000 -0.400004
v 0.468750 0.320000 -0.531254
v -0.468750 0.080000 -0.531254
v -0.468750 0.080000 -0.400004
v -0.468750 0.120000 -0.400004
v -0.468750 0.120000 -0.531254
v 0.468750 0.080000 -0.531254
v 0.468750 0.080000 -0.400004
v 0.468750 0.120000 -0.400004
v 0.468750 0.120000 -0.531254
vn -0.0000 -1.0000 -0.0000
vn -0.0000 -0.0000 1.0000
vn -0.0000 1.0000 -0.0000
vn -0.0000 -0.0000 -1.0000
vn -1.0000 -0.0000 -0.0000
vn 1.0000 -0.0000 -0.0000
vt 0.547086 0.706176
vt 0.547086 0.573876
vt 0.539211 0.573876
vt 0.539211 0.706176
vt 0.656899 0.754397
vt 0.688149 0.754397
vt 0.688149 0.723147
vt 0.656899 0.723147
s 0
f 6/1/1 2/2/1 1/3/1
f 7/1/2 3/2/2 2/3/2
f 8/4/3 4/3/3 3/2/3
f 5/4/4 1/3/4 4/2/4
f 2/5/5 3/6/5 4/7/5
f 7/6/6 6/5/6 5/8/6
f 5/4/1 6/1/1 1/3/1
f 6/4/2 7/1/2 2/3/2
f 7/1/3 8/4/3 3/2/3
f 8/1/4 5/4/4 4/2/4
f 1/8/5 2/5/5 4/7/5
f 8/7/6 7/6/6 5/8/6
f 14/1/6 10/2/6 9/3/6
f 15/1/2 11/2/2 10/3/2
f 16/4/5 12/3/5 11/2/5
f 13/4/4 9/3/4 12/2/4
f 10/5/1 11/6/1 12/7/1
f 15/6/3 14/5/3 13/8/3
f 13/4/6 14/1/6 9/3/6
f 14/4/2 15/1/2 10/3/2
f 15/1/5 16/4/5 11/2/5
f 16/1/4 13/4/4 12/2/4
f 9/8/1 10/5/1 12/7/1
f 16/7/3 15/6/3 13/8/3
f 22/1/6 18/2/6 17/3/6
f 23/1/2 19/2/2 18/3/2
f 24/4/5 20/3/5 19/2/5
f 21/4/4 17/3/4 20/2/4
f 18/5/1 19/6/1 20/7/1
f 23/6/3 22/5/3 21/8/3
f 21/4/6 22/1/6 17/3/6
f 22/4/2 23/1/2 18/3/2
f 23/1/5 24/4/5 19/2/5
f 24/1/4 21/4/4 20/2/4
f 17/8/1 18/5/1 20/7/1
f 24/7/3 23/6/3 21/8/3
f 30/1/1 26/2/1 25/3/1
f 31/1/2 27/2/2 26/3/2
f 32/4/3 28/3/3 27/2/3
f 29/4/4 25/3/4 28/2/4
f 26/5/5 27/6/5 28/7/5
f 31/6/6 30/5/6 29/8/6
f 29/4/1 30/1/1 25/3/1
f 30/4/2 31/1/2 26/3/2
f 31/1/3 32/4/3 27/2/3
f 32/1/4 29/4/4 28/2/4
f 25/8/5 26/5/5 28/7/5
f 32/7/6 31/6/6 29/8/6
f 38/1/1 34/2/1 33/3/1
f 39/1/2 35/2/2 34/3/2
f 40/4/3 36/3/3 35/2/3
f 37/4/4 33/3/4 36/2/4
f 34/5/5 35/6/5 36/7/5
f 39/6/6 38/5/6 37/8/6
f 37/4/1 38/1/1 33/3/1
f 38/4/2 39/1/2 34/3/2
f 39/1/3 40/4/3 35/2/3
f 40/1/4 37/4/4 36/2/4
f 33/8/5 34/5/5 36/7/5
f 40/7/6 39/6/6 37/8/6
f 46/1/1 42/2/1 41/3/1
f 47/1/2 43/2/2 42/3/2
f 48/4/3 44/3/3 43/2/3
f 45/4/4 41/3/4 44/2/4
f 42/5/5 43/6/5 44/7/5
f 47/6/6 46/5/6 45/8/6
f 45/4/1 46/1/1 41/3/1
f 46/4/2 47/1/2 42/3/2
f 47/1/3 48/4/3 43/2/3
f 48/1/4 45/4/4 44/2/4
f 41/8/5 42/5/5 44/7/5
f 48/7/6 47/6/6 45/8/6
f 54/1/1 50/2/1 49/3/1
f 55/1/2 51/2/2 50/3/2
f 56/4/3 52/3/3 51/2/3
f 53/4/4 49/3/4 52/2/4
f 50/5/5 51/6/5 52/7/5
f 55/6/6 54/5/6 53/8/6
f 53/4/1 54/1/1 49/3/1
f 54/4/2 55/1/2 50/3/2
f 55/1/3 56/4/3 51/2/3
f 56/1/4 53/4/4 52/2/4
f 49/8/5 50/5/5 52/7/5
f 56/7/6 55/6/6 53/8/6
