# Blender 5.0.1
# www.blender.org
mtllib RailCross.mtl
o RailCross_RC
v 0.125000 0.437500 0.031486
v 0.212931 0.261639 0.031486
v 0.087931 0.199139 0.031486
v 0.000000 0.625000 0.062736
v -0.087931 0.800861 0.062736
v -0.212931 0.738361 0.062736
v -0.125000 0.437500 0.031486
v -0.125000 0.437500 0.062736
v -0.125000 0.562500 0.062736
v -0.212931 0.261639 0.062736
v -0.087931 0.199139 0.062736
v 0.000000 0.375000 0.062736
v 0.125000 0.562500 0.062736
v 0.000000 0.625000 0.031486
v 0.000000 0.375000 0.031486
v 0.125000 0.562500 0.031486
v 0.212931 0.738361 0.062736
v 0.087931 0.800861 0.062736
v -0.310759 0.065983 0.062736
v -0.185759 0.003483 0.062736
v -0.087931 0.199139 0.031486
v -0.212931 0.261639 0.031486
v 0.310759 0.065983 0.031486
v 0.185759 0.003483 0.031486
v 0.087931 0.199139 0.062736
v 0.212931 0.261639 0.062736
v 0.125000 0.437500 0.062736
v 0.310759 0.934017 0.062736
v 0.185759 0.996517 0.062736
v 0.087931 0.800861 0.031486
v 0.212931 0.738361 0.031486
v -0.185759 0.996517 0.062736
v -0.310759 0.934017 0.062736
v -0.212931 0.738361 0.031486
v -0.125000 0.562500 0.031486
v -0.087931 0.800861 0.031486
v -0.310759 0.934017 0.031486
v -0.185759 0.996517 0.031486
v 0.310759 0.934017 0.031486
v 0.185759 0.996517 0.031486
v -0.185759 0.003483 0.031486
v -0.310759 0.065983 0.031486
v 0.310759 0.065983 0.062736
v 0.185759 0.003483 0.062736
vn -0.0000 -0.0000 -1.0000
vn -0.0000 -0.0000 1.0000
vn -1.0000 -0.0000 -0.0000
vn 1.0000 -0.0000 -0.0000
vn -0.8944 0.4472 -0.0000
vn 0.8944 -0.4472 -0.0000
vn 0.8944 0.4472 -0.0000
vn -0.8944 -0.4472 -0.0000
vn -0.4472 0.8944 -0.0000
vn 0.4472 0.8944 -0.0000
vn -0.4472 -0.8944 -0.0000
vn 0.4472 -0.8944 -0.0000
vt 0.649490 0.349109
vt 0.578788 0.207704
vt 0.679297 0.157449
vt 0.250000 0.499874
vt 0.179297 0.641280
vt 0.078788 0.591025
vt 0.469749 0.999987
vt 0.469750 0.984861
vt 0.530252 0.984862
vt 0.149490 0.349109
vt 0.078788 0.207703
vt 0.179297 0.157449
vt 0.250000 0.298855
vt 0.350510 0.449619
vt 0.750000 0.499874
vt 0.750000 0.298855
vt 0.530252 0.999993
vt 0.421213 0.591025
vt 0.320703 0.641279
vt 0.000126 0.050381
vt 0.100636 0.000126
vt 0.820703 0.157449
vt 0.921213 0.207703
vt 0.374582 0.999986
vt 0.374582 0.984861
vt 0.000013 0.984856
vt 0.095181 0.984857
vt 0.095180 0.999983
vt 0.500126 0.050381
vt 0.600636 0.000126
vt 0.320703 0.157449
vt 0.421213 0.207703
vt 0.499874 0.748347
vt 0.399364 0.798602
vt 0.679297 0.641280
vt 0.578788 0.591025
vt 0.625420 0.984867
vt 0.625420 0.999993
vt 0.999988 0.999993
vt 0.904821 0.999993
vt 0.904821 0.984867
vt 0.100636 0.798602
vt 0.000126 0.748347
vt 0.850510 0.449619
vt 0.921213 0.591025
vt 0.820703 0.641279
vt 0.999988 0.984868
vt 0.731298 0.999990
vt 0.731299 0.984864
vt 0.798942 0.984865
vt 0.999874 0.748347
vt 0.899364 0.798602
vt 0.798942 0.999991
vt 0.600636 0.798602
vt 0.500126 0.748347
vt 0.201059 0.999984
vt 0.201059 0.984859
vt 0.268703 0.984859
vt 0.899364 0.000126
vt 0.999874 0.050381
vt 0.268703 0.999985
vt 0.399364 0.000126
vt 0.499874 0.050381
vt 0.149490 0.449619
vt 0.350510 0.349109
vt 0.850510 0.349109
vt 0.649490 0.449619
vt 0.000013 0.999982
s 0
f 1/1/1 2/2/1 3/3/1
f 4/4/2 5/5/2 6/6/2
f 7/7/3 8/8/3 9/9/3
f 8/10/2 10/11/2 11/12/2
f 4/4/2 12/13/2 13/14/2
f 14/15/1 1/1/1 15/16/1
f 1/8/4 16/9/4 13/17/4
f 13/14/2 17/18/2 18/19/2
f 10/11/2 19/20/2 20/21/2
f 15/16/1 21/22/1 22/23/1
f 7/7/5 22/24/5 10/25/5
f 12/26/6 11/27/6 21/28/6
f 2/2/1 23/29/1 24/30/1
f 12/13/2 25/31/2 26/32/2
f 1/8/7 27/7/7 26/24/7
f 15/26/8 3/27/8 25/28/8
f 17/18/2 28/33/2 29/34/2
f 14/15/1 30/35/1 31/36/1
f 16/9/6 31/37/6 17/38/6
f 4/39/5 18/40/5 30/41/5
f 5/5/2 32/42/2 33/43/2
f 9/9/8 6/37/8 34/38/8
f 35/44/1 34/45/1 36/46/1
f 4/47/7 14/39/7 36/40/7
f 37/48/9 33/49/9 32/50/9
f 6/37/8 33/49/8 37/48/8
f 34/45/1 37/51/1 38/52/1
f 36/40/7 38/53/7 32/50/7
f 29/53/10 28/48/10 39/49/10
f 30/35/1 40/54/1 39/55/1
f 31/37/6 39/49/6 28/48/6
f 18/40/5 29/53/5 40/50/5
f 41/56/11 20/57/11 19/58/11
f 21/22/1 41/59/1 42/60/1
f 11/27/6 20/57/6 41/56/6
f 22/24/5 42/61/5 19/58/5
f 24/57/12 23/58/12 43/61/12
f 25/31/2 44/62/2 43/63/2
f 26/24/7 43/61/7 23/58/7
f 3/27/8 24/57/8 44/56/8
f 15/16/1 1/1/1 3/3/1
f 9/64/2 4/4/2 6/6/2
f 35/17/3 7/7/3 9/9/3
f 12/13/2 8/10/2 11/12/2
f 12/13/2 4/4/2 9/64/2
f 12/13/2 27/65/2 13/14/2
f 9/64/2 8/10/2 12/13/2
f 7/66/1 35/44/1 14/15/1
f 14/15/1 15/16/1 7/66/1
f 16/67/1 1/1/1 14/15/1
f 27/7/4 1/8/4 13/17/4
f 4/4/2 13/14/2 18/19/2
f 11/12/2 10/11/2 20/21/2
f 7/66/1 15/16/1 22/23/1
f 8/8/5 7/7/5 10/25/5
f 15/68/6 12/26/6 21/28/6
f 3/3/1 2/2/1 24/30/1
f 27/65/2 12/13/2 26/32/2
f 2/25/7 1/8/7 26/24/7
f 12/68/8 15/26/8 25/28/8
f 18/19/2 17/18/2 29/34/2
f 16/67/1 14/15/1 31/36/1
f 13/17/6 16/9/6 17/38/6
f 14/47/5 4/39/5 30/41/5
f 6/6/2 5/5/2 33/43/2
f 35/17/8 9/9/8 34/38/8
f 14/15/1 35/44/1 36/46/1
f 5/41/7 4/47/7 36/40/7
f 38/53/9 37/48/9 32/50/9
f 34/38/8 6/37/8 37/48/8
f 36/46/1 34/45/1 38/52/1
f 5/41/7 36/40/7 32/50/7
f 40/50/10 29/53/10 39/49/10
f 31/36/1 30/35/1 39/55/1
f 17/38/6 31/37/6 28/48/6
f 30/41/5 18/40/5 40/50/5
f 42/61/11 41/56/11 19/58/11
f 22/23/1 21/22/1 42/60/1
f 21/28/6 11/27/6 41/56/6
f 10/25/5 22/24/5 19/58/5
f 44/56/12 24/57/12 43/61/12
f 26/32/2 25/31/2 43/63/2
f 2/25/7 26/24/7 23/58/7
f 25/28/8 3/27/8 44/56/8
