# Blender 5.1.0
# www.blender.org
mtllib SignalStativSemi.mtl
o zavazi_HP
v -0.312500 0.062500 0.281250
v -0.312500 0.062500 -0.281250
v -0.062500 0.062500 -0.281250
v -0.062500 0.062500 0.281250
v -0.312500 0.437500 0.281250
v -0.312500 0.437500 -0.281250
v -0.062500 0.437500 -0.281250
v -0.062500 0.437500 0.281250
vn -1.0000 -0.0000 -0.0000
vn -0.0000 -0.0000 -1.0000
vn 1.0000 -0.0000 -0.0000
vn -0.0000 -0.0000 1.0000
vn -0.0000 -1.0000 -0.0000
vn -0.0000 1.0000 -0.0000
vt 0.000000 0.750000
vt 0.000000 0.562500
vt 0.250000 0.562500
vt 0.374999 0.562501
vt 0.374999 0.749999
vt 0.249999 0.749999
vt 0.625000 0.562500
vt 0.750002 0.562500
vt 0.750002 0.750002
vt 0.625002 0.750002
vt 0.499999 1.000001
vt 0.375000 1.000001
vt 0.500000 0.750001
vt 0.250000 1.000001
s 0
f 6/1/1 2/2/1 1/3/1
f 7/4/2 3/5/2 2/6/2
f 8/5/3 4/4/3 3/7/3
f 5/8/4 1/9/4 4/10/4
f 2/11/5 3/12/5 4/5/5
f 7/6/6 6/5/6 5/12/6
f 5/6/1 6/1/1 1/3/1
f 6/3/2 7/4/2 2/6/2
f 7/10/3 8/5/3 3/7/3
f 8/7/4 5/8/4 4/10/4
f 1/13/5 2/11/5 4/5/5
f 8/14/6 7/6/6 5/12/6
o zavazi_VR
v -0.281250 0.062500 -0.382500
v 0.281250 0.062500 -0.382500
v 0.281250 0.062500 -0.132500
v -0.281250 0.062500 -0.132500
v -0.281250 0.437500 -0.382500
v 0.281250 0.437500 -0.382500
v 0.281250 0.437500 -0.132500
v -0.281250 0.437500 -0.132500
vn -0.0000 -0.0000 -1.0000
vn 1.0000 -0.0000 -0.0000
vn -0.0000 -0.0000 1.0000
vn -1.0000 -0.0000 -0.0000
vn -0.0000 -1.0000 -0.0000
vn -0.0000 1.0000 -0.0000
vt 0.000000 0.750000
vt 0.000000 0.562500
vt 0.250000 0.562500
vt 0.374999 0.562501
vt 0.374999 0.749999
vt 0.249999 0.749999
vt 0.625000 0.562500
vt 0.750002 0.562500
vt 0.750002 0.750002
vt 0.625002 0.750002
vt 0.499999 1.000001
vt 0.375000 1.000001
vt 0.500000 0.750001
vt 0.250000 1.000001
s 0
f 14/15/7 10/16/7 9/17/7
f 15/18/8 11/19/8 10/20/8
f 16/19/9 12/18/9 11/21/9
f 13/22/10 9/23/10 12/24/10
f 10/25/11 11/26/11 12/19/11
f 15/20/12 14/19/12 13/26/12
f 13/20/7 14/15/7 9/17/7
f 14/17/8 15/18/8 10/20/8
f 15/24/9 16/19/9 11/21/9
f 16/21/10 13/22/10 12/24/10
f 9/27/11 10/25/11 12/19/11
f 16/28/12 15/20/12 13/26/12
o stozar_1
v -0.062500 1.000000 -0.125000
v -0.062500 1.000000 -0.062500
v 0.062500 1.000000 -0.062500
v 0.062500 1.000000 -0.125000
v -0.062500 -0.000000 -0.125000
v -0.062500 -0.000000 -0.062500
v 0.062500 -0.000000 -0.062500
v 0.062500 -0.000000 -0.125000
v -0.062500 0.468750 0.062500
v -0.062500 0.468750 -0.062500
v 0.062500 0.468750 -0.062500
v 0.062500 0.468750 0.062500
v -0.062500 0.531250 0.062500
v -0.062500 0.531250 -0.062500
v 0.062500 0.531250 -0.062500
v 0.062500 0.531250 0.062500
v -0.062500 0.668750 0.062500
v -0.062500 0.668750 -0.062500
v 0.062500 0.668750 -0.062500
v 0.062500 0.668750 0.062500
v -0.062500 0.731250 0.062500
v -0.062500 0.731250 -0.062500
v 0.062500 0.731250 -0.062500
v 0.062500 0.731250 0.062500
v -0.062500 0.868750 0.062500
v -0.062500 0.868750 -0.062500
v 0.062500 0.868750 -0.062500
v 0.062500 0.868750 0.062500
v -0.062500 0.931250 0.062500
v -0.062500 0.931250 -0.062500
v 0.062500 0.931250 -0.062500
v 0.062500 0.931250 0.062500
v -0.062500 0.268750 0.062500
v -0.062500 0.268750 -0.062500
v 0.062500 0.268750 -0.062500
v 0.062500 0.268750 0.062500
v -0.062500 0.331250 0.062500
v -0.062500 0.331250 -0.062500
v 0.062500 0.331250 -0.062500
v 0.062500 0.331250 0.062500
v -0.062500 0.068750 0.062500
v -0.062500 0.068750 -0.062500
v 0.062500 0.068750 -0.062500
v 0.062500 0.068750 0.062500
v -0.062500 0.131250 0.062500
v -0.062500 0.131250 -0.062500
v 0.062500 0.131250 -0.062500
v 0.062500 0.131250 0.062500
v -0.062500 1.000000 0.062500
v -0.062500 1.000000 0.125000
v 0.062500 1.000000 0.125000
v 0.062500 1.000000 0.062500
v -0.062500 0.000000 0.062500
v -0.062500 0.000000 0.125000
v 0.062500 0.000000 0.125000
v 0.062500 0.000000 0.062500
vn -1.0000 -0.0000 -0.0000
vn -0.0000 -0.0000 1.0000
vn 1.0000 -0.0000 -0.0000
vn -0.0000 -0.0000 -1.0000
vn -0.0000 1.0000 -0.0000
vn -0.0000 -1.0000 -0.0000
vt 0.077815 -0.000000
vt 0.077815 0.500000
vt 0.046564 0.500000
vt 0.140321 -0.000000
vt 0.140321 0.500000
vt 0.077824 0.531236
vt 0.131245 0.165422
vt 0.167245 0.165422
vt 0.167245 0.237422
vt 0.095245 0.093422
vt 0.131245 0.093422
vt 0.167245 0.093422
vt 0.131245 0.237422
vt 0.095245 0.237422
vt 0.095245 0.165422
vt 0.023245 0.237422
vt 0.023245 0.165422
vt 0.046564 -0.000000
vt 0.140322 0.531236
vt 0.023245 0.093422
s 0
f 22/29/13 18/30/13 17/31/13
f 23/32/14 19/33/14 18/30/14
f 24/29/15 20/30/15 19/31/15
f 21/32/16 17/33/16 20/30/16
f 18/34/17 19/30/17 20/33/17
f 23/34/18 22/30/18 21/33/18
f 30/35/13 26/36/13 25/37/13
f 31/38/16 27/39/16 26/35/16
f 32/39/15 28/40/15 27/36/15
f 29/41/14 25/42/14 28/43/14
f 26/44/18 27/45/18 28/43/18
f 31/38/17 30/43/17 29/45/17
f 38/35/13 34/36/13 33/37/13
f 39/38/16 35/39/16 34/35/16
f 40/39/15 36/40/15 35/36/15
f 37/41/14 33/42/14 36/43/14
f 34/44/18 35/45/18 36/43/18
f 39/38/17 38/43/17 37/45/17
f 46/35/13 42/36/13 41/37/13
f 47/38/16 43/39/16 42/35/16
f 48/39/15 44/40/15 43/36/15
f 45/41/14 41/42/14 44/43/14
f 42/44/18 43/45/18 44/43/18
f 47/38/17 46/43/17 45/45/17
f 54/35/13 50/36/13 49/37/13
f 55/38/16 51/39/16 50/35/16
f 56/39/15 52/40/15 51/36/15
f 53/41/14 49/42/14 52/43/14
f 50/44/18 51/45/18 52/43/18
f 55/38/17 54/43/17 53/45/17
f 62/35/13 58/36/13 57/37/13
f 63/38/16 59/39/16 58/35/16
f 64/39/15 60/40/15 59/36/15
f 61/41/14 57/42/14 60/43/14
f 58/44/18 59/45/18 60/43/18
f 63/38/17 62/43/17 61/45/17
f 70/29/13 66/30/13 65/31/13
f 71/32/14 67/33/14 66/30/14
f 72/29/15 68/30/15 67/31/15
f 69/32/16 65/33/16 68/30/16
f 66/34/17 67/30/17 68/33/17
f 71/34/18 70/30/18 69/33/18
f 21/46/13 22/29/13 17/31/13
f 22/29/14 23/32/14 18/30/14
f 23/46/15 24/29/15 19/31/15
f 24/29/16 21/32/16 20/30/16
f 17/47/17 18/34/17 20/33/17
f 24/47/18 23/34/18 21/33/18
f 29/41/13 30/35/13 25/37/13
f 30/43/16 31/38/16 26/35/16
f 31/35/15 32/39/15 27/36/15
f 32/35/14 29/41/14 28/43/14
f 25/42/18 26/44/18 28/43/18
f 32/48/17 31/38/17 29/45/17
f 37/41/13 38/35/13 33/37/13
f 38/43/16 39/38/16 34/35/16
f 39/35/15 40/39/15 35/36/15
f 40/35/14 37/41/14 36/43/14
f 33/42/18 34/44/18 36/43/18
f 40/48/17 39/38/17 37/45/17
f 45/41/13 46/35/13 41/37/13
f 46/43/16 47/38/16 42/35/16
f 47/35/15 48/39/15 43/36/15
f 48/35/14 45/41/14 44/43/14
f 41/42/18 42/44/18 44/43/18
f 48/48/17 47/38/17 45/45/17
f 53/41/13 54/35/13 49/37/13
f 54/43/16 55/38/16 50/35/16
f 55/35/15 56/39/15 51/36/15
f 56/35/14 53/41/14 52/43/14
f 49/42/18 50/44/18 52/43/18
f 56/48/17 55/38/17 53/45/17
f 61/41/13 62/35/13 57/37/13
f 62/43/16 63/38/16 58/35/16
f 63/35/15 64/39/15 59/36/15
f 64/35/14 61/41/14 60/43/14
f 57/42/18 58/44/18 60/43/18
f 64/48/17 63/38/17 61/45/17
f 69/46/13 70/29/13 65/31/13
f 70/29/14 71/32/14 66/30/14
f 71/46/15 72/29/15 67/31/15
f 72/29/16 69/32/16 68/30/16
f 65/47/17 66/34/17 68/33/17
f 72/47/18 71/34/18 69/33/18
o cedule_HP
v -0.100000 0.450000 0.225000
v -0.100000 0.450000 0.212500
v 0.100000 0.450000 0.212500
v 0.100000 0.450000 0.225000
v -0.100000 0.650000 0.225000
v -0.100000 0.650000 0.212500
v 0.100000 0.650000 0.212500
v 0.100000 0.650000 0.225000
vn -1.0000 -0.0000 -0.0000
vn -0.0000 -0.0000 -1.0000
vn 1.0000 -0.0000 -0.0000
vn -0.0000 -0.0000 1.0000
vn -0.0000 -1.0000 -0.0000
vn -0.0000 1.0000 -0.0000
vt 0.662523 0.750000
vt 0.662523 1.000000
vt 0.637523 1.000000
vt 0.749950 0.750050
vt 0.749950 0.999950
vt 0.500050 0.999950
vt 0.687523 0.750000
vt 0.687523 1.000000
vt 0.500050 0.499950
vt 0.500050 0.250050
vt 0.749950 0.250050
vt 0.637523 0.750000
vt 0.612523 1.000000
vt 0.587523 1.000000
vt 0.587523 0.750000
vt 0.612523 0.750000
vt 0.500050 0.750050
vt 0.749950 0.499950
s 0
f 78/49/19 74/50/19 73/51/19
f 79/52/20 75/53/20 74/54/20
f 80/55/21 76/56/21 75/50/21
f 77/57/22 73/58/22 76/59/22
f 74/60/23 75/51/23 76/61/23
f 79/62/24 78/63/24 77/64/24
f 77/60/19 78/49/19 73/51/19
f 78/65/20 79/52/20 74/54/20
f 79/49/21 80/55/21 75/50/21
f 80/66/22 77/57/22 76/59/22
f 73/64/23 74/60/23 76/61/23
f 80/61/24 79/62/24 77/64/24
o cedule_drzak_HP
v -0.031250 0.518750 0.212500
v -0.031250 0.518750 0.125000
v 0.031250 0.518750 0.125000
v 0.031250 0.518750 0.212500
v -0.031250 0.581250 0.212500
v -0.031250 0.581250 0.125000
v 0.031250 0.581250 0.125000
v 0.031250 0.581250 0.212500
vn -1.0000 -0.0000 -0.0000
vn -0.0000 -0.0000 -1.0000
vn 1.0000 -0.0000 -0.0000
vn -0.0000 -0.0000 1.0000
vn -0.0000 -1.0000 -0.0000
vn -0.0000 1.0000 -0.0000
vt 0.131245 0.165422
vt 0.167245 0.165422
vt 0.167245 0.237422
vt 0.095245 0.093422
vt 0.131245 0.093422
vt 0.167245 0.093422
vt 0.131245 0.237422
vt 0.095245 0.237422
vt 0.095245 0.165422
vt 0.023245 0.237422
vt 0.023245 0.165422
vt 0.023245 0.093422
s 0
f 86/67/25 82/68/25 81/69/25
f 87/70/26 83/71/26 82/67/26
f 88/71/27 84/72/27 83/68/27
f 85/73/28 81/74/28 84/75/28
f 82/76/29 83/77/29 84/75/29
f 87/70/30 86/75/30 85/77/30
f 85/73/25 86/67/25 81/69/25
f 86/75/26 87/70/26 82/67/26
f 87/67/27 88/71/27 83/68/27
f 88/67/28 85/73/28 84/75/28
f 81/74/29 82/76/29 84/75/29
f 88/78/30 87/70/30 85/77/30
