# Blender 5.0.1
# www.blender.org
mtllib SignalLF1obj.mtl
o Cube.001_Cube.002
v -0.300000 1.000000 0.031740
v -0.300000 1.000000 0.060000
v 0.300000 1.000000 0.060000
v 0.300000 1.000000 0.031740
v 0.000000 0.400000 0.060000
v 0.000000 0.400000 0.031740
vn -0.8944 -0.4472 -0.0000
vn -0.0000 -0.0000 1.0000
vn 0.8944 -0.4472 -0.0000
vn -0.0000 1.0000 -0.0000
vn -0.0000 -0.0000 -1.0000
vt 0.000003 0.978938
vt 0.499988 0.978936
vt 0.499988 0.999999
vt 0.203406 0.572080
vt 0.406828 0.978923
vt 0.999974 0.978936
vt 0.999974 0.999998
vt 0.439986 0.978938
vt 0.439986 0.999996
vt 0.610250 0.572080
vt 0.000003 1.000001
s 0
f 1/1/1 6/2/1 5/3/1
f 2/1/2 5/4/2 3/5/2
f 6/2/3 4/6/3 3/7/3
f 2/1/4 3/8/4 4/9/4
f 1/10/5 4/4/5 6/5/5
f 2/11/1 1/1/1 5/3/1
f 5/3/3 6/2/3 3/7/3
f 1/11/4 2/1/4 4/9/4
o Cube_Cube.000
v 0.000000 -0.000000 -0.031250
v 0.000000 1.000000 -0.031250
v 0.011959 -0.000000 -0.028871
v 0.011959 1.000000 -0.028871
v 0.022097 -0.000000 -0.022097
v 0.022097 1.000000 -0.022097
v 0.028871 -0.000000 -0.011959
v 0.028871 1.000000 -0.011959
v 0.031250 0.000000 0.000000
v 0.031250 1.000000 -0.000000
v 0.028871 0.000000 0.011959
v 0.028871 1.000000 0.011959
v 0.022097 0.000000 0.022097
v 0.022097 1.000000 0.022097
v 0.011959 0.000000 0.028871
v 0.011959 1.000000 0.028871
v 0.000000 0.000000 0.031250
v 0.000000 1.000000 0.031250
v -0.011959 0.000000 0.028871
v -0.011959 1.000000 0.028871
v -0.022097 0.000000 0.022097
v -0.022097 1.000000 0.022097
v -0.028871 0.000000 0.011959
v -0.028871 1.000000 0.011959
v -0.031250 0.000000 0.000000
v -0.031250 1.000000 -0.000000
v -0.028871 -0.000000 -0.011959
v -0.028871 1.000000 -0.011959
v -0.022097 -0.000000 -0.022097
v -0.022097 1.000000 -0.022097
v -0.011959 -0.000000 -0.028871
v -0.011959 1.000000 -0.028871
vn 0.1951 -0.0000 -0.9808
vn 0.5556 -0.0000 -0.8315
vn 0.8315 -0.0000 -0.5556
vn 0.9808 -0.0000 -0.1951
vn 0.9808 -0.0000 0.1951
vn 0.8315 -0.0000 0.5556
vn 0.5556 -0.0000 0.8315
vn 0.1951 -0.0000 0.9808
vn -0.1951 -0.0000 0.9808
vn -0.5556 -0.0000 0.8315
vn -0.8315 -0.0000 0.5556
vn -0.9808 -0.0000 0.1951
vn -0.9808 -0.0000 -0.1951
vn -0.8315 -0.0000 -0.5556
vn -0.0000 1.0000 -0.0000
vn -0.1951 -0.0000 -0.9808
vn -0.5556 -0.0000 -0.8315
vn -0.0000 -1.0000 -0.0000
vt 0.875000 1.000000
vt 0.880979 1.000000
vt 0.880979 0.500000
vt 0.886049 1.000000
vt 0.886049 0.500000
vt 0.863951 0.500000
vt 0.869021 0.500000
vt 0.869021 1.000000
vt 0.875000 0.500000
vt 0.863951 1.000000
vt 0.880979 0.969287
vt 0.875000 0.968098
vt 0.869021 0.998159
vt 0.890625 0.983723
vt 0.886049 0.994771
vt 0.889436 0.977744
vt 0.886049 0.972674
vt 0.889436 0.989702
vt 0.875000 0.999348
vt 0.880979 0.998159
vt 0.860564 0.989702
vt 0.863951 0.994771
vt 0.859375 0.983723
vt 0.863951 0.972674
vt 0.860564 0.977744
vt 0.869021 0.969287
s 0
f 8/12/6 10/13/6 9/14/6
f 10/13/7 12/15/7 11/16/7
f 12/17/8 14/18/8 13/19/8
f 14/18/9 16/20/9 15/12/9
f 16/20/10 18/14/10 17/13/10
f 18/14/11 20/16/11 19/15/11
f 20/15/12 22/13/12 21/14/12
f 22/13/13 24/12/13 23/20/13
f 24/12/14 26/19/14 25/18/14
f 26/19/15 28/21/15 27/17/15
f 28/16/16 30/14/16 29/13/16
f 30/14/17 32/20/17 31/12/17
f 32/20/18 34/18/18 33/19/18
f 34/18/19 36/17/19 35/21/19
f 10/22/20 8/23/20 26/24/20
f 38/19/21 8/12/21 7/20/21
f 36/21/22 38/19/22 37/18/22
f 7/23/23 15/25/23 19/26/23
f 7/20/6 8/12/6 9/14/6
f 9/14/7 10/13/7 11/16/7
f 11/21/8 12/17/8 13/19/8
f 13/19/9 14/18/9 15/12/9
f 15/12/10 16/20/10 17/13/10
f 17/13/11 18/14/11 19/15/11
f 19/16/12 20/15/12 21/14/12
f 21/14/13 22/13/13 23/20/13
f 23/20/14 24/12/14 25/18/14
f 25/18/15 26/19/15 27/17/15
f 27/15/16 28/16/16 29/13/16
f 29/13/17 30/14/17 31/12/17
f 31/12/18 32/20/18 33/19/18
f 33/19/19 34/18/19 35/21/19
f 14/27/20 12/28/20 10/22/20
f 18/29/20 16/25/20 14/27/20
f 26/24/20 20/26/20 18/29/20
f 20/26/20 24/30/20 22/31/20
f 30/32/20 28/33/20 26/24/20
f 26/24/20 32/34/20 30/32/20
f 8/23/20 36/35/20 34/36/20
f 36/35/20 8/23/20 38/37/20
f 18/29/20 14/27/20 10/22/20
f 26/24/20 24/30/20 20/26/20
f 8/23/20 32/34/20 26/24/20
f 32/34/20 8/23/20 34/36/20
f 26/24/20 18/29/20 10/22/20
f 37/18/21 38/19/21 7/20/21
f 35/17/22 36/21/22 37/18/22
f 35/35/23 37/37/23 7/23/23
f 31/34/23 33/36/23 35/35/23
f 27/33/23 29/32/23 31/34/23
f 31/34/23 25/24/23 27/33/23
f 19/26/23 21/31/23 23/30/23
f 15/25/23 17/29/23 19/26/23
f 11/28/23 13/27/23 15/25/23
f 7/23/23 9/22/23 11/28/23
f 31/34/23 35/35/23 7/23/23
f 23/30/23 25/24/23 31/34/23
f 31/34/23 19/26/23 23/30/23
f 7/23/23 11/28/23 15/25/23
f 19/26/23 31/34/23 7/23/23
o Cube_Cube.001
v -0.060000 0.368750 0.030000
v -0.060000 0.368750 -0.030000
v -0.048041 0.371129 0.030000
v -0.048041 0.371129 -0.030000
v -0.037903 0.377903 0.030000
v -0.037903 0.377903 -0.030000
v -0.031129 0.388041 0.030000
v -0.031129 0.388041 -0.030000
v -0.028750 0.400000 0.030000
v -0.028750 0.400000 -0.030000
v -0.031129 0.411959 0.030000
v -0.031129 0.411959 -0.030000
v -0.037903 0.422097 0.030000
v -0.037903 0.422097 -0.030000
v -0.048041 0.428871 0.030000
v -0.048041 0.428871 -0.030000
v -0.060000 0.431250 0.030000
v -0.060000 0.431250 -0.030000
v -0.071959 0.428871 0.030000
v -0.071959 0.428871 -0.030000
v -0.082097 0.422097 0.030000
v -0.082097 0.422097 -0.030000
v -0.088871 0.411959 0.030000
v -0.088871 0.411959 -0.030000
v -0.091250 0.400000 0.030000
v -0.091250 0.400000 -0.030000
v -0.088871 0.388041 0.030000
v -0.088871 0.388041 -0.030000
v -0.082097 0.377903 0.030000
v -0.082097 0.377903 -0.030000
v -0.071959 0.371129 0.030000
v -0.071959 0.371129 -0.030000
vn 0.1951 -0.9808 -0.0000
vn 0.5556 -0.8315 -0.0000
vn 0.8315 -0.5556 -0.0000
vn 0.9808 -0.1951 -0.0000
vn 0.9808 0.1951 -0.0000
vn 0.8315 0.5556 -0.0000
vn 0.5556 0.8315 -0.0000
vn 0.1951 0.9808 -0.0000
vn -0.1951 0.9808 -0.0000
vn -0.5556 0.8315 -0.0000
vn -0.8315 0.5556 -0.0000
vn -0.9808 0.1951 -0.0000
vn -0.9808 -0.1951 -0.0000
vn -0.8315 -0.5556 -0.0000
vn -0.0000 -0.0000 -1.0000
vn -0.1951 -0.9808 -0.0000
vn -0.5556 -0.8315 -0.0000
vt 0.885283 0.936660
vt 0.891263 0.936660
vt 0.891263 0.966660
vt 0.896332 0.936660
vt 0.854235 0.936660
vt 0.859304 0.936660
vt 0.859304 0.966660
vt 0.865283 0.936660
vt 0.865283 0.966660
vt 0.871263 0.936660
vt 0.871263 0.966660
vt 0.876332 0.936660
vt 0.876332 0.966660
vt 0.885283 0.966660
vt 0.879304 0.936660
vt 0.879304 0.966660
vt 0.874235 0.936660
vt 0.889436 0.989702
vt 0.860564 0.977744
vt 0.860564 0.989702
vt 0.896332 0.966660
vt 0.854235 0.966660
vt 0.874235 0.966660
vt 0.889436 0.977744
vt 0.886049 0.972674
vt 0.880979 0.969287
vt 0.890625 0.983723
vt 0.880979 0.998159
vt 0.886049 0.994771
vt 0.875000 0.999348
vt 0.863951 0.994771
vt 0.869021 0.998159
vt 0.859375 0.983723
vt 0.869021 0.969287
vt 0.863951 0.972674
vt 0.875000 0.968098
s 0
f 40/38/24 42/39/24 41/40/24
f 41/40/25 42/39/25 44/41/25
f 44/42/26 46/43/26 45/44/26
f 46/43/27 48/45/27 47/46/27
f 48/45/28 50/47/28 49/48/28
f 50/47/29 52/49/29 51/50/29
f 52/41/30 54/39/30 53/40/30
f 54/39/31 56/38/31 55/51/31
f 56/38/32 58/52/32 57/53/32
f 57/53/33 58/52/33 60/54/33
f 59/50/34 60/49/34 62/47/34
f 61/48/35 62/47/35 64/45/35
f 63/46/36 64/45/36 66/43/36
f 65/44/37 66/43/37 68/42/37
f 50/55/38 66/56/38 62/57/38
f 69/53/39 70/52/39 40/38/39
f 68/54/40 70/52/40 69/53/40
f 39/51/24 40/38/24 41/40/24
f 43/58/25 41/40/25 44/41/25
f 43/59/26 44/42/26 45/44/26
f 45/44/27 46/43/27 47/46/27
f 47/46/28 48/45/28 49/48/28
f 49/48/29 50/47/29 51/50/29
f 51/58/30 52/41/30 53/40/30
f 53/40/31 54/39/31 55/51/31
f 55/51/32 56/38/32 57/53/32
f 59/60/33 57/53/33 60/54/33
f 61/48/34 59/50/34 62/47/34
f 63/46/35 61/48/35 64/45/35
f 65/44/36 63/46/36 66/43/36
f 67/59/37 65/44/37 68/42/37
f 46/61/38 44/62/38 42/63/38
f 50/55/38 48/64/38 46/61/38
f 54/65/38 52/66/38 50/55/38
f 50/55/38 56/67/38 54/65/38
f 62/57/38 60/68/38 58/69/38
f 66/56/38 64/70/38 62/57/38
f 70/71/38 68/72/38 66/56/38
f 66/56/38 46/61/38 70/71/38
f 40/73/38 46/61/38 42/63/38
f 62/57/38 56/67/38 50/55/38
f 56/67/38 62/57/38 58/69/38
f 46/61/38 40/73/38 70/71/38
f 66/56/38 50/55/38 46/61/38
f 39/51/39 69/53/39 40/38/39
f 67/60/40 68/54/40 69/53/40
o Cube_Cube.003
v 0.060000 0.068750 0.030000
v 0.060000 0.068750 -0.030000
v 0.071959 0.071129 0.030000
v 0.071959 0.071129 -0.030000
v 0.082097 0.077903 0.030000
v 0.082097 0.077903 -0.030000
v 0.088871 0.088041 0.030000
v 0.088871 0.088041 -0.030000
v 0.091250 0.100000 0.030000
v 0.091250 0.100000 -0.030000
v 0.088871 0.111959 0.030000
v 0.088871 0.111959 -0.030000
v 0.082097 0.122097 0.030000
v 0.082097 0.122097 -0.030000
v 0.071959 0.128871 0.030000
v 0.071959 0.128871 -0.030000
v 0.060000 0.131250 0.030000
v 0.060000 0.131250 -0.030000
v 0.048041 0.128871 0.030000
v 0.048041 0.128871 -0.030000
v 0.037903 0.122097 0.030000
v 0.037903 0.122097 -0.030000
v 0.031129 0.111959 0.030000
v 0.031129 0.111959 -0.030000
v 0.028750 0.100000 0.030000
v 0.028750 0.100000 -0.030000
v 0.031129 0.088041 0.030000
v 0.031129 0.088041 -0.030000
v 0.037903 0.077903 0.030000
v 0.037903 0.077903 -0.030000
v 0.048041 0.071129 0.030000
v 0.048041 0.071129 -0.030000
vn 0.1951 -0.9808 -0.0000
vn 0.5556 -0.8315 -0.0000
vn 0.8315 -0.5556 -0.0000
vn 0.9808 -0.1951 -0.0000
vn 0.9808 0.1951 -0.0000
vn 0.8315 0.5556 -0.0000
vn 0.5556 0.8315 -0.0000
vn 0.1951 0.9808 -0.0000
vn -0.1951 0.9808 -0.0000
vn -0.5556 0.8315 -0.0000
vn -0.8315 0.5556 -0.0000
vn -0.9808 0.1951 -0.0000
vn -0.9808 -0.1951 -0.0000
vn -0.8315 -0.5556 -0.0000
vn -0.0000 -0.0000 -1.0000
vn -0.1951 -0.9808 -0.0000
vn -0.5556 -0.8315 -0.0000
vt 0.885283 0.936660
vt 0.891263 0.936660
vt 0.891263 0.966660
vt 0.896332 0.936660
vt 0.854235 0.966660
vt 0.854235 0.936660
vt 0.859304 0.936660
vt 0.865283 0.936660
vt 0.865283 0.966660
vt 0.871263 0.936660
vt 0.871263 0.966660
vt 0.876332 0.936660
vt 0.876332 0.966660
vt 0.885283 0.966660
vt 0.879304 0.936660
vt 0.879304 0.966660
vt 0.874235 0.936660
vt 0.859304 0.966660
vt 0.889436 0.989702
vt 0.860564 0.977744
vt 0.860564 0.989702
vt 0.896332 0.966660
vt 0.874235 0.966660
vt 0.889436 0.977744
vt 0.886049 0.972674
vt 0.880979 0.969287
vt 0.890625 0.983723
vt 0.880979 0.998159
vt 0.886049 0.994771
vt 0.875000 0.999348
vt 0.863951 0.994771
vt 0.869021 0.998159
vt 0.859375 0.983723
vt 0.869021 0.969287
vt 0.863951 0.972674
vt 0.875000 0.968098
s 0
f 72/74/41 74/75/41 73/76/41
f 73/76/42 74/75/42 76/77/42
f 75/78/43 76/79/43 78/80/43
f 78/80/44 80/81/44 79/82/44
f 80/81/45 82/83/45 81/84/45
f 82/83/46 84/85/46 83/86/46
f 84/77/47 86/75/47 85/76/47
f 86/75/48 88/74/48 87/87/48
f 88/74/49 90/88/49 89/89/49
f 89/89/50 90/88/50 92/90/50
f 91/86/51 92/85/51 94/83/51
f 93/84/52 94/83/52 96/81/52
f 95/82/53 96/81/53 98/80/53
f 97/91/54 98/80/54 100/79/54
f 82/92/55 98/93/55 94/94/55
f 102/88/56 72/74/56 71/87/56
f 100/90/57 102/88/57 101/89/57
f 71/87/41 72/74/41 73/76/41
f 75/95/42 73/76/42 76/77/42
f 77/91/43 75/78/43 78/80/43
f 77/91/44 78/80/44 79/82/44
f 79/82/45 80/81/45 81/84/45
f 81/84/46 82/83/46 83/86/46
f 83/95/47 84/77/47 85/76/47
f 85/76/48 86/75/48 87/87/48
f 87/87/49 88/74/49 89/89/49
f 91/96/50 89/89/50 92/90/50
f 93/84/51 91/86/51 94/83/51
f 95/82/52 93/84/52 96/81/52
f 97/91/53 95/82/53 98/80/53
f 99/78/54 97/91/54 100/79/54
f 78/97/55 76/98/55 74/99/55
f 82/92/55 80/100/55 78/97/55
f 86/101/55 84/102/55 82/92/55
f 82/92/55 88/103/55 86/101/55
f 94/94/55 92/104/55 90/105/55
f 98/93/55 96/106/55 94/94/55
f 102/107/55 100/108/55 98/93/55
f 98/93/55 78/97/55 102/107/55
f 72/109/55 78/97/55 74/99/55
f 94/94/55 88/103/55 82/92/55
f 88/103/55 94/94/55 90/105/55
f 78/97/55 72/109/55 102/107/55
f 98/93/55 82/92/55 78/97/55
f 101/89/56 102/88/56 71/87/56
f 99/96/57 100/90/57 101/89/57
o Cube_Cube.002
v -0.060000 0.368750 0.030000
v -0.048041 0.371129 0.030000
v -0.037903 0.377903 0.030000
v -0.031129 0.388041 0.030000
v -0.028750 0.400000 0.030000
v -0.031129 0.411959 0.030000
v -0.037903 0.422097 0.030000
v -0.048041 0.428871 0.030000
v -0.060000 0.431250 0.030000
v -0.071959 0.428871 0.030000
v -0.082097 0.422097 0.030000
v -0.088871 0.411959 0.030000
v -0.091250 0.400000 0.030000
v -0.088871 0.388041 0.030000
v -0.082097 0.377903 0.030000
v -0.071959 0.371129 0.030000
vn -0.0000 -0.0000 1.0000
vt 0.174692 0.813380
vt 0.205942 0.813380
vt 0.190317 0.829005
vt 0.184338 0.798944
vt 0.190317 0.797755
vt 0.175882 0.807400
vt 0.179269 0.802331
vt 0.175882 0.819359
vt 0.184338 0.827815
vt 0.179269 0.824428
vt 0.204753 0.819359
vt 0.196297 0.827815
vt 0.201366 0.824428
vt 0.201366 0.802331
vt 0.204753 0.807400
vt 0.196297 0.798944
s 0
f 115/110/58 107/111/58 111/112/58
f 115/110/58 118/113/58 103/114/58
f 118/113/58 116/115/58 117/116/58
f 111/112/58 114/117/58 115/110/58
f 114/117/58 112/118/58 113/119/58
f 108/120/58 110/121/58 111/112/58
f 110/121/58 108/120/58 109/122/58
f 105/123/58 106/124/58 107/111/58
f 103/114/58 104/125/58 105/123/58
f 115/110/58 116/115/58 118/113/58
f 111/112/58 112/118/58 114/117/58
f 107/111/58 108/120/58 111/112/58
f 115/110/58 105/123/58 107/111/58
f 105/123/58 115/110/58 103/114/58
o Cube_Cube.004
v 0.060000 0.068750 0.030000
v 0.071959 0.071129 0.030000
v 0.082097 0.077903 0.030000
v 0.088871 0.088041 0.030000
v 0.091250 0.100000 0.030000
v 0.088871 0.111959 0.030000
v 0.082097 0.122097 0.030000
v 0.071959 0.128871 0.030000
v 0.060000 0.131250 0.030000
v 0.048041 0.128871 0.030000
v 0.037903 0.122097 0.030000
v 0.031129 0.111959 0.030000
v 0.028750 0.100000 0.030000
v 0.031129 0.088041 0.030000
v 0.037903 0.077903 0.030000
v 0.048041 0.071129 0.030000
vn -0.0000 -0.0000 1.0000
vt 0.174692 0.813380
vt 0.205942 0.813380
vt 0.190317 0.829005
vt 0.184338 0.798944
vt 0.190317 0.797755
vt 0.175882 0.807400
vt 0.179269 0.802331
vt 0.175882 0.819359
vt 0.184338 0.827815
vt 0.179269 0.824428
vt 0.204753 0.819359
vt 0.196297 0.827815
vt 0.201366 0.824428
vt 0.201366 0.802331
vt 0.204753 0.807400
vt 0.196297 0.798944
s 0
f 131/126/59 123/127/59 127/128/59
f 131/126/59 134/129/59 119/130/59
f 134/129/59 132/131/59 133/132/59
f 127/128/59 130/133/59 131/126/59
f 130/133/59 128/134/59 129/135/59
f 124/136/59 126/137/59 127/128/59
f 126/137/59 124/136/59 125/138/59
f 121/139/59 122/140/59 123/127/59
f 119/130/59 120/141/59 121/139/59
f 131/126/59 132/131/59 134/129/59
f 127/128/59 128/134/59 130/133/59
f 123/127/59 124/136/59 127/128/59
f 131/126/59 121/139/59 123/127/59
f 121/139/59 131/126/59 119/130/59
