# Blender 5.0.1
# www.blender.org
mtllib SignalBUZ.mtl
o PF201_PF01
v -0.144000 0.440250 0.056044
v -0.144000 0.440250 0.035700
v 0.144000 0.440250 0.035700
v 0.144000 0.440250 0.056044
v -0.144000 0.872250 0.056044
v -0.144000 0.872250 0.035700
v 0.144000 0.872250 0.035700
v 0.144000 0.872250 0.056044
vn -1.0000 -0.0000 -0.0000
vn -0.0000 -0.0000 -1.0000
vn 1.0000 -0.0000 -0.0000
vn -0.0000 -0.0000 1.0000
vn -0.0000 -1.0000 -0.0000
vn -0.0000 1.0000 -0.0000
vt 0.023441 1.000005
vt 0.023441 0.500012
vt -0.000050 0.500012
vt 0.664588 1.000005
vt 0.664588 0.500012
vt 0.332033 0.500012
vt -0.000050 1.000005
vt -0.000048 1.000005
vt -0.000048 0.500012
vt 0.332507 0.500012
vt -0.000048 0.523499
vt 0.332507 0.523499
vt 0.332033 1.000005
vt 0.332507 1.000005
s 1
f 6/1/1 2/2/1 1/3/1
f 7/4/2 3/5/2 2/6/2
f 8/7/3 4/3/3 3/2/3
f 5/8/4 1/9/4 4/10/4
f 2/11/5 3/12/5 4/10/5
f 7/12/6 6/11/6 5/9/6
f 5/7/1 6/1/1 1/3/1
f 6/13/2 7/4/2 2/6/2
f 7/1/3 8/7/3 3/2/3
f 8/14/4 5/8/4 4/10/4
f 1/9/5 2/11/5 4/10/5
f 8/10/6 7/12/6 5/9/6
o ZSign01_ZS01
v -0.140000 0.878750 0.055762
v -0.140000 0.878750 0.035983
v 0.140000 0.878750 0.035983
v 0.140000 0.878750 0.055762
v -0.140000 0.983750 0.055762
v -0.140000 0.983750 0.035983
v 0.140000 0.983750 0.035983
v 0.140000 0.983750 0.055762
vn -1.0000 -0.0000 -0.0000
vn -0.0000 -0.0000 -1.0000
vn 1.0000 -0.0000 -0.0000
vn -0.0000 -0.0000 1.0000
vn -0.0000 -1.0000 -0.0000
vn -0.0000 1.0000 -0.0000
vt 0.023441 1.000005
vt 0.023441 0.500012
vt -0.000050 0.500012
vt 0.664588 1.000005
vt 0.664588 0.500012
vt 0.332033 0.500012
vt -0.000050 1.000005
vt 0.000829 0.501155
vt 0.000829 0.366171
vt 0.332106 0.366171
vt -0.000048 0.523499
vt 0.332507 0.523499
vt 0.332507 0.500008
vt -0.000048 0.500008
vt 0.332033 1.000005
vt 0.332106 0.501155
s 1
f 14/15/7 10/16/7 9/17/7
f 15/18/8 11/19/8 10/20/8
f 16/21/9 12/17/9 11/16/9
f 13/22/10 9/23/10 12/24/10
f 10/25/11 11/26/11 12/27/11
f 15/26/12 14/25/12 13/28/12
f 13/21/7 14/15/7 9/17/7
f 14/29/8 15/18/8 10/20/8
f 15/15/9 16/21/9 11/16/9
f 16/30/10 13/22/10 12/24/10
f 9/28/11 10/25/11 12/27/11
f 16/27/12 15/26/12 13/28/12
