# Blender 5.0.1
# www.blender.org
mtllib SignalRA11.mtl
o Mast011_MA011
v -0.049998 1.000004 -0.050000
v -0.050003 1.000004 0.050000
v 0.049998 1.000004 0.050000
v 0.050003 1.000004 -0.050000
v -0.049998 0.000004 -0.050000
v -0.050003 0.000004 0.050000
v 0.049998 0.000004 0.050000
v 0.050003 0.000004 -0.050000
v -0.031250 0.232004 -0.050000
v -0.031250 0.232004 -0.239998
v 0.031250 0.232004 -0.239998
v 0.031250 0.232004 -0.050000
v -0.031250 0.242004 -0.050000
v -0.031250 0.242004 -0.239998
v 0.031250 0.242004 -0.239998
v 0.031250 0.242004 -0.050000
v -0.025000 0.232006 -0.060000
v -0.025000 0.232001 -0.239998
v 0.025000 0.232001 -0.239998
v 0.025000 0.232006 -0.060000
v -0.031250 0.162003 -0.050006
v -0.031250 0.162003 -0.186879
v 0.031250 0.162003 -0.186879
v 0.031250 0.162003 -0.050006
v -0.025000 0.162006 -0.060006
v -0.025000 0.162001 -0.186879
v 0.025000 0.162001 -0.186879
v 0.025000 0.162006 -0.060006
v -0.031250 0.832004 -0.050000
v -0.031250 0.832004 -0.239998
v 0.031250 0.832004 -0.239998
v 0.031250 0.832004 -0.050000
v -0.031250 0.842004 -0.050000
v -0.031250 0.842004 -0.239998
v 0.031250 0.842004 -0.239998
v 0.031250 0.842004 -0.050000
v -0.025000 0.832006 -0.060000
v -0.025000 0.832001 -0.239998
v 0.025000 0.832001 -0.239998
v 0.025000 0.832006 -0.060000
v -0.031250 0.762003 -0.050006
v -0.031250 0.762003 -0.186879
v 0.031250 0.762003 -0.186879
v 0.031250 0.762003 -0.050006
v -0.025000 0.762006 -0.060006
v -0.025000 0.762001 -0.186879
v 0.025000 0.762001 -0.186879
v 0.025000 0.762006 -0.060006
v 0.031250 0.586003 0.050000
v 0.031250 0.586003 0.239998
v -0.031250 0.586003 0.239998
v -0.031250 0.586003 0.050000
v 0.031250 0.596003 0.050000
v 0.031250 0.596003 0.239998
v -0.031250 0.596003 0.239998
v -0.031250 0.596003 0.050000
v 0.025000 0.586006 0.060000
v 0.025000 0.586001 0.239998
v -0.025000 0.586001 0.239998
v -0.025000 0.586006 0.060000
v 0.031250 0.516003 0.050006
v 0.031250 0.516003 0.186879
v -0.031250 0.516003 0.186879
v -0.031250 0.516003 0.050006
v 0.025000 0.516006 0.060006
v 0.025000 0.516001 0.186879
v -0.025000 0.516001 0.186879
v -0.025000 0.516006 0.060006
vn -1.0000 -0.0000 -0.0000
vn -0.0000 -0.0000 1.0000
vn 1.0000 -0.0000 -0.0000
vn -0.0000 -0.0000 -1.0000
vn -0.0000 1.0000 -0.0000
vn -0.0000 -1.0000 -0.0000
vn -0.0000 0.0001 -1.0000
vn 0.0003 -0.6045 -0.7966
vn 0.0002 -0.6045 -0.7966
vn 0.0002 -1.0000 -0.0002
vn 0.0003 -1.0000 -0.0001
vn -0.0003 -1.0000 -0.0001
vn -0.0002 -0.6045 -0.7966
vn -0.0002 -1.0000 -0.0000
vn -0.0002 -1.0000 -0.0002
vn 0.0002 -1.0000 -0.0000
vn -0.0003 -1.0000 -0.0000
vn -0.0000 -0.0001 1.0000
vn 0.0003 -1.0000 -0.0000
vn -0.0000 0.0001 1.0000
vn -0.0002 -0.6045 0.7966
vn -0.0002 -1.0000 0.0002
vn -0.0003 -1.0000 0.0001
vn 0.0003 -1.0000 0.0001
vn 0.0002 -0.6045 0.7966
vn 0.0002 -1.0000 0.0002
vn -0.0000 -0.0001 -1.0000
vn -0.0003 -0.6045 -0.7966
vt 0.515630 0.499999
vt 0.515630 0.749999
vt 0.500004 0.749999
vt 0.546883 0.765617
vt 0.515634 0.765617
vt 0.546883 0.749999
vt 0.590547 0.688050
vt 0.590547 0.683550
vt 0.505048 0.683550
vt 0.562504 0.691735
vt 0.562504 0.686735
vt 0.531254 0.686735
vt 0.505048 0.688050
vt 0.531254 0.691735
vt 0.559379 0.686736
vt 0.559379 0.651736
vt 0.534379 0.651736
vt 0.685173 0.777002
vt 0.657048 0.777002
vt 0.657048 0.691503
vt 0.659860 0.777002
vt 0.682360 0.777002
vt 0.682360 0.696003
vt 0.562504 0.651735
vt 0.659860 0.696005
vt 0.534379 0.686733
vt 0.531254 0.651735
vt 0.685173 0.691505
vt 0.509548 0.683551
vt 0.590547 0.683549
vt 0.590549 0.652049
vt 0.509550 0.652051
vt 0.505050 0.652050
vt 0.590549 0.652050
vt 0.500004 0.499999
s 1
f 6/1/1 2/2/1 1/3/1
f 7/1/2 3/2/2 2/3/2
f 8/1/3 4/2/3 3/3/3
f 5/1/4 1/2/4 4/3/4
f 1/4/5 2/5/5 3/2/5
f 7/5/6 6/2/6 5/6/6
f 14/7/1 10/8/1 9/9/1
f 15/10/4 11/11/4 10/12/4
f 16/13/3 12/9/3 11/8/3
f 13/14/2 9/12/2 12/11/2
f 20/15/7 28/16/7 25/17/7
f 15/18/5 14/19/5 13/20/5
f 18/21/6 19/22/6 20/23/6
f 19/15/8 11/11/8 23/24/9
f 21/20/10 25/25/11 28/23/12
f 18/26/13 26/17/13 22/27/13
f 23/18/14 24/28/15 28/23/12
f 22/19/16 26/21/17 25/25/11
f 20/29/1 19/30/1 27/31/1
f 17/29/3 25/32/3 26/31/3
f 9/12/2 21/27/18 24/24/18
f 12/9/3 24/33/3 23/34/3
f 9/9/1 10/8/1 22/34/1
f 34/7/1 30/8/1 29/9/1
f 35/10/4 31/11/4 30/12/4
f 36/13/3 32/9/3 31/8/3
f 33/14/2 29/12/2 32/11/2
f 40/15/7 48/16/7 45/17/7
f 35/18/5 34/19/5 33/20/5
f 38/21/6 39/22/6 40/23/6
f 39/15/8 31/11/8 43/24/9
f 41/20/10 45/25/11 48/23/12
f 38/26/13 46/17/13 42/27/13
f 43/18/17 44/28/15 48/23/12
f 42/19/19 46/21/17 45/25/11
f 40/29/1 39/30/1 47/31/1
f 37/29/3 45/32/3 46/31/3
f 29/12/2 41/27/18 44/24/18
f 32/9/3 44/33/3 43/34/3
f 29/9/1 30/8/1 42/34/1
f 54/7/3 50/8/3 49/9/3
f 55/10/2 51/11/2 50/12/2
f 56/13/1 52/9/1 51/8/1
f 53/14/4 49/12/4 52/11/4
f 60/15/20 68/16/20 65/17/20
f 55/18/5 54/19/5 53/20/5
f 58/21/6 59/22/6 60/23/6
f 59/15/21 51/11/21 63/24/21
f 61/20/22 65/25/23 68/23/24
f 58/26/25 66/17/25 62/27/25
f 63/18/19 64/28/26 68/23/24
f 62/19/17 66/21/19 65/25/23
f 60/29/3 59/30/3 67/31/3
f 57/29/1 65/32/1 66/31/1
f 49/12/4 61/27/27 64/24/27
f 52/9/1 64/33/1 63/34/1
f 49/9/3 50/8/3 62/34/3
f 5/35/1 6/1/1 1/3/1
f 6/35/2 7/1/2 2/3/2
f 7/35/3 8/1/3 3/3/3
f 8/35/4 5/1/4 4/3/4
f 4/6/5 1/4/5 3/2/5
f 8/4/6 7/5/6 5/6/6
f 13/13/1 14/7/1 9/9/1
f 14/14/4 15/10/4 10/12/4
f 15/7/3 16/13/3 11/8/3
f 16/10/2 13/14/2 12/11/2
f 17/26/7 20/15/7 25/17/7
f 16/28/5 15/18/5 13/20/5
f 17/25/6 18/21/6 20/23/6
f 27/16/9 19/15/8 23/24/9
f 24/28/15 21/20/10 28/23/12
f 10/12/28 18/26/28 22/27/28
f 27/22/19 23/18/14 28/23/12
f 21/20/10 22/19/16 25/25/11
f 28/32/1 20/29/1 27/31/1
f 18/30/3 17/29/3 26/31/3
f 12/11/2 9/12/2 24/24/18
f 11/8/3 12/9/3 23/34/3
f 21/33/1 9/9/1 22/34/1
f 33/13/1 34/7/1 29/9/1
f 34/14/4 35/10/4 30/12/4
f 35/7/3 36/13/3 31/8/3
f 36/10/2 33/14/2 32/11/2
f 37/26/7 40/15/7 45/17/7
f 36/28/5 35/18/5 33/20/5
f 37/25/6 38/21/6 40/23/6
f 47/16/9 39/15/8 43/24/9
f 44/28/15 41/20/10 48/23/12
f 30/12/28 38/26/28 42/27/28
f 47/22/19 43/18/17 48/23/12
f 41/20/10 42/19/19 45/25/11
f 48/32/1 40/29/1 47/31/1
f 38/30/3 37/29/3 46/31/3
f 32/11/2 29/12/2 44/24/18
f 31/8/3 32/9/3 43/34/3
f 41/33/1 29/9/1 42/34/1
f 53/13/3 54/7/3 49/9/3
f 54/14/2 55/10/2 50/12/2
f 55/7/1 56/13/1 51/8/1
f 56/10/4 53/14/4 52/11/4
f 57/26/20 60/15/20 65/17/20
f 56/28/5 55/18/5 53/20/5
f 57/25/6 58/21/6 60/23/6
f 67/16/21 59/15/21 63/24/21
f 64/28/26 61/20/22 68/23/24
f 50/12/25 58/26/25 62/27/25
f 67/22/17 63/18/19 68/23/24
f 61/20/22 62/19/17 65/25/23
f 68/32/3 60/29/3 67/31/3
f 58/30/1 57/29/1 66/31/1
f 52/11/4 49/12/4 64/24/27
f 51/8/1 52/9/1 63/34/1
f 61/33/3 49/9/3 62/34/3
o Mast02_MA02
v -0.049998 2.000000 -0.050000
v -0.050003 2.000000 0.050000
v 0.049998 2.000000 0.050000
v 0.050003 2.000000 -0.050000
v -0.049998 1.000000 -0.050000
v -0.050003 1.000000 0.050000
v 0.049998 1.000000 0.050000
v 0.050003 1.000000 -0.050000
v -0.031250 1.232000 -0.050000
v -0.031250 1.232000 -0.239998
v 0.031250 1.232000 -0.239998
v 0.031250 1.232000 -0.050000
v -0.031250 1.242000 -0.050000
v -0.031250 1.242000 -0.239998
v 0.031250 1.242000 -0.239998
v 0.031250 1.242000 -0.050000
v -0.025000 1.232002 -0.060000
v -0.025000 1.231997 -0.239998
v 0.025000 1.231997 -0.239998
v 0.025000 1.232002 -0.060000
v -0.031250 1.162000 -0.050006
v -0.031250 1.162000 -0.186879
v 0.031250 1.162000 -0.186879
v 0.031250 1.162000 -0.050006
v -0.025000 1.162002 -0.060006
v -0.025000 1.161998 -0.186879
v 0.025000 1.161998 -0.186879
v 0.025000 1.162002 -0.060006
v -0.031250 1.832000 -0.050000
v -0.031250 1.832000 -0.239998
v 0.031250 1.832000 -0.239998
v 0.031250 1.832000 -0.050000
v -0.031250 1.842000 -0.050000
v -0.031250 1.842000 -0.239998
v 0.031250 1.842000 -0.239998
v 0.031250 1.842000 -0.050000
v -0.025000 1.832003 -0.060000
v -0.025000 1.831998 -0.239998
v 0.025000 1.831998 -0.239998
v 0.025000 1.832003 -0.060000
v -0.031250 1.762000 -0.050006
v -0.031250 1.762000 -0.186879
v 0.031250 1.762000 -0.186879
v 0.031250 1.762000 -0.050006
v -0.025000 1.762003 -0.060006
v -0.025000 1.761998 -0.186879
v 0.025000 1.761998 -0.186879
v 0.025000 1.762003 -0.060006
v 0.031250 1.586000 0.050000
v 0.031250 1.586000 0.239998
v -0.031250 1.586000 0.239998
v -0.031250 1.586000 0.050000
v 0.031250 1.596000 0.050000
v 0.031250 1.596000 0.239998
v -0.031250 1.596000 0.239998
v -0.031250 1.596000 0.050000
v 0.025000 1.586002 0.060000
v 0.025000 1.585997 0.239998
v -0.025000 1.585997 0.239998
v -0.025000 1.586002 0.060000
v 0.031250 1.516000 0.050006
v 0.031250 1.516000 0.186879
v -0.031250 1.516000 0.186879
v -0.031250 1.516000 0.050006
v 0.025000 1.516002 0.060006
v 0.025000 1.515997 0.186879
v -0.025000 1.515997 0.186879
v -0.025000 1.516002 0.060006
vn -1.0000 -0.0000 -0.0000
vn -0.0000 -0.0000 1.0000
vn 1.0000 -0.0000 -0.0000
vn -0.0000 -0.0000 -1.0000
vn -0.0000 1.0000 -0.0000
vn -0.0000 -1.0000 -0.0000
vn -0.0000 0.0001 -1.0000
vn 0.0003 -0.6045 -0.7966
vn 0.0002 -0.6045 -0.7966
vn 0.0001 -1.0000 -0.0001
vn 0.0002 -1.0000 -0.0001
vn -0.0002 -1.0000 -0.0001
vn -0.0002 -0.6045 -0.7966
vn -0.0001 -1.0000 -0.0001
vn -0.0003 -1.0000 -0.0000
vn -0.0000 -0.0001 1.0000
vn 0.0002 -1.0000 -0.0002
vn 0.0003 -1.0000 -0.0001
vn -0.0003 -1.0000 -0.0001
vn -0.0002 -1.0000 -0.0000
vn -0.0002 -1.0000 -0.0002
vn 0.0002 -1.0000 -0.0000
vn -0.0000 0.0001 1.0000
vn -0.0003 -0.6045 0.7966
vn -0.0001 -1.0000 0.0001
vn -0.0002 -1.0000 0.0001
vn 0.0002 -1.0000 0.0001
vn 0.0003 -0.6045 0.7966
vn -0.0001 -1.0000 -0.0000
vn 0.0001 -1.0000 0.0001
vn 0.0001 -1.0000 -0.0000
vn 0.0005 -1.0000 -0.0000
vn -0.0000 -0.0001 -1.0000
vn -0.0003 -0.6045 -0.7966
vn 0.0003 -1.0000 -0.0000
vn -0.0005 -1.0000 -0.0000
vt 0.515630 0.499999
vt 0.515630 0.749999
vt 0.500004 0.749999
vt 0.546883 0.765617
vt 0.515634 0.765617
vt 0.546883 0.749999
vt 0.590547 0.688050
vt 0.590547 0.683550
vt 0.505048 0.683550
vt 0.562504 0.691735
vt 0.562504 0.686735
vt 0.531254 0.686735
vt 0.505048 0.688050
vt 0.531254 0.691735
vt 0.559379 0.686736
vt 0.559379 0.651736
vt 0.534379 0.651736
vt 0.685173 0.777002
vt 0.657048 0.777002
vt 0.657048 0.691503
vt 0.659860 0.777002
vt 0.682360 0.777002
vt 0.682360 0.696003
vt 0.562504 0.651735
vt 0.659860 0.696005
vt 0.534379 0.686733
vt 0.531254 0.651735
vt 0.685173 0.691505
vt 0.509548 0.683551
vt 0.590547 0.683549
vt 0.590549 0.652049
vt 0.509550 0.652051
vt 0.505050 0.652050
vt 0.590549 0.652050
vt 0.500004 0.499999
s 1
f 74/36/29 70/37/29 69/38/29
f 75/36/30 71/37/30 70/38/30
f 76/36/31 72/37/31 71/38/31
f 73/36/32 69/37/32 72/38/32
f 69/39/33 70/40/33 71/37/33
f 75/40/34 74/37/34 73/41/34
f 82/42/29 78/43/29 77/44/29
f 83/45/32 79/46/32 78/47/32
f 84/48/31 80/44/31 79/43/31
f 81/49/30 77/47/30 80/46/30
f 88/50/35 96/51/35 93/52/35
f 83/53/33 82/54/33 81/55/33
f 86/56/34 87/57/34 88/58/34
f 87/50/36 79/46/36 91/59/37
f 89/55/38 93/60/39 96/58/40
f 86/61/41 94/52/41 90/62/41
f 91/53/34 92/63/42 96/58/40
f 90/54/34 94/56/43 93/60/39
f 88/64/29 87/65/29 95/66/29
f 85/64/31 93/67/31 94/66/31
f 77/47/30 89/62/44 92/59/44
f 80/44/31 92/68/31 91/69/31
f 77/44/29 78/43/29 90/69/29
f 102/42/29 98/43/29 97/44/29
f 103/45/32 99/46/32 98/47/32
f 104/48/31 100/44/31 99/43/31
f 101/49/30 97/47/30 100/46/30
f 108/50/35 116/51/35 113/52/35
f 103/53/33 102/54/33 101/55/33
f 106/56/34 107/57/34 108/58/34
f 107/50/37 99/46/37 111/59/37
f 109/55/45 113/60/46 116/58/47
f 106/61/41 114/52/41 110/62/41
f 111/53/48 112/63/49 116/58/47
f 110/54/50 114/56/43 113/60/46
f 108/64/29 107/65/29 115/66/29
f 105/64/31 113/67/31 114/66/31
f 97/47/30 109/62/44 112/59/44
f 100/44/31 112/68/31 111/69/31
f 97/44/29 98/43/29 110/69/29
f 122/42/31 118/43/31 117/44/31
f 123/45/30 119/46/30 118/47/30
f 124/48/29 120/44/29 119/43/29
f 121/49/32 117/47/32 120/46/32
f 128/50/51 136/51/51 133/52/51
f 123/53/33 122/54/33 121/55/33
f 126/56/34 127/57/34 128/58/34
f 127/50/52 119/46/52 131/59/52
f 129/55/53 133/60/54 136/58/55
f 126/61/56 134/52/56 130/62/56
f 131/53/57 132/63/58 136/58/55
f 130/54/59 134/56/60 133/60/54
f 128/64/31 127/65/31 135/66/31
f 125/64/29 133/67/29 134/66/29
f 117/47/32 129/62/61 132/59/61
f 120/44/29 132/68/29 131/69/29
f 117/44/31 118/43/31 130/69/31
f 73/70/29 74/36/29 69/38/29
f 74/70/30 75/36/30 70/38/30
f 75/70/31 76/36/31 71/38/31
f 76/70/32 73/36/32 72/38/32
f 72/41/33 69/39/33 71/37/33
f 76/39/34 75/40/34 73/41/34
f 81/48/29 82/42/29 77/44/29
f 82/49/32 83/45/32 78/47/32
f 83/42/31 84/48/31 79/43/31
f 84/45/30 81/49/30 80/46/30
f 85/61/35 88/50/35 93/52/35
f 84/63/33 83/53/33 81/55/33
f 85/60/34 86/56/34 88/58/34
f 95/51/37 87/50/36 91/59/37
f 92/63/42 89/55/38 96/58/40
f 78/47/62 86/61/62 90/62/62
f 95/57/63 91/53/34 96/58/40
f 89/55/38 90/54/34 93/60/39
f 96/67/29 88/64/29 95/66/29
f 86/65/31 85/64/31 94/66/31
f 80/46/30 77/47/30 92/59/44
f 79/43/31 80/44/31 91/69/31
f 89/68/29 77/44/29 90/69/29
f 101/48/29 102/42/29 97/44/29
f 102/49/32 103/45/32 98/47/32
f 103/42/31 104/48/31 99/43/31
f 104/45/30 101/49/30 100/46/30
f 105/61/35 108/50/35 113/52/35
f 104/63/33 103/53/33 101/55/33
f 105/60/34 106/56/34 108/58/34
f 115/51/37 107/50/37 111/59/37
f 112/63/49 109/55/45 116/58/47
f 98/47/41 106/61/41 110/62/41
f 115/57/63 111/53/48 116/58/47
f 109/55/45 110/54/50 113/60/46
f 116/67/29 108/64/29 115/66/29
f 106/65/31 105/64/31 114/66/31
f 100/46/30 97/47/30 112/59/44
f 99/43/31 100/44/31 111/69/31
f 109/68/29 97/44/29 110/69/29
f 121/48/31 122/42/31 117/44/31
f 122/49/30 123/45/30 118/47/30
f 123/42/29 124/48/29 119/43/29
f 124/45/32 121/49/32 120/46/32
f 125/61/51 128/50/51 133/52/51
f 124/63/33 123/53/33 121/55/33
f 125/60/34 126/56/34 128/58/34
f 135/51/52 127/50/52 131/59/52
f 132/63/58 129/55/53 136/58/55
f 118/47/56 126/61/56 130/62/56
f 135/57/64 131/53/57 136/58/55
f 129/55/53 130/54/59 133/60/54
f 136/67/31 128/64/31 135/66/31
f 126/65/29 125/64/29 134/66/29
f 120/46/32 117/47/32 132/59/61
f 119/43/29 120/44/29 131/69/29
f 129/68/31 117/44/31 130/69/31
o Mast03_MA03
v -0.049998 3.000000 -0.050000
v -0.050003 3.000000 0.050000
v 0.049998 3.000000 0.050000
v 0.050003 3.000000 -0.050000
v -0.049998 2.000000 -0.050000
v -0.050003 2.000000 0.050000
v 0.049998 2.000000 0.050000
v 0.050003 2.000000 -0.050000
v -0.031250 2.232000 -0.050000
v -0.031250 2.232000 -0.239998
v 0.031250 2.232000 -0.239998
v 0.031250 2.232000 -0.050000
v -0.031250 2.242000 -0.050000
v -0.031250 2.242000 -0.239998
v 0.031250 2.242000 -0.239998
v 0.031250 2.242000 -0.050000
v -0.025000 2.232002 -0.060000
v -0.025000 2.231997 -0.239998
v 0.025000 2.231997 -0.239998
v 0.025000 2.232002 -0.060000
v -0.031250 2.162000 -0.050006
v -0.031250 2.162000 -0.186879
v 0.031250 2.162000 -0.186879
v 0.031250 2.162000 -0.050006
v -0.025000 2.162003 -0.060006
v -0.025000 2.161998 -0.186879
v 0.025000 2.161998 -0.186879
v 0.025000 2.162003 -0.060006
v -0.031250 2.832000 -0.050000
v -0.031250 2.832000 -0.239998
v 0.031250 2.832000 -0.239998
v 0.031250 2.832000 -0.050000
v -0.031250 2.842000 -0.050000
v -0.031250 2.842000 -0.239998
v 0.031250 2.842000 -0.239998
v 0.031250 2.842000 -0.050000
v -0.025000 2.832003 -0.060000
v -0.025000 2.831997 -0.239998
v 0.025000 2.831997 -0.239998
v 0.025000 2.832003 -0.060000
v -0.031250 2.762000 -0.050006
v -0.031250 2.762000 -0.186879
v 0.031250 2.762000 -0.186879
v 0.031250 2.762000 -0.050006
v -0.025000 2.762002 -0.060006
v -0.025000 2.761998 -0.186879
v 0.025000 2.761998 -0.186879
v 0.025000 2.762002 -0.060006
vn -1.0000 -0.0000 -0.0000
vn -0.0000 -0.0000 1.0000
vn 1.0000 -0.0000 -0.0000
vn -0.0000 -0.0000 -1.0000
vn -0.0000 1.0000 -0.0000
vn -0.0000 -1.0000 -0.0000
vn -0.0000 0.0001 -1.0000
vn 0.0003 -0.6045 -0.7966
vn 0.0002 -0.6045 -0.7966
vn 0.0002 -1.0000 -0.0002
vn 0.0003 -1.0000 -0.0001
vn -0.0003 -1.0000 -0.0001
vn -0.0002 -0.6045 -0.7966
vn -0.0002 -1.0000 -0.0000
vn -0.0002 -1.0000 -0.0002
vn 0.0002 -1.0000 -0.0000
vn -0.0003 -1.0000 -0.0000
vn -0.0000 -0.0001 1.0000
vn 0.0001 -1.0000 -0.0001
vn 0.0002 -1.0000 -0.0001
vn -0.0002 -1.0000 -0.0001
vn -0.0001 -1.0000 -0.0001
vn -0.0003 -0.6045 -0.7966
vn 0.0003 -1.0000 -0.0000
vt 0.515630 0.499999
vt 0.515630 0.749999
vt 0.500004 0.749999
vt 0.546883 0.765617
vt 0.515634 0.765617
vt 0.546883 0.749999
vt 0.590547 0.688050
vt 0.590547 0.683550
vt 0.505048 0.683550
vt 0.562504 0.691735
vt 0.562504 0.686735
vt 0.531254 0.686735
vt 0.505048 0.688050
vt 0.531254 0.691735
vt 0.559379 0.686736
vt 0.559379 0.651736
vt 0.534379 0.651736
vt 0.685173 0.777002
vt 0.657048 0.777002
vt 0.657048 0.691503
vt 0.659860 0.777002
vt 0.682360 0.777002
vt 0.682360 0.696003
vt 0.562504 0.651735
vt 0.659860 0.696005
vt 0.534379 0.686733
vt 0.531254 0.651735
vt 0.685173 0.691505
vt 0.509548 0.683551
vt 0.590547 0.683549
vt 0.590549 0.652049
vt 0.509550 0.652051
vt 0.505050 0.652050
vt 0.590549 0.652050
vt 0.500004 0.499999
s 1
f 142/71/65 138/72/65 137/73/65
f 143/71/66 139/72/66 138/73/66
f 144/71/67 140/72/67 139/73/67
f 141/71/68 137/72/68 140/73/68
f 137/74/69 138/75/69 139/72/69
f 143/75/70 142/72/70 141/76/70
f 150/77/65 146/78/65 145/79/65
f 151/80/68 147/81/68 146/82/68
f 152/83/67 148/79/67 147/78/67
f 149/84/66 145/82/66 148/81/66
f 156/85/71 164/86/71 161/87/71
f 151/88/69 150/89/69 149/90/69
f 154/91/70 155/92/70 156/93/70
f 155/85/72 147/81/72 159/94/73
f 157/90/74 161/95/75 164/93/76
f 154/96/77 162/87/77 158/97/77
f 159/88/78 160/98/79 164/93/76
f 158/89/80 162/91/81 161/95/75
f 156/99/65 155/100/65 163/101/65
f 153/99/67 161/102/67 162/101/67
f 145/82/66 157/97/82 160/94/82
f 148/79/67 160/103/67 159/104/67
f 145/79/65 146/78/65 158/104/65
f 170/77/65 166/78/65 165/79/65
f 171/80/68 167/81/68 166/82/68
f 172/83/67 168/79/67 167/78/67
f 169/84/66 165/82/66 168/81/66
f 176/85/71 184/86/71 181/87/71
f 171/88/69 170/89/69 169/90/69
f 174/91/70 175/92/70 176/93/70
f 175/85/72 167/81/72 179/94/73
f 177/90/83 181/95/84 184/93/85
f 174/96/77 182/87/77 178/97/77
f 179/88/70 180/98/86 184/93/85
f 178/89/70 182/91/81 181/95/84
f 176/99/65 175/100/65 183/101/65
f 173/99/67 181/102/67 182/101/67
f 165/82/66 177/97/82 180/94/82
f 168/79/67 180/103/67 179/104/67
f 165/79/65 166/78/65 178/104/65
f 141/105/65 142/71/65 137/73/65
f 142/105/66 143/71/66 138/73/66
f 143/105/67 144/71/67 139/73/67
f 144/105/68 141/71/68 140/73/68
f 140/76/69 137/74/69 139/72/69
f 144/74/70 143/75/70 141/76/70
f 149/83/65 150/77/65 145/79/65
f 150/84/68 151/80/68 146/82/68
f 151/77/67 152/83/67 147/78/67
f 152/80/66 149/84/66 148/81/66
f 153/96/71 156/85/71 161/87/71
f 152/98/69 151/88/69 149/90/69
f 153/95/70 154/91/70 156/93/70
f 163/86/73 155/85/72 159/94/73
f 160/98/79 157/90/74 164/93/76
f 146/82/87 154/96/87 158/97/87
f 163/92/88 159/88/78 164/93/76
f 157/90/74 158/89/80 161/95/75
f 164/102/65 156/99/65 163/101/65
f 154/100/67 153/99/67 162/101/67
f 148/81/66 145/82/66 160/94/82
f 147/78/67 148/79/67 159/104/67
f 157/103/65 145/79/65 158/104/65
f 169/83/65 170/77/65 165/79/65
f 170/84/68 171/80/68 166/82/68
f 171/77/67 172/83/67 167/78/67
f 172/80/66 169/84/66 168/81/66
f 173/96/71 176/85/71 181/87/71
f 172/98/69 171/88/69 169/90/69
f 173/95/70 174/91/70 176/93/70
f 183/86/73 175/85/72 179/94/73
f 180/98/86 177/90/83 184/93/85
f 166/82/87 174/96/87 178/97/87
f 183/92/88 179/88/70 184/93/85
f 177/90/83 178/89/70 181/95/84
f 184/102/65 176/99/65 183/101/65
f 174/100/67 173/99/67 182/101/67
f 168/81/66 165/82/66 180/94/82
f 167/78/67 168/79/67 179/104/67
f 177/103/65 165/79/65 178/104/65
o Mastschild03_MS03
v -0.062500 0.200000 0.252000
v -0.062500 0.200000 0.239500
v 0.062500 0.200000 0.239500
v 0.062500 0.200000 0.252000
v -0.062500 1.800000 0.252000
v -0.062500 1.800000 0.239500
v 0.062500 1.800000 0.239500
v 0.062500 1.800000 0.252000
vn -1.0000 -0.0000 -0.0000
vn -0.0000 -0.0000 -1.0000
vn 1.0000 -0.0000 -0.0000
vn -0.0000 -0.0000 1.0000
vn -0.0000 -1.0000 -0.0000
vn -0.0000 1.0000 -0.0000
vt 0.989135 0.875004
vt 0.989135 1.000004
vt 0.983700 1.000004
vt 0.968823 0.875004
vt 0.968823 1.000004
vt 0.906615 1.000004
vt 0.994570 0.875004
vt 0.968762 0.203864
vt 0.968762 0.578180
vt 1.000372 0.578180
vt 1.000005 0.890629
vt 1.000005 0.906254
vt 0.994570 0.906254
vt 0.994570 0.890629
vt 1.000005 0.875004
vt 0.983700 0.875004
vt 0.906615 0.875004
vt 0.994570 1.000004
vt 1.000372 0.203864
s 1
f 190/106/89 186/107/89 185/108/89
f 191/109/90 187/110/90 186/111/90
f 192/107/91 188/106/91 187/112/91
f 189/113/92 185/114/92 188/115/92
f 186/116/93 187/117/93 188/118/93
f 191/119/94 190/112/94 189/120/94
f 189/121/89 190/106/89 185/108/89
f 190/122/90 191/109/90 186/111/90
f 191/123/91 192/107/91 187/112/91
f 192/124/92 189/113/92 188/115/92
f 185/119/93 186/116/93 188/118/93
f 192/116/94 191/119/94 189/120/94
o NightLight01_NL01
v 0.000000 3.030077 0.284727
v 0.022249 3.026948 0.287856
v 0.041111 3.018037 0.296768
v 0.053714 3.004699 0.310106
v 0.058140 2.988966 0.325838
v 0.053714 2.973234 0.341571
v 0.041111 2.959896 0.354908
v 0.022249 2.950984 0.363820
v 0.000000 2.947855 0.366949
v -0.022249 2.950984 0.363820
v -0.041111 2.959896 0.354908
v -0.053714 2.973234 0.341571
v -0.058140 2.988966 0.325838
v -0.053714 3.004699 0.310106
v -0.041111 3.018037 0.296768
v -0.022249 3.026948 0.287856
vn -0.0000 -0.7071 -0.7071
vn -0.0001 -0.7071 -0.7071
vn 0.0002 -0.7071 -0.7071
vn -0.0002 -0.7071 -0.7071
vn 0.0001 -0.7071 -0.7071
vt 0.887432 0.250000
vt 0.937500 0.450270
vt 0.927985 0.641611
vt 0.822015 0.358385
vt 0.862568 0.250000
vt 0.839597 0.288058
vt 0.812500 0.549727
vt 0.812500 0.450273
vt 0.862568 0.749999
vt 0.839597 0.711940
vt 0.822015 0.641615
vt 0.910403 0.711940
vt 0.887432 0.750000
vt 0.937500 0.549728
vt 0.910403 0.288060
vt 0.927985 0.358384
s 1
f 193/125/95 196/126/95 198/127/95
f 206/128/95 208/129/95 193/125/95
f 208/129/95 206/128/95 207/130/96
f 206/128/95 204/131/95 205/132/97
f 201/133/95 202/134/95 203/135/95
f 199/136/95 200/137/95 201/133/95
f 201/133/95 198/127/95 199/136/95
f 198/127/95 196/126/95 197/138/98
f 196/126/95 194/139/95 195/140/99
f 204/131/95 206/128/95 193/125/95
f 201/133/95 203/135/95 204/131/95
f 193/125/95 198/127/95 201/133/95
f 193/125/95 194/139/95 196/126/95
f 201/133/95 204/131/95 193/125/95
o NightLight02_NL02
v 0.000000 3.029568 0.284225
v 0.022249 3.026438 0.287354
v 0.041111 3.017527 0.296266
v 0.053714 3.004189 0.309603
v 0.058140 2.988457 0.325336
v 0.053714 2.972724 0.341069
v 0.041111 2.959387 0.354406
v 0.022249 2.950475 0.363318
v 0.000000 2.947346 0.366447
v -0.022249 2.950475 0.363318
v -0.041111 2.959387 0.354406
v -0.053714 2.972724 0.341069
v -0.058140 2.988457 0.325336
v -0.053714 3.004189 0.309603
v -0.041111 3.017527 0.296266
v -0.022249 3.026438 0.287354
v 0.000000 2.969898 0.078360
v 0.070085 2.955957 0.078360
v 0.129500 2.916258 0.078361
v 0.169200 2.856843 0.078361
v 0.183141 2.786757 0.078360
v 0.169200 2.716673 0.078361
v 0.129500 2.657257 0.078360
v 0.070085 2.617557 0.078360
v 0.000000 2.603617 0.078361
v -0.070085 2.617557 0.078360
v -0.129501 2.657257 0.078360
v -0.169201 2.716673 0.078361
v -0.183141 2.786757 0.078360
v -0.169201 2.856843 0.078361
v -0.129501 2.916258 0.078361
v -0.070085 2.955957 0.078360
vn -0.6716 -0.3650 0.6448
vn -0.8701 -0.0735 0.4874
vn -0.7059 -0.3375 0.6228
vn -0.0000 -0.6346 0.7729
vn -0.3620 -0.5646 0.7417
vn -0.2400 -0.6126 0.7530
vn 0.3620 -0.5646 0.7417
vn 0.2400 -0.6126 0.7530
vn 0.4798 -0.5165 0.7092
vn 0.8701 -0.0735 0.4874
vn 0.7059 -0.3375 0.6228
vn 0.8794 -0.0586 0.4725
vn -0.3332 0.9144 -0.2298
vn -0.0000 0.9605 -0.2784
vn -0.0000 0.9600 -0.2799
vn 0.8318 0.5482 0.0868
vn 0.9199 0.3052 0.2461
vn 0.7511 0.6600 -0.0138
vn -0.8318 0.5482 0.0868
vn -0.6239 0.7754 -0.0975
vn -0.7511 0.6600 -0.0138
vn 0.3332 0.9144 -0.2298
vn 0.4091 0.8879 -0.2103
vn -0.9229 0.2515 0.2915
vn -0.8794 -0.0586 0.4725
vn -0.4798 -0.5165 0.7092
vn -0.0000 -0.6423 0.7664
vn 0.6716 -0.3650 0.6448
vn 0.9229 0.2515 0.2915
vn -0.4091 0.8879 -0.2103
vn 0.6239 0.7754 -0.0975
vn -0.9199 0.3052 0.2461
vt 0.966977 0.620846
vt 0.816387 0.620846
vt 0.816387 0.127571
vt 0.966977 0.127571
s 1
f 219/141/100 220/142/101 236/143/102
f 217/141/103 218/142/104 234/143/105
f 216/142/106 232/143/107 231/144/108
f 214/142/109 230/143/110 229/144/111
f 224/141/112 209/142/113 225/143/114
f 212/142/115 228/143/116 227/144/117
f 222/141/118 223/142/119 239/143/120
f 210/142/121 226/143/122 225/144/114
f 220/141/101 221/142/123 237/143/124
f 218/141/104 219/142/100 235/143/125
f 217/142/103 233/143/126 232/144/107
f 215/142/127 231/143/108 230/144/110
f 213/142/128 229/143/111 228/144/116
f 223/141/119 224/142/112 240/143/129
f 211/142/130 227/143/117 226/144/122
f 221/141/123 222/142/118 238/143/131
f 235/144/125 219/141/100 236/143/102
f 233/144/126 217/141/103 234/143/105
f 215/141/127 216/142/106 231/144/108
f 213/141/128 214/142/109 229/144/111
f 240/144/129 224/141/112 225/143/114
f 211/141/130 212/142/115 227/144/117
f 238/144/131 222/141/118 239/143/120
f 209/141/113 210/142/121 225/144/114
f 236/144/102 220/141/101 237/143/124
f 234/144/105 218/141/104 235/143/125
f 216/141/106 217/142/103 232/144/107
f 214/141/109 215/142/127 230/144/110
f 212/141/115 213/142/128 228/144/116
f 239/144/120 223/141/119 240/143/129
f 210/141/121 211/142/130 226/144/122
f 237/144/124 221/141/123 238/143/131
o RA11aBlech01_RA11aBl01
v -0.349997 3.065690 0.080000
v 0.350000 3.065690 0.080000
v -0.104999 2.505690 0.080000
v 0.105000 2.505690 0.080000
vn -0.0000 -0.0000 1.0000
vt 0.499139 0.033428
vt 0.598230 0.266005
vt 0.311933 0.266005
vt 0.411635 0.033428
s 1
f 244/145/132 242/146/132 241/147/132
f 243/148/132 244/145/132 241/147/132
o RA11Blech01_RA11Bl01
v -0.349997 3.065690 0.080000
v 0.350000 3.065690 0.080000
v -0.104999 2.505690 0.080000
v 0.105000 2.505690 0.080000
vn -0.0000 -0.0000 1.0000
vt 0.599066 0.266005
vt 0.499975 0.033428
vt 0.786273 0.033428
vt 0.686570 0.266005
s 1
f 248/149/133 246/150/133 245/151/133
f 247/152/133 248/149/133 245/151/133
o RA11Blech02_RA11Bl02
v -0.350004 3.065690 0.050000
v -0.349996 3.065690 0.080000
v 0.350000 3.065690 0.080000
v 0.350000 3.065690 0.050000
v -0.105002 2.505690 0.050000
v -0.104998 2.505690 0.080000
v 0.105000 2.505690 0.080000
v 0.105000 2.505690 0.050000
vn -0.9162 -0.4008 0.0001
vn 0.9162 -0.4008 -0.0000
vn -0.0000 -0.0000 -1.0000
vn -0.0000 1.0000 -0.0000
vn -0.0000 -1.0000 -0.0000
vn -0.9162 -0.4008 0.0002
vt 0.500001 0.016495
vt 0.500000 0.000000
vt 0.749999 0.000000
vt 1.000000 0.000000
vt 1.000000 0.016495
vt 0.600205 0.500000
vt 0.500000 0.266495
vt 0.786300 0.266495
vt 0.786297 0.032989
vt 0.500000 0.032989
vt 0.872190 0.016495
vt 0.872190 0.032990
vt 0.750000 0.016495
vt 0.686096 0.500000
vt 0.786300 0.016495
s 1
f 253/153/134 254/154/134 250/155/134
f 256/155/135 252/156/135 251/157/135
f 253/158/136 249/159/136 252/160/136
f 250/161/137 251/162/137 252/153/137
f 256/163/138 255/164/138 254/161/138
f 249/165/139 253/153/139 250/155/139
f 255/165/135 256/155/135 251/157/135
f 256/166/136 253/158/136 252/160/136
f 249/167/137 250/161/137 252/153/137
f 253/167/138 256/163/138 254/161/138
o RA11LampOff_RA11LOff
v 0.000000 2.881252 -0.070000
v 0.000000 3.081252 -0.070000
v 0.003827 2.881252 -0.069239
v 0.003827 3.081252 -0.069239
v 0.007071 2.881252 -0.067071
v 0.007071 3.081252 -0.067071
v 0.009239 2.881252 -0.063827
v 0.009239 3.081252 -0.063827
v 0.010000 2.881252 -0.060000
v 0.010000 3.081252 -0.060000
v 0.009239 2.881252 -0.056173
v 0.009239 3.081252 -0.056173
v 0.007071 2.881252 -0.052929
v 0.007071 3.081252 -0.052929
v 0.003827 2.881252 -0.050761
v 0.003827 3.081252 -0.050761
v 0.000000 2.881252 -0.050000
v 0.000000 3.081252 -0.050000
v -0.003827 2.881252 -0.050761
v -0.003827 3.081252 -0.050761
v -0.007071 2.881252 -0.052929
v -0.007071 3.081252 -0.052929
v -0.009239 2.881252 -0.056173
v -0.009239 3.081252 -0.056173
v -0.010000 2.881252 -0.060000
v -0.010000 3.081252 -0.060000
v -0.009239 2.881252 -0.063827
v -0.009239 3.081252 -0.063827
v -0.007071 2.881252 -0.067071
v -0.007071 3.081252 -0.067071
v -0.003827 2.881252 -0.069239
v -0.003827 3.081252 -0.069239
v 0.000000 3.093215 -0.069659
v 0.003827 3.093018 -0.068924
v 0.007071 3.092457 -0.066830
v 0.009239 3.091618 -0.063696
v 0.010000 3.090627 -0.060000
v 0.009239 3.089637 -0.056304
v 0.007071 3.088797 -0.053170
v 0.003827 3.088236 -0.051076
v 0.000000 3.088039 -0.050341
v -0.003827 3.088236 -0.051076
v -0.007071 3.088797 -0.053170
v -0.009239 3.089637 -0.056304
v -0.010000 3.090627 -0.060000
v -0.009239 3.091618 -0.063696
v -0.007071 3.092457 -0.066830
v -0.003827 3.093018 -0.068924
v 0.000000 3.104682 -0.066234
v 0.003827 3.104302 -0.065574
v 0.007071 3.103218 -0.063697
v 0.009239 3.101596 -0.060888
v 0.010000 3.099683 -0.057573
v 0.009239 3.097769 -0.054259
v 0.007071 3.096147 -0.051450
v 0.003827 3.095063 -0.049572
v 0.000000 3.094683 -0.048913
v -0.003827 3.095063 -0.049572
v -0.007071 3.096147 -0.051450
v -0.009239 3.097769 -0.054259
v -0.010000 3.099683 -0.057573
v -0.009239 3.101596 -0.060888
v -0.007071 3.103218 -0.063697
v -0.003827 3.104302 -0.065574
v 0.000000 3.114872 -0.059957
v 0.003827 3.114335 -0.059419
v 0.007071 3.112802 -0.057886
v 0.009239 3.110507 -0.055592
v 0.010000 3.107801 -0.052886
v 0.009239 3.105096 -0.050180
v 0.007071 3.102802 -0.047886
v 0.003827 3.101269 -0.046353
v 0.000000 3.100730 -0.045815
v -0.003827 3.101269 -0.046353
v -0.007071 3.102802 -0.047886
v -0.009239 3.105096 -0.050180
v -0.010000 3.107801 -0.052886
v -0.009239 3.110507 -0.055592
v -0.007071 3.112802 -0.057886
v -0.003827 3.114335 -0.059419
v 0.000000 3.123091 -0.051257
v 0.003827 3.122432 -0.050876
v 0.007071 3.120554 -0.049792
v 0.009239 3.117745 -0.048170
v 0.010000 3.114431 -0.046257
v 0.009239 3.111116 -0.044343
v 0.007071 3.108307 -0.042721
v 0.003827 3.106430 -0.041637
v 0.000000 3.105771 -0.041257
v -0.003827 3.106430 -0.041637
v -0.007071 3.108307 -0.042721
v -0.009239 3.111116 -0.044343
v -0.010000 3.114431 -0.046257
v -0.009239 3.117745 -0.048170
v -0.007071 3.120554 -0.049792
v -0.003827 3.122432 -0.050876
v 0.000000 3.135591 -0.032507
v 0.003827 3.134932 -0.032126
v 0.007071 3.133054 -0.031042
v 0.009239 3.130245 -0.029420
v 0.010000 3.126931 -0.027507
v 0.009239 3.123617 -0.025593
v 0.007071 3.120807 -0.023971
v 0.003827 3.118930 -0.022887
v 0.000000 3.118270 -0.022507
v -0.003827 3.118930 -0.022887
v -0.007071 3.120807 -0.023971
v -0.009239 3.123617 -0.025593
v -0.010000 3.126931 -0.027507
v -0.009239 3.130245 -0.029420
v -0.007071 3.133054 -0.031042
v -0.003827 3.134932 -0.032126
v 0.000000 3.251215 0.167762
v 0.003827 3.250556 0.168143
v 0.007071 3.248679 0.169226
v 0.009239 3.245869 0.170849
v 0.010000 3.242555 0.172762
v 0.009239 3.239241 0.174675
v 0.007071 3.236431 0.176298
v 0.003827 3.234554 0.177381
v 0.000000 3.233895 0.177762
v -0.003827 3.234554 0.177381
v -0.007071 3.236431 0.176298
v -0.009239 3.239241 0.174675
v -0.010000 3.242555 0.172762
v -0.009239 3.245869 0.170849
v -0.007071 3.248679 0.169226
v -0.003827 3.250556 0.168143
v 0.000000 3.256902 0.178293
v 0.003827 3.256166 0.178490
v 0.007071 3.254073 0.179051
v 0.009239 3.250939 0.179890
v 0.010000 3.247242 0.180881
v 0.009239 3.243546 0.181871
v 0.007071 3.240412 0.182711
v 0.003827 3.238318 0.183272
v 0.000000 3.237583 0.183469
v -0.003827 3.238318 0.183272
v -0.007071 3.240412 0.182711
v -0.009239 3.243546 0.181871
v -0.010000 3.247242 0.180881
v -0.009239 3.250939 0.179890
v -0.007071 3.254073 0.179051
v -0.003827 3.256166 0.178490
v 0.000000 3.259669 0.189937
v 0.003827 3.258908 0.189937
v 0.007071 3.256740 0.189937
v 0.009239 3.253496 0.189937
v 0.010000 3.249669 0.189937
v 0.009239 3.245842 0.189937
v 0.007071 3.242598 0.189937
v 0.003827 3.240430 0.189936
v 0.000000 3.239669 0.189937
v -0.003827 3.240430 0.189936
v -0.007071 3.242598 0.189937
v -0.009239 3.245842 0.189937
v -0.010000 3.249669 0.189937
v -0.009239 3.253496 0.189937
v -0.007071 3.256740 0.189937
v -0.003827 3.258908 0.189937
v 0.000000 3.259328 0.201900
v 0.003827 3.258593 0.201703
v 0.007071 3.256499 0.201142
v 0.009239 3.253365 0.200302
v 0.010000 3.249669 0.199312
v 0.009239 3.245972 0.198321
v 0.007071 3.242839 0.197481
v 0.003827 3.240745 0.196920
v 0.000000 3.240010 0.196723
v -0.003827 3.240745 0.196920
v -0.007071 3.242839 0.197481
v -0.009239 3.245972 0.198321
v -0.010000 3.249669 0.199312
v -0.009239 3.253365 0.200302
v -0.007071 3.256499 0.201142
v -0.003827 3.258593 0.201703
v 0.000000 3.255903 0.213367
v 0.003827 3.255243 0.212987
v 0.007071 3.253366 0.211903
v 0.009239 3.250556 0.210281
v 0.010000 3.247242 0.208367
v 0.009239 3.243928 0.206454
v 0.007071 3.241118 0.204832
v 0.003827 3.239241 0.203748
v 0.000000 3.238582 0.203367
v -0.003827 3.239241 0.203748
v -0.007071 3.241118 0.204832
v -0.009239 3.243928 0.206454
v -0.010000 3.247242 0.208367
v -0.009239 3.250556 0.210281
v -0.007071 3.253366 0.211903
v -0.003827 3.255243 0.212987
v 0.000000 3.249626 0.223557
v 0.003827 3.249088 0.223019
v 0.007071 3.247555 0.221486
v 0.009239 3.245261 0.219192
v 0.010000 3.242555 0.216486
v 0.009239 3.239849 0.213780
v 0.007071 3.237555 0.211486
v 0.003827 3.236022 0.209953
v 0.000000 3.235484 0.209415
v -0.003827 3.236022 0.209953
v -0.007071 3.237555 0.211486
v -0.009239 3.239849 0.213780
v -0.010000 3.242555 0.216486
v -0.009239 3.245261 0.219192
v -0.007071 3.247555 0.221486
v -0.003827 3.249088 0.223019
v 0.000001 3.139140 0.334042
v 0.003827 3.138602 0.333504
v 0.007072 3.137069 0.331971
v 0.009239 3.134775 0.329677
v 0.010001 3.132069 0.326971
v 0.009239 3.129363 0.324265
v 0.007072 3.127069 0.321971
v 0.003827 3.125536 0.320438
v 0.000001 3.124998 0.319900
v -0.003826 3.125536 0.320438
v -0.007070 3.127069 0.321971
v -0.009238 3.129363 0.324265
v -0.009999 3.132069 0.326971
v -0.009238 3.134775 0.329677
v -0.007070 3.137069 0.331971
v -0.003826 3.138602 0.333504
v 0.000001 3.076640 0.396542
v 0.003827 3.076102 0.396004
v 0.007072 3.074569 0.394471
v 0.009239 3.072275 0.392177
v 0.010001 3.069569 0.389471
v 0.009239 3.066863 0.386765
v 0.007072 3.064569 0.384471
v 0.003827 3.063036 0.382938
v 0.000001 3.062498 0.382400
v -0.003826 3.063036 0.382938
v -0.007070 3.064569 0.384471
v -0.009238 3.066863 0.386765
v -0.009999 3.069569 0.389471
v -0.009238 3.072275 0.392177
v -0.007070 3.074569 0.394471
v -0.003826 3.076102 0.396004
v 0.000000 3.055108 0.367940
v 0.000000 3.087686 0.403644
v 0.006506 3.054193 0.368855
v 0.006506 3.086771 0.404559
v 0.012021 3.051588 0.371461
v 0.012021 3.084166 0.407164
v 0.015706 3.047688 0.375361
v 0.015706 3.080266 0.411064
v 0.017000 3.043087 0.379961
v 0.017000 3.075665 0.415664
v 0.015706 3.038487 0.384561
v 0.015706 3.071065 0.420264
v 0.012021 3.034587 0.388461
v 0.012021 3.067165 0.424164
v 0.006506 3.031982 0.391067
v 0.006506 3.064560 0.426770
v 0.000000 3.031067 0.391982
v 0.000000 3.063645 0.427685
v -0.006506 3.031982 0.391067
v -0.006506 3.064560 0.426770
v -0.012021 3.034587 0.388461
v -0.012021 3.067165 0.424164
v -0.015706 3.038487 0.384561
v -0.015706 3.071065 0.420264
v -0.017000 3.043087 0.379961
v -0.017000 3.075665 0.415664
v -0.015706 3.047688 0.375361
v -0.015706 3.080266 0.411064
v -0.012021 3.051588 0.371461
v -0.012021 3.084166 0.407164
v -0.006506 3.054193 0.368855
v -0.006506 3.086771 0.404559
v 0.000000 3.030851 0.285503
v 0.022249 3.027722 0.288632
v 0.041111 3.018811 0.297544
v 0.053714 3.005473 0.310882
v 0.058140 2.989740 0.326614
v 0.053714 2.974008 0.342347
v 0.041111 2.960670 0.355684
v 0.022249 2.951758 0.364596
v 0.000000 2.948629 0.367725
v -0.022249 2.951758 0.364596
v -0.041111 2.960670 0.355684
v -0.053714 2.974008 0.342347
v -0.058140 2.989740 0.326614
v -0.053714 3.005473 0.310882
v -0.041111 3.018811 0.297544
v -0.022249 3.027722 0.288632
vn 0.1950 -0.0000 -0.9808
vn 0.5556 -0.0000 -0.8314
vn 0.8315 -0.0003 -0.5555
vn 0.8314 0.0035 -0.5556
vn 0.8314 -0.0000 -0.5556
vn 0.9801 0.0015 -0.1985
vn 0.9808 -0.0000 -0.1950
vn 0.9800 -0.0003 0.1989
vn 0.9808 0.0015 0.1950
vn 0.9808 -0.0000 0.1950
vn 0.8314 -0.0000 0.5556
vn 0.5556 -0.0000 0.8314
vn 0.1950 -0.0000 0.9808
vn -0.1950 -0.0000 0.9808
vn -0.5556 -0.0000 0.8314
vn -0.8314 -0.0000 0.5556
vn -0.9808 -0.0000 0.1950
vn -0.9799 0.0008 0.1996
vn -0.9808 -0.0000 -0.1950
vn -0.9800 0.0016 -0.1988
vn -0.8315 -0.0000 -0.5556
vn -0.8315 0.0065 -0.5554
vn -0.8314 -0.0000 -0.5556
vn -0.8313 0.0177 0.5556
vn -0.1950 -0.0000 -0.9808
vn -0.5556 -0.0000 -0.8314
vn -0.0000 -1.0000 -0.0000
vn 0.5389 -0.1919 0.8202
vn 0.8239 0.0122 -0.5667
vn -0.8314 0.0070 -0.5556
vn 0.8212 0.0089 0.5705
vn -0.1874 0.0450 0.9812
vn -0.1948 0.0492 0.9796
vn -0.1935 0.0485 0.9799
vn -0.9805 0.0024 0.1963
vn 0.9796 0.0025 -0.2010
vn 0.9805 0.0005 -0.1963
vn -0.5472 0.0215 -0.8368
vn -0.5556 0.0179 -0.8313
vn -0.5533 0.0189 -0.8328
vn 0.5388 0.0269 0.8420
vn -0.5553 0.0375 0.8308
vn 0.5472 0.0215 -0.8368
vn 0.5449 0.0224 -0.8382
vn 0.5533 0.0189 -0.8328
vn -0.9805 0.0005 -0.1963
vn 0.9795 -0.0000 0.2017
vn 0.9805 0.0024 0.1963
vn -0.1910 0.0276 -0.9812
vn -0.1950 0.0262 -0.9805
vn -0.1939 0.0266 -0.9807
vn 0.1910 0.0276 -0.9812
vn 0.1899 0.0280 -0.9814
vn 0.1939 0.0266 -0.9807
vn 0.1874 0.0450 0.9812
vn 0.1862 0.0443 0.9815
vn 0.1935 0.0485 0.9799
vn 0.1875 -0.4516 0.8723
vn 0.1863 -0.4524 0.8721
vn 0.1935 -0.4479 0.8729
vn 0.9797 -0.0514 0.1938
vn 0.9795 -0.0522 0.1948
vn 0.9805 -0.0485 0.1903
vn -0.1911 0.2805 -0.9406
vn -0.1949 0.2791 -0.9403
vn -0.1938 0.2795 -0.9404
vn 0.8238 0.1585 -0.5443
vn -0.8314 0.1505 -0.5348
vn 0.1911 0.2805 -0.9406
vn 0.1901 0.2810 -0.9407
vn 0.1939 0.2795 -0.9404
vn -0.9797 -0.0514 0.1938
vn -0.9808 -0.0476 0.1892
vn -0.9805 -0.0485 0.1903
vn -0.5553 -0.1790 0.8122
vn 0.1874 -0.2106 0.9594
vn 0.1862 -0.2114 0.9595
vn 0.1935 -0.2069 0.9590
vn 0.8212 -0.1392 0.5534
vn 0.9798 0.0536 -0.1925
vn 0.9796 0.0544 -0.1935
vn 0.9805 0.0513 -0.1895
vn -0.5471 0.2374 -0.8027
vn -0.5555 0.2324 -0.7983
vn -0.5532 0.2338 -0.7996
vn 0.5471 0.2374 -0.8027
vn 0.5449 0.2387 -0.8039
vn 0.5532 0.2338 -0.7996
vn -0.9798 0.0536 -0.1925
vn -0.9808 0.0505 -0.1884
vn -0.9805 0.0513 -0.1895
vn -0.8313 -0.1266 0.5412
vn -0.1874 -0.2107 0.9594
vn -0.1948 -0.2061 0.9589
vn -0.1935 -0.2069 0.9590
vn -0.1874 -0.6621 0.7256
vn -0.1949 -0.6578 0.7275
vn -0.1936 -0.6586 0.7272
vn 0.8212 -0.2776 0.4985
vn 0.9798 0.1017 -0.1720
vn 0.9796 0.1027 -0.1728
vn 0.9805 0.0986 -0.1698
vn -0.5471 0.4369 -0.7140
vn -0.5555 0.4311 -0.7111
vn -0.5532 0.4327 -0.7119
vn 0.5471 0.4369 -0.7140
vn 0.5449 0.4384 -0.7147
vn 0.5532 0.4327 -0.7119
vn -0.9798 0.1017 -0.1720
vn -0.9808 0.0975 -0.1689
vn -0.9805 0.0986 -0.1698
vn -0.8313 -0.2624 0.4900
vn -0.1875 -0.4516 0.8723
vn -0.1947 -0.4472 0.8730
vn -0.1935 -0.4479 0.8729
vn 0.5389 -0.3977 0.7426
vn 0.9797 -0.0997 0.1739
vn 0.9795 -0.1008 0.1747
vn 0.9805 -0.0961 0.1713
vn -0.1909 0.5145 -0.8360
vn -0.1951 0.5129 -0.8360
vn -0.1939 0.5133 -0.8360
vn 0.8239 0.2939 -0.4846
vn -0.8314 0.2839 -0.4777
vn 0.1909 0.5145 -0.8360
vn 0.1898 0.5149 -0.8360
vn 0.1939 0.5133 -0.8360
vn -0.9797 -0.0997 0.1739
vn -0.9808 -0.0949 0.1704
vn -0.9805 -0.0961 0.1713
vn -0.5553 -0.3829 0.7383
vn -0.5547 -0.6923 0.4615
vn 0.5388 -0.5764 0.6143
vn 0.9797 -0.1412 0.1422
vn 0.9795 -0.1425 0.1426
vn 0.9805 -0.1371 0.1406
vn -0.1911 0.7132 -0.6744
vn -0.1947 0.7119 -0.6747
vn -0.1937 0.7123 -0.6746
vn 0.8238 0.4094 -0.3921
vn -0.8315 0.3977 -0.3879
vn 0.1911 0.7132 -0.6744
vn 0.1900 0.7136 -0.6742
vn 0.1937 0.7123 -0.6746
vn -0.9797 -0.1412 0.1422
vn -0.9808 -0.1358 0.1401
vn -0.9805 -0.1371 0.1406
vn -0.5553 -0.5610 0.6139
vn 0.1874 -0.6621 0.7256
vn 0.1861 -0.6628 0.7253
vn 0.1936 -0.6586 0.7272
vn 0.8212 -0.3972 0.4097
vn 0.9798 0.1427 -0.1399
vn 0.9796 0.1439 -0.1404
vn 0.9805 0.1392 -0.1385
vn -0.5472 0.6068 -0.5765
vn -0.5556 0.6005 -0.5751
vn -0.5533 0.6022 -0.5755
vn 0.5472 0.6068 -0.5765
vn 0.5450 0.6085 -0.5768
vn 0.5533 0.6022 -0.5755
vn -0.9798 0.1427 -0.1399
vn -0.9808 0.1379 -0.1379
vn -0.9805 0.1392 -0.1385
vn -0.8313 -0.3803 0.4053
vn -0.8315 -0.4812 0.2778
vn -0.8315 -0.4811 0.2778
vn 0.1946 -0.8162 0.5441
vn 0.1948 -0.8161 0.5441
vn 0.8309 -0.4630 0.3087
vn 0.8309 -0.4629 0.3086
vn 0.9807 0.1626 -0.1084
vn 0.9808 0.1689 -0.0974
vn 0.9807 0.1625 -0.1084
vn -0.5549 0.6922 -0.4615
vn 0.5549 0.6922 -0.4615
vn -0.9807 0.1626 -0.1084
vn -0.9807 0.1625 -0.1084
vn -0.8309 -0.4630 0.3087
vn -0.8309 -0.4629 0.3086
vn -0.1946 -0.8162 0.5441
vn -0.1948 -0.8161 0.5441
vn 0.5547 -0.6923 0.4615
vn 0.9807 -0.1626 0.1084
vn 0.9808 -0.1689 0.0974
vn 0.9807 -0.1626 0.1085
vn -0.1947 0.8161 -0.5441
vn 0.8309 0.4630 -0.3087
vn -0.8309 0.4630 -0.3087
vn 0.1947 0.8161 -0.5441
vn -0.9807 -0.1626 0.1084
vn -0.9807 -0.1625 0.1085
vn 0.1912 0.8635 -0.4668
vn 0.1901 0.8638 -0.4665
vn 0.1939 0.8626 -0.4673
vn -0.1952 -0.8494 0.4904
vn -0.1951 -0.8494 0.4904
vn 0.5555 -0.7201 0.4157
vn 0.5554 -0.7201 0.4158
vn 0.9799 -0.1725 0.1005
vn 0.9808 -0.1688 0.0976
vn -0.1951 0.8494 -0.4904
vn 0.8314 0.4812 -0.2778
vn 0.8314 0.4844 -0.2721
vn -0.8314 0.4812 -0.2778
vn -0.8315 0.4828 -0.2747
vn -0.8314 0.4811 -0.2782
vn 0.1951 0.8494 -0.4904
vn -0.9808 -0.1689 0.0974
vn -0.9808 -0.1689 0.0975
vn -0.5555 -0.7201 0.4157
vn -0.5554 -0.7201 0.4158
vn 0.1952 -0.8494 0.4904
vn 0.1951 -0.8494 0.4904
vn 0.8315 -0.4812 0.2778
vn 0.8315 -0.4811 0.2778
vn 0.9800 0.1730 -0.0980
vn 0.9808 0.1689 -0.0975
vn -0.5557 0.7200 -0.4157
vn -0.5555 0.7201 -0.4158
vn 0.5557 0.7200 -0.4157
vn 0.5555 0.7201 -0.4158
vn -0.9808 0.1689 -0.0974
vn -0.9808 0.1689 -0.0975
vn 0.5471 0.8138 -0.1959
vn 0.5449 0.8154 -0.1953
vn 0.5531 0.8094 -0.1973
vn -0.9799 -0.1725 0.1005
vn -0.9805 -0.1689 0.1003
vn -0.5551 -0.7010 0.4478
vn 0.1875 -0.8274 0.5294
vn 0.1863 -0.8279 0.5290
vn 0.1936 -0.8244 0.5318
vn 0.8213 -0.4896 0.2929
vn 0.9796 0.1753 -0.0983
vn 0.9806 0.1702 -0.0977
vn -0.5470 0.7355 -0.3998
vn -0.5554 0.7290 -0.4002
vn -0.5531 0.7308 -0.4001
vn 0.5470 0.7355 -0.3998
vn 0.5448 0.7372 -0.3997
vn 0.5531 0.7308 -0.4001
vn -0.9800 0.1730 -0.0980
vn -0.9805 0.1703 -0.0977
vn -0.8314 -0.4721 0.2931
vn -0.1875 -0.8274 0.5294
vn -0.1949 -0.8238 0.5323
vn -0.1936 -0.8244 0.5318
vn 0.5388 -0.7157 0.4443
vn 0.9795 -0.1747 0.1008
vn 0.9805 -0.1689 0.1003
vn -0.1912 0.8635 -0.4668
vn -0.1950 0.8622 -0.4675
vn -0.1939 0.8626 -0.4673
vn 0.8238 0.4969 -0.2728
vn -0.8315 0.4846 -0.2717
vn 0.8239 0.5667 0.0122
vn -0.9798 0.1935 -0.0498
vn -0.9808 0.1884 -0.0505
vn -0.9805 0.1898 -0.0503
vn -0.8313 -0.5320 0.1609
vn -0.1875 -0.9362 0.2974
vn -0.1948 -0.9335 0.3011
vn -0.1936 -0.9339 0.3005
vn 0.5388 -0.8063 0.2439
vn 0.9797 -0.1935 0.0524
vn 0.9795 -0.1948 0.0522
vn 0.9805 -0.1890 0.0532
vn -0.1911 0.9549 -0.2273
vn -0.1952 0.9538 -0.2285
vn -0.1941 0.9541 -0.2282
vn 0.8238 0.5505 -0.1349
vn -0.8314 0.5385 -0.1371
vn 0.1910 0.9549 -0.2273
vn 0.1899 0.9552 -0.2270
vn 0.1941 0.9541 -0.2282
vn -0.9797 -0.1935 0.0524
vn -0.9808 -0.1876 0.0534
vn -0.9805 -0.1890 0.0532
vn -0.5552 -0.7928 0.2513
vn 0.1875 -0.9362 0.2974
vn 0.1863 -0.9366 0.2968
vn 0.1936 -0.9339 0.3005
vn 0.8212 -0.5488 0.1562
vn 0.9798 0.1935 -0.0498
vn 0.9796 0.1948 -0.0496
vn 0.9805 0.1897 -0.0503
vn -0.5471 0.8138 -0.1959
vn -0.5554 0.8077 -0.1979
vn -0.5531 0.8094 -0.1973
vn 0.9798 0.1925 0.0537
vn 0.9796 0.1935 0.0545
vn 0.9805 0.1894 0.0513
vn -0.8314 0.5556 0.0070
vn 0.1910 0.9812 0.0276
vn 0.1899 0.9814 0.0280
vn 0.1939 0.9807 0.0266
vn -0.9797 -0.2004 0.0005
vn -0.9808 -0.1950 0.0030
vn -0.9805 -0.1963 0.0024
vn -0.5552 -0.8308 0.0374
vn 0.1874 -0.9813 0.0450
vn 0.1862 -0.9815 0.0442
vn 0.1935 -0.9799 0.0486
vn 0.8212 -0.5706 0.0089
vn 0.9798 0.1998 0.0021
vn 0.9796 0.2010 0.0026
vn 0.9806 0.1962 0.0006
vn -0.5472 0.8367 0.0215
vn -0.5555 0.8313 0.0179
vn -0.5532 0.8328 0.0189
vn 0.5472 0.8367 0.0215
vn 0.5449 0.8382 0.0225
vn 0.5532 0.8328 0.0189
vn -0.9798 0.1998 0.0021
vn -0.9808 0.1950 -0.0000
vn -0.9805 0.1963 0.0006
vn -0.8313 -0.5556 0.0177
vn -0.1874 -0.9813 0.0450
vn -0.1948 -0.9796 0.0493
vn -0.1935 -0.9799 0.0486
vn 0.5388 -0.8420 0.0270
vn 0.9797 -0.2004 0.0005
vn 0.9795 -0.2016 -0.0000
vn 0.9805 -0.1963 0.0024
vn -0.1910 0.9812 0.0276
vn -0.1950 0.9805 0.0262
vn -0.1939 0.9807 0.0266
vn 0.9797 -0.1738 -0.0998
vn 0.9795 -0.1746 -0.1008
vn 0.9805 -0.1712 -0.0961
vn -0.5472 0.8027 0.2374
vn -0.5555 0.7983 0.2324
vn -0.5532 0.7995 0.2338
vn 0.5472 0.8027 0.2374
vn 0.5449 0.8038 0.2387
vn 0.5532 0.7995 0.2338
vn -0.9798 0.1925 0.0537
vn -0.9808 0.1884 0.0505
vn -0.9805 0.1894 0.0513
vn -0.8312 -0.5413 -0.1267
vn -0.1875 -0.9594 -0.2106
vn -0.1948 -0.9590 -0.2060
vn -0.1935 -0.9591 -0.2068
vn 0.5388 -0.8203 -0.1920
vn 0.9797 -0.1938 -0.0514
vn 0.9795 -0.1948 -0.0522
vn 0.9805 -0.1903 -0.0484
vn -0.1911 0.9406 0.2806
vn -0.1949 0.9403 0.2791
vn -0.1939 0.9404 0.2795
vn 0.8239 0.5442 0.1585
vn -0.8315 0.5348 0.1505
vn 0.1912 0.9406 0.2806
vn 0.1901 0.9407 0.2810
vn 0.1939 0.9404 0.2795
vn -0.9797 -0.1938 -0.0514
vn -0.9808 -0.1891 -0.0475
vn -0.9805 -0.1903 -0.0484
vn -0.5552 -0.8122 -0.1790
vn 0.1875 -0.9594 -0.2106
vn 0.1863 -0.9595 -0.2114
vn 0.1935 -0.9591 -0.2068
vn 0.8213 -0.5533 -0.1391
vn 0.5556 -0.5879 -0.5879
vn 0.5555 -0.5880 -0.5880
vn -0.1910 0.8360 0.5145
vn -0.1951 0.8360 0.5129
vn -0.1939 0.8360 0.5133
vn 0.8238 0.4847 0.2939
vn -0.8314 0.4776 0.2838
vn 0.1910 0.8360 0.5145
vn 0.1899 0.8359 0.5149
vn 0.1939 0.8360 0.5133
vn -0.9797 -0.1738 -0.0998
vn -0.9808 -0.1704 -0.0949
vn -0.9805 -0.1712 -0.0961
vn -0.5552 -0.7383 -0.3830
vn 0.1874 -0.8723 -0.4516
vn 0.1862 -0.8722 -0.4524
vn 0.1935 -0.8729 -0.4479
vn 0.8212 -0.4985 -0.2776
vn 0.9798 0.1720 0.1017
vn 0.9796 0.1728 0.1027
vn 0.9805 0.1697 0.0986
vn -0.5472 0.7139 0.4369
vn -0.5555 0.7110 0.4311
vn -0.5532 0.7118 0.4328
vn 0.5472 0.7139 0.4369
vn 0.5450 0.7147 0.4385
vn 0.5532 0.7118 0.4328
vn -0.9798 0.1720 0.1017
vn -0.9808 0.1689 0.0975
vn -0.9805 0.1697 0.0986
vn -0.8313 -0.4900 -0.2624
vn -0.1874 -0.8723 -0.4516
vn -0.1948 -0.8730 -0.4472
vn -0.1935 -0.8729 -0.4479
vn 0.5389 -0.7426 -0.3976
vn 0.1950 -0.6935 -0.6935
vn 0.9808 -0.1379 -0.1379
vn 0.9807 -0.1381 -0.1381
vn -0.1950 0.6935 0.6935
vn 0.8314 0.3929 0.3929
vn 0.8316 0.3928 0.3928
vn -0.8314 0.3929 0.3929
vn 0.1950 0.6935 0.6935
vn -0.9808 -0.1379 -0.1379
vn -0.5556 -0.5879 -0.5879
vn -0.5557 -0.5879 -0.5879
vn 0.8314 -0.3929 -0.3929
vn 0.8316 -0.3928 -0.3928
vn 0.9808 0.1379 0.1379
vn 0.9807 0.1381 0.1381
vn -0.5556 0.5879 0.5879
vn 0.5556 0.5879 0.5879
vn 0.5555 0.5880 0.5880
vn -0.9808 0.1379 0.1379
vn -0.8314 -0.3929 -0.3929
vn -0.1950 -0.6935 -0.6935
vn -0.0000 -0.7071 0.7071
vn -0.5557 0.5879 0.5879
vn 0.1949 0.7245 -0.6611
vn 0.5551 0.6145 -0.5607
vn 0.5551 0.6144 -0.5606
vn 0.8312 0.4107 -0.3747
vn 0.9808 0.1442 -0.1316
vn 0.9807 0.1442 -0.1316
vn 0.9807 -0.1443 0.1316
vn 0.8312 -0.4107 0.3747
vn 0.5551 -0.6144 0.5606
vn 0.1949 -0.7245 0.6611
vn -0.1949 -0.7245 0.6611
vn -0.5551 -0.6144 0.5606
vn -0.8312 -0.4107 0.3747
vn -0.9807 -0.1443 0.1316
vn -0.9808 0.1442 -0.1316
vn -0.8312 0.4107 -0.3747
vn -0.0000 0.7071 0.7071
vn -0.1949 0.7245 -0.6611
vn -0.5551 0.6144 -0.5606
vn -0.5551 0.6145 -0.5607
vn 0.1720 0.9450 -0.2781
vn -0.0000 -0.7071 -0.7071
vn 0.1720 -0.2781 0.9450
vn -0.7332 -0.0129 0.6799
vn 0.7332 0.6799 -0.0129
vn -0.7332 0.6799 -0.0129
vn 0.7332 -0.0129 0.6799
vn -0.1720 -0.2781 0.9450
vn -0.8649 0.2118 0.4551
vn 0.8649 0.4551 0.2119
vn 0.8649 0.4551 0.2118
vn -0.4898 0.8520 -0.1850
vn -0.4899 0.8519 -0.1850
vn 0.4899 -0.1850 0.8519
vn -0.4899 -0.1850 0.8519
vn 0.4898 0.8520 -0.1850
vn 0.4899 0.8519 -0.1850
vn -0.8649 0.4551 0.2119
vn -0.8649 0.4551 0.2118
vn 0.8649 0.2118 0.4551
vn -0.1720 0.9450 -0.2781
vn -0.8212 0.0089 0.5705
vn -0.0000 -1.0000 0.0002
vn -0.0000 -1.0000 -0.0002
vn 0.5553 -0.1790 0.8122
vn 0.8314 0.0070 -0.5556
vn -0.8239 0.0122 -0.5667
vn 0.8313 0.0177 0.5556
vn -0.1862 0.0443 0.9815
vn -0.9795 -0.0000 0.2017
vn -0.5449 0.0224 -0.8382
vn 0.5553 0.0375 0.8308
vn -0.5388 0.0269 0.8420
vn 0.5556 0.0179 -0.8313
vn -0.9796 0.0025 -0.2010
vn -0.1899 0.0280 -0.9814
vn 0.1950 0.0262 -0.9805
vn 0.1948 0.0492 0.9796
vn 0.1947 -0.4472 0.8730
vn 0.9808 -0.0476 0.1892
vn -0.1901 0.2810 -0.9407
vn 0.8314 0.1505 -0.5348
vn -0.8238 0.1585 -0.5443
vn 0.1949 0.2791 -0.9403
vn -0.9795 -0.0522 0.1948
vn -0.5389 -0.1919 0.8202
vn 0.1948 -0.2061 0.9589
vn 0.8313 -0.1266 0.5412
vn 0.9808 0.0505 -0.1884
vn -0.5449 0.2387 -0.8039
vn 0.5555 0.2324 -0.7983
vn -0.9796 0.0544 -0.1935
vn -0.8212 -0.1392 0.5534
vn -0.1862 -0.2114 0.9595
vn -0.1861 -0.6628 0.7253
vn 0.8313 -0.2624 0.4900
vn 0.9808 0.0975 -0.1689
vn -0.5449 0.4384 -0.7147
vn 0.5555 0.4311 -0.7111
vn -0.9796 0.1027 -0.1728
vn -0.8212 -0.2776 0.4985
vn -0.1863 -0.4524 0.8721
vn 0.5553 -0.3829 0.7383
vn 0.9808 -0.0949 0.1704
vn -0.1898 0.5149 -0.8360
vn 0.8314 0.2839 -0.4777
vn -0.8239 0.2939 -0.4846
vn 0.1951 0.5129 -0.8360
vn -0.9795 -0.1008 0.1747
vn -0.5389 -0.3977 0.7426
vn 0.5553 -0.5610 0.6139
vn 0.9808 -0.1358 0.1401
vn -0.1900 0.7136 -0.6742
vn 0.8315 0.3977 -0.3879
vn -0.8238 0.4094 -0.3921
vn 0.1947 0.7119 -0.6747
vn -0.9795 -0.1425 0.1426
vn -0.5388 -0.5764 0.6143
vn 0.1949 -0.6578 0.7275
vn 0.8313 -0.3803 0.4053
vn 0.9808 0.1379 -0.1379
vn -0.5450 0.6085 -0.5768
vn 0.5556 0.6005 -0.5751
vn -0.9796 0.1439 -0.1404
vn -0.8212 -0.3972 0.4097
vn 0.1950 0.8622 -0.4675
vn 0.5554 0.8077 -0.1979
vn -0.9795 -0.1747 0.1008
vn -0.5388 -0.7157 0.4443
vn 0.1949 -0.8238 0.5323
vn 0.8314 -0.4721 0.2931
vn -0.5448 0.7372 -0.3997
vn 0.5554 0.7290 -0.4002
vn -0.9796 0.1753 -0.0983
vn -0.8213 -0.4896 0.2929
vn -0.1863 -0.8279 0.5290
vn 0.5551 -0.7010 0.4478
vn -0.1901 0.8638 -0.4665
vn 0.8315 0.4846 -0.2717
vn -0.8238 0.4969 -0.2728
vn 0.8314 0.5556 0.0070
vn -0.9796 0.1948 -0.0496
vn -0.8212 -0.5488 0.1562
vn -0.1863 -0.9366 0.2968
vn 0.5552 -0.7928 0.2513
vn 0.9808 -0.1876 0.0534
vn -0.1899 0.9552 -0.2270
vn 0.8314 0.5385 -0.1371
vn -0.8238 0.5506 -0.1349
vn 0.1952 0.9538 -0.2285
vn -0.9795 -0.1948 0.0522
vn -0.5388 -0.8063 0.2439
vn 0.1948 -0.9335 0.3011
vn 0.8313 -0.5320 0.1609
vn 0.9808 0.1884 -0.0505
vn -0.5449 0.8154 -0.1953
vn 0.9808 0.1884 0.0505
vn -0.8239 0.5667 0.0122
vn 0.1950 0.9805 0.0262
vn -0.9795 -0.2016 -0.0000
vn -0.5388 -0.8420 0.0270
vn 0.1948 -0.9796 0.0493
vn 0.8313 -0.5556 0.0177
vn 0.9808 0.1950 -0.0000
vn -0.5449 0.8382 0.0225
vn 0.5555 0.8313 0.0179
vn -0.9796 0.2010 0.0026
vn -0.8212 -0.5706 0.0089
vn -0.1862 -0.9815 0.0442
vn 0.5552 -0.8308 0.0374
vn 0.9808 -0.1950 0.0030
vn -0.1899 0.9814 0.0280
vn 0.9808 -0.1704 -0.0949
vn -0.5449 0.8038 0.2387
vn 0.5555 0.7983 0.2324
vn -0.9796 0.1935 0.0545
vn -0.8213 -0.5533 -0.1391
vn -0.1863 -0.9595 -0.2114
vn 0.5552 -0.8122 -0.1790
vn 0.9808 -0.1891 -0.0475
vn -0.1901 0.9407 0.2810
vn 0.8315 0.5348 0.1505
vn -0.8239 0.5442 0.1585
vn 0.1949 0.9403 0.2791
vn -0.9795 -0.1948 -0.0522
vn -0.5388 -0.8203 -0.1920
vn 0.1948 -0.9590 -0.2060
vn 0.8312 -0.5413 -0.1267
vn -0.1899 0.8359 0.5149
vn 0.8314 0.4776 0.2838
vn -0.8238 0.4847 0.2939
vn 0.1951 0.8360 0.5129
vn -0.9795 -0.1746 -0.1008
vn -0.5389 -0.7426 -0.3976
vn 0.1948 -0.8730 -0.4472
vn 0.8313 -0.4900 -0.2624
vn 0.9808 0.1689 0.0975
vn -0.5450 0.7147 0.4385
vn 0.5555 0.7110 0.4311
vn -0.9796 0.1728 0.1027
vn -0.8212 -0.4985 -0.2776
vn -0.1862 -0.8722 -0.4524
vn 0.5552 -0.7383 -0.3830
vn -0.0000 -0.7070 0.7072
vn 0.0002 -0.7071 0.7071
vn -0.0000 -0.7073 0.7069
vn -0.0002 -0.7071 0.7071
vn -0.0000 -0.7071 0.7072
vn -0.0001 0.7070 0.7072
vn 0.0001 0.7071 0.7071
vn -0.0001 0.7074 0.7068
vn -0.0001 0.7071 0.7071
vn 0.0001 0.7074 0.7068
vn -0.0001 -0.7071 -0.7071
vn -0.0000 -0.7070 -0.7072
vn 0.0001 -0.7071 -0.7071
vt 0.489151 0.876330
vt 0.488938 0.876330
vt 0.488938 0.808009
vt 0.488333 0.876330
vt 0.488333 0.808009
vt 0.487427 0.876330
vt 0.487427 0.808009
vt 0.486359 0.876330
vt 0.486359 0.808009
vt 0.485291 0.876330
vt 0.485291 0.808009
vt 0.484385 0.876330
vt 0.484385 0.808009
vt 0.483780 0.876330
vt 0.483780 0.808009
vt 0.483568 0.876330
vt 0.483568 0.808009
vt 0.484453 0.878908
vt 0.489151 0.808009
vt 0.422648 0.866569
vt 0.454793 0.866569
vt 0.454793 0.788963
vt 0.483972 0.881419
vt 0.483448 0.881048
vt 0.488266 0.880158
vt 0.487391 0.879871
vt 0.485327 0.879194
vt 0.483663 0.878649
vt 0.486359 0.879533
vt 0.483868 0.878716
vt 0.488850 0.880350
vt 0.489056 0.880417
vt 0.482550 0.883168
vt 0.482399 0.882984
vt 0.485682 0.882626
vt 0.484757 0.881973
vt 0.487915 0.884204
vt 0.487391 0.883834
vt 0.486607 0.883280
vt 0.488099 0.884334
vt 0.483264 0.880918
vt 0.481127 0.884706
vt 0.483618 0.884475
vt 0.482978 0.883692
vt 0.485129 0.886324
vt 0.484373 0.885400
vt 0.485769 0.887108
vt 0.486197 0.887631
vt 0.486347 0.887815
vt 0.481536 0.885572
vt 0.481233 0.884931
vt 0.482523 0.887664
vt 0.481989 0.886532
vt 0.483812 0.890398
vt 0.483510 0.889756
vt 0.483057 0.888797
vt 0.483919 0.890623
vt 0.425631 0.925071
vt 0.428014 0.930121
vt 0.425074 0.932063
vt 0.425019 0.931812
vt 0.425223 0.924204
vt 0.425329 0.924429
vt 0.426618 0.927162
vt 0.426084 0.926030
vt 0.427908 0.929896
vt 0.427605 0.929254
vt 0.427152 0.928295
vt 0.421824 0.932749
vt 0.421824 0.932008
vt 0.424075 0.927501
vt 0.423684 0.925715
vt 0.423629 0.925464
vt 0.423841 0.926431
vt 0.424628 0.930026
vt 0.424352 0.928764
vt 0.424863 0.931097
vt 0.418696 0.931926
vt 0.418931 0.930855
vt 0.421824 0.929593
vt 0.421824 0.927177
vt 0.421824 0.926177
vt 0.421824 0.926437
vt 0.421824 0.928285
vt 0.421824 0.930900
vt 0.421824 0.933009
vt 0.416145 0.929896
vt 0.416679 0.928764
vt 0.418485 0.932892
vt 0.418540 0.932641
vt 0.419484 0.928330
vt 0.419875 0.926544
vt 0.419930 0.926293
vt 0.419718 0.927259
vt 0.419207 0.929593
vt 0.414413 0.927162
vt 0.415168 0.926238
vt 0.415692 0.930856
vt 0.415390 0.931497
vt 0.417666 0.926672
vt 0.418075 0.925805
vt 0.417969 0.926031
vt 0.417213 0.927632
vt 0.415284 0.931722
vt 0.415809 0.925454
vt 0.384967 0.887711
vt 0.385395 0.887188
vt 0.412589 0.929394
vt 0.413017 0.928870
vt 0.413657 0.928087
vt 0.412439 0.929578
vt 0.416236 0.924931
vt 0.416387 0.924747
vt 0.385545 0.887004
vt 0.367948 0.865837
vt 0.383571 0.889420
vt 0.384327 0.888495
vt 0.381748 0.891651
vt 0.382175 0.891128
vt 0.382816 0.890344
vt 0.381597 0.891835
vt 0.366880 0.867145
vt 0.365369 0.868993
vt 0.366124 0.868069
vt 0.364729 0.869777
vt 0.364301 0.870301
vt 0.367520 0.866361
vt 0.368098 0.865654
vt 0.364151 0.870485
vt 0.555706 0.783621
vt 0.562038 0.783512
vt 0.562038 0.871962
vt 0.567887 0.783204
vt 0.567887 0.871654
vt 0.572363 0.782743
vt 0.572363 0.871192
vt 0.590377 0.871192
vt 0.584534 0.871737
vt 0.584534 0.783287
vt 0.578208 0.872281
vt 0.578208 0.783832
vt 0.572363 0.872742
vt 0.572363 0.784293
vt 0.545377 0.871654
vt 0.540898 0.871963
vt 0.540898 0.783513
vt 0.535047 0.872071
vt 0.535047 0.783621
vt 0.528715 0.871962
vt 0.528715 0.783513
vt 0.522867 0.871654
vt 0.522867 0.783204
vt 0.518391 0.871192
vt 0.608391 0.784293
vt 0.608391 0.872743
vt 0.602548 0.872199
vt 0.602548 0.783749
vt 0.596222 0.871654
vt 0.596222 0.783204
vt 0.585731 0.864776
vt 0.535145 0.791342
vt 0.585732 0.791343
vt 0.549856 0.871962
vt 0.549856 0.783512
vt 0.545377 0.783204
vt 0.425446 0.871799
vt 0.482013 0.908581
vt 0.460704 0.930362
vt 0.206371 0.976974
vt 0.206371 0.982623
vt 0.187140 0.994000
vt 0.414733 0.854830
vt 0.410837 0.856283
vt 0.373508 0.800011
vt 0.405925 0.862931
vt 0.406019 0.867091
vt 0.339443 0.880308
vt 0.427206 0.863707
vt 0.493312 0.850283
vt 0.493312 0.880558
vt 0.410474 0.873938
vt 0.414219 0.875764
vt 0.401593 0.942595
vt 0.418900 0.855055
vt 0.432098 0.788879
vt 0.460285 0.800682
vt 0.407739 0.859098
vt 0.351566 0.821517
vt 0.407408 0.871077
vt 0.351145 0.908797
vt 0.425626 0.859836
vt 0.481635 0.822294
vt 0.418391 0.876008
vt 0.432470 0.942383
vt 0.401770 0.788726
vt 0.339751 0.849674
vt 0.427202 0.867977
vt 0.372866 0.930778
vt 0.422629 0.856915
vt 0.422341 0.874619
vt 0.438721 0.869766
vt 0.399918 0.843839
vt 0.409022 0.857465
vt 0.399918 0.811694
vt 0.396721 0.827766
vt 0.422648 0.788963
vt 0.409022 0.798068
vt 0.438721 0.785766
vt 0.477524 0.811694
vt 0.468419 0.798068
vt 0.477524 0.843839
vt 0.480721 0.827766
vt 0.468419 0.857465
vt 0.555707 0.872071
vt 0.590377 0.782743
vt 0.518391 0.782743
vt 0.515785 0.819444
vt 0.522583 0.803525
vt 0.522582 0.852592
vt 0.515785 0.836673
vt 0.551555 0.871369
vt 0.535144 0.864775
vt 0.569319 0.871369
vt 0.605091 0.836675
vt 0.598293 0.852593
vt 0.598293 0.803526
vt 0.605091 0.819445
vt 0.569321 0.784749
vt 0.551557 0.784749
vt 0.182040 0.967759
vt 0.203929 0.971754
vt 0.193521 0.965597
vt 0.199417 0.967759
vt 0.187140 0.965597
vt 0.175793 0.976974
vt 0.178235 0.971754
vt 0.178235 0.987843
vt 0.175793 0.982623
vt 0.182040 0.991838
vt 0.199417 0.991838
vt 0.193521 0.994000
vt 0.203929 0.987843
s 1
f 258/168/140 260/169/140 259/170/140
f 260/169/141 262/171/141 261/172/141
f 262/171/142 264/173/143 263/174/144
f 264/173/145 266/175/146 265/176/146
f 266/175/147 268/177/148 267/178/149
f 268/177/150 270/179/150 269/180/150
f 270/179/151 272/181/151 271/182/151
f 272/181/152 274/183/152 273/184/152
f 274/183/153 276/181/153 275/182/153
f 276/181/154 278/179/154 277/180/154
f 278/179/155 280/177/155 279/178/155
f 280/177/156 282/175/157 281/176/156
f 282/175/158 284/173/159 283/174/158
f 284/173/160 286/171/161 285/172/162
f 280/177/163 278/179/163 299/185/163
f 288/169/164 258/168/164 257/186/164
f 286/171/165 288/169/165 287/170/165
f 287/187/166 259/188/166 271/189/166
f 295/185/167 311/190/167 312/191/167
f 262/171/168 291/192/168 292/193/168
f 286/171/161 284/173/160 302/193/169
f 268/177/170 294/194/170 295/185/170
f 276/181/171 274/183/172 297/195/173
f 282/175/157 280/177/156 300/194/174
f 264/173/145 292/193/175 293/196/176
f 288/169/177 286/171/178 303/192/179
f 270/179/180 295/185/180 296/197/180
f 278/179/181 276/181/181 298/197/181
f 260/169/182 290/198/183 291/192/184
f 284/173/159 282/175/158 301/196/185
f 266/175/147 293/196/186 294/194/187
f 258/168/188 288/169/189 304/198/190
f 258/168/191 289/199/192 290/198/193
f 272/181/194 296/197/195 297/195/196
f 312/191/197 328/200/198 329/201/199
f 293/196/200 309/202/201 310/203/202
f 289/199/203 304/198/204 320/204/205
f 291/192/206 307/205/206 308/206/206
f 303/192/207 302/193/207 318/206/207
f 289/199/208 305/207/209 306/204/210
f 301/196/211 300/194/212 316/203/213
f 299/185/214 298/197/214 314/191/214
f 296/197/215 312/191/216 313/208/217
f 294/194/218 310/203/218 311/190/218
f 292/193/219 308/206/220 309/202/221
f 304/198/222 303/192/223 319/205/224
f 290/198/225 306/204/226 307/205/227
f 302/193/228 301/196/229 317/202/230
f 300/194/231 299/185/231 315/190/231
f 298/197/232 297/195/233 313/208/234
f 330/200/235 329/201/236 345/209/237
f 310/203/238 326/210/238 327/211/238
f 308/206/239 324/212/240 325/213/241
f 320/204/242 319/205/243 335/214/244
f 306/204/245 322/215/246 323/214/247
f 318/206/248 317/202/249 333/213/250
f 316/203/251 315/190/251 331/211/251
f 314/191/252 313/208/253 329/201/254
f 311/190/255 327/211/255 328/200/255
f 309/202/256 325/213/257 326/210/258
f 305/207/259 320/204/260 336/215/261
f 307/205/262 323/214/262 324/212/262
f 319/205/263 318/206/263 334/212/263
f 305/207/264 321/216/265 322/215/266
f 317/202/267 316/203/268 332/210/269
f 315/190/270 314/191/270 330/200/270
f 347/217/271 346/218/271 362/218/271
f 327/211/272 343/217/272 344/218/272
f 325/213/273 341/219/274 342/220/275
f 321/216/276 336/215/277 352/221/278
f 323/214/279 339/222/279 340/223/279
f 335/214/280 334/212/280 350/223/280
f 321/216/281 337/224/282 338/221/283
f 333/213/284 332/210/285 348/220/286
f 331/211/287 330/200/287 346/218/287
f 328/200/288 344/218/289 345/209/290
f 326/210/291 342/220/291 343/217/291
f 324/212/292 340/223/293 341/219/294
f 336/215/295 335/214/296 351/222/297
f 322/215/298 338/221/299 339/222/300
f 334/212/301 333/213/302 349/219/303
f 332/210/304 331/211/304 347/217/304
f 364/220/305 363/217/305 379/225/306
f 344/218/307 360/218/308 361/209/308
f 342/220/309 358/220/310 359/217/310
f 340/223/311 356/223/312 357/219/313
f 352/221/314 351/222/314 367/222/314
f 338/221/315 354/221/315 355/222/315
f 350/223/316 349/219/316 365/219/317
f 348/220/318 347/217/318 363/217/319
f 346/218/320 345/209/320 361/209/321
f 343/217/322 359/217/322 360/218/322
f 341/219/323 357/219/324 358/220/325
f 337/224/326 352/221/326 368/221/326
f 339/222/327 355/222/327 356/223/327
f 351/222/328 350/223/328 366/223/328
f 337/224/329 353/224/329 354/221/329
f 349/219/330 348/220/330 364/220/331
f 369/226/332 385/227/333 386/228/334
f 361/209/335 377/229/336 378/230/336
f 359/217/337 375/225/338 376/230/338
f 357/219/324 373/231/339 374/232/340
f 368/221/341 384/233/341 369/226/341
f 355/222/342 371/234/343 372/235/342
f 366/223/344 382/235/345 383/234/346
f 354/221/347 353/224/347 369/226/347
f 365/219/348 364/220/331 380/232/349
f 363/217/350 362/218/350 378/230/351
f 361/209/352 360/218/352 376/230/353
f 358/220/354 374/232/355 375/225/355
f 356/223/312 372/235/356 373/231/357
f 368/221/358 367/222/358 383/234/359
f 355/222/360 354/221/360 370/233/361
f 366/223/362 365/219/317 381/231/363
f 386/228/364 402/236/365 403/237/366
f 381/231/367 380/232/349 396/238/368
f 379/225/369 378/230/369 394/239/369
f 376/230/370 392/239/371 393/240/372
f 374/232/373 390/238/373 391/241/373
f 372/235/356 388/242/374 389/243/375
f 384/233/376 383/234/377 399/244/378
f 370/233/379 386/228/380 387/244/381
f 382/235/382 381/231/363 397/243/383
f 380/232/384 379/225/384 395/241/384
f 378/230/385 377/229/386 393/240/387
f 375/225/388 391/241/388 392/239/388
f 373/231/339 389/243/389 390/238/390
f 369/226/391 384/233/392 400/228/393
f 371/234/394 387/244/394 388/242/394
f 383/234/346 382/235/345 398/242/395
f 403/237/396 419/245/396 420/246/396
f 398/242/397 397/243/398 413/247/399
f 396/238/400 395/241/400 411/248/400
f 394/239/401 393/240/402 409/249/403
f 391/241/404 407/248/404 408/250/404
f 389/243/405 405/247/406 406/251/407
f 385/227/408 400/228/409 416/236/410
f 387/244/411 403/237/411 404/252/411
f 399/244/412 398/242/412 414/252/412
f 385/227/413 401/253/414 402/236/415
f 397/243/416 396/238/417 412/251/418
f 395/241/419 394/239/419 410/250/419
f 392/239/420 408/250/421 409/249/422
f 390/238/423 406/251/423 407/248/423
f 388/242/424 404/252/425 405/247/426
f 400/228/427 399/244/428 415/237/429
f 420/246/430 436/254/431 437/255/432
f 415/237/433 414/252/433 430/246/433
f 401/253/434 417/256/435 418/257/436
f 413/247/437 412/251/438 428/258/439
f 411/248/440 410/250/440 426/259/440
f 408/250/441 424/259/442 425/260/443
f 406/251/444 422/258/444 423/261/444
f 404/252/445 420/246/446 421/262/447
f 416/236/448 415/237/449 431/245/450
f 402/236/451 418/257/452 419/245/453
f 414/252/454 413/247/455 429/262/456
f 412/251/457 411/248/457 427/261/457
f 410/250/458 409/249/459 425/260/460
f 407/248/461 423/261/461 424/259/461
f 405/247/462 421/262/463 422/258/464
f 401/253/465 416/236/466 432/257/467
f 437/255/468 453/263/469 454/264/470
f 432/257/471 431/245/472 447/265/473
f 418/257/474 434/266/475 435/265/476
f 430/246/477 429/262/478 445/255/479
f 428/258/480 427/261/480 443/267/480
f 426/259/481 425/260/482 441/268/483
f 423/261/484 439/267/484 440/269/484
f 421/262/485 437/255/486 438/270/487
f 417/256/488 432/257/489 448/266/490
f 419/245/491 435/265/491 436/254/491
f 431/245/492 430/246/492 446/254/492
f 417/256/493 433/271/494 434/266/495
f 429/262/496 428/258/497 444/270/498
f 427/261/499 426/259/499 442/269/499
f 424/259/500 440/269/501 441/268/502
f 422/258/503 438/270/503 439/267/503
f 455/272/504 471/273/505 472/274/505
f 433/271/506 448/266/507 464/275/508
f 435/265/509 451/276/509 452/277/509
f 447/265/510 446/254/510 462/277/510
f 433/271/511 449/278/512 450/275/513
f 445/255/514 444/270/515 460/264/516
f 443/267/517 442/269/517 458/279/517
f 440/269/518 456/279/519 457/280/520
f 438/270/521 454/264/521 455/272/521
f 436/254/522 452/277/523 453/263/524
f 448/266/525 447/265/526 463/276/527
f 434/266/528 450/275/529 451/276/530
f 446/254/531 445/255/532 461/263/533
f 444/270/534 443/267/534 459/272/534
f 442/269/535 441/268/536 457/280/537
f 439/267/538 455/272/538 456/279/538
f 473/281/539 472/274/539 488/282/539
f 453/263/540 469/283/541 470/284/541
f 449/278/542 464/275/542 480/285/542
f 451/276/543 467/286/544 468/287/544
f 463/276/545 462/277/545 478/287/545
f 449/278/546 465/288/546 466/285/546
f 460/264/547 476/284/547 477/283/547
f 458/279/548 474/274/549 475/273/549
f 456/279/539 472/274/539 473/281/539
f 454/264/550 470/284/551 471/273/551
f 452/277/552 468/287/553 469/283/553
f 463/276/554 479/286/554 480/285/554
f 451/276/555 450/275/555 466/285/556
f 462/277/557 461/263/557 477/283/557
f 460/264/558 459/272/558 475/273/558
f 457/280/559 473/281/559 474/274/559
f 486/289/560 494/290/560 492/289/560
f 471/273/551 470/284/551 486/289/551
f 468/287/553 484/290/553 485/291/553
f 479/286/554 495/292/561 496/293/561
f 467/286/556 466/285/556 482/293/556
f 477/283/557 493/291/557 494/290/557
f 475/273/558 491/294/558 492/289/558
f 473/281/559 489/295/559 490/282/559
f 472/274/505 471/273/505 487/294/505
f 469/283/541 485/291/541 486/289/541
f 480/285/542 496/293/542 481/296/542
f 467/286/544 483/292/544 484/290/544
f 479/286/545 478/287/545 494/290/545
f 465/288/546 481/296/546 482/293/546
f 477/283/547 476/284/547 492/289/547
f 474/274/549 490/282/548 491/294/548
f 498/297/562 500/298/562 499/299/562
f 500/298/563 502/300/563 501/301/564
f 502/300/565 504/302/565 503/303/565
f 504/304/566 506/305/567 505/306/566
f 506/305/568 508/307/568 507/308/568
f 508/307/569 510/309/569 509/310/569
f 510/311/570 512/312/570 511/313/570
f 512/312/571 514/314/571 513/315/571
f 513/315/572 514/314/572 516/316/572
f 515/317/573 516/316/573 518/318/573
f 517/319/574 518/318/574 520/320/574
f 519/321/575 520/322/575 522/323/575
f 521/324/576 522/323/576 524/325/576
f 523/326/577 524/325/577 526/304/577
f 514/327/578 498/328/578 524/329/578
f 527/330/579 528/331/579 498/297/579
f 525/311/580 526/332/581 528/331/581
f 499/333/582 530/334/582 529/335/582
f 529/336/583 530/337/583 534/338/583
f 511/339/584 513/340/584 537/341/584
f 517/342/585 519/343/585 540/344/585
f 503/345/586 532/346/586 531/347/586
f 523/348/587 525/349/587 543/350/587
f 509/351/588 535/352/588 534/353/588
f 515/354/589 538/355/589 537/341/589
f 521/356/590 541/357/590 540/344/590
f 503/345/591 505/358/591 533/359/592
f 525/349/593 527/360/593 544/361/594
f 509/351/595 511/339/595 536/362/595
f 517/342/596 539/363/596 538/355/596
f 501/364/597 531/347/598 530/334/598
f 523/348/599 542/365/600 541/357/600
f 505/358/601 507/366/601 534/353/601
f 497/367/602 529/335/602 544/361/602
f 257/186/140 258/168/140 259/170/140
f 259/170/141 260/169/141 261/172/141
f 261/172/144 262/171/142 263/174/144
f 263/174/146 264/173/145 265/176/146
f 265/176/149 266/175/147 267/178/149
f 267/178/150 268/177/150 269/180/150
f 269/180/151 270/179/151 271/182/151
f 271/182/152 272/181/152 273/184/152
f 273/184/153 274/183/153 275/182/153
f 275/182/154 276/181/154 277/180/154
f 277/180/155 278/179/155 279/178/155
f 279/178/156 280/177/156 281/176/156
f 281/176/158 282/175/158 283/174/158
f 283/174/162 284/173/160 285/172/162
f 300/194/603 280/177/603 299/185/603
f 287/170/164 288/169/164 257/186/164
f 285/172/165 286/171/165 287/170/165
f 259/188/166 287/187/166 257/368/166
f 287/187/166 283/369/166 285/370/604
f 287/187/166 279/371/166 281/372/166
f 279/371/166 275/373/166 277/374/166
f 275/373/166 271/189/166 273/375/166
f 271/189/166 267/376/166 269/377/605
f 259/188/166 263/378/166 265/379/166
f 263/378/166 259/188/166 261/380/166
f 281/372/166 283/369/166 287/187/166
f 287/187/166 275/373/166 279/371/166
f 259/188/166 267/376/166 271/189/166
f 267/376/166 259/188/166 265/379/166
f 271/189/166 275/373/166 287/187/166
f 296/197/606 295/185/606 312/191/606
f 264/173/143 262/171/142 292/193/607
f 303/192/608 286/171/608 302/193/608
f 270/179/609 268/177/609 295/185/609
f 298/197/610 276/181/171 297/195/173
f 301/196/611 282/175/157 300/194/174
f 266/175/146 264/173/145 293/196/176
f 304/198/612 288/169/177 303/192/179
f 272/181/613 270/179/613 296/197/613
f 299/185/614 278/179/614 298/197/614
f 262/171/615 260/169/182 291/192/184
f 302/193/616 284/173/159 301/196/185
f 268/177/148 266/175/147 294/194/187
f 289/199/617 258/168/188 304/198/190
f 260/169/618 258/168/191 290/198/193
f 274/183/619 272/181/194 297/195/196
f 313/208/620 312/191/197 329/201/199
f 294/194/621 293/196/200 310/203/202
f 305/207/622 289/199/203 320/204/205
f 292/193/623 291/192/623 308/206/623
f 319/205/624 303/192/624 318/206/624
f 290/198/625 289/199/208 306/204/210
f 317/202/626 301/196/211 316/203/213
f 315/190/627 299/185/627 314/191/627
f 297/195/628 296/197/215 313/208/217
f 295/185/629 294/194/629 311/190/629
f 293/196/630 292/193/219 309/202/221
f 320/204/631 304/198/222 319/205/224
f 291/192/632 290/198/225 307/205/227
f 318/206/633 302/193/228 317/202/230
f 316/203/634 300/194/634 315/190/634
f 314/191/635 298/197/232 313/208/234
f 346/218/636 330/200/235 345/209/237
f 311/190/637 310/203/637 327/211/637
f 309/202/638 308/206/239 325/213/241
f 336/215/639 320/204/242 335/214/244
f 307/205/640 306/204/245 323/214/247
f 334/212/641 318/206/248 333/213/250
f 332/210/642 316/203/642 331/211/642
f 330/200/643 314/191/252 329/201/254
f 312/191/644 311/190/644 328/200/644
f 310/203/645 309/202/256 326/210/258
f 321/216/646 305/207/259 336/215/261
f 308/206/647 307/205/647 324/212/647
f 335/214/648 319/205/648 334/212/648
f 306/204/649 305/207/264 322/215/266
f 333/213/650 317/202/267 332/210/269
f 331/211/651 315/190/651 330/200/651
f 363/217/271 347/217/271 362/218/271
f 328/200/652 327/211/652 344/218/652
f 326/210/653 325/213/273 342/220/275
f 337/224/654 321/216/276 352/221/278
f 324/212/655 323/214/655 340/223/655
f 351/222/656 335/214/656 350/223/656
f 322/215/657 321/216/281 338/221/283
f 349/219/658 333/213/284 348/220/286
f 347/217/659 331/211/659 346/218/659
f 329/201/660 328/200/288 345/209/290
f 327/211/661 326/210/661 343/217/661
f 325/213/662 324/212/292 341/219/294
f 352/221/663 336/215/295 351/222/297
f 323/214/664 322/215/298 339/222/300
f 350/223/665 334/212/301 349/219/303
f 348/220/666 332/210/666 347/217/666
f 380/232/306 364/220/305 379/225/306
f 345/209/307 344/218/307 361/209/308
f 343/217/309 342/220/309 359/217/310
f 341/219/311 340/223/311 357/219/313
f 368/221/314 352/221/314 367/222/314
f 339/222/315 338/221/315 355/222/315
f 366/223/362 350/223/316 365/219/317
f 364/220/319 348/220/318 363/217/319
f 362/218/321 346/218/320 361/209/321
f 344/218/322 343/217/322 360/218/322
f 342/220/323 341/219/323 358/220/325
f 353/224/326 337/224/326 368/221/326
f 340/223/327 339/222/327 356/223/327
f 367/222/328 351/222/328 366/223/328
f 338/221/329 337/224/329 354/221/329
f 365/219/348 349/219/330 364/220/331
f 370/233/667 369/226/332 386/228/334
f 362/218/335 361/209/335 378/230/336
f 360/218/337 359/217/337 376/230/338
f 358/220/325 357/219/324 374/232/340
f 353/224/341 368/221/341 369/226/341
f 356/223/342 355/222/342 372/235/342
f 367/222/344 366/223/344 383/234/346
f 370/233/347 354/221/347 369/226/347
f 381/231/367 365/219/348 380/232/349
f 379/225/351 363/217/350 378/230/351
f 377/229/353 361/209/352 376/230/353
f 359/217/354 358/220/354 375/225/355
f 357/219/313 356/223/312 373/231/357
f 384/233/359 368/221/358 383/234/359
f 371/234/361 355/222/360 370/233/361
f 382/235/382 366/223/362 381/231/363
f 387/244/668 386/228/364 403/237/366
f 397/243/669 381/231/367 396/238/368
f 395/241/670 379/225/670 394/239/670
f 377/229/671 376/230/370 393/240/372
f 375/225/672 374/232/672 391/241/672
f 373/231/357 372/235/356 389/243/375
f 400/228/673 384/233/376 399/244/378
f 371/234/674 370/233/379 387/244/381
f 398/242/675 382/235/382 397/243/383
f 396/238/676 380/232/676 395/241/676
f 394/239/677 378/230/385 393/240/387
f 376/230/678 375/225/678 392/239/678
f 374/232/340 373/231/339 390/238/390
f 385/227/679 369/226/391 400/228/393
f 372/235/342 371/234/343 388/242/680
f 399/244/681 383/234/681 398/242/681
f 404/252/682 403/237/682 420/246/682
f 414/252/683 398/242/397 413/247/399
f 412/251/684 396/238/684 411/248/684
f 410/250/685 394/239/401 409/249/403
f 392/239/686 391/241/686 408/250/686
f 390/238/687 389/243/405 406/251/407
f 401/253/688 385/227/408 416/236/410
f 388/242/689 387/244/689 404/252/689
f 415/237/690 399/244/690 414/252/690
f 386/228/691 385/227/413 402/236/415
f 413/247/692 397/243/416 412/251/418
f 411/248/693 395/241/693 410/250/693
f 393/240/694 392/239/420 409/249/422
f 391/241/695 390/238/695 407/248/695
f 389/243/696 388/242/424 405/247/426
f 416/236/697 400/228/427 415/237/429
f 421/262/698 420/246/430 437/255/432
f 431/245/699 415/237/699 430/246/699
f 402/236/700 401/253/434 418/257/436
f 429/262/701 413/247/437 428/258/439
f 427/261/702 411/248/702 426/259/702
f 409/249/703 408/250/441 425/260/443
f 407/248/704 406/251/704 423/261/704
f 405/247/705 404/252/445 421/262/447
f 432/257/706 416/236/448 431/245/450
f 403/237/707 402/236/451 419/245/453
f 430/246/708 414/252/454 429/262/456
f 428/258/709 412/251/709 427/261/709
f 426/259/710 410/250/458 425/260/460
f 408/250/711 407/248/711 424/259/711
f 406/251/712 405/247/462 422/258/464
f 417/256/713 401/253/465 432/257/467
f 438/270/714 437/255/468 454/264/470
f 448/266/715 432/257/471 447/265/473
f 419/245/716 418/257/474 435/265/476
f 446/254/717 430/246/477 445/255/479
f 444/270/718 428/258/718 443/267/718
f 442/269/719 426/259/481 441/268/483
f 424/259/720 423/261/720 440/269/720
f 422/258/721 421/262/485 438/270/487
f 433/271/722 417/256/488 448/266/490
f 420/246/723 419/245/723 436/254/723
f 447/265/724 431/245/724 446/254/724
f 418/257/725 417/256/493 434/266/495
f 445/255/726 429/262/496 444/270/498
f 443/267/727 427/261/727 442/269/727
f 425/260/728 424/259/500 441/268/502
f 423/261/729 422/258/729 439/267/729
f 456/279/504 455/272/504 472/274/505
f 449/278/730 433/271/506 464/275/508
f 436/254/731 435/265/731 452/277/731
f 463/276/732 447/265/732 462/277/732
f 434/266/733 433/271/511 450/275/513
f 461/263/734 445/255/514 460/264/516
f 459/272/735 443/267/735 458/279/735
f 441/268/736 440/269/518 457/280/520
f 439/267/737 438/270/737 455/272/737
f 437/255/738 436/254/522 453/263/524
f 464/275/739 448/266/525 463/276/527
f 435/265/740 434/266/528 451/276/530
f 462/277/741 446/254/531 461/263/533
f 460/264/742 444/270/742 459/272/742
f 458/279/743 442/269/535 457/280/537
f 440/269/744 439/267/744 456/279/744
f 489/295/539 473/281/539 488/282/539
f 454/264/540 453/263/540 470/284/541
f 465/288/542 449/278/542 480/285/542
f 452/277/543 451/276/543 468/287/544
f 479/286/545 463/276/545 478/287/545
f 450/275/546 449/278/546 466/285/546
f 461/263/547 460/264/547 477/283/547
f 459/272/548 458/279/548 475/273/549
f 457/280/539 456/279/539 473/281/539
f 455/272/550 454/264/550 471/273/551
f 453/263/552 452/277/552 469/283/553
f 464/275/554 463/276/554 480/285/554
f 467/286/556 451/276/555 466/285/556
f 478/287/557 462/277/557 477/283/557
f 476/284/558 460/264/558 475/273/558
f 458/279/559 457/280/559 474/274/559
f 481/296/560 483/292/745 482/293/745
f 486/289/560 485/291/746 484/290/560
f 488/282/560 487/294/560 486/289/560
f 490/282/560 489/295/747 488/282/560
f 492/289/560 491/294/560 490/282/560
f 494/290/560 493/291/748 492/289/560
f 481/296/560 495/292/560 494/290/560
f 495/292/560 481/296/560 496/293/749
f 481/296/560 484/290/560 483/292/745
f 492/289/560 488/282/560 486/289/560
f 488/282/560 492/289/560 490/282/560
f 484/290/560 481/296/560 494/290/560
f 494/290/560 486/289/560 484/290/560
f 487/294/551 471/273/551 486/289/551
f 469/283/553 468/287/553 485/291/553
f 480/285/554 479/286/554 496/293/561
f 483/292/556 467/286/556 482/293/556
f 478/287/557 477/283/557 494/290/557
f 476/284/558 475/273/558 492/289/558
f 474/274/559 473/281/559 490/282/559
f 488/282/505 472/274/505 487/294/505
f 470/284/541 469/283/541 486/289/541
f 465/288/542 480/285/542 481/296/542
f 468/287/544 467/286/544 484/290/544
f 495/292/545 479/286/545 494/290/545
f 466/285/546 465/288/546 482/293/546
f 493/291/547 477/283/547 492/289/547
f 475/273/549 474/274/549 491/294/548
f 497/381/562 498/297/562 499/299/562
f 499/299/564 500/298/563 501/301/564
f 501/301/565 502/300/565 503/303/565
f 503/382/566 504/304/566 505/306/566
f 505/306/568 506/305/568 507/308/568
f 507/308/569 508/307/569 509/310/569
f 509/332/570 510/311/570 511/313/570
f 511/313/571 512/312/571 513/315/571
f 515/317/572 513/315/572 516/316/572
f 517/319/573 515/317/573 518/318/573
f 519/383/574 517/319/574 520/320/574
f 521/324/575 519/321/575 522/323/575
f 523/326/576 521/324/576 524/325/576
f 525/382/577 523/326/577 526/304/577
f 498/328/578 502/384/578 500/385/578
f 498/328/578 506/386/578 504/387/750
f 506/386/578 510/388/751 508/389/578
f 510/388/751 514/327/578 512/390/752
f 514/327/578 518/391/753 516/392/754
f 518/391/753 522/393/753 520/394/578
f 498/328/578 526/395/578 524/329/578
f 526/395/578 498/328/578 528/396/578
f 498/328/578 504/387/750 502/384/578
f 506/386/578 514/327/578 510/388/751
f 514/327/578 522/393/753 518/391/753
f 522/393/753 514/327/578 524/329/578
f 498/328/578 514/327/578 506/386/578
f 497/381/579 527/330/579 498/297/579
f 527/330/580 525/311/580 528/331/581
f 497/367/582 499/333/582 529/335/582
f 540/397/583 544/398/583 529/336/583
f 544/398/583 542/399/755 543/400/755
f 544/398/583 540/397/583 541/401/583
f 540/397/583 538/402/583 539/403/756
f 534/338/583 536/404/583 537/405/583
f 536/404/583 534/338/583 535/406/756
f 530/337/583 532/407/757 533/408/583
f 532/407/757 530/337/583 531/409/757
f 541/401/583 542/399/755 544/398/583
f 537/405/583 538/402/583 540/397/583
f 529/336/583 534/338/583 537/405/583
f 534/338/583 530/337/583 533/408/583
f 537/405/583 540/397/583 529/336/583
f 536/362/584 511/339/584 537/341/584
f 539/363/585 517/342/585 540/344/585
f 501/364/586 503/345/586 531/347/586
f 542/365/587 523/348/587 543/350/587
f 507/366/588 509/351/588 534/353/588
f 513/340/589 515/354/589 537/341/589
f 519/343/590 521/356/590 540/344/590
f 532/346/592 503/345/591 533/359/592
f 543/350/594 525/349/593 544/361/594
f 535/352/595 509/351/595 536/362/595
f 515/354/596 517/342/596 538/355/596
f 499/333/597 501/364/597 530/334/598
f 521/356/599 523/348/599 541/357/600
f 533/359/601 505/358/601 534/353/601
f 527/360/602 497/367/602 544/361/602
