# Blender 5.0.1
# www.blender.org
mtllib SignalPF2Z.mtl
o PF201_PF01
v -0.144000 0.440250 0.056044
v -0.144000 0.440250 0.035700
v 0.144000 0.440250 0.035700
v 0.144000 0.440250 0.056044
v -0.144000 0.872250 0.056044
v -0.144000 0.872250 0.035700
v 0.144000 0.872250 0.035700
v 0.144000 0.872250 0.056044
vn -1.0000 -0.0000 -0.0000
vn -0.0000 -0.0000 -1.0000
vn 1.0000 -0.0000 -0.0000
vn -0.0000 -0.0000 1.0000
vn -0.0000 -1.0000 -0.0000
vn -0.0000 1.0000 -0.0000
vt 0.023441 1.000005
vt 0.023441 0.500012
vt -0.000050 0.500012
vt 0.664588 1.000005
vt 0.664588 0.500012
vt 0.332033 0.500012
vt -0.000050 1.000005
vt -0.000048 1.000005
vt -0.000048 0.500012
vt 0.332507 0.500012
vt -0.000048 0.523499
vt 0.332507 0.523499
vt 0.332033 1.000005
vt 0.332507 1.000005
s 0
f 6/1/1 2/2/1 1/3/1
f 7/4/2 3/5/2 2/6/2
f 8/7/3 4/3/3 3/2/3
f 5/8/4 1/9/4 4/10/4
f 2/11/5 3/12/5 4/10/5
f 7/12/6 6/11/6 5/9/6
f 5/7/1 6/1/1 1/3/1
f 6/13/2 7/4/2 2/6/2
f 7/1/3 8/7/3 3/2/3
f 8/14/4 5/8/4 4/10/4
f 1/9/5 2/11/5 4/10/5
f 8/10/6 7/12/6 5/9/6
o PF202_PF02
v -0.144000 0.002750 0.056044
v -0.144000 0.002750 0.035700
v 0.144000 0.002750 0.035700
v 0.144000 0.002750 0.056044
v -0.144000 0.434750 0.056044
v -0.144000 0.434750 0.035700
v 0.144000 0.434750 0.035700
v 0.144000 0.434750 0.056044
vn -1.0000 -0.0000 -0.0000
vn -0.0000 -0.0000 -1.0000
vn 1.0000 -0.0000 -0.0000
vn -0.0000 -0.0000 1.0000
vn -0.0000 -1.0000 -0.0000
vn -0.0000 1.0000 -0.0000
vt 0.023441 1.000005
vt 0.023441 0.500012
vt -0.000050 0.500012
vt 0.664588 1.000005
vt 0.664588 0.500012
vt 0.332033 0.500012
vt -0.000050 1.000005
vt -0.000048 1.000005
vt -0.000048 0.500012
vt 0.332507 0.500012
vt -0.000048 0.523499
vt 0.332507 0.523499
vt 0.332033 1.000005
vt 0.332507 1.000005
s 0
f 14/15/7 10/16/7 9/17/7
f 15/18/8 11/19/8 10/20/8
f 16/21/9 12/17/9 11/16/9
f 13/22/10 9/23/10 12/24/10
f 10/25/11 11/26/11 12/24/11
f 15/26/12 14/25/12 13/23/12
f 13/21/7 14/15/7 9/17/7
f 14/27/8 15/18/8 10/20/8
f 15/15/9 16/21/9 11/16/9
f 16/28/10 13/22/10 12/24/10
f 9/23/11 10/25/11 12/24/11
f 16/24/12 15/26/12 13/23/12
o ZSign01_ZS01
v -0.140000 0.878750 0.055762
v -0.140000 0.878750 0.035983
v 0.140000 0.878750 0.035983
v 0.140000 0.878750 0.055762
v -0.140000 0.983750 0.055762
v -0.140000 0.983750 0.035983
v 0.140000 0.983750 0.035983
v 0.140000 0.983750 0.055762
vn -1.0000 -0.0000 -0.0000
vn -0.0000 -0.0000 -1.0000
vn 1.0000 -0.0000 -0.0000
vn -0.0000 -0.0000 1.0000
vn -0.0000 -1.0000 -0.0000
vn -0.0000 1.0000 -0.0000
vt 0.023441 1.000005
vt 0.023441 0.500012
vt -0.000050 0.500012
vt 0.664588 1.000005
vt 0.664588 0.500012
vt 0.332033 0.500012
vt -0.000050 1.000005
vt 0.000829 0.501155
vt 0.000829 0.366171
vt 0.332106 0.366171
vt -0.000048 0.523499
vt 0.332507 0.523499
vt 0.332507 0.500008
vt -0.000048 0.500008
vt 0.332033 1.000005
vt 0.332106 0.501155
s 0
f 22/29/13 18/30/13 17/31/13
f 23/32/14 19/33/14 18/34/14
f 24/35/15 20/31/15 19/30/15
f 21/36/16 17/37/16 20/38/16
f 18/39/17 19/40/17 20/41/17
f 23/40/18 22/39/18 21/42/18
f 21/35/13 22/29/13 17/31/13
f 22/43/14 23/32/14 18/34/14
f 23/29/15 24/35/15 19/30/15
f 24/44/16 21/36/16 20/38/16
f 17/42/17 18/39/17 20/41/17
f 24/41/18 23/40/18 21/42/18
