# Blender 5.0.1
# www.blender.org
mtllib StativRA.mtl
o Mast01_MA01
v -0.031250 0.832000 -0.050000
v -0.031250 0.832000 -0.239998
v 0.031250 0.832000 -0.239998
v 0.031250 0.832000 -0.050000
v -0.031250 0.842000 -0.050000
v -0.031250 0.842000 -0.239998
v 0.031250 0.842000 -0.239998
v 0.031250 0.842000 -0.050000
v -0.025000 0.832003 -0.060000
v -0.025000 0.831998 -0.239998
v 0.025000 0.831998 -0.239998
v 0.025000 0.832003 -0.060000
v -0.031250 0.762000 -0.050006
v -0.031250 0.762000 -0.186879
v 0.031250 0.762000 -0.186879
v 0.031250 0.762000 -0.050006
v -0.025000 0.762002 -0.060006
v -0.025000 0.761998 -0.186879
v 0.025000 0.761998 -0.186879
v 0.025000 0.762002 -0.060006
v -0.049998 1.000000 -0.050000
v -0.050003 1.000000 0.050000
v 0.049998 1.000000 0.050000
v 0.050003 1.000000 -0.050000
v -0.049998 0.050000 -0.050000
v -0.050003 0.050000 0.050000
v 0.049998 0.050000 0.050000
v 0.050003 0.050000 -0.050000
v 0.031250 0.586000 0.050000
v 0.031250 0.586000 0.239998
v -0.031250 0.586000 0.239998
v -0.031250 0.586000 0.050000
v 0.031250 0.596000 0.050000
v 0.031250 0.596000 0.239998
v -0.031250 0.596000 0.239998
v -0.031250 0.596000 0.050000
v 0.025000 0.586003 0.060000
v 0.025000 0.585998 0.239998
v -0.025000 0.585998 0.239998
v -0.025000 0.586003 0.060000
v 0.031250 0.516000 0.050006
v 0.031250 0.516000 0.186879
v -0.031250 0.516000 0.186879
v -0.031250 0.516000 0.050006
v 0.025000 0.516002 0.060006
v 0.025000 0.515997 0.186879
v -0.025000 0.515997 0.186879
v -0.025000 0.516002 0.060006
vn -1.0000 -0.0000 -0.0000
vn -0.0000 -0.0000 -1.0000
vn 1.0000 -0.0000 -0.0000
vn -0.0000 -0.0000 1.0000
vn -0.0000 0.0001 -1.0000
vn -0.0000 1.0000 -0.0000
vn -0.0000 -1.0000 -0.0000
vn 0.0002 -0.6045 -0.7966
vn -0.0000 -1.0000 -0.0002
vn -0.0002 -0.6045 -0.7966
vn -0.0003 -1.0000 -0.0000
vn -0.0000 -0.0001 1.0000
vn -0.0000 0.0001 1.0000
vn -0.0002 -0.6045 0.7966
vn -0.0000 -1.0000 0.0002
vn 0.0003 -0.6045 0.7966
vn 0.0003 -1.0000 -0.0000
vn 0.0005 -1.0000 -0.0000
vn -0.0000 -0.0001 -1.0000
vn -0.0003 -0.6045 0.7966
vn 0.0002 -0.6045 0.7966
vn -0.0005 -1.0000 -0.0000
vt 0.590547 0.688050
vt 0.590547 0.683550
vt 0.505048 0.683550
vt 0.562504 0.691735
vt 0.562504 0.686735
vt 0.531254 0.686735
vt 0.505048 0.688050
vt 0.531254 0.691735
vt 0.559379 0.686736
vt 0.559379 0.651736
vt 0.534379 0.651736
vt 0.685173 0.777002
vt 0.657048 0.777002
vt 0.657048 0.691503
vt 0.659860 0.777002
vt 0.682360 0.777002
vt 0.682360 0.696003
vt 0.562504 0.651735
vt 0.659860 0.696005
vt 0.534379 0.686733
vt 0.531254 0.651735
vt 0.685173 0.691505
vt 0.509548 0.683551
vt 0.590547 0.683549
vt 0.590549 0.652049
vt 0.509550 0.652051
vt 0.505050 0.652050
vt 0.590549 0.652050
vt 0.515630 0.499999
vt 0.515630 0.749999
vt 0.500004 0.749999
vt 0.546883 0.765617
vt 0.515634 0.765617
vt 0.546883 0.749999
vt 0.500004 0.499999
s 0
f 6/1/1 2/2/1 1/3/1
f 7/4/2 3/5/2 2/6/2
f 8/7/3 4/3/3 3/2/3
f 5/8/4 1/6/4 4/5/4
f 12/9/5 20/10/5 17/11/5
f 7/12/6 6/13/6 5/14/6
f 10/15/7 11/16/7 12/17/7
f 11/9/8 3/5/8 15/18/8
f 13/14/9 17/19/9 20/17/9
f 10/20/10 18/11/10 14/21/10
f 15/12/11 16/22/11 20/17/11
f 14/13/11 18/15/11 17/19/11
f 12/23/1 11/24/1 19/25/1
f 9/23/3 17/26/3 18/25/3
f 1/6/12 13/21/12 16/18/12
f 4/3/3 16/27/3 15/28/3
f 1/3/1 2/2/1 14/28/1
f 26/29/1 22/30/1 21/31/1
f 27/29/4 23/30/4 22/31/4
f 28/29/3 24/30/3 23/31/3
f 25/29/2 21/30/2 24/31/2
f 21/32/6 22/33/6 23/30/6
f 27/33/7 26/30/7 25/34/7
f 34/1/3 30/2/3 29/3/3
f 35/4/4 31/5/4 30/6/4
f 36/7/1 32/3/1 31/2/1
f 33/8/2 29/6/2 32/5/2
f 40/9/13 48/10/13 45/11/13
f 35/12/6 34/13/6 33/14/6
f 38/15/7 39/16/7 40/17/7
f 39/9/14 31/5/14 43/18/14
f 41/14/15 45/19/15 48/17/15
f 38/20/16 46/11/16 42/21/16
f 43/12/17 44/22/17 48/17/17
f 42/13/18 46/15/18 45/19/18
f 40/23/3 39/24/3 47/25/3
f 37/23/1 45/26/1 46/25/1
f 29/6/19 41/21/19 44/18/19
f 32/3/1 44/27/1 43/28/1
f 29/3/3 30/2/3 42/28/3
f 5/7/1 6/1/1 1/3/1
f 6/8/2 7/4/2 2/6/2
f 7/1/3 8/7/3 3/2/3
f 8/4/4 5/8/4 4/5/4
f 9/20/5 12/9/5 17/11/5
f 8/22/6 7/12/6 5/14/6
f 9/19/7 10/15/7 12/17/7
f 19/10/8 11/9/8 15/18/8
f 16/22/9 13/14/9 20/17/9
f 2/6/10 10/20/10 14/21/10
f 19/16/17 15/12/17 20/17/17
f 13/14/17 14/13/17 17/19/17
f 20/26/1 12/23/1 19/25/1
f 10/24/3 9/23/3 18/25/3
f 4/5/12 1/6/12 16/18/12
f 3/2/3 4/3/3 15/28/3
f 13/27/1 1/3/1 14/28/1
f 25/35/1 26/29/1 21/31/1
f 26/35/4 27/29/4 22/31/4
f 27/35/3 28/29/3 23/31/3
f 28/35/2 25/29/2 24/31/2
f 24/34/6 21/32/6 23/30/6
f 28/32/7 27/33/7 25/34/7
f 33/7/3 34/1/3 29/3/3
f 34/8/4 35/4/4 30/6/4
f 35/1/1 36/7/1 31/2/1
f 36/4/2 33/8/2 32/5/2
f 37/20/13 40/9/13 45/11/13
f 36/22/6 35/12/6 33/14/6
f 37/19/7 38/15/7 40/17/7
f 47/10/20 39/9/20 43/18/20
f 44/22/15 41/14/15 48/17/15
f 30/6/21 38/20/21 42/21/21
f 47/16/22 43/12/22 48/17/22
f 41/14/11 42/13/11 45/19/11
f 48/26/3 40/23/3 47/25/3
f 38/24/1 37/23/1 46/25/1
f 32/5/19 29/6/19 44/18/19
f 31/2/1 32/3/1 43/28/1
f 41/27/3 29/3/3 42/28/3
o Stativ01_ST01
v -0.304000 0.000000 0.308000
v -0.304000 -0.000000 -0.308000
v 0.304000 -0.000000 -0.308000
v 0.304000 0.000000 0.308000
v -0.304000 0.050000 0.308000
v -0.304000 0.050000 -0.308000
v 0.304000 0.050000 -0.308000
v 0.304000 0.050000 0.308000
vn -1.0000 -0.0000 -0.0000
vn -0.0000 -0.0000 -1.0000
vn 1.0000 -0.0000 -0.0000
vn -0.0000 -0.0000 1.0000
vn -0.0000 -1.0000 -0.0000
vn -0.0000 1.0000 -0.0000
vt 0.561418 0.576505
vt 0.546418 0.576505
vt 0.546418 0.761305
vt 0.561418 0.577705
vt 0.546418 0.577705
vt 0.546418 0.760105
vt 0.561418 0.761305
vt 0.561418 0.760105
vt 0.626290 0.780920
vt 0.718003 0.780920
vt 0.718003 0.688000
vt 0.626290 0.688000
s 0
f 54/36/23 50/37/23 49/38/23
f 55/39/24 51/40/24 50/41/24
f 56/42/25 52/38/25 51/37/25
f 53/43/26 49/41/26 52/40/26
f 50/44/27 51/45/27 52/46/27
f 55/45/28 54/44/28 53/47/28
f 53/42/23 54/36/23 49/38/23
f 54/43/24 55/39/24 50/41/24
f 55/36/25 56/42/25 51/37/25
f 56/39/26 53/43/26 52/40/26
f 49/47/27 50/44/27 52/46/27
f 56/46/28 55/45/28 53/47/28
o Stativ02_ST02
v -0.240000 0.050000 0.050000
v -0.240000 0.050000 0.032000
v -0.050000 0.050000 0.032000
v -0.050000 0.050000 0.050000
v -0.240000 0.210000 0.050000
v -0.240000 0.210000 0.032000
v -0.050000 0.370000 0.032000
v -0.050000 0.370000 0.050000
v -0.032000 0.050000 0.239992
v -0.050000 0.050000 0.239992
v -0.050000 0.050000 0.049992
v -0.032000 0.050000 0.049992
v -0.032000 0.210000 0.239992
v -0.050000 0.210000 0.239992
v -0.050000 0.370000 0.049992
v -0.032000 0.370000 0.049992
v 0.049996 0.050000 0.239996
v 0.031996 0.050000 0.239996
v 0.031996 0.050000 0.049996
v 0.049996 0.050000 0.049996
v 0.049996 0.210000 0.239996
v 0.031996 0.210000 0.239996
v 0.031996 0.370000 0.049996
v 0.049996 0.370000 0.049996
v 0.239988 0.050000 0.031996
v 0.239988 0.050000 0.049996
v 0.049988 0.050000 0.049996
v 0.049988 0.050000 0.031996
v 0.239988 0.210000 0.031996
v 0.239988 0.210000 0.049996
v 0.049988 0.370000 0.049996
v 0.049988 0.370000 0.031996
v 0.239992 0.050000 -0.049996
v 0.239992 0.050000 -0.031996
v 0.049992 0.050000 -0.031996
v 0.049992 0.050000 -0.049996
v 0.239992 0.210000 -0.049996
v 0.239992 0.210000 -0.031996
v 0.049992 0.370000 -0.031996
v 0.049992 0.370000 -0.049996
v 0.031992 0.050000 -0.239988
v 0.049992 0.050000 -0.239988
v 0.049992 0.050000 -0.049988
v 0.031992 0.050000 -0.049988
v 0.031992 0.210000 -0.239988
v 0.049992 0.210000 -0.239988
v 0.049992 0.370000 -0.049988
v 0.031992 0.370000 -0.049988
v -0.049996 0.050000 -0.239992
v -0.031996 0.050000 -0.239992
v -0.031996 0.050000 -0.049992
v -0.049996 0.050000 -0.049992
v -0.049996 0.210000 -0.239992
v -0.031996 0.210000 -0.239992
v -0.031996 0.370000 -0.049992
v -0.049996 0.370000 -0.049992
v -0.239988 0.050000 -0.031992
v -0.239988 0.050000 -0.049992
v -0.049988 0.050000 -0.049992
v -0.049988 0.050000 -0.031992
v -0.239988 0.210000 -0.031992
v -0.239988 0.210000 -0.049992
v -0.049988 0.370000 -0.049992
v -0.049988 0.370000 -0.031992
v -0.240000 0.050000 0.240000
v -0.240000 0.050000 0.050000
v -0.050000 0.050000 0.050000
v -0.050000 0.050000 0.240000
v -0.240000 0.090000 0.240000
v -0.240000 0.090000 0.050000
v -0.050000 0.090000 0.050000
v -0.050000 0.090000 0.240000
v 0.240008 0.050000 0.240008
v 0.050008 0.050000 0.240008
v 0.050008 0.050000 0.050008
v 0.240008 0.050000 0.050008
v 0.240008 0.090000 0.240008
v 0.050008 0.090000 0.240008
v 0.050008 0.090000 0.050008
v 0.240008 0.090000 0.050008
v 0.240008 0.050000 -0.240008
v 0.240008 0.050000 -0.050008
v 0.050008 0.050000 -0.050008
v 0.050008 0.050000 -0.240008
v 0.240008 0.090000 -0.240008
v 0.240008 0.090000 -0.050008
v 0.050008 0.090000 -0.050008
v 0.050008 0.090000 -0.240008
v -0.240008 0.050000 -0.240008
v -0.050008 0.050000 -0.240008
v -0.050008 0.050000 -0.050008
v -0.240008 0.050000 -0.050008
v -0.240008 0.090000 -0.240008
v -0.050008 0.090000 -0.240008
v -0.050008 0.090000 -0.050008
v -0.240008 0.090000 -0.050008
vn -1.0000 -0.0000 -0.0000
vn -0.0000 -0.0000 -1.0000
vn 1.0000 -0.0000 -0.0000
vn -0.0000 -0.0000 1.0000
vn -0.0000 -1.0000 -0.0000
vn -0.6441 0.7649 -0.0000
vn -0.0000 0.7649 0.6441
vn 0.6441 0.7649 -0.0000
vn -0.0000 0.7649 -0.6441
vn -0.0000 1.0000 -0.0000
vt 0.563506 0.621547
vt 0.563506 0.684047
vt 0.558833 0.684047
vt 0.558833 0.621547
vt 0.503342 0.559047
vt 0.503342 0.684047
vt 0.563506 0.559047
vt 0.568179 0.559047
vt 0.568179 0.633266
vt 0.572852 0.559047
vt 0.572852 0.633266
vt 0.672544 0.687505
vt 0.692973 0.687505
vt 0.692973 0.781251
vt 0.652114 0.687505
vt 0.672543 0.781251
vt 0.652115 0.781251
vt 0.625011 0.687505
vt 0.718753 0.687505
vt 0.718753 0.781253
vt 0.625011 0.781253
vt 0.568179 0.684047
vt 0.558833 0.559047
s 0
f 62/48/29 58/49/29 57/50/29
f 62/51/30 63/52/30 59/53/30
f 64/49/31 60/54/31 59/55/31
f 61/51/32 57/50/32 60/53/32
f 58/56/33 59/55/33 60/57/33
f 63/54/34 62/48/34 61/51/34
f 70/48/32 66/49/32 65/50/32
f 70/51/29 71/52/29 67/53/29
f 72/49/30 68/54/30 67/55/30
f 69/51/31 65/50/31 68/53/31
f 66/56/33 67/55/33 68/57/33
f 71/54/35 70/48/35 69/51/35
f 78/48/32 74/49/32 73/50/32
f 78/51/29 79/52/29 75/53/29
f 80/49/30 76/54/30 75/55/30
f 77/51/31 73/50/31 76/53/31
f 74/56/33 75/55/33 76/57/33
f 79/54/35 78/48/35 77/51/35
f 86/48/31 82/49/31 81/50/31
f 86/51/32 87/52/32 83/53/32
f 88/49/29 84/54/29 83/55/29
f 85/51/30 81/50/30 84/53/30
f 82/56/33 83/55/33 84/57/33
f 87/54/36 86/48/36 85/51/36
f 94/48/31 90/49/31 89/50/31
f 94/51/32 95/52/32 91/53/32
f 96/49/29 92/54/29 91/55/29
f 93/51/30 89/50/30 92/53/30
f 90/56/33 91/55/33 92/57/33
f 95/54/36 94/48/36 93/51/36
f 102/48/30 98/49/30 97/50/30
f 102/51/31 103/52/31 99/53/31
f 104/49/32 100/54/32 99/55/32
f 101/51/29 97/50/29 100/53/29
f 98/56/33 99/55/33 100/57/33
f 103/54/37 102/48/37 101/51/37
f 110/48/30 106/49/30 105/50/30
f 110/51/31 111/52/31 107/53/31
f 112/49/32 108/54/32 107/55/32
f 109/51/29 105/50/29 108/53/29
f 105/58/33 106/56/33 107/55/33
f 111/54/37 110/48/37 109/51/37
f 118/48/29 114/49/29 113/50/29
f 118/51/30 119/52/30 115/53/30
f 120/49/31 116/54/31 115/55/31
f 117/51/32 113/50/32 116/53/32
f 113/58/33 114/56/33 115/55/33
f 119/54/34 118/48/34 117/51/34
f 126/59/29 122/60/29 121/61/29
f 127/62/30 123/59/30 122/63/30
f 128/59/31 124/60/31 123/61/31
f 125/63/32 121/64/32 124/62/32
f 122/65/33 123/66/33 124/67/33
f 128/65/38 127/66/38 126/67/38
f 134/59/32 130/60/32 129/61/32
f 135/62/29 131/59/29 130/63/29
f 136/59/30 132/60/30 131/61/30
f 133/63/31 129/64/31 132/62/31
f 130/65/33 131/66/33 132/67/33
f 136/65/38 135/66/38 134/67/38
f 142/59/31 138/60/31 137/61/31
f 143/62/32 139/59/32 138/63/32
f 144/59/29 140/60/29 139/61/29
f 141/63/30 137/64/30 140/62/30
f 138/65/33 139/66/33 140/67/33
f 143/66/38 142/67/38 141/68/38
f 150/59/30 146/60/30 145/61/30
f 151/62/31 147/59/31 146/63/31
f 152/59/32 148/60/32 147/61/32
f 149/63/29 145/64/29 148/62/29
f 146/65/33 147/66/33 148/67/33
f 151/66/38 150/67/38 149/68/38
f 61/51/29 62/48/29 57/50/29
f 58/50/30 62/51/30 59/53/30
f 63/69/31 64/49/31 59/55/31
f 64/52/32 61/51/32 60/53/32
f 57/58/33 58/56/33 60/57/33
f 64/70/34 63/54/34 61/51/34
f 69/51/32 70/48/32 65/50/32
f 66/50/29 70/51/29 67/53/29
f 71/69/30 72/49/30 67/55/30
f 72/52/31 69/51/31 68/53/31
f 65/58/33 66/56/33 68/57/33
f 72/70/35 71/54/35 69/51/35
f 77/51/32 78/48/32 73/50/32
f 74/50/29 78/51/29 75/53/29
f 79/69/30 80/49/30 75/55/30
f 80/52/31 77/51/31 76/53/31
f 73/58/33 74/56/33 76/57/33
f 80/70/35 79/54/35 77/51/35
f 85/51/31 86/48/31 81/50/31
f 82/50/32 86/51/32 83/53/32
f 87/69/29 88/49/29 83/55/29
f 88/52/30 85/51/30 84/53/30
f 81/58/33 82/56/33 84/57/33
f 88/70/36 87/54/36 85/51/36
f 93/51/31 94/48/31 89/50/31
f 90/50/32 94/51/32 91/53/32
f 95/69/29 96/49/29 91/55/29
f 96/52/30 93/51/30 92/53/30
f 89/58/33 90/56/33 92/57/33
f 96/70/36 95/54/36 93/51/36
f 101/51/30 102/48/30 97/50/30
f 98/50/31 102/51/31 99/53/31
f 103/69/32 104/49/32 99/55/32
f 104/52/29 101/51/29 100/53/29
f 97/58/33 98/56/33 100/57/33
f 104/70/37 103/54/37 101/51/37
f 109/51/30 110/48/30 105/50/30
f 106/50/31 110/51/31 107/53/31
f 111/69/32 112/49/32 107/55/32
f 112/52/29 109/51/29 108/53/29
f 108/57/33 105/58/33 107/55/33
f 112/70/37 111/54/37 109/51/37
f 117/51/29 118/48/29 113/50/29
f 114/50/30 118/51/30 115/53/30
f 119/69/31 120/49/31 115/55/31
f 120/52/32 117/51/32 116/53/32
f 116/57/33 113/58/33 115/55/33
f 120/70/34 119/54/34 117/51/34
f 125/63/29 126/59/29 121/61/29
f 126/64/30 127/62/30 122/63/30
f 127/63/31 128/59/31 123/61/31
f 128/59/32 125/63/32 124/62/32
f 121/68/33 122/65/33 124/67/33
f 125/68/38 128/65/38 126/67/38
f 133/63/32 134/59/32 129/61/32
f 134/64/29 135/62/29 130/63/29
f 135/63/30 136/59/30 131/61/30
f 136/59/31 133/63/31 132/62/31
f 129/68/33 130/65/33 132/67/33
f 133/68/38 136/65/38 134/67/38
f 141/63/31 142/59/31 137/61/31
f 142/64/32 143/62/32 138/63/32
f 143/63/29 144/59/29 139/61/29
f 144/59/30 141/63/30 140/62/30
f 137/68/33 138/65/33 140/67/33
f 144/65/38 143/66/38 141/68/38
f 149/63/30 150/59/30 145/61/30
f 150/64/31 151/62/31 146/63/31
f 151/63/32 152/59/32 147/61/32
f 152/59/29 149/63/29 148/62/29
f 145/68/33 146/65/33 148/67/33
f 152/65/38 151/66/38 149/68/38
