# Blender 5.0.1
# www.blender.org
mtllib RailCrossStativ.mtl
o RailCrossStativ01_RCS01
v -0.050000 0.000000 0.050000
v -0.050000 -0.000000 -0.050000
v 0.050000 -0.000000 -0.050000
v 0.050000 0.000000 0.050000
v -0.050000 1.000000 0.050000
v -0.050000 1.000000 -0.050000
v 0.050000 1.000000 -0.050000
v 0.050000 1.000000 0.050000
vn -1.0000 -0.0000 -0.0000
vn -0.0000 -0.0000 -1.0000
vn 1.0000 -0.0000 -0.0000
vn -0.0000 -0.0000 1.0000
vn -0.0000 -1.0000 -0.0000
vn -0.0000 1.0000 -0.0000
vt 0.000000 1.000000
vt 0.000000 0.000000
vt 0.200000 0.000000
vt 0.400000 1.000000
vt 0.400000 0.000000
vt 0.600000 0.000000
vt 0.600000 1.000000
vt 0.800000 0.000000
vt 0.200000 1.000000
vt 0.800000 0.200000
vt 0.800000 0.100000
vt 1.000000 0.100000
vt 1.000000 0.000000
vt 0.800000 1.000000
vt 1.000000 0.200000
s 0
f 6/1/1 2/2/1 1/3/1
f 7/4/2 3/5/2 2/6/2
f 8/7/3 4/6/3 3/8/3
f 5/9/4 1/3/4 4/5/4
f 2/10/5 3/11/5 4/12/5
f 7/13/6 6/12/6 5/11/6
f 5/9/1 6/1/1 1/3/1
f 6/7/2 7/4/2 2/6/2
f 7/14/3 8/7/3 3/8/3
f 8/4/4 5/9/4 4/5/4
f 1/15/5 2/10/5 4/12/5
f 8/8/6 7/13/6 5/11/6
