# Blender 4.0.2
# www.blender.org
mtllib 2svetT.mtl
o zelena_2svet_typ1
v 0.073281 0.386846 0.028549
v 0.078463 0.402685 0.026675
v 0.080216 0.419247 0.024716
v 0.053675 0.360048 0.031720
v 0.064896 0.372424 0.030256
v 0.078463 0.435810 0.022756
v 0.024788 0.343485 0.033680
v 0.040108 0.350259 0.032878
v 0.064896 0.466071 0.019175
v 0.073281 0.451648 0.020882
v 0.040108 0.488236 0.016553
v 0.053675 0.478447 0.017711
v -0.008385 0.340023 0.034090
v 0.008385 0.340023 0.034090
v 0.008385 0.498472 0.015341
v -0.040108 0.350259 0.032878
v -0.024788 0.343485 0.033680
v 0.024788 0.495009 0.015751
v -0.024788 0.495009 0.015751
v -0.008385 0.498472 0.015341
v -0.053675 0.478447 0.017711
v -0.040108 0.488236 0.016553
v -0.073281 0.451648 0.020882
v -0.064896 0.466071 0.019175
v -0.064896 0.372424 0.030256
v -0.053675 0.360048 0.031720
v -0.080216 0.419247 0.024716
v -0.078463 0.402685 0.026675
v -0.073281 0.386846 0.028549
v -0.078463 0.435810 0.022756
vn -0.0000 0.1175 0.9931
vt 0.260033 0.824246
vt 0.252107 0.848772
vt 0.249426 0.874420
vt 0.290019 0.782746
vt 0.272857 0.801911
vt 0.334199 0.757098
vt 0.310768 0.767588
vt 0.384935 0.751736
vt 0.359287 0.751736
vt 0.433453 0.767588
vt 0.410022 0.757098
vt 0.471364 0.801911
vt 0.454203 0.782746
vt 0.492114 0.848772
vt 0.484188 0.824245
vt 0.492114 0.900068
vt 0.494795 0.874420
vt 0.471364 0.946930
vt 0.484188 0.924596
vt 0.433453 0.981253
vt 0.454203 0.966095
vt 0.384935 0.997105
vt 0.410022 0.991743
vt 0.334199 0.991743
vt 0.359287 0.997105
vt 0.290019 0.966095
vt 0.310769 0.981253
vt 0.260033 0.924596
vt 0.272857 0.946930
vt 0.252107 0.900068
s 0
usemtl cocky.001
f 1/1/1 2/2/1 3/3/1
f 4/4/1 5/5/1 1/1/1
f 7/6/1 8/7/1 4/4/1
f 7/6/1 4/4/1 1/1/1
f 13/8/1 14/9/1 7/6/1
f 16/10/1 17/11/1 13/8/1
f 16/10/1 13/8/1 7/6/1
f 16/10/1 7/6/1 1/1/1
f 25/12/1 26/13/1 16/10/1
f 28/14/1 29/15/1 25/12/1
f 28/14/1 25/12/1 16/10/1
f 30/16/1 27/17/1 28/14/1
f 24/18/1 23/19/1 30/16/1
f 24/18/1 30/16/1 28/14/1
f 24/18/1 28/14/1 16/10/1
f 22/20/1 21/21/1 24/18/1
f 20/22/1 19/23/1 22/20/1
f 20/22/1 22/20/1 24/18/1
f 18/24/1 15/25/1 20/22/1
f 12/26/1 11/27/1 18/24/1
f 12/26/1 18/24/1 20/22/1
f 12/26/1 20/22/1 24/18/1
f 12/26/1 24/18/1 16/10/1
f 12/26/1 16/10/1 1/1/1
f 10/28/1 9/29/1 12/26/1
f 10/28/1 12/26/1 1/1/1
f 10/28/1 1/1/1 3/3/1
f 10/28/1 3/3/1 6/30/1
o cervena_2svet_typ1
v 0.073281 0.202478 0.047927
v 0.078463 0.218316 0.046053
v 0.080216 0.234879 0.044094
v 0.053675 0.175679 0.051098
v 0.064896 0.188055 0.049634
v 0.078463 0.251441 0.042134
v 0.024788 0.159117 0.053058
v 0.040108 0.165890 0.052256
v 0.064896 0.281702 0.038553
v 0.073281 0.267280 0.040260
v 0.040108 0.303867 0.035931
v 0.053675 0.294078 0.037089
v -0.008385 0.155654 0.053468
v 0.008385 0.155654 0.053468
v 0.008385 0.314103 0.034720
v -0.040108 0.165890 0.052256
v -0.024788 0.159117 0.053058
v 0.024788 0.310641 0.035129
v -0.024788 0.310641 0.035129
v -0.008385 0.314103 0.034720
v -0.053675 0.294078 0.037089
v -0.040108 0.303867 0.035931
v -0.073281 0.267280 0.040260
v -0.064896 0.281702 0.038553
v -0.064896 0.188055 0.049634
v -0.053675 0.175679 0.051098
v -0.080216 0.234879 0.044094
v -0.078463 0.218316 0.046053
v -0.073281 0.202478 0.047927
v -0.078463 0.251441 0.042134
vn -0.0000 0.1175 0.9931
vt 0.511910 0.824246
vt 0.503984 0.848772
vt 0.501303 0.874420
vt 0.541896 0.782746
vt 0.524734 0.801911
vt 0.586076 0.757098
vt 0.562645 0.767588
vt 0.636811 0.751736
vt 0.611163 0.751736
vt 0.685330 0.767588
vt 0.661899 0.757098
vt 0.723241 0.801911
vt 0.706079 0.782746
vt 0.743991 0.848772
vt 0.736065 0.824245
vt 0.743991 0.900068
vt 0.746672 0.874420
vt 0.723241 0.946930
vt 0.736065 0.924596
vt 0.685330 0.981253
vt 0.706079 0.966095
vt 0.636812 0.997105
vt 0.661899 0.991743
vt 0.586076 0.991743
vt 0.611164 0.997105
vt 0.541896 0.966095
vt 0.562645 0.981253
vt 0.511910 0.924596
vt 0.524734 0.946930
vt 0.503984 0.900068
s 0
usemtl cocky
f 31/31/2 32/32/2 33/33/2
f 34/34/2 35/35/2 31/31/2
f 37/36/2 38/37/2 34/34/2
f 37/36/2 34/34/2 31/31/2
f 43/38/2 44/39/2 37/36/2
f 46/40/2 47/41/2 43/38/2
f 46/40/2 43/38/2 37/36/2
f 46/40/2 37/36/2 31/31/2
f 55/42/2 56/43/2 46/40/2
f 58/44/2 59/45/2 55/42/2
f 58/44/2 55/42/2 46/40/2
f 60/46/2 57/47/2 58/44/2
f 54/48/2 53/49/2 60/46/2
f 54/48/2 60/46/2 58/44/2
f 54/48/2 58/44/2 46/40/2
f 52/50/2 51/51/2 54/48/2
f 50/52/2 49/53/2 52/50/2
f 50/52/2 52/50/2 54/48/2
f 48/54/2 45/55/2 50/52/2
f 42/56/2 41/57/2 48/54/2
f 42/56/2 48/54/2 50/52/2
f 42/56/2 50/52/2 54/48/2
f 42/56/2 54/48/2 46/40/2
f 42/56/2 46/40/2 31/31/2
f 40/58/2 39/59/2 42/56/2
f 40/58/2 42/56/2 31/31/2
f 40/58/2 31/31/2 33/33/2
f 40/58/2 33/33/2 36/60/2
o cervena_2svet_typ2
v 0.073281 0.386846 0.028549
v 0.078463 0.402685 0.026675
v 0.080216 0.419247 0.024716
v 0.053675 0.360048 0.031720
v 0.064896 0.372424 0.030256
v 0.078463 0.435810 0.022756
v 0.024788 0.343485 0.033680
v 0.040108 0.350259 0.032878
v 0.064896 0.466071 0.019175
v 0.073281 0.451648 0.020882
v 0.040108 0.488236 0.016553
v 0.053675 0.478447 0.017711
v -0.008385 0.340023 0.034090
v 0.008385 0.340023 0.034090
v 0.008385 0.498472 0.015341
v -0.040108 0.350259 0.032878
v -0.024788 0.343485 0.033680
v 0.024788 0.495009 0.015751
v -0.024788 0.495009 0.015751
v -0.008385 0.498472 0.015341
v -0.053675 0.478447 0.017711
v -0.040108 0.488236 0.016553
v -0.073281 0.451648 0.020882
v -0.064896 0.466071 0.019175
v -0.064896 0.372424 0.030256
v -0.053675 0.360048 0.031720
v -0.080216 0.419247 0.024716
v -0.078463 0.402685 0.026675
v -0.073281 0.386846 0.028549
v -0.078463 0.435810 0.022756
vn -0.0000 0.1175 0.9931
vt 0.511910 0.824246
vt 0.503984 0.848772
vt 0.501303 0.874420
vt 0.541896 0.782746
vt 0.524734 0.801911
vt 0.586076 0.757098
vt 0.562645 0.767588
vt 0.636811 0.751736
vt 0.611163 0.751736
vt 0.685330 0.767588
vt 0.661899 0.757098
vt 0.723241 0.801911
vt 0.706079 0.782746
vt 0.743991 0.848772
vt 0.736065 0.824245
vt 0.743991 0.900068
vt 0.746672 0.874420
vt 0.723241 0.946930
vt 0.736065 0.924596
vt 0.685330 0.981253
vt 0.706079 0.966095
vt 0.636812 0.997105
vt 0.661899 0.991743
vt 0.586076 0.991743
vt 0.611164 0.997105
vt 0.541896 0.966095
vt 0.562645 0.981253
vt 0.511910 0.924596
vt 0.524734 0.946930
vt 0.503984 0.900068
s 0
usemtl cocky
f 61/61/3 62/62/3 63/63/3
f 64/64/3 65/65/3 61/61/3
f 67/66/3 68/67/3 64/64/3
f 67/66/3 64/64/3 61/61/3
f 73/68/3 74/69/3 67/66/3
f 76/70/3 77/71/3 73/68/3
f 76/70/3 73/68/3 67/66/3
f 76/70/3 67/66/3 61/61/3
f 85/72/3 86/73/3 76/70/3
f 88/74/3 89/75/3 85/72/3
f 88/74/3 85/72/3 76/70/3
f 90/76/3 87/77/3 88/74/3
f 84/78/3 83/79/3 90/76/3
f 84/78/3 90/76/3 88/74/3
f 84/78/3 88/74/3 76/70/3
f 82/80/3 81/81/3 84/78/3
f 80/82/3 79/83/3 82/80/3
f 80/82/3 82/80/3 84/78/3
f 78/84/3 75/85/3 80/82/3
f 72/86/3 71/87/3 78/84/3
f 72/86/3 78/84/3 80/82/3
f 72/86/3 80/82/3 84/78/3
f 72/86/3 84/78/3 76/70/3
f 72/86/3 76/70/3 61/61/3
f 70/88/3 69/89/3 72/86/3
f 70/88/3 72/86/3 61/61/3
f 70/88/3 61/61/3 63/63/3
f 70/88/3 63/63/3 66/90/3
o bila_2svet_typ2
v 0.073281 0.202478 0.047927
v 0.078463 0.218316 0.046053
v 0.080216 0.234879 0.044094
v 0.053675 0.175679 0.051098
v 0.064896 0.188055 0.049634
v 0.078463 0.251441 0.042134
v 0.024788 0.159117 0.053058
v 0.040108 0.165890 0.052256
v 0.064896 0.281702 0.038553
v 0.073281 0.267280 0.040260
v 0.040108 0.303867 0.035931
v 0.053675 0.294078 0.037089
v -0.008385 0.155654 0.053468
v 0.008385 0.155654 0.053468
v 0.008385 0.314103 0.034720
v -0.040108 0.165890 0.052256
v -0.024788 0.159117 0.053058
v 0.024788 0.310641 0.035129
v -0.024788 0.310641 0.035129
v -0.008385 0.314103 0.034720
v -0.053675 0.294078 0.037089
v -0.040108 0.303867 0.035931
v -0.073281 0.267280 0.040260
v -0.064896 0.281702 0.038553
v -0.064896 0.188055 0.049634
v -0.053675 0.175679 0.051098
v -0.080216 0.234879 0.044094
v -0.078463 0.218316 0.046053
v -0.073281 0.202478 0.047927
v -0.078463 0.251441 0.042134
vn -0.0000 0.1175 0.9931
vt 0.761781 0.824246
vt 0.753855 0.848772
vt 0.751174 0.874420
vt 0.791767 0.782746
vt 0.774605 0.801911
vt 0.835947 0.757098
vt 0.812517 0.767588
vt 0.886683 0.751736
vt 0.861035 0.751736
vt 0.935201 0.767588
vt 0.911770 0.757098
vt 0.973112 0.801911
vt 0.955950 0.782746
vt 0.993862 0.848772
vt 0.985936 0.824245
vt 0.993862 0.900068
vt 0.996543 0.874420
vt 0.973112 0.946930
vt 0.985936 0.924596
vt 0.935201 0.981253
vt 0.955950 0.966095
vt 0.886683 0.997105
vt 0.911770 0.991743
vt 0.835947 0.991743
vt 0.861035 0.997105
vt 0.791767 0.966095
vt 0.812517 0.981253
vt 0.761781 0.924596
vt 0.774605 0.946930
vt 0.753855 0.900068
s 0
usemtl cocky
f 91/91/4 92/92/4 93/93/4
f 94/94/4 95/95/4 91/91/4
f 97/96/4 98/97/4 94/94/4
f 97/96/4 94/94/4 91/91/4
f 103/98/4 104/99/4 97/96/4
f 106/100/4 107/101/4 103/98/4
f 106/100/4 103/98/4 97/96/4
f 106/100/4 97/96/4 91/91/4
f 115/102/4 116/103/4 106/100/4
f 118/104/4 119/105/4 115/102/4
f 118/104/4 115/102/4 106/100/4
f 120/106/4 117/107/4 118/104/4
f 114/108/4 113/109/4 120/106/4
f 114/108/4 120/106/4 118/104/4
f 114/108/4 118/104/4 106/100/4
f 112/110/4 111/111/4 114/108/4
f 110/112/4 109/113/4 112/110/4
f 110/112/4 112/110/4 114/108/4
f 108/114/4 105/115/4 110/112/4
f 102/116/4 101/117/4 108/114/4
f 102/116/4 108/114/4 110/112/4
f 102/116/4 110/112/4 114/108/4
f 102/116/4 114/108/4 106/100/4
f 102/116/4 106/100/4 91/91/4
f 100/118/4 99/119/4 102/116/4
f 100/118/4 102/116/4 91/91/4
f 100/118/4 91/91/4 93/93/4
f 100/118/4 93/93/4 96/120/4
o vjezd_2svet
v 0.100116 0.515884 0.007725
v 0.100116 0.137668 0.047462
v 0.100116 0.137668 0.047462
v 0.100116 0.515884 0.007725
v 0.155736 0.515884 0.007725
v 0.155736 0.137668 0.047462
v 0.155736 0.137668 0.047462
v 0.155736 0.515884 0.007725
v 0.100116 0.326776 0.027594
v 0.155736 0.326776 0.027594
vn -0.0000 -0.1045 -0.9945
vn -0.0000 0.1045 0.9945
vt 0.509403 0.979746
vt 0.490597 0.851159
vt 0.509403 0.851159
vt 0.589024 0.795975
vt 0.549331 0.857352
vt 0.589024 0.857352
vt 0.589345 0.655444
vt 0.550050 0.793170
vt 0.589345 0.793170
vt 0.490597 0.979746
vt 0.549331 0.795975
vt 0.550050 0.655444
s 0
usemtl AZD_Trp
f 123/121/5 124/123/5 128/122/5
f 121/124/6 129/126/6 130/125/6
f 129/127/6 122/129/6 126/128/6
f 123/121/5 128/122/5 127/130/5
f 121/124/6 130/125/6 125/131/6
f 129/127/6 126/128/6 130/132/6
o zaklad_2svet
v -0.091093 0.039221 0.121746
v -0.091093 0.127718 0.132252
v -0.091093 0.126915 0.118162
v 0.091093 0.127718 0.132252
v 0.091093 0.126915 0.118162
v 0.091093 0.039221 0.121746
v -0.084172 0.138039 0.059390
v -0.059081 0.138039 0.059390
v -0.059081 0.116656 0.116122
v -0.059081 0.116656 0.116122
v -0.082070 0.116656 0.116122
v -0.084172 0.138039 0.059390
v -0.084172 0.138039 0.059390
v -0.082070 0.116656 0.116122
v -0.059081 0.116656 0.116122
v -0.059081 0.138039 0.059390
v 0.084110 0.138039 0.059390
v 0.059019 0.116656 0.116122
v 0.059019 0.138039 0.059390
v 0.059019 0.116656 0.116122
v 0.084110 0.138039 0.059390
v 0.081947 0.116656 0.116122
v 0.084110 0.138039 0.059390
v 0.059019 0.116656 0.116122
v 0.081947 0.116656 0.116122
v 0.059019 0.138039 0.059390
v -0.077250 0.103740 -0.159135
v -0.077250 0.088352 -0.182186
v -0.077250 0.102689 -0.182804
v -0.077250 0.089402 -0.158517
v -0.077250 0.102689 -0.182804
v 0.077250 0.088352 -0.182186
v 0.077250 0.102689 -0.182804
v -0.077250 0.088352 -0.182186
v 0.077250 0.102689 -0.182804
v 0.077250 0.089402 -0.158517
v 0.077250 0.103740 -0.159135
v 0.077250 0.088352 -0.182186
v 0.077250 0.102689 -0.182804
v -0.077250 0.103740 -0.159135
v -0.077250 0.102689 -0.182804
v 0.077250 0.103740 -0.159135
v 0.077250 0.088352 -0.182186
v -0.077250 0.089402 -0.158517
v 0.077250 0.089402 -0.158517
v -0.077250 0.088352 -0.182186
v -0.108953 0.090885 0.071564
v -0.108953 0.090886 -0.108953
v 0.108953 0.090886 -0.108953
v 0.108953 0.090885 0.071564
v -0.057412 0.118387 -0.184411
v -0.079228 0.083779 -0.158579
v -0.057412 0.082110 -0.182001
v -0.079228 0.119993 -0.160989
v 0.057412 0.082110 -0.182001
v 0.079228 0.119993 -0.160989
v 0.057412 0.118387 -0.184411
v 0.079228 0.083779 -0.158579
v 0.057412 0.118387 -0.184411
v -0.079228 0.119993 -0.160989
v -0.057412 0.118387 -0.184411
v 0.079228 0.119993 -0.160989
v -0.057412 0.082110 -0.182001
v 0.079228 0.083779 -0.158579
v 0.057412 0.082110 -0.182001
v -0.079228 0.083779 -0.158579
v -0.133488 0.070244 0.076508
v 0.133488 0.070244 0.076508
v 0.135960 0.033597 0.084233
v -0.135775 0.033597 0.084233
v -0.108953 0.090885 0.071564
v 0.108953 0.090885 0.071564
v 0.133488 0.070244 0.076508
v 0.133179 0.070121 -0.133179
v 0.135960 0.033597 0.084233
v 0.108953 0.090885 0.071564
v 0.108953 0.090886 -0.108953
v -0.133179 0.070121 -0.133488
v -0.108953 0.090885 0.071564
v -0.133488 0.070244 0.076508
v -0.135775 0.033597 0.084233
v -0.135775 0.033659 0.133303
v -0.135775 0.033659 0.133303
v 0.135960 0.033659 0.133303
v 0.135960 0.033659 0.133303
v -0.091093 0.126915 0.118162
v 0.091093 0.039221 0.121746
v 0.091093 0.126915 0.118162
v -0.091093 0.039221 0.121746
v 0.091093 0.126915 0.118162
v -0.091093 0.039221 0.121746
v -0.091093 0.126915 0.118162
v 0.091093 0.039221 0.121746
v -0.079228 0.129696 -0.032074
v -0.079228 0.083779 -0.158579
v -0.079228 0.119993 -0.160989
v -0.079228 0.093419 -0.029726
v 0.079228 0.119993 -0.160989
v 0.079228 0.093419 -0.029726
v 0.079228 0.129696 -0.032074
v 0.079228 0.083779 -0.158579
v -0.079228 0.129696 -0.032074
v 0.079228 0.129696 -0.032074
v -0.079228 0.093419 -0.029726
v 0.079228 0.093419 -0.029726
v 0.043384 0.070862 -0.135218
v 0.055744 0.092492 -0.156663
v 0.055744 0.070862 -0.156663
v 0.043384 0.092492 -0.135218
v 0.018664 0.070862 -0.135218
v 0.018664 0.092492 -0.135218
v 0.006304 0.070862 -0.156663
v 0.006304 0.092492 -0.156663
v 0.018664 0.070862 -0.178046
v 0.018664 0.092492 -0.178046
v 0.043384 0.070862 -0.178046
v 0.043384 0.092492 -0.178046
v 0.031024 0.070862 -0.156663
v 0.042951 0.072407 -0.163523
v 0.031024 0.072407 -0.142882
v 0.019158 0.072407 -0.163523
v -0.108953 0.090886 -0.108953
v -0.108953 0.090886 -0.108953
v 0.133179 0.070121 -0.133179
v 0.108953 0.090886 -0.108953
v -0.133179 0.070121 -0.133488
v -0.136883 0.000000 0.134832
v 0.040417 0.000000 -0.164324
v -0.136882 0.000000 0.058778
v 0.028503 0.000000 -0.152440
v 0.135777 0.000000 -0.088633
v -0.075400 0.000000 -0.135780
v 0.031024 0.000000 -0.148068
v 0.042951 0.000000 -0.168696
v 0.137048 0.000000 0.127574
v -0.136882 0.000000 0.091220
v 0.104567 0.000000 0.134832
v 0.135778 0.000000 -0.135535
v 0.137046 0.000000 0.083972
v 0.137048 0.000000 0.134832
v 0.135778 0.000000 -0.135535
v 0.019158 0.000000 -0.168696
v -0.136881 0.000000 0.083972
v -0.136883 0.000000 0.134832
v 0.137048 0.000000 0.134832
v -0.135778 -0.000000 -0.135780
v 0.024213 0.000000 -0.168696
v -0.135778 -0.000000 -0.135780
vn -0.0000 -0.9984 0.0569
vn -1.0000 -0.0000 -0.0000
vn -0.0000 0.9984 -0.0569
vn 1.0000 -0.0000 -0.0000
vn -0.0000 0.9357 0.3527
vn -0.0000 -0.9357 -0.3527
vn -0.0000 -0.0431 -0.9991
vn -0.0000 0.9990 -0.0443
vn -0.0000 -0.9990 0.0443
vn -0.0000 1.0000 -0.0000
vn -0.7326 -0.0451 -0.6791
vn -0.7326 -0.0452 -0.6792
vn 0.7326 -0.0451 -0.6792
vn 0.7326 -0.0452 -0.6791
vn -0.0000 0.9977 -0.0684
vn -0.0000 -0.9975 0.0711
vn -0.0000 0.2063 0.9785
vn -0.0000 0.2329 0.9725
vn 0.9978 0.0670 -0.0015
vn 0.6508 0.7593 -0.0000
vn 0.6439 0.7651 -0.0014
vn -0.6439 0.7651 -0.0014
vn -0.9995 0.0329 -0.0000
vn -0.0000 1.0000 -0.0013
vn 0.9995 0.0323 -0.0000
vn -0.0000 -0.0408 -0.9992
vn -0.0000 0.0408 0.9992
vn -0.0000 -0.0663 -0.9978
vn -0.0000 0.9972 -0.0751
vn -0.0000 -0.9972 0.0746
vn 0.8664 -0.0000 0.4994
vn -0.0000 -0.0000 1.0000
vn -0.8664 -0.0000 0.4994
vn -0.8658 -0.0000 -0.5004
vn -0.0000 -0.0000 -1.0000
vn 0.8658 -0.0000 -0.5004
vn -0.0000 -1.0000 -0.0000
vn -0.6508 0.7593 -0.0000
vn -0.9981 0.0620 -0.0015
vn -0.0000 0.7593 -0.6508
vn 0.0007 0.7629 -0.6465
vn -0.9993 0.0372 -0.0057
vn 0.0012 0.0336 -0.9994
vn 0.9994 0.0324 -0.0073
vn -0.0000 0.0454 0.9990
vn 0.8653 -0.0358 0.5000
vn -0.8664 -0.0356 0.4981
vn -0.0000 0.0713 -0.9975
vn -0.0000 0.0327 -0.9995
vn 0.9993 0.0370 -0.0000
vn -0.8658 -0.0358 0.4992
vn 0.8646 -0.0358 0.5011
vn -0.0000 -0.1848 -0.9828
vt 0.659000 0.318000
vt 0.811000 0.318000
vt 0.659000 0.224000
vt 0.811000 0.224000
vt 0.462000 0.646000
vt 0.387000 0.646000
vt 0.387000 0.630000
vt 0.472000 0.601000
vt 0.472000 0.625000
vt 0.377000 0.625000
vt 0.377000 0.601000
vt 0.978000 0.683000
vt 0.992000 0.667000
vt 0.992000 0.683000
vt 0.978000 0.667000
vt 0.767000 0.734000
vt 0.611000 0.714000
vt 0.611000 0.734000
vt 0.767000 0.714000
vt 0.989000 0.328000
vt 0.967000 0.498000
vt 0.989000 0.498000
vt 0.967000 0.328000
vt 0.820000 0.524000
vt 0.898000 0.524000
vt 0.898000 0.605000
vt 0.820000 0.605000
vt 0.747000 0.745000
vt 0.769000 0.713000
vt 0.747000 0.712000
vt 0.769000 0.746000
vt 0.631000 0.712000
vt 0.609000 0.746000
vt 0.631000 0.745000
vt 0.609000 0.713000
vt 0.989000 0.350000
vt 0.967000 0.500000
vt 0.989000 0.477000
vt 0.967000 0.326000
vt 0.819000 0.642000
vt 0.941000 0.642000
vt 0.941000 0.622000
vt 0.819000 0.622000
vt 0.819000 0.664000
vt 0.941000 0.664000
vt 0.814000 0.648000
vt 0.959000 0.641000
vt 0.805000 0.616000
vt 0.819000 0.668000
vt 0.940000 0.665000
vt 0.802886 0.603538
vt 0.805111 0.603430
vt 0.819000 0.600000
vt 0.941000 0.600000
vt 0.789000 0.615000
vt 0.790894 0.602521
vt 0.788666 0.602629
vt 0.346000 0.659000
vt 0.510000 0.574000
vt 0.510000 0.659000
vt 0.346000 0.574000
vt 0.991000 0.320000
vt 0.818000 0.224000
vt 0.818000 0.320000
vt 0.991000 0.224000
vt 0.899000 0.694000
vt 0.979000 0.666000
vt 0.979000 0.690000
vt 0.899000 0.669000
vt 0.855000 0.500000
vt 0.855000 0.326000
vt 0.646000 0.695000
vt 0.633000 0.714000
vt 0.633000 0.694000
vt 0.645000 0.714000
vt 0.670000 0.695000
vt 0.670000 0.714000
vt 0.683000 0.694000
vt 0.683000 0.714000
vt 0.658000 0.695000
vt 0.817000 0.664000
vt 0.817000 0.642000
vt 0.822135 0.603983
vt 0.842688 0.613411
vt 0.927310 0.612417
vt 0.927404 0.589301
vt 0.648549 0.672906
vt 0.664901 0.672906
vt 0.660549 0.672906
vt 0.788666 0.602629
vt 0.658000 0.672906
vt 0.817000 0.613411
vt 0.959000 0.613447
vt 0.941000 0.589301
vt 0.646000 0.672906
vt 0.670000 0.672906
vt 0.000000 0.000000
vt 0.941000 0.613411
vt 0.819000 0.589301
s 0
usemtl AZD_Trp
f 133/133/7 135/134/7 134/134/7
f 134/134/7 132/133/7 133/133/7
f 131/135/8 132/133/8 133/133/8
f 132/133/9 134/134/9 135/134/9
f 135/134/9 133/133/9 132/133/9
f 136/136/10 135/134/10 134/134/10
f 137/137/11 139/139/11 138/138/11
f 140/140/11 142/142/11 141/141/11
f 143/143/12 145/141/12 144/140/12
f 145/141/12 143/143/12 146/142/12
f 147/137/11 149/138/11 148/139/11
f 150/140/11 152/141/11 151/142/11
f 153/143/12 155/140/12 154/141/12
f 154/141/12 156/142/12 153/143/12
f 157/144/8 159/146/8 158/145/8
f 158/145/8 160/147/8 157/144/8
f 161/148/13 163/150/13 162/149/13
f 162/149/13 164/151/13 161/148/13
f 165/146/10 167/144/10 166/147/10
f 166/147/10 168/145/10 165/146/10
f 169/152/14 171/154/14 170/153/14
f 170/153/14 172/155/14 169/152/14
f 173/152/15 175/155/15 174/153/15
f 174/153/15 176/154/15 173/152/15
f 177/156/16 179/158/16 178/157/16
f 177/156/16 180/159/16 179/158/16
f 181/160/17 183/162/17 182/161/17
f 182/161/18 184/163/18 181/160/18
f 185/164/19 187/166/19 186/165/19
f 186/165/20 188/167/20 185/164/20
f 189/168/21 191/170/21 190/169/21
f 190/169/21 192/171/21 189/168/21
f 193/170/22 195/168/22 194/171/22
f 194/171/22 196/169/22 193/170/22
f 197/172/23 199/174/23 198/173/23
f 197/172/23 200/175/23 199/174/23
f 201/176/24 198/173/24 202/177/24
f 201/176/24 197/172/24 198/173/24
f 203/178/25 205/180/25 204/179/25
f 206/181/26 204/179/26 207/182/26
f 206/181/27 203/178/27 204/179/27
f 208/179/28 210/178/28 209/181/28
f 211/180/29 273/184/29 266/183/29
f 213/185/30 214/186/30 199/174/30
f 199/174/30 200/175/30 213/185/30
f 215/187/31 270/189/31 265/188/31
f 216/190/32 218/192/32 217/191/32
f 217/191/32 219/193/32 216/190/32
f 220/194/33 222/196/33 221/195/33
f 221/195/33 223/197/33 220/194/33
f 224/198/8 226/200/8 225/199/8
f 225/199/8 227/201/8 224/198/8
f 181/160/34 187/166/34 185/164/34
f 185/164/34 183/162/34 181/160/34
f 228/200/10 230/198/10 229/201/10
f 229/201/10 231/199/10 228/200/10
f 192/171/35 190/169/35 232/202/35
f 232/202/35 233/203/35 192/171/35
f 194/171/36 235/203/36 234/202/36
f 234/202/36 196/169/36 194/171/36
f 236/204/37 238/206/37 237/205/37
f 236/204/37 237/205/37 239/207/37
f 240/208/38 236/204/38 239/207/38
f 240/208/38 239/207/38 241/209/38
f 242/210/39 240/208/39 241/209/39
f 242/210/39 241/209/39 243/211/39
f 244/208/40 242/210/40 243/211/40
f 244/208/40 243/211/40 245/209/40
f 246/204/41 244/208/41 245/209/41
f 246/204/41 245/209/41 247/207/41
f 238/206/42 246/204/42 247/207/42
f 238/206/42 247/207/42 237/205/42
f 248/212/43 238/206/43 236/204/43
f 248/212/43 236/204/43 240/208/43
f 248/212/43 240/208/43 242/210/43
f 248/212/43 242/210/43 244/208/43
f 248/212/43 244/208/43 246/204/43
f 248/212/43 246/204/43 238/206/43
f 209/181/44 252/182/44 208/179/44
f 208/179/45 211/180/45 210/178/45
f 253/213/46 255/177/46 254/173/46
f 254/173/47 256/214/47 253/213/47
f 259/215/48 211/180/48 208/179/48
f 262/216/49 256/214/49 254/173/49
f 261/217/50 204/179/50 205/180/50
f 267/218/51 214/186/51 213/185/51
f 258/219/43 260/221/43 277/220/43
f 266/183/29 274/222/29 212/187/29
f 263/223/52 258/219/52 249/204/52
f 260/221/53 250/212/53 251/208/53
f 277/220/54 251/208/54 249/204/54
f 273/184/29 211/180/29 259/215/29
f 276/224/55 256/214/55 262/216/55
f 271/225/56 204/179/56 261/217/56
f 275/226/51 214/186/51 267/218/51
f 263/223/57 250/212/57 260/221/57
f 265/188/31 269/184/31 205/180/31
f 264/227/58 249/204/58 258/219/58
f 272/228/54 251/208/54 277/220/54
f 274/229/43 276/229/43 268/229/43
f 259/215/48 208/179/48 278/225/48
f 262/216/49 254/173/49 268/230/49
f 261/217/50 205/180/50 269/184/50
f 267/218/51 213/185/51 257/231/51
f 260/221/43 258/219/43 263/223/43
f 258/219/43 277/220/43 264/227/43
f 277/220/43 260/221/43 272/228/43
f 266/183/29 212/187/29 211/180/29
f 263/223/52 249/204/52 250/212/52
f 260/221/53 251/208/53 272/228/53
f 277/220/54 249/204/54 264/227/54
f 265/188/31 205/180/31 215/187/31
f 257/229/43 275/229/43 270/229/43
f 274/229/59 275/229/59 257/229/59
f 274/229/43 269/229/43 275/229/43
f 269/229/43 268/229/43 271/229/43
f 274/229/43 268/229/43 269/229/43
f 268/229/43 276/229/43 278/229/43
o stit_2svet
v -0.106296 0.141500 0.055744
v -0.106296 0.085880 -0.030900
v -0.106296 0.130685 -0.030900
v -0.106296 0.085880 0.055744
v -0.106296 0.130685 -0.030900
v 0.106667 0.085880 -0.030900
v 0.106667 0.130685 -0.030900
v -0.106296 0.085880 -0.030900
v 0.106667 0.130685 -0.030900
v 0.106667 0.085880 0.055744
v 0.106667 0.141500 0.055744
v 0.106667 0.085880 -0.030900
v 0.106667 0.141500 0.055744
v -0.106296 0.085880 0.055744
v -0.106296 0.141500 0.055744
v 0.106667 0.085880 0.055744
v 0.106667 0.130685 -0.030900
v -0.106296 0.141500 0.055744
v -0.106296 0.130685 -0.030900
v 0.106667 0.141500 0.055744
v -0.085037 0.309966 -0.054507
v -0.085037 0.135629 -0.085902
v -0.085037 0.304775 -0.103700
v -0.085037 0.140820 -0.036771
v -0.085037 0.304775 -0.103700
v 0.085037 0.135629 -0.085902
v 0.085037 0.304775 -0.103700
v -0.085037 0.135629 -0.085902
v 0.085037 0.304775 -0.103700
v 0.085037 0.140820 -0.036771
v 0.085037 0.309966 -0.054507
v 0.085037 0.135629 -0.085902
v 0.085037 0.304775 -0.103700
v -0.085037 0.309966 -0.054507
v -0.085037 0.304775 -0.103700
v 0.085037 0.309966 -0.054507
v 0.085037 0.135629 -0.085902
v -0.085037 0.140820 -0.036771
v 0.085037 0.140820 -0.036771
v -0.085037 0.135629 -0.085902
v -0.085037 0.494254 -0.073913
v -0.085037 0.320040 -0.105307
v -0.085037 0.489125 -0.123044
v -0.085037 0.325169 -0.056114
v -0.085037 0.489125 -0.123044
v 0.085037 0.320040 -0.105307
v 0.085037 0.489125 -0.123044
v -0.085037 0.320040 -0.105307
v 0.085037 0.489125 -0.123044
v 0.085037 0.325169 -0.056114
v 0.085037 0.494254 -0.073913
v 0.085037 0.320040 -0.105307
v 0.085037 0.489125 -0.123044
v -0.085037 0.494254 -0.073913
v -0.085037 0.489125 -0.123044
v 0.085037 0.494254 -0.073913
v 0.085037 0.320040 -0.105307
v -0.085037 0.325169 -0.056114
v 0.085037 0.325169 -0.056114
v -0.085037 0.320040 -0.105307
v 0.034979 0.318186 0.028490
v -0.000000 0.357800 0.338664
v 0.034979 0.350878 0.339406
v -0.000000 0.325107 0.027748
v 0.064705 0.298472 0.030591
v 0.064705 0.331164 0.341445
v 0.084542 0.268931 0.033681
v 0.084542 0.301623 0.344535
v 0.091464 0.234138 0.037327
v 0.091464 0.266830 0.348243
v 0.084542 0.199035 0.041035
v 0.084542 0.205586 0.103639
v 0.064705 0.169742 0.044125
v 0.064705 0.174686 0.092206
v 0.034979 0.150028 0.046165
v 0.034979 0.153860 0.084542
v -0.000000 0.143106 0.046906
v -0.000000 0.146753 0.081885
v -0.034979 0.150028 0.046165
v -0.034979 0.153860 0.084542
v -0.064705 0.169742 0.044125
v -0.064705 0.174686 0.092206
v -0.084542 0.199035 0.041035
v -0.084542 0.205586 0.103639
v -0.091464 0.234138 0.037327
v -0.091464 0.266830 0.348243
v -0.084542 0.268931 0.033681
v -0.084542 0.301623 0.344535
v -0.064705 0.298472 0.030591
v -0.064705 0.331164 0.341445
v -0.034979 0.318186 0.028490
v -0.034979 0.350878 0.339406
v 0.034979 0.502535 0.009147
v -0.000000 0.542149 0.319259
v 0.034979 0.535227 0.320001
v -0.000000 0.509457 0.008405
v 0.034979 0.535227 0.320001
v -0.000000 0.509457 0.008405
v 0.034979 0.502535 0.009147
v -0.000000 0.542149 0.319259
v 0.064705 0.482821 0.011186
v 0.064705 0.515513 0.322102
v 0.064705 0.515513 0.322102
v 0.064705 0.482821 0.011186
v 0.084542 0.453281 0.014276
v 0.084542 0.485973 0.325192
v 0.084542 0.485973 0.325192
v 0.084542 0.453281 0.014276
v 0.091464 0.418487 0.017984
v 0.091464 0.451118 0.328838
v 0.091464 0.451118 0.328838
v 0.091464 0.418487 0.017984
v 0.084542 0.383385 0.021630
v 0.084542 0.389997 0.084295
v 0.084542 0.389997 0.084295
v 0.084542 0.383385 0.021630
v 0.064705 0.354153 0.024720
v 0.064705 0.359097 0.072801
v 0.064705 0.359097 0.072801
v 0.064705 0.354153 0.024720
v 0.034979 0.334439 0.026821
v 0.034979 0.338271 0.065199
v 0.034979 0.338271 0.065199
v 0.034979 0.334439 0.026821
v -0.000000 0.327518 0.027501
v -0.000000 0.331164 0.062480
v -0.000000 0.331164 0.062480
v -0.000000 0.327518 0.027501
v -0.034979 0.334439 0.026821
v -0.034979 0.338271 0.065199
v -0.034979 0.338271 0.065199
v -0.034979 0.334439 0.026821
v -0.064705 0.354153 0.024720
v -0.064705 0.359097 0.072801
v -0.064705 0.359097 0.072801
v -0.064705 0.354153 0.024720
v -0.084542 0.383385 0.021630
v -0.084542 0.389997 0.084295
v -0.084542 0.389997 0.084295
v -0.084542 0.383385 0.021630
v -0.091464 0.418487 0.017984
v -0.091464 0.451118 0.328838
v -0.091464 0.451118 0.328838
v -0.091464 0.418487 0.017984
v -0.084542 0.453281 0.014276
v -0.084542 0.485973 0.325192
v -0.084542 0.485973 0.325192
v -0.084542 0.453281 0.014276
v -0.064705 0.482821 0.011186
v -0.064705 0.515513 0.322102
v -0.064705 0.515513 0.322102
v -0.064705 0.482821 0.011186
v -0.034979 0.502535 0.009147
v -0.034979 0.535227 0.320001
v -0.034979 0.535227 0.320001
v -0.034979 0.502535 0.009147
v 0.100116 0.515884 0.007725
v -0.100116 0.137668 0.047462
v -0.100116 0.515884 0.007725
v 0.100116 0.137668 0.047462
v 0.100116 0.507170 -0.075272
v 0.100116 0.137668 0.047462
v 0.100116 0.515884 0.007725
v 0.100116 0.129140 -0.035535
v -0.100116 0.515884 0.007725
v -0.100116 0.129140 -0.035535
v -0.100116 0.507170 -0.075272
v -0.100116 0.137668 0.047462
v -0.100116 0.507170 -0.075272
v 0.100116 0.129140 -0.035535
v 0.100116 0.507170 -0.075272
v -0.100116 0.129140 -0.035535
v -0.100116 0.515884 0.007725
v 0.100116 0.507170 -0.075272
v 0.100116 0.515884 0.007725
v -0.100116 0.507170 -0.075272
v 0.155736 0.515884 0.007725
vn -1.0000 -0.0000 -0.0000
vn -0.0000 -0.0000 -1.0000
vn 1.0000 -0.0000 -0.0000
vn -0.0000 -0.0000 1.0000
vn -0.0000 0.9923 -0.1239
vn -0.0000 -0.1046 -0.9945
vn -0.0000 0.9945 -0.1049
vn -0.0000 -0.9945 0.1051
vn -0.0000 -0.1043 -0.9945
vn -0.0000 0.9946 -0.1038
vn -0.0000 -0.9946 0.1037
vn -0.1952 -0.9754 0.1026
vn 0.1952 0.9754 -0.1026
vn -0.5547 -0.8275 0.0870
vn -0.5549 -0.8274 0.0870
vn 0.5549 0.8274 -0.0870
vn 0.5547 0.8275 -0.0870
vn -0.8316 -0.5524 0.0581
vn 0.8316 0.5524 -0.0581
vn -0.9810 -0.1930 0.0203
vn 0.9810 0.1930 -0.0203
vn -0.9815 0.1906 -0.0199
vn -0.9813 0.1914 -0.0201
vn 0.9813 -0.1914 0.0200
vn 0.9813 -0.1912 0.0201
vn -0.8304 0.5542 -0.0570
vn -0.8294 0.5556 -0.0581
vn 0.8294 -0.5557 0.0571
vn 0.8302 -0.5545 0.0580
vn -0.5575 0.8261 -0.0825
vn -0.5547 0.8277 -0.0851
vn 0.5547 -0.8279 0.0827
vn 0.5569 -0.8262 0.0850
vn -0.1906 0.9764 -0.1018
vn -0.1952 0.9759 -0.0974
vn 0.1952 -0.9755 0.1017
vn 0.1910 -0.9767 0.0975
vn 0.1910 0.9767 -0.0975
vn 0.1952 0.9755 -0.1017
vn -0.1952 -0.9759 0.0974
vn -0.1906 -0.9764 0.1018
vn 0.5569 0.8262 -0.0850
vn 0.5547 0.8279 -0.0827
vn -0.5547 -0.8277 0.0851
vn -0.5575 -0.8261 0.0825
vn 0.8302 0.5545 -0.0580
vn 0.8294 0.5557 -0.0571
vn -0.8294 -0.5556 0.0581
vn -0.8304 -0.5542 0.0570
vn 0.9813 0.1912 -0.0201
vn 0.9813 0.1914 -0.0200
vn -0.9813 -0.1914 0.0201
vn -0.9815 -0.1906 0.0199
vn 0.9810 -0.1930 0.0203
vn -0.9810 0.1930 -0.0203
vn 0.8316 -0.5524 0.0581
vn -0.8316 0.5524 -0.0581
vn 0.5547 -0.8275 0.0870
vn 0.5549 -0.8274 0.0870
vn -0.5549 0.8274 -0.0870
vn -0.5547 0.8275 -0.0870
vn 0.1952 -0.9754 0.1026
vn -0.1952 0.9754 -0.1026
vn -0.9810 -0.1927 0.0202
vn 0.9810 0.1927 -0.0203
vn -0.9811 0.1923 -0.0203
vn 0.9813 -0.1914 0.0202
vn 0.9813 -0.1916 0.0201
vn -0.8304 0.5543 -0.0570
vn -0.8289 0.5563 -0.0587
vn 0.8289 -0.5565 0.0572
vn 0.8300 -0.5546 0.0585
vn -0.5576 0.8260 -0.0825
vn -0.5549 0.8276 -0.0851
vn 0.5549 -0.8278 0.0827
vn 0.5571 -0.8261 0.0849
vn -0.1905 0.9764 -0.1018
vn -0.1950 0.9759 -0.0974
vn 0.1950 -0.9755 0.1017
vn 0.1909 -0.9768 0.0975
vn 0.1909 0.9768 -0.0975
vn 0.1950 0.9755 -0.1017
vn -0.1950 -0.9759 0.0974
vn -0.1905 -0.9764 0.1018
vn 0.5571 0.8261 -0.0849
vn 0.5549 0.8278 -0.0827
vn -0.5549 -0.8276 0.0851
vn -0.5576 -0.8260 0.0825
vn 0.8300 0.5546 -0.0585
vn 0.8289 0.5565 -0.0572
vn -0.8289 -0.5563 0.0587
vn -0.8304 -0.5543 0.0570
vn 0.9813 0.1916 -0.0201
vn 0.9813 0.1914 -0.0202
vn -0.9811 -0.1923 0.0203
vn 0.9810 -0.1927 0.0203
vn -0.9810 0.1927 -0.0202
vn -0.0000 0.1045 0.9945
vn -0.0000 -0.1045 -0.9945
vn -0.0000 0.9945 -0.1044
vt 0.563000 0.480000
vt 0.531000 0.440000
vt 0.531000 0.480000
vt 0.563000 0.440000
vt 0.720000 0.480000
vt 0.617000 0.440000
vt 0.617000 0.480000
vt 0.720000 0.440000
vt 0.676000 0.467000
vt 0.547000 0.445000
vt 0.547000 0.467000
vt 0.676000 0.445000
vt 0.915000 0.835000
vt 0.940000 0.704000
vt 0.947000 0.835000
vt 0.908000 0.704000
vt 0.501000 0.559000
vt 0.356000 0.388000
vt 0.356000 0.559000
vt 0.501000 0.388000
vt 0.955000 0.982000
vt 0.917000 0.852000
vt 0.923000 0.982000
vt 0.949000 0.852000
vt 0.499000 0.557000
vt 0.360000 0.512000
vt 0.360000 0.557000
vt 0.499000 0.512000
vt 0.851000 0.838000
vt 0.610000 0.844000
vt 0.607000 0.836000
vt 0.851000 0.846000
vt 0.851000 0.827000
vt 0.605000 0.825000
vt 0.850000 0.812000
vt 0.605000 0.805000
vt 0.849000 0.791000
vt 0.604000 0.784000
vt 0.848000 0.771000
vt 0.793000 0.765000
vt 0.848000 0.754000
vt 0.808000 0.748000
vt 0.847000 0.742000
vt 0.815000 0.742000
vt 0.847000 0.738000
vt 0.818000 0.738000
vt 0.849000 0.838000
vt 0.607000 0.846000
vt 0.849000 0.849000
vt 0.621000 0.977000
vt 0.864000 0.988000
vt 0.864000 0.980000
vt 0.625000 0.984000
vt 0.849000 0.827000
vt 0.607000 0.825000
vt 0.621000 0.966000
vt 0.863000 0.968000
vt 0.848000 0.809000
vt 0.607000 0.808000
vt 0.621000 0.950000
vt 0.862000 0.948000
vt 0.847000 0.789000
vt 0.607000 0.787000
vt 0.622000 0.931000
vt 0.861000 0.923000
vt 0.846000 0.768000
vt 0.807000 0.768000
vt 0.821000 0.903000
vt 0.860000 0.908000
vt 0.846000 0.751000
vt 0.817000 0.750000
vt 0.831000 0.892000
vt 0.859000 0.892000
vt 0.845000 0.739000
vt 0.824000 0.738000
vt 0.838000 0.880000
vt 0.859000 0.881000
vt 0.845000 0.735000
vt 0.826000 0.734000
vt 0.840000 0.876000
vt 0.859000 0.877000
vt 0.106000 1.000000
vt 0.006000 0.803000
vt 0.006000 1.000000
vt 0.106000 0.803000
vt 0.923000 0.993000
vt 0.847000 0.698000
vt 0.860000 0.996000
vt 0.907000 0.696000
vt 0.861000 0.997000
vt 0.906000 0.695000
vt 0.924000 0.993000
vt 0.846000 0.699000
vt 0.512000 0.571000
vt 0.346000 0.187000
vt 0.346000 0.571000
vt 0.512000 0.187000
vt 0.478000 0.804000
vt 0.540000 0.668000
vt 0.478000 0.668000
vt 0.540000 0.804000
s 0
usemtl AZD_Trp
f 279/232/60 281/234/60 280/233/60
f 280/233/60 282/235/60 279/232/60
f 283/236/61 285/238/61 284/237/61
f 284/237/61 286/239/61 283/236/61
f 287/232/62 289/234/62 288/233/62
f 288/233/62 290/235/62 287/232/62
f 291/236/63 293/238/63 292/237/63
f 292/237/63 294/239/63 291/236/63
f 295/240/64 297/242/64 296/241/64
f 296/241/64 298/243/64 295/240/64
f 299/244/60 301/246/60 300/245/60
f 300/245/60 302/247/60 299/244/60
f 303/248/65 305/250/65 304/249/65
f 304/249/65 306/251/65 303/248/65
f 307/252/62 309/254/62 308/253/62
f 308/253/62 310/255/62 307/252/62
f 311/256/66 313/258/66 312/257/66
f 312/257/66 314/259/66 311/256/66
f 315/258/67 317/257/67 316/259/67
f 316/259/67 318/256/67 315/258/67
f 319/244/60 321/246/60 320/245/60
f 320/245/60 322/247/60 319/244/60
f 323/248/68 325/250/68 324/249/68
f 324/249/68 326/251/68 323/248/68
f 327/252/62 329/254/62 328/253/62
f 328/253/62 330/255/62 327/252/62
f 331/256/69 333/258/69 332/257/69
f 332/257/69 334/259/69 331/256/69
f 335/258/70 337/257/70 336/259/70
f 336/259/70 338/256/70 335/258/70
f 339/260/71 341/262/71 340/261/71
f 339/260/71 340/261/71 342/263/71
f 341/262/72 339/260/72 342/263/72
f 341/262/72 342/263/72 340/261/72
f 343/264/73 344/265/73 341/262/73
f 343/264/74 341/262/74 339/260/74
f 344/265/75 343/264/75 339/260/75
f 344/265/76 339/260/76 341/262/76
f 345/266/77 346/267/77 344/265/77
f 345/266/77 344/265/77 343/264/77
f 346/267/78 345/266/78 343/264/78
f 346/267/78 343/264/78 344/265/78
f 347/268/79 348/269/79 346/267/79
f 347/268/79 346/267/79 345/266/79
f 348/269/80 347/268/80 345/266/80
f 348/269/80 345/266/80 346/267/80
f 349/270/81 350/271/81 348/269/81
f 349/270/82 348/269/82 347/268/82
f 350/271/83 349/270/83 347/268/83
f 350/271/84 347/268/84 348/269/84
f 351/272/85 352/273/85 350/271/85
f 351/272/86 350/271/86 349/270/86
f 352/273/87 351/272/87 349/270/87
f 352/273/88 349/270/88 350/271/88
f 353/274/89 354/275/89 352/273/89
f 353/274/90 352/273/90 351/272/90
f 354/275/91 353/274/91 351/272/91
f 354/275/92 351/272/92 352/273/92
f 355/276/93 356/277/93 354/275/93
f 355/276/94 354/275/94 353/274/94
f 356/277/95 355/276/95 353/274/95
f 356/277/96 353/274/96 354/275/96
f 357/274/97 358/275/97 356/277/97
f 357/274/98 356/277/98 355/276/98
f 358/275/99 357/274/99 355/276/99
f 358/275/100 355/276/100 356/277/100
f 359/272/101 360/273/101 358/275/101
f 359/272/102 358/275/102 357/274/102
f 360/273/103 359/272/103 357/274/103
f 360/273/104 357/274/104 358/275/104
f 361/270/105 362/271/105 360/273/105
f 361/270/106 360/273/106 359/272/106
f 362/271/107 361/270/107 359/272/107
f 362/271/108 359/272/108 360/273/108
f 363/268/109 364/269/109 362/271/109
f 363/268/110 362/271/110 361/270/110
f 364/269/111 363/268/111 361/270/111
f 364/269/112 361/270/112 362/271/112
f 365/266/113 366/267/113 364/269/113
f 365/266/113 364/269/113 363/268/113
f 366/267/114 365/266/114 363/268/114
f 366/267/114 363/268/114 364/269/114
f 367/264/115 368/265/115 366/267/115
f 367/264/115 366/267/115 365/266/115
f 368/265/116 367/264/116 365/266/116
f 368/265/116 365/266/116 366/267/116
f 369/260/117 370/262/117 368/265/117
f 369/260/118 368/265/118 367/264/118
f 370/262/119 369/260/119 367/264/119
f 370/262/120 367/264/120 368/265/120
f 342/263/121 340/261/121 370/262/121
f 342/263/121 370/262/121 369/260/121
f 340/261/122 342/263/122 369/260/122
f 340/261/122 369/260/122 370/262/122
f 371/278/71 373/262/71 372/279/71
f 371/278/71 372/279/71 374/280/71
f 375/281/72 377/283/72 376/282/72
f 375/281/72 376/282/72 378/284/72
f 379/285/74 380/286/74 373/262/74
f 379/285/73 373/262/73 371/278/73
f 381/287/76 382/288/76 377/283/76
f 381/287/75 377/283/75 375/281/75
f 383/289/77 384/290/77 380/286/77
f 383/289/77 380/286/77 379/285/77
f 385/291/78 386/292/78 382/288/78
f 385/291/78 382/288/78 381/287/78
f 387/293/123 388/294/123 384/290/123
f 387/293/79 384/290/79 383/289/79
f 389/295/80 390/296/80 386/292/80
f 389/295/124 386/292/124 385/291/124
f 391/297/125 392/298/125 388/294/125
f 391/297/82 388/294/82 387/293/82
f 393/299/126 394/300/126 390/296/126
f 393/299/127 390/296/127 389/295/127
f 395/301/128 396/302/128 392/298/128
f 395/301/129 392/298/129 391/297/129
f 397/303/130 398/304/130 394/300/130
f 397/303/131 394/300/131 393/299/131
f 399/305/132 400/306/132 396/302/132
f 399/305/133 396/302/133 395/301/133
f 401/307/134 402/308/134 398/304/134
f 401/307/135 398/304/135 397/303/135
f 403/309/136 404/310/136 400/306/136
f 403/309/137 400/306/137 399/305/137
f 405/311/138 406/312/138 402/308/138
f 405/311/139 402/308/139 401/307/139
f 407/305/140 408/306/140 404/310/140
f 407/305/141 404/310/141 403/309/141
f 409/307/142 410/308/142 406/312/142
f 409/307/143 406/312/143 405/311/143
f 411/301/144 412/302/144 408/306/144
f 411/301/145 408/306/145 407/305/145
f 413/303/146 414/304/146 410/308/146
f 413/303/147 410/308/147 409/307/147
f 415/297/148 416/298/148 412/302/148
f 415/297/149 412/302/149 411/301/149
f 417/299/150 418/300/150 414/304/150
f 417/299/151 414/304/151 413/303/151
f 419/293/152 420/294/152 416/298/152
f 419/293/153 416/298/153 415/297/153
f 421/295/111 422/296/111 418/300/111
f 421/295/154 418/300/154 417/299/154
f 423/289/155 424/290/155 420/294/155
f 423/289/113 420/294/113 419/293/113
f 425/291/114 426/292/114 422/296/114
f 425/291/156 422/296/156 421/295/156
f 427/285/115 428/286/115 424/290/115
f 427/285/115 424/290/115 423/289/115
f 429/287/116 430/288/116 426/292/116
f 429/287/116 426/292/116 425/291/116
f 431/278/118 432/262/118 428/286/118
f 431/278/117 428/286/117 427/285/117
f 433/281/120 434/283/120 430/288/120
f 433/281/119 430/288/119 429/287/119
f 374/280/121 372/279/121 432/262/121
f 374/280/121 432/262/121 431/278/121
f 378/284/122 376/282/122 434/283/122
f 378/284/122 434/283/122 433/281/122
f 435/313/157 437/315/157 436/314/157
f 436/314/157 438/316/157 435/313/157
f 439/317/62 441/319/62 440/318/62
f 440/318/62 442/320/62 439/317/62
f 443/321/60 445/323/60 444/322/60
f 444/322/60 446/324/60 443/321/60
f 447/325/158 449/327/158 448/326/158
f 448/326/158 450/328/158 447/325/158
f 451/329/159 453/331/159 452/330/159
f 452/330/159 454/332/159 451/329/159
l 453 455
