# Blender 4.0.2
# www.blender.org
mtllib 4svetT.mtl
o zaklad_4svet
v 0.030900 0.104934 -0.159135
v 0.030900 0.089546 -0.182186
v 0.030900 0.103883 -0.182804
v 0.030900 0.090596 -0.158517
v 0.030900 0.103883 -0.182804
v 0.185400 0.089546 -0.182186
v 0.185400 0.103883 -0.182804
v 0.030900 0.089546 -0.182186
v 0.185400 0.103883 -0.182804
v 0.185400 0.090596 -0.158517
v 0.185400 0.104934 -0.159135
v 0.185400 0.089546 -0.182186
v 0.185400 0.103883 -0.182804
v 0.030900 0.104934 -0.159135
v 0.030900 0.103883 -0.182804
v 0.185400 0.104934 -0.159135
v 0.185400 0.089546 -0.182186
v 0.030900 0.090596 -0.158517
v 0.185400 0.090596 -0.158517
v 0.030900 0.089546 -0.182186
v 0.050676 0.119580 -0.184411
v 0.028861 0.084972 -0.158579
v 0.050676 0.083304 -0.182001
v 0.028861 0.121187 -0.160989
v 0.165562 0.083304 -0.182001
v 0.187378 0.121187 -0.160989
v 0.165562 0.119580 -0.184411
v 0.187378 0.084972 -0.158579
v 0.165562 0.119580 -0.184411
v 0.028861 0.121187 -0.160989
v 0.050676 0.119580 -0.184411
v 0.187378 0.121187 -0.160989
v 0.050676 0.083304 -0.182001
v 0.187378 0.084972 -0.158579
v 0.165562 0.083304 -0.182001
v 0.028861 0.084972 -0.158579
v 0.028861 0.130890 -0.032074
v 0.028861 0.084972 -0.158579
v 0.028861 0.121187 -0.160989
v 0.028861 0.094613 -0.029726
v 0.187378 0.121187 -0.160989
v 0.187378 0.094613 -0.029726
v 0.187378 0.130890 -0.032074
v 0.187378 0.084972 -0.158579
v 0.028861 0.130890 -0.032074
v 0.187378 0.130890 -0.032074
v 0.028861 0.094613 -0.029726
v 0.187378 0.094613 -0.029726
v 0.151534 0.072056 -0.135218
v 0.163894 0.093686 -0.156663
v 0.163894 0.072056 -0.156663
v 0.151534 0.093686 -0.135218
v 0.126814 0.072056 -0.135218
v 0.126814 0.093686 -0.135218
v 0.114454 0.072056 -0.156663
v 0.114454 0.093686 -0.156663
v 0.126814 0.072056 -0.178046
v 0.126814 0.093686 -0.178046
v 0.151534 0.072056 -0.178046
v 0.151534 0.093686 -0.178046
v 0.139174 0.072056 -0.156663
v 0.151101 0.073601 -0.163523
v 0.139174 0.073601 -0.142882
v 0.127308 0.073601 -0.163523
v -0.199243 0.040415 0.097582
v -0.199243 0.128912 0.108150
v -0.199243 0.128109 0.094060
v -0.016995 0.128912 0.108150
v -0.016995 0.128109 0.094060
v -0.016995 0.040415 0.097582
v -0.192322 0.142879 0.035288
v -0.167231 0.142879 0.035288
v -0.167231 0.117850 0.092020
v -0.167231 0.117850 0.092020
v -0.190220 0.117850 0.092020
v -0.192322 0.142879 0.035288
v -0.192322 0.142879 0.035288
v -0.190220 0.117850 0.092020
v -0.167231 0.117850 0.092020
v -0.167231 0.142879 0.035288
v -0.023978 0.142879 0.035288
v -0.049069 0.117850 0.092020
v -0.049069 0.142879 0.035288
v -0.049069 0.117850 0.092020
v -0.023978 0.142879 0.035288
v -0.026141 0.117850 0.092020
v -0.023978 0.142879 0.035288
v -0.049069 0.117850 0.092020
v -0.026141 0.117850 0.092020
v -0.049069 0.142879 0.035288
v -0.185400 0.104934 -0.159135
v -0.185400 0.089546 -0.182186
v -0.185400 0.103883 -0.182804
v -0.185400 0.090596 -0.158517
v -0.185400 0.103883 -0.182804
v -0.030900 0.089546 -0.182186
v -0.030900 0.103883 -0.182804
v -0.185400 0.089546 -0.182186
v -0.030900 0.103883 -0.182804
v -0.030900 0.090596 -0.158517
v -0.030900 0.104934 -0.159135
v -0.030900 0.089546 -0.182186
v -0.030900 0.103883 -0.182804
v -0.185400 0.104934 -0.159135
v -0.185400 0.103883 -0.182804
v -0.030900 0.104934 -0.159135
v -0.030900 0.089546 -0.182186
v -0.185400 0.090596 -0.158517
v -0.030900 0.090596 -0.158517
v -0.185400 0.089546 -0.182186
v -0.217103 0.092079 0.071564
v -0.217103 0.092079 -0.108953
v 0.217103 0.092079 -0.108953
v 0.217103 0.092079 0.071564
v -0.165562 0.119580 -0.184411
v -0.187378 0.084972 -0.158579
v -0.165562 0.083304 -0.182001
v -0.187378 0.121187 -0.160989
v -0.050676 0.083304 -0.182001
v -0.028861 0.121187 -0.160989
v -0.050676 0.119580 -0.184411
v -0.028861 0.084972 -0.158579
v -0.050676 0.119580 -0.184411
v -0.187378 0.121187 -0.160989
v -0.165562 0.119580 -0.184411
v -0.028861 0.121187 -0.160989
v -0.165562 0.083304 -0.182001
v -0.028861 0.084972 -0.158579
v -0.050676 0.083304 -0.182001
v -0.187378 0.084972 -0.158579
v -0.241638 0.071438 0.076508
v 0.241638 0.071438 0.076508
v 0.244110 0.034791 0.084233
v -0.243925 0.034791 0.084233
v -0.217103 0.092079 0.071564
v 0.217103 0.092079 0.071564
v 0.241638 0.071438 0.076508
v 0.241329 0.071315 -0.133179
v 0.244110 0.034791 0.084233
v 0.217103 0.092079 0.071564
v 0.217103 0.092079 -0.108953
v -0.241329 0.071315 -0.133488
v -0.217103 0.092079 0.071564
v -0.241638 0.071438 0.076508
v -0.243925 0.034791 0.084233
v -0.243925 0.034853 0.133303
v -0.243925 0.034853 0.133303
v 0.244110 0.034853 0.133303
v 0.244110 0.034853 0.133303
v -0.199243 0.128109 0.094060
v -0.016995 0.040415 0.097582
v -0.016995 0.128109 0.094060
v -0.199243 0.040415 0.097582
v -0.016995 0.128109 0.094060
v -0.199243 0.040415 0.097582
v -0.199243 0.128109 0.094060
v -0.016995 0.040415 0.097582
v -0.187378 0.130890 -0.032074
v -0.187378 0.084972 -0.158579
v -0.187378 0.121187 -0.160989
v -0.187378 0.094613 -0.029726
v -0.028861 0.121187 -0.160989
v -0.028861 0.094613 -0.029726
v -0.028861 0.130890 -0.032074
v -0.028861 0.084972 -0.158579
v -0.187378 0.130890 -0.032074
v -0.028861 0.130890 -0.032074
v -0.187378 0.094613 -0.029726
v -0.028861 0.094613 -0.029726
v -0.064705 0.072056 -0.135218
v -0.052345 0.093686 -0.156663
v -0.052345 0.072056 -0.156663
v -0.064705 0.093686 -0.135218
v -0.089425 0.072056 -0.135218
v -0.089425 0.093686 -0.135218
v -0.101785 0.072056 -0.156663
v -0.101785 0.093686 -0.156663
v -0.089425 0.072056 -0.178046
v -0.089425 0.093686 -0.178046
v -0.064705 0.072056 -0.178046
v -0.064705 0.093686 -0.178046
v -0.077065 0.072056 -0.156663
v -0.065137 0.073601 -0.163523
v -0.077065 0.073601 -0.142882
v -0.088930 0.073601 -0.163523
v -0.217103 0.092079 -0.108953
v -0.217103 0.092079 -0.108953
v 0.241329 0.071315 -0.133179
v 0.217103 0.092079 -0.108953
v -0.241329 0.071315 -0.133488
v 0.208884 0.145598 0.034855
v -0.208884 0.145598 0.034855
v -0.208884 0.136946 -0.049378
v 0.208884 0.136946 -0.049378
v -0.208884 0.090534 -0.049007
v -0.208884 0.136946 -0.049378
v -0.208884 0.090905 0.035164
v -0.208884 0.145598 0.034855
v 0.208884 0.090534 -0.049007
v 0.208884 0.136946 -0.049378
v -0.208884 0.090534 -0.049007
v -0.208884 0.136946 -0.049378
v 0.208884 0.090905 0.035164
v 0.208884 0.145598 0.034855
v 0.208884 0.090534 -0.049007
v 0.208884 0.136946 -0.049378
v -0.208884 0.090905 0.035164
v -0.208884 0.145598 0.034855
v 0.208884 0.090905 0.035164
v 0.208884 0.145598 0.034855
v 0.243972 0.000000 -0.087875
v 0.148525 0.000000 -0.164337
v -0.137013 -0.000000 -0.135818
v 0.243972 0.000000 -0.135574
v 0.245237 0.000000 0.127370
v 0.136611 0.000000 -0.152597
v -0.088930 0.000000 -0.168781
v -0.243972 0.000000 -0.135818
v -0.243972 0.000000 -0.135818
v 0.186655 -0.000000 0.134886
v 0.245235 0.000000 0.083963
v 0.245237 0.000000 0.134886
v -0.067713 0.000000 -0.164337
v -0.245073 -0.000000 0.134886
v 0.139174 0.000000 -0.148153
v -0.245071 0.000000 0.083963
v -0.065137 0.000000 -0.168781
v 0.132446 0.000000 -0.168781
v -0.079627 0.000000 -0.152597
v -0.245071 0.000000 0.091466
v 0.127308 0.000000 -0.168781
v -0.077065 0.000000 -0.148153
v -0.083792 0.000000 -0.168781
v -0.245071 0.000000 0.057879
v 0.151101 0.000000 -0.168781
v -0.245073 0.000000 0.134886
v 0.245237 0.000000 0.134886
v 0.243972 0.000000 -0.135574
vn -1.0000 -0.0000 -0.0000
vn -0.0000 -0.0431 -0.9991
vn 1.0000 -0.0000 -0.0000
vn -0.0000 0.9990 -0.0443
vn -0.0000 -0.9990 0.0443
vn -0.7326 -0.0451 -0.6791
vn -0.7326 -0.0452 -0.6792
vn 0.7326 -0.0451 -0.6792
vn 0.7326 -0.0452 -0.6791
vn -0.0000 0.9977 -0.0684
vn -0.0000 -0.9975 0.0711
vn -0.0000 -0.0663 -0.9978
vn -0.0000 0.9972 -0.0751
vn -0.0000 -0.9972 0.0746
vn 0.8664 -0.0000 0.4994
vn -0.0000 -0.0000 1.0000
vn -0.8664 -0.0000 0.4994
vn -0.8658 -0.0000 -0.5004
vn -0.0000 -0.0000 -1.0000
vn 0.8658 -0.0000 -0.5004
vn -0.0000 -1.0000 -0.0000
vn -0.0000 -0.9984 0.0569
vn -0.0000 0.9984 -0.0569
vn -0.0000 0.9149 0.4036
vn -0.0000 -0.9149 -0.4036
vn -0.0000 1.0000 -0.0000
vn -0.0000 0.2063 0.9785
vn -0.0000 0.2329 0.9725
vn 0.9978 0.0670 -0.0015
vn 0.6508 0.7593 -0.0000
vn 0.6439 0.7651 -0.0014
vn -0.6439 0.7651 -0.0014
vn -0.9995 0.0329 -0.0000
vn -0.0000 1.0000 -0.0013
vn 0.9995 0.0323 -0.0000
vn -0.0000 -0.0401 -0.9992
vn -0.0000 0.0401 0.9992
vn -0.6508 0.7593 -0.0000
vn -0.9981 0.0620 -0.0015
vn -0.0000 0.7593 -0.6508
vn 0.0004 0.7631 -0.6463
vn -0.9993 0.0372 -0.0057
vn 0.0006 0.0336 -0.9994
vn 0.9994 0.0324 -0.0073
vn -0.0000 0.0454 0.9990
vn -0.0000 0.9948 -0.1022
vn -0.0000 -0.0080 -1.0000
vn -0.0000 0.0056 1.0000
vn -0.8664 -0.0356 0.4981
vn -0.0000 0.0713 -0.9975
vn 0.8653 -0.0358 0.5000
vn -0.0000 0.0327 -0.9995
vn 0.9993 0.0370 -0.0000
vn 0.8646 -0.0358 0.5011
vn -0.8658 -0.0358 0.4992
vt 0.978000 0.683000
vt 0.992000 0.667000
vt 0.992000 0.683000
vt 0.978000 0.667000
vt 0.767000 0.734000
vt 0.611000 0.714000
vt 0.611000 0.734000
vt 0.767000 0.714000
vt 0.989000 0.328000
vt 0.967000 0.498000
vt 0.989000 0.498000
vt 0.967000 0.328000
vt 0.747000 0.745000
vt 0.769000 0.713000
vt 0.747000 0.712000
vt 0.769000 0.746000
vt 0.631000 0.712000
vt 0.609000 0.746000
vt 0.631000 0.745000
vt 0.609000 0.713000
vt 0.989000 0.350000
vt 0.967000 0.500000
vt 0.989000 0.477000
vt 0.967000 0.326000
vt 0.899000 0.694000
vt 0.979000 0.666000
vt 0.979000 0.690000
vt 0.899000 0.669000
vt 0.855000 0.500000
vt 0.855000 0.326000
vt 0.646000 0.695000
vt 0.633000 0.714000
vt 0.633000 0.694000
vt 0.645000 0.714000
vt 0.670000 0.695000
vt 0.670000 0.714000
vt 0.683000 0.694000
vt 0.683000 0.714000
vt 0.658000 0.695000
vt 0.659000 0.224000
vt 0.659000 0.318000
vt 0.811000 0.318000
vt 0.811000 0.224000
vt 0.462000 0.646000
vt 0.387000 0.646000
vt 0.387000 0.630000
vt 0.472000 0.601000
vt 0.472000 0.625000
vt 0.377000 0.625000
vt 0.377000 0.601000
vt 0.820000 0.524000
vt 0.898000 0.524000
vt 0.898000 0.605000
vt 0.820000 0.605000
vt 0.819000 0.642000
vt 0.941000 0.642000
vt 0.941000 0.622000
vt 0.819000 0.622000
vt 0.819000 0.664000
vt 0.941000 0.664000
vt 0.814000 0.648000
vt 0.959000 0.641000
vt 0.805000 0.616000
vt 0.819000 0.668000
vt 0.940000 0.665000
vt 0.802811 0.603098
vt 0.805115 0.602983
vt 0.819000 0.600000
vt 0.941000 0.600000
vt 0.789000 0.615000
vt 0.790961 0.602078
vt 0.788654 0.602193
vt 0.346000 0.659000
vt 0.510000 0.574000
vt 0.510000 0.659000
vt 0.346000 0.574000
vt 0.993000 0.321000
vt 0.817000 0.224000
vt 0.817000 0.321000
vt 0.993000 0.224000
vt 0.817000 0.664000
vt 0.817000 0.642000
vt 0.822740 0.603559
vt 0.843121 0.612930
vt 0.926770 0.611930
vt 0.926924 0.588924
vt 0.000000 0.000000
vt 0.642000 0.364000
vt 0.603000 0.364000
vt 0.601000 0.434000
vt 0.601000 0.404000
vt 0.631000 0.434000
vt 0.631000 0.404000
vt 0.520000 0.478000
vt 0.520000 0.440000
vt 0.727000 0.478000
vt 0.727000 0.440000
vt 0.660591 0.672541
vt 0.664817 0.672541
vt 0.658000 0.672541
vt 0.648591 0.672541
vt 0.660591 0.672541
vt 0.817000 0.612930
vt 0.959000 0.612983
vt 0.941000 0.588924
vt 0.646000 0.672541
vt 0.670000 0.672541
vt 0.670000 0.672541
vt 0.646000 0.672541
vt 0.805115 0.602983
vt 0.941000 0.612930
vt 0.819000 0.588924
s 0
usemtl AZD_Trp
f 1/1/1 3/3/1 2/2/1
f 2/2/1 4/4/1 1/1/1
f 5/5/2 7/7/2 6/6/2
f 6/6/2 8/8/2 5/5/2
f 9/3/3 11/1/3 10/4/3
f 10/4/3 12/2/3 9/3/3
f 13/9/4 15/11/4 14/10/4
f 14/10/4 16/12/4 13/9/4
f 17/9/5 19/12/5 18/10/5
f 18/10/5 20/11/5 17/9/5
f 21/13/6 23/15/6 22/14/6
f 22/14/7 24/16/7 21/13/7
f 25/17/8 27/19/8 26/18/8
f 26/18/9 28/20/9 25/17/9
f 29/21/10 31/23/10 30/22/10
f 30/22/10 32/24/10 29/21/10
f 33/23/11 35/21/11 34/24/11
f 34/24/11 36/22/11 33/23/11
f 37/25/1 39/27/1 38/26/1
f 38/26/1 40/28/1 37/25/1
f 21/13/12 27/19/12 25/17/12
f 25/17/12 23/15/12 21/13/12
f 41/27/3 43/25/3 42/28/3
f 42/28/3 44/26/3 41/27/3
f 32/24/13 30/22/13 45/29/13
f 45/29/13 46/30/13 32/24/13
f 34/24/14 48/30/14 47/29/14
f 47/29/14 36/22/14 34/24/14
f 49/31/15 51/33/15 50/32/15
f 49/31/15 50/32/15 52/34/15
f 53/35/16 49/31/16 52/34/16
f 53/35/16 52/34/16 54/36/16
f 55/37/17 53/35/17 54/36/17
f 55/37/17 54/36/17 56/38/17
f 57/35/18 55/37/18 56/38/18
f 57/35/18 56/38/18 58/36/18
f 59/31/19 57/35/19 58/36/19
f 59/31/19 58/36/19 60/34/19
f 51/33/20 59/31/20 60/34/20
f 51/33/20 60/34/20 50/32/20
f 61/39/21 51/33/21 49/31/21
f 61/39/21 49/31/21 53/35/21
f 61/39/21 53/35/21 55/37/21
f 61/39/21 55/37/21 57/35/21
f 61/39/21 57/35/21 59/31/21
f 61/39/21 59/31/21 51/33/21
f 65/40/3 67/41/3 66/41/3
f 67/41/22 69/42/22 68/42/22
f 68/42/22 66/41/22 67/41/22
f 66/41/23 68/42/23 69/42/23
f 69/42/23 67/41/23 66/41/23
f 70/43/3 69/42/3 68/42/3
f 71/44/24 73/46/24 72/45/24
f 74/47/24 76/49/24 75/48/24
f 77/50/25 79/48/25 78/47/25
f 79/48/25 77/50/25 80/49/25
f 81/44/24 83/45/24 82/46/24
f 84/47/24 86/48/24 85/49/24
f 87/50/25 89/47/25 88/48/25
f 88/48/25 90/49/25 87/50/25
f 91/1/1 93/3/1 92/2/1
f 92/2/1 94/4/1 91/1/1
f 95/5/2 97/7/2 96/6/2
f 96/6/2 98/8/2 95/5/2
f 99/3/3 101/1/3 100/4/3
f 100/4/3 102/2/3 99/3/3
f 103/9/4 105/11/4 104/10/4
f 104/10/4 106/12/4 103/9/4
f 107/9/5 109/12/5 108/10/5
f 108/10/5 110/11/5 107/9/5
f 111/51/26 113/53/26 112/52/26
f 111/51/26 114/54/26 113/53/26
f 115/13/6 117/15/6 116/14/6
f 116/14/7 118/16/7 115/13/7
f 119/17/8 121/19/8 120/18/8
f 120/18/9 122/20/9 119/17/9
f 123/21/10 125/23/10 124/22/10
f 124/22/10 126/24/10 123/21/10
f 127/23/11 129/21/11 128/24/11
f 128/24/11 130/22/11 127/23/11
f 131/55/27 133/57/27 132/56/27
f 131/55/27 134/58/27 133/57/27
f 135/59/28 132/56/28 136/60/28
f 135/59/28 131/55/28 132/56/28
f 137/61/29 139/63/29 138/62/29
f 140/64/30 138/62/30 141/65/30
f 140/64/31 137/61/31 138/62/31
f 142/62/32 144/61/32 143/64/32
f 145/63/33 226/67/33 230/66/33
f 147/68/34 148/69/34 133/57/34
f 133/57/34 134/58/34 147/68/34
f 149/70/35 222/72/35 215/71/35
f 150/73/36 152/75/36 151/74/36
f 151/74/36 153/76/36 150/73/36
f 154/77/37 156/79/37 155/78/37
f 155/78/37 157/80/37 154/77/37
f 158/25/1 160/27/1 159/26/1
f 159/26/1 161/28/1 158/25/1
f 115/13/12 121/19/12 119/17/12
f 119/17/12 117/15/12 115/13/12
f 162/27/3 164/25/3 163/28/3
f 163/28/3 165/26/3 162/27/3
f 126/24/13 124/22/13 166/29/13
f 166/29/13 167/30/13 126/24/13
f 128/24/14 169/30/14 168/29/14
f 168/29/14 130/22/14 128/24/14
f 170/31/15 172/33/15 171/32/15
f 170/31/15 171/32/15 173/34/15
f 174/35/16 170/31/16 173/34/16
f 174/35/16 173/34/16 175/36/16
f 176/37/17 174/35/17 175/36/17
f 176/37/17 175/36/17 177/38/17
f 178/35/18 176/37/18 177/38/18
f 178/35/18 177/38/18 179/36/18
f 180/31/19 178/35/19 179/36/19
f 180/31/19 179/36/19 181/34/19
f 172/33/20 180/31/20 181/34/20
f 172/33/20 181/34/20 171/32/20
f 182/39/21 172/33/21 170/31/21
f 182/39/21 170/31/21 174/35/21
f 182/39/21 174/35/21 176/37/21
f 182/39/21 176/37/21 178/35/21
f 182/39/21 178/35/21 180/31/21
f 182/39/21 180/31/21 172/33/21
f 143/64/38 186/65/38 142/62/38
f 142/62/39 145/63/39 144/61/39
f 187/81/40 189/60/40 188/56/40
f 188/56/41 190/82/41 187/81/41
f 234/83/42 145/63/42 142/62/42
f 213/84/43 190/82/43 188/56/43
f 211/85/44 138/62/44 139/63/44
f 220/86/45 148/69/45 147/68/45
f 222/87/21 219/87/21 238/87/21
f 191/88/46 193/88/46 192/89/46
f 191/88/46 194/88/46 193/88/46
f 195/90/1 197/92/1 196/91/1
f 198/93/1 196/91/1 197/92/1
f 199/94/47 201/96/47 200/95/47
f 202/97/47 200/95/47 201/96/47
f 203/90/3 205/92/3 204/91/3
f 206/93/3 204/91/3 205/92/3
f 207/94/48 209/96/48 208/95/48
f 210/97/48 208/95/48 209/96/48
f 216/98/49 63/39/49 64/35/49
f 228/99/50 64/35/50 62/31/50
f 230/66/33 236/72/33 146/70/33
f 232/100/51 223/101/51 183/31/51
f 229/102/49 184/39/49 185/35/49
f 233/99/50 185/35/50 183/31/50
f 226/67/33 145/63/33 234/83/33
f 219/103/52 190/82/52 213/84/52
f 214/104/53 138/62/53 211/85/53
f 237/105/45 148/69/45 220/86/45
f 235/106/54 62/31/54 212/101/54
f 225/100/55 63/39/55 216/98/55
f 231/107/50 64/35/50 228/99/50
f 232/100/55 184/39/55 229/102/55
f 217/108/50 185/35/50 233/99/50
f 227/109/54 183/31/54 223/101/54
f 215/71/35 221/110/35 139/63/35
f 225/100/51 212/101/51 62/31/51
f 223/101/21 229/102/21 233/99/21
f 216/98/21 228/99/21 212/101/21
f 234/83/42 142/62/42 218/104/42
f 213/84/43 188/56/43 238/111/43
f 211/85/44 139/63/44 221/110/44
f 220/86/45 147/68/45 224/112/45
f 236/87/19 237/87/19 224/87/19
f 236/87/21 222/87/21 237/87/21
f 219/87/21 236/87/21 218/87/21
f 219/87/21 222/87/21 236/87/21
f 238/87/21 219/87/21 214/87/21
f 216/98/49 64/35/49 231/107/49
f 228/99/50 62/31/50 235/106/50
f 230/66/33 146/70/33 145/63/33
f 232/100/51 183/31/51 184/39/51
f 229/102/49 185/35/49 217/108/49
f 233/99/50 183/31/50 227/109/50
f 215/71/35 139/63/35 149/70/35
f 225/100/51 62/31/51 63/39/51
f 223/101/21 233/99/21 227/109/21
f 233/99/21 229/102/21 217/108/21
f 229/102/21 223/101/21 232/100/21
f 228/99/21 216/98/21 231/107/21
f 216/98/21 212/101/21 225/100/21
f 212/101/21 228/99/21 235/106/21
o stit_4svet
v -0.073109 0.325622 0.015512
v -0.108150 0.365235 0.325686
v -0.073109 0.358314 0.326428
v -0.108150 0.332543 0.014770
v -0.073109 0.358314 0.326428
v -0.108150 0.332543 0.014770
v -0.073109 0.325622 0.015512
v -0.108150 0.365235 0.325686
v -0.043384 0.305907 0.017613
v -0.043384 0.338599 0.328467
v -0.043384 0.338599 0.328467
v -0.043384 0.305907 0.017613
v -0.023546 0.276367 0.020703
v -0.023546 0.309059 0.331557
v -0.023546 0.309059 0.331557
v -0.023546 0.276367 0.020703
v -0.016624 0.241512 0.024349
v -0.016624 0.274204 0.335265
v -0.016624 0.274204 0.335265
v -0.016624 0.241512 0.024349
v -0.023546 0.206409 0.028057
v -0.023546 0.213022 0.090661
v -0.023546 0.213022 0.090661
v -0.023546 0.206409 0.028057
v -0.043384 0.177178 0.031085
v -0.043384 0.182122 0.079228
v -0.043384 0.182122 0.079228
v -0.043384 0.177178 0.031085
v -0.073109 0.157464 0.033125
v -0.073109 0.161295 0.071564
v -0.073109 0.161295 0.071564
v -0.073109 0.157464 0.033125
v -0.108150 0.150542 0.033866
v -0.108150 0.154188 0.068907
v -0.108150 0.154188 0.068907
v -0.108150 0.150542 0.033866
v -0.143129 0.157464 0.033125
v -0.143129 0.161295 0.071564
v -0.143129 0.161295 0.071564
v -0.143129 0.157464 0.033125
v -0.172855 0.177178 0.031085
v -0.172855 0.182122 0.079228
v -0.172855 0.182122 0.079228
v -0.172855 0.177178 0.031085
v -0.192692 0.206409 0.028057
v -0.192692 0.213022 0.090661
v -0.192692 0.213022 0.090661
v -0.192692 0.206409 0.028057
v -0.199614 0.241512 0.024349
v -0.199614 0.274204 0.335265
v -0.199614 0.274204 0.335265
v -0.199614 0.241512 0.024349
v -0.192692 0.276367 0.020703
v -0.192692 0.309059 0.331557
v -0.192692 0.309059 0.331557
v -0.192692 0.276367 0.020703
v -0.172855 0.305907 0.017613
v -0.172855 0.338599 0.328467
v -0.172855 0.338599 0.328467
v -0.172855 0.305907 0.017613
v -0.143129 0.325622 0.015512
v -0.143129 0.358314 0.326428
v -0.143129 0.358314 0.326428
v -0.143129 0.325622 0.015512
v 0.207957 0.514729 -0.088374
v 0.208266 0.145042 0.034423
v 0.207957 0.523382 -0.004820
v 0.208266 0.136514 -0.048822
v 0.008034 0.523196 -0.004820
v 0.008034 0.136514 -0.048822
v 0.008034 0.514729 -0.088374
v 0.008034 0.145042 0.034423
v 0.208266 0.698955 -0.107655
v 0.207957 0.523382 -0.004820
v 0.208266 0.707793 -0.023978
v 0.207957 0.514729 -0.088374
v 0.008034 0.707793 -0.023978
v 0.008034 0.514729 -0.088374
v 0.008034 0.698955 -0.107655
v 0.008034 0.523196 -0.004820
v -0.193187 0.317402 -0.067486
v -0.193187 0.143064 -0.098880
v -0.193187 0.312211 -0.116678
v -0.193187 0.148194 -0.049749
v -0.193187 0.312211 -0.116678
v -0.023051 0.143064 -0.098880
v -0.023051 0.312211 -0.116678
v -0.193187 0.143064 -0.098880
v -0.023051 0.312211 -0.116678
v -0.023051 0.148194 -0.049749
v -0.023051 0.317402 -0.067486
v -0.023051 0.143064 -0.098880
v -0.023051 0.312211 -0.116678
v -0.193187 0.317402 -0.067486
v -0.193187 0.312211 -0.116678
v -0.023051 0.317402 -0.067486
v -0.023051 0.143064 -0.098880
v -0.193187 0.148194 -0.049749
v -0.023051 0.148194 -0.049749
v -0.193187 0.143064 -0.098880
v -0.008034 0.338970 0.014152
v -0.208266 0.145042 0.034423
v -0.208266 0.338970 0.014152
v -0.008034 0.145042 0.034423
v -0.008034 0.330257 -0.068845
v -0.008034 0.145042 0.034423
v -0.008034 0.338970 0.014152
v -0.008034 0.136575 -0.048513
v -0.208266 0.338970 0.014152
v -0.208266 0.136575 -0.048513
v -0.208266 0.330257 -0.068845
v -0.208266 0.145042 0.034423
v -0.208266 0.330257 -0.068845
v -0.008034 0.136575 -0.048513
v -0.008034 0.330257 -0.068845
v -0.208266 0.136575 -0.048513
v -0.208266 0.338970 0.014152
v -0.008034 0.330257 -0.068845
v -0.008034 0.338970 0.014152
v -0.208266 0.330257 -0.068845
v 0.143129 0.510033 -0.003893
v 0.108150 0.549646 0.306281
v 0.143129 0.542663 0.307023
v 0.108150 0.516892 -0.004635
v 0.172855 0.490257 -0.001792
v 0.172855 0.522949 0.309062
v 0.192692 0.460778 0.001298
v 0.192692 0.493408 0.312152
v 0.199614 0.425923 0.004944
v 0.199614 0.458615 0.315860
v 0.192692 0.390821 0.008652
v 0.192692 0.397371 0.071256
v 0.172855 0.361589 0.011742
v 0.172855 0.366471 0.059823
v 0.143129 0.341813 0.013782
v 0.143129 0.345707 0.052159
v 0.108150 0.334892 0.014523
v 0.108150 0.338538 0.049502
v 0.073171 0.341813 0.013781
v 0.073171 0.345707 0.052159
v 0.043445 0.361589 0.011742
v 0.043445 0.366471 0.059822
v 0.023608 0.390821 0.008652
v 0.023608 0.397371 0.071255
v 0.016686 0.425923 0.004944
v 0.016686 0.458615 0.315860
v 0.023608 0.460778 0.001298
v 0.023608 0.493408 0.312152
v 0.043445 0.490257 -0.001792
v 0.043445 0.522949 0.309062
v 0.073171 0.510033 -0.003893
v 0.073171 0.542663 0.307023
v 0.023113 0.686101 -0.106234
v 0.023113 0.511825 -0.137628
v 0.023113 0.680910 -0.155427
v 0.023113 0.516954 -0.088436
v 0.023113 0.680910 -0.155427
v 0.193187 0.511825 -0.137628
v 0.193187 0.680910 -0.155427
v 0.023113 0.511825 -0.137628
v 0.193187 0.680910 -0.155427
v 0.193187 0.516954 -0.088436
v 0.193187 0.686101 -0.106234
v 0.193187 0.511825 -0.137628
v 0.193187 0.680910 -0.155427
v 0.023113 0.686101 -0.106234
v 0.023113 0.680910 -0.155427
v 0.193187 0.686101 -0.106234
v 0.193187 0.511825 -0.137628
v 0.023113 0.516954 -0.088436
v 0.193187 0.516954 -0.088436
v 0.023113 0.511825 -0.137628
v 0.143129 0.694320 -0.023237
v 0.108150 0.733934 0.286938
v 0.143129 0.727012 0.287679
v 0.108150 0.701242 -0.023978
v 0.143129 0.727012 0.287679
v 0.108150 0.701242 -0.023978
v 0.143129 0.694320 -0.023237
v 0.108150 0.733934 0.286938
v 0.172855 0.674606 -0.021135
v 0.172855 0.707298 0.289719
v 0.172855 0.707298 0.289719
v 0.172855 0.674606 -0.021135
v 0.192692 0.645066 -0.018045
v 0.192692 0.677758 0.292809
v 0.192692 0.677758 0.292809
v 0.192692 0.645066 -0.018045
v 0.199614 0.610334 -0.014399
v 0.199614 0.642903 0.296517
v 0.199614 0.642903 0.296517
v 0.199614 0.610334 -0.014399
v 0.192692 0.575170 -0.010691
v 0.192692 0.581783 0.051912
v 0.192692 0.581783 0.051912
v 0.192692 0.575170 -0.010691
v 0.172855 0.545939 -0.007601
v 0.172855 0.550883 0.040479
v 0.172855 0.550883 0.040479
v 0.172855 0.545939 -0.007601
v 0.143129 0.526224 -0.005562
v 0.143129 0.530056 0.032816
v 0.143129 0.530056 0.032816
v 0.143129 0.526224 -0.005562
v 0.108150 0.519303 -0.004820
v 0.108150 0.522949 0.030159
v 0.108150 0.522949 0.030159
v 0.108150 0.519303 -0.004820
v 0.073171 0.526224 -0.005562
v 0.073171 0.530056 0.032816
v 0.073171 0.530056 0.032816
v 0.073171 0.526224 -0.005562
v 0.043445 0.545939 -0.007601
v 0.043445 0.550883 0.040479
v 0.043445 0.550883 0.040479
v 0.043445 0.545939 -0.007601
v 0.023608 0.575170 -0.010691
v 0.023608 0.581783 0.051912
v 0.023608 0.581783 0.051912
v 0.023608 0.575170 -0.010691
v 0.016686 0.610334 -0.014399
v 0.016686 0.642903 0.296517
v 0.016686 0.642903 0.296517
v 0.016686 0.610334 -0.014399
v 0.023608 0.645066 -0.018045
v 0.023608 0.677758 0.292809
v 0.023608 0.677758 0.292809
v 0.023608 0.645066 -0.018045
v 0.043445 0.674606 -0.021135
v 0.043445 0.707298 0.289719
v 0.043445 0.707298 0.289719
v 0.043445 0.674606 -0.021135
v 0.073171 0.694320 -0.023237
v 0.073171 0.727012 0.287679
v 0.073171 0.727012 0.287679
v 0.073171 0.694320 -0.023237
v 0.023113 0.317402 -0.067486
v 0.023113 0.143064 -0.098880
v 0.023113 0.312211 -0.116678
v 0.023113 0.148194 -0.049749
v 0.023113 0.312211 -0.116678
v 0.193187 0.143064 -0.098880
v 0.193187 0.312211 -0.116678
v 0.023113 0.143064 -0.098880
v 0.193187 0.312211 -0.116678
v 0.193187 0.148194 -0.049749
v 0.193187 0.317402 -0.067485
v 0.193187 0.143064 -0.098880
v 0.193187 0.312211 -0.116678
v 0.023113 0.317402 -0.067486
v 0.023113 0.312211 -0.116678
v 0.193187 0.317402 -0.067485
v 0.193187 0.143064 -0.098880
v 0.023113 0.148194 -0.049749
v 0.193187 0.148194 -0.049749
v 0.023113 0.143064 -0.098880
v 0.023113 0.501752 -0.086891
v 0.023113 0.327414 -0.118285
v 0.023113 0.496622 -0.136083
v 0.023113 0.332605 -0.069092
v 0.023113 0.496622 -0.136083
v 0.193187 0.327414 -0.118285
v 0.193187 0.496622 -0.136083
v 0.023113 0.327414 -0.118285
v 0.193187 0.496622 -0.136083
v 0.193187 0.332605 -0.069092
v 0.193187 0.501752 -0.086891
v 0.193187 0.327414 -0.118285
v 0.193187 0.496622 -0.136083
v 0.023113 0.501752 -0.086891
v 0.023113 0.496622 -0.136083
v 0.193187 0.501752 -0.086891
v 0.193187 0.327414 -0.118285
v 0.023113 0.332605 -0.069092
v 0.193187 0.332605 -0.069092
v 0.023113 0.327414 -0.118285
v 0.143129 0.325622 0.015512
v 0.108150 0.365235 0.325686
v 0.143129 0.358314 0.326428
v 0.108150 0.332543 0.014770
v 0.172855 0.305907 0.017613
v 0.172855 0.338599 0.328467
v 0.192692 0.276367 0.020703
v 0.192692 0.309059 0.331557
v 0.199614 0.241574 0.024349
v 0.199614 0.274204 0.335265
v 0.192692 0.206409 0.028057
v 0.192692 0.213022 0.090661
v 0.172855 0.177178 0.031024
v 0.172855 0.182122 0.079228
v 0.143129 0.157464 0.033125
v 0.143129 0.161295 0.071564
v 0.108150 0.150480 0.033866
v 0.108150 0.154188 0.068845
v 0.073171 0.157464 0.033125
v 0.073171 0.161295 0.071564
v 0.043445 0.177178 0.031024
v 0.043445 0.182122 0.079228
v 0.023608 0.206409 0.028057
v 0.023608 0.213022 0.090661
v 0.016686 0.241574 0.024349
v 0.016686 0.274204 0.335265
v 0.023608 0.276367 0.020703
v 0.023608 0.309059 0.331557
v 0.043445 0.305907 0.017613
v 0.043445 0.338599 0.328467
v 0.073171 0.325622 0.015512
v 0.073171 0.358314 0.326428
v 0.208266 0.707793 -0.023978
v 0.008034 0.145042 0.034423
v 0.008034 0.707793 -0.023978
v 0.208266 0.145042 0.034423
v 0.008034 0.698955 -0.107655
v 0.208266 0.136514 -0.048822
v 0.208266 0.698955 -0.107655
v 0.008034 0.136514 -0.048822
v 0.008034 0.707793 -0.023978
v 0.208266 0.698955 -0.107655
v 0.208266 0.707793 -0.023978
v 0.008034 0.698955 -0.107655
vn -0.1949 -0.9755 0.1026
vn 0.1949 0.9755 -0.1026
vn -0.5547 -0.8275 0.0870
vn -0.5549 -0.8274 0.0870
vn 0.5549 0.8274 -0.0870
vn 0.5547 0.8275 -0.0870
vn -0.8316 -0.5524 0.0581
vn 0.8316 0.5524 -0.0581
vn -0.9811 -0.1927 0.0203
vn -0.9810 -0.1927 0.0203
vn 0.9810 0.1927 -0.0203
vn 0.9811 0.1927 -0.0203
vn -0.9812 0.1921 -0.0203
vn -0.9813 0.1914 -0.0201
vn 0.9813 -0.1914 0.0202
vn 0.9813 -0.1915 0.0201
vn -0.8304 0.5542 -0.0569
vn -0.8288 0.5564 -0.0588
vn 0.8288 -0.5566 0.0572
vn 0.8301 -0.5546 0.0586
vn -0.5575 0.8261 -0.0823
vn -0.5547 0.8277 -0.0850
vn 0.5547 -0.8279 0.0825
vn 0.5570 -0.8262 0.0848
vn -0.1903 0.9764 -0.1016
vn -0.1948 0.9760 -0.0973
vn 0.1949 -0.9756 0.1015
vn 0.1907 -0.9768 0.0974
vn 0.1911 0.9767 -0.0974
vn 0.1952 0.9755 -0.1015
vn -0.1952 -0.9759 0.0973
vn -0.1907 -0.9764 0.1016
vn 0.5570 0.8262 -0.0848
vn 0.5547 0.8279 -0.0825
vn -0.5547 -0.8277 0.0850
vn -0.5575 -0.8261 0.0823
vn 0.8301 0.5546 -0.0586
vn 0.8288 0.5566 -0.0572
vn -0.8288 -0.5564 0.0588
vn -0.8304 -0.5542 0.0569
vn 0.9813 0.1915 -0.0201
vn 0.9813 0.1914 -0.0202
vn -0.9813 -0.1914 0.0201
vn -0.9812 -0.1921 0.0203
vn 0.9811 -0.1927 0.0203
vn 0.9810 -0.1927 0.0203
vn -0.9810 0.1927 -0.0203
vn -0.9811 0.1927 -0.0203
vn 0.8316 -0.5524 0.0581
vn -0.8316 0.5524 -0.0581
vn 0.5547 -0.8275 0.0870
vn 0.5549 -0.8274 0.0870
vn -0.5549 0.8274 -0.0870
vn -0.5547 0.8275 -0.0870
vn 0.1952 -0.9754 0.1026
vn -0.1952 0.9754 -0.1026
vn 1.0000 0.0008 -0.0001
vn -1.0000 -0.0000 -0.0000
vn 1.0000 -0.0017 0.0002
vn -0.0000 -0.1046 -0.9945
vn 1.0000 -0.0000 -0.0000
vn -0.0000 0.9945 -0.1049
vn -0.0000 -0.9946 0.1038
vn -0.0000 0.1040 0.9946
vn -0.0000 -0.1044 -0.9945
vn -0.0000 0.9945 -0.1044
vn -0.1968 -0.9751 0.1023
vn -0.1935 -0.9757 0.1028
vn 0.1935 0.9757 -0.1024
vn 0.1968 0.9750 -0.1027
vn -0.5561 -0.8266 0.0868
vn 0.5561 0.8266 -0.0869
vn 0.5547 0.8275 -0.0868
vn -0.8316 -0.5524 0.0580
vn -0.8310 -0.5532 0.0582
vn 0.8310 0.5532 -0.0581
vn -0.9810 -0.1930 0.0203
vn -0.9810 -0.1927 0.0202
vn 0.9810 0.1930 -0.0203
vn -0.9815 0.1906 -0.0199
vn 0.9813 -0.1914 0.0200
vn 0.9813 -0.1912 0.0201
vn -0.8306 0.5540 -0.0563
vn -0.8289 0.5564 -0.0582
vn 0.8289 -0.5565 0.0565
vn 0.8302 -0.5544 0.0580
vn -0.5560 0.8269 -0.0839
vn -0.5559 0.8270 -0.0840
vn 0.5559 -0.8270 0.0839
vn 0.5560 -0.8269 0.0840
vn -0.1923 0.9760 -0.1017
vn -0.1952 0.9758 -0.0990
vn 0.1952 -0.9755 0.1017
vn 0.1926 -0.9763 0.0990
vn 0.1926 0.9763 -0.0990
vn 0.1952 0.9755 -0.1017
vn -0.1952 -0.9758 0.0990
vn -0.1923 -0.9760 0.1017
vn 0.5560 0.8269 -0.0840
vn 0.5559 0.8270 -0.0839
vn -0.5559 -0.8270 0.0840
vn -0.5560 -0.8269 0.0839
vn 0.8302 0.5544 -0.0580
vn 0.8289 0.5565 -0.0565
vn -0.8289 -0.5564 0.0582
vn -0.8306 -0.5540 0.0563
vn 0.9813 0.1912 -0.0201
vn 0.9813 0.1914 -0.0200
vn -0.9815 -0.1906 0.0199
vn 0.9810 -0.1930 0.0203
vn -0.9810 0.1927 -0.0202
vn -0.9810 0.1930 -0.0203
vn 0.8310 -0.5532 0.0581
vn -0.8310 0.5532 -0.0582
vn -0.8316 0.5524 -0.0580
vn 0.5547 -0.8275 0.0868
vn 0.5561 -0.8266 0.0869
vn -0.5561 0.8266 -0.0868
vn 0.1968 -0.9750 0.1027
vn 0.1935 -0.9757 0.1024
vn -0.1935 0.9757 -0.1028
vn -0.1968 0.9751 -0.1023
vn -0.0000 -0.1047 -0.9945
vn -0.0000 -0.9946 0.1037
vn -0.1952 -0.9754 0.1026
vn 0.1952 0.9754 -0.1026
vn -0.9811 -0.1927 0.0202
vn -0.9809 -0.1934 0.0203
vn 0.9809 0.1934 -0.0203
vn -0.9811 0.1925 -0.0203
vn -0.9814 0.1911 -0.0200
vn 0.9814 -0.1910 0.0202
vn 0.9813 -0.1913 0.0200
vn -0.8304 0.5542 -0.0570
vn -0.8289 0.5563 -0.0588
vn 0.8289 -0.5565 0.0572
vn -0.5575 0.8261 -0.0825
vn -0.5547 0.8277 -0.0851
vn 0.5547 -0.8279 0.0827
vn 0.5569 -0.8262 0.0850
vn -0.1906 0.9764 -0.1018
vn -0.1952 0.9759 -0.0974
vn 0.1910 -0.9767 0.0975
vn 0.1910 0.9767 -0.0975
vn -0.1952 -0.9759 0.0974
vn -0.1906 -0.9764 0.1018
vn 0.5569 0.8262 -0.0850
vn 0.5547 0.8279 -0.0827
vn -0.5547 -0.8277 0.0851
vn -0.5575 -0.8261 0.0825
vn 0.8289 0.5565 -0.0572
vn -0.8289 -0.5563 0.0588
vn -0.8304 -0.5542 0.0570
vn 0.9813 0.1913 -0.0200
vn 0.9814 0.1910 -0.0202
vn -0.9814 -0.1911 0.0200
vn -0.9811 -0.1925 0.0203
vn 0.9809 -0.1934 0.0203
vn -0.9809 0.1934 -0.0203
vn -0.9811 0.1927 -0.0202
vn -0.0000 0.9946 -0.1037
vn -0.0000 -0.9945 0.1049
vn -0.9814 0.1911 -0.0201
vn 0.9813 -0.1913 0.0201
vn -0.8305 0.5542 -0.0568
vn -0.8288 0.5565 -0.0588
vn 0.8288 -0.5567 0.0571
vn -0.5549 0.8276 -0.0849
vn 0.5549 -0.8278 0.0825
vn 0.5570 -0.8262 0.0847
vn -0.1903 0.9763 -0.1035
vn -0.1968 0.9756 -0.0972
vn 0.1968 -0.9750 0.1034
vn 0.1909 -0.9768 0.0974
vn 0.1909 0.9768 -0.0974
vn 0.1968 0.9750 -0.1034
vn -0.1968 -0.9756 0.0972
vn -0.1903 -0.9763 0.1035
vn 0.5570 0.8262 -0.0847
vn 0.5549 0.8278 -0.0825
vn -0.5549 -0.8276 0.0849
vn 0.8288 0.5567 -0.0571
vn -0.8288 -0.5565 0.0588
vn -0.8305 -0.5542 0.0568
vn 0.9813 0.1913 -0.0201
vn -0.9814 -0.1911 0.0201
vn -0.0000 0.1032 0.9947
vn -0.0000 -0.1040 -0.9946
vn -0.0000 0.9945 -0.1050
vt 0.849000 0.838000
vt 0.607000 0.846000
vt 0.607000 0.837000
vt 0.849000 0.849000
vt 0.621000 0.977000
vt 0.864000 0.988000
vt 0.864000 0.980000
vt 0.625000 0.984000
vt 0.849000 0.827000
vt 0.607000 0.825000
vt 0.621000 0.966000
vt 0.863000 0.968000
vt 0.848000 0.809000
vt 0.607000 0.808000
vt 0.621000 0.950000
vt 0.862000 0.948000
vt 0.847000 0.789000
vt 0.607000 0.787000
vt 0.622000 0.931000
vt 0.861000 0.923000
vt 0.846000 0.768000
vt 0.807000 0.768000
vt 0.821000 0.903000
vt 0.860000 0.908000
vt 0.846000 0.751000
vt 0.817000 0.750000
vt 0.831000 0.892000
vt 0.859000 0.892000
vt 0.845000 0.739000
vt 0.824000 0.738000
vt 0.838000 0.880000
vt 0.859000 0.881000
vt 0.845000 0.735000
vt 0.826000 0.734000
vt 0.840000 0.876000
vt 0.859000 0.877000
vt 0.923000 0.993000
vt 0.847000 0.698000
vt 0.860000 0.996000
vt 0.907000 0.696000
vt 0.861000 0.997000
vt 0.906000 0.695000
vt 0.924000 0.993000
vt 0.846000 0.699000
vt 0.855000 0.845000
vt 0.915000 0.843000
vt 0.914000 0.842000
vt 0.854000 0.846000
vt 0.915000 0.835000
vt 0.940000 0.704000
vt 0.947000 0.835000
vt 0.908000 0.704000
vt 0.501000 0.559000
vt 0.356000 0.388000
vt 0.356000 0.559000
vt 0.501000 0.388000
vt 0.955000 0.982000
vt 0.917000 0.852000
vt 0.923000 0.982000
vt 0.949000 0.852000
vt 0.499000 0.557000
vt 0.360000 0.512000
vt 0.360000 0.557000
vt 0.499000 0.512000
vt 0.106000 0.999000
vt 0.006000 0.901000
vt 0.006000 0.999000
vt 0.106000 0.901000
vt 0.512000 0.571000
vt 0.346000 0.373000
vt 0.346000 0.571000
vt 0.512000 0.373000
vt 0.478000 0.804000
vt 0.540000 0.668000
vt 0.478000 0.668000
vt 0.540000 0.804000
vt 0.851000 0.838000
vt 0.610000 0.844000
vt 0.851000 0.846000
vt 0.851000 0.827000
vt 0.605000 0.825000
vt 0.850000 0.812000
vt 0.605000 0.805000
vt 0.849000 0.791000
vt 0.604000 0.784000
vt 0.848000 0.771000
vt 0.793000 0.765000
vt 0.848000 0.754000
vt 0.808000 0.748000
vt 0.847000 0.742000
vt 0.815000 0.742000
vt 0.847000 0.738000
vt 0.818000 0.738000
vt 0.006000 0.702000
vt 0.106000 0.702000
vt 0.346000 0.006000
vt 0.512000 0.006000
s 0
usemtl AZD_Trp
f 239/113/56 241/115/56 240/114/56
f 239/113/56 240/114/56 242/116/56
f 243/117/57 245/119/57 244/118/57
f 243/117/57 244/118/57 246/120/57
f 247/121/58 248/122/58 241/115/58
f 247/121/59 241/115/59 239/113/59
f 249/123/60 250/124/60 245/119/60
f 249/123/61 245/119/61 243/117/61
f 251/125/62 252/126/62 248/122/62
f 251/125/62 248/122/62 247/121/62
f 253/127/63 254/128/63 250/124/63
f 253/127/63 250/124/63 249/123/63
f 255/129/64 256/130/64 252/126/64
f 255/129/65 252/126/65 251/125/65
f 257/131/66 258/132/66 254/128/66
f 257/131/67 254/128/67 253/127/67
f 259/133/68 260/134/68 256/130/68
f 259/133/69 256/130/69 255/129/69
f 261/135/70 262/136/70 258/132/70
f 261/135/71 258/132/71 257/131/71
f 263/137/72 264/138/72 260/134/72
f 263/137/73 260/134/73 259/133/73
f 265/139/74 266/140/74 262/136/74
f 265/139/75 262/136/75 261/135/75
f 267/141/76 268/142/76 264/138/76
f 267/141/77 264/138/77 263/137/77
f 269/143/78 270/144/78 266/140/78
f 269/143/79 266/140/79 265/139/79
f 271/145/80 272/146/80 268/142/80
f 271/145/81 268/142/81 267/141/81
f 273/147/82 274/148/82 270/144/82
f 273/147/83 270/144/83 269/143/83
f 275/141/84 276/142/84 272/146/84
f 275/141/85 272/146/85 271/145/85
f 277/143/86 278/144/86 274/148/86
f 277/143/87 274/148/87 273/147/87
f 279/137/88 280/138/88 276/142/88
f 279/137/89 276/142/89 275/141/89
f 281/139/90 282/140/90 278/144/90
f 281/139/91 278/144/91 277/143/91
f 283/133/92 284/134/92 280/138/92
f 283/133/93 280/138/93 279/137/93
f 285/135/94 286/136/94 282/140/94
f 285/135/95 282/140/95 281/139/95
f 287/129/96 288/130/96 284/134/96
f 287/129/97 284/134/97 283/133/97
f 289/131/98 290/132/98 286/136/98
f 289/131/99 286/136/99 285/135/99
f 291/125/100 292/126/100 288/130/100
f 291/125/101 288/130/101 287/129/101
f 293/127/102 294/128/102 290/132/102
f 293/127/103 290/132/103 289/131/103
f 295/121/104 296/122/104 292/126/104
f 295/121/104 292/126/104 291/125/104
f 297/123/105 298/124/105 294/128/105
f 297/123/105 294/128/105 293/127/105
f 299/113/106 300/115/106 296/122/106
f 299/113/107 296/122/107 295/121/107
f 301/117/108 302/119/108 298/124/108
f 301/117/109 298/124/109 297/123/109
f 242/116/110 240/114/110 300/115/110
f 242/116/110 300/115/110 299/113/110
f 246/120/111 244/118/111 302/119/111
f 246/120/111 302/119/111 301/117/111
f 303/149/112 305/151/112 304/150/112
f 304/150/112 306/152/112 303/149/112
f 307/153/113 309/155/113 308/154/113
f 308/154/113 310/156/113 307/153/113
f 311/149/114 313/151/114 312/157/114
f 312/157/114 314/158/114 311/149/114
f 315/153/113 317/155/113 316/159/113
f 316/159/113 318/160/113 315/153/113
f 319/161/113 321/163/113 320/162/113
f 320/162/113 322/164/113 319/161/113
f 323/165/115 325/167/115 324/166/115
f 324/166/115 326/168/115 323/165/115
f 327/169/116 329/171/116 328/170/116
f 328/170/116 330/172/116 327/169/116
f 331/173/117 333/175/117 332/174/117
f 332/174/117 334/176/117 331/173/117
f 335/175/118 337/174/118 336/176/118
f 336/176/118 338/173/118 335/175/118
f 339/177/119 341/179/119 340/178/119
f 340/178/119 342/180/119 339/177/119
f 343/149/116 345/151/116 344/150/116
f 344/150/116 346/152/116 343/149/116
f 347/153/113 349/155/113 348/154/113
f 348/154/113 350/156/113 347/153/113
f 351/181/120 353/183/120 352/182/120
f 352/182/120 354/184/120 351/181/120
f 355/185/121 357/187/121 356/186/121
f 356/186/121 358/188/121 355/185/121
f 359/189/122 361/115/122 360/190/122
f 359/189/123 360/190/123 362/191/123
f 361/115/124 359/189/124 362/191/124
f 361/115/125 362/191/125 360/190/125
f 363/192/58 364/193/58 361/115/58
f 363/192/126 361/115/126 359/189/126
f 364/193/127 363/192/127 359/189/127
f 364/193/128 359/189/128 361/115/128
f 365/194/129 366/195/129 364/193/129
f 365/194/130 364/193/130 363/192/130
f 366/195/131 365/194/131 363/192/131
f 366/195/63 363/192/63 364/193/63
f 367/196/132 368/197/132 366/195/132
f 367/196/133 366/195/133 365/194/133
f 368/197/66 367/196/66 365/194/66
f 368/197/134 365/194/134 366/195/134
f 369/198/135 370/199/135 368/197/135
f 369/198/69 368/197/69 367/196/69
f 370/199/136 369/198/136 367/196/136
f 370/199/137 367/196/137 368/197/137
f 371/200/138 372/201/138 370/199/138
f 371/200/139 370/199/139 369/198/139
f 372/201/140 371/200/140 369/198/140
f 372/201/141 369/198/141 370/199/141
f 373/202/142 374/203/142 372/201/142
f 373/202/143 372/201/143 371/200/143
f 374/203/144 373/202/144 371/200/144
f 374/203/145 371/200/145 372/201/145
f 375/204/146 376/205/146 374/203/146
f 375/204/147 374/203/147 373/202/147
f 376/205/148 375/204/148 373/202/148
f 376/205/149 373/202/149 374/203/149
f 377/202/150 378/203/150 376/205/150
f 377/202/151 376/205/151 375/204/151
f 378/203/152 377/202/152 375/204/152
f 378/203/153 375/204/153 376/205/153
f 379/200/154 380/201/154 378/203/154
f 379/200/155 378/203/155 377/202/155
f 380/201/156 379/200/156 377/202/156
f 380/201/157 377/202/157 378/203/157
f 381/198/158 382/199/158 380/201/158
f 381/198/159 380/201/159 379/200/159
f 382/199/160 381/198/160 379/200/160
f 382/199/161 379/200/161 380/201/161
f 383/196/162 384/197/162 382/199/162
f 383/196/163 382/199/163 381/198/163
f 384/197/98 383/196/98 381/198/98
f 384/197/164 381/198/164 382/199/164
f 385/194/165 386/195/165 384/197/165
f 385/194/101 384/197/101 383/196/101
f 386/195/166 385/194/166 383/196/166
f 386/195/167 383/196/167 384/197/167
f 387/192/104 388/193/104 386/195/104
f 387/192/168 386/195/168 385/194/168
f 388/193/169 387/192/169 385/194/169
f 388/193/170 385/194/170 386/195/170
f 389/189/171 390/115/171 388/193/171
f 389/189/172 388/193/172 387/192/172
f 390/115/173 389/189/173 387/192/173
f 390/115/109 387/192/109 388/193/109
f 362/191/174 360/190/174 390/115/174
f 362/191/175 390/115/175 389/189/175
f 360/190/176 362/191/176 389/189/176
f 360/190/177 389/189/177 390/115/177
f 391/161/113 393/163/113 392/162/113
f 392/162/113 394/164/113 391/161/113
f 395/165/178 397/167/178 396/166/178
f 396/166/178 398/168/178 395/165/178
f 399/169/116 401/171/116 400/170/116
f 400/170/116 402/172/116 399/169/116
f 403/173/117 405/175/117 404/174/117
f 404/174/117 406/176/117 403/173/117
f 407/175/179 409/174/179 408/176/179
f 408/176/179 410/173/179 407/175/179
f 411/113/180 413/115/180 412/114/180
f 411/113/180 412/114/180 414/116/180
f 415/117/181 417/119/181 416/118/181
f 415/117/181 416/118/181 418/120/181
f 419/121/58 420/122/58 413/115/58
f 419/121/59 413/115/59 411/113/59
f 421/123/60 422/124/60 417/119/60
f 421/123/61 417/119/61 415/117/61
f 423/125/62 424/126/62 420/122/62
f 423/125/62 420/122/62 419/121/62
f 425/127/63 426/128/63 422/124/63
f 425/127/63 422/124/63 421/123/63
f 427/129/182 428/130/182 424/126/182
f 427/129/183 424/126/183 423/125/183
f 429/131/184 430/132/184 426/128/184
f 429/131/67 426/128/67 425/127/67
f 431/133/185 432/134/185 428/130/185
f 431/133/186 428/130/186 427/129/186
f 433/135/187 434/136/187 430/132/187
f 433/135/188 430/132/188 429/131/188
f 435/137/189 436/138/189 432/134/189
f 435/137/190 432/134/190 431/133/190
f 437/139/191 438/140/191 434/136/191
f 437/139/75 434/136/75 433/135/75
f 439/141/192 440/142/192 436/138/192
f 439/141/193 436/138/193 435/137/193
f 441/143/194 442/144/194 438/140/194
f 441/143/195 438/140/195 437/139/195
f 443/145/196 444/146/196 440/142/196
f 443/145/197 440/142/197 439/141/197
f 445/147/148 446/148/148 442/144/148
f 445/147/198 442/144/198 441/143/198
f 447/141/199 448/142/199 444/146/199
f 447/141/151 444/146/151 443/145/151
f 449/143/200 450/144/200 446/148/200
f 449/143/201 446/148/201 445/147/201
f 451/137/202 452/138/202 448/142/202
f 451/137/203 448/142/203 447/141/203
f 453/139/204 454/140/204 450/144/204
f 453/139/205 450/144/205 449/143/205
f 455/133/92 456/134/92 452/138/92
f 455/133/206 452/138/206 451/137/206
f 457/135/207 458/136/207 454/140/207
f 457/135/208 454/140/208 453/139/208
f 459/129/209 460/130/209 456/134/209
f 459/129/210 456/134/210 455/133/210
f 461/131/211 462/132/211 458/136/211
f 461/131/212 458/136/212 457/135/212
f 463/125/100 464/126/100 460/130/100
f 463/125/213 460/130/213 459/129/213
f 465/127/214 466/128/214 462/132/214
f 465/127/215 462/132/215 461/131/215
f 467/121/104 468/122/104 464/126/104
f 467/121/104 464/126/104 463/125/104
f 469/123/105 470/124/105 466/128/105
f 469/123/105 466/128/105 465/127/105
f 471/113/106 472/115/106 468/122/106
f 471/113/107 468/122/107 467/121/107
f 473/117/108 474/119/108 470/124/108
f 473/117/109 470/124/109 469/123/109
f 414/116/110 412/114/110 472/115/110
f 414/116/110 472/115/110 471/113/110
f 418/120/111 416/118/111 474/119/111
f 418/120/111 474/119/111 473/117/111
f 475/161/113 477/163/113 476/162/113
f 476/162/113 478/164/113 475/161/113
f 479/165/115 481/167/115 480/166/115
f 480/166/115 482/168/115 479/165/115
f 483/169/116 485/171/116 484/170/116
f 484/170/116 486/172/116 483/169/116
f 487/173/117 489/175/117 488/174/117
f 488/174/117 490/176/117 487/173/117
f 491/175/118 493/174/118 492/176/118
f 492/176/118 494/173/118 491/175/118
f 495/161/113 497/163/113 496/162/113
f 496/162/113 498/164/113 495/161/113
f 499/165/115 501/167/115 500/166/115
f 500/166/115 502/168/115 499/165/115
f 503/169/116 505/171/116 504/170/116
f 504/170/116 506/172/116 503/169/116
f 507/173/216 509/175/216 508/174/216
f 508/174/216 510/176/216 507/173/216
f 511/175/217 513/174/217 512/176/217
f 512/176/217 514/173/217 511/175/217
f 515/189/180 517/115/180 516/190/180
f 515/189/180 516/190/180 518/191/180
f 517/115/181 515/189/181 518/191/181
f 517/115/181 518/191/181 516/190/181
f 519/192/58 520/193/58 517/115/58
f 519/192/59 517/115/59 515/189/59
f 520/193/60 519/192/60 515/189/60
f 520/193/61 515/189/61 517/115/61
f 521/194/62 522/195/62 520/193/62
f 521/194/62 520/193/62 519/192/62
f 522/195/63 521/194/63 519/192/63
f 522/195/63 519/192/63 520/193/63
f 523/196/182 524/197/182 522/195/182
f 523/196/132 522/195/132 521/194/132
f 524/197/134 523/196/134 521/194/134
f 524/197/67 521/194/67 522/195/67
f 525/198/68 526/199/68 524/197/68
f 525/198/218 524/197/218 523/196/218
f 526/199/187 525/198/187 523/196/187
f 526/199/219 523/196/219 524/197/219
f 527/200/220 528/201/220 526/199/220
f 527/200/221 526/199/221 525/198/221
f 528/201/222 527/200/222 525/198/222
f 528/201/75 525/198/75 526/199/75
f 529/202/76 530/203/76 528/201/76
f 529/202/223 528/201/223 527/200/223
f 530/203/224 529/202/224 527/200/224
f 530/203/225 527/200/225 528/201/225
f 531/204/226 532/205/226 530/203/226
f 531/204/227 530/203/227 529/202/227
f 532/205/228 531/204/228 529/202/228
f 532/205/229 529/202/229 530/203/229
f 533/202/230 534/203/230 532/205/230
f 533/202/231 532/205/231 531/204/231
f 534/203/232 533/202/232 531/204/232
f 534/203/233 531/204/233 532/205/233
f 535/200/234 536/201/234 534/203/234
f 535/200/235 534/203/235 533/202/235
f 536/201/236 535/200/236 533/202/236
f 536/201/91 533/202/91 534/203/91
f 537/198/92 538/199/92 536/201/92
f 537/198/237 536/201/237 535/200/237
f 538/199/238 537/198/238 535/200/238
f 538/199/239 535/200/239 536/201/239
f 539/196/240 540/197/240 538/199/240
f 539/196/210 538/199/210 537/198/210
f 540/197/241 539/196/241 537/198/241
f 540/197/99 537/198/99 538/199/99
f 541/194/100 542/195/100 540/197/100
f 541/194/165 540/197/165 539/196/165
f 542/195/167 541/194/167 539/196/167
f 542/195/215 539/196/215 540/197/215
f 543/192/104 544/193/104 542/195/104
f 543/192/104 542/195/104 541/194/104
f 544/193/105 543/192/105 541/194/105
f 544/193/105 541/194/105 542/195/105
f 545/189/106 546/115/106 544/193/106
f 545/189/107 544/193/107 543/192/107
f 546/115/108 545/189/108 543/192/108
f 546/115/109 543/192/109 544/193/109
f 518/191/110 516/190/110 546/115/110
f 518/191/110 546/115/110 545/189/110
f 516/190/111 518/191/111 545/189/111
f 516/190/111 545/189/111 546/115/111
f 547/177/242 549/179/242 548/206/242
f 548/206/242 550/207/242 547/177/242
f 551/181/243 553/183/243 552/208/243
f 552/208/243 554/209/243 551/181/243
f 555/185/244 557/187/244 556/186/244
f 556/186/244 558/188/244 555/185/244
o zluta_4svet
v 0.181431 0.578639 -0.003799
v 0.186613 0.594477 -0.005673
v 0.188366 0.611040 -0.007633
v 0.161825 0.551841 -0.000628
v 0.173046 0.564216 -0.002093
v 0.186613 0.627603 -0.009593
v 0.132938 0.535278 0.001331
v 0.148258 0.542052 0.000530
v 0.173046 0.657864 -0.013173
v 0.181431 0.643441 -0.011467
v 0.148258 0.680028 -0.015796
v 0.161825 0.670239 -0.014638
v 0.099765 0.531815 0.001741
v 0.116535 0.531815 0.001741
v 0.116535 0.690265 -0.017007
v 0.068042 0.542052 0.000530
v 0.083362 0.535278 0.001331
v 0.132938 0.686802 -0.016597
v 0.083362 0.686802 -0.016597
v 0.099765 0.690265 -0.017007
v 0.054475 0.670239 -0.014638
v 0.068042 0.680028 -0.015796
v 0.034869 0.643441 -0.011467
v 0.043254 0.657864 -0.013173
v 0.043254 0.564216 -0.002093
v 0.054475 0.551841 -0.000628
v 0.027934 0.611040 -0.007633
v 0.029687 0.594477 -0.005673
v 0.034869 0.578639 -0.003799
v 0.029687 0.627603 -0.009593
vn -0.0000 0.1175 0.9931
vt 0.012005 0.824246
vt 0.004079 0.848772
vt 0.001398 0.874420
vt 0.041991 0.782746
vt 0.024829 0.801911
vt 0.086171 0.757098
vt 0.062741 0.767588
vt 0.136907 0.751736
vt 0.111259 0.751736
vt 0.185425 0.767588
vt 0.161994 0.757098
vt 0.223337 0.801911
vt 0.206175 0.782746
vt 0.244086 0.848772
vt 0.236161 0.824245
vt 0.244086 0.900068
vt 0.246767 0.874420
vt 0.223337 0.946930
vt 0.236161 0.924596
vt 0.185425 0.981253
vt 0.206175 0.966095
vt 0.136907 0.997105
vt 0.161994 0.991743
vt 0.086171 0.991743
vt 0.111259 0.997105
vt 0.041991 0.966095
vt 0.062741 0.981253
vt 0.012005 0.924596
vt 0.024829 0.946930
vt 0.004079 0.900068
s 0
usemtl cocky.007
f 559/210/245 560/211/245 561/212/245
f 562/213/245 563/214/245 559/210/245
f 565/215/245 566/216/245 562/213/245
f 565/215/245 562/213/245 559/210/245
f 571/217/245 572/218/245 565/215/245
f 574/219/245 575/220/245 571/217/245
f 574/219/245 571/217/245 565/215/245
f 574/219/245 565/215/245 559/210/245
f 583/221/245 584/222/245 574/219/245
f 586/223/245 587/224/245 583/221/245
f 586/223/245 583/221/245 574/219/245
f 588/225/245 585/226/245 586/223/245
f 582/227/245 581/228/245 588/225/245
f 582/227/245 588/225/245 586/223/245
f 582/227/245 586/223/245 574/219/245
f 580/229/245 579/230/245 582/227/245
f 578/231/245 577/232/245 580/229/245
f 578/231/245 580/229/245 582/227/245
f 576/233/245 573/234/245 578/231/245
f 570/235/245 569/236/245 576/233/245
f 570/235/245 576/233/245 578/231/245
f 570/235/245 578/231/245 582/227/245
f 570/235/245 582/227/245 574/219/245
f 570/235/245 574/219/245 559/210/245
f 568/237/245 567/238/245 570/235/245
f 568/237/245 570/235/245 559/210/245
f 568/237/245 559/210/245 561/212/245
f 568/237/245 561/212/245 564/239/245
o zelena_4svet
v 0.181431 0.394286 0.015544
v 0.186613 0.410124 0.013670
v 0.188366 0.426687 0.011710
v 0.161825 0.367488 0.018715
v 0.173046 0.379863 0.017251
v 0.186613 0.443250 0.009751
v 0.132938 0.350925 0.020675
v 0.148258 0.357699 0.019873
v 0.173046 0.473511 0.006170
v 0.181431 0.459088 0.007877
v 0.148258 0.495675 0.003548
v 0.161825 0.485886 0.004706
v 0.099765 0.347463 0.021085
v 0.116535 0.347463 0.021085
v 0.116535 0.505912 0.002336
v 0.068042 0.357699 0.019873
v 0.083362 0.350925 0.020675
v 0.132938 0.502449 0.002746
v 0.083362 0.502449 0.002746
v 0.099765 0.505912 0.002336
v 0.054475 0.485886 0.004706
v 0.068042 0.495675 0.003548
v 0.034869 0.459088 0.007877
v 0.043254 0.473511 0.006170
v 0.043254 0.379863 0.017251
v 0.054475 0.367488 0.018715
v 0.027934 0.426687 0.011710
v 0.029687 0.410124 0.013670
v 0.034869 0.394286 0.015544
v 0.029687 0.443250 0.009751
vn -0.0000 0.1175 0.9931
vt 0.260033 0.824246
vt 0.252107 0.848772
vt 0.249426 0.874420
vt 0.290019 0.782746
vt 0.272857 0.801911
vt 0.334199 0.757098
vt 0.310768 0.767588
vt 0.384935 0.751736
vt 0.359287 0.751736
vt 0.433453 0.767588
vt 0.410022 0.757098
vt 0.471364 0.801911
vt 0.454203 0.782746
vt 0.492114 0.848772
vt 0.484188 0.824245
vt 0.492114 0.900068
vt 0.494795 0.874420
vt 0.471364 0.946930
vt 0.484188 0.924596
vt 0.433453 0.981253
vt 0.454203 0.966095
vt 0.384935 0.997105
vt 0.410022 0.991743
vt 0.334199 0.991743
vt 0.359287 0.997105
vt 0.290019 0.966095
vt 0.310769 0.981253
vt 0.260033 0.924596
vt 0.272857 0.946930
vt 0.252107 0.900068
s 0
usemtl cocky.007
f 589/240/246 590/241/246 591/242/246
f 592/243/246 593/244/246 589/240/246
f 595/245/246 596/246/246 592/243/246
f 595/245/246 592/243/246 589/240/246
f 601/247/246 602/248/246 595/245/246
f 604/249/246 605/250/246 601/247/246
f 604/249/246 601/247/246 595/245/246
f 604/249/246 595/245/246 589/240/246
f 613/251/246 614/252/246 604/249/246
f 616/253/246 617/254/246 613/251/246
f 616/253/246 613/251/246 604/249/246
f 618/255/246 615/256/246 616/253/246
f 612/257/246 611/258/246 618/255/246
f 612/257/246 618/255/246 616/253/246
f 612/257/246 616/253/246 604/249/246
f 610/259/246 609/260/246 612/257/246
f 608/261/246 607/262/246 610/259/246
f 608/261/246 610/259/246 612/257/246
f 606/263/246 603/264/246 608/261/246
f 600/265/246 599/266/246 606/263/246
f 600/265/246 606/263/246 608/261/246
f 600/265/246 608/261/246 612/257/246
f 600/265/246 612/257/246 604/249/246
f 600/265/246 604/249/246 589/240/246
f 598/267/246 597/268/246 600/265/246
f 598/267/246 600/265/246 589/240/246
f 598/267/246 589/240/246 591/242/246
f 598/267/246 591/242/246 594/269/246
o cervena_4svet
v -0.034842 0.209898 0.034930
v -0.029660 0.225736 0.033056
v -0.027907 0.242299 0.031096
v -0.054448 0.183100 0.038101
v -0.043227 0.195475 0.036637
v -0.029660 0.258862 0.029137
v -0.083335 0.166537 0.040061
v -0.068015 0.173311 0.039259
v -0.043227 0.289123 0.025556
v -0.034842 0.274700 0.027263
v -0.068015 0.311287 0.022933
v -0.054448 0.301498 0.024092
v -0.116508 0.163074 0.040470
v -0.099738 0.163074 0.040470
v -0.099738 0.321524 0.021722
v -0.148231 0.173311 0.039259
v -0.132911 0.166537 0.040061
v -0.083335 0.318061 0.022132
v -0.132911 0.318061 0.022132
v -0.116508 0.321524 0.021722
v -0.161798 0.301498 0.024092
v -0.148231 0.311287 0.022933
v -0.181404 0.274700 0.027263
v -0.173019 0.289123 0.025556
v -0.173019 0.195475 0.036637
v -0.161798 0.183100 0.038101
v -0.188339 0.242299 0.031096
v -0.186586 0.225736 0.033056
v -0.181404 0.209898 0.034930
v -0.186586 0.258862 0.029137
vn -0.0000 0.1175 0.9931
vt 0.511910 0.824246
vt 0.503984 0.848772
vt 0.501303 0.874420
vt 0.541896 0.782746
vt 0.524734 0.801911
vt 0.586076 0.757098
vt 0.562645 0.767588
vt 0.636811 0.751736
vt 0.611163 0.751736
vt 0.685330 0.767588
vt 0.661899 0.757098
vt 0.723241 0.801911
vt 0.706079 0.782746
vt 0.743991 0.848772
vt 0.736065 0.824245
vt 0.743991 0.900068
vt 0.746672 0.874420
vt 0.723241 0.946930
vt 0.736065 0.924596
vt 0.685330 0.981253
vt 0.706079 0.966095
vt 0.636812 0.997105
vt 0.661899 0.991743
vt 0.586076 0.991743
vt 0.611164 0.997105
vt 0.541896 0.966095
vt 0.562645 0.981253
vt 0.511910 0.924596
vt 0.524734 0.946930
vt 0.503984 0.900068
s 0
usemtl cocky.007
f 619/270/247 620/271/247 621/272/247
f 622/273/247 623/274/247 619/270/247
f 625/275/247 626/276/247 622/273/247
f 625/275/247 622/273/247 619/270/247
f 631/277/247 632/278/247 625/275/247
f 634/279/247 635/280/247 631/277/247
f 634/279/247 631/277/247 625/275/247
f 634/279/247 625/275/247 619/270/247
f 643/281/247 644/282/247 634/279/247
f 646/283/247 647/284/247 643/281/247
f 646/283/247 643/281/247 634/279/247
f 648/285/247 645/286/247 646/283/247
f 642/287/247 641/288/247 648/285/247
f 642/287/247 648/285/247 646/283/247
f 642/287/247 646/283/247 634/279/247
f 640/289/247 639/290/247 642/287/247
f 638/291/247 637/292/247 640/289/247
f 638/291/247 640/289/247 642/287/247
f 636/293/247 633/294/247 638/291/247
f 630/295/247 629/296/247 636/293/247
f 630/295/247 636/293/247 638/291/247
f 630/295/247 638/291/247 642/287/247
f 630/295/247 642/287/247 634/279/247
f 630/295/247 634/279/247 619/270/247
f 628/297/247 627/298/247 630/295/247
f 628/297/247 630/295/247 619/270/247
f 628/297/247 619/270/247 621/272/247
f 628/297/247 621/272/247 624/299/247
o bila_4svet
v 0.181431 0.209902 0.034922
v 0.186613 0.225740 0.033048
v 0.188366 0.242303 0.031089
v 0.161825 0.183103 0.038093
v 0.173046 0.195479 0.036629
v 0.186613 0.258866 0.029129
v 0.132938 0.166541 0.040053
v 0.148258 0.173315 0.039251
v 0.173046 0.289126 0.025548
v 0.181431 0.274704 0.027255
v 0.148258 0.311291 0.022926
v 0.161825 0.301502 0.024084
v 0.099765 0.163078 0.040463
v 0.116535 0.163078 0.040463
v 0.116535 0.321527 0.021715
v 0.068042 0.173315 0.039251
v 0.083362 0.166541 0.040053
v 0.132938 0.318065 0.022124
v 0.083362 0.318065 0.022124
v 0.099765 0.321527 0.021715
v 0.054475 0.301502 0.024084
v 0.068042 0.311291 0.022926
v 0.034869 0.274704 0.027255
v 0.043254 0.289126 0.025548
v 0.043254 0.195479 0.036629
v 0.054475 0.183103 0.038093
v 0.027934 0.242303 0.031089
v 0.029687 0.225740 0.033048
v 0.034869 0.209902 0.034922
v 0.029687 0.258866 0.029129
vn -0.0000 0.1175 0.9931
vt 0.761781 0.824246
vt 0.753855 0.848772
vt 0.751174 0.874420
vt 0.791767 0.782746
vt 0.774605 0.801911
vt 0.835947 0.757098
vt 0.812517 0.767588
vt 0.886683 0.751736
vt 0.861035 0.751736
vt 0.935201 0.767588
vt 0.911770 0.757098
vt 0.973112 0.801911
vt 0.955950 0.782746
vt 0.993862 0.848772
vt 0.985936 0.824245
vt 0.993862 0.900068
vt 0.996543 0.874420
vt 0.973112 0.946930
vt 0.985936 0.924596
vt 0.935201 0.981253
vt 0.955950 0.966095
vt 0.886683 0.997105
vt 0.911770 0.991743
vt 0.835947 0.991743
vt 0.861035 0.997105
vt 0.791767 0.966095
vt 0.812517 0.981253
vt 0.761781 0.924596
vt 0.774605 0.946930
vt 0.753855 0.900068
s 0
usemtl cocky.007
f 649/300/248 650/301/248 651/302/248
f 652/303/248 653/304/248 649/300/248
f 655/305/248 656/306/248 652/303/248
f 655/305/248 652/303/248 649/300/248
f 661/307/248 662/308/248 655/305/248
f 664/309/248 665/310/248 661/307/248
f 664/309/248 661/307/248 655/305/248
f 664/309/248 655/305/248 649/300/248
f 673/311/248 674/312/248 664/309/248
f 676/313/248 677/314/248 673/311/248
f 676/313/248 673/311/248 664/309/248
f 678/315/248 675/316/248 676/313/248
f 672/317/248 671/318/248 678/315/248
f 672/317/248 678/315/248 676/313/248
f 672/317/248 676/313/248 664/309/248
f 670/319/248 669/320/248 672/317/248
f 668/321/248 667/322/248 670/319/248
f 668/321/248 670/319/248 672/317/248
f 666/323/248 663/324/248 668/321/248
f 660/325/248 659/326/248 666/323/248
f 660/325/248 666/323/248 668/321/248
f 660/325/248 668/321/248 672/317/248
f 660/325/248 672/317/248 664/309/248
f 660/325/248 664/309/248 649/300/248
f 658/327/248 657/328/248 660/325/248
f 658/327/248 660/325/248 649/300/248
f 658/327/248 649/300/248 651/302/248
f 658/327/248 651/302/248 654/329/248
