# Blender 4.0.2
# www.blender.org
mtllib 1svet.mtl
o stit_1svet_S
v 0.184288 2.988092 0.335327
v -0.184288 2.879014 0.335451
v -0.184288 2.988092 0.335327
v 0.184288 2.879014 0.335451
v -0.095110 2.836620 0.335451
v 0.095110 2.836620 0.335451
v -0.184288 2.988092 0.335327
v 0.184288 2.879014 0.335451
v 0.184288 2.988092 0.335327
v -0.184288 2.879014 0.335451
v 0.095110 2.836620 0.335451
v -0.095110 2.836620 0.335451
v -0.092700 2.988524 0.332794
v 0.092700 2.988524 0.210924
v -0.092700 2.988524 0.210924
v 0.092700 2.988524 0.332794
v 0.034979 3.165334 0.334957
v -0.000000 3.172318 0.643895
v 0.034979 3.165334 0.643895
v -0.000000 3.172318 0.334957
v 0.064705 3.145496 0.334957
v 0.064705 3.145496 0.643895
v 0.084542 3.115832 0.334957
v 0.084542 3.115832 0.643895
v 0.091464 3.080792 0.334957
v 0.091464 3.080792 0.643895
v 0.084542 3.045504 0.334956
v 0.084542 3.045504 0.394223
v 0.064705 3.016087 0.334956
v 0.064705 3.015963 0.379638
v 0.034979 2.996249 0.334956
v 0.034979 2.996064 0.369873
v -0.000000 2.989266 0.334956
v -0.000000 2.989266 0.366413
v -0.034979 2.996249 0.334956
v -0.034979 2.996064 0.369873
v -0.064705 3.016087 0.334956
v -0.064705 3.015963 0.379638
v -0.084542 3.045504 0.334956
v -0.084542 3.045504 0.394223
v -0.091464 3.080792 0.334957
v -0.091464 3.080792 0.643895
v -0.084542 3.115832 0.334957
v -0.084542 3.115832 0.643895
v -0.064705 3.145496 0.334957
v -0.064705 3.145496 0.643895
v -0.034979 3.165334 0.334957
v -0.034979 3.165334 0.643895
v 0.095110 3.325767 0.334524
v -0.184288 3.282939 0.335204
v -0.095110 3.325767 0.334771
v 0.184288 3.282939 0.335204
v -0.184288 2.988092 0.335327
v 0.184288 2.988092 0.335327
v -0.095110 3.325767 0.334771
v 0.184288 3.282939 0.335204
v 0.095110 3.325767 0.334524
v -0.184288 3.282939 0.335204
v 0.184288 2.988092 0.335327
v -0.184288 2.988092 0.335327
v 0.092700 3.173430 0.210924
v 0.092700 2.988524 0.332794
v 0.092700 3.173430 0.332855
v 0.092700 2.988524 0.210924
v -0.092700 3.173430 0.332855
v -0.092700 2.988524 0.210924
v -0.092700 3.173430 0.210924
v -0.092700 2.988524 0.332794
v -0.092700 3.173430 0.332855
v 0.092700 3.173430 0.332855
vn -0.0000 0.0011 1.0000
vn -0.0000 -0.0000 1.0000
vn -0.0000 -0.0011 -1.0000
vn -0.0000 -0.0000 -1.0000
vn -0.0000 -1.0000 -0.0000
vn -0.1958 -0.9806 -0.0000
vn 0.1958 0.9806 -0.0000
vn -0.5551 -0.8318 -0.0000
vn 0.5551 0.8318 -0.0000
vn -0.8312 -0.5559 -0.0000
vn -0.8313 -0.5559 -0.0000
vn 0.8312 0.5559 -0.0000
vn 0.8313 0.5559 -0.0000
vn -0.9810 -0.1938 -0.0000
vn 0.9810 0.1938 -0.0000
vn -0.9813 0.1925 -0.0000
vn 0.9813 -0.1925 -0.0000
vn -0.8305 0.5570 0.0015
vn -0.8291 0.5591 -0.0000
vn 0.8291 -0.5591 -0.0015
vn 0.8302 -0.5575 -0.0000
vn -0.5573 0.8303 0.0044
vn -0.5551 0.8318 0.0023
vn 0.5551 -0.8318 -0.0044
vn 0.5568 -0.8306 -0.0023
vn -0.1908 0.9816 -0.0000
vn -0.1958 0.9806 0.0052
vn 0.1958 -0.9806 -0.0000
vn 0.1913 -0.9815 -0.0052
vn 0.1913 0.9815 0.0052
vn -0.1958 -0.9806 -0.0052
vn -0.1908 -0.9816 -0.0000
vn 0.5568 0.8306 0.0023
vn 0.5551 0.8318 0.0044
vn -0.5551 -0.8318 -0.0023
vn -0.5573 -0.8303 -0.0044
vn 0.8302 0.5575 -0.0000
vn 0.8291 0.5591 0.0015
vn -0.8291 -0.5591 -0.0000
vn -0.8305 -0.5570 -0.0015
vn 0.9813 0.1925 -0.0000
vn -0.9813 -0.1925 -0.0000
vn 0.9810 -0.1938 -0.0000
vn -0.9810 0.1938 -0.0000
vn 0.8313 -0.5559 -0.0000
vn 0.8312 -0.5559 -0.0000
vn -0.8313 0.5559 -0.0000
vn -0.8312 0.5559 -0.0000
vn 0.5551 -0.8318 -0.0000
vn -0.5551 0.8318 -0.0000
vn -0.1958 0.9806 -0.0000
vn 0.0013 0.0074 1.0000
vn -0.0000 0.0159 0.9999
vn -0.0000 0.0004 1.0000
vn -0.0013 -0.0186 -0.9998
vn -0.0000 -0.0101 -0.9999
vn -0.0000 -0.0004 -1.0000
vn 1.0000 -0.0000 -0.0000
vn -1.0000 -0.0000 -0.0000
vn -0.0000 1.0000 -0.0000
vt 0.412000 0.336000
vt 0.220000 0.279000
vt 0.220000 0.336000
vt 0.412000 0.279000
vt 0.263000 0.267000
vt 0.367000 0.267000
vt 0.212000 0.333000
vt 0.003000 0.279000
vt 0.003000 0.333000
vt 0.212000 0.279000
vt 0.052000 0.267000
vt 0.166000 0.267000
vt 0.533000 0.393000
vt 0.471000 0.440000
vt 0.533000 0.440000
vt 0.471000 0.393000
vt 0.411000 0.078000
vt 0.247000 0.081000
vt 0.247000 0.078000
vt 0.411000 0.081000
vt 0.411000 0.070000
vt 0.247000 0.070000
vt 0.411000 0.058000
vt 0.247000 0.058000
vt 0.411000 0.044000
vt 0.247000 0.044000
vt 0.411000 0.030000
vt 0.372000 0.030000
vt 0.411000 0.018000
vt 0.381000 0.018000
vt 0.411000 0.010000
vt 0.387000 0.010000
vt 0.411000 0.007000
vt 0.391000 0.007000
vt 0.367000 0.996000
vt 0.220000 0.984000
vt 0.263000 0.996000
vt 0.412000 0.984000
vt 0.220000 0.832000
vt 0.412000 0.832000
vt 0.166000 0.996000
vt 0.003000 0.984000
vt 0.052000 0.996000
vt 0.212000 0.984000
vt 0.003000 0.827000
vt 0.212000 0.827000
vt 0.471000 0.950000
vt 0.418000 0.863000
vt 0.418000 0.950000
vt 0.470000 0.863000
vt 0.590000 0.950000
vt 0.532000 0.863000
vt 0.533000 0.950000
vt 0.590000 0.863000
vt 0.533000 0.995000
vt 0.471000 0.995000
s 0
usemtl AZD_Nav_Stit
f 1/1/1 3/3/1 2/2/1
f 2/2/1 4/4/1 1/1/1
f 4/4/2 2/2/2 5/5/2
f 5/5/2 6/6/2 4/4/2
f 7/7/3 9/9/3 8/8/3
f 8/8/3 10/10/3 7/7/3
f 10/10/4 8/8/4 11/11/4
f 11/11/4 12/12/4 10/10/4
f 13/13/5 15/15/5 14/14/5
f 14/14/5 16/16/5 13/13/5
f 17/17/6 19/19/6 18/18/6
f 17/17/6 18/18/6 20/20/6
f 19/19/7 17/17/7 20/20/7
f 19/19/7 20/20/7 18/18/7
f 21/21/8 22/22/8 19/19/8
f 21/21/8 19/19/8 17/17/8
f 22/22/9 21/21/9 17/17/9
f 22/22/9 17/17/9 19/19/9
f 23/23/10 24/24/10 22/22/10
f 23/23/11 22/22/11 21/21/11
f 24/24/12 23/23/12 21/21/12
f 24/24/13 21/21/13 22/22/13
f 25/25/14 26/26/14 24/24/14
f 25/25/14 24/24/14 23/23/14
f 26/26/15 25/25/15 23/23/15
f 26/26/15 23/23/15 24/24/15
f 27/27/16 28/28/16 26/26/16
f 27/27/16 26/26/16 25/25/16
f 28/28/17 27/27/17 25/25/17
f 28/28/17 25/25/17 26/26/17
f 29/29/18 30/30/18 28/28/18
f 29/29/19 28/28/19 27/27/19
f 30/30/20 29/29/20 27/27/20
f 30/30/21 27/27/21 28/28/21
f 31/31/22 32/32/22 30/30/22
f 31/31/23 30/30/23 29/29/23
f 32/32/24 31/31/24 29/29/24
f 32/32/25 29/29/25 30/30/25
f 33/33/26 34/34/26 32/32/26
f 33/33/27 32/32/27 31/31/27
f 34/34/28 33/33/28 31/31/28
f 34/34/29 31/31/29 32/32/29
f 35/31/30 36/32/30 34/34/30
f 35/31/7 34/34/7 33/33/7
f 36/32/31 35/31/31 33/33/31
f 36/32/32 33/33/32 34/34/32
f 37/29/33 38/30/33 36/32/33
f 37/29/34 36/32/34 35/31/34
f 38/30/35 37/29/35 35/31/35
f 38/30/36 35/31/36 36/32/36
f 39/27/37 40/28/37 38/30/37
f 39/27/38 38/30/38 37/29/38
f 40/28/39 39/27/39 37/29/39
f 40/28/40 37/29/40 38/30/40
f 41/25/41 42/26/41 40/28/41
f 41/25/41 40/28/41 39/27/41
f 42/26/42 41/25/42 39/27/42
f 42/26/42 39/27/42 40/28/42
f 43/23/43 44/24/43 42/26/43
f 43/23/43 42/26/43 41/25/43
f 44/24/44 43/23/44 41/25/44
f 44/24/44 41/25/44 42/26/44
f 45/21/45 46/22/45 44/24/45
f 45/21/46 44/24/46 43/23/46
f 46/22/47 45/21/47 43/23/47
f 46/22/48 43/23/48 44/24/48
f 47/17/49 48/19/49 46/22/49
f 47/17/49 46/22/49 45/21/49
f 48/19/50 47/17/50 45/21/50
f 48/19/50 45/21/50 46/22/50
f 20/20/28 18/18/28 48/19/28
f 20/20/28 48/19/28 47/17/28
f 18/18/51 20/20/51 47/17/51
f 18/18/51 47/17/51 48/19/51
f 49/35/52 51/37/52 50/36/52
f 50/36/53 52/38/53 49/35/53
f 52/38/54 50/36/54 53/39/54
f 53/39/54 54/40/54 52/38/54
f 55/41/55 57/43/55 56/42/55
f 56/42/56 58/44/56 55/41/56
f 58/44/57 56/42/57 59/45/57
f 59/45/57 60/46/57 58/44/57
f 61/47/58 63/49/58 62/48/58
f 62/48/58 64/50/58 61/47/58
f 65/51/59 67/53/59 66/52/59
f 66/52/59 68/54/59 65/51/59
f 67/53/4 61/47/4 64/50/4
f 64/50/4 66/52/4 67/53/4
f 69/55/60 70/56/60 61/47/60
f 61/47/60 67/53/60 69/55/60
o stozar_1svet_S
v -0.011557 0.710267 -0.128544
v -0.011557 0.710267 0.128544
v 0.000000 0.663917 0.000000
v 0.011557 0.710267 -0.128544
v 0.000000 0.663917 0.000000
v 0.011557 0.710267 0.128544
v 0.011557 0.726892 -0.128544
v -0.011557 0.726892 -0.128544
v -0.011557 0.726892 0.128544
v 0.011557 0.726892 0.128544
v -0.036895 2.570757 0.137876
v -0.036895 1.116046 0.128544
v -0.036895 2.570757 0.128544
v -0.036895 1.116046 0.137876
v -0.036895 2.570757 0.128544
v 0.036895 1.116046 0.128544
v 0.036895 2.570757 0.128544
v -0.036895 1.116046 0.128544
v 0.036895 2.570757 0.128544
v 0.036895 1.116046 0.137876
v 0.036895 2.570757 0.137876
v 0.036895 1.116046 0.128544
v -0.011557 2.341726 -0.128544
v -0.011557 2.341726 0.128544
v 0.000000 2.295376 0.000000
v 0.011557 2.341726 -0.128544
v 0.000000 2.295376 0.000000
v 0.011557 2.341726 0.128544
v 0.011557 2.358350 -0.128544
v -0.011557 2.358350 -0.128544
v -0.011557 2.358350 0.128544
v 0.011557 2.358350 0.128544
v -0.011557 0.914207 -0.128544
v -0.011557 0.914207 0.128544
v 0.000000 0.867857 0.000000
v 0.011557 0.914207 -0.128544
v 0.000000 0.867857 0.000000
v 0.011557 0.914207 0.128544
v 0.011557 0.930832 -0.128544
v -0.011557 0.930832 -0.128544
v -0.011557 0.930832 0.128544
v 0.011557 0.930832 0.128544
v -0.021939 2.156140 0.054693
v -0.055991 2.143780 0.000000
v -0.055991 2.156140 0.000000
v -0.021939 2.143780 0.054693
v -0.021939 2.143780 -0.054693
v -0.021939 2.156140 -0.054693
v -0.084851 2.149960 -0.070081
v 0.084851 2.149960 -0.070081
v 0.021939 2.143780 -0.054693
v 0.021939 2.156140 -0.054693
v 0.055991 2.143780 0.000000
v 0.055991 2.156140 0.000000
v 0.021939 2.143780 0.054693
v 0.021939 2.156140 0.054693
v 0.058895 2.172146 -0.234654
v -0.084851 2.161331 -0.213333
v -0.058895 2.172146 -0.234654
v 0.084851 2.161331 -0.213333
v -0.011557 2.137662 -0.128544
v -0.011557 2.137662 0.128544
v 0.000000 2.091312 0.000000
v 0.011557 2.137662 -0.128544
v 0.000000 2.091312 0.000000
v 0.011557 2.137662 0.128544
v 0.011557 2.154348 -0.128544
v -0.011557 2.154348 -0.128544
v -0.011557 2.154348 0.128544
v 0.011557 2.154348 0.128544
v -0.011557 1.933722 -0.128544
v -0.011557 1.933722 0.128544
v 0.000000 1.887372 0.000000
v 0.011557 1.933722 -0.128544
v 0.000000 1.887372 0.000000
v 0.011557 1.933722 0.128544
v 0.011557 1.950408 -0.128544
v -0.011557 1.950408 -0.128544
v -0.011557 1.950408 0.128544
v 0.011557 1.950408 0.128544
v -0.011557 1.729782 -0.128544
v -0.011557 1.729782 0.128544
v 0.000000 1.683432 0.000000
v 0.011557 1.729782 -0.128544
v 0.000000 1.683432 0.000000
v 0.011557 1.729782 0.128544
v 0.011557 1.746468 -0.128544
v -0.011557 1.746468 -0.128544
v -0.011557 1.746468 0.128544
v 0.011557 1.746468 0.128544
v -0.011557 1.525842 -0.128544
v -0.011557 1.525842 0.128544
v 0.000000 1.479492 0.000000
v 0.011557 1.525842 -0.128544
v 0.000000 1.479492 0.000000
v 0.011557 1.525842 0.128544
v 0.011557 1.542528 -0.128544
v -0.011557 1.542528 -0.128544
v -0.011557 1.542528 0.128544
v 0.011557 1.542528 0.128544
v -0.011557 0.506142 -0.128544
v -0.011557 0.506142 0.128544
v 0.000000 0.459792 0.000000
v 0.011557 0.506142 -0.128544
v 0.000000 0.459792 0.000000
v 0.011557 0.506142 0.128544
v 0.011557 0.522828 -0.128544
v -0.011557 0.522828 -0.128544
v -0.011557 0.522828 0.128544
v 0.011557 0.522828 0.128544
v -0.011557 1.321902 -0.128544
v -0.011557 1.321902 0.128544
v 0.000000 1.275552 0.000000
v 0.011557 1.321902 -0.128544
v 0.000000 1.275552 0.000000
v 0.011557 1.321902 0.128544
v 0.011557 1.338588 -0.128544
v -0.011557 1.338588 -0.128544
v -0.011557 1.338588 0.128544
v 0.011557 1.338588 0.128544
v -0.011557 1.117962 -0.128544
v -0.011557 1.117962 0.128544
v 0.000000 1.071612 0.000000
v 0.011557 1.117962 -0.128544
v 0.000000 1.071612 0.000000
v 0.011557 1.117962 0.128544
v 0.011557 1.134648 -0.128544
v -0.011557 1.134648 -0.128544
v -0.011557 1.134648 0.128544
v 0.011557 1.134648 0.128544
v -0.011557 2.749420 -0.128544
v -0.011557 2.749420 0.128544
v 0.000000 2.703070 0.000000
v 0.011557 2.749420 -0.128544
v 0.000000 2.703070 0.000000
v 0.011557 2.749420 0.128544
v 0.011557 2.766045 -0.128544
v -0.011557 2.766045 -0.128544
v -0.011557 2.766045 0.128544
v 0.011557 2.766045 0.128544
v -0.011557 2.545480 -0.128544
v -0.011557 2.545480 0.128544
v 0.000000 2.499130 0.000000
v 0.011557 2.545480 -0.128544
v 0.000000 2.499130 0.000000
v 0.011557 2.545480 0.128544
v 0.011557 2.562105 -0.128544
v -0.011557 2.562105 -0.128544
v -0.011557 2.562105 0.128544
v 0.011557 2.562105 0.128544
v 0.077435 0.251032 0.000000
v 0.077435 0.251032 0.106049
v -0.077435 0.251032 0.106049
v -0.077435 0.251032 0.000000
v -0.077435 0.251032 -0.106049
v 0.077435 0.251032 -0.106049
v -0.077435 0.251032 -0.106049
v -0.077435 0.251032 0.106049
v -0.077435 0.063592 0.106049
v -0.077435 0.063592 -0.106049
v 0.077435 0.063592 -0.106049
v 0.077435 0.063592 0.106049
v 0.077435 0.251032 0.106049
v 0.077435 0.251032 -0.106049
v -0.053395 0.288050 0.025709
v -0.077435 0.270869 -0.025709
v -0.053395 0.288050 -0.025709
v -0.077435 0.270869 0.025709
v -0.053395 0.288050 -0.025709
v 0.077435 0.270869 -0.025709
v 0.053395 0.288050 -0.025709
v -0.077435 0.270869 -0.025709
v 0.053395 0.288050 -0.025709
v 0.077435 0.270869 0.025709
v 0.053395 0.288050 0.025709
v 0.077435 0.270869 -0.025709
v 0.053395 0.288050 0.025709
v -0.077435 0.270869 0.025709
v -0.053395 0.288050 0.025709
v 0.077435 0.270869 0.025709
v -0.052654 0.071317 0.093689
v -0.052654 0.024535 -0.076138
v -0.052654 0.071317 -0.093689
v -0.052654 0.024535 0.076138
v 0.052654 0.024535 -0.076138
v 0.052654 0.071317 -0.093689
v 0.052654 0.024535 0.076138
v 0.052654 0.071317 0.093689
v -0.077435 0.023360 -0.025709
v -0.077435 0.023360 0.025709
v 0.077435 0.023360 -0.025709
v -0.077435 0.023360 -0.025709
v 0.077435 0.023360 0.025709
v 0.077435 0.023360 -0.025709
v -0.077435 0.023360 0.025709
v 0.077435 0.023360 0.025709
v -0.077435 0.251032 -0.106049
v 0.077435 0.063592 -0.106049
v 0.077435 0.251032 -0.106049
v -0.077435 0.063592 -0.106049
v 0.077435 0.251032 0.106049
v -0.077435 0.063592 0.106049
v -0.077435 0.251032 0.106049
v 0.077435 0.063592 0.106049
v 0.077435 0.063592 -0.106049
v -0.077435 0.063592 0.106049
v 0.077435 0.063592 0.106049
v -0.077435 0.063592 -0.106049
v -0.088250 0.024720 0.076756
v -0.088250 0.012360 -0.076756
v -0.088250 0.024720 -0.076756
v -0.088250 0.012360 0.076756
v 0.088250 0.012360 -0.076756
v 0.088250 0.024720 -0.076756
v 0.088250 0.012360 0.076756
v 0.088250 0.024720 0.076756
v -0.109571 0.012360 0.134291
v -0.109571 0.000000 -0.134291
v -0.109571 0.012360 -0.134291
v -0.109571 -0.000000 0.134291
v 0.109571 0.000000 -0.134291
v 0.109571 0.012360 -0.134291
v 0.109571 -0.000000 0.134291
v 0.109571 0.012360 0.134291
v 0.021568 2.900892 -0.055681
v 0.048637 2.781803 -0.039057
v 0.048637 2.900892 -0.039057
v 0.021568 2.781803 -0.055681
v 0.062233 2.781803 -0.019776
v 0.062233 2.900892 -0.019776
v 0.062233 2.900892 -0.019776
v 0.055558 2.781803 0.047772
v 0.055558 2.900892 0.047772
v 0.062233 2.781803 -0.019776
v 0.055558 2.900892 0.047772
v -0.055620 2.781803 0.047772
v -0.055620 2.900892 0.047772
v 0.055558 2.781803 0.047772
v -0.055620 2.900892 0.047772
v -0.062294 2.781803 -0.019776
v -0.062294 2.900892 -0.019776
v -0.055620 2.781803 0.047772
v -0.062294 2.900892 -0.019776
v -0.048698 2.781803 -0.039057
v -0.048698 2.900892 -0.039057
v -0.062294 2.781803 -0.019776
v -0.021630 2.781803 -0.055681
v -0.021630 2.900892 -0.055681
v 0.048637 2.900892 -0.039057
v -0.048698 2.900892 -0.039057
v 0.021568 2.900892 -0.055681
v -0.021630 2.900892 -0.055681
v 0.048637 2.781803 -0.039057
v -0.048698 2.781803 -0.039057
v 0.021568 2.781803 -0.055681
v -0.021630 2.781803 -0.055681
v 0.024473 2.898173 0.026513
v 0.006736 2.917701 0.264504
v 0.024473 2.986979 0.264504
v 0.006736 2.781680 0.026513
v 0.039799 2.917701 0.264504
v 0.039799 2.986979 0.264504
v 0.039799 2.917701 0.330198
v 0.039799 2.986979 0.330198
v -0.039861 2.986979 0.330198
v -0.039861 2.917701 0.264504
v -0.039861 2.986979 0.264504
v -0.039861 2.917701 0.330198
v -0.006798 2.917701 0.264504
v -0.024596 2.986979 0.264504
v -0.006798 2.781680 0.026513
v -0.024596 2.898173 0.026513
v -0.024596 2.986979 0.264504
v 0.024473 2.898173 0.026513
v 0.024473 2.986979 0.264504
v -0.024596 2.898173 0.026513
v -0.006798 2.917701 0.264504
v 0.006736 2.781680 0.026513
v -0.006798 2.781680 0.026513
v 0.006736 2.917701 0.264504
v 0.000000 3.219780 0.000001
v -0.051047 3.207420 0.000001
v -0.036091 3.207420 -0.036152
v 0.000000 3.207420 -0.051108
v 0.036029 3.207420 -0.036152
v 0.050985 3.207420 0.000001
v 0.036029 3.207420 0.035968
v 0.000000 3.207420 0.050924
v -0.036091 3.207420 0.035968
v -0.030591 3.192588 -0.030652
v -0.051047 3.207420 0.000001
v -0.043260 3.192588 0.000001
v -0.036091 3.207420 -0.036152
v 0.000000 3.192588 -0.043321
v 0.000000 3.207420 -0.051108
v 0.030529 3.192588 -0.030652
v 0.036029 3.207420 -0.036152
v 0.043198 3.192588 0.000001
v 0.050985 3.207420 0.000001
v 0.030529 3.192588 0.030468
v 0.036029 3.207420 0.035968
v 0.000000 3.192588 0.043137
v 0.000000 3.207420 0.050924
v -0.030591 3.192588 0.030468
v -0.036091 3.207420 0.035968
v -0.030591 0.247200 -0.030653
v -0.043260 3.192588 0.000001
v -0.043260 0.247200 0.000000
v -0.030591 3.192588 -0.030652
v 0.000000 0.247200 -0.043322
v 0.000000 3.192588 -0.043321
v 0.030529 0.247200 -0.030653
v 0.030529 3.192588 -0.030652
v 0.043198 0.247200 0.000000
v 0.043198 3.192588 0.000001
v 0.030529 0.247200 0.030467
v 0.030529 3.192588 0.030468
v 0.000000 0.247200 0.043136
v 0.000000 3.192588 0.043137
v -0.030591 0.247200 0.030467
v -0.030591 3.192588 0.030468
vn -0.9703 -0.2419 -0.0000
vn 0.9703 -0.2419 -0.0000
vn -0.0000 -0.0000 1.0000
vn -0.0000 1.0000 -0.0000
vn -0.0000 -0.0000 -1.0000
vn -0.0000 -0.9407 -0.3392
vn -0.0000 -0.9407 0.3392
vn -1.0000 -0.0000 -0.0000
vn 1.0000 -0.0000 -0.0000
vn -0.0000 -1.0000 -0.0000
vn -0.8489 -0.0000 0.5285
vn -0.8489 -0.0000 -0.5285
vn -0.2376 -0.0000 0.9714
vn 0.2376 -0.0000 0.9714
vn 0.8489 -0.0000 -0.5285
vn 0.8489 -0.0000 0.5285
vn -0.0000 0.8918 0.4524
vn -0.0000 0.9280 -0.3727
vn -0.0000 -0.8918 -0.4524
vn -0.0000 -0.9969 -0.0791
vn -0.0000 -0.9280 -0.3727
vn -0.5814 0.8136 -0.0000
vn 0.5814 0.8136 -0.0000
vn -0.0000 -0.3513 -0.9363
vn -0.0000 -0.3513 0.9363
vn 0.5233 -0.0000 -0.8521
vn 0.8173 -0.0000 -0.5763
vn 0.9952 -0.0000 0.0983
vn -0.9952 -0.0000 0.0983
vn -0.8173 -0.0000 -0.5763
vn -0.5233 -0.0000 -0.8521
vn 0.9646 -0.2470 0.0922
vn 0.9850 -0.1500 0.0857
vn -0.9870 -0.1508 0.0563
vn -0.9589 -0.2464 0.1408
vn -0.0000 0.9369 -0.3496
vn -0.0000 -0.8682 0.4962
vn -0.2342 0.9673 -0.0969
vn -0.0970 0.9674 -0.2340
vn 0.0971 0.9674 -0.2340
vn 0.2345 0.9673 -0.0970
vn 0.2345 0.9672 0.0975
vn 0.0974 0.9672 0.2347
vn -0.0973 0.9672 0.2348
vn -0.2342 0.9673 0.0974
vn -0.8315 -0.4365 -0.3437
vn -0.8316 -0.4360 -0.3440
vn -0.3443 -0.4360 -0.8315
vn -0.3444 -0.4364 -0.8312
vn 0.3449 -0.4363 -0.8311
vn 0.3450 -0.4361 -0.8311
vn 0.8317 -0.4359 -0.3438
vn 0.8314 -0.4365 -0.3439
vn 0.8309 -0.4362 0.3455
vn 0.3449 -0.4361 0.8312
vn 0.3450 -0.4363 0.8310
vn -0.3443 -0.4364 0.8313
vn -0.3445 -0.4360 0.8314
vn -0.8309 -0.4362 0.3455
vn -0.9242 -0.0000 -0.3820
vn -0.3826 -0.0000 -0.9239
vn 0.3833 -0.0000 -0.9236
vn 0.9242 -0.0000 -0.3820
vn 0.9234 -0.0000 0.3840
vn 0.3833 -0.0000 0.9236
vn -0.3826 -0.0000 0.9239
vn -0.9234 -0.0000 0.3840
vt 0.820000 0.786000
vt 0.820000 0.583000
vt 0.843000 0.681000
vt 0.816000 0.782000
vt 0.839000 0.676000
vt 0.816000 0.579000
vt 0.801000 0.782000
vt 0.805000 0.786000
vt 0.805000 0.583000
vt 0.801000 0.579000
vt 0.596000 0.885000
vt 0.596000 0.218000
vt 0.946000 0.782000
vt 0.986000 0.276000
vt 0.986000 0.782000
vt 0.946000 0.276000
vt 0.635000 0.885000
vt 0.635000 0.218000
vt 0.507000 0.340000
vt 0.489000 0.330000
vt 0.491000 0.324000
vt 0.505000 0.346000
vt 0.472000 0.346000
vt 0.474000 0.340000
vt 0.469000 0.311000
vt 0.469000 0.390000
vt 0.472000 0.366000
vt 0.474000 0.360000
vt 0.489000 0.382000
vt 0.491000 0.376000
vt 0.505000 0.366000
vt 0.507000 0.360000
vt 0.418000 0.378000
vt 0.425000 0.311000
vt 0.418000 0.323000
vt 0.425000 0.390000
vt 0.822000 0.207000
vt 0.822000 0.012000
vt 0.640000 0.012000
vt 0.640000 0.207000
vt 0.011000 0.236000
vt 0.205000 0.232000
vt 0.203000 0.123000
vt 0.011000 0.125000
vt 0.134000 0.259000
vt 0.086000 0.249000
vt 0.086000 0.259000
vt 0.134000 0.249000
vt 0.810000 0.991000
vt 0.912000 0.979000
vt 0.904000 0.991000
vt 0.801000 0.979000
vt 0.086000 0.256000
vt 0.134000 0.257000
vt 0.644000 0.092000
vt 0.635000 0.057000
vt 0.635000 0.092000
vt 0.644000 0.057000
vt 0.823000 0.057000
vt 0.823000 0.092000
vt 0.814000 0.057000
vt 0.814000 0.092000
vt 0.082000 0.088000
vt 0.130000 0.088000
vt 0.912000 0.852000
vt 0.801000 0.852000
vt 0.927000 0.960000
vt 0.801000 0.791000
vt 0.801000 0.960000
vt 0.927000 0.791000
vt 0.507000 0.305000
vt 0.417000 0.210000
vt 0.507000 0.210000
vt 0.417000 0.305000
vt 0.592000 0.043000
vt 0.443000 0.043000
vt 0.443000 0.162000
vt 0.592000 0.162000
vt 0.621000 0.003000
vt 0.420000 0.003000
vt 0.420000 0.205000
vt 0.621000 0.205000
vt 0.035000 0.064000
vt 0.022000 0.016000
vt 0.022000 0.061000
vt 0.035000 0.019000
vt 0.008000 0.012000
vt 0.008000 0.057000
vt 0.917000 0.457000
vt 0.849000 0.475000
vt 0.908000 0.492000
vt 0.857000 0.442000
vt 0.911000 0.473000
vt 0.836000 0.473000
vt 0.902000 0.496000
vt 0.845000 0.449000
vt 0.075000 0.057000
vt 0.062000 0.016000
vt 0.062000 0.061000
vt 0.075000 0.012000
vt 0.048000 0.019000
vt 0.048000 0.064000
vt 0.918000 0.452000
vt 0.920000 0.447000
vt 0.859000 0.436000
vt 0.860000 0.431000
vt 0.907000 0.487000
vt 0.864000 0.670000
vt 0.908000 0.680000
vt 0.842000 0.468000
vt 0.858000 0.698000
vt 0.903000 0.708000
vt 0.908000 0.669000
vt 0.890000 0.516000
vt 0.892000 0.669000
vt 0.906000 0.516000
vt 0.860000 0.663000
vt 0.844000 0.499000
vt 0.838000 0.499000
vt 0.867000 0.662000
vt 0.103000 0.044000
vt 0.102000 0.055000
vt 0.093000 0.052000
vt 0.091000 0.043000
vt 0.095000 0.036000
vt 0.102000 0.033000
vt 0.110000 0.037000
vt 0.112000 0.044000
vt 0.109000 0.052000
vt 0.103000 0.009000
vt 0.126000 0.060000
vt 0.126000 0.010000
vt 0.099000 0.059000
vt 0.094000 0.007000
vt 0.088000 0.057000
vt 0.149000 0.009000
vt 0.154000 0.059000
vt 0.159000 0.007000
vt 0.165000 0.057000
vt 0.946000 0.006000
vt 0.965000 0.996000
vt 0.965000 0.006000
vt 0.946000 0.996000
vt 0.938000 0.006000
vt 0.938000 0.996000
vt 0.985000 0.006000
vt 0.985000 0.996000
vt 0.993000 0.006000
vt 0.993000 0.996000
s 0
usemtl AZD_Nav
f 71/57/61 73/59/61 72/58/61
f 74/60/62 76/62/62 75/61/62
f 77/63/63 78/64/63 71/57/63
f 71/57/63 74/60/63 77/63/63
f 71/57/64 72/58/64 74/60/64
f 72/58/64 76/62/64 74/60/64
f 76/62/65 72/58/65 79/65/65
f 71/57/66 74/60/66 73/59/66
f 75/61/67 76/62/67 72/58/67
f 76/62/63 80/66/63 79/65/63
f 81/67/68 83/67/68 82/68/68
f 82/68/68 84/68/68 81/67/68
f 85/69/65 87/71/65 86/70/65
f 86/70/65 88/72/65 85/69/65
f 89/73/69 91/73/69 90/74/69
f 90/74/69 92/74/69 89/73/69
f 91/73/63 81/67/63 84/68/63
f 84/68/63 90/74/63 91/73/63
f 89/73/64 83/67/64 81/67/64
f 81/67/64 91/73/64 89/73/64
f 92/74/70 90/74/70 84/68/70
f 84/68/70 82/68/70 92/74/70
f 93/57/61 95/59/61 94/58/61
f 96/60/62 98/62/62 97/61/62
f 93/57/63 96/60/63 99/63/63
f 96/60/64 93/57/64 94/58/64
f 94/58/64 98/62/64 96/60/64
f 98/62/65 94/58/65 101/65/65
f 101/65/65 102/66/65 98/62/65
f 93/57/65 100/64/65 99/63/65
f 95/59/66 93/57/66 96/60/66
f 97/61/67 98/62/67 94/58/67
f 103/57/61 105/59/61 104/58/61
f 106/60/62 108/62/62 107/61/62
f 106/60/64 103/57/64 104/58/64
f 104/58/64 108/62/64 106/60/64
f 108/62/65 104/58/65 111/65/65
f 109/63/65 106/60/65 103/57/65
f 103/57/65 110/64/65 109/63/65
f 105/59/66 103/57/66 106/60/66
f 107/61/67 108/62/67 104/58/67
f 108/62/63 112/66/63 111/65/63
f 113/75/71 115/77/71 114/76/71
f 114/76/71 116/78/71 113/75/71
f 115/77/72 118/80/72 117/79/72
f 117/79/72 114/76/72 115/77/72
f 119/81/73 117/79/73 118/80/73
f 120/82/74 122/84/74 121/83/74
f 122/84/75 124/86/75 123/85/75
f 123/85/75 121/83/75 122/84/75
f 124/86/76 126/88/76 125/87/76
f 125/87/76 123/85/76 124/86/76
f 126/88/63 113/75/63 116/78/63
f 116/78/63 125/87/63 126/88/63
f 127/89/77 129/91/77 128/90/77
f 120/82/78 119/81/78 118/80/78
f 118/80/78 122/84/78 120/82/78
f 122/84/64 118/80/64 115/77/64
f 115/77/64 124/86/64 122/84/64
f 124/86/64 115/77/64 113/75/64
f 113/75/64 126/88/64 124/86/64
f 127/89/79 130/92/79 128/90/79
f 130/92/80 120/82/80 119/81/80
f 119/81/80 128/90/80 130/92/80
f 120/82/81 121/83/81 117/79/81
f 117/79/81 119/81/81 120/82/81
f 121/83/70 123/85/70 114/76/70
f 114/76/70 117/79/70 121/83/70
f 123/85/70 125/87/70 116/78/70
f 116/78/70 114/76/70 123/85/70
f 131/57/61 133/59/61 132/58/61
f 134/60/62 136/62/62 135/61/62
f 131/57/63 134/60/63 137/63/63
f 134/60/64 131/57/64 132/58/64
f 132/58/64 136/62/64 134/60/64
f 136/62/65 132/58/65 139/65/65
f 139/65/65 140/66/65 136/62/65
f 131/57/65 138/64/65 137/63/65
f 133/59/66 131/57/66 134/60/66
f 135/61/67 136/62/67 132/58/67
f 141/57/61 143/59/61 142/58/61
f 144/60/62 146/62/62 145/61/62
f 144/60/64 141/57/64 142/58/64
f 142/58/64 146/62/64 144/60/64
f 146/62/65 142/58/65 149/65/65
f 149/65/65 150/66/65 146/62/65
f 147/63/65 144/60/65 141/57/65
f 141/57/65 148/64/65 147/63/65
f 143/59/66 141/57/66 144/60/66
f 145/61/67 146/62/67 142/58/67
f 151/57/61 153/59/61 152/58/61
f 154/60/62 156/62/62 155/61/62
f 151/57/63 154/60/63 157/63/63
f 154/60/64 151/57/64 152/58/64
f 152/58/64 156/62/64 154/60/64
f 156/62/65 152/58/65 159/65/65
f 159/65/65 160/66/65 156/62/65
f 151/57/65 158/64/65 157/63/65
f 153/59/66 151/57/66 154/60/66
f 155/61/67 156/62/67 152/58/67
f 161/57/61 163/59/61 162/58/61
f 164/60/62 166/62/62 165/61/62
f 161/57/63 164/60/63 167/63/63
f 164/60/64 161/57/64 162/58/64
f 162/58/64 166/62/64 164/60/64
f 166/62/65 162/58/65 169/65/65
f 169/65/65 170/66/65 166/62/65
f 161/57/65 168/64/65 167/63/65
f 163/59/66 161/57/66 164/60/66
f 165/61/67 166/62/67 162/58/67
f 171/57/61 173/59/61 172/58/61
f 174/60/62 176/62/62 175/61/62
f 174/60/64 171/57/64 172/58/64
f 172/58/64 176/62/64 174/60/64
f 176/62/65 172/58/65 179/65/65
f 177/63/65 174/60/65 171/57/65
f 171/57/65 178/64/65 177/63/65
f 173/59/66 171/57/66 174/60/66
f 175/61/67 176/62/67 172/58/67
f 176/62/63 180/66/63 179/65/63
f 181/57/61 183/59/61 182/58/61
f 184/60/62 186/62/62 185/61/62
f 184/60/64 181/57/64 182/58/64
f 182/58/64 186/62/64 184/60/64
f 186/62/65 182/58/65 189/65/65
f 189/65/65 190/66/65 186/62/65
f 187/63/65 184/60/65 181/57/65
f 181/57/65 188/64/65 187/63/65
f 183/59/66 181/57/66 184/60/66
f 185/61/67 186/62/67 182/58/67
f 191/57/61 193/59/61 192/58/61
f 194/60/62 196/62/62 195/61/62
f 191/57/63 194/60/63 197/63/63
f 194/60/64 191/57/64 192/58/64
f 192/58/64 196/62/64 194/60/64
f 196/62/65 192/58/65 199/65/65
f 199/65/65 200/66/65 196/62/65
f 191/57/65 198/64/65 197/63/65
f 193/59/66 191/57/66 194/60/66
f 195/61/67 196/62/67 192/58/67
f 201/57/61 203/59/61 202/58/61
f 204/60/62 206/62/62 205/61/62
f 201/57/63 204/60/63 207/63/63
f 204/60/64 201/57/64 202/58/64
f 202/58/64 206/62/64 204/60/64
f 206/62/65 202/58/65 209/65/65
f 209/65/65 210/66/65 206/62/65
f 201/57/65 208/64/65 207/63/65
f 203/59/66 201/57/66 204/60/66
f 205/61/67 206/62/67 202/58/67
f 211/57/61 213/59/61 212/58/61
f 214/60/62 216/62/62 215/61/62
f 211/57/63 214/60/63 217/63/63
f 214/60/64 211/57/64 212/58/64
f 212/58/64 216/62/64 214/60/64
f 216/62/65 212/58/65 219/65/65
f 219/65/65 220/66/65 216/62/65
f 211/57/65 218/64/65 217/63/65
f 213/59/66 211/57/66 214/60/66
f 215/61/67 216/62/67 212/58/67
f 221/93/64 223/95/64 222/94/64
f 221/93/64 224/96/64 223/95/64
f 225/95/64 221/93/64 226/94/64
f 225/95/64 224/96/64 221/93/64
f 227/97/68 229/99/68 228/98/68
f 227/97/68 230/100/68 229/99/68
f 231/100/69 233/98/69 232/99/69
f 231/100/69 234/97/69 233/98/69
f 235/101/82 237/103/82 236/102/82
f 236/102/82 238/104/82 235/101/82
f 239/105/65 241/107/65 240/106/65
f 240/106/65 242/108/65 239/105/65
f 243/109/83 245/110/83 244/104/83
f 244/104/83 246/102/83 243/109/83
f 247/107/63 249/105/63 248/108/63
f 248/108/63 250/106/63 247/107/63
f 251/111/68 253/113/68 252/112/68
f 252/112/68 254/114/68 251/111/68
f 253/113/84 256/116/84 255/115/84
f 255/115/84 252/112/84 253/113/84
f 256/116/69 258/118/69 257/117/69
f 257/117/69 255/115/69 256/116/69
f 258/118/85 251/111/85 254/114/85
f 254/114/85 257/117/85 258/118/85
f 238/104/68 236/102/68 259/119/68
f 259/119/68 260/120/68 238/104/68
f 242/108/65 240/106/65 261/121/65
f 261/121/65 262/122/65 242/108/65
f 246/102/69 244/104/69 263/120/69
f 263/120/69 264/119/69 246/102/69
f 250/106/63 248/108/63 265/122/63
f 265/122/63 266/121/63 250/106/63
f 243/109/64 237/103/64 235/101/64
f 235/101/64 245/110/64 243/109/64
f 267/123/65 269/125/65 268/124/65
f 268/124/65 270/126/65 267/123/65
f 271/123/63 273/125/63 272/124/63
f 272/124/63 274/126/63 271/123/63
f 275/127/70 277/129/70 276/128/70
f 276/128/70 278/130/70 275/127/70
f 279/131/68 281/132/68 280/132/68
f 280/132/68 282/131/68 279/131/68
f 281/132/65 284/133/65 283/133/65
f 283/133/65 280/132/65 281/132/65
f 284/133/69 286/134/69 285/134/69
f 285/134/69 283/133/69 284/133/69
f 286/134/63 279/131/63 282/131/63
f 282/131/63 285/134/63 286/134/63
f 284/133/64 281/132/64 279/131/64
f 279/131/64 286/134/64 284/133/64
f 287/135/68 289/136/68 288/136/68
f 288/136/68 290/135/68 287/135/68
f 289/136/65 292/137/65 291/137/65
f 291/137/65 288/136/65 289/136/65
f 292/137/69 294/138/69 293/138/69
f 293/138/69 291/137/69 292/137/69
f 294/138/63 287/135/63 290/135/63
f 290/135/63 293/138/63 294/138/63
f 292/137/64 289/136/64 287/135/64
f 287/135/64 294/138/64 292/137/64
f 295/139/86 297/141/86 296/140/86
f 296/140/86 298/142/86 295/139/86
f 297/141/87 300/144/87 299/143/87
f 299/143/87 296/140/87 297/141/87
f 301/145/88 303/147/88 302/146/88
f 302/146/88 304/148/88 301/145/88
f 305/149/63 307/151/63 306/150/63
f 306/150/63 308/152/63 305/149/63
f 309/147/89 311/145/89 310/148/89
f 310/148/89 312/146/89 309/147/89
f 313/153/90 315/155/90 314/154/90
f 314/154/90 316/156/90 313/153/90
f 315/155/91 318/158/91 317/157/91
f 317/157/91 314/154/91 315/155/91
f 318/158/65 295/139/65 298/142/65
f 298/142/65 317/157/65 318/158/65
f 309/147/64 303/147/64 301/145/64
f 301/145/64 311/145/64 309/147/64
f 311/145/64 301/145/64 319/159/64
f 319/159/64 320/159/64 311/145/64
f 320/159/64 319/159/64 321/160/64
f 321/160/64 322/160/64 320/159/64
f 312/146/70 310/148/70 304/148/70
f 304/148/70 302/146/70 312/146/70
f 310/148/70 324/161/70 323/161/70
f 323/161/70 304/148/70 310/148/70
f 324/161/70 326/162/70 325/162/70
f 325/162/70 323/161/70 324/161/70
f 327/163/92 329/165/92 328/164/92
f 328/164/93 330/166/93 327/163/93
f 329/165/65 332/165/65 331/164/65
f 331/164/65 328/164/65 329/165/65
f 332/165/69 334/168/69 333/167/69
f 333/167/69 331/164/69 332/165/69
f 335/168/68 337/165/68 336/164/68
f 336/164/68 338/167/68 335/168/68
f 337/165/65 340/165/65 339/164/65
f 339/164/65 336/164/65 337/165/65
f 340/165/94 342/163/94 341/166/94
f 341/166/95 339/164/95 340/165/95
f 343/169/96 345/171/96 344/170/96
f 344/170/96 346/172/96 343/169/96
f 338/167/70 336/164/70 331/164/70
f 331/164/70 333/167/70 338/167/70
f 347/173/97 349/175/97 348/174/97
f 348/174/97 350/176/97 347/173/97
f 351/177/98 353/179/98 352/178/98
f 351/177/99 354/180/99 353/179/99
f 351/177/100 355/181/100 354/180/100
f 351/177/101 356/182/101 355/181/101
f 351/177/102 357/183/102 356/182/102
f 351/177/103 358/184/103 357/183/103
f 351/177/104 359/185/104 358/184/104
f 351/177/105 352/178/105 359/185/105
f 360/186/106 362/188/106 361/187/106
f 360/186/107 361/187/107 363/189/107
f 364/190/108 360/186/108 363/189/108
f 364/190/109 363/189/109 365/191/109
f 366/186/110 364/190/110 365/191/110
f 366/186/111 365/191/111 367/189/111
f 368/188/112 366/186/112 367/189/112
f 368/188/113 367/189/113 369/187/113
f 370/192/114 368/188/114 369/187/114
f 370/192/114 369/187/114 371/193/114
f 372/194/115 370/192/115 371/193/115
f 372/194/116 371/193/116 373/195/116
f 374/192/117 372/194/117 373/195/117
f 374/192/118 373/195/118 375/193/118
f 362/188/119 374/192/119 375/193/119
f 362/188/119 375/193/119 361/187/119
f 376/196/120 378/198/120 377/197/120
f 376/196/120 377/197/120 379/199/120
f 380/200/121 376/196/121 379/199/121
f 380/200/121 379/199/121 381/201/121
f 382/196/122 380/200/122 381/201/122
f 382/196/122 381/201/122 383/199/122
f 384/198/123 382/196/123 383/199/123
f 384/198/123 383/199/123 385/197/123
f 386/202/124 384/198/124 385/197/124
f 386/202/124 385/197/124 387/203/124
f 388/204/125 386/202/125 387/203/125
f 388/204/125 387/203/125 389/205/125
f 390/202/126 388/204/126 389/205/126
f 390/202/126 389/205/126 391/203/126
f 378/198/127 390/202/127 391/203/127
f 378/198/127 391/203/127 377/197/127
o cervena_1svet_S
v 0.073281 3.048133 0.341755
v 0.078463 3.064082 0.341755
v 0.080216 3.080760 0.341754
v 0.053675 3.021148 0.341755
v 0.064896 3.033610 0.341755
v 0.078463 3.097439 0.341754
v 0.024788 3.004470 0.341755
v 0.040108 3.011291 0.341755
v 0.064896 3.127911 0.341754
v 0.073281 3.113388 0.341754
v 0.040108 3.150230 0.341754
v 0.053675 3.140373 0.341754
v -0.008385 3.000983 0.341755
v 0.008385 3.000983 0.341755
v 0.008385 3.160538 0.341754
v -0.040108 3.011291 0.341755
v -0.024788 3.004470 0.341755
v 0.024788 3.157051 0.341754
v -0.024788 3.157051 0.341754
v -0.008385 3.160538 0.341754
v -0.053675 3.140373 0.341754
v -0.040108 3.150230 0.341754
v -0.073281 3.113388 0.341754
v -0.064896 3.127911 0.341754
v -0.064896 3.033610 0.341755
v -0.053675 3.021148 0.341755
v -0.080216 3.080760 0.341754
v -0.078463 3.064082 0.341755
v -0.073281 3.048133 0.341755
v -0.078463 3.097439 0.341754
vn -0.0000 -0.0000 1.0000
vt 0.511910 0.824246
vt 0.503984 0.848772
vt 0.501303 0.874420
vt 0.541896 0.782746
vt 0.524734 0.801911
vt 0.586076 0.757098
vt 0.562645 0.767588
vt 0.636811 0.751736
vt 0.611163 0.751736
vt 0.685330 0.767588
vt 0.661899 0.757098
vt 0.723241 0.801911
vt 0.706079 0.782746
vt 0.743991 0.848772
vt 0.736065 0.824245
vt 0.743991 0.900068
vt 0.746672 0.874420
vt 0.723241 0.946930
vt 0.736065 0.924596
vt 0.685330 0.981253
vt 0.706079 0.966095
vt 0.636812 0.997105
vt 0.661899 0.991743
vt 0.586076 0.991743
vt 0.611164 0.997105
vt 0.541896 0.966095
vt 0.562645 0.981253
vt 0.511910 0.924596
vt 0.524734 0.946930
vt 0.503984 0.900068
s 0
usemtl cocky
f 392/206/128 393/207/128 394/208/128
f 395/209/128 396/210/128 392/206/128
f 398/211/128 399/212/128 395/209/128
f 398/211/128 395/209/128 392/206/128
f 404/213/128 405/214/128 398/211/128
f 407/215/128 408/216/128 404/213/128
f 407/215/128 404/213/128 398/211/128
f 407/215/128 398/211/128 392/206/128
f 416/217/128 417/218/128 407/215/128
f 419/219/128 420/220/128 416/217/128
f 419/219/128 416/217/128 407/215/128
f 421/221/128 418/222/128 419/219/128
f 415/223/128 414/224/128 421/221/128
f 415/223/128 421/221/128 419/219/128
f 415/223/128 419/219/128 407/215/128
f 413/225/128 412/226/128 415/223/128
f 411/227/128 410/228/128 413/225/128
f 411/227/128 413/225/128 415/223/128
f 409/229/128 406/230/128 411/227/128
f 403/231/128 402/232/128 409/229/128
f 403/231/128 409/229/128 411/227/128
f 403/231/128 411/227/128 415/223/128
f 403/231/128 415/223/128 407/215/128
f 403/231/128 407/215/128 392/206/128
f 401/233/128 400/234/128 403/231/128
f 401/233/128 403/231/128 392/206/128
f 401/233/128 392/206/128 394/208/128
f 401/233/128 394/208/128 397/235/128
