# Blender 4.0.2
# www.blender.org
mtllib 2svetTse.mtl
o modra_2svet_se
v 0.073281 0.202478 0.047927
v 0.078463 0.218316 0.046053
v 0.080216 0.234879 0.044094
v 0.053675 0.175679 0.051098
v 0.064896 0.188055 0.049634
v 0.078463 0.251441 0.042134
v 0.024788 0.159117 0.053058
v 0.040108 0.165890 0.052256
v 0.064896 0.281702 0.038553
v 0.073281 0.267280 0.040260
v 0.040108 0.303867 0.035931
v 0.053675 0.294078 0.037089
v -0.008385 0.155654 0.053468
v 0.008385 0.155654 0.053468
v 0.008385 0.314103 0.034720
v -0.040108 0.165890 0.052256
v -0.024788 0.159117 0.053058
v 0.024788 0.310641 0.035129
v -0.024788 0.310641 0.035129
v -0.008385 0.314103 0.034720
v -0.053675 0.294078 0.037089
v -0.040108 0.303867 0.035931
v -0.073281 0.267280 0.040260
v -0.064896 0.281702 0.038553
v -0.064896 0.188055 0.049634
v -0.053675 0.175679 0.051098
v -0.080216 0.234879 0.044094
v -0.078463 0.218316 0.046053
v -0.073281 0.202478 0.047927
v -0.078463 0.251441 0.042134
vn -0.0000 0.1175 0.9931
vt 0.261343 0.323378
vt 0.253417 0.347905
vt 0.250736 0.373553
vt 0.291329 0.281879
vt 0.274167 0.301044
vt 0.335509 0.256231
vt 0.312079 0.266720
vt 0.386245 0.250869
vt 0.360597 0.250869
vt 0.434763 0.266720
vt 0.411332 0.256231
vt 0.472674 0.301044
vt 0.455513 0.281879
vt 0.493424 0.347905
vt 0.485498 0.323378
vt 0.493424 0.399201
vt 0.496105 0.373553
vt 0.472674 0.446062
vt 0.485498 0.423728
vt 0.434763 0.480386
vt 0.455513 0.465227
vt 0.386245 0.496237
vt 0.411332 0.490875
vt 0.335509 0.490875
vt 0.360597 0.496237
vt 0.291329 0.465227
vt 0.312079 0.480386
vt 0.261343 0.423728
vt 0.274167 0.446062
vt 0.253417 0.399201
s 0
usemtl cocky.002
f 1/1/1 2/2/1 3/3/1
f 4/4/1 5/5/1 1/1/1
f 7/6/1 8/7/1 4/4/1
f 7/6/1 4/4/1 1/1/1
f 13/8/1 14/9/1 7/6/1
f 16/10/1 17/11/1 13/8/1
f 16/10/1 13/8/1 7/6/1
f 16/10/1 7/6/1 1/1/1
f 25/12/1 26/13/1 16/10/1
f 28/14/1 29/15/1 25/12/1
f 28/14/1 25/12/1 16/10/1
f 30/16/1 27/17/1 28/14/1
f 24/18/1 23/19/1 30/16/1
f 24/18/1 30/16/1 28/14/1
f 24/18/1 28/14/1 16/10/1
f 22/20/1 21/21/1 24/18/1
f 20/22/1 19/23/1 22/20/1
f 20/22/1 22/20/1 24/18/1
f 18/24/1 15/25/1 20/22/1
f 12/26/1 11/27/1 18/24/1
f 12/26/1 18/24/1 20/22/1
f 12/26/1 20/22/1 24/18/1
f 12/26/1 24/18/1 16/10/1
f 12/26/1 16/10/1 1/1/1
f 10/28/1 9/29/1 12/26/1
f 10/28/1 12/26/1 1/1/1
f 10/28/1 1/1/1 3/3/1
f 10/28/1 3/3/1 6/30/1
o bila_2svet_se
v 0.073281 0.386846 0.028549
v 0.078463 0.402685 0.026675
v 0.080216 0.419247 0.024716
v 0.053675 0.360048 0.031720
v 0.064896 0.372424 0.030256
v 0.078463 0.435810 0.022756
v 0.024788 0.343485 0.033680
v 0.040108 0.350259 0.032878
v 0.064896 0.466071 0.019175
v 0.073281 0.451648 0.020882
v 0.040108 0.488236 0.016553
v 0.053675 0.478447 0.017711
v -0.008385 0.340023 0.034090
v 0.008385 0.340023 0.034090
v 0.008385 0.498472 0.015341
v -0.040108 0.350259 0.032878
v -0.024788 0.343485 0.033680
v 0.024788 0.495009 0.015751
v -0.024788 0.495009 0.015751
v -0.008385 0.498472 0.015341
v -0.053675 0.478447 0.017711
v -0.040108 0.488236 0.016553
v -0.073281 0.451648 0.020882
v -0.064896 0.466071 0.019175
v -0.064896 0.372424 0.030256
v -0.053675 0.360048 0.031720
v -0.080216 0.419247 0.024716
v -0.078463 0.402685 0.026675
v -0.073281 0.386846 0.028549
v -0.078463 0.435810 0.022756
vn -0.0000 0.1175 0.9931
vt 0.761781 0.824246
vt 0.753855 0.848772
vt 0.751174 0.874420
vt 0.791767 0.782746
vt 0.774605 0.801911
vt 0.835947 0.757098
vt 0.812517 0.767588
vt 0.886683 0.751736
vt 0.861035 0.751736
vt 0.935201 0.767588
vt 0.911770 0.757098
vt 0.973112 0.801911
vt 0.955950 0.782746
vt 0.993862 0.848772
vt 0.985936 0.824245
vt 0.993862 0.900068
vt 0.996543 0.874420
vt 0.973112 0.946930
vt 0.985936 0.924596
vt 0.935201 0.981253
vt 0.955950 0.966095
vt 0.886683 0.997105
vt 0.911770 0.991743
vt 0.835947 0.991743
vt 0.861035 0.997105
vt 0.791767 0.966095
vt 0.812517 0.981253
vt 0.761781 0.924596
vt 0.774605 0.946930
vt 0.753855 0.900068
s 0
usemtl cocky.002
f 31/31/2 32/32/2 33/33/2
f 34/34/2 35/35/2 31/31/2
f 37/36/2 38/37/2 34/34/2
f 37/36/2 34/34/2 31/31/2
f 43/38/2 44/39/2 37/36/2
f 46/40/2 47/41/2 43/38/2
f 46/40/2 43/38/2 37/36/2
f 46/40/2 37/36/2 31/31/2
f 55/42/2 56/43/2 46/40/2
f 58/44/2 59/45/2 55/42/2
f 58/44/2 55/42/2 46/40/2
f 60/46/2 57/47/2 58/44/2
f 54/48/2 53/49/2 60/46/2
f 54/48/2 60/46/2 58/44/2
f 54/48/2 58/44/2 46/40/2
f 52/50/2 51/51/2 54/48/2
f 50/52/2 49/53/2 52/50/2
f 50/52/2 52/50/2 54/48/2
f 48/54/2 45/55/2 50/52/2
f 42/56/2 41/57/2 48/54/2
f 42/56/2 48/54/2 50/52/2
f 42/56/2 50/52/2 54/48/2
f 42/56/2 54/48/2 46/40/2
f 42/56/2 46/40/2 31/31/2
f 40/58/2 39/59/2 42/56/2
f 40/58/2 42/56/2 31/31/2
f 40/58/2 31/31/2 33/33/2
f 40/58/2 33/33/2 36/60/2
o stit_2svet
v -0.106296 0.141500 0.055744
v -0.106296 0.085880 -0.030900
v -0.106296 0.130685 -0.030900
v -0.106296 0.085880 0.055744
v -0.106296 0.130685 -0.030900
v 0.106667 0.085880 -0.030900
v 0.106667 0.130685 -0.030900
v -0.106296 0.085880 -0.030900
v 0.106667 0.130685 -0.030900
v 0.106667 0.085880 0.055744
v 0.106667 0.141500 0.055744
v 0.106667 0.085880 -0.030900
v 0.106667 0.141500 0.055744
v -0.106296 0.085880 0.055744
v -0.106296 0.141500 0.055744
v 0.106667 0.085880 0.055744
v 0.106667 0.130685 -0.030900
v -0.106296 0.141500 0.055744
v -0.106296 0.130685 -0.030900
v 0.106667 0.141500 0.055744
v -0.085037 0.309966 -0.054507
v -0.085037 0.135629 -0.085902
v -0.085037 0.304775 -0.103700
v -0.085037 0.140820 -0.036771
v -0.085037 0.304775 -0.103700
v 0.085037 0.135629 -0.085902
v 0.085037 0.304775 -0.103700
v -0.085037 0.135629 -0.085902
v 0.085037 0.304775 -0.103700
v 0.085037 0.140820 -0.036771
v 0.085037 0.309966 -0.054507
v 0.085037 0.135629 -0.085902
v 0.085037 0.304775 -0.103700
v -0.085037 0.309966 -0.054507
v -0.085037 0.304775 -0.103700
v 0.085037 0.309966 -0.054507
v 0.085037 0.135629 -0.085902
v -0.085037 0.140820 -0.036771
v 0.085037 0.140820 -0.036771
v -0.085037 0.135629 -0.085902
v -0.085037 0.494254 -0.073913
v -0.085037 0.320040 -0.105307
v -0.085037 0.489125 -0.123044
v -0.085037 0.325169 -0.056114
v -0.085037 0.489125 -0.123044
v 0.085037 0.320040 -0.105307
v 0.085037 0.489125 -0.123044
v -0.085037 0.320040 -0.105307
v 0.085037 0.489125 -0.123044
v 0.085037 0.325169 -0.056114
v 0.085037 0.494254 -0.073913
v 0.085037 0.320040 -0.105307
v 0.085037 0.489125 -0.123044
v -0.085037 0.494254 -0.073913
v -0.085037 0.489125 -0.123044
v 0.085037 0.494254 -0.073913
v 0.085037 0.320040 -0.105307
v -0.085037 0.325169 -0.056114
v 0.085037 0.325169 -0.056114
v -0.085037 0.320040 -0.105307
v 0.034979 0.318186 0.028490
v -0.000000 0.357800 0.338664
v 0.034979 0.350878 0.339406
v -0.000000 0.325107 0.027748
v 0.064705 0.298472 0.030591
v 0.064705 0.331164 0.341445
v 0.084542 0.268931 0.033681
v 0.084542 0.301623 0.344535
v 0.091464 0.234138 0.037327
v 0.091464 0.266830 0.348243
v 0.084542 0.199035 0.041035
v 0.084542 0.205586 0.103639
v 0.064705 0.169742 0.044125
v 0.064705 0.174686 0.092206
v 0.034979 0.150028 0.046165
v 0.034979 0.153860 0.084542
v -0.000000 0.143106 0.046906
v -0.000000 0.146753 0.081885
v -0.034979 0.150028 0.046165
v -0.034979 0.153860 0.084542
v -0.064705 0.169742 0.044125
v -0.064705 0.174686 0.092206
v -0.084542 0.199035 0.041035
v -0.084542 0.205586 0.103639
v -0.091464 0.234138 0.037327
v -0.091464 0.266830 0.348243
v -0.084542 0.268931 0.033681
v -0.084542 0.301623 0.344535
v -0.064705 0.298472 0.030591
v -0.064705 0.331164 0.341445
v -0.034979 0.318186 0.028490
v -0.034979 0.350878 0.339406
v 0.034979 0.502535 0.009147
v -0.000000 0.542149 0.319259
v 0.034979 0.535227 0.320001
v -0.000000 0.509457 0.008405
v 0.034979 0.535227 0.320001
v -0.000000 0.509457 0.008405
v 0.034979 0.502535 0.009147
v -0.000000 0.542149 0.319259
v 0.064705 0.482821 0.011186
v 0.064705 0.515513 0.322102
v 0.064705 0.515513 0.322102
v 0.064705 0.482821 0.011186
v 0.084542 0.453281 0.014276
v 0.084542 0.485973 0.325192
v 0.084542 0.485973 0.325192
v 0.084542 0.453281 0.014276
v 0.091464 0.418487 0.017984
v 0.091464 0.451118 0.328838
v 0.091464 0.451118 0.328838
v 0.091464 0.418487 0.017984
v 0.084542 0.383385 0.021630
v 0.084542 0.389997 0.084295
v 0.084542 0.389997 0.084295
v 0.084542 0.383385 0.021630
v 0.064705 0.354153 0.024720
v 0.064705 0.359097 0.072801
v 0.064705 0.359097 0.072801
v 0.064705 0.354153 0.024720
v 0.034979 0.334439 0.026821
v 0.034979 0.338271 0.065199
v 0.034979 0.338271 0.065199
v 0.034979 0.334439 0.026821
v -0.000000 0.327518 0.027501
v -0.000000 0.331164 0.062480
v -0.000000 0.331164 0.062480
v -0.000000 0.327518 0.027501
v -0.034979 0.334439 0.026821
v -0.034979 0.338271 0.065199
v -0.034979 0.338271 0.065199
v -0.034979 0.334439 0.026821
v -0.064705 0.354153 0.024720
v -0.064705 0.359097 0.072801
v -0.064705 0.359097 0.072801
v -0.064705 0.354153 0.024720
v -0.084542 0.383385 0.021630
v -0.084542 0.389997 0.084295
v -0.084542 0.389997 0.084295
v -0.084542 0.383385 0.021630
v -0.091464 0.418487 0.017984
v -0.091464 0.451118 0.328838
v -0.091464 0.451118 0.328838
v -0.091464 0.418487 0.017984
v -0.084542 0.453281 0.014276
v -0.084542 0.485973 0.325192
v -0.084542 0.485973 0.325192
v -0.084542 0.453281 0.014276
v -0.064705 0.482821 0.011186
v -0.064705 0.515513 0.322102
v -0.064705 0.515513 0.322102
v -0.064705 0.482821 0.011186
v -0.034979 0.502535 0.009147
v -0.034979 0.535227 0.320001
v -0.034979 0.535227 0.320001
v -0.034979 0.502535 0.009147
v 0.100116 0.515884 0.007725
v -0.100116 0.137668 0.047462
v -0.100116 0.515884 0.007725
v 0.100116 0.137668 0.047462
v 0.100116 0.507170 -0.075272
v 0.100116 0.137668 0.047462
v 0.100116 0.515884 0.007725
v 0.100116 0.129140 -0.035535
v -0.100116 0.515884 0.007725
v -0.100116 0.129140 -0.035535
v -0.100116 0.507170 -0.075272
v -0.100116 0.137668 0.047462
v -0.100116 0.507170 -0.075272
v 0.100116 0.129140 -0.035535
v 0.100116 0.507170 -0.075272
v -0.100116 0.129140 -0.035535
v -0.100116 0.515884 0.007725
v 0.100116 0.507170 -0.075272
v 0.100116 0.515884 0.007725
v -0.100116 0.507170 -0.075272
v 0.155736 0.515884 0.007725
vn -1.0000 -0.0000 -0.0000
vn -0.0000 -0.0000 -1.0000
vn 1.0000 -0.0000 -0.0000
vn -0.0000 -0.0000 1.0000
vn -0.0000 0.9923 -0.1239
vn -0.0000 -0.1046 -0.9945
vn -0.0000 0.9945 -0.1049
vn -0.0000 -0.9945 0.1051
vn -0.0000 -0.1043 -0.9945
vn -0.0000 0.9946 -0.1038
vn -0.0000 -0.9946 0.1037
vn -0.1952 -0.9754 0.1026
vn 0.1952 0.9754 -0.1026
vn -0.5547 -0.8275 0.0870
vn -0.5549 -0.8274 0.0870
vn 0.5549 0.8274 -0.0870
vn 0.5547 0.8275 -0.0870
vn -0.8316 -0.5524 0.0581
vn 0.8316 0.5524 -0.0581
vn -0.9810 -0.1930 0.0203
vn 0.9810 0.1930 -0.0203
vn -0.9815 0.1906 -0.0199
vn -0.9813 0.1914 -0.0201
vn 0.9813 -0.1914 0.0200
vn 0.9813 -0.1912 0.0201
vn -0.8304 0.5542 -0.0570
vn -0.8294 0.5556 -0.0581
vn 0.8294 -0.5557 0.0571
vn 0.8302 -0.5545 0.0580
vn -0.5575 0.8261 -0.0825
vn -0.5547 0.8277 -0.0851
vn 0.5547 -0.8279 0.0827
vn 0.5569 -0.8262 0.0850
vn -0.1906 0.9764 -0.1018
vn -0.1952 0.9759 -0.0974
vn 0.1952 -0.9755 0.1017
vn 0.1910 -0.9767 0.0975
vn 0.1910 0.9767 -0.0975
vn 0.1952 0.9755 -0.1017
vn -0.1952 -0.9759 0.0974
vn -0.1906 -0.9764 0.1018
vn 0.5569 0.8262 -0.0850
vn 0.5547 0.8279 -0.0827
vn -0.5547 -0.8277 0.0851
vn -0.5575 -0.8261 0.0825
vn 0.8302 0.5545 -0.0580
vn 0.8294 0.5557 -0.0571
vn -0.8294 -0.5556 0.0581
vn -0.8304 -0.5542 0.0570
vn 0.9813 0.1912 -0.0201
vn 0.9813 0.1914 -0.0200
vn -0.9813 -0.1914 0.0201
vn -0.9815 -0.1906 0.0199
vn 0.9810 -0.1930 0.0203
vn -0.9810 0.1930 -0.0203
vn 0.8316 -0.5524 0.0581
vn -0.8316 0.5524 -0.0581
vn 0.5547 -0.8275 0.0870
vn 0.5549 -0.8274 0.0870
vn -0.5549 0.8274 -0.0870
vn -0.5547 0.8275 -0.0870
vn 0.1952 -0.9754 0.1026
vn -0.1952 0.9754 -0.1026
vn -0.9810 -0.1927 0.0202
vn 0.9810 0.1927 -0.0203
vn -0.9811 0.1923 -0.0203
vn 0.9813 -0.1914 0.0202
vn 0.9813 -0.1916 0.0201
vn -0.8304 0.5543 -0.0570
vn -0.8289 0.5563 -0.0587
vn 0.8289 -0.5565 0.0572
vn 0.8300 -0.5546 0.0585
vn -0.5576 0.8260 -0.0825
vn -0.5549 0.8276 -0.0851
vn 0.5549 -0.8278 0.0827
vn 0.5571 -0.8261 0.0849
vn -0.1905 0.9764 -0.1018
vn -0.1950 0.9759 -0.0974
vn 0.1950 -0.9755 0.1017
vn 0.1909 -0.9768 0.0975
vn 0.1909 0.9768 -0.0975
vn 0.1950 0.9755 -0.1017
vn -0.1950 -0.9759 0.0974
vn -0.1905 -0.9764 0.1018
vn 0.5571 0.8261 -0.0849
vn 0.5549 0.8278 -0.0827
vn -0.5549 -0.8276 0.0851
vn -0.5576 -0.8260 0.0825
vn 0.8300 0.5546 -0.0585
vn 0.8289 0.5565 -0.0572
vn -0.8289 -0.5563 0.0587
vn -0.8304 -0.5543 0.0570
vn 0.9813 0.1916 -0.0201
vn 0.9813 0.1914 -0.0202
vn -0.9811 -0.1923 0.0203
vn 0.9810 -0.1927 0.0203
vn -0.9810 0.1927 -0.0202
vn -0.0000 0.1045 0.9945
vn -0.0000 -0.1045 -0.9945
vn -0.0000 0.9945 -0.1044
vt 0.563000 0.480000
vt 0.531000 0.440000
vt 0.531000 0.480000
vt 0.563000 0.440000
vt 0.720000 0.480000
vt 0.617000 0.440000
vt 0.617000 0.480000
vt 0.720000 0.440000
vt 0.676000 0.467000
vt 0.547000 0.445000
vt 0.547000 0.467000
vt 0.676000 0.445000
vt 0.915000 0.835000
vt 0.940000 0.704000
vt 0.947000 0.835000
vt 0.908000 0.704000
vt 0.501000 0.559000
vt 0.356000 0.388000
vt 0.356000 0.559000
vt 0.501000 0.388000
vt 0.955000 0.982000
vt 0.917000 0.852000
vt 0.923000 0.982000
vt 0.949000 0.852000
vt 0.499000 0.557000
vt 0.360000 0.512000
vt 0.360000 0.557000
vt 0.499000 0.512000
vt 0.851000 0.838000
vt 0.610000 0.844000
vt 0.607000 0.836000
vt 0.851000 0.846000
vt 0.851000 0.827000
vt 0.605000 0.825000
vt 0.850000 0.812000
vt 0.605000 0.805000
vt 0.849000 0.791000
vt 0.604000 0.784000
vt 0.848000 0.771000
vt 0.793000 0.765000
vt 0.848000 0.754000
vt 0.808000 0.748000
vt 0.847000 0.742000
vt 0.815000 0.742000
vt 0.847000 0.738000
vt 0.818000 0.738000
vt 0.849000 0.838000
vt 0.607000 0.846000
vt 0.849000 0.849000
vt 0.621000 0.977000
vt 0.864000 0.988000
vt 0.864000 0.980000
vt 0.625000 0.984000
vt 0.849000 0.827000
vt 0.607000 0.825000
vt 0.621000 0.966000
vt 0.863000 0.968000
vt 0.848000 0.809000
vt 0.607000 0.808000
vt 0.621000 0.950000
vt 0.862000 0.948000
vt 0.847000 0.789000
vt 0.607000 0.787000
vt 0.622000 0.931000
vt 0.861000 0.923000
vt 0.846000 0.768000
vt 0.807000 0.768000
vt 0.821000 0.903000
vt 0.860000 0.908000
vt 0.846000 0.751000
vt 0.817000 0.750000
vt 0.831000 0.892000
vt 0.859000 0.892000
vt 0.845000 0.739000
vt 0.824000 0.738000
vt 0.838000 0.880000
vt 0.859000 0.881000
vt 0.845000 0.735000
vt 0.826000 0.734000
vt 0.840000 0.876000
vt 0.859000 0.877000
vt 0.106000 1.000000
vt 0.006000 0.803000
vt 0.006000 1.000000
vt 0.106000 0.803000
vt 0.923000 0.993000
vt 0.847000 0.698000
vt 0.860000 0.996000
vt 0.907000 0.696000
vt 0.861000 0.997000
vt 0.906000 0.695000
vt 0.924000 0.993000
vt 0.846000 0.699000
vt 0.512000 0.571000
vt 0.346000 0.187000
vt 0.346000 0.571000
vt 0.512000 0.187000
vt 0.478000 0.804000
vt 0.540000 0.668000
vt 0.478000 0.668000
vt 0.540000 0.804000
s 0
usemtl AZD_Trp
f 61/61/3 63/63/3 62/62/3
f 62/62/3 64/64/3 61/61/3
f 65/65/4 67/67/4 66/66/4
f 66/66/4 68/68/4 65/65/4
f 69/61/5 71/63/5 70/62/5
f 70/62/5 72/64/5 69/61/5
f 73/65/6 75/67/6 74/66/6
f 74/66/6 76/68/6 73/65/6
f 77/69/7 79/71/7 78/70/7
f 78/70/7 80/72/7 77/69/7
f 81/73/3 83/75/3 82/74/3
f 82/74/3 84/76/3 81/73/3
f 85/77/8 87/79/8 86/78/8
f 86/78/8 88/80/8 85/77/8
f 89/81/5 91/83/5 90/82/5
f 90/82/5 92/84/5 89/81/5
f 93/85/9 95/87/9 94/86/9
f 94/86/9 96/88/9 93/85/9
f 97/87/10 99/86/10 98/88/10
f 98/88/10 100/85/10 97/87/10
f 101/73/3 103/75/3 102/74/3
f 102/74/3 104/76/3 101/73/3
f 105/77/11 107/79/11 106/78/11
f 106/78/11 108/80/11 105/77/11
f 109/81/5 111/83/5 110/82/5
f 110/82/5 112/84/5 109/81/5
f 113/85/12 115/87/12 114/86/12
f 114/86/12 116/88/12 113/85/12
f 117/87/13 119/86/13 118/88/13
f 118/88/13 120/85/13 117/87/13
f 121/89/14 123/91/14 122/90/14
f 121/89/14 122/90/14 124/92/14
f 123/91/15 121/89/15 124/92/15
f 123/91/15 124/92/15 122/90/15
f 125/93/16 126/94/16 123/91/16
f 125/93/17 123/91/17 121/89/17
f 126/94/18 125/93/18 121/89/18
f 126/94/19 121/89/19 123/91/19
f 127/95/20 128/96/20 126/94/20
f 127/95/20 126/94/20 125/93/20
f 128/96/21 127/95/21 125/93/21
f 128/96/21 125/93/21 126/94/21
f 129/97/22 130/98/22 128/96/22
f 129/97/22 128/96/22 127/95/22
f 130/98/23 129/97/23 127/95/23
f 130/98/23 127/95/23 128/96/23
f 131/99/24 132/100/24 130/98/24
f 131/99/25 130/98/25 129/97/25
f 132/100/26 131/99/26 129/97/26
f 132/100/27 129/97/27 130/98/27
f 133/101/28 134/102/28 132/100/28
f 133/101/29 132/100/29 131/99/29
f 134/102/30 133/101/30 131/99/30
f 134/102/31 131/99/31 132/100/31
f 135/103/32 136/104/32 134/102/32
f 135/103/33 134/102/33 133/101/33
f 136/104/34 135/103/34 133/101/34
f 136/104/35 133/101/35 134/102/35
f 137/105/36 138/106/36 136/104/36
f 137/105/37 136/104/37 135/103/37
f 138/106/38 137/105/38 135/103/38
f 138/106/39 135/103/39 136/104/39
f 139/103/40 140/104/40 138/106/40
f 139/103/41 138/106/41 137/105/41
f 140/104/42 139/103/42 137/105/42
f 140/104/43 137/105/43 138/106/43
f 141/101/44 142/102/44 140/104/44
f 141/101/45 140/104/45 139/103/45
f 142/102/46 141/101/46 139/103/46
f 142/102/47 139/103/47 140/104/47
f 143/99/48 144/100/48 142/102/48
f 143/99/49 142/102/49 141/101/49
f 144/100/50 143/99/50 141/101/50
f 144/100/51 141/101/51 142/102/51
f 145/97/52 146/98/52 144/100/52
f 145/97/53 144/100/53 143/99/53
f 146/98/54 145/97/54 143/99/54
f 146/98/55 143/99/55 144/100/55
f 147/95/56 148/96/56 146/98/56
f 147/95/56 146/98/56 145/97/56
f 148/96/57 147/95/57 145/97/57
f 148/96/57 145/97/57 146/98/57
f 149/93/58 150/94/58 148/96/58
f 149/93/58 148/96/58 147/95/58
f 150/94/59 149/93/59 147/95/59
f 150/94/59 147/95/59 148/96/59
f 151/89/60 152/91/60 150/94/60
f 151/89/61 150/94/61 149/93/61
f 152/91/62 151/89/62 149/93/62
f 152/91/63 149/93/63 150/94/63
f 124/92/64 122/90/64 152/91/64
f 124/92/64 152/91/64 151/89/64
f 122/90/65 124/92/65 151/89/65
f 122/90/65 151/89/65 152/91/65
f 153/107/14 155/91/14 154/108/14
f 153/107/14 154/108/14 156/109/14
f 157/110/15 159/112/15 158/111/15
f 157/110/15 158/111/15 160/113/15
f 161/114/17 162/115/17 155/91/17
f 161/114/16 155/91/16 153/107/16
f 163/116/19 164/117/19 159/112/19
f 163/116/18 159/112/18 157/110/18
f 165/118/20 166/119/20 162/115/20
f 165/118/20 162/115/20 161/114/20
f 167/120/21 168/121/21 164/117/21
f 167/120/21 164/117/21 163/116/21
f 169/122/66 170/123/66 166/119/66
f 169/122/22 166/119/22 165/118/22
f 171/124/23 172/125/23 168/121/23
f 171/124/67 168/121/67 167/120/67
f 173/126/68 174/127/68 170/123/68
f 173/126/25 170/123/25 169/122/25
f 175/128/69 176/129/69 172/125/69
f 175/128/70 172/125/70 171/124/70
f 177/130/71 178/131/71 174/127/71
f 177/130/72 174/127/72 173/126/72
f 179/132/73 180/133/73 176/129/73
f 179/132/74 176/129/74 175/128/74
f 181/134/75 182/135/75 178/131/75
f 181/134/76 178/131/76 177/130/76
f 183/136/77 184/137/77 180/133/77
f 183/136/78 180/133/78 179/132/78
f 185/138/79 186/139/79 182/135/79
f 185/138/80 182/135/80 181/134/80
f 187/140/81 188/141/81 184/137/81
f 187/140/82 184/137/82 183/136/82
f 189/134/83 190/135/83 186/139/83
f 189/134/84 186/139/84 185/138/84
f 191/136/85 192/137/85 188/141/85
f 191/136/86 188/141/86 187/140/86
f 193/130/87 194/131/87 190/135/87
f 193/130/88 190/135/88 189/134/88
f 195/132/89 196/133/89 192/137/89
f 195/132/90 192/137/90 191/136/90
f 197/126/91 198/127/91 194/131/91
f 197/126/92 194/131/92 193/130/92
f 199/128/93 200/129/93 196/133/93
f 199/128/94 196/133/94 195/132/94
f 201/122/95 202/123/95 198/127/95
f 201/122/96 198/127/96 197/126/96
f 203/124/54 204/125/54 200/129/54
f 203/124/97 200/129/97 199/128/97
f 205/118/98 206/119/98 202/123/98
f 205/118/56 202/123/56 201/122/56
f 207/120/57 208/121/57 204/125/57
f 207/120/99 204/125/99 203/124/99
f 209/114/58 210/115/58 206/119/58
f 209/114/58 206/119/58 205/118/58
f 211/116/59 212/117/59 208/121/59
f 211/116/59 208/121/59 207/120/59
f 213/107/61 214/91/61 210/115/61
f 213/107/60 210/115/60 209/114/60
f 215/110/63 216/112/63 212/117/63
f 215/110/62 212/117/62 211/116/62
f 156/109/64 154/108/64 214/91/64
f 156/109/64 214/91/64 213/107/64
f 160/113/65 158/111/65 216/112/65
f 160/113/65 216/112/65 215/110/65
f 217/142/100 219/144/100 218/143/100
f 218/143/100 220/145/100 217/142/100
f 221/146/5 223/148/5 222/147/5
f 222/147/5 224/149/5 221/146/5
f 225/150/3 227/152/3 226/151/3
f 226/151/3 228/153/3 225/150/3
f 229/154/101 231/156/101 230/155/101
f 230/155/101 232/157/101 229/154/101
f 233/158/102 235/160/102 234/159/102
f 234/159/102 236/161/102 233/158/102
l 235 237
o zaklad_2svet_se
v -0.091093 0.039221 0.121746
v -0.091093 0.127718 0.132252
v -0.091093 0.126915 0.118162
v 0.091093 0.127718 0.132252
v 0.091093 0.126915 0.118162
v 0.091093 0.039221 0.121746
v -0.084172 0.138039 0.059390
v -0.059081 0.138039 0.059390
v -0.059081 0.116656 0.116122
v -0.059081 0.116656 0.116122
v -0.082070 0.116656 0.116122
v -0.084172 0.138039 0.059390
v -0.084172 0.138039 0.059390
v -0.082070 0.116656 0.116122
v -0.059081 0.116656 0.116122
v -0.059081 0.138039 0.059390
v 0.084110 0.138039 0.059390
v 0.059019 0.116656 0.116122
v 0.059019 0.138039 0.059390
v 0.059019 0.116656 0.116122
v 0.084110 0.138039 0.059390
v 0.081947 0.116656 0.116122
v 0.084110 0.138039 0.059390
v 0.059019 0.116656 0.116122
v 0.081947 0.116656 0.116122
v 0.059019 0.138039 0.059390
v -0.077250 0.103740 -0.159135
v -0.077250 0.088352 -0.182186
v -0.077250 0.102689 -0.182804
v -0.077250 0.089402 -0.158517
v -0.077250 0.102689 -0.182804
v 0.077250 0.088352 -0.182186
v 0.077250 0.102689 -0.182804
v -0.077250 0.088352 -0.182186
v 0.077250 0.102689 -0.182804
v 0.077250 0.089402 -0.158517
v 0.077250 0.103740 -0.159135
v 0.077250 0.088352 -0.182186
v 0.077250 0.102689 -0.182804
v -0.077250 0.103740 -0.159135
v -0.077250 0.102689 -0.182804
v 0.077250 0.103740 -0.159135
v 0.077250 0.088352 -0.182186
v -0.077250 0.089402 -0.158517
v 0.077250 0.089402 -0.158517
v -0.077250 0.088352 -0.182186
v -0.108953 0.090885 0.071564
v -0.108953 0.090886 -0.108953
v 0.108953 0.090886 -0.108953
v 0.108953 0.090885 0.071564
v -0.057412 0.118387 -0.184411
v -0.079228 0.083779 -0.158579
v -0.057412 0.082110 -0.182001
v -0.079228 0.119993 -0.160989
v 0.057412 0.082110 -0.182001
v 0.079228 0.119993 -0.160989
v 0.057412 0.118387 -0.184411
v 0.079228 0.083779 -0.158579
v 0.057412 0.118387 -0.184411
v -0.079228 0.119993 -0.160989
v -0.057412 0.118387 -0.184411
v 0.079228 0.119993 -0.160989
v -0.057412 0.082110 -0.182001
v 0.079228 0.083779 -0.158579
v 0.057412 0.082110 -0.182001
v -0.079228 0.083779 -0.158579
v -0.133488 0.070244 0.076508
v 0.133488 0.070244 0.076508
v 0.135960 0.033597 0.084233
v -0.135775 0.033597 0.084233
v -0.108953 0.090885 0.071564
v 0.108953 0.090885 0.071564
v 0.133488 0.070244 0.076508
v 0.133179 0.070121 -0.133179
v 0.135960 0.033597 0.084233
v 0.108953 0.090885 0.071564
v 0.108953 0.090886 -0.108953
v -0.133179 0.070121 -0.133488
v -0.108953 0.090885 0.071564
v -0.133488 0.070244 0.076508
v -0.135775 0.033597 0.084233
v -0.135775 0.033659 0.133303
v -0.135775 0.033659 0.133303
v 0.135960 0.033659 0.133303
v 0.135960 0.033659 0.133303
v -0.091093 0.126915 0.118162
v 0.091093 0.039221 0.121746
v 0.091093 0.126915 0.118162
v -0.091093 0.039221 0.121746
v 0.091093 0.126915 0.118162
v -0.091093 0.039221 0.121746
v -0.091093 0.126915 0.118162
v 0.091093 0.039221 0.121746
v -0.079228 0.129696 -0.032074
v -0.079228 0.083779 -0.158579
v -0.079228 0.119993 -0.160989
v -0.079228 0.093419 -0.029726
v 0.079228 0.119993 -0.160989
v 0.079228 0.093419 -0.029726
v 0.079228 0.129696 -0.032074
v 0.079228 0.083779 -0.158579
v -0.079228 0.129696 -0.032074
v 0.079228 0.129696 -0.032074
v -0.079228 0.093419 -0.029726
v 0.079228 0.093419 -0.029726
v 0.043384 0.070862 -0.135218
v 0.055744 0.092492 -0.156663
v 0.055744 0.070862 -0.156663
v 0.043384 0.092492 -0.135218
v 0.018664 0.070862 -0.135218
v 0.018664 0.092492 -0.135218
v 0.006304 0.070862 -0.156663
v 0.006304 0.092492 -0.156663
v 0.018664 0.070862 -0.178046
v 0.018664 0.092492 -0.178046
v 0.043384 0.070862 -0.178046
v 0.043384 0.092492 -0.178046
v 0.031024 0.070862 -0.156663
v 0.042951 0.072407 -0.163523
v 0.031024 0.072407 -0.142882
v 0.019158 0.072407 -0.163523
v -0.108953 0.090886 -0.108953
v -0.108953 0.090886 -0.108953
v 0.133179 0.070121 -0.133179
v 0.108953 0.090886 -0.108953
v -0.133179 0.070121 -0.133488
v -0.136883 0.000000 0.134832
v 0.040417 0.000000 -0.164324
v -0.136882 0.000000 0.058778
v 0.028503 0.000000 -0.152440
v 0.135777 0.000000 -0.088633
v -0.075400 0.000000 -0.135780
v 0.031024 0.000000 -0.148068
v 0.042951 0.000000 -0.168696
v 0.137048 0.000000 0.127574
v -0.136882 0.000000 0.091220
v 0.104567 0.000000 0.134832
v 0.135778 0.000000 -0.135535
v 0.137046 0.000000 0.083972
v 0.137048 0.000000 0.134832
v 0.135778 0.000000 -0.135535
v 0.019158 0.000000 -0.168696
v -0.136881 0.000000 0.083972
v -0.136883 0.000000 0.134832
v 0.137048 0.000000 0.134832
v -0.135778 -0.000000 -0.135780
v 0.024213 0.000000 -0.168696
v -0.135778 -0.000000 -0.135780
vn -0.0000 -0.9984 0.0569
vn -1.0000 -0.0000 -0.0000
vn -0.0000 0.9984 -0.0569
vn 1.0000 -0.0000 -0.0000
vn -0.0000 0.9357 0.3527
vn -0.0000 -0.9357 -0.3527
vn -0.0000 -0.0431 -0.9991
vn -0.0000 0.9990 -0.0443
vn -0.0000 -0.9990 0.0443
vn -0.0000 1.0000 -0.0000
vn -0.7326 -0.0451 -0.6791
vn -0.7326 -0.0452 -0.6792
vn 0.7326 -0.0451 -0.6792
vn 0.7326 -0.0452 -0.6791
vn -0.0000 0.9977 -0.0684
vn -0.0000 -0.9975 0.0711
vn -0.0000 0.2063 0.9785
vn -0.0000 0.2329 0.9725
vn 0.9978 0.0670 -0.0015
vn 0.6508 0.7593 -0.0000
vn 0.6439 0.7651 -0.0014
vn -0.6439 0.7651 -0.0014
vn -0.9995 0.0329 -0.0000
vn -0.0000 1.0000 -0.0013
vn 0.9995 0.0323 -0.0000
vn -0.0000 -0.0408 -0.9992
vn -0.0000 0.0408 0.9992
vn -0.0000 -0.0663 -0.9978
vn -0.0000 0.9972 -0.0751
vn -0.0000 -0.9972 0.0746
vn 0.8664 -0.0000 0.4994
vn -0.0000 -0.0000 1.0000
vn -0.8664 -0.0000 0.4994
vn -0.8658 -0.0000 -0.5004
vn -0.0000 -0.0000 -1.0000
vn 0.8658 -0.0000 -0.5004
vn -0.0000 -1.0000 -0.0000
vn -0.6508 0.7593 -0.0000
vn -0.9981 0.0620 -0.0015
vn -0.0000 0.7593 -0.6508
vn 0.0007 0.7629 -0.6465
vn -0.9993 0.0372 -0.0057
vn 0.0012 0.0336 -0.9994
vn 0.9994 0.0324 -0.0073
vn -0.0000 0.0454 0.9990
vn 0.8653 -0.0358 0.5000
vn -0.8664 -0.0356 0.4981
vn -0.0000 0.0713 -0.9975
vn -0.0000 0.0327 -0.9995
vn 0.9993 0.0370 -0.0000
vn -0.8658 -0.0358 0.4992
vn 0.8646 -0.0358 0.5011
vn -0.0000 -0.1848 -0.9828
vt 0.659000 0.318000
vt 0.811000 0.318000
vt 0.659000 0.224000
vt 0.811000 0.224000
vt 0.462000 0.646000
vt 0.387000 0.646000
vt 0.387000 0.630000
vt 0.472000 0.601000
vt 0.472000 0.625000
vt 0.377000 0.625000
vt 0.377000 0.601000
vt 0.978000 0.683000
vt 0.992000 0.667000
vt 0.992000 0.683000
vt 0.978000 0.667000
vt 0.767000 0.734000
vt 0.611000 0.714000
vt 0.611000 0.734000
vt 0.767000 0.714000
vt 0.989000 0.328000
vt 0.967000 0.498000
vt 0.989000 0.498000
vt 0.967000 0.328000
vt 0.820000 0.524000
vt 0.898000 0.524000
vt 0.898000 0.605000
vt 0.820000 0.605000
vt 0.747000 0.745000
vt 0.769000 0.713000
vt 0.747000 0.712000
vt 0.769000 0.746000
vt 0.631000 0.712000
vt 0.609000 0.746000
vt 0.631000 0.745000
vt 0.609000 0.713000
vt 0.989000 0.350000
vt 0.967000 0.500000
vt 0.989000 0.477000
vt 0.967000 0.326000
vt 0.819000 0.642000
vt 0.941000 0.642000
vt 0.941000 0.622000
vt 0.819000 0.622000
vt 0.819000 0.664000
vt 0.941000 0.664000
vt 0.814000 0.648000
vt 0.959000 0.641000
vt 0.805000 0.616000
vt 0.819000 0.668000
vt 0.940000 0.665000
vt 0.802886 0.603538
vt 0.805111 0.603430
vt 0.819000 0.600000
vt 0.941000 0.600000
vt 0.789000 0.615000
vt 0.790894 0.602521
vt 0.788666 0.602629
vt 0.346000 0.659000
vt 0.510000 0.574000
vt 0.510000 0.659000
vt 0.346000 0.574000
vt 0.659034 0.224000
vt 0.899000 0.694000
vt 0.979000 0.666000
vt 0.979000 0.690000
vt 0.899000 0.669000
vt 0.855000 0.500000
vt 0.855000 0.326000
vt 0.646000 0.695000
vt 0.633000 0.714000
vt 0.633000 0.694000
vt 0.645000 0.714000
vt 0.670000 0.695000
vt 0.670000 0.714000
vt 0.683000 0.694000
vt 0.683000 0.714000
vt 0.658000 0.695000
vt 0.817000 0.664000
vt 0.817000 0.642000
vt 0.822135 0.603983
vt 0.842688 0.613411
vt 0.927310 0.612417
vt 0.927404 0.589301
vt 0.648549 0.672906
vt 0.664901 0.672906
vt 0.660549 0.672906
vt 0.788666 0.602629
vt 0.658000 0.672906
vt 0.817000 0.613411
vt 0.959000 0.613447
vt 0.941000 0.589301
vt 0.646000 0.672906
vt 0.670000 0.672906
vt 0.000000 0.000000
vt 0.941000 0.613411
vt 0.819000 0.589301
s 0
usemtl AZD_Trp
f 240/162/103 242/163/103 241/163/103
f 241/163/103 239/162/103 240/162/103
f 238/164/104 239/162/104 240/162/104
f 239/162/105 241/163/105 242/163/105
f 242/163/105 240/162/105 239/162/105
f 243/165/106 242/163/106 241/163/106
f 244/166/107 246/168/107 245/167/107
f 247/169/107 249/171/107 248/170/107
f 250/172/108 252/170/108 251/169/108
f 252/170/108 250/172/108 253/171/108
f 254/166/107 256/167/107 255/168/107
f 257/169/107 259/170/107 258/171/107
f 260/172/108 262/169/108 261/170/108
f 261/170/108 263/171/108 260/172/108
f 264/173/104 266/175/104 265/174/104
f 265/174/104 267/176/104 264/173/104
f 268/177/109 270/179/109 269/178/109
f 269/178/109 271/180/109 268/177/109
f 272/175/106 274/173/106 273/176/106
f 273/176/106 275/174/106 272/175/106
f 276/181/110 278/183/110 277/182/110
f 277/182/110 279/184/110 276/181/110
f 280/181/111 282/184/111 281/182/111
f 281/182/111 283/183/111 280/181/111
f 284/185/112 286/187/112 285/186/112
f 284/185/112 287/188/112 286/187/112
f 288/189/113 290/191/113 289/190/113
f 289/190/114 291/192/114 288/189/114
f 292/193/115 294/195/115 293/194/115
f 293/194/116 295/196/116 292/193/116
f 296/197/117 298/199/117 297/198/117
f 297/198/117 299/200/117 296/197/117
f 300/199/118 302/197/118 301/200/118
f 301/200/118 303/198/118 300/199/118
f 304/201/119 306/203/119 305/202/119
f 304/201/119 307/204/119 306/203/119
f 308/205/120 305/202/120 309/206/120
f 308/205/120 304/201/120 305/202/120
f 310/207/121 312/209/121 311/208/121
f 313/210/122 311/208/122 314/211/122
f 313/210/123 310/207/123 311/208/123
f 315/208/124 317/207/124 316/210/124
f 318/209/125 380/213/125 373/212/125
f 320/214/126 321/215/126 306/203/126
f 306/203/126 307/204/126 320/214/126
f 322/216/127 377/218/127 372/217/127
f 323/219/128 325/221/128 324/220/128
f 324/220/128 326/222/128 323/219/128
f 327/163/129 329/162/129 328/223/129
f 328/223/129 330/165/129 327/163/129
f 331/224/104 333/226/104 332/225/104
f 332/225/104 334/227/104 331/224/104
f 288/189/130 294/195/130 292/193/130
f 292/193/130 290/191/130 288/189/130
f 335/226/106 337/224/106 336/227/106
f 336/227/106 338/225/106 335/226/106
f 299/200/131 297/198/131 339/228/131
f 339/228/131 340/229/131 299/200/131
f 301/200/132 342/229/132 341/228/132
f 341/228/132 303/198/132 301/200/132
f 343/230/133 345/232/133 344/231/133
f 343/230/133 344/231/133 346/233/133
f 347/234/134 343/230/134 346/233/134
f 347/234/134 346/233/134 348/235/134
f 349/236/135 347/234/135 348/235/135
f 349/236/135 348/235/135 350/237/135
f 351/234/136 349/236/136 350/237/136
f 351/234/136 350/237/136 352/235/136
f 353/230/137 351/234/137 352/235/137
f 353/230/137 352/235/137 354/233/137
f 345/232/138 353/230/138 354/233/138
f 345/232/138 354/233/138 344/231/138
f 355/238/139 345/232/139 343/230/139
f 355/238/139 343/230/139 347/234/139
f 355/238/139 347/234/139 349/236/139
f 355/238/139 349/236/139 351/234/139
f 355/238/139 351/234/139 353/230/139
f 355/238/139 353/230/139 345/232/139
f 316/210/140 359/211/140 315/208/140
f 315/208/141 318/209/141 317/207/141
f 360/239/142 362/206/142 361/202/142
f 361/202/143 363/240/143 360/239/143
f 366/241/144 318/209/144 315/208/144
f 369/242/145 363/240/145 361/202/145
f 368/243/146 311/208/146 312/209/146
f 374/244/147 321/215/147 320/214/147
f 365/245/139 367/247/139 384/246/139
f 373/212/125 381/248/125 319/216/125
f 370/249/148 365/245/148 356/230/148
f 367/247/149 357/238/149 358/234/149
f 384/246/150 358/234/150 356/230/150
f 380/213/125 318/209/125 366/241/125
f 383/250/151 363/240/151 369/242/151
f 378/251/152 311/208/152 368/243/152
f 382/252/147 321/215/147 374/244/147
f 370/249/153 357/238/153 367/247/153
f 372/217/127 376/213/127 312/209/127
f 371/253/154 356/230/154 365/245/154
f 379/254/150 358/234/150 384/246/150
f 381/255/139 383/255/139 375/255/139
f 366/241/144 315/208/144 385/251/144
f 369/242/145 361/202/145 375/256/145
f 368/243/146 312/209/146 376/213/146
f 374/244/147 320/214/147 364/257/147
f 367/247/139 365/245/139 370/249/139
f 365/245/139 384/246/139 371/253/139
f 384/246/139 367/247/139 379/254/139
f 373/212/125 319/216/125 318/209/125
f 370/249/148 356/230/148 357/238/148
f 367/247/149 358/234/149 379/254/149
f 384/246/150 356/230/150 371/253/150
f 372/217/127 312/209/127 322/216/127
f 364/255/139 382/255/139 377/255/139
f 381/255/155 382/255/155 364/255/155
f 381/255/139 376/255/139 382/255/139
f 376/255/139 375/255/139 378/255/139
f 381/255/139 375/255/139 376/255/139
f 375/255/139 383/255/139 385/255/139
