# Blender 4.0.2
# www.blender.org
mtllib 5svetT.mtl
o stit_5svet
v -0.207957 0.514729 -0.088374
v -0.208266 0.145042 0.034423
v -0.207957 0.523382 -0.004820
v -0.208266 0.136514 -0.048822
v -0.008034 0.523196 -0.004820
v -0.008034 0.136514 -0.048822
v -0.008034 0.514729 -0.088374
v -0.008034 0.145042 0.034423
v -0.208266 0.698955 -0.107655
v -0.207957 0.523382 -0.004820
v -0.208266 0.707793 -0.023978
v -0.207957 0.514729 -0.088374
v -0.008034 0.707793 -0.023978
v -0.008034 0.514729 -0.088374
v -0.008034 0.698955 -0.107655
v -0.008034 0.523196 -0.004820
v 0.193187 0.317402 -0.067485
v 0.193187 0.143064 -0.098880
v 0.193187 0.312211 -0.116678
v 0.193187 0.148194 -0.049749
v 0.193187 0.312211 -0.116678
v 0.023051 0.143064 -0.098880
v 0.023051 0.312211 -0.116678
v 0.193187 0.143064 -0.098880
v 0.023051 0.312211 -0.116678
v 0.023051 0.148194 -0.049749
v 0.023051 0.317402 -0.067486
v 0.023051 0.143064 -0.098880
v 0.023051 0.312211 -0.116678
v 0.193187 0.317402 -0.067485
v 0.193187 0.312211 -0.116678
v 0.023051 0.317402 -0.067486
v 0.023051 0.143064 -0.098880
v 0.193187 0.148194 -0.049749
v 0.023051 0.148194 -0.049749
v 0.193187 0.143064 -0.098880
v 0.193187 0.501752 -0.086891
v 0.193187 0.327414 -0.118285
v 0.193187 0.496622 -0.136083
v 0.193187 0.332605 -0.069092
v 0.193187 0.496622 -0.136083
v 0.023051 0.327414 -0.118285
v 0.023051 0.496622 -0.136083
v 0.193187 0.327414 -0.118285
v 0.023051 0.496622 -0.136083
v 0.023051 0.332605 -0.069092
v 0.023051 0.501752 -0.086891
v 0.023051 0.327414 -0.118285
v 0.023051 0.496622 -0.136083
v 0.193187 0.501752 -0.086891
v 0.193187 0.496622 -0.136083
v 0.023051 0.501752 -0.086891
v 0.023051 0.327414 -0.118285
v 0.193187 0.332605 -0.069092
v 0.023051 0.332605 -0.069092
v 0.193187 0.327414 -0.118285
v 0.073109 0.325622 0.015512
v 0.108150 0.365235 0.325686
v 0.073109 0.358314 0.326428
v 0.108150 0.332543 0.014770
v 0.043384 0.305907 0.017551
v 0.043384 0.338599 0.328467
v 0.023546 0.276367 0.020641
v 0.023546 0.309059 0.331557
v 0.016624 0.241574 0.024287
v 0.016624 0.274204 0.335265
v 0.023546 0.206409 0.027995
v 0.023546 0.213022 0.090661
v 0.043384 0.177178 0.031024
v 0.043384 0.182122 0.079228
v 0.073109 0.157464 0.033125
v 0.073109 0.161295 0.071564
v 0.108150 0.150480 0.033866
v 0.108150 0.154188 0.068845
v 0.143129 0.157464 0.033125
v 0.143129 0.161295 0.071564
v 0.172855 0.177178 0.031024
v 0.172855 0.182122 0.079228
v 0.192692 0.206409 0.027995
v 0.192692 0.213022 0.090661
v 0.199614 0.241574 0.024287
v 0.199614 0.274204 0.335265
v 0.192692 0.276367 0.020641
v 0.192692 0.309059 0.331557
v 0.172855 0.305907 0.017551
v 0.172855 0.338599 0.328467
v 0.143129 0.325622 0.015512
v 0.143129 0.358314 0.326428
v 0.073109 0.510033 -0.003893
v 0.108150 0.549646 0.306281
v 0.073109 0.542725 0.307023
v 0.108150 0.516954 -0.004573
v 0.073109 0.542725 0.307023
v 0.108150 0.516954 -0.004573
v 0.073109 0.510033 -0.003893
v 0.108150 0.549646 0.306281
v 0.043384 0.490257 -0.001792
v 0.043384 0.522949 0.309062
v 0.043384 0.522949 0.309062
v 0.043384 0.490257 -0.001792
v 0.023546 0.460778 0.001298
v 0.023546 0.493470 0.312214
v 0.023546 0.493470 0.312214
v 0.023546 0.460778 0.001298
v 0.016624 0.425923 0.004944
v 0.016624 0.458615 0.315860
v 0.016624 0.458615 0.315860
v 0.016624 0.425923 0.004944
v 0.023546 0.390821 0.008652
v 0.023546 0.397371 0.071255
v 0.023546 0.397371 0.071255
v 0.023546 0.390821 0.008652
v 0.043384 0.361589 0.011742
v 0.043384 0.366471 0.059822
v 0.043384 0.366471 0.059822
v 0.043384 0.361589 0.011742
v 0.073109 0.341813 0.013781
v 0.073109 0.345707 0.052221
v 0.073109 0.345707 0.052221
v 0.073109 0.341813 0.013781
v 0.108150 0.334892 0.014523
v 0.108150 0.338538 0.049502
v 0.108150 0.338538 0.049502
v 0.108150 0.334892 0.014523
v 0.143129 0.341813 0.013782
v 0.143129 0.345707 0.052221
v 0.143129 0.345707 0.052221
v 0.143129 0.341813 0.013782
v 0.172855 0.361589 0.011742
v 0.172855 0.366471 0.059823
v 0.172855 0.366471 0.059823
v 0.172855 0.361589 0.011742
v 0.192692 0.390821 0.008652
v 0.192692 0.397371 0.071256
v 0.192692 0.397371 0.071256
v 0.192692 0.390821 0.008652
v 0.199614 0.425923 0.004944
v 0.199614 0.458615 0.315860
v 0.199614 0.458615 0.315860
v 0.199614 0.425923 0.004944
v 0.192692 0.460778 0.001298
v 0.192692 0.493470 0.312214
v 0.192692 0.493470 0.312214
v 0.192692 0.460778 0.001298
v 0.172855 0.490257 -0.001792
v 0.172855 0.522949 0.309062
v 0.172855 0.522949 0.309062
v 0.172855 0.490257 -0.001792
v 0.143129 0.510033 -0.003893
v 0.143129 0.542725 0.307023
v 0.143129 0.542725 0.307023
v 0.143129 0.510033 -0.003893
v 0.008034 0.523382 -0.005253
v 0.208266 0.145042 0.034423
v 0.208266 0.523382 -0.005253
v 0.008034 0.145042 0.034423
v 0.008034 0.514606 -0.088250
v 0.008034 0.145042 0.034423
v 0.008034 0.523382 -0.005253
v 0.008034 0.136575 -0.048513
v 0.208266 0.523382 -0.005253
v 0.208266 0.136575 -0.048513
v 0.208266 0.514606 -0.088250
v 0.208266 0.145042 0.034423
v 0.208266 0.514606 -0.088250
v 0.008034 0.136575 -0.048513
v 0.008034 0.514606 -0.088250
v 0.208266 0.136575 -0.048513
v 0.208266 0.523382 -0.005253
v 0.008034 0.514606 -0.088250
v 0.008034 0.523382 -0.005253
v 0.208266 0.514606 -0.088250
v -0.143129 0.510033 -0.003893
v -0.108150 0.549646 0.306281
v -0.143129 0.542663 0.307023
v -0.108150 0.516892 -0.004635
v -0.172855 0.490257 -0.001792
v -0.172855 0.522949 0.309062
v -0.192692 0.460778 0.001298
v -0.192692 0.493408 0.312152
v -0.199614 0.425923 0.004944
v -0.199614 0.458615 0.315860
v -0.192692 0.390821 0.008652
v -0.192692 0.397371 0.071255
v -0.172855 0.361589 0.011742
v -0.172855 0.366471 0.059822
v -0.143129 0.341813 0.013781
v -0.143129 0.345707 0.052159
v -0.108150 0.334892 0.014523
v -0.108150 0.338538 0.049502
v -0.073171 0.341813 0.013781
v -0.073171 0.345707 0.052159
v -0.043445 0.361589 0.011742
v -0.043445 0.366471 0.059822
v -0.023608 0.390821 0.008652
v -0.023608 0.397371 0.071255
v -0.016686 0.425923 0.004944
v -0.016686 0.458615 0.315860
v -0.023608 0.460778 0.001298
v -0.023608 0.493408 0.312152
v -0.043445 0.490257 -0.001792
v -0.043445 0.522949 0.309062
v -0.073171 0.510033 -0.003893
v -0.073171 0.542663 0.307023
v -0.023113 0.686101 -0.106234
v -0.023113 0.511825 -0.137628
v -0.023113 0.680910 -0.155427
v -0.023113 0.516954 -0.088436
v -0.023113 0.680910 -0.155427
v -0.193187 0.511825 -0.137628
v -0.193187 0.680910 -0.155427
v -0.023113 0.511825 -0.137628
v -0.193187 0.680910 -0.155427
v -0.193187 0.516954 -0.088436
v -0.193187 0.686101 -0.106234
v -0.193187 0.511825 -0.137628
v -0.193187 0.680910 -0.155427
v -0.023113 0.686101 -0.106234
v -0.023113 0.680910 -0.155427
v -0.193187 0.686101 -0.106234
v -0.193187 0.511825 -0.137628
v -0.023113 0.516954 -0.088436
v -0.193187 0.516954 -0.088436
v -0.023113 0.511825 -0.137628
v -0.143129 0.694320 -0.023237
v -0.108150 0.733934 0.286938
v -0.143129 0.727012 0.287679
v -0.108150 0.701242 -0.023978
v -0.143129 0.727012 0.287679
v -0.108150 0.701242 -0.023978
v -0.143129 0.694320 -0.023237
v -0.108150 0.733934 0.286938
v -0.172855 0.674606 -0.021135
v -0.172855 0.707298 0.289719
v -0.172855 0.707298 0.289719
v -0.172855 0.674606 -0.021135
v -0.192692 0.645066 -0.018045
v -0.192692 0.677758 0.292808
v -0.192692 0.677758 0.292808
v -0.192692 0.645066 -0.018045
v -0.199614 0.610334 -0.014399
v -0.199614 0.642903 0.296516
v -0.199614 0.642903 0.296516
v -0.199614 0.610334 -0.014399
v -0.192692 0.575170 -0.010691
v -0.192692 0.581783 0.051912
v -0.192692 0.581783 0.051912
v -0.192692 0.575170 -0.010691
v -0.172855 0.545939 -0.007601
v -0.172855 0.550883 0.040479
v -0.172855 0.550883 0.040479
v -0.172855 0.545939 -0.007601
v -0.143129 0.526224 -0.005562
v -0.143129 0.530056 0.032816
v -0.143129 0.530056 0.032816
v -0.143129 0.526224 -0.005562
v -0.108150 0.519303 -0.004820
v -0.108150 0.522949 0.030159
v -0.108150 0.522949 0.030159
v -0.108150 0.519303 -0.004820
v -0.073171 0.526224 -0.005562
v -0.073171 0.530056 0.032816
v -0.073171 0.530056 0.032816
v -0.073171 0.526224 -0.005562
v -0.043445 0.545939 -0.007601
v -0.043445 0.550883 0.040479
v -0.043445 0.550883 0.040479
v -0.043445 0.545939 -0.007601
v -0.023608 0.575170 -0.010691
v -0.023608 0.581783 0.051912
v -0.023608 0.581783 0.051912
v -0.023608 0.575170 -0.010691
v -0.016686 0.610334 -0.014399
v -0.016686 0.642903 0.296517
v -0.016686 0.642903 0.296517
v -0.016686 0.610334 -0.014399
v -0.023608 0.645066 -0.018045
v -0.023608 0.677758 0.292809
v -0.023608 0.677758 0.292809
v -0.023608 0.645066 -0.018045
v -0.043445 0.674606 -0.021135
v -0.043445 0.707298 0.289719
v -0.043445 0.707298 0.289719
v -0.043445 0.674606 -0.021135
v -0.073171 0.694320 -0.023237
v -0.073171 0.727012 0.287679
v -0.073171 0.727012 0.287679
v -0.073171 0.694320 -0.023237
v -0.023113 0.317402 -0.067486
v -0.023113 0.143064 -0.098880
v -0.023113 0.312211 -0.116678
v -0.023113 0.148194 -0.049749
v -0.023113 0.312211 -0.116678
v -0.193187 0.143064 -0.098880
v -0.193187 0.312211 -0.116678
v -0.023113 0.143064 -0.098880
v -0.193187 0.312211 -0.116678
v -0.193187 0.148194 -0.049749
v -0.193187 0.317402 -0.067486
v -0.193187 0.143064 -0.098880
v -0.193187 0.312211 -0.116678
v -0.023113 0.317402 -0.067486
v -0.023113 0.312211 -0.116678
v -0.193187 0.317402 -0.067486
v -0.193187 0.143064 -0.098880
v -0.023113 0.148194 -0.049749
v -0.193187 0.148194 -0.049749
v -0.023113 0.143064 -0.098880
v -0.023113 0.501752 -0.086891
v -0.023113 0.327414 -0.118285
v -0.023113 0.496622 -0.136083
v -0.023113 0.332605 -0.069092
v -0.023113 0.496622 -0.136083
v -0.193187 0.327414 -0.118285
v -0.193187 0.496622 -0.136083
v -0.023113 0.327414 -0.118285
v -0.193187 0.496622 -0.136083
v -0.193187 0.332605 -0.069092
v -0.193187 0.501752 -0.086891
v -0.193187 0.327414 -0.118285
v -0.193187 0.496622 -0.136083
v -0.023113 0.501752 -0.086891
v -0.023113 0.496622 -0.136083
v -0.193187 0.501752 -0.086891
v -0.193187 0.327414 -0.118285
v -0.023113 0.332605 -0.069092
v -0.193187 0.332605 -0.069092
v -0.023113 0.327414 -0.118285
v -0.143129 0.325622 0.015512
v -0.108150 0.365235 0.325686
v -0.143129 0.358314 0.326428
v -0.108150 0.332543 0.014770
v -0.172855 0.305907 0.017551
v -0.172855 0.338599 0.328467
v -0.192692 0.276367 0.020641
v -0.192692 0.309059 0.331557
v -0.199614 0.241574 0.024287
v -0.199614 0.274204 0.335265
v -0.192692 0.206409 0.027995
v -0.192692 0.213022 0.090661
v -0.172855 0.177178 0.031024
v -0.172855 0.182122 0.079228
v -0.143129 0.157464 0.033125
v -0.143129 0.161295 0.071564
v -0.108150 0.150480 0.033866
v -0.108150 0.154188 0.068845
v -0.073171 0.157464 0.033125
v -0.073171 0.161295 0.071564
v -0.043445 0.177178 0.031024
v -0.043445 0.182122 0.079228
v -0.023608 0.206409 0.027995
v -0.023608 0.213022 0.090661
v -0.016686 0.241574 0.024287
v -0.016686 0.274204 0.335265
v -0.023608 0.276367 0.020641
v -0.023608 0.309059 0.331557
v -0.043445 0.305907 0.017551
v -0.043445 0.338599 0.328467
v -0.073171 0.325622 0.015512
v -0.073171 0.358314 0.326428
v -0.208266 0.707793 -0.023978
v -0.008034 0.145042 0.034423
v -0.008034 0.707793 -0.023978
v -0.208266 0.145042 0.034423
v -0.008034 0.698955 -0.107655
v -0.208266 0.136514 -0.048822
v -0.208266 0.698955 -0.107655
v -0.008034 0.136514 -0.048822
v -0.008034 0.707793 -0.023978
v -0.208266 0.698955 -0.107655
v -0.208266 0.707793 -0.023978
v -0.008034 0.698955 -0.107655
vn -1.0000 0.0008 -0.0001
vn 1.0000 -0.0000 -0.0000
vn -1.0000 -0.0017 0.0002
vn -0.0000 -0.1046 -0.9945
vn -1.0000 -0.0000 -0.0000
vn -0.0000 0.9945 -0.1049
vn -0.0000 -0.9946 0.1038
vn -0.0000 0.9946 -0.1037
vn -0.0000 -0.9945 0.1049
vn 0.1949 -0.9755 0.1026
vn -0.1949 0.9755 -0.1026
vn 0.5547 -0.8275 0.0870
vn -0.5547 0.8275 -0.0870
vn 0.8316 -0.5524 0.0581
vn -0.8316 0.5524 -0.0581
vn 0.9811 -0.1927 0.0202
vn 0.9810 -0.1930 0.0203
vn -0.9810 0.1930 -0.0203
vn -0.9811 0.1927 -0.0203
vn 0.9812 0.1920 -0.0203
vn 0.9814 0.1911 -0.0200
vn -0.9814 -0.1910 0.0202
vn -0.9813 -0.1912 0.0201
vn 0.8305 0.5542 -0.0568
vn 0.8288 0.5564 -0.0587
vn -0.8288 -0.5566 0.0571
vn -0.8301 -0.5546 0.0585
vn 0.5575 0.8261 -0.0823
vn 0.5549 0.8276 -0.0849
vn -0.5549 -0.8278 0.0825
vn -0.5570 -0.8262 0.0847
vn 0.1900 0.9763 -0.1035
vn 0.1965 0.9757 -0.0973
vn -0.1965 -0.9750 0.1034
vn -0.1906 -0.9768 0.0974
vn -0.1909 0.9768 -0.0974
vn -0.1968 0.9750 -0.1034
vn 0.1968 -0.9756 0.0972
vn 0.1903 -0.9763 0.1035
vn -0.5570 0.8262 -0.0847
vn -0.5549 0.8278 -0.0825
vn 0.5549 -0.8276 0.0849
vn 0.5575 -0.8261 0.0823
vn -0.8301 0.5546 -0.0585
vn -0.8288 0.5566 -0.0571
vn 0.8288 -0.5564 0.0587
vn 0.8305 -0.5542 0.0568
vn -0.9813 0.1912 -0.0201
vn -0.9814 0.1910 -0.0202
vn 0.9814 -0.1911 0.0200
vn 0.9812 -0.1920 0.0203
vn -0.9811 -0.1927 0.0203
vn -0.9810 -0.1930 0.0203
vn 0.9810 0.1930 -0.0203
vn 0.9811 0.1927 -0.0202
vn -0.8316 -0.5524 0.0581
vn 0.8316 0.5524 -0.0581
vn -0.5547 -0.8275 0.0870
vn 0.5547 0.8275 -0.0870
vn -0.1952 -0.9754 0.1026
vn 0.1952 0.9754 -0.1026
vn 0.1947 -0.9755 0.1026
vn -0.1947 0.9755 -0.1026
vn 0.5559 -0.8267 0.0869
vn 0.5561 -0.8266 0.0869
vn -0.5561 0.8266 -0.0869
vn -0.5559 0.8267 -0.0869
vn 0.8311 -0.5531 0.0582
vn 0.8310 -0.5532 0.0582
vn -0.8310 0.5532 -0.0582
vn -0.8311 0.5531 -0.0582
vn 0.9810 -0.1927 0.0203
vn -0.9810 0.1927 -0.0203
vn 0.9815 0.1906 -0.0199
vn 0.9813 0.1914 -0.0201
vn -0.9813 -0.1914 0.0200
vn 0.8306 0.5540 -0.0563
vn 0.8289 0.5564 -0.0582
vn -0.8289 -0.5565 0.0565
vn -0.8302 -0.5544 0.0580
vn 0.5562 0.8268 -0.0837
vn 0.5559 0.8270 -0.0840
vn -0.5559 -0.8270 0.0838
vn -0.5561 -0.8268 0.0840
vn 0.1918 0.9761 -0.1018
vn 0.1949 0.9758 -0.0988
vn -0.1949 -0.9755 0.1017
vn -0.1921 -0.9764 0.0989
vn -0.1924 0.9763 -0.0989
vn -0.1952 0.9755 -0.1017
vn 0.1952 -0.9758 0.0988
vn 0.1921 -0.9761 0.1017
vn -0.5561 0.8268 -0.0840
vn -0.5559 0.8270 -0.0838
vn 0.5559 -0.8270 0.0840
vn 0.5562 -0.8268 0.0837
vn -0.8302 0.5545 -0.0580
vn -0.8289 0.5565 -0.0565
vn 0.8289 -0.5564 0.0582
vn 0.8306 -0.5540 0.0563
vn -0.9813 0.1914 -0.0200
vn 0.9813 -0.1914 0.0201
vn 0.9815 -0.1906 0.0199
vn -0.9810 -0.1927 0.0203
vn 0.9810 0.1927 -0.0203
vn -0.8311 -0.5531 0.0582
vn -0.8310 -0.5532 0.0582
vn 0.8310 0.5532 -0.0582
vn 0.8311 0.5531 -0.0582
vn -0.5559 -0.8267 0.0869
vn -0.5561 -0.8266 0.0869
vn 0.5561 0.8266 -0.0869
vn 0.5559 0.8267 -0.0869
vn -0.1950 -0.9754 0.1026
vn 0.1950 0.9754 -0.1026
vn -0.0000 0.1043 0.9945
vn -0.0000 -0.1045 -0.9945
vn -0.0000 0.9945 -0.1051
vn 0.1968 -0.9751 0.1023
vn 0.1935 -0.9757 0.1028
vn -0.1935 0.9757 -0.1024
vn -0.1968 0.9750 -0.1027
vn 0.5561 -0.8266 0.0868
vn -0.5547 0.8275 -0.0868
vn 0.8316 -0.5524 0.0580
vn -0.8310 0.5532 -0.0581
vn 0.9810 -0.1927 0.0202
vn 0.5560 0.8269 -0.0839
vn -0.5559 -0.8270 0.0839
vn -0.5560 -0.8269 0.0840
vn 0.1923 0.9760 -0.1017
vn 0.1952 0.9758 -0.0990
vn -0.1952 -0.9755 0.1017
vn -0.1926 -0.9763 0.0990
vn -0.1926 0.9763 -0.0990
vn 0.1952 -0.9758 0.0990
vn 0.1923 -0.9760 0.1017
vn -0.5560 0.8269 -0.0840
vn -0.5559 0.8270 -0.0839
vn 0.5560 -0.8269 0.0839
vn -0.8302 0.5544 -0.0580
vn 0.9810 0.1927 -0.0202
vn -0.8310 -0.5532 0.0581
vn 0.8316 0.5524 -0.0580
vn -0.5547 -0.8275 0.0868
vn 0.5561 0.8266 -0.0868
vn -0.1968 -0.9750 0.1027
vn -0.1935 -0.9757 0.1024
vn 0.1935 0.9757 -0.1028
vn 0.1968 0.9751 -0.1023
vn -0.0000 -0.1047 -0.9945
vn -0.0000 -0.9946 0.1037
vn 0.1952 -0.9754 0.1026
vn -0.1952 0.9754 -0.1026
vn 0.5549 -0.8274 0.0870
vn -0.5549 0.8274 -0.0870
vn 0.9809 -0.1933 0.0203
vn -0.9809 0.1934 -0.0203
vn 0.9811 0.1925 -0.0203
vn -0.9813 -0.1913 0.0200
vn 0.8304 0.5542 -0.0570
vn 0.8289 0.5563 -0.0588
vn -0.8289 -0.5565 0.0572
vn -0.8301 -0.5546 0.0586
vn 0.5575 0.8261 -0.0825
vn 0.5547 0.8277 -0.0851
vn -0.5547 -0.8279 0.0827
vn -0.5569 -0.8262 0.0850
vn 0.1906 0.9764 -0.1018
vn 0.1952 0.9759 -0.0974
vn -0.1910 -0.9767 0.0975
vn -0.1910 0.9767 -0.0975
vn 0.1952 -0.9759 0.0974
vn 0.1906 -0.9764 0.1018
vn -0.5569 0.8262 -0.0850
vn -0.5547 0.8279 -0.0827
vn 0.5547 -0.8277 0.0851
vn 0.5575 -0.8261 0.0825
vn -0.8301 0.5546 -0.0586
vn -0.8289 0.5565 -0.0572
vn 0.8289 -0.5563 0.0588
vn 0.8304 -0.5542 0.0570
vn -0.9813 0.1913 -0.0200
vn 0.9811 -0.1925 0.0203
vn -0.9809 -0.1934 0.0203
vn 0.9809 0.1933 -0.0203
vn -0.5549 -0.8274 0.0870
vn 0.5549 0.8274 -0.0870
vn 0.1903 0.9763 -0.1035
vn 0.1968 0.9756 -0.0972
vn -0.1968 -0.9750 0.1034
vn -0.1909 -0.9768 0.0974
vn -0.0000 0.1032 0.9947
vn -0.0000 -0.1040 -0.9946
vn -0.0000 0.9945 -0.1050
vt 0.923000 0.993000
vt 0.847000 0.698000
vt 0.860000 0.996000
vt 0.907000 0.696000
vt 0.861000 0.997000
vt 0.906000 0.695000
vt 0.924000 0.993000
vt 0.846000 0.699000
vt 0.855000 0.845000
vt 0.915000 0.843000
vt 0.914000 0.842000
vt 0.854000 0.846000
vt 0.915000 0.835000
vt 0.940000 0.704000
vt 0.947000 0.835000
vt 0.908000 0.704000
vt 0.501000 0.559000
vt 0.356000 0.388000
vt 0.356000 0.559000
vt 0.501000 0.388000
vt 0.955000 0.982000
vt 0.917000 0.852000
vt 0.923000 0.982000
vt 0.949000 0.852000
vt 0.499000 0.557000
vt 0.360000 0.512000
vt 0.360000 0.557000
vt 0.499000 0.512000
vt 0.851000 0.838000
vt 0.610000 0.844000
vt 0.607000 0.837000
vt 0.851000 0.846000
vt 0.851000 0.827000
vt 0.605000 0.825000
vt 0.850000 0.812000
vt 0.605000 0.805000
vt 0.849000 0.791000
vt 0.604000 0.784000
vt 0.848000 0.771000
vt 0.793000 0.765000
vt 0.848000 0.754000
vt 0.808000 0.748000
vt 0.847000 0.742000
vt 0.815000 0.742000
vt 0.847000 0.738000
vt 0.818000 0.738000
vt 0.849000 0.838000
vt 0.607000 0.846000
vt 0.849000 0.849000
vt 0.621000 0.977000
vt 0.864000 0.988000
vt 0.864000 0.980000
vt 0.625000 0.984000
vt 0.849000 0.827000
vt 0.607000 0.825000
vt 0.621000 0.966000
vt 0.863000 0.968000
vt 0.848000 0.809000
vt 0.607000 0.808000
vt 0.621000 0.950000
vt 0.862000 0.948000
vt 0.847000 0.789000
vt 0.607000 0.787000
vt 0.622000 0.931000
vt 0.861000 0.923000
vt 0.846000 0.768000
vt 0.807000 0.768000
vt 0.821000 0.903000
vt 0.860000 0.908000
vt 0.846000 0.751000
vt 0.817000 0.750000
vt 0.831000 0.892000
vt 0.859000 0.892000
vt 0.845000 0.739000
vt 0.824000 0.738000
vt 0.838000 0.880000
vt 0.859000 0.881000
vt 0.845000 0.735000
vt 0.826000 0.734000
vt 0.840000 0.876000
vt 0.859000 0.877000
vt 0.106000 1.000000
vt 0.006000 0.803000
vt 0.006000 1.000000
vt 0.106000 0.803000
vt 0.512000 0.571000
vt 0.346000 0.187000
vt 0.346000 0.571000
vt 0.512000 0.187000
vt 0.478000 0.804000
vt 0.540000 0.668000
vt 0.478000 0.668000
vt 0.540000 0.804000
vt 0.006000 0.702000
vt 0.106000 0.702000
vt 0.346000 0.006000
vt 0.512000 0.006000
s 0
usemtl AZD_Trp
f 1/1/1 2/2/1 3/3/1
f 2/2/1 1/1/1 4/4/1
f 5/5/2 6/6/2 7/7/2
f 6/6/2 5/5/2 8/8/2
f 9/1/3 10/9/3 11/3/3
f 10/9/3 9/1/3 12/10/3
f 13/5/2 14/11/2 15/7/2
f 14/11/2 13/5/2 16/12/2
f 17/13/2 18/14/2 19/15/2
f 18/14/2 17/13/2 20/16/2
f 21/17/4 22/18/4 23/19/4
f 22/18/4 21/17/4 24/20/4
f 25/21/5 26/22/5 27/23/5
f 26/22/5 25/21/5 28/24/5
f 29/25/6 30/26/6 31/27/6
f 30/26/6 29/25/6 32/28/6
f 33/27/7 34/28/7 35/26/7
f 34/28/7 33/27/7 36/25/7
f 37/13/2 38/14/2 39/15/2
f 38/14/2 37/13/2 40/16/2
f 41/17/4 42/18/4 43/19/4
f 42/18/4 41/17/4 44/20/4
f 45/21/5 46/22/5 47/23/5
f 46/22/5 45/21/5 48/24/5
f 49/25/8 50/26/8 51/27/8
f 50/26/8 49/25/8 52/28/8
f 53/27/9 54/28/9 55/26/9
f 54/28/9 53/27/9 56/25/9
f 57/29/10 58/30/10 59/31/10
f 57/29/10 60/32/10 58/30/10
f 59/31/11 60/32/11 57/29/11
f 59/31/11 58/30/11 60/32/11
f 61/33/12 59/31/12 62/34/12
f 61/33/12 57/29/12 59/31/12
f 62/34/13 57/29/13 61/33/13
f 62/34/13 59/31/13 57/29/13
f 63/35/14 62/34/14 64/36/14
f 63/35/14 61/33/14 62/34/14
f 64/36/15 61/33/15 63/35/15
f 64/36/15 62/34/15 61/33/15
f 65/37/16 64/36/16 66/38/16
f 65/37/17 63/35/17 64/36/17
f 66/38/18 63/35/18 65/37/18
f 66/38/19 64/36/19 63/35/19
f 67/39/20 66/38/20 68/40/20
f 67/39/21 65/37/21 66/38/21
f 68/40/22 65/37/22 67/39/22
f 68/40/23 66/38/23 65/37/23
f 69/41/24 68/40/24 70/42/24
f 69/41/25 67/39/25 68/40/25
f 70/42/26 67/39/26 69/41/26
f 70/42/27 68/40/27 67/39/27
f 71/43/28 70/42/28 72/44/28
f 71/43/29 69/41/29 70/42/29
f 72/44/30 69/41/30 71/43/30
f 72/44/31 70/42/31 69/41/31
f 73/45/32 72/44/32 74/46/32
f 73/45/33 71/43/33 72/44/33
f 74/46/34 71/43/34 73/45/34
f 74/46/35 72/44/35 71/43/35
f 75/43/36 74/46/36 76/44/36
f 75/43/37 73/45/37 74/46/37
f 76/44/38 73/45/38 75/43/38
f 76/44/39 74/46/39 73/45/39
f 77/41/40 76/44/40 78/42/40
f 77/41/41 75/43/41 76/44/41
f 78/42/42 75/43/42 77/41/42
f 78/42/43 76/44/43 75/43/43
f 79/39/44 78/42/44 80/40/44
f 79/39/45 77/41/45 78/42/45
f 80/40/46 77/41/46 79/39/46
f 80/40/47 78/42/47 77/41/47
f 81/37/48 80/40/48 82/38/48
f 81/37/49 79/39/49 80/40/49
f 82/38/50 79/39/50 81/37/50
f 82/38/51 80/40/51 79/39/51
f 83/35/52 82/38/52 84/36/52
f 83/35/53 81/37/53 82/38/53
f 84/36/54 81/37/54 83/35/54
f 84/36/55 82/38/55 81/37/55
f 85/33/56 84/36/56 86/34/56
f 85/33/56 83/35/56 84/36/56
f 86/34/57 83/35/57 85/33/57
f 86/34/57 84/36/57 83/35/57
f 87/29/58 86/34/58 88/31/58
f 87/29/58 85/33/58 86/34/58
f 88/31/59 85/33/59 87/29/59
f 88/31/59 86/34/59 85/33/59
f 60/32/60 88/31/60 58/30/60
f 60/32/60 87/29/60 88/31/60
f 58/30/61 87/29/61 60/32/61
f 58/30/61 88/31/61 87/29/61
f 89/47/10 90/48/10 91/31/10
f 89/47/62 92/49/62 90/48/62
f 93/50/63 94/51/63 95/52/63
f 93/50/11 96/53/11 94/51/11
f 97/54/64 91/31/64 98/55/64
f 97/54/65 89/47/65 91/31/65
f 99/56/66 95/52/66 100/57/66
f 99/56/67 93/50/67 95/52/67
f 101/58/68 98/55/68 102/59/68
f 101/58/69 97/54/69 98/55/69
f 103/60/70 100/57/70 104/61/70
f 103/60/71 99/56/71 100/57/71
f 105/62/72 102/59/72 106/63/72
f 105/62/72 101/58/72 102/59/72
f 107/64/73 104/61/73 108/65/73
f 107/64/73 103/60/73 104/61/73
f 109/66/74 106/63/74 110/67/74
f 109/66/75 105/62/75 106/63/75
f 111/68/76 108/65/76 112/69/76
f 111/68/23 107/64/23 108/65/23
f 113/70/77 110/67/77 114/71/77
f 113/70/78 109/66/78 110/67/78
f 115/72/79 112/69/79 116/73/79
f 115/72/80 111/68/80 112/69/80
f 117/74/81 114/71/81 118/75/81
f 117/74/82 113/70/82 114/71/82
f 119/76/83 116/73/83 120/77/83
f 119/76/84 115/72/84 116/73/84
f 121/78/85 118/75/85 122/79/85
f 121/78/86 117/74/86 118/75/86
f 123/80/87 120/77/87 124/81/87
f 123/80/88 119/76/88 120/77/88
f 125/74/89 122/79/89 126/75/89
f 125/74/90 121/78/90 122/79/90
f 127/76/91 124/81/91 128/77/91
f 127/76/92 123/80/92 124/81/92
f 129/70/93 126/75/93 130/71/93
f 129/70/94 125/74/94 126/75/94
f 131/72/95 128/77/95 132/73/95
f 131/72/96 127/76/96 128/77/96
f 133/66/97 130/71/97 134/67/97
f 133/66/98 129/70/98 130/71/98
f 135/68/99 132/73/99 136/69/99
f 135/68/100 131/72/100 132/73/100
f 137/62/48 134/67/48 138/63/48
f 137/62/101 133/66/101 134/67/101
f 139/64/102 136/69/102 140/65/102
f 139/64/103 135/68/103 136/69/103
f 141/58/104 138/63/104 142/59/104
f 141/58/104 137/62/104 138/63/104
f 143/60/105 140/65/105 144/61/105
f 143/60/105 139/64/105 140/65/105
f 145/54/106 142/59/106 146/55/106
f 145/54/107 141/58/107 142/59/107
f 147/56/108 144/61/108 148/57/108
f 147/56/109 143/60/109 144/61/109
f 149/47/110 146/55/110 150/31/110
f 149/47/111 145/54/111 146/55/111
f 151/50/112 148/57/112 152/52/112
f 151/50/113 147/56/113 148/57/113
f 92/49/60 150/31/60 90/48/60
f 92/49/114 149/47/114 150/31/114
f 96/53/115 152/52/115 94/51/115
f 96/53/61 151/50/61 152/52/61
f 153/82/116 154/83/116 155/84/116
f 154/83/116 153/82/116 156/85/116
f 157/1/5 158/2/5 159/3/5
f 158/2/5 157/1/5 160/4/5
f 161/5/2 162/6/2 163/7/2
f 162/6/2 161/5/2 164/8/2
f 165/86/117 166/87/117 167/88/117
f 166/87/117 165/86/117 168/89/117
f 169/90/118 170/91/118 171/92/118
f 170/91/118 169/90/118 172/93/118
f 173/29/119 174/30/119 175/31/119
f 173/29/120 176/32/120 174/30/120
f 175/31/121 176/32/121 173/29/121
f 175/31/122 174/30/122 176/32/122
f 177/33/12 175/31/12 178/34/12
f 177/33/123 173/29/123 175/31/123
f 178/34/66 173/29/66 177/33/66
f 178/34/124 175/31/124 173/29/124
f 179/35/125 178/34/125 180/36/125
f 179/35/69 177/33/69 178/34/69
f 180/36/126 177/33/126 179/35/126
f 180/36/15 178/34/15 177/33/15
f 181/37/17 180/36/17 182/38/17
f 181/37/127 179/35/127 180/36/127
f 182/38/73 179/35/73 181/37/73
f 182/38/18 180/36/18 179/35/18
f 183/39/74 182/38/74 184/40/74
f 183/39/75 181/37/75 182/38/75
f 184/40/76 181/37/76 183/39/76
f 184/40/23 182/38/23 181/37/23
f 185/41/77 184/40/77 186/42/77
f 185/41/78 183/39/78 184/40/78
f 186/42/79 183/39/79 185/41/79
f 186/42/80 184/40/80 183/39/80
f 187/43/128 186/42/128 188/44/128
f 187/43/82 185/41/82 186/42/82
f 188/44/129 185/41/129 187/43/129
f 188/44/130 186/42/130 185/41/130
f 189/45/131 188/44/131 190/46/131
f 189/45/132 187/43/132 188/44/132
f 190/46/133 187/43/133 189/45/133
f 190/46/134 188/44/134 187/43/134
f 191/43/135 190/46/135 192/44/135
f 191/43/90 189/45/90 190/46/90
f 192/44/136 189/45/136 191/43/136
f 192/44/137 190/46/137 189/45/137
f 193/41/138 192/44/138 194/42/138
f 193/41/139 191/43/139 192/44/139
f 194/42/95 191/43/95 193/41/95
f 194/42/140 192/44/140 191/43/140
f 195/39/141 194/42/141 196/40/141
f 195/39/98 193/41/98 194/42/98
f 196/40/99 193/41/99 195/39/99
f 196/40/100 194/42/100 193/41/100
f 197/37/48 196/40/48 198/38/48
f 197/37/101 195/39/101 196/40/101
f 198/38/102 195/39/102 197/37/102
f 198/38/103 196/40/103 195/39/103
f 199/35/53 198/38/53 200/36/53
f 199/35/104 197/37/104 198/38/104
f 200/36/142 197/37/142 199/35/142
f 200/36/54 198/38/54 197/37/54
f 201/33/56 200/36/56 202/34/56
f 201/33/143 199/35/143 200/36/143
f 202/34/108 199/35/108 201/33/108
f 202/34/144 200/36/144 199/35/144
f 203/29/145 202/34/145 204/31/145
f 203/29/111 201/33/111 202/34/111
f 204/31/146 201/33/146 203/29/146
f 204/31/59 202/34/59 201/33/59
f 176/32/147 204/31/147 174/30/147
f 176/32/148 203/29/148 204/31/148
f 174/30/149 203/29/149 176/32/149
f 174/30/150 204/31/150 203/29/150
f 205/13/2 206/14/2 207/15/2
f 206/14/2 205/13/2 208/16/2
f 209/17/151 210/18/151 211/19/151
f 210/18/151 209/17/151 212/20/151
f 213/21/5 214/22/5 215/23/5
f 214/22/5 213/21/5 216/24/5
f 217/25/6 218/26/6 219/27/6
f 218/26/6 217/25/6 220/28/6
f 221/27/152 222/28/152 223/26/152
f 222/28/152 221/27/152 224/25/152
f 225/47/153 226/48/153 227/31/153
f 225/47/153 228/49/153 226/48/153
f 229/50/154 230/51/154 231/52/154
f 229/50/154 232/53/154 230/51/154
f 233/54/12 227/31/12 234/55/12
f 233/54/155 225/47/155 227/31/155
f 235/56/156 231/52/156 236/57/156
f 235/56/13 229/50/13 231/52/13
f 237/58/14 234/55/14 238/59/14
f 237/58/14 233/54/14 234/55/14
f 239/60/15 236/57/15 240/61/15
f 239/60/15 235/56/15 236/57/15
f 241/62/16 238/59/16 242/63/16
f 241/62/157 237/58/157 238/59/157
f 243/64/158 240/61/158 244/65/158
f 243/64/19 239/60/19 240/61/19
f 245/66/159 242/63/159 246/67/159
f 245/66/21 241/62/21 242/63/21
f 247/68/22 244/65/22 248/69/22
f 247/68/160 243/64/160 244/65/160
f 249/70/161 246/67/161 250/71/161
f 249/70/162 245/66/162 246/67/162
f 251/72/163 248/69/163 252/73/163
f 251/72/164 247/68/164 248/69/164
f 253/74/165 250/71/165 254/75/165
f 253/74/166 249/70/166 250/71/166
f 255/76/167 252/73/167 256/77/167
f 255/76/168 251/72/168 252/73/168
f 257/78/169 254/75/169 258/79/169
f 257/78/170 253/74/170 254/75/170
f 259/80/133 256/77/133 260/81/133
f 259/80/171 255/76/171 256/77/171
f 261/74/172 258/79/172 262/75/172
f 261/74/90 257/78/90 258/79/90
f 263/76/173 260/81/173 264/77/173
f 263/76/174 259/80/174 260/81/174
f 265/70/175 262/75/175 266/71/175
f 265/70/176 261/74/176 262/75/176
f 267/72/177 264/77/177 268/73/177
f 267/72/178 263/76/178 264/77/178
f 269/66/179 266/71/179 270/67/179
f 269/66/180 265/70/180 266/71/180
f 271/68/181 268/73/181 272/69/181
f 271/68/182 267/72/182 268/73/182
f 273/62/183 270/67/183 274/63/183
f 273/62/49 269/66/49 270/67/49
f 275/64/50 272/69/50 276/65/50
f 275/64/184 271/68/184 272/69/184
f 277/58/52 274/63/52 278/59/52
f 277/58/185 273/62/185 274/63/185
f 279/60/186 276/65/186 280/61/186
f 279/60/55 275/64/55 276/65/55
f 281/54/56 278/59/56 282/55/56
f 281/54/56 277/58/56 278/59/56
f 283/56/57 280/61/57 284/57/57
f 283/56/57 279/60/57 280/61/57
f 285/47/58 282/55/58 286/31/58
f 285/47/187 281/54/187 282/55/187
f 287/50/188 284/57/188 288/52/188
f 287/50/59 283/56/59 284/57/59
f 228/49/60 286/31/60 226/48/60
f 228/49/60 285/47/60 286/31/60
f 232/53/61 288/52/61 230/51/61
f 232/53/61 287/50/61 288/52/61
f 289/13/2 290/14/2 291/15/2
f 290/14/2 289/13/2 292/16/2
f 293/17/4 294/18/4 295/19/4
f 294/18/4 293/17/4 296/20/4
f 297/21/5 298/22/5 299/23/5
f 298/22/5 297/21/5 300/24/5
f 301/25/6 302/26/6 303/27/6
f 302/26/6 301/25/6 304/28/6
f 305/27/7 306/28/7 307/26/7
f 306/28/7 305/27/7 308/25/7
f 309/13/2 310/14/2 311/15/2
f 310/14/2 309/13/2 312/16/2
f 313/17/4 314/18/4 315/19/4
f 314/18/4 313/17/4 316/20/4
f 317/21/5 318/22/5 319/23/5
f 318/22/5 317/21/5 320/24/5
f 321/25/8 322/26/8 323/27/8
f 322/26/8 321/25/8 324/28/8
f 325/27/9 326/28/9 327/26/9
f 326/28/9 325/27/9 328/25/9
f 329/29/153 330/30/153 331/31/153
f 329/29/153 332/32/153 330/30/153
f 331/31/154 332/32/154 329/29/154
f 331/31/154 330/30/154 332/32/154
f 333/33/12 331/31/12 334/34/12
f 333/33/12 329/29/12 331/31/12
f 334/34/13 329/29/13 333/33/13
f 334/34/13 331/31/13 329/29/13
f 335/35/14 334/34/14 336/36/14
f 335/35/14 333/33/14 334/34/14
f 336/36/15 333/33/15 335/35/15
f 336/36/15 334/34/15 333/33/15
f 337/37/16 336/36/16 338/38/16
f 337/37/17 335/35/17 336/36/17
f 338/38/18 335/35/18 337/37/18
f 338/38/19 336/36/19 335/35/19
f 339/39/20 338/38/20 340/40/20
f 339/39/21 337/37/21 338/38/21
f 340/40/22 337/37/22 339/39/22
f 340/40/23 338/38/23 337/37/23
f 341/41/24 340/40/24 342/42/24
f 341/41/25 339/39/25 340/40/25
f 342/42/26 339/39/26 341/41/26
f 342/42/27 340/40/27 339/39/27
f 343/43/28 342/42/28 344/44/28
f 343/43/29 341/41/29 342/42/29
f 344/44/30 341/41/30 343/43/30
f 344/44/31 342/42/31 341/41/31
f 345/45/189 344/44/189 346/46/189
f 345/45/190 343/43/190 344/44/190
f 346/46/191 343/43/191 345/45/191
f 346/46/192 344/44/192 343/43/192
f 347/43/36 346/46/36 348/44/36
f 347/43/37 345/45/37 346/46/37
f 348/44/38 345/45/38 347/43/38
f 348/44/39 346/46/39 345/45/39
f 349/41/40 348/44/40 350/42/40
f 349/41/41 347/43/41 348/44/41
f 350/42/42 347/43/42 349/41/42
f 350/42/43 348/44/43 347/43/43
f 351/39/44 350/42/44 352/40/44
f 351/39/45 349/41/45 350/42/45
f 352/40/46 349/41/46 351/39/46
f 352/40/47 350/42/47 349/41/47
f 353/37/48 352/40/48 354/38/48
f 353/37/49 351/39/49 352/40/49
f 354/38/50 351/39/50 353/37/50
f 354/38/51 352/40/51 351/39/51
f 355/35/52 354/38/52 356/36/52
f 355/35/53 353/37/53 354/38/53
f 356/36/54 353/37/54 355/35/54
f 356/36/55 354/38/55 353/37/55
f 357/33/56 356/36/56 358/34/56
f 357/33/56 355/35/56 356/36/56
f 358/34/57 355/35/57 357/33/57
f 358/34/57 356/36/57 355/35/57
f 359/29/58 358/34/58 360/31/58
f 359/29/58 357/33/58 358/34/58
f 360/31/59 357/33/59 359/29/59
f 360/31/59 358/34/59 357/33/59
f 332/32/60 360/31/60 330/30/60
f 332/32/60 359/29/60 360/31/60
f 330/30/61 359/29/61 332/32/61
f 330/30/61 360/31/61 359/29/61
f 361/82/193 362/94/193 363/84/193
f 362/94/193 361/82/193 364/95/193
f 365/86/194 366/96/194 367/88/194
f 366/96/194 365/86/194 368/97/194
f 369/90/195 370/91/195 371/92/195
f 370/91/195 369/90/195 372/93/195
o zaklad_5svet
v 0.030900 0.104934 -0.159135
v 0.030900 0.089546 -0.182186
v 0.030900 0.103883 -0.182804
v 0.030900 0.090596 -0.158517
v 0.030900 0.103883 -0.182804
v 0.185400 0.089546 -0.182186
v 0.185400 0.103883 -0.182804
v 0.030900 0.089546 -0.182186
v 0.185400 0.103883 -0.182804
v 0.185400 0.090596 -0.158517
v 0.185400 0.104934 -0.159135
v 0.185400 0.089546 -0.182186
v 0.185400 0.103883 -0.182804
v 0.030900 0.104934 -0.159135
v 0.030900 0.103883 -0.182804
v 0.185400 0.104934 -0.159135
v 0.185400 0.089546 -0.182186
v 0.030900 0.090596 -0.158517
v 0.185400 0.090596 -0.158517
v 0.030900 0.089546 -0.182186
v 0.050676 0.119580 -0.184411
v 0.028861 0.084972 -0.158579
v 0.050676 0.083304 -0.182001
v 0.028861 0.121187 -0.160989
v 0.165562 0.083304 -0.182001
v 0.187378 0.121187 -0.160989
v 0.165562 0.119580 -0.184411
v 0.187378 0.084972 -0.158579
v 0.165562 0.119580 -0.184411
v 0.028861 0.121187 -0.160989
v 0.050676 0.119580 -0.184411
v 0.187378 0.121187 -0.160989
v 0.050676 0.083304 -0.182001
v 0.187378 0.084972 -0.158579
v 0.165562 0.083304 -0.182001
v 0.028861 0.084972 -0.158579
v 0.028861 0.130890 -0.032074
v 0.028861 0.084972 -0.158579
v 0.028861 0.121187 -0.160989
v 0.028861 0.094613 -0.029726
v 0.187378 0.121187 -0.160989
v 0.187378 0.094613 -0.029726
v 0.187378 0.130890 -0.032074
v 0.187378 0.084972 -0.158579
v 0.028861 0.130890 -0.032074
v 0.187378 0.130890 -0.032074
v 0.028861 0.094613 -0.029726
v 0.187378 0.094613 -0.029726
v 0.151534 0.072056 -0.135218
v 0.163894 0.093686 -0.156663
v 0.163894 0.072056 -0.156663
v 0.151534 0.093686 -0.135218
v 0.126814 0.072056 -0.135218
v 0.126814 0.093686 -0.135218
v 0.114454 0.072056 -0.156663
v 0.114454 0.093686 -0.156663
v 0.126814 0.072056 -0.178046
v 0.126814 0.093686 -0.178046
v 0.151534 0.072056 -0.178046
v 0.151534 0.093686 -0.178046
v 0.139174 0.072056 -0.156663
v 0.151101 0.073601 -0.163523
v 0.139174 0.073601 -0.142882
v 0.127308 0.073601 -0.163523
v -0.199243 0.040415 0.097582
v -0.199243 0.128912 0.108150
v -0.199243 0.128109 0.094060
v -0.016995 0.128912 0.108150
v -0.016995 0.128109 0.094060
v -0.016995 0.040415 0.097582
v -0.192322 0.142879 0.035288
v -0.167231 0.142879 0.035288
v -0.167231 0.117850 0.092020
v -0.167231 0.117850 0.092020
v -0.190220 0.117850 0.092020
v -0.192322 0.142879 0.035288
v -0.192322 0.142879 0.035288
v -0.190220 0.117850 0.092020
v -0.167231 0.117850 0.092020
v -0.167231 0.142879 0.035288
v -0.023978 0.142879 0.035288
v -0.049069 0.117850 0.092020
v -0.049069 0.142879 0.035288
v -0.049069 0.117850 0.092020
v -0.023978 0.142879 0.035288
v -0.026141 0.117850 0.092020
v -0.023978 0.142879 0.035288
v -0.049069 0.117850 0.092020
v -0.026141 0.117850 0.092020
v -0.049069 0.142879 0.035288
v -0.185400 0.104934 -0.159135
v -0.185400 0.089546 -0.182186
v -0.185400 0.103883 -0.182804
v -0.185400 0.090596 -0.158517
v -0.185400 0.103883 -0.182804
v -0.030900 0.089546 -0.182186
v -0.030900 0.103883 -0.182804
v -0.185400 0.089546 -0.182186
v -0.030900 0.103883 -0.182804
v -0.030900 0.090596 -0.158517
v -0.030900 0.104934 -0.159135
v -0.030900 0.089546 -0.182186
v -0.030900 0.103883 -0.182804
v -0.185400 0.104934 -0.159135
v -0.185400 0.103883 -0.182804
v -0.030900 0.104934 -0.159135
v -0.030900 0.089546 -0.182186
v -0.185400 0.090596 -0.158517
v -0.030900 0.090596 -0.158517
v -0.185400 0.089546 -0.182186
v -0.217103 0.092079 0.071564
v -0.217103 0.092079 -0.108953
v 0.217103 0.092079 -0.108953
v 0.217103 0.092079 0.071564
v -0.165562 0.119580 -0.184411
v -0.187378 0.084972 -0.158579
v -0.165562 0.083304 -0.182001
v -0.187378 0.121187 -0.160989
v -0.050676 0.083304 -0.182001
v -0.028861 0.121187 -0.160989
v -0.050676 0.119580 -0.184411
v -0.028861 0.084972 -0.158579
v -0.050676 0.119580 -0.184411
v -0.187378 0.121187 -0.160989
v -0.165562 0.119580 -0.184411
v -0.028861 0.121187 -0.160989
v -0.165562 0.083304 -0.182001
v -0.028861 0.084972 -0.158579
v -0.050676 0.083304 -0.182001
v -0.187378 0.084972 -0.158579
v -0.241638 0.071438 0.076508
v 0.241638 0.071438 0.076508
v 0.244110 0.034791 0.084233
v -0.243925 0.034791 0.084233
v -0.217103 0.092079 0.071564
v 0.217103 0.092079 0.071564
v 0.241638 0.071438 0.076508
v 0.241329 0.071315 -0.133179
v 0.244110 0.034791 0.084233
v 0.217103 0.092079 0.071564
v 0.217103 0.092079 -0.108953
v -0.241329 0.071315 -0.133488
v -0.217103 0.092079 0.071564
v -0.241638 0.071438 0.076508
v -0.243925 0.034791 0.084233
v -0.243925 0.034853 0.133303
v -0.243925 0.034853 0.133303
v 0.244110 0.034853 0.133303
v 0.244110 0.034853 0.133303
v -0.199243 0.128109 0.094060
v -0.016995 0.040415 0.097582
v -0.016995 0.128109 0.094060
v -0.199243 0.040415 0.097582
v -0.016995 0.128109 0.094060
v -0.199243 0.040415 0.097582
v -0.199243 0.128109 0.094060
v -0.016995 0.040415 0.097582
v -0.187378 0.130890 -0.032074
v -0.187378 0.084972 -0.158579
v -0.187378 0.121187 -0.160989
v -0.187378 0.094613 -0.029726
v -0.028861 0.121187 -0.160989
v -0.028861 0.094613 -0.029726
v -0.028861 0.130890 -0.032074
v -0.028861 0.084972 -0.158579
v -0.187378 0.130890 -0.032074
v -0.028861 0.130890 -0.032074
v -0.187378 0.094613 -0.029726
v -0.028861 0.094613 -0.029726
v -0.064705 0.072056 -0.135218
v -0.052345 0.093686 -0.156663
v -0.052345 0.072056 -0.156663
v -0.064705 0.093686 -0.135218
v -0.089425 0.072056 -0.135218
v -0.089425 0.093686 -0.135218
v -0.101785 0.072056 -0.156663
v -0.101785 0.093686 -0.156663
v -0.089425 0.072056 -0.178046
v -0.089425 0.093686 -0.178046
v -0.064705 0.072056 -0.178046
v -0.064705 0.093686 -0.178046
v -0.077065 0.072056 -0.156663
v -0.065137 0.073601 -0.163523
v -0.077065 0.073601 -0.142882
v -0.088930 0.073601 -0.163523
v -0.217103 0.092079 -0.108953
v -0.217103 0.092079 -0.108953
v 0.241329 0.071315 -0.133179
v 0.217103 0.092079 -0.108953
v -0.241329 0.071315 -0.133488
v 0.208884 0.145598 0.034855
v -0.208884 0.145598 0.034855
v -0.208884 0.136946 -0.049378
v 0.208884 0.136946 -0.049378
v -0.208884 0.090534 -0.049007
v -0.208884 0.136946 -0.049378
v -0.208884 0.090905 0.035164
v -0.208884 0.145598 0.034855
v 0.208884 0.090534 -0.049007
v 0.208884 0.136946 -0.049378
v -0.208884 0.090534 -0.049007
v -0.208884 0.136946 -0.049378
v 0.208884 0.090905 0.035164
v 0.208884 0.145598 0.034855
v 0.208884 0.090534 -0.049007
v 0.208884 0.136946 -0.049378
v -0.208884 0.090905 0.035164
v -0.208884 0.145598 0.034855
v 0.208884 0.090905 0.035164
v 0.208884 0.145598 0.034855
v 0.243972 0.000000 -0.087875
v 0.148525 0.000000 -0.164337
v -0.137013 -0.000000 -0.135818
v 0.243972 0.000000 -0.135574
v 0.245237 0.000000 0.127370
v 0.136611 0.000000 -0.152597
v -0.088930 0.000000 -0.168781
v -0.243972 0.000000 -0.135818
v -0.243972 0.000000 -0.135818
v 0.186655 -0.000000 0.134886
v 0.245235 0.000000 0.083963
v 0.245237 0.000000 0.134886
v -0.067713 0.000000 -0.164337
v -0.245073 -0.000000 0.134886
v 0.139174 0.000000 -0.148153
v -0.245071 0.000000 0.083963
v -0.065137 0.000000 -0.168781
v 0.132446 0.000000 -0.168781
v -0.079627 0.000000 -0.152597
v -0.245071 0.000000 0.091466
v 0.127308 0.000000 -0.168781
v -0.077065 0.000000 -0.148153
v -0.083792 0.000000 -0.168781
v -0.245071 0.000000 0.057879
v 0.151101 0.000000 -0.168781
v -0.245073 0.000000 0.134886
v 0.245237 0.000000 0.134886
v 0.243972 0.000000 -0.135574
vn -1.0000 -0.0000 -0.0000
vn -0.0000 -0.0431 -0.9991
vn 1.0000 -0.0000 -0.0000
vn -0.0000 0.9990 -0.0443
vn -0.0000 -0.9990 0.0443
vn -0.7326 -0.0451 -0.6791
vn -0.7326 -0.0452 -0.6792
vn 0.7326 -0.0451 -0.6792
vn 0.7326 -0.0452 -0.6791
vn -0.0000 0.9977 -0.0684
vn -0.0000 -0.9975 0.0711
vn -0.0000 -0.0663 -0.9978
vn -0.0000 0.9972 -0.0751
vn -0.0000 -0.9972 0.0746
vn 0.8664 -0.0000 0.4994
vn -0.0000 -0.0000 1.0000
vn -0.8664 -0.0000 0.4994
vn -0.8658 -0.0000 -0.5004
vn -0.0000 -0.0000 -1.0000
vn 0.8658 -0.0000 -0.5004
vn -0.0000 -1.0000 -0.0000
vn -0.0000 -0.9984 0.0569
vn -0.0000 0.9984 -0.0569
vn -0.0000 0.9149 0.4036
vn -0.0000 -0.9149 -0.4036
vn -0.0000 1.0000 -0.0000
vn -0.0000 0.2063 0.9785
vn -0.0000 0.2329 0.9725
vn 0.9978 0.0670 -0.0015
vn 0.6508 0.7593 -0.0000
vn 0.6439 0.7651 -0.0014
vn -0.6439 0.7651 -0.0014
vn -0.9995 0.0329 -0.0000
vn -0.0000 1.0000 -0.0013
vn 0.9995 0.0323 -0.0000
vn -0.0000 -0.0401 -0.9992
vn -0.0000 0.0401 0.9992
vn -0.6508 0.7593 -0.0000
vn -0.9981 0.0620 -0.0015
vn -0.0000 0.7593 -0.6508
vn 0.0004 0.7631 -0.6463
vn -0.9993 0.0372 -0.0057
vn 0.0006 0.0336 -0.9994
vn 0.9994 0.0324 -0.0073
vn -0.0000 0.0454 0.9990
vn -0.0000 0.9948 -0.1022
vn -0.0000 -0.0080 -1.0000
vn -0.0000 0.0056 1.0000
vn -0.8664 -0.0356 0.4981
vn -0.0000 0.0713 -0.9975
vn 0.8653 -0.0358 0.5000
vn -0.0000 0.0327 -0.9995
vn 0.9993 0.0370 -0.0000
vn 0.8646 -0.0358 0.5011
vn -0.8658 -0.0358 0.4992
vt 0.978000 0.683000
vt 0.992000 0.667000
vt 0.992000 0.683000
vt 0.978000 0.667000
vt 0.767000 0.734000
vt 0.611000 0.714000
vt 0.611000 0.734000
vt 0.767000 0.714000
vt 0.989000 0.328000
vt 0.967000 0.498000
vt 0.989000 0.498000
vt 0.967000 0.328000
vt 0.747000 0.745000
vt 0.769000 0.713000
vt 0.747000 0.712000
vt 0.769000 0.746000
vt 0.631000 0.712000
vt 0.609000 0.746000
vt 0.631000 0.745000
vt 0.609000 0.713000
vt 0.989000 0.350000
vt 0.967000 0.500000
vt 0.989000 0.477000
vt 0.967000 0.326000
vt 0.899000 0.694000
vt 0.979000 0.666000
vt 0.979000 0.690000
vt 0.899000 0.669000
vt 0.855000 0.500000
vt 0.855000 0.326000
vt 0.646000 0.695000
vt 0.633000 0.714000
vt 0.633000 0.694000
vt 0.645000 0.714000
vt 0.670000 0.695000
vt 0.670000 0.714000
vt 0.683000 0.694000
vt 0.683000 0.714000
vt 0.658000 0.695000
vt 0.659000 0.224000
vt 0.659000 0.318000
vt 0.811000 0.318000
vt 0.811000 0.224000
vt 0.462000 0.646000
vt 0.387000 0.646000
vt 0.387000 0.630000
vt 0.472000 0.601000
vt 0.472000 0.625000
vt 0.377000 0.625000
vt 0.377000 0.601000
vt 0.820000 0.524000
vt 0.898000 0.524000
vt 0.898000 0.605000
vt 0.820000 0.605000
vt 0.819000 0.642000
vt 0.941000 0.642000
vt 0.941000 0.622000
vt 0.819000 0.622000
vt 0.819000 0.664000
vt 0.941000 0.664000
vt 0.814000 0.648000
vt 0.959000 0.641000
vt 0.805000 0.616000
vt 0.819000 0.668000
vt 0.940000 0.665000
vt 0.802811 0.603098
vt 0.805115 0.602983
vt 0.819000 0.600000
vt 0.941000 0.600000
vt 0.789000 0.615000
vt 0.790961 0.602078
vt 0.788654 0.602193
vt 0.346000 0.659000
vt 0.510000 0.574000
vt 0.510000 0.659000
vt 0.346000 0.574000
vt 0.993000 0.321000
vt 0.817000 0.224000
vt 0.817000 0.321000
vt 0.993000 0.224000
vt 0.817000 0.664000
vt 0.817000 0.642000
vt 0.822740 0.603559
vt 0.843121 0.612930
vt 0.926770 0.611930
vt 0.926924 0.588924
vt 0.000000 0.000000
vt 0.642000 0.364000
vt 0.603000 0.364000
vt 0.601000 0.434000
vt 0.601000 0.404000
vt 0.631000 0.434000
vt 0.631000 0.404000
vt 0.520000 0.478000
vt 0.520000 0.440000
vt 0.727000 0.478000
vt 0.727000 0.440000
vt 0.660591 0.672541
vt 0.664817 0.672541
vt 0.658000 0.672541
vt 0.648591 0.672541
vt 0.660591 0.672541
vt 0.817000 0.612930
vt 0.959000 0.612983
vt 0.941000 0.588924
vt 0.646000 0.672541
vt 0.670000 0.672541
vt 0.670000 0.672541
vt 0.646000 0.672541
vt 0.805115 0.602983
vt 0.941000 0.612930
vt 0.819000 0.588924
s 0
usemtl AZD_Trp
f 373/98/196 375/100/196 374/99/196
f 374/99/196 376/101/196 373/98/196
f 377/102/197 379/104/197 378/103/197
f 378/103/197 380/105/197 377/102/197
f 381/100/198 383/98/198 382/101/198
f 382/101/198 384/99/198 381/100/198
f 385/106/199 387/108/199 386/107/199
f 386/107/199 388/109/199 385/106/199
f 389/106/200 391/109/200 390/107/200
f 390/107/200 392/108/200 389/106/200
f 393/110/201 395/112/201 394/111/201
f 394/111/202 396/113/202 393/110/202
f 397/114/203 399/116/203 398/115/203
f 398/115/204 400/117/204 397/114/204
f 401/118/205 403/120/205 402/119/205
f 402/119/205 404/121/205 401/118/205
f 405/120/206 407/118/206 406/121/206
f 406/121/206 408/119/206 405/120/206
f 409/122/196 411/124/196 410/123/196
f 410/123/196 412/125/196 409/122/196
f 393/110/207 399/116/207 397/114/207
f 397/114/207 395/112/207 393/110/207
f 413/124/198 415/122/198 414/125/198
f 414/125/198 416/123/198 413/124/198
f 404/121/208 402/119/208 417/126/208
f 417/126/208 418/127/208 404/121/208
f 406/121/209 420/127/209 419/126/209
f 419/126/209 408/119/209 406/121/209
f 421/128/210 423/130/210 422/129/210
f 421/128/210 422/129/210 424/131/210
f 425/132/211 421/128/211 424/131/211
f 425/132/211 424/131/211 426/133/211
f 427/134/212 425/132/212 426/133/212
f 427/134/212 426/133/212 428/135/212
f 429/132/213 427/134/213 428/135/213
f 429/132/213 428/135/213 430/133/213
f 431/128/214 429/132/214 430/133/214
f 431/128/214 430/133/214 432/131/214
f 423/130/215 431/128/215 432/131/215
f 423/130/215 432/131/215 422/129/215
f 433/136/216 423/130/216 421/128/216
f 433/136/216 421/128/216 425/132/216
f 433/136/216 425/132/216 427/134/216
f 433/136/216 427/134/216 429/132/216
f 433/136/216 429/132/216 431/128/216
f 433/136/216 431/128/216 423/130/216
f 437/137/198 439/138/198 438/138/198
f 439/138/217 441/139/217 440/139/217
f 440/139/217 438/138/217 439/138/217
f 438/138/218 440/139/218 441/139/218
f 441/139/218 439/138/218 438/138/218
f 442/140/198 441/139/198 440/139/198
f 443/141/219 445/143/219 444/142/219
f 446/144/219 448/146/219 447/145/219
f 449/147/220 451/145/220 450/144/220
f 451/145/220 449/147/220 452/146/220
f 453/141/219 455/142/219 454/143/219
f 456/144/219 458/145/219 457/146/219
f 459/147/220 461/144/220 460/145/220
f 460/145/220 462/146/220 459/147/220
f 463/98/196 465/100/196 464/99/196
f 464/99/196 466/101/196 463/98/196
f 467/102/197 469/104/197 468/103/197
f 468/103/197 470/105/197 467/102/197
f 471/100/198 473/98/198 472/101/198
f 472/101/198 474/99/198 471/100/198
f 475/106/199 477/108/199 476/107/199
f 476/107/199 478/109/199 475/106/199
f 479/106/200 481/109/200 480/107/200
f 480/107/200 482/108/200 479/106/200
f 483/148/221 485/150/221 484/149/221
f 483/148/221 486/151/221 485/150/221
f 487/110/201 489/112/201 488/111/201
f 488/111/202 490/113/202 487/110/202
f 491/114/203 493/116/203 492/115/203
f 492/115/204 494/117/204 491/114/204
f 495/118/205 497/120/205 496/119/205
f 496/119/205 498/121/205 495/118/205
f 499/120/206 501/118/206 500/121/206
f 500/121/206 502/119/206 499/120/206
f 503/152/222 505/154/222 504/153/222
f 503/152/222 506/155/222 505/154/222
f 507/156/223 504/153/223 508/157/223
f 507/156/223 503/152/223 504/153/223
f 509/158/224 511/160/224 510/159/224
f 512/161/225 510/159/225 513/162/225
f 512/161/226 509/158/226 510/159/226
f 514/159/227 516/158/227 515/161/227
f 517/160/228 598/164/228 602/163/228
f 519/165/229 520/166/229 505/154/229
f 505/154/229 506/155/229 519/165/229
f 521/167/230 594/169/230 587/168/230
f 522/170/231 524/172/231 523/171/231
f 523/171/231 525/173/231 522/170/231
f 526/174/232 528/176/232 527/175/232
f 527/175/232 529/177/232 526/174/232
f 530/122/196 532/124/196 531/123/196
f 531/123/196 533/125/196 530/122/196
f 487/110/207 493/116/207 491/114/207
f 491/114/207 489/112/207 487/110/207
f 534/124/198 536/122/198 535/125/198
f 535/125/198 537/123/198 534/124/198
f 498/121/208 496/119/208 538/126/208
f 538/126/208 539/127/208 498/121/208
f 500/121/209 541/127/209 540/126/209
f 540/126/209 502/119/209 500/121/209
f 542/128/210 544/130/210 543/129/210
f 542/128/210 543/129/210 545/131/210
f 546/132/211 542/128/211 545/131/211
f 546/132/211 545/131/211 547/133/211
f 548/134/212 546/132/212 547/133/212
f 548/134/212 547/133/212 549/135/212
f 550/132/213 548/134/213 549/135/213
f 550/132/213 549/135/213 551/133/213
f 552/128/214 550/132/214 551/133/214
f 552/128/214 551/133/214 553/131/214
f 544/130/215 552/128/215 553/131/215
f 544/130/215 553/131/215 543/129/215
f 554/136/216 544/130/216 542/128/216
f 554/136/216 542/128/216 546/132/216
f 554/136/216 546/132/216 548/134/216
f 554/136/216 548/134/216 550/132/216
f 554/136/216 550/132/216 552/128/216
f 554/136/216 552/128/216 544/130/216
f 515/161/233 558/162/233 514/159/233
f 514/159/234 517/160/234 516/158/234
f 559/178/235 561/157/235 560/153/235
f 560/153/236 562/179/236 559/178/236
f 606/180/237 517/160/237 514/159/237
f 585/181/238 562/179/238 560/153/238
f 583/182/239 510/159/239 511/160/239
f 592/183/240 520/166/240 519/165/240
f 594/184/216 591/184/216 610/184/216
f 563/185/241 565/185/241 564/186/241
f 563/185/241 566/185/241 565/185/241
f 567/187/196 569/189/196 568/188/196
f 570/190/196 568/188/196 569/189/196
f 571/191/242 573/193/242 572/192/242
f 574/194/242 572/192/242 573/193/242
f 575/187/198 577/189/198 576/188/198
f 578/190/198 576/188/198 577/189/198
f 579/191/243 581/193/243 580/192/243
f 582/194/243 580/192/243 581/193/243
f 588/195/244 435/136/244 436/132/244
f 600/196/245 436/132/245 434/128/245
f 602/163/228 608/169/228 518/167/228
f 604/197/246 595/198/246 555/128/246
f 601/199/244 556/136/244 557/132/244
f 605/196/245 557/132/245 555/128/245
f 598/164/228 517/160/228 606/180/228
f 591/200/247 562/179/247 585/181/247
f 586/201/248 510/159/248 583/182/248
f 609/202/240 520/166/240 592/183/240
f 607/203/249 434/128/249 584/198/249
f 597/197/250 435/136/250 588/195/250
f 603/204/245 436/132/245 600/196/245
f 604/197/250 556/136/250 601/199/250
f 589/205/245 557/132/245 605/196/245
f 599/206/249 555/128/249 595/198/249
f 587/168/230 593/207/230 511/160/230
f 597/197/246 584/198/246 434/128/246
f 595/198/216 601/199/216 605/196/216
f 588/195/216 600/196/216 584/198/216
f 606/180/237 514/159/237 590/201/237
f 585/181/238 560/153/238 610/208/238
f 583/182/239 511/160/239 593/207/239
f 592/183/240 519/165/240 596/209/240
f 608/184/214 609/184/214 596/184/214
f 608/184/216 594/184/216 609/184/216
f 591/184/216 608/184/216 590/184/216
f 591/184/216 594/184/216 608/184/216
f 610/184/216 591/184/216 586/184/216
f 588/195/244 436/132/244 603/204/244
f 600/196/245 434/128/245 607/203/245
f 602/163/228 518/167/228 517/160/228
f 604/197/246 555/128/246 556/136/246
f 601/199/244 557/132/244 589/205/244
f 605/196/245 555/128/245 599/206/245
f 587/168/230 511/160/230 521/167/230
f 597/197/246 434/128/246 435/136/246
f 595/198/216 605/196/216 599/206/216
f 605/196/216 601/199/216 589/205/216
f 601/199/216 595/198/216 604/197/216
f 600/196/216 588/195/216 603/204/216
f 588/195/216 584/198/216 597/197/216
f 584/198/216 600/196/216 607/203/216
o zelena_5svet
v -0.034869 0.393978 0.014575
v -0.029687 0.409866 0.013185
v -0.027934 0.426481 0.011732
v -0.054475 0.367095 0.016927
v -0.043254 0.379510 0.015841
v -0.029687 0.443096 0.010278
v -0.083362 0.350481 0.018381
v -0.068042 0.357276 0.017786
v -0.043254 0.473452 0.007622
v -0.034869 0.458984 0.008888
v -0.068042 0.495686 0.005677
v -0.054475 0.485866 0.006536
v -0.116535 0.347007 0.018685
v -0.099765 0.347007 0.018685
v -0.099765 0.505955 0.004779
v -0.148258 0.357276 0.017786
v -0.132938 0.350481 0.018381
v -0.083362 0.502481 0.005083
v -0.132938 0.502481 0.005083
v -0.116535 0.505955 0.004779
v -0.161825 0.485866 0.006536
v -0.148258 0.495686 0.005677
v -0.181431 0.458984 0.008888
v -0.173046 0.473452 0.007622
v -0.173046 0.379510 0.015841
v -0.161825 0.367095 0.016927
v -0.188366 0.426481 0.011732
v -0.186613 0.409866 0.013185
v -0.181431 0.393978 0.014575
v -0.186613 0.443096 0.010278
vn -0.0000 0.0872 0.9962
vt 0.260033 0.824246
vt 0.252107 0.848772
vt 0.249426 0.874420
vt 0.290019 0.782746
vt 0.272857 0.801911
vt 0.334199 0.757098
vt 0.310768 0.767588
vt 0.384935 0.751736
vt 0.359287 0.751736
vt 0.433453 0.767588
vt 0.410022 0.757098
vt 0.471364 0.801911
vt 0.454203 0.782746
vt 0.492114 0.848772
vt 0.484188 0.824245
vt 0.492114 0.900068
vt 0.494795 0.874420
vt 0.471364 0.946930
vt 0.484188 0.924596
vt 0.433453 0.981253
vt 0.454203 0.966095
vt 0.384935 0.997105
vt 0.410022 0.991743
vt 0.334199 0.991743
vt 0.359287 0.997105
vt 0.290019 0.966095
vt 0.310769 0.981253
vt 0.260033 0.924596
vt 0.272857 0.946930
vt 0.252107 0.900068
s 0
usemtl _cocka_z_25D34193_mtl__2_m.onetex
f 611/210/251 612/211/251 613/212/251
f 614/213/251 615/214/251 611/210/251
f 617/215/251 618/216/251 614/213/251
f 617/215/251 614/213/251 611/210/251
f 623/217/251 624/218/251 617/215/251
f 626/219/251 627/220/251 623/217/251
f 626/219/251 623/217/251 617/215/251
f 626/219/251 617/215/251 611/210/251
f 635/221/251 636/222/251 626/219/251
f 638/223/251 639/224/251 635/221/251
f 638/223/251 635/221/251 626/219/251
f 640/225/251 637/226/251 638/223/251
f 634/227/251 633/228/251 640/225/251
f 634/227/251 640/225/251 638/223/251
f 634/227/251 638/223/251 626/219/251
f 632/229/251 631/230/251 634/227/251
f 630/231/251 629/232/251 632/229/251
f 630/231/251 632/229/251 634/227/251
f 628/233/251 625/234/251 630/231/251
f 622/235/251 621/236/251 628/233/251
f 622/235/251 628/233/251 630/231/251
f 622/235/251 630/231/251 634/227/251
f 622/235/251 634/227/251 626/219/251
f 622/235/251 626/219/251 611/210/251
f 620/237/251 619/238/251 622/235/251
f 620/237/251 622/235/251 611/210/251
f 620/237/251 611/210/251 613/212/251
f 620/237/251 613/212/251 616/239/251
o zluta_5svet
v -0.034869 0.578331 -0.004768
v -0.029687 0.594219 -0.006158
v -0.027934 0.610834 -0.007612
v -0.054475 0.551448 -0.002416
v -0.043254 0.563863 -0.003502
v -0.029687 0.627449 -0.009065
v -0.083362 0.534834 -0.000963
v -0.068042 0.541629 -0.001557
v -0.043254 0.657805 -0.011721
v -0.034869 0.643337 -0.010455
v -0.068042 0.680039 -0.013666
v -0.054475 0.670219 -0.012807
v -0.116535 0.531360 -0.000659
v -0.099765 0.531360 -0.000659
v -0.099765 0.690308 -0.014565
v -0.148258 0.541629 -0.001557
v -0.132938 0.534834 -0.000963
v -0.083362 0.686834 -0.014261
v -0.132938 0.686834 -0.014261
v -0.116535 0.690308 -0.014565
v -0.161825 0.670219 -0.012807
v -0.148258 0.680039 -0.013666
v -0.181431 0.643337 -0.010455
v -0.173046 0.657805 -0.011721
v -0.173046 0.563863 -0.003502
v -0.161825 0.551448 -0.002416
v -0.188366 0.610834 -0.007612
v -0.186613 0.594219 -0.006158
v -0.181431 0.578331 -0.004768
v -0.186613 0.627449 -0.009065
vn -0.0000 0.0872 0.9962
vt 0.012005 0.824246
vt 0.004079 0.848772
vt 0.001398 0.874420
vt 0.041991 0.782746
vt 0.024829 0.801911
vt 0.086171 0.757098
vt 0.062741 0.767588
vt 0.136907 0.751736
vt 0.111259 0.751736
vt 0.185425 0.767588
vt 0.161994 0.757098
vt 0.223337 0.801911
vt 0.206175 0.782746
vt 0.244086 0.848772
vt 0.236161 0.824245
vt 0.244086 0.900068
vt 0.246767 0.874420
vt 0.223337 0.946930
vt 0.236161 0.924596
vt 0.185425 0.981253
vt 0.206175 0.966095
vt 0.136907 0.997105
vt 0.161994 0.991743
vt 0.086171 0.991743
vt 0.111259 0.997105
vt 0.041991 0.966095
vt 0.062741 0.981253
vt 0.012005 0.924596
vt 0.024829 0.946930
vt 0.004079 0.900068
s 0
usemtl _cocka_y_2F68A24B_mtl__2_m.onetex
f 641/240/252 642/241/252 643/242/252
f 644/243/252 645/244/252 641/240/252
f 647/245/252 648/246/252 644/243/252
f 647/245/252 644/243/252 641/240/252
f 653/247/252 654/248/252 647/245/252
f 656/249/252 657/250/252 653/247/252
f 656/249/252 653/247/252 647/245/252
f 656/249/252 647/245/252 641/240/252
f 665/251/252 666/252/252 656/249/252
f 668/253/252 669/254/252 665/251/252
f 668/253/252 665/251/252 656/249/252
f 670/255/252 667/256/252 668/253/252
f 664/257/252 663/258/252 670/255/252
f 664/257/252 670/255/252 668/253/252
f 664/257/252 668/253/252 656/249/252
f 662/259/252 661/260/252 664/257/252
f 660/261/252 659/262/252 662/259/252
f 660/261/252 662/259/252 664/257/252
f 658/263/252 655/264/252 660/261/252
f 652/265/252 651/266/252 658/263/252
f 652/265/252 658/263/252 660/261/252
f 652/265/252 660/261/252 664/257/252
f 652/265/252 664/257/252 656/249/252
f 652/265/252 656/249/252 641/240/252
f 650/267/252 649/268/252 652/265/252
f 650/267/252 652/265/252 641/240/252
f 650/267/252 641/240/252 643/242/252
f 650/267/252 643/242/252 646/269/252
o cervena_5svet
v 0.181404 0.393982 0.014579
v 0.186586 0.409870 0.013189
v 0.188339 0.426484 0.011736
v 0.161798 0.367099 0.016931
v 0.173019 0.379514 0.015845
v 0.186586 0.443099 0.010282
v 0.132911 0.350484 0.018385
v 0.148231 0.357279 0.017790
v 0.173019 0.473455 0.007626
v 0.181404 0.458987 0.008892
v 0.148231 0.495690 0.005681
v 0.161798 0.485870 0.006540
v 0.099738 0.347011 0.018689
v 0.116508 0.347011 0.018689
v 0.116508 0.505958 0.004783
v 0.068015 0.357279 0.017790
v 0.083335 0.350484 0.018385
v 0.132911 0.502485 0.005086
v 0.083335 0.502485 0.005086
v 0.099738 0.505958 0.004783
v 0.054448 0.485870 0.006540
v 0.068015 0.495690 0.005681
v 0.034842 0.458987 0.008892
v 0.043227 0.473455 0.007626
v 0.043227 0.379514 0.015845
v 0.054448 0.367099 0.016931
v 0.027907 0.426484 0.011736
v 0.029660 0.409870 0.013189
v 0.034842 0.393982 0.014579
v 0.029660 0.443099 0.010282
vn -0.0000 0.0872 0.9962
vt 0.511910 0.824246
vt 0.503984 0.848772
vt 0.501303 0.874420
vt 0.541896 0.782746
vt 0.524734 0.801911
vt 0.586076 0.757098
vt 0.562645 0.767588
vt 0.636811 0.751736
vt 0.611163 0.751736
vt 0.685330 0.767588
vt 0.661899 0.757098
vt 0.723241 0.801911
vt 0.706079 0.782746
vt 0.743991 0.848772
vt 0.736065 0.824245
vt 0.743991 0.900068
vt 0.746672 0.874420
vt 0.723241 0.946930
vt 0.736065 0.924596
vt 0.685330 0.981253
vt 0.706079 0.966095
vt 0.636812 0.997105
vt 0.661899 0.991743
vt 0.586076 0.991743
vt 0.611164 0.997105
vt 0.541896 0.966095
vt 0.562645 0.981253
vt 0.511910 0.924596
vt 0.524734 0.946930
vt 0.503984 0.900068
s 0
usemtl _cocka_r_59E264AE_mtl__2_m.onetex
f 671/270/253 672/271/253 673/272/253
f 674/273/253 675/274/253 671/270/253
f 677/275/253 678/276/253 674/273/253
f 677/275/253 674/273/253 671/270/253
f 683/277/253 684/278/253 677/275/253
f 686/279/253 687/280/253 683/277/253
f 686/279/253 683/277/253 677/275/253
f 686/279/253 677/275/253 671/270/253
f 695/281/253 696/282/253 686/279/253
f 698/283/253 699/284/253 695/281/253
f 698/283/253 695/281/253 686/279/253
f 700/285/253 697/286/253 698/283/253
f 694/287/253 693/288/253 700/285/253
f 694/287/253 700/285/253 698/283/253
f 694/287/253 698/283/253 686/279/253
f 692/289/253 691/290/253 694/287/253
f 690/291/253 689/292/253 692/289/253
f 690/291/253 692/289/253 694/287/253
f 688/293/253 685/294/253 690/291/253
f 682/295/253 681/296/253 688/293/253
f 682/295/253 688/293/253 690/291/253
f 682/295/253 690/291/253 694/287/253
f 682/295/253 694/287/253 686/279/253
f 682/295/253 686/279/253 671/270/253
f 680/297/253 679/298/253 682/295/253
f 680/297/253 682/295/253 671/270/253
f 680/297/253 671/270/253 673/272/253
f 680/297/253 673/272/253 676/299/253
o bila_5svet
v 0.181404 0.209594 0.033923
v 0.186586 0.225482 0.032533
v 0.188339 0.242097 0.031079
v 0.161798 0.182711 0.036274
v 0.173019 0.195126 0.035188
v 0.186586 0.258711 0.029625
v 0.132911 0.166096 0.037728
v 0.148231 0.172891 0.037134
v 0.173019 0.289067 0.026970
v 0.181404 0.274599 0.028235
v 0.148231 0.311302 0.025024
v 0.161798 0.301482 0.025883
v 0.099738 0.162623 0.038032
v 0.116508 0.162623 0.038032
v 0.116508 0.321570 0.024126
v 0.068015 0.172891 0.037134
v 0.083335 0.166096 0.037728
v 0.132911 0.318097 0.024430
v 0.083335 0.318097 0.024430
v 0.099738 0.321570 0.024126
v 0.054448 0.301482 0.025883
v 0.068015 0.311302 0.025024
v 0.034842 0.274599 0.028235
v 0.043227 0.289067 0.026970
v 0.043227 0.195126 0.035188
v 0.054448 0.182711 0.036274
v 0.027907 0.242097 0.031079
v 0.029660 0.225482 0.032533
v 0.034842 0.209594 0.033923
v 0.029660 0.258711 0.029625
vn -0.0000 0.0872 0.9962
vt 0.761781 0.824246
vt 0.753855 0.848772
vt 0.751174 0.874420
vt 0.791767 0.782746
vt 0.774605 0.801911
vt 0.835947 0.757098
vt 0.812517 0.767588
vt 0.886683 0.751736
vt 0.861035 0.751736
vt 0.935201 0.767588
vt 0.911770 0.757098
vt 0.973112 0.801911
vt 0.955950 0.782746
vt 0.993862 0.848772
vt 0.985936 0.824245
vt 0.993862 0.900068
vt 0.996543 0.874420
vt 0.973112 0.946930
vt 0.985936 0.924596
vt 0.935201 0.981253
vt 0.955950 0.966095
vt 0.886683 0.997105
vt 0.911770 0.991743
vt 0.835947 0.991743
vt 0.861035 0.997105
vt 0.791767 0.966095
vt 0.812517 0.981253
vt 0.761781 0.924596
vt 0.774605 0.946930
vt 0.753855 0.900068
s 0
usemtl _cocka_b_D7B3473B_mtl__2_m.onetex
f 701/300/254 702/301/254 703/302/254
f 704/303/254 705/304/254 701/300/254
f 707/305/254 708/306/254 704/303/254
f 707/305/254 704/303/254 701/300/254
f 713/307/254 714/308/254 707/305/254
f 716/309/254 717/310/254 713/307/254
f 716/309/254 713/307/254 707/305/254
f 716/309/254 707/305/254 701/300/254
f 725/311/254 726/312/254 716/309/254
f 728/313/254 729/314/254 725/311/254
f 728/313/254 725/311/254 716/309/254
f 730/315/254 727/316/254 728/313/254
f 724/317/254 723/318/254 730/315/254
f 724/317/254 730/315/254 728/313/254
f 724/317/254 728/313/254 716/309/254
f 722/319/254 721/320/254 724/317/254
f 720/321/254 719/322/254 722/319/254
f 720/321/254 722/319/254 724/317/254
f 718/323/254 715/324/254 720/321/254
f 712/325/254 711/326/254 718/323/254
f 712/325/254 718/323/254 720/321/254
f 712/325/254 720/321/254 724/317/254
f 712/325/254 724/317/254 716/309/254
f 712/325/254 716/309/254 701/300/254
f 710/327/254 709/328/254 712/325/254
f 710/327/254 712/325/254 701/300/254
f 710/327/254 701/300/254 703/302/254
f 710/327/254 703/302/254 706/329/254
o 40_5svet
v -0.034869 0.209594 0.033923
v -0.029687 0.225482 0.032533
v -0.027934 0.242097 0.031079
v -0.054475 0.182711 0.036274
v -0.043254 0.195126 0.035188
v -0.029687 0.258711 0.029625
v -0.083362 0.166096 0.037728
v -0.068042 0.172891 0.037134
v -0.043254 0.289067 0.026969
v -0.034869 0.274599 0.028235
v -0.068042 0.311302 0.025024
v -0.054475 0.301482 0.025883
v -0.116535 0.162623 0.038032
v -0.099765 0.162623 0.038032
v -0.099765 0.321570 0.024126
v -0.148258 0.172891 0.037134
v -0.132938 0.166096 0.037728
v -0.083362 0.318097 0.024430
v -0.132938 0.318097 0.024430
v -0.116535 0.321570 0.024126
v -0.161825 0.301482 0.025883
v -0.148258 0.311302 0.025024
v -0.181431 0.274599 0.028235
v -0.173046 0.289067 0.026969
v -0.173046 0.195126 0.035188
v -0.161825 0.182711 0.036274
v -0.188366 0.242097 0.031079
v -0.186613 0.225482 0.032533
v -0.181431 0.209594 0.033923
v -0.186613 0.258711 0.029625
vn -0.0000 0.0872 0.9962
vt 0.012005 0.824246
vt 0.004079 0.848772
vt 0.001398 0.874420
vt 0.041991 0.782746
vt 0.024829 0.801911
vt 0.086171 0.757098
vt 0.062741 0.767588
vt 0.136907 0.751736
vt 0.111259 0.751736
vt 0.185425 0.767588
vt 0.161994 0.757098
vt 0.223337 0.801911
vt 0.206175 0.782746
vt 0.244086 0.848772
vt 0.236161 0.824245
vt 0.244086 0.900068
vt 0.246767 0.874420
vt 0.223337 0.946930
vt 0.236161 0.924596
vt 0.185425 0.981253
vt 0.206175 0.966095
vt 0.136907 0.997105
vt 0.161994 0.991743
vt 0.086171 0.991743
vt 0.111259 0.997105
vt 0.041991 0.966095
vt 0.062741 0.981253
vt 0.012005 0.924596
vt 0.024829 0.946930
vt 0.004079 0.900068
s 0
usemtl _cocka_y_2F68A24B_mtl__2_m.onetex.001
f 731/330/255 732/331/255 733/332/255
f 734/333/255 735/334/255 731/330/255
f 737/335/255 738/336/255 734/333/255
f 737/335/255 734/333/255 731/330/255
f 743/337/255 744/338/255 737/335/255
f 746/339/255 747/340/255 743/337/255
f 746/339/255 743/337/255 737/335/255
f 746/339/255 737/335/255 731/330/255
f 755/341/255 756/342/255 746/339/255
f 758/343/255 759/344/255 755/341/255
f 758/343/255 755/341/255 746/339/255
f 760/345/255 757/346/255 758/343/255
f 754/347/255 753/348/255 760/345/255
f 754/347/255 760/345/255 758/343/255
f 754/347/255 758/343/255 746/339/255
f 752/349/255 751/350/255 754/347/255
f 750/351/255 749/352/255 752/349/255
f 750/351/255 752/349/255 754/347/255
f 748/353/255 745/354/255 750/351/255
f 742/355/255 741/356/255 748/353/255
f 742/355/255 748/353/255 750/351/255
f 742/355/255 750/351/255 754/347/255
f 742/355/255 754/347/255 746/339/255
f 742/355/255 746/339/255 731/330/255
f 740/357/255 739/358/255 742/355/255
f 740/357/255 742/355/255 731/330/255
f 740/357/255 731/330/255 733/332/255
f 740/357/255 733/332/255 736/359/255
