# Blender 4.0.2
# www.blender.org
mtllib 3svetT.mtl
o bila_3svet_typ1
v 0.073281 0.202528 0.048538
v 0.078463 0.218366 0.046664
v 0.080216 0.234929 0.044704
v 0.053675 0.175730 0.051709
v 0.064896 0.188105 0.050244
v 0.078463 0.251492 0.042744
v 0.024788 0.159167 0.053668
v 0.040108 0.165941 0.052867
v 0.064896 0.281753 0.039164
v 0.073281 0.267330 0.040870
v 0.040108 0.303917 0.036541
v 0.053675 0.294128 0.037699
v -0.008385 0.155704 0.054078
v 0.008385 0.155704 0.054078
v 0.008385 0.314154 0.035330
v -0.040108 0.165941 0.052867
v -0.024788 0.159167 0.053668
v 0.024788 0.310691 0.035740
v -0.024788 0.310691 0.035740
v -0.008385 0.314154 0.035330
v -0.053675 0.294128 0.037699
v -0.040108 0.303917 0.036541
v -0.073281 0.267330 0.040870
v -0.064896 0.281753 0.039164
v -0.064896 0.188105 0.050244
v -0.053675 0.175730 0.051709
v -0.080216 0.234929 0.044704
v -0.078463 0.218366 0.046664
v -0.073281 0.202528 0.048538
v -0.078463 0.251492 0.042744
vn -0.0000 0.1175 0.9931
vt 0.761781 0.824246
vt 0.753855 0.848772
vt 0.751174 0.874420
vt 0.791767 0.782746
vt 0.774605 0.801911
vt 0.835947 0.757098
vt 0.812517 0.767588
vt 0.886683 0.751736
vt 0.861035 0.751736
vt 0.935201 0.767588
vt 0.911770 0.757098
vt 0.973112 0.801911
vt 0.955950 0.782746
vt 0.993862 0.848772
vt 0.985936 0.824245
vt 0.993862 0.900068
vt 0.996543 0.874420
vt 0.973112 0.946930
vt 0.985936 0.924596
vt 0.935201 0.981253
vt 0.955950 0.966095
vt 0.886683 0.997105
vt 0.911770 0.991743
vt 0.835947 0.991743
vt 0.861035 0.997105
vt 0.791767 0.966095
vt 0.812517 0.981253
vt 0.761781 0.924596
vt 0.774605 0.946930
vt 0.753855 0.900068
s 0
usemtl cocky.003
f 1/1/1 2/2/1 3/3/1
f 4/4/1 5/5/1 1/1/1
f 7/6/1 8/7/1 4/4/1
f 7/6/1 4/4/1 1/1/1
f 13/8/1 14/9/1 7/6/1
f 16/10/1 17/11/1 13/8/1
f 16/10/1 13/8/1 7/6/1
f 16/10/1 7/6/1 1/1/1
f 25/12/1 26/13/1 16/10/1
f 28/14/1 29/15/1 25/12/1
f 28/14/1 25/12/1 16/10/1
f 30/16/1 27/17/1 28/14/1
f 24/18/1 23/19/1 30/16/1
f 24/18/1 30/16/1 28/14/1
f 24/18/1 28/14/1 16/10/1
f 22/20/1 21/21/1 24/18/1
f 20/22/1 19/23/1 22/20/1
f 20/22/1 22/20/1 24/18/1
f 18/24/1 15/25/1 20/22/1
f 12/26/1 11/27/1 18/24/1
f 12/26/1 18/24/1 20/22/1
f 12/26/1 20/22/1 24/18/1
f 12/26/1 24/18/1 16/10/1
f 12/26/1 16/10/1 1/1/1
f 10/28/1 9/29/1 12/26/1
f 10/28/1 12/26/1 1/1/1
f 10/28/1 1/1/1 3/3/1
f 10/28/1 3/3/1 6/30/1
o cervena_3svet_typ1
v 0.073281 0.386912 0.029140
v 0.078463 0.402750 0.027266
v 0.080216 0.419313 0.025306
v 0.053675 0.360114 0.032311
v 0.064896 0.372489 0.030847
v 0.078463 0.435876 0.023347
v 0.024788 0.343551 0.034271
v 0.040108 0.350325 0.033469
v 0.064896 0.466137 0.019766
v 0.073281 0.451714 0.021473
v 0.040108 0.488301 0.017144
v 0.053675 0.478512 0.018302
v -0.008385 0.340089 0.034681
v 0.008385 0.340089 0.034681
v 0.008385 0.498538 0.015932
v -0.040108 0.350325 0.033469
v -0.024788 0.343551 0.034271
v 0.024788 0.495075 0.016342
v -0.024788 0.495075 0.016342
v -0.008385 0.498538 0.015932
v -0.053675 0.478512 0.018302
v -0.040108 0.488301 0.017144
v -0.073281 0.451714 0.021473
v -0.064896 0.466137 0.019766
v -0.064896 0.372489 0.030847
v -0.053675 0.360114 0.032311
v -0.080216 0.419313 0.025306
v -0.078463 0.402750 0.027266
v -0.073281 0.386912 0.029140
v -0.078463 0.435876 0.023347
vn -0.0000 0.1175 0.9931
vt 0.511910 0.824246
vt 0.503984 0.848772
vt 0.501303 0.874420
vt 0.541896 0.782746
vt 0.524734 0.801911
vt 0.586076 0.757098
vt 0.562645 0.767588
vt 0.636811 0.751736
vt 0.611163 0.751736
vt 0.685330 0.767588
vt 0.661899 0.757098
vt 0.723241 0.801911
vt 0.706079 0.782746
vt 0.743991 0.848772
vt 0.736065 0.824245
vt 0.743991 0.900068
vt 0.746672 0.874420
vt 0.723241 0.946930
vt 0.736065 0.924596
vt 0.685330 0.981253
vt 0.706079 0.966095
vt 0.636812 0.997105
vt 0.661899 0.991743
vt 0.586076 0.991743
vt 0.611164 0.997105
vt 0.541896 0.966095
vt 0.562645 0.981253
vt 0.511910 0.924596
vt 0.524734 0.946930
vt 0.503984 0.900068
s 0
usemtl cocky.004
f 31/31/2 32/32/2 33/33/2
f 34/34/2 35/35/2 31/31/2
f 37/36/2 38/37/2 34/34/2
f 37/36/2 34/34/2 31/31/2
f 43/38/2 44/39/2 37/36/2
f 46/40/2 47/41/2 43/38/2
f 46/40/2 43/38/2 37/36/2
f 46/40/2 37/36/2 31/31/2
f 55/42/2 56/43/2 46/40/2
f 58/44/2 59/45/2 55/42/2
f 58/44/2 55/42/2 46/40/2
f 60/46/2 57/47/2 58/44/2
f 54/48/2 53/49/2 60/46/2
f 54/48/2 60/46/2 58/44/2
f 54/48/2 58/44/2 46/40/2
f 52/50/2 51/51/2 54/48/2
f 50/52/2 49/53/2 52/50/2
f 50/52/2 52/50/2 54/48/2
f 48/54/2 45/55/2 50/52/2
f 42/56/2 41/57/2 48/54/2
f 42/56/2 48/54/2 50/52/2
f 42/56/2 50/52/2 54/48/2
f 42/56/2 54/48/2 46/40/2
f 42/56/2 46/40/2 31/31/2
f 40/58/2 39/59/2 42/56/2
f 40/58/2 42/56/2 31/31/2
f 40/58/2 31/31/2 33/33/2
f 40/58/2 33/33/2 36/60/2
o zelena_3svet_typ1
v 0.073281 0.571265 0.009797
v 0.078463 0.587104 0.007923
v 0.080216 0.603666 0.005963
v 0.053675 0.544467 0.012968
v 0.064896 0.556843 0.011503
v 0.078463 0.620229 0.004003
v 0.024788 0.527904 0.014927
v 0.040108 0.534678 0.014126
v 0.064896 0.650490 0.000423
v 0.073281 0.636067 0.002129
v 0.040108 0.672655 -0.002200
v 0.053675 0.662866 -0.001041
v -0.008385 0.524442 0.015337
v 0.008385 0.524442 0.015337
v 0.008385 0.682891 -0.003411
v -0.040108 0.534678 0.014126
v -0.024788 0.527904 0.014927
v 0.024788 0.679428 -0.003001
v -0.024788 0.679428 -0.003001
v -0.008385 0.682891 -0.003411
v -0.053675 0.662866 -0.001041
v -0.040108 0.672655 -0.002200
v -0.073281 0.636067 0.002129
v -0.064896 0.650490 0.000423
v -0.064896 0.556843 0.011503
v -0.053675 0.544467 0.012968
v -0.080216 0.603666 0.005963
v -0.078463 0.587104 0.007923
v -0.073281 0.571265 0.009797
v -0.078463 0.620229 0.004003
vn -0.0000 0.1175 0.9931
vt 0.260033 0.824246
vt 0.252107 0.848772
vt 0.249426 0.874420
vt 0.290019 0.782746
vt 0.272857 0.801911
vt 0.334199 0.757098
vt 0.310768 0.767588
vt 0.384935 0.751736
vt 0.359287 0.751736
vt 0.433453 0.767588
vt 0.410022 0.757098
vt 0.471364 0.801911
vt 0.454203 0.782746
vt 0.492114 0.848772
vt 0.484188 0.824245
vt 0.492114 0.900068
vt 0.494795 0.874420
vt 0.471364 0.946930
vt 0.484188 0.924596
vt 0.433453 0.981253
vt 0.454203 0.966095
vt 0.384935 0.997105
vt 0.410022 0.991743
vt 0.334199 0.991743
vt 0.359287 0.997105
vt 0.290019 0.966095
vt 0.310769 0.981253
vt 0.260033 0.924596
vt 0.272857 0.946930
vt 0.252107 0.900068
s 0
usemtl cocky.005
f 61/61/3 62/62/3 63/63/3
f 64/64/3 65/65/3 61/61/3
f 67/66/3 68/67/3 64/64/3
f 67/66/3 64/64/3 61/61/3
f 73/68/3 74/69/3 67/66/3
f 76/70/3 77/71/3 73/68/3
f 76/70/3 73/68/3 67/66/3
f 76/70/3 67/66/3 61/61/3
f 85/72/3 86/73/3 76/70/3
f 88/74/3 89/75/3 85/72/3
f 88/74/3 85/72/3 76/70/3
f 90/76/3 87/77/3 88/74/3
f 84/78/3 83/79/3 90/76/3
f 84/78/3 90/76/3 88/74/3
f 84/78/3 88/74/3 76/70/3
f 82/80/3 81/81/3 84/78/3
f 80/82/3 79/83/3 82/80/3
f 80/82/3 82/80/3 84/78/3
f 78/84/3 75/85/3 80/82/3
f 72/86/3 71/87/3 78/84/3
f 72/86/3 78/84/3 80/82/3
f 72/86/3 80/82/3 84/78/3
f 72/86/3 84/78/3 76/70/3
f 72/86/3 76/70/3 61/61/3
f 70/88/3 69/89/3 72/86/3
f 70/88/3 72/86/3 61/61/3
f 70/88/3 61/61/3 63/63/3
f 70/88/3 63/63/3 66/90/3
o zluta_3svet_typ2
v 0.073281 0.571265 0.009797
v 0.078463 0.587104 0.007923
v 0.080216 0.603666 0.005963
v 0.053675 0.544467 0.012968
v 0.064896 0.556843 0.011503
v 0.078463 0.620229 0.004003
v 0.024788 0.527904 0.014927
v 0.040108 0.534678 0.014126
v 0.064896 0.650490 0.000423
v 0.073281 0.636067 0.002129
v 0.040108 0.672655 -0.002200
v 0.053675 0.662866 -0.001041
v -0.008385 0.524442 0.015337
v 0.008385 0.524442 0.015337
v 0.008385 0.682891 -0.003411
v -0.040108 0.534678 0.014126
v -0.024788 0.527904 0.014927
v 0.024788 0.679428 -0.003001
v -0.024788 0.679428 -0.003001
v -0.008385 0.682891 -0.003411
v -0.053675 0.662866 -0.001041
v -0.040108 0.672655 -0.002200
v -0.073281 0.636067 0.002129
v -0.064896 0.650490 0.000423
v -0.064896 0.556843 0.011503
v -0.053675 0.544467 0.012968
v -0.080216 0.603666 0.005963
v -0.078463 0.587104 0.007923
v -0.073281 0.571265 0.009797
v -0.078463 0.620229 0.004003
vn -0.0000 0.1175 0.9931
vt 0.012005 0.824246
vt 0.004079 0.848772
vt 0.001398 0.874420
vt 0.041991 0.782746
vt 0.024829 0.801911
vt 0.086171 0.757098
vt 0.062741 0.767588
vt 0.136907 0.751736
vt 0.111259 0.751736
vt 0.185425 0.767588
vt 0.161994 0.757098
vt 0.223337 0.801911
vt 0.206175 0.782746
vt 0.244086 0.848772
vt 0.236161 0.824245
vt 0.244086 0.900068
vt 0.246767 0.874420
vt 0.223337 0.946930
vt 0.236161 0.924596
vt 0.185425 0.981253
vt 0.206175 0.966095
vt 0.136907 0.997105
vt 0.161994 0.991743
vt 0.086171 0.991743
vt 0.111259 0.997105
vt 0.041991 0.966095
vt 0.062741 0.981253
vt 0.012005 0.924596
vt 0.024829 0.946930
vt 0.004079 0.900068
s 0
usemtl cocky.006
f 91/91/4 92/92/4 93/93/4
f 94/94/4 95/95/4 91/91/4
f 97/96/4 98/97/4 94/94/4
f 97/96/4 94/94/4 91/91/4
f 103/98/4 104/99/4 97/96/4
f 106/100/4 107/101/4 103/98/4
f 106/100/4 103/98/4 97/96/4
f 106/100/4 97/96/4 91/91/4
f 115/102/4 116/103/4 106/100/4
f 118/104/4 119/105/4 115/102/4
f 118/104/4 115/102/4 106/100/4
f 120/106/4 117/107/4 118/104/4
f 114/108/4 113/109/4 120/106/4
f 114/108/4 120/106/4 118/104/4
f 114/108/4 118/104/4 106/100/4
f 112/110/4 111/111/4 114/108/4
f 110/112/4 109/113/4 112/110/4
f 110/112/4 112/110/4 114/108/4
f 108/114/4 105/115/4 110/112/4
f 102/116/4 101/117/4 108/114/4
f 102/116/4 108/114/4 110/112/4
f 102/116/4 110/112/4 114/108/4
f 102/116/4 114/108/4 106/100/4
f 102/116/4 106/100/4 91/91/4
f 100/118/4 99/119/4 102/116/4
f 100/118/4 102/116/4 91/91/4
f 100/118/4 91/91/4 93/93/4
f 100/118/4 93/93/4 96/120/4
o zelena_3svet_typ2
v 0.073281 0.386912 0.029140
v 0.078463 0.402750 0.027266
v 0.080216 0.419313 0.025306
v 0.053675 0.360114 0.032311
v 0.064896 0.372489 0.030847
v 0.078463 0.435876 0.023347
v 0.024788 0.343551 0.034271
v 0.040108 0.350325 0.033469
v 0.064896 0.466137 0.019766
v 0.073281 0.451714 0.021473
v 0.040108 0.488301 0.017144
v 0.053675 0.478512 0.018302
v -0.008385 0.340089 0.034681
v 0.008385 0.340089 0.034681
v 0.008385 0.498538 0.015932
v -0.040108 0.350325 0.033469
v -0.024788 0.343551 0.034271
v 0.024788 0.495075 0.016342
v -0.024788 0.495075 0.016342
v -0.008385 0.498538 0.015932
v -0.053675 0.478512 0.018302
v -0.040108 0.488301 0.017144
v -0.073281 0.451714 0.021473
v -0.064896 0.466137 0.019766
v -0.064896 0.372489 0.030847
v -0.053675 0.360114 0.032311
v -0.080216 0.419313 0.025306
v -0.078463 0.402750 0.027266
v -0.073281 0.386912 0.029140
v -0.078463 0.435876 0.023347
vn -0.0000 0.1175 0.9931
vt 0.260033 0.824246
vt 0.252107 0.848772
vt 0.249426 0.874420
vt 0.290019 0.782746
vt 0.272857 0.801911
vt 0.334199 0.757098
vt 0.310768 0.767588
vt 0.384935 0.751736
vt 0.359287 0.751736
vt 0.433453 0.767588
vt 0.410022 0.757098
vt 0.471364 0.801911
vt 0.454203 0.782746
vt 0.492114 0.848772
vt 0.484188 0.824245
vt 0.492114 0.900068
vt 0.494795 0.874420
vt 0.471364 0.946930
vt 0.484188 0.924596
vt 0.433453 0.981253
vt 0.454203 0.966095
vt 0.384935 0.997105
vt 0.410022 0.991743
vt 0.334199 0.991743
vt 0.359287 0.997105
vt 0.290019 0.966095
vt 0.310769 0.981253
vt 0.260033 0.924596
vt 0.272857 0.946930
vt 0.252107 0.900068
s 0
usemtl cocky.006
f 121/121/5 122/122/5 123/123/5
f 124/124/5 125/125/5 121/121/5
f 127/126/5 128/127/5 124/124/5
f 127/126/5 124/124/5 121/121/5
f 133/128/5 134/129/5 127/126/5
f 136/130/5 137/131/5 133/128/5
f 136/130/5 133/128/5 127/126/5
f 136/130/5 127/126/5 121/121/5
f 145/132/5 146/133/5 136/130/5
f 148/134/5 149/135/5 145/132/5
f 148/134/5 145/132/5 136/130/5
f 150/136/5 147/137/5 148/134/5
f 144/138/5 143/139/5 150/136/5
f 144/138/5 150/136/5 148/134/5
f 144/138/5 148/134/5 136/130/5
f 142/140/5 141/141/5 144/138/5
f 140/142/5 139/143/5 142/140/5
f 140/142/5 142/140/5 144/138/5
f 138/144/5 135/145/5 140/142/5
f 132/146/5 131/147/5 138/144/5
f 132/146/5 138/144/5 140/142/5
f 132/146/5 140/142/5 144/138/5
f 132/146/5 144/138/5 136/130/5
f 132/146/5 136/130/5 121/121/5
f 130/148/5 129/149/5 132/146/5
f 130/148/5 132/146/5 121/121/5
f 130/148/5 121/121/5 123/123/5
f 130/148/5 123/123/5 126/150/5
o cervena_3svet_typ2
v 0.073281 0.202528 0.048538
v 0.078463 0.218366 0.046664
v 0.080216 0.234929 0.044704
v 0.053675 0.175730 0.051709
v 0.064896 0.188105 0.050244
v 0.078463 0.251492 0.042744
v 0.024788 0.159167 0.053668
v 0.040108 0.165941 0.052867
v 0.064896 0.281753 0.039164
v 0.073281 0.267330 0.040870
v 0.040108 0.303917 0.036541
v 0.053675 0.294128 0.037699
v -0.008385 0.155704 0.054078
v 0.008385 0.155704 0.054078
v 0.008385 0.314154 0.035330
v -0.040108 0.165941 0.052867
v -0.024788 0.159167 0.053668
v 0.024788 0.310691 0.035740
v -0.024788 0.310691 0.035740
v -0.008385 0.314154 0.035330
v -0.053675 0.294128 0.037699
v -0.040108 0.303917 0.036541
v -0.073281 0.267330 0.040870
v -0.064896 0.281753 0.039164
v -0.064896 0.188105 0.050244
v -0.053675 0.175730 0.051709
v -0.080216 0.234929 0.044704
v -0.078463 0.218366 0.046664
v -0.073281 0.202528 0.048538
v -0.078463 0.251492 0.042744
vn -0.0000 0.1175 0.9931
vt 0.511910 0.824246
vt 0.503984 0.848772
vt 0.501303 0.874420
vt 0.541896 0.782746
vt 0.524734 0.801911
vt 0.586076 0.757098
vt 0.562645 0.767588
vt 0.636811 0.751736
vt 0.611163 0.751736
vt 0.685330 0.767588
vt 0.661899 0.757098
vt 0.723241 0.801911
vt 0.706079 0.782746
vt 0.743991 0.848772
vt 0.736065 0.824245
vt 0.743991 0.900068
vt 0.746672 0.874420
vt 0.723241 0.946930
vt 0.736065 0.924596
vt 0.685330 0.981253
vt 0.706079 0.966095
vt 0.636812 0.997105
vt 0.661899 0.991743
vt 0.586076 0.991743
vt 0.611164 0.997105
vt 0.541896 0.966095
vt 0.562645 0.981253
vt 0.511910 0.924596
vt 0.524734 0.946930
vt 0.503984 0.900068
s 0
usemtl cocky.006
f 151/151/6 152/152/6 153/153/6
f 154/154/6 155/155/6 151/151/6
f 157/156/6 158/157/6 154/154/6
f 157/156/6 154/154/6 151/151/6
f 163/158/6 164/159/6 157/156/6
f 166/160/6 167/161/6 163/158/6
f 166/160/6 163/158/6 157/156/6
f 166/160/6 157/156/6 151/151/6
f 175/162/6 176/163/6 166/160/6
f 178/164/6 179/165/6 175/162/6
f 178/164/6 175/162/6 166/160/6
f 180/166/6 177/167/6 178/164/6
f 174/168/6 173/169/6 180/166/6
f 174/168/6 180/166/6 178/164/6
f 174/168/6 178/164/6 166/160/6
f 172/170/6 171/171/6 174/168/6
f 170/172/6 169/173/6 172/170/6
f 170/172/6 172/170/6 174/168/6
f 168/174/6 165/175/6 170/172/6
f 162/176/6 161/177/6 168/174/6
f 162/176/6 168/174/6 170/172/6
f 162/176/6 170/172/6 174/168/6
f 162/176/6 174/168/6 166/160/6
f 162/176/6 166/160/6 151/151/6
f 160/178/6 159/179/6 162/176/6
f 160/178/6 162/176/6 151/151/6
f 160/178/6 151/151/6 153/153/6
f 160/178/6 153/153/6 156/180/6
o stit_3svet
v -0.106296 0.139337 0.049749
v -0.106296 0.085880 -0.036895
v -0.106296 0.129820 -0.036895
v -0.106296 0.085880 0.049749
v -0.106296 0.129820 -0.036895
v 0.106667 0.085880 -0.036895
v 0.106667 0.129820 -0.036895
v -0.106296 0.085880 -0.036895
v 0.106667 0.129820 -0.036895
v 0.106667 0.085880 0.049749
v 0.106667 0.139337 0.049749
v 0.106667 0.085880 -0.036895
v 0.106667 0.139337 0.049749
v -0.106296 0.085880 0.049749
v -0.106296 0.139337 0.049749
v 0.106667 0.085880 0.049749
v 0.106667 0.129820 -0.036895
v -0.106296 0.139337 0.049749
v -0.106296 0.129820 -0.036895
v 0.106667 0.139337 0.049749
v 0.099807 0.507356 -0.074778
v 0.100116 0.137668 0.048080
v 0.099807 0.516008 0.008776
v 0.100116 0.129140 -0.035226
v -0.100116 0.515822 0.008776
v -0.100116 0.129140 -0.035226
v -0.100116 0.507356 -0.074778
v -0.100116 0.137668 0.048080
v 0.100116 0.691582 -0.094059
v 0.099807 0.516008 0.008776
v 0.100116 0.700419 -0.010382
v 0.099807 0.507356 -0.074778
v -0.100116 0.700419 -0.010382
v -0.100116 0.507356 -0.074778
v -0.100116 0.691582 -0.094059
v -0.100116 0.515822 0.008776
v 0.034979 0.502659 0.009703
v -0.000000 0.542273 0.319877
v 0.034979 0.535289 0.320619
v -0.000000 0.509519 0.008961
v 0.064705 0.482883 0.011804
v 0.064705 0.515575 0.322658
v 0.084542 0.453404 0.014894
v 0.084542 0.486035 0.325748
v 0.091464 0.418549 0.018540
v 0.091464 0.451241 0.329456
v 0.084542 0.383447 0.022248
v 0.084542 0.389997 0.084852
v 0.064705 0.354215 0.025338
v 0.064705 0.359097 0.073419
v 0.034979 0.334439 0.027378
v 0.034979 0.338333 0.065755
v -0.000000 0.327518 0.028119
v -0.000000 0.331164 0.063098
v -0.034979 0.334439 0.027378
v -0.034979 0.338333 0.065755
v -0.064705 0.354215 0.025338
v -0.064705 0.359097 0.073418
v -0.084542 0.383447 0.022248
v -0.084542 0.389997 0.084852
v -0.091464 0.418549 0.018540
v -0.091464 0.451241 0.329456
v -0.084542 0.453404 0.014894
v -0.084542 0.486035 0.325748
v -0.064705 0.482883 0.011804
v -0.064705 0.515575 0.322658
v -0.034979 0.502659 0.009703
v -0.034979 0.535289 0.320619
v -0.085037 0.678727 -0.092638
v -0.085037 0.504451 -0.124032
v -0.085037 0.673536 -0.141831
v -0.085037 0.509580 -0.074840
v -0.085037 0.673536 -0.141831
v 0.085037 0.504451 -0.124032
v 0.085037 0.673536 -0.141831
v -0.085037 0.504451 -0.124032
v 0.085037 0.673536 -0.141831
v 0.085037 0.509580 -0.074840
v 0.085037 0.678727 -0.092638
v 0.085037 0.504451 -0.124032
v 0.085037 0.673536 -0.141831
v -0.085037 0.678727 -0.092638
v -0.085037 0.673536 -0.141831
v 0.085037 0.678727 -0.092638
v 0.085037 0.504451 -0.124032
v -0.085037 0.509580 -0.074840
v 0.085037 0.509580 -0.074840
v -0.085037 0.504451 -0.124032
v 0.034979 0.686946 -0.009641
v -0.000000 0.726560 0.300534
v 0.034979 0.719639 0.301275
v 0.000000 0.693868 -0.010382
v 0.034979 0.719639 0.301275
v 0.000000 0.693868 -0.010382
v 0.034979 0.686946 -0.009641
v -0.000000 0.726560 0.300534
v 0.064705 0.667232 -0.007539
v 0.064705 0.699925 0.303315
v 0.064705 0.699925 0.303315
v 0.064705 0.667232 -0.007539
v 0.084542 0.637692 -0.004449
v 0.084542 0.670384 0.306405
v 0.084542 0.670384 0.306405
v 0.084542 0.637692 -0.004449
v 0.091464 0.602960 -0.000803
v 0.091464 0.635529 0.310113
v 0.091464 0.635529 0.310113
v 0.091464 0.602960 -0.000803
v 0.084542 0.567796 0.002905
v 0.084542 0.574409 0.065508
v 0.084542 0.574409 0.065508
v 0.084542 0.567796 0.002905
v 0.064705 0.538565 0.005995
v 0.064705 0.543509 0.054075
v 0.064705 0.543509 0.054075
v 0.064705 0.538565 0.005995
v 0.034979 0.518851 0.008034
v 0.034979 0.522682 0.046474
v 0.034979 0.522682 0.046474
v 0.034979 0.518851 0.008034
v -0.000000 0.511929 0.008776
v -0.000000 0.515575 0.043816
v -0.000000 0.515575 0.043816
v -0.000000 0.511929 0.008776
v -0.034979 0.518851 0.008034
v -0.034979 0.522682 0.046474
v -0.034979 0.522682 0.046474
v -0.034979 0.518851 0.008034
v -0.064705 0.538565 0.005995
v -0.064705 0.543509 0.054075
v -0.064705 0.543509 0.054075
v -0.064705 0.538565 0.005995
v -0.084542 0.567796 0.002905
v -0.084542 0.574409 0.065508
v -0.084542 0.574409 0.065508
v -0.084542 0.567796 0.002905
v -0.091464 0.602960 -0.000803
v -0.091464 0.635529 0.310113
v -0.091464 0.635529 0.310113
v -0.091464 0.602960 -0.000803
v -0.084542 0.637692 -0.004449
v -0.084542 0.670384 0.306405
v -0.084542 0.670384 0.306405
v -0.084542 0.637692 -0.004449
v -0.064705 0.667232 -0.007539
v -0.064705 0.699925 0.303315
v -0.064705 0.699925 0.303315
v -0.064705 0.667232 -0.007539
v -0.034979 0.686946 -0.009641
v -0.034979 0.719639 0.301275
v -0.034979 0.719639 0.301275
v -0.034979 0.686946 -0.009641
v -0.085037 0.310028 -0.053889
v -0.085037 0.135691 -0.085284
v -0.085037 0.304837 -0.103082
v -0.085037 0.140820 -0.036153
v -0.085037 0.304837 -0.103082
v 0.085037 0.135691 -0.085284
v 0.085037 0.304837 -0.103082
v -0.085037 0.135691 -0.085284
v 0.085037 0.304837 -0.103082
v 0.085037 0.140820 -0.036153
v 0.085037 0.310028 -0.053889
v 0.085037 0.135691 -0.085284
v 0.085037 0.304837 -0.103082
v -0.085037 0.310028 -0.053889
v -0.085037 0.304837 -0.103082
v 0.085037 0.310028 -0.053889
v 0.085037 0.135691 -0.085284
v -0.085037 0.140820 -0.036153
v 0.085037 0.140820 -0.036153
v -0.085037 0.135691 -0.085284
v -0.085037 0.494378 -0.073295
v -0.085037 0.320040 -0.104689
v -0.085037 0.489248 -0.122487
v -0.085037 0.325231 -0.055496
v -0.085037 0.489248 -0.122487
v 0.085037 0.320040 -0.104689
v 0.085037 0.489248 -0.122487
v -0.085037 0.320040 -0.104689
v 0.085037 0.489248 -0.122487
v 0.085037 0.325231 -0.055496
v 0.085037 0.494378 -0.073295
v 0.085037 0.320040 -0.104689
v 0.085037 0.489248 -0.122487
v -0.085037 0.494378 -0.073295
v -0.085037 0.489248 -0.122487
v 0.085037 0.494378 -0.073295
v 0.085037 0.320040 -0.104689
v -0.085037 0.325231 -0.055496
v 0.085037 0.325231 -0.055496
v -0.085037 0.320040 -0.104689
v 0.034979 0.318248 0.029108
v -0.000000 0.357861 0.339282
v 0.034979 0.350940 0.340024
v -0.000000 0.325169 0.028366
v 0.064705 0.298533 0.031209
v 0.064705 0.331226 0.342063
v 0.084542 0.268993 0.034299
v 0.084542 0.301685 0.345153
v 0.091464 0.234200 0.037945
v 0.091464 0.266830 0.348861
v 0.084542 0.199035 0.041653
v 0.084542 0.205648 0.104257
v 0.064705 0.169804 0.044681
v 0.064705 0.174748 0.092824
v 0.034979 0.150090 0.046783
v 0.034979 0.153922 0.085160
v -0.000000 0.143107 0.047524
v -0.000000 0.146815 0.082441
v -0.034979 0.150090 0.046783
v -0.034979 0.153922 0.085160
v -0.064705 0.169804 0.044681
v -0.064705 0.174748 0.092824
v -0.084542 0.199035 0.041653
v -0.084542 0.205648 0.104257
v -0.091464 0.234200 0.037945
v -0.091464 0.266830 0.348861
v -0.084542 0.268993 0.034299
v -0.084542 0.301685 0.345153
v -0.064705 0.298533 0.031209
v -0.064705 0.331226 0.342063
v -0.034979 0.318248 0.029108
v -0.034979 0.350940 0.340024
v 0.100116 0.700419 -0.010382
v -0.100116 0.137668 0.048080
v -0.100116 0.700419 -0.010382
v 0.100116 0.137668 0.048080
v -0.100116 0.691582 -0.094059
v 0.100116 0.129140 -0.035226
v 0.100116 0.691582 -0.094059
v -0.100116 0.129140 -0.035226
v -0.100116 0.700419 -0.010382
v 0.100116 0.691582 -0.094059
v 0.100116 0.700419 -0.010382
v -0.100116 0.691582 -0.094059
vn -1.0000 -0.0000 -0.0000
vn -0.0000 -0.0000 -1.0000
vn 1.0000 -0.0000 -0.0000
vn -0.0000 -0.0000 1.0000
vn -0.0000 0.9940 -0.1092
vn 1.0000 0.0008 -0.0001
vn 1.0000 -0.0017 0.0002
vn -0.1968 -0.9751 0.1023
vn -0.1935 -0.9757 0.1028
vn 0.1935 0.9757 -0.1024
vn 0.1968 0.9750 -0.1027
vn -0.5547 -0.8275 0.0870
vn -0.5561 -0.8266 0.0868
vn 0.5561 0.8266 -0.0869
vn 0.5547 0.8275 -0.0868
vn -0.8316 -0.5524 0.0580
vn -0.8310 -0.5532 0.0582
vn 0.8310 0.5532 -0.0581
vn 0.8316 0.5524 -0.0581
vn -0.9810 -0.1930 0.0203
vn -0.9810 -0.1927 0.0202
vn 0.9810 0.1927 -0.0203
vn 0.9810 0.1930 -0.0203
vn -0.9815 0.1906 -0.0199
vn -0.9813 0.1914 -0.0201
vn 0.9813 -0.1914 0.0200
vn 0.9813 -0.1912 0.0201
vn -0.8306 0.5541 -0.0563
vn -0.8289 0.5564 -0.0582
vn 0.8289 -0.5566 0.0565
vn 0.8302 -0.5545 0.0580
vn -0.5560 0.8269 -0.0839
vn -0.5559 0.8270 -0.0840
vn 0.5559 -0.8270 0.0839
vn 0.5560 -0.8269 0.0840
vn -0.1923 0.9760 -0.1017
vn -0.1952 0.9758 -0.0990
vn 0.1952 -0.9755 0.1017
vn 0.1926 -0.9763 0.0990
vn 0.1926 0.9763 -0.0990
vn 0.1952 0.9755 -0.1017
vn -0.1952 -0.9758 0.0990
vn -0.1923 -0.9760 0.1017
vn 0.5560 0.8269 -0.0840
vn 0.5559 0.8270 -0.0839
vn -0.5559 -0.8270 0.0840
vn -0.5560 -0.8269 0.0839
vn 0.8302 0.5545 -0.0580
vn 0.8289 0.5566 -0.0565
vn -0.8289 -0.5564 0.0582
vn -0.8306 -0.5541 0.0563
vn 0.9813 0.1912 -0.0201
vn 0.9813 0.1914 -0.0200
vn -0.9813 -0.1914 0.0201
vn -0.9815 -0.1906 0.0199
vn 0.9810 -0.1930 0.0203
vn 0.9810 -0.1927 0.0203
vn -0.9810 0.1927 -0.0202
vn -0.9810 0.1930 -0.0203
vn 0.8316 -0.5524 0.0581
vn 0.8310 -0.5532 0.0581
vn -0.8310 0.5532 -0.0582
vn -0.8316 0.5524 -0.0580
vn 0.5547 -0.8275 0.0868
vn 0.5561 -0.8266 0.0869
vn -0.5561 0.8266 -0.0868
vn -0.5547 0.8275 -0.0870
vn 0.1968 -0.9750 0.1027
vn 0.1935 -0.9757 0.1024
vn -0.1935 0.9757 -0.1028
vn -0.1968 0.9751 -0.1023
vn -0.0000 -0.1047 -0.9945
vn -0.0000 0.9945 -0.1049
vn -0.0000 -0.9946 0.1037
vn -0.1952 -0.9754 0.1026
vn 0.1952 0.9754 -0.1026
vn -0.5549 -0.8274 0.0870
vn 0.5549 0.8274 -0.0870
vn 0.5547 0.8275 -0.0870
vn -0.8316 -0.5524 0.0581
vn -0.9811 -0.1927 0.0202
vn -0.9809 -0.1934 0.0203
vn 0.9809 0.1934 -0.0203
vn 0.9811 0.1927 -0.0203
vn -0.9811 0.1925 -0.0203
vn -0.9814 0.1911 -0.0200
vn 0.9814 -0.1910 0.0202
vn 0.9813 -0.1913 0.0200
vn -0.8304 0.5542 -0.0570
vn -0.8289 0.5563 -0.0588
vn 0.8289 -0.5565 0.0572
vn 0.8301 -0.5546 0.0586
vn -0.5576 0.8260 -0.0823
vn -0.5547 0.8277 -0.0851
vn 0.5547 -0.8279 0.0825
vn 0.5571 -0.8261 0.0849
vn -0.1907 0.9764 -0.1016
vn -0.1952 0.9759 -0.0973
vn 0.1952 -0.9755 0.1015
vn 0.1911 -0.9767 0.0974
vn 0.1911 0.9767 -0.0974
vn 0.1952 0.9755 -0.1015
vn -0.1952 -0.9759 0.0973
vn -0.1907 -0.9764 0.1016
vn 0.5571 0.8261 -0.0849
vn 0.5547 0.8279 -0.0825
vn -0.5547 -0.8277 0.0851
vn -0.5576 -0.8260 0.0823
vn 0.8301 0.5546 -0.0586
vn 0.8289 0.5565 -0.0572
vn -0.8289 -0.5563 0.0588
vn -0.8304 -0.5542 0.0570
vn 0.9813 0.1913 -0.0200
vn 0.9814 0.1910 -0.0202
vn -0.9814 -0.1911 0.0200
vn -0.9811 -0.1925 0.0203
vn 0.9811 -0.1927 0.0203
vn 0.9809 -0.1934 0.0203
vn -0.9809 0.1934 -0.0203
vn -0.9811 0.1927 -0.0202
vn -0.8316 0.5524 -0.0581
vn 0.5547 -0.8275 0.0870
vn 0.5549 -0.8274 0.0870
vn -0.5549 0.8274 -0.0870
vn 0.1952 -0.9754 0.1026
vn -0.1952 0.9754 -0.1026
vn -0.0000 -0.1046 -0.9945
vn -0.0000 -0.9946 0.1038
vn -0.0000 0.9946 -0.1037
vn -0.0000 -0.9945 0.1049
vn -0.9812 0.1921 -0.0203
vn -0.9814 0.1911 -0.0201
vn 0.9813 -0.1913 0.0201
vn -0.8304 0.5542 -0.0569
vn -0.8288 0.5564 -0.0588
vn 0.8288 -0.5566 0.0572
vn -0.5575 0.8261 -0.0825
vn -0.5549 0.8276 -0.0850
vn 0.5549 -0.8278 0.0826
vn 0.5570 -0.8262 0.0848
vn -0.1903 0.9762 -0.1037
vn -0.1968 0.9756 -0.0974
vn 0.1968 -0.9750 0.1035
vn 0.1909 -0.9768 0.0975
vn 0.1909 0.9768 -0.0975
vn 0.1968 0.9750 -0.1035
vn -0.1968 -0.9756 0.0974
vn -0.1903 -0.9762 0.1037
vn 0.5570 0.8262 -0.0848
vn 0.5549 0.8278 -0.0826
vn -0.5549 -0.8276 0.0850
vn -0.5575 -0.8261 0.0825
vn 0.8288 0.5566 -0.0572
vn -0.8288 -0.5564 0.0588
vn -0.8304 -0.5542 0.0569
vn 0.9813 0.1913 -0.0201
vn -0.9814 -0.1911 0.0201
vn -0.9812 -0.1921 0.0203
vn -0.0000 0.1033 0.9946
vn -0.0000 -0.1040 -0.9946
vn -0.0000 0.9945 -0.1050
vt 0.563000 0.480000
vt 0.531000 0.440000
vt 0.531000 0.480000
vt 0.563000 0.440000
vt 0.720000 0.480000
vt 0.617000 0.440000
vt 0.617000 0.480000
vt 0.720000 0.440000
vt 0.676000 0.467000
vt 0.547000 0.445000
vt 0.547000 0.467000
vt 0.676000 0.445000
vt 0.923000 0.993000
vt 0.847000 0.698000
vt 0.860000 0.996000
vt 0.907000 0.696000
vt 0.861000 0.997000
vt 0.906000 0.695000
vt 0.924000 0.993000
vt 0.846000 0.699000
vt 0.855000 0.845000
vt 0.915000 0.843000
vt 0.914000 0.842000
vt 0.854000 0.846000
vt 0.851000 0.838000
vt 0.610000 0.844000
vt 0.607000 0.837000
vt 0.851000 0.846000
vt 0.851000 0.827000
vt 0.605000 0.825000
vt 0.850000 0.812000
vt 0.605000 0.805000
vt 0.849000 0.791000
vt 0.604000 0.784000
vt 0.848000 0.771000
vt 0.793000 0.765000
vt 0.848000 0.754000
vt 0.808000 0.748000
vt 0.847000 0.742000
vt 0.815000 0.742000
vt 0.847000 0.738000
vt 0.818000 0.738000
vt 0.915000 0.835000
vt 0.940000 0.704000
vt 0.947000 0.835000
vt 0.908000 0.704000
vt 0.501000 0.559000
vt 0.356000 0.388000
vt 0.356000 0.559000
vt 0.501000 0.388000
vt 0.955000 0.982000
vt 0.917000 0.852000
vt 0.923000 0.982000
vt 0.949000 0.852000
vt 0.499000 0.557000
vt 0.360000 0.512000
vt 0.360000 0.557000
vt 0.499000 0.512000
vt 0.849000 0.838000
vt 0.607000 0.846000
vt 0.849000 0.849000
vt 0.621000 0.977000
vt 0.864000 0.988000
vt 0.864000 0.980000
vt 0.625000 0.984000
vt 0.849000 0.827000
vt 0.607000 0.825000
vt 0.621000 0.966000
vt 0.863000 0.968000
vt 0.848000 0.809000
vt 0.607000 0.808000
vt 0.621000 0.950000
vt 0.862000 0.948000
vt 0.847000 0.789000
vt 0.607000 0.787000
vt 0.622000 0.931000
vt 0.861000 0.923000
vt 0.846000 0.768000
vt 0.807000 0.768000
vt 0.821000 0.903000
vt 0.860000 0.908000
vt 0.846000 0.751000
vt 0.817000 0.750000
vt 0.831000 0.892000
vt 0.859000 0.892000
vt 0.845000 0.739000
vt 0.824000 0.738000
vt 0.838000 0.880000
vt 0.859000 0.881000
vt 0.845000 0.735000
vt 0.826000 0.734000
vt 0.840000 0.876000
vt 0.859000 0.877000
vt 0.106000 1.000000
vt 0.006000 0.702000
vt 0.006000 1.000000
vt 0.106000 0.702000
vt 0.512000 0.571000
vt 0.346000 0.006000
vt 0.346000 0.571000
vt 0.512000 0.006000
vt 0.478000 0.804000
vt 0.540000 0.668000
vt 0.478000 0.668000
vt 0.540000 0.804000
s 0
usemtl AZD_Trp
f 181/181/7 183/183/7 182/182/7
f 182/182/7 184/184/7 181/181/7
f 185/185/8 187/187/8 186/186/8
f 186/186/8 188/188/8 185/185/8
f 189/181/9 191/183/9 190/182/9
f 190/182/9 192/184/9 189/181/9
f 193/185/10 195/187/10 194/186/10
f 194/186/10 196/188/10 193/185/10
f 197/189/11 199/191/11 198/190/11
f 198/190/11 200/192/11 197/189/11
f 201/193/12 203/195/12 202/194/12
f 202/194/12 204/196/12 201/193/12
f 205/197/7 207/199/7 206/198/7
f 206/198/7 208/200/7 205/197/7
f 209/193/13 211/195/13 210/201/13
f 210/201/13 212/202/13 209/193/13
f 213/197/7 215/199/7 214/203/7
f 214/203/7 216/204/7 213/197/7
f 217/205/14 219/207/14 218/206/14
f 217/205/15 218/206/15 220/208/15
f 219/207/16 217/205/16 220/208/16
f 219/207/17 220/208/17 218/206/17
f 221/209/18 222/210/18 219/207/18
f 221/209/19 219/207/19 217/205/19
f 222/210/20 221/209/20 217/205/20
f 222/210/21 217/205/21 219/207/21
f 223/211/22 224/212/22 222/210/22
f 223/211/23 222/210/23 221/209/23
f 224/212/24 223/211/24 221/209/24
f 224/212/25 221/209/25 222/210/25
f 225/213/26 226/214/26 224/212/26
f 225/213/27 224/212/27 223/211/27
f 226/214/28 225/213/28 223/211/28
f 226/214/29 223/211/29 224/212/29
f 227/215/30 228/216/30 226/214/30
f 227/215/31 226/214/31 225/213/31
f 228/216/32 227/215/32 225/213/32
f 228/216/33 225/213/33 226/214/33
f 229/217/34 230/218/34 228/216/34
f 229/217/35 228/216/35 227/215/35
f 230/218/36 229/217/36 227/215/36
f 230/218/37 227/215/37 228/216/37
f 231/219/38 232/220/38 230/218/38
f 231/219/39 230/218/39 229/217/39
f 232/220/40 231/219/40 229/217/40
f 232/220/41 229/217/41 230/218/41
f 233/221/42 234/222/42 232/220/42
f 233/221/43 232/220/43 231/219/43
f 234/222/44 233/221/44 231/219/44
f 234/222/45 231/219/45 232/220/45
f 235/219/46 236/220/46 234/222/46
f 235/219/47 234/222/47 233/221/47
f 236/220/48 235/219/48 233/221/48
f 236/220/49 233/221/49 234/222/49
f 237/217/50 238/218/50 236/220/50
f 237/217/51 236/220/51 235/219/51
f 238/218/52 237/217/52 235/219/52
f 238/218/53 235/219/53 236/220/53
f 239/215/54 240/216/54 238/218/54
f 239/215/55 238/218/55 237/217/55
f 240/216/56 239/215/56 237/217/56
f 240/216/57 237/217/57 238/218/57
f 241/213/58 242/214/58 240/216/58
f 241/213/59 240/216/59 239/215/59
f 242/214/60 241/213/60 239/215/60
f 242/214/61 239/215/61 240/216/61
f 243/211/62 244/212/62 242/214/62
f 243/211/63 242/214/63 241/213/63
f 244/212/64 243/211/64 241/213/64
f 244/212/65 241/213/65 242/214/65
f 245/209/66 246/210/66 244/212/66
f 245/209/67 244/212/67 243/211/67
f 246/210/68 245/209/68 243/211/68
f 246/210/69 243/211/69 244/212/69
f 247/205/70 248/207/70 246/210/70
f 247/205/71 246/210/71 245/209/71
f 248/207/72 247/205/72 245/209/72
f 248/207/73 245/209/73 246/210/73
f 220/208/74 218/206/74 248/207/74
f 220/208/75 248/207/75 247/205/75
f 218/206/76 220/208/76 247/205/76
f 218/206/77 247/205/77 248/207/77
f 249/223/7 251/225/7 250/224/7
f 250/224/7 252/226/7 249/223/7
f 253/227/78 255/229/78 254/228/78
f 254/228/78 256/230/78 253/227/78
f 257/231/9 259/233/9 258/232/9
f 258/232/9 260/234/9 257/231/9
f 261/235/79 263/237/79 262/236/79
f 262/236/79 264/238/79 261/235/79
f 265/237/80 267/236/80 266/238/80
f 266/238/80 268/235/80 265/237/80
f 269/239/81 271/207/81 270/240/81
f 269/239/81 270/240/81 272/241/81
f 273/242/82 275/244/82 274/243/82
f 273/242/82 274/243/82 276/245/82
f 277/246/18 278/247/18 271/207/18
f 277/246/83 271/207/83 269/239/83
f 279/248/84 280/249/84 275/244/84
f 279/248/85 275/244/85 273/242/85
f 281/250/86 282/251/86 278/247/86
f 281/250/86 278/247/86 277/246/86
f 283/252/25 284/253/25 280/249/25
f 283/252/25 280/249/25 279/248/25
f 285/254/87 286/255/87 282/251/87
f 285/254/88 282/251/88 281/250/88
f 287/256/89 288/257/89 284/253/89
f 287/256/90 284/253/90 283/252/90
f 289/258/91 290/259/91 286/255/91
f 289/258/92 286/255/92 285/254/92
f 291/260/93 292/261/93 288/257/93
f 291/260/94 288/257/94 287/256/94
f 293/262/95 294/263/95 290/259/95
f 293/262/96 290/259/96 289/258/96
f 295/264/97 296/265/97 292/261/97
f 295/264/98 292/261/98 291/260/98
f 297/266/99 298/267/99 294/263/99
f 297/266/100 294/263/100 293/262/100
f 299/268/101 300/269/101 296/265/101
f 299/268/102 296/265/102 295/264/102
f 301/270/103 302/271/103 298/267/103
f 301/270/104 298/267/104 297/266/104
f 303/272/105 304/273/105 300/269/105
f 303/272/106 300/269/106 299/268/106
f 305/266/107 306/267/107 302/271/107
f 305/266/108 302/271/108 301/270/108
f 307/268/109 308/269/109 304/273/109
f 307/268/110 304/273/110 303/272/110
f 309/262/111 310/263/111 306/267/111
f 309/262/112 306/267/112 305/266/112
f 311/264/113 312/265/113 308/269/113
f 311/264/114 308/269/114 307/268/114
f 313/258/115 314/259/115 310/263/115
f 313/258/116 310/263/116 309/262/116
f 315/260/117 316/261/117 312/265/117
f 315/260/118 312/265/118 311/264/118
f 317/254/119 318/255/119 314/259/119
f 317/254/120 314/259/120 313/258/120
f 319/256/121 320/257/121 316/261/121
f 319/256/122 316/261/122 315/260/122
f 321/250/123 322/251/123 318/255/123
f 321/250/124 318/255/124 317/254/124
f 323/252/125 324/253/125 320/257/125
f 323/252/126 320/257/126 319/256/126
f 325/246/66 326/247/66 322/251/66
f 325/246/66 322/251/66 321/250/66
f 327/248/127 328/249/127 324/253/127
f 327/248/127 324/253/127 323/252/127
f 329/239/128 330/207/128 326/247/128
f 329/239/129 326/247/129 325/246/129
f 331/242/130 332/244/130 328/249/130
f 331/242/73 328/249/73 327/248/73
f 272/241/131 270/240/131 330/207/131
f 272/241/131 330/207/131 329/239/131
f 276/245/132 274/243/132 332/244/132
f 276/245/132 332/244/132 331/242/132
f 333/223/7 335/225/7 334/224/7
f 334/224/7 336/226/7 333/223/7
f 337/227/133 339/229/133 338/228/133
f 338/228/133 340/230/133 337/227/133
f 341/231/9 343/233/9 342/232/9
f 342/232/9 344/234/9 341/231/9
f 345/235/79 347/237/79 346/236/79
f 346/236/79 348/238/79 345/235/79
f 349/237/134 351/236/134 350/238/134
f 350/238/134 352/235/134 349/237/134
f 353/223/7 355/225/7 354/224/7
f 354/224/7 356/226/7 353/223/7
f 357/227/133 359/229/133 358/228/133
f 358/228/133 360/230/133 357/227/133
f 361/231/9 363/233/9 362/232/9
f 362/232/9 364/234/9 361/231/9
f 365/235/135 367/237/135 366/236/135
f 366/236/135 368/238/135 365/235/135
f 369/237/136 371/236/136 370/238/136
f 370/238/136 372/235/136 369/237/136
f 373/205/81 375/207/81 374/206/81
f 373/205/81 374/206/81 376/208/81
f 375/207/82 373/205/82 376/208/82
f 375/207/82 376/208/82 374/206/82
f 377/209/18 378/210/18 375/207/18
f 377/209/83 375/207/83 373/205/83
f 378/210/84 377/209/84 373/205/84
f 378/210/85 373/205/85 375/207/85
f 379/211/86 380/212/86 378/210/86
f 379/211/86 378/210/86 377/209/86
f 380/212/25 379/211/25 377/209/25
f 380/212/25 377/209/25 378/210/25
f 381/213/87 382/214/87 380/212/87
f 381/213/26 380/212/26 379/211/26
f 382/214/29 381/213/29 379/211/29
f 382/214/90 379/211/90 380/212/90
f 383/215/137 384/216/137 382/214/137
f 383/215/138 382/214/138 381/213/138
f 384/216/93 383/215/93 381/213/93
f 384/216/139 381/213/139 382/214/139
f 385/217/140 386/218/140 384/216/140
f 385/217/141 384/216/141 383/215/141
f 386/218/142 385/217/142 383/215/142
f 386/218/98 383/215/98 384/216/98
f 387/219/143 388/220/143 386/218/143
f 387/219/144 386/218/144 385/217/144
f 388/220/145 387/219/145 385/217/145
f 388/220/146 385/217/146 386/218/146
f 389/221/147 390/222/147 388/220/147
f 389/221/148 388/220/148 387/219/148
f 390/222/149 389/221/149 387/219/149
f 390/222/150 387/219/150 388/220/150
f 391/219/151 392/220/151 390/222/151
f 391/219/152 390/222/152 389/221/152
f 392/220/153 391/219/153 389/221/153
f 392/220/154 389/221/154 390/222/154
f 393/217/155 394/218/155 392/220/155
f 393/217/156 392/220/156 391/219/156
f 394/218/157 393/217/157 391/219/157
f 394/218/158 391/219/158 392/220/158
f 395/215/115 396/216/115 394/218/115
f 395/215/159 394/218/159 393/217/159
f 396/216/160 395/215/160 393/217/160
f 396/216/161 393/217/161 394/218/161
f 397/213/162 398/214/162 396/216/162
f 397/213/120 396/216/120 395/215/120
f 398/214/163 397/213/163 395/215/163
f 398/214/164 395/215/164 396/216/164
f 399/211/123 400/212/123 398/214/123
f 399/211/62 398/214/62 397/213/62
f 400/212/65 399/211/65 397/213/65
f 400/212/126 397/213/126 398/214/126
f 401/209/66 402/210/66 400/212/66
f 401/209/66 400/212/66 399/211/66
f 402/210/127 401/209/127 399/211/127
f 402/210/127 399/211/127 400/212/127
f 403/205/128 404/207/128 402/210/128
f 403/205/129 402/210/129 401/209/129
f 404/207/130 403/205/130 401/209/130
f 404/207/73 401/209/73 402/210/73
f 376/208/131 374/206/131 404/207/131
f 376/208/131 404/207/131 403/205/131
f 374/206/132 376/208/132 403/205/132
f 374/206/132 403/205/132 404/207/132
f 405/274/165 407/276/165 406/275/165
f 406/275/165 408/277/165 405/274/165
f 409/278/166 411/280/166 410/279/166
f 410/279/166 412/281/166 409/278/166
f 413/282/167 415/284/167 414/283/167
f 414/283/167 416/285/167 413/282/167
o zaklad_3svet
v -0.091093 0.039221 0.121746
v -0.091093 0.127718 0.132252
v -0.091093 0.126915 0.118162
v 0.091093 0.127718 0.132252
v 0.091093 0.126915 0.118162
v 0.091093 0.039221 0.121746
v -0.084172 0.138039 0.059390
v -0.059081 0.138039 0.059390
v -0.059081 0.116656 0.116122
v -0.059081 0.116656 0.116122
v -0.082070 0.116656 0.116122
v -0.084172 0.138039 0.059390
v -0.084172 0.138039 0.059390
v -0.082070 0.116656 0.116122
v -0.059081 0.116656 0.116122
v -0.059081 0.138039 0.059390
v 0.084110 0.138039 0.059390
v 0.059019 0.116656 0.116122
v 0.059019 0.138039 0.059390
v 0.059019 0.116656 0.116122
v 0.084110 0.138039 0.059390
v 0.081947 0.116656 0.116122
v 0.084110 0.138039 0.059390
v 0.059019 0.116656 0.116122
v 0.081947 0.116656 0.116122
v 0.059019 0.138039 0.059390
v -0.077250 0.103740 -0.159135
v -0.077250 0.088352 -0.182186
v -0.077250 0.102689 -0.182804
v -0.077250 0.089402 -0.158517
v -0.077250 0.102689 -0.182804
v 0.077250 0.088352 -0.182186
v 0.077250 0.102689 -0.182804
v -0.077250 0.088352 -0.182186
v 0.077250 0.102689 -0.182804
v 0.077250 0.089402 -0.158517
v 0.077250 0.103740 -0.159135
v 0.077250 0.088352 -0.182186
v 0.077250 0.102689 -0.182804
v -0.077250 0.103740 -0.159135
v -0.077250 0.102689 -0.182804
v 0.077250 0.103740 -0.159135
v 0.077250 0.088352 -0.182186
v -0.077250 0.089402 -0.158517
v 0.077250 0.089402 -0.158517
v -0.077250 0.088352 -0.182186
v -0.108953 0.090885 0.071564
v -0.108953 0.090886 -0.108953
v 0.108953 0.090886 -0.108953
v 0.108953 0.090885 0.071564
v -0.057412 0.118387 -0.184411
v -0.079228 0.083779 -0.158579
v -0.057412 0.082110 -0.182001
v -0.079228 0.119993 -0.160989
v 0.057412 0.082110 -0.182001
v 0.079228 0.119993 -0.160989
v 0.057412 0.118387 -0.184411
v 0.079228 0.083779 -0.158579
v 0.057412 0.118387 -0.184411
v -0.079228 0.119993 -0.160989
v -0.057412 0.118387 -0.184411
v 0.079228 0.119993 -0.160989
v -0.057412 0.082110 -0.182001
v 0.079228 0.083779 -0.158579
v 0.057412 0.082110 -0.182001
v -0.079228 0.083779 -0.158579
v -0.133488 0.070244 0.076508
v 0.133488 0.070244 0.076508
v 0.135960 0.033597 0.084233
v -0.135775 0.033597 0.084233
v -0.108953 0.090885 0.071564
v 0.108953 0.090885 0.071564
v 0.133488 0.070244 0.076508
v 0.133179 0.070121 -0.133179
v 0.135960 0.033597 0.084233
v 0.108953 0.090885 0.071564
v 0.108953 0.090886 -0.108953
v -0.133179 0.070121 -0.133488
v -0.108953 0.090885 0.071564
v -0.133488 0.070244 0.076508
v -0.135775 0.033597 0.084233
v -0.135775 0.033659 0.133303
v -0.135775 0.033659 0.133303
v 0.135960 0.033659 0.133303
v 0.135960 0.033659 0.133303
v -0.091093 0.126915 0.118162
v 0.091093 0.039221 0.121746
v 0.091093 0.126915 0.118162
v -0.091093 0.039221 0.121746
v 0.091093 0.126915 0.118162
v -0.091093 0.039221 0.121746
v -0.091093 0.126915 0.118162
v 0.091093 0.039221 0.121746
v -0.079228 0.129696 -0.032074
v -0.079228 0.083779 -0.158579
v -0.079228 0.119993 -0.160989
v -0.079228 0.093419 -0.029726
v 0.079228 0.119993 -0.160989
v 0.079228 0.093419 -0.029726
v 0.079228 0.129696 -0.032074
v 0.079228 0.083779 -0.158579
v -0.079228 0.129696 -0.032074
v 0.079228 0.129696 -0.032074
v -0.079228 0.093419 -0.029726
v 0.079228 0.093419 -0.029726
v 0.043384 0.070862 -0.135218
v 0.055744 0.092492 -0.156663
v 0.055744 0.070862 -0.156663
v 0.043384 0.092492 -0.135218
v 0.018664 0.070862 -0.135218
v 0.018664 0.092492 -0.135218
v 0.006304 0.070862 -0.156663
v 0.006304 0.092492 -0.156663
v 0.018664 0.070862 -0.178046
v 0.018664 0.092492 -0.178046
v 0.043384 0.070862 -0.178046
v 0.043384 0.092492 -0.178046
v 0.031024 0.070862 -0.156663
v 0.042951 0.072407 -0.163523
v 0.031024 0.072407 -0.142882
v 0.019158 0.072407 -0.163523
v -0.108953 0.090886 -0.108953
v -0.108953 0.090886 -0.108953
v 0.133179 0.070121 -0.133179
v 0.108953 0.090886 -0.108953
v -0.133179 0.070121 -0.133488
v -0.136883 0.000000 0.134832
v 0.040417 0.000000 -0.164324
v -0.136882 0.000000 0.058778
v 0.028503 0.000000 -0.152440
v 0.135777 0.000000 -0.088633
v -0.075400 0.000000 -0.135780
v 0.031024 0.000000 -0.148068
v 0.042951 0.000000 -0.168696
v 0.137048 0.000000 0.127574
v -0.136882 0.000000 0.091220
v 0.104567 0.000000 0.134832
v 0.135778 0.000000 -0.135535
v 0.137046 0.000000 0.083972
v 0.137048 0.000000 0.134832
v 0.135778 0.000000 -0.135535
v 0.019158 0.000000 -0.168696
v -0.136881 0.000000 0.083972
v -0.136883 0.000000 0.134832
v 0.137048 0.000000 0.134832
v -0.135778 -0.000000 -0.135780
v 0.024213 0.000000 -0.168696
v -0.135778 -0.000000 -0.135780
vn -0.0000 -0.9984 0.0569
vn -1.0000 -0.0000 -0.0000
vn -0.0000 0.9984 -0.0569
vn 1.0000 -0.0000 -0.0000
vn -0.0000 0.9357 0.3527
vn -0.0000 -0.9357 -0.3527
vn -0.0000 -0.0431 -0.9991
vn -0.0000 0.9990 -0.0443
vn -0.0000 -0.9990 0.0443
vn -0.0000 1.0000 -0.0000
vn -0.7326 -0.0451 -0.6791
vn -0.7326 -0.0452 -0.6792
vn 0.7326 -0.0451 -0.6792
vn 0.7326 -0.0452 -0.6791
vn -0.0000 0.9977 -0.0684
vn -0.0000 -0.9975 0.0711
vn -0.0000 0.2063 0.9785
vn -0.0000 0.2329 0.9725
vn 0.9978 0.0670 -0.0015
vn 0.6508 0.7593 -0.0000
vn 0.6439 0.7651 -0.0014
vn -0.6439 0.7651 -0.0014
vn -0.9995 0.0329 -0.0000
vn -0.0000 1.0000 -0.0013
vn 0.9995 0.0323 -0.0000
vn -0.0000 -0.0408 -0.9992
vn -0.0000 0.0408 0.9992
vn -0.0000 -0.0663 -0.9978
vn -0.0000 0.9972 -0.0751
vn -0.0000 -0.9972 0.0746
vn 0.8664 -0.0000 0.4994
vn -0.0000 -0.0000 1.0000
vn -0.8664 -0.0000 0.4994
vn -0.8658 -0.0000 -0.5004
vn -0.0000 -0.0000 -1.0000
vn 0.8658 -0.0000 -0.5004
vn -0.0000 -1.0000 -0.0000
vn -0.6508 0.7593 -0.0000
vn -0.9981 0.0620 -0.0015
vn -0.0000 0.7593 -0.6508
vn 0.0007 0.7629 -0.6465
vn -0.9993 0.0372 -0.0057
vn 0.0012 0.0336 -0.9994
vn 0.9994 0.0324 -0.0073
vn -0.0000 0.0454 0.9990
vn 0.8653 -0.0358 0.5000
vn -0.8664 -0.0356 0.4981
vn -0.0000 0.0713 -0.9975
vn -0.0000 0.0327 -0.9995
vn 0.9993 0.0370 -0.0000
vn -0.8658 -0.0358 0.4992
vn 0.8646 -0.0358 0.5011
vn -0.0000 -0.1848 -0.9828
vt 0.659000 0.318000
vt 0.811000 0.318000
vt 0.659000 0.224000
vt 0.811000 0.224000
vt 0.462000 0.646000
vt 0.387000 0.646000
vt 0.387000 0.630000
vt 0.472000 0.601000
vt 0.472000 0.625000
vt 0.377000 0.625000
vt 0.377000 0.601000
vt 0.978000 0.683000
vt 0.992000 0.667000
vt 0.992000 0.683000
vt 0.978000 0.667000
vt 0.767000 0.734000
vt 0.611000 0.714000
vt 0.611000 0.734000
vt 0.767000 0.714000
vt 0.989000 0.328000
vt 0.967000 0.498000
vt 0.989000 0.498000
vt 0.967000 0.328000
vt 0.820000 0.524000
vt 0.898000 0.524000
vt 0.898000 0.605000
vt 0.820000 0.605000
vt 0.747000 0.745000
vt 0.769000 0.713000
vt 0.747000 0.712000
vt 0.769000 0.746000
vt 0.631000 0.712000
vt 0.609000 0.746000
vt 0.631000 0.745000
vt 0.609000 0.713000
vt 0.989000 0.350000
vt 0.967000 0.500000
vt 0.989000 0.477000
vt 0.967000 0.326000
vt 0.819000 0.642000
vt 0.941000 0.642000
vt 0.941000 0.622000
vt 0.819000 0.622000
vt 0.819000 0.664000
vt 0.941000 0.664000
vt 0.814000 0.648000
vt 0.959000 0.641000
vt 0.805000 0.616000
vt 0.819000 0.668000
vt 0.940000 0.665000
vt 0.802886 0.603538
vt 0.805111 0.603430
vt 0.819000 0.600000
vt 0.941000 0.600000
vt 0.789000 0.615000
vt 0.790894 0.602521
vt 0.788666 0.602629
vt 0.346000 0.659000
vt 0.510000 0.574000
vt 0.510000 0.659000
vt 0.346000 0.574000
vt 0.991000 0.320000
vt 0.818000 0.224000
vt 0.818000 0.320000
vt 0.991000 0.224000
vt 0.899000 0.694000
vt 0.979000 0.666000
vt 0.979000 0.690000
vt 0.899000 0.669000
vt 0.855000 0.500000
vt 0.855000 0.326000
vt 0.646000 0.695000
vt 0.633000 0.714000
vt 0.633000 0.694000
vt 0.645000 0.714000
vt 0.670000 0.695000
vt 0.670000 0.714000
vt 0.683000 0.694000
vt 0.683000 0.714000
vt 0.658000 0.695000
vt 0.817000 0.664000
vt 0.817000 0.642000
vt 0.822135 0.603983
vt 0.842688 0.613411
vt 0.927310 0.612417
vt 0.927404 0.589301
vt 0.648549 0.672906
vt 0.664901 0.672906
vt 0.660549 0.672906
vt 0.788666 0.602629
vt 0.658000 0.672906
vt 0.817000 0.613411
vt 0.959000 0.613447
vt 0.941000 0.589301
vt 0.646000 0.672906
vt 0.670000 0.672906
vt 0.000000 0.000000
vt 0.941000 0.613411
vt 0.819000 0.589301
s 0
usemtl AZD_Trp
f 419/286/168 421/287/168 420/287/168
f 420/287/168 418/286/168 419/286/168
f 417/288/169 418/286/169 419/286/169
f 418/286/170 420/287/170 421/287/170
f 421/287/170 419/286/170 418/286/170
f 422/289/171 421/287/171 420/287/171
f 423/290/172 425/292/172 424/291/172
f 426/293/172 428/295/172 427/294/172
f 429/296/173 431/294/173 430/293/173
f 431/294/173 429/296/173 432/295/173
f 433/290/172 435/291/172 434/292/172
f 436/293/172 438/294/172 437/295/172
f 439/296/173 441/293/173 440/294/173
f 440/294/173 442/295/173 439/296/173
f 443/297/169 445/299/169 444/298/169
f 444/298/169 446/300/169 443/297/169
f 447/301/174 449/303/174 448/302/174
f 448/302/174 450/304/174 447/301/174
f 451/299/171 453/297/171 452/300/171
f 452/300/171 454/298/171 451/299/171
f 455/305/175 457/307/175 456/306/175
f 456/306/175 458/308/175 455/305/175
f 459/305/176 461/308/176 460/306/176
f 460/306/176 462/307/176 459/305/176
f 463/309/177 465/311/177 464/310/177
f 463/309/177 466/312/177 465/311/177
f 467/313/178 469/315/178 468/314/178
f 468/314/179 470/316/179 467/313/179
f 471/317/180 473/319/180 472/318/180
f 472/318/181 474/320/181 471/317/181
f 475/321/182 477/323/182 476/322/182
f 476/322/182 478/324/182 475/321/182
f 479/323/183 481/321/183 480/324/183
f 480/324/183 482/322/183 479/323/183
f 483/325/184 485/327/184 484/326/184
f 483/325/184 486/328/184 485/327/184
f 487/329/185 484/326/185 488/330/185
f 487/329/185 483/325/185 484/326/185
f 489/331/186 491/333/186 490/332/186
f 492/334/187 490/332/187 493/335/187
f 492/334/188 489/331/188 490/332/188
f 494/332/189 496/331/189 495/334/189
f 497/333/190 559/337/190 552/336/190
f 499/338/191 500/339/191 485/327/191
f 485/327/191 486/328/191 499/338/191
f 501/340/192 556/342/192 551/341/192
f 502/343/193 504/345/193 503/344/193
f 503/344/193 505/346/193 502/343/193
f 506/347/194 508/349/194 507/348/194
f 507/348/194 509/350/194 506/347/194
f 510/351/169 512/353/169 511/352/169
f 511/352/169 513/354/169 510/351/169
f 467/313/195 473/319/195 471/317/195
f 471/317/195 469/315/195 467/313/195
f 514/353/171 516/351/171 515/354/171
f 515/354/171 517/352/171 514/353/171
f 478/324/196 476/322/196 518/355/196
f 518/355/196 519/356/196 478/324/196
f 480/324/197 521/356/197 520/355/197
f 520/355/197 482/322/197 480/324/197
f 522/357/198 524/359/198 523/358/198
f 522/357/198 523/358/198 525/360/198
f 526/361/199 522/357/199 525/360/199
f 526/361/199 525/360/199 527/362/199
f 528/363/200 526/361/200 527/362/200
f 528/363/200 527/362/200 529/364/200
f 530/361/201 528/363/201 529/364/201
f 530/361/201 529/364/201 531/362/201
f 532/357/202 530/361/202 531/362/202
f 532/357/202 531/362/202 533/360/202
f 524/359/203 532/357/203 533/360/203
f 524/359/203 533/360/203 523/358/203
f 534/365/204 524/359/204 522/357/204
f 534/365/204 522/357/204 526/361/204
f 534/365/204 526/361/204 528/363/204
f 534/365/204 528/363/204 530/361/204
f 534/365/204 530/361/204 532/357/204
f 534/365/204 532/357/204 524/359/204
f 495/334/205 538/335/205 494/332/205
f 494/332/206 497/333/206 496/331/206
f 539/366/207 541/330/207 540/326/207
f 540/326/208 542/367/208 539/366/208
f 545/368/209 497/333/209 494/332/209
f 548/369/210 542/367/210 540/326/210
f 547/370/211 490/332/211 491/333/211
f 553/371/212 500/339/212 499/338/212
f 544/372/204 546/374/204 563/373/204
f 552/336/190 560/375/190 498/340/190
f 549/376/213 544/372/213 535/357/213
f 546/374/214 536/365/214 537/361/214
f 563/373/215 537/361/215 535/357/215
f 559/337/190 497/333/190 545/368/190
f 562/377/216 542/367/216 548/369/216
f 557/378/217 490/332/217 547/370/217
f 561/379/212 500/339/212 553/371/212
f 549/376/218 536/365/218 546/374/218
f 551/341/192 555/337/192 491/333/192
f 550/380/219 535/357/219 544/372/219
f 558/381/215 537/361/215 563/373/215
f 560/382/204 562/382/204 554/382/204
f 545/368/209 494/332/209 564/378/209
f 548/369/210 540/326/210 554/383/210
f 547/370/211 491/333/211 555/337/211
f 553/371/212 499/338/212 543/384/212
f 546/374/204 544/372/204 549/376/204
f 544/372/204 563/373/204 550/380/204
f 563/373/204 546/374/204 558/381/204
f 552/336/190 498/340/190 497/333/190
f 549/376/213 535/357/213 536/365/213
f 546/374/214 537/361/214 558/381/214
f 563/373/215 535/357/215 550/380/215
f 551/341/192 491/333/192 501/340/192
f 543/382/204 561/382/204 556/382/204
f 560/382/220 561/382/220 543/382/220
f 560/382/204 555/382/204 561/382/204
f 555/382/204 554/382/204 557/382/204
f 560/382/204 554/382/204 555/382/204
f 554/382/204 562/382/204 564/382/204
